{
  "header": { "format": 1, "numTracks": 2, "ticksPerBeat": 120 },
  "tracks": [
    [
      {
        "deltaTime": 0,
        "meta": true,
        "type": "keySignature",
        "key": -1,
        "scale": 0
      },
      {
        "deltaTime": 0,
        "meta": true,
        "type": "trackName",
        "text": "'But Not For Me' (played with prepared bass line)"
      },
      {
        "deltaTime": 0,
        "meta": true,
        "type": "setTempo",
        "microsecondsPerBeat": 500000
      },
      {
        "deltaTime": 0,
        "meta": true,
        "type": "timeSignature",
        "numerator": 4,
        "denominator": 4,
        "metronome": 24,
        "thirtyseconds": 8
      },
      { "deltaTime": 0, "meta": true, "type": "endOfTrack" }
    ],
    [
      {
        "deltaTime": 0,
        "meta": true,
        "type": "trackName",
        "text": "3 - Untitled"
      },
      {
        "deltaTime": 0,
        "channel": 0,
        "type": "controller",
        "controllerType": 88,
        "value": 35
      },
      {
        "deltaTime": 0,
        "running": true,
        "channel": 0,
        "type": "controller",
        "controllerType": 86,
        "value": 37
      },
      {
        "deltaTime": 0,
        "running": true,
        "channel": 0,
        "type": "controller",
        "controllerType": 85,
        "value": 37
      },
      {
        "deltaTime": 0,
        "running": true,
        "channel": 0,
        "type": "controller",
        "controllerType": 64,
        "value": 22
      },
      {
        "deltaTime": 0,
        "running": true,
        "channel": 0,
        "type": "controller",
        "controllerType": 88,
        "value": 35
      },
      {
        "deltaTime": 0,
        "running": true,
        "channel": 0,
        "type": "controller",
        "controllerType": 86,
        "value": 37
      },
      {
        "deltaTime": 0,
        "running": true,
        "channel": 0,
        "type": "controller",
        "controllerType": 85,
        "value": 37
      },
      {
        "deltaTime": 0,
        "running": true,
        "channel": 0,
        "type": "controller",
        "controllerType": 64,
        "value": 22
      },
      {
        "deltaTime": 0,
        "running": true,
        "channel": 0,
        "type": "controller",
        "controllerType": 88,
        "value": 35
      },
      {
        "deltaTime": 0,
        "running": true,
        "channel": 0,
        "type": "controller",
        "controllerType": 64,
        "value": 0
      },
      {
        "deltaTime": 0,
        "running": true,
        "channel": 0,
        "type": "controller",
        "controllerType": 64,
        "value": 0
      },
      {
        "deltaTime": 28,
        "running": true,
        "channel": 0,
        "type": "controller",
        "controllerType": 86,
        "value": 37
      },
      {
        "deltaTime": 0,
        "running": true,
        "channel": 0,
        "type": "controller",
        "controllerType": 85,
        "value": 37
      },
      {
        "deltaTime": 0,
        "running": true,
        "channel": 0,
        "type": "controller",
        "controllerType": 64,
        "value": 22
      },
      {
        "deltaTime": 111,
        "channel": 0,
        "type": "noteOn",
        "noteNumber": 67,
        "velocity": 103
      },
      {
        "deltaTime": 118,
        "running": true,
        "channel": 0,
        "type": "noteOn",
        "noteNumber": 69,
        "velocity": 58
      },
      { "deltaTime": 7, "meta": true, "type": "text", "text": "Pick-up" },
      {
        "deltaTime": 11,
        "running": true,
        "channel": 0,
        "type": "noteOff",
        "noteNumber": 69,
        "velocity": 0,
        "byte9": true
      },
      {
        "deltaTime": 1,
        "running": true,
        "channel": 0,
        "type": "noteOff",
        "noteNumber": 67,
        "velocity": 0,
        "byte9": true
      },
      {
        "deltaTime": 4,
        "channel": 0,
        "type": "controller",
        "controllerType": 86,
        "value": 37
      },
      {
        "deltaTime": 49,
        "channel": 0,
        "type": "noteOn",
        "noteNumber": 69,
        "velocity": 73
      },
      {
        "deltaTime": 28,
        "running": true,
        "channel": 0,
        "type": "noteOff",
        "noteNumber": 69,
        "velocity": 0,
        "byte9": true
      },
      {
        "deltaTime": 14,
        "running": true,
        "channel": 0,
        "type": "noteOn",
        "noteNumber": 67,
        "velocity": 38
      },
      {
        "deltaTime": 47,
        "running": true,
        "channel": 0,
        "type": "noteOff",
        "noteNumber": 67,
        "velocity": 0,
        "byte9": true
      },
      {
        "deltaTime": 30,
        "running": true,
        "channel": 0,
        "type": "noteOn",
        "noteNumber": 67,
        "velocity": 53
      },
      {
        "deltaTime": 32,
        "channel": 0,
        "type": "controller",
        "controllerType": 86,
        "value": 12
      },
      {
        "deltaTime": 2,
        "channel": 0,
        "type": "noteOn",
        "noteNumber": 68,
        "velocity": 58
      },
      {
        "deltaTime": 12,
        "channel": 0,
        "type": "noteOn",
        "noteNumber": 59,
        "velocity": 48
      },
      {
        "deltaTime": 0,
        "running": true,
        "channel": 0,
        "type": "noteOn",
        "noteNumber": 64,
        "velocity": 38
      },
      {
        "deltaTime": 4,
        "channel": 0,
        "type": "noteOn",
        "noteNumber": 69,
        "velocity": 43
      },
      {
        "deltaTime": 0,
        "channel": 0,
        "type": "noteOn",
        "noteNumber": 53,
        "velocity": 34
      },
      {
        "deltaTime": 5,
        "channel": 0,
        "type": "noteOff",
        "noteNumber": 68,
        "velocity": 0,
        "byte9": true
      },
      {
        "deltaTime": 15,
        "running": true,
        "channel": 0,
        "type": "noteOff",
        "noteNumber": 67,
        "velocity": 0,
        "byte9": true
      },
      {
        "deltaTime": 40,
        "running": true,
        "channel": 0,
        "type": "noteOff",
        "noteNumber": 69,
        "velocity": 0,
        "byte9": true
      },
      {
        "deltaTime": 49,
        "channel": 0,
        "type": "noteOff",
        "noteNumber": 64,
        "velocity": 0,
        "byte9": true
      },
      {
        "deltaTime": 12,
        "channel": 0,
        "type": "noteOn",
        "noteNumber": 67,
        "velocity": 79
      },
      {
        "deltaTime": 33,
        "channel": 0,
        "type": "noteOff",
        "noteNumber": 59,
        "velocity": 0,
        "byte9": true
      },
      {
        "deltaTime": 16,
        "channel": 0,
        "type": "noteOff",
        "noteNumber": 67,
        "velocity": 0,
        "byte9": true
      },
      {
        "deltaTime": 14,
        "running": true,
        "channel": 0,
        "type": "noteOn",
        "noteNumber": 69,
        "velocity": 55
      },
      {
        "deltaTime": 17,
        "running": true,
        "channel": 0,
        "type": "noteOn",
        "noteNumber": 67,
        "velocity": 45
      },
      {
        "deltaTime": 9,
        "running": true,
        "channel": 0,
        "type": "noteOff",
        "noteNumber": 69,
        "velocity": 0,
        "byte9": true
      },
      {
        "deltaTime": 27,
        "channel": 0,
        "type": "noteOff",
        "noteNumber": 53,
        "velocity": 0,
        "byte9": true
      },
      {
        "deltaTime": 3,
        "channel": 0,
        "type": "noteOff",
        "noteNumber": 67,
        "velocity": 0,
        "byte9": true
      },
      {
        "deltaTime": 0,
        "running": true,
        "channel": 0,
        "type": "noteOn",
        "noteNumber": 65,
        "velocity": 50
      },
      {
        "deltaTime": 70,
        "running": true,
        "channel": 0,
        "type": "noteOff",
        "noteNumber": 65,
        "velocity": 0,
        "byte9": true
      },
      {
        "deltaTime": 1,
        "channel": 0,
        "type": "noteOn",
        "noteNumber": 53,
        "velocity": 48
      },
      {
        "deltaTime": 4,
        "channel": 0,
        "type": "noteOn",
        "noteNumber": 62,
        "velocity": 68
      },
      {
        "deltaTime": 14,
        "running": true,
        "channel": 0,
        "type": "noteOff",
        "noteNumber": 62,
        "velocity": 0,
        "byte9": true
      },
      {
        "deltaTime": 7,
        "channel": 0,
        "type": "noteOff",
        "noteNumber": 53,
        "velocity": 0,
        "byte9": true
      },
      {
        "deltaTime": 6,
        "channel": 0,
        "type": "controller",
        "controllerType": 85,
        "value": 37
      },
      {
        "deltaTime": 0,
        "running": true,
        "channel": 0,
        "type": "controller",
        "controllerType": 86,
        "value": 37
      },
      {
        "deltaTime": 84,
        "channel": 0,
        "type": "noteOn",
        "noteNumber": 58,
        "velocity": 73
      },
      {
        "deltaTime": 1,
        "running": true,
        "channel": 0,
        "type": "noteOn",
        "noteNumber": 62,
        "velocity": 66
      },
      {
        "deltaTime": 1,
        "running": true,
        "channel": 0,
        "type": "noteOn",
        "noteNumber": 57,
        "velocity": 58
      },
      {
        "deltaTime": 8,
        "running": true,
        "channel": 0,
        "type": "noteOff",
        "noteNumber": 62,
        "velocity": 0,
        "byte9": true
      },
      {
        "deltaTime": 2,
        "running": true,
        "channel": 0,
        "type": "noteOff",
        "noteNumber": 57,
        "velocity": 0,
        "byte9": true
      },
      {
        "deltaTime": 3,
        "running": true,
        "channel": 0,
        "type": "noteOff",
        "noteNumber": 58,
        "velocity": 0,
        "byte9": true
      },
      {
        "deltaTime": 36,
        "channel": 0,
        "type": "noteOn",
        "noteNumber": 69,
        "velocity": 58
      },
      {
        "deltaTime": 66,
        "running": true,
        "channel": 0,
        "type": "noteOff",
        "noteNumber": 69,
        "velocity": 0,
        "byte9": true
      },
      {
        "deltaTime": 46,
        "running": true,
        "channel": 0,
        "type": "noteOn",
        "noteNumber": 70,
        "velocity": 64
      },
      {
        "deltaTime": 29,
        "running": true,
        "channel": 0,
        "type": "noteOff",
        "noteNumber": 70,
        "velocity": 0,
        "byte9": true
      },
      {
        "deltaTime": 48,
        "channel": 0,
        "type": "noteOn",
        "noteNumber": 62,
        "velocity": 77
      },
      {
        "deltaTime": 1,
        "running": true,
        "channel": 0,
        "type": "noteOn",
        "noteNumber": 52,
        "velocity": 81
      },
      {
        "deltaTime": 1,
        "running": true,
        "channel": 0,
        "type": "noteOn",
        "noteNumber": 58,
        "velocity": 73
      },
      {
        "deltaTime": 6,
        "running": true,
        "channel": 0,
        "type": "noteOff",
        "noteNumber": 62,
        "velocity": 0,
        "byte9": true
      },
      {
        "deltaTime": 2,
        "running": true,
        "channel": 0,
        "type": "noteOff",
        "noteNumber": 52,
        "velocity": 0,
        "byte9": true
      },
      {
        "deltaTime": 2,
        "channel": 0,
        "type": "noteOn",
        "noteNumber": 74,
        "velocity": 64
      },
      {
        "deltaTime": 17,
        "channel": 0,
        "type": "noteOff",
        "noteNumber": 58,
        "velocity": 0,
        "byte9": true
      },
      {
        "deltaTime": 2,
        "channel": 0,
        "type": "noteOff",
        "noteNumber": 74,
        "velocity": 0,
        "byte9": true
      },
      {
        "deltaTime": 5,
        "channel": 0,
        "type": "controller",
        "controllerType": 85,
        "value": 37
      },
      {
        "deltaTime": 17,
        "channel": 0,
        "type": "noteOn",
        "noteNumber": 77,
        "velocity": 113
      },
      {
        "deltaTime": 39,
        "running": true,
        "channel": 0,
        "type": "noteOff",
        "noteNumber": 77,
        "velocity": 0,
        "byte9": true
      },
      {
        "deltaTime": 35,
        "running": true,
        "channel": 0,
        "type": "noteOn",
        "noteNumber": 76,
        "velocity": 102
      },
      {
        "deltaTime": 5,
        "channel": 0,
        "type": "noteOn",
        "noteNumber": 52,
        "velocity": 60
      },
      {
        "deltaTime": 2,
        "running": true,
        "channel": 0,
        "type": "noteOn",
        "noteNumber": 58,
        "velocity": 49
      },
      {
        "deltaTime": 16,
        "channel": 0,
        "type": "noteOff",
        "noteNumber": 76,
        "velocity": 0,
        "byte9": true
      },
      {
        "deltaTime": 1,
        "channel": 0,
        "type": "noteOff",
        "noteNumber": 52,
        "velocity": 0,
        "byte9": true
      },
      {
        "deltaTime": 1,
        "running": true,
        "channel": 0,
        "type": "noteOff",
        "noteNumber": 58,
        "velocity": 0,
        "byte9": true
      },
      {
        "deltaTime": 4,
        "channel": 0,
        "type": "controller",
        "controllerType": 85,
        "value": 37
      },
      {
        "deltaTime": 30,
        "channel": 0,
        "type": "noteOn",
        "noteNumber": 75,
        "velocity": 59
      },
      {
        "deltaTime": 52,
        "running": true,
        "channel": 0,
        "type": "noteOff",
        "noteNumber": 75,
        "velocity": 0,
        "byte9": true
      },
      {
        "deltaTime": 8,
        "channel": 0,
        "type": "noteOn",
        "noteNumber": 64,
        "velocity": 61
      },
      {
        "deltaTime": 0,
        "running": true,
        "channel": 0,
        "type": "noteOn",
        "noteNumber": 60,
        "velocity": 55
      },
      {
        "deltaTime": 2,
        "channel": 0,
        "type": "noteOn",
        "noteNumber": 73,
        "velocity": 85
      },
      {
        "deltaTime": 5,
        "channel": 0,
        "type": "noteOn",
        "noteNumber": 57,
        "velocity": 48
      },
      {
        "deltaTime": 2,
        "running": true,
        "channel": 0,
        "type": "noteOff",
        "noteNumber": 64,
        "velocity": 0,
        "byte9": true
      },
      {
        "deltaTime": 0,
        "running": true,
        "channel": 0,
        "type": "noteOn",
        "noteNumber": 53,
        "velocity": 26
      },
      {
        "deltaTime": 17,
        "running": true,
        "channel": 0,
        "type": "noteOff",
        "noteNumber": 53,
        "velocity": 0,
        "byte9": true
      },
      {
        "deltaTime": 2,
        "running": true,
        "channel": 0,
        "type": "noteOff",
        "noteNumber": 60,
        "velocity": 0,
        "byte9": true
      },
      {
        "deltaTime": 7,
        "running": true,
        "channel": 0,
        "type": "noteOff",
        "noteNumber": 57,
        "velocity": 0,
        "byte9": true
      },
      {
        "deltaTime": 2,
        "channel": 0,
        "type": "noteOff",
        "noteNumber": 73,
        "velocity": 0,
        "byte9": true
      },
      {
        "deltaTime": 25,
        "running": true,
        "channel": 0,
        "type": "noteOn",
        "noteNumber": 72,
        "velocity": 47
      },
      {
        "deltaTime": 39,
        "running": true,
        "channel": 0,
        "type": "noteOff",
        "noteNumber": 72,
        "velocity": 0,
        "byte9": true
      },
      {
        "deltaTime": 19,
        "running": true,
        "channel": 0,
        "type": "noteOn",
        "noteNumber": 70,
        "velocity": 77
      },
      {
        "deltaTime": 8,
        "channel": 0,
        "type": "noteOn",
        "noteNumber": 60,
        "velocity": 49
      },
      {
        "deltaTime": 1,
        "running": true,
        "channel": 0,
        "type": "noteOn",
        "noteNumber": 57,
        "velocity": 34
      },
      {
        "deltaTime": 15,
        "channel": 0,
        "type": "noteOff",
        "noteNumber": 70,
        "velocity": 0,
        "byte9": true
      },
      {
        "deltaTime": 2,
        "channel": 0,
        "type": "noteOff",
        "noteNumber": 60,
        "velocity": 0,
        "byte9": true
      },
      {
        "deltaTime": 0,
        "running": true,
        "channel": 0,
        "type": "noteOff",
        "noteNumber": 57,
        "velocity": 0,
        "byte9": true
      },
      {
        "deltaTime": 4,
        "channel": 0,
        "type": "controller",
        "controllerType": 85,
        "value": 37
      },
      {
        "deltaTime": 28,
        "channel": 0,
        "type": "noteOn",
        "noteNumber": 69,
        "velocity": 37
      },
      {
        "deltaTime": 59,
        "running": true,
        "channel": 0,
        "type": "noteOff",
        "noteNumber": 69,
        "velocity": 0,
        "byte9": true
      },
      {
        "deltaTime": 2,
        "running": true,
        "channel": 0,
        "type": "noteOn",
        "noteNumber": 70,
        "velocity": 75
      },
      {
        "deltaTime": 3,
        "channel": 0,
        "type": "noteOn",
        "noteNumber": 64,
        "velocity": 56
      },
      {
        "deltaTime": 4,
        "running": true,
        "channel": 0,
        "type": "noteOn",
        "noteNumber": 60,
        "velocity": 43
      },
      {
        "deltaTime": 16,
        "running": true,
        "channel": 0,
        "type": "noteOff",
        "noteNumber": 60,
        "velocity": 0,
        "byte9": true
      },
      {
        "deltaTime": 2,
        "channel": 0,
        "type": "noteOff",
        "noteNumber": 70,
        "velocity": 0,
        "byte9": true
      },
      {
        "deltaTime": 0,
        "channel": 0,
        "type": "noteOff",
        "noteNumber": 64,
        "velocity": 0,
        "byte9": true
      },
      {
        "deltaTime": 6,
        "channel": 0,
        "type": "controller",
        "controllerType": 85,
        "value": 37
      },
      {
        "deltaTime": 13,
        "channel": 0,
        "type": "noteOn",
        "noteNumber": 72,
        "velocity": 67
      },
      {
        "deltaTime": 53,
        "running": true,
        "channel": 0,
        "type": "noteOff",
        "noteNumber": 72,
        "velocity": 0,
        "byte9": true
      },
      {
        "deltaTime": 24,
        "running": true,
        "channel": 0,
        "type": "noteOn",
        "noteNumber": 76,
        "velocity": 94
      },
      {
        "deltaTime": 2,
        "channel": 0,
        "type": "noteOn",
        "noteNumber": 67,
        "velocity": 82
      },
      {
        "deltaTime": 2,
        "running": true,
        "channel": 0,
        "type": "noteOn",
        "noteNumber": 56,
        "velocity": 65
      },
      {
        "deltaTime": 4,
        "running": true,
        "channel": 0,
        "type": "noteOn",
        "noteNumber": 62,
        "velocity": 57
      },
      {
        "deltaTime": 9,
        "running": true,
        "channel": 0,
        "type": "noteOff",
        "noteNumber": 56,
        "velocity": 0,
        "byte9": true
      },
      {
        "deltaTime": 1,
        "running": true,
        "channel": 0,
        "type": "noteOff",
        "noteNumber": 67,
        "velocity": 0,
        "byte9": true
      },
      {
        "deltaTime": 4,
        "running": true,
        "channel": 0,
        "type": "noteOff",
        "noteNumber": 62,
        "velocity": 0,
        "byte9": true
      },
      {
        "deltaTime": 1,
        "channel": 0,
        "type": "noteOff",
        "noteNumber": 76,
        "velocity": 0,
        "byte9": true
      },
      {
        "deltaTime": 14,
        "channel": 0,
        "type": "noteOn",
        "noteNumber": 56,
        "velocity": 81
      },
      {
        "deltaTime": 2,
        "running": true,
        "channel": 0,
        "type": "noteOn",
        "noteNumber": 62,
        "velocity": 66
      },
      {
        "deltaTime": 0,
        "running": true,
        "channel": 0,
        "type": "noteOn",
        "noteNumber": 67,
        "velocity": 81
      },
      {
        "deltaTime": 2,
        "channel": 0,
        "type": "noteOn",
        "noteNumber": 79,
        "velocity": 109
      },
      {
        "deltaTime": 38,
        "channel": 0,
        "type": "noteOff",
        "noteNumber": 67,
        "velocity": 0,
        "byte9": true
      },
      {
        "deltaTime": 4,
        "running": true,
        "channel": 0,
        "type": "noteOff",
        "noteNumber": 56,
        "velocity": 0,
        "byte9": true
      },
      {
        "deltaTime": 2,
        "channel": 0,
        "type": "controller",
        "controllerType": 64,
        "value": 22
      },
      {
        "deltaTime": 5,
        "channel": 0,
        "type": "noteOff",
        "noteNumber": 62,
        "velocity": 0,
        "byte9": true
      },
      {
        "deltaTime": 1,
        "channel": 0,
        "type": "noteOff",
        "noteNumber": 79,
        "velocity": 0,
        "byte9": true
      },
      {
        "deltaTime": 23,
        "channel": 0,
        "type": "noteOn",
        "noteNumber": 56,
        "velocity": 86
      },
      {
        "deltaTime": 2,
        "running": true,
        "channel": 0,
        "type": "noteOn",
        "noteNumber": 67,
        "velocity": 78
      },
      {
        "deltaTime": 2,
        "running": true,
        "channel": 0,
        "type": "noteOn",
        "noteNumber": 62,
        "velocity": 56
      },
      {
        "deltaTime": 0,
        "channel": 0,
        "type": "noteOn",
        "noteNumber": 79,
        "velocity": 95
      },
      {
        "deltaTime": 15,
        "channel": 0,
        "type": "noteOff",
        "noteNumber": 67,
        "velocity": 0,
        "byte9": true
      },
      {
        "deltaTime": 4,
        "channel": 0,
        "type": "controller",
        "controllerType": 64,
        "value": 2
      },
      {
        "deltaTime": 0,
        "running": true,
        "channel": 0,
        "type": "controller",
        "controllerType": 64,
        "value": 0
      },
      {
        "deltaTime": 1,
        "channel": 0,
        "type": "noteOff",
        "noteNumber": 62,
        "velocity": 0,
        "byte9": true
      },
      {
        "deltaTime": 8,
        "channel": 0,
        "type": "noteOff",
        "noteNumber": 79,
        "velocity": 0,
        "byte9": true
      },
      {
        "deltaTime": 4,
        "channel": 0,
        "type": "noteOff",
        "noteNumber": 56,
        "velocity": 0,
        "byte9": true
      },
      {
        "deltaTime": 18,
        "running": true,
        "channel": 0,
        "type": "noteOn",
        "noteNumber": 57,
        "velocity": 16
      },
      {
        "deltaTime": 0,
        "running": true,
        "channel": 0,
        "type": "noteOn",
        "noteNumber": 55,
        "velocity": 69
      },
      {
        "deltaTime": 1,
        "running": true,
        "channel": 0,
        "type": "noteOn",
        "noteNumber": 60,
        "velocity": 46
      },
      {
        "deltaTime": 1,
        "running": true,
        "channel": 0,
        "type": "noteOn",
        "noteNumber": 64,
        "velocity": 67
      },
      {
        "deltaTime": 2,
        "channel": 0,
        "type": "noteOn",
        "noteNumber": 76,
        "velocity": 52
      },
      {
        "deltaTime": 24,
        "channel": 0,
        "type": "noteOff",
        "noteNumber": 57,
        "velocity": 0,
        "byte9": true
      },
      {
        "deltaTime": 10,
        "running": true,
        "channel": 0,
        "type": "noteOff",
        "noteNumber": 60,
        "velocity": 0,
        "byte9": true
      },
      {
        "deltaTime": 13,
        "running": true,
        "channel": 0,
        "type": "noteOff",
        "noteNumber": 55,
        "velocity": 0,
        "byte9": true
      },
      {
        "deltaTime": 2,
        "running": true,
        "channel": 0,
        "type": "noteOff",
        "noteNumber": 64,
        "velocity": 0,
        "byte9": true
      },
      {
        "deltaTime": 5,
        "channel": 0,
        "type": "noteOff",
        "noteNumber": 76,
        "velocity": 0,
        "byte9": true
      },
      {
        "deltaTime": 14,
        "running": true,
        "channel": 0,
        "type": "noteOn",
        "noteNumber": 72,
        "velocity": 86
      },
      {
        "deltaTime": 1,
        "channel": 0,
        "type": "noteOn",
        "noteNumber": 64,
        "velocity": 66
      },
      {
        "deltaTime": 1,
        "running": true,
        "channel": 0,
        "type": "noteOn",
        "noteNumber": 55,
        "velocity": 52
      },
      {
        "deltaTime": 2,
        "running": true,
        "channel": 0,
        "type": "noteOn",
        "noteNumber": 60,
        "velocity": 45
      },
      {
        "deltaTime": 3,
        "running": true,
        "channel": 0,
        "type": "noteOn",
        "noteNumber": 57,
        "velocity": 22
      },
      {
        "deltaTime": 17,
        "channel": 0,
        "type": "noteOff",
        "noteNumber": 72,
        "velocity": 0,
        "byte9": true
      },
      {
        "deltaTime": 0,
        "channel": 0,
        "type": "noteOff",
        "noteNumber": 64,
        "velocity": 0,
        "byte9": true
      },
      {
        "deltaTime": 0,
        "running": true,
        "channel": 0,
        "type": "noteOff",
        "noteNumber": 55,
        "velocity": 0,
        "byte9": true
      },
      {
        "deltaTime": 1,
        "running": true,
        "channel": 0,
        "type": "noteOff",
        "noteNumber": 60,
        "velocity": 0,
        "byte9": true
      },
      {
        "deltaTime": 0,
        "running": true,
        "channel": 0,
        "type": "noteOff",
        "noteNumber": 57,
        "velocity": 0,
        "byte9": true
      },
      {
        "deltaTime": 5,
        "channel": 0,
        "type": "controller",
        "controllerType": 86,
        "value": 37
      },
      {
        "deltaTime": 0,
        "running": true,
        "channel": 0,
        "type": "controller",
        "controllerType": 85,
        "value": 37
      },
      {
        "deltaTime": 73,
        "meta": true,
        "type": "text",
        "text": "F blues scale lick"
      },
      {
        "deltaTime": 9,
        "channel": 0,
        "type": "noteOn",
        "noteNumber": 77,
        "velocity": 115
      },
      {
        "deltaTime": 0,
        "channel": 0,
        "type": "noteOn",
        "noteNumber": 54,
        "velocity": 96
      },
      {
        "deltaTime": 0,
        "running": true,
        "channel": 0,
        "type": "noteOn",
        "noteNumber": 64,
        "velocity": 94
      },
      {
        "deltaTime": 0,
        "running": true,
        "channel": 0,
        "type": "noteOn",
        "noteNumber": 60,
        "velocity": 75
      },
      {
        "deltaTime": 68,
        "channel": 0,
        "type": "noteOff",
        "noteNumber": 77,
        "velocity": 0,
        "byte9": true
      },
      {
        "deltaTime": 10,
        "channel": 0,
        "type": "noteOff",
        "noteNumber": 60,
        "velocity": 0,
        "byte9": true
      },
      {
        "deltaTime": 3,
        "running": true,
        "channel": 0,
        "type": "noteOff",
        "noteNumber": 64,
        "velocity": 0,
        "byte9": true
      },
      {
        "deltaTime": 5,
        "channel": 0,
        "type": "noteOn",
        "noteNumber": 75,
        "velocity": 93
      },
      {
        "deltaTime": 28,
        "running": true,
        "channel": 0,
        "type": "noteOff",
        "noteNumber": 75,
        "velocity": 0,
        "byte9": true
      },
      {
        "deltaTime": 11,
        "channel": 0,
        "type": "noteOn",
        "noteNumber": 60,
        "velocity": 54
      },
      {
        "deltaTime": 0,
        "channel": 0,
        "type": "noteOn",
        "noteNumber": 72,
        "velocity": 79
      },
      {
        "deltaTime": 2,
        "channel": 0,
        "type": "noteOn",
        "noteNumber": 64,
        "velocity": 42
      },
      {
        "deltaTime": 14,
        "running": true,
        "channel": 0,
        "type": "noteOff",
        "noteNumber": 64,
        "velocity": 0,
        "byte9": true
      },
      {
        "deltaTime": 10,
        "running": true,
        "channel": 0,
        "type": "noteOff",
        "noteNumber": 60,
        "velocity": 0,
        "byte9": true
      },
      {
        "deltaTime": 0,
        "channel": 0,
        "type": "noteOff",
        "noteNumber": 72,
        "velocity": 0,
        "byte9": true
      },
      {
        "deltaTime": 7,
        "channel": 0,
        "type": "controller",
        "controllerType": 85,
        "value": 37
      },
      {
        "deltaTime": 23,
        "channel": 0,
        "type": "noteOn",
        "noteNumber": 70,
        "velocity": 79
      },
      {
        "deltaTime": 18,
        "channel": 0,
        "type": "noteOff",
        "noteNumber": 54,
        "velocity": 0,
        "byte9": true
      },
      {
        "deltaTime": 5,
        "channel": 0,
        "type": "noteOff",
        "noteNumber": 70,
        "velocity": 0,
        "byte9": true
      },
      {
        "deltaTime": 38,
        "running": true,
        "channel": 0,
        "type": "noteOn",
        "noteNumber": 74,
        "velocity": 96
      },
      {
        "deltaTime": 4,
        "channel": 0,
        "type": "noteOn",
        "noteNumber": 53,
        "velocity": 75
      },
      {
        "deltaTime": 2,
        "channel": 0,
        "type": "noteOn",
        "noteNumber": 68,
        "velocity": 97
      },
      {
        "deltaTime": 1,
        "channel": 0,
        "type": "noteOn",
        "noteNumber": 64,
        "velocity": 53
      },
      {
        "deltaTime": 0,
        "running": true,
        "channel": 0,
        "type": "noteOn",
        "noteNumber": 59,
        "velocity": 63
      },
      {
        "deltaTime": 8,
        "running": true,
        "channel": 0,
        "type": "noteOff",
        "noteNumber": 64,
        "velocity": 0,
        "byte9": true
      },
      {
        "deltaTime": 7,
        "channel": 0,
        "type": "noteOff",
        "noteNumber": 68,
        "velocity": 0,
        "byte9": true
      },
      {
        "deltaTime": 6,
        "running": true,
        "channel": 0,
        "type": "noteOff",
        "noteNumber": 74,
        "velocity": 0,
        "byte9": true
      },
      {
        "deltaTime": 8,
        "channel": 0,
        "type": "controller",
        "controllerType": 86,
        "value": 8
      },
      {
        "deltaTime": 0,
        "running": true,
        "channel": 0,
        "type": "controller",
        "controllerType": 85,
        "value": 37
      },
      {
        "deltaTime": 6,
        "channel": 0,
        "type": "noteOn",
        "noteNumber": 68,
        "velocity": 81
      },
      {
        "deltaTime": 3,
        "running": true,
        "channel": 0,
        "type": "noteOn",
        "noteNumber": 74,
        "velocity": 80
      },
      {
        "deltaTime": 1,
        "channel": 0,
        "type": "noteOff",
        "noteNumber": 59,
        "velocity": 0,
        "byte9": true
      },
      {
        "deltaTime": 15,
        "channel": 0,
        "type": "noteOn",
        "noteNumber": 69,
        "velocity": 65
      },
      {
        "deltaTime": 6,
        "running": true,
        "channel": 0,
        "type": "noteOff",
        "noteNumber": 68,
        "velocity": 0,
        "byte9": true
      },
      {
        "deltaTime": 2,
        "channel": 0,
        "type": "noteOff",
        "noteNumber": 53,
        "velocity": 0,
        "byte9": true
      },
      {
        "deltaTime": 13,
        "channel": 0,
        "type": "noteOff",
        "noteNumber": 69,
        "velocity": 0,
        "byte9": true
      },
      {
        "deltaTime": 22,
        "running": true,
        "channel": 0,
        "type": "noteOff",
        "noteNumber": 74,
        "velocity": 0,
        "byte9": true
      },
      {
        "deltaTime": 46,
        "running": true,
        "channel": 0,
        "type": "noteOn",
        "noteNumber": 62,
        "velocity": 52
      },
      {
        "deltaTime": 79,
        "running": true,
        "channel": 0,
        "type": "noteOff",
        "noteNumber": 62,
        "velocity": 0,
        "byte9": true
      },
      {
        "deltaTime": 13,
        "running": true,
        "channel": 0,
        "type": "noteOn",
        "noteNumber": 65,
        "velocity": 65
      },
      {
        "deltaTime": 2,
        "channel": 0,
        "type": "noteOn",
        "noteNumber": 53,
        "velocity": 47
      },
      {
        "deltaTime": 1,
        "running": true,
        "channel": 0,
        "type": "noteOn",
        "noteNumber": 59,
        "velocity": 33
      },
      {
        "deltaTime": 22,
        "running": true,
        "channel": 0,
        "type": "noteOff",
        "noteNumber": 53,
        "velocity": 0,
        "byte9": true
      },
      {
        "deltaTime": 5,
        "channel": 0,
        "type": "controller",
        "controllerType": 64,
        "value": 22
      },
      {
        "deltaTime": 8,
        "channel": 0,
        "type": "noteOff",
        "noteNumber": 59,
        "velocity": 0,
        "byte9": true
      },
      {
        "deltaTime": 4,
        "channel": 0,
        "type": "controller",
        "controllerType": 64,
        "value": 64
      },
      {
        "deltaTime": 76,
        "channel": 0,
        "type": "noteOn",
        "noteNumber": 59,
        "velocity": 51
      },
      {
        "deltaTime": 2,
        "running": true,
        "channel": 0,
        "type": "noteOn",
        "noteNumber": 53,
        "velocity": 55
      },
      {
        "deltaTime": 17,
        "running": true,
        "channel": 0,
        "type": "noteOff",
        "noteNumber": 59,
        "velocity": 0,
        "byte9": true
      },
      {
        "deltaTime": 11,
        "running": true,
        "channel": 0,
        "type": "noteOff",
        "noteNumber": 53,
        "velocity": 0,
        "byte9": true
      },
      {
        "deltaTime": 46,
        "channel": 0,
        "type": "controller",
        "controllerType": 64,
        "value": 65
      },
      {
        "deltaTime": 0,
        "running": true,
        "channel": 0,
        "type": "controller",
        "controllerType": 64,
        "value": 85
      },
      {
        "deltaTime": 13,
        "channel": 0,
        "type": "noteOff",
        "noteNumber": 65,
        "velocity": 0,
        "byte9": true
      },
      {
        "deltaTime": 15,
        "channel": 0,
        "type": "noteOn",
        "noteNumber": 62,
        "velocity": 53
      },
      {
        "deltaTime": 5,
        "running": true,
        "channel": 0,
        "type": "noteOn",
        "noteNumber": 53,
        "velocity": 45
      },
      {
        "deltaTime": 0,
        "running": true,
        "channel": 0,
        "type": "noteOn",
        "noteNumber": 58,
        "velocity": 58
      },
      {
        "deltaTime": 3,
        "running": true,
        "channel": 0,
        "type": "noteOff",
        "noteNumber": 62,
        "velocity": 0,
        "byte9": true
      },
      {
        "deltaTime": 4,
        "running": true,
        "channel": 0,
        "type": "noteOff",
        "noteNumber": 58,
        "velocity": 0,
        "byte9": true
      },
      {
        "deltaTime": 9,
        "running": true,
        "channel": 0,
        "type": "noteOff",
        "noteNumber": 53,
        "velocity": 0,
        "byte9": true
      },
      {
        "deltaTime": 17,
        "channel": 0,
        "type": "controller",
        "controllerType": 64,
        "value": 64
      },
      {
        "deltaTime": 10,
        "channel": 0,
        "type": "noteOn",
        "noteNumber": 57,
        "velocity": 57
      },
      {
        "deltaTime": 3,
        "channel": 0,
        "type": "controller",
        "controllerType": 64,
        "value": 23
      },
      {
        "deltaTime": 0,
        "running": true,
        "channel": 0,
        "type": "controller",
        "controllerType": 64,
        "value": 22
      },
      {
        "deltaTime": 1,
        "running": true,
        "channel": 0,
        "type": "controller",
        "controllerType": 86,
        "value": 4
      },
      {
        "deltaTime": 6,
        "meta": true,
        "type": "text",
        "text": "Gm(Maj9) arpeggio"
      },
      {
        "deltaTime": 2,
        "running": true,
        "channel": 0,
        "type": "controller",
        "controllerType": 64,
        "value": 3
      },
      {
        "deltaTime": 0,
        "running": true,
        "channel": 0,
        "type": "controller",
        "controllerType": 64,
        "value": 0
      },
      {
        "deltaTime": 2,
        "channel": 0,
        "type": "noteOff",
        "noteNumber": 57,
        "velocity": 0,
        "byte9": true
      },
      {
        "deltaTime": 10,
        "running": true,
        "channel": 0,
        "type": "noteOn",
        "noteNumber": 58,
        "velocity": 71
      },
      {
        "deltaTime": 8,
        "running": true,
        "channel": 0,
        "type": "noteOff",
        "noteNumber": 58,
        "velocity": 0,
        "byte9": true
      },
      {
        "deltaTime": 29,
        "running": true,
        "channel": 0,
        "type": "noteOn",
        "noteNumber": 62,
        "velocity": 72
      },
      {
        "deltaTime": 19,
        "running": true,
        "channel": 0,
        "type": "noteOff",
        "noteNumber": 62,
        "velocity": 0,
        "byte9": true
      },
      {
        "deltaTime": 3,
        "running": true,
        "channel": 0,
        "type": "noteOn",
        "noteNumber": 66,
        "velocity": 75
      },
      {
        "deltaTime": 20,
        "running": true,
        "channel": 0,
        "type": "noteOff",
        "noteNumber": 66,
        "velocity": 0,
        "byte9": true
      },
      {
        "deltaTime": 12,
        "meta": true,
        "type": "text",
        "text": "Direction change"
      },
      {
        "deltaTime": 1,
        "channel": 0,
        "type": "noteOn",
        "noteNumber": 62,
        "velocity": 49
      },
      {
        "deltaTime": 1,
        "running": true,
        "channel": 0,
        "type": "noteOn",
        "noteNumber": 58,
        "velocity": 60
      },
      {
        "deltaTime": 0,
        "channel": 0,
        "type": "noteOn",
        "noteNumber": 69,
        "velocity": 83
      },
      {
        "deltaTime": 7,
        "channel": 0,
        "type": "controller",
        "controllerType": 86,
        "value": 4
      },
      {
        "deltaTime": 8,
        "channel": 0,
        "type": "noteOff",
        "noteNumber": 62,
        "velocity": 0,
        "byte9": true
      },
      {
        "deltaTime": 7,
        "running": true,
        "channel": 0,
        "type": "noteOff",
        "noteNumber": 58,
        "velocity": 0,
        "byte9": true
      },
      {
        "deltaTime": 2,
        "channel": 0,
        "type": "noteOff",
        "noteNumber": 69,
        "velocity": 0,
        "byte9": true
      },
      {
        "deltaTime": 8,
        "running": true,
        "channel": 0,
        "type": "noteOn",
        "noteNumber": 66,
        "velocity": 47
      },
      {
        "deltaTime": 9,
        "running": true,
        "channel": 0,
        "type": "noteOff",
        "noteNumber": 66,
        "velocity": 0,
        "byte9": true
      },
      {
        "deltaTime": 31,
        "running": true,
        "channel": 0,
        "type": "noteOn",
        "noteNumber": 69,
        "velocity": 72
      },
      {
        "deltaTime": 11,
        "meta": true,
        "type": "text",
        "text": "C7 dim (half/whole) scale"
      },
      {
        "deltaTime": 0,
        "meta": true,
        "type": "text",
        "text": "(A,Bb,C,Db,Eb,E)"
      },
      {
        "deltaTime": 11,
        "running": true,
        "channel": 0,
        "type": "noteOff",
        "noteNumber": 69,
        "velocity": 0,
        "byte9": true
      },
      {
        "deltaTime": 11,
        "channel": 0,
        "type": "noteOn",
        "noteNumber": 58,
        "velocity": 48
      },
      {
        "deltaTime": 1,
        "channel": 0,
        "type": "noteOn",
        "noteNumber": 70,
        "velocity": 69
      },
      {
        "deltaTime": 11,
        "running": true,
        "channel": 0,
        "type": "noteOff",
        "noteNumber": 70,
        "velocity": 0,
        "byte9": true
      },
      {
        "deltaTime": 2,
        "channel": 0,
        "type": "noteOff",
        "noteNumber": 58,
        "velocity": 0,
        "byte9": true
      },
      {
        "deltaTime": 8,
        "channel": 0,
        "type": "controller",
        "controllerType": 86,
        "value": 4
      },
      {
        "deltaTime": 14,
        "channel": 0,
        "type": "noteOn",
        "noteNumber": 72,
        "velocity": 63
      },
      {
        "deltaTime": 22,
        "running": true,
        "channel": 0,
        "type": "noteOff",
        "noteNumber": 72,
        "velocity": 0,
        "byte9": true
      },
      {
        "deltaTime": 7,
        "running": true,
        "channel": 0,
        "type": "noteOn",
        "noteNumber": 73,
        "velocity": 49
      },
      {
        "deltaTime": 28,
        "running": true,
        "channel": 0,
        "type": "noteOff",
        "noteNumber": 73,
        "velocity": 0,
        "byte9": true
      },
      {
        "deltaTime": 0,
        "running": true,
        "channel": 0,
        "type": "noteOn",
        "noteNumber": 75,
        "velocity": 55
      },
      {
        "deltaTime": 11,
        "running": true,
        "channel": 0,
        "type": "noteOff",
        "noteNumber": 75,
        "velocity": 0,
        "byte9": true
      },
      {
        "deltaTime": 14,
        "running": true,
        "channel": 0,
        "type": "noteOn",
        "noteNumber": 76,
        "velocity": 77
      },
      {
        "deltaTime": 25,
        "channel": 0,
        "type": "noteOn",
        "noteNumber": 62,
        "velocity": 55
      },
      {
        "deltaTime": 1,
        "channel": 0,
        "type": "noteOff",
        "noteNumber": 76,
        "velocity": 0,
        "byte9": true
      },
      {
        "deltaTime": 0,
        "channel": 0,
        "type": "noteOn",
        "noteNumber": 58,
        "velocity": 47
      },
      {
        "deltaTime": 1,
        "running": true,
        "channel": 0,
        "type": "noteOn",
        "noteNumber": 52,
        "velocity": 54
      },
      {
        "deltaTime": 13,
        "channel": 0,
        "type": "noteOn",
        "noteNumber": 77,
        "velocity": 64
      },
      {
        "deltaTime": 9,
        "channel": 0,
        "type": "noteOff",
        "noteNumber": 62,
        "velocity": 0,
        "byte9": true
      },
      {
        "deltaTime": 1,
        "running": true,
        "channel": 0,
        "type": "noteOff",
        "noteNumber": 52,
        "velocity": 0,
        "byte9": true
      },
      {
        "deltaTime": 1,
        "running": true,
        "channel": 0,
        "type": "noteOff",
        "noteNumber": 58,
        "velocity": 0,
        "byte9": true
      },
      {
        "deltaTime": 13,
        "channel": 0,
        "type": "noteOff",
        "noteNumber": 77,
        "velocity": 0,
        "byte9": true
      },
      {
        "deltaTime": 86,
        "channel": 0,
        "type": "noteOn",
        "noteNumber": 64,
        "velocity": 38
      },
      {
        "deltaTime": 8,
        "running": true,
        "channel": 0,
        "type": "noteOn",
        "noteNumber": 60,
        "velocity": 37
      },
      {
        "deltaTime": 3,
        "running": true,
        "channel": 0,
        "type": "noteOn",
        "noteNumber": 53,
        "velocity": 31
      },
      {
        "deltaTime": 0,
        "running": true,
        "channel": 0,
        "type": "noteOn",
        "noteNumber": 57,
        "velocity": 34
      },
      {
        "deltaTime": 2,
        "channel": 0,
        "type": "noteOn",
        "noteNumber": 81,
        "velocity": 47
      },
      {
        "deltaTime": 13,
        "running": true,
        "channel": 0,
        "type": "noteOff",
        "noteNumber": 81,
        "velocity": 0,
        "byte9": true
      },
      {
        "deltaTime": 0,
        "meta": true,
        "type": "text",
        "text": "Just chord tone pairs - triplet rhythm - LH plays chord before each beat "
      },
      {
        "deltaTime": 3,
        "channel": 0,
        "type": "noteOff",
        "noteNumber": 60,
        "velocity": 0,
        "byte9": true
      },
      {
        "deltaTime": 0,
        "running": true,
        "channel": 0,
        "type": "noteOff",
        "noteNumber": 53,
        "velocity": 0,
        "byte9": true
      },
      {
        "deltaTime": 0,
        "running": true,
        "channel": 0,
        "type": "noteOff",
        "noteNumber": 57,
        "velocity": 0,
        "byte9": true
      },
      {
        "deltaTime": 5,
        "channel": 0,
        "type": "controller",
        "controllerType": 85,
        "value": 37
      },
      {
        "deltaTime": 11,
        "channel": 0,
        "type": "noteOff",
        "noteNumber": 64,
        "velocity": 0,
        "byte9": true
      },
      {
        "deltaTime": 6,
        "channel": 0,
        "type": "noteOn",
        "noteNumber": 84,
        "velocity": 109
      },
      {
        "deltaTime": 18,
        "running": true,
        "channel": 0,
        "type": "noteOff",
        "noteNumber": 84,
        "velocity": 0,
        "byte9": true
      },
      {
        "deltaTime": 5,
        "channel": 0,
        "type": "controller",
        "controllerType": 86,
        "value": 37
      },
      {
        "deltaTime": 46,
        "channel": 0,
        "type": "noteOn",
        "noteNumber": 76,
        "velocity": 82
      },
      {
        "deltaTime": 30,
        "running": true,
        "channel": 0,
        "type": "noteOff",
        "noteNumber": 76,
        "velocity": 0,
        "byte9": true
      },
      {
        "deltaTime": 11,
        "running": true,
        "channel": 0,
        "type": "noteOn",
        "noteNumber": 79,
        "velocity": 84
      },
      {
        "deltaTime": 23,
        "running": true,
        "channel": 0,
        "type": "noteOff",
        "noteNumber": 79,
        "velocity": 0,
        "byte9": true
      },
      {
        "deltaTime": 10,
        "channel": 0,
        "type": "controller",
        "controllerType": 86,
        "value": 37
      },
      {
        "deltaTime": 5,
        "channel": 0,
        "type": "noteOn",
        "noteNumber": 64,
        "velocity": 60
      },
      {
        "deltaTime": 7,
        "running": true,
        "channel": 0,
        "type": "noteOn",
        "noteNumber": 60,
        "velocity": 45
      },
      {
        "deltaTime": 5,
        "running": true,
        "channel": 0,
        "type": "noteOn",
        "noteNumber": 57,
        "velocity": 29
      },
      {
        "deltaTime": 3,
        "running": true,
        "channel": 0,
        "type": "noteOff",
        "noteNumber": 64,
        "velocity": 0,
        "byte9": true
      },
      {
        "deltaTime": 14,
        "running": true,
        "channel": 0,
        "type": "noteOff",
        "noteNumber": 60,
        "velocity": 0,
        "byte9": true
      },
      {
        "deltaTime": 1,
        "running": true,
        "channel": 0,
        "type": "noteOff",
        "noteNumber": 57,
        "velocity": 0,
        "byte9": true
      },
      {
        "deltaTime": 5,
        "channel": 0,
        "type": "controller",
        "controllerType": 85,
        "value": 37
      },
      {
        "deltaTime": 0,
        "channel": 0,
        "type": "noteOn",
        "noteNumber": 72,
        "velocity": 71
      },
      {
        "deltaTime": 23,
        "running": true,
        "channel": 0,
        "type": "noteOff",
        "noteNumber": 72,
        "velocity": 0,
        "byte9": true
      },
      {
        "deltaTime": 20,
        "running": true,
        "channel": 0,
        "type": "noteOn",
        "noteNumber": 76,
        "velocity": 75
      },
      {
        "deltaTime": 25,
        "running": true,
        "channel": 0,
        "type": "noteOff",
        "noteNumber": 76,
        "velocity": 0,
        "byte9": true
      },
      {
        "deltaTime": 12,
        "channel": 0,
        "type": "controller",
        "controllerType": 86,
        "value": 37
      },
      {
        "deltaTime": 5,
        "channel": 0,
        "type": "noteOn",
        "noteNumber": 64,
        "velocity": 77
      },
      {
        "deltaTime": 3,
        "running": true,
        "channel": 0,
        "type": "noteOn",
        "noteNumber": 60,
        "velocity": 55
      },
      {
        "deltaTime": 6,
        "running": true,
        "channel": 0,
        "type": "noteOn",
        "noteNumber": 57,
        "velocity": 42
      },
      {
        "deltaTime": 16,
        "running": true,
        "channel": 0,
        "type": "noteOff",
        "noteNumber": 57,
        "velocity": 0,
        "byte9": true
      },
      {
        "deltaTime": 3,
        "running": true,
        "channel": 0,
        "type": "noteOff",
        "noteNumber": 64,
        "velocity": 0,
        "byte9": true
      },
      {
        "deltaTime": 1,
        "running": true,
        "channel": 0,
        "type": "noteOff",
        "noteNumber": 60,
        "velocity": 0,
        "byte9": true
      },
      {
        "deltaTime": 6,
        "channel": 0,
        "type": "controller",
        "controllerType": 85,
        "value": 37
      },
      {
        "deltaTime": 2,
        "channel": 0,
        "type": "noteOn",
        "noteNumber": 69,
        "velocity": 64
      },
      {
        "deltaTime": 15,
        "running": true,
        "channel": 0,
        "type": "noteOff",
        "noteNumber": 69,
        "velocity": 0,
        "byte9": true
      },
      {
        "deltaTime": 24,
        "running": true,
        "channel": 0,
        "type": "noteOn",
        "noteNumber": 72,
        "velocity": 73
      },
      {
        "deltaTime": 16,
        "running": true,
        "channel": 0,
        "type": "noteOff",
        "noteNumber": 72,
        "velocity": 0,
        "byte9": true
      },
      {
        "deltaTime": 23,
        "channel": 0,
        "type": "controller",
        "controllerType": 86,
        "value": 37
      },
      {
        "deltaTime": 4,
        "channel": 0,
        "type": "noteOn",
        "noteNumber": 67,
        "velocity": 72
      },
      {
        "deltaTime": 3,
        "running": true,
        "channel": 0,
        "type": "noteOn",
        "noteNumber": 63,
        "velocity": 59
      },
      {
        "deltaTime": 1,
        "running": true,
        "channel": 0,
        "type": "noteOn",
        "noteNumber": 62,
        "velocity": 52
      },
      {
        "deltaTime": 4,
        "running": true,
        "channel": 0,
        "type": "noteOff",
        "noteNumber": 67,
        "velocity": 0,
        "byte9": true
      },
      {
        "deltaTime": 8,
        "running": true,
        "channel": 0,
        "type": "noteOff",
        "noteNumber": 63,
        "velocity": 0,
        "byte9": true
      },
      {
        "deltaTime": 4,
        "running": true,
        "channel": 0,
        "type": "noteOff",
        "noteNumber": 62,
        "velocity": 0,
        "byte9": true
      },
      {
        "deltaTime": 20,
        "channel": 0,
        "type": "noteOn",
        "noteNumber": 75,
        "velocity": 74
      },
      {
        "deltaTime": 7,
        "channel": 0,
        "type": "controller",
        "controllerType": 64,
        "value": 22
      },
      {
        "deltaTime": 45,
        "running": true,
        "channel": 0,
        "type": "controller",
        "controllerType": 64,
        "value": 64
      },
      {
        "deltaTime": 20,
        "channel": 0,
        "type": "noteOff",
        "noteNumber": 75,
        "velocity": 0,
        "byte9": true
      },
      {
        "deltaTime": 7,
        "running": true,
        "channel": 0,
        "type": "noteOn",
        "noteNumber": 79,
        "velocity": 89
      },
      {
        "deltaTime": 0,
        "channel": 0,
        "type": "noteOn",
        "noteNumber": 67,
        "velocity": 82
      },
      {
        "deltaTime": 2,
        "running": true,
        "channel": 0,
        "type": "noteOn",
        "noteNumber": 63,
        "velocity": 65
      },
      {
        "deltaTime": 2,
        "running": true,
        "channel": 0,
        "type": "noteOn",
        "noteNumber": 62,
        "velocity": 58
      },
      {
        "deltaTime": 2,
        "running": true,
        "channel": 0,
        "type": "noteOn",
        "noteNumber": 58,
        "velocity": 53
      },
      {
        "deltaTime": 14,
        "running": true,
        "channel": 0,
        "type": "noteOff",
        "noteNumber": 62,
        "velocity": 0,
        "byte9": true
      },
      {
        "deltaTime": 1,
        "running": true,
        "channel": 0,
        "type": "noteOff",
        "noteNumber": 67,
        "velocity": 0,
        "byte9": true
      },
      {
        "deltaTime": 4,
        "running": true,
        "channel": 0,
        "type": "noteOff",
        "noteNumber": 63,
        "velocity": 0,
        "byte9": true
      },
      {
        "deltaTime": 1,
        "channel": 0,
        "type": "controller",
        "controllerType": 64,
        "value": 22
      },
      {
        "deltaTime": 2,
        "channel": 0,
        "type": "noteOff",
        "noteNumber": 58,
        "velocity": 0,
        "byte9": true
      },
      {
        "deltaTime": 2,
        "channel": 0,
        "type": "controller",
        "controllerType": 64,
        "value": 9
      },
      {
        "deltaTime": 0,
        "running": true,
        "channel": 0,
        "type": "controller",
        "controllerType": 64,
        "value": 0
      },
      {
        "deltaTime": 2,
        "channel": 0,
        "type": "noteOff",
        "noteNumber": 79,
        "velocity": 0,
        "byte9": true
      },
      {
        "deltaTime": 13,
        "channel": 0,
        "type": "noteOn",
        "noteNumber": 58,
        "velocity": 64
      },
      {
        "deltaTime": 5,
        "channel": 0,
        "type": "noteOn",
        "noteNumber": 75,
        "velocity": 51
      },
      {
        "deltaTime": 3,
        "channel": 0,
        "type": "controller",
        "controllerType": 64,
        "value": 22
      },
      {
        "deltaTime": 2,
        "channel": 0,
        "type": "noteOn",
        "noteNumber": 63,
        "velocity": 44
      },
      {
        "deltaTime": 8,
        "channel": 0,
        "type": "controller",
        "controllerType": 64,
        "value": 49
      },
      {
        "deltaTime": 0,
        "running": true,
        "channel": 0,
        "type": "controller",
        "controllerType": 64,
        "value": 64
      },
      {
        "deltaTime": 8,
        "channel": 0,
        "type": "noteOff",
        "noteNumber": 63,
        "velocity": 0,
        "byte9": true
      },
      {
        "deltaTime": 22,
        "channel": 0,
        "type": "noteOff",
        "noteNumber": 75,
        "velocity": 0,
        "byte9": true
      },
      {
        "deltaTime": 6,
        "channel": 0,
        "type": "noteOff",
        "noteNumber": 58,
        "velocity": 0,
        "byte9": true
      },
      {
        "deltaTime": 23,
        "channel": 0,
        "type": "controller",
        "controllerType": 64,
        "value": 22
      },
      {
        "deltaTime": 3,
        "channel": 0,
        "type": "noteOn",
        "noteNumber": 78,
        "velocity": 83
      },
      {
        "deltaTime": 0,
        "channel": 0,
        "type": "noteOn",
        "noteNumber": 66,
        "velocity": 72
      },
      {
        "deltaTime": 1,
        "channel": 0,
        "type": "controller",
        "controllerType": 64,
        "value": 11
      },
      {
        "deltaTime": 0,
        "running": true,
        "channel": 0,
        "type": "controller",
        "controllerType": 64,
        "value": 1
      },
      {
        "deltaTime": 0,
        "running": true,
        "channel": 0,
        "type": "controller",
        "controllerType": 64,
        "value": 0
      },
      {
        "deltaTime": 0,
        "channel": 0,
        "type": "noteOn",
        "noteNumber": 69,
        "velocity": 71
      },
      {
        "deltaTime": 2,
        "running": true,
        "channel": 0,
        "type": "noteOn",
        "noteNumber": 73,
        "velocity": 65
      },
      {
        "deltaTime": 0,
        "running": true,
        "channel": 0,
        "type": "noteOn",
        "noteNumber": 75,
        "velocity": 62
      },
      {
        "deltaTime": 36,
        "channel": 0,
        "type": "controller",
        "controllerType": 64,
        "value": 22
      },
      {
        "deltaTime": 5,
        "running": true,
        "channel": 0,
        "type": "controller",
        "controllerType": 64,
        "value": 49
      },
      {
        "deltaTime": 0,
        "running": true,
        "channel": 0,
        "type": "controller",
        "controllerType": 64,
        "value": 64
      },
      {
        "deltaTime": 8,
        "running": true,
        "channel": 0,
        "type": "controller",
        "controllerType": 64,
        "value": 65
      },
      {
        "deltaTime": 0,
        "running": true,
        "channel": 0,
        "type": "controller",
        "controllerType": 64,
        "value": 85
      },
      {
        "deltaTime": 34,
        "channel": 0,
        "type": "noteOff",
        "noteNumber": 66,
        "velocity": 0,
        "byte9": true
      },
      {
        "deltaTime": 3,
        "channel": 0,
        "type": "noteOff",
        "noteNumber": 78,
        "velocity": 0,
        "byte9": true
      },
      {
        "deltaTime": 1,
        "running": true,
        "channel": 0,
        "type": "noteOff",
        "noteNumber": 75,
        "velocity": 0,
        "byte9": true
      },
      {
        "deltaTime": 1,
        "running": true,
        "channel": 0,
        "type": "noteOff",
        "noteNumber": 69,
        "velocity": 0,
        "byte9": true
      },
      {
        "deltaTime": 0,
        "running": true,
        "channel": 0,
        "type": "noteOff",
        "noteNumber": 73,
        "velocity": 0,
        "byte9": true
      },
      {
        "deltaTime": 26,
        "channel": 0,
        "type": "noteOn",
        "noteNumber": 68,
        "velocity": 87
      },
      {
        "deltaTime": 2,
        "channel": 0,
        "type": "noteOn",
        "noteNumber": 80,
        "velocity": 94
      },
      {
        "deltaTime": 0,
        "running": true,
        "channel": 0,
        "type": "noteOn",
        "noteNumber": 69,
        "velocity": 74
      },
      {
        "deltaTime": 1,
        "running": true,
        "channel": 0,
        "type": "noteOn",
        "noteNumber": 73,
        "velocity": 66
      },
      {
        "deltaTime": 18,
        "channel": 0,
        "type": "noteOff",
        "noteNumber": 68,
        "velocity": 0,
        "byte9": true
      },
      {
        "deltaTime": 5,
        "channel": 0,
        "type": "noteOff",
        "noteNumber": 80,
        "velocity": 0,
        "byte9": true
      },
      {
        "deltaTime": 5,
        "running": true,
        "channel": 0,
        "type": "noteOff",
        "noteNumber": 73,
        "velocity": 0,
        "byte9": true
      },
      {
        "deltaTime": 3,
        "channel": 0,
        "type": "controller",
        "controllerType": 64,
        "value": 64
      },
      {
        "deltaTime": 11,
        "running": true,
        "channel": 0,
        "type": "controller",
        "controllerType": 64,
        "value": 23
      },
      {
        "deltaTime": 0,
        "running": true,
        "channel": 0,
        "type": "controller",
        "controllerType": 64,
        "value": 22
      },
      {
        "deltaTime": 1,
        "channel": 0,
        "type": "noteOn",
        "noteNumber": 78,
        "velocity": 66
      },
      {
        "deltaTime": 4,
        "channel": 0,
        "type": "noteOn",
        "noteNumber": 63,
        "velocity": 50
      },
      {
        "deltaTime": 4,
        "channel": 0,
        "type": "controller",
        "controllerType": 64,
        "value": 4
      },
      {
        "deltaTime": 0,
        "running": true,
        "channel": 0,
        "type": "controller",
        "controllerType": 64,
        "value": 1
      },
      {
        "deltaTime": 0,
        "running": true,
        "channel": 0,
        "type": "controller",
        "controllerType": 64,
        "value": 0
      },
      {
        "deltaTime": 2,
        "channel": 0,
        "type": "noteOn",
        "noteNumber": 73,
        "velocity": 36
      },
      {
        "deltaTime": 35,
        "running": true,
        "channel": 0,
        "type": "noteOff",
        "noteNumber": 78,
        "velocity": 0,
        "byte9": true
      },
      {
        "deltaTime": 8,
        "running": true,
        "channel": 0,
        "type": "noteOff",
        "noteNumber": 69,
        "velocity": 0,
        "byte9": true
      },
      {
        "deltaTime": 13,
        "channel": 0,
        "type": "noteOff",
        "noteNumber": 63,
        "velocity": 0,
        "byte9": true
      },
      {
        "deltaTime": 3,
        "channel": 0,
        "type": "noteOff",
        "noteNumber": 73,
        "velocity": 0,
        "byte9": true
      },
      {
        "deltaTime": 7,
        "channel": 0,
        "type": "noteOn",
        "noteNumber": 61,
        "velocity": 61
      },
      {
        "deltaTime": 30,
        "running": true,
        "channel": 0,
        "type": "noteOff",
        "noteNumber": 61,
        "velocity": 0,
        "byte9": true
      },
      {
        "deltaTime": 12,
        "running": true,
        "channel": 0,
        "type": "noteOn",
        "noteNumber": 62,
        "velocity": 58
      },
      {
        "deltaTime": 1,
        "channel": 0,
        "type": "noteOn",
        "noteNumber": 69,
        "velocity": 62
      },
      {
        "deltaTime": 2,
        "running": true,
        "channel": 0,
        "type": "noteOn",
        "noteNumber": 77,
        "velocity": 56
      },
      {
        "deltaTime": 5,
        "running": true,
        "channel": 0,
        "type": "noteOn",
        "noteNumber": 74,
        "velocity": 50
      },
      {
        "deltaTime": 91,
        "channel": 0,
        "type": "controller",
        "controllerType": 64,
        "value": 22
      },
      {
        "deltaTime": 5,
        "running": true,
        "channel": 0,
        "type": "controller",
        "controllerType": 64,
        "value": 64
      },
      {
        "deltaTime": 5,
        "running": true,
        "channel": 0,
        "type": "controller",
        "controllerType": 64,
        "value": 65
      },
      {
        "deltaTime": 0,
        "running": true,
        "channel": 0,
        "type": "controller",
        "controllerType": 64,
        "value": 85
      },
      {
        "deltaTime": 16,
        "channel": 0,
        "type": "noteOff",
        "noteNumber": 69,
        "velocity": 0,
        "byte9": true
      },
      {
        "deltaTime": 7,
        "channel": 0,
        "type": "noteOff",
        "noteNumber": 62,
        "velocity": 0,
        "byte9": true
      },
      {
        "deltaTime": 25,
        "channel": 0,
        "type": "noteOff",
        "noteNumber": 74,
        "velocity": 0,
        "byte9": true
      },
      {
        "deltaTime": 11,
        "running": true,
        "channel": 0,
        "type": "noteOff",
        "noteNumber": 77,
        "velocity": 0,
        "byte9": true
      },
      {
        "deltaTime": 31,
        "channel": 0,
        "type": "noteOn",
        "noteNumber": 62,
        "velocity": 68
      },
      {
        "deltaTime": 1,
        "running": true,
        "channel": 0,
        "type": "noteOn",
        "noteNumber": 65,
        "velocity": 81
      },
      {
        "deltaTime": 3,
        "running": true,
        "channel": 0,
        "type": "noteOn",
        "noteNumber": 60,
        "velocity": 57
      },
      {
        "deltaTime": 15,
        "channel": 0,
        "type": "controller",
        "controllerType": 64,
        "value": 64
      },
      {
        "deltaTime": 7,
        "channel": 0,
        "type": "noteOff",
        "noteNumber": 62,
        "velocity": 0,
        "byte9": true
      },
      {
        "deltaTime": 0,
        "running": true,
        "channel": 0,
        "type": "noteOff",
        "noteNumber": 65,
        "velocity": 0,
        "byte9": true
      },
      {
        "deltaTime": 0,
        "running": true,
        "channel": 0,
        "type": "noteOff",
        "noteNumber": 60,
        "velocity": 0,
        "byte9": true
      },
      {
        "deltaTime": 0,
        "channel": 0,
        "type": "controller",
        "controllerType": 64,
        "value": 23
      },
      {
        "deltaTime": 0,
        "running": true,
        "channel": 0,
        "type": "controller",
        "controllerType": 64,
        "value": 22
      },
      {
        "deltaTime": 6,
        "running": true,
        "channel": 0,
        "type": "controller",
        "controllerType": 85,
        "value": 37
      },
      {
        "deltaTime": 3,
        "running": true,
        "channel": 0,
        "type": "controller",
        "controllerType": 64,
        "value": 4
      },
      {
        "deltaTime": 1,
        "running": true,
        "channel": 0,
        "type": "controller",
        "controllerType": 64,
        "value": 0
      },
      {
        "deltaTime": 85,
        "channel": 0,
        "type": "noteOn",
        "noteNumber": 73,
        "velocity": 84
      },
      {
        "deltaTime": 28,
        "running": true,
        "channel": 0,
        "type": "noteOff",
        "noteNumber": 73,
        "velocity": 0,
        "byte9": true
      },
      {
        "deltaTime": 21,
        "running": true,
        "channel": 0,
        "type": "noteOn",
        "noteNumber": 74,
        "velocity": 50
      },
      {
        "deltaTime": 57,
        "running": true,
        "channel": 0,
        "type": "noteOff",
        "noteNumber": 74,
        "velocity": 0,
        "byte9": true
      },
      {
        "deltaTime": 14,
        "running": true,
        "channel": 0,
        "type": "noteOn",
        "noteNumber": 77,
        "velocity": 76
      },
      {
        "deltaTime": 7,
        "channel": 0,
        "type": "controller",
        "controllerType": 86,
        "value": 2
      },
      {
        "deltaTime": 21,
        "channel": 0,
        "type": "noteOff",
        "noteNumber": 77,
        "velocity": 0,
        "byte9": true
      },
      {
        "deltaTime": 10,
        "channel": 0,
        "type": "noteOn",
        "noteNumber": 65,
        "velocity": 51
      },
      {
        "deltaTime": 1,
        "running": true,
        "channel": 0,
        "type": "noteOn",
        "noteNumber": 55,
        "velocity": 50
      },
      {
        "deltaTime": 2,
        "channel": 0,
        "type": "noteOn",
        "noteNumber": 69,
        "velocity": 66
      },
      {
        "deltaTime": 0,
        "running": true,
        "channel": 0,
        "type": "noteOn",
        "noteNumber": 81,
        "velocity": 66
      },
      {
        "deltaTime": 1,
        "channel": 0,
        "type": "noteOn",
        "noteNumber": 60,
        "velocity": 37
      },
      {
        "deltaTime": 1,
        "running": true,
        "channel": 0,
        "type": "noteOn",
        "noteNumber": 61,
        "velocity": 60
      },
      {
        "deltaTime": 0,
        "channel": 0,
        "type": "noteOn",
        "noteNumber": 73,
        "velocity": 48
      },
      {
        "deltaTime": 5,
        "running": true,
        "channel": 0,
        "type": "noteOn",
        "noteNumber": 77,
        "velocity": 44
      },
      {
        "deltaTime": 42,
        "channel": 0,
        "type": "noteOff",
        "noteNumber": 61,
        "velocity": 0,
        "byte9": true
      },
      {
        "deltaTime": 1,
        "channel": 0,
        "type": "noteOff",
        "noteNumber": 81,
        "velocity": 0,
        "byte9": true
      },
      {
        "deltaTime": 2,
        "channel": 0,
        "type": "noteOff",
        "noteNumber": 55,
        "velocity": 0,
        "byte9": true
      },
      {
        "deltaTime": 0,
        "channel": 0,
        "type": "noteOff",
        "noteNumber": 69,
        "velocity": 0,
        "byte9": true
      },
      {
        "deltaTime": 5,
        "channel": 0,
        "type": "noteOff",
        "noteNumber": 65,
        "velocity": 0,
        "byte9": true
      },
      {
        "deltaTime": 1,
        "running": true,
        "channel": 0,
        "type": "noteOff",
        "noteNumber": 60,
        "velocity": 0,
        "byte9": true
      },
      {
        "deltaTime": 1,
        "channel": 0,
        "type": "noteOff",
        "noteNumber": 73,
        "velocity": 0,
        "byte9": true
      },
      {
        "deltaTime": 7,
        "running": true,
        "channel": 0,
        "type": "noteOff",
        "noteNumber": 77,
        "velocity": 0,
        "byte9": true
      },
      {
        "deltaTime": 47,
        "running": true,
        "channel": 0,
        "type": "noteOn",
        "noteNumber": 80,
        "velocity": 64
      },
      {
        "deltaTime": 1,
        "channel": 0,
        "type": "controller",
        "controllerType": 64,
        "value": 22
      },
      {
        "deltaTime": 1,
        "channel": 0,
        "type": "noteOn",
        "noteNumber": 65,
        "velocity": 66
      },
      {
        "deltaTime": 2,
        "channel": 0,
        "type": "noteOn",
        "noteNumber": 68,
        "velocity": 59
      },
      {
        "deltaTime": 3,
        "channel": 0,
        "type": "noteOn",
        "noteNumber": 55,
        "velocity": 48
      },
      {
        "deltaTime": 1,
        "running": true,
        "channel": 0,
        "type": "noteOn",
        "noteNumber": 61,
        "velocity": 56
      },
      {
        "deltaTime": 0,
        "running": true,
        "channel": 0,
        "type": "noteOn",
        "noteNumber": 60,
        "velocity": 38
      },
      {
        "deltaTime": 3,
        "channel": 0,
        "type": "noteOn",
        "noteNumber": 73,
        "velocity": 47
      },
      {
        "deltaTime": 36,
        "channel": 0,
        "type": "noteOff",
        "noteNumber": 65,
        "velocity": 0,
        "byte9": true
      },
      {
        "deltaTime": 1,
        "channel": 0,
        "type": "noteOff",
        "noteNumber": 68,
        "velocity": 0,
        "byte9": true
      },
      {
        "deltaTime": 4,
        "running": true,
        "channel": 0,
        "type": "noteOff",
        "noteNumber": 73,
        "velocity": 0,
        "byte9": true
      },
      {
        "deltaTime": 1,
        "channel": 0,
        "type": "controller",
        "controllerType": 64,
        "value": 64
      },
      {
        "deltaTime": 1,
        "channel": 0,
        "type": "noteOff",
        "noteNumber": 55,
        "velocity": 0,
        "byte9": true
      },
      {
        "deltaTime": 0,
        "running": true,
        "channel": 0,
        "type": "noteOff",
        "noteNumber": 61,
        "velocity": 0,
        "byte9": true
      },
      {
        "deltaTime": 2,
        "channel": 0,
        "type": "noteOff",
        "noteNumber": 80,
        "velocity": 0,
        "byte9": true
      },
      {
        "deltaTime": 5,
        "channel": 0,
        "type": "noteOff",
        "noteNumber": 60,
        "velocity": 0,
        "byte9": true
      },
      {
        "deltaTime": 5,
        "channel": 0,
        "type": "controller",
        "controllerType": 64,
        "value": 22
      },
      {
        "deltaTime": 8,
        "running": true,
        "channel": 0,
        "type": "controller",
        "controllerType": 64,
        "value": 3
      },
      {
        "deltaTime": 0,
        "running": true,
        "channel": 0,
        "type": "controller",
        "controllerType": 64,
        "value": 0
      },
      {
        "deltaTime": 14,
        "channel": 0,
        "type": "noteOn",
        "noteNumber": 73,
        "velocity": 64
      },
      {
        "deltaTime": 3,
        "channel": 0,
        "type": "noteOn",
        "noteNumber": 64,
        "velocity": 62
      },
      {
        "deltaTime": 0,
        "channel": 0,
        "type": "noteOn",
        "noteNumber": 67,
        "velocity": 56
      },
      {
        "deltaTime": 0,
        "running": true,
        "channel": 0,
        "type": "noteOn",
        "noteNumber": 79,
        "velocity": 65
      },
      {
        "deltaTime": 1,
        "channel": 0,
        "type": "noteOn",
        "noteNumber": 55,
        "velocity": 58
      },
      {
        "deltaTime": 0,
        "running": true,
        "channel": 0,
        "type": "noteOn",
        "noteNumber": 61,
        "velocity": 52
      },
      {
        "deltaTime": 3,
        "running": true,
        "channel": 0,
        "type": "noteOn",
        "noteNumber": 60,
        "velocity": 33
      },
      {
        "deltaTime": 13,
        "running": true,
        "channel": 0,
        "type": "noteOn",
        "noteNumber": 58,
        "velocity": 21
      },
      {
        "deltaTime": 3,
        "channel": 0,
        "type": "controller",
        "controllerType": 64,
        "value": 22
      },
      {
        "deltaTime": 7,
        "running": true,
        "channel": 0,
        "type": "controller",
        "controllerType": 64,
        "value": 44
      },
      {
        "deltaTime": 0,
        "running": true,
        "channel": 0,
        "type": "controller",
        "controllerType": 64,
        "value": 64
      },
      {
        "deltaTime": 48,
        "channel": 0,
        "type": "noteOff",
        "noteNumber": 61,
        "velocity": 0,
        "byte9": true
      },
      {
        "deltaTime": 24,
        "channel": 0,
        "type": "controller",
        "controllerType": 64,
        "value": 65
      },
      {
        "deltaTime": 0,
        "running": true,
        "channel": 0,
        "type": "controller",
        "controllerType": 64,
        "value": 85
      },
      {
        "deltaTime": 28,
        "running": true,
        "channel": 0,
        "type": "controller",
        "controllerType": 64,
        "value": 64
      },
      {
        "deltaTime": 19,
        "channel": 0,
        "type": "controller",
        "controllerType": 85,
        "value": 12
      },
      {
        "deltaTime": 13,
        "channel": 0,
        "type": "noteOff",
        "noteNumber": 79,
        "velocity": 0,
        "byte9": true
      },
      {
        "deltaTime": 0,
        "channel": 0,
        "type": "noteOff",
        "noteNumber": 60,
        "velocity": 0,
        "byte9": true
      },
      {
        "deltaTime": 7,
        "running": true,
        "channel": 0,
        "type": "noteOff",
        "noteNumber": 58,
        "velocity": 0,
        "byte9": true
      },
      {
        "deltaTime": 2,
        "channel": 0,
        "type": "noteOff",
        "noteNumber": 73,
        "velocity": 0,
        "byte9": true
      },
      {
        "deltaTime": 5,
        "channel": 0,
        "type": "noteOff",
        "noteNumber": 55,
        "velocity": 0,
        "byte9": true
      },
      {
        "deltaTime": 1,
        "channel": 0,
        "type": "noteOff",
        "noteNumber": 67,
        "velocity": 0,
        "byte9": true
      },
      {
        "deltaTime": 3,
        "channel": 0,
        "type": "noteOff",
        "noteNumber": 64,
        "velocity": 0,
        "byte9": true
      },
      {
        "deltaTime": 64,
        "running": true,
        "channel": 0,
        "type": "noteOn",
        "noteNumber": 63,
        "velocity": 55
      },
      {
        "deltaTime": 15,
        "channel": 0,
        "type": "controller",
        "controllerType": 64,
        "value": 23
      },
      {
        "deltaTime": 0,
        "running": true,
        "channel": 0,
        "type": "controller",
        "controllerType": 64,
        "value": 22
      },
      {
        "deltaTime": 2,
        "channel": 0,
        "type": "noteOn",
        "noteNumber": 65,
        "velocity": 62
      },
      {
        "deltaTime": 1,
        "channel": 0,
        "type": "controller",
        "controllerType": 64,
        "value": 9
      },
      {
        "deltaTime": 0,
        "running": true,
        "channel": 0,
        "type": "controller",
        "controllerType": 64,
        "value": 1
      },
      {
        "deltaTime": 0,
        "running": true,
        "channel": 0,
        "type": "controller",
        "controllerType": 64,
        "value": 0
      },
      {
        "deltaTime": 10,
        "channel": 0,
        "type": "noteOn",
        "noteNumber": 79,
        "velocity": 100
      },
      {
        "deltaTime": 1,
        "running": true,
        "channel": 0,
        "type": "noteOn",
        "noteNumber": 71,
        "velocity": 93
      },
      {
        "deltaTime": 0,
        "running": true,
        "channel": 0,
        "type": "noteOn",
        "noteNumber": 68,
        "velocity": 101
      },
      {
        "deltaTime": 3,
        "channel": 0,
        "type": "noteOff",
        "noteNumber": 65,
        "velocity": 0,
        "byte9": true
      },
      {
        "deltaTime": 2,
        "running": true,
        "channel": 0,
        "type": "noteOn",
        "noteNumber": 67,
        "velocity": 92
      },
      {
        "deltaTime": 1,
        "running": true,
        "channel": 0,
        "type": "noteOff",
        "noteNumber": 63,
        "velocity": 0,
        "byte9": true
      },
      {
        "deltaTime": 0,
        "channel": 0,
        "type": "noteOn",
        "noteNumber": 74,
        "velocity": 59
      },
      {
        "deltaTime": 53,
        "running": true,
        "channel": 0,
        "type": "noteOff",
        "noteNumber": 74,
        "velocity": 0,
        "byte9": true
      },
      {
        "deltaTime": 2,
        "running": true,
        "channel": 0,
        "type": "noteOff",
        "noteNumber": 79,
        "velocity": 0,
        "byte9": true
      },
      {
        "deltaTime": 0,
        "running": true,
        "channel": 0,
        "type": "noteOff",
        "noteNumber": 68,
        "velocity": 0,
        "byte9": true
      },
      {
        "deltaTime": 5,
        "running": true,
        "channel": 0,
        "type": "noteOff",
        "noteNumber": 71,
        "velocity": 0,
        "byte9": true
      },
      {
        "deltaTime": 13,
        "channel": 0,
        "type": "noteOff",
        "noteNumber": 67,
        "velocity": 0,
        "byte9": true
      },
      {
        "deltaTime": 10,
        "channel": 0,
        "type": "noteOn",
        "noteNumber": 74,
        "velocity": 68
      },
      {
        "deltaTime": 0,
        "running": true,
        "channel": 0,
        "type": "noteOn",
        "noteNumber": 68,
        "velocity": 59
      },
      {
        "deltaTime": 1,
        "channel": 0,
        "type": "noteOn",
        "noteNumber": 64,
        "velocity": 53
      },
      {
        "deltaTime": 13,
        "channel": 0,
        "type": "noteOff",
        "noteNumber": 68,
        "velocity": 0,
        "byte9": true
      },
      {
        "deltaTime": 20,
        "channel": 0,
        "type": "noteOff",
        "noteNumber": 64,
        "velocity": 0,
        "byte9": true
      },
      {
        "deltaTime": 3,
        "channel": 0,
        "type": "noteOff",
        "noteNumber": 74,
        "velocity": 0,
        "byte9": true
      },
      {
        "deltaTime": 9,
        "running": true,
        "channel": 0,
        "type": "noteOn",
        "noteNumber": 68,
        "velocity": 91
      },
      {
        "deltaTime": 1,
        "running": true,
        "channel": 0,
        "type": "noteOn",
        "noteNumber": 79,
        "velocity": 90
      },
      {
        "deltaTime": 2,
        "running": true,
        "channel": 0,
        "type": "noteOn",
        "noteNumber": 71,
        "velocity": 63
      },
      {
        "deltaTime": 2,
        "channel": 0,
        "type": "noteOn",
        "noteNumber": 67,
        "velocity": 82
      },
      {
        "deltaTime": 7,
        "channel": 0,
        "type": "noteOn",
        "noteNumber": 74,
        "velocity": 52
      },
      {
        "deltaTime": 31,
        "running": true,
        "channel": 0,
        "type": "noteOff",
        "noteNumber": 79,
        "velocity": 0,
        "byte9": true
      },
      {
        "deltaTime": 9,
        "running": true,
        "channel": 0,
        "type": "noteOff",
        "noteNumber": 71,
        "velocity": 0,
        "byte9": true
      },
      {
        "deltaTime": 2,
        "channel": 0,
        "type": "noteOff",
        "noteNumber": 67,
        "velocity": 0,
        "byte9": true
      },
      {
        "deltaTime": 0,
        "channel": 0,
        "type": "noteOff",
        "noteNumber": 74,
        "velocity": 0,
        "byte9": true
      },
      {
        "deltaTime": 14,
        "running": true,
        "channel": 0,
        "type": "noteOff",
        "noteNumber": 68,
        "velocity": 0,
        "byte9": true
      },
      {
        "deltaTime": 48,
        "channel": 0,
        "type": "noteOn",
        "noteNumber": 65,
        "velocity": 63
      },
      {
        "deltaTime": 0,
        "channel": 0,
        "type": "noteOn",
        "noteNumber": 77,
        "velocity": 86
      },
      {
        "deltaTime": 3,
        "running": true,
        "channel": 0,
        "type": "noteOn",
        "noteNumber": 72,
        "velocity": 76
      },
      {
        "deltaTime": 1,
        "running": true,
        "channel": 0,
        "type": "noteOn",
        "noteNumber": 69,
        "velocity": 61
      },
      {
        "deltaTime": 29,
        "running": true,
        "channel": 0,
        "type": "noteOff",
        "noteNumber": 72,
        "velocity": 0,
        "byte9": true
      },
      {
        "deltaTime": 5,
        "running": true,
        "channel": 0,
        "type": "noteOff",
        "noteNumber": 77,
        "velocity": 0,
        "byte9": true
      },
      {
        "deltaTime": 10,
        "channel": 0,
        "type": "noteOff",
        "noteNumber": 65,
        "velocity": 0,
        "byte9": true
      },
      {
        "deltaTime": 0,
        "channel": 0,
        "type": "noteOff",
        "noteNumber": 69,
        "velocity": 0,
        "byte9": true
      },
      {
        "deltaTime": 34,
        "channel": 0,
        "type": "noteOn",
        "noteNumber": 60,
        "velocity": 53
      },
      {
        "deltaTime": 27,
        "running": true,
        "channel": 0,
        "type": "noteOff",
        "noteNumber": 60,
        "velocity": 0,
        "byte9": true
      },
      {
        "deltaTime": 13,
        "running": true,
        "channel": 0,
        "type": "noteOn",
        "noteNumber": 64,
        "velocity": 73
      },
      {
        "deltaTime": 2,
        "channel": 0,
        "type": "noteOn",
        "noteNumber": 65,
        "velocity": 62
      },
      {
        "deltaTime": 0,
        "running": true,
        "channel": 0,
        "type": "noteOn",
        "noteNumber": 76,
        "velocity": 89
      },
      {
        "deltaTime": 2,
        "running": true,
        "channel": 0,
        "type": "noteOn",
        "noteNumber": 69,
        "velocity": 73
      },
      {
        "deltaTime": 40,
        "running": true,
        "channel": 0,
        "type": "noteOff",
        "noteNumber": 76,
        "velocity": 0,
        "byte9": true
      },
      {
        "deltaTime": 9,
        "channel": 0,
        "type": "noteOff",
        "noteNumber": 64,
        "velocity": 0,
        "byte9": true
      },
      {
        "deltaTime": 7,
        "channel": 0,
        "type": "noteOff",
        "noteNumber": 65,
        "velocity": 0,
        "byte9": true
      },
      {
        "deltaTime": 1,
        "running": true,
        "channel": 0,
        "type": "noteOff",
        "noteNumber": 69,
        "velocity": 0,
        "byte9": true
      },
      {
        "deltaTime": 13,
        "channel": 0,
        "type": "noteOn",
        "noteNumber": 62,
        "velocity": 72
      },
      {
        "deltaTime": 3,
        "channel": 0,
        "type": "noteOn",
        "noteNumber": 74,
        "velocity": 86
      },
      {
        "deltaTime": 2,
        "running": true,
        "channel": 0,
        "type": "noteOn",
        "noteNumber": 65,
        "velocity": 68
      },
      {
        "deltaTime": 0,
        "running": true,
        "channel": 0,
        "type": "noteOn",
        "noteNumber": 69,
        "velocity": 75
      },
      {
        "deltaTime": 23,
        "running": true,
        "channel": 0,
        "type": "noteOff",
        "noteNumber": 69,
        "velocity": 0,
        "byte9": true
      },
      {
        "deltaTime": 4,
        "running": true,
        "channel": 0,
        "type": "noteOff",
        "noteNumber": 74,
        "velocity": 0,
        "byte9": true
      },
      {
        "deltaTime": 3,
        "channel": 0,
        "type": "noteOff",
        "noteNumber": 62,
        "velocity": 0,
        "byte9": true
      },
      {
        "deltaTime": 1,
        "channel": 0,
        "type": "noteOff",
        "noteNumber": 65,
        "velocity": 0,
        "byte9": true
      },
      {
        "deltaTime": 1,
        "channel": 0,
        "type": "noteOn",
        "noteNumber": 59,
        "velocity": 59
      },
      {
        "deltaTime": 2,
        "channel": 0,
        "type": "noteOn",
        "noteNumber": 72,
        "velocity": 72
      },
      {
        "deltaTime": 7,
        "running": true,
        "channel": 0,
        "type": "noteOn",
        "noteNumber": 65,
        "velocity": 50
      },
      {
        "deltaTime": 1,
        "running": true,
        "channel": 0,
        "type": "noteOn",
        "noteNumber": 62,
        "velocity": 36
      },
      {
        "deltaTime": 1,
        "running": true,
        "channel": 0,
        "type": "noteOn",
        "noteNumber": 69,
        "velocity": 32
      },
      {
        "deltaTime": 15,
        "running": true,
        "channel": 0,
        "type": "noteOff",
        "noteNumber": 69,
        "velocity": 0,
        "byte9": true
      },
      {
        "deltaTime": 8,
        "running": true,
        "channel": 0,
        "type": "noteOff",
        "noteNumber": 65,
        "velocity": 0,
        "byte9": true
      },
      {
        "deltaTime": 5,
        "running": true,
        "channel": 0,
        "type": "noteOff",
        "noteNumber": 72,
        "velocity": 0,
        "byte9": true
      },
      {
        "deltaTime": 11,
        "running": true,
        "channel": 0,
        "type": "noteOff",
        "noteNumber": 62,
        "velocity": 0,
        "byte9": true
      },
      {
        "deltaTime": 7,
        "channel": 0,
        "type": "noteOff",
        "noteNumber": 59,
        "velocity": 0,
        "byte9": true
      },
      {
        "deltaTime": 60,
        "channel": 0,
        "type": "noteOn",
        "noteNumber": 69,
        "velocity": 70
      },
      {
        "deltaTime": 3,
        "channel": 0,
        "type": "noteOn",
        "noteNumber": 57,
        "velocity": 69
      },
      {
        "deltaTime": 3,
        "channel": 0,
        "type": "noteOn",
        "noteNumber": 60,
        "velocity": 42
      },
      {
        "deltaTime": 9,
        "running": true,
        "channel": 0,
        "type": "noteOn",
        "noteNumber": 62,
        "velocity": 33
      },
      {
        "deltaTime": 15,
        "channel": 0,
        "type": "controller",
        "controllerType": 64,
        "value": 22
      },
      {
        "deltaTime": 25,
        "channel": 0,
        "type": "noteOff",
        "noteNumber": 60,
        "velocity": 0,
        "byte9": true
      },
      {
        "deltaTime": 0,
        "running": true,
        "channel": 0,
        "type": "noteOff",
        "noteNumber": 62,
        "velocity": 0,
        "byte9": true
      },
      {
        "deltaTime": 13,
        "channel": 0,
        "type": "controller",
        "controllerType": 64,
        "value": 2
      },
      {
        "deltaTime": 0,
        "running": true,
        "channel": 0,
        "type": "controller",
        "controllerType": 64,
        "value": 0
      },
      {
        "deltaTime": 3,
        "channel": 0,
        "type": "noteOff",
        "noteNumber": 69,
        "velocity": 0,
        "byte9": true
      },
      {
        "deltaTime": 2,
        "channel": 0,
        "type": "noteOff",
        "noteNumber": 57,
        "velocity": 0,
        "byte9": true
      },
      {
        "deltaTime": 8,
        "channel": 0,
        "type": "noteOn",
        "noteNumber": 60,
        "velocity": 50
      },
      {
        "deltaTime": 4,
        "running": true,
        "channel": 0,
        "type": "noteOn",
        "noteNumber": 65,
        "velocity": 58
      },
      {
        "deltaTime": 0,
        "running": true,
        "channel": 0,
        "type": "noteOn",
        "noteNumber": 62,
        "velocity": 58
      },
      {
        "deltaTime": 7,
        "channel": 0,
        "type": "noteOn",
        "noteNumber": 53,
        "velocity": 47
      },
      {
        "deltaTime": 14,
        "channel": 0,
        "type": "controller",
        "controllerType": 64,
        "value": 22
      },
      {
        "deltaTime": 8,
        "running": true,
        "channel": 0,
        "type": "controller",
        "controllerType": 64,
        "value": 64
      },
      {
        "deltaTime": 20,
        "channel": 0,
        "type": "noteOff",
        "noteNumber": 53,
        "velocity": 0,
        "byte9": true
      },
      {
        "deltaTime": 40,
        "channel": 0,
        "type": "noteOff",
        "noteNumber": 60,
        "velocity": 0,
        "byte9": true
      },
      {
        "deltaTime": 19,
        "channel": 0,
        "type": "controller",
        "controllerType": 64,
        "value": 65
      },
      {
        "deltaTime": 0,
        "running": true,
        "channel": 0,
        "type": "controller",
        "controllerType": 64,
        "value": 85
      },
      {
        "deltaTime": 2,
        "channel": 0,
        "type": "noteOff",
        "noteNumber": 62,
        "velocity": 0,
        "byte9": true
      },
      {
        "deltaTime": 22,
        "running": true,
        "channel": 0,
        "type": "noteOff",
        "noteNumber": 65,
        "velocity": 0,
        "byte9": true
      },
      {
        "deltaTime": 12,
        "channel": 0,
        "type": "noteOn",
        "noteNumber": 54,
        "velocity": 69
      },
      {
        "deltaTime": 1,
        "channel": 0,
        "type": "controller",
        "controllerType": 64,
        "value": 64
      },
      {
        "deltaTime": 6,
        "channel": 0,
        "type": "noteOn",
        "noteNumber": 64,
        "velocity": 59
      },
      {
        "deltaTime": 5,
        "channel": 0,
        "type": "controller",
        "controllerType": 64,
        "value": 23
      },
      {
        "deltaTime": 0,
        "running": true,
        "channel": 0,
        "type": "controller",
        "controllerType": 64,
        "value": 22
      },
      {
        "deltaTime": 2,
        "channel": 0,
        "type": "noteOn",
        "noteNumber": 60,
        "velocity": 32
      },
      {
        "deltaTime": 5,
        "channel": 0,
        "type": "controller",
        "controllerType": 64,
        "value": 6
      },
      {
        "deltaTime": 0,
        "running": true,
        "channel": 0,
        "type": "controller",
        "controllerType": 64,
        "value": 0
      },
      {
        "deltaTime": 20,
        "channel": 0,
        "type": "noteOff",
        "noteNumber": 60,
        "velocity": 0,
        "byte9": true
      },
      {
        "deltaTime": 18,
        "running": true,
        "channel": 0,
        "type": "noteOff",
        "noteNumber": 64,
        "velocity": 0,
        "byte9": true
      },
      {
        "deltaTime": 17,
        "channel": 0,
        "type": "noteOff",
        "noteNumber": 54,
        "velocity": 0,
        "byte9": true
      },
      {
        "deltaTime": 11,
        "channel": 0,
        "type": "noteOn",
        "noteNumber": 64,
        "velocity": 55
      },
      {
        "deltaTime": 1,
        "channel": 0,
        "type": "noteOn",
        "noteNumber": 53,
        "velocity": 67
      },
      {
        "deltaTime": 2,
        "channel": 0,
        "type": "noteOn",
        "noteNumber": 59,
        "velocity": 67
      },
      {
        "deltaTime": 102,
        "running": true,
        "channel": 0,
        "type": "noteOff",
        "noteNumber": 59,
        "velocity": 0,
        "byte9": true
      },
      {
        "deltaTime": 23,
        "running": true,
        "channel": 0,
        "type": "noteOn",
        "noteNumber": 69,
        "velocity": 112
      },
      {
        "deltaTime": 8,
        "running": true,
        "channel": 0,
        "type": "noteOff",
        "noteNumber": 64,
        "velocity": 0,
        "byte9": true
      },
      {
        "deltaTime": 35,
        "running": true,
        "channel": 0,
        "type": "noteOff",
        "noteNumber": 69,
        "velocity": 0,
        "byte9": true
      },
      {
        "deltaTime": 8,
        "running": true,
        "channel": 0,
        "type": "noteOn",
        "noteNumber": 68,
        "velocity": 48
      },
      {
        "deltaTime": 48,
        "running": true,
        "channel": 0,
        "type": "noteOff",
        "noteNumber": 68,
        "velocity": 0,
        "byte9": true
      },
      {
        "deltaTime": 24,
        "channel": 0,
        "type": "noteOn",
        "noteNumber": 59,
        "velocity": 60
      },
      {
        "deltaTime": 2,
        "channel": 0,
        "type": "noteOn",
        "noteNumber": 69,
        "velocity": 60
      },
      {
        "deltaTime": 33,
        "running": true,
        "channel": 0,
        "type": "noteOff",
        "noteNumber": 69,
        "velocity": 0,
        "byte9": true
      },
      {
        "deltaTime": 12,
        "channel": 0,
        "type": "noteOff",
        "noteNumber": 59,
        "velocity": 0,
        "byte9": true
      },
      {
        "deltaTime": 12,
        "channel": 0,
        "type": "noteOn",
        "noteNumber": 76,
        "velocity": 94
      },
      {
        "deltaTime": 42,
        "running": true,
        "channel": 0,
        "type": "noteOff",
        "noteNumber": 76,
        "velocity": 0,
        "byte9": true
      },
      {
        "deltaTime": 52,
        "running": true,
        "channel": 0,
        "type": "noteOn",
        "noteNumber": 76,
        "velocity": 105
      },
      {
        "deltaTime": 6,
        "channel": 0,
        "type": "noteOff",
        "noteNumber": 53,
        "velocity": 0,
        "byte9": true
      },
      {
        "deltaTime": 48,
        "channel": 0,
        "type": "noteOff",
        "noteNumber": 76,
        "velocity": 0,
        "byte9": true
      },
      {
        "deltaTime": 26,
        "running": true,
        "channel": 0,
        "type": "noteOn",
        "noteNumber": 75,
        "velocity": 89
      },
      {
        "deltaTime": 4,
        "channel": 0,
        "type": "noteOn",
        "noteNumber": 64,
        "velocity": 64
      },
      {
        "deltaTime": 1,
        "running": true,
        "channel": 0,
        "type": "noteOn",
        "noteNumber": 59,
        "velocity": 69
      },
      {
        "deltaTime": 10,
        "running": true,
        "channel": 0,
        "type": "noteOff",
        "noteNumber": 64,
        "velocity": 0,
        "byte9": true
      },
      {
        "deltaTime": 1,
        "running": true,
        "channel": 0,
        "type": "noteOn",
        "noteNumber": 53,
        "velocity": 38
      },
      {
        "deltaTime": 19,
        "running": true,
        "channel": 0,
        "type": "noteOff",
        "noteNumber": 53,
        "velocity": 0,
        "byte9": true
      },
      {
        "deltaTime": 4,
        "channel": 0,
        "type": "noteOff",
        "noteNumber": 75,
        "velocity": 0,
        "byte9": true
      },
      {
        "deltaTime": 6,
        "channel": 0,
        "type": "noteOff",
        "noteNumber": 59,
        "velocity": 0,
        "byte9": true
      },
      {
        "deltaTime": 11,
        "channel": 0,
        "type": "noteOn",
        "noteNumber": 74,
        "velocity": 56
      },
      {
        "deltaTime": 69,
        "running": true,
        "channel": 0,
        "type": "noteOn",
        "noteNumber": 65,
        "velocity": 69
      },
      {
        "deltaTime": 8,
        "running": true,
        "channel": 0,
        "type": "noteOff",
        "noteNumber": 74,
        "velocity": 0,
        "byte9": true
      },
      {
        "deltaTime": 9,
        "running": true,
        "channel": 0,
        "type": "noteOff",
        "noteNumber": 65,
        "velocity": 0,
        "byte9": true
      },
      {
        "deltaTime": 15,
        "channel": 0,
        "type": "controller",
        "controllerType": 86,
        "value": 37
      },
      {
        "deltaTime": 83,
        "channel": 0,
        "type": "noteOn",
        "noteNumber": 64,
        "velocity": 77
      },
      {
        "deltaTime": 3,
        "running": true,
        "channel": 0,
        "type": "noteOn",
        "noteNumber": 59,
        "velocity": 72
      },
      {
        "deltaTime": 23,
        "running": true,
        "channel": 0,
        "type": "noteOff",
        "noteNumber": 59,
        "velocity": 0,
        "byte9": true
      },
      {
        "deltaTime": 4,
        "running": true,
        "channel": 0,
        "type": "noteOff",
        "noteNumber": 64,
        "velocity": 0,
        "byte9": true
      },
      {
        "deltaTime": 7,
        "channel": 0,
        "type": "controller",
        "controllerType": 85,
        "value": 37
      },
      {
        "deltaTime": 4,
        "channel": 0,
        "type": "noteOn",
        "noteNumber": 67,
        "velocity": 61
      },
      {
        "deltaTime": 30,
        "channel": 0,
        "type": "controller",
        "controllerType": 64,
        "value": 22
      },
      {
        "deltaTime": 25,
        "running": true,
        "channel": 0,
        "type": "controller",
        "controllerType": 64,
        "value": 64
      },
      {
        "deltaTime": 5,
        "channel": 0,
        "type": "noteOff",
        "noteNumber": 67,
        "velocity": 0,
        "byte9": true
      },
      {
        "deltaTime": 17,
        "running": true,
        "channel": 0,
        "type": "noteOn",
        "noteNumber": 68,
        "velocity": 78
      },
      {
        "deltaTime": 9,
        "channel": 0,
        "type": "controller",
        "controllerType": 64,
        "value": 22
      },
      {
        "deltaTime": 6,
        "running": true,
        "channel": 0,
        "type": "controller",
        "controllerType": 64,
        "value": 7
      },
      {
        "deltaTime": 0,
        "running": true,
        "channel": 0,
        "type": "controller",
        "controllerType": 64,
        "value": 0
      },
      {
        "deltaTime": 17,
        "channel": 0,
        "type": "noteOff",
        "noteNumber": 68,
        "velocity": 0,
        "byte9": true
      },
      {
        "deltaTime": 1,
        "channel": 0,
        "type": "controller",
        "controllerType": 64,
        "value": 22
      },
      {
        "deltaTime": 8,
        "channel": 0,
        "type": "noteOn",
        "noteNumber": 69,
        "velocity": 73
      },
      {
        "deltaTime": 1,
        "channel": 0,
        "type": "controller",
        "controllerType": 64,
        "value": 48
      },
      {
        "deltaTime": 0,
        "running": true,
        "channel": 0,
        "type": "controller",
        "controllerType": 64,
        "value": 64
      },
      {
        "deltaTime": 19,
        "channel": 0,
        "type": "noteOff",
        "noteNumber": 69,
        "velocity": 0,
        "byte9": true
      },
      {
        "deltaTime": 59,
        "channel": 0,
        "type": "controller",
        "controllerType": 64,
        "value": 22
      },
      {
        "deltaTime": 0,
        "channel": 0,
        "type": "noteOn",
        "noteNumber": 70,
        "velocity": 79
      },
      {
        "deltaTime": 3,
        "channel": 0,
        "type": "noteOn",
        "noteNumber": 58,
        "velocity": 76
      },
      {
        "deltaTime": 0,
        "channel": 0,
        "type": "noteOn",
        "noteNumber": 63,
        "velocity": 66
      },
      {
        "deltaTime": 2,
        "channel": 0,
        "type": "controller",
        "controllerType": 64,
        "value": 9
      },
      {
        "deltaTime": 0,
        "running": true,
        "channel": 0,
        "type": "controller",
        "controllerType": 64,
        "value": 1
      },
      {
        "deltaTime": 0,
        "running": true,
        "channel": 0,
        "type": "controller",
        "controllerType": 64,
        "value": 0
      },
      {
        "deltaTime": 1,
        "channel": 0,
        "type": "noteOn",
        "noteNumber": 59,
        "velocity": 55
      },
      {
        "deltaTime": 5,
        "running": true,
        "channel": 0,
        "type": "noteOn",
        "noteNumber": 67,
        "velocity": 51
      },
      {
        "deltaTime": 51,
        "meta": true,
        "type": "text",
        "text": "Db7 is tritone substitute for G7"
      },
      {
        "deltaTime": 79,
        "running": true,
        "channel": 0,
        "type": "noteOff",
        "noteNumber": 70,
        "velocity": 0,
        "byte9": true
      },
      {
        "deltaTime": 0,
        "running": true,
        "channel": 0,
        "type": "noteOff",
        "noteNumber": 67,
        "velocity": 0,
        "byte9": true
      },
      {
        "deltaTime": 5,
        "channel": 0,
        "type": "noteOff",
        "noteNumber": 58,
        "velocity": 0,
        "byte9": true
      },
      {
        "deltaTime": 11,
        "channel": 0,
        "type": "noteOn",
        "noteNumber": 68,
        "velocity": 59
      },
      {
        "deltaTime": 3,
        "channel": 0,
        "type": "noteOn",
        "noteNumber": 56,
        "velocity": 52
      },
      {
        "deltaTime": 13,
        "channel": 0,
        "type": "controller",
        "controllerType": 64,
        "value": 22
      },
      {
        "deltaTime": 28,
        "channel": 0,
        "type": "noteOff",
        "noteNumber": 59,
        "velocity": 0,
        "byte9": true
      },
      {
        "deltaTime": 1,
        "running": true,
        "channel": 0,
        "type": "noteOff",
        "noteNumber": 63,
        "velocity": 0,
        "byte9": true
      },
      {
        "deltaTime": 15,
        "running": true,
        "channel": 0,
        "type": "noteOff",
        "noteNumber": 68,
        "velocity": 0,
        "byte9": true
      },
      {
        "deltaTime": 7,
        "channel": 0,
        "type": "controller",
        "controllerType": 64,
        "value": 2
      },
      {
        "deltaTime": 0,
        "running": true,
        "channel": 0,
        "type": "controller",
        "controllerType": 64,
        "value": 0
      },
      {
        "deltaTime": 12,
        "channel": 0,
        "type": "noteOff",
        "noteNumber": 56,
        "velocity": 0,
        "byte9": true
      },
      {
        "deltaTime": 8,
        "running": true,
        "channel": 0,
        "type": "noteOn",
        "noteNumber": 49,
        "velocity": 70
      },
      {
        "deltaTime": 14,
        "running": true,
        "channel": 0,
        "type": "noteOff",
        "noteNumber": 49,
        "velocity": 0,
        "byte9": true
      },
      {
        "deltaTime": 40,
        "running": true,
        "channel": 0,
        "type": "noteOn",
        "noteNumber": 70,
        "velocity": 75
      },
      {
        "deltaTime": 0,
        "channel": 0,
        "type": "noteOn",
        "noteNumber": 71,
        "velocity": 66
      },
      {
        "deltaTime": 0,
        "running": true,
        "channel": 0,
        "type": "noteOn",
        "noteNumber": 75,
        "velocity": 75
      },
      {
        "deltaTime": 0,
        "running": true,
        "channel": 0,
        "type": "noteOn",
        "noteNumber": 82,
        "velocity": 91
      },
      {
        "deltaTime": 48,
        "channel": 0,
        "type": "noteOff",
        "noteNumber": 70,
        "velocity": 0,
        "byte9": true
      },
      {
        "deltaTime": 5,
        "channel": 0,
        "type": "noteOff",
        "noteNumber": 75,
        "velocity": 0,
        "byte9": true
      },
      {
        "deltaTime": 4,
        "running": true,
        "channel": 0,
        "type": "noteOff",
        "noteNumber": 71,
        "velocity": 0,
        "byte9": true
      },
      {
        "deltaTime": 6,
        "running": true,
        "channel": 0,
        "type": "noteOff",
        "noteNumber": 82,
        "velocity": 0,
        "byte9": true
      },
      {
        "deltaTime": 33,
        "running": true,
        "channel": 0,
        "type": "noteOn",
        "noteNumber": 71,
        "velocity": 70
      },
      {
        "deltaTime": 2,
        "running": true,
        "channel": 0,
        "type": "noteOn",
        "noteNumber": 75,
        "velocity": 60
      },
      {
        "deltaTime": 4,
        "channel": 0,
        "type": "noteOn",
        "noteNumber": 68,
        "velocity": 58
      },
      {
        "deltaTime": 8,
        "channel": 0,
        "type": "noteOff",
        "noteNumber": 75,
        "velocity": 0,
        "byte9": true
      },
      {
        "deltaTime": 6,
        "channel": 0,
        "type": "noteOff",
        "noteNumber": 68,
        "velocity": 0,
        "byte9": true
      },
      {
        "deltaTime": 4,
        "channel": 0,
        "type": "noteOff",
        "noteNumber": 71,
        "velocity": 0,
        "byte9": true
      },
      {
        "deltaTime": 63,
        "running": true,
        "channel": 0,
        "type": "noteOn",
        "noteNumber": 81,
        "velocity": 95
      },
      {
        "deltaTime": 3,
        "running": true,
        "channel": 0,
        "type": "noteOn",
        "noteNumber": 70,
        "velocity": 77
      },
      {
        "deltaTime": 1,
        "running": true,
        "channel": 0,
        "type": "noteOn",
        "noteNumber": 74,
        "velocity": 73
      },
      {
        "deltaTime": 1,
        "channel": 0,
        "type": "noteOn",
        "noteNumber": 69,
        "velocity": 91
      },
      {
        "deltaTime": 13,
        "channel": 0,
        "type": "noteOff",
        "noteNumber": 70,
        "velocity": 0,
        "byte9": true
      },
      {
        "deltaTime": 5,
        "channel": 0,
        "type": "noteOff",
        "noteNumber": 69,
        "velocity": 0,
        "byte9": true
      },
      {
        "deltaTime": 4,
        "channel": 0,
        "type": "noteOff",
        "noteNumber": 74,
        "velocity": 0,
        "byte9": true
      },
      {
        "deltaTime": 2,
        "running": true,
        "channel": 0,
        "type": "noteOff",
        "noteNumber": 81,
        "velocity": 0,
        "byte9": true
      },
      {
        "deltaTime": 58,
        "running": true,
        "channel": 0,
        "type": "noteOn",
        "noteNumber": 70,
        "velocity": 74
      },
      {
        "deltaTime": 2,
        "running": true,
        "channel": 0,
        "type": "noteOn",
        "noteNumber": 79,
        "velocity": 84
      },
      {
        "deltaTime": 1,
        "channel": 0,
        "type": "noteOn",
        "noteNumber": 67,
        "velocity": 75
      },
      {
        "deltaTime": 4,
        "channel": 0,
        "type": "noteOn",
        "noteNumber": 74,
        "velocity": 65
      },
      {
        "deltaTime": 17,
        "channel": 0,
        "type": "controller",
        "controllerType": 64,
        "value": 22
      },
      {
        "deltaTime": 12,
        "channel": 0,
        "type": "noteOff",
        "noteNumber": 67,
        "velocity": 0,
        "byte9": true
      },
      {
        "deltaTime": 29,
        "channel": 0,
        "type": "noteOff",
        "noteNumber": 74,
        "velocity": 0,
        "byte9": true
      },
      {
        "deltaTime": 1,
        "running": true,
        "channel": 0,
        "type": "noteOff",
        "noteNumber": 70,
        "velocity": 0,
        "byte9": true
      },
      {
        "deltaTime": 7,
        "running": true,
        "channel": 0,
        "type": "noteOff",
        "noteNumber": 79,
        "velocity": 0,
        "byte9": true
      },
      {
        "deltaTime": 0,
        "channel": 0,
        "type": "controller",
        "controllerType": 88,
        "value": 36
      },
      {
        "deltaTime": 0,
        "running": true,
        "channel": 0,
        "type": "controller",
        "controllerType": 86,
        "value": 37
      },
      {
        "deltaTime": 0,
        "running": true,
        "channel": 0,
        "type": "controller",
        "controllerType": 85,
        "value": 37
      },
      {
        "deltaTime": 0,
        "running": true,
        "channel": 0,
        "type": "controller",
        "controllerType": 64,
        "value": 0
      },
      {
        "deltaTime": 72,
        "running": true,
        "channel": 0,
        "type": "controller",
        "controllerType": 64,
        "value": 64
      },
      {
        "deltaTime": 11,
        "channel": 0,
        "type": "noteOn",
        "noteNumber": 64,
        "velocity": 92
      },
      {
        "deltaTime": 3,
        "running": true,
        "channel": 0,
        "type": "noteOn",
        "noteNumber": 59,
        "velocity": 80
      },
      {
        "deltaTime": 2,
        "running": true,
        "channel": 0,
        "type": "noteOn",
        "noteNumber": 53,
        "velocity": 63
      },
      {
        "deltaTime": 1,
        "channel": 0,
        "type": "controller",
        "controllerType": 88,
        "value": 36
      },
      {
        "deltaTime": 0,
        "running": true,
        "channel": 0,
        "type": "controller",
        "controllerType": 86,
        "value": 2
      },
      {
        "deltaTime": 0,
        "running": true,
        "channel": 0,
        "type": "controller",
        "controllerType": 85,
        "value": 2
      },
      {
        "deltaTime": 0,
        "running": true,
        "channel": 0,
        "type": "controller",
        "controllerType": 64,
        "value": 0
      },
      {
        "deltaTime": 10,
        "channel": 0,
        "type": "noteOff",
        "noteNumber": 53,
        "velocity": 0,
        "byte9": true
      },
      {
        "deltaTime": 8,
        "channel": 0,
        "type": "controller",
        "controllerType": 64,
        "value": 22
      },
      {
        "deltaTime": 4,
        "channel": 0,
        "type": "noteOff",
        "noteNumber": 64,
        "velocity": 0,
        "byte9": true
      },
      {
        "deltaTime": 1,
        "running": true,
        "channel": 0,
        "type": "noteOff",
        "noteNumber": 59,
        "velocity": 0,
        "byte9": true
      },
      {
        "deltaTime": 0,
        "channel": 0,
        "type": "controller",
        "controllerType": 64,
        "value": 9
      },
      {
        "deltaTime": 0,
        "running": true,
        "channel": 0,
        "type": "controller",
        "controllerType": 64,
        "value": 0
      },
      {
        "deltaTime": 6,
        "channel": 0,
        "type": "controller",
        "controllerType": 85,
        "value": 37
      },
      {
        "deltaTime": 9,
        "channel": 0,
        "type": "noteOn",
        "noteNumber": 79,
        "velocity": 72
      },
      {
        "deltaTime": 14,
        "running": true,
        "channel": 0,
        "type": "noteOff",
        "noteNumber": 79,
        "velocity": 0,
        "byte9": true
      },
      {
        "deltaTime": 17,
        "channel": 0,
        "type": "controller",
        "controllerType": 86,
        "value": 37
      },
      {
        "deltaTime": 47,
        "channel": 0,
        "type": "noteOn",
        "noteNumber": 81,
        "velocity": 105
      },
      {
        "deltaTime": 28,
        "running": true,
        "channel": 0,
        "type": "noteOff",
        "noteNumber": 81,
        "velocity": 0,
        "byte9": true
      },
      {
        "deltaTime": 22,
        "running": true,
        "channel": 0,
        "type": "noteOn",
        "noteNumber": 79,
        "velocity": 57
      },
      {
        "deltaTime": 12,
        "running": true,
        "channel": 0,
        "type": "noteOff",
        "noteNumber": 79,
        "velocity": 0,
        "byte9": true
      },
      {
        "deltaTime": 11,
        "channel": 0,
        "type": "controller",
        "controllerType": 86,
        "value": 37
      },
      {
        "deltaTime": 50,
        "channel": 0,
        "type": "noteOn",
        "noteNumber": 79,
        "velocity": 92
      },
      {
        "deltaTime": 0,
        "channel": 0,
        "type": "noteOn",
        "noteNumber": 64,
        "velocity": 59
      },
      {
        "deltaTime": 1,
        "running": true,
        "channel": 0,
        "type": "noteOn",
        "noteNumber": 59,
        "velocity": 67
      },
      {
        "deltaTime": 8,
        "running": true,
        "channel": 0,
        "type": "noteOff",
        "noteNumber": 64,
        "velocity": 0,
        "byte9": true
      },
      {
        "deltaTime": 5,
        "running": true,
        "channel": 0,
        "type": "noteOff",
        "noteNumber": 59,
        "velocity": 0,
        "byte9": true
      },
      {
        "deltaTime": 3,
        "channel": 0,
        "type": "noteOff",
        "noteNumber": 79,
        "velocity": 0,
        "byte9": true
      },
      {
        "deltaTime": 13,
        "channel": 0,
        "type": "controller",
        "controllerType": 86,
        "value": 12
      },
      {
        "deltaTime": 4,
        "channel": 0,
        "type": "noteOn",
        "noteNumber": 80,
        "velocity": 73
      },
      {
        "deltaTime": 0,
        "running": true,
        "channel": 0,
        "type": "noteOn",
        "noteNumber": 86,
        "velocity": 40
      },
      {
        "deltaTime": 26,
        "running": true,
        "channel": 0,
        "type": "noteOn",
        "noteNumber": 81,
        "velocity": 57
      },
      {
        "deltaTime": 1,
        "running": true,
        "channel": 0,
        "type": "noteOff",
        "noteNumber": 80,
        "velocity": 0,
        "byte9": true
      },
      {
        "deltaTime": 6,
        "running": true,
        "channel": 0,
        "type": "noteOff",
        "noteNumber": 86,
        "velocity": 0,
        "byte9": true
      },
      {
        "deltaTime": 10,
        "running": true,
        "channel": 0,
        "type": "noteOff",
        "noteNumber": 81,
        "velocity": 0,
        "byte9": true
      },
      {
        "deltaTime": 162,
        "channel": 0,
        "type": "noteOn",
        "noteNumber": 64,
        "velocity": 54
      },
      {
        "deltaTime": 3,
        "running": true,
        "channel": 0,
        "type": "noteOn",
        "noteNumber": 59,
        "velocity": 62
      },
      {
        "deltaTime": 2,
        "running": true,
        "channel": 0,
        "type": "noteOn",
        "noteNumber": 53,
        "velocity": 37
      },
      {
        "deltaTime": 4,
        "running": true,
        "channel": 0,
        "type": "noteOff",
        "noteNumber": 64,
        "velocity": 0,
        "byte9": true
      },
      {
        "deltaTime": 12,
        "running": true,
        "channel": 0,
        "type": "noteOff",
        "noteNumber": 59,
        "velocity": 0,
        "byte9": true
      },
      {
        "deltaTime": 1,
        "running": true,
        "channel": 0,
        "type": "noteOff",
        "noteNumber": 53,
        "velocity": 0,
        "byte9": true
      },
      {
        "deltaTime": 9,
        "channel": 0,
        "type": "noteOn",
        "noteNumber": 74,
        "velocity": 60
      },
      {
        "deltaTime": 71,
        "running": true,
        "channel": 0,
        "type": "noteOff",
        "noteNumber": 74,
        "velocity": 0,
        "byte9": true
      },
      {
        "deltaTime": 17,
        "running": true,
        "channel": 0,
        "type": "noteOn",
        "noteNumber": 77,
        "velocity": 72
      },
      {
        "deltaTime": 15,
        "running": true,
        "channel": 0,
        "type": "noteOff",
        "noteNumber": 77,
        "velocity": 0,
        "byte9": true
      },
      {
        "deltaTime": 20,
        "running": true,
        "channel": 0,
        "type": "noteOn",
        "noteNumber": 79,
        "velocity": 98
      },
      {
        "deltaTime": 37,
        "running": true,
        "channel": 0,
        "type": "noteOff",
        "noteNumber": 79,
        "velocity": 0,
        "byte9": true
      },
      {
        "deltaTime": 49,
        "running": true,
        "channel": 0,
        "type": "noteOn",
        "noteNumber": 84,
        "velocity": 103
      },
      {
        "deltaTime": 1,
        "running": true,
        "channel": 0,
        "type": "noteOn",
        "noteNumber": 72,
        "velocity": 92
      },
      {
        "deltaTime": 0,
        "running": true,
        "channel": 0,
        "type": "noteOn",
        "noteNumber": 80,
        "velocity": 93
      },
      {
        "deltaTime": 3,
        "running": true,
        "channel": 0,
        "type": "noteOn",
        "noteNumber": 78,
        "velocity": 75
      },
      {
        "deltaTime": 1,
        "channel": 0,
        "type": "noteOn",
        "noteNumber": 62,
        "velocity": 84
      },
      {
        "deltaTime": 0,
        "running": true,
        "channel": 0,
        "type": "noteOn",
        "noteNumber": 57,
        "velocity": 72
      },
      {
        "deltaTime": 0,
        "running": true,
        "channel": 0,
        "type": "noteOn",
        "noteNumber": 58,
        "velocity": 71
      },
      {
        "deltaTime": 2,
        "running": true,
        "channel": 0,
        "type": "noteOn",
        "noteNumber": 53,
        "velocity": 52
      },
      {
        "deltaTime": 5,
        "channel": 0,
        "type": "noteOff",
        "noteNumber": 78,
        "velocity": 0,
        "byte9": true
      },
      {
        "deltaTime": 9,
        "channel": 0,
        "type": "noteOff",
        "noteNumber": 62,
        "velocity": 0,
        "byte9": true
      },
      {
        "deltaTime": 2,
        "running": true,
        "channel": 0,
        "type": "noteOff",
        "noteNumber": 57,
        "velocity": 0,
        "byte9": true
      },
      {
        "deltaTime": 1,
        "running": true,
        "channel": 0,
        "type": "noteOff",
        "noteNumber": 58,
        "velocity": 0,
        "byte9": true
      },
      {
        "deltaTime": 0,
        "running": true,
        "channel": 0,
        "type": "noteOff",
        "noteNumber": 53,
        "velocity": 0,
        "byte9": true
      },
      {
        "deltaTime": 9,
        "channel": 0,
        "type": "noteOff",
        "noteNumber": 80,
        "velocity": 0,
        "byte9": true
      },
      {
        "deltaTime": 12,
        "running": true,
        "channel": 0,
        "type": "noteOff",
        "noteNumber": 72,
        "velocity": 0,
        "byte9": true
      },
      {
        "deltaTime": 4,
        "meta": true,
        "type": "text",
        "text": "Play these as crotchet triplets"
      },
      {
        "deltaTime": 7,
        "running": true,
        "channel": 0,
        "type": "noteOff",
        "noteNumber": 84,
        "velocity": 0,
        "byte9": true
      },
      {
        "deltaTime": 27,
        "running": true,
        "channel": 0,
        "type": "noteOn",
        "noteNumber": 84,
        "velocity": 83
      },
      {
        "deltaTime": 2,
        "running": true,
        "channel": 0,
        "type": "noteOn",
        "noteNumber": 72,
        "velocity": 83
      },
      {
        "deltaTime": 8,
        "running": true,
        "channel": 0,
        "type": "noteOn",
        "noteNumber": 81,
        "velocity": 63
      },
      {
        "deltaTime": 24,
        "running": true,
        "channel": 0,
        "type": "noteOff",
        "noteNumber": 72,
        "velocity": 0,
        "byte9": true
      },
      {
        "deltaTime": 2,
        "running": true,
        "channel": 0,
        "type": "noteOff",
        "noteNumber": 84,
        "velocity": 0,
        "byte9": true
      },
      {
        "deltaTime": 2,
        "running": true,
        "channel": 0,
        "type": "noteOff",
        "noteNumber": 81,
        "velocity": 0,
        "byte9": true
      },
      {
        "deltaTime": 49,
        "running": true,
        "channel": 0,
        "type": "noteOn",
        "noteNumber": 84,
        "velocity": 100
      },
      {
        "deltaTime": 0,
        "running": true,
        "channel": 0,
        "type": "noteOn",
        "noteNumber": 72,
        "velocity": 96
      },
      {
        "deltaTime": 3,
        "running": true,
        "channel": 0,
        "type": "noteOn",
        "noteNumber": 81,
        "velocity": 79
      },
      {
        "deltaTime": 51,
        "running": true,
        "channel": 0,
        "type": "noteOff",
        "noteNumber": 84,
        "velocity": 0,
        "byte9": true
      },
      {
        "deltaTime": 3,
        "running": true,
        "channel": 0,
        "type": "noteOff",
        "noteNumber": 72,
        "velocity": 0,
        "byte9": true
      },
      {
        "deltaTime": 3,
        "running": true,
        "channel": 0,
        "type": "noteOff",
        "noteNumber": 81,
        "velocity": 0,
        "byte9": true
      },
      {
        "deltaTime": 17,
        "running": true,
        "channel": 0,
        "type": "noteOn",
        "noteNumber": 72,
        "velocity": 68
      },
      {
        "deltaTime": 2,
        "running": true,
        "channel": 0,
        "type": "noteOn",
        "noteNumber": 84,
        "velocity": 79
      },
      {
        "deltaTime": 7,
        "channel": 0,
        "type": "noteOn",
        "noteNumber": 62,
        "velocity": 89
      },
      {
        "deltaTime": 1,
        "running": true,
        "channel": 0,
        "type": "noteOn",
        "noteNumber": 52,
        "velocity": 91
      },
      {
        "deltaTime": 1,
        "running": true,
        "channel": 0,
        "type": "noteOn",
        "noteNumber": 58,
        "velocity": 81
      },
      {
        "deltaTime": 15,
        "running": true,
        "channel": 0,
        "type": "noteOff",
        "noteNumber": 58,
        "velocity": 0,
        "byte9": true
      },
      {
        "deltaTime": 5,
        "channel": 0,
        "type": "noteOff",
        "noteNumber": 72,
        "velocity": 0,
        "byte9": true
      },
      {
        "deltaTime": 21,
        "running": true,
        "channel": 0,
        "type": "noteOff",
        "noteNumber": 84,
        "velocity": 0,
        "byte9": true
      },
      {
        "deltaTime": 1,
        "channel": 0,
        "type": "noteOff",
        "noteNumber": 62,
        "velocity": 0,
        "byte9": true
      },
      {
        "deltaTime": 0,
        "running": true,
        "channel": 0,
        "type": "noteOff",
        "noteNumber": 52,
        "velocity": 0,
        "byte9": true
      },
      {
        "deltaTime": 11,
        "channel": 0,
        "type": "controller",
        "controllerType": 85,
        "value": 37
      },
      {
        "deltaTime": 11,
        "channel": 0,
        "type": "noteOn",
        "noteNumber": 84,
        "velocity": 52
      },
      {
        "deltaTime": 0,
        "running": true,
        "channel": 0,
        "type": "noteOn",
        "noteNumber": 72,
        "velocity": 44
      },
      {
        "deltaTime": 4,
        "running": true,
        "channel": 0,
        "type": "noteOn",
        "noteNumber": 80,
        "velocity": 70
      },
      {
        "deltaTime": 16,
        "running": true,
        "channel": 0,
        "type": "noteOff",
        "noteNumber": 80,
        "velocity": 0,
        "byte9": true
      },
      {
        "deltaTime": 14,
        "running": true,
        "channel": 0,
        "type": "noteOff",
        "noteNumber": 72,
        "velocity": 0,
        "byte9": true
      },
      {
        "deltaTime": 14,
        "running": true,
        "channel": 0,
        "type": "noteOff",
        "noteNumber": 84,
        "velocity": 0,
        "byte9": true
      },
      {
        "deltaTime": 27,
        "channel": 0,
        "type": "controller",
        "controllerType": 64,
        "value": 22
      },
      {
        "deltaTime": 6,
        "running": true,
        "channel": 0,
        "type": "controller",
        "controllerType": 64,
        "value": 64
      },
      {
        "deltaTime": 0,
        "channel": 0,
        "type": "noteOn",
        "noteNumber": 84,
        "velocity": 97
      },
      {
        "deltaTime": 2,
        "running": true,
        "channel": 0,
        "type": "noteOn",
        "noteNumber": 72,
        "velocity": 80
      },
      {
        "deltaTime": 4,
        "running": true,
        "channel": 0,
        "type": "noteOn",
        "noteNumber": 81,
        "velocity": 70
      },
      {
        "deltaTime": 34,
        "running": true,
        "channel": 0,
        "type": "noteOff",
        "noteNumber": 84,
        "velocity": 0,
        "byte9": true
      },
      {
        "deltaTime": 8,
        "running": true,
        "channel": 0,
        "type": "noteOff",
        "noteNumber": 72,
        "velocity": 0,
        "byte9": true
      },
      {
        "deltaTime": 0,
        "running": true,
        "channel": 0,
        "type": "noteOff",
        "noteNumber": 81,
        "velocity": 0,
        "byte9": true
      },
      {
        "deltaTime": 29,
        "running": true,
        "channel": 0,
        "type": "noteOn",
        "noteNumber": 84,
        "velocity": 92
      },
      {
        "deltaTime": 1,
        "channel": 0,
        "type": "noteOn",
        "noteNumber": 64,
        "velocity": 82
      },
      {
        "deltaTime": 1,
        "channel": 0,
        "type": "controller",
        "controllerType": 64,
        "value": 22
      },
      {
        "deltaTime": 0,
        "channel": 0,
        "type": "noteOn",
        "noteNumber": 53,
        "velocity": 73
      },
      {
        "deltaTime": 0,
        "channel": 0,
        "type": "noteOn",
        "noteNumber": 72,
        "velocity": 90
      },
      {
        "deltaTime": 1,
        "channel": 0,
        "type": "noteOn",
        "noteNumber": 60,
        "velocity": 59
      },
      {
        "deltaTime": 1,
        "running": true,
        "channel": 0,
        "type": "noteOn",
        "noteNumber": 57,
        "velocity": 69
      },
      {
        "deltaTime": 1,
        "channel": 0,
        "type": "noteOn",
        "noteNumber": 81,
        "velocity": 79
      },
      {
        "deltaTime": 0,
        "channel": 0,
        "type": "controller",
        "controllerType": 64,
        "value": 12
      },
      {
        "deltaTime": 0,
        "running": true,
        "channel": 0,
        "type": "controller",
        "controllerType": 64,
        "value": 0
      },
      {
        "deltaTime": 38,
        "running": true,
        "channel": 0,
        "type": "controller",
        "controllerType": 64,
        "value": 22
      },
      {
        "deltaTime": 3,
        "channel": 0,
        "type": "noteOff",
        "noteNumber": 72,
        "velocity": 0,
        "byte9": true
      },
      {
        "deltaTime": 1,
        "running": true,
        "channel": 0,
        "type": "noteOff",
        "noteNumber": 84,
        "velocity": 0,
        "byte9": true
      },
      {
        "deltaTime": 0,
        "running": true,
        "channel": 0,
        "type": "noteOff",
        "noteNumber": 81,
        "velocity": 0,
        "byte9": true
      },
      {
        "deltaTime": 3,
        "channel": 0,
        "type": "controller",
        "controllerType": 64,
        "value": 64
      },
      {
        "deltaTime": 5,
        "channel": 0,
        "type": "noteOff",
        "noteNumber": 53,
        "velocity": 0,
        "byte9": true
      },
      {
        "deltaTime": 5,
        "running": true,
        "channel": 0,
        "type": "noteOff",
        "noteNumber": 64,
        "velocity": 0,
        "byte9": true
      },
      {
        "deltaTime": 3,
        "running": true,
        "channel": 0,
        "type": "noteOff",
        "noteNumber": 60,
        "velocity": 0,
        "byte9": true
      },
      {
        "deltaTime": 1,
        "running": true,
        "channel": 0,
        "type": "noteOff",
        "noteNumber": 57,
        "velocity": 0,
        "byte9": true
      },
      {
        "deltaTime": 16,
        "running": true,
        "channel": 0,
        "type": "noteOn",
        "noteNumber": 64,
        "velocity": 62
      },
      {
        "deltaTime": 0,
        "running": true,
        "channel": 0,
        "type": "noteOn",
        "noteNumber": 53,
        "velocity": 52
      },
      {
        "deltaTime": 2,
        "channel": 0,
        "type": "noteOn",
        "noteNumber": 84,
        "velocity": 87
      },
      {
        "deltaTime": 1,
        "running": true,
        "channel": 0,
        "type": "noteOn",
        "noteNumber": 72,
        "velocity": 79
      },
      {
        "deltaTime": 1,
        "channel": 0,
        "type": "noteOn",
        "noteNumber": 60,
        "velocity": 50
      },
      {
        "deltaTime": 1,
        "running": true,
        "channel": 0,
        "type": "noteOn",
        "noteNumber": 57,
        "velocity": 65
      },
      {
        "deltaTime": 2,
        "channel": 0,
        "type": "noteOn",
        "noteNumber": 81,
        "velocity": 70
      },
      {
        "deltaTime": 14,
        "channel": 0,
        "type": "controller",
        "controllerType": 64,
        "value": 65
      },
      {
        "deltaTime": 0,
        "running": true,
        "channel": 0,
        "type": "controller",
        "controllerType": 64,
        "value": 85
      },
      {
        "deltaTime": 18,
        "channel": 0,
        "type": "noteOff",
        "noteNumber": 64,
        "velocity": 0,
        "byte9": true
      },
      {
        "deltaTime": 1,
        "channel": 0,
        "type": "noteOff",
        "noteNumber": 81,
        "velocity": 0,
        "byte9": true
      },
      {
        "deltaTime": 4,
        "channel": 0,
        "type": "noteOff",
        "noteNumber": 53,
        "velocity": 0,
        "byte9": true
      },
      {
        "deltaTime": 1,
        "channel": 0,
        "type": "noteOff",
        "noteNumber": 84,
        "velocity": 0,
        "byte9": true
      },
      {
        "deltaTime": 0,
        "channel": 0,
        "type": "noteOff",
        "noteNumber": 60,
        "velocity": 0,
        "byte9": true
      },
      {
        "deltaTime": 2,
        "channel": 0,
        "type": "noteOff",
        "noteNumber": 72,
        "velocity": 0,
        "byte9": true
      },
      {
        "deltaTime": 5,
        "channel": 0,
        "type": "noteOff",
        "noteNumber": 57,
        "velocity": 0,
        "byte9": true
      },
      {
        "deltaTime": 10,
        "channel": 0,
        "type": "controller",
        "controllerType": 64,
        "value": 64
      },
      {
        "deltaTime": 15,
        "channel": 0,
        "type": "noteOn",
        "noteNumber": 81,
        "velocity": 81
      },
      {
        "deltaTime": 2,
        "channel": 0,
        "type": "noteOn",
        "noteNumber": 57,
        "velocity": 43
      },
      {
        "deltaTime": 1,
        "channel": 0,
        "type": "noteOn",
        "noteNumber": 72,
        "velocity": 75
      },
      {
        "deltaTime": 1,
        "channel": 0,
        "type": "noteOn",
        "noteNumber": 64,
        "velocity": 76
      },
      {
        "deltaTime": 0,
        "running": true,
        "channel": 0,
        "type": "noteOn",
        "noteNumber": 53,
        "velocity": 68
      },
      {
        "deltaTime": 1,
        "running": true,
        "channel": 0,
        "type": "noteOn",
        "noteNumber": 60,
        "velocity": 64
      },
      {
        "deltaTime": 12,
        "running": true,
        "channel": 0,
        "type": "noteOff",
        "noteNumber": 53,
        "velocity": 0,
        "byte9": true
      },
      {
        "deltaTime": 1,
        "channel": 0,
        "type": "controller",
        "controllerType": 64,
        "value": 85
      },
      {
        "deltaTime": 3,
        "channel": 0,
        "type": "noteOff",
        "noteNumber": 57,
        "velocity": 0,
        "byte9": true
      },
      {
        "deltaTime": 3,
        "running": true,
        "channel": 0,
        "type": "noteOff",
        "noteNumber": 60,
        "velocity": 0,
        "byte9": true
      },
      {
        "deltaTime": 2,
        "running": true,
        "channel": 0,
        "type": "noteOff",
        "noteNumber": 64,
        "velocity": 0,
        "byte9": true
      },
      {
        "deltaTime": 2,
        "channel": 0,
        "type": "noteOff",
        "noteNumber": 81,
        "velocity": 0,
        "byte9": true
      },
      {
        "deltaTime": 10,
        "running": true,
        "channel": 0,
        "type": "noteOff",
        "noteNumber": 72,
        "velocity": 0,
        "byte9": true
      },
      {
        "deltaTime": 36,
        "channel": 0,
        "type": "controller",
        "controllerType": 64,
        "value": 64
      },
      {
        "deltaTime": 8,
        "running": true,
        "channel": 0,
        "type": "controller",
        "controllerType": 64,
        "value": 23
      },
      {
        "deltaTime": 0,
        "running": true,
        "channel": 0,
        "type": "controller",
        "controllerType": 64,
        "value": 22
      },
      {
        "deltaTime": 0,
        "channel": 0,
        "type": "noteOn",
        "noteNumber": 76,
        "velocity": 85
      },
      {
        "deltaTime": 0,
        "channel": 0,
        "type": "noteOn",
        "noteNumber": 56,
        "velocity": 94
      },
      {
        "deltaTime": 1,
        "running": true,
        "channel": 0,
        "type": "noteOn",
        "noteNumber": 67,
        "velocity": 87
      },
      {
        "deltaTime": 0,
        "channel": 0,
        "type": "controller",
        "controllerType": 64,
        "value": 12
      },
      {
        "deltaTime": 0,
        "running": true,
        "channel": 0,
        "type": "controller",
        "controllerType": 64,
        "value": 0
      },
      {
        "deltaTime": 1,
        "channel": 0,
        "type": "noteOn",
        "noteNumber": 72,
        "velocity": 49
      },
      {
        "deltaTime": 4,
        "channel": 0,
        "type": "noteOn",
        "noteNumber": 62,
        "velocity": 63
      },
      {
        "deltaTime": 34,
        "channel": 0,
        "type": "controller",
        "controllerType": 64,
        "value": 22
      },
      {
        "deltaTime": 4,
        "running": true,
        "channel": 0,
        "type": "controller",
        "controllerType": 64,
        "value": 50
      },
      {
        "deltaTime": 0,
        "running": true,
        "channel": 0,
        "type": "controller",
        "controllerType": 64,
        "value": 64
      },
      {
        "deltaTime": 14,
        "channel": 0,
        "type": "noteOff",
        "noteNumber": 76,
        "velocity": 0,
        "byte9": true
      },
      {
        "deltaTime": 0,
        "channel": 0,
        "type": "noteOff",
        "noteNumber": 56,
        "velocity": 0,
        "byte9": true
      },
      {
        "deltaTime": 0,
        "running": true,
        "channel": 0,
        "type": "noteOff",
        "noteNumber": 67,
        "velocity": 0,
        "byte9": true
      },
      {
        "deltaTime": 0,
        "channel": 0,
        "type": "noteOff",
        "noteNumber": 72,
        "velocity": 0,
        "byte9": true
      },
      {
        "deltaTime": 1,
        "channel": 0,
        "type": "noteOff",
        "noteNumber": 62,
        "velocity": 0,
        "byte9": true
      },
      {
        "deltaTime": 0,
        "channel": 0,
        "type": "controller",
        "controllerType": 64,
        "value": 65
      },
      {
        "deltaTime": 0,
        "running": true,
        "channel": 0,
        "type": "controller",
        "controllerType": 64,
        "value": 85
      },
      {
        "deltaTime": 13,
        "channel": 0,
        "type": "controller",
        "controllerType": 85,
        "value": 37
      },
      {
        "deltaTime": 80,
        "running": true,
        "channel": 0,
        "type": "controller",
        "controllerType": 85,
        "value": 12
      },
      {
        "deltaTime": 88,
        "channel": 0,
        "type": "noteOn",
        "noteNumber": 58,
        "velocity": 47
      },
      {
        "deltaTime": 8,
        "running": true,
        "channel": 0,
        "type": "noteOn",
        "noteNumber": 60,
        "velocity": 62
      },
      {
        "deltaTime": 10,
        "channel": 0,
        "type": "controller",
        "controllerType": 64,
        "value": 64
      },
      {
        "deltaTime": 1,
        "channel": 0,
        "type": "noteOff",
        "noteNumber": 58,
        "velocity": 0,
        "byte9": true
      },
      {
        "deltaTime": 6,
        "channel": 0,
        "type": "controller",
        "controllerType": 64,
        "value": 23
      },
      {
        "deltaTime": 0,
        "running": true,
        "channel": 0,
        "type": "controller",
        "controllerType": 64,
        "value": 22
      },
      {
        "deltaTime": 3,
        "running": true,
        "channel": 0,
        "type": "controller",
        "controllerType": 64,
        "value": 11
      },
      {
        "deltaTime": 0,
        "running": true,
        "channel": 0,
        "type": "controller",
        "controllerType": 64,
        "value": 1
      },
      {
        "deltaTime": 0,
        "running": true,
        "channel": 0,
        "type": "controller",
        "controllerType": 64,
        "value": 0
      },
      {
        "deltaTime": 6,
        "channel": 0,
        "type": "noteOff",
        "noteNumber": 60,
        "velocity": 0,
        "byte9": true
      },
      {
        "deltaTime": 1,
        "channel": 0,
        "type": "noteOn",
        "noteNumber": 79,
        "velocity": 106
      },
      {
        "deltaTime": 1,
        "channel": 0,
        "type": "noteOn",
        "noteNumber": 64,
        "velocity": 97
      },
      {
        "deltaTime": 1,
        "channel": 0,
        "type": "noteOn",
        "noteNumber": 76,
        "velocity": 90
      },
      {
        "deltaTime": 0,
        "running": true,
        "channel": 0,
        "type": "noteOn",
        "noteNumber": 69,
        "velocity": 107
      },
      {
        "deltaTime": 0,
        "running": true,
        "channel": 0,
        "type": "noteOn",
        "noteNumber": 72,
        "velocity": 104
      },
      {
        "deltaTime": 5,
        "running": true,
        "channel": 0,
        "type": "noteOn",
        "noteNumber": 77,
        "velocity": 61
      },
      {
        "deltaTime": 18,
        "running": true,
        "channel": 0,
        "type": "noteOff",
        "noteNumber": 76,
        "velocity": 0,
        "byte9": true
      },
      {
        "deltaTime": 3,
        "running": true,
        "channel": 0,
        "type": "noteOff",
        "noteNumber": 77,
        "velocity": 0,
        "byte9": true
      },
      {
        "deltaTime": 2,
        "running": true,
        "channel": 0,
        "type": "noteOff",
        "noteNumber": 72,
        "velocity": 0,
        "byte9": true
      },
      {
        "deltaTime": 1,
        "running": true,
        "channel": 0,
        "type": "noteOff",
        "noteNumber": 79,
        "velocity": 0,
        "byte9": true
      },
      {
        "deltaTime": 6,
        "channel": 0,
        "type": "noteOff",
        "noteNumber": 64,
        "velocity": 0,
        "byte9": true
      },
      {
        "deltaTime": 0,
        "channel": 0,
        "type": "noteOff",
        "noteNumber": 69,
        "velocity": 0,
        "byte9": true
      },
      {
        "deltaTime": 36,
        "meta": true,
        "type": "text",
        "text": "Drop 2  block chords"
      },
      {
        "deltaTime": 13,
        "running": true,
        "channel": 0,
        "type": "noteOn",
        "noteNumber": 76,
        "velocity": 83
      },
      {
        "deltaTime": 3,
        "channel": 0,
        "type": "noteOn",
        "noteNumber": 60,
        "velocity": 68
      },
      {
        "deltaTime": 0,
        "channel": 0,
        "type": "noteOn",
        "noteNumber": 67,
        "velocity": 81
      },
      {
        "deltaTime": 0,
        "running": true,
        "channel": 0,
        "type": "noteOn",
        "noteNumber": 69,
        "velocity": 73
      },
      {
        "deltaTime": 7,
        "running": true,
        "channel": 0,
        "type": "noteOn",
        "noteNumber": 72,
        "velocity": 45
      },
      {
        "deltaTime": 6,
        "running": true,
        "channel": 0,
        "type": "noteOff",
        "noteNumber": 72,
        "velocity": 0,
        "byte9": true
      },
      {
        "deltaTime": 3,
        "running": true,
        "channel": 0,
        "type": "noteOff",
        "noteNumber": 69,
        "velocity": 0,
        "byte9": true
      },
      {
        "deltaTime": 1,
        "running": true,
        "channel": 0,
        "type": "noteOff",
        "noteNumber": 76,
        "velocity": 0,
        "byte9": true
      },
      {
        "deltaTime": 2,
        "channel": 0,
        "type": "noteOff",
        "noteNumber": 60,
        "velocity": 0,
        "byte9": true
      },
      {
        "deltaTime": 1,
        "channel": 0,
        "type": "noteOff",
        "noteNumber": 67,
        "velocity": 0,
        "byte9": true
      },
      {
        "deltaTime": 35,
        "running": true,
        "channel": 0,
        "type": "noteOn",
        "noteNumber": 72,
        "velocity": 35
      },
      {
        "deltaTime": 29,
        "running": true,
        "channel": 0,
        "type": "noteOff",
        "noteNumber": 72,
        "velocity": 0,
        "byte9": true
      },
      {
        "deltaTime": 40,
        "channel": 0,
        "type": "noteOn",
        "noteNumber": 54,
        "velocity": 61
      },
      {
        "deltaTime": 15,
        "running": true,
        "channel": 0,
        "type": "noteOff",
        "noteNumber": 54,
        "velocity": 0,
        "byte9": true
      },
      {
        "deltaTime": 24,
        "channel": 0,
        "type": "noteOn",
        "noteNumber": 68,
        "velocity": 65
      },
      {
        "deltaTime": 2,
        "channel": 0,
        "type": "noteOn",
        "noteNumber": 54,
        "velocity": 1
      },
      {
        "deltaTime": 4,
        "channel": 0,
        "type": "noteOn",
        "noteNumber": 60,
        "velocity": 62
      },
      {
        "deltaTime": 2,
        "running": true,
        "channel": 0,
        "type": "noteOn",
        "noteNumber": 66,
        "velocity": 63
      },
      {
        "deltaTime": 1,
        "running": true,
        "channel": 0,
        "type": "noteOn",
        "noteNumber": 63,
        "velocity": 57
      },
      {
        "deltaTime": 29,
        "channel": 0,
        "type": "noteOff",
        "noteNumber": 54,
        "velocity": 0,
        "byte9": true
      },
      {
        "deltaTime": 25,
        "channel": 0,
        "type": "noteOff",
        "noteNumber": 68,
        "velocity": 0,
        "byte9": true
      },
      {
        "deltaTime": 1,
        "running": true,
        "channel": 0,
        "type": "noteOff",
        "noteNumber": 63,
        "velocity": 0,
        "byte9": true
      },
      {
        "deltaTime": 5,
        "running": true,
        "channel": 0,
        "type": "noteOff",
        "noteNumber": 60,
        "velocity": 0,
        "byte9": true
      },
      {
        "deltaTime": 13,
        "running": true,
        "channel": 0,
        "type": "noteOn",
        "noteNumber": 69,
        "velocity": 79
      },
      {
        "deltaTime": 0,
        "running": true,
        "channel": 0,
        "type": "noteOn",
        "noteNumber": 63,
        "velocity": 76
      },
      {
        "deltaTime": 2,
        "running": true,
        "channel": 0,
        "type": "noteOn",
        "noteNumber": 60,
        "velocity": 67
      },
      {
        "deltaTime": 0,
        "channel": 0,
        "type": "noteOn",
        "noteNumber": 57,
        "velocity": 70
      },
      {
        "deltaTime": 42,
        "running": true,
        "channel": 0,
        "type": "noteOff",
        "noteNumber": 57,
        "velocity": 0,
        "byte9": true
      },
      {
        "deltaTime": 1,
        "channel": 0,
        "type": "controller",
        "controllerType": 64,
        "value": 22
      },
      {
        "deltaTime": 18,
        "running": true,
        "channel": 0,
        "type": "controller",
        "controllerType": 64,
        "value": 64
      },
      {
        "deltaTime": 43,
        "channel": 0,
        "type": "noteOff",
        "noteNumber": 63,
        "velocity": 0,
        "byte9": true
      },
      {
        "deltaTime": 1,
        "running": true,
        "channel": 0,
        "type": "noteOff",
        "noteNumber": 66,
        "velocity": 0,
        "byte9": true
      },
      {
        "deltaTime": 8,
        "running": true,
        "channel": 0,
        "type": "noteOff",
        "noteNumber": 60,
        "velocity": 0,
        "byte9": true
      },
      {
        "deltaTime": 2,
        "channel": 0,
        "type": "noteOn",
        "noteNumber": 50,
        "velocity": 53
      },
      {
        "deltaTime": 9,
        "channel": 0,
        "type": "noteOff",
        "noteNumber": 69,
        "velocity": 0,
        "byte9": true
      },
      {
        "deltaTime": 15,
        "channel": 0,
        "type": "noteOff",
        "noteNumber": 50,
        "velocity": 0,
        "byte9": true
      },
      {
        "deltaTime": 7,
        "channel": 0,
        "type": "controller",
        "controllerType": 64,
        "value": 22
      },
      {
        "deltaTime": 7,
        "running": true,
        "channel": 0,
        "type": "controller",
        "controllerType": 64,
        "value": 6
      },
      {
        "deltaTime": 0,
        "running": true,
        "channel": 0,
        "type": "controller",
        "controllerType": 64,
        "value": 0
      },
      {
        "deltaTime": 4,
        "channel": 0,
        "type": "noteOn",
        "noteNumber": 59,
        "velocity": 57
      },
      {
        "deltaTime": 3,
        "channel": 0,
        "type": "noteOn",
        "noteNumber": 53,
        "velocity": 58
      },
      {
        "deltaTime": 0,
        "channel": 0,
        "type": "noteOn",
        "noteNumber": 61,
        "velocity": 44
      },
      {
        "deltaTime": 1,
        "running": true,
        "channel": 0,
        "type": "noteOn",
        "noteNumber": 69,
        "velocity": 53
      },
      {
        "deltaTime": 1,
        "running": true,
        "channel": 0,
        "type": "noteOn",
        "noteNumber": 65,
        "velocity": 50
      },
      {
        "deltaTime": 72,
        "running": true,
        "channel": 0,
        "type": "noteOff",
        "noteNumber": 69,
        "velocity": 0,
        "byte9": true
      },
      {
        "deltaTime": 2,
        "running": true,
        "channel": 0,
        "type": "noteOff",
        "noteNumber": 61,
        "velocity": 0,
        "byte9": true
      },
      {
        "deltaTime": 2,
        "running": true,
        "channel": 0,
        "type": "noteOff",
        "noteNumber": 65,
        "velocity": 0,
        "byte9": true
      },
      {
        "deltaTime": 9,
        "running": true,
        "channel": 0,
        "type": "noteOff",
        "noteNumber": 59,
        "velocity": 0,
        "byte9": true
      },
      {
        "deltaTime": 24,
        "running": true,
        "channel": 0,
        "type": "noteOn",
        "noteNumber": 59,
        "velocity": 53
      },
      {
        "deltaTime": 3,
        "channel": 0,
        "type": "noteOff",
        "noteNumber": 53,
        "velocity": 0,
        "byte9": true
      },
      {
        "deltaTime": 0,
        "channel": 0,
        "type": "noteOn",
        "noteNumber": 68,
        "velocity": 58
      },
      {
        "deltaTime": 1,
        "channel": 0,
        "type": "noteOn",
        "noteNumber": 52,
        "velocity": 55
      },
      {
        "deltaTime": 1,
        "channel": 0,
        "type": "noteOn",
        "noteNumber": 61,
        "velocity": 38
      },
      {
        "deltaTime": 1,
        "running": true,
        "channel": 0,
        "type": "noteOn",
        "noteNumber": 65,
        "velocity": 42
      },
      {
        "deltaTime": 53,
        "running": true,
        "channel": 0,
        "type": "noteOff",
        "noteNumber": 68,
        "velocity": 0,
        "byte9": true
      },
      {
        "deltaTime": 3,
        "running": true,
        "channel": 0,
        "type": "noteOff",
        "noteNumber": 59,
        "velocity": 0,
        "byte9": true
      },
      {
        "deltaTime": 4,
        "running": true,
        "channel": 0,
        "type": "noteOff",
        "noteNumber": 61,
        "velocity": 0,
        "byte9": true
      },
      {
        "deltaTime": 5,
        "running": true,
        "channel": 0,
        "type": "noteOff",
        "noteNumber": 65,
        "velocity": 0,
        "byte9": true
      },
      {
        "deltaTime": 4,
        "channel": 0,
        "type": "noteOff",
        "noteNumber": 52,
        "velocity": 0,
        "byte9": true
      },
      {
        "deltaTime": 5,
        "channel": 0,
        "type": "noteOn",
        "noteNumber": 69,
        "velocity": 75
      },
      {
        "deltaTime": 3,
        "running": true,
        "channel": 0,
        "type": "noteOn",
        "noteNumber": 59,
        "velocity": 52
      },
      {
        "deltaTime": 1,
        "channel": 0,
        "type": "noteOn",
        "noteNumber": 53,
        "velocity": 68
      },
      {
        "deltaTime": 1,
        "channel": 0,
        "type": "noteOn",
        "noteNumber": 61,
        "velocity": 25
      },
      {
        "deltaTime": 14,
        "running": true,
        "channel": 0,
        "type": "noteOff",
        "noteNumber": 61,
        "velocity": 0,
        "byte9": true
      },
      {
        "deltaTime": 5,
        "running": true,
        "channel": 0,
        "type": "noteOff",
        "noteNumber": 59,
        "velocity": 0,
        "byte9": true
      },
      {
        "deltaTime": 14,
        "running": true,
        "channel": 0,
        "type": "noteOff",
        "noteNumber": 69,
        "velocity": 0,
        "byte9": true
      },
      {
        "deltaTime": 0,
        "channel": 0,
        "type": "noteOff",
        "noteNumber": 53,
        "velocity": 0,
        "byte9": true
      },
      {
        "deltaTime": 8,
        "channel": 0,
        "type": "noteOn",
        "noteNumber": 59,
        "velocity": 59
      },
      {
        "deltaTime": 5,
        "channel": 0,
        "type": "noteOn",
        "noteNumber": 50,
        "velocity": 56
      },
      {
        "deltaTime": 3,
        "channel": 0,
        "type": "noteOn",
        "noteNumber": 65,
        "velocity": 60
      },
      {
        "deltaTime": 37,
        "running": true,
        "channel": 0,
        "type": "noteOff",
        "noteNumber": 59,
        "velocity": 0,
        "byte9": true
      },
      {
        "deltaTime": 25,
        "running": true,
        "channel": 0,
        "type": "noteOff",
        "noteNumber": 65,
        "velocity": 0,
        "byte9": true
      },
      {
        "deltaTime": 7,
        "channel": 0,
        "type": "noteOff",
        "noteNumber": 50,
        "velocity": 0,
        "byte9": true
      },
      {
        "deltaTime": 0,
        "channel": 0,
        "type": "noteOn",
        "noteNumber": 59,
        "velocity": 74
      },
      {
        "deltaTime": 2,
        "running": true,
        "channel": 0,
        "type": "noteOn",
        "noteNumber": 67,
        "velocity": 64
      },
      {
        "deltaTime": 1,
        "channel": 0,
        "type": "noteOn",
        "noteNumber": 52,
        "velocity": 70
      },
      {
        "deltaTime": 1,
        "channel": 0,
        "type": "noteOn",
        "noteNumber": 62,
        "velocity": 53
      },
      {
        "deltaTime": 21,
        "channel": 0,
        "type": "controller",
        "controllerType": 64,
        "value": 22
      },
      {
        "deltaTime": 8,
        "running": true,
        "channel": 0,
        "type": "controller",
        "controllerType": 64,
        "value": 64
      },
      {
        "deltaTime": 14,
        "channel": 0,
        "type": "noteOff",
        "noteNumber": 59,
        "velocity": 0,
        "byte9": true
      },
      {
        "deltaTime": 6,
        "channel": 0,
        "type": "noteOff",
        "noteNumber": 52,
        "velocity": 0,
        "byte9": true
      },
      {
        "deltaTime": 17,
        "channel": 0,
        "type": "controller",
        "controllerType": 64,
        "value": 65
      },
      {
        "deltaTime": 0,
        "running": true,
        "channel": 0,
        "type": "controller",
        "controllerType": 64,
        "value": 85
      },
      {
        "deltaTime": 5,
        "channel": 0,
        "type": "noteOff",
        "noteNumber": 62,
        "velocity": 0,
        "byte9": true
      },
      {
        "deltaTime": 25,
        "running": true,
        "channel": 0,
        "type": "noteOff",
        "noteNumber": 67,
        "velocity": 0,
        "byte9": true
      },
      {
        "deltaTime": 8,
        "channel": 0,
        "type": "controller",
        "controllerType": 64,
        "value": 64
      },
      {
        "deltaTime": 8,
        "channel": 0,
        "type": "noteOn",
        "noteNumber": 58,
        "velocity": 60
      },
      {
        "deltaTime": 2,
        "channel": 0,
        "type": "controller",
        "controllerType": 64,
        "value": 23
      },
      {
        "deltaTime": 0,
        "running": true,
        "channel": 0,
        "type": "controller",
        "controllerType": 64,
        "value": 22
      },
      {
        "deltaTime": 0,
        "channel": 0,
        "type": "noteOn",
        "noteNumber": 65,
        "velocity": 65
      },
      {
        "deltaTime": 2,
        "running": true,
        "channel": 0,
        "type": "noteOn",
        "noteNumber": 57,
        "velocity": 64
      },
      {
        "deltaTime": 1,
        "running": true,
        "channel": 0,
        "type": "noteOn",
        "noteNumber": 62,
        "velocity": 56
      },
      {
        "deltaTime": 1,
        "channel": 0,
        "type": "controller",
        "controllerType": 64,
        "value": 9
      },
      {
        "deltaTime": 0,
        "running": true,
        "channel": 0,
        "type": "controller",
        "controllerType": 64,
        "value": 0
      },
      {
        "deltaTime": 13,
        "channel": 0,
        "type": "noteOff",
        "noteNumber": 58,
        "velocity": 0,
        "byte9": true
      },
      {
        "deltaTime": 16,
        "channel": 0,
        "type": "controller",
        "controllerType": 64,
        "value": 22
      },
      {
        "deltaTime": 3,
        "channel": 0,
        "type": "noteOff",
        "noteNumber": 62,
        "velocity": 0,
        "byte9": true
      },
      {
        "deltaTime": 8,
        "channel": 0,
        "type": "controller",
        "controllerType": 64,
        "value": 48
      },
      {
        "deltaTime": 0,
        "running": true,
        "channel": 0,
        "type": "controller",
        "controllerType": 64,
        "value": 64
      },
      {
        "deltaTime": 14,
        "channel": 0,
        "type": "noteOff",
        "noteNumber": 65,
        "velocity": 0,
        "byte9": true
      },
      {
        "deltaTime": 18,
        "channel": 0,
        "type": "controller",
        "controllerType": 64,
        "value": 65
      },
      {
        "deltaTime": 0,
        "running": true,
        "channel": 0,
        "type": "controller",
        "controllerType": 64,
        "value": 85
      },
      {
        "deltaTime": 5,
        "channel": 0,
        "type": "noteOn",
        "noteNumber": 48,
        "velocity": 92
      },
      {
        "deltaTime": 0,
        "channel": 0,
        "type": "controller",
        "controllerType": 64,
        "value": 64
      },
      {
        "deltaTime": 7,
        "channel": 0,
        "type": "noteOff",
        "noteNumber": 57,
        "velocity": 0,
        "byte9": true
      },
      {
        "deltaTime": 16,
        "channel": 0,
        "type": "noteOff",
        "noteNumber": 48,
        "velocity": 0,
        "byte9": true
      },
      {
        "deltaTime": 38,
        "channel": 0,
        "type": "controller",
        "controllerType": 64,
        "value": 23
      },
      {
        "deltaTime": 0,
        "running": true,
        "channel": 0,
        "type": "controller",
        "controllerType": 64,
        "value": 22
      },
      {
        "deltaTime": 8,
        "running": true,
        "channel": 0,
        "type": "controller",
        "controllerType": 64,
        "value": 5
      },
      {
        "deltaTime": 0,
        "running": true,
        "channel": 0,
        "type": "controller",
        "controllerType": 64,
        "value": 1
      },
      {
        "deltaTime": 0,
        "running": true,
        "channel": 0,
        "type": "controller",
        "controllerType": 64,
        "value": 0
      },
      {
        "deltaTime": 9,
        "channel": 0,
        "type": "noteOn",
        "noteNumber": 52,
        "velocity": 84
      },
      {
        "deltaTime": 21,
        "running": true,
        "channel": 0,
        "type": "noteOff",
        "noteNumber": 52,
        "velocity": 0,
        "byte9": true
      },
      {
        "deltaTime": 57,
        "channel": 0,
        "type": "noteOn",
        "noteNumber": 81,
        "velocity": 79
      },
      {
        "deltaTime": 1,
        "running": true,
        "channel": 0,
        "type": "noteOn",
        "noteNumber": 73,
        "velocity": 66
      },
      {
        "deltaTime": 1,
        "running": true,
        "channel": 0,
        "type": "noteOn",
        "noteNumber": 76,
        "velocity": 73
      },
      {
        "deltaTime": 0,
        "running": true,
        "channel": 0,
        "type": "noteOn",
        "noteNumber": 69,
        "velocity": 67
      },
      {
        "deltaTime": 10,
        "running": true,
        "channel": 0,
        "type": "noteOff",
        "noteNumber": 69,
        "velocity": 0,
        "byte9": true
      },
      {
        "deltaTime": 14,
        "running": true,
        "channel": 0,
        "type": "noteOff",
        "noteNumber": 81,
        "velocity": 0,
        "byte9": true
      },
      {
        "deltaTime": 0,
        "running": true,
        "channel": 0,
        "type": "noteOff",
        "noteNumber": 73,
        "velocity": 0,
        "byte9": true
      },
      {
        "deltaTime": 0,
        "running": true,
        "channel": 0,
        "type": "noteOff",
        "noteNumber": 76,
        "velocity": 0,
        "byte9": true
      },
      {
        "deltaTime": 6,
        "channel": 0,
        "type": "controller",
        "controllerType": 85,
        "value": 37
      },
      {
        "deltaTime": 0,
        "running": true,
        "channel": 0,
        "type": "controller",
        "controllerType": 86,
        "value": 37
      },
      {
        "deltaTime": 41,
        "channel": 0,
        "type": "noteOn",
        "noteNumber": 58,
        "velocity": 74
      },
      {
        "deltaTime": 4,
        "running": true,
        "channel": 0,
        "type": "noteOn",
        "noteNumber": 69,
        "velocity": 58
      },
      {
        "deltaTime": 1,
        "channel": 0,
        "type": "noteOn",
        "noteNumber": 84,
        "velocity": 97
      },
      {
        "deltaTime": 1,
        "running": true,
        "channel": 0,
        "type": "noteOn",
        "noteNumber": 79,
        "velocity": 88
      },
      {
        "deltaTime": 0,
        "running": true,
        "channel": 0,
        "type": "noteOn",
        "noteNumber": 74,
        "velocity": 81
      },
      {
        "deltaTime": 2,
        "channel": 0,
        "type": "noteOn",
        "noteNumber": 64,
        "velocity": 64
      },
      {
        "deltaTime": 16,
        "running": true,
        "channel": 0,
        "type": "noteOff",
        "noteNumber": 69,
        "velocity": 0,
        "byte9": true
      },
      {
        "deltaTime": 0,
        "meta": true,
        "type": "text",
        "text": "Big stack of fourths spread between both hands"
      },
      {
        "deltaTime": 6,
        "running": true,
        "channel": 0,
        "type": "noteOff",
        "noteNumber": 58,
        "velocity": 0,
        "byte9": true
      },
      {
        "deltaTime": 12,
        "running": true,
        "channel": 0,
        "type": "noteOff",
        "noteNumber": 64,
        "velocity": 0,
        "byte9": true
      },
      {
        "deltaTime": 9,
        "channel": 0,
        "type": "noteOff",
        "noteNumber": 74,
        "velocity": 0,
        "byte9": true
      },
      {
        "deltaTime": 1,
        "running": true,
        "channel": 0,
        "type": "noteOff",
        "noteNumber": 79,
        "velocity": 0,
        "byte9": true
      },
      {
        "deltaTime": 3,
        "running": true,
        "channel": 0,
        "type": "noteOff",
        "noteNumber": 84,
        "velocity": 0,
        "byte9": true
      },
      {
        "deltaTime": 26,
        "channel": 0,
        "type": "noteOn",
        "noteNumber": 58,
        "velocity": 79
      },
      {
        "deltaTime": 3,
        "running": true,
        "channel": 0,
        "type": "noteOn",
        "noteNumber": 64,
        "velocity": 65
      },
      {
        "deltaTime": 0,
        "running": true,
        "channel": 0,
        "type": "noteOn",
        "noteNumber": 69,
        "velocity": 73
      },
      {
        "deltaTime": 2,
        "channel": 0,
        "type": "noteOn",
        "noteNumber": 84,
        "velocity": 90
      },
      {
        "deltaTime": 1,
        "running": true,
        "channel": 0,
        "type": "noteOn",
        "noteNumber": 79,
        "velocity": 92
      },
      {
        "deltaTime": 3,
        "running": true,
        "channel": 0,
        "type": "noteOn",
        "noteNumber": 74,
        "velocity": 70
      },
      {
        "deltaTime": 16,
        "channel": 0,
        "type": "controller",
        "controllerType": 64,
        "value": 22
      },
      {
        "deltaTime": 11,
        "channel": 0,
        "type": "noteOff",
        "noteNumber": 64,
        "velocity": 0,
        "byte9": true
      },
      {
        "deltaTime": 0,
        "running": true,
        "channel": 0,
        "type": "noteOff",
        "noteNumber": 69,
        "velocity": 0,
        "byte9": true
      },
      {
        "deltaTime": 25,
        "channel": 0,
        "type": "noteOff",
        "noteNumber": 74,
        "velocity": 0,
        "byte9": true
      },
      {
        "deltaTime": 1,
        "running": true,
        "channel": 0,
        "type": "noteOff",
        "noteNumber": 84,
        "velocity": 0,
        "byte9": true
      },
      {
        "deltaTime": 1,
        "running": true,
        "channel": 0,
        "type": "noteOff",
        "noteNumber": 79,
        "velocity": 0,
        "byte9": true
      },
      {
        "deltaTime": 3,
        "channel": 0,
        "type": "noteOff",
        "noteNumber": 58,
        "velocity": 0,
        "byte9": true
      },
      {
        "deltaTime": 5,
        "channel": 0,
        "type": "controller",
        "controllerType": 64,
        "value": 2
      },
      {
        "deltaTime": 0,
        "running": true,
        "channel": 0,
        "type": "controller",
        "controllerType": 64,
        "value": 0
      },
      {
        "deltaTime": 15,
        "channel": 0,
        "type": "noteOn",
        "noteNumber": 57,
        "velocity": 79
      },
      {
        "deltaTime": 1,
        "running": true,
        "channel": 0,
        "type": "noteOn",
        "noteNumber": 67,
        "velocity": 86
      },
      {
        "deltaTime": 2,
        "channel": 0,
        "type": "noteOn",
        "noteNumber": 79,
        "velocity": 84
      },
      {
        "deltaTime": 0,
        "running": true,
        "channel": 0,
        "type": "noteOn",
        "noteNumber": 84,
        "velocity": 90
      },
      {
        "deltaTime": 0,
        "channel": 0,
        "type": "noteOn",
        "noteNumber": 62,
        "velocity": 78
      },
      {
        "deltaTime": 2,
        "channel": 0,
        "type": "noteOn",
        "noteNumber": 74,
        "velocity": 85
      },
      {
        "deltaTime": 26,
        "channel": 0,
        "type": "controller",
        "controllerType": 64,
        "value": 22
      },
      {
        "deltaTime": 7,
        "running": true,
        "channel": 0,
        "type": "controller",
        "controllerType": 64,
        "value": 64
      },
      {
        "deltaTime": 24,
        "running": true,
        "channel": 0,
        "type": "controller",
        "controllerType": 64,
        "value": 65
      },
      {
        "deltaTime": 0,
        "running": true,
        "channel": 0,
        "type": "controller",
        "controllerType": 64,
        "value": 85
      },
      {
        "deltaTime": 45,
        "channel": 0,
        "type": "noteOff",
        "noteNumber": 57,
        "velocity": 0,
        "byte9": true
      },
      {
        "deltaTime": 0,
        "channel": 0,
        "type": "noteOff",
        "noteNumber": 84,
        "velocity": 0,
        "byte9": true
      },
      {
        "deltaTime": 0,
        "running": true,
        "channel": 0,
        "type": "noteOff",
        "noteNumber": 74,
        "velocity": 0,
        "byte9": true
      },
      {
        "deltaTime": 4,
        "channel": 0,
        "type": "noteOff",
        "noteNumber": 67,
        "velocity": 0,
        "byte9": true
      },
      {
        "deltaTime": 1,
        "running": true,
        "channel": 0,
        "type": "noteOff",
        "noteNumber": 62,
        "velocity": 0,
        "byte9": true
      },
      {
        "deltaTime": 2,
        "channel": 0,
        "type": "noteOff",
        "noteNumber": 79,
        "velocity": 0,
        "byte9": true
      },
      {
        "deltaTime": 30,
        "channel": 0,
        "type": "controller",
        "controllerType": 64,
        "value": 64
      },
      {
        "deltaTime": 9,
        "running": true,
        "channel": 0,
        "type": "controller",
        "controllerType": 64,
        "value": 23
      },
      {
        "deltaTime": 0,
        "running": true,
        "channel": 0,
        "type": "controller",
        "controllerType": 64,
        "value": 22
      },
      {
        "deltaTime": 0,
        "channel": 0,
        "type": "noteOn",
        "noteNumber": 58,
        "velocity": 67
      },
      {
        "deltaTime": 3,
        "channel": 0,
        "type": "noteOn",
        "noteNumber": 78,
        "velocity": 71
      },
      {
        "deltaTime": 0,
        "channel": 0,
        "type": "controller",
        "controllerType": 64,
        "value": 9
      },
      {
        "deltaTime": 0,
        "running": true,
        "channel": 0,
        "type": "controller",
        "controllerType": 64,
        "value": 0
      },
      {
        "deltaTime": 2,
        "channel": 0,
        "type": "noteOn",
        "noteNumber": 68,
        "velocity": 54
      },
      {
        "deltaTime": 2,
        "running": true,
        "channel": 0,
        "type": "noteOn",
        "noteNumber": 63,
        "velocity": 52
      },
      {
        "deltaTime": 6,
        "channel": 0,
        "type": "noteOn",
        "noteNumber": 82,
        "velocity": 42
      },
      {
        "deltaTime": 0,
        "running": true,
        "channel": 0,
        "type": "noteOn",
        "noteNumber": 73,
        "velocity": 31
      },
      {
        "deltaTime": 22,
        "running": true,
        "channel": 0,
        "type": "noteOff",
        "noteNumber": 82,
        "velocity": 0,
        "byte9": true
      },
      {
        "deltaTime": 12,
        "running": true,
        "channel": 0,
        "type": "noteOff",
        "noteNumber": 78,
        "velocity": 0,
        "byte9": true
      },
      {
        "deltaTime": 0,
        "running": true,
        "channel": 0,
        "type": "noteOff",
        "noteNumber": 73,
        "velocity": 0,
        "byte9": true
      },
      {
        "deltaTime": 1,
        "channel": 0,
        "type": "noteOff",
        "noteNumber": 68,
        "velocity": 0,
        "byte9": true
      },
      {
        "deltaTime": 19,
        "running": true,
        "channel": 0,
        "type": "noteOff",
        "noteNumber": 63,
        "velocity": 0,
        "byte9": true
      },
      {
        "deltaTime": 2,
        "running": true,
        "channel": 0,
        "type": "noteOff",
        "noteNumber": 58,
        "velocity": 0,
        "byte9": true
      },
      {
        "deltaTime": 17,
        "channel": 0,
        "type": "noteOn",
        "noteNumber": 72,
        "velocity": 73
      },
      {
        "deltaTime": 1,
        "running": true,
        "channel": 0,
        "type": "noteOn",
        "noteNumber": 81,
        "velocity": 66
      },
      {
        "deltaTime": 4,
        "channel": 0,
        "type": "noteOn",
        "noteNumber": 62,
        "velocity": 64
      },
      {
        "deltaTime": 2,
        "running": true,
        "channel": 0,
        "type": "noteOn",
        "noteNumber": 57,
        "velocity": 47
      },
      {
        "deltaTime": 19,
        "channel": 0,
        "type": "noteOff",
        "noteNumber": 72,
        "velocity": 0,
        "byte9": true
      },
      {
        "deltaTime": 1,
        "running": true,
        "channel": 0,
        "type": "noteOff",
        "noteNumber": 81,
        "velocity": 0,
        "byte9": true
      },
      {
        "deltaTime": 0,
        "channel": 0,
        "type": "noteOff",
        "noteNumber": 62,
        "velocity": 0,
        "byte9": true
      },
      {
        "deltaTime": 0,
        "running": true,
        "channel": 0,
        "type": "noteOff",
        "noteNumber": 57,
        "velocity": 0,
        "byte9": true
      },
      {
        "deltaTime": 6,
        "channel": 0,
        "type": "controller",
        "controllerType": 85,
        "value": 37
      },
      {
        "deltaTime": 0,
        "running": true,
        "channel": 0,
        "type": "controller",
        "controllerType": 86,
        "value": 37
      },
      {
        "deltaTime": 85,
        "channel": 0,
        "type": "noteOn",
        "noteNumber": 60,
        "velocity": 54
      },
      {
        "deltaTime": 8,
        "running": true,
        "channel": 0,
        "type": "noteOff",
        "noteNumber": 60,
        "velocity": 0,
        "byte9": true
      },
      {
        "deltaTime": 19,
        "channel": 0,
        "type": "controller",
        "controllerType": 64,
        "value": 22
      },
      {
        "deltaTime": 10,
        "channel": 0,
        "type": "noteOn",
        "noteNumber": 79,
        "velocity": 87
      },
      {
        "deltaTime": 2,
        "channel": 0,
        "type": "controller",
        "controllerType": 64,
        "value": 64
      },
      {
        "deltaTime": 0,
        "channel": 0,
        "type": "noteOn",
        "noteNumber": 70,
        "velocity": 84
      },
      {
        "deltaTime": 0,
        "running": true,
        "channel": 0,
        "type": "noteOn",
        "noteNumber": 67,
        "velocity": 82
      },
      {
        "deltaTime": 0,
        "running": true,
        "channel": 0,
        "type": "noteOn",
        "noteNumber": 75,
        "velocity": 81
      },
      {
        "deltaTime": 2,
        "channel": 0,
        "type": "noteOn",
        "noteNumber": 63,
        "velocity": 74
      },
      {
        "deltaTime": 22,
        "channel": 0,
        "type": "noteOff",
        "noteNumber": 67,
        "velocity": 0,
        "byte9": true
      },
      {
        "deltaTime": 41,
        "running": true,
        "channel": 0,
        "type": "noteOff",
        "noteNumber": 70,
        "velocity": 0,
        "byte9": true
      },
      {
        "deltaTime": 1,
        "channel": 0,
        "type": "noteOff",
        "noteNumber": 63,
        "velocity": 0,
        "byte9": true
      },
      {
        "deltaTime": 3,
        "channel": 0,
        "type": "noteOff",
        "noteNumber": 79,
        "velocity": 0,
        "byte9": true
      },
      {
        "deltaTime": 0,
        "running": true,
        "channel": 0,
        "type": "noteOff",
        "noteNumber": 75,
        "velocity": 0,
        "byte9": true
      },
      {
        "deltaTime": 8,
        "channel": 0,
        "type": "controller",
        "controllerType": 64,
        "value": 22
      },
      {
        "deltaTime": 4,
        "running": true,
        "channel": 0,
        "type": "controller",
        "controllerType": 64,
        "value": 9
      },
      {
        "deltaTime": 0,
        "running": true,
        "channel": 0,
        "type": "controller",
        "controllerType": 64,
        "value": 0
      },
      {
        "deltaTime": 5,
        "channel": 0,
        "type": "noteOn",
        "noteNumber": 77,
        "velocity": 74
      },
      {
        "deltaTime": 3,
        "running": true,
        "channel": 0,
        "type": "noteOn",
        "noteNumber": 74,
        "velocity": 76
      },
      {
        "deltaTime": 1,
        "channel": 0,
        "type": "noteOn",
        "noteNumber": 63,
        "velocity": 70
      },
      {
        "deltaTime": 0,
        "channel": 0,
        "type": "noteOn",
        "noteNumber": 69,
        "velocity": 66
      },
      {
        "deltaTime": 14,
        "channel": 0,
        "type": "controller",
        "controllerType": 64,
        "value": 22
      },
      {
        "deltaTime": 5,
        "running": true,
        "channel": 0,
        "type": "controller",
        "controllerType": 64,
        "value": 49
      },
      {
        "deltaTime": 0,
        "running": true,
        "channel": 0,
        "type": "controller",
        "controllerType": 64,
        "value": 64
      },
      {
        "deltaTime": 5,
        "channel": 0,
        "type": "noteOff",
        "noteNumber": 63,
        "velocity": 0,
        "byte9": true
      },
      {
        "deltaTime": 3,
        "channel": 0,
        "type": "controller",
        "controllerType": 64,
        "value": 65
      },
      {
        "deltaTime": 0,
        "running": true,
        "channel": 0,
        "type": "controller",
        "controllerType": 64,
        "value": 85
      },
      {
        "deltaTime": 19,
        "channel": 0,
        "type": "noteOff",
        "noteNumber": 74,
        "velocity": 0,
        "byte9": true
      },
      {
        "deltaTime": 4,
        "running": true,
        "channel": 0,
        "type": "noteOff",
        "noteNumber": 77,
        "velocity": 0,
        "byte9": true
      },
      {
        "deltaTime": 19,
        "running": true,
        "channel": 0,
        "type": "noteOff",
        "noteNumber": 69,
        "velocity": 0,
        "byte9": true
      },
      {
        "deltaTime": 42,
        "channel": 0,
        "type": "noteOn",
        "noteNumber": 59,
        "velocity": 51
      },
      {
        "deltaTime": 14,
        "channel": 0,
        "type": "controller",
        "controllerType": 64,
        "value": 64
      },
      {
        "deltaTime": 6,
        "running": true,
        "channel": 0,
        "type": "controller",
        "controllerType": 64,
        "value": 23
      },
      {
        "deltaTime": 0,
        "running": true,
        "channel": 0,
        "type": "controller",
        "controllerType": 64,
        "value": 22
      },
      {
        "deltaTime": 4,
        "running": true,
        "channel": 0,
        "type": "controller",
        "controllerType": 64,
        "value": 11
      },
      {
        "deltaTime": 0,
        "running": true,
        "channel": 0,
        "type": "controller",
        "controllerType": 64,
        "value": 1
      },
      {
        "deltaTime": 0,
        "running": true,
        "channel": 0,
        "type": "controller",
        "controllerType": 64,
        "value": 0
      },
      {
        "deltaTime": 16,
        "channel": 0,
        "type": "noteOn",
        "noteNumber": 63,
        "velocity": 66
      },
      {
        "deltaTime": 2,
        "channel": 0,
        "type": "noteOn",
        "noteNumber": 66,
        "velocity": 66
      },
      {
        "deltaTime": 0,
        "running": true,
        "channel": 0,
        "type": "noteOn",
        "noteNumber": 75,
        "velocity": 64
      },
      {
        "deltaTime": 0,
        "running": true,
        "channel": 0,
        "type": "noteOn",
        "noteNumber": 71,
        "velocity": 61
      },
      {
        "deltaTime": 6,
        "channel": 0,
        "type": "noteOn",
        "noteNumber": 53,
        "velocity": 39
      },
      {
        "deltaTime": 3,
        "channel": 0,
        "type": "controller",
        "controllerType": 64,
        "value": 22
      },
      {
        "deltaTime": 8,
        "running": true,
        "channel": 0,
        "type": "controller",
        "controllerType": 64,
        "value": 50
      },
      {
        "deltaTime": 0,
        "running": true,
        "channel": 0,
        "type": "controller",
        "controllerType": 64,
        "value": 64
      },
      {
        "deltaTime": 34,
        "channel": 0,
        "type": "noteOff",
        "noteNumber": 53,
        "velocity": 0,
        "byte9": true
      },
      {
        "deltaTime": 1,
        "running": true,
        "channel": 0,
        "type": "noteOff",
        "noteNumber": 63,
        "velocity": 0,
        "byte9": true
      },
      {
        "deltaTime": 27,
        "running": true,
        "channel": 0,
        "type": "noteOff",
        "noteNumber": 59,
        "velocity": 0,
        "byte9": true
      },
      {
        "deltaTime": 12,
        "channel": 0,
        "type": "controller",
        "controllerType": 64,
        "value": 22
      },
      {
        "deltaTime": 7,
        "running": true,
        "channel": 0,
        "type": "controller",
        "controllerType": 64,
        "value": 5
      },
      {
        "deltaTime": 0,
        "running": true,
        "channel": 0,
        "type": "controller",
        "controllerType": 64,
        "value": 1
      },
      {
        "deltaTime": 0,
        "running": true,
        "channel": 0,
        "type": "controller",
        "controllerType": 64,
        "value": 0
      },
      {
        "deltaTime": 16,
        "running": true,
        "channel": 0,
        "type": "controller",
        "controllerType": 64,
        "value": 22
      },
      {
        "deltaTime": 13,
        "running": true,
        "channel": 0,
        "type": "controller",
        "controllerType": 64,
        "value": 46
      },
      {
        "deltaTime": 0,
        "running": true,
        "channel": 0,
        "type": "controller",
        "controllerType": 64,
        "value": 64
      },
      {
        "deltaTime": 46,
        "channel": 0,
        "type": "noteOff",
        "noteNumber": 66,
        "velocity": 0,
        "byte9": true
      },
      {
        "deltaTime": 1,
        "running": true,
        "channel": 0,
        "type": "noteOff",
        "noteNumber": 71,
        "velocity": 0,
        "byte9": true
      },
      {
        "deltaTime": 3,
        "channel": 0,
        "type": "controller",
        "controllerType": 64,
        "value": 65
      },
      {
        "deltaTime": 0,
        "running": true,
        "channel": 0,
        "type": "controller",
        "controllerType": 64,
        "value": 85
      },
      {
        "deltaTime": 8,
        "channel": 0,
        "type": "noteOff",
        "noteNumber": 75,
        "velocity": 0,
        "byte9": true
      },
      {
        "deltaTime": 15,
        "running": true,
        "channel": 0,
        "type": "noteOn",
        "noteNumber": 66,
        "velocity": 65
      },
      {
        "deltaTime": 7,
        "running": true,
        "channel": 0,
        "type": "noteOn",
        "noteNumber": 71,
        "velocity": 55
      },
      {
        "deltaTime": 1,
        "channel": 0,
        "type": "noteOn",
        "noteNumber": 63,
        "velocity": 71
      },
      {
        "deltaTime": 1,
        "running": true,
        "channel": 0,
        "type": "noteOn",
        "noteNumber": 59,
        "velocity": 56
      },
      {
        "deltaTime": 1,
        "running": true,
        "channel": 0,
        "type": "noteOn",
        "noteNumber": 53,
        "velocity": 41
      },
      {
        "deltaTime": 2,
        "channel": 0,
        "type": "controller",
        "controllerType": 64,
        "value": 64
      },
      {
        "deltaTime": 10,
        "running": true,
        "channel": 0,
        "type": "controller",
        "controllerType": 64,
        "value": 23
      },
      {
        "deltaTime": 0,
        "running": true,
        "channel": 0,
        "type": "controller",
        "controllerType": 64,
        "value": 22
      },
      {
        "deltaTime": 25,
        "running": true,
        "channel": 0,
        "type": "controller",
        "controllerType": 64,
        "value": 64
      },
      {
        "deltaTime": 4,
        "channel": 0,
        "type": "noteOff",
        "noteNumber": 53,
        "velocity": 0,
        "byte9": true
      },
      {
        "deltaTime": 4,
        "running": true,
        "channel": 0,
        "type": "noteOff",
        "noteNumber": 59,
        "velocity": 0,
        "byte9": true
      },
      {
        "deltaTime": 12,
        "channel": 0,
        "type": "controller",
        "controllerType": 64,
        "value": 65
      },
      {
        "deltaTime": 0,
        "running": true,
        "channel": 0,
        "type": "controller",
        "controllerType": 64,
        "value": 85
      },
      {
        "deltaTime": 12,
        "channel": 0,
        "type": "noteOff",
        "noteNumber": 63,
        "velocity": 0,
        "byte9": true
      },
      {
        "deltaTime": 55,
        "channel": 0,
        "type": "noteOff",
        "noteNumber": 66,
        "velocity": 0,
        "byte9": true
      },
      {
        "deltaTime": 9,
        "running": true,
        "channel": 0,
        "type": "noteOff",
        "noteNumber": 71,
        "velocity": 0,
        "byte9": true
      },
      {
        "deltaTime": 11,
        "channel": 0,
        "type": "controller",
        "controllerType": 64,
        "value": 64
      },
      {
        "deltaTime": 2,
        "channel": 0,
        "type": "noteOn",
        "noteNumber": 55,
        "velocity": 50
      },
      {
        "deltaTime": 1,
        "running": true,
        "channel": 0,
        "type": "noteOn",
        "noteNumber": 62,
        "velocity": 46
      },
      {
        "deltaTime": 4,
        "channel": 0,
        "type": "controller",
        "controllerType": 64,
        "value": 23
      },
      {
        "deltaTime": 0,
        "running": true,
        "channel": 0,
        "type": "controller",
        "controllerType": 64,
        "value": 22
      },
      {
        "deltaTime": 0,
        "channel": 0,
        "type": "noteOn",
        "noteNumber": 60,
        "velocity": 34
      },
      {
        "deltaTime": 3,
        "running": true,
        "channel": 0,
        "type": "noteOn",
        "noteNumber": 65,
        "velocity": 57
      },
      {
        "deltaTime": 4,
        "channel": 0,
        "type": "noteOn",
        "noteNumber": 69,
        "velocity": 41
      },
      {
        "deltaTime": 1,
        "channel": 0,
        "type": "controller",
        "controllerType": 64,
        "value": 5
      },
      {
        "deltaTime": 0,
        "running": true,
        "channel": 0,
        "type": "controller",
        "controllerType": 64,
        "value": 1
      },
      {
        "deltaTime": 0,
        "running": true,
        "channel": 0,
        "type": "controller",
        "controllerType": 64,
        "value": 0
      },
      {
        "deltaTime": 41,
        "channel": 0,
        "type": "noteOff",
        "noteNumber": 65,
        "velocity": 0,
        "byte9": true
      },
      {
        "deltaTime": 25,
        "channel": 0,
        "type": "noteOff",
        "noteNumber": 69,
        "velocity": 0,
        "byte9": true
      },
      {
        "deltaTime": 16,
        "running": true,
        "channel": 0,
        "type": "noteOn",
        "noteNumber": 65,
        "velocity": 54
      },
      {
        "deltaTime": 14,
        "running": true,
        "channel": 0,
        "type": "noteOff",
        "noteNumber": 65,
        "velocity": 0,
        "byte9": true
      },
      {
        "deltaTime": 20,
        "running": true,
        "channel": 0,
        "type": "noteOn",
        "noteNumber": 73,
        "velocity": 59
      },
      {
        "deltaTime": 16,
        "channel": 0,
        "type": "noteOff",
        "noteNumber": 62,
        "velocity": 0,
        "byte9": true
      },
      {
        "deltaTime": 8,
        "running": true,
        "channel": 0,
        "type": "noteOff",
        "noteNumber": 60,
        "velocity": 0,
        "byte9": true
      },
      {
        "deltaTime": 56,
        "running": true,
        "channel": 0,
        "type": "noteOn",
        "noteNumber": 62,
        "velocity": 37
      },
      {
        "deltaTime": 5,
        "channel": 0,
        "type": "noteOff",
        "noteNumber": 73,
        "velocity": 0,
        "byte9": true
      },
      {
        "deltaTime": 33,
        "channel": 0,
        "type": "noteOff",
        "noteNumber": 62,
        "velocity": 0,
        "byte9": true
      },
      {
        "deltaTime": 0,
        "channel": 0,
        "type": "noteOn",
        "noteNumber": 74,
        "velocity": 55
      },
      {
        "deltaTime": 73,
        "running": true,
        "channel": 0,
        "type": "noteOff",
        "noteNumber": 74,
        "velocity": 0,
        "byte9": true
      },
      {
        "deltaTime": 6,
        "channel": 0,
        "type": "noteOn",
        "noteNumber": 62,
        "velocity": 42
      },
      {
        "deltaTime": 0,
        "channel": 0,
        "type": "noteOn",
        "noteNumber": 77,
        "velocity": 64
      },
      {
        "deltaTime": 8,
        "channel": 0,
        "type": "noteOn",
        "noteNumber": 60,
        "velocity": 29
      },
      {
        "deltaTime": 9,
        "channel": 0,
        "type": "noteOff",
        "noteNumber": 77,
        "velocity": 0,
        "byte9": true
      },
      {
        "deltaTime": 3,
        "channel": 0,
        "type": "noteOff",
        "noteNumber": 62,
        "velocity": 0,
        "byte9": true
      },
      {
        "deltaTime": 3,
        "running": true,
        "channel": 0,
        "type": "noteOff",
        "noteNumber": 55,
        "velocity": 0,
        "byte9": true
      },
      {
        "deltaTime": 10,
        "channel": 0,
        "type": "noteOn",
        "noteNumber": 79,
        "velocity": 72
      },
      {
        "deltaTime": 8,
        "channel": 0,
        "type": "noteOff",
        "noteNumber": 60,
        "velocity": 0,
        "byte9": true
      },
      {
        "deltaTime": 62,
        "channel": 0,
        "type": "noteOff",
        "noteNumber": 79,
        "velocity": 0,
        "byte9": true
      },
      {
        "deltaTime": 14,
        "channel": 0,
        "type": "noteOn",
        "noteNumber": 65,
        "velocity": 88
      },
      {
        "deltaTime": 1,
        "running": true,
        "channel": 0,
        "type": "noteOn",
        "noteNumber": 60,
        "velocity": 60
      },
      {
        "deltaTime": 0,
        "channel": 0,
        "type": "noteOn",
        "noteNumber": 81,
        "velocity": 83
      },
      {
        "deltaTime": 0,
        "channel": 0,
        "type": "noteOn",
        "noteNumber": 61,
        "velocity": 66
      },
      {
        "deltaTime": 3,
        "running": true,
        "channel": 0,
        "type": "noteOn",
        "noteNumber": 55,
        "velocity": 67
      },
      {
        "deltaTime": 59,
        "channel": 0,
        "type": "noteOff",
        "noteNumber": 81,
        "velocity": 0,
        "byte9": true
      },
      {
        "deltaTime": 18,
        "running": true,
        "channel": 0,
        "type": "noteOn",
        "noteNumber": 82,
        "velocity": 93
      },
      {
        "deltaTime": 25,
        "channel": 0,
        "type": "noteOff",
        "noteNumber": 61,
        "velocity": 0,
        "byte9": true
      },
      {
        "deltaTime": 25,
        "channel": 0,
        "type": "noteOff",
        "noteNumber": 82,
        "velocity": 0,
        "byte9": true
      },
      {
        "deltaTime": 8,
        "channel": 0,
        "type": "noteOff",
        "noteNumber": 65,
        "velocity": 0,
        "byte9": true
      },
      {
        "deltaTime": 21,
        "channel": 0,
        "type": "noteOn",
        "noteNumber": 84,
        "velocity": 112
      },
      {
        "deltaTime": 7,
        "channel": 0,
        "type": "controller",
        "controllerType": 64,
        "value": 22
      },
      {
        "deltaTime": 15,
        "channel": 0,
        "type": "noteOff",
        "noteNumber": 60,
        "velocity": 0,
        "byte9": true
      },
      {
        "deltaTime": 49,
        "channel": 0,
        "type": "noteOff",
        "noteNumber": 84,
        "velocity": 0,
        "byte9": true
      },
      {
        "deltaTime": 0,
        "channel": 0,
        "type": "controller",
        "controllerType": 64,
        "value": 2
      },
      {
        "deltaTime": 0,
        "running": true,
        "channel": 0,
        "type": "controller",
        "controllerType": 64,
        "value": 0
      },
      {
        "deltaTime": 7,
        "channel": 0,
        "type": "noteOn",
        "noteNumber": 60,
        "velocity": 18
      },
      {
        "deltaTime": 0,
        "running": true,
        "channel": 0,
        "type": "noteOn",
        "noteNumber": 61,
        "velocity": 50
      },
      {
        "deltaTime": 2,
        "running": true,
        "channel": 0,
        "type": "noteOn",
        "noteNumber": 65,
        "velocity": 53
      },
      {
        "deltaTime": 5,
        "channel": 0,
        "type": "noteOn",
        "noteNumber": 81,
        "velocity": 79
      },
      {
        "deltaTime": 22,
        "channel": 0,
        "type": "noteOff",
        "noteNumber": 60,
        "velocity": 0,
        "byte9": true
      },
      {
        "deltaTime": 0,
        "running": true,
        "channel": 0,
        "type": "noteOff",
        "noteNumber": 61,
        "velocity": 0,
        "byte9": true
      },
      {
        "deltaTime": 0,
        "running": true,
        "channel": 0,
        "type": "noteOff",
        "noteNumber": 65,
        "velocity": 0,
        "byte9": true
      },
      {
        "deltaTime": 1,
        "channel": 0,
        "type": "noteOff",
        "noteNumber": 81,
        "velocity": 0,
        "byte9": true
      },
      {
        "deltaTime": 6,
        "channel": 0,
        "type": "controller",
        "controllerType": 86,
        "value": 37
      },
      {
        "deltaTime": 0,
        "running": true,
        "channel": 0,
        "type": "controller",
        "controllerType": 85,
        "value": 37
      },
      {
        "deltaTime": 2,
        "running": true,
        "channel": 0,
        "type": "controller",
        "controllerType": 64,
        "value": 22
      },
      {
        "deltaTime": 7,
        "running": true,
        "channel": 0,
        "type": "controller",
        "controllerType": 64,
        "value": 64
      },
      {
        "deltaTime": 29,
        "channel": 0,
        "type": "noteOff",
        "noteNumber": 55,
        "velocity": 0,
        "byte9": true
      },
      {
        "deltaTime": 46,
        "channel": 0,
        "type": "noteOn",
        "noteNumber": 79,
        "velocity": 74
      },
      {
        "deltaTime": 5,
        "channel": 0,
        "type": "controller",
        "controllerType": 64,
        "value": 22
      },
      {
        "deltaTime": 0,
        "channel": 0,
        "type": "noteOn",
        "noteNumber": 65,
        "velocity": 65
      },
      {
        "deltaTime": 3,
        "running": true,
        "channel": 0,
        "type": "noteOn",
        "noteNumber": 60,
        "velocity": 34
      },
      {
        "deltaTime": 0,
        "running": true,
        "channel": 0,
        "type": "noteOn",
        "noteNumber": 61,
        "velocity": 47
      },
      {
        "deltaTime": 2,
        "running": true,
        "channel": 0,
        "type": "noteOn",
        "noteNumber": 55,
        "velocity": 46
      },
      {
        "deltaTime": 2,
        "channel": 0,
        "type": "controller",
        "controllerType": 64,
        "value": 5
      },
      {
        "deltaTime": 0,
        "running": true,
        "channel": 0,
        "type": "controller",
        "controllerType": 64,
        "value": 0
      },
      {
        "deltaTime": 16,
        "running": true,
        "channel": 0,
        "type": "controller",
        "controllerType": 64,
        "value": 22
      },
      {
        "deltaTime": 12,
        "running": true,
        "channel": 0,
        "type": "controller",
        "controllerType": 64,
        "value": 46
      },
      {
        "deltaTime": 0,
        "running": true,
        "channel": 0,
        "type": "controller",
        "controllerType": 64,
        "value": 64
      },
      {
        "deltaTime": 21,
        "channel": 0,
        "type": "noteOff",
        "noteNumber": 65,
        "velocity": 0,
        "byte9": true
      },
      {
        "deltaTime": 15,
        "running": true,
        "channel": 0,
        "type": "noteOff",
        "noteNumber": 60,
        "velocity": 0,
        "byte9": true
      },
      {
        "deltaTime": 13,
        "channel": 0,
        "type": "controller",
        "controllerType": 64,
        "value": 65
      },
      {
        "deltaTime": 0,
        "running": true,
        "channel": 0,
        "type": "controller",
        "controllerType": 64,
        "value": 85
      },
      {
        "deltaTime": 1,
        "channel": 0,
        "type": "noteOff",
        "noteNumber": 61,
        "velocity": 0,
        "byte9": true
      },
      {
        "deltaTime": 9,
        "running": true,
        "channel": 0,
        "type": "noteOff",
        "noteNumber": 55,
        "velocity": 0,
        "byte9": true
      },
      {
        "deltaTime": 50,
        "channel": 0,
        "type": "controller",
        "controllerType": 64,
        "value": 64
      },
      {
        "deltaTime": 11,
        "running": true,
        "channel": 0,
        "type": "controller",
        "controllerType": 64,
        "value": 23
      },
      {
        "deltaTime": 0,
        "running": true,
        "channel": 0,
        "type": "controller",
        "controllerType": 64,
        "value": 22
      },
      {
        "deltaTime": 6,
        "running": true,
        "channel": 0,
        "type": "controller",
        "controllerType": 64,
        "value": 7
      },
      {
        "deltaTime": 0,
        "running": true,
        "channel": 0,
        "type": "controller",
        "controllerType": 64,
        "value": 1
      },
      {
        "deltaTime": 0,
        "running": true,
        "channel": 0,
        "type": "controller",
        "controllerType": 64,
        "value": 0
      },
      {
        "deltaTime": 48,
        "channel": 0,
        "type": "noteOff",
        "noteNumber": 79,
        "velocity": 0,
        "byte9": true
      },
      {
        "deltaTime": 27,
        "channel": 0,
        "type": "noteOn",
        "noteNumber": 57,
        "velocity": 61
      },
      {
        "deltaTime": 0,
        "running": true,
        "channel": 0,
        "type": "noteOn",
        "noteNumber": 60,
        "velocity": 43
      },
      {
        "deltaTime": 21,
        "running": true,
        "channel": 0,
        "type": "noteOff",
        "noteNumber": 60,
        "velocity": 0,
        "byte9": true
      },
      {
        "deltaTime": 10,
        "running": true,
        "channel": 0,
        "type": "noteOff",
        "noteNumber": 57,
        "velocity": 0,
        "byte9": true
      },
      {
        "deltaTime": 9,
        "channel": 0,
        "type": "noteOn",
        "noteNumber": 71,
        "velocity": 59
      },
      {
        "deltaTime": 14,
        "running": true,
        "channel": 0,
        "type": "noteOff",
        "noteNumber": 71,
        "velocity": 0,
        "byte9": true
      },
      {
        "deltaTime": 21,
        "channel": 0,
        "type": "controller",
        "controllerType": 86,
        "value": 37
      },
      {
        "deltaTime": 46,
        "channel": 0,
        "type": "noteOn",
        "noteNumber": 71,
        "velocity": 96
      },
      {
        "deltaTime": 2,
        "channel": 0,
        "type": "noteOn",
        "noteNumber": 60,
        "velocity": 50
      },
      {
        "deltaTime": 1,
        "running": true,
        "channel": 0,
        "type": "noteOn",
        "noteNumber": 62,
        "velocity": 46
      },
      {
        "deltaTime": 3,
        "running": true,
        "channel": 0,
        "type": "noteOn",
        "noteNumber": 57,
        "velocity": 52
      },
      {
        "deltaTime": 20,
        "running": true,
        "channel": 0,
        "type": "noteOff",
        "noteNumber": 57,
        "velocity": 0,
        "byte9": true
      },
      {
        "deltaTime": 1,
        "channel": 0,
        "type": "noteOff",
        "noteNumber": 71,
        "velocity": 0,
        "byte9": true
      },
      {
        "deltaTime": 1,
        "channel": 0,
        "type": "noteOff",
        "noteNumber": 60,
        "velocity": 0,
        "byte9": true
      },
      {
        "deltaTime": 0,
        "running": true,
        "channel": 0,
        "type": "noteOff",
        "noteNumber": 62,
        "velocity": 0,
        "byte9": true
      },
      {
        "deltaTime": 6,
        "channel": 0,
        "type": "controller",
        "controllerType": 85,
        "value": 37
      },
      {
        "deltaTime": 18,
        "channel": 0,
        "type": "noteOn",
        "noteNumber": 72,
        "velocity": 70
      },
      {
        "deltaTime": 25,
        "running": true,
        "channel": 0,
        "type": "noteOff",
        "noteNumber": 72,
        "velocity": 0,
        "byte9": true
      },
      {
        "deltaTime": 43,
        "running": true,
        "channel": 0,
        "type": "noteOn",
        "noteNumber": 76,
        "velocity": 99
      },
      {
        "deltaTime": 2,
        "channel": 0,
        "type": "noteOn",
        "noteNumber": 60,
        "velocity": 56
      },
      {
        "deltaTime": 20,
        "running": true,
        "channel": 0,
        "type": "noteOff",
        "noteNumber": 60,
        "velocity": 0,
        "byte9": true
      },
      {
        "deltaTime": 4,
        "channel": 0,
        "type": "noteOff",
        "noteNumber": 76,
        "velocity": 0,
        "byte9": true
      },
      {
        "deltaTime": 21,
        "running": true,
        "channel": 0,
        "type": "noteOn",
        "noteNumber": 79,
        "velocity": 112
      },
      {
        "deltaTime": 33,
        "running": true,
        "channel": 0,
        "type": "noteOff",
        "noteNumber": 79,
        "velocity": 0,
        "byte9": true
      },
      {
        "deltaTime": 34,
        "running": true,
        "channel": 0,
        "type": "noteOn",
        "noteNumber": 78,
        "velocity": 100
      },
      {
        "deltaTime": 28,
        "running": true,
        "channel": 0,
        "type": "noteOff",
        "noteNumber": 78,
        "velocity": 0,
        "byte9": true
      },
      {
        "deltaTime": 25,
        "running": true,
        "channel": 0,
        "type": "noteOn",
        "noteNumber": 77,
        "velocity": 75
      },
      {
        "deltaTime": 29,
        "running": true,
        "channel": 0,
        "type": "noteOff",
        "noteNumber": 77,
        "velocity": 0,
        "byte9": true
      },
      {
        "deltaTime": 36,
        "running": true,
        "channel": 0,
        "type": "noteOn",
        "noteNumber": 74,
        "velocity": 97
      },
      {
        "deltaTime": 3,
        "channel": 0,
        "type": "noteOn",
        "noteNumber": 54,
        "velocity": 77
      },
      {
        "deltaTime": 1,
        "running": true,
        "channel": 0,
        "type": "noteOn",
        "noteNumber": 64,
        "velocity": 74
      },
      {
        "deltaTime": 4,
        "running": true,
        "channel": 0,
        "type": "noteOn",
        "noteNumber": 60,
        "velocity": 48
      },
      {
        "deltaTime": 9,
        "channel": 0,
        "type": "noteOff",
        "noteNumber": 74,
        "velocity": 0,
        "byte9": true
      },
      {
        "deltaTime": 0,
        "channel": 0,
        "type": "noteOff",
        "noteNumber": 64,
        "velocity": 0,
        "byte9": true
      },
      {
        "deltaTime": 5,
        "running": true,
        "channel": 0,
        "type": "noteOff",
        "noteNumber": 60,
        "velocity": 0,
        "byte9": true
      },
      {
        "deltaTime": 8,
        "running": true,
        "channel": 0,
        "type": "noteOff",
        "noteNumber": 54,
        "velocity": 0,
        "byte9": true
      },
      {
        "deltaTime": 27,
        "channel": 0,
        "type": "noteOn",
        "noteNumber": 70,
        "velocity": 75
      },
      {
        "deltaTime": 16,
        "running": true,
        "channel": 0,
        "type": "noteOff",
        "noteNumber": 70,
        "velocity": 0,
        "byte9": true
      },
      {
        "deltaTime": 46,
        "channel": 0,
        "type": "noteOn",
        "noteNumber": 60,
        "velocity": 73
      },
      {
        "deltaTime": 0,
        "channel": 0,
        "type": "noteOn",
        "noteNumber": 65,
        "velocity": 79
      },
      {
        "deltaTime": 2,
        "channel": 0,
        "type": "noteOn",
        "noteNumber": 54,
        "velocity": 60
      },
      {
        "deltaTime": 3,
        "running": true,
        "channel": 0,
        "type": "noteOn",
        "noteNumber": 50,
        "velocity": 48
      },
      {
        "deltaTime": 4,
        "running": true,
        "channel": 0,
        "type": "noteOff",
        "noteNumber": 60,
        "velocity": 0,
        "byte9": true
      },
      {
        "deltaTime": 12,
        "running": true,
        "channel": 0,
        "type": "noteOff",
        "noteNumber": 54,
        "velocity": 0,
        "byte9": true
      },
      {
        "deltaTime": 2,
        "channel": 0,
        "type": "noteOff",
        "noteNumber": 65,
        "velocity": 0,
        "byte9": true
      },
      {
        "deltaTime": 0,
        "channel": 0,
        "type": "noteOff",
        "noteNumber": 50,
        "velocity": 0,
        "byte9": true
      },
      {
        "deltaTime": 67,
        "channel": 0,
        "type": "noteOn",
        "noteNumber": 62,
        "velocity": 50
      },
      {
        "deltaTime": 36,
        "running": true,
        "channel": 0,
        "type": "noteOff",
        "noteNumber": 62,
        "velocity": 0,
        "byte9": true
      },
      {
        "deltaTime": 20,
        "running": true,
        "channel": 0,
        "type": "noteOn",
        "noteNumber": 60,
        "velocity": 66
      },
      {
        "deltaTime": 15,
        "running": true,
        "channel": 0,
        "type": "noteOff",
        "noteNumber": 60,
        "velocity": 0,
        "byte9": true
      },
      {
        "deltaTime": 28,
        "running": true,
        "channel": 0,
        "type": "noteOn",
        "noteNumber": 59,
        "velocity": 69
      },
      {
        "deltaTime": 44,
        "running": true,
        "channel": 0,
        "type": "noteOff",
        "noteNumber": 59,
        "velocity": 0,
        "byte9": true
      },
      {
        "deltaTime": 14,
        "running": true,
        "channel": 0,
        "type": "noteOn",
        "noteNumber": 54,
        "velocity": 60
      },
      {
        "deltaTime": 5,
        "channel": 0,
        "type": "noteOn",
        "noteNumber": 44,
        "velocity": 60
      },
      {
        "deltaTime": 10,
        "channel": 0,
        "type": "noteOff",
        "noteNumber": 54,
        "velocity": 0,
        "byte9": true
      },
      {
        "deltaTime": 5,
        "running": true,
        "channel": 0,
        "type": "noteOn",
        "noteNumber": 57,
        "velocity": 38
      },
      {
        "deltaTime": 8,
        "channel": 0,
        "type": "noteOff",
        "noteNumber": 44,
        "velocity": 0,
        "byte9": true
      },
      {
        "deltaTime": 2,
        "channel": 0,
        "type": "noteOff",
        "noteNumber": 57,
        "velocity": 0,
        "byte9": true
      },
      {
        "deltaTime": 21,
        "running": true,
        "channel": 0,
        "type": "noteOn",
        "noteNumber": 53,
        "velocity": 56
      },
      {
        "deltaTime": 1,
        "channel": 0,
        "type": "noteOn",
        "noteNumber": 43,
        "velocity": 32
      },
      {
        "deltaTime": 5,
        "channel": 0,
        "type": "noteOn",
        "noteNumber": 58,
        "velocity": 49
      },
      {
        "deltaTime": 14,
        "running": true,
        "channel": 0,
        "type": "noteOff",
        "noteNumber": 53,
        "velocity": 0,
        "byte9": true
      },
      {
        "deltaTime": 0,
        "channel": 0,
        "type": "noteOff",
        "noteNumber": 43,
        "velocity": 0,
        "byte9": true
      },
      {
        "deltaTime": 1,
        "channel": 0,
        "type": "noteOff",
        "noteNumber": 58,
        "velocity": 0,
        "byte9": true
      },
      {
        "deltaTime": 4,
        "channel": 0,
        "type": "controller",
        "controllerType": 85,
        "value": 37
      },
      {
        "deltaTime": 0,
        "running": true,
        "channel": 0,
        "type": "controller",
        "controllerType": 86,
        "value": 37
      },
      {
        "deltaTime": 82,
        "running": true,
        "channel": 0,
        "type": "controller",
        "controllerType": 64,
        "value": 22
      },
      {
        "deltaTime": 2,
        "running": true,
        "channel": 0,
        "type": "controller",
        "controllerType": 64,
        "value": 27
      },
      {
        "deltaTime": 1,
        "running": true,
        "channel": 0,
        "type": "controller",
        "controllerType": 64,
        "value": 64
      },
      {
        "deltaTime": 5,
        "running": true,
        "channel": 0,
        "type": "controller",
        "controllerType": 64,
        "value": 22
      },
      {
        "deltaTime": 4,
        "running": true,
        "channel": 0,
        "type": "controller",
        "controllerType": 64,
        "value": 11
      },
      {
        "deltaTime": 0,
        "running": true,
        "channel": 0,
        "type": "controller",
        "controllerType": 64,
        "value": 1
      },
      {
        "deltaTime": 0,
        "running": true,
        "channel": 0,
        "type": "controller",
        "controllerType": 64,
        "value": 0
      },
      {
        "deltaTime": 74,
        "channel": 0,
        "type": "noteOn",
        "noteNumber": 53,
        "velocity": 72
      },
      {
        "deltaTime": 1,
        "channel": 0,
        "type": "noteOn",
        "noteNumber": 59,
        "velocity": 97
      },
      {
        "deltaTime": 25,
        "channel": 0,
        "type": "noteOff",
        "noteNumber": 53,
        "velocity": 0,
        "byte9": true
      },
      {
        "deltaTime": 0,
        "channel": 0,
        "type": "noteOff",
        "noteNumber": 59,
        "velocity": 0,
        "byte9": true
      },
      {
        "deltaTime": 6,
        "channel": 0,
        "type": "controller",
        "controllerType": 85,
        "value": 37
      },
      {
        "deltaTime": 0,
        "running": true,
        "channel": 0,
        "type": "controller",
        "controllerType": 86,
        "value": 37
      },
      {
        "deltaTime": 85,
        "channel": 0,
        "type": "noteOn",
        "noteNumber": 59,
        "velocity": 82
      },
      {
        "deltaTime": 3,
        "channel": 0,
        "type": "noteOn",
        "noteNumber": 53,
        "velocity": 66
      },
      {
        "deltaTime": 21,
        "running": true,
        "channel": 0,
        "type": "noteOff",
        "noteNumber": 53,
        "velocity": 0,
        "byte9": true
      },
      {
        "deltaTime": 3,
        "channel": 0,
        "type": "noteOff",
        "noteNumber": 59,
        "velocity": 0,
        "byte9": true
      },
      {
        "deltaTime": 19,
        "running": true,
        "channel": 0,
        "type": "noteOn",
        "noteNumber": 62,
        "velocity": 61
      },
      {
        "deltaTime": 51,
        "running": true,
        "channel": 0,
        "type": "noteOff",
        "noteNumber": 62,
        "velocity": 0,
        "byte9": true
      },
      {
        "deltaTime": 19,
        "running": true,
        "channel": 0,
        "type": "noteOn",
        "noteNumber": 65,
        "velocity": 80
      },
      {
        "deltaTime": 2,
        "channel": 0,
        "type": "noteOn",
        "noteNumber": 58,
        "velocity": 74
      },
      {
        "deltaTime": 0,
        "running": true,
        "channel": 0,
        "type": "noteOn",
        "noteNumber": 48,
        "velocity": 59
      },
      {
        "deltaTime": 11,
        "running": true,
        "channel": 0,
        "type": "noteOff",
        "noteNumber": 58,
        "velocity": 0,
        "byte9": true
      },
      {
        "deltaTime": 3,
        "running": true,
        "channel": 0,
        "type": "noteOff",
        "noteNumber": 48,
        "velocity": 0,
        "byte9": true
      },
      {
        "deltaTime": 8,
        "channel": 0,
        "type": "noteOff",
        "noteNumber": 65,
        "velocity": 0,
        "byte9": true
      },
      {
        "deltaTime": 32,
        "running": true,
        "channel": 0,
        "type": "noteOn",
        "noteNumber": 64,
        "velocity": 79
      },
      {
        "deltaTime": 1,
        "running": true,
        "channel": 0,
        "type": "noteOn",
        "noteNumber": 72,
        "velocity": 92
      },
      {
        "deltaTime": 0,
        "channel": 0,
        "type": "controller",
        "controllerType": 64,
        "value": 22
      },
      {
        "deltaTime": 1,
        "channel": 0,
        "type": "noteOn",
        "noteNumber": 60,
        "velocity": 63
      },
      {
        "deltaTime": 14,
        "running": true,
        "channel": 0,
        "type": "noteOff",
        "noteNumber": 60,
        "velocity": 0,
        "byte9": true
      },
      {
        "deltaTime": 11,
        "channel": 0,
        "type": "controller",
        "controllerType": 64,
        "value": 64
      },
      {
        "deltaTime": 4,
        "channel": 0,
        "type": "noteOff",
        "noteNumber": 64,
        "velocity": 0,
        "byte9": true
      },
      {
        "deltaTime": 2,
        "running": true,
        "channel": 0,
        "type": "noteOff",
        "noteNumber": 72,
        "velocity": 0,
        "byte9": true
      },
      {
        "deltaTime": 20,
        "channel": 0,
        "type": "controller",
        "controllerType": 64,
        "value": 22
      },
      {
        "deltaTime": 8,
        "running": true,
        "channel": 0,
        "type": "controller",
        "controllerType": 64,
        "value": 5
      },
      {
        "deltaTime": 0,
        "running": true,
        "channel": 0,
        "type": "controller",
        "controllerType": 64,
        "value": 0
      },
      {
        "deltaTime": 36,
        "running": true,
        "channel": 0,
        "type": "controller",
        "controllerType": 64,
        "value": 22
      },
      {
        "deltaTime": 3,
        "channel": 0,
        "type": "noteOn",
        "noteNumber": 72,
        "velocity": 82
      },
      {
        "deltaTime": 2,
        "channel": 0,
        "type": "noteOn",
        "noteNumber": 60,
        "velocity": 64
      },
      {
        "deltaTime": 0,
        "channel": 0,
        "type": "noteOn",
        "noteNumber": 64,
        "velocity": 77
      },
      {
        "deltaTime": 0,
        "channel": 0,
        "type": "controller",
        "controllerType": 64,
        "value": 44
      },
      {
        "deltaTime": 0,
        "running": true,
        "channel": 0,
        "type": "controller",
        "controllerType": 64,
        "value": 64
      },
      {
        "deltaTime": 1,
        "channel": 0,
        "type": "noteOn",
        "noteNumber": 68,
        "velocity": 73
      },
      {
        "deltaTime": 7,
        "channel": 0,
        "type": "controller",
        "controllerType": 64,
        "value": 65
      },
      {
        "deltaTime": 0,
        "running": true,
        "channel": 0,
        "type": "controller",
        "controllerType": 64,
        "value": 85
      },
      {
        "deltaTime": 50,
        "channel": 0,
        "type": "noteOff",
        "noteNumber": 64,
        "velocity": 0,
        "byte9": true
      },
      {
        "deltaTime": 6,
        "running": true,
        "channel": 0,
        "type": "noteOff",
        "noteNumber": 72,
        "velocity": 0,
        "byte9": true
      },
      {
        "deltaTime": 2,
        "running": true,
        "channel": 0,
        "type": "noteOff",
        "noteNumber": 68,
        "velocity": 0,
        "byte9": true
      },
      {
        "deltaTime": 4,
        "channel": 0,
        "type": "controller",
        "controllerType": 64,
        "value": 64
      },
      {
        "deltaTime": 8,
        "running": true,
        "channel": 0,
        "type": "controller",
        "controllerType": 64,
        "value": 23
      },
      {
        "deltaTime": 0,
        "running": true,
        "channel": 0,
        "type": "controller",
        "controllerType": 64,
        "value": 22
      },
      {
        "deltaTime": 4,
        "channel": 0,
        "type": "noteOn",
        "noteNumber": 64,
        "velocity": 72
      },
      {
        "deltaTime": 0,
        "running": true,
        "channel": 0,
        "type": "noteOn",
        "noteNumber": 70,
        "velocity": 88
      },
      {
        "deltaTime": 4,
        "channel": 0,
        "type": "controller",
        "controllerType": 64,
        "value": 5
      },
      {
        "deltaTime": 0,
        "running": true,
        "channel": 0,
        "type": "controller",
        "controllerType": 64,
        "value": 1
      },
      {
        "deltaTime": 0,
        "running": true,
        "channel": 0,
        "type": "controller",
        "controllerType": 64,
        "value": 0
      },
      {
        "deltaTime": 3,
        "channel": 0,
        "type": "noteOn",
        "noteNumber": 58,
        "velocity": 59
      },
      {
        "deltaTime": 4,
        "running": true,
        "channel": 0,
        "type": "noteOff",
        "noteNumber": 60,
        "velocity": 0,
        "byte9": true
      },
      {
        "deltaTime": 6,
        "running": true,
        "channel": 0,
        "type": "noteOff",
        "noteNumber": 58,
        "velocity": 0,
        "byte9": true
      },
      {
        "deltaTime": 9,
        "channel": 0,
        "type": "controller",
        "controllerType": 64,
        "value": 22
      },
      {
        "deltaTime": 4,
        "channel": 0,
        "type": "noteOff",
        "noteNumber": 64,
        "velocity": 0,
        "byte9": true
      },
      {
        "deltaTime": 4,
        "channel": 0,
        "type": "controller",
        "controllerType": 64,
        "value": 46
      },
      {
        "deltaTime": 0,
        "running": true,
        "channel": 0,
        "type": "controller",
        "controllerType": 64,
        "value": 64
      },
      {
        "deltaTime": 10,
        "running": true,
        "channel": 0,
        "type": "controller",
        "controllerType": 64,
        "value": 65
      },
      {
        "deltaTime": 0,
        "running": true,
        "channel": 0,
        "type": "controller",
        "controllerType": 64,
        "value": 85
      },
      {
        "deltaTime": 19,
        "channel": 0,
        "type": "noteOff",
        "noteNumber": 70,
        "velocity": 0,
        "byte9": true
      },
      {
        "deltaTime": 45,
        "channel": 0,
        "type": "controller",
        "controllerType": 64,
        "value": 64
      },
      {
        "deltaTime": 2,
        "channel": 0,
        "type": "noteOn",
        "noteNumber": 56,
        "velocity": 97
      },
      {
        "deltaTime": 2,
        "running": true,
        "channel": 0,
        "type": "noteOn",
        "noteNumber": 46,
        "velocity": 97
      },
      {
        "deltaTime": 3,
        "channel": 0,
        "type": "controller",
        "controllerType": 64,
        "value": 23
      },
      {
        "deltaTime": 0,
        "running": true,
        "channel": 0,
        "type": "controller",
        "controllerType": 64,
        "value": 22
      },
      {
        "deltaTime": 3,
        "running": true,
        "channel": 0,
        "type": "controller",
        "controllerType": 64,
        "value": 11
      },
      {
        "deltaTime": 0,
        "running": true,
        "channel": 0,
        "type": "controller",
        "controllerType": 64,
        "value": 1
      },
      {
        "deltaTime": 0,
        "running": true,
        "channel": 0,
        "type": "controller",
        "controllerType": 64,
        "value": 0
      },
      {
        "deltaTime": 31,
        "running": true,
        "channel": 0,
        "type": "controller",
        "controllerType": 64,
        "value": 22
      },
      {
        "deltaTime": 5,
        "running": true,
        "channel": 0,
        "type": "controller",
        "controllerType": 64,
        "value": 51
      },
      {
        "deltaTime": 0,
        "running": true,
        "channel": 0,
        "type": "controller",
        "controllerType": 64,
        "value": 64
      },
      {
        "deltaTime": 7,
        "running": true,
        "channel": 0,
        "type": "controller",
        "controllerType": 64,
        "value": 65
      },
      {
        "deltaTime": 0,
        "running": true,
        "channel": 0,
        "type": "controller",
        "controllerType": 64,
        "value": 85
      },
      {
        "deltaTime": 12,
        "running": true,
        "channel": 0,
        "type": "controller",
        "controllerType": 64,
        "value": 113
      },
      {
        "deltaTime": 12,
        "channel": 0,
        "type": "noteOff",
        "noteNumber": 56,
        "velocity": 0,
        "byte9": true
      },
      {
        "deltaTime": 15,
        "running": true,
        "channel": 0,
        "type": "noteOff",
        "noteNumber": 46,
        "velocity": 0,
        "byte9": true
      },
      {
        "deltaTime": 36,
        "channel": 0,
        "type": "controller",
        "controllerType": 64,
        "value": 106
      },
      {
        "deltaTime": 5,
        "channel": 0,
        "type": "noteOn",
        "noteNumber": 45,
        "velocity": 98
      },
      {
        "deltaTime": 0,
        "running": true,
        "channel": 0,
        "type": "noteOn",
        "noteNumber": 55,
        "velocity": 98
      },
      {
        "deltaTime": 5,
        "channel": 0,
        "type": "controller",
        "controllerType": 64,
        "value": 64
      },
      {
        "deltaTime": 16,
        "channel": 0,
        "type": "noteOff",
        "noteNumber": 45,
        "velocity": 0,
        "byte9": true
      },
      {
        "deltaTime": 2,
        "channel": 0,
        "type": "controller",
        "controllerType": 64,
        "value": 85
      },
      {
        "deltaTime": 2,
        "channel": 0,
        "type": "noteOff",
        "noteNumber": 55,
        "velocity": 0,
        "byte9": true
      },
      {
        "deltaTime": 9,
        "channel": 0,
        "type": "controller",
        "controllerType": 64,
        "value": 113
      },
      {
        "deltaTime": 87,
        "channel": 0,
        "type": "noteOn",
        "noteNumber": 55,
        "velocity": 83
      },
      {
        "deltaTime": 2,
        "running": true,
        "channel": 0,
        "type": "noteOn",
        "noteNumber": 63,
        "velocity": 94
      },
      {
        "deltaTime": 2,
        "running": true,
        "channel": 0,
        "type": "noteOn",
        "noteNumber": 60,
        "velocity": 66
      },
      {
        "deltaTime": 2,
        "running": true,
        "channel": 0,
        "type": "noteOn",
        "noteNumber": 57,
        "velocity": 61
      },
      {
        "deltaTime": 18,
        "channel": 0,
        "type": "controller",
        "controllerType": 64,
        "value": 106
      },
      {
        "deltaTime": 6,
        "running": true,
        "channel": 0,
        "type": "controller",
        "controllerType": 64,
        "value": 64
      },
      {
        "deltaTime": 12,
        "running": true,
        "channel": 0,
        "type": "controller",
        "controllerType": 64,
        "value": 23
      },
      {
        "deltaTime": 0,
        "running": true,
        "channel": 0,
        "type": "controller",
        "controllerType": 64,
        "value": 22
      },
      {
        "deltaTime": 5,
        "channel": 0,
        "type": "noteOn",
        "noteNumber": 93,
        "velocity": 117
      },
      {
        "deltaTime": 2,
        "channel": 0,
        "type": "controller",
        "controllerType": 64,
        "value": 5
      },
      {
        "deltaTime": 0,
        "running": true,
        "channel": 0,
        "type": "controller",
        "controllerType": 64,
        "value": 1
      },
      {
        "deltaTime": 0,
        "running": true,
        "channel": 0,
        "type": "controller",
        "controllerType": 64,
        "value": 0
      },
      {
        "deltaTime": 20,
        "channel": 0,
        "type": "noteOff",
        "noteNumber": 93,
        "velocity": 0,
        "byte9": true
      },
      {
        "deltaTime": 13,
        "channel": 0,
        "type": "noteOff",
        "noteNumber": 60,
        "velocity": 0,
        "byte9": true
      },
      {
        "deltaTime": 24,
        "running": true,
        "channel": 0,
        "type": "noteOn",
        "noteNumber": 60,
        "velocity": 48
      },
      {
        "deltaTime": 22,
        "running": true,
        "channel": 0,
        "type": "noteOff",
        "noteNumber": 63,
        "velocity": 0,
        "byte9": true
      },
      {
        "deltaTime": 0,
        "channel": 0,
        "type": "noteOn",
        "noteNumber": 86,
        "velocity": 107
      },
      {
        "deltaTime": 43,
        "running": true,
        "channel": 0,
        "type": "noteOff",
        "noteNumber": 86,
        "velocity": 0,
        "byte9": true
      },
      {
        "deltaTime": 3,
        "running": true,
        "channel": 0,
        "type": "noteOn",
        "noteNumber": 87,
        "velocity": 71
      },
      {
        "deltaTime": 9,
        "channel": 0,
        "type": "noteOff",
        "noteNumber": 60,
        "velocity": 0,
        "byte9": true
      },
      {
        "deltaTime": 1,
        "running": true,
        "channel": 0,
        "type": "noteOff",
        "noteNumber": 57,
        "velocity": 0,
        "byte9": true
      },
      {
        "deltaTime": 24,
        "channel": 0,
        "type": "noteOn",
        "noteNumber": 86,
        "velocity": 74
      },
      {
        "deltaTime": 3,
        "running": true,
        "channel": 0,
        "type": "noteOff",
        "noteNumber": 87,
        "velocity": 0,
        "byte9": true
      },
      {
        "deltaTime": 25,
        "running": true,
        "channel": 0,
        "type": "noteOff",
        "noteNumber": 86,
        "velocity": 0,
        "byte9": true
      },
      {
        "deltaTime": 0,
        "running": true,
        "channel": 0,
        "type": "noteOn",
        "noteNumber": 84,
        "velocity": 86
      },
      {
        "deltaTime": 10,
        "channel": 0,
        "type": "noteOn",
        "noteNumber": 63,
        "velocity": 55
      },
      {
        "deltaTime": 3,
        "running": true,
        "channel": 0,
        "type": "noteOn",
        "noteNumber": 60,
        "velocity": 52
      },
      {
        "deltaTime": 8,
        "channel": 0,
        "type": "noteOff",
        "noteNumber": 84,
        "velocity": 0,
        "byte9": true
      },
      {
        "deltaTime": 8,
        "channel": 0,
        "type": "noteOff",
        "noteNumber": 63,
        "velocity": 0,
        "byte9": true
      },
      {
        "deltaTime": 15,
        "channel": 0,
        "type": "noteOn",
        "noteNumber": 82,
        "velocity": 94
      },
      {
        "deltaTime": 26,
        "running": true,
        "channel": 0,
        "type": "noteOff",
        "noteNumber": 82,
        "velocity": 0,
        "byte9": true
      },
      {
        "deltaTime": 9,
        "channel": 0,
        "type": "noteOff",
        "noteNumber": 55,
        "velocity": 0,
        "byte9": true
      },
      {
        "deltaTime": 14,
        "channel": 0,
        "type": "noteOn",
        "noteNumber": 81,
        "velocity": 97
      },
      {
        "deltaTime": 19,
        "channel": 0,
        "type": "noteOff",
        "noteNumber": 60,
        "velocity": 0,
        "byte9": true
      },
      {
        "deltaTime": 16,
        "channel": 0,
        "type": "noteOff",
        "noteNumber": 81,
        "velocity": 0,
        "byte9": true
      },
      {
        "deltaTime": 12,
        "running": true,
        "channel": 0,
        "type": "noteOn",
        "noteNumber": 79,
        "velocity": 92
      },
      {
        "deltaTime": 25,
        "running": true,
        "channel": 0,
        "type": "noteOff",
        "noteNumber": 79,
        "velocity": 0,
        "byte9": true
      },
      {
        "deltaTime": 13,
        "running": true,
        "channel": 0,
        "type": "noteOn",
        "noteNumber": 78,
        "velocity": 69
      },
      {
        "deltaTime": 42,
        "running": true,
        "channel": 0,
        "type": "noteOff",
        "noteNumber": 78,
        "velocity": 0,
        "byte9": true
      },
      {
        "deltaTime": 37,
        "channel": 0,
        "type": "noteOn",
        "noteNumber": 60,
        "velocity": 49
      },
      {
        "deltaTime": 1,
        "running": true,
        "channel": 0,
        "type": "noteOn",
        "noteNumber": 64,
        "velocity": 79
      },
      {
        "deltaTime": 0,
        "channel": 0,
        "type": "noteOn",
        "noteNumber": 84,
        "velocity": 102
      },
      {
        "deltaTime": 1,
        "channel": 0,
        "type": "noteOn",
        "noteNumber": 54,
        "velocity": 76
      },
      {
        "deltaTime": 14,
        "running": true,
        "channel": 0,
        "type": "noteOff",
        "noteNumber": 60,
        "velocity": 0,
        "byte9": true
      },
      {
        "deltaTime": 28,
        "running": true,
        "channel": 0,
        "type": "noteOff",
        "noteNumber": 64,
        "velocity": 0,
        "byte9": true
      },
      {
        "deltaTime": 0,
        "channel": 0,
        "type": "noteOn",
        "noteNumber": 77,
        "velocity": 57
      },
      {
        "deltaTime": 1,
        "running": true,
        "channel": 0,
        "type": "noteOff",
        "noteNumber": 84,
        "velocity": 0,
        "byte9": true
      },
      {
        "deltaTime": 0,
        "channel": 0,
        "type": "noteOff",
        "noteNumber": 54,
        "velocity": 0,
        "byte9": true
      },
      {
        "deltaTime": 19,
        "channel": 0,
        "type": "controller",
        "controllerType": 85,
        "value": 37
      },
      {
        "deltaTime": 22,
        "channel": 0,
        "type": "noteOff",
        "noteNumber": 77,
        "velocity": 0,
        "byte9": true
      },
      {
        "deltaTime": 35,
        "running": true,
        "channel": 0,
        "type": "noteOn",
        "noteNumber": 75,
        "velocity": 84
      },
      {
        "deltaTime": 1,
        "channel": 0,
        "type": "noteOn",
        "noteNumber": 60,
        "velocity": 65
      },
      {
        "deltaTime": 2,
        "running": true,
        "channel": 0,
        "type": "noteOn",
        "noteNumber": 54,
        "velocity": 58
      },
      {
        "deltaTime": 3,
        "running": true,
        "channel": 0,
        "type": "noteOn",
        "noteNumber": 50,
        "velocity": 51
      },
      {
        "deltaTime": 12,
        "channel": 0,
        "type": "noteOff",
        "noteNumber": 75,
        "velocity": 0,
        "byte9": true
      },
      {
        "deltaTime": 1,
        "channel": 0,
        "type": "noteOff",
        "noteNumber": 60,
        "velocity": 0,
        "byte9": true
      },
      {
        "deltaTime": 0,
        "running": true,
        "channel": 0,
        "type": "noteOff",
        "noteNumber": 54,
        "velocity": 0,
        "byte9": true
      },
      {
        "deltaTime": 1,
        "running": true,
        "channel": 0,
        "type": "noteOff",
        "noteNumber": 50,
        "velocity": 0,
        "byte9": true
      },
      {
        "deltaTime": 3,
        "channel": 0,
        "type": "controller",
        "controllerType": 85,
        "value": 37
      },
      {
        "deltaTime": 28,
        "channel": 0,
        "type": "noteOn",
        "noteNumber": 74,
        "velocity": 62
      },
      {
        "deltaTime": 58,
        "running": true,
        "channel": 0,
        "type": "noteOff",
        "noteNumber": 74,
        "velocity": 0,
        "byte9": true
      },
      {
        "deltaTime": 6,
        "channel": 0,
        "type": "noteOn",
        "noteNumber": 54,
        "velocity": 51
      },
      {
        "deltaTime": 3,
        "channel": 0,
        "type": "noteOn",
        "noteNumber": 72,
        "velocity": 85
      },
      {
        "deltaTime": 2,
        "channel": 0,
        "type": "noteOn",
        "noteNumber": 57,
        "velocity": 44
      },
      {
        "deltaTime": 0,
        "running": true,
        "channel": 0,
        "type": "noteOn",
        "noteNumber": 60,
        "velocity": 71
      },
      {
        "deltaTime": 17,
        "running": true,
        "channel": 0,
        "type": "noteOff",
        "noteNumber": 54,
        "velocity": 0,
        "byte9": true
      },
      {
        "deltaTime": 1,
        "channel": 0,
        "type": "noteOff",
        "noteNumber": 72,
        "velocity": 0,
        "byte9": true
      },
      {
        "deltaTime": 0,
        "channel": 0,
        "type": "noteOff",
        "noteNumber": 57,
        "velocity": 0,
        "byte9": true
      },
      {
        "deltaTime": 0,
        "running": true,
        "channel": 0,
        "type": "noteOff",
        "noteNumber": 60,
        "velocity": 0,
        "byte9": true
      },
      {
        "deltaTime": 5,
        "channel": 0,
        "type": "controller",
        "controllerType": 85,
        "value": 37
      },
      {
        "deltaTime": 19,
        "channel": 0,
        "type": "noteOn",
        "noteNumber": 70,
        "velocity": 33
      },
      {
        "deltaTime": 52,
        "running": true,
        "channel": 0,
        "type": "noteOff",
        "noteNumber": 70,
        "velocity": 0,
        "byte9": true
      },
      {
        "deltaTime": 26,
        "channel": 0,
        "type": "noteOn",
        "noteNumber": 59,
        "velocity": 61
      },
      {
        "deltaTime": 0,
        "channel": 0,
        "type": "noteOn",
        "noteNumber": 65,
        "velocity": 50
      },
      {
        "deltaTime": 2,
        "channel": 0,
        "type": "noteOn",
        "noteNumber": 53,
        "velocity": 56
      },
      {
        "deltaTime": 14,
        "channel": 0,
        "type": "noteOff",
        "noteNumber": 65,
        "velocity": 0,
        "byte9": true
      },
      {
        "deltaTime": 13,
        "channel": 0,
        "type": "noteOff",
        "noteNumber": 59,
        "velocity": 0,
        "byte9": true
      },
      {
        "deltaTime": 8,
        "running": true,
        "channel": 0,
        "type": "noteOff",
        "noteNumber": 53,
        "velocity": 0,
        "byte9": true
      },
      {
        "deltaTime": 4,
        "channel": 0,
        "type": "noteOn",
        "noteNumber": 68,
        "velocity": 58
      },
      {
        "deltaTime": 19,
        "running": true,
        "channel": 0,
        "type": "noteOff",
        "noteNumber": 68,
        "velocity": 0,
        "byte9": true
      },
      {
        "deltaTime": 15,
        "running": true,
        "channel": 0,
        "type": "noteOn",
        "noteNumber": 69,
        "velocity": 45
      },
      {
        "deltaTime": 22,
        "running": true,
        "channel": 0,
        "type": "noteOff",
        "noteNumber": 69,
        "velocity": 0,
        "byte9": true
      },
      {
        "deltaTime": 6,
        "channel": 0,
        "type": "controller",
        "controllerType": 86,
        "value": 37
      },
      {
        "deltaTime": 22,
        "channel": 0,
        "type": "noteOn",
        "noteNumber": 59,
        "velocity": 48
      },
      {
        "deltaTime": 21,
        "running": true,
        "channel": 0,
        "type": "noteOff",
        "noteNumber": 59,
        "velocity": 0,
        "byte9": true
      },
      {
        "deltaTime": 12,
        "channel": 0,
        "type": "noteOn",
        "noteNumber": 74,
        "velocity": 106
      },
      {
        "deltaTime": 56,
        "running": true,
        "channel": 0,
        "type": "noteOff",
        "noteNumber": 74,
        "velocity": 0,
        "byte9": true
      },
      { "deltaTime": 9, "meta": true, "type": "text", "text": "Bluesy lick!" },
      {
        "deltaTime": 13,
        "running": true,
        "channel": 0,
        "type": "noteOn",
        "noteNumber": 74,
        "velocity": 82
      },
      {
        "deltaTime": 2,
        "channel": 0,
        "type": "noteOn",
        "noteNumber": 64,
        "velocity": 51
      },
      {
        "deltaTime": 6,
        "running": true,
        "channel": 0,
        "type": "noteOn",
        "noteNumber": 59,
        "velocity": 55
      },
      {
        "deltaTime": 4,
        "running": true,
        "channel": 0,
        "type": "noteOff",
        "noteNumber": 64,
        "velocity": 0,
        "byte9": true
      },
      {
        "deltaTime": 24,
        "channel": 0,
        "type": "noteOff",
        "noteNumber": 74,
        "velocity": 0,
        "byte9": true
      },
      {
        "deltaTime": 3,
        "channel": 0,
        "type": "noteOff",
        "noteNumber": 59,
        "velocity": 0,
        "byte9": true
      },
      {
        "deltaTime": 9,
        "channel": 0,
        "type": "noteOn",
        "noteNumber": 67,
        "velocity": 51
      },
      {
        "deltaTime": 15,
        "running": true,
        "channel": 0,
        "type": "noteOn",
        "noteNumber": 68,
        "velocity": 77
      },
      {
        "deltaTime": 2,
        "running": true,
        "channel": 0,
        "type": "noteOff",
        "noteNumber": 67,
        "velocity": 0,
        "byte9": true
      },
      {
        "deltaTime": 23,
        "running": true,
        "channel": 0,
        "type": "noteOff",
        "noteNumber": 68,
        "velocity": 0,
        "byte9": true
      },
      {
        "deltaTime": 0,
        "running": true,
        "channel": 0,
        "type": "noteOn",
        "noteNumber": 67,
        "velocity": 55
      },
      {
        "deltaTime": 25,
        "running": true,
        "channel": 0,
        "type": "noteOff",
        "noteNumber": 67,
        "velocity": 0,
        "byte9": true
      },
      {
        "deltaTime": 4,
        "running": true,
        "channel": 0,
        "type": "noteOn",
        "noteNumber": 65,
        "velocity": 56
      },
      {
        "deltaTime": 12,
        "channel": 0,
        "type": "noteOn",
        "noteNumber": 59,
        "velocity": 55
      },
      {
        "deltaTime": 9,
        "running": true,
        "channel": 0,
        "type": "noteOn",
        "noteNumber": 53,
        "velocity": 32
      },
      {
        "deltaTime": 4,
        "channel": 0,
        "type": "noteOff",
        "noteNumber": 65,
        "velocity": 0,
        "byte9": true
      },
      {
        "deltaTime": 3,
        "channel": 0,
        "type": "noteOff",
        "noteNumber": 59,
        "velocity": 0,
        "byte9": true
      },
      {
        "deltaTime": 3,
        "channel": 0,
        "type": "noteOn",
        "noteNumber": 62,
        "velocity": 51
      },
      {
        "deltaTime": 12,
        "channel": 0,
        "type": "noteOff",
        "noteNumber": 53,
        "velocity": 0,
        "byte9": true
      },
      {
        "deltaTime": 79,
        "channel": 0,
        "type": "noteOn",
        "noteNumber": 65,
        "velocity": 90
      },
      {
        "deltaTime": 5,
        "running": true,
        "channel": 0,
        "type": "noteOff",
        "noteNumber": 62,
        "velocity": 0,
        "byte9": true
      },
      {
        "deltaTime": 27,
        "running": true,
        "channel": 0,
        "type": "noteOff",
        "noteNumber": 65,
        "velocity": 0,
        "byte9": true
      },
      {
        "deltaTime": 33,
        "running": true,
        "channel": 0,
        "type": "noteOn",
        "noteNumber": 67,
        "velocity": 99
      },
      {
        "deltaTime": 51,
        "running": true,
        "channel": 0,
        "type": "noteOff",
        "noteNumber": 67,
        "velocity": 0,
        "byte9": true
      },
      {
        "deltaTime": 18,
        "channel": 0,
        "type": "noteOn",
        "noteNumber": 48,
        "velocity": 47
      },
      {
        "deltaTime": 26,
        "running": true,
        "channel": 0,
        "type": "noteOff",
        "noteNumber": 48,
        "velocity": 0,
        "byte9": true
      },
      {
        "deltaTime": 2,
        "channel": 0,
        "type": "noteOn",
        "noteNumber": 65,
        "velocity": 88
      },
      {
        "deltaTime": 12,
        "channel": 0,
        "type": "controller",
        "controllerType": 64,
        "value": 22
      },
      {
        "deltaTime": 2,
        "running": true,
        "channel": 0,
        "type": "controller",
        "controllerType": 64,
        "value": 2
      },
      {
        "deltaTime": 0,
        "running": true,
        "channel": 0,
        "type": "controller",
        "controllerType": 64,
        "value": 0
      },
      {
        "deltaTime": 62,
        "channel": 0,
        "type": "noteOff",
        "noteNumber": 65,
        "velocity": 0,
        "byte9": true
      },
      {
        "deltaTime": 52,
        "running": true,
        "channel": 0,
        "type": "noteOn",
        "noteNumber": 65,
        "velocity": 99
      },
      {
        "deltaTime": 6,
        "channel": 0,
        "type": "controller",
        "controllerType": 64,
        "value": 22
      },
      {
        "deltaTime": 7,
        "running": true,
        "channel": 0,
        "type": "controller",
        "controllerType": 64,
        "value": 2
      },
      {
        "deltaTime": 0,
        "running": true,
        "channel": 0,
        "type": "controller",
        "controllerType": 64,
        "value": 0
      },
      {
        "deltaTime": 50,
        "running": true,
        "channel": 0,
        "type": "controller",
        "controllerType": 64,
        "value": 22
      },
      {
        "deltaTime": 1,
        "channel": 0,
        "type": "noteOff",
        "noteNumber": 65,
        "velocity": 0,
        "byte9": true
      },
      {
        "deltaTime": 19,
        "channel": 0,
        "type": "controller",
        "controllerType": 64,
        "value": 2
      },
      {
        "deltaTime": 0,
        "running": true,
        "channel": 0,
        "type": "controller",
        "controllerType": 64,
        "value": 0
      },
      {
        "deltaTime": 4,
        "channel": 0,
        "type": "noteOn",
        "noteNumber": 48,
        "velocity": 20
      },
      {
        "deltaTime": 13,
        "running": true,
        "channel": 0,
        "type": "noteOff",
        "noteNumber": 48,
        "velocity": 0,
        "byte9": true
      },
      {
        "deltaTime": 10,
        "channel": 0,
        "type": "noteOn",
        "noteNumber": 62,
        "velocity": 68
      },
      {
        "deltaTime": 10,
        "channel": 0,
        "type": "controller",
        "controllerType": 64,
        "value": 22
      },
      {
        "deltaTime": 8,
        "running": true,
        "channel": 0,
        "type": "controller",
        "controllerType": 64,
        "value": 64
      },
      {
        "deltaTime": 43,
        "channel": 0,
        "type": "noteOff",
        "noteNumber": 62,
        "velocity": 0,
        "byte9": true
      },
      {
        "deltaTime": 17,
        "running": true,
        "channel": 0,
        "type": "noteOn",
        "noteNumber": 65,
        "velocity": 87
      },
      {
        "deltaTime": 7,
        "channel": 0,
        "type": "controller",
        "controllerType": 64,
        "value": 22
      },
      {
        "deltaTime": 23,
        "running": true,
        "channel": 0,
        "type": "controller",
        "controllerType": 88,
        "value": 36
      },
      {
        "deltaTime": 21,
        "running": true,
        "channel": 0,
        "type": "controller",
        "controllerType": 64,
        "value": 64
      },
      {
        "deltaTime": 66,
        "running": true,
        "channel": 0,
        "type": "controller",
        "controllerType": 64,
        "value": 22
      },
      {
        "deltaTime": 0,
        "channel": 0,
        "type": "noteOn",
        "noteNumber": 55,
        "velocity": 67
      },
      {
        "deltaTime": 2,
        "running": true,
        "channel": 0,
        "type": "noteOn",
        "noteNumber": 60,
        "velocity": 60
      },
      {
        "deltaTime": 2,
        "channel": 0,
        "type": "noteOn",
        "noteNumber": 48,
        "velocity": 64
      },
      {
        "deltaTime": 4,
        "running": true,
        "channel": 0,
        "type": "noteOn",
        "noteNumber": 41,
        "velocity": 50
      },
      {
        "deltaTime": 0,
        "channel": 0,
        "type": "controller",
        "controllerType": 64,
        "value": 6
      },
      {
        "deltaTime": 0,
        "running": true,
        "channel": 0,
        "type": "controller",
        "controllerType": 64,
        "value": 0
      },
      {
        "deltaTime": 16,
        "channel": 0,
        "type": "noteOff",
        "noteNumber": 41,
        "velocity": 0,
        "byte9": true
      },
      {
        "deltaTime": 2,
        "channel": 0,
        "type": "noteOff",
        "noteNumber": 55,
        "velocity": 0,
        "byte9": true
      },
      {
        "deltaTime": 1,
        "running": true,
        "channel": 0,
        "type": "noteOff",
        "noteNumber": 60,
        "velocity": 0,
        "byte9": true
      },
      {
        "deltaTime": 0,
        "channel": 0,
        "type": "noteOff",
        "noteNumber": 48,
        "velocity": 0,
        "byte9": true
      },
      {
        "deltaTime": 6,
        "channel": 0,
        "type": "controller",
        "controllerType": 85,
        "value": 37
      },
      {
        "deltaTime": 0,
        "running": true,
        "channel": 0,
        "type": "controller",
        "controllerType": 86,
        "value": 37
      },
      {
        "deltaTime": 135,
        "channel": 0,
        "type": "noteOn",
        "noteNumber": 55,
        "velocity": 58
      },
      {
        "deltaTime": 1,
        "channel": 0,
        "type": "controller",
        "controllerType": 64,
        "value": 22
      },
      {
        "deltaTime": 0,
        "channel": 0,
        "type": "noteOn",
        "noteNumber": 60,
        "velocity": 54
      },
      {
        "deltaTime": 0,
        "channel": 0,
        "type": "noteOn",
        "noteNumber": 39,
        "velocity": 55
      },
      {
        "deltaTime": 4,
        "running": true,
        "channel": 0,
        "type": "noteOn",
        "noteNumber": 46,
        "velocity": 53
      },
      {
        "deltaTime": 1,
        "channel": 0,
        "type": "controller",
        "controllerType": 64,
        "value": 64
      },
      {
        "deltaTime": 10,
        "running": true,
        "channel": 0,
        "type": "controller",
        "controllerType": 64,
        "value": 65
      },
      {
        "deltaTime": 0,
        "running": true,
        "channel": 0,
        "type": "controller",
        "controllerType": 64,
        "value": 85
      },
      {
        "deltaTime": 123,
        "channel": 0,
        "type": "noteOff",
        "noteNumber": 46,
        "velocity": 0,
        "byte9": true
      },
      {
        "deltaTime": 4,
        "channel": 0,
        "type": "noteOff",
        "noteNumber": 55,
        "velocity": 0,
        "byte9": true
      },
      {
        "deltaTime": 6,
        "channel": 0,
        "type": "noteOff",
        "noteNumber": 39,
        "velocity": 0,
        "byte9": true
      },
      {
        "deltaTime": 8,
        "channel": 0,
        "type": "noteOff",
        "noteNumber": 60,
        "velocity": 0,
        "byte9": true
      },
      {
        "deltaTime": 35,
        "running": true,
        "channel": 0,
        "type": "noteOff",
        "noteNumber": 65,
        "velocity": 0,
        "byte9": true
      },
      {
        "deltaTime": 45,
        "channel": 0,
        "type": "controller",
        "controllerType": 64,
        "value": 64
      },
      {
        "deltaTime": 2,
        "channel": 0,
        "type": "noteOn",
        "noteNumber": 37,
        "velocity": 56
      },
      {
        "deltaTime": 3,
        "running": true,
        "channel": 0,
        "type": "noteOn",
        "noteNumber": 44,
        "velocity": 48
      },
      {
        "deltaTime": 1,
        "channel": 0,
        "type": "noteOn",
        "noteNumber": 65,
        "velocity": 56
      },
      {
        "deltaTime": 3,
        "channel": 0,
        "type": "controller",
        "controllerType": 64,
        "value": 23
      },
      {
        "deltaTime": 0,
        "running": true,
        "channel": 0,
        "type": "controller",
        "controllerType": 64,
        "value": 22
      },
      {
        "deltaTime": 2,
        "channel": 0,
        "type": "noteOn",
        "noteNumber": 53,
        "velocity": 50
      },
      {
        "deltaTime": 1,
        "running": true,
        "channel": 0,
        "type": "noteOn",
        "noteNumber": 60,
        "velocity": 53
      },
      {
        "deltaTime": 2,
        "channel": 0,
        "type": "controller",
        "controllerType": 64,
        "value": 8
      },
      {
        "deltaTime": 0,
        "running": true,
        "channel": 0,
        "type": "controller",
        "controllerType": 64,
        "value": 0
      },
      {
        "deltaTime": 94,
        "running": true,
        "channel": 0,
        "type": "controller",
        "controllerType": 64,
        "value": 22
      },
      {
        "deltaTime": 10,
        "running": true,
        "channel": 0,
        "type": "controller",
        "controllerType": 64,
        "value": 64
      },
      {
        "deltaTime": 46,
        "channel": 0,
        "type": "noteOff",
        "noteNumber": 60,
        "velocity": 0,
        "byte9": true
      },
      {
        "deltaTime": 12,
        "channel": 0,
        "type": "controller",
        "controllerType": 64,
        "value": 65
      },
      {
        "deltaTime": 0,
        "running": true,
        "channel": 0,
        "type": "controller",
        "controllerType": 64,
        "value": 85
      },
      {
        "deltaTime": 3,
        "channel": 0,
        "type": "noteOff",
        "noteNumber": 53,
        "velocity": 0,
        "byte9": true
      },
      {
        "deltaTime": 2,
        "channel": 0,
        "type": "noteOff",
        "noteNumber": 44,
        "velocity": 0,
        "byte9": true
      },
      {
        "deltaTime": 20,
        "running": true,
        "channel": 0,
        "type": "noteOff",
        "noteNumber": 37,
        "velocity": 0,
        "byte9": true
      },
      {
        "deltaTime": 0,
        "channel": 0,
        "type": "noteOff",
        "noteNumber": 65,
        "velocity": 0,
        "byte9": true
      },
      {
        "deltaTime": 27,
        "channel": 0,
        "type": "controller",
        "controllerType": 85,
        "value": 2
      },
      {
        "deltaTime": 0,
        "running": true,
        "channel": 0,
        "type": "controller",
        "controllerType": 86,
        "value": 2
      },
      {
        "deltaTime": 5,
        "running": true,
        "channel": 0,
        "type": "controller",
        "controllerType": 64,
        "value": 64
      },
      {
        "deltaTime": 9,
        "running": true,
        "channel": 0,
        "type": "controller",
        "controllerType": 64,
        "value": 23
      },
      {
        "deltaTime": 0,
        "running": true,
        "channel": 0,
        "type": "controller",
        "controllerType": 64,
        "value": 22
      },
      {
        "deltaTime": 5,
        "running": true,
        "channel": 0,
        "type": "controller",
        "controllerType": 64,
        "value": 10
      },
      {
        "deltaTime": 0,
        "running": true,
        "channel": 0,
        "type": "controller",
        "controllerType": 64,
        "value": 0
      },
      {
        "deltaTime": 3,
        "channel": 0,
        "type": "noteOn",
        "noteNumber": 65,
        "velocity": 52
      },
      {
        "deltaTime": 5,
        "running": true,
        "channel": 0,
        "type": "noteOn",
        "noteNumber": 58,
        "velocity": 58
      },
      {
        "deltaTime": 1,
        "running": true,
        "channel": 0,
        "type": "noteOn",
        "noteNumber": 53,
        "velocity": 52
      },
      {
        "deltaTime": 2,
        "channel": 0,
        "type": "noteOn",
        "noteNumber": 36,
        "velocity": 54
      },
      {
        "deltaTime": 23,
        "channel": 0,
        "type": "controller",
        "controllerType": 64,
        "value": 22
      },
      {
        "deltaTime": 11,
        "running": true,
        "channel": 0,
        "type": "controller",
        "controllerType": 64,
        "value": 64
      },
      {
        "deltaTime": 14,
        "running": true,
        "channel": 0,
        "type": "controller",
        "controllerType": 64,
        "value": 65
      },
      {
        "deltaTime": 0,
        "running": true,
        "channel": 0,
        "type": "controller",
        "controllerType": 64,
        "value": 85
      },
      {
        "deltaTime": 23,
        "channel": 0,
        "type": "noteOff",
        "noteNumber": 65,
        "velocity": 0,
        "byte9": true
      },
      {
        "deltaTime": 6,
        "channel": 0,
        "type": "noteOff",
        "noteNumber": 36,
        "velocity": 0,
        "byte9": true
      },
      {
        "deltaTime": 13,
        "channel": 0,
        "type": "controller",
        "controllerType": 85,
        "value": 2
      },
      {
        "deltaTime": 0,
        "running": true,
        "channel": 0,
        "type": "controller",
        "controllerType": 86,
        "value": 2
      },
      {
        "deltaTime": 6,
        "channel": 0,
        "type": "noteOff",
        "noteNumber": 53,
        "velocity": 0,
        "byte9": true
      },
      {
        "deltaTime": 28,
        "running": true,
        "channel": 0,
        "type": "noteOff",
        "noteNumber": 58,
        "velocity": 0,
        "byte9": true
      },
      {
        "deltaTime": 60,
        "channel": 0,
        "type": "controller",
        "controllerType": 64,
        "value": 64
      },
      {
        "deltaTime": 6,
        "running": true,
        "channel": 0,
        "type": "controller",
        "controllerType": 64,
        "value": 23
      },
      {
        "deltaTime": 0,
        "running": true,
        "channel": 0,
        "type": "controller",
        "controllerType": 64,
        "value": 22
      },
      {
        "deltaTime": 3,
        "running": true,
        "channel": 0,
        "type": "controller",
        "controllerType": 64,
        "value": 12
      },
      {
        "deltaTime": 0,
        "running": true,
        "channel": 0,
        "type": "controller",
        "controllerType": 64,
        "value": 0
      },
      {
        "deltaTime": 0,
        "channel": 0,
        "type": "noteOn",
        "noteNumber": 64,
        "velocity": 54
      },
      {
        "deltaTime": 3,
        "running": true,
        "channel": 0,
        "type": "noteOn",
        "noteNumber": 55,
        "velocity": 50
      },
      {
        "deltaTime": 4,
        "running": true,
        "channel": 0,
        "type": "noteOn",
        "noteNumber": 57,
        "velocity": 59
      },
      {
        "deltaTime": 0,
        "running": true,
        "channel": 0,
        "type": "noteOn",
        "noteNumber": 60,
        "velocity": 51
      },
      {
        "deltaTime": 1,
        "channel": 0,
        "type": "noteOn",
        "noteNumber": 29,
        "velocity": 58
      },
      {
        "deltaTime": 1,
        "running": true,
        "channel": 0,
        "type": "noteOn",
        "noteNumber": 41,
        "velocity": 43
      },
      {
        "deltaTime": 30,
        "channel": 0,
        "type": "controller",
        "controllerType": 64,
        "value": 22
      },
      {
        "deltaTime": 6,
        "running": true,
        "channel": 0,
        "type": "controller",
        "controllerType": 64,
        "value": 64
      },
      {
        "deltaTime": 8,
        "channel": 0,
        "type": "noteOff",
        "noteNumber": 55,
        "velocity": 0,
        "byte9": true
      },
      {
        "deltaTime": 1,
        "channel": 0,
        "type": "controller",
        "controllerType": 64,
        "value": 65
      },
      {
        "deltaTime": 0,
        "running": true,
        "channel": 0,
        "type": "controller",
        "controllerType": 64,
        "value": 85
      },
      {
        "deltaTime": 4,
        "channel": 0,
        "type": "noteOff",
        "noteNumber": 57,
        "velocity": 0,
        "byte9": true
      },
      {
        "deltaTime": 3,
        "channel": 0,
        "type": "noteOff",
        "noteNumber": 29,
        "velocity": 0,
        "byte9": true
      },
      {
        "deltaTime": 4,
        "channel": 0,
        "type": "noteOff",
        "noteNumber": 60,
        "velocity": 0,
        "byte9": true
      },
      {
        "deltaTime": 10,
        "running": true,
        "channel": 0,
        "type": "noteOff",
        "noteNumber": 64,
        "velocity": 0,
        "byte9": true
      },
      {
        "deltaTime": 0,
        "channel": 0,
        "type": "noteOff",
        "noteNumber": 41,
        "velocity": 0,
        "byte9": true
      },
      {
        "deltaTime": 102,
        "running": true,
        "channel": 0,
        "type": "noteOn",
        "noteNumber": 57,
        "velocity": 47
      },
      {
        "deltaTime": 0,
        "channel": 0,
        "type": "noteOn",
        "noteNumber": 81,
        "velocity": 45
      },
      {
        "deltaTime": 0,
        "running": true,
        "channel": 0,
        "type": "noteOn",
        "noteNumber": 69,
        "velocity": 44
      },
      {
        "deltaTime": 18,
        "running": true,
        "channel": 0,
        "type": "noteOff",
        "noteNumber": 69,
        "velocity": 0,
        "byte9": true
      },
      {
        "deltaTime": 8,
        "channel": 0,
        "type": "noteOff",
        "noteNumber": 57,
        "velocity": 0,
        "byte9": true
      },
      {
        "deltaTime": 0,
        "channel": 0,
        "type": "noteOff",
        "noteNumber": 81,
        "velocity": 0,
        "byte9": true
      },
      {
        "deltaTime": 57,
        "channel": 0,
        "type": "noteOn",
        "noteNumber": 62,
        "velocity": 41
      },
      {
        "deltaTime": 5,
        "channel": 0,
        "type": "noteOn",
        "noteNumber": 86,
        "velocity": 35
      },
      {
        "deltaTime": 20,
        "channel": 0,
        "type": "noteOff",
        "noteNumber": 62,
        "velocity": 0,
        "byte9": true
      },
      {
        "deltaTime": 3,
        "channel": 0,
        "type": "noteOff",
        "noteNumber": 86,
        "velocity": 0,
        "byte9": true
      },
      {
        "deltaTime": 84,
        "running": true,
        "channel": 0,
        "type": "noteOn",
        "noteNumber": 79,
        "velocity": 54
      },
      {
        "deltaTime": 4,
        "running": true,
        "channel": 0,
        "type": "noteOn",
        "noteNumber": 91,
        "velocity": 31
      },
      {
        "deltaTime": 13,
        "channel": 0,
        "type": "noteOn",
        "noteNumber": 67,
        "velocity": 19
      },
      {
        "deltaTime": 4,
        "channel": 0,
        "type": "noteOff",
        "noteNumber": 79,
        "velocity": 0,
        "byte9": true
      },
      {
        "deltaTime": 6,
        "running": true,
        "channel": 0,
        "type": "noteOff",
        "noteNumber": 91,
        "velocity": 0,
        "byte9": true
      },
      {
        "deltaTime": 42,
        "channel": 0,
        "type": "noteOff",
        "noteNumber": 67,
        "velocity": 0,
        "byte9": true
      },
      {
        "deltaTime": 17,
        "channel": 0,
        "type": "noteOn",
        "noteNumber": 81,
        "velocity": 59
      },
      {
        "deltaTime": 1,
        "running": true,
        "channel": 0,
        "type": "noteOn",
        "noteNumber": 93,
        "velocity": 63
      },
      {
        "deltaTime": 1,
        "channel": 0,
        "type": "noteOn",
        "noteNumber": 69,
        "velocity": 46
      },
      {
        "deltaTime": 14,
        "channel": 0,
        "type": "noteOff",
        "noteNumber": 81,
        "velocity": 0,
        "byte9": true
      },
      {
        "deltaTime": 9,
        "running": true,
        "channel": 0,
        "type": "noteOff",
        "noteNumber": 93,
        "velocity": 0,
        "byte9": true
      },
      {
        "deltaTime": 13,
        "channel": 0,
        "type": "noteOff",
        "noteNumber": 69,
        "velocity": 0,
        "byte9": true
      },
      {
        "deltaTime": 1,
        "channel": 0,
        "type": "controller",
        "controllerType": 85,
        "value": 2
      },
      {
        "deltaTime": 0,
        "running": true,
        "channel": 0,
        "type": "controller",
        "controllerType": 86,
        "value": 2
      },
      {
        "deltaTime": 29,
        "channel": 0,
        "type": "noteOn",
        "noteNumber": 86,
        "velocity": 51
      },
      {
        "deltaTime": 7,
        "running": true,
        "channel": 0,
        "type": "noteOn",
        "noteNumber": 98,
        "velocity": 67
      },
      {
        "deltaTime": 6,
        "channel": 0,
        "type": "noteOn",
        "noteNumber": 74,
        "velocity": 43
      },
      {
        "deltaTime": 16,
        "channel": 0,
        "type": "noteOff",
        "noteNumber": 86,
        "velocity": 0,
        "byte9": true
      },
      {
        "deltaTime": 20,
        "channel": 0,
        "type": "noteOff",
        "noteNumber": 74,
        "velocity": 0,
        "byte9": true
      },
      {
        "deltaTime": 5,
        "channel": 0,
        "type": "noteOff",
        "noteNumber": 98,
        "velocity": 0,
        "byte9": true
      },
      {
        "deltaTime": 37,
        "channel": 0,
        "type": "controller",
        "controllerType": 85,
        "value": 2
      },
      {
        "deltaTime": 0,
        "running": true,
        "channel": 0,
        "type": "controller",
        "controllerType": 86,
        "value": 2
      },
      {
        "deltaTime": 29,
        "channel": 0,
        "type": "noteOn",
        "noteNumber": 74,
        "velocity": 40
      },
      {
        "deltaTime": 2,
        "channel": 0,
        "type": "noteOn",
        "noteNumber": 98,
        "velocity": 46
      },
      {
        "deltaTime": 3,
        "running": true,
        "channel": 0,
        "type": "noteOn",
        "noteNumber": 86,
        "velocity": 38
      },
      {
        "deltaTime": 24,
        "channel": 0,
        "type": "noteOff",
        "noteNumber": 74,
        "velocity": 0,
        "byte9": true
      },
      {
        "deltaTime": 0,
        "channel": 0,
        "type": "noteOff",
        "noteNumber": 86,
        "velocity": 0,
        "byte9": true
      },
      {
        "deltaTime": 3,
        "running": true,
        "channel": 0,
        "type": "noteOff",
        "noteNumber": 98,
        "velocity": 0,
        "byte9": true
      },
      {
        "deltaTime": 61,
        "running": true,
        "channel": 0,
        "type": "noteOn",
        "noteNumber": 86,
        "velocity": 47
      },
      {
        "deltaTime": 1,
        "running": true,
        "channel": 0,
        "type": "noteOn",
        "noteNumber": 98,
        "velocity": 48
      },
      {
        "deltaTime": 3,
        "channel": 0,
        "type": "noteOn",
        "noteNumber": 74,
        "velocity": 33
      },
      {
        "deltaTime": 27,
        "channel": 0,
        "type": "noteOff",
        "noteNumber": 86,
        "velocity": 0,
        "byte9": true
      },
      {
        "deltaTime": 1,
        "channel": 0,
        "type": "noteOff",
        "noteNumber": 74,
        "velocity": 0,
        "byte9": true
      },
      {
        "deltaTime": 3,
        "channel": 0,
        "type": "noteOff",
        "noteNumber": 98,
        "velocity": 0,
        "byte9": true
      },
      {
        "deltaTime": 67,
        "channel": 0,
        "type": "noteOn",
        "noteNumber": 74,
        "velocity": 39
      },
      {
        "deltaTime": 2,
        "channel": 0,
        "type": "noteOn",
        "noteNumber": 86,
        "velocity": 44
      },
      {
        "deltaTime": 0,
        "running": true,
        "channel": 0,
        "type": "noteOn",
        "noteNumber": 98,
        "velocity": 40
      },
      {
        "deltaTime": 41,
        "channel": 0,
        "type": "controller",
        "controllerType": 64,
        "value": 0
      },
      {
        "deltaTime": 16,
        "channel": 0,
        "type": "noteOff",
        "noteNumber": 98,
        "velocity": 0,
        "byte9": true
      },
      {
        "deltaTime": 3,
        "channel": 0,
        "type": "noteOff",
        "noteNumber": 74,
        "velocity": 0,
        "byte9": true
      },
      {
        "deltaTime": 15,
        "channel": 0,
        "type": "noteOff",
        "noteNumber": 86,
        "velocity": 0,
        "byte9": true
      },
      {
        "deltaTime": 193,
        "channel": 0,
        "type": "controller",
        "controllerType": 64,
        "value": 64
      },
      {
        "deltaTime": 8,
        "running": true,
        "channel": 0,
        "type": "controller",
        "controllerType": 64,
        "value": 23
      },
      {
        "deltaTime": 0,
        "running": true,
        "channel": 0,
        "type": "controller",
        "controllerType": 64,
        "value": 22
      },
      {
        "deltaTime": 2,
        "running": true,
        "channel": 0,
        "type": "controller",
        "controllerType": 64,
        "value": 11
      },
      {
        "deltaTime": 0,
        "running": true,
        "channel": 0,
        "type": "controller",
        "controllerType": 64,
        "value": 0
      },
      { "deltaTime": 0, "meta": true, "type": "endOfTrack" }
    ]
  ]
}
