{
  "header": { "format": 1, "numTracks": 1, "ticksPerBeat": 120 },
  "tracks": [
    [
      {
        "deltaTime": 0,
        "meta": true,
        "type": "timeSignature",
        "numerator": 4,
        "denominator": 4,
        "metronome": 24,
        "thirtyseconds": 8
      },
      {
        "deltaTime": 0,
        "meta": true,
        "type": "keySignature",
        "key": 0,
        "scale": 0
      },
      {
        "deltaTime": 0,
        "meta": true,
        "type": "setTempo",
        "microsecondsPerBeat": 500000
      },
      {
        "deltaTime": 0,
        "channel": 0,
        "type": "controller",
        "controllerType": 64,
        "value": 0
      },
      {
        "deltaTime": 0,
        "running": true,
        "channel": 0,
        "type": "controller",
        "controllerType": 64,
        "value": 0
      },
      {
        "deltaTime": 58,
        "running": true,
        "channel": 0,
        "type": "controller",
        "controllerType": 64,
        "value": 64
      },
      {
        "deltaTime": 30,
        "running": true,
        "channel": 0,
        "type": "controller",
        "controllerType": 64,
        "value": 23
      },
      {
        "deltaTime": 0,
        "running": true,
        "channel": 0,
        "type": "controller",
        "controllerType": 64,
        "value": 22
      },
      {
        "deltaTime": 26,
        "running": true,
        "channel": 0,
        "type": "controller",
        "controllerType": 64,
        "value": 2
      },
      {
        "deltaTime": 0,
        "running": true,
        "channel": 0,
        "type": "controller",
        "controllerType": 64,
        "value": 1
      },
      {
        "deltaTime": 0,
        "running": true,
        "channel": 0,
        "type": "controller",
        "controllerType": 64,
        "value": 0
      },
      {
        "deltaTime": 53,
        "channel": 0,
        "type": "noteOn",
        "noteNumber": 82,
        "velocity": 111
      },
      {
        "deltaTime": 1,
        "running": true,
        "channel": 0,
        "type": "noteOn",
        "noteNumber": 74,
        "velocity": 106
      },
      {
        "deltaTime": 6,
        "channel": 0,
        "type": "controller",
        "controllerType": 64,
        "value": 22
      },
      {
        "deltaTime": 7,
        "running": true,
        "channel": 0,
        "type": "controller",
        "controllerType": 64,
        "value": 64
      },
      {
        "deltaTime": 9,
        "running": true,
        "channel": 0,
        "type": "controller",
        "controllerType": 64,
        "value": 65
      },
      {
        "deltaTime": 0,
        "running": true,
        "channel": 0,
        "type": "controller",
        "controllerType": 64,
        "value": 85
      },
      {
        "deltaTime": 55,
        "channel": 0,
        "type": "noteOff",
        "noteNumber": 74,
        "velocity": 0,
        "byte9": true
      },
      {
        "deltaTime": 4,
        "running": true,
        "channel": 0,
        "type": "noteOff",
        "noteNumber": 82,
        "velocity": 0,
        "byte9": true
      },
      {
        "deltaTime": 38,
        "running": true,
        "channel": 0,
        "type": "noteOn",
        "noteNumber": 81,
        "velocity": 91
      },
      {
        "deltaTime": 5,
        "running": true,
        "channel": 0,
        "type": "noteOn",
        "noteNumber": 72,
        "velocity": 84
      },
      {
        "deltaTime": 24,
        "running": true,
        "channel": 0,
        "type": "noteOff",
        "noteNumber": 72,
        "velocity": 0,
        "byte9": true
      },
      {
        "deltaTime": 6,
        "running": true,
        "channel": 0,
        "type": "noteOff",
        "noteNumber": 81,
        "velocity": 0,
        "byte9": true
      },
      {
        "deltaTime": 65,
        "channel": 0,
        "type": "controller",
        "controllerType": 64,
        "value": 64
      },
      {
        "deltaTime": 7,
        "running": true,
        "channel": 0,
        "type": "controller",
        "controllerType": 64,
        "value": 23
      },
      {
        "deltaTime": 0,
        "running": true,
        "channel": 0,
        "type": "controller",
        "controllerType": 64,
        "value": 22
      },
      {
        "deltaTime": 7,
        "channel": 0,
        "type": "noteOn",
        "noteNumber": 84,
        "velocity": 85
      },
      {
        "deltaTime": 0,
        "channel": 0,
        "type": "controller",
        "controllerType": 64,
        "value": 5
      },
      {
        "deltaTime": 0,
        "running": true,
        "channel": 0,
        "type": "controller",
        "controllerType": 64,
        "value": 0
      },
      {
        "deltaTime": 1,
        "channel": 0,
        "type": "noteOn",
        "noteNumber": 79,
        "velocity": 84
      },
      {
        "deltaTime": 1,
        "running": true,
        "channel": 0,
        "type": "noteOn",
        "noteNumber": 74,
        "velocity": 75
      },
      {
        "deltaTime": 2,
        "running": true,
        "channel": 0,
        "type": "noteOn",
        "noteNumber": 39,
        "velocity": 78
      },
      {
        "deltaTime": 10,
        "channel": 0,
        "type": "controller",
        "controllerType": 64,
        "value": 22
      },
      {
        "deltaTime": 10,
        "running": true,
        "channel": 0,
        "type": "controller",
        "controllerType": 64,
        "value": 47
      },
      {
        "deltaTime": 0,
        "running": true,
        "channel": 0,
        "type": "controller",
        "controllerType": 64,
        "value": 64
      },
      {
        "deltaTime": 8,
        "running": true,
        "channel": 0,
        "type": "controller",
        "controllerType": 64,
        "value": 65
      },
      {
        "deltaTime": 0,
        "running": true,
        "channel": 0,
        "type": "controller",
        "controllerType": 64,
        "value": 85
      },
      {
        "deltaTime": 5,
        "channel": 0,
        "type": "noteOff",
        "noteNumber": 79,
        "velocity": 0,
        "byte9": true
      },
      {
        "deltaTime": 0,
        "running": true,
        "channel": 0,
        "type": "noteOff",
        "noteNumber": 84,
        "velocity": 0,
        "byte9": true
      },
      {
        "deltaTime": 6,
        "running": true,
        "channel": 0,
        "type": "noteOff",
        "noteNumber": 74,
        "velocity": 0,
        "byte9": true
      },
      {
        "deltaTime": 1,
        "channel": 0,
        "type": "controller",
        "controllerType": 64,
        "value": 113
      },
      {
        "deltaTime": 34,
        "channel": 0,
        "type": "noteOff",
        "noteNumber": 39,
        "velocity": 0,
        "byte9": true
      },
      {
        "deltaTime": 26,
        "running": true,
        "channel": 0,
        "type": "noteOn",
        "noteNumber": 46,
        "velocity": 73
      },
      {
        "deltaTime": 4,
        "running": true,
        "channel": 0,
        "type": "noteOn",
        "noteNumber": 82,
        "velocity": 84
      },
      {
        "deltaTime": 17,
        "running": true,
        "channel": 0,
        "type": "noteOff",
        "noteNumber": 46,
        "velocity": 0,
        "byte9": true
      },
      {
        "deltaTime": 23,
        "running": true,
        "channel": 0,
        "type": "noteOff",
        "noteNumber": 82,
        "velocity": 0,
        "byte9": true
      },
      {
        "deltaTime": 105,
        "running": true,
        "channel": 0,
        "type": "noteOn",
        "noteNumber": 82,
        "velocity": 84
      },
      {
        "deltaTime": 3,
        "running": true,
        "channel": 0,
        "type": "noteOn",
        "noteNumber": 67,
        "velocity": 55
      },
      {
        "deltaTime": 0,
        "running": true,
        "channel": 0,
        "type": "noteOn",
        "noteNumber": 62,
        "velocity": 56
      },
      {
        "deltaTime": 2,
        "running": true,
        "channel": 0,
        "type": "noteOn",
        "noteNumber": 63,
        "velocity": 55
      },
      {
        "deltaTime": 2,
        "channel": 0,
        "type": "controller",
        "controllerType": 64,
        "value": 106
      },
      {
        "deltaTime": 6,
        "running": true,
        "channel": 0,
        "type": "controller",
        "controllerType": 64,
        "value": 64
      },
      {
        "deltaTime": 9,
        "running": true,
        "channel": 0,
        "type": "controller",
        "controllerType": 64,
        "value": 23
      },
      {
        "deltaTime": 0,
        "running": true,
        "channel": 0,
        "type": "controller",
        "controllerType": 64,
        "value": 22
      },
      {
        "deltaTime": 25,
        "running": true,
        "channel": 0,
        "type": "controller",
        "controllerType": 64,
        "value": 64
      },
      {
        "deltaTime": 10,
        "running": true,
        "channel": 0,
        "type": "controller",
        "controllerType": 64,
        "value": 65
      },
      {
        "deltaTime": 0,
        "running": true,
        "channel": 0,
        "type": "controller",
        "controllerType": 64,
        "value": 85
      },
      {
        "deltaTime": 64,
        "channel": 0,
        "type": "noteOff",
        "noteNumber": 82,
        "velocity": 0,
        "byte9": true
      },
      {
        "deltaTime": 5,
        "running": true,
        "channel": 0,
        "type": "noteOn",
        "noteNumber": 81,
        "velocity": 65
      },
      {
        "deltaTime": 18,
        "running": true,
        "channel": 0,
        "type": "noteOff",
        "noteNumber": 67,
        "velocity": 0,
        "byte9": true
      },
      {
        "deltaTime": 15,
        "running": true,
        "channel": 0,
        "type": "noteOff",
        "noteNumber": 62,
        "velocity": 0,
        "byte9": true
      },
      {
        "deltaTime": 8,
        "running": true,
        "channel": 0,
        "type": "noteOff",
        "noteNumber": 63,
        "velocity": 0,
        "byte9": true
      },
      {
        "deltaTime": 8,
        "running": true,
        "channel": 0,
        "type": "noteOff",
        "noteNumber": 81,
        "velocity": 0,
        "byte9": true
      },
      {
        "deltaTime": 64,
        "running": true,
        "channel": 0,
        "type": "noteOn",
        "noteNumber": 84,
        "velocity": 77
      },
      {
        "deltaTime": 1,
        "running": true,
        "channel": 0,
        "type": "noteOn",
        "noteNumber": 68,
        "velocity": 58
      },
      {
        "deltaTime": 1,
        "running": true,
        "channel": 0,
        "type": "noteOn",
        "noteNumber": 77,
        "velocity": 62
      },
      {
        "deltaTime": 2,
        "running": true,
        "channel": 0,
        "type": "noteOn",
        "noteNumber": 72,
        "velocity": 51
      },
      {
        "deltaTime": 0,
        "running": true,
        "channel": 0,
        "type": "noteOn",
        "noteNumber": 60,
        "velocity": 43
      },
      {
        "deltaTime": 3,
        "channel": 0,
        "type": "controller",
        "controllerType": 64,
        "value": 64
      },
      {
        "deltaTime": 0,
        "channel": 0,
        "type": "noteOn",
        "noteNumber": 63,
        "velocity": 44
      },
      {
        "deltaTime": 11,
        "channel": 0,
        "type": "controller",
        "controllerType": 64,
        "value": 23
      },
      {
        "deltaTime": 0,
        "running": true,
        "channel": 0,
        "type": "controller",
        "controllerType": 64,
        "value": 22
      },
      {
        "deltaTime": 4,
        "running": true,
        "channel": 0,
        "type": "controller",
        "controllerType": 64,
        "value": 7
      },
      {
        "deltaTime": 0,
        "running": true,
        "channel": 0,
        "type": "controller",
        "controllerType": 64,
        "value": 1
      },
      {
        "deltaTime": 0,
        "running": true,
        "channel": 0,
        "type": "controller",
        "controllerType": 64,
        "value": 0
      },
      {
        "deltaTime": 67,
        "running": true,
        "channel": 0,
        "type": "controller",
        "controllerType": 64,
        "value": 22
      },
      {
        "deltaTime": 7,
        "running": true,
        "channel": 0,
        "type": "controller",
        "controllerType": 64,
        "value": 64
      },
      {
        "deltaTime": 11,
        "running": true,
        "channel": 0,
        "type": "controller",
        "controllerType": 64,
        "value": 65
      },
      {
        "deltaTime": 1,
        "running": true,
        "channel": 0,
        "type": "controller",
        "controllerType": 64,
        "value": 85
      },
      {
        "deltaTime": 13,
        "channel": 0,
        "type": "noteOff",
        "noteNumber": 84,
        "velocity": 0,
        "byte9": true
      },
      {
        "deltaTime": 13,
        "running": true,
        "channel": 0,
        "type": "noteOn",
        "noteNumber": 82,
        "velocity": 72
      },
      {
        "deltaTime": 4,
        "running": true,
        "channel": 0,
        "type": "noteOn",
        "noteNumber": 58,
        "velocity": 57
      },
      {
        "deltaTime": 5,
        "running": true,
        "channel": 0,
        "type": "noteOff",
        "noteNumber": 68,
        "velocity": 0,
        "byte9": true
      },
      {
        "deltaTime": 6,
        "running": true,
        "channel": 0,
        "type": "noteOff",
        "noteNumber": 60,
        "velocity": 0,
        "byte9": true
      },
      {
        "deltaTime": 0,
        "running": true,
        "channel": 0,
        "type": "noteOff",
        "noteNumber": 77,
        "velocity": 0,
        "byte9": true
      },
      {
        "deltaTime": 3,
        "running": true,
        "channel": 0,
        "type": "noteOff",
        "noteNumber": 63,
        "velocity": 0,
        "byte9": true
      },
      {
        "deltaTime": 15,
        "running": true,
        "channel": 0,
        "type": "noteOff",
        "noteNumber": 58,
        "velocity": 0,
        "byte9": true
      },
      {
        "deltaTime": 25,
        "running": true,
        "channel": 0,
        "type": "noteOff",
        "noteNumber": 72,
        "velocity": 0,
        "byte9": true
      },
      {
        "deltaTime": 14,
        "running": true,
        "channel": 0,
        "type": "noteOff",
        "noteNumber": 82,
        "velocity": 0,
        "byte9": true
      },
      {
        "deltaTime": 76,
        "running": true,
        "channel": 0,
        "type": "noteOn",
        "noteNumber": 46,
        "velocity": 67
      },
      {
        "deltaTime": 18,
        "channel": 0,
        "type": "controller",
        "controllerType": 64,
        "value": 64
      },
      {
        "deltaTime": 29,
        "running": true,
        "channel": 0,
        "type": "controller",
        "controllerType": 64,
        "value": 85
      },
      {
        "deltaTime": 11,
        "running": true,
        "channel": 0,
        "type": "controller",
        "controllerType": 64,
        "value": 113
      },
      {
        "deltaTime": 190,
        "channel": 0,
        "type": "noteOn",
        "noteNumber": 79,
        "velocity": 66
      },
      {
        "deltaTime": 41,
        "running": true,
        "channel": 0,
        "type": "noteOff",
        "noteNumber": 79,
        "velocity": 0,
        "byte9": true
      },
      {
        "deltaTime": 71,
        "running": true,
        "channel": 0,
        "type": "noteOff",
        "noteNumber": 46,
        "velocity": 0,
        "byte9": true
      },
      {
        "deltaTime": 74,
        "running": true,
        "channel": 0,
        "type": "noteOn",
        "noteNumber": 75,
        "velocity": 57
      },
      {
        "deltaTime": 66,
        "running": true,
        "channel": 0,
        "type": "noteOff",
        "noteNumber": 75,
        "velocity": 0,
        "byte9": true
      },
      {
        "deltaTime": 251,
        "channel": 0,
        "type": "controller",
        "controllerType": 64,
        "value": 106
      },
      {
        "deltaTime": 5,
        "channel": 0,
        "type": "noteOn",
        "noteNumber": 72,
        "velocity": 64
      },
      {
        "deltaTime": 0,
        "running": true,
        "channel": 0,
        "type": "noteOn",
        "noteNumber": 63,
        "velocity": 50
      },
      {
        "deltaTime": 1,
        "running": true,
        "channel": 0,
        "type": "noteOn",
        "noteNumber": 66,
        "velocity": 56
      },
      {
        "deltaTime": 1,
        "channel": 0,
        "type": "controller",
        "controllerType": 64,
        "value": 64
      },
      {
        "deltaTime": 1,
        "channel": 0,
        "type": "noteOn",
        "noteNumber": 57,
        "velocity": 45
      },
      {
        "deltaTime": 9,
        "channel": 0,
        "type": "controller",
        "controllerType": 64,
        "value": 23
      },
      {
        "deltaTime": 1,
        "running": true,
        "channel": 0,
        "type": "controller",
        "controllerType": 64,
        "value": 22
      },
      {
        "deltaTime": 0,
        "channel": 0,
        "type": "noteOn",
        "noteNumber": 69,
        "velocity": 43
      },
      {
        "deltaTime": 5,
        "channel": 0,
        "type": "controller",
        "controllerType": 64,
        "value": 5
      },
      {
        "deltaTime": 1,
        "running": true,
        "channel": 0,
        "type": "controller",
        "controllerType": 64,
        "value": 0
      },
      {
        "deltaTime": 17,
        "running": true,
        "channel": 0,
        "type": "controller",
        "controllerType": 64,
        "value": 22
      },
      {
        "deltaTime": 7,
        "running": true,
        "channel": 0,
        "type": "controller",
        "controllerType": 64,
        "value": 46
      },
      {
        "deltaTime": 1,
        "running": true,
        "channel": 0,
        "type": "controller",
        "controllerType": 64,
        "value": 64
      },
      {
        "deltaTime": 7,
        "running": true,
        "channel": 0,
        "type": "controller",
        "controllerType": 64,
        "value": 65
      },
      {
        "deltaTime": 0,
        "running": true,
        "channel": 0,
        "type": "controller",
        "controllerType": 64,
        "value": 85
      },
      {
        "deltaTime": 10,
        "running": true,
        "channel": 0,
        "type": "controller",
        "controllerType": 64,
        "value": 113
      },
      {
        "deltaTime": 35,
        "channel": 0,
        "type": "noteOff",
        "noteNumber": 72,
        "velocity": 0,
        "byte9": true
      },
      {
        "deltaTime": 46,
        "running": true,
        "channel": 0,
        "type": "noteOn",
        "noteNumber": 72,
        "velocity": 68
      },
      {
        "deltaTime": 2,
        "running": true,
        "channel": 0,
        "type": "noteOff",
        "noteNumber": 57,
        "velocity": 0,
        "byte9": true
      },
      {
        "deltaTime": 43,
        "running": true,
        "channel": 0,
        "type": "noteOff",
        "noteNumber": 69,
        "velocity": 0,
        "byte9": true
      },
      {
        "deltaTime": 13,
        "running": true,
        "channel": 0,
        "type": "noteOff",
        "noteNumber": 72,
        "velocity": 0,
        "byte9": true
      },
      {
        "deltaTime": 9,
        "running": true,
        "channel": 0,
        "type": "noteOff",
        "noteNumber": 66,
        "velocity": 0,
        "byte9": true
      },
      {
        "deltaTime": 12,
        "running": true,
        "channel": 0,
        "type": "noteOff",
        "noteNumber": 63,
        "velocity": 0,
        "byte9": true
      },
      {
        "deltaTime": 86,
        "channel": 0,
        "type": "controller",
        "controllerType": 64,
        "value": 106
      },
      {
        "deltaTime": 4,
        "channel": 0,
        "type": "noteOn",
        "noteNumber": 70,
        "velocity": 69
      },
      {
        "deltaTime": 4,
        "running": true,
        "channel": 0,
        "type": "noteOn",
        "noteNumber": 63,
        "velocity": 55
      },
      {
        "deltaTime": 0,
        "channel": 0,
        "type": "controller",
        "controllerType": 64,
        "value": 64
      },
      {
        "deltaTime": 3,
        "channel": 0,
        "type": "noteOn",
        "noteNumber": 58,
        "velocity": 33
      },
      {
        "deltaTime": 1,
        "running": true,
        "channel": 0,
        "type": "noteOn",
        "noteNumber": 67,
        "velocity": 51
      },
      {
        "deltaTime": 5,
        "running": true,
        "channel": 0,
        "type": "noteOn",
        "noteNumber": 55,
        "velocity": 30
      },
      {
        "deltaTime": 3,
        "channel": 0,
        "type": "controller",
        "controllerType": 64,
        "value": 23
      },
      {
        "deltaTime": 0,
        "running": true,
        "channel": 0,
        "type": "controller",
        "controllerType": 64,
        "value": 22
      },
      {
        "deltaTime": 10,
        "running": true,
        "channel": 0,
        "type": "controller",
        "controllerType": 64,
        "value": 3
      },
      {
        "deltaTime": 0,
        "running": true,
        "channel": 0,
        "type": "controller",
        "controllerType": 64,
        "value": 1
      },
      {
        "deltaTime": 0,
        "running": true,
        "channel": 0,
        "type": "controller",
        "controllerType": 64,
        "value": 0
      },
      {
        "deltaTime": 77,
        "running": true,
        "channel": 0,
        "type": "controller",
        "controllerType": 64,
        "value": 22
      },
      {
        "deltaTime": 27,
        "running": true,
        "channel": 0,
        "type": "controller",
        "controllerType": 64,
        "value": 64
      },
      {
        "deltaTime": 11,
        "channel": 0,
        "type": "noteOff",
        "noteNumber": 55,
        "velocity": 0,
        "byte9": true
      },
      {
        "deltaTime": 19,
        "running": true,
        "channel": 0,
        "type": "noteOn",
        "noteNumber": 46,
        "velocity": 71
      },
      {
        "deltaTime": 35,
        "channel": 0,
        "type": "controller",
        "controllerType": 64,
        "value": 65
      },
      {
        "deltaTime": 0,
        "running": true,
        "channel": 0,
        "type": "controller",
        "controllerType": 64,
        "value": 85
      },
      {
        "deltaTime": 7,
        "channel": 0,
        "type": "noteOff",
        "noteNumber": 67,
        "velocity": 0,
        "byte9": true
      },
      {
        "deltaTime": 19,
        "running": true,
        "channel": 0,
        "type": "noteOff",
        "noteNumber": 70,
        "velocity": 0,
        "byte9": true
      },
      {
        "deltaTime": 2,
        "running": true,
        "channel": 0,
        "type": "noteOff",
        "noteNumber": 63,
        "velocity": 0,
        "byte9": true
      },
      {
        "deltaTime": 4,
        "running": true,
        "channel": 0,
        "type": "noteOff",
        "noteNumber": 58,
        "velocity": 0,
        "byte9": true
      },
      {
        "deltaTime": 68,
        "running": true,
        "channel": 0,
        "type": "noteOff",
        "noteNumber": 46,
        "velocity": 0,
        "byte9": true
      },
      {
        "deltaTime": 22,
        "channel": 0,
        "type": "controller",
        "controllerType": 64,
        "value": 64
      },
      {
        "deltaTime": 1,
        "channel": 0,
        "type": "noteOn",
        "noteNumber": 55,
        "velocity": 58
      },
      {
        "deltaTime": 1,
        "running": true,
        "channel": 0,
        "type": "noteOn",
        "noteNumber": 60,
        "velocity": 56
      },
      {
        "deltaTime": 6,
        "channel": 0,
        "type": "controller",
        "controllerType": 64,
        "value": 23
      },
      {
        "deltaTime": 0,
        "running": true,
        "channel": 0,
        "type": "controller",
        "controllerType": 64,
        "value": 22
      },
      {
        "deltaTime": 4,
        "running": true,
        "channel": 0,
        "type": "controller",
        "controllerType": 64,
        "value": 9
      },
      {
        "deltaTime": 0,
        "running": true,
        "channel": 0,
        "type": "controller",
        "controllerType": 64,
        "value": 0
      },
      {
        "deltaTime": 0,
        "channel": 0,
        "type": "noteOn",
        "noteNumber": 45,
        "velocity": 64
      },
      {
        "deltaTime": 21,
        "channel": 0,
        "type": "controller",
        "controllerType": 64,
        "value": 22
      },
      {
        "deltaTime": 7,
        "running": true,
        "channel": 0,
        "type": "controller",
        "controllerType": 64,
        "value": 49
      },
      {
        "deltaTime": 0,
        "running": true,
        "channel": 0,
        "type": "controller",
        "controllerType": 64,
        "value": 64
      },
      {
        "deltaTime": 8,
        "running": true,
        "channel": 0,
        "type": "controller",
        "controllerType": 64,
        "value": 65
      },
      {
        "deltaTime": 0,
        "running": true,
        "channel": 0,
        "type": "controller",
        "controllerType": 64,
        "value": 85
      },
      {
        "deltaTime": 10,
        "running": true,
        "channel": 0,
        "type": "controller",
        "controllerType": 64,
        "value": 113
      },
      {
        "deltaTime": 9,
        "channel": 0,
        "type": "noteOff",
        "noteNumber": 55,
        "velocity": 0,
        "byte9": true
      },
      {
        "deltaTime": 12,
        "running": true,
        "channel": 0,
        "type": "noteOff",
        "noteNumber": 60,
        "velocity": 0,
        "byte9": true
      },
      {
        "deltaTime": 92,
        "running": true,
        "channel": 0,
        "type": "noteOn",
        "noteNumber": 75,
        "velocity": 98
      },
      {
        "deltaTime": 5,
        "running": true,
        "channel": 0,
        "type": "noteOn",
        "noteNumber": 67,
        "velocity": 93
      },
      {
        "deltaTime": 2,
        "running": true,
        "channel": 0,
        "type": "noteOn",
        "noteNumber": 55,
        "velocity": 66
      },
      {
        "deltaTime": 71,
        "running": true,
        "channel": 0,
        "type": "noteOff",
        "noteNumber": 55,
        "velocity": 0,
        "byte9": true
      },
      {
        "deltaTime": 1,
        "running": true,
        "channel": 0,
        "type": "noteOff",
        "noteNumber": 67,
        "velocity": 0,
        "byte9": true
      },
      {
        "deltaTime": 2,
        "running": true,
        "channel": 0,
        "type": "noteOff",
        "noteNumber": 45,
        "velocity": 0,
        "byte9": true
      },
      {
        "deltaTime": 25,
        "running": true,
        "channel": 0,
        "type": "noteOff",
        "noteNumber": 75,
        "velocity": 0,
        "byte9": true
      },
      {
        "deltaTime": 62,
        "channel": 0,
        "type": "controller",
        "controllerType": 64,
        "value": 106
      },
      {
        "deltaTime": 6,
        "running": true,
        "channel": 0,
        "type": "controller",
        "controllerType": 64,
        "value": 64
      },
      {
        "deltaTime": 4,
        "channel": 0,
        "type": "noteOn",
        "noteNumber": 75,
        "velocity": 87
      },
      {
        "deltaTime": 3,
        "channel": 0,
        "type": "controller",
        "controllerType": 64,
        "value": 23
      },
      {
        "deltaTime": 0,
        "running": true,
        "channel": 0,
        "type": "controller",
        "controllerType": 64,
        "value": 22
      },
      {
        "deltaTime": 2,
        "channel": 0,
        "type": "noteOn",
        "noteNumber": 67,
        "velocity": 74
      },
      {
        "deltaTime": 2,
        "channel": 0,
        "type": "controller",
        "controllerType": 64,
        "value": 10
      },
      {
        "deltaTime": 0,
        "running": true,
        "channel": 0,
        "type": "controller",
        "controllerType": 64,
        "value": 1
      },
      {
        "deltaTime": 0,
        "running": true,
        "channel": 0,
        "type": "controller",
        "controllerType": 64,
        "value": 0
      },
      {
        "deltaTime": 0,
        "channel": 0,
        "type": "noteOn",
        "noteNumber": 72,
        "velocity": 63
      },
      {
        "deltaTime": 1,
        "running": true,
        "channel": 0,
        "type": "noteOn",
        "noteNumber": 44,
        "velocity": 68
      },
      {
        "deltaTime": 34,
        "channel": 0,
        "type": "controller",
        "controllerType": 64,
        "value": 22
      },
      {
        "deltaTime": 6,
        "running": true,
        "channel": 0,
        "type": "controller",
        "controllerType": 64,
        "value": 48
      },
      {
        "deltaTime": 1,
        "running": true,
        "channel": 0,
        "type": "controller",
        "controllerType": 64,
        "value": 64
      },
      {
        "deltaTime": 7,
        "running": true,
        "channel": 0,
        "type": "controller",
        "controllerType": 64,
        "value": 65
      },
      {
        "deltaTime": 0,
        "running": true,
        "channel": 0,
        "type": "controller",
        "controllerType": 64,
        "value": 85
      },
      {
        "deltaTime": 45,
        "channel": 0,
        "type": "noteOff",
        "noteNumber": 72,
        "velocity": 0,
        "byte9": true
      },
      {
        "deltaTime": 2,
        "running": true,
        "channel": 0,
        "type": "noteOff",
        "noteNumber": 67,
        "velocity": 0,
        "byte9": true
      },
      {
        "deltaTime": 14,
        "running": true,
        "channel": 0,
        "type": "noteOff",
        "noteNumber": 75,
        "velocity": 0,
        "byte9": true
      },
      {
        "deltaTime": 29,
        "running": true,
        "channel": 0,
        "type": "noteOn",
        "noteNumber": 54,
        "velocity": 63
      },
      {
        "deltaTime": 0,
        "running": true,
        "channel": 0,
        "type": "noteOn",
        "noteNumber": 70,
        "velocity": 76
      },
      {
        "deltaTime": 0,
        "running": true,
        "channel": 0,
        "type": "noteOn",
        "noteNumber": 74,
        "velocity": 84
      },
      {
        "deltaTime": 3,
        "running": true,
        "channel": 0,
        "type": "noteOn",
        "noteNumber": 65,
        "velocity": 75
      },
      {
        "deltaTime": 22,
        "running": true,
        "channel": 0,
        "type": "noteOff",
        "noteNumber": 54,
        "velocity": 0,
        "byte9": true
      },
      {
        "deltaTime": 23,
        "running": true,
        "channel": 0,
        "type": "noteOff",
        "noteNumber": 65,
        "velocity": 0,
        "byte9": true
      },
      {
        "deltaTime": 23,
        "running": true,
        "channel": 0,
        "type": "noteOff",
        "noteNumber": 70,
        "velocity": 0,
        "byte9": true
      },
      {
        "deltaTime": 19,
        "running": true,
        "channel": 0,
        "type": "noteOff",
        "noteNumber": 74,
        "velocity": 0,
        "byte9": true
      },
      {
        "deltaTime": 4,
        "running": true,
        "channel": 0,
        "type": "noteOff",
        "noteNumber": 44,
        "velocity": 0,
        "byte9": true
      },
      {
        "deltaTime": 7,
        "channel": 0,
        "type": "controller",
        "controllerType": 64,
        "value": 64
      },
      {
        "deltaTime": 7,
        "running": true,
        "channel": 0,
        "type": "controller",
        "controllerType": 64,
        "value": 23
      },
      {
        "deltaTime": 0,
        "running": true,
        "channel": 0,
        "type": "controller",
        "controllerType": 64,
        "value": 22
      },
      {
        "deltaTime": 3,
        "running": true,
        "channel": 0,
        "type": "controller",
        "controllerType": 64,
        "value": 10
      },
      {
        "deltaTime": 1,
        "running": true,
        "channel": 0,
        "type": "controller",
        "controllerType": 64,
        "value": 1
      },
      {
        "deltaTime": 0,
        "running": true,
        "channel": 0,
        "type": "controller",
        "controllerType": 64,
        "value": 0
      },
      {
        "deltaTime": 8,
        "channel": 0,
        "type": "noteOn",
        "noteNumber": 74,
        "velocity": 79
      },
      {
        "deltaTime": 0,
        "running": true,
        "channel": 0,
        "type": "noteOn",
        "noteNumber": 43,
        "velocity": 77
      },
      {
        "deltaTime": 3,
        "running": true,
        "channel": 0,
        "type": "noteOn",
        "noteNumber": 70,
        "velocity": 84
      },
      {
        "deltaTime": 1,
        "running": true,
        "channel": 0,
        "type": "noteOn",
        "noteNumber": 65,
        "velocity": 82
      },
      {
        "deltaTime": 12,
        "channel": 0,
        "type": "controller",
        "controllerType": 64,
        "value": 22
      },
      {
        "deltaTime": 6,
        "running": true,
        "channel": 0,
        "type": "controller",
        "controllerType": 64,
        "value": 50
      },
      {
        "deltaTime": 0,
        "running": true,
        "channel": 0,
        "type": "controller",
        "controllerType": 64,
        "value": 64
      },
      {
        "deltaTime": 7,
        "running": true,
        "channel": 0,
        "type": "controller",
        "controllerType": 64,
        "value": 65
      },
      {
        "deltaTime": 0,
        "running": true,
        "channel": 0,
        "type": "controller",
        "controllerType": 64,
        "value": 85
      },
      {
        "deltaTime": 5,
        "channel": 0,
        "type": "noteOff",
        "noteNumber": 43,
        "velocity": 0,
        "byte9": true
      },
      {
        "deltaTime": 6,
        "channel": 0,
        "type": "controller",
        "controllerType": 64,
        "value": 113
      },
      {
        "deltaTime": 12,
        "channel": 0,
        "type": "noteOff",
        "noteNumber": 65,
        "velocity": 0,
        "byte9": true
      },
      {
        "deltaTime": 3,
        "running": true,
        "channel": 0,
        "type": "noteOff",
        "noteNumber": 74,
        "velocity": 0,
        "byte9": true
      },
      {
        "deltaTime": 15,
        "running": true,
        "channel": 0,
        "type": "noteOff",
        "noteNumber": 70,
        "velocity": 0,
        "byte9": true
      },
      {
        "deltaTime": 41,
        "channel": 0,
        "type": "controller",
        "controllerType": 64,
        "value": 106
      },
      {
        "deltaTime": 6,
        "running": true,
        "channel": 0,
        "type": "controller",
        "controllerType": 64,
        "value": 64
      },
      {
        "deltaTime": 6,
        "channel": 0,
        "type": "noteOn",
        "noteNumber": 72,
        "velocity": 92
      },
      {
        "deltaTime": 2,
        "channel": 0,
        "type": "controller",
        "controllerType": 64,
        "value": 23
      },
      {
        "deltaTime": 0,
        "running": true,
        "channel": 0,
        "type": "controller",
        "controllerType": 64,
        "value": 22
      },
      {
        "deltaTime": 0,
        "channel": 0,
        "type": "noteOn",
        "noteNumber": 65,
        "velocity": 90
      },
      {
        "deltaTime": 1,
        "running": true,
        "channel": 0,
        "type": "noteOn",
        "noteNumber": 62,
        "velocity": 79
      },
      {
        "deltaTime": 3,
        "running": true,
        "channel": 0,
        "type": "noteOn",
        "noteNumber": 57,
        "velocity": 76
      },
      {
        "deltaTime": 1,
        "channel": 0,
        "type": "controller",
        "controllerType": 64,
        "value": 7
      },
      {
        "deltaTime": 0,
        "running": true,
        "channel": 0,
        "type": "controller",
        "controllerType": 64,
        "value": 1
      },
      {
        "deltaTime": 0,
        "running": true,
        "channel": 0,
        "type": "controller",
        "controllerType": 64,
        "value": 0
      },
      {
        "deltaTime": 15,
        "running": true,
        "channel": 0,
        "type": "controller",
        "controllerType": 64,
        "value": 22
      },
      {
        "deltaTime": 10,
        "running": true,
        "channel": 0,
        "type": "controller",
        "controllerType": 64,
        "value": 48
      },
      {
        "deltaTime": 0,
        "running": true,
        "channel": 0,
        "type": "controller",
        "controllerType": 64,
        "value": 64
      },
      {
        "deltaTime": 10,
        "running": true,
        "channel": 0,
        "type": "controller",
        "controllerType": 64,
        "value": 65
      },
      {
        "deltaTime": 0,
        "running": true,
        "channel": 0,
        "type": "controller",
        "controllerType": 64,
        "value": 85
      },
      {
        "deltaTime": 48,
        "channel": 0,
        "type": "noteOff",
        "noteNumber": 62,
        "velocity": 0,
        "byte9": true
      },
      {
        "deltaTime": 3,
        "running": true,
        "channel": 0,
        "type": "noteOff",
        "noteNumber": 65,
        "velocity": 0,
        "byte9": true
      },
      {
        "deltaTime": 1,
        "running": true,
        "channel": 0,
        "type": "noteOff",
        "noteNumber": 72,
        "velocity": 0,
        "byte9": true
      },
      {
        "deltaTime": 22,
        "channel": 0,
        "type": "controller",
        "controllerType": 64,
        "value": 64
      },
      {
        "deltaTime": 2,
        "channel": 0,
        "type": "noteOff",
        "noteNumber": 57,
        "velocity": 0,
        "byte9": true
      },
      {
        "deltaTime": 5,
        "channel": 0,
        "type": "controller",
        "controllerType": 64,
        "value": 23
      },
      {
        "deltaTime": 0,
        "running": true,
        "channel": 0,
        "type": "controller",
        "controllerType": 64,
        "value": 22
      },
      {
        "deltaTime": 3,
        "channel": 0,
        "type": "noteOn",
        "noteNumber": 72,
        "velocity": 79
      },
      {
        "deltaTime": 2,
        "channel": 0,
        "type": "controller",
        "controllerType": 64,
        "value": 9
      },
      {
        "deltaTime": 0,
        "running": true,
        "channel": 0,
        "type": "controller",
        "controllerType": 64,
        "value": 1
      },
      {
        "deltaTime": 0,
        "running": true,
        "channel": 0,
        "type": "controller",
        "controllerType": 64,
        "value": 0
      },
      {
        "deltaTime": 0,
        "channel": 0,
        "type": "noteOn",
        "noteNumber": 56,
        "velocity": 70
      },
      {
        "deltaTime": 1,
        "running": true,
        "channel": 0,
        "type": "noteOn",
        "noteNumber": 62,
        "velocity": 74
      },
      {
        "deltaTime": 3,
        "running": true,
        "channel": 0,
        "type": "noteOn",
        "noteNumber": 65,
        "velocity": 74
      },
      {
        "deltaTime": 22,
        "channel": 0,
        "type": "controller",
        "controllerType": 64,
        "value": 22
      },
      {
        "deltaTime": 8,
        "running": true,
        "channel": 0,
        "type": "controller",
        "controllerType": 64,
        "value": 49
      },
      {
        "deltaTime": 0,
        "running": true,
        "channel": 0,
        "type": "controller",
        "controllerType": 64,
        "value": 64
      },
      {
        "deltaTime": 8,
        "running": true,
        "channel": 0,
        "type": "controller",
        "controllerType": 64,
        "value": 65
      },
      {
        "deltaTime": 0,
        "running": true,
        "channel": 0,
        "type": "controller",
        "controllerType": 64,
        "value": 85
      },
      {
        "deltaTime": 43,
        "channel": 0,
        "type": "noteOff",
        "noteNumber": 62,
        "velocity": 0,
        "byte9": true
      },
      {
        "deltaTime": 3,
        "running": true,
        "channel": 0,
        "type": "noteOff",
        "noteNumber": 65,
        "velocity": 0,
        "byte9": true
      },
      {
        "deltaTime": 16,
        "running": true,
        "channel": 0,
        "type": "noteOff",
        "noteNumber": 72,
        "velocity": 0,
        "byte9": true
      },
      {
        "deltaTime": 16,
        "channel": 0,
        "type": "controller",
        "controllerType": 64,
        "value": 64
      },
      {
        "deltaTime": 8,
        "running": true,
        "channel": 0,
        "type": "controller",
        "controllerType": 64,
        "value": 23
      },
      {
        "deltaTime": 0,
        "running": true,
        "channel": 0,
        "type": "controller",
        "controllerType": 64,
        "value": 22
      },
      {
        "deltaTime": 0,
        "channel": 0,
        "type": "noteOn",
        "noteNumber": 70,
        "velocity": 76
      },
      {
        "deltaTime": 5,
        "channel": 0,
        "type": "controller",
        "controllerType": 64,
        "value": 8
      },
      {
        "deltaTime": 0,
        "running": true,
        "channel": 0,
        "type": "controller",
        "controllerType": 64,
        "value": 1
      },
      {
        "deltaTime": 0,
        "running": true,
        "channel": 0,
        "type": "controller",
        "controllerType": 64,
        "value": 0
      },
      {
        "deltaTime": 1,
        "channel": 0,
        "type": "noteOn",
        "noteNumber": 62,
        "velocity": 65
      },
      {
        "deltaTime": 2,
        "running": true,
        "channel": 0,
        "type": "noteOn",
        "noteNumber": 55,
        "velocity": 65
      },
      {
        "deltaTime": 1,
        "running": true,
        "channel": 0,
        "type": "noteOff",
        "noteNumber": 56,
        "velocity": 0,
        "byte9": true
      },
      {
        "deltaTime": 18,
        "channel": 0,
        "type": "controller",
        "controllerType": 64,
        "value": 22
      },
      {
        "deltaTime": 7,
        "running": true,
        "channel": 0,
        "type": "controller",
        "controllerType": 64,
        "value": 48
      },
      {
        "deltaTime": 0,
        "running": true,
        "channel": 0,
        "type": "controller",
        "controllerType": 64,
        "value": 64
      },
      {
        "deltaTime": 7,
        "running": true,
        "channel": 0,
        "type": "controller",
        "controllerType": 64,
        "value": 65
      },
      {
        "deltaTime": 1,
        "running": true,
        "channel": 0,
        "type": "controller",
        "controllerType": 64,
        "value": 85
      },
      {
        "deltaTime": 32,
        "channel": 0,
        "type": "noteOff",
        "noteNumber": 70,
        "velocity": 0,
        "byte9": true
      },
      {
        "deltaTime": 16,
        "running": true,
        "channel": 0,
        "type": "noteOff",
        "noteNumber": 62,
        "velocity": 0,
        "byte9": true
      },
      {
        "deltaTime": 26,
        "running": true,
        "channel": 0,
        "type": "noteOff",
        "noteNumber": 55,
        "velocity": 0,
        "byte9": true
      },
      {
        "deltaTime": 20,
        "channel": 0,
        "type": "controller",
        "controllerType": 64,
        "value": 64
      },
      {
        "deltaTime": 1,
        "channel": 0,
        "type": "noteOn",
        "noteNumber": 70,
        "velocity": 66
      },
      {
        "deltaTime": 7,
        "running": true,
        "channel": 0,
        "type": "noteOn",
        "noteNumber": 64,
        "velocity": 59
      },
      {
        "deltaTime": 4,
        "channel": 0,
        "type": "controller",
        "controllerType": 64,
        "value": 23
      },
      {
        "deltaTime": 0,
        "running": true,
        "channel": 0,
        "type": "controller",
        "controllerType": 64,
        "value": 22
      },
      {
        "deltaTime": 0,
        "channel": 0,
        "type": "noteOn",
        "noteNumber": 58,
        "velocity": 58
      },
      {
        "deltaTime": 0,
        "running": true,
        "channel": 0,
        "type": "noteOn",
        "noteNumber": 48,
        "velocity": 56
      },
      {
        "deltaTime": 3,
        "channel": 0,
        "type": "controller",
        "controllerType": 64,
        "value": 8
      },
      {
        "deltaTime": 0,
        "running": true,
        "channel": 0,
        "type": "controller",
        "controllerType": 64,
        "value": 1
      },
      {
        "deltaTime": 1,
        "running": true,
        "channel": 0,
        "type": "controller",
        "controllerType": 64,
        "value": 0
      },
      {
        "deltaTime": 56,
        "running": true,
        "channel": 0,
        "type": "controller",
        "controllerType": 64,
        "value": 22
      },
      {
        "deltaTime": 7,
        "running": true,
        "channel": 0,
        "type": "controller",
        "controllerType": 64,
        "value": 64
      },
      {
        "deltaTime": 17,
        "running": true,
        "channel": 0,
        "type": "controller",
        "controllerType": 64,
        "value": 65
      },
      {
        "deltaTime": 0,
        "running": true,
        "channel": 0,
        "type": "controller",
        "controllerType": 64,
        "value": 85
      },
      {
        "deltaTime": 49,
        "running": true,
        "channel": 0,
        "type": "controller",
        "controllerType": 64,
        "value": 64
      },
      {
        "deltaTime": 3,
        "channel": 0,
        "type": "noteOff",
        "noteNumber": 70,
        "velocity": 0,
        "byte9": true
      },
      {
        "deltaTime": 5,
        "running": true,
        "channel": 0,
        "type": "noteOn",
        "noteNumber": 67,
        "velocity": 64
      },
      {
        "deltaTime": 3,
        "running": true,
        "channel": 0,
        "type": "noteOff",
        "noteNumber": 58,
        "velocity": 0,
        "byte9": true
      },
      {
        "deltaTime": 0,
        "running": true,
        "channel": 0,
        "type": "noteOn",
        "noteNumber": 55,
        "velocity": 54
      },
      {
        "deltaTime": 24,
        "channel": 0,
        "type": "controller",
        "controllerType": 64,
        "value": 85
      },
      {
        "deltaTime": 124,
        "channel": 0,
        "type": "noteOn",
        "noteNumber": 68,
        "velocity": 69
      },
      {
        "deltaTime": 5,
        "running": true,
        "channel": 0,
        "type": "noteOn",
        "noteNumber": 58,
        "velocity": 48
      },
      {
        "deltaTime": 67,
        "running": true,
        "channel": 0,
        "type": "noteOff",
        "noteNumber": 58,
        "velocity": 0,
        "byte9": true
      },
      {
        "deltaTime": 10,
        "running": true,
        "channel": 0,
        "type": "noteOff",
        "noteNumber": 48,
        "velocity": 0,
        "byte9": true
      },
      {
        "deltaTime": 1,
        "running": true,
        "channel": 0,
        "type": "noteOff",
        "noteNumber": 55,
        "velocity": 0,
        "byte9": true
      },
      {
        "deltaTime": 58,
        "running": true,
        "channel": 0,
        "type": "noteOff",
        "noteNumber": 68,
        "velocity": 0,
        "byte9": true
      },
      {
        "deltaTime": 3,
        "running": true,
        "channel": 0,
        "type": "noteOff",
        "noteNumber": 67,
        "velocity": 0,
        "byte9": true
      },
      {
        "deltaTime": 16,
        "running": true,
        "channel": 0,
        "type": "noteOn",
        "noteNumber": 70,
        "velocity": 73
      },
      {
        "deltaTime": 56,
        "running": true,
        "channel": 0,
        "type": "noteOff",
        "noteNumber": 70,
        "velocity": 0,
        "byte9": true
      },
      {
        "deltaTime": 14,
        "running": true,
        "channel": 0,
        "type": "noteOff",
        "noteNumber": 64,
        "velocity": 0,
        "byte9": true
      },
      {
        "deltaTime": 109,
        "running": true,
        "channel": 0,
        "type": "noteOn",
        "noteNumber": 57,
        "velocity": 50
      },
      {
        "deltaTime": 1,
        "running": true,
        "channel": 0,
        "type": "noteOn",
        "noteNumber": 61,
        "velocity": 57
      },
      {
        "deltaTime": 0,
        "channel": 0,
        "type": "controller",
        "controllerType": 64,
        "value": 64
      },
      {
        "deltaTime": 2,
        "channel": 0,
        "type": "noteOn",
        "noteNumber": 51,
        "velocity": 44
      },
      {
        "deltaTime": 3,
        "running": true,
        "channel": 0,
        "type": "noteOn",
        "noteNumber": 65,
        "velocity": 58
      },
      {
        "deltaTime": 6,
        "channel": 0,
        "type": "controller",
        "controllerType": 64,
        "value": 23
      },
      {
        "deltaTime": 0,
        "running": true,
        "channel": 0,
        "type": "controller",
        "controllerType": 64,
        "value": 22
      },
      {
        "deltaTime": 0,
        "channel": 0,
        "type": "noteOn",
        "noteNumber": 41,
        "velocity": 47
      },
      {
        "deltaTime": 6,
        "channel": 0,
        "type": "controller",
        "controllerType": 64,
        "value": 4
      },
      {
        "deltaTime": 0,
        "running": true,
        "channel": 0,
        "type": "controller",
        "controllerType": 64,
        "value": 0
      },
      {
        "deltaTime": 24,
        "channel": 0,
        "type": "noteOff",
        "noteNumber": 61,
        "velocity": 0,
        "byte9": true
      },
      {
        "deltaTime": 5,
        "running": true,
        "channel": 0,
        "type": "noteOn",
        "noteNumber": 62,
        "velocity": 54
      },
      {
        "deltaTime": 61,
        "channel": 0,
        "type": "controller",
        "controllerType": 64,
        "value": 22
      },
      {
        "deltaTime": 14,
        "running": true,
        "channel": 0,
        "type": "controller",
        "controllerType": 64,
        "value": 64
      },
      {
        "deltaTime": 21,
        "channel": 0,
        "type": "noteOff",
        "noteNumber": 62,
        "velocity": 0,
        "byte9": true
      },
      {
        "deltaTime": 27,
        "channel": 0,
        "type": "controller",
        "controllerType": 64,
        "value": 22
      },
      {
        "deltaTime": 1,
        "channel": 0,
        "type": "noteOn",
        "noteNumber": 61,
        "velocity": 71
      },
      {
        "deltaTime": 33,
        "channel": 0,
        "type": "controller",
        "controllerType": 64,
        "value": 64
      },
      {
        "deltaTime": 37,
        "running": true,
        "channel": 0,
        "type": "controller",
        "controllerType": 64,
        "value": 65
      },
      {
        "deltaTime": 0,
        "running": true,
        "channel": 0,
        "type": "controller",
        "controllerType": 64,
        "value": 85
      },
      {
        "deltaTime": 58,
        "channel": 0,
        "type": "noteOff",
        "noteNumber": 61,
        "velocity": 0,
        "byte9": true
      },
      {
        "deltaTime": 2,
        "running": true,
        "channel": 0,
        "type": "noteOff",
        "noteNumber": 57,
        "velocity": 0,
        "byte9": true
      },
      {
        "deltaTime": 31,
        "running": true,
        "channel": 0,
        "type": "noteOn",
        "noteNumber": 60,
        "velocity": 45
      },
      {
        "deltaTime": 5,
        "channel": 0,
        "type": "controller",
        "controllerType": 64,
        "value": 64
      },
      {
        "deltaTime": 1,
        "channel": 0,
        "type": "noteOn",
        "noteNumber": 57,
        "velocity": 51
      },
      {
        "deltaTime": 3,
        "running": true,
        "channel": 0,
        "type": "noteOn",
        "noteNumber": 48,
        "velocity": 50
      },
      {
        "deltaTime": 9,
        "channel": 0,
        "type": "controller",
        "controllerType": 64,
        "value": 23
      },
      {
        "deltaTime": 0,
        "running": true,
        "channel": 0,
        "type": "controller",
        "controllerType": 64,
        "value": 22
      },
      {
        "deltaTime": 6,
        "running": true,
        "channel": 0,
        "type": "controller",
        "controllerType": 64,
        "value": 5
      },
      {
        "deltaTime": 1,
        "running": true,
        "channel": 0,
        "type": "controller",
        "controllerType": 64,
        "value": 0
      },
      {
        "deltaTime": 36,
        "running": true,
        "channel": 0,
        "type": "controller",
        "controllerType": 64,
        "value": 22
      },
      {
        "deltaTime": 8,
        "running": true,
        "channel": 0,
        "type": "controller",
        "controllerType": 64,
        "value": 64
      },
      {
        "deltaTime": 12,
        "running": true,
        "channel": 0,
        "type": "controller",
        "controllerType": 64,
        "value": 65
      },
      {
        "deltaTime": 0,
        "running": true,
        "channel": 0,
        "type": "controller",
        "controllerType": 64,
        "value": 85
      },
      {
        "deltaTime": 64,
        "channel": 0,
        "type": "noteOff",
        "noteNumber": 60,
        "velocity": 0,
        "byte9": true
      },
      {
        "deltaTime": 56,
        "running": true,
        "channel": 0,
        "type": "noteOff",
        "noteNumber": 41,
        "velocity": 0,
        "byte9": true
      },
      {
        "deltaTime": 9,
        "running": true,
        "channel": 0,
        "type": "noteOn",
        "noteNumber": 59,
        "velocity": 55
      },
      {
        "deltaTime": 8,
        "running": true,
        "channel": 0,
        "type": "noteOff",
        "noteNumber": 57,
        "velocity": 0,
        "byte9": true
      },
      {
        "deltaTime": 3,
        "running": true,
        "channel": 0,
        "type": "noteOff",
        "noteNumber": 48,
        "velocity": 0,
        "byte9": true
      },
      {
        "deltaTime": 13,
        "running": true,
        "channel": 0,
        "type": "noteOff",
        "noteNumber": 51,
        "velocity": 0,
        "byte9": true
      },
      {
        "deltaTime": 12,
        "running": true,
        "channel": 0,
        "type": "noteOff",
        "noteNumber": 59,
        "velocity": 0,
        "byte9": true
      },
      {
        "deltaTime": 165,
        "running": true,
        "channel": 0,
        "type": "noteOn",
        "noteNumber": 60,
        "velocity": 40
      },
      {
        "deltaTime": 1,
        "running": true,
        "channel": 0,
        "type": "noteOn",
        "noteNumber": 56,
        "velocity": 50
      },
      {
        "deltaTime": 1,
        "running": true,
        "channel": 0,
        "type": "noteOn",
        "noteNumber": 46,
        "velocity": 46
      },
      {
        "deltaTime": 1,
        "channel": 0,
        "type": "controller",
        "controllerType": 64,
        "value": 64
      },
      {
        "deltaTime": 2,
        "channel": 0,
        "type": "noteOn",
        "noteNumber": 63,
        "velocity": 48
      },
      {
        "deltaTime": 13,
        "channel": 0,
        "type": "controller",
        "controllerType": 64,
        "value": 23
      },
      {
        "deltaTime": 0,
        "running": true,
        "channel": 0,
        "type": "controller",
        "controllerType": 64,
        "value": 22
      },
      {
        "deltaTime": 9,
        "running": true,
        "channel": 0,
        "type": "controller",
        "controllerType": 64,
        "value": 3
      },
      {
        "deltaTime": 0,
        "running": true,
        "channel": 0,
        "type": "controller",
        "controllerType": 64,
        "value": 0
      },
      {
        "deltaTime": 78,
        "running": true,
        "channel": 0,
        "type": "controller",
        "controllerType": 64,
        "value": 22
      },
      {
        "deltaTime": 82,
        "channel": 0,
        "type": "noteOn",
        "noteNumber": 62,
        "velocity": 53
      },
      {
        "deltaTime": 10,
        "running": true,
        "channel": 0,
        "type": "noteOn",
        "noteNumber": 53,
        "velocity": 39
      },
      {
        "deltaTime": 86,
        "channel": 0,
        "type": "controller",
        "controllerType": 64,
        "value": 64
      },
      {
        "deltaTime": 4,
        "channel": 0,
        "type": "noteOff",
        "noteNumber": 56,
        "velocity": 0,
        "byte9": true
      },
      {
        "deltaTime": 16,
        "running": true,
        "channel": 0,
        "type": "noteOff",
        "noteNumber": 60,
        "velocity": 0,
        "byte9": true
      },
      {
        "deltaTime": 9,
        "running": true,
        "channel": 0,
        "type": "noteOff",
        "noteNumber": 63,
        "velocity": 0,
        "byte9": true
      },
      {
        "deltaTime": 1,
        "running": true,
        "channel": 0,
        "type": "noteOff",
        "noteNumber": 65,
        "velocity": 0,
        "byte9": true
      },
      {
        "deltaTime": 4,
        "running": true,
        "channel": 0,
        "type": "noteOff",
        "noteNumber": 62,
        "velocity": 0,
        "byte9": true
      },
      {
        "deltaTime": 0,
        "channel": 0,
        "type": "controller",
        "controllerType": 64,
        "value": 65
      },
      {
        "deltaTime": 0,
        "running": true,
        "channel": 0,
        "type": "controller",
        "controllerType": 64,
        "value": 85
      },
      {
        "deltaTime": 110,
        "channel": 0,
        "type": "noteOn",
        "noteNumber": 72,
        "velocity": 71
      },
      {
        "deltaTime": 5,
        "running": true,
        "channel": 0,
        "type": "noteOn",
        "noteNumber": 67,
        "velocity": 68
      },
      {
        "deltaTime": 1,
        "channel": 0,
        "type": "controller",
        "controllerType": 64,
        "value": 64
      },
      {
        "deltaTime": 1,
        "channel": 0,
        "type": "noteOn",
        "noteNumber": 56,
        "velocity": 48
      },
      {
        "deltaTime": 12,
        "channel": 0,
        "type": "controller",
        "controllerType": 64,
        "value": 23
      },
      {
        "deltaTime": 0,
        "running": true,
        "channel": 0,
        "type": "controller",
        "controllerType": 64,
        "value": 22
      },
      {
        "deltaTime": 15,
        "running": true,
        "channel": 0,
        "type": "controller",
        "controllerType": 64,
        "value": 2
      },
      {
        "deltaTime": 0,
        "running": true,
        "channel": 0,
        "type": "controller",
        "controllerType": 64,
        "value": 0
      },
      {
        "deltaTime": 19,
        "running": true,
        "channel": 0,
        "type": "controller",
        "controllerType": 64,
        "value": 22
      },
      {
        "deltaTime": 12,
        "running": true,
        "channel": 0,
        "type": "controller",
        "controllerType": 64,
        "value": 44
      },
      {
        "deltaTime": 0,
        "running": true,
        "channel": 0,
        "type": "controller",
        "controllerType": 64,
        "value": 64
      },
      {
        "deltaTime": 20,
        "running": true,
        "channel": 0,
        "type": "controller",
        "controllerType": 64,
        "value": 65
      },
      {
        "deltaTime": 0,
        "running": true,
        "channel": 0,
        "type": "controller",
        "controllerType": 64,
        "value": 85
      },
      {
        "deltaTime": 153,
        "channel": 0,
        "type": "noteOff",
        "noteNumber": 53,
        "velocity": 0,
        "byte9": true
      },
      {
        "deltaTime": 49,
        "running": true,
        "channel": 0,
        "type": "noteOff",
        "noteNumber": 46,
        "velocity": 0,
        "byte9": true
      },
      {
        "deltaTime": 9,
        "running": true,
        "channel": 0,
        "type": "noteOff",
        "noteNumber": 56,
        "velocity": 0,
        "byte9": true
      },
      {
        "deltaTime": 54,
        "running": true,
        "channel": 0,
        "type": "noteOff",
        "noteNumber": 72,
        "velocity": 0,
        "byte9": true
      },
      {
        "deltaTime": 24,
        "running": true,
        "channel": 0,
        "type": "noteOn",
        "noteNumber": 71,
        "velocity": 62
      },
      {
        "deltaTime": 76,
        "running": true,
        "channel": 0,
        "type": "noteOff",
        "noteNumber": 67,
        "velocity": 0,
        "byte9": true
      },
      {
        "deltaTime": 29,
        "running": true,
        "channel": 0,
        "type": "noteOff",
        "noteNumber": 71,
        "velocity": 0,
        "byte9": true
      },
      {
        "deltaTime": 5,
        "channel": 0,
        "type": "controller",
        "controllerType": 64,
        "value": 64
      },
      {
        "deltaTime": 8,
        "running": true,
        "channel": 0,
        "type": "controller",
        "controllerType": 64,
        "value": 23
      },
      {
        "deltaTime": 0,
        "running": true,
        "channel": 0,
        "type": "controller",
        "controllerType": 64,
        "value": 22
      },
      {
        "deltaTime": 1,
        "channel": 0,
        "type": "noteOn",
        "noteNumber": 41,
        "velocity": 60
      },
      {
        "deltaTime": 4,
        "running": true,
        "channel": 0,
        "type": "noteOn",
        "noteNumber": 74,
        "velocity": 61
      },
      {
        "deltaTime": 3,
        "channel": 0,
        "type": "controller",
        "controllerType": 64,
        "value": 4
      },
      {
        "deltaTime": 0,
        "running": true,
        "channel": 0,
        "type": "controller",
        "controllerType": 64,
        "value": 1
      },
      {
        "deltaTime": 2,
        "running": true,
        "channel": 0,
        "type": "controller",
        "controllerType": 64,
        "value": 0
      },
      {
        "deltaTime": 13,
        "running": true,
        "channel": 0,
        "type": "controller",
        "controllerType": 64,
        "value": 22
      },
      {
        "deltaTime": 13,
        "running": true,
        "channel": 0,
        "type": "controller",
        "controllerType": 64,
        "value": 45
      },
      {
        "deltaTime": 1,
        "running": true,
        "channel": 0,
        "type": "controller",
        "controllerType": 64,
        "value": 64
      },
      {
        "deltaTime": 11,
        "running": true,
        "channel": 0,
        "type": "controller",
        "controllerType": 64,
        "value": 65
      },
      {
        "deltaTime": 0,
        "running": true,
        "channel": 0,
        "type": "controller",
        "controllerType": 64,
        "value": 85
      },
      {
        "deltaTime": 46,
        "channel": 0,
        "type": "noteOff",
        "noteNumber": 41,
        "velocity": 0,
        "byte9": true
      },
      {
        "deltaTime": 10,
        "running": true,
        "channel": 0,
        "type": "noteOn",
        "noteNumber": 72,
        "velocity": 71
      },
      {
        "deltaTime": 2,
        "running": true,
        "channel": 0,
        "type": "noteOn",
        "noteNumber": 55,
        "velocity": 53
      },
      {
        "deltaTime": 21,
        "running": true,
        "channel": 0,
        "type": "noteOff",
        "noteNumber": 74,
        "velocity": 0,
        "byte9": true
      },
      {
        "deltaTime": 66,
        "running": true,
        "channel": 0,
        "type": "noteOff",
        "noteNumber": 55,
        "velocity": 0,
        "byte9": true
      },
      {
        "deltaTime": 12,
        "running": true,
        "channel": 0,
        "type": "noteOn",
        "noteNumber": 68,
        "velocity": 72
      },
      {
        "deltaTime": 7,
        "running": true,
        "channel": 0,
        "type": "noteOn",
        "noteNumber": 56,
        "velocity": 47
      },
      {
        "deltaTime": 110,
        "running": true,
        "channel": 0,
        "type": "noteOff",
        "noteNumber": 56,
        "velocity": 0,
        "byte9": true
      },
      {
        "deltaTime": 1,
        "running": true,
        "channel": 0,
        "type": "noteOff",
        "noteNumber": 72,
        "velocity": 0,
        "byte9": true
      },
      {
        "deltaTime": 4,
        "running": true,
        "channel": 0,
        "type": "noteOn",
        "noteNumber": 67,
        "velocity": 63
      },
      {
        "deltaTime": 58,
        "running": true,
        "channel": 0,
        "type": "noteOff",
        "noteNumber": 68,
        "velocity": 0,
        "byte9": true
      },
      {
        "deltaTime": 50,
        "running": true,
        "channel": 0,
        "type": "noteOn",
        "noteNumber": 70,
        "velocity": 72
      },
      {
        "deltaTime": 1,
        "channel": 0,
        "type": "controller",
        "controllerType": 64,
        "value": 64
      },
      {
        "deltaTime": 3,
        "channel": 0,
        "type": "noteOn",
        "noteNumber": 48,
        "velocity": 52
      },
      {
        "deltaTime": 8,
        "channel": 0,
        "type": "controller",
        "controllerType": 64,
        "value": 23
      },
      {
        "deltaTime": 0,
        "running": true,
        "channel": 0,
        "type": "controller",
        "controllerType": 64,
        "value": 22
      },
      {
        "deltaTime": 6,
        "channel": 0,
        "type": "noteOff",
        "noteNumber": 67,
        "velocity": 0,
        "byte9": true
      },
      {
        "deltaTime": 2,
        "channel": 0,
        "type": "controller",
        "controllerType": 64,
        "value": 4
      },
      {
        "deltaTime": 0,
        "running": true,
        "channel": 0,
        "type": "controller",
        "controllerType": 64,
        "value": 1
      },
      {
        "deltaTime": 0,
        "running": true,
        "channel": 0,
        "type": "controller",
        "controllerType": 64,
        "value": 0
      },
      {
        "deltaTime": 30,
        "running": true,
        "channel": 0,
        "type": "controller",
        "controllerType": 64,
        "value": 22
      },
      {
        "deltaTime": 9,
        "running": true,
        "channel": 0,
        "type": "controller",
        "controllerType": 64,
        "value": 44
      },
      {
        "deltaTime": 0,
        "running": true,
        "channel": 0,
        "type": "controller",
        "controllerType": 64,
        "value": 64
      },
      {
        "deltaTime": 14,
        "running": true,
        "channel": 0,
        "type": "controller",
        "controllerType": 64,
        "value": 65
      },
      {
        "deltaTime": 0,
        "running": true,
        "channel": 0,
        "type": "controller",
        "controllerType": 64,
        "value": 85
      },
      {
        "deltaTime": 166,
        "channel": 0,
        "type": "noteOn",
        "noteNumber": 68,
        "velocity": 73
      },
      {
        "deltaTime": 2,
        "running": true,
        "channel": 0,
        "type": "noteOn",
        "noteNumber": 58,
        "velocity": 39
      },
      {
        "deltaTime": 118,
        "running": true,
        "channel": 0,
        "type": "noteOn",
        "noteNumber": 65,
        "velocity": 85
      },
      {
        "deltaTime": 81,
        "running": true,
        "channel": 0,
        "type": "noteOff",
        "noteNumber": 58,
        "velocity": 0,
        "byte9": true
      },
      {
        "deltaTime": 20,
        "running": true,
        "channel": 0,
        "type": "noteOff",
        "noteNumber": 48,
        "velocity": 0,
        "byte9": true
      },
      {
        "deltaTime": 82,
        "running": true,
        "channel": 0,
        "type": "noteOn",
        "noteNumber": 64,
        "velocity": 70
      },
      {
        "deltaTime": 26,
        "running": true,
        "channel": 0,
        "type": "noteOff",
        "noteNumber": 70,
        "velocity": 0,
        "byte9": true
      },
      {
        "deltaTime": 27,
        "running": true,
        "channel": 0,
        "type": "noteOff",
        "noteNumber": 65,
        "velocity": 0,
        "byte9": true
      },
      {
        "deltaTime": 4,
        "running": true,
        "channel": 0,
        "type": "noteOff",
        "noteNumber": 68,
        "velocity": 0,
        "byte9": true
      },
      {
        "deltaTime": 85,
        "running": true,
        "channel": 0,
        "type": "noteOff",
        "noteNumber": 64,
        "velocity": 0,
        "byte9": true
      },
      {
        "deltaTime": 12,
        "channel": 0,
        "type": "controller",
        "controllerType": 64,
        "value": 64
      },
      {
        "deltaTime": 7,
        "running": true,
        "channel": 0,
        "type": "controller",
        "controllerType": 64,
        "value": 23
      },
      {
        "deltaTime": 1,
        "running": true,
        "channel": 0,
        "type": "controller",
        "controllerType": 64,
        "value": 22
      },
      {
        "deltaTime": 6,
        "channel": 0,
        "type": "noteOn",
        "noteNumber": 67,
        "velocity": 63
      },
      {
        "deltaTime": 3,
        "running": true,
        "channel": 0,
        "type": "noteOn",
        "noteNumber": 63,
        "velocity": 62
      },
      {
        "deltaTime": 5,
        "running": true,
        "channel": 0,
        "type": "noteOn",
        "noteNumber": 47,
        "velocity": 56
      },
      {
        "deltaTime": 10,
        "channel": 0,
        "type": "controller",
        "controllerType": 64,
        "value": 64
      },
      {
        "deltaTime": 10,
        "running": true,
        "channel": 0,
        "type": "controller",
        "controllerType": 64,
        "value": 65
      },
      {
        "deltaTime": 0,
        "running": true,
        "channel": 0,
        "type": "controller",
        "controllerType": 64,
        "value": 85
      },
      {
        "deltaTime": 12,
        "running": true,
        "channel": 0,
        "type": "controller",
        "controllerType": 64,
        "value": 113
      },
      {
        "deltaTime": 1,
        "channel": 0,
        "type": "noteOff",
        "noteNumber": 63,
        "velocity": 0,
        "byte9": true
      },
      {
        "deltaTime": 3,
        "running": true,
        "channel": 0,
        "type": "noteOff",
        "noteNumber": 67,
        "velocity": 0,
        "byte9": true
      },
      {
        "deltaTime": 44,
        "running": true,
        "channel": 0,
        "type": "noteOff",
        "noteNumber": 47,
        "velocity": 0,
        "byte9": true
      },
      {
        "deltaTime": 86,
        "running": true,
        "channel": 0,
        "type": "noteOn",
        "noteNumber": 79,
        "velocity": 80
      },
      {
        "deltaTime": 0,
        "channel": 0,
        "type": "controller",
        "controllerType": 64,
        "value": 106
      },
      {
        "deltaTime": 1,
        "channel": 0,
        "type": "noteOn",
        "noteNumber": 65,
        "velocity": 60
      },
      {
        "deltaTime": 1,
        "running": true,
        "channel": 0,
        "type": "noteOn",
        "noteNumber": 71,
        "velocity": 65
      },
      {
        "deltaTime": 1,
        "running": true,
        "channel": 0,
        "type": "noteOn",
        "noteNumber": 75,
        "velocity": 68
      },
      {
        "deltaTime": 92,
        "running": true,
        "channel": 0,
        "type": "noteOff",
        "noteNumber": 71,
        "velocity": 0,
        "byte9": true
      },
      {
        "deltaTime": 25,
        "running": true,
        "channel": 0,
        "type": "noteOff",
        "noteNumber": 75,
        "velocity": 0,
        "byte9": true
      },
      {
        "deltaTime": 2,
        "running": true,
        "channel": 0,
        "type": "noteOff",
        "noteNumber": 79,
        "velocity": 0,
        "byte9": true
      },
      {
        "deltaTime": 23,
        "running": true,
        "channel": 0,
        "type": "noteOn",
        "noteNumber": 77,
        "velocity": 40
      },
      {
        "deltaTime": 0,
        "running": true,
        "channel": 0,
        "type": "noteOn",
        "noteNumber": 63,
        "velocity": 58
      },
      {
        "deltaTime": 1,
        "running": true,
        "channel": 0,
        "type": "noteOn",
        "noteNumber": 73,
        "velocity": 57
      },
      {
        "deltaTime": 1,
        "channel": 0,
        "type": "controller",
        "controllerType": 64,
        "value": 64
      },
      {
        "deltaTime": 0,
        "channel": 0,
        "type": "noteOn",
        "noteNumber": 69,
        "velocity": 52
      },
      {
        "deltaTime": 8,
        "running": true,
        "channel": 0,
        "type": "noteOff",
        "noteNumber": 65,
        "velocity": 0,
        "byte9": true
      },
      {
        "deltaTime": 3,
        "channel": 0,
        "type": "controller",
        "controllerType": 64,
        "value": 23
      },
      {
        "deltaTime": 0,
        "running": true,
        "channel": 0,
        "type": "controller",
        "controllerType": 64,
        "value": 22
      },
      {
        "deltaTime": 13,
        "running": true,
        "channel": 0,
        "type": "controller",
        "controllerType": 64,
        "value": 64
      },
      {
        "deltaTime": 14,
        "running": true,
        "channel": 0,
        "type": "controller",
        "controllerType": 64,
        "value": 65
      },
      {
        "deltaTime": 0,
        "running": true,
        "channel": 0,
        "type": "controller",
        "controllerType": 64,
        "value": 85
      },
      {
        "deltaTime": 16,
        "channel": 0,
        "type": "noteOff",
        "noteNumber": 69,
        "velocity": 0,
        "byte9": true
      },
      {
        "deltaTime": 50,
        "running": true,
        "channel": 0,
        "type": "noteOff",
        "noteNumber": 73,
        "velocity": 0,
        "byte9": true
      },
      {
        "deltaTime": 16,
        "running": true,
        "channel": 0,
        "type": "noteOff",
        "noteNumber": 77,
        "velocity": 0,
        "byte9": true
      },
      {
        "deltaTime": 17,
        "running": true,
        "channel": 0,
        "type": "noteOn",
        "noteNumber": 65,
        "velocity": 58
      },
      {
        "deltaTime": 4,
        "running": true,
        "channel": 0,
        "type": "noteOn",
        "noteNumber": 79,
        "velocity": 65
      },
      {
        "deltaTime": 0,
        "running": true,
        "channel": 0,
        "type": "noteOn",
        "noteNumber": 75,
        "velocity": 64
      },
      {
        "deltaTime": 2,
        "running": true,
        "channel": 0,
        "type": "noteOn",
        "noteNumber": 71,
        "velocity": 31
      },
      {
        "deltaTime": 7,
        "running": true,
        "channel": 0,
        "type": "noteOff",
        "noteNumber": 65,
        "velocity": 0,
        "byte9": true
      },
      {
        "deltaTime": 6,
        "running": true,
        "channel": 0,
        "type": "noteOff",
        "noteNumber": 63,
        "velocity": 0,
        "byte9": true
      },
      {
        "deltaTime": 23,
        "running": true,
        "channel": 0,
        "type": "noteOff",
        "noteNumber": 71,
        "velocity": 0,
        "byte9": true
      },
      {
        "deltaTime": 40,
        "running": true,
        "channel": 0,
        "type": "noteOff",
        "noteNumber": 75,
        "velocity": 0,
        "byte9": true
      },
      {
        "deltaTime": 6,
        "running": true,
        "channel": 0,
        "type": "noteOff",
        "noteNumber": 79,
        "velocity": 0,
        "byte9": true
      },
      {
        "deltaTime": 75,
        "channel": 0,
        "type": "controller",
        "controllerType": 64,
        "value": 64
      },
      {
        "deltaTime": 3,
        "channel": 0,
        "type": "noteOn",
        "noteNumber": 46,
        "velocity": 50
      },
      {
        "deltaTime": 1,
        "running": true,
        "channel": 0,
        "type": "noteOn",
        "noteNumber": 56,
        "velocity": 45
      },
      {
        "deltaTime": 5,
        "channel": 0,
        "type": "controller",
        "controllerType": 64,
        "value": 23
      },
      {
        "deltaTime": 1,
        "running": true,
        "channel": 0,
        "type": "controller",
        "controllerType": 64,
        "value": 22
      },
      {
        "deltaTime": 0,
        "channel": 0,
        "type": "noteOn",
        "noteNumber": 79,
        "velocity": 53
      },
      {
        "deltaTime": 0,
        "running": true,
        "channel": 0,
        "type": "noteOn",
        "noteNumber": 75,
        "velocity": 48
      },
      {
        "deltaTime": 0,
        "running": true,
        "channel": 0,
        "type": "noteOn",
        "noteNumber": 72,
        "velocity": 53
      },
      {
        "deltaTime": 1,
        "channel": 0,
        "type": "controller",
        "controllerType": 64,
        "value": 9
      },
      {
        "deltaTime": 0,
        "running": true,
        "channel": 0,
        "type": "controller",
        "controllerType": 64,
        "value": 1
      },
      {
        "deltaTime": 0,
        "running": true,
        "channel": 0,
        "type": "controller",
        "controllerType": 64,
        "value": 0
      },
      {
        "deltaTime": 1,
        "channel": 0,
        "type": "noteOn",
        "noteNumber": 68,
        "velocity": 27
      },
      {
        "deltaTime": 35,
        "channel": 0,
        "type": "controller",
        "controllerType": 64,
        "value": 22
      },
      {
        "deltaTime": 7,
        "running": true,
        "channel": 0,
        "type": "controller",
        "controllerType": 64,
        "value": 64
      },
      {
        "deltaTime": 11,
        "running": true,
        "channel": 0,
        "type": "controller",
        "controllerType": 64,
        "value": 65
      },
      {
        "deltaTime": 0,
        "running": true,
        "channel": 0,
        "type": "controller",
        "controllerType": 64,
        "value": 85
      },
      {
        "deltaTime": 91,
        "channel": 0,
        "type": "noteOff",
        "noteNumber": 79,
        "velocity": 0,
        "byte9": true
      },
      {
        "deltaTime": 8,
        "running": true,
        "channel": 0,
        "type": "noteOff",
        "noteNumber": 56,
        "velocity": 0,
        "byte9": true
      },
      {
        "deltaTime": 10,
        "running": true,
        "channel": 0,
        "type": "noteOn",
        "noteNumber": 77,
        "velocity": 62
      },
      {
        "deltaTime": 3,
        "running": true,
        "channel": 0,
        "type": "noteOn",
        "noteNumber": 53,
        "velocity": 45
      },
      {
        "deltaTime": 51,
        "running": true,
        "channel": 0,
        "type": "noteOff",
        "noteNumber": 77,
        "velocity": 0,
        "byte9": true
      },
      {
        "deltaTime": 3,
        "running": true,
        "channel": 0,
        "type": "noteOff",
        "noteNumber": 75,
        "velocity": 0,
        "byte9": true
      },
      {
        "deltaTime": 0,
        "running": true,
        "channel": 0,
        "type": "noteOff",
        "noteNumber": 72,
        "velocity": 0,
        "byte9": true
      },
      {
        "deltaTime": 8,
        "running": true,
        "channel": 0,
        "type": "noteOff",
        "noteNumber": 68,
        "velocity": 0,
        "byte9": true
      },
      {
        "deltaTime": 95,
        "running": true,
        "channel": 0,
        "type": "noteOn",
        "noteNumber": 58,
        "velocity": 100
      },
      {
        "deltaTime": 6,
        "running": true,
        "channel": 0,
        "type": "noteOn",
        "noteNumber": 56,
        "velocity": 51
      },
      {
        "deltaTime": 6,
        "channel": 0,
        "type": "controller",
        "controllerType": 64,
        "value": 64
      },
      {
        "deltaTime": 34,
        "running": true,
        "channel": 0,
        "type": "controller",
        "controllerType": 64,
        "value": 85
      },
      {
        "deltaTime": 27,
        "channel": 0,
        "type": "noteOff",
        "noteNumber": 46,
        "velocity": 0,
        "byte9": true
      },
      {
        "deltaTime": 137,
        "running": true,
        "channel": 0,
        "type": "noteOff",
        "noteNumber": 56,
        "velocity": 0,
        "byte9": true
      },
      {
        "deltaTime": 177,
        "running": true,
        "channel": 0,
        "type": "noteOff",
        "noteNumber": 53,
        "velocity": 0,
        "byte9": true
      },
      {
        "deltaTime": 3,
        "running": true,
        "channel": 0,
        "type": "noteOn",
        "noteNumber": 60,
        "velocity": 64
      },
      {
        "deltaTime": 3,
        "running": true,
        "channel": 0,
        "type": "noteOn",
        "noteNumber": 57,
        "velocity": 53
      },
      {
        "deltaTime": 5,
        "channel": 0,
        "type": "controller",
        "controllerType": 64,
        "value": 64
      },
      {
        "deltaTime": 10,
        "running": true,
        "channel": 0,
        "type": "controller",
        "controllerType": 64,
        "value": 23
      },
      {
        "deltaTime": 2,
        "running": true,
        "channel": 0,
        "type": "controller",
        "controllerType": 64,
        "value": 22
      },
      {
        "deltaTime": 13,
        "running": true,
        "channel": 0,
        "type": "controller",
        "controllerType": 64,
        "value": 64
      },
      {
        "deltaTime": 12,
        "channel": 0,
        "type": "noteOff",
        "noteNumber": 58,
        "velocity": 0,
        "byte9": true
      },
      {
        "deltaTime": 6,
        "channel": 0,
        "type": "controller",
        "controllerType": 64,
        "value": 65
      },
      {
        "deltaTime": 0,
        "running": true,
        "channel": 0,
        "type": "controller",
        "controllerType": 64,
        "value": 85
      },
      {
        "deltaTime": 101,
        "running": true,
        "channel": 0,
        "type": "controller",
        "controllerType": 64,
        "value": 64
      },
      {
        "deltaTime": 6,
        "channel": 0,
        "type": "noteOn",
        "noteNumber": 62,
        "velocity": 70
      },
      {
        "deltaTime": 3,
        "channel": 0,
        "type": "controller",
        "controllerType": 64,
        "value": 23
      },
      {
        "deltaTime": 1,
        "channel": 0,
        "type": "noteOff",
        "noteNumber": 57,
        "velocity": 0,
        "byte9": true
      },
      {
        "deltaTime": 0,
        "running": true,
        "channel": 0,
        "type": "noteOff",
        "noteNumber": 60,
        "velocity": 0,
        "byte9": true
      },
      {
        "deltaTime": 0,
        "channel": 0,
        "type": "controller",
        "controllerType": 64,
        "value": 22
      },
      {
        "deltaTime": 0,
        "channel": 0,
        "type": "noteOn",
        "noteNumber": 56,
        "velocity": 55
      },
      {
        "deltaTime": 0,
        "running": true,
        "channel": 0,
        "type": "noteOn",
        "noteNumber": 58,
        "velocity": 44
      },
      {
        "deltaTime": 6,
        "channel": 0,
        "type": "controller",
        "controllerType": 64,
        "value": 4
      },
      {
        "deltaTime": 0,
        "running": true,
        "channel": 0,
        "type": "controller",
        "controllerType": 64,
        "value": 0
      },
      {
        "deltaTime": 11,
        "channel": 0,
        "type": "noteOff",
        "noteNumber": 58,
        "velocity": 0,
        "byte9": true
      },
      {
        "deltaTime": 0,
        "channel": 0,
        "type": "controller",
        "controllerType": 64,
        "value": 22
      },
      {
        "deltaTime": 11,
        "running": true,
        "channel": 0,
        "type": "controller",
        "controllerType": 64,
        "value": 45
      },
      {
        "deltaTime": 1,
        "running": true,
        "channel": 0,
        "type": "controller",
        "controllerType": 64,
        "value": 64
      },
      {
        "deltaTime": 10,
        "running": true,
        "channel": 0,
        "type": "controller",
        "controllerType": 64,
        "value": 65
      },
      {
        "deltaTime": 0,
        "running": true,
        "channel": 0,
        "type": "controller",
        "controllerType": 64,
        "value": 85
      },
      {
        "deltaTime": 55,
        "channel": 0,
        "type": "noteOff",
        "noteNumber": 62,
        "velocity": 0,
        "byte9": true
      },
      {
        "deltaTime": 4,
        "channel": 0,
        "type": "controller",
        "controllerType": 64,
        "value": 64
      },
      {
        "deltaTime": 7,
        "channel": 0,
        "type": "noteOn",
        "noteNumber": 63,
        "velocity": 73
      },
      {
        "deltaTime": 1,
        "running": true,
        "channel": 0,
        "type": "noteOff",
        "noteNumber": 56,
        "velocity": 0,
        "byte9": true
      },
      {
        "deltaTime": 4,
        "channel": 0,
        "type": "controller",
        "controllerType": 64,
        "value": 23
      },
      {
        "deltaTime": 0,
        "running": true,
        "channel": 0,
        "type": "controller",
        "controllerType": 64,
        "value": 22
      },
      {
        "deltaTime": 1,
        "channel": 0,
        "type": "noteOn",
        "noteNumber": 55,
        "velocity": 61
      },
      {
        "deltaTime": 14,
        "channel": 0,
        "type": "controller",
        "controllerType": 64,
        "value": 64
      },
      {
        "deltaTime": 13,
        "running": true,
        "channel": 0,
        "type": "controller",
        "controllerType": 64,
        "value": 65
      },
      {
        "deltaTime": 0,
        "running": true,
        "channel": 0,
        "type": "controller",
        "controllerType": 64,
        "value": 85
      },
      {
        "deltaTime": 50,
        "running": true,
        "channel": 0,
        "type": "controller",
        "controllerType": 64,
        "value": 64
      },
      {
        "deltaTime": 1,
        "channel": 0,
        "type": "noteOff",
        "noteNumber": 63,
        "velocity": 0,
        "byte9": true
      },
      {
        "deltaTime": 8,
        "channel": 0,
        "type": "controller",
        "controllerType": 64,
        "value": 23
      },
      {
        "deltaTime": 0,
        "running": true,
        "channel": 0,
        "type": "controller",
        "controllerType": 64,
        "value": 22
      },
      {
        "deltaTime": 1,
        "channel": 0,
        "type": "noteOn",
        "noteNumber": 65,
        "velocity": 68
      },
      {
        "deltaTime": 5,
        "running": true,
        "channel": 0,
        "type": "noteOn",
        "noteNumber": 53,
        "velocity": 65
      },
      {
        "deltaTime": 1,
        "running": true,
        "channel": 0,
        "type": "noteOff",
        "noteNumber": 55,
        "velocity": 0,
        "byte9": true
      },
      {
        "deltaTime": 0,
        "running": true,
        "channel": 0,
        "type": "noteOn",
        "noteNumber": 60,
        "velocity": 62
      },
      {
        "deltaTime": 2,
        "channel": 0,
        "type": "controller",
        "controllerType": 64,
        "value": 4
      },
      {
        "deltaTime": 0,
        "running": true,
        "channel": 0,
        "type": "controller",
        "controllerType": 64,
        "value": 1
      },
      {
        "deltaTime": 1,
        "running": true,
        "channel": 0,
        "type": "controller",
        "controllerType": 64,
        "value": 0
      },
      {
        "deltaTime": 6,
        "channel": 0,
        "type": "noteOn",
        "noteNumber": 62,
        "velocity": 41
      },
      {
        "deltaTime": 2,
        "channel": 0,
        "type": "controller",
        "controllerType": 64,
        "value": 22
      },
      {
        "deltaTime": 13,
        "running": true,
        "channel": 0,
        "type": "controller",
        "controllerType": 64,
        "value": 45
      },
      {
        "deltaTime": 0,
        "running": true,
        "channel": 0,
        "type": "controller",
        "controllerType": 64,
        "value": 64
      },
      {
        "deltaTime": 16,
        "running": true,
        "channel": 0,
        "type": "controller",
        "controllerType": 64,
        "value": 65
      },
      {
        "deltaTime": 0,
        "running": true,
        "channel": 0,
        "type": "controller",
        "controllerType": 64,
        "value": 85
      },
      {
        "deltaTime": 26,
        "running": true,
        "channel": 0,
        "type": "controller",
        "controllerType": 64,
        "value": 64
      },
      {
        "deltaTime": 11,
        "running": true,
        "channel": 0,
        "type": "controller",
        "controllerType": 64,
        "value": 23
      },
      {
        "deltaTime": 0,
        "running": true,
        "channel": 0,
        "type": "controller",
        "controllerType": 64,
        "value": 22
      },
      {
        "deltaTime": 9,
        "running": true,
        "channel": 0,
        "type": "controller",
        "controllerType": 64,
        "value": 5
      },
      {
        "deltaTime": 0,
        "running": true,
        "channel": 0,
        "type": "controller",
        "controllerType": 64,
        "value": 1
      },
      {
        "deltaTime": 0,
        "running": true,
        "channel": 0,
        "type": "controller",
        "controllerType": 64,
        "value": 0
      },
      {
        "deltaTime": 1,
        "channel": 0,
        "type": "noteOff",
        "noteNumber": 65,
        "velocity": 0,
        "byte9": true
      },
      {
        "deltaTime": 3,
        "running": true,
        "channel": 0,
        "type": "noteOn",
        "noteNumber": 67,
        "velocity": 78
      },
      {
        "deltaTime": 4,
        "running": true,
        "channel": 0,
        "type": "noteOn",
        "noteNumber": 51,
        "velocity": 63
      },
      {
        "deltaTime": 4,
        "running": true,
        "channel": 0,
        "type": "noteOff",
        "noteNumber": 53,
        "velocity": 0,
        "byte9": true
      },
      {
        "deltaTime": 0,
        "channel": 0,
        "type": "controller",
        "controllerType": 64,
        "value": 22
      },
      {
        "deltaTime": 4,
        "channel": 0,
        "type": "noteOff",
        "noteNumber": 62,
        "velocity": 0,
        "byte9": true
      },
      {
        "deltaTime": 5,
        "channel": 0,
        "type": "controller",
        "controllerType": 64,
        "value": 46
      },
      {
        "deltaTime": 0,
        "running": true,
        "channel": 0,
        "type": "controller",
        "controllerType": 64,
        "value": 64
      },
      {
        "deltaTime": 10,
        "running": true,
        "channel": 0,
        "type": "controller",
        "controllerType": 64,
        "value": 65
      },
      {
        "deltaTime": 0,
        "running": true,
        "channel": 0,
        "type": "controller",
        "controllerType": 64,
        "value": 85
      },
      {
        "deltaTime": 3,
        "channel": 0,
        "type": "noteOff",
        "noteNumber": 67,
        "velocity": 0,
        "byte9": true
      },
      {
        "deltaTime": 35,
        "running": true,
        "channel": 0,
        "type": "noteOff",
        "noteNumber": 60,
        "velocity": 0,
        "byte9": true
      },
      {
        "deltaTime": 30,
        "running": true,
        "channel": 0,
        "type": "noteOff",
        "noteNumber": 51,
        "velocity": 0,
        "byte9": true
      },
      {
        "deltaTime": 3,
        "channel": 0,
        "type": "controller",
        "controllerType": 64,
        "value": 64
      },
      {
        "deltaTime": 8,
        "channel": 0,
        "type": "noteOn",
        "noteNumber": 68,
        "velocity": 77
      },
      {
        "deltaTime": 1,
        "channel": 0,
        "type": "controller",
        "controllerType": 64,
        "value": 23
      },
      {
        "deltaTime": 1,
        "running": true,
        "channel": 0,
        "type": "controller",
        "controllerType": 64,
        "value": 22
      },
      {
        "deltaTime": 4,
        "channel": 0,
        "type": "noteOn",
        "noteNumber": 50,
        "velocity": 62
      },
      {
        "deltaTime": 2,
        "running": true,
        "channel": 0,
        "type": "noteOn",
        "noteNumber": 60,
        "velocity": 48
      },
      {
        "deltaTime": 16,
        "channel": 0,
        "type": "controller",
        "controllerType": 64,
        "value": 64
      },
      {
        "deltaTime": 11,
        "running": true,
        "channel": 0,
        "type": "controller",
        "controllerType": 64,
        "value": 65
      },
      {
        "deltaTime": 0,
        "running": true,
        "channel": 0,
        "type": "controller",
        "controllerType": 64,
        "value": 85
      },
      {
        "deltaTime": 11,
        "channel": 0,
        "type": "noteOff",
        "noteNumber": 68,
        "velocity": 0,
        "byte9": true
      },
      {
        "deltaTime": 14,
        "running": true,
        "channel": 0,
        "type": "noteOff",
        "noteNumber": 60,
        "velocity": 0,
        "byte9": true
      },
      {
        "deltaTime": 53,
        "channel": 0,
        "type": "controller",
        "controllerType": 64,
        "value": 64
      },
      {
        "deltaTime": 1,
        "channel": 0,
        "type": "noteOn",
        "noteNumber": 46,
        "velocity": 65
      },
      {
        "deltaTime": 0,
        "running": true,
        "channel": 0,
        "type": "noteOn",
        "noteNumber": 72,
        "velocity": 72
      },
      {
        "deltaTime": 3,
        "running": true,
        "channel": 0,
        "type": "noteOn",
        "noteNumber": 62,
        "velocity": 51
      },
      {
        "deltaTime": 4,
        "channel": 0,
        "type": "controller",
        "controllerType": 64,
        "value": 23
      },
      {
        "deltaTime": 2,
        "running": true,
        "channel": 0,
        "type": "controller",
        "controllerType": 64,
        "value": 22
      },
      {
        "deltaTime": 0,
        "channel": 0,
        "type": "noteOn",
        "noteNumber": 65,
        "velocity": 60
      },
      {
        "deltaTime": 2,
        "running": true,
        "channel": 0,
        "type": "noteOff",
        "noteNumber": 50,
        "velocity": 0,
        "byte9": true
      },
      {
        "deltaTime": 0,
        "channel": 0,
        "type": "controller",
        "controllerType": 64,
        "value": 9
      },
      {
        "deltaTime": 0,
        "running": true,
        "channel": 0,
        "type": "controller",
        "controllerType": 64,
        "value": 1
      },
      {
        "deltaTime": 1,
        "running": true,
        "channel": 0,
        "type": "controller",
        "controllerType": 64,
        "value": 0
      },
      {
        "deltaTime": 21,
        "running": true,
        "channel": 0,
        "type": "controller",
        "controllerType": 64,
        "value": 22
      },
      {
        "deltaTime": 7,
        "running": true,
        "channel": 0,
        "type": "controller",
        "controllerType": 64,
        "value": 49
      },
      {
        "deltaTime": 0,
        "running": true,
        "channel": 0,
        "type": "controller",
        "controllerType": 64,
        "value": 64
      },
      {
        "deltaTime": 9,
        "running": true,
        "channel": 0,
        "type": "controller",
        "controllerType": 64,
        "value": 65
      },
      {
        "deltaTime": 2,
        "running": true,
        "channel": 0,
        "type": "controller",
        "controllerType": 64,
        "value": 85
      },
      {
        "deltaTime": 51,
        "channel": 0,
        "type": "noteOff",
        "noteNumber": 72,
        "velocity": 0,
        "byte9": true
      },
      {
        "deltaTime": 6,
        "running": true,
        "channel": 0,
        "type": "noteOff",
        "noteNumber": 46,
        "velocity": 0,
        "byte9": true
      },
      {
        "deltaTime": 0,
        "channel": 0,
        "type": "controller",
        "controllerType": 64,
        "value": 64
      },
      {
        "deltaTime": 7,
        "running": true,
        "channel": 0,
        "type": "controller",
        "controllerType": 64,
        "value": 23
      },
      {
        "deltaTime": 0,
        "running": true,
        "channel": 0,
        "type": "controller",
        "controllerType": 64,
        "value": 22
      },
      {
        "deltaTime": 4,
        "channel": 0,
        "type": "noteOn",
        "noteNumber": 70,
        "velocity": 67
      },
      {
        "deltaTime": 1,
        "running": true,
        "channel": 0,
        "type": "noteOn",
        "noteNumber": 48,
        "velocity": 56
      },
      {
        "deltaTime": 1,
        "channel": 0,
        "type": "controller",
        "controllerType": 64,
        "value": 6
      },
      {
        "deltaTime": 0,
        "running": true,
        "channel": 0,
        "type": "controller",
        "controllerType": 64,
        "value": 1
      },
      {
        "deltaTime": 0,
        "running": true,
        "channel": 0,
        "type": "controller",
        "controllerType": 64,
        "value": 0
      },
      {
        "deltaTime": 21,
        "running": true,
        "channel": 0,
        "type": "controller",
        "controllerType": 64,
        "value": 22
      },
      {
        "deltaTime": 7,
        "running": true,
        "channel": 0,
        "type": "controller",
        "controllerType": 64,
        "value": 47
      },
      {
        "deltaTime": 0,
        "running": true,
        "channel": 0,
        "type": "controller",
        "controllerType": 64,
        "value": 64
      },
      {
        "deltaTime": 8,
        "running": true,
        "channel": 0,
        "type": "controller",
        "controllerType": 64,
        "value": 65
      },
      {
        "deltaTime": 0,
        "running": true,
        "channel": 0,
        "type": "controller",
        "controllerType": 64,
        "value": 85
      },
      {
        "deltaTime": 33,
        "channel": 0,
        "type": "noteOff",
        "noteNumber": 65,
        "velocity": 0,
        "byte9": true
      },
      {
        "deltaTime": 122,
        "channel": 0,
        "type": "controller",
        "controllerType": 64,
        "value": 64
      },
      {
        "deltaTime": 34,
        "running": true,
        "channel": 0,
        "type": "controller",
        "controllerType": 64,
        "value": 85
      },
      {
        "deltaTime": 3,
        "channel": 0,
        "type": "noteOn",
        "noteNumber": 68,
        "velocity": 75
      },
      {
        "deltaTime": 3,
        "running": true,
        "channel": 0,
        "type": "noteOn",
        "noteNumber": 50,
        "velocity": 50
      },
      {
        "deltaTime": 2,
        "running": true,
        "channel": 0,
        "type": "noteOff",
        "noteNumber": 48,
        "velocity": 0,
        "byte9": true
      },
      {
        "deltaTime": 9,
        "running": true,
        "channel": 0,
        "type": "noteOff",
        "noteNumber": 70,
        "velocity": 0,
        "byte9": true
      },
      {
        "deltaTime": 34,
        "running": true,
        "channel": 0,
        "type": "noteOff",
        "noteNumber": 62,
        "velocity": 0,
        "byte9": true
      },
      {
        "deltaTime": 30,
        "running": true,
        "channel": 0,
        "type": "noteOff",
        "noteNumber": 68,
        "velocity": 0,
        "byte9": true
      },
      {
        "deltaTime": 108,
        "channel": 0,
        "type": "controller",
        "controllerType": 64,
        "value": 64
      },
      {
        "deltaTime": 3,
        "channel": 0,
        "type": "noteOff",
        "noteNumber": 50,
        "velocity": 0,
        "byte9": true
      },
      {
        "deltaTime": 8,
        "channel": 0,
        "type": "controller",
        "controllerType": 64,
        "value": 23
      },
      {
        "deltaTime": 0,
        "running": true,
        "channel": 0,
        "type": "controller",
        "controllerType": 64,
        "value": 22
      },
      {
        "deltaTime": 1,
        "channel": 0,
        "type": "noteOn",
        "noteNumber": 67,
        "velocity": 64
      },
      {
        "deltaTime": 0,
        "running": true,
        "channel": 0,
        "type": "noteOn",
        "noteNumber": 51,
        "velocity": 56
      },
      {
        "deltaTime": 19,
        "channel": 0,
        "type": "controller",
        "controllerType": 64,
        "value": 64
      },
      {
        "deltaTime": 12,
        "running": true,
        "channel": 0,
        "type": "controller",
        "controllerType": 64,
        "value": 65
      },
      {
        "deltaTime": 0,
        "running": true,
        "channel": 0,
        "type": "controller",
        "controllerType": 64,
        "value": 85
      },
      {
        "deltaTime": 25,
        "channel": 0,
        "type": "noteOff",
        "noteNumber": 67,
        "velocity": 0,
        "byte9": true
      },
      {
        "deltaTime": 65,
        "running": true,
        "channel": 0,
        "type": "noteOff",
        "noteNumber": 51,
        "velocity": 0,
        "byte9": true
      },
      {
        "deltaTime": 10,
        "running": true,
        "channel": 0,
        "type": "noteOn",
        "noteNumber": 55,
        "velocity": 49
      },
      {
        "deltaTime": 112,
        "running": true,
        "channel": 0,
        "type": "noteOff",
        "noteNumber": 55,
        "velocity": 0,
        "byte9": true
      },
      {
        "deltaTime": 12,
        "running": true,
        "channel": 0,
        "type": "noteOn",
        "noteNumber": 58,
        "velocity": 48
      },
      {
        "deltaTime": 3,
        "running": true,
        "channel": 0,
        "type": "noteOn",
        "noteNumber": 82,
        "velocity": 63
      },
      {
        "deltaTime": 1,
        "running": true,
        "channel": 0,
        "type": "noteOn",
        "noteNumber": 70,
        "velocity": 51
      },
      {
        "deltaTime": 19,
        "running": true,
        "channel": 0,
        "type": "noteOff",
        "noteNumber": 70,
        "velocity": 0,
        "byte9": true
      },
      {
        "deltaTime": 12,
        "running": true,
        "channel": 0,
        "type": "noteOff",
        "noteNumber": 82,
        "velocity": 0,
        "byte9": true
      },
      {
        "deltaTime": 82,
        "running": true,
        "channel": 0,
        "type": "noteOff",
        "noteNumber": 58,
        "velocity": 0,
        "byte9": true
      },
      {
        "deltaTime": 3,
        "running": true,
        "channel": 0,
        "type": "noteOn",
        "noteNumber": 62,
        "velocity": 50
      },
      {
        "deltaTime": 17,
        "running": true,
        "channel": 0,
        "type": "noteOff",
        "noteNumber": 62,
        "velocity": 0,
        "byte9": true
      },
      {
        "deltaTime": 109,
        "running": true,
        "channel": 0,
        "type": "noteOn",
        "noteNumber": 60,
        "velocity": 35
      },
      {
        "deltaTime": 2,
        "running": true,
        "channel": 0,
        "type": "noteOn",
        "noteNumber": 63,
        "velocity": 46
      },
      {
        "deltaTime": 1,
        "running": true,
        "channel": 0,
        "type": "noteOn",
        "noteNumber": 94,
        "velocity": 67
      },
      {
        "deltaTime": 5,
        "running": true,
        "channel": 0,
        "type": "noteOn",
        "noteNumber": 68,
        "velocity": 30
      },
      {
        "deltaTime": 0,
        "running": true,
        "channel": 0,
        "type": "noteOn",
        "noteNumber": 82,
        "velocity": 47
      },
      {
        "deltaTime": 3,
        "channel": 0,
        "type": "controller",
        "controllerType": 64,
        "value": 64
      },
      {
        "deltaTime": 5,
        "channel": 0,
        "type": "noteOn",
        "noteNumber": 87,
        "velocity": 36
      },
      {
        "deltaTime": 5,
        "channel": 0,
        "type": "controller",
        "controllerType": 64,
        "value": 23
      },
      {
        "deltaTime": 0,
        "running": true,
        "channel": 0,
        "type": "controller",
        "controllerType": 64,
        "value": 22
      },
      {
        "deltaTime": 2,
        "running": true,
        "channel": 0,
        "type": "controller",
        "controllerType": 64,
        "value": 7
      },
      {
        "deltaTime": 0,
        "running": true,
        "channel": 0,
        "type": "controller",
        "controllerType": 64,
        "value": 1
      },
      {
        "deltaTime": 1,
        "running": true,
        "channel": 0,
        "type": "controller",
        "controllerType": 64,
        "value": 0
      },
      {
        "deltaTime": 22,
        "running": true,
        "channel": 0,
        "type": "controller",
        "controllerType": 64,
        "value": 22
      },
      {
        "deltaTime": 6,
        "channel": 0,
        "type": "noteOff",
        "noteNumber": 94,
        "velocity": 0,
        "byte9": true
      },
      {
        "deltaTime": 2,
        "channel": 0,
        "type": "controller",
        "controllerType": 64,
        "value": 47
      },
      {
        "deltaTime": 0,
        "running": true,
        "channel": 0,
        "type": "controller",
        "controllerType": 64,
        "value": 64
      },
      {
        "deltaTime": 4,
        "channel": 0,
        "type": "noteOff",
        "noteNumber": 87,
        "velocity": 0,
        "byte9": true
      },
      {
        "deltaTime": 5,
        "channel": 0,
        "type": "controller",
        "controllerType": 64,
        "value": 65
      },
      {
        "deltaTime": 0,
        "running": true,
        "channel": 0,
        "type": "controller",
        "controllerType": 64,
        "value": 85
      },
      {
        "deltaTime": 8,
        "channel": 0,
        "type": "noteOff",
        "noteNumber": 82,
        "velocity": 0,
        "byte9": true
      },
      {
        "deltaTime": 36,
        "running": true,
        "channel": 0,
        "type": "noteOff",
        "noteNumber": 60,
        "velocity": 0,
        "byte9": true
      },
      {
        "deltaTime": 3,
        "running": true,
        "channel": 0,
        "type": "noteOff",
        "noteNumber": 68,
        "velocity": 0,
        "byte9": true
      },
      {
        "deltaTime": 20,
        "running": true,
        "channel": 0,
        "type": "noteOn",
        "noteNumber": 58,
        "velocity": 65
      },
      {
        "deltaTime": 7,
        "running": true,
        "channel": 0,
        "type": "noteOff",
        "noteNumber": 63,
        "velocity": 0,
        "byte9": true
      },
      {
        "deltaTime": 19,
        "running": true,
        "channel": 0,
        "type": "noteOff",
        "noteNumber": 58,
        "velocity": 0,
        "byte9": true
      },
      {
        "deltaTime": 129,
        "running": true,
        "channel": 0,
        "type": "noteOn",
        "noteNumber": 63,
        "velocity": 50
      },
      {
        "deltaTime": 6,
        "running": true,
        "channel": 0,
        "type": "noteOn",
        "noteNumber": 60,
        "velocity": 32
      },
      {
        "deltaTime": 0,
        "running": true,
        "channel": 0,
        "type": "noteOn",
        "noteNumber": 56,
        "velocity": 51
      },
      {
        "deltaTime": 7,
        "running": true,
        "channel": 0,
        "type": "noteOn",
        "noteNumber": 46,
        "velocity": 43
      },
      {
        "deltaTime": 1,
        "channel": 0,
        "type": "controller",
        "controllerType": 64,
        "value": 64
      },
      {
        "deltaTime": 13,
        "running": true,
        "channel": 0,
        "type": "controller",
        "controllerType": 64,
        "value": 23
      },
      {
        "deltaTime": 2,
        "running": true,
        "channel": 0,
        "type": "controller",
        "controllerType": 64,
        "value": 22
      },
      {
        "deltaTime": 30,
        "running": true,
        "channel": 0,
        "type": "controller",
        "controllerType": 64,
        "value": 64
      },
      {
        "deltaTime": 13,
        "running": true,
        "channel": 0,
        "type": "controller",
        "controllerType": 64,
        "value": 65
      },
      {
        "deltaTime": 0,
        "running": true,
        "channel": 0,
        "type": "controller",
        "controllerType": 64,
        "value": 85
      },
      {
        "deltaTime": 62,
        "channel": 0,
        "type": "noteOn",
        "noteNumber": 70,
        "velocity": 80
      },
      {
        "deltaTime": 65,
        "running": true,
        "channel": 0,
        "type": "noteOff",
        "noteNumber": 70,
        "velocity": 0,
        "byte9": true
      },
      {
        "deltaTime": 37,
        "running": true,
        "channel": 0,
        "type": "noteOn",
        "noteNumber": 70,
        "velocity": 80
      },
      {
        "deltaTime": 7,
        "running": true,
        "channel": 0,
        "type": "noteOff",
        "noteNumber": 56,
        "velocity": 0,
        "byte9": true
      },
      {
        "deltaTime": 14,
        "running": true,
        "channel": 0,
        "type": "noteOff",
        "noteNumber": 60,
        "velocity": 0,
        "byte9": true
      },
      {
        "deltaTime": 18,
        "running": true,
        "channel": 0,
        "type": "noteOff",
        "noteNumber": 46,
        "velocity": 0,
        "byte9": true
      },
      {
        "deltaTime": 22,
        "running": true,
        "channel": 0,
        "type": "noteOff",
        "noteNumber": 70,
        "velocity": 0,
        "byte9": true
      },
      {
        "deltaTime": 0,
        "running": true,
        "channel": 0,
        "type": "noteOff",
        "noteNumber": 63,
        "velocity": 0,
        "byte9": true
      },
      {
        "deltaTime": 8,
        "running": true,
        "channel": 0,
        "type": "noteOn",
        "noteNumber": 69,
        "velocity": 73
      },
      {
        "deltaTime": 35,
        "running": true,
        "channel": 0,
        "type": "noteOff",
        "noteNumber": 69,
        "velocity": 0,
        "byte9": true
      },
      {
        "deltaTime": 53,
        "channel": 0,
        "type": "controller",
        "controllerType": 64,
        "value": 64
      },
      {
        "deltaTime": 1,
        "channel": 0,
        "type": "noteOn",
        "noteNumber": 72,
        "velocity": 78
      },
      {
        "deltaTime": 6,
        "channel": 0,
        "type": "controller",
        "controllerType": 64,
        "value": 23
      },
      {
        "deltaTime": 1,
        "running": true,
        "channel": 0,
        "type": "controller",
        "controllerType": 64,
        "value": 22
      },
      {
        "deltaTime": 0,
        "channel": 0,
        "type": "noteOn",
        "noteNumber": 39,
        "velocity": 64
      },
      {
        "deltaTime": 10,
        "running": true,
        "channel": 0,
        "type": "noteOn",
        "noteNumber": 67,
        "velocity": 21
      },
      {
        "deltaTime": 18,
        "channel": 0,
        "type": "controller",
        "controllerType": 64,
        "value": 64
      },
      {
        "deltaTime": 9,
        "running": true,
        "channel": 0,
        "type": "controller",
        "controllerType": 64,
        "value": 65
      },
      {
        "deltaTime": 0,
        "running": true,
        "channel": 0,
        "type": "controller",
        "controllerType": 64,
        "value": 85
      },
      {
        "deltaTime": 40,
        "channel": 0,
        "type": "noteOff",
        "noteNumber": 72,
        "velocity": 0,
        "byte9": true
      },
      {
        "deltaTime": 11,
        "running": true,
        "channel": 0,
        "type": "noteOff",
        "noteNumber": 39,
        "velocity": 0,
        "byte9": true
      },
      {
        "deltaTime": 1,
        "running": true,
        "channel": 0,
        "type": "noteOff",
        "noteNumber": 67,
        "velocity": 0,
        "byte9": true
      },
      {
        "deltaTime": 7,
        "running": true,
        "channel": 0,
        "type": "noteOn",
        "noteNumber": 46,
        "velocity": 66
      },
      {
        "deltaTime": 3,
        "running": true,
        "channel": 0,
        "type": "noteOn",
        "noteNumber": 70,
        "velocity": 79
      },
      {
        "deltaTime": 55,
        "running": true,
        "channel": 0,
        "type": "noteOff",
        "noteNumber": 70,
        "velocity": 0,
        "byte9": true
      },
      {
        "deltaTime": 41,
        "channel": 0,
        "type": "controller",
        "controllerType": 64,
        "value": 64
      },
      {
        "deltaTime": 8,
        "channel": 0,
        "type": "noteOn",
        "noteNumber": 70,
        "velocity": 81
      },
      {
        "deltaTime": 0,
        "running": true,
        "channel": 0,
        "type": "noteOn",
        "noteNumber": 55,
        "velocity": 61
      },
      {
        "deltaTime": 5,
        "running": true,
        "channel": 0,
        "type": "noteOn",
        "noteNumber": 67,
        "velocity": 65
      },
      {
        "deltaTime": 0,
        "running": true,
        "channel": 0,
        "type": "noteOn",
        "noteNumber": 62,
        "velocity": 60
      },
      {
        "deltaTime": 20,
        "channel": 0,
        "type": "controller",
        "controllerType": 64,
        "value": 85
      },
      {
        "deltaTime": 105,
        "channel": 0,
        "type": "noteOff",
        "noteNumber": 46,
        "velocity": 0,
        "byte9": true
      },
      {
        "deltaTime": 4,
        "running": true,
        "channel": 0,
        "type": "noteOn",
        "noteNumber": 68,
        "velocity": 55
      },
      {
        "deltaTime": 2,
        "running": true,
        "channel": 0,
        "type": "noteOn",
        "noteNumber": 69,
        "velocity": 91
      },
      {
        "deltaTime": 6,
        "running": true,
        "channel": 0,
        "type": "noteOff",
        "noteNumber": 62,
        "velocity": 0,
        "byte9": true
      },
      {
        "deltaTime": 6,
        "running": true,
        "channel": 0,
        "type": "noteOff",
        "noteNumber": 67,
        "velocity": 0,
        "byte9": true
      },
      {
        "deltaTime": 19,
        "running": true,
        "channel": 0,
        "type": "noteOff",
        "noteNumber": 55,
        "velocity": 0,
        "byte9": true
      },
      {
        "deltaTime": 14,
        "running": true,
        "channel": 0,
        "type": "noteOff",
        "noteNumber": 68,
        "velocity": 0,
        "byte9": true
      },
      {
        "deltaTime": 4,
        "running": true,
        "channel": 0,
        "type": "noteOff",
        "noteNumber": 69,
        "velocity": 0,
        "byte9": true
      },
      {
        "deltaTime": 25,
        "running": true,
        "channel": 0,
        "type": "noteOff",
        "noteNumber": 70,
        "velocity": 0,
        "byte9": true
      },
      {
        "deltaTime": 56,
        "running": true,
        "channel": 0,
        "type": "noteOn",
        "noteNumber": 72,
        "velocity": 70
      },
      {
        "deltaTime": 0,
        "channel": 0,
        "type": "controller",
        "controllerType": 64,
        "value": 64
      },
      {
        "deltaTime": 3,
        "channel": 0,
        "type": "noteOn",
        "noteNumber": 56,
        "velocity": 59
      },
      {
        "deltaTime": 2,
        "running": true,
        "channel": 0,
        "type": "noteOn",
        "noteNumber": 68,
        "velocity": 70
      },
      {
        "deltaTime": 0,
        "running": true,
        "channel": 0,
        "type": "noteOn",
        "noteNumber": 65,
        "velocity": 77
      },
      {
        "deltaTime": 1,
        "running": true,
        "channel": 0,
        "type": "noteOn",
        "noteNumber": 46,
        "velocity": 50
      },
      {
        "deltaTime": 6,
        "channel": 0,
        "type": "controller",
        "controllerType": 64,
        "value": 23
      },
      {
        "deltaTime": 0,
        "running": true,
        "channel": 0,
        "type": "controller",
        "controllerType": 64,
        "value": 22
      },
      {
        "deltaTime": 0,
        "channel": 0,
        "type": "noteOn",
        "noteNumber": 60,
        "velocity": 58
      },
      {
        "deltaTime": 6,
        "channel": 0,
        "type": "controller",
        "controllerType": 64,
        "value": 5
      },
      {
        "deltaTime": 0,
        "running": true,
        "channel": 0,
        "type": "controller",
        "controllerType": 64,
        "value": 1
      },
      {
        "deltaTime": 0,
        "running": true,
        "channel": 0,
        "type": "controller",
        "controllerType": 64,
        "value": 0
      },
      {
        "deltaTime": 51,
        "running": true,
        "channel": 0,
        "type": "controller",
        "controllerType": 64,
        "value": 22
      },
      {
        "deltaTime": 7,
        "running": true,
        "channel": 0,
        "type": "controller",
        "controllerType": 64,
        "value": 64
      },
      {
        "deltaTime": 17,
        "running": true,
        "channel": 0,
        "type": "controller",
        "controllerType": 64,
        "value": 65
      },
      {
        "deltaTime": 0,
        "running": true,
        "channel": 0,
        "type": "controller",
        "controllerType": 64,
        "value": 85
      },
      {
        "deltaTime": 17,
        "channel": 0,
        "type": "noteOff",
        "noteNumber": 72,
        "velocity": 0,
        "byte9": true
      },
      {
        "deltaTime": 7,
        "running": true,
        "channel": 0,
        "type": "noteOff",
        "noteNumber": 68,
        "velocity": 0,
        "byte9": true
      },
      {
        "deltaTime": 3,
        "channel": 0,
        "type": "controller",
        "controllerType": 64,
        "value": 64
      },
      {
        "deltaTime": 8,
        "channel": 0,
        "type": "noteOn",
        "noteNumber": 70,
        "velocity": 85
      },
      {
        "deltaTime": 7,
        "running": true,
        "channel": 0,
        "type": "noteOff",
        "noteNumber": 56,
        "velocity": 0,
        "byte9": true
      },
      {
        "deltaTime": 0,
        "running": true,
        "channel": 0,
        "type": "noteOn",
        "noteNumber": 68,
        "velocity": 47
      },
      {
        "deltaTime": 1,
        "running": true,
        "channel": 0,
        "type": "noteOn",
        "noteNumber": 53,
        "velocity": 53
      },
      {
        "deltaTime": 16,
        "running": true,
        "channel": 0,
        "type": "noteOff",
        "noteNumber": 68,
        "velocity": 0,
        "byte9": true
      },
      {
        "deltaTime": 8,
        "channel": 0,
        "type": "controller",
        "controllerType": 64,
        "value": 85
      },
      {
        "deltaTime": 32,
        "channel": 0,
        "type": "noteOff",
        "noteNumber": 65,
        "velocity": 0,
        "byte9": true
      },
      {
        "deltaTime": 21,
        "running": true,
        "channel": 0,
        "type": "noteOff",
        "noteNumber": 60,
        "velocity": 0,
        "byte9": true
      },
      {
        "deltaTime": 9,
        "running": true,
        "channel": 0,
        "type": "noteOff",
        "noteNumber": 70,
        "velocity": 0,
        "byte9": true
      },
      {
        "deltaTime": 18,
        "running": true,
        "channel": 0,
        "type": "noteOn",
        "noteNumber": 67,
        "velocity": 76
      },
      {
        "deltaTime": 2,
        "running": true,
        "channel": 0,
        "type": "noteOn",
        "noteNumber": 56,
        "velocity": 54
      },
      {
        "deltaTime": 36,
        "running": true,
        "channel": 0,
        "type": "noteOff",
        "noteNumber": 56,
        "velocity": 0,
        "byte9": true
      },
      {
        "deltaTime": 14,
        "running": true,
        "channel": 0,
        "type": "noteOff",
        "noteNumber": 67,
        "velocity": 0,
        "byte9": true
      },
      {
        "deltaTime": 24,
        "running": true,
        "channel": 0,
        "type": "noteOff",
        "noteNumber": 53,
        "velocity": 0,
        "byte9": true
      },
      {
        "deltaTime": 18,
        "running": true,
        "channel": 0,
        "type": "noteOff",
        "noteNumber": 46,
        "velocity": 0,
        "byte9": true
      },
      {
        "deltaTime": 32,
        "running": true,
        "channel": 0,
        "type": "noteOn",
        "noteNumber": 63,
        "velocity": 66
      },
      {
        "deltaTime": 129,
        "running": true,
        "channel": 0,
        "type": "noteOff",
        "noteNumber": 63,
        "velocity": 0,
        "byte9": true
      },
      {
        "deltaTime": 21,
        "running": true,
        "channel": 0,
        "type": "noteOn",
        "noteNumber": 39,
        "velocity": 78
      },
      {
        "deltaTime": 8,
        "channel": 0,
        "type": "controller",
        "controllerType": 64,
        "value": 64
      },
      {
        "deltaTime": 10,
        "running": true,
        "channel": 0,
        "type": "controller",
        "controllerType": 64,
        "value": 23
      },
      {
        "deltaTime": 0,
        "running": true,
        "channel": 0,
        "type": "controller",
        "controllerType": 64,
        "value": 22
      },
      {
        "deltaTime": 15,
        "running": true,
        "channel": 0,
        "type": "controller",
        "controllerType": 64,
        "value": 64
      },
      {
        "deltaTime": 9,
        "running": true,
        "channel": 0,
        "type": "controller",
        "controllerType": 64,
        "value": 65
      },
      {
        "deltaTime": 2,
        "running": true,
        "channel": 0,
        "type": "controller",
        "controllerType": 64,
        "value": 85
      },
      {
        "deltaTime": 10,
        "running": true,
        "channel": 0,
        "type": "controller",
        "controllerType": 64,
        "value": 113
      },
      {
        "deltaTime": 14,
        "channel": 0,
        "type": "noteOff",
        "noteNumber": 39,
        "velocity": 0,
        "byte9": true
      },
      {
        "deltaTime": 68,
        "channel": 0,
        "type": "controller",
        "controllerType": 64,
        "value": 106
      },
      {
        "deltaTime": 7,
        "running": true,
        "channel": 0,
        "type": "controller",
        "controllerType": 64,
        "value": 64
      },
      {
        "deltaTime": 3,
        "channel": 0,
        "type": "noteOn",
        "noteNumber": 57,
        "velocity": 53
      },
      {
        "deltaTime": 1,
        "running": true,
        "channel": 0,
        "type": "noteOn",
        "noteNumber": 66,
        "velocity": 54
      },
      {
        "deltaTime": 0,
        "running": true,
        "channel": 0,
        "type": "noteOn",
        "noteNumber": 63,
        "velocity": 60
      },
      {
        "deltaTime": 8,
        "channel": 0,
        "type": "controller",
        "controllerType": 64,
        "value": 23
      },
      {
        "deltaTime": 0,
        "running": true,
        "channel": 0,
        "type": "controller",
        "controllerType": 64,
        "value": 22
      },
      {
        "deltaTime": 0,
        "channel": 0,
        "type": "noteOn",
        "noteNumber": 72,
        "velocity": 49
      },
      {
        "deltaTime": 11,
        "running": true,
        "channel": 0,
        "type": "noteOn",
        "noteNumber": 69,
        "velocity": 33
      },
      {
        "deltaTime": 1,
        "channel": 0,
        "type": "controller",
        "controllerType": 64,
        "value": 64
      },
      {
        "deltaTime": 10,
        "running": true,
        "channel": 0,
        "type": "controller",
        "controllerType": 64,
        "value": 65
      },
      {
        "deltaTime": 0,
        "running": true,
        "channel": 0,
        "type": "controller",
        "controllerType": 64,
        "value": 85
      },
      {
        "deltaTime": 11,
        "running": true,
        "channel": 0,
        "type": "controller",
        "controllerType": 64,
        "value": 113
      },
      {
        "deltaTime": 28,
        "channel": 0,
        "type": "noteOff",
        "noteNumber": 63,
        "velocity": 0,
        "byte9": true
      },
      {
        "deltaTime": 1,
        "running": true,
        "channel": 0,
        "type": "noteOff",
        "noteNumber": 66,
        "velocity": 0,
        "byte9": true
      },
      {
        "deltaTime": 2,
        "running": true,
        "channel": 0,
        "type": "noteOff",
        "noteNumber": 69,
        "velocity": 0,
        "byte9": true
      },
      {
        "deltaTime": 2,
        "running": true,
        "channel": 0,
        "type": "noteOff",
        "noteNumber": 72,
        "velocity": 0,
        "byte9": true
      },
      {
        "deltaTime": 8,
        "running": true,
        "channel": 0,
        "type": "noteOff",
        "noteNumber": 57,
        "velocity": 0,
        "byte9": true
      },
      {
        "deltaTime": 37,
        "channel": 0,
        "type": "controller",
        "controllerType": 64,
        "value": 106
      },
      {
        "deltaTime": 9,
        "running": true,
        "channel": 0,
        "type": "controller",
        "controllerType": 64,
        "value": 64
      },
      {
        "deltaTime": 9,
        "channel": 0,
        "type": "noteOn",
        "noteNumber": 63,
        "velocity": 66
      },
      {
        "deltaTime": 1,
        "running": true,
        "channel": 0,
        "type": "noteOn",
        "noteNumber": 66,
        "velocity": 68
      },
      {
        "deltaTime": 0,
        "running": true,
        "channel": 0,
        "type": "noteOn",
        "noteNumber": 57,
        "velocity": 53
      },
      {
        "deltaTime": 4,
        "running": true,
        "channel": 0,
        "type": "noteOn",
        "noteNumber": 72,
        "velocity": 58
      },
      {
        "deltaTime": 17,
        "channel": 0,
        "type": "controller",
        "controllerType": 64,
        "value": 85
      },
      {
        "deltaTime": 27,
        "channel": 0,
        "type": "noteOff",
        "noteNumber": 72,
        "velocity": 0,
        "byte9": true
      },
      {
        "deltaTime": 14,
        "running": true,
        "channel": 0,
        "type": "noteOff",
        "noteNumber": 63,
        "velocity": 0,
        "byte9": true
      },
      {
        "deltaTime": 8,
        "running": true,
        "channel": 0,
        "type": "noteOff",
        "noteNumber": 66,
        "velocity": 0,
        "byte9": true
      },
      {
        "deltaTime": 55,
        "running": true,
        "channel": 0,
        "type": "noteOff",
        "noteNumber": 57,
        "velocity": 0,
        "byte9": true
      },
      {
        "deltaTime": 5,
        "channel": 0,
        "type": "controller",
        "controllerType": 64,
        "value": 64
      },
      {
        "deltaTime": 4,
        "channel": 0,
        "type": "noteOn",
        "noteNumber": 70,
        "velocity": 71
      },
      {
        "deltaTime": 3,
        "running": true,
        "channel": 0,
        "type": "noteOn",
        "noteNumber": 55,
        "velocity": 54
      },
      {
        "deltaTime": 3,
        "channel": 0,
        "type": "controller",
        "controllerType": 64,
        "value": 23
      },
      {
        "deltaTime": 1,
        "running": true,
        "channel": 0,
        "type": "controller",
        "controllerType": 64,
        "value": 22
      },
      {
        "deltaTime": 0,
        "channel": 0,
        "type": "noteOn",
        "noteNumber": 65,
        "velocity": 72
      },
      {
        "deltaTime": 0,
        "running": true,
        "channel": 0,
        "type": "noteOn",
        "noteNumber": 60,
        "velocity": 45
      },
      {
        "deltaTime": 8,
        "channel": 0,
        "type": "controller",
        "controllerType": 64,
        "value": 3
      },
      {
        "deltaTime": 0,
        "running": true,
        "channel": 0,
        "type": "controller",
        "controllerType": 64,
        "value": 0
      },
      {
        "deltaTime": 5,
        "running": true,
        "channel": 0,
        "type": "controller",
        "controllerType": 64,
        "value": 22
      },
      {
        "deltaTime": 14,
        "running": true,
        "channel": 0,
        "type": "controller",
        "controllerType": 64,
        "value": 45
      },
      {
        "deltaTime": 0,
        "running": true,
        "channel": 0,
        "type": "controller",
        "controllerType": 64,
        "value": 64
      },
      {
        "deltaTime": 10,
        "running": true,
        "channel": 0,
        "type": "controller",
        "controllerType": 64,
        "value": 65
      },
      {
        "deltaTime": 0,
        "running": true,
        "channel": 0,
        "type": "controller",
        "controllerType": 64,
        "value": 85
      },
      {
        "deltaTime": 61,
        "channel": 0,
        "type": "noteOff",
        "noteNumber": 60,
        "velocity": 0,
        "byte9": true
      },
      {
        "deltaTime": 5,
        "running": true,
        "channel": 0,
        "type": "noteOff",
        "noteNumber": 65,
        "velocity": 0,
        "byte9": true
      },
      {
        "deltaTime": 1,
        "running": true,
        "channel": 0,
        "type": "noteOff",
        "noteNumber": 70,
        "velocity": 0,
        "byte9": true
      },
      {
        "deltaTime": 6,
        "running": true,
        "channel": 0,
        "type": "noteOff",
        "noteNumber": 55,
        "velocity": 0,
        "byte9": true
      },
      {
        "deltaTime": 48,
        "running": true,
        "channel": 0,
        "type": "noteOn",
        "noteNumber": 70,
        "velocity": 59
      },
      {
        "deltaTime": 4,
        "running": true,
        "channel": 0,
        "type": "noteOn",
        "noteNumber": 60,
        "velocity": 50
      },
      {
        "deltaTime": 0,
        "running": true,
        "channel": 0,
        "type": "noteOn",
        "noteNumber": 55,
        "velocity": 53
      },
      {
        "deltaTime": 2,
        "running": true,
        "channel": 0,
        "type": "noteOn",
        "noteNumber": 65,
        "velocity": 64
      },
      {
        "deltaTime": 87,
        "running": true,
        "channel": 0,
        "type": "noteOff",
        "noteNumber": 55,
        "velocity": 0,
        "byte9": true
      },
      {
        "deltaTime": 81,
        "channel": 0,
        "type": "controller",
        "controllerType": 64,
        "value": 64
      },
      {
        "deltaTime": 6,
        "channel": 0,
        "type": "noteOn",
        "noteNumber": 46,
        "velocity": 83
      },
      {
        "deltaTime": 13,
        "running": true,
        "channel": 0,
        "type": "noteOff",
        "noteNumber": 60,
        "velocity": 0,
        "byte9": true
      },
      {
        "deltaTime": 12,
        "channel": 0,
        "type": "controller",
        "controllerType": 64,
        "value": 85
      },
      {
        "deltaTime": 32,
        "channel": 0,
        "type": "noteOff",
        "noteNumber": 65,
        "velocity": 0,
        "byte9": true
      },
      {
        "deltaTime": 13,
        "running": true,
        "channel": 0,
        "type": "noteOff",
        "noteNumber": 70,
        "velocity": 0,
        "byte9": true
      },
      {
        "deltaTime": 97,
        "running": true,
        "channel": 0,
        "type": "noteOn",
        "noteNumber": 75,
        "velocity": 113
      },
      {
        "deltaTime": 133,
        "running": true,
        "channel": 0,
        "type": "noteOff",
        "noteNumber": 75,
        "velocity": 0,
        "byte9": true
      },
      {
        "deltaTime": 23,
        "running": true,
        "channel": 0,
        "type": "noteOn",
        "noteNumber": 74,
        "velocity": 100
      },
      {
        "deltaTime": 2,
        "running": true,
        "channel": 0,
        "type": "noteOff",
        "noteNumber": 46,
        "velocity": 0,
        "byte9": true
      },
      {
        "deltaTime": 78,
        "running": true,
        "channel": 0,
        "type": "noteOff",
        "noteNumber": 74,
        "velocity": 0,
        "byte9": true
      },
      {
        "deltaTime": 47,
        "channel": 0,
        "type": "controller",
        "controllerType": 64,
        "value": 64
      },
      {
        "deltaTime": 9,
        "running": true,
        "channel": 0,
        "type": "controller",
        "controllerType": 64,
        "value": 23
      },
      {
        "deltaTime": 0,
        "running": true,
        "channel": 0,
        "type": "controller",
        "controllerType": 64,
        "value": 22
      },
      {
        "deltaTime": 0,
        "channel": 0,
        "type": "noteOn",
        "noteNumber": 74,
        "velocity": 98
      },
      {
        "deltaTime": 2,
        "channel": 0,
        "type": "controller",
        "controllerType": 64,
        "value": 9
      },
      {
        "deltaTime": 0,
        "running": true,
        "channel": 0,
        "type": "controller",
        "controllerType": 64,
        "value": 1
      },
      {
        "deltaTime": 0,
        "running": true,
        "channel": 0,
        "type": "controller",
        "controllerType": 64,
        "value": 0
      },
      {
        "deltaTime": 4,
        "channel": 0,
        "type": "noteOn",
        "noteNumber": 43,
        "velocity": 73
      },
      {
        "deltaTime": 4,
        "running": true,
        "channel": 0,
        "type": "noteOn",
        "noteNumber": 65,
        "velocity": 74
      },
      {
        "deltaTime": 8,
        "channel": 0,
        "type": "controller",
        "controllerType": 64,
        "value": 22
      },
      {
        "deltaTime": 7,
        "running": true,
        "channel": 0,
        "type": "controller",
        "controllerType": 64,
        "value": 50
      },
      {
        "deltaTime": 0,
        "running": true,
        "channel": 0,
        "type": "controller",
        "controllerType": 64,
        "value": 64
      },
      {
        "deltaTime": 7,
        "running": true,
        "channel": 0,
        "type": "controller",
        "controllerType": 64,
        "value": 65
      },
      {
        "deltaTime": 0,
        "running": true,
        "channel": 0,
        "type": "controller",
        "controllerType": 64,
        "value": 85
      },
      {
        "deltaTime": 43,
        "channel": 0,
        "type": "noteOff",
        "noteNumber": 74,
        "velocity": 0,
        "byte9": true
      },
      {
        "deltaTime": 13,
        "running": true,
        "channel": 0,
        "type": "noteOff",
        "noteNumber": 65,
        "velocity": 0,
        "byte9": true
      },
      {
        "deltaTime": 51,
        "running": true,
        "channel": 0,
        "type": "noteOff",
        "noteNumber": 43,
        "velocity": 0,
        "byte9": true
      },
      {
        "deltaTime": 11,
        "running": true,
        "channel": 0,
        "type": "noteOn",
        "noteNumber": 72,
        "velocity": 81
      },
      {
        "deltaTime": 6,
        "running": true,
        "channel": 0,
        "type": "noteOn",
        "noteNumber": 63,
        "velocity": 65
      },
      {
        "deltaTime": 59,
        "running": true,
        "channel": 0,
        "type": "noteOff",
        "noteNumber": 63,
        "velocity": 0,
        "byte9": true
      },
      {
        "deltaTime": 1,
        "running": true,
        "channel": 0,
        "type": "noteOff",
        "noteNumber": 72,
        "velocity": 0,
        "byte9": true
      },
      {
        "deltaTime": 85,
        "running": true,
        "channel": 0,
        "type": "noteOn",
        "noteNumber": 63,
        "velocity": 66
      },
      {
        "deltaTime": 2,
        "running": true,
        "channel": 0,
        "type": "noteOn",
        "noteNumber": 72,
        "velocity": 70
      },
      {
        "deltaTime": 3,
        "running": true,
        "channel": 0,
        "type": "noteOn",
        "noteNumber": 57,
        "velocity": 59
      },
      {
        "deltaTime": 0,
        "channel": 0,
        "type": "controller",
        "controllerType": 64,
        "value": 64
      },
      {
        "deltaTime": 34,
        "running": true,
        "channel": 0,
        "type": "controller",
        "controllerType": 64,
        "value": 85
      },
      {
        "deltaTime": 68,
        "channel": 0,
        "type": "noteOff",
        "noteNumber": 63,
        "velocity": 0,
        "byte9": true
      },
      {
        "deltaTime": 6,
        "running": true,
        "channel": 0,
        "type": "noteOff",
        "noteNumber": 72,
        "velocity": 0,
        "byte9": true
      },
      {
        "deltaTime": 10,
        "running": true,
        "channel": 0,
        "type": "noteOff",
        "noteNumber": 57,
        "velocity": 0,
        "byte9": true
      },
      {
        "deltaTime": 8,
        "running": true,
        "channel": 0,
        "type": "noteOn",
        "noteNumber": 70,
        "velocity": 73
      },
      {
        "deltaTime": 6,
        "running": true,
        "channel": 0,
        "type": "noteOn",
        "noteNumber": 62,
        "velocity": 58
      },
      {
        "deltaTime": 41,
        "running": true,
        "channel": 0,
        "type": "noteOff",
        "noteNumber": 62,
        "velocity": 0,
        "byte9": true
      },
      {
        "deltaTime": 20,
        "running": true,
        "channel": 0,
        "type": "noteOff",
        "noteNumber": 70,
        "velocity": 0,
        "byte9": true
      },
      {
        "deltaTime": 64,
        "running": true,
        "channel": 0,
        "type": "noteOn",
        "noteNumber": 70,
        "velocity": 61
      },
      {
        "deltaTime": 5,
        "running": true,
        "channel": 0,
        "type": "noteOn",
        "noteNumber": 61,
        "velocity": 51
      },
      {
        "deltaTime": 2,
        "running": true,
        "channel": 0,
        "type": "noteOn",
        "noteNumber": 56,
        "velocity": 41
      },
      {
        "deltaTime": 0,
        "channel": 0,
        "type": "controller",
        "controllerType": 64,
        "value": 64
      },
      {
        "deltaTime": 3,
        "channel": 0,
        "type": "noteOn",
        "noteNumber": 65,
        "velocity": 60
      },
      {
        "deltaTime": 1,
        "running": true,
        "channel": 0,
        "type": "noteOn",
        "noteNumber": 46,
        "velocity": 41
      },
      {
        "deltaTime": 7,
        "channel": 0,
        "type": "controller",
        "controllerType": 64,
        "value": 23
      },
      {
        "deltaTime": 0,
        "running": true,
        "channel": 0,
        "type": "controller",
        "controllerType": 64,
        "value": 22
      },
      {
        "deltaTime": 7,
        "running": true,
        "channel": 0,
        "type": "controller",
        "controllerType": 64,
        "value": 5
      },
      {
        "deltaTime": 0,
        "running": true,
        "channel": 0,
        "type": "controller",
        "controllerType": 64,
        "value": 1
      },
      {
        "deltaTime": 0,
        "running": true,
        "channel": 0,
        "type": "controller",
        "controllerType": 64,
        "value": 0
      },
      {
        "deltaTime": 24,
        "running": true,
        "channel": 0,
        "type": "controller",
        "controllerType": 64,
        "value": 22
      },
      {
        "deltaTime": 9,
        "running": true,
        "channel": 0,
        "type": "controller",
        "controllerType": 64,
        "value": 45
      },
      {
        "deltaTime": 0,
        "running": true,
        "channel": 0,
        "type": "controller",
        "controllerType": 64,
        "value": 64
      },
      {
        "deltaTime": 8,
        "running": true,
        "channel": 0,
        "type": "controller",
        "controllerType": 64,
        "value": 65
      },
      {
        "deltaTime": 0,
        "running": true,
        "channel": 0,
        "type": "controller",
        "controllerType": 64,
        "value": 85
      },
      {
        "deltaTime": 70,
        "channel": 0,
        "type": "noteOff",
        "noteNumber": 65,
        "velocity": 0,
        "byte9": true
      },
      {
        "deltaTime": 13,
        "running": true,
        "channel": 0,
        "type": "noteOff",
        "noteNumber": 61,
        "velocity": 0,
        "byte9": true
      },
      {
        "deltaTime": 25,
        "running": true,
        "channel": 0,
        "type": "noteOn",
        "noteNumber": 61,
        "velocity": 10
      },
      {
        "deltaTime": 8,
        "running": true,
        "channel": 0,
        "type": "noteOff",
        "noteNumber": 70,
        "velocity": 0,
        "byte9": true
      },
      {
        "deltaTime": 0,
        "running": true,
        "channel": 0,
        "type": "noteOn",
        "noteNumber": 67,
        "velocity": 61
      },
      {
        "deltaTime": 3,
        "running": true,
        "channel": 0,
        "type": "noteOn",
        "noteNumber": 53,
        "velocity": 45
      },
      {
        "deltaTime": 3,
        "running": true,
        "channel": 0,
        "type": "noteOff",
        "noteNumber": 56,
        "velocity": 0,
        "byte9": true
      },
      {
        "deltaTime": 92,
        "running": true,
        "channel": 0,
        "type": "noteOff",
        "noteNumber": 46,
        "velocity": 0,
        "byte9": true
      },
      {
        "deltaTime": 0,
        "running": true,
        "channel": 0,
        "type": "noteOff",
        "noteNumber": 53,
        "velocity": 0,
        "byte9": true
      },
      {
        "deltaTime": 62,
        "running": true,
        "channel": 0,
        "type": "noteOff",
        "noteNumber": 67,
        "velocity": 0,
        "byte9": true
      },
      {
        "deltaTime": 30,
        "running": true,
        "channel": 0,
        "type": "noteOff",
        "noteNumber": 61,
        "velocity": 0,
        "byte9": true
      },
      {
        "deltaTime": 175,
        "running": true,
        "channel": 0,
        "type": "noteOn",
        "noteNumber": 68,
        "velocity": 67
      },
      {
        "deltaTime": 12,
        "channel": 0,
        "type": "controller",
        "controllerType": 64,
        "value": 64
      },
      {
        "deltaTime": 11,
        "running": true,
        "channel": 0,
        "type": "controller",
        "controllerType": 64,
        "value": 23
      },
      {
        "deltaTime": 1,
        "running": true,
        "channel": 0,
        "type": "controller",
        "controllerType": 64,
        "value": 22
      },
      {
        "deltaTime": 7,
        "running": true,
        "channel": 0,
        "type": "controller",
        "controllerType": 64,
        "value": 4
      },
      {
        "deltaTime": 0,
        "running": true,
        "channel": 0,
        "type": "controller",
        "controllerType": 64,
        "value": 1
      },
      {
        "deltaTime": 2,
        "running": true,
        "channel": 0,
        "type": "controller",
        "controllerType": 64,
        "value": 0
      },
      {
        "deltaTime": 79,
        "running": true,
        "channel": 0,
        "type": "controller",
        "controllerType": 64,
        "value": 22
      },
      {
        "deltaTime": 8,
        "running": true,
        "channel": 0,
        "type": "controller",
        "controllerType": 64,
        "value": 64
      },
      {
        "deltaTime": 9,
        "running": true,
        "channel": 0,
        "type": "controller",
        "controllerType": 64,
        "value": 65
      },
      {
        "deltaTime": 0,
        "running": true,
        "channel": 0,
        "type": "controller",
        "controllerType": 64,
        "value": 85
      },
      {
        "deltaTime": 39,
        "channel": 0,
        "type": "noteOff",
        "noteNumber": 68,
        "velocity": 0,
        "byte9": true
      },
      {
        "deltaTime": 39,
        "running": true,
        "channel": 0,
        "type": "noteOn",
        "noteNumber": 39,
        "velocity": 54
      },
      {
        "deltaTime": 2,
        "running": true,
        "channel": 0,
        "type": "noteOn",
        "noteNumber": 70,
        "velocity": 62
      },
      {
        "deltaTime": 40,
        "running": true,
        "channel": 0,
        "type": "noteOff",
        "noteNumber": 39,
        "velocity": 0,
        "byte9": true
      },
      {
        "deltaTime": 44,
        "running": true,
        "channel": 0,
        "type": "noteOff",
        "noteNumber": 70,
        "velocity": 0,
        "byte9": true
      },
      {
        "deltaTime": 156,
        "running": true,
        "channel": 0,
        "type": "noteOn",
        "noteNumber": 72,
        "velocity": 51
      },
      {
        "deltaTime": 1,
        "running": true,
        "channel": 0,
        "type": "noteOn",
        "noteNumber": 64,
        "velocity": 53
      },
      {
        "deltaTime": 3,
        "running": true,
        "channel": 0,
        "type": "noteOn",
        "noteNumber": 67,
        "velocity": 57
      },
      {
        "deltaTime": 1,
        "running": true,
        "channel": 0,
        "type": "noteOn",
        "noteNumber": 60,
        "velocity": 53
      },
      {
        "deltaTime": 1,
        "running": true,
        "channel": 0,
        "type": "noteOn",
        "noteNumber": 52,
        "velocity": 48
      },
      {
        "deltaTime": 2,
        "running": true,
        "channel": 0,
        "type": "noteOn",
        "noteNumber": 44,
        "velocity": 48
      },
      {
        "deltaTime": 0,
        "channel": 0,
        "type": "controller",
        "controllerType": 64,
        "value": 64
      },
      {
        "deltaTime": 11,
        "running": true,
        "channel": 0,
        "type": "controller",
        "controllerType": 64,
        "value": 23
      },
      {
        "deltaTime": 0,
        "running": true,
        "channel": 0,
        "type": "controller",
        "controllerType": 64,
        "value": 22
      },
      {
        "deltaTime": 9,
        "running": true,
        "channel": 0,
        "type": "controller",
        "controllerType": 64,
        "value": 4
      },
      {
        "deltaTime": 0,
        "running": true,
        "channel": 0,
        "type": "controller",
        "controllerType": 64,
        "value": 0
      },
      {
        "deltaTime": 45,
        "running": true,
        "channel": 0,
        "type": "controller",
        "controllerType": 64,
        "value": 22
      },
      {
        "deltaTime": 7,
        "running": true,
        "channel": 0,
        "type": "controller",
        "controllerType": 64,
        "value": 64
      },
      {
        "deltaTime": 12,
        "running": true,
        "channel": 0,
        "type": "controller",
        "controllerType": 64,
        "value": 65
      },
      {
        "deltaTime": 2,
        "running": true,
        "channel": 0,
        "type": "controller",
        "controllerType": 64,
        "value": 85
      },
      {
        "deltaTime": 30,
        "channel": 0,
        "type": "noteOff",
        "noteNumber": 64,
        "velocity": 0,
        "byte9": true
      },
      {
        "deltaTime": 28,
        "channel": 0,
        "type": "controller",
        "controllerType": 64,
        "value": 64
      },
      {
        "deltaTime": 6,
        "channel": 0,
        "type": "noteOn",
        "noteNumber": 65,
        "velocity": 80
      },
      {
        "deltaTime": 5,
        "channel": 0,
        "type": "controller",
        "controllerType": 64,
        "value": 23
      },
      {
        "deltaTime": 0,
        "running": true,
        "channel": 0,
        "type": "controller",
        "controllerType": 64,
        "value": 22
      },
      {
        "deltaTime": 3,
        "channel": 0,
        "type": "noteOn",
        "noteNumber": 53,
        "velocity": 63
      },
      {
        "deltaTime": 1,
        "running": true,
        "channel": 0,
        "type": "noteOff",
        "noteNumber": 52,
        "velocity": 0,
        "byte9": true
      },
      {
        "deltaTime": 24,
        "running": true,
        "channel": 0,
        "type": "noteOff",
        "noteNumber": 67,
        "velocity": 0,
        "byte9": true
      },
      {
        "deltaTime": 1,
        "channel": 0,
        "type": "controller",
        "controllerType": 64,
        "value": 64
      },
      {
        "deltaTime": 13,
        "running": true,
        "channel": 0,
        "type": "controller",
        "controllerType": 64,
        "value": 65
      },
      {
        "deltaTime": 0,
        "running": true,
        "channel": 0,
        "type": "controller",
        "controllerType": 64,
        "value": 85
      },
      {
        "deltaTime": 45,
        "channel": 0,
        "type": "noteOff",
        "noteNumber": 60,
        "velocity": 0,
        "byte9": true
      },
      {
        "deltaTime": 14,
        "running": true,
        "channel": 0,
        "type": "noteOff",
        "noteNumber": 53,
        "velocity": 0,
        "byte9": true
      },
      {
        "deltaTime": 25,
        "running": true,
        "channel": 0,
        "type": "noteOff",
        "noteNumber": 65,
        "velocity": 0,
        "byte9": true
      },
      {
        "deltaTime": 11,
        "running": true,
        "channel": 0,
        "type": "noteOn",
        "noteNumber": 60,
        "velocity": 57
      },
      {
        "deltaTime": 0,
        "running": true,
        "channel": 0,
        "type": "noteOn",
        "noteNumber": 67,
        "velocity": 63
      },
      {
        "deltaTime": 0,
        "channel": 0,
        "type": "controller",
        "controllerType": 64,
        "value": 64
      },
      {
        "deltaTime": 4,
        "channel": 0,
        "type": "noteOn",
        "noteNumber": 55,
        "velocity": 58
      },
      {
        "deltaTime": 6,
        "channel": 0,
        "type": "controller",
        "controllerType": 64,
        "value": 23
      },
      {
        "deltaTime": 0,
        "running": true,
        "channel": 0,
        "type": "controller",
        "controllerType": 64,
        "value": 22
      },
      {
        "deltaTime": 6,
        "running": true,
        "channel": 0,
        "type": "controller",
        "controllerType": 64,
        "value": 5
      },
      {
        "deltaTime": 0,
        "running": true,
        "channel": 0,
        "type": "controller",
        "controllerType": 64,
        "value": 0
      },
      {
        "deltaTime": 15,
        "channel": 0,
        "type": "noteOff",
        "noteNumber": 44,
        "velocity": 0,
        "byte9": true
      },
      {
        "deltaTime": 9,
        "channel": 0,
        "type": "controller",
        "controllerType": 64,
        "value": 22
      },
      {
        "deltaTime": 8,
        "running": true,
        "channel": 0,
        "type": "controller",
        "controllerType": 64,
        "value": 45
      },
      {
        "deltaTime": 0,
        "running": true,
        "channel": 0,
        "type": "controller",
        "controllerType": 64,
        "value": 64
      },
      {
        "deltaTime": 11,
        "running": true,
        "channel": 0,
        "type": "controller",
        "controllerType": 64,
        "value": 65
      },
      {
        "deltaTime": 0,
        "running": true,
        "channel": 0,
        "type": "controller",
        "controllerType": 64,
        "value": 85
      },
      {
        "deltaTime": 90,
        "channel": 0,
        "type": "noteOn",
        "noteNumber": 56,
        "velocity": 59
      },
      {
        "deltaTime": 18,
        "running": true,
        "channel": 0,
        "type": "noteOff",
        "noteNumber": 55,
        "velocity": 0,
        "byte9": true
      },
      {
        "deltaTime": 31,
        "running": true,
        "channel": 0,
        "type": "noteOff",
        "noteNumber": 67,
        "velocity": 0,
        "byte9": true
      },
      {
        "deltaTime": 19,
        "running": true,
        "channel": 0,
        "type": "noteOff",
        "noteNumber": 60,
        "velocity": 0,
        "byte9": true
      },
      {
        "deltaTime": 112,
        "running": true,
        "channel": 0,
        "type": "noteOn",
        "noteNumber": 60,
        "velocity": 49
      },
      {
        "deltaTime": 3,
        "running": true,
        "channel": 0,
        "type": "noteOn",
        "noteNumber": 67,
        "velocity": 55
      },
      {
        "deltaTime": 164,
        "running": true,
        "channel": 0,
        "type": "noteOff",
        "noteNumber": 56,
        "velocity": 0,
        "byte9": true
      },
      {
        "deltaTime": 12,
        "running": true,
        "channel": 0,
        "type": "noteOn",
        "noteNumber": 55,
        "velocity": 52
      },
      {
        "deltaTime": 13,
        "channel": 0,
        "type": "controller",
        "controllerType": 64,
        "value": 64
      },
      {
        "deltaTime": 22,
        "running": true,
        "channel": 0,
        "type": "controller",
        "controllerType": 64,
        "value": 85
      },
      {
        "deltaTime": 33,
        "channel": 0,
        "type": "noteOff",
        "noteNumber": 67,
        "velocity": 0,
        "byte9": true
      },
      {
        "deltaTime": 9,
        "running": true,
        "channel": 0,
        "type": "noteOff",
        "noteNumber": 60,
        "velocity": 0,
        "byte9": true
      },
      {
        "deltaTime": 12,
        "running": true,
        "channel": 0,
        "type": "noteOff",
        "noteNumber": 72,
        "velocity": 0,
        "byte9": true
      },
      {
        "deltaTime": 83,
        "running": true,
        "channel": 0,
        "type": "noteOn",
        "noteNumber": 68,
        "velocity": 81
      },
      {
        "deltaTime": 2,
        "running": true,
        "channel": 0,
        "type": "noteOn",
        "noteNumber": 60,
        "velocity": 63
      },
      {
        "deltaTime": 1,
        "channel": 0,
        "type": "controller",
        "controllerType": 64,
        "value": 64
      },
      {
        "deltaTime": 10,
        "running": true,
        "channel": 0,
        "type": "controller",
        "controllerType": 64,
        "value": 23
      },
      {
        "deltaTime": 0,
        "running": true,
        "channel": 0,
        "type": "controller",
        "controllerType": 64,
        "value": 22
      },
      {
        "deltaTime": 24,
        "running": true,
        "channel": 0,
        "type": "controller",
        "controllerType": 64,
        "value": 64
      },
      {
        "deltaTime": 9,
        "running": true,
        "channel": 0,
        "type": "controller",
        "controllerType": 64,
        "value": 65
      },
      {
        "deltaTime": 1,
        "running": true,
        "channel": 0,
        "type": "controller",
        "controllerType": 64,
        "value": 85
      },
      {
        "deltaTime": 91,
        "channel": 0,
        "type": "noteOn",
        "noteNumber": 70,
        "velocity": 93
      },
      {
        "deltaTime": 5,
        "running": true,
        "channel": 0,
        "type": "noteOff",
        "noteNumber": 55,
        "velocity": 0,
        "byte9": true
      },
      {
        "deltaTime": 2,
        "running": true,
        "channel": 0,
        "type": "noteOn",
        "noteNumber": 53,
        "velocity": 47
      },
      {
        "deltaTime": 11,
        "running": true,
        "channel": 0,
        "type": "noteOff",
        "noteNumber": 60,
        "velocity": 0,
        "byte9": true
      },
      {
        "deltaTime": 3,
        "running": true,
        "channel": 0,
        "type": "noteOff",
        "noteNumber": 53,
        "velocity": 0,
        "byte9": true
      },
      {
        "deltaTime": 6,
        "running": true,
        "channel": 0,
        "type": "noteOff",
        "noteNumber": 68,
        "velocity": 0,
        "byte9": true
      },
      {
        "deltaTime": 67,
        "running": true,
        "channel": 0,
        "type": "noteOff",
        "noteNumber": 70,
        "velocity": 0,
        "byte9": true
      },
      {
        "deltaTime": 29,
        "channel": 0,
        "type": "controller",
        "controllerType": 64,
        "value": 64
      },
      {
        "deltaTime": 7,
        "running": true,
        "channel": 0,
        "type": "controller",
        "controllerType": 64,
        "value": 23
      },
      {
        "deltaTime": 0,
        "running": true,
        "channel": 0,
        "type": "controller",
        "controllerType": 64,
        "value": 22
      },
      {
        "deltaTime": 1,
        "channel": 0,
        "type": "noteOn",
        "noteNumber": 71,
        "velocity": 72
      },
      {
        "deltaTime": 0,
        "running": true,
        "channel": 0,
        "type": "noteOn",
        "noteNumber": 63,
        "velocity": 63
      },
      {
        "deltaTime": 2,
        "channel": 0,
        "type": "controller",
        "controllerType": 64,
        "value": 10
      },
      {
        "deltaTime": 0,
        "running": true,
        "channel": 0,
        "type": "controller",
        "controllerType": 64,
        "value": 1
      },
      {
        "deltaTime": 0,
        "running": true,
        "channel": 0,
        "type": "controller",
        "controllerType": 64,
        "value": 0
      },
      {
        "deltaTime": 0,
        "channel": 0,
        "type": "noteOn",
        "noteNumber": 59,
        "velocity": 60
      },
      {
        "deltaTime": 2,
        "running": true,
        "channel": 0,
        "type": "noteOn",
        "noteNumber": 53,
        "velocity": 61
      },
      {
        "deltaTime": 2,
        "running": true,
        "channel": 0,
        "type": "noteOn",
        "noteNumber": 44,
        "velocity": 63
      },
      {
        "deltaTime": 12,
        "channel": 0,
        "type": "controller",
        "controllerType": 64,
        "value": 22
      },
      {
        "deltaTime": 7,
        "channel": 0,
        "type": "noteOff",
        "noteNumber": 59,
        "velocity": 0,
        "byte9": true
      },
      {
        "deltaTime": 1,
        "channel": 0,
        "type": "controller",
        "controllerType": 64,
        "value": 52
      },
      {
        "deltaTime": 0,
        "running": true,
        "channel": 0,
        "type": "controller",
        "controllerType": 64,
        "value": 64
      },
      {
        "deltaTime": 8,
        "running": true,
        "channel": 0,
        "type": "controller",
        "controllerType": 64,
        "value": 65
      },
      {
        "deltaTime": 0,
        "running": true,
        "channel": 0,
        "type": "controller",
        "controllerType": 64,
        "value": 85
      },
      {
        "deltaTime": 3,
        "channel": 0,
        "type": "noteOff",
        "noteNumber": 63,
        "velocity": 0,
        "byte9": true
      },
      {
        "deltaTime": 9,
        "channel": 0,
        "type": "controller",
        "controllerType": 64,
        "value": 113
      },
      {
        "deltaTime": 1,
        "channel": 0,
        "type": "noteOff",
        "noteNumber": 71,
        "velocity": 0,
        "byte9": true
      },
      {
        "deltaTime": 18,
        "running": true,
        "channel": 0,
        "type": "noteOff",
        "noteNumber": 44,
        "velocity": 0,
        "byte9": true
      },
      {
        "deltaTime": 12,
        "running": true,
        "channel": 0,
        "type": "noteOff",
        "noteNumber": 53,
        "velocity": 0,
        "byte9": true
      },
      {
        "deltaTime": 49,
        "running": true,
        "channel": 0,
        "type": "noteOn",
        "noteNumber": 83,
        "velocity": 90
      },
      {
        "deltaTime": 2,
        "running": true,
        "channel": 0,
        "type": "noteOn",
        "noteNumber": 71,
        "velocity": 90
      },
      {
        "deltaTime": 4,
        "running": true,
        "channel": 0,
        "type": "noteOn",
        "noteNumber": 82,
        "velocity": 70
      },
      {
        "deltaTime": 11,
        "running": true,
        "channel": 0,
        "type": "noteOff",
        "noteNumber": 82,
        "velocity": 0,
        "byte9": true
      },
      {
        "deltaTime": 31,
        "running": true,
        "channel": 0,
        "type": "noteOff",
        "noteNumber": 71,
        "velocity": 0,
        "byte9": true
      },
      {
        "deltaTime": 20,
        "running": true,
        "channel": 0,
        "type": "noteOff",
        "noteNumber": 83,
        "velocity": 0,
        "byte9": true
      },
      {
        "deltaTime": 22,
        "channel": 0,
        "type": "controller",
        "controllerType": 64,
        "value": 106
      },
      {
        "deltaTime": 6,
        "running": true,
        "channel": 0,
        "type": "controller",
        "controllerType": 64,
        "value": 64
      },
      {
        "deltaTime": 5,
        "channel": 0,
        "type": "noteOn",
        "noteNumber": 63,
        "velocity": 76
      },
      {
        "deltaTime": 2,
        "running": true,
        "channel": 0,
        "type": "noteOn",
        "noteNumber": 83,
        "velocity": 73
      },
      {
        "deltaTime": 1,
        "running": true,
        "channel": 0,
        "type": "noteOn",
        "noteNumber": 54,
        "velocity": 64
      },
      {
        "deltaTime": 0,
        "running": true,
        "channel": 0,
        "type": "noteOn",
        "noteNumber": 75,
        "velocity": 91
      },
      {
        "deltaTime": 5,
        "running": true,
        "channel": 0,
        "type": "noteOn",
        "noteNumber": 58,
        "velocity": 61
      },
      {
        "deltaTime": 0,
        "channel": 0,
        "type": "controller",
        "controllerType": 64,
        "value": 23
      },
      {
        "deltaTime": 0,
        "running": true,
        "channel": 0,
        "type": "controller",
        "controllerType": 64,
        "value": 22
      },
      {
        "deltaTime": 0,
        "channel": 0,
        "type": "noteOn",
        "noteNumber": 71,
        "velocity": 88
      },
      {
        "deltaTime": 0,
        "running": true,
        "channel": 0,
        "type": "noteOn",
        "noteNumber": 78,
        "velocity": 77
      },
      {
        "deltaTime": 1,
        "running": true,
        "channel": 0,
        "type": "noteOn",
        "noteNumber": 59,
        "velocity": 61
      },
      {
        "deltaTime": 2,
        "running": true,
        "channel": 0,
        "type": "noteOn",
        "noteNumber": 80,
        "velocity": 57
      },
      {
        "deltaTime": 4,
        "channel": 0,
        "type": "controller",
        "controllerType": 64,
        "value": 64
      },
      {
        "deltaTime": 12,
        "running": true,
        "channel": 0,
        "type": "controller",
        "controllerType": 64,
        "value": 65
      },
      {
        "deltaTime": 0,
        "running": true,
        "channel": 0,
        "type": "controller",
        "controllerType": 64,
        "value": 85
      },
      {
        "deltaTime": 6,
        "channel": 0,
        "type": "noteOff",
        "noteNumber": 71,
        "velocity": 0,
        "byte9": true
      },
      {
        "deltaTime": 5,
        "running": true,
        "channel": 0,
        "type": "noteOff",
        "noteNumber": 80,
        "velocity": 0,
        "byte9": true
      },
      {
        "deltaTime": 1,
        "running": true,
        "channel": 0,
        "type": "noteOff",
        "noteNumber": 75,
        "velocity": 0,
        "byte9": true
      },
      {
        "deltaTime": 5,
        "running": true,
        "channel": 0,
        "type": "noteOff",
        "noteNumber": 83,
        "velocity": 0,
        "byte9": true
      },
      {
        "deltaTime": 0,
        "running": true,
        "channel": 0,
        "type": "noteOff",
        "noteNumber": 78,
        "velocity": 0,
        "byte9": true
      },
      {
        "deltaTime": 60,
        "running": true,
        "channel": 0,
        "type": "noteOff",
        "noteNumber": 59,
        "velocity": 0,
        "byte9": true
      },
      {
        "deltaTime": 6,
        "running": true,
        "channel": 0,
        "type": "noteOff",
        "noteNumber": 63,
        "velocity": 0,
        "byte9": true
      },
      {
        "deltaTime": 0,
        "running": true,
        "channel": 0,
        "type": "noteOn",
        "noteNumber": 85,
        "velocity": 98
      },
      {
        "deltaTime": 1,
        "running": true,
        "channel": 0,
        "type": "noteOn",
        "noteNumber": 73,
        "velocity": 94
      },
      {
        "deltaTime": 2,
        "running": true,
        "channel": 0,
        "type": "noteOn",
        "noteNumber": 80,
        "velocity": 92
      },
      {
        "deltaTime": 4,
        "running": true,
        "channel": 0,
        "type": "noteOff",
        "noteNumber": 58,
        "velocity": 0,
        "byte9": true
      },
      {
        "deltaTime": 24,
        "running": true,
        "channel": 0,
        "type": "noteOff",
        "noteNumber": 73,
        "velocity": 0,
        "byte9": true
      },
      {
        "deltaTime": 2,
        "running": true,
        "channel": 0,
        "type": "noteOff",
        "noteNumber": 54,
        "velocity": 0,
        "byte9": true
      },
      {
        "deltaTime": 14,
        "running": true,
        "channel": 0,
        "type": "noteOff",
        "noteNumber": 85,
        "velocity": 0,
        "byte9": true
      },
      {
        "deltaTime": 0,
        "running": true,
        "channel": 0,
        "type": "noteOff",
        "noteNumber": 80,
        "velocity": 0,
        "byte9": true
      },
      {
        "deltaTime": 54,
        "channel": 0,
        "type": "controller",
        "controllerType": 64,
        "value": 64
      },
      {
        "deltaTime": 12,
        "running": true,
        "channel": 0,
        "type": "controller",
        "controllerType": 64,
        "value": 23
      },
      {
        "deltaTime": 1,
        "running": true,
        "channel": 0,
        "type": "controller",
        "controllerType": 64,
        "value": 22
      },
      {
        "deltaTime": 0,
        "channel": 0,
        "type": "noteOn",
        "noteNumber": 63,
        "velocity": 81
      },
      {
        "deltaTime": 0,
        "running": true,
        "channel": 0,
        "type": "noteOn",
        "noteNumber": 53,
        "velocity": 73
      },
      {
        "deltaTime": 0,
        "running": true,
        "channel": 0,
        "type": "noteOn",
        "noteNumber": 87,
        "velocity": 100
      },
      {
        "deltaTime": 0,
        "running": true,
        "channel": 0,
        "type": "noteOn",
        "noteNumber": 58,
        "velocity": 60
      },
      {
        "deltaTime": 1,
        "running": true,
        "channel": 0,
        "type": "noteOn",
        "noteNumber": 75,
        "velocity": 99
      },
      {
        "deltaTime": 0,
        "running": true,
        "channel": 0,
        "type": "noteOn",
        "noteNumber": 82,
        "velocity": 89
      },
      {
        "deltaTime": 0,
        "running": true,
        "channel": 0,
        "type": "noteOn",
        "noteNumber": 59,
        "velocity": 66
      },
      {
        "deltaTime": 0,
        "channel": 0,
        "type": "controller",
        "controllerType": 64,
        "value": 7
      },
      {
        "deltaTime": 0,
        "running": true,
        "channel": 0,
        "type": "controller",
        "controllerType": 64,
        "value": 1
      },
      {
        "deltaTime": 2,
        "running": true,
        "channel": 0,
        "type": "controller",
        "controllerType": 64,
        "value": 0
      },
      {
        "deltaTime": 28,
        "running": true,
        "channel": 0,
        "type": "controller",
        "controllerType": 64,
        "value": 22
      },
      {
        "deltaTime": 6,
        "running": true,
        "channel": 0,
        "type": "controller",
        "controllerType": 64,
        "value": 46
      },
      {
        "deltaTime": 0,
        "running": true,
        "channel": 0,
        "type": "controller",
        "controllerType": 64,
        "value": 64
      },
      {
        "deltaTime": 6,
        "running": true,
        "channel": 0,
        "type": "controller",
        "controllerType": 64,
        "value": 65
      },
      {
        "deltaTime": 0,
        "running": true,
        "channel": 0,
        "type": "controller",
        "controllerType": 64,
        "value": 85
      },
      {
        "deltaTime": 11,
        "running": true,
        "channel": 0,
        "type": "controller",
        "controllerType": 64,
        "value": 113
      },
      {
        "deltaTime": 19,
        "channel": 0,
        "type": "noteOff",
        "noteNumber": 87,
        "velocity": 0,
        "byte9": true
      },
      {
        "deltaTime": 6,
        "running": true,
        "channel": 0,
        "type": "noteOff",
        "noteNumber": 75,
        "velocity": 0,
        "byte9": true
      },
      {
        "deltaTime": 10,
        "running": true,
        "channel": 0,
        "type": "noteOff",
        "noteNumber": 82,
        "velocity": 0,
        "byte9": true
      },
      {
        "deltaTime": 31,
        "running": true,
        "channel": 0,
        "type": "noteOn",
        "noteNumber": 87,
        "velocity": 94
      },
      {
        "deltaTime": 3,
        "running": true,
        "channel": 0,
        "type": "noteOn",
        "noteNumber": 75,
        "velocity": 88
      },
      {
        "deltaTime": 0,
        "running": true,
        "channel": 0,
        "type": "noteOn",
        "noteNumber": 82,
        "velocity": 85
      },
      {
        "deltaTime": 4,
        "running": true,
        "channel": 0,
        "type": "noteOff",
        "noteNumber": 63,
        "velocity": 0,
        "byte9": true
      },
      {
        "deltaTime": 39,
        "running": true,
        "channel": 0,
        "type": "noteOff",
        "noteNumber": 58,
        "velocity": 0,
        "byte9": true
      },
      {
        "deltaTime": 2,
        "running": true,
        "channel": 0,
        "type": "noteOff",
        "noteNumber": 87,
        "velocity": 0,
        "byte9": true
      },
      {
        "deltaTime": 1,
        "running": true,
        "channel": 0,
        "type": "noteOff",
        "noteNumber": 75,
        "velocity": 0,
        "byte9": true
      },
      {
        "deltaTime": 6,
        "running": true,
        "channel": 0,
        "type": "noteOff",
        "noteNumber": 59,
        "velocity": 0,
        "byte9": true
      },
      {
        "deltaTime": 3,
        "running": true,
        "channel": 0,
        "type": "noteOff",
        "noteNumber": 82,
        "velocity": 0,
        "byte9": true
      },
      {
        "deltaTime": 25,
        "running": true,
        "channel": 0,
        "type": "noteOff",
        "noteNumber": 53,
        "velocity": 0,
        "byte9": true
      },
      {
        "deltaTime": 19,
        "channel": 0,
        "type": "controller",
        "controllerType": 64,
        "value": 106
      },
      {
        "deltaTime": 7,
        "running": true,
        "channel": 0,
        "type": "controller",
        "controllerType": 64,
        "value": 64
      },
      {
        "deltaTime": 6,
        "channel": 0,
        "type": "noteOn",
        "noteNumber": 85,
        "velocity": 77
      },
      {
        "deltaTime": 3,
        "running": true,
        "channel": 0,
        "type": "noteOn",
        "noteNumber": 63,
        "velocity": 58
      },
      {
        "deltaTime": 2,
        "running": true,
        "channel": 0,
        "type": "noteOn",
        "noteNumber": 73,
        "velocity": 69
      },
      {
        "deltaTime": 3,
        "running": true,
        "channel": 0,
        "type": "noteOn",
        "noteNumber": 59,
        "velocity": 59
      },
      {
        "deltaTime": 4,
        "running": true,
        "channel": 0,
        "type": "noteOn",
        "noteNumber": 53,
        "velocity": 23
      },
      {
        "deltaTime": 2,
        "running": true,
        "channel": 0,
        "type": "noteOn",
        "noteNumber": 58,
        "velocity": 43
      },
      {
        "deltaTime": 2,
        "running": true,
        "channel": 0,
        "type": "noteOn",
        "noteNumber": 80,
        "velocity": 42
      },
      {
        "deltaTime": 7,
        "channel": 0,
        "type": "controller",
        "controllerType": 64,
        "value": 85
      },
      {
        "deltaTime": 13,
        "channel": 0,
        "type": "noteOff",
        "noteNumber": 80,
        "velocity": 0,
        "byte9": true
      },
      {
        "deltaTime": 12,
        "running": true,
        "channel": 0,
        "type": "noteOff",
        "noteNumber": 85,
        "velocity": 0,
        "byte9": true
      },
      {
        "deltaTime": 8,
        "running": true,
        "channel": 0,
        "type": "noteOff",
        "noteNumber": 73,
        "velocity": 0,
        "byte9": true
      },
      {
        "deltaTime": 10,
        "running": true,
        "channel": 0,
        "type": "noteOff",
        "noteNumber": 63,
        "velocity": 0,
        "byte9": true
      },
      {
        "deltaTime": 46,
        "running": true,
        "channel": 0,
        "type": "noteOff",
        "noteNumber": 59,
        "velocity": 0,
        "byte9": true
      },
      {
        "deltaTime": 1,
        "running": true,
        "channel": 0,
        "type": "noteOff",
        "noteNumber": 58,
        "velocity": 0,
        "byte9": true
      },
      {
        "deltaTime": 16,
        "running": true,
        "channel": 0,
        "type": "noteOn",
        "noteNumber": 83,
        "velocity": 69
      },
      {
        "deltaTime": 5,
        "running": true,
        "channel": 0,
        "type": "noteOn",
        "noteNumber": 71,
        "velocity": 65
      },
      {
        "deltaTime": 2,
        "running": true,
        "channel": 0,
        "type": "noteOff",
        "noteNumber": 53,
        "velocity": 0,
        "byte9": true
      },
      {
        "deltaTime": 32,
        "running": true,
        "channel": 0,
        "type": "noteOff",
        "noteNumber": 71,
        "velocity": 0,
        "byte9": true
      },
      {
        "deltaTime": 9,
        "running": true,
        "channel": 0,
        "type": "noteOff",
        "noteNumber": 83,
        "velocity": 0,
        "byte9": true
      },
      {
        "deltaTime": 67,
        "channel": 0,
        "type": "controller",
        "controllerType": 64,
        "value": 64
      },
      {
        "deltaTime": 11,
        "running": true,
        "channel": 0,
        "type": "controller",
        "controllerType": 64,
        "value": 23
      },
      {
        "deltaTime": 0,
        "running": true,
        "channel": 0,
        "type": "controller",
        "controllerType": 64,
        "value": 22
      },
      {
        "deltaTime": 3,
        "channel": 0,
        "type": "noteOn",
        "noteNumber": 83,
        "velocity": 58
      },
      {
        "deltaTime": 5,
        "running": true,
        "channel": 0,
        "type": "noteOn",
        "noteNumber": 39,
        "velocity": 62
      },
      {
        "deltaTime": 1,
        "running": true,
        "channel": 0,
        "type": "noteOn",
        "noteNumber": 71,
        "velocity": 44
      },
      {
        "deltaTime": 4,
        "running": true,
        "channel": 0,
        "type": "noteOn",
        "noteNumber": 79,
        "velocity": 45
      },
      {
        "deltaTime": 3,
        "channel": 0,
        "type": "controller",
        "controllerType": 64,
        "value": 64
      },
      {
        "deltaTime": 10,
        "running": true,
        "channel": 0,
        "type": "controller",
        "controllerType": 64,
        "value": 65
      },
      {
        "deltaTime": 1,
        "running": true,
        "channel": 0,
        "type": "controller",
        "controllerType": 64,
        "value": 85
      },
      {
        "deltaTime": 8,
        "channel": 0,
        "type": "noteOff",
        "noteNumber": 83,
        "velocity": 0,
        "byte9": true
      },
      {
        "deltaTime": 2,
        "running": true,
        "channel": 0,
        "type": "noteOff",
        "noteNumber": 79,
        "velocity": 0,
        "byte9": true
      },
      {
        "deltaTime": 10,
        "running": true,
        "channel": 0,
        "type": "noteOff",
        "noteNumber": 71,
        "velocity": 0,
        "byte9": true
      },
      {
        "deltaTime": 51,
        "running": true,
        "channel": 0,
        "type": "noteOff",
        "noteNumber": 39,
        "velocity": 0,
        "byte9": true
      },
      {
        "deltaTime": 29,
        "running": true,
        "channel": 0,
        "type": "noteOn",
        "noteNumber": 46,
        "velocity": 71
      },
      {
        "deltaTime": 121,
        "running": true,
        "channel": 0,
        "type": "noteOn",
        "noteNumber": 55,
        "velocity": 57
      },
      {
        "deltaTime": 2,
        "running": true,
        "channel": 0,
        "type": "noteOn",
        "noteNumber": 67,
        "velocity": 52
      },
      {
        "deltaTime": 0,
        "running": true,
        "channel": 0,
        "type": "noteOn",
        "noteNumber": 62,
        "velocity": 50
      },
      {
        "deltaTime": 89,
        "running": true,
        "channel": 0,
        "type": "noteOff",
        "noteNumber": 46,
        "velocity": 0,
        "byte9": true
      },
      {
        "deltaTime": 35,
        "running": true,
        "channel": 0,
        "type": "noteOn",
        "noteNumber": 70,
        "velocity": 67
      },
      {
        "deltaTime": 17,
        "running": true,
        "channel": 0,
        "type": "noteOff",
        "noteNumber": 62,
        "velocity": 0,
        "byte9": true
      },
      {
        "deltaTime": 3,
        "running": true,
        "channel": 0,
        "type": "noteOff",
        "noteNumber": 67,
        "velocity": 0,
        "byte9": true
      },
      {
        "deltaTime": 11,
        "running": true,
        "channel": 0,
        "type": "noteOff",
        "noteNumber": 55,
        "velocity": 0,
        "byte9": true
      },
      {
        "deltaTime": 19,
        "running": true,
        "channel": 0,
        "type": "noteOff",
        "noteNumber": 70,
        "velocity": 0,
        "byte9": true
      },
      {
        "deltaTime": 82,
        "running": true,
        "channel": 0,
        "type": "noteOn",
        "noteNumber": 70,
        "velocity": 48
      },
      {
        "deltaTime": 0,
        "channel": 0,
        "type": "controller",
        "controllerType": 64,
        "value": 64
      },
      {
        "deltaTime": 2,
        "channel": 0,
        "type": "noteOn",
        "noteNumber": 60,
        "velocity": 33
      },
      {
        "deltaTime": 3,
        "running": true,
        "channel": 0,
        "type": "noteOn",
        "noteNumber": 64,
        "velocity": 54
      },
      {
        "deltaTime": 2,
        "running": true,
        "channel": 0,
        "type": "noteOn",
        "noteNumber": 58,
        "velocity": 44
      },
      {
        "deltaTime": 4,
        "channel": 0,
        "type": "controller",
        "controllerType": 64,
        "value": 23
      },
      {
        "deltaTime": 0,
        "running": true,
        "channel": 0,
        "type": "controller",
        "controllerType": 64,
        "value": 22
      },
      {
        "deltaTime": 1,
        "channel": 0,
        "type": "noteOn",
        "noteNumber": 48,
        "velocity": 45
      },
      {
        "deltaTime": 5,
        "channel": 0,
        "type": "controller",
        "controllerType": 64,
        "value": 5
      },
      {
        "deltaTime": 0,
        "running": true,
        "channel": 0,
        "type": "controller",
        "controllerType": 64,
        "value": 1
      },
      {
        "deltaTime": 0,
        "running": true,
        "channel": 0,
        "type": "controller",
        "controllerType": 64,
        "value": 0
      },
      {
        "deltaTime": 28,
        "running": true,
        "channel": 0,
        "type": "controller",
        "controllerType": 64,
        "value": 22
      },
      {
        "deltaTime": 8,
        "running": true,
        "channel": 0,
        "type": "controller",
        "controllerType": 64,
        "value": 45
      },
      {
        "deltaTime": 0,
        "running": true,
        "channel": 0,
        "type": "controller",
        "controllerType": 64,
        "value": 64
      },
      {
        "deltaTime": 7,
        "running": true,
        "channel": 0,
        "type": "controller",
        "controllerType": 64,
        "value": 65
      },
      {
        "deltaTime": 0,
        "running": true,
        "channel": 0,
        "type": "controller",
        "controllerType": 64,
        "value": 85
      },
      {
        "deltaTime": 81,
        "channel": 0,
        "type": "noteOn",
        "noteNumber": 55,
        "velocity": 55
      },
      {
        "deltaTime": 4,
        "running": true,
        "channel": 0,
        "type": "noteOff",
        "noteNumber": 58,
        "velocity": 0,
        "byte9": true
      },
      {
        "deltaTime": 16,
        "running": true,
        "channel": 0,
        "type": "noteOff",
        "noteNumber": 60,
        "velocity": 0,
        "byte9": true
      },
      {
        "deltaTime": 14,
        "running": true,
        "channel": 0,
        "type": "noteOff",
        "noteNumber": 70,
        "velocity": 0,
        "byte9": true
      },
      {
        "deltaTime": 2,
        "running": true,
        "channel": 0,
        "type": "noteOff",
        "noteNumber": 64,
        "velocity": 0,
        "byte9": true
      },
      {
        "deltaTime": 99,
        "channel": 0,
        "type": "controller",
        "controllerType": 64,
        "value": 64
      },
      {
        "deltaTime": 1,
        "channel": 0,
        "type": "noteOn",
        "noteNumber": 69,
        "velocity": 92
      },
      {
        "deltaTime": 0,
        "running": true,
        "channel": 0,
        "type": "noteOn",
        "noteNumber": 72,
        "velocity": 93
      },
      {
        "deltaTime": 1,
        "running": true,
        "channel": 0,
        "type": "noteOn",
        "noteNumber": 58,
        "velocity": 47
      },
      {
        "deltaTime": 10,
        "channel": 0,
        "type": "controller",
        "controllerType": 64,
        "value": 23
      },
      {
        "deltaTime": 0,
        "running": true,
        "channel": 0,
        "type": "controller",
        "controllerType": 64,
        "value": 22
      },
      {
        "deltaTime": 23,
        "running": true,
        "channel": 0,
        "type": "controller",
        "controllerType": 64,
        "value": 64
      },
      {
        "deltaTime": 13,
        "running": true,
        "channel": 0,
        "type": "controller",
        "controllerType": 64,
        "value": 65
      },
      {
        "deltaTime": 0,
        "running": true,
        "channel": 0,
        "type": "controller",
        "controllerType": 64,
        "value": 85
      },
      {
        "deltaTime": 21,
        "channel": 0,
        "type": "noteOff",
        "noteNumber": 69,
        "velocity": 0,
        "byte9": true
      },
      {
        "deltaTime": 10,
        "running": true,
        "channel": 0,
        "type": "noteOff",
        "noteNumber": 72,
        "velocity": 0,
        "byte9": true
      },
      {
        "deltaTime": 2,
        "running": true,
        "channel": 0,
        "type": "noteOn",
        "noteNumber": 71,
        "velocity": 72
      },
      {
        "deltaTime": 5,
        "running": true,
        "channel": 0,
        "type": "noteOn",
        "noteNumber": 68,
        "velocity": 79
      },
      {
        "deltaTime": 4,
        "running": true,
        "channel": 0,
        "type": "noteOff",
        "noteNumber": 58,
        "velocity": 0,
        "byte9": true
      },
      {
        "deltaTime": 15,
        "running": true,
        "channel": 0,
        "type": "noteOff",
        "noteNumber": 55,
        "velocity": 0,
        "byte9": true
      },
      {
        "deltaTime": 2,
        "running": true,
        "channel": 0,
        "type": "noteOff",
        "noteNumber": 48,
        "velocity": 0,
        "byte9": true
      },
      {
        "deltaTime": 36,
        "running": true,
        "channel": 0,
        "type": "noteOff",
        "noteNumber": 68,
        "velocity": 0,
        "byte9": true
      },
      {
        "deltaTime": 0,
        "running": true,
        "channel": 0,
        "type": "noteOff",
        "noteNumber": 71,
        "velocity": 0,
        "byte9": true
      },
      {
        "deltaTime": 21,
        "running": true,
        "channel": 0,
        "type": "noteOn",
        "noteNumber": 70,
        "velocity": 84
      },
      {
        "deltaTime": 3,
        "running": true,
        "channel": 0,
        "type": "noteOn",
        "noteNumber": 67,
        "velocity": 72
      },
      {
        "deltaTime": 33,
        "running": true,
        "channel": 0,
        "type": "noteOff",
        "noteNumber": 70,
        "velocity": 0,
        "byte9": true
      },
      {
        "deltaTime": 9,
        "running": true,
        "channel": 0,
        "type": "noteOff",
        "noteNumber": 67,
        "velocity": 0,
        "byte9": true
      },
      {
        "deltaTime": 32,
        "running": true,
        "channel": 0,
        "type": "noteOn",
        "noteNumber": 70,
        "velocity": 79
      },
      {
        "deltaTime": 5,
        "running": true,
        "channel": 0,
        "type": "noteOn",
        "noteNumber": 67,
        "velocity": 79
      },
      {
        "deltaTime": 35,
        "running": true,
        "channel": 0,
        "type": "noteOff",
        "noteNumber": 67,
        "velocity": 0,
        "byte9": true
      },
      {
        "deltaTime": 15,
        "running": true,
        "channel": 0,
        "type": "noteOff",
        "noteNumber": 70,
        "velocity": 0,
        "byte9": true
      },
      {
        "deltaTime": 33,
        "channel": 0,
        "type": "controller",
        "controllerType": 64,
        "value": 64
      },
      {
        "deltaTime": 6,
        "channel": 0,
        "type": "noteOn",
        "noteNumber": 70,
        "velocity": 62
      },
      {
        "deltaTime": 4,
        "channel": 0,
        "type": "controller",
        "controllerType": 64,
        "value": 23
      },
      {
        "deltaTime": 0,
        "running": true,
        "channel": 0,
        "type": "controller",
        "controllerType": 64,
        "value": 22
      },
      {
        "deltaTime": 0,
        "channel": 0,
        "type": "noteOn",
        "noteNumber": 67,
        "velocity": 63
      },
      {
        "deltaTime": 3,
        "running": true,
        "channel": 0,
        "type": "noteOn",
        "noteNumber": 41,
        "velocity": 53
      },
      {
        "deltaTime": 20,
        "channel": 0,
        "type": "controller",
        "controllerType": 64,
        "value": 64
      },
      {
        "deltaTime": 11,
        "running": true,
        "channel": 0,
        "type": "controller",
        "controllerType": 64,
        "value": 65
      },
      {
        "deltaTime": 0,
        "running": true,
        "channel": 0,
        "type": "controller",
        "controllerType": 64,
        "value": 85
      },
      {
        "deltaTime": 54,
        "channel": 0,
        "type": "noteOff",
        "noteNumber": 67,
        "velocity": 0,
        "byte9": true
      },
      {
        "deltaTime": 10,
        "running": true,
        "channel": 0,
        "type": "noteOff",
        "noteNumber": 70,
        "velocity": 0,
        "byte9": true
      },
      {
        "deltaTime": 21,
        "running": true,
        "channel": 0,
        "type": "noteOn",
        "noteNumber": 48,
        "velocity": 51
      },
      {
        "deltaTime": 133,
        "running": true,
        "channel": 0,
        "type": "noteOn",
        "noteNumber": 62,
        "velocity": 55
      },
      {
        "deltaTime": 3,
        "running": true,
        "channel": 0,
        "type": "noteOff",
        "noteNumber": 48,
        "velocity": 0,
        "byte9": true
      },
      {
        "deltaTime": 2,
        "running": true,
        "channel": 0,
        "type": "noteOn",
        "noteNumber": 56,
        "velocity": 51
      },
      {
        "deltaTime": 1,
        "channel": 0,
        "type": "controller",
        "controllerType": 64,
        "value": 64
      },
      {
        "deltaTime": 2,
        "channel": 0,
        "type": "noteOn",
        "noteNumber": 50,
        "velocity": 50
      },
      {
        "deltaTime": 2,
        "running": true,
        "channel": 0,
        "type": "noteOn",
        "noteNumber": 53,
        "velocity": 10
      },
      {
        "deltaTime": 13,
        "channel": 0,
        "type": "controller",
        "controllerType": 64,
        "value": 23
      },
      {
        "deltaTime": 0,
        "running": true,
        "channel": 0,
        "type": "controller",
        "controllerType": 64,
        "value": 22
      },
      {
        "deltaTime": 18,
        "channel": 0,
        "type": "noteOff",
        "noteNumber": 41,
        "velocity": 0,
        "byte9": true
      },
      {
        "deltaTime": 12,
        "channel": 0,
        "type": "controller",
        "controllerType": 64,
        "value": 64
      },
      {
        "deltaTime": 18,
        "running": true,
        "channel": 0,
        "type": "controller",
        "controllerType": 64,
        "value": 65
      },
      {
        "deltaTime": 1,
        "running": true,
        "channel": 0,
        "type": "controller",
        "controllerType": 64,
        "value": 85
      },
      {
        "deltaTime": 51,
        "channel": 0,
        "type": "noteOff",
        "noteNumber": 50,
        "velocity": 0,
        "byte9": true
      },
      {
        "deltaTime": 11,
        "running": true,
        "channel": 0,
        "type": "noteOn",
        "noteNumber": 49,
        "velocity": 66
      },
      {
        "deltaTime": 1,
        "channel": 0,
        "type": "controller",
        "controllerType": 64,
        "value": 64
      },
      {
        "deltaTime": 1,
        "channel": 0,
        "type": "noteOff",
        "noteNumber": 53,
        "velocity": 0,
        "byte9": true
      },
      {
        "deltaTime": 11,
        "running": true,
        "channel": 0,
        "type": "noteOff",
        "noteNumber": 56,
        "velocity": 0,
        "byte9": true
      },
      {
        "deltaTime": 3,
        "channel": 0,
        "type": "controller",
        "controllerType": 64,
        "value": 85
      },
      {
        "deltaTime": 8,
        "channel": 0,
        "type": "noteOff",
        "noteNumber": 62,
        "velocity": 0,
        "byte9": true
      },
      {
        "deltaTime": 21,
        "running": true,
        "channel": 0,
        "type": "noteOff",
        "noteNumber": 49,
        "velocity": 0,
        "byte9": true
      },
      {
        "deltaTime": 95,
        "channel": 0,
        "type": "controller",
        "controllerType": 64,
        "value": 64
      },
      {
        "deltaTime": 0,
        "channel": 0,
        "type": "noteOn",
        "noteNumber": 56,
        "velocity": 57
      },
      {
        "deltaTime": 2,
        "running": true,
        "channel": 0,
        "type": "noteOn",
        "noteNumber": 60,
        "velocity": 54
      },
      {
        "deltaTime": 4,
        "running": true,
        "channel": 0,
        "type": "noteOn",
        "noteNumber": 48,
        "velocity": 58
      },
      {
        "deltaTime": 5,
        "channel": 0,
        "type": "controller",
        "controllerType": 64,
        "value": 23
      },
      {
        "deltaTime": 0,
        "running": true,
        "channel": 0,
        "type": "controller",
        "controllerType": 64,
        "value": 22
      },
      {
        "deltaTime": 31,
        "channel": 0,
        "type": "noteOn",
        "noteNumber": 63,
        "velocity": 6
      },
      {
        "deltaTime": 2,
        "channel": 0,
        "type": "controller",
        "controllerType": 64,
        "value": 64
      },
      {
        "deltaTime": 12,
        "running": true,
        "channel": 0,
        "type": "controller",
        "controllerType": 64,
        "value": 65
      },
      {
        "deltaTime": 0,
        "running": true,
        "channel": 0,
        "type": "controller",
        "controllerType": 64,
        "value": 85
      },
      {
        "deltaTime": 24,
        "channel": 0,
        "type": "noteOff",
        "noteNumber": 56,
        "velocity": 0,
        "byte9": true
      },
      {
        "deltaTime": 10,
        "running": true,
        "channel": 0,
        "type": "noteOff",
        "noteNumber": 48,
        "velocity": 0,
        "byte9": true
      },
      {
        "deltaTime": 7,
        "running": true,
        "channel": 0,
        "type": "noteOff",
        "noteNumber": 63,
        "velocity": 0,
        "byte9": true
      },
      {
        "deltaTime": 47,
        "running": true,
        "channel": 0,
        "type": "noteOff",
        "noteNumber": 60,
        "velocity": 0,
        "byte9": true
      },
      {
        "deltaTime": 6,
        "channel": 0,
        "type": "controller",
        "controllerType": 64,
        "value": 64
      },
      {
        "deltaTime": 2,
        "channel": 0,
        "type": "noteOn",
        "noteNumber": 56,
        "velocity": 65
      },
      {
        "deltaTime": 4,
        "running": true,
        "channel": 0,
        "type": "noteOn",
        "noteNumber": 46,
        "velocity": 69
      },
      {
        "deltaTime": 6,
        "channel": 0,
        "type": "controller",
        "controllerType": 64,
        "value": 23
      },
      {
        "deltaTime": 0,
        "running": true,
        "channel": 0,
        "type": "controller",
        "controllerType": 64,
        "value": 22
      },
      {
        "deltaTime": 29,
        "running": true,
        "channel": 0,
        "type": "controller",
        "controllerType": 64,
        "value": 64
      },
      {
        "deltaTime": 9,
        "running": true,
        "channel": 0,
        "type": "controller",
        "controllerType": 64,
        "value": 65
      },
      {
        "deltaTime": 0,
        "running": true,
        "channel": 0,
        "type": "controller",
        "controllerType": 64,
        "value": 85
      },
      {
        "deltaTime": 78,
        "channel": 0,
        "type": "noteOff",
        "noteNumber": 56,
        "velocity": 0,
        "byte9": true
      },
      {
        "deltaTime": 11,
        "running": true,
        "channel": 0,
        "type": "noteOn",
        "noteNumber": 53,
        "velocity": 60
      },
      {
        "deltaTime": 9,
        "channel": 0,
        "type": "controller",
        "controllerType": 64,
        "value": 64
      },
      {
        "deltaTime": 7,
        "channel": 0,
        "type": "noteOn",
        "noteNumber": 72,
        "velocity": 102
      },
      {
        "deltaTime": 3,
        "channel": 0,
        "type": "controller",
        "controllerType": 64,
        "value": 23
      },
      {
        "deltaTime": 0,
        "running": true,
        "channel": 0,
        "type": "controller",
        "controllerType": 64,
        "value": 22
      },
      {
        "deltaTime": 0,
        "channel": 0,
        "type": "noteOn",
        "noteNumber": 67,
        "velocity": 100
      },
      {
        "deltaTime": 2,
        "running": true,
        "channel": 0,
        "type": "noteOn",
        "noteNumber": 62,
        "velocity": 92
      },
      {
        "deltaTime": 7,
        "channel": 0,
        "type": "controller",
        "controllerType": 64,
        "value": 4
      },
      {
        "deltaTime": 0,
        "running": true,
        "channel": 0,
        "type": "controller",
        "controllerType": 64,
        "value": 1
      },
      {
        "deltaTime": 0,
        "running": true,
        "channel": 0,
        "type": "controller",
        "controllerType": 64,
        "value": 0
      },
      {
        "deltaTime": 2,
        "channel": 0,
        "type": "noteOn",
        "noteNumber": 56,
        "velocity": 73
      },
      {
        "deltaTime": 9,
        "running": true,
        "channel": 0,
        "type": "noteOff",
        "noteNumber": 53,
        "velocity": 0,
        "byte9": true
      },
      {
        "deltaTime": 4,
        "channel": 0,
        "type": "controller",
        "controllerType": 64,
        "value": 22
      },
      {
        "deltaTime": 10,
        "running": true,
        "channel": 0,
        "type": "controller",
        "controllerType": 64,
        "value": 45
      },
      {
        "deltaTime": 0,
        "running": true,
        "channel": 0,
        "type": "controller",
        "controllerType": 64,
        "value": 64
      },
      {
        "deltaTime": 10,
        "running": true,
        "channel": 0,
        "type": "controller",
        "controllerType": 64,
        "value": 65
      },
      {
        "deltaTime": 0,
        "running": true,
        "channel": 0,
        "type": "controller",
        "controllerType": 64,
        "value": 85
      },
      {
        "deltaTime": 43,
        "channel": 0,
        "type": "noteOff",
        "noteNumber": 46,
        "velocity": 0,
        "byte9": true
      },
      {
        "deltaTime": 23,
        "running": true,
        "channel": 0,
        "type": "noteOff",
        "noteNumber": 72,
        "velocity": 0,
        "byte9": true
      },
      {
        "deltaTime": 38,
        "running": true,
        "channel": 0,
        "type": "noteOff",
        "noteNumber": 56,
        "velocity": 0,
        "byte9": true
      },
      {
        "deltaTime": 12,
        "running": true,
        "channel": 0,
        "type": "noteOn",
        "noteNumber": 46,
        "velocity": 73
      },
      {
        "deltaTime": 30,
        "running": true,
        "channel": 0,
        "type": "noteOff",
        "noteNumber": 46,
        "velocity": 0,
        "byte9": true
      },
      {
        "deltaTime": 40,
        "running": true,
        "channel": 0,
        "type": "noteOff",
        "noteNumber": 62,
        "velocity": 0,
        "byte9": true
      },
      {
        "deltaTime": 8,
        "running": true,
        "channel": 0,
        "type": "noteOff",
        "noteNumber": 67,
        "velocity": 0,
        "byte9": true
      },
      {
        "deltaTime": 16,
        "running": true,
        "channel": 0,
        "type": "noteOn",
        "noteNumber": 70,
        "velocity": 104
      },
      {
        "deltaTime": 48,
        "running": true,
        "channel": 0,
        "type": "noteOff",
        "noteNumber": 70,
        "velocity": 0,
        "byte9": true
      },
      {
        "deltaTime": 42,
        "channel": 0,
        "type": "controller",
        "controllerType": 64,
        "value": 64
      },
      {
        "deltaTime": 9,
        "running": true,
        "channel": 0,
        "type": "controller",
        "controllerType": 64,
        "value": 23
      },
      {
        "deltaTime": 0,
        "running": true,
        "channel": 0,
        "type": "controller",
        "controllerType": 64,
        "value": 22
      },
      {
        "deltaTime": 3,
        "channel": 0,
        "type": "noteOn",
        "noteNumber": 70,
        "velocity": 93
      },
      {
        "deltaTime": 1,
        "running": true,
        "channel": 0,
        "type": "noteOn",
        "noteNumber": 39,
        "velocity": 74
      },
      {
        "deltaTime": 1,
        "running": true,
        "channel": 0,
        "type": "noteOn",
        "noteNumber": 67,
        "velocity": 82
      },
      {
        "deltaTime": 0,
        "channel": 0,
        "type": "controller",
        "controllerType": 64,
        "value": 7
      },
      {
        "deltaTime": 0,
        "running": true,
        "channel": 0,
        "type": "controller",
        "controllerType": 64,
        "value": 1
      },
      {
        "deltaTime": 0,
        "running": true,
        "channel": 0,
        "type": "controller",
        "controllerType": 64,
        "value": 0
      },
      {
        "deltaTime": 1,
        "channel": 0,
        "type": "noteOn",
        "noteNumber": 62,
        "velocity": 74
      },
      {
        "deltaTime": 15,
        "channel": 0,
        "type": "controller",
        "controllerType": 64,
        "value": 22
      },
      {
        "deltaTime": 8,
        "running": true,
        "channel": 0,
        "type": "controller",
        "controllerType": 64,
        "value": 48
      },
      {
        "deltaTime": 0,
        "running": true,
        "channel": 0,
        "type": "controller",
        "controllerType": 64,
        "value": 64
      },
      {
        "deltaTime": 7,
        "running": true,
        "channel": 0,
        "type": "controller",
        "controllerType": 64,
        "value": 65
      },
      {
        "deltaTime": 0,
        "running": true,
        "channel": 0,
        "type": "controller",
        "controllerType": 64,
        "value": 85
      },
      {
        "deltaTime": 12,
        "running": true,
        "channel": 0,
        "type": "controller",
        "controllerType": 64,
        "value": 113
      },
      {
        "deltaTime": 3,
        "channel": 0,
        "type": "noteOff",
        "noteNumber": 67,
        "velocity": 0,
        "byte9": true
      },
      {
        "deltaTime": 3,
        "running": true,
        "channel": 0,
        "type": "noteOff",
        "noteNumber": 70,
        "velocity": 0,
        "byte9": true
      },
      {
        "deltaTime": 37,
        "running": true,
        "channel": 0,
        "type": "noteOff",
        "noteNumber": 62,
        "velocity": 0,
        "byte9": true
      },
      {
        "deltaTime": 23,
        "running": true,
        "channel": 0,
        "type": "noteOff",
        "noteNumber": 39,
        "velocity": 0,
        "byte9": true
      },
      {
        "deltaTime": 18,
        "running": true,
        "channel": 0,
        "type": "noteOn",
        "noteNumber": 46,
        "velocity": 69
      },
      {
        "deltaTime": 1,
        "running": true,
        "channel": 0,
        "type": "noteOn",
        "noteNumber": 67,
        "velocity": 95
      },
      {
        "deltaTime": 125,
        "channel": 0,
        "type": "controller",
        "controllerType": 64,
        "value": 106
      },
      {
        "deltaTime": 7,
        "running": true,
        "channel": 0,
        "type": "controller",
        "controllerType": 64,
        "value": 64
      },
      {
        "deltaTime": 9,
        "channel": 0,
        "type": "noteOn",
        "noteNumber": 58,
        "velocity": 87
      },
      {
        "deltaTime": 1,
        "running": true,
        "channel": 0,
        "type": "noteOn",
        "noteNumber": 62,
        "velocity": 78
      },
      {
        "deltaTime": 1,
        "running": true,
        "channel": 0,
        "type": "noteOn",
        "noteNumber": 55,
        "velocity": 74
      },
      {
        "deltaTime": 6,
        "channel": 0,
        "type": "controller",
        "controllerType": 64,
        "value": 23
      },
      {
        "deltaTime": 1,
        "running": true,
        "channel": 0,
        "type": "controller",
        "controllerType": 64,
        "value": 22
      },
      {
        "deltaTime": 0,
        "running": true,
        "channel": 0,
        "type": "controller",
        "controllerType": 64,
        "value": 64
      },
      {
        "deltaTime": 17,
        "running": true,
        "channel": 0,
        "type": "controller",
        "controllerType": 64,
        "value": 65
      },
      {
        "deltaTime": 0,
        "running": true,
        "channel": 0,
        "type": "controller",
        "controllerType": 64,
        "value": 85
      },
      {
        "deltaTime": 12,
        "running": true,
        "channel": 0,
        "type": "controller",
        "controllerType": 64,
        "value": 113
      },
      {
        "deltaTime": 12,
        "channel": 0,
        "type": "noteOff",
        "noteNumber": 46,
        "velocity": 0,
        "byte9": true
      },
      {
        "deltaTime": 22,
        "running": true,
        "channel": 0,
        "type": "noteOff",
        "noteNumber": 67,
        "velocity": 0,
        "byte9": true
      },
      {
        "deltaTime": 5,
        "running": true,
        "channel": 0,
        "type": "noteOff",
        "noteNumber": 58,
        "velocity": 0,
        "byte9": true
      },
      {
        "deltaTime": 8,
        "running": true,
        "channel": 0,
        "type": "noteOff",
        "noteNumber": 62,
        "velocity": 0,
        "byte9": true
      },
      {
        "deltaTime": 36,
        "running": true,
        "channel": 0,
        "type": "noteOff",
        "noteNumber": 55,
        "velocity": 0,
        "byte9": true
      },
      {
        "deltaTime": 19,
        "channel": 0,
        "type": "controller",
        "controllerType": 64,
        "value": 106
      },
      {
        "deltaTime": 6,
        "channel": 0,
        "type": "noteOn",
        "noteNumber": 66,
        "velocity": 91
      },
      {
        "deltaTime": 0,
        "channel": 0,
        "type": "controller",
        "controllerType": 64,
        "value": 64
      },
      {
        "deltaTime": 4,
        "channel": 0,
        "type": "noteOn",
        "noteNumber": 63,
        "velocity": 87
      },
      {
        "deltaTime": 0,
        "running": true,
        "channel": 0,
        "type": "noteOn",
        "noteNumber": 57,
        "velocity": 88
      },
      {
        "deltaTime": 1,
        "running": true,
        "channel": 0,
        "type": "noteOn",
        "noteNumber": 61,
        "velocity": 82
      },
      {
        "deltaTime": 5,
        "channel": 0,
        "type": "controller",
        "controllerType": 64,
        "value": 23
      },
      {
        "deltaTime": 0,
        "running": true,
        "channel": 0,
        "type": "controller",
        "controllerType": 64,
        "value": 22
      },
      {
        "deltaTime": 0,
        "channel": 0,
        "type": "noteOn",
        "noteNumber": 47,
        "velocity": 75
      },
      {
        "deltaTime": 2,
        "channel": 0,
        "type": "controller",
        "controllerType": 64,
        "value": 8
      },
      {
        "deltaTime": 0,
        "running": true,
        "channel": 0,
        "type": "controller",
        "controllerType": 64,
        "value": 1
      },
      {
        "deltaTime": 1,
        "running": true,
        "channel": 0,
        "type": "controller",
        "controllerType": 64,
        "value": 0
      },
      {
        "deltaTime": 23,
        "running": true,
        "channel": 0,
        "type": "controller",
        "controllerType": 64,
        "value": 22
      },
      {
        "deltaTime": 7,
        "running": true,
        "channel": 0,
        "type": "controller",
        "controllerType": 64,
        "value": 48
      },
      {
        "deltaTime": 0,
        "running": true,
        "channel": 0,
        "type": "controller",
        "controllerType": 64,
        "value": 64
      },
      {
        "deltaTime": 8,
        "running": true,
        "channel": 0,
        "type": "controller",
        "controllerType": 64,
        "value": 65
      },
      {
        "deltaTime": 0,
        "running": true,
        "channel": 0,
        "type": "controller",
        "controllerType": 64,
        "value": 85
      },
      {
        "deltaTime": 12,
        "running": true,
        "channel": 0,
        "type": "controller",
        "controllerType": 64,
        "value": 113
      },
      {
        "deltaTime": 24,
        "channel": 0,
        "type": "noteOff",
        "noteNumber": 57,
        "velocity": 0,
        "byte9": true
      },
      {
        "deltaTime": 25,
        "running": true,
        "channel": 0,
        "type": "noteOff",
        "noteNumber": 66,
        "velocity": 0,
        "byte9": true
      },
      {
        "deltaTime": 1,
        "running": true,
        "channel": 0,
        "type": "noteOff",
        "noteNumber": 63,
        "velocity": 0,
        "byte9": true
      },
      {
        "deltaTime": 1,
        "running": true,
        "channel": 0,
        "type": "noteOff",
        "noteNumber": 61,
        "velocity": 0,
        "byte9": true
      },
      {
        "deltaTime": 30,
        "channel": 0,
        "type": "controller",
        "controllerType": 64,
        "value": 106
      },
      {
        "deltaTime": 5,
        "running": true,
        "channel": 0,
        "type": "controller",
        "controllerType": 64,
        "value": 64
      },
      {
        "deltaTime": 10,
        "running": true,
        "channel": 0,
        "type": "controller",
        "controllerType": 64,
        "value": 23
      },
      {
        "deltaTime": 0,
        "running": true,
        "channel": 0,
        "type": "controller",
        "controllerType": 64,
        "value": 22
      },
      {
        "deltaTime": 0,
        "channel": 0,
        "type": "noteOn",
        "noteNumber": 65,
        "velocity": 84
      },
      {
        "deltaTime": 0,
        "running": true,
        "channel": 0,
        "type": "noteOn",
        "noteNumber": 61,
        "velocity": 83
      },
      {
        "deltaTime": 1,
        "running": true,
        "channel": 0,
        "type": "noteOn",
        "noteNumber": 46,
        "velocity": 76
      },
      {
        "deltaTime": 1,
        "running": true,
        "channel": 0,
        "type": "noteOn",
        "noteNumber": 56,
        "velocity": 67
      },
      {
        "deltaTime": 2,
        "channel": 0,
        "type": "controller",
        "controllerType": 64,
        "value": 6
      },
      {
        "deltaTime": 0,
        "running": true,
        "channel": 0,
        "type": "controller",
        "controllerType": 64,
        "value": 1
      },
      {
        "deltaTime": 0,
        "running": true,
        "channel": 0,
        "type": "controller",
        "controllerType": 64,
        "value": 0
      },
      {
        "deltaTime": 6,
        "running": true,
        "channel": 0,
        "type": "controller",
        "controllerType": 64,
        "value": 22
      },
      {
        "deltaTime": 4,
        "channel": 0,
        "type": "noteOff",
        "noteNumber": 47,
        "velocity": 0,
        "byte9": true
      },
      {
        "deltaTime": 6,
        "channel": 0,
        "type": "controller",
        "controllerType": 64,
        "value": 48
      },
      {
        "deltaTime": 1,
        "running": true,
        "channel": 0,
        "type": "controller",
        "controllerType": 64,
        "value": 64
      },
      {
        "deltaTime": 9,
        "running": true,
        "channel": 0,
        "type": "controller",
        "controllerType": 64,
        "value": 65
      },
      {
        "deltaTime": 0,
        "running": true,
        "channel": 0,
        "type": "controller",
        "controllerType": 64,
        "value": 85
      },
      {
        "deltaTime": 13,
        "channel": 0,
        "type": "noteOff",
        "noteNumber": 56,
        "velocity": 0,
        "byte9": true
      },
      {
        "deltaTime": 18,
        "running": true,
        "channel": 0,
        "type": "noteOff",
        "noteNumber": 65,
        "velocity": 0,
        "byte9": true
      },
      {
        "deltaTime": 1,
        "running": true,
        "channel": 0,
        "type": "noteOff",
        "noteNumber": 61,
        "velocity": 0,
        "byte9": true
      },
      {
        "deltaTime": 97,
        "running": true,
        "channel": 0,
        "type": "noteOn",
        "noteNumber": 72,
        "velocity": 94
      },
      {
        "deltaTime": 1,
        "running": true,
        "channel": 0,
        "type": "noteOn",
        "noteNumber": 65,
        "velocity": 90
      },
      {
        "deltaTime": 2,
        "running": true,
        "channel": 0,
        "type": "noteOn",
        "noteNumber": 56,
        "velocity": 65
      },
      {
        "deltaTime": 1,
        "running": true,
        "channel": 0,
        "type": "noteOn",
        "noteNumber": 61,
        "velocity": 79
      },
      {
        "deltaTime": 1,
        "channel": 0,
        "type": "controller",
        "controllerType": 64,
        "value": 64
      },
      {
        "deltaTime": 32,
        "running": true,
        "channel": 0,
        "type": "controller",
        "controllerType": 64,
        "value": 85
      },
      {
        "deltaTime": 2,
        "channel": 0,
        "type": "noteOff",
        "noteNumber": 56,
        "velocity": 0,
        "byte9": true
      },
      {
        "deltaTime": 31,
        "running": true,
        "channel": 0,
        "type": "noteOff",
        "noteNumber": 46,
        "velocity": 0,
        "byte9": true
      },
      {
        "deltaTime": 20,
        "running": true,
        "channel": 0,
        "type": "noteOff",
        "noteNumber": 72,
        "velocity": 0,
        "byte9": true
      },
      {
        "deltaTime": 23,
        "running": true,
        "channel": 0,
        "type": "noteOff",
        "noteNumber": 65,
        "velocity": 0,
        "byte9": true
      },
      {
        "deltaTime": 18,
        "running": true,
        "channel": 0,
        "type": "noteOff",
        "noteNumber": 61,
        "velocity": 0,
        "byte9": true
      },
      {
        "deltaTime": 71,
        "running": true,
        "channel": 0,
        "type": "noteOn",
        "noteNumber": 70,
        "velocity": 72
      },
      {
        "deltaTime": 0,
        "running": true,
        "channel": 0,
        "type": "noteOn",
        "noteNumber": 61,
        "velocity": 71
      },
      {
        "deltaTime": 2,
        "running": true,
        "channel": 0,
        "type": "noteOn",
        "noteNumber": 27,
        "velocity": 61
      },
      {
        "deltaTime": 0,
        "running": true,
        "channel": 0,
        "type": "noteOn",
        "noteNumber": 39,
        "velocity": 52
      },
      {
        "deltaTime": 1,
        "running": true,
        "channel": 0,
        "type": "noteOn",
        "noteNumber": 64,
        "velocity": 69
      },
      {
        "deltaTime": 5,
        "running": true,
        "channel": 0,
        "type": "noteOn",
        "noteNumber": 67,
        "velocity": 61
      },
      {
        "deltaTime": 7,
        "channel": 0,
        "type": "controller",
        "controllerType": 64,
        "value": 64
      },
      {
        "deltaTime": 10,
        "running": true,
        "channel": 0,
        "type": "controller",
        "controllerType": 64,
        "value": 23
      },
      {
        "deltaTime": 0,
        "running": true,
        "channel": 0,
        "type": "controller",
        "controllerType": 64,
        "value": 22
      },
      {
        "deltaTime": 4,
        "running": true,
        "channel": 0,
        "type": "controller",
        "controllerType": 64,
        "value": 8
      },
      {
        "deltaTime": 0,
        "running": true,
        "channel": 0,
        "type": "controller",
        "controllerType": 64,
        "value": 1
      },
      {
        "deltaTime": 0,
        "running": true,
        "channel": 0,
        "type": "controller",
        "controllerType": 64,
        "value": 0
      },
      {
        "deltaTime": 52,
        "running": true,
        "channel": 0,
        "type": "controller",
        "controllerType": 64,
        "value": 22
      },
      {
        "deltaTime": 8,
        "running": true,
        "channel": 0,
        "type": "controller",
        "controllerType": 64,
        "value": 64
      },
      {
        "deltaTime": 9,
        "running": true,
        "channel": 0,
        "type": "controller",
        "controllerType": 64,
        "value": 65
      },
      {
        "deltaTime": 0,
        "running": true,
        "channel": 0,
        "type": "controller",
        "controllerType": 64,
        "value": 85
      },
      {
        "deltaTime": 88,
        "channel": 0,
        "type": "noteOff",
        "noteNumber": 67,
        "velocity": 0,
        "byte9": true
      },
      {
        "deltaTime": 97,
        "running": true,
        "channel": 0,
        "type": "noteOff",
        "noteNumber": 27,
        "velocity": 0,
        "byte9": true
      },
      {
        "deltaTime": 11,
        "running": true,
        "channel": 0,
        "type": "noteOff",
        "noteNumber": 70,
        "velocity": 0,
        "byte9": true
      },
      {
        "deltaTime": 12,
        "running": true,
        "channel": 0,
        "type": "noteOn",
        "noteNumber": 68,
        "velocity": 72
      },
      {
        "deltaTime": 1,
        "running": true,
        "channel": 0,
        "type": "noteOff",
        "noteNumber": 39,
        "velocity": 0,
        "byte9": true
      },
      {
        "deltaTime": 167,
        "running": true,
        "channel": 0,
        "type": "noteOn",
        "noteNumber": 70,
        "velocity": 67
      },
      {
        "deltaTime": 31,
        "running": true,
        "channel": 0,
        "type": "noteOff",
        "noteNumber": 68,
        "velocity": 0,
        "byte9": true
      },
      {
        "deltaTime": 20,
        "running": true,
        "channel": 0,
        "type": "noteOff",
        "noteNumber": 64,
        "velocity": 0,
        "byte9": true
      },
      {
        "deltaTime": 12,
        "running": true,
        "channel": 0,
        "type": "noteOff",
        "noteNumber": 61,
        "velocity": 0,
        "byte9": true
      },
      {
        "deltaTime": 24,
        "running": true,
        "channel": 0,
        "type": "noteOff",
        "noteNumber": 70,
        "velocity": 0,
        "byte9": true
      },
      {
        "deltaTime": 138,
        "channel": 0,
        "type": "controller",
        "controllerType": 64,
        "value": 64
      },
      {
        "deltaTime": 7,
        "channel": 0,
        "type": "noteOn",
        "noteNumber": 72,
        "velocity": 63
      },
      {
        "deltaTime": 2,
        "channel": 0,
        "type": "controller",
        "controllerType": 64,
        "value": 23
      },
      {
        "deltaTime": 0,
        "running": true,
        "channel": 0,
        "type": "controller",
        "controllerType": 64,
        "value": 22
      },
      {
        "deltaTime": 5,
        "channel": 0,
        "type": "noteOn",
        "noteNumber": 44,
        "velocity": 43
      },
      {
        "deltaTime": 5,
        "channel": 0,
        "type": "controller",
        "controllerType": 64,
        "value": 3
      },
      {
        "deltaTime": 0,
        "running": true,
        "channel": 0,
        "type": "controller",
        "controllerType": 64,
        "value": 0
      },
      {
        "deltaTime": 2,
        "channel": 0,
        "type": "noteOn",
        "noteNumber": 60,
        "velocity": 12
      },
      {
        "deltaTime": 19,
        "channel": 0,
        "type": "controller",
        "controllerType": 64,
        "value": 22
      },
      {
        "deltaTime": 18,
        "running": true,
        "channel": 0,
        "type": "controller",
        "controllerType": 64,
        "value": 44
      },
      {
        "deltaTime": 0,
        "running": true,
        "channel": 0,
        "type": "controller",
        "controllerType": 64,
        "value": 64
      },
      {
        "deltaTime": 27,
        "running": true,
        "channel": 0,
        "type": "controller",
        "controllerType": 64,
        "value": 65
      },
      {
        "deltaTime": 1,
        "running": true,
        "channel": 0,
        "type": "controller",
        "controllerType": 64,
        "value": 85
      },
      {
        "deltaTime": 24,
        "channel": 0,
        "type": "noteOn",
        "noteNumber": 51,
        "velocity": 59
      },
      {
        "deltaTime": 55,
        "running": true,
        "channel": 0,
        "type": "noteOff",
        "noteNumber": 51,
        "velocity": 0,
        "byte9": true
      },
      {
        "deltaTime": 48,
        "running": true,
        "channel": 0,
        "type": "noteOn",
        "noteNumber": 52,
        "velocity": 71
      },
      {
        "deltaTime": 72,
        "channel": 0,
        "type": "controller",
        "controllerType": 64,
        "value": 64
      },
      {
        "deltaTime": 13,
        "running": true,
        "channel": 0,
        "type": "controller",
        "controllerType": 64,
        "value": 23
      },
      {
        "deltaTime": 0,
        "running": true,
        "channel": 0,
        "type": "controller",
        "controllerType": 64,
        "value": 22
      },
      {
        "deltaTime": 8,
        "channel": 0,
        "type": "noteOff",
        "noteNumber": 52,
        "velocity": 0,
        "byte9": true
      },
      {
        "deltaTime": 1,
        "channel": 0,
        "type": "controller",
        "controllerType": 64,
        "value": 4
      },
      {
        "deltaTime": 1,
        "running": true,
        "channel": 0,
        "type": "controller",
        "controllerType": 64,
        "value": 1
      },
      {
        "deltaTime": 0,
        "running": true,
        "channel": 0,
        "type": "controller",
        "controllerType": 64,
        "value": 0
      },
      {
        "deltaTime": 5,
        "channel": 0,
        "type": "noteOn",
        "noteNumber": 53,
        "velocity": 77
      },
      {
        "deltaTime": 19,
        "channel": 0,
        "type": "controller",
        "controllerType": 64,
        "value": 22
      },
      {
        "deltaTime": 8,
        "running": true,
        "channel": 0,
        "type": "controller",
        "controllerType": 64,
        "value": 44
      },
      {
        "deltaTime": 2,
        "running": true,
        "channel": 0,
        "type": "controller",
        "controllerType": 64,
        "value": 64
      },
      {
        "deltaTime": 9,
        "running": true,
        "channel": 0,
        "type": "controller",
        "controllerType": 64,
        "value": 65
      },
      {
        "deltaTime": 0,
        "running": true,
        "channel": 0,
        "type": "controller",
        "controllerType": 64,
        "value": 85
      },
      {
        "deltaTime": 27,
        "channel": 0,
        "type": "noteOff",
        "noteNumber": 60,
        "velocity": 0,
        "byte9": true
      },
      {
        "deltaTime": 12,
        "running": true,
        "channel": 0,
        "type": "noteOff",
        "noteNumber": 72,
        "velocity": 0,
        "byte9": true
      },
      {
        "deltaTime": 37,
        "running": true,
        "channel": 0,
        "type": "noteOn",
        "noteNumber": 72,
        "velocity": 82
      },
      {
        "deltaTime": 2,
        "running": true,
        "channel": 0,
        "type": "noteOn",
        "noteNumber": 60,
        "velocity": 62
      },
      {
        "deltaTime": 73,
        "running": true,
        "channel": 0,
        "type": "noteOff",
        "noteNumber": 60,
        "velocity": 0,
        "byte9": true
      },
      {
        "deltaTime": 5,
        "running": true,
        "channel": 0,
        "type": "noteOff",
        "noteNumber": 72,
        "velocity": 0,
        "byte9": true
      },
      {
        "deltaTime": 151,
        "running": true,
        "channel": 0,
        "type": "noteOff",
        "noteNumber": 44,
        "velocity": 0,
        "byte9": true
      },
      {
        "deltaTime": 39,
        "running": true,
        "channel": 0,
        "type": "noteOn",
        "noteNumber": 74,
        "velocity": 64
      },
      {
        "deltaTime": 2,
        "running": true,
        "channel": 0,
        "type": "noteOn",
        "noteNumber": 62,
        "velocity": 53
      },
      {
        "deltaTime": 25,
        "running": true,
        "channel": 0,
        "type": "noteOff",
        "noteNumber": 62,
        "velocity": 0,
        "byte9": true
      },
      {
        "deltaTime": 0,
        "running": true,
        "channel": 0,
        "type": "noteOff",
        "noteNumber": 74,
        "velocity": 0,
        "byte9": true
      },
      {
        "deltaTime": 82,
        "running": true,
        "channel": 0,
        "type": "noteOff",
        "noteNumber": 53,
        "velocity": 0,
        "byte9": true
      },
      {
        "deltaTime": 7,
        "running": true,
        "channel": 0,
        "type": "noteOn",
        "noteNumber": 75,
        "velocity": 64
      },
      {
        "deltaTime": 5,
        "channel": 0,
        "type": "controller",
        "controllerType": 64,
        "value": 64
      },
      {
        "deltaTime": 4,
        "channel": 0,
        "type": "noteOn",
        "noteNumber": 45,
        "velocity": 54
      },
      {
        "deltaTime": 7,
        "channel": 0,
        "type": "controller",
        "controllerType": 64,
        "value": 23
      },
      {
        "deltaTime": 0,
        "running": true,
        "channel": 0,
        "type": "controller",
        "controllerType": 64,
        "value": 22
      },
      {
        "deltaTime": 1,
        "channel": 0,
        "type": "noteOn",
        "noteNumber": 63,
        "velocity": 35
      },
      {
        "deltaTime": 13,
        "channel": 0,
        "type": "controller",
        "controllerType": 64,
        "value": 2
      },
      {
        "deltaTime": 0,
        "running": true,
        "channel": 0,
        "type": "controller",
        "controllerType": 64,
        "value": 1
      },
      {
        "deltaTime": 0,
        "running": true,
        "channel": 0,
        "type": "controller",
        "controllerType": 64,
        "value": 0
      },
      {
        "deltaTime": 75,
        "channel": 0,
        "type": "noteOn",
        "noteNumber": 52,
        "velocity": 55
      },
      {
        "deltaTime": 62,
        "channel": 0,
        "type": "controller",
        "controllerType": 64,
        "value": 22
      },
      {
        "deltaTime": 12,
        "running": true,
        "channel": 0,
        "type": "controller",
        "controllerType": 64,
        "value": 64
      },
      {
        "deltaTime": 13,
        "channel": 0,
        "type": "noteOff",
        "noteNumber": 52,
        "velocity": 0,
        "byte9": true
      },
      {
        "deltaTime": 0,
        "channel": 0,
        "type": "controller",
        "controllerType": 64,
        "value": 65
      },
      {
        "deltaTime": 1,
        "running": true,
        "channel": 0,
        "type": "controller",
        "controllerType": 64,
        "value": 85
      },
      {
        "deltaTime": 4,
        "channel": 0,
        "type": "noteOn",
        "noteNumber": 53,
        "velocity": 61
      },
      {
        "deltaTime": 48,
        "running": true,
        "channel": 0,
        "type": "noteOff",
        "noteNumber": 63,
        "velocity": 0,
        "byte9": true
      },
      {
        "deltaTime": 55,
        "running": true,
        "channel": 0,
        "type": "noteOn",
        "noteNumber": 63,
        "velocity": 60
      },
      {
        "deltaTime": 2,
        "channel": 0,
        "type": "controller",
        "controllerType": 64,
        "value": 64
      },
      {
        "deltaTime": 1,
        "channel": 0,
        "type": "noteOn",
        "noteNumber": 54,
        "velocity": 53
      },
      {
        "deltaTime": 8,
        "running": true,
        "channel": 0,
        "type": "noteOn",
        "noteNumber": 69,
        "velocity": 50
      },
      {
        "deltaTime": 4,
        "running": true,
        "channel": 0,
        "type": "noteOff",
        "noteNumber": 53,
        "velocity": 0,
        "byte9": true
      },
      {
        "deltaTime": 0,
        "channel": 0,
        "type": "controller",
        "controllerType": 64,
        "value": 23
      },
      {
        "deltaTime": 0,
        "running": true,
        "channel": 0,
        "type": "controller",
        "controllerType": 64,
        "value": 22
      },
      {
        "deltaTime": 8,
        "running": true,
        "channel": 0,
        "type": "controller",
        "controllerType": 64,
        "value": 4
      },
      {
        "deltaTime": 1,
        "running": true,
        "channel": 0,
        "type": "controller",
        "controllerType": 64,
        "value": 0
      },
      {
        "deltaTime": 55,
        "running": true,
        "channel": 0,
        "type": "controller",
        "controllerType": 64,
        "value": 22
      },
      {
        "deltaTime": 7,
        "running": true,
        "channel": 0,
        "type": "controller",
        "controllerType": 64,
        "value": 64
      },
      {
        "deltaTime": 10,
        "running": true,
        "channel": 0,
        "type": "controller",
        "controllerType": 64,
        "value": 65
      },
      {
        "deltaTime": 0,
        "running": true,
        "channel": 0,
        "type": "controller",
        "controllerType": 64,
        "value": 85
      },
      {
        "deltaTime": 99,
        "channel": 0,
        "type": "noteOff",
        "noteNumber": 75,
        "velocity": 0,
        "byte9": true
      },
      {
        "deltaTime": 42,
        "running": true,
        "channel": 0,
        "type": "noteOn",
        "noteNumber": 74,
        "velocity": 88
      },
      {
        "deltaTime": 48,
        "running": true,
        "channel": 0,
        "type": "noteOff",
        "noteNumber": 74,
        "velocity": 0,
        "byte9": true
      },
      {
        "deltaTime": 54,
        "running": true,
        "channel": 0,
        "type": "noteOn",
        "noteNumber": 74,
        "velocity": 77
      },
      {
        "deltaTime": 34,
        "running": true,
        "channel": 0,
        "type": "noteOff",
        "noteNumber": 45,
        "velocity": 0,
        "byte9": true
      },
      {
        "deltaTime": 37,
        "running": true,
        "channel": 0,
        "type": "noteOff",
        "noteNumber": 74,
        "velocity": 0,
        "byte9": true
      },
      {
        "deltaTime": 13,
        "running": true,
        "channel": 0,
        "type": "noteOff",
        "noteNumber": 69,
        "velocity": 0,
        "byte9": true
      },
      {
        "deltaTime": 2,
        "running": true,
        "channel": 0,
        "type": "noteOff",
        "noteNumber": 63,
        "velocity": 0,
        "byte9": true
      },
      {
        "deltaTime": 4,
        "running": true,
        "channel": 0,
        "type": "noteOn",
        "noteNumber": 72,
        "velocity": 71
      },
      {
        "deltaTime": 38,
        "running": true,
        "channel": 0,
        "type": "noteOff",
        "noteNumber": 72,
        "velocity": 0,
        "byte9": true
      },
      {
        "deltaTime": 33,
        "running": true,
        "channel": 0,
        "type": "noteOff",
        "noteNumber": 54,
        "velocity": 0,
        "byte9": true
      },
      {
        "deltaTime": 36,
        "running": true,
        "channel": 0,
        "type": "noteOn",
        "noteNumber": 46,
        "velocity": 55
      },
      {
        "deltaTime": 1,
        "running": true,
        "channel": 0,
        "type": "noteOn",
        "noteNumber": 72,
        "velocity": 70
      },
      {
        "deltaTime": 6,
        "channel": 0,
        "type": "controller",
        "controllerType": 64,
        "value": 64
      },
      {
        "deltaTime": 15,
        "running": true,
        "channel": 0,
        "type": "controller",
        "controllerType": 64,
        "value": 23
      },
      {
        "deltaTime": 0,
        "running": true,
        "channel": 0,
        "type": "controller",
        "controllerType": 64,
        "value": 22
      },
      {
        "deltaTime": 21,
        "running": true,
        "channel": 0,
        "type": "controller",
        "controllerType": 64,
        "value": 2
      },
      {
        "deltaTime": 0,
        "running": true,
        "channel": 0,
        "type": "controller",
        "controllerType": 64,
        "value": 0
      },
      {
        "deltaTime": 15,
        "channel": 0,
        "type": "noteOn",
        "noteNumber": 62,
        "velocity": 4
      },
      {
        "deltaTime": 45,
        "channel": 0,
        "type": "controller",
        "controllerType": 64,
        "value": 22
      },
      {
        "deltaTime": 6,
        "channel": 0,
        "type": "noteOn",
        "noteNumber": 53,
        "velocity": 57
      },
      {
        "deltaTime": 88,
        "running": true,
        "channel": 0,
        "type": "noteOff",
        "noteNumber": 53,
        "velocity": 0,
        "byte9": true
      },
      {
        "deltaTime": 2,
        "running": true,
        "channel": 0,
        "type": "noteOff",
        "noteNumber": 62,
        "velocity": 0,
        "byte9": true
      },
      {
        "deltaTime": 0,
        "running": true,
        "channel": 0,
        "type": "noteOn",
        "noteNumber": 54,
        "velocity": 49
      },
      {
        "deltaTime": 18,
        "channel": 0,
        "type": "controller",
        "controllerType": 64,
        "value": 64
      },
      {
        "deltaTime": 16,
        "running": true,
        "channel": 0,
        "type": "controller",
        "controllerType": 64,
        "value": 65
      },
      {
        "deltaTime": 0,
        "running": true,
        "channel": 0,
        "type": "controller",
        "controllerType": 64,
        "value": 85
      },
      {
        "deltaTime": 43,
        "channel": 0,
        "type": "noteOff",
        "noteNumber": 54,
        "velocity": 0,
        "byte9": true
      },
      {
        "deltaTime": 7,
        "running": true,
        "channel": 0,
        "type": "noteOff",
        "noteNumber": 72,
        "velocity": 0,
        "byte9": true
      },
      {
        "deltaTime": 10,
        "channel": 0,
        "type": "controller",
        "controllerType": 64,
        "value": 64
      },
      {
        "deltaTime": 8,
        "channel": 0,
        "type": "noteOn",
        "noteNumber": 70,
        "velocity": 69
      },
      {
        "deltaTime": 4,
        "running": true,
        "channel": 0,
        "type": "noteOn",
        "noteNumber": 55,
        "velocity": 52
      },
      {
        "deltaTime": 2,
        "running": true,
        "channel": 0,
        "type": "noteOn",
        "noteNumber": 62,
        "velocity": 56
      },
      {
        "deltaTime": 3,
        "channel": 0,
        "type": "controller",
        "controllerType": 64,
        "value": 23
      },
      {
        "deltaTime": 0,
        "running": true,
        "channel": 0,
        "type": "controller",
        "controllerType": 64,
        "value": 22
      },
      {
        "deltaTime": 8,
        "running": true,
        "channel": 0,
        "type": "controller",
        "controllerType": 64,
        "value": 4
      },
      {
        "deltaTime": 0,
        "running": true,
        "channel": 0,
        "type": "controller",
        "controllerType": 64,
        "value": 0
      },
      {
        "deltaTime": 23,
        "running": true,
        "channel": 0,
        "type": "controller",
        "controllerType": 64,
        "value": 22
      },
      {
        "deltaTime": 8,
        "running": true,
        "channel": 0,
        "type": "controller",
        "controllerType": 64,
        "value": 44
      },
      {
        "deltaTime": 0,
        "running": true,
        "channel": 0,
        "type": "controller",
        "controllerType": 64,
        "value": 64
      },
      {
        "deltaTime": 10,
        "running": true,
        "channel": 0,
        "type": "controller",
        "controllerType": 64,
        "value": 65
      },
      {
        "deltaTime": 0,
        "running": true,
        "channel": 0,
        "type": "controller",
        "controllerType": 64,
        "value": 85
      },
      {
        "deltaTime": 85,
        "channel": 0,
        "type": "noteOff",
        "noteNumber": 62,
        "velocity": 0,
        "byte9": true
      },
      {
        "deltaTime": 3,
        "running": true,
        "channel": 0,
        "type": "noteOff",
        "noteNumber": 70,
        "velocity": 0,
        "byte9": true
      },
      {
        "deltaTime": 152,
        "running": true,
        "channel": 0,
        "type": "noteOff",
        "noteNumber": 46,
        "velocity": 0,
        "byte9": true
      },
      {
        "deltaTime": 9,
        "running": true,
        "channel": 0,
        "type": "noteOff",
        "noteNumber": 55,
        "velocity": 0,
        "byte9": true
      },
      {
        "deltaTime": 8,
        "running": true,
        "channel": 0,
        "type": "noteOn",
        "noteNumber": 66,
        "velocity": 60
      },
      {
        "deltaTime": 14,
        "running": true,
        "channel": 0,
        "type": "noteOff",
        "noteNumber": 66,
        "velocity": 0,
        "byte9": true
      },
      {
        "deltaTime": 18,
        "running": true,
        "channel": 0,
        "type": "noteOn",
        "noteNumber": 67,
        "velocity": 52
      },
      {
        "deltaTime": 11,
        "running": true,
        "channel": 0,
        "type": "noteOn",
        "noteNumber": 66,
        "velocity": 54
      },
      {
        "deltaTime": 7,
        "running": true,
        "channel": 0,
        "type": "noteOff",
        "noteNumber": 67,
        "velocity": 0,
        "byte9": true
      },
      {
        "deltaTime": 24,
        "running": true,
        "channel": 0,
        "type": "noteOn",
        "noteNumber": 62,
        "velocity": 52
      },
      {
        "deltaTime": 2,
        "running": true,
        "channel": 0,
        "type": "noteOff",
        "noteNumber": 66,
        "velocity": 0,
        "byte9": true
      },
      {
        "deltaTime": 26,
        "running": true,
        "channel": 0,
        "type": "noteOff",
        "noteNumber": 62,
        "velocity": 0,
        "byte9": true
      },
      {
        "deltaTime": 10,
        "running": true,
        "channel": 0,
        "type": "noteOn",
        "noteNumber": 65,
        "velocity": 69
      },
      {
        "deltaTime": 22,
        "running": true,
        "channel": 0,
        "type": "noteOff",
        "noteNumber": 65,
        "velocity": 0,
        "byte9": true
      },
      {
        "deltaTime": 4,
        "running": true,
        "channel": 0,
        "type": "noteOn",
        "noteNumber": 67,
        "velocity": 63
      },
      {
        "deltaTime": 22,
        "running": true,
        "channel": 0,
        "type": "noteOn",
        "noteNumber": 65,
        "velocity": 53
      },
      {
        "deltaTime": 8,
        "running": true,
        "channel": 0,
        "type": "noteOff",
        "noteNumber": 67,
        "velocity": 0,
        "byte9": true
      },
      {
        "deltaTime": 34,
        "running": true,
        "channel": 0,
        "type": "noteOn",
        "noteNumber": 62,
        "velocity": 45
      },
      {
        "deltaTime": 3,
        "running": true,
        "channel": 0,
        "type": "noteOff",
        "noteNumber": 65,
        "velocity": 0,
        "byte9": true
      },
      {
        "deltaTime": 28,
        "running": true,
        "channel": 0,
        "type": "noteOn",
        "noteNumber": 36,
        "velocity": 49
      },
      {
        "deltaTime": 2,
        "running": true,
        "channel": 0,
        "type": "noteOff",
        "noteNumber": 62,
        "velocity": 0,
        "byte9": true
      },
      {
        "deltaTime": 1,
        "running": true,
        "channel": 0,
        "type": "noteOn",
        "noteNumber": 64,
        "velocity": 73
      },
      {
        "deltaTime": 6,
        "channel": 0,
        "type": "controller",
        "controllerType": 64,
        "value": 64
      },
      {
        "deltaTime": 15,
        "running": true,
        "channel": 0,
        "type": "controller",
        "controllerType": 64,
        "value": 23
      },
      {
        "deltaTime": 0,
        "running": true,
        "channel": 0,
        "type": "controller",
        "controllerType": 64,
        "value": 22
      },
      {
        "deltaTime": 14,
        "running": true,
        "channel": 0,
        "type": "controller",
        "controllerType": 64,
        "value": 2
      },
      {
        "deltaTime": 1,
        "running": true,
        "channel": 0,
        "type": "controller",
        "controllerType": 64,
        "value": 1
      },
      {
        "deltaTime": 0,
        "running": true,
        "channel": 0,
        "type": "controller",
        "controllerType": 64,
        "value": 0
      },
      {
        "deltaTime": 94,
        "channel": 0,
        "type": "noteOn",
        "noteNumber": 60,
        "velocity": 59
      },
      {
        "deltaTime": 6,
        "running": true,
        "channel": 0,
        "type": "noteOn",
        "noteNumber": 52,
        "velocity": 56
      },
      {
        "deltaTime": 1,
        "channel": 0,
        "type": "controller",
        "controllerType": 64,
        "value": 22
      },
      {
        "deltaTime": 15,
        "running": true,
        "channel": 0,
        "type": "controller",
        "controllerType": 64,
        "value": 64
      },
      {
        "deltaTime": 25,
        "running": true,
        "channel": 0,
        "type": "controller",
        "controllerType": 64,
        "value": 65
      },
      {
        "deltaTime": 0,
        "running": true,
        "channel": 0,
        "type": "controller",
        "controllerType": 64,
        "value": 85
      },
      {
        "deltaTime": 79,
        "channel": 0,
        "type": "noteOff",
        "noteNumber": 64,
        "velocity": 0,
        "byte9": true
      },
      {
        "deltaTime": 16,
        "running": true,
        "channel": 0,
        "type": "noteOff",
        "noteNumber": 60,
        "velocity": 0,
        "byte9": true
      },
      {
        "deltaTime": 94,
        "running": true,
        "channel": 0,
        "type": "noteOn",
        "noteNumber": 58,
        "velocity": 118
      },
      {
        "deltaTime": 95,
        "running": true,
        "channel": 0,
        "type": "noteOff",
        "noteNumber": 58,
        "velocity": 0,
        "byte9": true
      },
      {
        "deltaTime": 22,
        "running": true,
        "channel": 0,
        "type": "noteOn",
        "noteNumber": 60,
        "velocity": 103
      },
      {
        "deltaTime": 66,
        "running": true,
        "channel": 0,
        "type": "noteOff",
        "noteNumber": 60,
        "velocity": 0,
        "byte9": true
      },
      {
        "deltaTime": 41,
        "running": true,
        "channel": 0,
        "type": "noteOn",
        "noteNumber": 60,
        "velocity": 95
      },
      {
        "deltaTime": 14,
        "running": true,
        "channel": 0,
        "type": "noteOff",
        "noteNumber": 36,
        "velocity": 0,
        "byte9": true
      },
      {
        "deltaTime": 40,
        "running": true,
        "channel": 0,
        "type": "noteOff",
        "noteNumber": 52,
        "velocity": 0,
        "byte9": true
      },
      {
        "deltaTime": 50,
        "running": true,
        "channel": 0,
        "type": "noteOn",
        "noteNumber": 58,
        "velocity": 89
      },
      {
        "deltaTime": 1,
        "running": true,
        "channel": 0,
        "type": "noteOff",
        "noteNumber": 60,
        "velocity": 0,
        "byte9": true
      },
      {
        "deltaTime": 62,
        "running": true,
        "channel": 0,
        "type": "noteOff",
        "noteNumber": 58,
        "velocity": 0,
        "byte9": true
      },
      {
        "deltaTime": 45,
        "running": true,
        "channel": 0,
        "type": "noteOn",
        "noteNumber": 58,
        "velocity": 78
      },
      {
        "deltaTime": 24,
        "running": true,
        "channel": 0,
        "type": "noteOff",
        "noteNumber": 58,
        "velocity": 0,
        "byte9": true
      },
      {
        "deltaTime": 104,
        "channel": 0,
        "type": "controller",
        "controllerType": 64,
        "value": 64
      },
      {
        "deltaTime": 9,
        "running": true,
        "channel": 0,
        "type": "controller",
        "controllerType": 64,
        "value": 23
      },
      {
        "deltaTime": 0,
        "running": true,
        "channel": 0,
        "type": "controller",
        "controllerType": 64,
        "value": 22
      },
      {
        "deltaTime": 1,
        "channel": 0,
        "type": "noteOn",
        "noteNumber": 68,
        "velocity": 68
      },
      {
        "deltaTime": 0,
        "running": true,
        "channel": 0,
        "type": "noteOn",
        "noteNumber": 60,
        "velocity": 66
      },
      {
        "deltaTime": 0,
        "running": true,
        "channel": 0,
        "type": "noteOn",
        "noteNumber": 53,
        "velocity": 62
      },
      {
        "deltaTime": 0,
        "running": true,
        "channel": 0,
        "type": "noteOn",
        "noteNumber": 63,
        "velocity": 66
      },
      {
        "deltaTime": 2,
        "channel": 0,
        "type": "controller",
        "controllerType": 64,
        "value": 8
      },
      {
        "deltaTime": 0,
        "running": true,
        "channel": 0,
        "type": "controller",
        "controllerType": 64,
        "value": 0
      },
      {
        "deltaTime": 3,
        "channel": 0,
        "type": "noteOn",
        "noteNumber": 65,
        "velocity": 57
      },
      {
        "deltaTime": 31,
        "channel": 0,
        "type": "controller",
        "controllerType": 64,
        "value": 22
      },
      {
        "deltaTime": 8,
        "running": true,
        "channel": 0,
        "type": "controller",
        "controllerType": 64,
        "value": 47
      },
      {
        "deltaTime": 0,
        "running": true,
        "channel": 0,
        "type": "controller",
        "controllerType": 64,
        "value": 64
      },
      {
        "deltaTime": 10,
        "running": true,
        "channel": 0,
        "type": "controller",
        "controllerType": 64,
        "value": 65
      },
      {
        "deltaTime": 0,
        "running": true,
        "channel": 0,
        "type": "controller",
        "controllerType": 64,
        "value": 85
      },
      {
        "deltaTime": 32,
        "channel": 0,
        "type": "noteOff",
        "noteNumber": 68,
        "velocity": 0,
        "byte9": true
      },
      {
        "deltaTime": 33,
        "running": true,
        "channel": 0,
        "type": "noteOn",
        "noteNumber": 68,
        "velocity": 74
      },
      {
        "deltaTime": 37,
        "running": true,
        "channel": 0,
        "type": "noteOff",
        "noteNumber": 65,
        "velocity": 0,
        "byte9": true
      },
      {
        "deltaTime": 4,
        "running": true,
        "channel": 0,
        "type": "noteOff",
        "noteNumber": 68,
        "velocity": 0,
        "byte9": true
      },
      {
        "deltaTime": 2,
        "running": true,
        "channel": 0,
        "type": "noteOff",
        "noteNumber": 63,
        "velocity": 0,
        "byte9": true
      },
      {
        "deltaTime": 2,
        "running": true,
        "channel": 0,
        "type": "noteOff",
        "noteNumber": 60,
        "velocity": 0,
        "byte9": true
      },
      {
        "deltaTime": 52,
        "running": true,
        "channel": 0,
        "type": "noteOff",
        "noteNumber": 53,
        "velocity": 0,
        "byte9": true
      },
      {
        "deltaTime": 7,
        "channel": 0,
        "type": "controller",
        "controllerType": 64,
        "value": 64
      },
      {
        "deltaTime": 3,
        "channel": 0,
        "type": "noteOn",
        "noteNumber": 70,
        "velocity": 73
      },
      {
        "deltaTime": 3,
        "running": true,
        "channel": 0,
        "type": "noteOn",
        "noteNumber": 55,
        "velocity": 57
      },
      {
        "deltaTime": 0,
        "running": true,
        "channel": 0,
        "type": "noteOn",
        "noteNumber": 60,
        "velocity": 57
      },
      {
        "deltaTime": 0,
        "running": true,
        "channel": 0,
        "type": "noteOn",
        "noteNumber": 63,
        "velocity": 60
      },
      {
        "deltaTime": 5,
        "channel": 0,
        "type": "controller",
        "controllerType": 64,
        "value": 23
      },
      {
        "deltaTime": 0,
        "running": true,
        "channel": 0,
        "type": "controller",
        "controllerType": 64,
        "value": 22
      },
      {
        "deltaTime": 6,
        "channel": 0,
        "type": "noteOn",
        "noteNumber": 65,
        "velocity": 41
      },
      {
        "deltaTime": 19,
        "channel": 0,
        "type": "controller",
        "controllerType": 64,
        "value": 64
      },
      {
        "deltaTime": 12,
        "running": true,
        "channel": 0,
        "type": "controller",
        "controllerType": 64,
        "value": 65
      },
      {
        "deltaTime": 0,
        "running": true,
        "channel": 0,
        "type": "controller",
        "controllerType": 64,
        "value": 85
      },
      {
        "deltaTime": 24,
        "channel": 0,
        "type": "noteOff",
        "noteNumber": 70,
        "velocity": 0,
        "byte9": true
      },
      {
        "deltaTime": 28,
        "running": true,
        "channel": 0,
        "type": "noteOff",
        "noteNumber": 55,
        "velocity": 0,
        "byte9": true
      },
      {
        "deltaTime": 7,
        "running": true,
        "channel": 0,
        "type": "noteOff",
        "noteNumber": 65,
        "velocity": 0,
        "byte9": true
      },
      {
        "deltaTime": 10,
        "running": true,
        "channel": 0,
        "type": "noteOn",
        "noteNumber": 70,
        "velocity": 65
      },
      {
        "deltaTime": 24,
        "running": true,
        "channel": 0,
        "type": "noteOff",
        "noteNumber": 70,
        "velocity": 0,
        "byte9": true
      },
      {
        "deltaTime": 4,
        "running": true,
        "channel": 0,
        "type": "noteOff",
        "noteNumber": 63,
        "velocity": 0,
        "byte9": true
      },
      {
        "deltaTime": 3,
        "running": true,
        "channel": 0,
        "type": "noteOff",
        "noteNumber": 60,
        "velocity": 0,
        "byte9": true
      },
      {
        "deltaTime": 86,
        "channel": 0,
        "type": "controller",
        "controllerType": 64,
        "value": 64
      },
      {
        "deltaTime": 1,
        "channel": 0,
        "type": "noteOn",
        "noteNumber": 56,
        "velocity": 68
      },
      {
        "deltaTime": 3,
        "running": true,
        "channel": 0,
        "type": "noteOn",
        "noteNumber": 67,
        "velocity": 62
      },
      {
        "deltaTime": 1,
        "running": true,
        "channel": 0,
        "type": "noteOn",
        "noteNumber": 53,
        "velocity": 59
      },
      {
        "deltaTime": 1,
        "running": true,
        "channel": 0,
        "type": "noteOn",
        "noteNumber": 60,
        "velocity": 51
      },
      {
        "deltaTime": 3,
        "running": true,
        "channel": 0,
        "type": "noteOn",
        "noteNumber": 63,
        "velocity": 50
      },
      {
        "deltaTime": 3,
        "channel": 0,
        "type": "controller",
        "controllerType": 64,
        "value": 23
      },
      {
        "deltaTime": 0,
        "running": true,
        "channel": 0,
        "type": "controller",
        "controllerType": 64,
        "value": 22
      },
      {
        "deltaTime": 12,
        "running": true,
        "channel": 0,
        "type": "controller",
        "controllerType": 64,
        "value": 2
      },
      {
        "deltaTime": 1,
        "running": true,
        "channel": 0,
        "type": "controller",
        "controllerType": 64,
        "value": 1
      },
      {
        "deltaTime": 0,
        "running": true,
        "channel": 0,
        "type": "controller",
        "controllerType": 64,
        "value": 0
      },
      {
        "deltaTime": 18,
        "running": true,
        "channel": 0,
        "type": "controller",
        "controllerType": 64,
        "value": 22
      },
      {
        "deltaTime": 11,
        "running": true,
        "channel": 0,
        "type": "controller",
        "controllerType": 64,
        "value": 44
      },
      {
        "deltaTime": 0,
        "running": true,
        "channel": 0,
        "type": "controller",
        "controllerType": 64,
        "value": 64
      },
      {
        "deltaTime": 13,
        "running": true,
        "channel": 0,
        "type": "controller",
        "controllerType": 64,
        "value": 65
      },
      {
        "deltaTime": 0,
        "running": true,
        "channel": 0,
        "type": "controller",
        "controllerType": 64,
        "value": 85
      },
      {
        "deltaTime": 45,
        "channel": 0,
        "type": "noteOff",
        "noteNumber": 53,
        "velocity": 0,
        "byte9": true
      },
      {
        "deltaTime": 15,
        "running": true,
        "channel": 0,
        "type": "noteOn",
        "noteNumber": 53,
        "velocity": 82
      },
      {
        "deltaTime": 71,
        "running": true,
        "channel": 0,
        "type": "noteOff",
        "noteNumber": 56,
        "velocity": 0,
        "byte9": true
      },
      {
        "deltaTime": 1,
        "running": true,
        "channel": 0,
        "type": "noteOff",
        "noteNumber": 53,
        "velocity": 0,
        "byte9": true
      },
      {
        "deltaTime": 9,
        "running": true,
        "channel": 0,
        "type": "noteOff",
        "noteNumber": 60,
        "velocity": 0,
        "byte9": true
      },
      {
        "deltaTime": 8,
        "running": true,
        "channel": 0,
        "type": "noteOff",
        "noteNumber": 63,
        "velocity": 0,
        "byte9": true
      },
      {
        "deltaTime": 7,
        "running": true,
        "channel": 0,
        "type": "noteOff",
        "noteNumber": 67,
        "velocity": 0,
        "byte9": true
      },
      {
        "deltaTime": 29,
        "running": true,
        "channel": 0,
        "type": "noteOn",
        "noteNumber": 56,
        "velocity": 63
      },
      {
        "deltaTime": 1,
        "running": true,
        "channel": 0,
        "type": "noteOn",
        "noteNumber": 63,
        "velocity": 56
      },
      {
        "deltaTime": 2,
        "running": true,
        "channel": 0,
        "type": "noteOn",
        "noteNumber": 65,
        "velocity": 63
      },
      {
        "deltaTime": 1,
        "channel": 0,
        "type": "controller",
        "controllerType": 64,
        "value": 64
      },
      {
        "deltaTime": 1,
        "channel": 0,
        "type": "noteOn",
        "noteNumber": 60,
        "velocity": 50
      },
      {
        "deltaTime": 22,
        "channel": 0,
        "type": "controller",
        "controllerType": 64,
        "value": 23
      },
      {
        "deltaTime": 0,
        "running": true,
        "channel": 0,
        "type": "controller",
        "controllerType": 64,
        "value": 22
      },
      {
        "deltaTime": 36,
        "running": true,
        "channel": 0,
        "type": "controller",
        "controllerType": 64,
        "value": 2
      },
      {
        "deltaTime": 0,
        "running": true,
        "channel": 0,
        "type": "controller",
        "controllerType": 64,
        "value": 1
      },
      {
        "deltaTime": 1,
        "running": true,
        "channel": 0,
        "type": "controller",
        "controllerType": 64,
        "value": 0
      },
      {
        "deltaTime": 48,
        "running": true,
        "channel": 0,
        "type": "controller",
        "controllerType": 64,
        "value": 22
      },
      {
        "deltaTime": 9,
        "running": true,
        "channel": 0,
        "type": "controller",
        "controllerType": 64,
        "value": 64
      },
      {
        "deltaTime": 4,
        "channel": 0,
        "type": "noteOn",
        "noteNumber": 53,
        "velocity": 66
      },
      {
        "deltaTime": 7,
        "channel": 0,
        "type": "controller",
        "controllerType": 64,
        "value": 65
      },
      {
        "deltaTime": 0,
        "running": true,
        "channel": 0,
        "type": "controller",
        "controllerType": 64,
        "value": 85
      },
      {
        "deltaTime": 4,
        "channel": 0,
        "type": "noteOff",
        "noteNumber": 56,
        "velocity": 0,
        "byte9": true
      },
      {
        "deltaTime": 21,
        "running": true,
        "channel": 0,
        "type": "noteOff",
        "noteNumber": 60,
        "velocity": 0,
        "byte9": true
      },
      {
        "deltaTime": 15,
        "running": true,
        "channel": 0,
        "type": "noteOff",
        "noteNumber": 65,
        "velocity": 0,
        "byte9": true
      },
      {
        "deltaTime": 3,
        "running": true,
        "channel": 0,
        "type": "noteOff",
        "noteNumber": 63,
        "velocity": 0,
        "byte9": true
      },
      {
        "deltaTime": 86,
        "channel": 0,
        "type": "controller",
        "controllerType": 64,
        "value": 64
      },
      {
        "deltaTime": 14,
        "channel": 0,
        "type": "noteOn",
        "noteNumber": 68,
        "velocity": 66
      },
      {
        "deltaTime": 3,
        "channel": 0,
        "type": "controller",
        "controllerType": 64,
        "value": 23
      },
      {
        "deltaTime": 0,
        "running": true,
        "channel": 0,
        "type": "controller",
        "controllerType": 64,
        "value": 22
      },
      {
        "deltaTime": 0,
        "channel": 0,
        "type": "noteOn",
        "noteNumber": 63,
        "velocity": 66
      },
      {
        "deltaTime": 0,
        "running": true,
        "channel": 0,
        "type": "noteOn",
        "noteNumber": 60,
        "velocity": 56
      },
      {
        "deltaTime": 2,
        "running": true,
        "channel": 0,
        "type": "noteOn",
        "noteNumber": 56,
        "velocity": 45
      },
      {
        "deltaTime": 1,
        "running": true,
        "channel": 0,
        "type": "noteOn",
        "noteNumber": 46,
        "velocity": 50
      },
      {
        "deltaTime": 3,
        "running": true,
        "channel": 0,
        "type": "noteOn",
        "noteNumber": 65,
        "velocity": 55
      },
      {
        "deltaTime": 1,
        "channel": 0,
        "type": "controller",
        "controllerType": 64,
        "value": 4
      },
      {
        "deltaTime": 0,
        "running": true,
        "channel": 0,
        "type": "controller",
        "controllerType": 64,
        "value": 0
      },
      {
        "deltaTime": 1,
        "channel": 0,
        "type": "noteOff",
        "noteNumber": 53,
        "velocity": 0,
        "byte9": true
      },
      {
        "deltaTime": 78,
        "channel": 0,
        "type": "controller",
        "controllerType": 64,
        "value": 22
      },
      {
        "deltaTime": 19,
        "running": true,
        "channel": 0,
        "type": "controller",
        "controllerType": 64,
        "value": 64
      },
      {
        "deltaTime": 19,
        "running": true,
        "channel": 0,
        "type": "controller",
        "controllerType": 64,
        "value": 65
      },
      {
        "deltaTime": 0,
        "running": true,
        "channel": 0,
        "type": "controller",
        "controllerType": 64,
        "value": 85
      },
      {
        "deltaTime": 9,
        "channel": 0,
        "type": "noteOn",
        "noteNumber": 53,
        "velocity": 58
      },
      {
        "deltaTime": 1,
        "running": true,
        "channel": 0,
        "type": "noteOff",
        "noteNumber": 56,
        "velocity": 0,
        "byte9": true
      },
      {
        "deltaTime": 20,
        "running": true,
        "channel": 0,
        "type": "noteOff",
        "noteNumber": 60,
        "velocity": 0,
        "byte9": true
      },
      {
        "deltaTime": 114,
        "running": true,
        "channel": 0,
        "type": "noteOn",
        "noteNumber": 60,
        "velocity": 56
      },
      {
        "deltaTime": 4,
        "running": true,
        "channel": 0,
        "type": "noteOn",
        "noteNumber": 56,
        "velocity": 41
      },
      {
        "deltaTime": 29,
        "running": true,
        "channel": 0,
        "type": "noteOff",
        "noteNumber": 65,
        "velocity": 0,
        "byte9": true
      },
      {
        "deltaTime": 26,
        "running": true,
        "channel": 0,
        "type": "noteOff",
        "noteNumber": 68,
        "velocity": 0,
        "byte9": true
      },
      {
        "deltaTime": 31,
        "running": true,
        "channel": 0,
        "type": "noteOff",
        "noteNumber": 56,
        "velocity": 0,
        "byte9": true
      },
      {
        "deltaTime": 9,
        "running": true,
        "channel": 0,
        "type": "noteOff",
        "noteNumber": 46,
        "velocity": 0,
        "byte9": true
      },
      {
        "deltaTime": 11,
        "running": true,
        "channel": 0,
        "type": "noteOff",
        "noteNumber": 60,
        "velocity": 0,
        "byte9": true
      },
      {
        "deltaTime": 3,
        "running": true,
        "channel": 0,
        "type": "noteOff",
        "noteNumber": 63,
        "velocity": 0,
        "byte9": true
      },
      {
        "deltaTime": 12,
        "running": true,
        "channel": 0,
        "type": "noteOff",
        "noteNumber": 53,
        "velocity": 0,
        "byte9": true
      },
      {
        "deltaTime": 18,
        "running": true,
        "channel": 0,
        "type": "noteOn",
        "noteNumber": 70,
        "velocity": 64
      },
      {
        "deltaTime": 31,
        "running": true,
        "channel": 0,
        "type": "noteOff",
        "noteNumber": 70,
        "velocity": 0,
        "byte9": true
      },
      {
        "deltaTime": 136,
        "channel": 0,
        "type": "controller",
        "controllerType": 64,
        "value": 64
      },
      {
        "deltaTime": 12,
        "channel": 0,
        "type": "noteOn",
        "noteNumber": 67,
        "velocity": 55
      },
      {
        "deltaTime": 5,
        "channel": 0,
        "type": "controller",
        "controllerType": 64,
        "value": 23
      },
      {
        "deltaTime": 1,
        "running": true,
        "channel": 0,
        "type": "controller",
        "controllerType": 64,
        "value": 22
      },
      {
        "deltaTime": 0,
        "channel": 0,
        "type": "noteOn",
        "noteNumber": 56,
        "velocity": 46
      },
      {
        "deltaTime": 1,
        "running": true,
        "channel": 0,
        "type": "noteOn",
        "noteNumber": 59,
        "velocity": 39
      },
      {
        "deltaTime": 0,
        "running": true,
        "channel": 0,
        "type": "noteOn",
        "noteNumber": 62,
        "velocity": 48
      },
      {
        "deltaTime": 1,
        "running": true,
        "channel": 0,
        "type": "noteOn",
        "noteNumber": 46,
        "velocity": 41
      },
      {
        "deltaTime": 2,
        "running": true,
        "channel": 0,
        "type": "noteOn",
        "noteNumber": 64,
        "velocity": 52
      },
      {
        "deltaTime": 6,
        "channel": 0,
        "type": "controller",
        "controllerType": 64,
        "value": 3
      },
      {
        "deltaTime": 0,
        "running": true,
        "channel": 0,
        "type": "controller",
        "controllerType": 64,
        "value": 0
      },
      {
        "deltaTime": 68,
        "running": true,
        "channel": 0,
        "type": "controller",
        "controllerType": 64,
        "value": 22
      },
      {
        "deltaTime": 7,
        "running": true,
        "channel": 0,
        "type": "controller",
        "controllerType": 64,
        "value": 64
      },
      {
        "deltaTime": 15,
        "running": true,
        "channel": 0,
        "type": "controller",
        "controllerType": 64,
        "value": 65
      },
      {
        "deltaTime": 1,
        "running": true,
        "channel": 0,
        "type": "controller",
        "controllerType": 64,
        "value": 85
      },
      {
        "deltaTime": 38,
        "channel": 0,
        "type": "noteOff",
        "noteNumber": 67,
        "velocity": 0,
        "byte9": true
      },
      {
        "deltaTime": 27,
        "running": true,
        "channel": 0,
        "type": "noteOn",
        "noteNumber": 67,
        "velocity": 50
      },
      {
        "deltaTime": 28,
        "running": true,
        "channel": 0,
        "type": "noteOff",
        "noteNumber": 56,
        "velocity": 0,
        "byte9": true
      },
      {
        "deltaTime": 69,
        "running": true,
        "channel": 0,
        "type": "noteOff",
        "noteNumber": 67,
        "velocity": 0,
        "byte9": true
      },
      {
        "deltaTime": 12,
        "running": true,
        "channel": 0,
        "type": "noteOff",
        "noteNumber": 59,
        "velocity": 0,
        "byte9": true
      },
      {
        "deltaTime": 6,
        "running": true,
        "channel": 0,
        "type": "noteOff",
        "noteNumber": 62,
        "velocity": 0,
        "byte9": true
      },
      {
        "deltaTime": 7,
        "running": true,
        "channel": 0,
        "type": "noteOff",
        "noteNumber": 64,
        "velocity": 0,
        "byte9": true
      },
      {
        "deltaTime": 41,
        "running": true,
        "channel": 0,
        "type": "noteOn",
        "noteNumber": 56,
        "velocity": 45
      },
      {
        "deltaTime": 0,
        "running": true,
        "channel": 0,
        "type": "noteOn",
        "noteNumber": 67,
        "velocity": 48
      },
      {
        "deltaTime": 2,
        "running": true,
        "channel": 0,
        "type": "noteOn",
        "noteNumber": 62,
        "velocity": 44
      },
      {
        "deltaTime": 1,
        "running": true,
        "channel": 0,
        "type": "noteOn",
        "noteNumber": 59,
        "velocity": 29
      },
      {
        "deltaTime": 4,
        "running": true,
        "channel": 0,
        "type": "noteOn",
        "noteNumber": 64,
        "velocity": 46
      },
      {
        "deltaTime": 67,
        "running": true,
        "channel": 0,
        "type": "noteOff",
        "noteNumber": 67,
        "velocity": 0,
        "byte9": true
      },
      {
        "deltaTime": 25,
        "running": true,
        "channel": 0,
        "type": "noteOff",
        "noteNumber": 64,
        "velocity": 0,
        "byte9": true
      },
      {
        "deltaTime": 4,
        "running": true,
        "channel": 0,
        "type": "noteOff",
        "noteNumber": 59,
        "velocity": 0,
        "byte9": true
      },
      {
        "deltaTime": 14,
        "running": true,
        "channel": 0,
        "type": "noteOff",
        "noteNumber": 56,
        "velocity": 0,
        "byte9": true
      },
      {
        "deltaTime": 29,
        "running": true,
        "channel": 0,
        "type": "noteOff",
        "noteNumber": 46,
        "velocity": 0,
        "byte9": true
      },
      {
        "deltaTime": 215,
        "running": true,
        "channel": 0,
        "type": "noteOn",
        "noteNumber": 65,
        "velocity": 44
      },
      {
        "deltaTime": 7,
        "running": true,
        "channel": 0,
        "type": "noteOff",
        "noteNumber": 62,
        "velocity": 0,
        "byte9": true
      },
      {
        "deltaTime": 239,
        "channel": 0,
        "type": "controller",
        "controllerType": 64,
        "value": 64
      },
      {
        "deltaTime": 10,
        "running": true,
        "channel": 0,
        "type": "controller",
        "controllerType": 64,
        "value": 23
      },
      {
        "deltaTime": 2,
        "running": true,
        "channel": 0,
        "type": "controller",
        "controllerType": 64,
        "value": 22
      },
      {
        "deltaTime": 0,
        "channel": 0,
        "type": "noteOn",
        "noteNumber": 63,
        "velocity": 50
      },
      {
        "deltaTime": 0,
        "running": true,
        "channel": 0,
        "type": "noteOn",
        "noteNumber": 39,
        "velocity": 51
      },
      {
        "deltaTime": 7,
        "running": true,
        "channel": 0,
        "type": "noteOff",
        "noteNumber": 65,
        "velocity": 0,
        "byte9": true
      },
      {
        "deltaTime": 5,
        "channel": 0,
        "type": "controller",
        "controllerType": 64,
        "value": 2
      },
      {
        "deltaTime": 0,
        "running": true,
        "channel": 0,
        "type": "controller",
        "controllerType": 64,
        "value": 0
      },
      {
        "deltaTime": 9,
        "running": true,
        "channel": 0,
        "type": "controller",
        "controllerType": 64,
        "value": 22
      },
      {
        "deltaTime": 15,
        "running": true,
        "channel": 0,
        "type": "controller",
        "controllerType": 64,
        "value": 44
      },
      {
        "deltaTime": 0,
        "running": true,
        "channel": 0,
        "type": "controller",
        "controllerType": 64,
        "value": 64
      },
      {
        "deltaTime": 10,
        "running": true,
        "channel": 0,
        "type": "controller",
        "controllerType": 64,
        "value": 65
      },
      {
        "deltaTime": 0,
        "running": true,
        "channel": 0,
        "type": "controller",
        "controllerType": 64,
        "value": 85
      },
      {
        "deltaTime": 34,
        "channel": 0,
        "type": "noteOff",
        "noteNumber": 39,
        "velocity": 0,
        "byte9": true
      },
      {
        "deltaTime": 30,
        "running": true,
        "channel": 0,
        "type": "noteOn",
        "noteNumber": 46,
        "velocity": 54
      },
      {
        "deltaTime": 1,
        "running": true,
        "channel": 0,
        "type": "noteOff",
        "noteNumber": 63,
        "velocity": 0,
        "byte9": true
      },
      {
        "deltaTime": 79,
        "running": true,
        "channel": 0,
        "type": "noteOff",
        "noteNumber": 46,
        "velocity": 0,
        "byte9": true
      },
      {
        "deltaTime": 22,
        "running": true,
        "channel": 0,
        "type": "noteOn",
        "noteNumber": 60,
        "velocity": 50
      },
      {
        "deltaTime": 4,
        "running": true,
        "channel": 0,
        "type": "noteOn",
        "noteNumber": 65,
        "velocity": 58
      },
      {
        "deltaTime": 4,
        "running": true,
        "channel": 0,
        "type": "noteOn",
        "noteNumber": 55,
        "velocity": 47
      },
      {
        "deltaTime": 46,
        "running": true,
        "channel": 0,
        "type": "noteOff",
        "noteNumber": 60,
        "velocity": 0,
        "byte9": true
      },
      {
        "deltaTime": 29,
        "running": true,
        "channel": 0,
        "type": "noteOff",
        "noteNumber": 55,
        "velocity": 0,
        "byte9": true
      },
      {
        "deltaTime": 23,
        "running": true,
        "channel": 0,
        "type": "noteOff",
        "noteNumber": 65,
        "velocity": 0,
        "byte9": true
      },
      {
        "deltaTime": 1,
        "running": true,
        "channel": 0,
        "type": "noteOn",
        "noteNumber": 70,
        "velocity": 64
      },
      {
        "deltaTime": 11,
        "running": true,
        "channel": 0,
        "type": "noteOn",
        "noteNumber": 58,
        "velocity": 34
      },
      {
        "deltaTime": 8,
        "running": true,
        "channel": 0,
        "type": "noteOff",
        "noteNumber": 70,
        "velocity": 0,
        "byte9": true
      },
      {
        "deltaTime": 104,
        "running": true,
        "channel": 0,
        "type": "noteOn",
        "noteNumber": 62,
        "velocity": 38
      },
      {
        "deltaTime": 0,
        "running": true,
        "channel": 0,
        "type": "noteOn",
        "noteNumber": 72,
        "velocity": 42
      },
      {
        "deltaTime": 2,
        "running": true,
        "channel": 0,
        "type": "noteOn",
        "noteNumber": 77,
        "velocity": 53
      },
      {
        "deltaTime": 115,
        "running": true,
        "channel": 0,
        "type": "noteOn",
        "noteNumber": 82,
        "velocity": 66
      },
      {
        "deltaTime": 8,
        "running": true,
        "channel": 0,
        "type": "noteOn",
        "noteNumber": 67,
        "velocity": 32
      },
      {
        "deltaTime": 41,
        "running": true,
        "channel": 0,
        "type": "noteOff",
        "noteNumber": 82,
        "velocity": 0,
        "byte9": true
      },
      {
        "deltaTime": 82,
        "running": true,
        "channel": 0,
        "type": "noteOn",
        "noteNumber": 82,
        "velocity": 56
      },
      {
        "deltaTime": 66,
        "running": true,
        "channel": 0,
        "type": "noteOff",
        "noteNumber": 82,
        "velocity": 0,
        "byte9": true
      },
      {
        "deltaTime": 74,
        "running": true,
        "channel": 0,
        "type": "noteOn",
        "noteNumber": 82,
        "velocity": 53
      },
      {
        "deltaTime": 22,
        "running": true,
        "channel": 0,
        "type": "noteOff",
        "noteNumber": 67,
        "velocity": 0,
        "byte9": true
      },
      {
        "deltaTime": 7,
        "running": true,
        "channel": 0,
        "type": "noteOff",
        "noteNumber": 58,
        "velocity": 0,
        "byte9": true
      },
      {
        "deltaTime": 3,
        "running": true,
        "channel": 0,
        "type": "noteOff",
        "noteNumber": 62,
        "velocity": 0,
        "byte9": true
      },
      {
        "deltaTime": 17,
        "running": true,
        "channel": 0,
        "type": "noteOff",
        "noteNumber": 72,
        "velocity": 0,
        "byte9": true
      },
      {
        "deltaTime": 1,
        "running": true,
        "channel": 0,
        "type": "noteOff",
        "noteNumber": 77,
        "velocity": 0,
        "byte9": true
      },
      {
        "deltaTime": 55,
        "running": true,
        "channel": 0,
        "type": "noteOff",
        "noteNumber": 82,
        "velocity": 0,
        "byte9": true
      },
      {
        "deltaTime": 53,
        "channel": 0,
        "type": "controller",
        "controllerType": 64,
        "value": 64
      },
      {
        "deltaTime": 4,
        "channel": 0,
        "type": "noteOn",
        "noteNumber": 80,
        "velocity": 108
      },
      {
        "deltaTime": 1,
        "running": true,
        "channel": 0,
        "type": "noteOn",
        "noteNumber": 56,
        "velocity": 87
      },
      {
        "deltaTime": 0,
        "running": true,
        "channel": 0,
        "type": "noteOn",
        "noteNumber": 68,
        "velocity": 107
      },
      {
        "deltaTime": 5,
        "channel": 0,
        "type": "controller",
        "controllerType": 64,
        "value": 23
      },
      {
        "deltaTime": 1,
        "running": true,
        "channel": 0,
        "type": "controller",
        "controllerType": 64,
        "value": 22
      },
      {
        "deltaTime": 3,
        "running": true,
        "channel": 0,
        "type": "controller",
        "controllerType": 64,
        "value": 6
      },
      {
        "deltaTime": 1,
        "running": true,
        "channel": 0,
        "type": "controller",
        "controllerType": 64,
        "value": 0
      },
      {
        "deltaTime": 20,
        "running": true,
        "channel": 0,
        "type": "controller",
        "controllerType": 64,
        "value": 22
      },
      {
        "deltaTime": 9,
        "running": true,
        "channel": 0,
        "type": "controller",
        "controllerType": 64,
        "value": 46
      },
      {
        "deltaTime": 0,
        "running": true,
        "channel": 0,
        "type": "controller",
        "controllerType": 64,
        "value": 64
      },
      {
        "deltaTime": 10,
        "running": true,
        "channel": 0,
        "type": "controller",
        "controllerType": 64,
        "value": 65
      },
      {
        "deltaTime": 0,
        "running": true,
        "channel": 0,
        "type": "controller",
        "controllerType": 64,
        "value": 85
      },
      {
        "deltaTime": 33,
        "channel": 0,
        "type": "noteOff",
        "noteNumber": 68,
        "velocity": 0,
        "byte9": true
      },
      {
        "deltaTime": 8,
        "running": true,
        "channel": 0,
        "type": "noteOff",
        "noteNumber": 80,
        "velocity": 0,
        "byte9": true
      },
      {
        "deltaTime": 102,
        "running": true,
        "channel": 0,
        "type": "noteOn",
        "noteNumber": 82,
        "velocity": 97
      },
      {
        "deltaTime": 1,
        "running": true,
        "channel": 0,
        "type": "noteOn",
        "noteNumber": 70,
        "velocity": 94
      },
      {
        "deltaTime": 3,
        "running": true,
        "channel": 0,
        "type": "noteOn",
        "noteNumber": 58,
        "velocity": 74
      },
      {
        "deltaTime": 3,
        "running": true,
        "channel": 0,
        "type": "noteOff",
        "noteNumber": 56,
        "velocity": 0,
        "byte9": true
      },
      {
        "deltaTime": 74,
        "running": true,
        "channel": 0,
        "type": "noteOff",
        "noteNumber": 58,
        "velocity": 0,
        "byte9": true
      },
      {
        "deltaTime": 95,
        "running": true,
        "channel": 0,
        "type": "noteOff",
        "noteNumber": 70,
        "velocity": 0,
        "byte9": true
      },
      {
        "deltaTime": 7,
        "running": true,
        "channel": 0,
        "type": "noteOff",
        "noteNumber": 82,
        "velocity": 0,
        "byte9": true
      },
      {
        "deltaTime": 91,
        "running": true,
        "channel": 0,
        "type": "noteOn",
        "noteNumber": 83,
        "velocity": 71
      },
      {
        "deltaTime": 3,
        "running": true,
        "channel": 0,
        "type": "noteOn",
        "noteNumber": 71,
        "velocity": 68
      },
      {
        "deltaTime": 0,
        "running": true,
        "channel": 0,
        "type": "noteOn",
        "noteNumber": 41,
        "velocity": 73
      },
      {
        "deltaTime": 3,
        "channel": 0,
        "type": "controller",
        "controllerType": 64,
        "value": 64
      },
      {
        "deltaTime": 9,
        "running": true,
        "channel": 0,
        "type": "controller",
        "controllerType": 64,
        "value": 23
      },
      {
        "deltaTime": 0,
        "running": true,
        "channel": 0,
        "type": "controller",
        "controllerType": 64,
        "value": 22
      },
      {
        "deltaTime": 1,
        "running": true,
        "channel": 0,
        "type": "controller",
        "controllerType": 64,
        "value": 12
      },
      {
        "deltaTime": 1,
        "running": true,
        "channel": 0,
        "type": "controller",
        "controllerType": 64,
        "value": 1
      },
      {
        "deltaTime": 0,
        "running": true,
        "channel": 0,
        "type": "controller",
        "controllerType": 64,
        "value": 0
      },
      {
        "deltaTime": 36,
        "running": true,
        "channel": 0,
        "type": "controller",
        "controllerType": 64,
        "value": 22
      },
      {
        "deltaTime": 8,
        "running": true,
        "channel": 0,
        "type": "controller",
        "controllerType": 64,
        "value": 64
      },
      {
        "deltaTime": 12,
        "running": true,
        "channel": 0,
        "type": "controller",
        "controllerType": 64,
        "value": 65
      },
      {
        "deltaTime": 1,
        "running": true,
        "channel": 0,
        "type": "controller",
        "controllerType": 64,
        "value": 85
      },
      {
        "deltaTime": 59,
        "channel": 0,
        "type": "noteOff",
        "noteNumber": 41,
        "velocity": 0,
        "byte9": true
      },
      {
        "deltaTime": 0,
        "running": true,
        "channel": 0,
        "type": "noteOn",
        "noteNumber": 53,
        "velocity": 74
      },
      {
        "deltaTime": 105,
        "running": true,
        "channel": 0,
        "type": "noteOn",
        "noteNumber": 56,
        "velocity": 73
      },
      {
        "deltaTime": 6,
        "running": true,
        "channel": 0,
        "type": "noteOff",
        "noteNumber": 83,
        "velocity": 0,
        "byte9": true
      },
      {
        "deltaTime": 2,
        "running": true,
        "channel": 0,
        "type": "noteOff",
        "noteNumber": 53,
        "velocity": 0,
        "byte9": true
      },
      {
        "deltaTime": 8,
        "running": true,
        "channel": 0,
        "type": "noteOff",
        "noteNumber": 71,
        "velocity": 0,
        "byte9": true
      },
      {
        "deltaTime": 63,
        "running": true,
        "channel": 0,
        "type": "noteOn",
        "noteNumber": 59,
        "velocity": 73
      },
      {
        "deltaTime": 79,
        "running": true,
        "channel": 0,
        "type": "noteOn",
        "noteNumber": 63,
        "velocity": 70
      },
      {
        "deltaTime": 76,
        "running": true,
        "channel": 0,
        "type": "noteOn",
        "noteNumber": 65,
        "velocity": 72
      },
      {
        "deltaTime": 68,
        "running": true,
        "channel": 0,
        "type": "noteOff",
        "noteNumber": 65,
        "velocity": 0,
        "byte9": true
      },
      {
        "deltaTime": 9,
        "running": true,
        "channel": 0,
        "type": "noteOn",
        "noteNumber": 68,
        "velocity": 70
      },
      {
        "deltaTime": 50,
        "running": true,
        "channel": 0,
        "type": "noteOff",
        "noteNumber": 68,
        "velocity": 0,
        "byte9": true
      },
      {
        "deltaTime": 16,
        "running": true,
        "channel": 0,
        "type": "noteOn",
        "noteNumber": 71,
        "velocity": 69
      },
      {
        "deltaTime": 61,
        "running": true,
        "channel": 0,
        "type": "noteOff",
        "noteNumber": 71,
        "velocity": 0,
        "byte9": true
      },
      {
        "deltaTime": 14,
        "running": true,
        "channel": 0,
        "type": "noteOn",
        "noteNumber": 75,
        "velocity": 61
      },
      {
        "deltaTime": 63,
        "running": true,
        "channel": 0,
        "type": "noteOff",
        "noteNumber": 75,
        "velocity": 0,
        "byte9": true
      },
      {
        "deltaTime": 12,
        "running": true,
        "channel": 0,
        "type": "noteOn",
        "noteNumber": 77,
        "velocity": 64
      },
      {
        "deltaTime": 80,
        "running": true,
        "channel": 0,
        "type": "noteOff",
        "noteNumber": 77,
        "velocity": 0,
        "byte9": true
      },
      {
        "deltaTime": 8,
        "running": true,
        "channel": 0,
        "type": "noteOn",
        "noteNumber": 80,
        "velocity": 61
      },
      {
        "deltaTime": 80,
        "running": true,
        "channel": 0,
        "type": "noteOn",
        "noteNumber": 83,
        "velocity": 59
      },
      {
        "deltaTime": 60,
        "running": true,
        "channel": 0,
        "type": "noteOff",
        "noteNumber": 83,
        "velocity": 0,
        "byte9": true
      },
      {
        "deltaTime": 22,
        "running": true,
        "channel": 0,
        "type": "noteOff",
        "noteNumber": 80,
        "velocity": 0,
        "byte9": true
      },
      {
        "deltaTime": 13,
        "running": true,
        "channel": 0,
        "type": "noteOn",
        "noteNumber": 85,
        "velocity": 63
      },
      {
        "deltaTime": 49,
        "running": true,
        "channel": 0,
        "type": "noteOff",
        "noteNumber": 85,
        "velocity": 0,
        "byte9": true
      },
      {
        "deltaTime": 91,
        "running": true,
        "channel": 0,
        "type": "noteOn",
        "noteNumber": 87,
        "velocity": 70
      },
      {
        "deltaTime": 113,
        "running": true,
        "channel": 0,
        "type": "noteOff",
        "noteNumber": 87,
        "velocity": 0,
        "byte9": true
      },
      {
        "deltaTime": 18,
        "running": true,
        "channel": 0,
        "type": "noteOn",
        "noteNumber": 85,
        "velocity": 48
      },
      {
        "deltaTime": 131,
        "running": true,
        "channel": 0,
        "type": "noteOff",
        "noteNumber": 85,
        "velocity": 0,
        "byte9": true
      },
      {
        "deltaTime": 6,
        "running": true,
        "channel": 0,
        "type": "noteOff",
        "noteNumber": 63,
        "velocity": 0,
        "byte9": true
      },
      {
        "deltaTime": 14,
        "running": true,
        "channel": 0,
        "type": "noteOn",
        "noteNumber": 83,
        "velocity": 28
      },
      {
        "deltaTime": 8,
        "running": true,
        "channel": 0,
        "type": "noteOff",
        "noteNumber": 59,
        "velocity": 0,
        "byte9": true
      },
      {
        "deltaTime": 15,
        "running": true,
        "channel": 0,
        "type": "noteOff",
        "noteNumber": 56,
        "velocity": 0,
        "byte9": true
      },
      {
        "deltaTime": 161,
        "running": true,
        "channel": 0,
        "type": "noteOff",
        "noteNumber": 83,
        "velocity": 0,
        "byte9": true
      },
      {
        "deltaTime": 0,
        "channel": 0,
        "type": "controller",
        "controllerType": 64,
        "value": 64
      },
      {
        "deltaTime": 7,
        "running": true,
        "channel": 0,
        "type": "controller",
        "controllerType": 64,
        "value": 23
      },
      {
        "deltaTime": 1,
        "running": true,
        "channel": 0,
        "type": "controller",
        "controllerType": 64,
        "value": 22
      },
      {
        "deltaTime": 0,
        "channel": 0,
        "type": "noteOn",
        "noteNumber": 82,
        "velocity": 57
      },
      {
        "deltaTime": 0,
        "running": true,
        "channel": 0,
        "type": "noteOn",
        "noteNumber": 34,
        "velocity": 58
      },
      {
        "deltaTime": 0,
        "channel": 0,
        "type": "controller",
        "controllerType": 64,
        "value": 11
      },
      {
        "deltaTime": 1,
        "running": true,
        "channel": 0,
        "type": "controller",
        "controllerType": 64,
        "value": 0
      },
      {
        "deltaTime": 31,
        "running": true,
        "channel": 0,
        "type": "controller",
        "controllerType": 64,
        "value": 22
      },
      {
        "deltaTime": 6,
        "running": true,
        "channel": 0,
        "type": "controller",
        "controllerType": 64,
        "value": 50
      },
      {
        "deltaTime": 0,
        "running": true,
        "channel": 0,
        "type": "controller",
        "controllerType": 64,
        "value": 64
      },
      {
        "deltaTime": 7,
        "running": true,
        "channel": 0,
        "type": "controller",
        "controllerType": 64,
        "value": 65
      },
      {
        "deltaTime": 0,
        "running": true,
        "channel": 0,
        "type": "controller",
        "controllerType": 64,
        "value": 85
      },
      {
        "deltaTime": 5,
        "channel": 0,
        "type": "noteOff",
        "noteNumber": 34,
        "velocity": 0,
        "byte9": true
      },
      {
        "deltaTime": 6,
        "channel": 0,
        "type": "controller",
        "controllerType": 64,
        "value": 113
      },
      {
        "deltaTime": 27,
        "channel": 0,
        "type": "noteOff",
        "noteNumber": 82,
        "velocity": 0,
        "byte9": true
      },
      {
        "deltaTime": 76,
        "running": true,
        "channel": 0,
        "type": "noteOn",
        "noteNumber": 56,
        "velocity": 71
      },
      {
        "deltaTime": 147,
        "running": true,
        "channel": 0,
        "type": "noteOn",
        "noteNumber": 58,
        "velocity": 56
      },
      {
        "deltaTime": 30,
        "running": true,
        "channel": 0,
        "type": "noteOff",
        "noteNumber": 56,
        "velocity": 0,
        "byte9": true
      },
      {
        "deltaTime": 4,
        "running": true,
        "channel": 0,
        "type": "noteOff",
        "noteNumber": 58,
        "velocity": 0,
        "byte9": true
      },
      {
        "deltaTime": 27,
        "running": true,
        "channel": 0,
        "type": "noteOn",
        "noteNumber": 59,
        "velocity": 64
      },
      {
        "deltaTime": 40,
        "running": true,
        "channel": 0,
        "type": "noteOff",
        "noteNumber": 59,
        "velocity": 0,
        "byte9": true
      },
      {
        "deltaTime": 10,
        "running": true,
        "channel": 0,
        "type": "noteOn",
        "noteNumber": 62,
        "velocity": 62
      },
      {
        "deltaTime": 41,
        "running": true,
        "channel": 0,
        "type": "noteOn",
        "noteNumber": 64,
        "velocity": 73
      },
      {
        "deltaTime": 6,
        "running": true,
        "channel": 0,
        "type": "noteOff",
        "noteNumber": 62,
        "velocity": 0,
        "byte9": true
      },
      {
        "deltaTime": 37,
        "running": true,
        "channel": 0,
        "type": "noteOff",
        "noteNumber": 64,
        "velocity": 0,
        "byte9": true
      },
      {
        "deltaTime": 4,
        "running": true,
        "channel": 0,
        "type": "noteOn",
        "noteNumber": 67,
        "velocity": 60
      },
      {
        "deltaTime": 21,
        "running": true,
        "channel": 0,
        "type": "noteOff",
        "noteNumber": 67,
        "velocity": 0,
        "byte9": true
      },
      {
        "deltaTime": 28,
        "running": true,
        "channel": 0,
        "type": "noteOn",
        "noteNumber": 68,
        "velocity": 63
      },
      {
        "deltaTime": 33,
        "running": true,
        "channel": 0,
        "type": "noteOn",
        "noteNumber": 70,
        "velocity": 61
      },
      {
        "deltaTime": 45,
        "running": true,
        "channel": 0,
        "type": "noteOn",
        "noteNumber": 71,
        "velocity": 18
      },
      {
        "deltaTime": 20,
        "running": true,
        "channel": 0,
        "type": "noteOn",
        "noteNumber": 74,
        "velocity": 40
      },
      {
        "deltaTime": 20,
        "running": true,
        "channel": 0,
        "type": "noteOn",
        "noteNumber": 76,
        "velocity": 67
      },
      {
        "deltaTime": 39,
        "running": true,
        "channel": 0,
        "type": "noteOn",
        "noteNumber": 79,
        "velocity": 70
      },
      {
        "deltaTime": 145,
        "running": true,
        "channel": 0,
        "type": "noteOff",
        "noteNumber": 74,
        "velocity": 0,
        "byte9": true
      },
      {
        "deltaTime": 19,
        "running": true,
        "channel": 0,
        "type": "noteOff",
        "noteNumber": 76,
        "velocity": 0,
        "byte9": true
      },
      {
        "deltaTime": 12,
        "running": true,
        "channel": 0,
        "type": "noteOn",
        "noteNumber": 77,
        "velocity": 53
      },
      {
        "deltaTime": 35,
        "running": true,
        "channel": 0,
        "type": "noteOff",
        "noteNumber": 79,
        "velocity": 0,
        "byte9": true
      },
      {
        "deltaTime": 115,
        "running": true,
        "channel": 0,
        "type": "noteOff",
        "noteNumber": 71,
        "velocity": 0,
        "byte9": true
      },
      {
        "deltaTime": 3,
        "running": true,
        "channel": 0,
        "type": "noteOff",
        "noteNumber": 77,
        "velocity": 0,
        "byte9": true
      },
      {
        "deltaTime": 12,
        "running": true,
        "channel": 0,
        "type": "noteOff",
        "noteNumber": 70,
        "velocity": 0,
        "byte9": true
      },
      {
        "deltaTime": 14,
        "running": true,
        "channel": 0,
        "type": "noteOff",
        "noteNumber": 68,
        "velocity": 0,
        "byte9": true
      },
      {
        "deltaTime": 82,
        "running": true,
        "channel": 0,
        "type": "noteOn",
        "noteNumber": 70,
        "velocity": 106
      },
      {
        "deltaTime": 158,
        "running": true,
        "channel": 0,
        "type": "noteOn",
        "noteNumber": 74,
        "velocity": 80
      },
      {
        "deltaTime": 18,
        "running": true,
        "channel": 0,
        "type": "noteOff",
        "noteNumber": 70,
        "velocity": 0,
        "byte9": true
      },
      {
        "deltaTime": 86,
        "running": true,
        "channel": 0,
        "type": "noteOff",
        "noteNumber": 74,
        "velocity": 0,
        "byte9": true
      },
      {
        "deltaTime": 122,
        "channel": 0,
        "type": "controller",
        "controllerType": 64,
        "value": 106
      },
      {
        "deltaTime": 5,
        "channel": 0,
        "type": "noteOn",
        "noteNumber": 77,
        "velocity": 63
      },
      {
        "deltaTime": 3,
        "running": true,
        "channel": 0,
        "type": "noteOn",
        "noteNumber": 51,
        "velocity": 50
      },
      {
        "deltaTime": 2,
        "running": true,
        "channel": 0,
        "type": "noteOn",
        "noteNumber": 59,
        "velocity": 55
      },
      {
        "deltaTime": 1,
        "running": true,
        "channel": 0,
        "type": "noteOn",
        "noteNumber": 66,
        "velocity": 56
      },
      {
        "deltaTime": 1,
        "running": true,
        "channel": 0,
        "type": "noteOn",
        "noteNumber": 69,
        "velocity": 55
      },
      {
        "deltaTime": 1,
        "channel": 0,
        "type": "controller",
        "controllerType": 64,
        "value": 64
      },
      {
        "deltaTime": 6,
        "channel": 0,
        "type": "noteOn",
        "noteNumber": 75,
        "velocity": 35
      },
      {
        "deltaTime": 1,
        "running": true,
        "channel": 0,
        "type": "noteOn",
        "noteNumber": 74,
        "velocity": 46
      },
      {
        "deltaTime": 5,
        "channel": 0,
        "type": "controller",
        "controllerType": 64,
        "value": 23
      },
      {
        "deltaTime": 0,
        "running": true,
        "channel": 0,
        "type": "controller",
        "controllerType": 64,
        "value": 22
      },
      {
        "deltaTime": 6,
        "running": true,
        "channel": 0,
        "type": "controller",
        "controllerType": 64,
        "value": 5
      },
      {
        "deltaTime": 1,
        "running": true,
        "channel": 0,
        "type": "controller",
        "controllerType": 64,
        "value": 1
      },
      {
        "deltaTime": 0,
        "running": true,
        "channel": 0,
        "type": "controller",
        "controllerType": 64,
        "value": 0
      },
      {
        "deltaTime": 2,
        "channel": 0,
        "type": "noteOff",
        "noteNumber": 75,
        "velocity": 0,
        "byte9": true
      },
      {
        "deltaTime": 54,
        "channel": 0,
        "type": "controller",
        "controllerType": 64,
        "value": 22
      },
      {
        "deltaTime": 11,
        "running": true,
        "channel": 0,
        "type": "controller",
        "controllerType": 64,
        "value": 64
      },
      {
        "deltaTime": 15,
        "running": true,
        "channel": 0,
        "type": "controller",
        "controllerType": 64,
        "value": 65
      },
      {
        "deltaTime": 1,
        "running": true,
        "channel": 0,
        "type": "controller",
        "controllerType": 64,
        "value": 85
      },
      {
        "deltaTime": 86,
        "channel": 0,
        "type": "noteOff",
        "noteNumber": 77,
        "velocity": 0,
        "byte9": true
      },
      {
        "deltaTime": 18,
        "running": true,
        "channel": 0,
        "type": "noteOff",
        "noteNumber": 74,
        "velocity": 0,
        "byte9": true
      },
      {
        "deltaTime": 6,
        "running": true,
        "channel": 0,
        "type": "noteOff",
        "noteNumber": 66,
        "velocity": 0,
        "byte9": true
      },
      {
        "deltaTime": 11,
        "running": true,
        "channel": 0,
        "type": "noteOff",
        "noteNumber": 69,
        "velocity": 0,
        "byte9": true
      },
      {
        "deltaTime": 216,
        "running": true,
        "channel": 0,
        "type": "noteOn",
        "noteNumber": 65,
        "velocity": 61
      },
      {
        "deltaTime": 57,
        "running": true,
        "channel": 0,
        "type": "noteOn",
        "noteNumber": 66,
        "velocity": 81
      },
      {
        "deltaTime": 9,
        "running": true,
        "channel": 0,
        "type": "noteOff",
        "noteNumber": 65,
        "velocity": 0,
        "byte9": true
      },
      {
        "deltaTime": 45,
        "running": true,
        "channel": 0,
        "type": "noteOn",
        "noteNumber": 68,
        "velocity": 82
      },
      {
        "deltaTime": 10,
        "running": true,
        "channel": 0,
        "type": "noteOff",
        "noteNumber": 66,
        "velocity": 0,
        "byte9": true
      },
      {
        "deltaTime": 25,
        "running": true,
        "channel": 0,
        "type": "noteOff",
        "noteNumber": 68,
        "velocity": 0,
        "byte9": true
      },
      {
        "deltaTime": 12,
        "running": true,
        "channel": 0,
        "type": "noteOn",
        "noteNumber": 69,
        "velocity": 76
      },
      {
        "deltaTime": 40,
        "running": true,
        "channel": 0,
        "type": "noteOff",
        "noteNumber": 69,
        "velocity": 0,
        "byte9": true
      },
      {
        "deltaTime": 9,
        "running": true,
        "channel": 0,
        "type": "noteOn",
        "noteNumber": 71,
        "velocity": 79
      },
      {
        "deltaTime": 2,
        "running": true,
        "channel": 0,
        "type": "noteOff",
        "noteNumber": 59,
        "velocity": 0,
        "byte9": true
      },
      {
        "deltaTime": 25,
        "running": true,
        "channel": 0,
        "type": "noteOff",
        "noteNumber": 51,
        "velocity": 0,
        "byte9": true
      },
      {
        "deltaTime": 4,
        "running": true,
        "channel": 0,
        "type": "noteOff",
        "noteNumber": 71,
        "velocity": 0,
        "byte9": true
      },
      {
        "deltaTime": 18,
        "running": true,
        "channel": 0,
        "type": "noteOn",
        "noteNumber": 72,
        "velocity": 84
      },
      {
        "deltaTime": 32,
        "running": true,
        "channel": 0,
        "type": "noteOff",
        "noteNumber": 72,
        "velocity": 0,
        "byte9": true
      },
      {
        "deltaTime": 17,
        "running": true,
        "channel": 0,
        "type": "noteOn",
        "noteNumber": 74,
        "velocity": 67
      },
      {
        "deltaTime": 26,
        "running": true,
        "channel": 0,
        "type": "noteOff",
        "noteNumber": 74,
        "velocity": 0,
        "byte9": true
      },
      {
        "deltaTime": 23,
        "running": true,
        "channel": 0,
        "type": "noteOn",
        "noteNumber": 75,
        "velocity": 64
      },
      {
        "deltaTime": 30,
        "running": true,
        "channel": 0,
        "type": "noteOff",
        "noteNumber": 75,
        "velocity": 0,
        "byte9": true
      },
      {
        "deltaTime": 20,
        "running": true,
        "channel": 0,
        "type": "noteOn",
        "noteNumber": 77,
        "velocity": 77
      },
      {
        "deltaTime": 42,
        "running": true,
        "channel": 0,
        "type": "noteOff",
        "noteNumber": 77,
        "velocity": 0,
        "byte9": true
      },
      {
        "deltaTime": 11,
        "running": true,
        "channel": 0,
        "type": "noteOn",
        "noteNumber": 78,
        "velocity": 70
      },
      {
        "deltaTime": 36,
        "running": true,
        "channel": 0,
        "type": "noteOff",
        "noteNumber": 78,
        "velocity": 0,
        "byte9": true
      },
      {
        "deltaTime": 19,
        "running": true,
        "channel": 0,
        "type": "noteOn",
        "noteNumber": 80,
        "velocity": 58
      },
      {
        "deltaTime": 30,
        "running": true,
        "channel": 0,
        "type": "noteOff",
        "noteNumber": 80,
        "velocity": 0,
        "byte9": true
      },
      {
        "deltaTime": 16,
        "running": true,
        "channel": 0,
        "type": "noteOn",
        "noteNumber": 81,
        "velocity": 58
      },
      {
        "deltaTime": 41,
        "running": true,
        "channel": 0,
        "type": "noteOff",
        "noteNumber": 81,
        "velocity": 0,
        "byte9": true
      },
      {
        "deltaTime": 17,
        "running": true,
        "channel": 0,
        "type": "noteOn",
        "noteNumber": 83,
        "velocity": 61
      },
      {
        "deltaTime": 36,
        "running": true,
        "channel": 0,
        "type": "noteOff",
        "noteNumber": 83,
        "velocity": 0,
        "byte9": true
      },
      {
        "deltaTime": 19,
        "running": true,
        "channel": 0,
        "type": "noteOn",
        "noteNumber": 84,
        "velocity": 72
      },
      {
        "deltaTime": 53,
        "running": true,
        "channel": 0,
        "type": "noteOff",
        "noteNumber": 84,
        "velocity": 0,
        "byte9": true
      },
      {
        "deltaTime": 15,
        "running": true,
        "channel": 0,
        "type": "noteOn",
        "noteNumber": 86,
        "velocity": 47
      },
      {
        "deltaTime": 96,
        "running": true,
        "channel": 0,
        "type": "noteOff",
        "noteNumber": 86,
        "velocity": 0,
        "byte9": true
      },
      {
        "deltaTime": 2,
        "running": true,
        "channel": 0,
        "type": "noteOn",
        "noteNumber": 87,
        "velocity": 55
      },
      {
        "deltaTime": 69,
        "running": true,
        "channel": 0,
        "type": "noteOff",
        "noteNumber": 87,
        "velocity": 0,
        "byte9": true
      },
      {
        "deltaTime": 8,
        "running": true,
        "channel": 0,
        "type": "noteOn",
        "noteNumber": 89,
        "velocity": 71
      },
      {
        "deltaTime": 98,
        "running": true,
        "channel": 0,
        "type": "noteOn",
        "noteNumber": 90,
        "velocity": 48
      },
      {
        "deltaTime": 77,
        "channel": 0,
        "type": "controller",
        "controllerType": 64,
        "value": 0
      },
      {
        "deltaTime": 33,
        "channel": 0,
        "type": "noteOff",
        "noteNumber": 90,
        "velocity": 0,
        "byte9": true
      },
      {
        "deltaTime": 1,
        "running": true,
        "channel": 0,
        "type": "noteOff",
        "noteNumber": 89,
        "velocity": 0,
        "byte9": true
      },
      {
        "deltaTime": 9,
        "running": true,
        "channel": 0,
        "type": "noteOn",
        "noteNumber": 39,
        "velocity": 48
      },
      {
        "deltaTime": 2,
        "running": true,
        "channel": 0,
        "type": "noteOn",
        "noteNumber": 91,
        "velocity": 57
      },
      {
        "deltaTime": 16,
        "channel": 0,
        "type": "controller",
        "controllerType": 64,
        "value": 64
      },
      {
        "deltaTime": 12,
        "running": true,
        "channel": 0,
        "type": "controller",
        "controllerType": 64,
        "value": 23
      },
      {
        "deltaTime": 1,
        "running": true,
        "channel": 0,
        "type": "controller",
        "controllerType": 64,
        "value": 22
      },
      {
        "deltaTime": 32,
        "running": true,
        "channel": 0,
        "type": "controller",
        "controllerType": 64,
        "value": 64
      },
      {
        "deltaTime": 10,
        "running": true,
        "channel": 0,
        "type": "controller",
        "controllerType": 64,
        "value": 65
      },
      {
        "deltaTime": 0,
        "running": true,
        "channel": 0,
        "type": "controller",
        "controllerType": 64,
        "value": 85
      },
      {
        "deltaTime": 23,
        "channel": 0,
        "type": "noteOff",
        "noteNumber": 91,
        "velocity": 0,
        "byte9": true
      },
      {
        "deltaTime": 13,
        "running": true,
        "channel": 0,
        "type": "noteOn",
        "noteNumber": 46,
        "velocity": 52
      },
      {
        "deltaTime": 6,
        "running": true,
        "channel": 0,
        "type": "noteOff",
        "noteNumber": 39,
        "velocity": 0,
        "byte9": true
      },
      {
        "deltaTime": 45,
        "running": true,
        "channel": 0,
        "type": "noteOff",
        "noteNumber": 46,
        "velocity": 0,
        "byte9": true
      },
      {
        "deltaTime": 31,
        "running": true,
        "channel": 0,
        "type": "noteOn",
        "noteNumber": 46,
        "velocity": 5
      },
      {
        "deltaTime": 28,
        "running": true,
        "channel": 0,
        "type": "noteOff",
        "noteNumber": 46,
        "velocity": 0,
        "byte9": true
      },
      {
        "deltaTime": 10,
        "running": true,
        "channel": 0,
        "type": "noteOn",
        "noteNumber": 70,
        "velocity": 55
      },
      {
        "deltaTime": 4,
        "running": true,
        "channel": 0,
        "type": "noteOn",
        "noteNumber": 65,
        "velocity": 56
      },
      {
        "deltaTime": 3,
        "running": true,
        "channel": 0,
        "type": "noteOn",
        "noteNumber": 60,
        "velocity": 44
      },
      {
        "deltaTime": 0,
        "running": true,
        "channel": 0,
        "type": "noteOn",
        "noteNumber": 55,
        "velocity": 53
      },
      {
        "deltaTime": 20,
        "running": true,
        "channel": 0,
        "type": "noteOff",
        "noteNumber": 60,
        "velocity": 0,
        "byte9": true
      },
      {
        "deltaTime": 4,
        "running": true,
        "channel": 0,
        "type": "noteOff",
        "noteNumber": 65,
        "velocity": 0,
        "byte9": true
      },
      {
        "deltaTime": 10,
        "running": true,
        "channel": 0,
        "type": "noteOff",
        "noteNumber": 70,
        "velocity": 0,
        "byte9": true
      },
      {
        "deltaTime": 75,
        "running": true,
        "channel": 0,
        "type": "noteOff",
        "noteNumber": 55,
        "velocity": 0,
        "byte9": true
      },
      {
        "deltaTime": 9,
        "running": true,
        "channel": 0,
        "type": "noteOn",
        "noteNumber": 58,
        "velocity": 43
      },
      {
        "deltaTime": 129,
        "running": true,
        "channel": 0,
        "type": "noteOn",
        "noteNumber": 82,
        "velocity": 55
      },
      {
        "deltaTime": 10,
        "running": true,
        "channel": 0,
        "type": "noteOn",
        "noteNumber": 62,
        "velocity": 50
      },
      {
        "deltaTime": 4,
        "running": true,
        "channel": 0,
        "type": "noteOn",
        "noteNumber": 72,
        "velocity": 44
      },
      {
        "deltaTime": 2,
        "running": true,
        "channel": 0,
        "type": "noteOn",
        "noteNumber": 77,
        "velocity": 45
      },
      {
        "deltaTime": 644,
        "running": true,
        "channel": 0,
        "type": "noteOff",
        "noteNumber": 72,
        "velocity": 0,
        "byte9": true
      },
      {
        "deltaTime": 3,
        "running": true,
        "channel": 0,
        "type": "noteOff",
        "noteNumber": 77,
        "velocity": 0,
        "byte9": true
      },
      {
        "deltaTime": 4,
        "running": true,
        "channel": 0,
        "type": "noteOff",
        "noteNumber": 82,
        "velocity": 0,
        "byte9": true
      },
      {
        "deltaTime": 3,
        "running": true,
        "channel": 0,
        "type": "noteOff",
        "noteNumber": 62,
        "velocity": 0,
        "byte9": true
      },
      {
        "deltaTime": 12,
        "running": true,
        "channel": 0,
        "type": "noteOff",
        "noteNumber": 58,
        "velocity": 0,
        "byte9": true
      },
      {
        "deltaTime": 67,
        "channel": 0,
        "type": "controller",
        "controllerType": 64,
        "value": 64
      },
      {
        "deltaTime": 25,
        "running": true,
        "channel": 0,
        "type": "controller",
        "controllerType": 64,
        "value": 23
      },
      {
        "deltaTime": 0,
        "running": true,
        "channel": 0,
        "type": "controller",
        "controllerType": 64,
        "value": 22
      },
      {
        "deltaTime": 8,
        "running": true,
        "channel": 0,
        "type": "controller",
        "controllerType": 64,
        "value": 3
      },
      {
        "deltaTime": 0,
        "running": true,
        "channel": 0,
        "type": "controller",
        "controllerType": 64,
        "value": 0
      },
      { "deltaTime": 0, "meta": true, "type": "endOfTrack" }
    ]
  ]
}
