{
  "header": { "format": 1, "numTracks": 1, "ticksPerBeat": 480 },
  "tracks": [
    [
      {
        "deltaTime": 0,
        "meta": true,
        "type": "timeSignature",
        "numerator": 4,
        "denominator": 4,
        "metronome": 24,
        "thirtyseconds": 8
      },
      {
        "deltaTime": 0,
        "meta": true,
        "type": "keySignature",
        "key": 0,
        "scale": 0
      },
      {
        "deltaTime": 0,
        "meta": true,
        "type": "smpteOffset",
        "frameRate": 25,
        "hour": 0,
        "min": 0,
        "sec": 0,
        "frame": 0,
        "subFrame": 0
      },
      {
        "deltaTime": 0,
        "meta": true,
        "type": "setTempo",
        "microsecondsPerBeat": 461538
      },
      { "deltaTime": 0, "meta": true, "type": "channelPrefix", "channel": 0 },
      {
        "deltaTime": 0,
        "meta": true,
        "type": "trackName",
        "text": "Shiny Stockings"
      },
      {
        "deltaTime": 0,
        "channel": 0,
        "type": "controller",
        "controllerType": 0,
        "value": 0
      },
      {
        "deltaTime": 0,
        "running": true,
        "channel": 0,
        "type": "controller",
        "controllerType": 32,
        "value": 0
      },

      {
        "deltaTime": 1120,
        "channel": 0,
        "type": "controller",
        "controllerType": 64,
        "value": 127
      },
      {
        "deltaTime": 185,
        "channel": 0,
        "type": "noteOn",
        "noteNumber": 80,
        "velocity": 74
      },
      {
        "deltaTime": 5,
        "channel": 0,
        "type": "noteOn",
        "noteNumber": 71,
        "velocity": 78
      },
      {
        "deltaTime": 0,
        "running": true,
        "channel": 0,
        "type": "noteOn",
        "noteNumber": 76,
        "velocity": 79
      },
      {
        "deltaTime": 5,
        "channel": 0,
        "type": "controller",
        "controllerType": 64,
        "value": 0
      },
      {
        "deltaTime": 15,
        "channel": 0,
        "type": "noteOn",
        "noteNumber": 56,
        "velocity": 44
      },
      {
        "deltaTime": 125,
        "channel": 0,
        "type": "controller",
        "controllerType": 64,
        "value": 127
      },
      {
        "deltaTime": 145,
        "channel": 0,
        "type": "noteOff",
        "noteNumber": 56,
        "velocity": 0,
        "byte9": true
      },
      {
        "deltaTime": 80,
        "channel": 0,
        "type": "noteOff",
        "noteNumber": 76,
        "velocity": 0,
        "byte9": true
      },
      {
        "deltaTime": 80,
        "channel": 0,
        "type": "noteOff",
        "noteNumber": 71,
        "velocity": 0,
        "byte9": true
      },
      {
        "deltaTime": 30,
        "channel": 0,
        "type": "noteOff",
        "noteNumber": 80,
        "velocity": 0,
        "byte9": true
      },
      {
        "deltaTime": 155,
        "channel": 0,
        "type": "controller",
        "controllerType": 64,
        "value": 0
      },
      {
        "deltaTime": 10,
        "channel": 0,
        "type": "noteOn",
        "noteNumber": 81,
        "velocity": 51
      },
      {
        "deltaTime": 5,
        "channel": 0,
        "type": "noteOn",
        "noteNumber": 53,
        "velocity": 32
      },
      {
        "deltaTime": 0,
        "running": true,
        "channel": 0,
        "type": "noteOn",
        "noteNumber": 62,
        "velocity": 41
      },
      {
        "deltaTime": 5,
        "channel": 0,
        "type": "noteOn",
        "noteNumber": 58,
        "velocity": 36
      },
      {
        "deltaTime": 0,
        "running": true,
        "channel": 0,
        "type": "noteOn",
        "noteNumber": 69,
        "velocity": 39
      },
      {
        "deltaTime": 5,
        "channel": 0,
        "type": "noteOn",
        "noteNumber": 57,
        "velocity": 31
      },
      {
        "deltaTime": 0,
        "running": true,
        "channel": 0,
        "type": "noteOn",
        "noteNumber": 74,
        "velocity": 35
      },
      {
        "deltaTime": 60,
        "channel": 0,
        "type": "noteOff",
        "noteNumber": 62,
        "velocity": 0,
        "byte9": true
      },
      {
        "deltaTime": 5,
        "channel": 0,
        "type": "noteOff",
        "noteNumber": 57,
        "velocity": 0,
        "byte9": true
      },
      {
        "deltaTime": 0,
        "running": true,
        "channel": 0,
        "type": "noteOff",
        "noteNumber": 58,
        "velocity": 0,
        "byte9": true
      },
      {
        "deltaTime": 0,
        "running": true,
        "channel": 0,
        "type": "noteOff",
        "noteNumber": 69,
        "velocity": 0,
        "byte9": true
      },
      {
        "deltaTime": 5,
        "channel": 0,
        "type": "noteOff",
        "noteNumber": 53,
        "velocity": 0,
        "byte9": true
      },
      {
        "deltaTime": 5,
        "channel": 0,
        "type": "noteOff",
        "noteNumber": 74,
        "velocity": 0,
        "byte9": true
      },
      {
        "deltaTime": 10,
        "channel": 0,
        "type": "noteOff",
        "noteNumber": 81,
        "velocity": 0,
        "byte9": true
      },
      {
        "deltaTime": 360,
        "channel": 0,
        "type": "controller",
        "controllerType": 64,
        "value": 127
      },
      {
        "deltaTime": 325,
        "channel": 0,
        "type": "noteOn",
        "noteNumber": 92,
        "velocity": 84
      },
      {
        "deltaTime": 5,
        "channel": 0,
        "type": "noteOn",
        "noteNumber": 62,
        "velocity": 84
      },
      {
        "deltaTime": 0,
        "running": true,
        "channel": 0,
        "type": "noteOn",
        "noteNumber": 80,
        "velocity": 82
      },
      {
        "deltaTime": 5,
        "channel": 0,
        "type": "noteOn",
        "noteNumber": 57,
        "velocity": 76
      },
      {
        "deltaTime": 0,
        "running": true,
        "channel": 0,
        "type": "noteOn",
        "noteNumber": 58,
        "velocity": 69
      },
      {
        "deltaTime": 0,
        "running": true,
        "channel": 0,
        "type": "noteOn",
        "noteNumber": 87,
        "velocity": 79
      },
      {
        "deltaTime": 5,
        "channel": 0,
        "type": "noteOn",
        "noteNumber": 53,
        "velocity": 73
      },
      {
        "deltaTime": 510,
        "channel": 0,
        "type": "noteOff",
        "noteNumber": 53,
        "velocity": 0,
        "byte9": true
      },
      {
        "deltaTime": 35,
        "channel": 0,
        "type": "noteOff",
        "noteNumber": 62,
        "velocity": 0,
        "byte9": true
      },
      {
        "deltaTime": 5,
        "channel": 0,
        "type": "noteOff",
        "noteNumber": 57,
        "velocity": 0,
        "byte9": true
      },
      {
        "deltaTime": 15,
        "channel": 0,
        "type": "noteOff",
        "noteNumber": 58,
        "velocity": 0,
        "byte9": true
      },
      {
        "deltaTime": 0,
        "running": true,
        "channel": 0,
        "type": "noteOff",
        "noteNumber": 80,
        "velocity": 0,
        "byte9": true
      },
      {
        "deltaTime": 0,
        "running": true,
        "channel": 0,
        "type": "noteOff",
        "noteNumber": 92,
        "velocity": 0,
        "byte9": true
      },
      {
        "deltaTime": 25,
        "channel": 0,
        "type": "noteOff",
        "noteNumber": 87,
        "velocity": 0,
        "byte9": true
      },
      {
        "deltaTime": 65,
        "channel": 0,
        "type": "noteOn",
        "noteNumber": 62,
        "velocity": 63
      },
      {
        "deltaTime": 0,
        "running": true,
        "channel": 0,
        "type": "noteOn",
        "noteNumber": 93,
        "velocity": 56
      },
      {
        "deltaTime": 5,
        "channel": 0,
        "type": "noteOn",
        "noteNumber": 53,
        "velocity": 47
      },
      {
        "deltaTime": 0,
        "running": true,
        "channel": 0,
        "type": "noteOn",
        "noteNumber": 58,
        "velocity": 39
      },
      {
        "deltaTime": 0,
        "running": true,
        "channel": 0,
        "type": "noteOn",
        "noteNumber": 81,
        "velocity": 40
      },
      {
        "deltaTime": 5,
        "channel": 0,
        "type": "noteOn",
        "noteNumber": 57,
        "velocity": 40
      },
      {
        "deltaTime": 0,
        "running": true,
        "channel": 0,
        "type": "noteOn",
        "noteNumber": 88,
        "velocity": 55
      },
      {
        "deltaTime": 15,
        "channel": 0,
        "type": "controller",
        "controllerType": 64,
        "value": 0
      },
      {
        "deltaTime": 15,
        "channel": 0,
        "type": "noteOff",
        "noteNumber": 57,
        "velocity": 0,
        "byte9": true
      },
      {
        "deltaTime": 0,
        "running": true,
        "channel": 0,
        "type": "noteOff",
        "noteNumber": 81,
        "velocity": 0,
        "byte9": true
      },
      {
        "deltaTime": 15,
        "channel": 0,
        "type": "noteOff",
        "noteNumber": 62,
        "velocity": 0,
        "byte9": true
      },
      {
        "deltaTime": 5,
        "channel": 0,
        "type": "noteOff",
        "noteNumber": 93,
        "velocity": 0,
        "byte9": true
      },
      {
        "deltaTime": 5,
        "channel": 0,
        "type": "noteOff",
        "noteNumber": 53,
        "velocity": 0,
        "byte9": true
      },
      {
        "deltaTime": 0,
        "running": true,
        "channel": 0,
        "type": "noteOff",
        "noteNumber": 88,
        "velocity": 0,
        "byte9": true
      },
      {
        "deltaTime": 5,
        "channel": 0,
        "type": "noteOff",
        "noteNumber": 58,
        "velocity": 0,
        "byte9": true
      },
      {
        "deltaTime": 315,
        "channel": 0,
        "type": "controller",
        "controllerType": 64,
        "value": 127
      },
      {
        "deltaTime": 55,
        "channel": 0,
        "type": "noteOn",
        "noteNumber": 62,
        "velocity": 65
      },
      {
        "deltaTime": 0,
        "running": true,
        "channel": 0,
        "type": "noteOn",
        "noteNumber": 96,
        "velocity": 68
      },
      {
        "deltaTime": 5,
        "channel": 0,
        "type": "noteOn",
        "noteNumber": 58,
        "velocity": 38
      },
      {
        "deltaTime": 5,
        "channel": 0,
        "type": "noteOn",
        "noteNumber": 52,
        "velocity": 52
      },
      {
        "deltaTime": 5,
        "channel": 0,
        "type": "noteOn",
        "noteNumber": 91,
        "velocity": 45
      },
      {
        "deltaTime": 15,
        "channel": 0,
        "type": "noteOn",
        "noteNumber": 84,
        "velocity": 22
      },
      {
        "deltaTime": 65,
        "channel": 0,
        "type": "noteOff",
        "noteNumber": 84,
        "velocity": 0,
        "byte9": true
      },
      {
        "deltaTime": 10,
        "channel": 0,
        "type": "noteOff",
        "noteNumber": 52,
        "velocity": 0,
        "byte9": true
      },
      {
        "deltaTime": 0,
        "running": true,
        "channel": 0,
        "type": "noteOff",
        "noteNumber": 62,
        "velocity": 0,
        "byte9": true
      },
      {
        "deltaTime": 0,
        "running": true,
        "channel": 0,
        "type": "noteOff",
        "noteNumber": 91,
        "velocity": 0,
        "byte9": true
      },
      {
        "deltaTime": 10,
        "channel": 0,
        "type": "noteOff",
        "noteNumber": 58,
        "velocity": 0,
        "byte9": true
      },
      {
        "deltaTime": 0,
        "running": true,
        "channel": 0,
        "type": "noteOff",
        "noteNumber": 96,
        "velocity": 0,
        "byte9": true
      },
      {
        "deltaTime": 205,
        "channel": 0,
        "type": "noteOn",
        "noteNumber": 58,
        "velocity": 74
      },
      {
        "deltaTime": 5,
        "channel": 0,
        "type": "noteOn",
        "noteNumber": 52,
        "velocity": 80
      },
      {
        "deltaTime": 0,
        "running": true,
        "channel": 0,
        "type": "noteOn",
        "noteNumber": 62,
        "velocity": 82
      },
      {
        "deltaTime": 5,
        "channel": 0,
        "type": "noteOn",
        "noteNumber": 84,
        "velocity": 84
      },
      {
        "deltaTime": 0,
        "running": true,
        "channel": 0,
        "type": "noteOn",
        "noteNumber": 96,
        "velocity": 84
      },
      {
        "deltaTime": 5,
        "channel": 0,
        "type": "noteOn",
        "noteNumber": 91,
        "velocity": 79
      },
      {
        "deltaTime": 50,
        "channel": 0,
        "type": "noteOff",
        "noteNumber": 96,
        "velocity": 0,
        "byte9": true
      },
      {
        "deltaTime": 20,
        "channel": 0,
        "type": "noteOff",
        "noteNumber": 52,
        "velocity": 0,
        "byte9": true
      },
      {
        "deltaTime": 0,
        "running": true,
        "channel": 0,
        "type": "noteOff",
        "noteNumber": 62,
        "velocity": 0,
        "byte9": true
      },
      {
        "deltaTime": 10,
        "channel": 0,
        "type": "noteOff",
        "noteNumber": 91,
        "velocity": 0,
        "byte9": true
      },
      {
        "deltaTime": 10,
        "channel": 0,
        "type": "noteOff",
        "noteNumber": 58,
        "velocity": 0,
        "byte9": true
      },
      {
        "deltaTime": 0,
        "running": true,
        "channel": 0,
        "type": "noteOff",
        "noteNumber": 84,
        "velocity": 0,
        "byte9": true
      },
      {
        "deltaTime": 55,
        "channel": 0,
        "type": "controller",
        "controllerType": 64,
        "value": 0
      },
      {
        "deltaTime": 10,
        "channel": 0,
        "type": "noteOn",
        "noteNumber": 58,
        "velocity": 46
      },
      {
        "deltaTime": 0,
        "running": true,
        "channel": 0,
        "type": "noteOn",
        "noteNumber": 62,
        "velocity": 62
      },
      {
        "deltaTime": 5,
        "channel": 0,
        "type": "noteOn",
        "noteNumber": 52,
        "velocity": 62
      },
      {
        "deltaTime": 30,
        "channel": 0,
        "type": "noteOn",
        "noteNumber": 88,
        "velocity": 34
      },
      {
        "deltaTime": 5,
        "channel": 0,
        "type": "noteOn",
        "noteNumber": 93,
        "velocity": 30
      },
      {
        "deltaTime": 5,
        "channel": 0,
        "type": "noteOff",
        "noteNumber": 52,
        "velocity": 0,
        "byte9": true
      },
      {
        "deltaTime": 10,
        "channel": 0,
        "type": "noteOff",
        "noteNumber": 62,
        "velocity": 0,
        "byte9": true
      },
      {
        "deltaTime": 5,
        "channel": 0,
        "type": "noteOff",
        "noteNumber": 58,
        "velocity": 0,
        "byte9": true
      },
      {
        "deltaTime": 5,
        "channel": 0,
        "type": "noteOff",
        "noteNumber": 88,
        "velocity": 0,
        "byte9": true
      },
      {
        "deltaTime": 0,
        "running": true,
        "channel": 0,
        "type": "noteOff",
        "noteNumber": 93,
        "velocity": 0,
        "byte9": true
      },
      {
        "deltaTime": 230,
        "channel": 0,
        "type": "noteOn",
        "noteNumber": 93,
        "velocity": 62
      },
      {
        "deltaTime": 5,
        "channel": 0,
        "type": "noteOn",
        "noteNumber": 58,
        "velocity": 53
      },
      {
        "deltaTime": 0,
        "running": true,
        "channel": 0,
        "type": "noteOn",
        "noteNumber": 62,
        "velocity": 64
      },
      {
        "deltaTime": 5,
        "channel": 0,
        "type": "noteOn",
        "noteNumber": 52,
        "velocity": 59
      },
      {
        "deltaTime": 0,
        "running": true,
        "channel": 0,
        "type": "noteOn",
        "noteNumber": 81,
        "velocity": 46
      },
      {
        "deltaTime": 5,
        "channel": 0,
        "type": "noteOn",
        "noteNumber": 88,
        "velocity": 46
      },
      {
        "deltaTime": 35,
        "channel": 0,
        "type": "noteOff",
        "noteNumber": 52,
        "velocity": 0,
        "byte9": true
      },
      {
        "deltaTime": 5,
        "channel": 0,
        "type": "noteOff",
        "noteNumber": 62,
        "velocity": 0,
        "byte9": true
      },
      {
        "deltaTime": 5,
        "channel": 0,
        "type": "noteOff",
        "noteNumber": 93,
        "velocity": 0,
        "byte9": true
      },
      {
        "deltaTime": 5,
        "channel": 0,
        "type": "noteOff",
        "noteNumber": 58,
        "velocity": 0,
        "byte9": true
      },
      {
        "deltaTime": 10,
        "channel": 0,
        "type": "noteOff",
        "noteNumber": 88,
        "velocity": 0,
        "byte9": true
      },
      {
        "deltaTime": 20,
        "channel": 0,
        "type": "noteOff",
        "noteNumber": 81,
        "velocity": 0,
        "byte9": true
      },
      {
        "deltaTime": 60,
        "channel": 0,
        "type": "controller",
        "controllerType": 64,
        "value": 127
      },
      {
        "deltaTime": 20,
        "channel": 0,
        "type": "noteOn",
        "noteNumber": 58,
        "velocity": 42
      },
      {
        "deltaTime": 0,
        "running": true,
        "channel": 0,
        "type": "noteOn",
        "noteNumber": 62,
        "velocity": 52
      },
      {
        "deltaTime": 5,
        "channel": 0,
        "type": "noteOn",
        "noteNumber": 52,
        "velocity": 44
      },
      {
        "deltaTime": 0,
        "running": true,
        "channel": 0,
        "type": "noteOn",
        "noteNumber": 91,
        "velocity": 35
      },
      {
        "deltaTime": 25,
        "channel": 0,
        "type": "noteOn",
        "noteNumber": 86,
        "velocity": 25
      },
      {
        "deltaTime": 10,
        "channel": 0,
        "type": "noteOn",
        "noteNumber": 79,
        "velocity": 28
      },
      {
        "deltaTime": 110,
        "channel": 0,
        "type": "noteOff",
        "noteNumber": 52,
        "velocity": 0,
        "byte9": true
      },
      {
        "deltaTime": 15,
        "channel": 0,
        "type": "noteOff",
        "noteNumber": 62,
        "velocity": 0,
        "byte9": true
      },
      {
        "deltaTime": 0,
        "running": true,
        "channel": 0,
        "type": "noteOff",
        "noteNumber": 79,
        "velocity": 0,
        "byte9": true
      },
      {
        "deltaTime": 0,
        "running": true,
        "channel": 0,
        "type": "noteOff",
        "noteNumber": 86,
        "velocity": 0,
        "byte9": true
      },
      {
        "deltaTime": 15,
        "channel": 0,
        "type": "noteOff",
        "noteNumber": 58,
        "velocity": 0,
        "byte9": true
      },
      {
        "deltaTime": 10,
        "channel": 0,
        "type": "noteOff",
        "noteNumber": 91,
        "velocity": 0,
        "byte9": true
      },
      {
        "deltaTime": 120,
        "channel": 0,
        "type": "noteOn",
        "noteNumber": 88,
        "velocity": 77
      },
      {
        "deltaTime": 5,
        "channel": 0,
        "type": "noteOn",
        "noteNumber": 58,
        "velocity": 70
      },
      {
        "deltaTime": 0,
        "running": true,
        "channel": 0,
        "type": "noteOn",
        "noteNumber": 81,
        "velocity": 73
      },
      {
        "deltaTime": 0,
        "running": true,
        "channel": 0,
        "type": "noteOn",
        "noteNumber": 93,
        "velocity": 79
      },
      {
        "deltaTime": 5,
        "channel": 0,
        "type": "noteOn",
        "noteNumber": 52,
        "velocity": 79
      },
      {
        "deltaTime": 0,
        "running": true,
        "channel": 0,
        "type": "noteOn",
        "noteNumber": 62,
        "velocity": 75
      },
      {
        "deltaTime": 255,
        "channel": 0,
        "type": "noteOff",
        "noteNumber": 93,
        "velocity": 0,
        "byte9": true
      },
      {
        "deltaTime": 30,
        "channel": 0,
        "type": "noteOff",
        "noteNumber": 88,
        "velocity": 0,
        "byte9": true
      },
      {
        "deltaTime": 20,
        "channel": 0,
        "type": "noteOff",
        "noteNumber": 81,
        "velocity": 0,
        "byte9": true
      },
      {
        "deltaTime": 10,
        "channel": 0,
        "type": "noteOff",
        "noteNumber": 52,
        "velocity": 0,
        "byte9": true
      },
      {
        "deltaTime": 50,
        "channel": 0,
        "type": "noteOff",
        "noteNumber": 58,
        "velocity": 0,
        "byte9": true
      },
      {
        "deltaTime": 30,
        "channel": 0,
        "type": "noteOff",
        "noteNumber": 62,
        "velocity": 0,
        "byte9": true
      },
      {
        "deltaTime": 225,
        "channel": 0,
        "type": "controller",
        "controllerType": 64,
        "value": 0
      },
      {
        "deltaTime": 25,
        "channel": 0,
        "type": "noteOn",
        "noteNumber": 58,
        "velocity": 59
      },
      {
        "deltaTime": 0,
        "running": true,
        "channel": 0,
        "type": "noteOn",
        "noteNumber": 62,
        "velocity": 77
      },
      {
        "deltaTime": 0,
        "running": true,
        "channel": 0,
        "type": "noteOn",
        "noteNumber": 86,
        "velocity": 76
      },
      {
        "deltaTime": 5,
        "channel": 0,
        "type": "noteOn",
        "noteNumber": 57,
        "velocity": 58
      },
      {
        "deltaTime": 0,
        "running": true,
        "channel": 0,
        "type": "noteOn",
        "noteNumber": 74,
        "velocity": 77
      },
      {
        "deltaTime": 5,
        "channel": 0,
        "type": "noteOn",
        "noteNumber": 81,
        "velocity": 70
      },
      {
        "deltaTime": 5,
        "channel": 0,
        "type": "noteOn",
        "noteNumber": 53,
        "velocity": 51
      },
      {
        "deltaTime": 20,
        "channel": 0,
        "type": "noteOff",
        "noteNumber": 57,
        "velocity": 0,
        "byte9": true
      },
      {
        "deltaTime": 5,
        "channel": 0,
        "type": "noteOff",
        "noteNumber": 53,
        "velocity": 0,
        "byte9": true
      },
      {
        "deltaTime": 0,
        "running": true,
        "channel": 0,
        "type": "noteOff",
        "noteNumber": 81,
        "velocity": 0,
        "byte9": true
      },
      {
        "deltaTime": 10,
        "channel": 0,
        "type": "noteOff",
        "noteNumber": 62,
        "velocity": 0,
        "byte9": true
      },
      {
        "deltaTime": 0,
        "running": true,
        "channel": 0,
        "type": "noteOff",
        "noteNumber": 74,
        "velocity": 0,
        "byte9": true
      },
      {
        "deltaTime": 10,
        "channel": 0,
        "type": "noteOff",
        "noteNumber": 58,
        "velocity": 0,
        "byte9": true
      },
      {
        "deltaTime": 0,
        "running": true,
        "channel": 0,
        "type": "noteOff",
        "noteNumber": 86,
        "velocity": 0,
        "byte9": true
      },
      {
        "deltaTime": 50,
        "channel": 0,
        "type": "noteOn",
        "noteNumber": 62,
        "velocity": 51
      },
      {
        "deltaTime": 5,
        "channel": 0,
        "type": "noteOn",
        "noteNumber": 58,
        "velocity": 49
      },
      {
        "deltaTime": 5,
        "channel": 0,
        "type": "noteOn",
        "noteNumber": 86,
        "velocity": 48
      },
      {
        "deltaTime": 5,
        "channel": 0,
        "type": "noteOn",
        "noteNumber": 53,
        "velocity": 31
      },
      {
        "deltaTime": 0,
        "running": true,
        "channel": 0,
        "type": "noteOn",
        "noteNumber": 81,
        "velocity": 64
      },
      {
        "deltaTime": 5,
        "channel": 0,
        "type": "noteOn",
        "noteNumber": 57,
        "velocity": 37
      },
      {
        "deltaTime": 0,
        "running": true,
        "channel": 0,
        "type": "noteOn",
        "noteNumber": 74,
        "velocity": 45
      },
      {
        "deltaTime": 25,
        "channel": 0,
        "type": "noteOff",
        "noteNumber": 57,
        "velocity": 0,
        "byte9": true
      },
      {
        "deltaTime": 5,
        "channel": 0,
        "type": "noteOff",
        "noteNumber": 74,
        "velocity": 0,
        "byte9": true
      },
      {
        "deltaTime": 5,
        "channel": 0,
        "type": "noteOff",
        "noteNumber": 53,
        "velocity": 0,
        "byte9": true
      },
      {
        "deltaTime": 0,
        "running": true,
        "channel": 0,
        "type": "noteOff",
        "noteNumber": 81,
        "velocity": 0,
        "byte9": true
      },
      {
        "deltaTime": 5,
        "channel": 0,
        "type": "noteOff",
        "noteNumber": 62,
        "velocity": 0,
        "byte9": true
      },
      {
        "deltaTime": 10,
        "channel": 0,
        "type": "noteOff",
        "noteNumber": 58,
        "velocity": 0,
        "byte9": true
      },
      {
        "deltaTime": 5,
        "channel": 0,
        "type": "noteOff",
        "noteNumber": 86,
        "velocity": 0,
        "byte9": true
      },
      {
        "deltaTime": 230,
        "channel": 0,
        "type": "controller",
        "controllerType": 64,
        "value": 127
      },
      {
        "deltaTime": 20,
        "channel": 0,
        "type": "noteOn",
        "noteNumber": 62,
        "velocity": 71
      },
      {
        "deltaTime": 5,
        "channel": 0,
        "type": "noteOn",
        "noteNumber": 53,
        "velocity": 66
      },
      {
        "deltaTime": 0,
        "running": true,
        "channel": 0,
        "type": "noteOn",
        "noteNumber": 91,
        "velocity": 79
      },
      {
        "deltaTime": 5,
        "channel": 0,
        "type": "noteOn",
        "noteNumber": 57,
        "velocity": 62
      },
      {
        "deltaTime": 0,
        "running": true,
        "channel": 0,
        "type": "noteOn",
        "noteNumber": 58,
        "velocity": 58
      },
      {
        "deltaTime": 0,
        "running": true,
        "channel": 0,
        "type": "noteOn",
        "noteNumber": 86,
        "velocity": 78
      },
      {
        "deltaTime": 5,
        "channel": 0,
        "type": "noteOn",
        "noteNumber": 79,
        "velocity": 71
      },
      {
        "deltaTime": 170,
        "channel": 0,
        "type": "noteOff",
        "noteNumber": 79,
        "velocity": 0,
        "byte9": true
      },
      {
        "deltaTime": 5,
        "channel": 0,
        "type": "noteOff",
        "noteNumber": 53,
        "velocity": 0,
        "byte9": true
      },
      {
        "deltaTime": 0,
        "running": true,
        "channel": 0,
        "type": "noteOff",
        "noteNumber": 86,
        "velocity": 0,
        "byte9": true
      },
      {
        "deltaTime": 10,
        "channel": 0,
        "type": "noteOff",
        "noteNumber": 62,
        "velocity": 0,
        "byte9": true
      },
      {
        "deltaTime": 5,
        "channel": 0,
        "type": "noteOff",
        "noteNumber": 58,
        "velocity": 0,
        "byte9": true
      },
      {
        "deltaTime": 5,
        "channel": 0,
        "type": "noteOff",
        "noteNumber": 57,
        "velocity": 0,
        "byte9": true
      },
      {
        "deltaTime": 0,
        "running": true,
        "channel": 0,
        "type": "noteOff",
        "noteNumber": 91,
        "velocity": 0,
        "byte9": true
      },
      {
        "deltaTime": 115,
        "channel": 0,
        "type": "noteOn",
        "noteNumber": 53,
        "velocity": 81
      },
      {
        "deltaTime": 0,
        "running": true,
        "channel": 0,
        "type": "noteOn",
        "noteNumber": 58,
        "velocity": 74
      },
      {
        "deltaTime": 0,
        "running": true,
        "channel": 0,
        "type": "noteOn",
        "noteNumber": 62,
        "velocity": 89
      },
      {
        "deltaTime": 5,
        "channel": 0,
        "type": "noteOn",
        "noteNumber": 93,
        "velocity": 94
      },
      {
        "deltaTime": 5,
        "channel": 0,
        "type": "noteOn",
        "noteNumber": 57,
        "velocity": 70
      },
      {
        "deltaTime": 0,
        "running": true,
        "channel": 0,
        "type": "noteOn",
        "noteNumber": 81,
        "velocity": 84
      },
      {
        "deltaTime": 0,
        "running": true,
        "channel": 0,
        "type": "noteOn",
        "noteNumber": 88,
        "velocity": 88
      },
      {
        "deltaTime": 495,
        "channel": 0,
        "type": "noteOff",
        "noteNumber": 53,
        "velocity": 0,
        "byte9": true
      },
      {
        "deltaTime": 5,
        "channel": 0,
        "type": "noteOff",
        "noteNumber": 93,
        "velocity": 0,
        "byte9": true
      },
      {
        "deltaTime": 30,
        "channel": 0,
        "type": "noteOff",
        "noteNumber": 88,
        "velocity": 0,
        "byte9": true
      },
      {
        "deltaTime": 10,
        "channel": 0,
        "type": "noteOff",
        "noteNumber": 81,
        "velocity": 0,
        "byte9": true
      },
      {
        "deltaTime": 5,
        "channel": 0,
        "type": "noteOff",
        "noteNumber": 57,
        "velocity": 0,
        "byte9": true
      },
      {
        "deltaTime": 0,
        "running": true,
        "channel": 0,
        "type": "noteOff",
        "noteNumber": 62,
        "velocity": 0,
        "byte9": true
      },
      {
        "deltaTime": 20,
        "channel": 0,
        "type": "noteOff",
        "noteNumber": 58,
        "velocity": 0,
        "byte9": true
      },
      {
        "deltaTime": 75,
        "channel": 0,
        "type": "noteOn",
        "noteNumber": 91,
        "velocity": 49
      },
      {
        "deltaTime": 10,
        "channel": 0,
        "type": "noteOn",
        "noteNumber": 62,
        "velocity": 45
      },
      {
        "deltaTime": 10,
        "channel": 0,
        "type": "noteOn",
        "noteNumber": 79,
        "velocity": 31
      },
      {
        "deltaTime": 0,
        "running": true,
        "channel": 0,
        "type": "noteOn",
        "noteNumber": 86,
        "velocity": 39
      },
      {
        "deltaTime": 10,
        "channel": 0,
        "type": "controller",
        "controllerType": 64,
        "value": 0
      },
      {
        "deltaTime": 0,
        "channel": 0,
        "type": "noteOn",
        "noteNumber": 53,
        "velocity": 40
      },
      {
        "deltaTime": 0,
        "running": true,
        "channel": 0,
        "type": "noteOn",
        "noteNumber": 58,
        "velocity": 35
      },
      {
        "deltaTime": 5,
        "channel": 0,
        "type": "noteOn",
        "noteNumber": 57,
        "velocity": 35
      },
      {
        "deltaTime": 5,
        "channel": 0,
        "type": "controller",
        "controllerType": 64,
        "value": 127
      },
      {
        "deltaTime": 150,
        "channel": 0,
        "type": "noteOff",
        "noteNumber": 79,
        "velocity": 0,
        "byte9": true
      },
      {
        "deltaTime": 5,
        "channel": 0,
        "type": "noteOff",
        "noteNumber": 86,
        "velocity": 0,
        "byte9": true
      },
      {
        "deltaTime": 15,
        "channel": 0,
        "type": "noteOff",
        "noteNumber": 91,
        "velocity": 0,
        "byte9": true
      },
      {
        "deltaTime": 15,
        "channel": 0,
        "type": "noteOff",
        "noteNumber": 57,
        "velocity": 0,
        "byte9": true
      },
      {
        "deltaTime": 15,
        "channel": 0,
        "type": "noteOff",
        "noteNumber": 53,
        "velocity": 0,
        "byte9": true
      },
      {
        "deltaTime": 10,
        "channel": 0,
        "type": "noteOff",
        "noteNumber": 62,
        "velocity": 0,
        "byte9": true
      },
      {
        "deltaTime": 35,
        "channel": 0,
        "type": "noteOff",
        "noteNumber": 58,
        "velocity": 0,
        "byte9": true
      },
      {
        "deltaTime": 55,
        "channel": 0,
        "type": "noteOn",
        "noteNumber": 86,
        "velocity": 83
      },
      {
        "deltaTime": 0,
        "running": true,
        "channel": 0,
        "type": "noteOn",
        "noteNumber": 93,
        "velocity": 89
      },
      {
        "deltaTime": 5,
        "channel": 0,
        "type": "noteOn",
        "noteNumber": 58,
        "velocity": 69
      },
      {
        "deltaTime": 0,
        "running": true,
        "channel": 0,
        "type": "noteOn",
        "noteNumber": 81,
        "velocity": 80
      },
      {
        "deltaTime": 0,
        "running": true,
        "channel": 0,
        "type": "noteOn",
        "noteNumber": 90,
        "velocity": 74
      },
      {
        "deltaTime": 5,
        "channel": 0,
        "type": "noteOn",
        "noteNumber": 52,
        "velocity": 84
      },
      {
        "deltaTime": 0,
        "running": true,
        "channel": 0,
        "type": "noteOn",
        "noteNumber": 62,
        "velocity": 81
      },
      {
        "deltaTime": 5,
        "channel": 0,
        "type": "controller",
        "controllerType": 64,
        "value": 0
      },
      {
        "deltaTime": 270,
        "channel": 0,
        "type": "controller",
        "controllerType": 64,
        "value": 127
      },
      {
        "deltaTime": 470,
        "channel": 0,
        "type": "noteOff",
        "noteNumber": 93,
        "velocity": 0,
        "byte9": true
      },
      {
        "deltaTime": 50,
        "channel": 0,
        "type": "noteOff",
        "noteNumber": 90,
        "velocity": 0,
        "byte9": true
      },
      {
        "deltaTime": 15,
        "channel": 0,
        "type": "noteOff",
        "noteNumber": 86,
        "velocity": 0,
        "byte9": true
      },
      {
        "deltaTime": 95,
        "channel": 0,
        "type": "noteOff",
        "noteNumber": 81,
        "velocity": 0,
        "byte9": true
      },
      {
        "deltaTime": 105,
        "channel": 0,
        "type": "noteOff",
        "noteNumber": 52,
        "velocity": 0,
        "byte9": true
      },
      {
        "deltaTime": 5,
        "channel": 0,
        "type": "noteOff",
        "noteNumber": 62,
        "velocity": 0,
        "byte9": true
      },
      {
        "deltaTime": 35,
        "channel": 0,
        "type": "noteOff",
        "noteNumber": 58,
        "velocity": 0,
        "byte9": true
      },
      {
        "deltaTime": 420,
        "channel": 0,
        "type": "noteOn",
        "noteNumber": 58,
        "velocity": 25
      },
      {
        "deltaTime": 85,
        "channel": 0,
        "type": "controller",
        "controllerType": 64,
        "value": 0
      },
      {
        "deltaTime": 40,
        "channel": 0,
        "type": "noteOn",
        "noteNumber": 62,
        "velocity": 60
      },
      {
        "deltaTime": 0,
        "running": true,
        "channel": 0,
        "type": "noteOn",
        "noteNumber": 66,
        "velocity": 67
      },
      {
        "deltaTime": 5,
        "channel": 0,
        "type": "noteOn",
        "noteNumber": 78,
        "velocity": 69
      },
      {
        "deltaTime": 5,
        "channel": 0,
        "type": "noteOff",
        "noteNumber": 58,
        "velocity": 0,
        "byte9": true
      },
      {
        "deltaTime": 0,
        "running": true,
        "channel": 0,
        "type": "noteOn",
        "noteNumber": 73,
        "velocity": 60
      },
      {
        "deltaTime": 10,
        "channel": 0,
        "type": "controller",
        "controllerType": 64,
        "value": 127
      },
      {
        "deltaTime": 90,
        "channel": 0,
        "type": "noteOff",
        "noteNumber": 66,
        "velocity": 0,
        "byte9": true
      },
      {
        "deltaTime": 40,
        "channel": 0,
        "type": "noteOff",
        "noteNumber": 62,
        "velocity": 0,
        "byte9": true
      },
      {
        "deltaTime": 35,
        "channel": 0,
        "type": "noteOff",
        "noteNumber": 73,
        "velocity": 0,
        "byte9": true
      },
      {
        "deltaTime": 15,
        "channel": 0,
        "type": "noteOff",
        "noteNumber": 78,
        "velocity": 0,
        "byte9": true
      },
      {
        "deltaTime": 130,
        "channel": 0,
        "type": "controller",
        "controllerType": 64,
        "value": 0
      },
      {
        "deltaTime": 0,
        "channel": 0,
        "type": "noteOn",
        "noteNumber": 57,
        "velocity": 53
      },
      {
        "deltaTime": 0,
        "running": true,
        "channel": 0,
        "type": "noteOn",
        "noteNumber": 79,
        "velocity": 75
      },
      {
        "deltaTime": 5,
        "channel": 0,
        "type": "noteOn",
        "noteNumber": 67,
        "velocity": 63
      },
      {
        "deltaTime": 0,
        "running": true,
        "channel": 0,
        "type": "noteOn",
        "noteNumber": 69,
        "velocity": 70
      },
      {
        "deltaTime": 5,
        "channel": 0,
        "type": "noteOn",
        "noteNumber": 62,
        "velocity": 61
      },
      {
        "deltaTime": 0,
        "running": true,
        "channel": 0,
        "type": "noteOn",
        "noteNumber": 74,
        "velocity": 80
      },
      {
        "deltaTime": 335,
        "channel": 0,
        "type": "controller",
        "controllerType": 64,
        "value": 127
      },
      {
        "deltaTime": 330,
        "channel": 0,
        "type": "noteOff",
        "noteNumber": 67,
        "velocity": 0,
        "byte9": true
      },
      {
        "deltaTime": 10,
        "channel": 0,
        "type": "noteOff",
        "noteNumber": 69,
        "velocity": 0,
        "byte9": true
      },
      {
        "deltaTime": 20,
        "channel": 0,
        "type": "noteOff",
        "noteNumber": 62,
        "velocity": 0,
        "byte9": true
      },
      {
        "deltaTime": 15,
        "channel": 0,
        "type": "noteOff",
        "noteNumber": 57,
        "velocity": 0,
        "byte9": true
      },
      {
        "deltaTime": 145,
        "channel": 0,
        "type": "noteOff",
        "noteNumber": 79,
        "velocity": 0,
        "byte9": true
      },
      {
        "deltaTime": 5,
        "channel": 0,
        "type": "noteOff",
        "noteNumber": 74,
        "velocity": 0,
        "byte9": true
      },
      {
        "deltaTime": 560,
        "channel": 0,
        "type": "noteOn",
        "noteNumber": 77,
        "velocity": 105
      },
      {
        "deltaTime": 10,
        "channel": 0,
        "type": "noteOn",
        "noteNumber": 57,
        "velocity": 81
      },
      {
        "deltaTime": 0,
        "running": true,
        "channel": 0,
        "type": "noteOn",
        "noteNumber": 62,
        "velocity": 78
      },
      {
        "deltaTime": 0,
        "running": true,
        "channel": 0,
        "type": "noteOn",
        "noteNumber": 67,
        "velocity": 83
      },
      {
        "deltaTime": 85,
        "channel": 0,
        "type": "noteOff",
        "noteNumber": 67,
        "velocity": 0,
        "byte9": true
      },
      {
        "deltaTime": 10,
        "channel": 0,
        "type": "noteOff",
        "noteNumber": 57,
        "velocity": 0,
        "byte9": true
      },
      {
        "deltaTime": 10,
        "channel": 0,
        "type": "noteOff",
        "noteNumber": 62,
        "velocity": 0,
        "byte9": true
      },
      {
        "deltaTime": 25,
        "channel": 0,
        "type": "noteOff",
        "noteNumber": 77,
        "velocity": 0,
        "byte9": true
      },
      {
        "deltaTime": 40,
        "channel": 0,
        "type": "noteOn",
        "noteNumber": 57,
        "velocity": 54
      },
      {
        "deltaTime": 5,
        "channel": 0,
        "type": "noteOn",
        "noteNumber": 67,
        "velocity": 53
      },
      {
        "deltaTime": 15,
        "channel": 0,
        "type": "noteOn",
        "noteNumber": 62,
        "velocity": 42
      },
      {
        "deltaTime": 5,
        "channel": 0,
        "type": "controller",
        "controllerType": 64,
        "value": 0
      },
      {
        "deltaTime": 10,
        "channel": 0,
        "type": "noteOn",
        "noteNumber": 79,
        "velocity": 33
      },
      {
        "deltaTime": 30,
        "channel": 0,
        "type": "noteOff",
        "noteNumber": 79,
        "velocity": 0,
        "byte9": true
      },
      {
        "deltaTime": 10,
        "channel": 0,
        "type": "controller",
        "controllerType": 64,
        "value": 127
      },
      {
        "deltaTime": 0,
        "channel": 0,
        "type": "noteOff",
        "noteNumber": 57,
        "velocity": 0,
        "byte9": true
      },
      {
        "deltaTime": 5,
        "channel": 0,
        "type": "noteOff",
        "noteNumber": 67,
        "velocity": 0,
        "byte9": true
      },
      {
        "deltaTime": 25,
        "channel": 0,
        "type": "noteOff",
        "noteNumber": 62,
        "velocity": 0,
        "byte9": true
      },
      {
        "deltaTime": 165,
        "channel": 0,
        "type": "controller",
        "controllerType": 64,
        "value": 0
      },
      {
        "deltaTime": 20,
        "channel": 0,
        "type": "noteOn",
        "noteNumber": 76,
        "velocity": 85
      },
      {
        "deltaTime": 5,
        "channel": 0,
        "type": "noteOn",
        "noteNumber": 72,
        "velocity": 83
      },
      {
        "deltaTime": 0,
        "running": true,
        "channel": 0,
        "type": "noteOn",
        "noteNumber": 84,
        "velocity": 89
      },
      {
        "deltaTime": 10,
        "channel": 0,
        "type": "noteOn",
        "noteNumber": 56,
        "velocity": 75
      },
      {
        "deltaTime": 0,
        "running": true,
        "channel": 0,
        "type": "noteOn",
        "noteNumber": 62,
        "velocity": 80
      },
      {
        "deltaTime": 0,
        "running": true,
        "channel": 0,
        "type": "noteOn",
        "noteNumber": 79,
        "velocity": 75
      },
      {
        "deltaTime": 15,
        "channel": 0,
        "type": "noteOn",
        "noteNumber": 65,
        "velocity": 76
      },
      {
        "deltaTime": 25,
        "channel": 0,
        "type": "noteOff",
        "noteNumber": 65,
        "velocity": 0,
        "byte9": true
      },
      {
        "deltaTime": 55,
        "channel": 0,
        "type": "noteOff",
        "noteNumber": 72,
        "velocity": 0,
        "byte9": true
      },
      {
        "deltaTime": 0,
        "running": true,
        "channel": 0,
        "type": "noteOff",
        "noteNumber": 76,
        "velocity": 0,
        "byte9": true
      },
      {
        "deltaTime": 5,
        "channel": 0,
        "type": "noteOff",
        "noteNumber": 79,
        "velocity": 0,
        "byte9": true
      },
      {
        "deltaTime": 10,
        "channel": 0,
        "type": "noteOff",
        "noteNumber": 84,
        "velocity": 0,
        "byte9": true
      },
      {
        "deltaTime": 5,
        "channel": 0,
        "type": "noteOff",
        "noteNumber": 62,
        "velocity": 0,
        "byte9": true
      },
      {
        "deltaTime": 5,
        "channel": 0,
        "type": "noteOff",
        "noteNumber": 56,
        "velocity": 0,
        "byte9": true
      },
      {
        "deltaTime": 335,
        "channel": 0,
        "type": "noteOn",
        "noteNumber": 79,
        "velocity": 84
      },
      {
        "deltaTime": 5,
        "channel": 0,
        "type": "noteOn",
        "noteNumber": 76,
        "velocity": 80
      },
      {
        "deltaTime": 5,
        "channel": 0,
        "type": "noteOn",
        "noteNumber": 67,
        "velocity": 80
      },
      {
        "deltaTime": 0,
        "running": true,
        "channel": 0,
        "type": "noteOn",
        "noteNumber": 72,
        "velocity": 82
      },
      {
        "deltaTime": 5,
        "channel": 0,
        "type": "noteOn",
        "noteNumber": 56,
        "velocity": 80
      },
      {
        "deltaTime": 0,
        "running": true,
        "channel": 0,
        "type": "noteOn",
        "noteNumber": 62,
        "velocity": 80
      },
      {
        "deltaTime": 10,
        "channel": 0,
        "type": "noteOn",
        "noteNumber": 69,
        "velocity": 59
      },
      {
        "deltaTime": 20,
        "channel": 0,
        "type": "noteOff",
        "noteNumber": 69,
        "velocity": 0,
        "byte9": true
      },
      {
        "deltaTime": 125,
        "channel": 0,
        "type": "controller",
        "controllerType": 64,
        "value": 127
      },
      {
        "deltaTime": 275,
        "channel": 0,
        "type": "noteOff",
        "noteNumber": 62,
        "velocity": 0,
        "byte9": true
      },
      {
        "deltaTime": 20,
        "channel": 0,
        "type": "noteOff",
        "noteNumber": 79,
        "velocity": 0,
        "byte9": true
      },
      {
        "deltaTime": 5,
        "channel": 0,
        "type": "noteOff",
        "noteNumber": 72,
        "velocity": 0,
        "byte9": true
      },
      {
        "deltaTime": 5,
        "channel": 0,
        "type": "noteOff",
        "noteNumber": 67,
        "velocity": 0,
        "byte9": true
      },
      {
        "deltaTime": 5,
        "channel": 0,
        "type": "noteOff",
        "noteNumber": 56,
        "velocity": 0,
        "byte9": true
      },
      {
        "deltaTime": 85,
        "channel": 0,
        "type": "controller",
        "controllerType": 64,
        "value": 0
      },
      {
        "deltaTime": 10,
        "channel": 0,
        "type": "noteOff",
        "noteNumber": 76,
        "velocity": 0,
        "byte9": true
      },
      {
        "deltaTime": 55,
        "channel": 0,
        "type": "noteOn",
        "noteNumber": 56,
        "velocity": 50
      },
      {
        "deltaTime": 0,
        "running": true,
        "channel": 0,
        "type": "noteOn",
        "noteNumber": 67,
        "velocity": 48
      },
      {
        "deltaTime": 0,
        "running": true,
        "channel": 0,
        "type": "noteOn",
        "noteNumber": 77,
        "velocity": 57
      },
      {
        "deltaTime": 5,
        "channel": 0,
        "type": "noteOn",
        "noteNumber": 62,
        "velocity": 58
      },
      {
        "deltaTime": 25,
        "channel": 0,
        "type": "noteOn",
        "noteNumber": 72,
        "velocity": 26
      },
      {
        "deltaTime": 20,
        "channel": 0,
        "type": "noteOff",
        "noteNumber": 72,
        "velocity": 0,
        "byte9": true
      },
      {
        "deltaTime": 15,
        "channel": 0,
        "type": "noteOff",
        "noteNumber": 62,
        "velocity": 0,
        "byte9": true
      },
      {
        "deltaTime": 0,
        "running": true,
        "channel": 0,
        "type": "noteOff",
        "noteNumber": 67,
        "velocity": 0,
        "byte9": true
      },
      {
        "deltaTime": 15,
        "channel": 0,
        "type": "noteOff",
        "noteNumber": 56,
        "velocity": 0,
        "byte9": true
      },
      {
        "deltaTime": 20,
        "channel": 0,
        "type": "noteOff",
        "noteNumber": 77,
        "velocity": 0,
        "byte9": true
      },
      {
        "deltaTime": 330,
        "channel": 0,
        "type": "noteOn",
        "noteNumber": 72,
        "velocity": 78
      },
      {
        "deltaTime": 5,
        "channel": 0,
        "type": "noteOn",
        "noteNumber": 62,
        "velocity": 66
      },
      {
        "deltaTime": 0,
        "running": true,
        "channel": 0,
        "type": "noteOn",
        "noteNumber": 79,
        "velocity": 74
      },
      {
        "deltaTime": 5,
        "channel": 0,
        "type": "noteOn",
        "noteNumber": 67,
        "velocity": 72
      },
      {
        "deltaTime": 5,
        "channel": 0,
        "type": "noteOn",
        "noteNumber": 56,
        "velocity": 57
      },
      {
        "deltaTime": 25,
        "channel": 0,
        "type": "controller",
        "controllerType": 64,
        "value": 127
      },
      {
        "deltaTime": 20,
        "channel": 0,
        "type": "controller",
        "controllerType": 64,
        "value": 0
      },
      {
        "deltaTime": 20,
        "channel": 0,
        "type": "noteOff",
        "noteNumber": 62,
        "velocity": 0,
        "byte9": true
      },
      {
        "deltaTime": 15,
        "channel": 0,
        "type": "noteOff",
        "noteNumber": 79,
        "velocity": 0,
        "byte9": true
      },
      {
        "deltaTime": 25,
        "channel": 0,
        "type": "noteOff",
        "noteNumber": 72,
        "velocity": 0,
        "byte9": true
      },
      {
        "deltaTime": 15,
        "channel": 0,
        "type": "noteOff",
        "noteNumber": 56,
        "velocity": 0,
        "byte9": true
      },
      {
        "deltaTime": 0,
        "running": true,
        "channel": 0,
        "type": "noteOff",
        "noteNumber": 67,
        "velocity": 0,
        "byte9": true
      },
      {
        "deltaTime": 15,
        "channel": 0,
        "type": "controller",
        "controllerType": 64,
        "value": 127
      },
      {
        "deltaTime": 210,
        "channel": 0,
        "type": "noteOn",
        "noteNumber": 54,
        "velocity": 32
      },
      {
        "deltaTime": 40,
        "channel": 0,
        "type": "noteOn",
        "noteNumber": 56,
        "velocity": 58
      },
      {
        "deltaTime": 15,
        "channel": 0,
        "type": "controller",
        "controllerType": 64,
        "value": 0
      },
      {
        "deltaTime": 5,
        "channel": 0,
        "type": "noteOff",
        "noteNumber": 54,
        "velocity": 0,
        "byte9": true
      },
      {
        "deltaTime": 30,
        "channel": 0,
        "type": "noteOn",
        "noteNumber": 62,
        "velocity": 69
      },
      {
        "deltaTime": 0,
        "running": true,
        "channel": 0,
        "type": "noteOn",
        "noteNumber": 72,
        "velocity": 70
      },
      {
        "deltaTime": 5,
        "channel": 0,
        "type": "noteOn",
        "noteNumber": 67,
        "velocity": 64
      },
      {
        "deltaTime": 20,
        "channel": 0,
        "type": "noteOn",
        "noteNumber": 57,
        "velocity": 64
      },
      {
        "deltaTime": 20,
        "channel": 0,
        "type": "noteOff",
        "noteNumber": 56,
        "velocity": 0,
        "byte9": true
      },
      {
        "deltaTime": 35,
        "channel": 0,
        "type": "noteOff",
        "noteNumber": 62,
        "velocity": 0,
        "byte9": true
      },
      {
        "deltaTime": 5,
        "channel": 0,
        "type": "noteOff",
        "noteNumber": 67,
        "velocity": 0,
        "byte9": true
      },
      {
        "deltaTime": 25,
        "channel": 0,
        "type": "noteOff",
        "noteNumber": 72,
        "velocity": 0,
        "byte9": true
      },
      {
        "deltaTime": 50,
        "channel": 0,
        "type": "noteOn",
        "noteNumber": 61,
        "velocity": 42
      },
      {
        "deltaTime": 5,
        "channel": 0,
        "type": "noteOff",
        "noteNumber": 57,
        "velocity": 0,
        "byte9": true
      },
      {
        "deltaTime": 5,
        "channel": 0,
        "type": "noteOn",
        "noteNumber": 56,
        "velocity": 33
      },
      {
        "deltaTime": 20,
        "channel": 0,
        "type": "noteOff",
        "noteNumber": 61,
        "velocity": 0,
        "byte9": true
      },
      {
        "deltaTime": 80,
        "channel": 0,
        "type": "noteOff",
        "noteNumber": 56,
        "velocity": 0,
        "byte9": true
      },
      {
        "deltaTime": 20,
        "channel": 0,
        "type": "noteOn",
        "noteNumber": 72,
        "velocity": 66
      },
      {
        "deltaTime": 5,
        "channel": 0,
        "type": "noteOn",
        "noteNumber": 57,
        "velocity": 74
      },
      {
        "deltaTime": 0,
        "running": true,
        "channel": 0,
        "type": "noteOn",
        "noteNumber": 62,
        "velocity": 68
      },
      {
        "deltaTime": 5,
        "channel": 0,
        "type": "noteOn",
        "noteNumber": 67,
        "velocity": 66
      },
      {
        "deltaTime": 175,
        "channel": 0,
        "type": "controller",
        "controllerType": 64,
        "value": 127
      },
      {
        "deltaTime": 100,
        "channel": 0,
        "type": "noteOff",
        "noteNumber": 62,
        "velocity": 0,
        "byte9": true
      },
      {
        "deltaTime": 25,
        "channel": 0,
        "type": "noteOff",
        "noteNumber": 67,
        "velocity": 0,
        "byte9": true
      },
      {
        "deltaTime": 15,
        "channel": 0,
        "type": "noteOff",
        "noteNumber": 72,
        "velocity": 0,
        "byte9": true
      },
      {
        "deltaTime": 5,
        "channel": 0,
        "type": "noteOff",
        "noteNumber": 57,
        "velocity": 0,
        "byte9": true
      },
      {
        "deltaTime": 265,
        "channel": 0,
        "type": "noteOn",
        "noteNumber": 65,
        "velocity": 66
      },
      {
        "deltaTime": 0,
        "running": true,
        "channel": 0,
        "type": "noteOn",
        "noteNumber": 77,
        "velocity": 69
      },
      {
        "deltaTime": 5,
        "channel": 0,
        "type": "noteOn",
        "noteNumber": 72,
        "velocity": 62
      },
      {
        "deltaTime": 5,
        "channel": 0,
        "type": "noteOn",
        "noteNumber": 57,
        "velocity": 50
      },
      {
        "deltaTime": 50,
        "channel": 0,
        "type": "noteOff",
        "noteNumber": 65,
        "velocity": 0,
        "byte9": true
      },
      {
        "deltaTime": 15,
        "channel": 0,
        "type": "controller",
        "controllerType": 64,
        "value": 0
      },
      {
        "deltaTime": 0,
        "channel": 0,
        "type": "noteOff",
        "noteNumber": 57,
        "velocity": 0,
        "byte9": true
      },
      {
        "deltaTime": 10,
        "channel": 0,
        "type": "noteOff",
        "noteNumber": 77,
        "velocity": 0,
        "byte9": true
      },
      {
        "deltaTime": 20,
        "channel": 0,
        "type": "noteOff",
        "noteNumber": 72,
        "velocity": 0,
        "byte9": true
      },
      {
        "deltaTime": 60,
        "channel": 0,
        "type": "noteOn",
        "noteNumber": 72,
        "velocity": 50
      },
      {
        "deltaTime": 5,
        "channel": 0,
        "type": "noteOn",
        "noteNumber": 57,
        "velocity": 55
      },
      {
        "deltaTime": 0,
        "running": true,
        "channel": 0,
        "type": "noteOn",
        "noteNumber": 75,
        "velocity": 37
      },
      {
        "deltaTime": 0,
        "running": true,
        "channel": 0,
        "type": "noteOn",
        "noteNumber": 79,
        "velocity": 72
      },
      {
        "deltaTime": 5,
        "channel": 0,
        "type": "noteOn",
        "noteNumber": 67,
        "velocity": 55
      },
      {
        "deltaTime": 200,
        "channel": 0,
        "type": "noteOff",
        "noteNumber": 79,
        "velocity": 0,
        "byte9": true
      },
      {
        "deltaTime": 30,
        "channel": 0,
        "type": "noteOff",
        "noteNumber": 57,
        "velocity": 0,
        "byte9": true
      },
      {
        "deltaTime": 5,
        "channel": 0,
        "type": "noteOff",
        "noteNumber": 67,
        "velocity": 0,
        "byte9": true
      },
      {
        "deltaTime": 5,
        "channel": 0,
        "type": "noteOff",
        "noteNumber": 75,
        "velocity": 0,
        "byte9": true
      },
      {
        "deltaTime": 15,
        "channel": 0,
        "type": "noteOff",
        "noteNumber": 72,
        "velocity": 0,
        "byte9": true
      },
      {
        "deltaTime": 65,
        "channel": 0,
        "type": "noteOn",
        "noteNumber": 57,
        "velocity": 52
      },
      {
        "deltaTime": 0,
        "running": true,
        "channel": 0,
        "type": "noteOn",
        "noteNumber": 65,
        "velocity": 60
      },
      {
        "deltaTime": 5,
        "channel": 0,
        "type": "noteOn",
        "noteNumber": 72,
        "velocity": 66
      },
      {
        "deltaTime": 0,
        "running": true,
        "channel": 0,
        "type": "noteOn",
        "noteNumber": 77,
        "velocity": 50
      },
      {
        "deltaTime": 35,
        "channel": 0,
        "type": "noteOff",
        "noteNumber": 65,
        "velocity": 0,
        "byte9": true
      },
      {
        "deltaTime": 20,
        "channel": 0,
        "type": "noteOff",
        "noteNumber": 77,
        "velocity": 0,
        "byte9": true
      },
      {
        "deltaTime": 5,
        "channel": 0,
        "type": "noteOff",
        "noteNumber": 57,
        "velocity": 0,
        "byte9": true
      },
      {
        "deltaTime": 0,
        "running": true,
        "channel": 0,
        "type": "noteOff",
        "noteNumber": 72,
        "velocity": 0,
        "byte9": true
      },
      {
        "deltaTime": 415,
        "channel": 0,
        "type": "noteOn",
        "noteNumber": 71,
        "velocity": 87
      },
      {
        "deltaTime": 0,
        "running": true,
        "channel": 0,
        "type": "noteOn",
        "noteNumber": 79,
        "velocity": 85
      },
      {
        "deltaTime": 5,
        "channel": 0,
        "type": "noteOn",
        "noteNumber": 68,
        "velocity": 86
      },
      {
        "deltaTime": 5,
        "channel": 0,
        "type": "noteOn",
        "noteNumber": 74,
        "velocity": 80
      },
      {
        "deltaTime": 5,
        "channel": 0,
        "type": "noteOn",
        "noteNumber": 67,
        "velocity": 92
      },
      {
        "deltaTime": 195,
        "channel": 0,
        "type": "controller",
        "controllerType": 64,
        "value": 127
      },
      {
        "deltaTime": 165,
        "channel": 0,
        "type": "noteOff",
        "noteNumber": 68,
        "velocity": 0,
        "byte9": true
      },
      {
        "deltaTime": 20,
        "channel": 0,
        "type": "noteOff",
        "noteNumber": 79,
        "velocity": 0,
        "byte9": true
      },
      {
        "deltaTime": 20,
        "channel": 0,
        "type": "noteOff",
        "noteNumber": 74,
        "velocity": 0,
        "byte9": true
      },
      {
        "deltaTime": 5,
        "channel": 0,
        "type": "noteOff",
        "noteNumber": 71,
        "velocity": 0,
        "byte9": true
      },
      {
        "deltaTime": 15,
        "channel": 0,
        "type": "noteOff",
        "noteNumber": 67,
        "velocity": 0,
        "byte9": true
      },
      {
        "deltaTime": 50,
        "channel": 0,
        "type": "noteOn",
        "noteNumber": 67,
        "velocity": 67
      },
      {
        "deltaTime": 0,
        "running": true,
        "channel": 0,
        "type": "noteOn",
        "noteNumber": 79,
        "velocity": 74
      },
      {
        "deltaTime": 5,
        "channel": 0,
        "type": "noteOn",
        "noteNumber": 68,
        "velocity": 76
      },
      {
        "deltaTime": 5,
        "channel": 0,
        "type": "noteOn",
        "noteNumber": 71,
        "velocity": 65
      },
      {
        "deltaTime": 10,
        "channel": 0,
        "type": "noteOn",
        "noteNumber": 74,
        "velocity": 55
      },
      {
        "deltaTime": 105,
        "channel": 0,
        "type": "noteOff",
        "noteNumber": 68,
        "velocity": 0,
        "byte9": true
      },
      {
        "deltaTime": 0,
        "running": true,
        "channel": 0,
        "type": "noteOff",
        "noteNumber": 79,
        "velocity": 0,
        "byte9": true
      },
      {
        "deltaTime": 15,
        "channel": 0,
        "type": "noteOff",
        "noteNumber": 74,
        "velocity": 0,
        "byte9": true
      },
      {
        "deltaTime": 25,
        "channel": 0,
        "type": "controller",
        "controllerType": 64,
        "value": 0
      },
      {
        "deltaTime": 0,
        "channel": 0,
        "type": "noteOff",
        "noteNumber": 71,
        "velocity": 0,
        "byte9": true
      },
      {
        "deltaTime": 5,
        "channel": 0,
        "type": "noteOff",
        "noteNumber": 67,
        "velocity": 0,
        "byte9": true
      },
      {
        "deltaTime": 20,
        "channel": 0,
        "type": "noteOn",
        "noteNumber": 68,
        "velocity": 47
      },
      {
        "deltaTime": 5,
        "channel": 0,
        "type": "noteOn",
        "noteNumber": 65,
        "velocity": 55
      },
      {
        "deltaTime": 10,
        "channel": 0,
        "type": "noteOn",
        "noteNumber": 71,
        "velocity": 27
      },
      {
        "deltaTime": 15,
        "channel": 0,
        "type": "noteOn",
        "noteNumber": 77,
        "velocity": 50
      },
      {
        "deltaTime": 135,
        "channel": 0,
        "type": "controller",
        "controllerType": 64,
        "value": 127
      },
      {
        "deltaTime": 100,
        "channel": 0,
        "type": "noteOff",
        "noteNumber": 65,
        "velocity": 0,
        "byte9": true
      },
      {
        "deltaTime": 0,
        "running": true,
        "channel": 0,
        "type": "noteOff",
        "noteNumber": 77,
        "velocity": 0,
        "byte9": true
      },
      {
        "deltaTime": 35,
        "channel": 0,
        "type": "noteOff",
        "noteNumber": 71,
        "velocity": 0,
        "byte9": true
      },
      {
        "deltaTime": 15,
        "channel": 0,
        "type": "noteOff",
        "noteNumber": 68,
        "velocity": 0,
        "byte9": true
      },
      {
        "deltaTime": 65,
        "channel": 0,
        "type": "controller",
        "controllerType": 64,
        "value": 0
      },
      {
        "deltaTime": 60,
        "channel": 0,
        "type": "noteOn",
        "noteNumber": 68,
        "velocity": 39
      },
      {
        "deltaTime": 5,
        "channel": 0,
        "type": "noteOn",
        "noteNumber": 64,
        "velocity": 53
      },
      {
        "deltaTime": 5,
        "channel": 0,
        "type": "noteOn",
        "noteNumber": 76,
        "velocity": 45
      },
      {
        "deltaTime": 25,
        "channel": 0,
        "type": "controller",
        "controllerType": 64,
        "value": 127
      },
      {
        "deltaTime": 0,
        "channel": 0,
        "type": "noteOn",
        "noteNumber": 71,
        "velocity": 36
      },
      {
        "deltaTime": 130,
        "channel": 0,
        "type": "noteOff",
        "noteNumber": 64,
        "velocity": 0,
        "byte9": true
      },
      {
        "deltaTime": 30,
        "channel": 0,
        "type": "noteOff",
        "noteNumber": 68,
        "velocity": 0,
        "byte9": true
      },
      {
        "deltaTime": 5,
        "channel": 0,
        "type": "noteOff",
        "noteNumber": 76,
        "velocity": 0,
        "byte9": true
      },
      {
        "deltaTime": 35,
        "channel": 0,
        "type": "noteOff",
        "noteNumber": 71,
        "velocity": 0,
        "byte9": true
      },
      {
        "deltaTime": 75,
        "channel": 0,
        "type": "noteOn",
        "noteNumber": 65,
        "velocity": 43
      },
      {
        "deltaTime": 0,
        "running": true,
        "channel": 0,
        "type": "noteOn",
        "noteNumber": 68,
        "velocity": 69
      },
      {
        "deltaTime": 10,
        "channel": 0,
        "type": "noteOn",
        "noteNumber": 71,
        "velocity": 59
      },
      {
        "deltaTime": 30,
        "channel": 0,
        "type": "noteOff",
        "noteNumber": 65,
        "velocity": 0,
        "byte9": true
      },
      {
        "deltaTime": 50,
        "channel": 0,
        "type": "noteOff",
        "noteNumber": 71,
        "velocity": 0,
        "byte9": true
      },
      {
        "deltaTime": 15,
        "channel": 0,
        "type": "noteOff",
        "noteNumber": 68,
        "velocity": 0,
        "byte9": true
      },
      {
        "deltaTime": 90,
        "channel": 0,
        "type": "controller",
        "controllerType": 64,
        "value": 0
      },
      {
        "deltaTime": 110,
        "channel": 0,
        "type": "noteOn",
        "noteNumber": 66,
        "velocity": 69
      },
      {
        "deltaTime": 5,
        "channel": 0,
        "type": "noteOn",
        "noteNumber": 71,
        "velocity": 66
      },
      {
        "deltaTime": 0,
        "running": true,
        "channel": 0,
        "type": "noteOn",
        "noteNumber": 78,
        "velocity": 58
      },
      {
        "deltaTime": 5,
        "channel": 0,
        "type": "noteOn",
        "noteNumber": 63,
        "velocity": 52
      },
      {
        "deltaTime": 0,
        "running": true,
        "channel": 0,
        "type": "noteOn",
        "noteNumber": 75,
        "velocity": 53
      },
      {
        "deltaTime": 5,
        "channel": 0,
        "type": "noteOn",
        "noteNumber": 54,
        "velocity": 50
      },
      {
        "deltaTime": 0,
        "running": true,
        "channel": 0,
        "type": "noteOn",
        "noteNumber": 58,
        "velocity": 35
      },
      {
        "deltaTime": 5,
        "channel": 0,
        "type": "noteOn",
        "noteNumber": 59,
        "velocity": 51
      },
      {
        "deltaTime": 30,
        "channel": 0,
        "type": "controller",
        "controllerType": 64,
        "value": 127
      },
      {
        "deltaTime": 65,
        "channel": 0,
        "type": "noteOff",
        "noteNumber": 59,
        "velocity": 0,
        "byte9": true
      },
      {
        "deltaTime": 30,
        "channel": 0,
        "type": "noteOff",
        "noteNumber": 71,
        "velocity": 0,
        "byte9": true
      },
      {
        "deltaTime": 50,
        "channel": 0,
        "type": "noteOff",
        "noteNumber": 66,
        "velocity": 0,
        "byte9": true
      },
      {
        "deltaTime": 10,
        "channel": 0,
        "type": "noteOff",
        "noteNumber": 63,
        "velocity": 0,
        "byte9": true
      },
      {
        "deltaTime": 5,
        "channel": 0,
        "type": "noteOff",
        "noteNumber": 58,
        "velocity": 0,
        "byte9": true
      },
      {
        "deltaTime": 0,
        "running": true,
        "channel": 0,
        "type": "noteOff",
        "noteNumber": 78,
        "velocity": 0,
        "byte9": true
      },
      {
        "deltaTime": 10,
        "channel": 0,
        "type": "noteOff",
        "noteNumber": 75,
        "velocity": 0,
        "byte9": true
      },
      {
        "deltaTime": 5,
        "channel": 0,
        "type": "noteOff",
        "noteNumber": 54,
        "velocity": 0,
        "byte9": true
      },
      {
        "deltaTime": 90,
        "channel": 0,
        "type": "controller",
        "controllerType": 64,
        "value": 0
      },
      {
        "deltaTime": 20,
        "channel": 0,
        "type": "noteOn",
        "noteNumber": 58,
        "velocity": 35
      },
      {
        "deltaTime": 0,
        "running": true,
        "channel": 0,
        "type": "noteOn",
        "noteNumber": 65,
        "velocity": 48
      },
      {
        "deltaTime": 0,
        "running": true,
        "channel": 0,
        "type": "noteOn",
        "noteNumber": 70,
        "velocity": 40
      },
      {
        "deltaTime": 0,
        "running": true,
        "channel": 0,
        "type": "noteOn",
        "noteNumber": 77,
        "velocity": 54
      },
      {
        "deltaTime": 5,
        "channel": 0,
        "type": "noteOn",
        "noteNumber": 62,
        "velocity": 50
      },
      {
        "deltaTime": 5,
        "channel": 0,
        "type": "noteOn",
        "noteNumber": 74,
        "velocity": 57
      },
      {
        "deltaTime": 5,
        "channel": 0,
        "type": "noteOn",
        "noteNumber": 53,
        "velocity": 46
      },
      {
        "deltaTime": 0,
        "running": true,
        "channel": 0,
        "type": "noteOn",
        "noteNumber": 57,
        "velocity": 53
      },
      {
        "deltaTime": 225,
        "channel": 0,
        "type": "controller",
        "controllerType": 64,
        "value": 127
      },
      {
        "deltaTime": 135,
        "channel": 0,
        "type": "noteOff",
        "noteNumber": 65,
        "velocity": 0,
        "byte9": true
      },
      {
        "deltaTime": 35,
        "channel": 0,
        "type": "noteOff",
        "noteNumber": 62,
        "velocity": 0,
        "byte9": true
      },
      {
        "deltaTime": 15,
        "channel": 0,
        "type": "noteOff",
        "noteNumber": 74,
        "velocity": 0,
        "byte9": true
      },
      {
        "deltaTime": 5,
        "channel": 0,
        "type": "noteOff",
        "noteNumber": 53,
        "velocity": 0,
        "byte9": true
      },
      {
        "deltaTime": 5,
        "channel": 0,
        "type": "noteOff",
        "noteNumber": 57,
        "velocity": 0,
        "byte9": true
      },
      {
        "deltaTime": 0,
        "running": true,
        "channel": 0,
        "type": "noteOff",
        "noteNumber": 70,
        "velocity": 0,
        "byte9": true
      },
      {
        "deltaTime": 5,
        "channel": 0,
        "type": "noteOff",
        "noteNumber": 58,
        "velocity": 0,
        "byte9": true
      },
      {
        "deltaTime": 20,
        "channel": 0,
        "type": "noteOff",
        "noteNumber": 77,
        "velocity": 0,
        "byte9": true
      },
      {
        "deltaTime": 355,
        "channel": 0,
        "type": "noteOn",
        "noteNumber": 74,
        "velocity": 88
      },
      {
        "deltaTime": 0,
        "running": true,
        "channel": 0,
        "type": "noteOn",
        "noteNumber": 86,
        "velocity": 84
      },
      {
        "deltaTime": 5,
        "channel": 0,
        "type": "noteOn",
        "noteNumber": 57,
        "velocity": 79
      },
      {
        "deltaTime": 0,
        "running": true,
        "channel": 0,
        "type": "noteOn",
        "noteNumber": 58,
        "velocity": 69
      },
      {
        "deltaTime": 0,
        "running": true,
        "channel": 0,
        "type": "noteOn",
        "noteNumber": 81,
        "velocity": 81
      },
      {
        "deltaTime": 5,
        "channel": 0,
        "type": "noteOn",
        "noteNumber": 53,
        "velocity": 81
      },
      {
        "deltaTime": 0,
        "running": true,
        "channel": 0,
        "type": "noteOn",
        "noteNumber": 62,
        "velocity": 83
      },
      {
        "deltaTime": 70,
        "channel": 0,
        "type": "noteOff",
        "noteNumber": 74,
        "velocity": 0,
        "byte9": true
      },
      {
        "deltaTime": 25,
        "channel": 0,
        "type": "noteOff",
        "noteNumber": 81,
        "velocity": 0,
        "byte9": true
      },
      {
        "deltaTime": 10,
        "channel": 0,
        "type": "noteOff",
        "noteNumber": 53,
        "velocity": 0,
        "byte9": true
      },
      {
        "deltaTime": 0,
        "running": true,
        "channel": 0,
        "type": "noteOff",
        "noteNumber": 62,
        "velocity": 0,
        "byte9": true
      },
      {
        "deltaTime": 0,
        "running": true,
        "channel": 0,
        "type": "noteOff",
        "noteNumber": 86,
        "velocity": 0,
        "byte9": true
      },
      {
        "deltaTime": 10,
        "channel": 0,
        "type": "noteOff",
        "noteNumber": 57,
        "velocity": 0,
        "byte9": true
      },
      {
        "deltaTime": 5,
        "channel": 0,
        "type": "noteOff",
        "noteNumber": 58,
        "velocity": 0,
        "byte9": true
      },
      {
        "deltaTime": 5,
        "channel": 0,
        "type": "controller",
        "controllerType": 64,
        "value": 0
      },
      {
        "deltaTime": 50,
        "channel": 0,
        "type": "noteOn",
        "noteNumber": 53,
        "velocity": 53
      },
      {
        "deltaTime": 0,
        "running": true,
        "channel": 0,
        "type": "noteOn",
        "noteNumber": 58,
        "velocity": 49
      },
      {
        "deltaTime": 5,
        "channel": 0,
        "type": "noteOn",
        "noteNumber": 57,
        "velocity": 52
      },
      {
        "deltaTime": 0,
        "running": true,
        "channel": 0,
        "type": "noteOn",
        "noteNumber": 62,
        "velocity": 54
      },
      {
        "deltaTime": 5,
        "channel": 0,
        "type": "noteOn",
        "noteNumber": 77,
        "velocity": 61
      },
      {
        "deltaTime": 0,
        "running": true,
        "channel": 0,
        "type": "noteOn",
        "noteNumber": 84,
        "velocity": 65
      },
      {
        "deltaTime": 0,
        "running": true,
        "channel": 0,
        "type": "noteOn",
        "noteNumber": 89,
        "velocity": 68
      },
      {
        "deltaTime": 35,
        "channel": 0,
        "type": "noteOff",
        "noteNumber": 77,
        "velocity": 0,
        "byte9": true
      },
      {
        "deltaTime": 5,
        "channel": 0,
        "type": "noteOff",
        "noteNumber": 57,
        "velocity": 0,
        "byte9": true
      },
      {
        "deltaTime": 5,
        "channel": 0,
        "type": "noteOff",
        "noteNumber": 62,
        "velocity": 0,
        "byte9": true
      },
      {
        "deltaTime": 0,
        "running": true,
        "channel": 0,
        "type": "noteOff",
        "noteNumber": 84,
        "velocity": 0,
        "byte9": true
      },
      {
        "deltaTime": 15,
        "channel": 0,
        "type": "noteOff",
        "noteNumber": 53,
        "velocity": 0,
        "byte9": true
      },
      {
        "deltaTime": 0,
        "running": true,
        "channel": 0,
        "type": "noteOff",
        "noteNumber": 89,
        "velocity": 0,
        "byte9": true
      },
      {
        "deltaTime": 5,
        "channel": 0,
        "type": "noteOff",
        "noteNumber": 58,
        "velocity": 0,
        "byte9": true
      },
      {
        "deltaTime": 215,
        "channel": 0,
        "type": "noteOn",
        "noteNumber": 58,
        "velocity": 65
      },
      {
        "deltaTime": 0,
        "running": true,
        "channel": 0,
        "type": "noteOn",
        "noteNumber": 93,
        "velocity": 76
      },
      {
        "deltaTime": 5,
        "channel": 0,
        "type": "noteOn",
        "noteNumber": 57,
        "velocity": 71
      },
      {
        "deltaTime": 0,
        "running": true,
        "channel": 0,
        "type": "noteOn",
        "noteNumber": 62,
        "velocity": 83
      },
      {
        "deltaTime": 5,
        "channel": 0,
        "type": "noteOn",
        "noteNumber": 53,
        "velocity": 68
      },
      {
        "deltaTime": 0,
        "running": true,
        "channel": 0,
        "type": "noteOn",
        "noteNumber": 81,
        "velocity": 62
      },
      {
        "deltaTime": 0,
        "running": true,
        "channel": 0,
        "type": "noteOn",
        "noteNumber": 88,
        "velocity": 65
      },
      {
        "deltaTime": 5,
        "channel": 0,
        "type": "noteOn",
        "noteNumber": 90,
        "velocity": 33
      },
      {
        "deltaTime": 25,
        "channel": 0,
        "type": "noteOff",
        "noteNumber": 90,
        "velocity": 0,
        "byte9": true
      },
      {
        "deltaTime": 65,
        "channel": 0,
        "type": "noteOff",
        "noteNumber": 81,
        "velocity": 0,
        "byte9": true
      },
      {
        "deltaTime": 15,
        "channel": 0,
        "type": "noteOff",
        "noteNumber": 53,
        "velocity": 0,
        "byte9": true
      },
      {
        "deltaTime": 5,
        "channel": 0,
        "type": "noteOff",
        "noteNumber": 88,
        "velocity": 0,
        "byte9": true
      },
      {
        "deltaTime": 10,
        "channel": 0,
        "type": "noteOff",
        "noteNumber": 93,
        "velocity": 0,
        "byte9": true
      },
      {
        "deltaTime": 5,
        "channel": 0,
        "type": "noteOff",
        "noteNumber": 57,
        "velocity": 0,
        "byte9": true
      },
      {
        "deltaTime": 0,
        "running": true,
        "channel": 0,
        "type": "noteOff",
        "noteNumber": 62,
        "velocity": 0,
        "byte9": true
      },
      {
        "deltaTime": 15,
        "channel": 0,
        "type": "noteOff",
        "noteNumber": 58,
        "velocity": 0,
        "byte9": true
      },
      {
        "deltaTime": 325,
        "channel": 0,
        "type": "noteOn",
        "noteNumber": 57,
        "velocity": 81
      },
      {
        "deltaTime": 0,
        "running": true,
        "channel": 0,
        "type": "noteOn",
        "noteNumber": 62,
        "velocity": 88
      },
      {
        "deltaTime": 5,
        "channel": 0,
        "type": "noteOn",
        "noteNumber": 58,
        "velocity": 60
      },
      {
        "deltaTime": 0,
        "running": true,
        "channel": 0,
        "type": "noteOn",
        "noteNumber": 84,
        "velocity": 92
      },
      {
        "deltaTime": 0,
        "running": true,
        "channel": 0,
        "type": "noteOn",
        "noteNumber": 96,
        "velocity": 87
      },
      {
        "deltaTime": 5,
        "channel": 0,
        "type": "noteOn",
        "noteNumber": 52,
        "velocity": 74
      },
      {
        "deltaTime": 0,
        "running": true,
        "channel": 0,
        "type": "noteOn",
        "noteNumber": 91,
        "velocity": 79
      },
      {
        "deltaTime": 115,
        "channel": 0,
        "type": "noteOff",
        "noteNumber": 96,
        "velocity": 0,
        "byte9": true
      },
      {
        "deltaTime": 5,
        "channel": 0,
        "type": "noteOff",
        "noteNumber": 84,
        "velocity": 0,
        "byte9": true
      },
      {
        "deltaTime": 10,
        "channel": 0,
        "type": "noteOff",
        "noteNumber": 91,
        "velocity": 0,
        "byte9": true
      },
      {
        "deltaTime": 15,
        "channel": 0,
        "type": "noteOff",
        "noteNumber": 62,
        "velocity": 0,
        "byte9": true
      },
      {
        "deltaTime": 10,
        "channel": 0,
        "type": "noteOff",
        "noteNumber": 52,
        "velocity": 0,
        "byte9": true
      },
      {
        "deltaTime": 0,
        "running": true,
        "channel": 0,
        "type": "noteOff",
        "noteNumber": 58,
        "velocity": 0,
        "byte9": true
      },
      {
        "deltaTime": 5,
        "channel": 0,
        "type": "noteOff",
        "noteNumber": 57,
        "velocity": 0,
        "byte9": true
      },
      {
        "deltaTime": 310,
        "channel": 0,
        "type": "noteOn",
        "noteNumber": 57,
        "velocity": 88
      },
      {
        "deltaTime": 5,
        "channel": 0,
        "type": "noteOn",
        "noteNumber": 58,
        "velocity": 64
      },
      {
        "deltaTime": 0,
        "running": true,
        "channel": 0,
        "type": "noteOn",
        "noteNumber": 62,
        "velocity": 89
      },
      {
        "deltaTime": 0,
        "running": true,
        "channel": 0,
        "type": "noteOn",
        "noteNumber": 84,
        "velocity": 95
      },
      {
        "deltaTime": 0,
        "running": true,
        "channel": 0,
        "type": "noteOn",
        "noteNumber": 90,
        "velocity": 86
      },
      {
        "deltaTime": 0,
        "running": true,
        "channel": 0,
        "type": "noteOn",
        "noteNumber": 96,
        "velocity": 92
      },
      {
        "deltaTime": 5,
        "channel": 0,
        "type": "noteOn",
        "noteNumber": 52,
        "velocity": 81
      },
      {
        "deltaTime": 105,
        "channel": 0,
        "type": "noteOff",
        "noteNumber": 90,
        "velocity": 0,
        "byte9": true
      },
      {
        "deltaTime": 5,
        "channel": 0,
        "type": "noteOn",
        "noteNumber": 91,
        "velocity": 47
      },
      {
        "deltaTime": 130,
        "channel": 0,
        "type": "controller",
        "controllerType": 64,
        "value": 127
      },
      {
        "deltaTime": 305,
        "channel": 0,
        "type": "noteOff",
        "noteNumber": 96,
        "velocity": 0,
        "byte9": true
      },
      {
        "deltaTime": 10,
        "channel": 0,
        "type": "noteOff",
        "noteNumber": 52,
        "velocity": 0,
        "byte9": true
      },
      {
        "deltaTime": 20,
        "channel": 0,
        "type": "noteOff",
        "noteNumber": 57,
        "velocity": 0,
        "byte9": true
      },
      {
        "deltaTime": 5,
        "channel": 0,
        "type": "noteOff",
        "noteNumber": 91,
        "velocity": 0,
        "byte9": true
      },
      {
        "deltaTime": 10,
        "channel": 0,
        "type": "noteOff",
        "noteNumber": 62,
        "velocity": 0,
        "byte9": true
      },
      {
        "deltaTime": 5,
        "channel": 0,
        "type": "noteOff",
        "noteNumber": 58,
        "velocity": 0,
        "byte9": true
      },
      {
        "deltaTime": 15,
        "channel": 0,
        "type": "noteOff",
        "noteNumber": 84,
        "velocity": 0,
        "byte9": true
      },
      {
        "deltaTime": 355,
        "channel": 0,
        "type": "noteOn",
        "noteNumber": 56,
        "velocity": 83
      },
      {
        "deltaTime": 0,
        "running": true,
        "channel": 0,
        "type": "noteOn",
        "noteNumber": 62,
        "velocity": 81
      },
      {
        "deltaTime": 0,
        "running": true,
        "channel": 0,
        "type": "noteOn",
        "noteNumber": 67,
        "velocity": 92
      },
      {
        "deltaTime": 0,
        "running": true,
        "channel": 0,
        "type": "noteOn",
        "noteNumber": 80,
        "velocity": 93
      },
      {
        "deltaTime": 0,
        "running": true,
        "channel": 0,
        "type": "noteOn",
        "noteNumber": 87,
        "velocity": 88
      },
      {
        "deltaTime": 0,
        "running": true,
        "channel": 0,
        "type": "noteOn",
        "noteNumber": 92,
        "velocity": 91
      },
      {
        "deltaTime": 15,
        "channel": 0,
        "type": "controller",
        "controllerType": 64,
        "value": 0
      },
      {
        "deltaTime": 135,
        "channel": 0,
        "type": "controller",
        "controllerType": 64,
        "value": 127
      },
      {
        "deltaTime": 190,
        "channel": 0,
        "type": "noteOff",
        "noteNumber": 62,
        "velocity": 0,
        "byte9": true
      },
      {
        "deltaTime": 15,
        "channel": 0,
        "type": "noteOff",
        "noteNumber": 80,
        "velocity": 0,
        "byte9": true
      },
      {
        "deltaTime": 5,
        "channel": 0,
        "type": "noteOff",
        "noteNumber": 92,
        "velocity": 0,
        "byte9": true
      },
      {
        "deltaTime": 5,
        "channel": 0,
        "type": "noteOff",
        "noteNumber": 87,
        "velocity": 0,
        "byte9": true
      },
      {
        "deltaTime": 10,
        "channel": 0,
        "type": "noteOff",
        "noteNumber": 67,
        "velocity": 0,
        "byte9": true
      },
      {
        "deltaTime": 55,
        "channel": 0,
        "type": "noteOff",
        "noteNumber": 56,
        "velocity": 0,
        "byte9": true
      },
      {
        "deltaTime": 120,
        "channel": 0,
        "type": "controller",
        "controllerType": 64,
        "value": 0
      },
      {
        "deltaTime": 50,
        "channel": 0,
        "type": "noteOn",
        "noteNumber": 64,
        "velocity": 60
      },
      {
        "deltaTime": 5,
        "channel": 0,
        "type": "noteOn",
        "noteNumber": 79,
        "velocity": 60
      },
      {
        "deltaTime": 0,
        "running": true,
        "channel": 0,
        "type": "noteOn",
        "noteNumber": 91,
        "velocity": 67
      },
      {
        "deltaTime": 5,
        "channel": 0,
        "type": "noteOn",
        "noteNumber": 55,
        "velocity": 49
      },
      {
        "deltaTime": 5,
        "channel": 0,
        "type": "noteOn",
        "noteNumber": 60,
        "velocity": 37
      },
      {
        "deltaTime": 0,
        "running": true,
        "channel": 0,
        "type": "noteOn",
        "noteNumber": 88,
        "velocity": 40
      },
      {
        "deltaTime": 5,
        "channel": 0,
        "type": "noteOn",
        "noteNumber": 84,
        "velocity": 44
      },
      {
        "deltaTime": 10,
        "channel": 0,
        "type": "noteOn",
        "noteNumber": 57,
        "velocity": 39
      },
      {
        "deltaTime": 15,
        "channel": 0,
        "type": "noteOff",
        "noteNumber": 60,
        "velocity": 0,
        "byte9": true
      },
      {
        "deltaTime": 0,
        "running": true,
        "channel": 0,
        "type": "noteOff",
        "noteNumber": 88,
        "velocity": 0,
        "byte9": true
      },
      {
        "deltaTime": 5,
        "channel": 0,
        "type": "noteOff",
        "noteNumber": 55,
        "velocity": 0,
        "byte9": true
      },
      {
        "deltaTime": 0,
        "running": true,
        "channel": 0,
        "type": "noteOff",
        "noteNumber": 64,
        "velocity": 0,
        "byte9": true
      },
      {
        "deltaTime": 0,
        "running": true,
        "channel": 0,
        "type": "noteOff",
        "noteNumber": 84,
        "velocity": 0,
        "byte9": true
      },
      {
        "deltaTime": 5,
        "channel": 0,
        "type": "noteOff",
        "noteNumber": 91,
        "velocity": 0,
        "byte9": true
      },
      {
        "deltaTime": 5,
        "channel": 0,
        "type": "noteOff",
        "noteNumber": 79,
        "velocity": 0,
        "byte9": true
      },
      {
        "deltaTime": 5,
        "channel": 0,
        "type": "noteOff",
        "noteNumber": 57,
        "velocity": 0,
        "byte9": true
      },
      {
        "deltaTime": 445,
        "channel": 0,
        "type": "controller",
        "controllerType": 64,
        "value": 127
      },
      {
        "deltaTime": 310,
        "channel": 0,
        "type": "noteOn",
        "noteNumber": 64,
        "velocity": 75
      },
      {
        "deltaTime": 5,
        "channel": 0,
        "type": "noteOn",
        "noteNumber": 57,
        "velocity": 64
      },
      {
        "deltaTime": 0,
        "running": true,
        "channel": 0,
        "type": "noteOn",
        "noteNumber": 88,
        "velocity": 68
      },
      {
        "deltaTime": 5,
        "channel": 0,
        "type": "noteOn",
        "noteNumber": 55,
        "velocity": 68
      },
      {
        "deltaTime": 0,
        "running": true,
        "channel": 0,
        "type": "noteOn",
        "noteNumber": 60,
        "velocity": 61
      },
      {
        "deltaTime": 0,
        "running": true,
        "channel": 0,
        "type": "noteOn",
        "noteNumber": 76,
        "velocity": 57
      },
      {
        "deltaTime": 5,
        "channel": 0,
        "type": "noteOn",
        "noteNumber": 84,
        "velocity": 37
      },
      {
        "deltaTime": 5,
        "channel": 0,
        "type": "noteOn",
        "noteNumber": 81,
        "velocity": 42
      },
      {
        "deltaTime": 5,
        "channel": 0,
        "type": "noteOn",
        "noteNumber": 74,
        "velocity": 24
      },
      {
        "deltaTime": 25,
        "channel": 0,
        "type": "noteOff",
        "noteNumber": 74,
        "velocity": 0,
        "byte9": true
      },
      {
        "deltaTime": 80,
        "channel": 0,
        "type": "noteOff",
        "noteNumber": 76,
        "velocity": 0,
        "byte9": true
      },
      {
        "deltaTime": 0,
        "running": true,
        "channel": 0,
        "type": "noteOff",
        "noteNumber": 81,
        "velocity": 0,
        "byte9": true
      },
      {
        "deltaTime": 20,
        "channel": 0,
        "type": "noteOff",
        "noteNumber": 55,
        "velocity": 0,
        "byte9": true
      },
      {
        "deltaTime": 0,
        "running": true,
        "channel": 0,
        "type": "noteOff",
        "noteNumber": 64,
        "velocity": 0,
        "byte9": true
      },
      {
        "deltaTime": 0,
        "running": true,
        "channel": 0,
        "type": "noteOff",
        "noteNumber": 84,
        "velocity": 0,
        "byte9": true
      },
      {
        "deltaTime": 5,
        "channel": 0,
        "type": "noteOff",
        "noteNumber": 60,
        "velocity": 0,
        "byte9": true
      },
      {
        "deltaTime": 5,
        "channel": 0,
        "type": "noteOff",
        "noteNumber": 88,
        "velocity": 0,
        "byte9": true
      },
      {
        "deltaTime": 5,
        "channel": 0,
        "type": "noteOff",
        "noteNumber": 57,
        "velocity": 0,
        "byte9": true
      },
      {
        "deltaTime": 140,
        "channel": 0,
        "type": "noteOn",
        "noteNumber": 79,
        "velocity": 80
      },
      {
        "deltaTime": 5,
        "channel": 0,
        "type": "noteOn",
        "noteNumber": 84,
        "velocity": 80
      },
      {
        "deltaTime": 0,
        "running": true,
        "channel": 0,
        "type": "noteOn",
        "noteNumber": 91,
        "velocity": 78
      },
      {
        "deltaTime": 5,
        "channel": 0,
        "type": "noteOn",
        "noteNumber": 64,
        "velocity": 81
      },
      {
        "deltaTime": 0,
        "running": true,
        "channel": 0,
        "type": "noteOn",
        "noteNumber": 88,
        "velocity": 69
      },
      {
        "deltaTime": 5,
        "channel": 0,
        "type": "noteOn",
        "noteNumber": 55,
        "velocity": 72
      },
      {
        "deltaTime": 0,
        "running": true,
        "channel": 0,
        "type": "noteOn",
        "noteNumber": 57,
        "velocity": 67
      },
      {
        "deltaTime": 0,
        "running": true,
        "channel": 0,
        "type": "noteOn",
        "noteNumber": 60,
        "velocity": 72
      },
      {
        "deltaTime": 15,
        "channel": 0,
        "type": "noteOff",
        "noteNumber": 91,
        "velocity": 0,
        "byte9": true
      },
      {
        "deltaTime": 85,
        "channel": 0,
        "type": "noteOff",
        "noteNumber": 55,
        "velocity": 0,
        "byte9": true
      },
      {
        "deltaTime": 0,
        "running": true,
        "channel": 0,
        "type": "noteOff",
        "noteNumber": 79,
        "velocity": 0,
        "byte9": true
      },
      {
        "deltaTime": 0,
        "running": true,
        "channel": 0,
        "type": "noteOff",
        "noteNumber": 84,
        "velocity": 0,
        "byte9": true
      },
      {
        "deltaTime": 30,
        "channel": 0,
        "type": "noteOff",
        "noteNumber": 57,
        "velocity": 0,
        "byte9": true
      },
      {
        "deltaTime": 0,
        "running": true,
        "channel": 0,
        "type": "noteOff",
        "noteNumber": 64,
        "velocity": 0,
        "byte9": true
      },
      {
        "deltaTime": 0,
        "running": true,
        "channel": 0,
        "type": "noteOff",
        "noteNumber": 88,
        "velocity": 0,
        "byte9": true
      },
      {
        "deltaTime": 5,
        "channel": 0,
        "type": "noteOff",
        "noteNumber": 60,
        "velocity": 0,
        "byte9": true
      },
      {
        "deltaTime": 125,
        "channel": 0,
        "type": "controller",
        "controllerType": 64,
        "value": 0
      },
      {
        "deltaTime": 35,
        "channel": 0,
        "type": "noteOn",
        "noteNumber": 83,
        "velocity": 78
      },
      {
        "deltaTime": 0,
        "running": true,
        "channel": 0,
        "type": "noteOn",
        "noteNumber": 95,
        "velocity": 85
      },
      {
        "deltaTime": 5,
        "channel": 0,
        "type": "noteOn",
        "noteNumber": 55,
        "velocity": 79
      },
      {
        "deltaTime": 0,
        "running": true,
        "channel": 0,
        "type": "noteOn",
        "noteNumber": 64,
        "velocity": 73
      },
      {
        "deltaTime": 0,
        "running": true,
        "channel": 0,
        "type": "noteOn",
        "noteNumber": 88,
        "velocity": 74
      },
      {
        "deltaTime": 5,
        "channel": 0,
        "type": "noteOn",
        "noteNumber": 60,
        "velocity": 64
      },
      {
        "deltaTime": 10,
        "channel": 0,
        "type": "noteOn",
        "noteNumber": 91,
        "velocity": 37
      },
      {
        "deltaTime": 5,
        "channel": 0,
        "type": "noteOn",
        "noteNumber": 57,
        "velocity": 44
      },
      {
        "deltaTime": 20,
        "channel": 0,
        "type": "noteOff",
        "noteNumber": 88,
        "velocity": 0,
        "byte9": true
      },
      {
        "deltaTime": 10,
        "channel": 0,
        "type": "controller",
        "controllerType": 64,
        "value": 127
      },
      {
        "deltaTime": 0,
        "channel": 0,
        "type": "noteOff",
        "noteNumber": 83,
        "velocity": 0,
        "byte9": true
      },
      {
        "deltaTime": 0,
        "running": true,
        "channel": 0,
        "type": "noteOff",
        "noteNumber": 91,
        "velocity": 0,
        "byte9": true
      },
      {
        "deltaTime": 5,
        "channel": 0,
        "type": "noteOff",
        "noteNumber": 57,
        "velocity": 0,
        "byte9": true
      },
      {
        "deltaTime": 25,
        "channel": 0,
        "type": "noteOff",
        "noteNumber": 95,
        "velocity": 0,
        "byte9": true
      },
      {
        "deltaTime": 45,
        "channel": 0,
        "type": "noteOff",
        "noteNumber": 55,
        "velocity": 0,
        "byte9": true
      },
      {
        "deltaTime": 10,
        "channel": 0,
        "type": "noteOff",
        "noteNumber": 60,
        "velocity": 0,
        "byte9": true
      },
      {
        "deltaTime": 0,
        "running": true,
        "channel": 0,
        "type": "noteOff",
        "noteNumber": 64,
        "velocity": 0,
        "byte9": true
      },
      {
        "deltaTime": 185,
        "channel": 0,
        "type": "noteOn",
        "noteNumber": 98,
        "velocity": 91
      },
      {
        "deltaTime": 5,
        "channel": 0,
        "type": "noteOn",
        "noteNumber": 86,
        "velocity": 94
      },
      {
        "deltaTime": 0,
        "running": true,
        "channel": 0,
        "type": "noteOn",
        "noteNumber": 92,
        "velocity": 85
      },
      {
        "deltaTime": 0,
        "running": true,
        "channel": 0,
        "type": "noteOn",
        "noteNumber": 95,
        "velocity": 87
      },
      {
        "deltaTime": 5,
        "channel": 0,
        "type": "noteOn",
        "noteNumber": 54,
        "velocity": 86
      },
      {
        "deltaTime": 0,
        "running": true,
        "channel": 0,
        "type": "noteOn",
        "noteNumber": 60,
        "velocity": 83
      },
      {
        "deltaTime": 0,
        "running": true,
        "channel": 0,
        "type": "noteOn",
        "noteNumber": 64,
        "velocity": 91
      },
      {
        "deltaTime": 5,
        "channel": 0,
        "type": "controller",
        "controllerType": 64,
        "value": 0
      },
      {
        "deltaTime": 15,
        "channel": 0,
        "type": "noteOn",
        "noteNumber": 96,
        "velocity": 34
      },
      {
        "deltaTime": 25,
        "channel": 0,
        "type": "noteOff",
        "noteNumber": 96,
        "velocity": 0,
        "byte9": true
      },
      {
        "deltaTime": 30,
        "channel": 0,
        "type": "noteOff",
        "noteNumber": 86,
        "velocity": 0,
        "byte9": true
      },
      {
        "deltaTime": 25,
        "channel": 0,
        "type": "noteOff",
        "noteNumber": 54,
        "velocity": 0,
        "byte9": true
      },
      {
        "deltaTime": 0,
        "running": true,
        "channel": 0,
        "type": "noteOff",
        "noteNumber": 64,
        "velocity": 0,
        "byte9": true
      },
      {
        "deltaTime": 5,
        "channel": 0,
        "type": "controller",
        "controllerType": 64,
        "value": 127
      },
      {
        "deltaTime": 0,
        "channel": 0,
        "type": "noteOff",
        "noteNumber": 60,
        "velocity": 0,
        "byte9": true
      },
      {
        "deltaTime": 5,
        "channel": 0,
        "type": "noteOff",
        "noteNumber": 92,
        "velocity": 0,
        "byte9": true
      },
      {
        "deltaTime": 15,
        "channel": 0,
        "type": "noteOff",
        "noteNumber": 95,
        "velocity": 0,
        "byte9": true
      },
      {
        "deltaTime": 0,
        "running": true,
        "channel": 0,
        "type": "noteOff",
        "noteNumber": 98,
        "velocity": 0,
        "byte9": true
      },
      {
        "deltaTime": 5,
        "channel": 0,
        "type": "noteOn",
        "noteNumber": 54,
        "velocity": 50
      },
      {
        "deltaTime": 10,
        "channel": 0,
        "type": "noteOn",
        "noteNumber": 86,
        "velocity": 55
      },
      {
        "deltaTime": 40,
        "channel": 0,
        "type": "noteOn",
        "noteNumber": 60,
        "velocity": 44
      },
      {
        "deltaTime": 10,
        "channel": 0,
        "type": "noteOn",
        "noteNumber": 64,
        "velocity": 53
      },
      {
        "deltaTime": 10,
        "channel": 0,
        "type": "noteOn",
        "noteNumber": 92,
        "velocity": 52
      },
      {
        "deltaTime": 5,
        "channel": 0,
        "type": "noteOff",
        "noteNumber": 54,
        "velocity": 0,
        "byte9": true
      },
      {
        "deltaTime": 10,
        "channel": 0,
        "type": "noteOff",
        "noteNumber": 86,
        "velocity": 0,
        "byte9": true
      },
      {
        "deltaTime": 5,
        "channel": 0,
        "type": "noteOn",
        "noteNumber": 95,
        "velocity": 36
      },
      {
        "deltaTime": 15,
        "channel": 0,
        "type": "noteOn",
        "noteNumber": 98,
        "velocity": 48
      },
      {
        "deltaTime": 15,
        "channel": 0,
        "type": "noteOff",
        "noteNumber": 60,
        "velocity": 0,
        "byte9": true
      },
      {
        "deltaTime": 5,
        "channel": 0,
        "type": "noteOff",
        "noteNumber": 64,
        "velocity": 0,
        "byte9": true
      },
      {
        "deltaTime": 5,
        "channel": 0,
        "type": "noteOff",
        "noteNumber": 95,
        "velocity": 0,
        "byte9": true
      },
      {
        "deltaTime": 15,
        "channel": 0,
        "type": "noteOn",
        "noteNumber": 54,
        "velocity": 60
      },
      {
        "deltaTime": 0,
        "running": true,
        "channel": 0,
        "type": "noteOn",
        "noteNumber": 86,
        "velocity": 57
      },
      {
        "deltaTime": 5,
        "channel": 0,
        "type": "noteOff",
        "noteNumber": 92,
        "velocity": 0,
        "byte9": true
      },
      {
        "deltaTime": 0,
        "running": true,
        "channel": 0,
        "type": "noteOff",
        "noteNumber": 98,
        "velocity": 0,
        "byte9": true
      },
      {
        "deltaTime": 65,
        "channel": 0,
        "type": "noteOn",
        "noteNumber": 60,
        "velocity": 38
      },
      {
        "deltaTime": 0,
        "running": true,
        "channel": 0,
        "type": "noteOn",
        "noteNumber": 92,
        "velocity": 57
      },
      {
        "deltaTime": 5,
        "channel": 0,
        "type": "noteOff",
        "noteNumber": 54,
        "velocity": 0,
        "byte9": true
      },
      {
        "deltaTime": 0,
        "running": true,
        "channel": 0,
        "type": "noteOff",
        "noteNumber": 86,
        "velocity": 0,
        "byte9": true
      },
      {
        "deltaTime": 5,
        "channel": 0,
        "type": "noteOn",
        "noteNumber": 64,
        "velocity": 41
      },
      {
        "deltaTime": 5,
        "channel": 0,
        "type": "noteOn",
        "noteNumber": 98,
        "velocity": 33
      },
      {
        "deltaTime": 5,
        "channel": 0,
        "type": "noteOn",
        "noteNumber": 95,
        "velocity": 49
      },
      {
        "deltaTime": 25,
        "channel": 0,
        "type": "noteOff",
        "noteNumber": 95,
        "velocity": 0,
        "byte9": true
      },
      {
        "deltaTime": 20,
        "channel": 0,
        "type": "noteOn",
        "noteNumber": 86,
        "velocity": 47
      },
      {
        "deltaTime": 5,
        "channel": 0,
        "type": "noteOff",
        "noteNumber": 98,
        "velocity": 0,
        "byte9": true
      },
      {
        "deltaTime": 5,
        "channel": 0,
        "type": "noteOn",
        "noteNumber": 54,
        "velocity": 59
      },
      {
        "deltaTime": 0,
        "running": true,
        "channel": 0,
        "type": "noteOff",
        "noteNumber": 60,
        "velocity": 0,
        "byte9": true
      },
      {
        "deltaTime": 5,
        "channel": 0,
        "type": "noteOff",
        "noteNumber": 92,
        "velocity": 0,
        "byte9": true
      },
      {
        "deltaTime": 5,
        "channel": 0,
        "type": "noteOff",
        "noteNumber": 64,
        "velocity": 0,
        "byte9": true
      },
      {
        "deltaTime": 35,
        "channel": 0,
        "type": "noteOff",
        "noteNumber": 86,
        "velocity": 0,
        "byte9": true
      },
      {
        "deltaTime": 20,
        "channel": 0,
        "type": "controller",
        "controllerType": 64,
        "value": 0
      },
      {
        "deltaTime": 10,
        "channel": 0,
        "type": "noteOff",
        "noteNumber": 54,
        "velocity": 0,
        "byte9": true
      },
      {
        "deltaTime": 165,
        "channel": 0,
        "type": "noteOn",
        "noteNumber": 92,
        "velocity": 81
      },
      {
        "deltaTime": 0,
        "running": true,
        "channel": 0,
        "type": "noteOn",
        "noteNumber": 98,
        "velocity": 83
      },
      {
        "deltaTime": 5,
        "channel": 0,
        "type": "noteOn",
        "noteNumber": 54,
        "velocity": 83
      },
      {
        "deltaTime": 0,
        "running": true,
        "channel": 0,
        "type": "noteOn",
        "noteNumber": 60,
        "velocity": 81
      },
      {
        "deltaTime": 0,
        "running": true,
        "channel": 0,
        "type": "noteOn",
        "noteNumber": 86,
        "velocity": 83
      },
      {
        "deltaTime": 5,
        "channel": 0,
        "type": "noteOn",
        "noteNumber": 64,
        "velocity": 85
      },
      {
        "deltaTime": 10,
        "channel": 0,
        "type": "noteOn",
        "noteNumber": 95,
        "velocity": 69
      },
      {
        "deltaTime": 10,
        "channel": 0,
        "type": "noteOff",
        "noteNumber": 86,
        "velocity": 0,
        "byte9": true
      },
      {
        "deltaTime": 5,
        "channel": 0,
        "type": "noteOff",
        "noteNumber": 95,
        "velocity": 0,
        "byte9": true
      },
      {
        "deltaTime": 10,
        "channel": 0,
        "type": "noteOff",
        "noteNumber": 92,
        "velocity": 0,
        "byte9": true
      },
      {
        "deltaTime": 15,
        "channel": 0,
        "type": "noteOff",
        "noteNumber": 60,
        "velocity": 0,
        "byte9": true
      },
      {
        "deltaTime": 0,
        "running": true,
        "channel": 0,
        "type": "noteOff",
        "noteNumber": 64,
        "velocity": 0,
        "byte9": true
      },
      {
        "deltaTime": 0,
        "running": true,
        "channel": 0,
        "type": "noteOff",
        "noteNumber": 98,
        "velocity": 0,
        "byte9": true
      },
      {
        "deltaTime": 5,
        "channel": 0,
        "type": "noteOff",
        "noteNumber": 54,
        "velocity": 0,
        "byte9": true
      },
      {
        "deltaTime": 255,
        "channel": 0,
        "type": "noteOn",
        "noteNumber": 92,
        "velocity": 85
      },
      {
        "deltaTime": 5,
        "channel": 0,
        "type": "noteOn",
        "noteNumber": 54,
        "velocity": 86
      },
      {
        "deltaTime": 0,
        "running": true,
        "channel": 0,
        "type": "noteOn",
        "noteNumber": 64,
        "velocity": 91
      },
      {
        "deltaTime": 0,
        "running": true,
        "channel": 0,
        "type": "noteOn",
        "noteNumber": 86,
        "velocity": 91
      },
      {
        "deltaTime": 0,
        "running": true,
        "channel": 0,
        "type": "noteOn",
        "noteNumber": 95,
        "velocity": 85
      },
      {
        "deltaTime": 0,
        "running": true,
        "channel": 0,
        "type": "noteOn",
        "noteNumber": 98,
        "velocity": 87
      },
      {
        "deltaTime": 5,
        "channel": 0,
        "type": "noteOn",
        "noteNumber": 60,
        "velocity": 83
      },
      {
        "deltaTime": 125,
        "channel": 0,
        "type": "controller",
        "controllerType": 64,
        "value": 127
      },
      {
        "deltaTime": 135,
        "channel": 0,
        "type": "noteOff",
        "noteNumber": 60,
        "velocity": 0,
        "byte9": true
      },
      {
        "deltaTime": 20,
        "channel": 0,
        "type": "noteOff",
        "noteNumber": 54,
        "velocity": 0,
        "byte9": true
      },
      {
        "deltaTime": 0,
        "running": true,
        "channel": 0,
        "type": "noteOff",
        "noteNumber": 95,
        "velocity": 0,
        "byte9": true
      },
      {
        "deltaTime": 0,
        "running": true,
        "channel": 0,
        "type": "noteOff",
        "noteNumber": 98,
        "velocity": 0,
        "byte9": true
      },
      {
        "deltaTime": 5,
        "channel": 0,
        "type": "noteOff",
        "noteNumber": 64,
        "velocity": 0,
        "byte9": true
      },
      {
        "deltaTime": 15,
        "channel": 0,
        "type": "noteOff",
        "noteNumber": 92,
        "velocity": 0,
        "byte9": true
      },
      {
        "deltaTime": 25,
        "channel": 0,
        "type": "noteOff",
        "noteNumber": 86,
        "velocity": 0,
        "byte9": true
      },
      {
        "deltaTime": 135,
        "channel": 0,
        "type": "noteOn",
        "noteNumber": 60,
        "velocity": 65
      },
      {
        "deltaTime": 25,
        "channel": 0,
        "type": "noteOff",
        "noteNumber": 60,
        "velocity": 0,
        "byte9": true
      },
      {
        "deltaTime": 100,
        "channel": 0,
        "type": "controller",
        "controllerType": 64,
        "value": 0
      },
      {
        "deltaTime": 25,
        "channel": 0,
        "type": "noteOn",
        "noteNumber": 94,
        "velocity": 82
      },
      {
        "deltaTime": 5,
        "channel": 0,
        "type": "noteOn",
        "noteNumber": 54,
        "velocity": 74
      },
      {
        "deltaTime": 0,
        "running": true,
        "channel": 0,
        "type": "noteOn",
        "noteNumber": 60,
        "velocity": 71
      },
      {
        "deltaTime": 0,
        "running": true,
        "channel": 0,
        "type": "noteOn",
        "noteNumber": 64,
        "velocity": 84
      },
      {
        "deltaTime": 0,
        "running": true,
        "channel": 0,
        "type": "noteOn",
        "noteNumber": 82,
        "velocity": 79
      },
      {
        "deltaTime": 5,
        "channel": 0,
        "type": "noteOn",
        "noteNumber": 87,
        "velocity": 74
      },
      {
        "deltaTime": 25,
        "channel": 0,
        "type": "noteOff",
        "noteNumber": 60,
        "velocity": 0,
        "byte9": true
      },
      {
        "deltaTime": 20,
        "channel": 0,
        "type": "controller",
        "controllerType": 64,
        "value": 127
      },
      {
        "deltaTime": 5,
        "channel": 0,
        "type": "noteOff",
        "noteNumber": 54,
        "velocity": 0,
        "byte9": true
      },
      {
        "deltaTime": 30,
        "channel": 0,
        "type": "noteOff",
        "noteNumber": 64,
        "velocity": 0,
        "byte9": true
      },
      {
        "deltaTime": 20,
        "channel": 0,
        "type": "noteOff",
        "noteNumber": 87,
        "velocity": 0,
        "byte9": true
      },
      {
        "deltaTime": 10,
        "channel": 0,
        "type": "noteOff",
        "noteNumber": 94,
        "velocity": 0,
        "byte9": true
      },
      {
        "deltaTime": 25,
        "channel": 0,
        "type": "noteOff",
        "noteNumber": 82,
        "velocity": 0,
        "byte9": true
      },
      {
        "deltaTime": 170,
        "channel": 0,
        "type": "controller",
        "controllerType": 64,
        "value": 0
      },
      {
        "deltaTime": 0,
        "channel": 0,
        "type": "noteOn",
        "noteNumber": 90,
        "velocity": 79
      },
      {
        "deltaTime": 0,
        "running": true,
        "channel": 0,
        "type": "noteOn",
        "noteNumber": 93,
        "velocity": 94
      },
      {
        "deltaTime": 5,
        "channel": 0,
        "type": "noteOn",
        "noteNumber": 61,
        "velocity": 76
      },
      {
        "deltaTime": 0,
        "running": true,
        "channel": 0,
        "type": "noteOn",
        "noteNumber": 66,
        "velocity": 90
      },
      {
        "deltaTime": 0,
        "running": true,
        "channel": 0,
        "type": "noteOn",
        "noteNumber": 81,
        "velocity": 91
      },
      {
        "deltaTime": 0,
        "running": true,
        "channel": 0,
        "type": "noteOn",
        "noteNumber": 86,
        "velocity": 87
      },
      {
        "deltaTime": 5,
        "channel": 0,
        "type": "noteOn",
        "noteNumber": 57,
        "velocity": 80
      },
      {
        "deltaTime": 0,
        "running": true,
        "channel": 0,
        "type": "noteOn",
        "noteNumber": 62,
        "velocity": 82
      },
      {
        "deltaTime": 125,
        "channel": 0,
        "type": "controller",
        "controllerType": 64,
        "value": 127
      },
      {
        "deltaTime": 500,
        "channel": 0,
        "type": "noteOff",
        "noteNumber": 66,
        "velocity": 0,
        "byte9": true
      },
      {
        "deltaTime": 10,
        "channel": 0,
        "type": "noteOff",
        "noteNumber": 57,
        "velocity": 0,
        "byte9": true
      },
      {
        "deltaTime": 0,
        "running": true,
        "channel": 0,
        "type": "noteOff",
        "noteNumber": 62,
        "velocity": 0,
        "byte9": true
      },
      {
        "deltaTime": 5,
        "channel": 0,
        "type": "noteOff",
        "noteNumber": 93,
        "velocity": 0,
        "byte9": true
      },
      {
        "deltaTime": 10,
        "channel": 0,
        "type": "noteOff",
        "noteNumber": 81,
        "velocity": 0,
        "byte9": true
      },
      {
        "deltaTime": 40,
        "channel": 0,
        "type": "noteOff",
        "noteNumber": 61,
        "velocity": 0,
        "byte9": true
      },
      {
        "deltaTime": 5,
        "channel": 0,
        "type": "noteOff",
        "noteNumber": 90,
        "velocity": 0,
        "byte9": true
      },
      {
        "deltaTime": 20,
        "channel": 0,
        "type": "noteOff",
        "noteNumber": 86,
        "velocity": 0,
        "byte9": true
      },
      {
        "deltaTime": 255,
        "channel": 0,
        "type": "noteOn",
        "noteNumber": 78,
        "velocity": 55
      },
      {
        "deltaTime": 0,
        "running": true,
        "channel": 0,
        "type": "noteOn",
        "noteNumber": 90,
        "velocity": 61
      },
      {
        "deltaTime": 10,
        "channel": 0,
        "type": "noteOn",
        "noteNumber": 66,
        "velocity": 62
      },
      {
        "deltaTime": 10,
        "channel": 0,
        "type": "noteOn",
        "noteNumber": 62,
        "velocity": 48
      },
      {
        "deltaTime": 5,
        "channel": 0,
        "type": "noteOn",
        "noteNumber": 57,
        "velocity": 33
      },
      {
        "deltaTime": 5,
        "channel": 0,
        "type": "noteOn",
        "noteNumber": 61,
        "velocity": 33
      },
      {
        "deltaTime": 25,
        "channel": 0,
        "type": "noteOff",
        "noteNumber": 62,
        "velocity": 0,
        "byte9": true
      },
      {
        "deltaTime": 5,
        "channel": 0,
        "type": "noteOff",
        "noteNumber": 57,
        "velocity": 0,
        "byte9": true
      },
      {
        "deltaTime": 5,
        "channel": 0,
        "type": "noteOff",
        "noteNumber": 66,
        "velocity": 0,
        "byte9": true
      },
      {
        "deltaTime": 5,
        "channel": 0,
        "type": "noteOff",
        "noteNumber": 78,
        "velocity": 0,
        "byte9": true
      },
      {
        "deltaTime": 5,
        "channel": 0,
        "type": "noteOff",
        "noteNumber": 61,
        "velocity": 0,
        "byte9": true
      },
      {
        "deltaTime": 0,
        "running": true,
        "channel": 0,
        "type": "noteOff",
        "noteNumber": 90,
        "velocity": 0,
        "byte9": true
      },
      {
        "deltaTime": 30,
        "channel": 0,
        "type": "controller",
        "controllerType": 64,
        "value": 0
      },
      {
        "deltaTime": 70,
        "channel": 0,
        "type": "noteOn",
        "noteNumber": 66,
        "velocity": 33
      },
      {
        "deltaTime": 0,
        "running": true,
        "channel": 0,
        "type": "noteOn",
        "noteNumber": 81,
        "velocity": 64
      },
      {
        "deltaTime": 5,
        "channel": 0,
        "type": "noteOn",
        "noteNumber": 61,
        "velocity": 37
      },
      {
        "deltaTime": 0,
        "running": true,
        "channel": 0,
        "type": "noteOn",
        "noteNumber": 62,
        "velocity": 52
      },
      {
        "deltaTime": 5,
        "channel": 0,
        "type": "noteOn",
        "noteNumber": 57,
        "velocity": 34
      },
      {
        "deltaTime": 5,
        "channel": 0,
        "type": "noteOn",
        "noteNumber": 93,
        "velocity": 44
      },
      {
        "deltaTime": 10,
        "channel": 0,
        "type": "noteOff",
        "noteNumber": 66,
        "velocity": 0,
        "byte9": true
      },
      {
        "deltaTime": 0,
        "running": true,
        "channel": 0,
        "type": "noteOff",
        "noteNumber": 81,
        "velocity": 0,
        "byte9": true
      },
      {
        "deltaTime": 10,
        "channel": 0,
        "type": "noteOff",
        "noteNumber": 62,
        "velocity": 0,
        "byte9": true
      },
      {
        "deltaTime": 10,
        "channel": 0,
        "type": "noteOff",
        "noteNumber": 57,
        "velocity": 0,
        "byte9": true
      },
      {
        "deltaTime": 0,
        "running": true,
        "channel": 0,
        "type": "noteOff",
        "noteNumber": 93,
        "velocity": 0,
        "byte9": true
      },
      {
        "deltaTime": 30,
        "channel": 0,
        "type": "noteOff",
        "noteNumber": 61,
        "velocity": 0,
        "byte9": true
      },
      {
        "deltaTime": 365,
        "channel": 0,
        "type": "noteOn",
        "noteNumber": 66,
        "velocity": 68
      },
      {
        "deltaTime": 10,
        "channel": 0,
        "type": "noteOn",
        "noteNumber": 57,
        "velocity": 53
      },
      {
        "deltaTime": 0,
        "running": true,
        "channel": 0,
        "type": "noteOn",
        "noteNumber": 85,
        "velocity": 73
      },
      {
        "deltaTime": 5,
        "channel": 0,
        "type": "noteOn",
        "noteNumber": 62,
        "velocity": 58
      },
      {
        "deltaTime": 0,
        "running": true,
        "channel": 0,
        "type": "noteOn",
        "noteNumber": 97,
        "velocity": 76
      },
      {
        "deltaTime": 5,
        "channel": 0,
        "type": "noteOn",
        "noteNumber": 61,
        "velocity": 39
      },
      {
        "deltaTime": 55,
        "channel": 0,
        "type": "noteOff",
        "noteNumber": 57,
        "velocity": 0,
        "byte9": true
      },
      {
        "deltaTime": 0,
        "running": true,
        "channel": 0,
        "type": "noteOff",
        "noteNumber": 85,
        "velocity": 0,
        "byte9": true
      },
      {
        "deltaTime": 30,
        "channel": 0,
        "type": "noteOff",
        "noteNumber": 62,
        "velocity": 0,
        "byte9": true
      },
      {
        "deltaTime": 10,
        "channel": 0,
        "type": "noteOff",
        "noteNumber": 97,
        "velocity": 0,
        "byte9": true
      },
      {
        "deltaTime": 5,
        "channel": 0,
        "type": "noteOff",
        "noteNumber": 66,
        "velocity": 0,
        "byte9": true
      },
      {
        "deltaTime": 40,
        "channel": 0,
        "type": "noteOff",
        "noteNumber": 61,
        "velocity": 0,
        "byte9": true
      },
      {
        "deltaTime": 325,
        "channel": 0,
        "type": "controller",
        "controllerType": 64,
        "value": 127
      },
      {
        "deltaTime": 10,
        "channel": 0,
        "type": "noteOn",
        "noteNumber": 88,
        "velocity": 61
      },
      {
        "deltaTime": 0,
        "running": true,
        "channel": 0,
        "type": "noteOn",
        "noteNumber": 100,
        "velocity": 66
      },
      {
        "deltaTime": 5,
        "channel": 0,
        "type": "noteOn",
        "noteNumber": 96,
        "velocity": 61
      },
      {
        "deltaTime": 5,
        "channel": 0,
        "type": "noteOn",
        "noteNumber": 56,
        "velocity": 47
      },
      {
        "deltaTime": 0,
        "running": true,
        "channel": 0,
        "type": "noteOn",
        "noteNumber": 62,
        "velocity": 54
      },
      {
        "deltaTime": 0,
        "running": true,
        "channel": 0,
        "type": "noteOn",
        "noteNumber": 67,
        "velocity": 56
      },
      {
        "deltaTime": 170,
        "channel": 0,
        "type": "noteOff",
        "noteNumber": 88,
        "velocity": 0,
        "byte9": true
      },
      {
        "deltaTime": 5,
        "channel": 0,
        "type": "noteOff",
        "noteNumber": 56,
        "velocity": 0,
        "byte9": true
      },
      {
        "deltaTime": 0,
        "running": true,
        "channel": 0,
        "type": "noteOff",
        "noteNumber": 67,
        "velocity": 0,
        "byte9": true
      },
      {
        "deltaTime": 5,
        "channel": 0,
        "type": "noteOff",
        "noteNumber": 96,
        "velocity": 0,
        "byte9": true
      },
      {
        "deltaTime": 5,
        "channel": 0,
        "type": "noteOff",
        "noteNumber": 100,
        "velocity": 0,
        "byte9": true
      },
      {
        "deltaTime": 5,
        "channel": 0,
        "type": "noteOff",
        "noteNumber": 62,
        "velocity": 0,
        "byte9": true
      },
      {
        "deltaTime": 105,
        "channel": 0,
        "type": "noteOn",
        "noteNumber": 100,
        "velocity": 79
      },
      {
        "deltaTime": 5,
        "channel": 0,
        "type": "noteOn",
        "noteNumber": 56,
        "velocity": 77
      },
      {
        "deltaTime": 0,
        "running": true,
        "channel": 0,
        "type": "noteOn",
        "noteNumber": 62,
        "velocity": 74
      },
      {
        "deltaTime": 0,
        "running": true,
        "channel": 0,
        "type": "noteOn",
        "noteNumber": 67,
        "velocity": 85
      },
      {
        "deltaTime": 5,
        "channel": 0,
        "type": "noteOn",
        "noteNumber": 88,
        "velocity": 75
      },
      {
        "deltaTime": 0,
        "running": true,
        "channel": 0,
        "type": "noteOn",
        "noteNumber": 96,
        "velocity": 84
      },
      {
        "deltaTime": 100,
        "channel": 0,
        "type": "noteOff",
        "noteNumber": 56,
        "velocity": 0,
        "byte9": true
      },
      {
        "deltaTime": 0,
        "running": true,
        "channel": 0,
        "type": "noteOff",
        "noteNumber": 88,
        "velocity": 0,
        "byte9": true
      },
      {
        "deltaTime": 10,
        "channel": 0,
        "type": "controller",
        "controllerType": 64,
        "value": 0
      },
      {
        "deltaTime": 0,
        "channel": 0,
        "type": "noteOff",
        "noteNumber": 67,
        "velocity": 0,
        "byte9": true
      },
      {
        "deltaTime": 0,
        "running": true,
        "channel": 0,
        "type": "noteOff",
        "noteNumber": 96,
        "velocity": 0,
        "byte9": true
      },
      {
        "deltaTime": 5,
        "channel": 0,
        "type": "noteOff",
        "noteNumber": 62,
        "velocity": 0,
        "byte9": true
      },
      {
        "deltaTime": 5,
        "channel": 0,
        "type": "noteOff",
        "noteNumber": 100,
        "velocity": 0,
        "byte9": true
      },
      {
        "deltaTime": 55,
        "channel": 0,
        "type": "noteOn",
        "noteNumber": 62,
        "velocity": 71
      },
      {
        "deltaTime": 0,
        "running": true,
        "channel": 0,
        "type": "noteOn",
        "noteNumber": 67,
        "velocity": 74
      },
      {
        "deltaTime": 5,
        "channel": 0,
        "type": "noteOn",
        "noteNumber": 56,
        "velocity": 77
      },
      {
        "deltaTime": 0,
        "running": true,
        "channel": 0,
        "type": "noteOn",
        "noteNumber": 100,
        "velocity": 62
      },
      {
        "deltaTime": 5,
        "channel": 0,
        "type": "noteOn",
        "noteNumber": 96,
        "velocity": 72
      },
      {
        "deltaTime": 5,
        "channel": 0,
        "type": "noteOn",
        "noteNumber": 88,
        "velocity": 73
      },
      {
        "deltaTime": 160,
        "channel": 0,
        "type": "noteOff",
        "noteNumber": 56,
        "velocity": 0,
        "byte9": true
      },
      {
        "deltaTime": 5,
        "channel": 0,
        "type": "noteOff",
        "noteNumber": 88,
        "velocity": 0,
        "byte9": true
      },
      {
        "deltaTime": 0,
        "running": true,
        "channel": 0,
        "type": "noteOff",
        "noteNumber": 100,
        "velocity": 0,
        "byte9": true
      },
      {
        "deltaTime": 5,
        "channel": 0,
        "type": "noteOff",
        "noteNumber": 67,
        "velocity": 0,
        "byte9": true
      },
      {
        "deltaTime": 15,
        "channel": 0,
        "type": "noteOff",
        "noteNumber": 62,
        "velocity": 0,
        "byte9": true
      },
      {
        "deltaTime": 5,
        "channel": 0,
        "type": "noteOff",
        "noteNumber": 96,
        "velocity": 0,
        "byte9": true
      },
      {
        "deltaTime": 85,
        "channel": 0,
        "type": "noteOn",
        "noteNumber": 56,
        "velocity": 80
      },
      {
        "deltaTime": 0,
        "running": true,
        "channel": 0,
        "type": "noteOn",
        "noteNumber": 67,
        "velocity": 85
      },
      {
        "deltaTime": 5,
        "channel": 0,
        "type": "noteOn",
        "noteNumber": 62,
        "velocity": 76
      },
      {
        "deltaTime": 0,
        "running": true,
        "channel": 0,
        "type": "noteOn",
        "noteNumber": 100,
        "velocity": 77
      },
      {
        "deltaTime": 5,
        "channel": 0,
        "type": "noteOn",
        "noteNumber": 88,
        "velocity": 78
      },
      {
        "deltaTime": 0,
        "running": true,
        "channel": 0,
        "type": "noteOn",
        "noteNumber": 96,
        "velocity": 82
      },
      {
        "deltaTime": 85,
        "channel": 0,
        "type": "noteOff",
        "noteNumber": 100,
        "velocity": 0,
        "byte9": true
      },
      {
        "deltaTime": 15,
        "channel": 0,
        "type": "noteOff",
        "noteNumber": 88,
        "velocity": 0,
        "byte9": true
      },
      {
        "deltaTime": 10,
        "channel": 0,
        "type": "noteOff",
        "noteNumber": 56,
        "velocity": 0,
        "byte9": true
      },
      {
        "deltaTime": 0,
        "running": true,
        "channel": 0,
        "type": "noteOff",
        "noteNumber": 96,
        "velocity": 0,
        "byte9": true
      },
      {
        "deltaTime": 5,
        "channel": 0,
        "type": "noteOff",
        "noteNumber": 67,
        "velocity": 0,
        "byte9": true
      },
      {
        "deltaTime": 10,
        "channel": 0,
        "type": "noteOff",
        "noteNumber": 62,
        "velocity": 0,
        "byte9": true
      },
      {
        "deltaTime": 110,
        "channel": 0,
        "type": "noteOn",
        "noteNumber": 88,
        "velocity": 74
      },
      {
        "deltaTime": 0,
        "running": true,
        "channel": 0,
        "type": "noteOn",
        "noteNumber": 96,
        "velocity": 68
      },
      {
        "deltaTime": 0,
        "running": true,
        "channel": 0,
        "type": "noteOn",
        "noteNumber": 100,
        "velocity": 60
      },
      {
        "deltaTime": 5,
        "channel": 0,
        "type": "noteOn",
        "noteNumber": 56,
        "velocity": 63
      },
      {
        "deltaTime": 5,
        "channel": 0,
        "type": "noteOn",
        "noteNumber": 62,
        "velocity": 63
      },
      {
        "deltaTime": 0,
        "running": true,
        "channel": 0,
        "type": "noteOn",
        "noteNumber": 67,
        "velocity": 69
      },
      {
        "deltaTime": 20,
        "channel": 0,
        "type": "noteOff",
        "noteNumber": 96,
        "velocity": 0,
        "byte9": true
      },
      {
        "deltaTime": 0,
        "running": true,
        "channel": 0,
        "type": "noteOff",
        "noteNumber": 100,
        "velocity": 0,
        "byte9": true
      },
      {
        "deltaTime": 10,
        "channel": 0,
        "type": "controller",
        "controllerType": 64,
        "value": 127
      },
      {
        "deltaTime": 20,
        "channel": 0,
        "type": "noteOff",
        "noteNumber": 62,
        "velocity": 0,
        "byte9": true
      },
      {
        "deltaTime": 0,
        "running": true,
        "channel": 0,
        "type": "noteOff",
        "noteNumber": 67,
        "velocity": 0,
        "byte9": true
      },
      {
        "deltaTime": 5,
        "channel": 0,
        "type": "noteOff",
        "noteNumber": 88,
        "velocity": 0,
        "byte9": true
      },
      {
        "deltaTime": 5,
        "channel": 0,
        "type": "noteOff",
        "noteNumber": 56,
        "velocity": 0,
        "byte9": true
      },
      {
        "deltaTime": 205,
        "channel": 0,
        "type": "noteOn",
        "noteNumber": 97,
        "velocity": 81
      },
      {
        "deltaTime": 5,
        "channel": 0,
        "type": "noteOn",
        "noteNumber": 62,
        "velocity": 72
      },
      {
        "deltaTime": 0,
        "running": true,
        "channel": 0,
        "type": "noteOn",
        "noteNumber": 85,
        "velocity": 81
      },
      {
        "deltaTime": 5,
        "channel": 0,
        "type": "noteOn",
        "noteNumber": 56,
        "velocity": 71
      },
      {
        "deltaTime": 0,
        "running": true,
        "channel": 0,
        "type": "noteOn",
        "noteNumber": 67,
        "velocity": 78
      },
      {
        "deltaTime": 45,
        "channel": 0,
        "type": "controller",
        "controllerType": 64,
        "value": 0
      },
      {
        "deltaTime": 15,
        "channel": 0,
        "type": "controller",
        "controllerType": 64,
        "value": 127
      },
      {
        "deltaTime": 0,
        "channel": 0,
        "type": "noteOff",
        "noteNumber": 85,
        "velocity": 0,
        "byte9": true
      },
      {
        "deltaTime": 10,
        "channel": 0,
        "type": "noteOff",
        "noteNumber": 97,
        "velocity": 0,
        "byte9": true
      },
      {
        "deltaTime": 30,
        "channel": 0,
        "type": "noteOff",
        "noteNumber": 62,
        "velocity": 0,
        "byte9": true
      },
      {
        "deltaTime": 30,
        "channel": 0,
        "type": "noteOff",
        "noteNumber": 67,
        "velocity": 0,
        "byte9": true
      },
      {
        "deltaTime": 95,
        "channel": 0,
        "type": "noteOff",
        "noteNumber": 56,
        "velocity": 0,
        "byte9": true
      },
      {
        "deltaTime": 220,
        "channel": 0,
        "type": "noteOn",
        "noteNumber": 61,
        "velocity": 74
      },
      {
        "deltaTime": 0,
        "running": true,
        "channel": 0,
        "type": "noteOn",
        "noteNumber": 93,
        "velocity": 103
      },
      {
        "deltaTime": 5,
        "channel": 0,
        "type": "noteOn",
        "noteNumber": 64,
        "velocity": 88
      },
      {
        "deltaTime": 0,
        "running": true,
        "channel": 0,
        "type": "noteOn",
        "noteNumber": 81,
        "velocity": 99
      },
      {
        "deltaTime": 5,
        "channel": 0,
        "type": "noteOn",
        "noteNumber": 54,
        "velocity": 78
      },
      {
        "deltaTime": 0,
        "running": true,
        "channel": 0,
        "type": "noteOn",
        "noteNumber": 59,
        "velocity": 81
      },
      {
        "deltaTime": 35,
        "channel": 0,
        "type": "controller",
        "controllerType": 64,
        "value": 0
      },
      {
        "deltaTime": 185,
        "channel": 0,
        "type": "controller",
        "controllerType": 64,
        "value": 127
      },
      {
        "deltaTime": 120,
        "channel": 0,
        "type": "noteOff",
        "noteNumber": 93,
        "velocity": 0,
        "byte9": true
      },
      {
        "deltaTime": 45,
        "channel": 0,
        "type": "noteOff",
        "noteNumber": 81,
        "velocity": 0,
        "byte9": true
      },
      {
        "deltaTime": 260,
        "channel": 0,
        "type": "noteOff",
        "noteNumber": 59,
        "velocity": 0,
        "byte9": true
      },
      {
        "deltaTime": 0,
        "running": true,
        "channel": 0,
        "type": "noteOff",
        "noteNumber": 64,
        "velocity": 0,
        "byte9": true
      },
      {
        "deltaTime": 15,
        "channel": 0,
        "type": "noteOff",
        "noteNumber": 54,
        "velocity": 0,
        "byte9": true
      },
      {
        "deltaTime": 50,
        "channel": 0,
        "type": "noteOff",
        "noteNumber": 61,
        "velocity": 0,
        "byte9": true
      },
      {
        "deltaTime": 405,
        "channel": 0,
        "type": "noteOn",
        "noteNumber": 64,
        "velocity": 58
      },
      {
        "deltaTime": 0,
        "running": true,
        "channel": 0,
        "type": "noteOn",
        "noteNumber": 66,
        "velocity": 50
      },
      {
        "deltaTime": 5,
        "channel": 0,
        "type": "controller",
        "controllerType": 64,
        "value": 0
      },
      {
        "deltaTime": 0,
        "channel": 0,
        "type": "noteOn",
        "noteNumber": 61,
        "velocity": 39
      },
      {
        "deltaTime": 5,
        "channel": 0,
        "type": "noteOn",
        "noteNumber": 54,
        "velocity": 34
      },
      {
        "deltaTime": 5,
        "channel": 0,
        "type": "noteOn",
        "noteNumber": 71,
        "velocity": 44
      },
      {
        "deltaTime": 5,
        "channel": 0,
        "type": "noteOn",
        "noteNumber": 59,
        "velocity": 37
      },
      {
        "deltaTime": 20,
        "channel": 0,
        "type": "noteOff",
        "noteNumber": 64,
        "velocity": 0,
        "byte9": true
      },
      {
        "deltaTime": 5,
        "channel": 0,
        "type": "noteOff",
        "noteNumber": 66,
        "velocity": 0,
        "byte9": true
      },
      {
        "deltaTime": 0,
        "running": true,
        "channel": 0,
        "type": "noteOff",
        "noteNumber": 71,
        "velocity": 0,
        "byte9": true
      },
      {
        "deltaTime": 5,
        "channel": 0,
        "type": "noteOff",
        "noteNumber": 54,
        "velocity": 0,
        "byte9": true
      },
      {
        "deltaTime": 5,
        "channel": 0,
        "type": "noteOff",
        "noteNumber": 59,
        "velocity": 0,
        "byte9": true
      },
      {
        "deltaTime": 15,
        "channel": 0,
        "type": "noteOff",
        "noteNumber": 61,
        "velocity": 0,
        "byte9": true
      },
      {
        "deltaTime": 435,
        "channel": 0,
        "type": "controller",
        "controllerType": 64,
        "value": 127
      },
      {
        "deltaTime": 290,
        "channel": 0,
        "type": "noteOn",
        "noteNumber": 55,
        "velocity": 82
      },
      {
        "deltaTime": 0,
        "running": true,
        "channel": 0,
        "type": "noteOn",
        "noteNumber": 63,
        "velocity": 91
      },
      {
        "deltaTime": 5,
        "channel": 0,
        "type": "controller",
        "controllerType": 64,
        "value": 0
      },
      {
        "deltaTime": 0,
        "channel": 0,
        "type": "noteOn",
        "noteNumber": 60,
        "velocity": 75
      },
      {
        "deltaTime": 0,
        "running": true,
        "channel": 0,
        "type": "noteOn",
        "noteNumber": 75,
        "velocity": 98
      },
      {
        "deltaTime": 0,
        "running": true,
        "channel": 0,
        "type": "noteOn",
        "noteNumber": 87,
        "velocity": 95
      },
      {
        "deltaTime": 5,
        "channel": 0,
        "type": "noteOn",
        "noteNumber": 57,
        "velocity": 72
      },
      {
        "deltaTime": 155,
        "channel": 0,
        "type": "controller",
        "controllerType": 64,
        "value": 127
      },
      {
        "deltaTime": 210,
        "channel": 0,
        "type": "noteOff",
        "noteNumber": 55,
        "velocity": 0,
        "byte9": true
      },
      {
        "deltaTime": 25,
        "channel": 0,
        "type": "noteOff",
        "noteNumber": 57,
        "velocity": 0,
        "byte9": true
      },
      {
        "deltaTime": 5,
        "channel": 0,
        "type": "noteOff",
        "noteNumber": 63,
        "velocity": 0,
        "byte9": true
      },
      {
        "deltaTime": 0,
        "running": true,
        "channel": 0,
        "type": "noteOff",
        "noteNumber": 75,
        "velocity": 0,
        "byte9": true
      },
      {
        "deltaTime": 5,
        "channel": 0,
        "type": "noteOff",
        "noteNumber": 87,
        "velocity": 0,
        "byte9": true
      },
      {
        "deltaTime": 35,
        "channel": 0,
        "type": "noteOff",
        "noteNumber": 60,
        "velocity": 0,
        "byte9": true
      },
      {
        "deltaTime": 50,
        "channel": 0,
        "type": "noteOn",
        "noteNumber": 75,
        "velocity": 78
      },
      {
        "deltaTime": 0,
        "running": true,
        "channel": 0,
        "type": "noteOn",
        "noteNumber": 87,
        "velocity": 81
      },
      {
        "deltaTime": 5,
        "channel": 0,
        "type": "noteOn",
        "noteNumber": 55,
        "velocity": 71
      },
      {
        "deltaTime": 0,
        "running": true,
        "channel": 0,
        "type": "noteOn",
        "noteNumber": 63,
        "velocity": 70
      },
      {
        "deltaTime": 5,
        "channel": 0,
        "type": "noteOn",
        "noteNumber": 60,
        "velocity": 65
      },
      {
        "deltaTime": 10,
        "channel": 0,
        "type": "noteOn",
        "noteNumber": 57,
        "velocity": 62
      },
      {
        "deltaTime": 70,
        "channel": 0,
        "type": "noteOff",
        "noteNumber": 63,
        "velocity": 0,
        "byte9": true
      },
      {
        "deltaTime": 20,
        "channel": 0,
        "type": "noteOff",
        "noteNumber": 55,
        "velocity": 0,
        "byte9": true
      },
      {
        "deltaTime": 0,
        "running": true,
        "channel": 0,
        "type": "noteOff",
        "noteNumber": 87,
        "velocity": 0,
        "byte9": true
      },
      {
        "deltaTime": 10,
        "channel": 0,
        "type": "noteOff",
        "noteNumber": 57,
        "velocity": 0,
        "byte9": true
      },
      {
        "deltaTime": 15,
        "channel": 0,
        "type": "noteOff",
        "noteNumber": 75,
        "velocity": 0,
        "byte9": true
      },
      {
        "deltaTime": 5,
        "channel": 0,
        "type": "controller",
        "controllerType": 64,
        "value": 0
      },
      {
        "deltaTime": 0,
        "channel": 0,
        "type": "noteOff",
        "noteNumber": 60,
        "velocity": 0,
        "byte9": true
      },
      {
        "deltaTime": 35,
        "channel": 0,
        "type": "noteOn",
        "noteNumber": 63,
        "velocity": 50
      },
      {
        "deltaTime": 5,
        "channel": 0,
        "type": "noteOn",
        "noteNumber": 55,
        "velocity": 51
      },
      {
        "deltaTime": 5,
        "channel": 0,
        "type": "noteOn",
        "noteNumber": 86,
        "velocity": 65
      },
      {
        "deltaTime": 5,
        "channel": 0,
        "type": "noteOn",
        "noteNumber": 60,
        "velocity": 29
      },
      {
        "deltaTime": 5,
        "channel": 0,
        "type": "noteOn",
        "noteNumber": 74,
        "velocity": 52
      },
      {
        "deltaTime": 35,
        "channel": 0,
        "type": "noteOff",
        "noteNumber": 74,
        "velocity": 0,
        "byte9": true
      },
      {
        "deltaTime": 0,
        "running": true,
        "channel": 0,
        "type": "noteOff",
        "noteNumber": 86,
        "velocity": 0,
        "byte9": true
      },
      {
        "deltaTime": 10,
        "channel": 0,
        "type": "noteOff",
        "noteNumber": 63,
        "velocity": 0,
        "byte9": true
      },
      {
        "deltaTime": 15,
        "channel": 0,
        "type": "noteOff",
        "noteNumber": 55,
        "velocity": 0,
        "byte9": true
      },
      {
        "deltaTime": 25,
        "channel": 0,
        "type": "noteOff",
        "noteNumber": 60,
        "velocity": 0,
        "byte9": true
      },
      {
        "deltaTime": 180,
        "channel": 0,
        "type": "noteOn",
        "noteNumber": 55,
        "velocity": 53
      },
      {
        "deltaTime": 5,
        "channel": 0,
        "type": "noteOn",
        "noteNumber": 63,
        "velocity": 64
      },
      {
        "deltaTime": 10,
        "channel": 0,
        "type": "noteOn",
        "noteNumber": 86,
        "velocity": 78
      },
      {
        "deltaTime": 5,
        "channel": 0,
        "type": "noteOn",
        "noteNumber": 60,
        "velocity": 43
      },
      {
        "deltaTime": 0,
        "running": true,
        "channel": 0,
        "type": "noteOn",
        "noteNumber": 74,
        "velocity": 73
      },
      {
        "deltaTime": 10,
        "channel": 0,
        "type": "controller",
        "controllerType": 64,
        "value": 127
      },
      {
        "deltaTime": 10,
        "channel": 0,
        "type": "noteOn",
        "noteNumber": 76,
        "velocity": 34
      },
      {
        "deltaTime": 20,
        "channel": 0,
        "type": "noteOff",
        "noteNumber": 55,
        "velocity": 0,
        "byte9": true
      },
      {
        "deltaTime": 0,
        "running": true,
        "channel": 0,
        "type": "noteOff",
        "noteNumber": 60,
        "velocity": 0,
        "byte9": true
      },
      {
        "deltaTime": 10,
        "channel": 0,
        "type": "noteOff",
        "noteNumber": 76,
        "velocity": 0,
        "byte9": true
      },
      {
        "deltaTime": 5,
        "channel": 0,
        "type": "noteOff",
        "noteNumber": 86,
        "velocity": 0,
        "byte9": true
      },
      {
        "deltaTime": 10,
        "channel": 0,
        "type": "noteOff",
        "noteNumber": 74,
        "velocity": 0,
        "byte9": true
      },
      {
        "deltaTime": 10,
        "channel": 0,
        "type": "controller",
        "controllerType": 64,
        "value": 0
      },
      {
        "deltaTime": 5,
        "channel": 0,
        "type": "noteOff",
        "noteNumber": 63,
        "velocity": 0,
        "byte9": true
      },
      {
        "deltaTime": 75,
        "channel": 0,
        "type": "noteOn",
        "noteNumber": 60,
        "velocity": 38
      },
      {
        "deltaTime": 5,
        "channel": 0,
        "type": "noteOn",
        "noteNumber": 84,
        "velocity": 59
      },
      {
        "deltaTime": 5,
        "channel": 0,
        "type": "noteOn",
        "noteNumber": 54,
        "velocity": 43
      },
      {
        "deltaTime": 0,
        "running": true,
        "channel": 0,
        "type": "noteOn",
        "noteNumber": 62,
        "velocity": 45
      },
      {
        "deltaTime": 20,
        "channel": 0,
        "type": "noteOff",
        "noteNumber": 84,
        "velocity": 0,
        "byte9": true
      },
      {
        "deltaTime": 5,
        "channel": 0,
        "type": "noteOff",
        "noteNumber": 60,
        "velocity": 0,
        "byte9": true
      },
      {
        "deltaTime": 5,
        "channel": 0,
        "type": "noteOff",
        "noteNumber": 62,
        "velocity": 0,
        "byte9": true
      },
      {
        "deltaTime": 5,
        "channel": 0,
        "type": "noteOff",
        "noteNumber": 54,
        "velocity": 0,
        "byte9": true
      },
      {
        "deltaTime": 275,
        "channel": 0,
        "type": "noteOn",
        "noteNumber": 58,
        "velocity": 67
      },
      {
        "deltaTime": 5,
        "channel": 0,
        "type": "noteOn",
        "noteNumber": 54,
        "velocity": 74
      },
      {
        "deltaTime": 0,
        "running": true,
        "channel": 0,
        "type": "noteOn",
        "noteNumber": 60,
        "velocity": 68
      },
      {
        "deltaTime": 0,
        "running": true,
        "channel": 0,
        "type": "noteOn",
        "noteNumber": 70,
        "velocity": 84
      },
      {
        "deltaTime": 0,
        "running": true,
        "channel": 0,
        "type": "noteOn",
        "noteNumber": 82,
        "velocity": 82
      },
      {
        "deltaTime": 5,
        "channel": 0,
        "type": "noteOn",
        "noteNumber": 62,
        "velocity": 76
      },
      {
        "deltaTime": 135,
        "channel": 0,
        "type": "controller",
        "controllerType": 64,
        "value": 127
      },
      {
        "deltaTime": 140,
        "channel": 0,
        "type": "noteOff",
        "noteNumber": 60,
        "velocity": 0,
        "byte9": true
      },
      {
        "deltaTime": 20,
        "channel": 0,
        "type": "noteOff",
        "noteNumber": 70,
        "velocity": 0,
        "byte9": true
      },
      {
        "deltaTime": 25,
        "channel": 0,
        "type": "noteOff",
        "noteNumber": 82,
        "velocity": 0,
        "byte9": true
      },
      {
        "deltaTime": 90,
        "channel": 0,
        "type": "noteOff",
        "noteNumber": 62,
        "velocity": 0,
        "byte9": true
      },
      {
        "deltaTime": 25,
        "channel": 0,
        "type": "noteOff",
        "noteNumber": 58,
        "velocity": 0,
        "byte9": true
      },
      {
        "deltaTime": 5,
        "channel": 0,
        "type": "noteOff",
        "noteNumber": 54,
        "velocity": 0,
        "byte9": true
      },
      {
        "deltaTime": 35,
        "channel": 0,
        "type": "controller",
        "controllerType": 64,
        "value": 0
      },
      {
        "deltaTime": 0,
        "channel": 0,
        "type": "noteOn",
        "noteNumber": 62,
        "velocity": 79
      },
      {
        "deltaTime": 5,
        "channel": 0,
        "type": "noteOn",
        "noteNumber": 57,
        "velocity": 75
      },
      {
        "deltaTime": 0,
        "running": true,
        "channel": 0,
        "type": "noteOn",
        "noteNumber": 58,
        "velocity": 76
      },
      {
        "deltaTime": 0,
        "running": true,
        "channel": 0,
        "type": "noteOn",
        "noteNumber": 81,
        "velocity": 89
      },
      {
        "deltaTime": 5,
        "channel": 0,
        "type": "noteOn",
        "noteNumber": 53,
        "velocity": 73
      },
      {
        "deltaTime": 0,
        "running": true,
        "channel": 0,
        "type": "noteOn",
        "noteNumber": 69,
        "velocity": 91
      },
      {
        "deltaTime": 0,
        "running": true,
        "channel": 0,
        "type": "noteOn",
        "noteNumber": 74,
        "velocity": 91
      },
      {
        "deltaTime": 5,
        "channel": 0,
        "type": "noteOn",
        "noteNumber": 80,
        "velocity": 62
      },
      {
        "deltaTime": 20,
        "channel": 0,
        "type": "noteOn",
        "noteNumber": 71,
        "velocity": 36
      },
      {
        "deltaTime": 30,
        "channel": 0,
        "type": "noteOff",
        "noteNumber": 71,
        "velocity": 0,
        "byte9": true
      },
      {
        "deltaTime": 15,
        "channel": 0,
        "type": "noteOff",
        "noteNumber": 80,
        "velocity": 0,
        "byte9": true
      },
      {
        "deltaTime": 580,
        "channel": 0,
        "type": "controller",
        "controllerType": 64,
        "value": 127
      },
      {
        "deltaTime": 295,
        "channel": 0,
        "type": "noteOff",
        "noteNumber": 81,
        "velocity": 0,
        "byte9": true
      },
      {
        "deltaTime": 55,
        "channel": 0,
        "type": "noteOff",
        "noteNumber": 69,
        "velocity": 0,
        "byte9": true
      },
      {
        "deltaTime": 10,
        "channel": 0,
        "type": "noteOff",
        "noteNumber": 57,
        "velocity": 0,
        "byte9": true
      },
      {
        "deltaTime": 0,
        "running": true,
        "channel": 0,
        "type": "noteOff",
        "noteNumber": 62,
        "velocity": 0,
        "byte9": true
      },
      {
        "deltaTime": 5,
        "channel": 0,
        "type": "noteOff",
        "noteNumber": 58,
        "velocity": 0,
        "byte9": true
      },
      {
        "deltaTime": 5,
        "channel": 0,
        "type": "noteOff",
        "noteNumber": 53,
        "velocity": 0,
        "byte9": true
      },
      {
        "deltaTime": 15,
        "channel": 0,
        "type": "controller",
        "controllerType": 64,
        "value": 0
      },
      {
        "deltaTime": 0,
        "channel": 0,
        "type": "noteOff",
        "noteNumber": 74,
        "velocity": 0,
        "byte9": true
      },
      {
        "deltaTime": 85,
        "channel": 0,
        "type": "noteOn",
        "noteNumber": 58,
        "velocity": 40
      },
      {
        "deltaTime": 5,
        "channel": 0,
        "type": "noteOn",
        "noteNumber": 62,
        "velocity": 49
      },
      {
        "deltaTime": 0,
        "running": true,
        "channel": 0,
        "type": "noteOn",
        "noteNumber": 79,
        "velocity": 37
      },
      {
        "deltaTime": 5,
        "channel": 0,
        "type": "noteOn",
        "noteNumber": 67,
        "velocity": 36
      },
      {
        "deltaTime": 0,
        "running": true,
        "channel": 0,
        "type": "noteOn",
        "noteNumber": 74,
        "velocity": 34
      },
      {
        "deltaTime": 5,
        "channel": 0,
        "type": "noteOn",
        "noteNumber": 57,
        "velocity": 31
      },
      {
        "deltaTime": 20,
        "channel": 0,
        "type": "noteOff",
        "noteNumber": 58,
        "velocity": 0,
        "byte9": true
      },
      {
        "deltaTime": 0,
        "running": true,
        "channel": 0,
        "type": "noteOff",
        "noteNumber": 62,
        "velocity": 0,
        "byte9": true
      },
      {
        "deltaTime": 5,
        "channel": 0,
        "type": "noteOff",
        "noteNumber": 67,
        "velocity": 0,
        "byte9": true
      },
      {
        "deltaTime": 5,
        "channel": 0,
        "type": "noteOff",
        "noteNumber": 57,
        "velocity": 0,
        "byte9": true
      },
      {
        "deltaTime": 5,
        "channel": 0,
        "type": "noteOff",
        "noteNumber": 74,
        "velocity": 0,
        "byte9": true
      },
      {
        "deltaTime": 0,
        "running": true,
        "channel": 0,
        "type": "noteOff",
        "noteNumber": 79,
        "velocity": 0,
        "byte9": true
      },
      {
        "deltaTime": 420,
        "channel": 0,
        "type": "noteOn",
        "noteNumber": 81,
        "velocity": 62
      },
      {
        "deltaTime": 5,
        "channel": 0,
        "type": "noteOn",
        "noteNumber": 62,
        "velocity": 61
      },
      {
        "deltaTime": 5,
        "channel": 0,
        "type": "noteOn",
        "noteNumber": 69,
        "velocity": 63
      },
      {
        "deltaTime": 5,
        "channel": 0,
        "type": "noteOn",
        "noteNumber": 58,
        "velocity": 40
      },
      {
        "deltaTime": 0,
        "running": true,
        "channel": 0,
        "type": "noteOn",
        "noteNumber": 74,
        "velocity": 61
      },
      {
        "deltaTime": 25,
        "channel": 0,
        "type": "noteOff",
        "noteNumber": 62,
        "velocity": 0,
        "byte9": true
      },
      {
        "deltaTime": 5,
        "channel": 0,
        "type": "noteOff",
        "noteNumber": 74,
        "velocity": 0,
        "byte9": true
      },
      {
        "deltaTime": 15,
        "channel": 0,
        "type": "noteOff",
        "noteNumber": 81,
        "velocity": 0,
        "byte9": true
      },
      {
        "deltaTime": 5,
        "channel": 0,
        "type": "noteOff",
        "noteNumber": 69,
        "velocity": 0,
        "byte9": true
      },
      {
        "deltaTime": 15,
        "channel": 0,
        "type": "noteOff",
        "noteNumber": 58,
        "velocity": 0,
        "byte9": true
      },
      {
        "deltaTime": 400,
        "channel": 0,
        "type": "noteOn",
        "noteNumber": 72,
        "velocity": 73
      },
      {
        "deltaTime": 5,
        "channel": 0,
        "type": "noteOn",
        "noteNumber": 63,
        "velocity": 77
      },
      {
        "deltaTime": 5,
        "channel": 0,
        "type": "noteOn",
        "noteNumber": 68,
        "velocity": 62
      },
      {
        "deltaTime": 5,
        "channel": 0,
        "type": "noteOn",
        "noteNumber": 58,
        "velocity": 68
      },
      {
        "deltaTime": 5,
        "channel": 0,
        "type": "noteOn",
        "noteNumber": 64,
        "velocity": 68
      },
      {
        "deltaTime": 25,
        "channel": 0,
        "type": "noteOff",
        "noteNumber": 64,
        "velocity": 0,
        "byte9": true
      },
      {
        "deltaTime": 5,
        "channel": 0,
        "type": "noteOff",
        "noteNumber": 63,
        "velocity": 0,
        "byte9": true
      },
      {
        "deltaTime": 15,
        "channel": 0,
        "type": "noteOff",
        "noteNumber": 68,
        "velocity": 0,
        "byte9": true
      },
      {
        "deltaTime": 0,
        "running": true,
        "channel": 0,
        "type": "noteOff",
        "noteNumber": 72,
        "velocity": 0,
        "byte9": true
      },
      {
        "deltaTime": 60,
        "channel": 0,
        "type": "noteOn",
        "noteNumber": 63,
        "velocity": 56
      },
      {
        "deltaTime": 5,
        "channel": 0,
        "type": "noteOn",
        "noteNumber": 72,
        "velocity": 39
      },
      {
        "deltaTime": 5,
        "channel": 0,
        "type": "noteOn",
        "noteNumber": 68,
        "velocity": 43
      },
      {
        "deltaTime": 5,
        "channel": 0,
        "type": "noteOn",
        "noteNumber": 64,
        "velocity": 36
      },
      {
        "deltaTime": 25,
        "channel": 0,
        "type": "noteOff",
        "noteNumber": 72,
        "velocity": 0,
        "byte9": true
      },
      {
        "deltaTime": 5,
        "channel": 0,
        "type": "noteOff",
        "noteNumber": 63,
        "velocity": 0,
        "byte9": true
      },
      {
        "deltaTime": 5,
        "channel": 0,
        "type": "noteOff",
        "noteNumber": 64,
        "velocity": 0,
        "byte9": true
      },
      {
        "deltaTime": 0,
        "running": true,
        "channel": 0,
        "type": "noteOff",
        "noteNumber": 68,
        "velocity": 0,
        "byte9": true
      },
      {
        "deltaTime": 20,
        "channel": 0,
        "type": "noteOff",
        "noteNumber": 58,
        "velocity": 0,
        "byte9": true
      },
      {
        "deltaTime": 265,
        "channel": 0,
        "type": "noteOn",
        "noteNumber": 63,
        "velocity": 76
      },
      {
        "deltaTime": 0,
        "running": true,
        "channel": 0,
        "type": "noteOn",
        "noteNumber": 68,
        "velocity": 74
      },
      {
        "deltaTime": 5,
        "channel": 0,
        "type": "noteOn",
        "noteNumber": 64,
        "velocity": 67
      },
      {
        "deltaTime": 0,
        "running": true,
        "channel": 0,
        "type": "noteOn",
        "noteNumber": 72,
        "velocity": 78
      },
      {
        "deltaTime": 10,
        "channel": 0,
        "type": "noteOn",
        "noteNumber": 58,
        "velocity": 59
      },
      {
        "deltaTime": 5,
        "channel": 0,
        "type": "controller",
        "controllerType": 64,
        "value": 127
      },
      {
        "deltaTime": 80,
        "channel": 0,
        "type": "noteOff",
        "noteNumber": 64,
        "velocity": 0,
        "byte9": true
      },
      {
        "deltaTime": 30,
        "channel": 0,
        "type": "noteOff",
        "noteNumber": 72,
        "velocity": 0,
        "byte9": true
      },
      {
        "deltaTime": 25,
        "channel": 0,
        "type": "noteOff",
        "noteNumber": 63,
        "velocity": 0,
        "byte9": true
      },
      {
        "deltaTime": 5,
        "channel": 0,
        "type": "noteOff",
        "noteNumber": 58,
        "velocity": 0,
        "byte9": true
      },
      {
        "deltaTime": 0,
        "running": true,
        "channel": 0,
        "type": "noteOff",
        "noteNumber": 68,
        "velocity": 0,
        "byte9": true
      },
      {
        "deltaTime": 150,
        "channel": 0,
        "type": "controller",
        "controllerType": 64,
        "value": 0
      },
      {
        "deltaTime": 15,
        "channel": 0,
        "type": "noteOn",
        "noteNumber": 69,
        "velocity": 79
      },
      {
        "deltaTime": 5,
        "channel": 0,
        "type": "noteOn",
        "noteNumber": 58,
        "velocity": 71
      },
      {
        "deltaTime": 0,
        "running": true,
        "channel": 0,
        "type": "noteOn",
        "noteNumber": 64,
        "velocity": 71
      },
      {
        "deltaTime": 10,
        "channel": 0,
        "type": "noteOn",
        "noteNumber": 57,
        "velocity": 71
      },
      {
        "deltaTime": 125,
        "channel": 0,
        "type": "noteOff",
        "noteNumber": 69,
        "velocity": 0,
        "byte9": true
      },
      {
        "deltaTime": 20,
        "channel": 0,
        "type": "noteOff",
        "noteNumber": 58,
        "velocity": 0,
        "byte9": true
      },
      {
        "deltaTime": 5,
        "channel": 0,
        "type": "noteOff",
        "noteNumber": 64,
        "velocity": 0,
        "byte9": true
      },
      {
        "deltaTime": 60,
        "channel": 0,
        "type": "noteOff",
        "noteNumber": 57,
        "velocity": 0,
        "byte9": true
      },
      {
        "deltaTime": 25,
        "channel": 0,
        "type": "noteOn",
        "noteNumber": 67,
        "velocity": 55
      },
      {
        "deltaTime": 5,
        "channel": 0,
        "type": "noteOn",
        "noteNumber": 58,
        "velocity": 34
      },
      {
        "deltaTime": 20,
        "channel": 0,
        "type": "noteOn",
        "noteNumber": 55,
        "velocity": 43
      },
      {
        "deltaTime": 0,
        "running": true,
        "channel": 0,
        "type": "noteOn",
        "noteNumber": 61,
        "velocity": 38
      },
      {
        "deltaTime": 140,
        "channel": 0,
        "type": "noteOff",
        "noteNumber": 61,
        "velocity": 0,
        "byte9": true
      },
      {
        "deltaTime": 5,
        "channel": 0,
        "type": "noteOff",
        "noteNumber": 58,
        "velocity": 0,
        "byte9": true
      },
      {
        "deltaTime": 25,
        "channel": 0,
        "type": "noteOff",
        "noteNumber": 67,
        "velocity": 0,
        "byte9": true
      },
      {
        "deltaTime": 55,
        "channel": 0,
        "type": "noteOn",
        "noteNumber": 58,
        "velocity": 74
      },
      {
        "deltaTime": 10,
        "channel": 0,
        "type": "noteOn",
        "noteNumber": 61,
        "velocity": 59
      },
      {
        "deltaTime": 0,
        "running": true,
        "channel": 0,
        "type": "noteOn",
        "noteNumber": 69,
        "velocity": 70
      },
      {
        "deltaTime": 5,
        "channel": 0,
        "type": "noteOn",
        "noteNumber": 57,
        "velocity": 67
      },
      {
        "deltaTime": 0,
        "running": true,
        "channel": 0,
        "type": "noteOn",
        "noteNumber": 64,
        "velocity": 67
      },
      {
        "deltaTime": 5,
        "channel": 0,
        "type": "noteOn",
        "noteNumber": 67,
        "velocity": 36
      },
      {
        "deltaTime": 15,
        "channel": 0,
        "type": "noteOff",
        "noteNumber": 55,
        "velocity": 0,
        "byte9": true
      },
      {
        "deltaTime": 0,
        "running": true,
        "channel": 0,
        "type": "noteOff",
        "noteNumber": 69,
        "velocity": 0,
        "byte9": true
      },
      {
        "deltaTime": 15,
        "channel": 0,
        "type": "noteOff",
        "noteNumber": 67,
        "velocity": 0,
        "byte9": true
      },
      {
        "deltaTime": 5,
        "channel": 0,
        "type": "noteOff",
        "noteNumber": 57,
        "velocity": 0,
        "byte9": true
      },
      {
        "deltaTime": 15,
        "channel": 0,
        "type": "noteOff",
        "noteNumber": 64,
        "velocity": 0,
        "byte9": true
      },
      {
        "deltaTime": 20,
        "channel": 0,
        "type": "noteOff",
        "noteNumber": 58,
        "velocity": 0,
        "byte9": true
      },
      {
        "deltaTime": 10,
        "channel": 0,
        "type": "noteOff",
        "noteNumber": 61,
        "velocity": 0,
        "byte9": true
      },
      {
        "deltaTime": 330,
        "channel": 0,
        "type": "noteOn",
        "noteNumber": 58,
        "velocity": 74
      },
      {
        "deltaTime": 5,
        "channel": 0,
        "type": "noteOn",
        "noteNumber": 53,
        "velocity": 80
      },
      {
        "deltaTime": 0,
        "running": true,
        "channel": 0,
        "type": "noteOn",
        "noteNumber": 62,
        "velocity": 79
      },
      {
        "deltaTime": 5,
        "channel": 0,
        "type": "noteOn",
        "noteNumber": 50,
        "velocity": 73
      },
      {
        "deltaTime": 25,
        "channel": 0,
        "type": "noteOn",
        "noteNumber": 49,
        "velocity": 44
      },
      {
        "deltaTime": 30,
        "channel": 0,
        "type": "noteOff",
        "noteNumber": 49,
        "velocity": 0,
        "byte9": true
      },
      {
        "deltaTime": 245,
        "channel": 0,
        "type": "controller",
        "controllerType": 64,
        "value": 127
      },
      {
        "deltaTime": 110,
        "channel": 0,
        "type": "noteOff",
        "noteNumber": 62,
        "velocity": 0,
        "byte9": true
      },
      {
        "deltaTime": 50,
        "channel": 0,
        "type": "noteOff",
        "noteNumber": 53,
        "velocity": 0,
        "byte9": true
      },
      {
        "deltaTime": 5,
        "channel": 0,
        "type": "noteOff",
        "noteNumber": 58,
        "velocity": 0,
        "byte9": true
      },
      {
        "deltaTime": 65,
        "channel": 0,
        "type": "noteOn",
        "noteNumber": 49,
        "velocity": 49
      },
      {
        "deltaTime": 20,
        "channel": 0,
        "type": "noteOff",
        "noteNumber": 50,
        "velocity": 0,
        "byte9": true
      },
      {
        "deltaTime": 5,
        "channel": 0,
        "type": "noteOn",
        "noteNumber": 51,
        "velocity": 50
      },
      {
        "deltaTime": 40,
        "channel": 0,
        "type": "noteOn",
        "noteNumber": 50,
        "velocity": 16
      },
      {
        "deltaTime": 20,
        "channel": 0,
        "type": "noteOff",
        "noteNumber": 49,
        "velocity": 0,
        "byte9": true
      },
      {
        "deltaTime": 20,
        "channel": 0,
        "type": "noteOff",
        "noteNumber": 50,
        "velocity": 0,
        "byte9": true
      },
      {
        "deltaTime": 0,
        "running": true,
        "channel": 0,
        "type": "noteOn",
        "noteNumber": 53,
        "velocity": 55
      },
      {
        "deltaTime": 0,
        "running": true,
        "channel": 0,
        "type": "noteOn",
        "noteNumber": 67,
        "velocity": 72
      },
      {
        "deltaTime": 5,
        "channel": 0,
        "type": "noteOn",
        "noteNumber": 58,
        "velocity": 69
      },
      {
        "deltaTime": 10,
        "channel": 0,
        "type": "noteOff",
        "noteNumber": 51,
        "velocity": 0,
        "byte9": true
      },
      {
        "deltaTime": 0,
        "running": true,
        "channel": 0,
        "type": "noteOn",
        "noteNumber": 65,
        "velocity": 62
      },
      {
        "deltaTime": 5,
        "channel": 0,
        "type": "controller",
        "controllerType": 64,
        "value": 0
      },
      {
        "deltaTime": 0,
        "channel": 0,
        "type": "noteOn",
        "noteNumber": 55,
        "velocity": 83
      },
      {
        "deltaTime": 0,
        "running": true,
        "channel": 0,
        "type": "noteOn",
        "noteNumber": 62,
        "velocity": 58
      },
      {
        "deltaTime": 5,
        "channel": 0,
        "type": "noteOff",
        "noteNumber": 53,
        "velocity": 0,
        "byte9": true
      },
      {
        "deltaTime": 225,
        "channel": 0,
        "type": "noteOff",
        "noteNumber": 67,
        "velocity": 0,
        "byte9": true
      },
      {
        "deltaTime": 5,
        "channel": 0,
        "type": "noteOff",
        "noteNumber": 65,
        "velocity": 0,
        "byte9": true
      },
      {
        "deltaTime": 125,
        "channel": 0,
        "type": "noteOff",
        "noteNumber": 62,
        "velocity": 0,
        "byte9": true
      },
      {
        "deltaTime": 5,
        "channel": 0,
        "type": "noteOn",
        "noteNumber": 53,
        "velocity": 31
      },
      {
        "deltaTime": 20,
        "channel": 0,
        "type": "noteOff",
        "noteNumber": 58,
        "velocity": 0,
        "byte9": true
      },
      {
        "deltaTime": 5,
        "channel": 0,
        "type": "noteOn",
        "noteNumber": 54,
        "velocity": 37
      },
      {
        "deltaTime": 65,
        "channel": 0,
        "type": "noteOff",
        "noteNumber": 54,
        "velocity": 0,
        "byte9": true
      },
      {
        "deltaTime": 5,
        "channel": 0,
        "type": "noteOff",
        "noteNumber": 53,
        "velocity": 0,
        "byte9": true
      },
      {
        "deltaTime": 5,
        "channel": 0,
        "type": "noteOn",
        "noteNumber": 58,
        "velocity": 62
      },
      {
        "deltaTime": 5,
        "channel": 0,
        "type": "noteOff",
        "noteNumber": 55,
        "velocity": 0,
        "byte9": true
      },
      {
        "deltaTime": 0,
        "running": true,
        "channel": 0,
        "type": "noteOn",
        "noteNumber": 57,
        "velocity": 55
      },
      {
        "deltaTime": 5,
        "channel": 0,
        "type": "noteOn",
        "noteNumber": 69,
        "velocity": 62
      },
      {
        "deltaTime": 5,
        "channel": 0,
        "type": "noteOn",
        "noteNumber": 65,
        "velocity": 57
      },
      {
        "deltaTime": 5,
        "channel": 0,
        "type": "noteOn",
        "noteNumber": 62,
        "velocity": 60
      },
      {
        "deltaTime": 245,
        "channel": 0,
        "type": "noteOff",
        "noteNumber": 62,
        "velocity": 0,
        "byte9": true
      },
      {
        "deltaTime": 5,
        "channel": 0,
        "type": "noteOff",
        "noteNumber": 58,
        "velocity": 0,
        "byte9": true
      },
      {
        "deltaTime": 0,
        "running": true,
        "channel": 0,
        "type": "noteOff",
        "noteNumber": 69,
        "velocity": 0,
        "byte9": true
      },
      {
        "deltaTime": 25,
        "channel": 0,
        "type": "noteOff",
        "noteNumber": 65,
        "velocity": 0,
        "byte9": true
      },
      {
        "deltaTime": 45,
        "channel": 0,
        "type": "noteOn",
        "noteNumber": 58,
        "velocity": 49
      },
      {
        "deltaTime": 10,
        "channel": 0,
        "type": "noteOn",
        "noteNumber": 55,
        "velocity": 60
      },
      {
        "deltaTime": 0,
        "running": true,
        "channel": 0,
        "type": "noteOn",
        "noteNumber": 62,
        "velocity": 55
      },
      {
        "deltaTime": 5,
        "channel": 0,
        "type": "noteOn",
        "noteNumber": 67,
        "velocity": 58
      },
      {
        "deltaTime": 35,
        "channel": 0,
        "type": "noteOn",
        "noteNumber": 65,
        "velocity": 30
      },
      {
        "deltaTime": 25,
        "channel": 0,
        "type": "noteOff",
        "noteNumber": 57,
        "velocity": 0,
        "byte9": true
      },
      {
        "deltaTime": 15,
        "channel": 0,
        "type": "noteOff",
        "noteNumber": 65,
        "velocity": 0,
        "byte9": true
      },
      {
        "deltaTime": 15,
        "channel": 0,
        "type": "noteOff",
        "noteNumber": 62,
        "velocity": 0,
        "byte9": true
      },
      {
        "deltaTime": 5,
        "channel": 0,
        "type": "noteOff",
        "noteNumber": 58,
        "velocity": 0,
        "byte9": true
      },
      {
        "deltaTime": 5,
        "channel": 0,
        "type": "noteOff",
        "noteNumber": 55,
        "velocity": 0,
        "byte9": true
      },
      {
        "deltaTime": 20,
        "channel": 0,
        "type": "noteOff",
        "noteNumber": 67,
        "velocity": 0,
        "byte9": true
      },
      {
        "deltaTime": 320,
        "channel": 0,
        "type": "noteOn",
        "noteNumber": 55,
        "velocity": 71
      },
      {
        "deltaTime": 20,
        "channel": 0,
        "type": "noteOn",
        "noteNumber": 58,
        "velocity": 83
      },
      {
        "deltaTime": 0,
        "running": true,
        "channel": 0,
        "type": "noteOn",
        "noteNumber": 61,
        "velocity": 83
      },
      {
        "deltaTime": 0,
        "running": true,
        "channel": 0,
        "type": "noteOn",
        "noteNumber": 69,
        "velocity": 84
      },
      {
        "deltaTime": 5,
        "channel": 0,
        "type": "noteOn",
        "noteNumber": 64,
        "velocity": 77
      },
      {
        "deltaTime": 5,
        "channel": 0,
        "type": "noteOn",
        "noteNumber": 57,
        "velocity": 81
      },
      {
        "deltaTime": 35,
        "channel": 0,
        "type": "noteOff",
        "noteNumber": 55,
        "velocity": 0,
        "byte9": true
      },
      {
        "deltaTime": 155,
        "channel": 0,
        "type": "controller",
        "controllerType": 64,
        "value": 127
      },
      {
        "deltaTime": 75,
        "channel": 0,
        "type": "noteOff",
        "noteNumber": 58,
        "velocity": 0,
        "byte9": true
      },
      {
        "deltaTime": 30,
        "channel": 0,
        "type": "noteOff",
        "noteNumber": 57,
        "velocity": 0,
        "byte9": true
      },
      {
        "deltaTime": 5,
        "channel": 0,
        "type": "noteOff",
        "noteNumber": 64,
        "velocity": 0,
        "byte9": true
      },
      {
        "deltaTime": 5,
        "channel": 0,
        "type": "noteOff",
        "noteNumber": 61,
        "velocity": 0,
        "byte9": true
      },
      {
        "deltaTime": 5,
        "channel": 0,
        "type": "noteOff",
        "noteNumber": 69,
        "velocity": 0,
        "byte9": true
      },
      {
        "deltaTime": 195,
        "channel": 0,
        "type": "noteOn",
        "noteNumber": 69,
        "velocity": 74
      },
      {
        "deltaTime": 45,
        "channel": 0,
        "type": "noteOff",
        "noteNumber": 69,
        "velocity": 0,
        "byte9": true
      },
      {
        "deltaTime": 20,
        "channel": 0,
        "type": "controller",
        "controllerType": 64,
        "value": 0
      },
      {
        "deltaTime": 70,
        "channel": 0,
        "type": "noteOn",
        "noteNumber": 74,
        "velocity": 64
      },
      {
        "deltaTime": 100,
        "channel": 0,
        "type": "noteOff",
        "noteNumber": 74,
        "velocity": 0,
        "byte9": true
      },
      {
        "deltaTime": 35,
        "channel": 0,
        "type": "noteOn",
        "noteNumber": 78,
        "velocity": 62
      },
      {
        "deltaTime": 50,
        "channel": 0,
        "type": "noteOff",
        "noteNumber": 78,
        "velocity": 0,
        "byte9": true
      },
      {
        "deltaTime": 60,
        "channel": 0,
        "type": "noteOn",
        "noteNumber": 81,
        "velocity": 75
      },
      {
        "deltaTime": 60,
        "channel": 0,
        "type": "noteOff",
        "noteNumber": 81,
        "velocity": 0,
        "byte9": true
      },
      {
        "deltaTime": 55,
        "channel": 0,
        "type": "noteOn",
        "noteNumber": 86,
        "velocity": 76
      },
      {
        "deltaTime": 55,
        "channel": 0,
        "type": "noteOff",
        "noteNumber": 86,
        "velocity": 0,
        "byte9": true
      },
      {
        "deltaTime": 45,
        "channel": 0,
        "type": "noteOn",
        "noteNumber": 58,
        "velocity": 45
      },
      {
        "deltaTime": 10,
        "channel": 0,
        "type": "noteOn",
        "noteNumber": 62,
        "velocity": 54
      },
      {
        "deltaTime": 10,
        "channel": 0,
        "type": "noteOn",
        "noteNumber": 57,
        "velocity": 46
      },
      {
        "deltaTime": 5,
        "channel": 0,
        "type": "noteOn",
        "noteNumber": 90,
        "velocity": 69
      },
      {
        "deltaTime": 15,
        "channel": 0,
        "type": "noteOn",
        "noteNumber": 52,
        "velocity": 42
      },
      {
        "deltaTime": 5,
        "channel": 0,
        "type": "noteOff",
        "noteNumber": 90,
        "velocity": 0,
        "byte9": true
      },
      {
        "deltaTime": 5,
        "channel": 0,
        "type": "noteOn",
        "noteNumber": 89,
        "velocity": 52
      },
      {
        "deltaTime": 30,
        "channel": 0,
        "type": "noteOff",
        "noteNumber": 89,
        "velocity": 0,
        "byte9": true
      },
      {
        "deltaTime": 70,
        "channel": 0,
        "type": "noteOn",
        "noteNumber": 93,
        "velocity": 84
      },
      {
        "deltaTime": 90,
        "channel": 0,
        "type": "controller",
        "controllerType": 64,
        "value": 127
      },
      {
        "deltaTime": 105,
        "channel": 0,
        "type": "noteOff",
        "noteNumber": 58,
        "velocity": 0,
        "byte9": true
      },
      {
        "deltaTime": 20,
        "channel": 0,
        "type": "noteOff",
        "noteNumber": 57,
        "velocity": 0,
        "byte9": true
      },
      {
        "deltaTime": 5,
        "channel": 0,
        "type": "noteOff",
        "noteNumber": 62,
        "velocity": 0,
        "byte9": true
      },
      {
        "deltaTime": 65,
        "channel": 0,
        "type": "noteOff",
        "noteNumber": 93,
        "velocity": 0,
        "byte9": true
      },
      {
        "deltaTime": 45,
        "channel": 0,
        "type": "controller",
        "controllerType": 64,
        "value": 0
      },
      {
        "deltaTime": 15,
        "channel": 0,
        "type": "noteOn",
        "noteNumber": 91,
        "velocity": 78
      },
      {
        "deltaTime": 5,
        "channel": 0,
        "type": "noteOn",
        "noteNumber": 57,
        "velocity": 54
      },
      {
        "deltaTime": 0,
        "running": true,
        "channel": 0,
        "type": "noteOn",
        "noteNumber": 58,
        "velocity": 45
      },
      {
        "deltaTime": 5,
        "channel": 0,
        "type": "noteOn",
        "noteNumber": 62,
        "velocity": 49
      },
      {
        "deltaTime": 45,
        "channel": 0,
        "type": "controller",
        "controllerType": 64,
        "value": 127
      },
      {
        "deltaTime": 95,
        "channel": 0,
        "type": "noteOff",
        "noteNumber": 58,
        "velocity": 0,
        "byte9": true
      },
      {
        "deltaTime": 10,
        "channel": 0,
        "type": "noteOff",
        "noteNumber": 62,
        "velocity": 0,
        "byte9": true
      },
      {
        "deltaTime": 50,
        "channel": 0,
        "type": "noteOff",
        "noteNumber": 91,
        "velocity": 0,
        "byte9": true
      },
      {
        "deltaTime": 30,
        "channel": 0,
        "type": "noteOff",
        "noteNumber": 57,
        "velocity": 0,
        "byte9": true
      },
      {
        "deltaTime": 50,
        "channel": 0,
        "type": "noteOn",
        "noteNumber": 57,
        "velocity": 14
      },
      {
        "deltaTime": 10,
        "channel": 0,
        "type": "noteOn",
        "noteNumber": 62,
        "velocity": 45
      },
      {
        "deltaTime": 0,
        "running": true,
        "channel": 0,
        "type": "noteOn",
        "noteNumber": 90,
        "velocity": 77
      },
      {
        "deltaTime": 5,
        "channel": 0,
        "type": "noteOn",
        "noteNumber": 58,
        "velocity": 32
      },
      {
        "deltaTime": 10,
        "channel": 0,
        "type": "noteOff",
        "noteNumber": 52,
        "velocity": 0,
        "byte9": true
      },
      {
        "deltaTime": 35,
        "channel": 0,
        "type": "noteOff",
        "noteNumber": 58,
        "velocity": 0,
        "byte9": true
      },
      {
        "deltaTime": 10,
        "channel": 0,
        "type": "noteOff",
        "noteNumber": 62,
        "velocity": 0,
        "byte9": true
      },
      {
        "deltaTime": 35,
        "channel": 0,
        "type": "noteOff",
        "noteNumber": 57,
        "velocity": 0,
        "byte9": true
      },
      {
        "deltaTime": 40,
        "channel": 0,
        "type": "controller",
        "controllerType": 64,
        "value": 0
      },
      {
        "deltaTime": 0,
        "channel": 0,
        "type": "noteOff",
        "noteNumber": 90,
        "velocity": 0,
        "byte9": true
      },
      {
        "deltaTime": 15,
        "channel": 0,
        "type": "noteOn",
        "noteNumber": 64,
        "velocity": 61
      },
      {
        "deltaTime": 15,
        "channel": 0,
        "type": "noteOn",
        "noteNumber": 57,
        "velocity": 43
      },
      {
        "deltaTime": 0,
        "running": true,
        "channel": 0,
        "type": "noteOn",
        "noteNumber": 60,
        "velocity": 45
      },
      {
        "deltaTime": 5,
        "channel": 0,
        "type": "noteOn",
        "noteNumber": 91,
        "velocity": 66
      },
      {
        "deltaTime": 5,
        "channel": 0,
        "type": "noteOn",
        "noteNumber": 86,
        "velocity": 54
      },
      {
        "deltaTime": 20,
        "channel": 0,
        "type": "noteOn",
        "noteNumber": 53,
        "velocity": 17
      },
      {
        "deltaTime": 5,
        "channel": 0,
        "type": "noteOff",
        "noteNumber": 60,
        "velocity": 0,
        "byte9": true
      },
      {
        "deltaTime": 85,
        "channel": 0,
        "type": "noteOff",
        "noteNumber": 57,
        "velocity": 0,
        "byte9": true
      },
      {
        "deltaTime": 10,
        "channel": 0,
        "type": "noteOff",
        "noteNumber": 86,
        "velocity": 0,
        "byte9": true
      },
      {
        "deltaTime": 10,
        "channel": 0,
        "type": "noteOff",
        "noteNumber": 64,
        "velocity": 0,
        "byte9": true
      },
      {
        "deltaTime": 15,
        "channel": 0,
        "type": "noteOff",
        "noteNumber": 91,
        "velocity": 0,
        "byte9": true
      },
      {
        "deltaTime": 5,
        "channel": 0,
        "type": "noteOff",
        "noteNumber": 53,
        "velocity": 0,
        "byte9": true
      },
      {
        "deltaTime": 130,
        "channel": 0,
        "type": "noteOn",
        "noteNumber": 91,
        "velocity": 66
      },
      {
        "deltaTime": 5,
        "channel": 0,
        "type": "noteOn",
        "noteNumber": 64,
        "velocity": 64
      },
      {
        "deltaTime": 5,
        "channel": 0,
        "type": "noteOn",
        "noteNumber": 79,
        "velocity": 50
      },
      {
        "deltaTime": 5,
        "channel": 0,
        "type": "noteOn",
        "noteNumber": 57,
        "velocity": 47
      },
      {
        "deltaTime": 0,
        "running": true,
        "channel": 0,
        "type": "noteOn",
        "noteNumber": 60,
        "velocity": 50
      },
      {
        "deltaTime": 0,
        "running": true,
        "channel": 0,
        "type": "noteOn",
        "noteNumber": 86,
        "velocity": 64
      },
      {
        "deltaTime": 10,
        "channel": 0,
        "type": "noteOn",
        "noteNumber": 53,
        "velocity": 28
      },
      {
        "deltaTime": 10,
        "channel": 0,
        "type": "noteOff",
        "noteNumber": 86,
        "velocity": 0,
        "byte9": true
      },
      {
        "deltaTime": 5,
        "channel": 0,
        "type": "noteOff",
        "noteNumber": 60,
        "velocity": 0,
        "byte9": true
      },
      {
        "deltaTime": 0,
        "running": true,
        "channel": 0,
        "type": "noteOff",
        "noteNumber": 79,
        "velocity": 0,
        "byte9": true
      },
      {
        "deltaTime": 10,
        "channel": 0,
        "type": "noteOff",
        "noteNumber": 57,
        "velocity": 0,
        "byte9": true
      },
      {
        "deltaTime": 5,
        "channel": 0,
        "type": "noteOff",
        "noteNumber": 64,
        "velocity": 0,
        "byte9": true
      },
      {
        "deltaTime": 0,
        "running": true,
        "channel": 0,
        "type": "noteOff",
        "noteNumber": 91,
        "velocity": 0,
        "byte9": true
      },
      {
        "deltaTime": 5,
        "channel": 0,
        "type": "noteOff",
        "noteNumber": 53,
        "velocity": 0,
        "byte9": true
      },
      {
        "deltaTime": 195,
        "channel": 0,
        "type": "controller",
        "controllerType": 64,
        "value": 127
      },
      {
        "deltaTime": 270,
        "channel": 0,
        "type": "noteOn",
        "noteNumber": 89,
        "velocity": 88
      },
      {
        "deltaTime": 5,
        "channel": 0,
        "type": "noteOn",
        "noteNumber": 53,
        "velocity": 77
      },
      {
        "deltaTime": 0,
        "running": true,
        "channel": 0,
        "type": "noteOn",
        "noteNumber": 57,
        "velocity": 71
      },
      {
        "deltaTime": 0,
        "running": true,
        "channel": 0,
        "type": "noteOn",
        "noteNumber": 64,
        "velocity": 85
      },
      {
        "deltaTime": 0,
        "running": true,
        "channel": 0,
        "type": "noteOn",
        "noteNumber": 84,
        "velocity": 92
      },
      {
        "deltaTime": 5,
        "channel": 0,
        "type": "noteOn",
        "noteNumber": 60,
        "velocity": 73
      },
      {
        "deltaTime": 0,
        "running": true,
        "channel": 0,
        "type": "noteOn",
        "noteNumber": 77,
        "velocity": 90
      },
      {
        "deltaTime": 500,
        "channel": 0,
        "type": "noteOff",
        "noteNumber": 77,
        "velocity": 0,
        "byte9": true
      },
      {
        "deltaTime": 20,
        "channel": 0,
        "type": "noteOff",
        "noteNumber": 84,
        "velocity": 0,
        "byte9": true
      },
      {
        "deltaTime": 15,
        "channel": 0,
        "type": "noteOff",
        "noteNumber": 64,
        "velocity": 0,
        "byte9": true
      },
      {
        "deltaTime": 0,
        "running": true,
        "channel": 0,
        "type": "noteOff",
        "noteNumber": 89,
        "velocity": 0,
        "byte9": true
      },
      {
        "deltaTime": 5,
        "channel": 0,
        "type": "noteOff",
        "noteNumber": 53,
        "velocity": 0,
        "byte9": true
      },
      {
        "deltaTime": 0,
        "running": true,
        "channel": 0,
        "type": "noteOff",
        "noteNumber": 60,
        "velocity": 0,
        "byte9": true
      },
      {
        "deltaTime": 10,
        "channel": 0,
        "type": "noteOff",
        "noteNumber": 57,
        "velocity": 0,
        "byte9": true
      },
      {
        "deltaTime": 60,
        "channel": 0,
        "type": "controller",
        "controllerType": 64,
        "value": 0
      },
      {
        "deltaTime": 20,
        "channel": 0,
        "type": "noteOn",
        "noteNumber": 79,
        "velocity": 59
      },
      {
        "deltaTime": 5,
        "channel": 0,
        "type": "noteOn",
        "noteNumber": 57,
        "velocity": 45
      },
      {
        "deltaTime": 0,
        "running": true,
        "channel": 0,
        "type": "noteOn",
        "noteNumber": 64,
        "velocity": 48
      },
      {
        "deltaTime": 5,
        "channel": 0,
        "type": "noteOn",
        "noteNumber": 86,
        "velocity": 48
      },
      {
        "deltaTime": 0,
        "running": true,
        "channel": 0,
        "type": "noteOn",
        "noteNumber": 91,
        "velocity": 45
      },
      {
        "deltaTime": 5,
        "channel": 0,
        "type": "noteOn",
        "noteNumber": 53,
        "velocity": 30
      },
      {
        "deltaTime": 5,
        "channel": 0,
        "type": "noteOn",
        "noteNumber": 60,
        "velocity": 36
      },
      {
        "deltaTime": 5,
        "channel": 0,
        "type": "noteOff",
        "noteNumber": 79,
        "velocity": 0,
        "byte9": true
      },
      {
        "deltaTime": 15,
        "channel": 0,
        "type": "noteOff",
        "noteNumber": 86,
        "velocity": 0,
        "byte9": true
      },
      {
        "deltaTime": 5,
        "channel": 0,
        "type": "noteOff",
        "noteNumber": 60,
        "velocity": 0,
        "byte9": true
      },
      {
        "deltaTime": 0,
        "running": true,
        "channel": 0,
        "type": "noteOff",
        "noteNumber": 64,
        "velocity": 0,
        "byte9": true
      },
      {
        "deltaTime": 5,
        "channel": 0,
        "type": "noteOff",
        "noteNumber": 53,
        "velocity": 0,
        "byte9": true
      },
      {
        "deltaTime": 0,
        "running": true,
        "channel": 0,
        "type": "noteOff",
        "noteNumber": 57,
        "velocity": 0,
        "byte9": true
      },
      {
        "deltaTime": 5,
        "channel": 0,
        "type": "noteOff",
        "noteNumber": 91,
        "velocity": 0,
        "byte9": true
      },
      {
        "deltaTime": 260,
        "channel": 0,
        "type": "noteOn",
        "noteNumber": 67,
        "velocity": 78
      },
      {
        "deltaTime": 5,
        "channel": 0,
        "type": "noteOn",
        "noteNumber": 60,
        "velocity": 64
      },
      {
        "deltaTime": 5,
        "channel": 0,
        "type": "noteOn",
        "noteNumber": 56,
        "velocity": 55
      },
      {
        "deltaTime": 0,
        "running": true,
        "channel": 0,
        "type": "noteOn",
        "noteNumber": 62,
        "velocity": 68
      },
      {
        "deltaTime": 0,
        "running": true,
        "channel": 0,
        "type": "noteOn",
        "noteNumber": 96,
        "velocity": 85
      },
      {
        "deltaTime": 5,
        "channel": 0,
        "type": "noteOn",
        "noteNumber": 84,
        "velocity": 84
      },
      {
        "deltaTime": 0,
        "running": true,
        "channel": 0,
        "type": "noteOn",
        "noteNumber": 91,
        "velocity": 74
      },
      {
        "deltaTime": 45,
        "channel": 0,
        "type": "noteOff",
        "noteNumber": 84,
        "velocity": 0,
        "byte9": true
      },
      {
        "deltaTime": 10,
        "channel": 0,
        "type": "noteOff",
        "noteNumber": 91,
        "velocity": 0,
        "byte9": true
      },
      {
        "deltaTime": 5,
        "channel": 0,
        "type": "noteOff",
        "noteNumber": 60,
        "velocity": 0,
        "byte9": true
      },
      {
        "deltaTime": 10,
        "channel": 0,
        "type": "noteOff",
        "noteNumber": 67,
        "velocity": 0,
        "byte9": true
      },
      {
        "deltaTime": 5,
        "channel": 0,
        "type": "noteOff",
        "noteNumber": 62,
        "velocity": 0,
        "byte9": true
      },
      {
        "deltaTime": 10,
        "channel": 0,
        "type": "noteOff",
        "noteNumber": 96,
        "velocity": 0,
        "byte9": true
      },
      {
        "deltaTime": 5,
        "channel": 0,
        "type": "noteOff",
        "noteNumber": 56,
        "velocity": 0,
        "byte9": true
      },
      {
        "deltaTime": 145,
        "channel": 0,
        "type": "noteOn",
        "noteNumber": 96,
        "velocity": 76
      },
      {
        "deltaTime": 5,
        "channel": 0,
        "type": "noteOn",
        "noteNumber": 56,
        "velocity": 65
      },
      {
        "deltaTime": 5,
        "channel": 0,
        "type": "noteOn",
        "noteNumber": 62,
        "velocity": 66
      },
      {
        "deltaTime": 0,
        "running": true,
        "channel": 0,
        "type": "noteOn",
        "noteNumber": 67,
        "velocity": 73
      },
      {
        "deltaTime": 0,
        "running": true,
        "channel": 0,
        "type": "noteOn",
        "noteNumber": 88,
        "velocity": 63
      },
      {
        "deltaTime": 0,
        "running": true,
        "channel": 0,
        "type": "noteOn",
        "noteNumber": 89,
        "velocity": 70
      },
      {
        "deltaTime": 15,
        "channel": 0,
        "type": "noteOn",
        "noteNumber": 84,
        "velocity": 61
      },
      {
        "deltaTime": 10,
        "channel": 0,
        "type": "controller",
        "controllerType": 64,
        "value": 127
      },
      {
        "deltaTime": 0,
        "channel": 0,
        "type": "noteOff",
        "noteNumber": 88,
        "velocity": 0,
        "byte9": true
      },
      {
        "deltaTime": 35,
        "channel": 0,
        "type": "noteOn",
        "noteNumber": 88,
        "velocity": 17
      },
      {
        "deltaTime": 70,
        "channel": 0,
        "type": "noteOff",
        "noteNumber": 89,
        "velocity": 0,
        "byte9": true
      },
      {
        "deltaTime": 85,
        "channel": 0,
        "type": "noteOff",
        "noteNumber": 88,
        "velocity": 0,
        "byte9": true
      },
      {
        "deltaTime": 10,
        "channel": 0,
        "type": "noteOff",
        "noteNumber": 62,
        "velocity": 0,
        "byte9": true
      },
      {
        "deltaTime": 15,
        "channel": 0,
        "type": "noteOff",
        "noteNumber": 56,
        "velocity": 0,
        "byte9": true
      },
      {
        "deltaTime": 5,
        "channel": 0,
        "type": "noteOff",
        "noteNumber": 84,
        "velocity": 0,
        "byte9": true
      },
      {
        "deltaTime": 10,
        "channel": 0,
        "type": "noteOff",
        "noteNumber": 67,
        "velocity": 0,
        "byte9": true
      },
      {
        "deltaTime": 15,
        "channel": 0,
        "type": "noteOff",
        "noteNumber": 96,
        "velocity": 0,
        "byte9": true
      },
      {
        "deltaTime": 135,
        "channel": 0,
        "type": "noteOn",
        "noteNumber": 88,
        "velocity": 66
      },
      {
        "deltaTime": 5,
        "channel": 0,
        "type": "noteOn",
        "noteNumber": 84,
        "velocity": 74
      },
      {
        "deltaTime": 0,
        "running": true,
        "channel": 0,
        "type": "noteOn",
        "noteNumber": 96,
        "velocity": 79
      },
      {
        "deltaTime": 5,
        "channel": 0,
        "type": "controller",
        "controllerType": 64,
        "value": 0
      },
      {
        "deltaTime": 0,
        "channel": 0,
        "type": "noteOn",
        "noteNumber": 56,
        "velocity": 74
      },
      {
        "deltaTime": 0,
        "running": true,
        "channel": 0,
        "type": "noteOn",
        "noteNumber": 91,
        "velocity": 66
      },
      {
        "deltaTime": 5,
        "channel": 0,
        "type": "noteOn",
        "noteNumber": 62,
        "velocity": 71
      },
      {
        "deltaTime": 0,
        "running": true,
        "channel": 0,
        "type": "noteOn",
        "noteNumber": 67,
        "velocity": 76
      },
      {
        "deltaTime": 50,
        "channel": 0,
        "type": "controller",
        "controllerType": 64,
        "value": 127
      },
      {
        "deltaTime": 70,
        "channel": 0,
        "type": "noteOff",
        "noteNumber": 96,
        "velocity": 0,
        "byte9": true
      },
      {
        "deltaTime": 10,
        "channel": 0,
        "type": "noteOff",
        "noteNumber": 88,
        "velocity": 0,
        "byte9": true
      },
      {
        "deltaTime": 5,
        "channel": 0,
        "type": "noteOff",
        "noteNumber": 91,
        "velocity": 0,
        "byte9": true
      },
      {
        "deltaTime": 5,
        "channel": 0,
        "type": "noteOff",
        "noteNumber": 84,
        "velocity": 0,
        "byte9": true
      },
      {
        "deltaTime": 60,
        "channel": 0,
        "type": "noteOff",
        "noteNumber": 67,
        "velocity": 0,
        "byte9": true
      },
      {
        "deltaTime": 10,
        "channel": 0,
        "type": "noteOff",
        "noteNumber": 56,
        "velocity": 0,
        "byte9": true
      },
      {
        "deltaTime": 0,
        "running": true,
        "channel": 0,
        "type": "noteOff",
        "noteNumber": 62,
        "velocity": 0,
        "byte9": true
      },
      {
        "deltaTime": 85,
        "channel": 0,
        "type": "noteOn",
        "noteNumber": 56,
        "velocity": 68
      },
      {
        "deltaTime": 0,
        "running": true,
        "channel": 0,
        "type": "noteOn",
        "noteNumber": 67,
        "velocity": 73
      },
      {
        "deltaTime": 5,
        "channel": 0,
        "type": "noteOn",
        "noteNumber": 79,
        "velocity": 51
      },
      {
        "deltaTime": 0,
        "running": true,
        "channel": 0,
        "type": "noteOn",
        "noteNumber": 84,
        "velocity": 66
      },
      {
        "deltaTime": 0,
        "running": true,
        "channel": 0,
        "type": "noteOn",
        "noteNumber": 91,
        "velocity": 54
      },
      {
        "deltaTime": 5,
        "channel": 0,
        "type": "noteOn",
        "noteNumber": 62,
        "velocity": 61
      },
      {
        "deltaTime": 0,
        "running": true,
        "channel": 0,
        "type": "noteOn",
        "noteNumber": 88,
        "velocity": 56
      },
      {
        "deltaTime": 10,
        "channel": 0,
        "type": "controller",
        "controllerType": 64,
        "value": 0
      },
      {
        "deltaTime": 40,
        "channel": 0,
        "type": "noteOff",
        "noteNumber": 67,
        "velocity": 0,
        "byte9": true
      },
      {
        "deltaTime": 0,
        "running": true,
        "channel": 0,
        "type": "noteOff",
        "noteNumber": 84,
        "velocity": 0,
        "byte9": true
      },
      {
        "deltaTime": 0,
        "running": true,
        "channel": 0,
        "type": "noteOff",
        "noteNumber": 88,
        "velocity": 0,
        "byte9": true
      },
      {
        "deltaTime": 25,
        "channel": 0,
        "type": "noteOff",
        "noteNumber": 79,
        "velocity": 0,
        "byte9": true
      },
      {
        "deltaTime": 5,
        "channel": 0,
        "type": "noteOff",
        "noteNumber": 62,
        "velocity": 0,
        "byte9": true
      },
      {
        "deltaTime": 5,
        "channel": 0,
        "type": "noteOff",
        "noteNumber": 91,
        "velocity": 0,
        "byte9": true
      },
      {
        "deltaTime": 10,
        "channel": 0,
        "type": "noteOff",
        "noteNumber": 56,
        "velocity": 0,
        "byte9": true
      },
      {
        "deltaTime": 185,
        "channel": 0,
        "type": "controller",
        "controllerType": 64,
        "value": 127
      },
      {
        "deltaTime": 525,
        "channel": 0,
        "type": "noteOn",
        "noteNumber": 77,
        "velocity": 62
      },
      {
        "deltaTime": 10,
        "channel": 0,
        "type": "noteOn",
        "noteNumber": 56,
        "velocity": 33
      },
      {
        "deltaTime": 20,
        "channel": 0,
        "type": "noteOn",
        "noteNumber": 62,
        "velocity": 33
      },
      {
        "deltaTime": 5,
        "channel": 0,
        "type": "noteOff",
        "noteNumber": 77,
        "velocity": 0,
        "byte9": true
      },
      {
        "deltaTime": 5,
        "channel": 0,
        "type": "noteOff",
        "noteNumber": 56,
        "velocity": 0,
        "byte9": true
      },
      {
        "deltaTime": 25,
        "channel": 0,
        "type": "noteOff",
        "noteNumber": 62,
        "velocity": 0,
        "byte9": true
      },
      {
        "deltaTime": 55,
        "channel": 0,
        "type": "noteOn",
        "noteNumber": 56,
        "velocity": 55
      },
      {
        "deltaTime": 5,
        "channel": 0,
        "type": "noteOn",
        "noteNumber": 67,
        "velocity": 38
      },
      {
        "deltaTime": 0,
        "running": true,
        "channel": 0,
        "type": "noteOn",
        "noteNumber": 91,
        "velocity": 71
      },
      {
        "deltaTime": 10,
        "channel": 0,
        "type": "noteOn",
        "noteNumber": 62,
        "velocity": 49
      },
      {
        "deltaTime": 0,
        "running": true,
        "channel": 0,
        "type": "noteOn",
        "noteNumber": 79,
        "velocity": 57
      },
      {
        "deltaTime": 15,
        "channel": 0,
        "type": "noteOff",
        "noteNumber": 91,
        "velocity": 0,
        "byte9": true
      },
      {
        "deltaTime": 5,
        "channel": 0,
        "type": "noteOff",
        "noteNumber": 67,
        "velocity": 0,
        "byte9": true
      },
      {
        "deltaTime": 5,
        "channel": 0,
        "type": "noteOff",
        "noteNumber": 62,
        "velocity": 0,
        "byte9": true
      },
      {
        "deltaTime": 0,
        "running": true,
        "channel": 0,
        "type": "noteOff",
        "noteNumber": 79,
        "velocity": 0,
        "byte9": true
      },
      {
        "deltaTime": 60,
        "channel": 0,
        "type": "noteOff",
        "noteNumber": 56,
        "velocity": 0,
        "byte9": true
      },
      {
        "deltaTime": 20,
        "channel": 0,
        "type": "controller",
        "controllerType": 64,
        "value": 0
      },
      {
        "deltaTime": 55,
        "channel": 0,
        "type": "noteOn",
        "noteNumber": 64,
        "velocity": 56
      },
      {
        "deltaTime": 10,
        "channel": 0,
        "type": "noteOn",
        "noteNumber": 72,
        "velocity": 33
      },
      {
        "deltaTime": 0,
        "running": true,
        "channel": 0,
        "type": "noteOn",
        "noteNumber": 84,
        "velocity": 38
      },
      {
        "deltaTime": 15,
        "channel": 0,
        "type": "noteOff",
        "noteNumber": 64,
        "velocity": 0,
        "byte9": true
      },
      {
        "deltaTime": 10,
        "channel": 0,
        "type": "noteOff",
        "noteNumber": 72,
        "velocity": 0,
        "byte9": true
      },
      {
        "deltaTime": 5,
        "channel": 0,
        "type": "noteOff",
        "noteNumber": 84,
        "velocity": 0,
        "byte9": true
      },
      {
        "deltaTime": 270,
        "channel": 0,
        "type": "noteOn",
        "noteNumber": 64,
        "velocity": 70
      },
      {
        "deltaTime": 5,
        "channel": 0,
        "type": "noteOn",
        "noteNumber": 57,
        "velocity": 52
      },
      {
        "deltaTime": 5,
        "channel": 0,
        "type": "noteOn",
        "noteNumber": 55,
        "velocity": 58
      },
      {
        "deltaTime": 0,
        "running": true,
        "channel": 0,
        "type": "noteOn",
        "noteNumber": 60,
        "velocity": 52
      },
      {
        "deltaTime": 0,
        "running": true,
        "channel": 0,
        "type": "noteOn",
        "noteNumber": 72,
        "velocity": 74
      },
      {
        "deltaTime": 5,
        "channel": 0,
        "type": "noteOn",
        "noteNumber": 81,
        "velocity": 64
      },
      {
        "deltaTime": 5,
        "channel": 0,
        "type": "noteOn",
        "noteNumber": 84,
        "velocity": 68
      },
      {
        "deltaTime": 50,
        "channel": 0,
        "type": "noteOff",
        "noteNumber": 55,
        "velocity": 0,
        "byte9": true
      },
      {
        "deltaTime": 5,
        "channel": 0,
        "type": "noteOff",
        "noteNumber": 72,
        "velocity": 0,
        "byte9": true
      },
      {
        "deltaTime": 5,
        "channel": 0,
        "type": "noteOff",
        "noteNumber": 60,
        "velocity": 0,
        "byte9": true
      },
      {
        "deltaTime": 0,
        "running": true,
        "channel": 0,
        "type": "noteOff",
        "noteNumber": 64,
        "velocity": 0,
        "byte9": true
      },
      {
        "deltaTime": 15,
        "channel": 0,
        "type": "noteOff",
        "noteNumber": 81,
        "velocity": 0,
        "byte9": true
      },
      {
        "deltaTime": 5,
        "channel": 0,
        "type": "noteOff",
        "noteNumber": 57,
        "velocity": 0,
        "byte9": true
      },
      {
        "deltaTime": 0,
        "running": true,
        "channel": 0,
        "type": "noteOff",
        "noteNumber": 84,
        "velocity": 0,
        "byte9": true
      },
      {
        "deltaTime": 395,
        "channel": 0,
        "type": "noteOn",
        "noteNumber": 77,
        "velocity": 90
      },
      {
        "deltaTime": 5,
        "channel": 0,
        "type": "noteOn",
        "noteNumber": 84,
        "velocity": 88
      },
      {
        "deltaTime": 0,
        "running": true,
        "channel": 0,
        "type": "noteOn",
        "noteNumber": 89,
        "velocity": 87
      },
      {
        "deltaTime": 5,
        "channel": 0,
        "type": "controller",
        "controllerType": 64,
        "value": 127
      },
      {
        "deltaTime": 0,
        "channel": 0,
        "type": "noteOn",
        "noteNumber": 55,
        "velocity": 76
      },
      {
        "deltaTime": 0,
        "running": true,
        "channel": 0,
        "type": "noteOn",
        "noteNumber": 57,
        "velocity": 72
      },
      {
        "deltaTime": 0,
        "running": true,
        "channel": 0,
        "type": "noteOn",
        "noteNumber": 64,
        "velocity": 82
      },
      {
        "deltaTime": 5,
        "channel": 0,
        "type": "noteOn",
        "noteNumber": 60,
        "velocity": 71
      },
      {
        "deltaTime": 95,
        "channel": 0,
        "type": "noteOff",
        "noteNumber": 77,
        "velocity": 0,
        "byte9": true
      },
      {
        "deltaTime": 10,
        "channel": 0,
        "type": "noteOff",
        "noteNumber": 89,
        "velocity": 0,
        "byte9": true
      },
      {
        "deltaTime": 5,
        "channel": 0,
        "type": "noteOff",
        "noteNumber": 55,
        "velocity": 0,
        "byte9": true
      },
      {
        "deltaTime": 0,
        "running": true,
        "channel": 0,
        "type": "noteOff",
        "noteNumber": 64,
        "velocity": 0,
        "byte9": true
      },
      {
        "deltaTime": 0,
        "running": true,
        "channel": 0,
        "type": "noteOff",
        "noteNumber": 84,
        "velocity": 0,
        "byte9": true
      },
      {
        "deltaTime": 10,
        "channel": 0,
        "type": "noteOff",
        "noteNumber": 60,
        "velocity": 0,
        "byte9": true
      },
      {
        "deltaTime": 10,
        "channel": 0,
        "type": "noteOff",
        "noteNumber": 57,
        "velocity": 0,
        "byte9": true
      },
      {
        "deltaTime": 40,
        "channel": 0,
        "type": "noteOn",
        "noteNumber": 86,
        "velocity": 75
      },
      {
        "deltaTime": 0,
        "running": true,
        "channel": 0,
        "type": "noteOn",
        "noteNumber": 91,
        "velocity": 78
      },
      {
        "deltaTime": 5,
        "channel": 0,
        "type": "noteOn",
        "noteNumber": 55,
        "velocity": 70
      },
      {
        "deltaTime": 0,
        "running": true,
        "channel": 0,
        "type": "noteOn",
        "noteNumber": 64,
        "velocity": 66
      },
      {
        "deltaTime": 0,
        "running": true,
        "channel": 0,
        "type": "noteOn",
        "noteNumber": 79,
        "velocity": 68
      },
      {
        "deltaTime": 5,
        "channel": 0,
        "type": "noteOn",
        "noteNumber": 60,
        "velocity": 66
      },
      {
        "deltaTime": 5,
        "channel": 0,
        "type": "noteOn",
        "noteNumber": 57,
        "velocity": 75
      },
      {
        "deltaTime": 170,
        "channel": 0,
        "type": "noteOff",
        "noteNumber": 91,
        "velocity": 0,
        "byte9": true
      },
      {
        "deltaTime": 10,
        "channel": 0,
        "type": "noteOff",
        "noteNumber": 55,
        "velocity": 0,
        "byte9": true
      },
      {
        "deltaTime": 10,
        "channel": 0,
        "type": "noteOff",
        "noteNumber": 86,
        "velocity": 0,
        "byte9": true
      },
      {
        "deltaTime": 5,
        "channel": 0,
        "type": "noteOff",
        "noteNumber": 60,
        "velocity": 0,
        "byte9": true
      },
      {
        "deltaTime": 0,
        "running": true,
        "channel": 0,
        "type": "noteOff",
        "noteNumber": 64,
        "velocity": 0,
        "byte9": true
      },
      {
        "deltaTime": 5,
        "channel": 0,
        "type": "noteOff",
        "noteNumber": 57,
        "velocity": 0,
        "byte9": true
      },
      {
        "deltaTime": 0,
        "running": true,
        "channel": 0,
        "type": "noteOff",
        "noteNumber": 79,
        "velocity": 0,
        "byte9": true
      },
      {
        "deltaTime": 85,
        "channel": 0,
        "type": "noteOn",
        "noteNumber": 89,
        "velocity": 71
      },
      {
        "deltaTime": 5,
        "channel": 0,
        "type": "noteOn",
        "noteNumber": 55,
        "velocity": 72
      },
      {
        "deltaTime": 5,
        "channel": 0,
        "type": "noteOn",
        "noteNumber": 64,
        "velocity": 68
      },
      {
        "deltaTime": 5,
        "channel": 0,
        "type": "noteOn",
        "noteNumber": 60,
        "velocity": 64
      },
      {
        "deltaTime": 0,
        "running": true,
        "channel": 0,
        "type": "noteOn",
        "noteNumber": 77,
        "velocity": 39
      },
      {
        "deltaTime": 5,
        "channel": 0,
        "type": "noteOn",
        "noteNumber": 84,
        "velocity": 69
      },
      {
        "deltaTime": 5,
        "channel": 0,
        "type": "noteOn",
        "noteNumber": 57,
        "velocity": 55
      },
      {
        "deltaTime": 0,
        "running": true,
        "channel": 0,
        "type": "noteOn",
        "noteNumber": 79,
        "velocity": 49
      },
      {
        "deltaTime": 25,
        "channel": 0,
        "type": "noteOff",
        "noteNumber": 79,
        "velocity": 0,
        "byte9": true
      },
      {
        "deltaTime": 140,
        "channel": 0,
        "type": "noteOff",
        "noteNumber": 89,
        "velocity": 0,
        "byte9": true
      },
      {
        "deltaTime": 20,
        "channel": 0,
        "type": "noteOff",
        "noteNumber": 84,
        "velocity": 0,
        "byte9": true
      },
      {
        "deltaTime": 30,
        "channel": 0,
        "type": "noteOff",
        "noteNumber": 64,
        "velocity": 0,
        "byte9": true
      },
      {
        "deltaTime": 5,
        "channel": 0,
        "type": "noteOff",
        "noteNumber": 77,
        "velocity": 0,
        "byte9": true
      },
      {
        "deltaTime": 15,
        "channel": 0,
        "type": "noteOff",
        "noteNumber": 55,
        "velocity": 0,
        "byte9": true
      },
      {
        "deltaTime": 0,
        "running": true,
        "channel": 0,
        "type": "noteOff",
        "noteNumber": 60,
        "velocity": 0,
        "byte9": true
      },
      {
        "deltaTime": 20,
        "channel": 0,
        "type": "noteOff",
        "noteNumber": 57,
        "velocity": 0,
        "byte9": true
      },
      {
        "deltaTime": 275,
        "channel": 0,
        "type": "noteOn",
        "noteNumber": 63,
        "velocity": 37
      },
      {
        "deltaTime": 40,
        "channel": 0,
        "type": "noteOn",
        "noteNumber": 65,
        "velocity": 58
      },
      {
        "deltaTime": 10,
        "channel": 0,
        "type": "controller",
        "controllerType": 64,
        "value": 0
      },
      {
        "deltaTime": 15,
        "channel": 0,
        "type": "noteOff",
        "noteNumber": 63,
        "velocity": 0,
        "byte9": true
      },
      {
        "deltaTime": 10,
        "channel": 0,
        "type": "noteOn",
        "noteNumber": 79,
        "velocity": 75
      },
      {
        "deltaTime": 5,
        "channel": 0,
        "type": "noteOn",
        "noteNumber": 71,
        "velocity": 80
      },
      {
        "deltaTime": 5,
        "channel": 0,
        "type": "noteOn",
        "noteNumber": 68,
        "velocity": 73
      },
      {
        "deltaTime": 10,
        "channel": 0,
        "type": "noteOn",
        "noteNumber": 74,
        "velocity": 62
      },
      {
        "deltaTime": 5,
        "channel": 0,
        "type": "noteOn",
        "noteNumber": 67,
        "velocity": 83
      },
      {
        "deltaTime": 10,
        "channel": 0,
        "type": "noteOff",
        "noteNumber": 65,
        "velocity": 0,
        "byte9": true
      },
      {
        "deltaTime": 410,
        "channel": 0,
        "type": "noteOff",
        "noteNumber": 68,
        "velocity": 0,
        "byte9": true
      },
      {
        "deltaTime": 5,
        "channel": 0,
        "type": "noteOff",
        "noteNumber": 79,
        "velocity": 0,
        "byte9": true
      },
      {
        "deltaTime": 5,
        "channel": 0,
        "type": "noteOff",
        "noteNumber": 71,
        "velocity": 0,
        "byte9": true
      },
      {
        "deltaTime": 10,
        "channel": 0,
        "type": "noteOff",
        "noteNumber": 74,
        "velocity": 0,
        "byte9": true
      },
      {
        "deltaTime": 25,
        "channel": 0,
        "type": "noteOff",
        "noteNumber": 67,
        "velocity": 0,
        "byte9": true
      },
      {
        "deltaTime": 0,
        "running": true,
        "channel": 0,
        "type": "noteOn",
        "noteNumber": 68,
        "velocity": 64
      },
      {
        "deltaTime": 10,
        "channel": 0,
        "type": "noteOn",
        "noteNumber": 65,
        "velocity": 71
      },
      {
        "deltaTime": 0,
        "running": true,
        "channel": 0,
        "type": "noteOn",
        "noteNumber": 77,
        "velocity": 66
      },
      {
        "deltaTime": 5,
        "channel": 0,
        "type": "noteOn",
        "noteNumber": 71,
        "velocity": 64
      },
      {
        "deltaTime": 0,
        "running": true,
        "channel": 0,
        "type": "noteOn",
        "noteNumber": 74,
        "velocity": 47
      },
      {
        "deltaTime": 100,
        "channel": 0,
        "type": "controller",
        "controllerType": 64,
        "value": 127
      },
      {
        "deltaTime": 150,
        "channel": 0,
        "type": "noteOff",
        "noteNumber": 77,
        "velocity": 0,
        "byte9": true
      },
      {
        "deltaTime": 45,
        "channel": 0,
        "type": "noteOff",
        "noteNumber": 71,
        "velocity": 0,
        "byte9": true
      },
      {
        "deltaTime": 5,
        "channel": 0,
        "type": "noteOff",
        "noteNumber": 74,
        "velocity": 0,
        "byte9": true
      },
      {
        "deltaTime": 70,
        "channel": 0,
        "type": "noteOff",
        "noteNumber": 68,
        "velocity": 0,
        "byte9": true
      },
      {
        "deltaTime": 20,
        "channel": 0,
        "type": "noteOff",
        "noteNumber": 65,
        "velocity": 0,
        "byte9": true
      },
      {
        "deltaTime": 35,
        "channel": 0,
        "type": "controller",
        "controllerType": 64,
        "value": 0
      },
      {
        "deltaTime": 50,
        "channel": 0,
        "type": "noteOn",
        "noteNumber": 64,
        "velocity": 50
      },
      {
        "deltaTime": 0,
        "running": true,
        "channel": 0,
        "type": "noteOn",
        "noteNumber": 76,
        "velocity": 59
      },
      {
        "deltaTime": 10,
        "channel": 0,
        "type": "noteOn",
        "noteNumber": 71,
        "velocity": 47
      },
      {
        "deltaTime": 5,
        "channel": 0,
        "type": "noteOn",
        "noteNumber": 68,
        "velocity": 28
      },
      {
        "deltaTime": 15,
        "channel": 0,
        "type": "noteOn",
        "noteNumber": 65,
        "velocity": 24
      },
      {
        "deltaTime": 35,
        "channel": 0,
        "type": "controller",
        "controllerType": 64,
        "value": 127
      },
      {
        "deltaTime": 50,
        "channel": 0,
        "type": "noteOff",
        "noteNumber": 71,
        "velocity": 0,
        "byte9": true
      },
      {
        "deltaTime": 5,
        "channel": 0,
        "type": "noteOff",
        "noteNumber": 68,
        "velocity": 0,
        "byte9": true
      },
      {
        "deltaTime": 10,
        "channel": 0,
        "type": "noteOff",
        "noteNumber": 76,
        "velocity": 0,
        "byte9": true
      },
      {
        "deltaTime": 35,
        "channel": 0,
        "type": "noteOff",
        "noteNumber": 65,
        "velocity": 0,
        "byte9": true
      },
      {
        "deltaTime": 70,
        "channel": 0,
        "type": "noteOff",
        "noteNumber": 64,
        "velocity": 0,
        "byte9": true
      },
      {
        "deltaTime": 80,
        "channel": 0,
        "type": "noteOn",
        "noteNumber": 65,
        "velocity": 75
      },
      {
        "deltaTime": 5,
        "channel": 0,
        "type": "noteOn",
        "noteNumber": 68,
        "velocity": 74
      },
      {
        "deltaTime": 0,
        "running": true,
        "channel": 0,
        "type": "noteOn",
        "noteNumber": 77,
        "velocity": 76
      },
      {
        "deltaTime": 5,
        "channel": 0,
        "type": "noteOn",
        "noteNumber": 71,
        "velocity": 74
      },
      {
        "deltaTime": 0,
        "running": true,
        "channel": 0,
        "type": "noteOn",
        "noteNumber": 74,
        "velocity": 73
      },
      {
        "deltaTime": 15,
        "channel": 0,
        "type": "controller",
        "controllerType": 64,
        "value": 0
      },
      {
        "deltaTime": 60,
        "channel": 0,
        "type": "noteOff",
        "noteNumber": 65,
        "velocity": 0,
        "byte9": true
      },
      {
        "deltaTime": 35,
        "channel": 0,
        "type": "noteOff",
        "noteNumber": 68,
        "velocity": 0,
        "byte9": true
      },
      {
        "deltaTime": 0,
        "running": true,
        "channel": 0,
        "type": "noteOff",
        "noteNumber": 71,
        "velocity": 0,
        "byte9": true
      },
      {
        "deltaTime": 0,
        "running": true,
        "channel": 0,
        "type": "noteOff",
        "noteNumber": 74,
        "velocity": 0,
        "byte9": true
      },
      {
        "deltaTime": 0,
        "running": true,
        "channel": 0,
        "type": "noteOff",
        "noteNumber": 77,
        "velocity": 0,
        "byte9": true
      },
      {
        "deltaTime": 360,
        "channel": 0,
        "type": "noteOn",
        "noteNumber": 65,
        "velocity": 91
      },
      {
        "deltaTime": 0,
        "running": true,
        "channel": 0,
        "type": "noteOn",
        "noteNumber": 70,
        "velocity": 83
      },
      {
        "deltaTime": 0,
        "running": true,
        "channel": 0,
        "type": "noteOn",
        "noteNumber": 74,
        "velocity": 85
      },
      {
        "deltaTime": 0,
        "running": true,
        "channel": 0,
        "type": "noteOn",
        "noteNumber": 77,
        "velocity": 88
      },
      {
        "deltaTime": 5,
        "channel": 0,
        "type": "noteOn",
        "noteNumber": 58,
        "velocity": 72
      },
      {
        "deltaTime": 0,
        "running": true,
        "channel": 0,
        "type": "noteOn",
        "noteNumber": 67,
        "velocity": 84
      },
      {
        "deltaTime": 5,
        "channel": 0,
        "type": "noteOn",
        "noteNumber": 57,
        "velocity": 79
      },
      {
        "deltaTime": 0,
        "running": true,
        "channel": 0,
        "type": "noteOn",
        "noteNumber": 62,
        "velocity": 89
      },
      {
        "deltaTime": 5,
        "channel": 0,
        "type": "noteOn",
        "noteNumber": 53,
        "velocity": 79
      },
      {
        "deltaTime": 10,
        "channel": 0,
        "type": "noteOn",
        "noteNumber": 71,
        "velocity": 48
      },
      {
        "deltaTime": 5,
        "channel": 0,
        "type": "noteOff",
        "noteNumber": 67,
        "velocity": 0,
        "byte9": true
      },
      {
        "deltaTime": 20,
        "channel": 0,
        "type": "noteOff",
        "noteNumber": 71,
        "velocity": 0,
        "byte9": true
      },
      {
        "deltaTime": 20,
        "channel": 0,
        "type": "noteOff",
        "noteNumber": 70,
        "velocity": 0,
        "byte9": true
      },
      {
        "deltaTime": 25,
        "channel": 0,
        "type": "noteOff",
        "noteNumber": 65,
        "velocity": 0,
        "byte9": true
      },
      {
        "deltaTime": 35,
        "channel": 0,
        "type": "noteOff",
        "noteNumber": 58,
        "velocity": 0,
        "byte9": true
      },
      {
        "deltaTime": 5,
        "channel": 0,
        "type": "controller",
        "controllerType": 64,
        "value": 127
      },
      {
        "deltaTime": 5,
        "channel": 0,
        "type": "noteOff",
        "noteNumber": 57,
        "velocity": 0,
        "byte9": true
      },
      {
        "deltaTime": 10,
        "channel": 0,
        "type": "noteOff",
        "noteNumber": 62,
        "velocity": 0,
        "byte9": true
      },
      {
        "deltaTime": 0,
        "running": true,
        "channel": 0,
        "type": "noteOff",
        "noteNumber": 74,
        "velocity": 0,
        "byte9": true
      },
      {
        "deltaTime": 5,
        "channel": 0,
        "type": "noteOff",
        "noteNumber": 77,
        "velocity": 0,
        "byte9": true
      },
      {
        "deltaTime": 10,
        "channel": 0,
        "type": "noteOn",
        "noteNumber": 65,
        "velocity": 53
      },
      {
        "deltaTime": 55,
        "channel": 0,
        "type": "noteOn",
        "noteNumber": 70,
        "velocity": 53
      },
      {
        "deltaTime": 5,
        "channel": 0,
        "type": "noteOff",
        "noteNumber": 53,
        "velocity": 0,
        "byte9": true
      },
      {
        "deltaTime": 0,
        "running": true,
        "channel": 0,
        "type": "noteOn",
        "noteNumber": 57,
        "velocity": 32
      },
      {
        "deltaTime": 5,
        "channel": 0,
        "type": "noteOn",
        "noteNumber": 58,
        "velocity": 52
      },
      {
        "deltaTime": 0,
        "running": true,
        "channel": 0,
        "type": "noteOn",
        "noteNumber": 62,
        "velocity": 40
      },
      {
        "deltaTime": 10,
        "channel": 0,
        "type": "noteOn",
        "noteNumber": 74,
        "velocity": 46
      },
      {
        "deltaTime": 5,
        "channel": 0,
        "type": "noteOff",
        "noteNumber": 65,
        "velocity": 0,
        "byte9": true
      },
      {
        "deltaTime": 15,
        "channel": 0,
        "type": "noteOff",
        "noteNumber": 57,
        "velocity": 0,
        "byte9": true
      },
      {
        "deltaTime": 10,
        "channel": 0,
        "type": "noteOn",
        "noteNumber": 77,
        "velocity": 32
      },
      {
        "deltaTime": 30,
        "channel": 0,
        "type": "noteOn",
        "noteNumber": 65,
        "velocity": 57
      },
      {
        "deltaTime": 0,
        "running": true,
        "channel": 0,
        "type": "noteOff",
        "noteNumber": 70,
        "velocity": 0,
        "byte9": true
      },
      {
        "deltaTime": 0,
        "running": true,
        "channel": 0,
        "type": "noteOff",
        "noteNumber": 74,
        "velocity": 0,
        "byte9": true
      },
      {
        "deltaTime": 10,
        "channel": 0,
        "type": "noteOff",
        "noteNumber": 58,
        "velocity": 0,
        "byte9": true
      },
      {
        "deltaTime": 5,
        "channel": 0,
        "type": "noteOff",
        "noteNumber": 77,
        "velocity": 0,
        "byte9": true
      },
      {
        "deltaTime": 25,
        "channel": 0,
        "type": "noteOff",
        "noteNumber": 62,
        "velocity": 0,
        "byte9": true
      },
      {
        "deltaTime": 10,
        "channel": 0,
        "type": "noteOn",
        "noteNumber": 53,
        "velocity": 45
      },
      {
        "deltaTime": 25,
        "channel": 0,
        "type": "noteOff",
        "noteNumber": 65,
        "velocity": 0,
        "byte9": true
      },
      {
        "deltaTime": 20,
        "channel": 0,
        "type": "noteOn",
        "noteNumber": 70,
        "velocity": 25
      },
      {
        "deltaTime": 5,
        "channel": 0,
        "type": "noteOn",
        "noteNumber": 57,
        "velocity": 27
      },
      {
        "deltaTime": 0,
        "running": true,
        "channel": 0,
        "type": "noteOn",
        "noteNumber": 74,
        "velocity": 33
      },
      {
        "deltaTime": 5,
        "channel": 0,
        "type": "noteOn",
        "noteNumber": 77,
        "velocity": 20
      },
      {
        "deltaTime": 35,
        "channel": 0,
        "type": "noteOff",
        "noteNumber": 53,
        "velocity": 0,
        "byte9": true
      },
      {
        "deltaTime": 10,
        "channel": 0,
        "type": "noteOn",
        "noteNumber": 62,
        "velocity": 38
      },
      {
        "deltaTime": 15,
        "channel": 0,
        "type": "noteOff",
        "noteNumber": 77,
        "velocity": 0,
        "byte9": true
      },
      {
        "deltaTime": 5,
        "channel": 0,
        "type": "noteOff",
        "noteNumber": 74,
        "velocity": 0,
        "byte9": true
      },
      {
        "deltaTime": 5,
        "channel": 0,
        "type": "noteOff",
        "noteNumber": 70,
        "velocity": 0,
        "byte9": true
      },
      {
        "deltaTime": 5,
        "channel": 0,
        "type": "noteOff",
        "noteNumber": 57,
        "velocity": 0,
        "byte9": true
      },
      {
        "deltaTime": 0,
        "running": true,
        "channel": 0,
        "type": "noteOff",
        "noteNumber": 62,
        "velocity": 0,
        "byte9": true
      },
      {
        "deltaTime": 50,
        "channel": 0,
        "type": "controller",
        "controllerType": 64,
        "value": 0
      },
      {
        "deltaTime": 460,
        "channel": 0,
        "type": "noteOn",
        "noteNumber": 62,
        "velocity": 84
      },
      {
        "deltaTime": 5,
        "channel": 0,
        "type": "noteOn",
        "noteNumber": 53,
        "velocity": 69
      },
      {
        "deltaTime": 0,
        "running": true,
        "channel": 0,
        "type": "noteOn",
        "noteNumber": 57,
        "velocity": 55
      },
      {
        "deltaTime": 0,
        "running": true,
        "channel": 0,
        "type": "noteOn",
        "noteNumber": 58,
        "velocity": 51
      },
      {
        "deltaTime": 85,
        "channel": 0,
        "type": "noteOff",
        "noteNumber": 57,
        "velocity": 0,
        "byte9": true
      },
      {
        "deltaTime": 15,
        "channel": 0,
        "type": "noteOff",
        "noteNumber": 58,
        "velocity": 0,
        "byte9": true
      },
      {
        "deltaTime": 5,
        "channel": 0,
        "type": "noteOff",
        "noteNumber": 53,
        "velocity": 0,
        "byte9": true
      },
      {
        "deltaTime": 15,
        "channel": 0,
        "type": "noteOff",
        "noteNumber": 62,
        "velocity": 0,
        "byte9": true
      },
      {
        "deltaTime": 40,
        "channel": 0,
        "type": "controller",
        "controllerType": 64,
        "value": 127
      },
      {
        "deltaTime": 10,
        "channel": 0,
        "type": "noteOn",
        "noteNumber": 65,
        "velocity": 71
      },
      {
        "deltaTime": 5,
        "channel": 0,
        "type": "noteOn",
        "noteNumber": 53,
        "velocity": 19
      },
      {
        "deltaTime": 10,
        "channel": 0,
        "type": "noteOn",
        "noteNumber": 58,
        "velocity": 46
      },
      {
        "deltaTime": 15,
        "channel": 0,
        "type": "noteOn",
        "noteNumber": 57,
        "velocity": 30
      },
      {
        "deltaTime": 5,
        "channel": 0,
        "type": "noteOn",
        "noteNumber": 62,
        "velocity": 48
      },
      {
        "deltaTime": 90,
        "channel": 0,
        "type": "noteOff",
        "noteNumber": 62,
        "velocity": 0,
        "byte9": true
      },
      {
        "deltaTime": 45,
        "channel": 0,
        "type": "noteOff",
        "noteNumber": 53,
        "velocity": 0,
        "byte9": true
      },
      {
        "deltaTime": 5,
        "channel": 0,
        "type": "noteOff",
        "noteNumber": 57,
        "velocity": 0,
        "byte9": true
      },
      {
        "deltaTime": 0,
        "running": true,
        "channel": 0,
        "type": "noteOff",
        "noteNumber": 58,
        "velocity": 0,
        "byte9": true
      },
      {
        "deltaTime": 80,
        "channel": 0,
        "type": "noteOff",
        "noteNumber": 65,
        "velocity": 0,
        "byte9": true
      },
      {
        "deltaTime": 45,
        "channel": 0,
        "type": "noteOn",
        "noteNumber": 53,
        "velocity": 63
      },
      {
        "deltaTime": 0,
        "running": true,
        "channel": 0,
        "type": "noteOn",
        "noteNumber": 58,
        "velocity": 63
      },
      {
        "deltaTime": 0,
        "running": true,
        "channel": 0,
        "type": "noteOn",
        "noteNumber": 62,
        "velocity": 73
      },
      {
        "deltaTime": 0,
        "running": true,
        "channel": 0,
        "type": "noteOn",
        "noteNumber": 69,
        "velocity": 80
      },
      {
        "deltaTime": 5,
        "channel": 0,
        "type": "noteOn",
        "noteNumber": 65,
        "velocity": 53
      },
      {
        "deltaTime": 5,
        "channel": 0,
        "type": "noteOn",
        "noteNumber": 57,
        "velocity": 53
      },
      {
        "deltaTime": 25,
        "channel": 0,
        "type": "noteOff",
        "noteNumber": 65,
        "velocity": 0,
        "byte9": true
      },
      {
        "deltaTime": 10,
        "channel": 0,
        "type": "noteOff",
        "noteNumber": 57,
        "velocity": 0,
        "byte9": true
      },
      {
        "deltaTime": 25,
        "channel": 0,
        "type": "noteOff",
        "noteNumber": 53,
        "velocity": 0,
        "byte9": true
      },
      {
        "deltaTime": 10,
        "channel": 0,
        "type": "noteOff",
        "noteNumber": 62,
        "velocity": 0,
        "byte9": true
      },
      {
        "deltaTime": 45,
        "channel": 0,
        "type": "noteOff",
        "noteNumber": 69,
        "velocity": 0,
        "byte9": true
      },
      {
        "deltaTime": 5,
        "channel": 0,
        "type": "noteOff",
        "noteNumber": 58,
        "velocity": 0,
        "byte9": true
      },
      {
        "deltaTime": 445,
        "channel": 0,
        "type": "controller",
        "controllerType": 64,
        "value": 0
      },
      {
        "deltaTime": 40,
        "channel": 0,
        "type": "noteOn",
        "noteNumber": 58,
        "velocity": 61
      },
      {
        "deltaTime": 0,
        "running": true,
        "channel": 0,
        "type": "noteOn",
        "noteNumber": 69,
        "velocity": 73
      },
      {
        "deltaTime": 5,
        "channel": 0,
        "type": "noteOn",
        "noteNumber": 64,
        "velocity": 63
      },
      {
        "deltaTime": 0,
        "running": true,
        "channel": 0,
        "type": "noteOn",
        "noteNumber": 75,
        "velocity": 76
      },
      {
        "deltaTime": 10,
        "channel": 0,
        "type": "noteOn",
        "noteNumber": 80,
        "velocity": 53
      },
      {
        "deltaTime": 0,
        "running": true,
        "channel": 0,
        "type": "noteOn",
        "noteNumber": 84,
        "velocity": 74
      },
      {
        "deltaTime": 20,
        "channel": 0,
        "type": "noteOff",
        "noteNumber": 84,
        "velocity": 0,
        "byte9": true
      },
      {
        "deltaTime": 10,
        "channel": 0,
        "type": "noteOff",
        "noteNumber": 80,
        "velocity": 0,
        "byte9": true
      },
      {
        "deltaTime": 5,
        "channel": 0,
        "type": "noteOff",
        "noteNumber": 69,
        "velocity": 0,
        "byte9": true
      },
      {
        "deltaTime": 0,
        "running": true,
        "channel": 0,
        "type": "noteOff",
        "noteNumber": 75,
        "velocity": 0,
        "byte9": true
      },
      {
        "deltaTime": 10,
        "channel": 0,
        "type": "noteOff",
        "noteNumber": 64,
        "velocity": 0,
        "byte9": true
      },
      {
        "deltaTime": 10,
        "channel": 0,
        "type": "noteOff",
        "noteNumber": 58,
        "velocity": 0,
        "byte9": true
      },
      {
        "deltaTime": 390,
        "channel": 0,
        "type": "noteOn",
        "noteNumber": 75,
        "velocity": 83
      },
      {
        "deltaTime": 0,
        "running": true,
        "channel": 0,
        "type": "noteOn",
        "noteNumber": 80,
        "velocity": 72
      },
      {
        "deltaTime": 0,
        "running": true,
        "channel": 0,
        "type": "noteOn",
        "noteNumber": 84,
        "velocity": 82
      },
      {
        "deltaTime": 10,
        "channel": 0,
        "type": "noteOn",
        "noteNumber": 58,
        "velocity": 69
      },
      {
        "deltaTime": 0,
        "running": true,
        "channel": 0,
        "type": "noteOn",
        "noteNumber": 64,
        "velocity": 71
      },
      {
        "deltaTime": 0,
        "running": true,
        "channel": 0,
        "type": "noteOn",
        "noteNumber": 69,
        "velocity": 80
      },
      {
        "deltaTime": 175,
        "channel": 0,
        "type": "controller",
        "controllerType": 64,
        "value": 127
      },
      {
        "deltaTime": 310,
        "channel": 0,
        "type": "noteOff",
        "noteNumber": 69,
        "velocity": 0,
        "byte9": true
      },
      {
        "deltaTime": 5,
        "channel": 0,
        "type": "noteOff",
        "noteNumber": 64,
        "velocity": 0,
        "byte9": true
      },
      {
        "deltaTime": 5,
        "channel": 0,
        "type": "noteOff",
        "noteNumber": 84,
        "velocity": 0,
        "byte9": true
      },
      {
        "deltaTime": 25,
        "channel": 0,
        "type": "noteOff",
        "noteNumber": 80,
        "velocity": 0,
        "byte9": true
      },
      {
        "deltaTime": 10,
        "channel": 0,
        "type": "noteOff",
        "noteNumber": 75,
        "velocity": 0,
        "byte9": true
      },
      {
        "deltaTime": 5,
        "channel": 0,
        "type": "noteOff",
        "noteNumber": 58,
        "velocity": 0,
        "byte9": true
      },
      {
        "deltaTime": 290,
        "channel": 0,
        "type": "noteOn",
        "noteNumber": 80,
        "velocity": 78
      },
      {
        "deltaTime": 5,
        "channel": 0,
        "type": "noteOn",
        "noteNumber": 70,
        "velocity": 83
      },
      {
        "deltaTime": 5,
        "channel": 0,
        "type": "noteOn",
        "noteNumber": 74,
        "velocity": 84
      },
      {
        "deltaTime": 5,
        "channel": 0,
        "type": "noteOn",
        "noteNumber": 56,
        "velocity": 78
      },
      {
        "deltaTime": 0,
        "running": true,
        "channel": 0,
        "type": "noteOn",
        "noteNumber": 62,
        "velocity": 81
      },
      {
        "deltaTime": 0,
        "running": true,
        "channel": 0,
        "type": "noteOn",
        "noteNumber": 67,
        "velocity": 88
      },
      {
        "deltaTime": 20,
        "channel": 0,
        "type": "controller",
        "controllerType": 64,
        "value": 0
      },
      {
        "deltaTime": 135,
        "channel": 0,
        "type": "controller",
        "controllerType": 64,
        "value": 127
      },
      {
        "deltaTime": 130,
        "channel": 0,
        "type": "noteOff",
        "noteNumber": 74,
        "velocity": 0,
        "byte9": true
      },
      {
        "deltaTime": 5,
        "channel": 0,
        "type": "noteOff",
        "noteNumber": 62,
        "velocity": 0,
        "byte9": true
      },
      {
        "deltaTime": 10,
        "channel": 0,
        "type": "noteOff",
        "noteNumber": 67,
        "velocity": 0,
        "byte9": true
      },
      {
        "deltaTime": 10,
        "channel": 0,
        "type": "noteOff",
        "noteNumber": 70,
        "velocity": 0,
        "byte9": true
      },
      {
        "deltaTime": 10,
        "channel": 0,
        "type": "noteOff",
        "noteNumber": 80,
        "velocity": 0,
        "byte9": true
      },
      {
        "deltaTime": 75,
        "channel": 0,
        "type": "noteOff",
        "noteNumber": 56,
        "velocity": 0,
        "byte9": true
      },
      {
        "deltaTime": 65,
        "channel": 0,
        "type": "noteOn",
        "noteNumber": 72,
        "velocity": 81
      },
      {
        "deltaTime": 0,
        "running": true,
        "channel": 0,
        "type": "noteOn",
        "noteNumber": 79,
        "velocity": 79
      },
      {
        "deltaTime": 5,
        "channel": 0,
        "type": "noteOn",
        "noteNumber": 55,
        "velocity": 80
      },
      {
        "deltaTime": 0,
        "running": true,
        "channel": 0,
        "type": "noteOn",
        "noteNumber": 67,
        "velocity": 83
      },
      {
        "deltaTime": 5,
        "channel": 0,
        "type": "noteOn",
        "noteNumber": 60,
        "velocity": 79
      },
      {
        "deltaTime": 0,
        "running": true,
        "channel": 0,
        "type": "noteOn",
        "noteNumber": 64,
        "velocity": 80
      },
      {
        "deltaTime": 5,
        "channel": 0,
        "type": "noteOn",
        "noteNumber": 75,
        "velocity": 45
      },
      {
        "deltaTime": 0,
        "running": true,
        "channel": 0,
        "type": "noteOn",
        "noteNumber": 77,
        "velocity": 60
      },
      {
        "deltaTime": 5,
        "channel": 0,
        "type": "controller",
        "controllerType": 64,
        "value": 0
      },
      {
        "deltaTime": 20,
        "channel": 0,
        "type": "noteOff",
        "noteNumber": 75,
        "velocity": 0,
        "byte9": true
      },
      {
        "deltaTime": 0,
        "running": true,
        "channel": 0,
        "type": "noteOff",
        "noteNumber": 77,
        "velocity": 0,
        "byte9": true
      },
      {
        "deltaTime": 175,
        "channel": 0,
        "type": "controller",
        "controllerType": 64,
        "value": 127
      },
      {
        "deltaTime": 45,
        "channel": 0,
        "type": "noteOff",
        "noteNumber": 67,
        "velocity": 0,
        "byte9": true
      },
      {
        "deltaTime": 30,
        "channel": 0,
        "type": "noteOff",
        "noteNumber": 72,
        "velocity": 0,
        "byte9": true
      },
      {
        "deltaTime": 45,
        "channel": 0,
        "type": "noteOff",
        "noteNumber": 55,
        "velocity": 0,
        "byte9": true
      },
      {
        "deltaTime": 0,
        "running": true,
        "channel": 0,
        "type": "noteOff",
        "noteNumber": 60,
        "velocity": 0,
        "byte9": true
      },
      {
        "deltaTime": 0,
        "running": true,
        "channel": 0,
        "type": "noteOff",
        "noteNumber": 79,
        "velocity": 0,
        "byte9": true
      },
      {
        "deltaTime": 5,
        "channel": 0,
        "type": "noteOff",
        "noteNumber": 64,
        "velocity": 0,
        "byte9": true
      },
      {
        "deltaTime": 170,
        "channel": 0,
        "type": "noteOn",
        "noteNumber": 76,
        "velocity": 92
      },
      {
        "deltaTime": 0,
        "running": true,
        "channel": 0,
        "type": "noteOn",
        "noteNumber": 88,
        "velocity": 87
      },
      {
        "deltaTime": 5,
        "channel": 0,
        "type": "noteOn",
        "noteNumber": 55,
        "velocity": 90
      },
      {
        "deltaTime": 0,
        "running": true,
        "channel": 0,
        "type": "noteOn",
        "noteNumber": 64,
        "velocity": 84
      },
      {
        "deltaTime": 5,
        "channel": 0,
        "type": "noteOn",
        "noteNumber": 60,
        "velocity": 80
      },
      {
        "deltaTime": 5,
        "channel": 0,
        "type": "noteOn",
        "noteNumber": 86,
        "velocity": 62
      },
      {
        "deltaTime": 25,
        "channel": 0,
        "type": "controller",
        "controllerType": 64,
        "value": 0
      },
      {
        "deltaTime": 0,
        "channel": 0,
        "type": "noteOff",
        "noteNumber": 86,
        "velocity": 0,
        "byte9": true
      },
      {
        "deltaTime": 120,
        "channel": 0,
        "type": "controller",
        "controllerType": 64,
        "value": 127
      },
      {
        "deltaTime": 200,
        "channel": 0,
        "type": "noteOff",
        "noteNumber": 76,
        "velocity": 0,
        "byte9": true
      },
      {
        "deltaTime": 0,
        "running": true,
        "channel": 0,
        "type": "noteOff",
        "noteNumber": 88,
        "velocity": 0,
        "byte9": true
      },
      {
        "deltaTime": 85,
        "channel": 0,
        "type": "noteOff",
        "noteNumber": 55,
        "velocity": 0,
        "byte9": true
      },
      {
        "deltaTime": 25,
        "channel": 0,
        "type": "noteOff",
        "noteNumber": 64,
        "velocity": 0,
        "byte9": true
      },
      {
        "deltaTime": 15,
        "channel": 0,
        "type": "noteOff",
        "noteNumber": 60,
        "velocity": 0,
        "byte9": true
      },
      {
        "deltaTime": 125,
        "channel": 0,
        "type": "controller",
        "controllerType": 64,
        "value": 0
      },
      {
        "deltaTime": 5,
        "channel": 0,
        "type": "noteOn",
        "noteNumber": 64,
        "velocity": 60
      },
      {
        "deltaTime": 5,
        "channel": 0,
        "type": "noteOn",
        "noteNumber": 55,
        "velocity": 55
      },
      {
        "deltaTime": 0,
        "running": true,
        "channel": 0,
        "type": "noteOn",
        "noteNumber": 60,
        "velocity": 54
      },
      {
        "deltaTime": 5,
        "channel": 0,
        "type": "noteOn",
        "noteNumber": 79,
        "velocity": 63
      },
      {
        "deltaTime": 5,
        "channel": 0,
        "type": "noteOn",
        "noteNumber": 91,
        "velocity": 54
      },
      {
        "deltaTime": 20,
        "channel": 0,
        "type": "noteOff",
        "noteNumber": 60,
        "velocity": 0,
        "byte9": true
      },
      {
        "deltaTime": 5,
        "channel": 0,
        "type": "noteOff",
        "noteNumber": 55,
        "velocity": 0,
        "byte9": true
      },
      {
        "deltaTime": 0,
        "running": true,
        "channel": 0,
        "type": "noteOff",
        "noteNumber": 64,
        "velocity": 0,
        "byte9": true
      },
      {
        "deltaTime": 15,
        "channel": 0,
        "type": "noteOff",
        "noteNumber": 79,
        "velocity": 0,
        "byte9": true
      },
      {
        "deltaTime": 40,
        "channel": 0,
        "type": "noteOff",
        "noteNumber": 91,
        "velocity": 0,
        "byte9": true
      },
      {
        "deltaTime": 360,
        "channel": 0,
        "type": "noteOn",
        "noteNumber": 95,
        "velocity": 71
      },
      {
        "deltaTime": 5,
        "channel": 0,
        "type": "noteOn",
        "noteNumber": 55,
        "velocity": 66
      },
      {
        "deltaTime": 0,
        "running": true,
        "channel": 0,
        "type": "noteOn",
        "noteNumber": 64,
        "velocity": 63
      },
      {
        "deltaTime": 0,
        "running": true,
        "channel": 0,
        "type": "noteOn",
        "noteNumber": 83,
        "velocity": 66
      },
      {
        "deltaTime": 5,
        "channel": 0,
        "type": "noteOn",
        "noteNumber": 60,
        "velocity": 56
      },
      {
        "deltaTime": 30,
        "channel": 0,
        "type": "noteOff",
        "noteNumber": 60,
        "velocity": 0,
        "byte9": true
      },
      {
        "deltaTime": 15,
        "channel": 0,
        "type": "noteOff",
        "noteNumber": 64,
        "velocity": 0,
        "byte9": true
      },
      {
        "deltaTime": 5,
        "channel": 0,
        "type": "controller",
        "controllerType": 64,
        "value": 127
      },
      {
        "deltaTime": 5,
        "channel": 0,
        "type": "noteOff",
        "noteNumber": 83,
        "velocity": 0,
        "byte9": true
      },
      {
        "deltaTime": 10,
        "channel": 0,
        "type": "noteOff",
        "noteNumber": 55,
        "velocity": 0,
        "byte9": true
      },
      {
        "deltaTime": 25,
        "channel": 0,
        "type": "noteOff",
        "noteNumber": 95,
        "velocity": 0,
        "byte9": true
      },
      {
        "deltaTime": 320,
        "channel": 0,
        "type": "controller",
        "controllerType": 64,
        "value": 0
      },
      {
        "deltaTime": 75,
        "channel": 0,
        "type": "noteOn",
        "noteNumber": 54,
        "velocity": 78
      },
      {
        "deltaTime": 5,
        "channel": 0,
        "type": "noteOn",
        "noteNumber": 86,
        "velocity": 78
      },
      {
        "deltaTime": 0,
        "running": true,
        "channel": 0,
        "type": "noteOn",
        "noteNumber": 98,
        "velocity": 58
      },
      {
        "deltaTime": 5,
        "channel": 0,
        "type": "noteOn",
        "noteNumber": 60,
        "velocity": 73
      },
      {
        "deltaTime": 0,
        "running": true,
        "channel": 0,
        "type": "noteOn",
        "noteNumber": 64,
        "velocity": 71
      },
      {
        "deltaTime": 5,
        "channel": 0,
        "type": "noteOn",
        "noteNumber": 96,
        "velocity": 64
      },
      {
        "deltaTime": 5,
        "channel": 0,
        "type": "noteOn",
        "noteNumber": 92,
        "velocity": 34
      },
      {
        "deltaTime": 5,
        "channel": 0,
        "type": "noteOn",
        "noteNumber": 95,
        "velocity": 24
      },
      {
        "deltaTime": 15,
        "channel": 0,
        "type": "noteOff",
        "noteNumber": 96,
        "velocity": 0,
        "byte9": true
      },
      {
        "deltaTime": 5,
        "channel": 0,
        "type": "noteOff",
        "noteNumber": 86,
        "velocity": 0,
        "byte9": true
      },
      {
        "deltaTime": 0,
        "running": true,
        "channel": 0,
        "type": "noteOff",
        "noteNumber": 92,
        "velocity": 0,
        "byte9": true
      },
      {
        "deltaTime": 10,
        "channel": 0,
        "type": "noteOff",
        "noteNumber": 64,
        "velocity": 0,
        "byte9": true
      },
      {
        "deltaTime": 5,
        "channel": 0,
        "type": "noteOff",
        "noteNumber": 95,
        "velocity": 0,
        "byte9": true
      },
      {
        "deltaTime": 0,
        "running": true,
        "channel": 0,
        "type": "noteOff",
        "noteNumber": 98,
        "velocity": 0,
        "byte9": true
      },
      {
        "deltaTime": 10,
        "channel": 0,
        "type": "noteOff",
        "noteNumber": 60,
        "velocity": 0,
        "byte9": true
      },
      {
        "deltaTime": 5,
        "channel": 0,
        "type": "noteOff",
        "noteNumber": 54,
        "velocity": 0,
        "byte9": true
      },
      {
        "deltaTime": 180,
        "channel": 0,
        "type": "noteOn",
        "noteNumber": 54,
        "velocity": 76
      },
      {
        "deltaTime": 0,
        "running": true,
        "channel": 0,
        "type": "noteOn",
        "noteNumber": 60,
        "velocity": 74
      },
      {
        "deltaTime": 0,
        "running": true,
        "channel": 0,
        "type": "noteOn",
        "noteNumber": 64,
        "velocity": 79
      },
      {
        "deltaTime": 5,
        "channel": 0,
        "type": "noteOn",
        "noteNumber": 86,
        "velocity": 77
      },
      {
        "deltaTime": 0,
        "running": true,
        "channel": 0,
        "type": "noteOn",
        "noteNumber": 92,
        "velocity": 64
      },
      {
        "deltaTime": 0,
        "running": true,
        "channel": 0,
        "type": "noteOn",
        "noteNumber": 95,
        "velocity": 71
      },
      {
        "deltaTime": 5,
        "channel": 0,
        "type": "noteOn",
        "noteNumber": 98,
        "velocity": 66
      },
      {
        "deltaTime": 15,
        "channel": 0,
        "type": "noteOff",
        "noteNumber": 86,
        "velocity": 0,
        "byte9": true
      },
      {
        "deltaTime": 10,
        "channel": 0,
        "type": "noteOff",
        "noteNumber": 60,
        "velocity": 0,
        "byte9": true
      },
      {
        "deltaTime": 0,
        "running": true,
        "channel": 0,
        "type": "noteOff",
        "noteNumber": 95,
        "velocity": 0,
        "byte9": true
      },
      {
        "deltaTime": 0,
        "running": true,
        "channel": 0,
        "type": "noteOff",
        "noteNumber": 98,
        "velocity": 0,
        "byte9": true
      },
      {
        "deltaTime": 5,
        "channel": 0,
        "type": "noteOff",
        "noteNumber": 92,
        "velocity": 0,
        "byte9": true
      },
      {
        "deltaTime": 5,
        "channel": 0,
        "type": "noteOff",
        "noteNumber": 64,
        "velocity": 0,
        "byte9": true
      },
      {
        "deltaTime": 5,
        "channel": 0,
        "type": "noteOff",
        "noteNumber": 54,
        "velocity": 0,
        "byte9": true
      },
      {
        "deltaTime": 195,
        "channel": 0,
        "type": "noteOn",
        "noteNumber": 54,
        "velocity": 80
      },
      {
        "deltaTime": 0,
        "running": true,
        "channel": 0,
        "type": "noteOn",
        "noteNumber": 64,
        "velocity": 80
      },
      {
        "deltaTime": 0,
        "running": true,
        "channel": 0,
        "type": "noteOn",
        "noteNumber": 98,
        "velocity": 80
      },
      {
        "deltaTime": 5,
        "channel": 0,
        "type": "noteOn",
        "noteNumber": 86,
        "velocity": 79
      },
      {
        "deltaTime": 0,
        "running": true,
        "channel": 0,
        "type": "noteOn",
        "noteNumber": 92,
        "velocity": 70
      },
      {
        "deltaTime": 5,
        "channel": 0,
        "type": "noteOn",
        "noteNumber": 60,
        "velocity": 70
      },
      {
        "deltaTime": 0,
        "running": true,
        "channel": 0,
        "type": "noteOn",
        "noteNumber": 95,
        "velocity": 70
      },
      {
        "deltaTime": 35,
        "channel": 0,
        "type": "controller",
        "controllerType": 64,
        "value": 127
      },
      {
        "deltaTime": 25,
        "channel": 0,
        "type": "noteOff",
        "noteNumber": 60,
        "velocity": 0,
        "byte9": true
      },
      {
        "deltaTime": 0,
        "running": true,
        "channel": 0,
        "type": "noteOff",
        "noteNumber": 64,
        "velocity": 0,
        "byte9": true
      },
      {
        "deltaTime": 0,
        "running": true,
        "channel": 0,
        "type": "noteOff",
        "noteNumber": 86,
        "velocity": 0,
        "byte9": true
      },
      {
        "deltaTime": 5,
        "channel": 0,
        "type": "noteOff",
        "noteNumber": 92,
        "velocity": 0,
        "byte9": true
      },
      {
        "deltaTime": 0,
        "running": true,
        "channel": 0,
        "type": "noteOff",
        "noteNumber": 98,
        "velocity": 0,
        "byte9": true
      },
      {
        "deltaTime": 5,
        "channel": 0,
        "type": "noteOff",
        "noteNumber": 95,
        "velocity": 0,
        "byte9": true
      },
      {
        "deltaTime": 10,
        "channel": 0,
        "type": "noteOff",
        "noteNumber": 54,
        "velocity": 0,
        "byte9": true
      },
      {
        "deltaTime": 35,
        "channel": 0,
        "type": "controller",
        "controllerType": 64,
        "value": 0
      },
      {
        "deltaTime": 15,
        "channel": 0,
        "type": "noteOn",
        "noteNumber": 98,
        "velocity": 74
      },
      {
        "deltaTime": 5,
        "channel": 0,
        "type": "noteOn",
        "noteNumber": 54,
        "velocity": 74
      },
      {
        "deltaTime": 0,
        "running": true,
        "channel": 0,
        "type": "noteOn",
        "noteNumber": 86,
        "velocity": 68
      },
      {
        "deltaTime": 0,
        "running": true,
        "channel": 0,
        "type": "noteOn",
        "noteNumber": 92,
        "velocity": 67
      },
      {
        "deltaTime": 5,
        "channel": 0,
        "type": "noteOn",
        "noteNumber": 64,
        "velocity": 76
      },
      {
        "deltaTime": 0,
        "running": true,
        "channel": 0,
        "type": "noteOn",
        "noteNumber": 95,
        "velocity": 67
      },
      {
        "deltaTime": 5,
        "channel": 0,
        "type": "noteOn",
        "noteNumber": 60,
        "velocity": 71
      },
      {
        "deltaTime": 150,
        "channel": 0,
        "type": "controller",
        "controllerType": 64,
        "value": 127
      },
      {
        "deltaTime": 300,
        "channel": 0,
        "type": "noteOff",
        "noteNumber": 60,
        "velocity": 0,
        "byte9": true
      },
      {
        "deltaTime": 5,
        "channel": 0,
        "type": "noteOff",
        "noteNumber": 86,
        "velocity": 0,
        "byte9": true
      },
      {
        "deltaTime": 5,
        "channel": 0,
        "type": "noteOff",
        "noteNumber": 64,
        "velocity": 0,
        "byte9": true
      },
      {
        "deltaTime": 10,
        "channel": 0,
        "type": "noteOff",
        "noteNumber": 98,
        "velocity": 0,
        "byte9": true
      },
      {
        "deltaTime": 5,
        "channel": 0,
        "type": "noteOff",
        "noteNumber": 95,
        "velocity": 0,
        "byte9": true
      },
      {
        "deltaTime": 5,
        "channel": 0,
        "type": "noteOff",
        "noteNumber": 54,
        "velocity": 0,
        "byte9": true
      },
      {
        "deltaTime": 10,
        "channel": 0,
        "type": "noteOff",
        "noteNumber": 92,
        "velocity": 0,
        "byte9": true
      },
      {
        "deltaTime": 145,
        "channel": 0,
        "type": "noteOn",
        "noteNumber": 100,
        "velocity": 83
      },
      {
        "deltaTime": 5,
        "channel": 0,
        "type": "noteOn",
        "noteNumber": 54,
        "velocity": 87
      },
      {
        "deltaTime": 0,
        "running": true,
        "channel": 0,
        "type": "noteOn",
        "noteNumber": 88,
        "velocity": 84
      },
      {
        "deltaTime": 0,
        "running": true,
        "channel": 0,
        "type": "noteOn",
        "noteNumber": 93,
        "velocity": 84
      },
      {
        "deltaTime": 0,
        "running": true,
        "channel": 0,
        "type": "noteOn",
        "noteNumber": 96,
        "velocity": 81
      },
      {
        "deltaTime": 5,
        "channel": 0,
        "type": "noteOn",
        "noteNumber": 60,
        "velocity": 87
      },
      {
        "deltaTime": 0,
        "running": true,
        "channel": 0,
        "type": "noteOn",
        "noteNumber": 64,
        "velocity": 91
      },
      {
        "deltaTime": 10,
        "channel": 0,
        "type": "controller",
        "controllerType": 64,
        "value": 0
      },
      {
        "deltaTime": 95,
        "channel": 0,
        "type": "controller",
        "controllerType": 64,
        "value": 127
      },
      {
        "deltaTime": 175,
        "channel": 0,
        "type": "noteOff",
        "noteNumber": 93,
        "velocity": 0,
        "byte9": true
      },
      {
        "deltaTime": 0,
        "running": true,
        "channel": 0,
        "type": "noteOff",
        "noteNumber": 96,
        "velocity": 0,
        "byte9": true
      },
      {
        "deltaTime": 5,
        "channel": 0,
        "type": "noteOff",
        "noteNumber": 88,
        "velocity": 0,
        "byte9": true
      },
      {
        "deltaTime": 15,
        "channel": 0,
        "type": "noteOff",
        "noteNumber": 100,
        "velocity": 0,
        "byte9": true
      },
      {
        "deltaTime": 20,
        "channel": 0,
        "type": "noteOff",
        "noteNumber": 60,
        "velocity": 0,
        "byte9": true
      },
      {
        "deltaTime": 0,
        "running": true,
        "channel": 0,
        "type": "noteOff",
        "noteNumber": 64,
        "velocity": 0,
        "byte9": true
      },
      {
        "deltaTime": 55,
        "channel": 0,
        "type": "noteOff",
        "noteNumber": 54,
        "velocity": 0,
        "byte9": true
      },
      {
        "deltaTime": 55,
        "channel": 0,
        "type": "controller",
        "controllerType": 64,
        "value": 0
      },
      {
        "deltaTime": 10,
        "channel": 0,
        "type": "noteOn",
        "noteNumber": 58,
        "velocity": 78
      },
      {
        "deltaTime": 0,
        "running": true,
        "channel": 0,
        "type": "noteOn",
        "noteNumber": 62,
        "velocity": 96
      },
      {
        "deltaTime": 0,
        "running": true,
        "channel": 0,
        "type": "noteOn",
        "noteNumber": 94,
        "velocity": 88
      },
      {
        "deltaTime": 5,
        "channel": 0,
        "type": "noteOn",
        "noteNumber": 53,
        "velocity": 87
      },
      {
        "deltaTime": 0,
        "running": true,
        "channel": 0,
        "type": "noteOn",
        "noteNumber": 57,
        "velocity": 83
      },
      {
        "deltaTime": 0,
        "running": true,
        "channel": 0,
        "type": "noteOn",
        "noteNumber": 89,
        "velocity": 91
      },
      {
        "deltaTime": 0,
        "running": true,
        "channel": 0,
        "type": "noteOn",
        "noteNumber": 98,
        "velocity": 84
      },
      {
        "deltaTime": 0,
        "running": true,
        "channel": 0,
        "type": "noteOn",
        "noteNumber": 101,
        "velocity": 88
      },
      {
        "deltaTime": 125,
        "channel": 0,
        "type": "noteOff",
        "noteNumber": 98,
        "velocity": 0,
        "byte9": true
      },
      {
        "deltaTime": 5,
        "channel": 0,
        "type": "noteOff",
        "noteNumber": 58,
        "velocity": 0,
        "byte9": true
      },
      {
        "deltaTime": 0,
        "running": true,
        "channel": 0,
        "type": "noteOff",
        "noteNumber": 62,
        "velocity": 0,
        "byte9": true
      },
      {
        "deltaTime": 0,
        "running": true,
        "channel": 0,
        "type": "noteOff",
        "noteNumber": 89,
        "velocity": 0,
        "byte9": true
      },
      {
        "deltaTime": 0,
        "running": true,
        "channel": 0,
        "type": "noteOff",
        "noteNumber": 101,
        "velocity": 0,
        "byte9": true
      },
      {
        "deltaTime": 5,
        "channel": 0,
        "type": "noteOff",
        "noteNumber": 94,
        "velocity": 0,
        "byte9": true
      },
      {
        "deltaTime": 5,
        "channel": 0,
        "type": "noteOff",
        "noteNumber": 57,
        "velocity": 0,
        "byte9": true
      },
      {
        "deltaTime": 5,
        "channel": 0,
        "type": "noteOff",
        "noteNumber": 53,
        "velocity": 0,
        "byte9": true
      },
      {
        "deltaTime": 325,
        "channel": 0,
        "type": "noteOn",
        "noteNumber": 98,
        "velocity": 94
      },
      {
        "deltaTime": 5,
        "channel": 0,
        "type": "noteOn",
        "noteNumber": 57,
        "velocity": 82
      },
      {
        "deltaTime": 0,
        "running": true,
        "channel": 0,
        "type": "noteOn",
        "noteNumber": 58,
        "velocity": 81
      },
      {
        "deltaTime": 0,
        "running": true,
        "channel": 0,
        "type": "noteOn",
        "noteNumber": 62,
        "velocity": 95
      },
      {
        "deltaTime": 0,
        "running": true,
        "channel": 0,
        "type": "noteOn",
        "noteNumber": 86,
        "velocity": 95
      },
      {
        "deltaTime": 0,
        "running": true,
        "channel": 0,
        "type": "noteOn",
        "noteNumber": 94,
        "velocity": 79
      },
      {
        "deltaTime": 5,
        "channel": 0,
        "type": "noteOn",
        "noteNumber": 91,
        "velocity": 87
      },
      {
        "deltaTime": 5,
        "channel": 0,
        "type": "noteOn",
        "noteNumber": 53,
        "velocity": 87
      },
      {
        "deltaTime": 145,
        "channel": 0,
        "type": "controller",
        "controllerType": 64,
        "value": 127
      },
      {
        "deltaTime": 340,
        "channel": 0,
        "type": "noteOff",
        "noteNumber": 98,
        "velocity": 0,
        "byte9": true
      },
      {
        "deltaTime": 10,
        "channel": 0,
        "type": "noteOff",
        "noteNumber": 86,
        "velocity": 0,
        "byte9": true
      },
      {
        "deltaTime": 0,
        "running": true,
        "channel": 0,
        "type": "noteOff",
        "noteNumber": 91,
        "velocity": 0,
        "byte9": true
      },
      {
        "deltaTime": 5,
        "channel": 0,
        "type": "noteOff",
        "noteNumber": 62,
        "velocity": 0,
        "byte9": true
      },
      {
        "deltaTime": 10,
        "channel": 0,
        "type": "noteOff",
        "noteNumber": 53,
        "velocity": 0,
        "byte9": true
      },
      {
        "deltaTime": 5,
        "channel": 0,
        "type": "noteOff",
        "noteNumber": 58,
        "velocity": 0,
        "byte9": true
      },
      {
        "deltaTime": 20,
        "channel": 0,
        "type": "noteOff",
        "noteNumber": 57,
        "velocity": 0,
        "byte9": true
      },
      {
        "deltaTime": 10,
        "channel": 0,
        "type": "noteOff",
        "noteNumber": 94,
        "velocity": 0,
        "byte9": true
      },
      {
        "deltaTime": 40,
        "channel": 0,
        "type": "controller",
        "controllerType": 64,
        "value": 0
      },
      {
        "deltaTime": 40,
        "channel": 0,
        "type": "noteOn",
        "noteNumber": 58,
        "velocity": 55
      },
      {
        "deltaTime": 0,
        "running": true,
        "channel": 0,
        "type": "noteOn",
        "noteNumber": 96,
        "velocity": 60
      },
      {
        "deltaTime": 5,
        "channel": 0,
        "type": "noteOn",
        "noteNumber": 62,
        "velocity": 55
      },
      {
        "deltaTime": 0,
        "running": true,
        "channel": 0,
        "type": "noteOn",
        "noteNumber": 84,
        "velocity": 45
      },
      {
        "deltaTime": 5,
        "channel": 0,
        "type": "noteOn",
        "noteNumber": 57,
        "velocity": 35
      },
      {
        "deltaTime": 0,
        "running": true,
        "channel": 0,
        "type": "noteOn",
        "noteNumber": 91,
        "velocity": 54
      },
      {
        "deltaTime": 25,
        "channel": 0,
        "type": "noteOff",
        "noteNumber": 62,
        "velocity": 0,
        "byte9": true
      },
      {
        "deltaTime": 5,
        "channel": 0,
        "type": "noteOff",
        "noteNumber": 57,
        "velocity": 0,
        "byte9": true
      },
      {
        "deltaTime": 15,
        "channel": 0,
        "type": "noteOff",
        "noteNumber": 96,
        "velocity": 0,
        "byte9": true
      },
      {
        "deltaTime": 5,
        "channel": 0,
        "type": "noteOff",
        "noteNumber": 84,
        "velocity": 0,
        "byte9": true
      },
      {
        "deltaTime": 0,
        "running": true,
        "channel": 0,
        "type": "noteOff",
        "noteNumber": 91,
        "velocity": 0,
        "byte9": true
      },
      {
        "deltaTime": 15,
        "channel": 0,
        "type": "noteOff",
        "noteNumber": 58,
        "velocity": 0,
        "byte9": true
      },
      {
        "deltaTime": 420,
        "channel": 0,
        "type": "noteOn",
        "noteNumber": 57,
        "velocity": 44
      },
      {
        "deltaTime": 0,
        "running": true,
        "channel": 0,
        "type": "noteOn",
        "noteNumber": 58,
        "velocity": 44
      },
      {
        "deltaTime": 0,
        "running": true,
        "channel": 0,
        "type": "noteOn",
        "noteNumber": 62,
        "velocity": 52
      },
      {
        "deltaTime": 5,
        "channel": 0,
        "type": "noteOn",
        "noteNumber": 94,
        "velocity": 61
      },
      {
        "deltaTime": 5,
        "channel": 0,
        "type": "controller",
        "controllerType": 64,
        "value": 127
      },
      {
        "deltaTime": 0,
        "channel": 0,
        "type": "noteOn",
        "noteNumber": 82,
        "velocity": 58
      },
      {
        "deltaTime": 5,
        "channel": 0,
        "type": "noteOn",
        "noteNumber": 53,
        "velocity": 44
      },
      {
        "deltaTime": 45,
        "channel": 0,
        "type": "noteOff",
        "noteNumber": 82,
        "velocity": 0,
        "byte9": true
      },
      {
        "deltaTime": 5,
        "channel": 0,
        "type": "noteOff",
        "noteNumber": 57,
        "velocity": 0,
        "byte9": true
      },
      {
        "deltaTime": 5,
        "channel": 0,
        "type": "noteOff",
        "noteNumber": 94,
        "velocity": 0,
        "byte9": true
      },
      {
        "deltaTime": 15,
        "channel": 0,
        "type": "noteOff",
        "noteNumber": 62,
        "velocity": 0,
        "byte9": true
      },
      {
        "deltaTime": 35,
        "channel": 0,
        "type": "noteOff",
        "noteNumber": 53,
        "velocity": 0,
        "byte9": true
      },
      {
        "deltaTime": 5,
        "channel": 0,
        "type": "noteOff",
        "noteNumber": 58,
        "velocity": 0,
        "byte9": true
      },
      {
        "deltaTime": 60,
        "channel": 0,
        "type": "controller",
        "controllerType": 64,
        "value": 0
      },
      {
        "deltaTime": 125,
        "channel": 0,
        "type": "noteOn",
        "noteNumber": 93,
        "velocity": 87
      },
      {
        "deltaTime": 5,
        "channel": 0,
        "type": "noteOn",
        "noteNumber": 58,
        "velocity": 77
      },
      {
        "deltaTime": 0,
        "running": true,
        "channel": 0,
        "type": "noteOn",
        "noteNumber": 81,
        "velocity": 76
      },
      {
        "deltaTime": 5,
        "channel": 0,
        "type": "noteOn",
        "noteNumber": 52,
        "velocity": 85
      },
      {
        "deltaTime": 0,
        "running": true,
        "channel": 0,
        "type": "noteOn",
        "noteNumber": 62,
        "velocity": 89
      },
      {
        "deltaTime": 0,
        "running": true,
        "channel": 0,
        "type": "noteOn",
        "noteNumber": 86,
        "velocity": 77
      },
      {
        "deltaTime": 140,
        "channel": 0,
        "type": "noteOff",
        "noteNumber": 86,
        "velocity": 0,
        "byte9": true
      },
      {
        "deltaTime": 0,
        "running": true,
        "channel": 0,
        "type": "noteOff",
        "noteNumber": 93,
        "velocity": 0,
        "byte9": true
      },
      {
        "deltaTime": 10,
        "channel": 0,
        "type": "noteOff",
        "noteNumber": 58,
        "velocity": 0,
        "byte9": true
      },
      {
        "deltaTime": 0,
        "running": true,
        "channel": 0,
        "type": "noteOff",
        "noteNumber": 62,
        "velocity": 0,
        "byte9": true
      },
      {
        "deltaTime": 10,
        "channel": 0,
        "type": "noteOff",
        "noteNumber": 52,
        "velocity": 0,
        "byte9": true
      },
      {
        "deltaTime": 0,
        "running": true,
        "channel": 0,
        "type": "noteOff",
        "noteNumber": 81,
        "velocity": 0,
        "byte9": true
      },
      {
        "deltaTime": 320,
        "channel": 0,
        "type": "noteOn",
        "noteNumber": 77,
        "velocity": 82
      },
      {
        "deltaTime": 0,
        "running": true,
        "channel": 0,
        "type": "noteOn",
        "noteNumber": 84,
        "velocity": 85
      },
      {
        "deltaTime": 5,
        "channel": 0,
        "type": "noteOn",
        "noteNumber": 58,
        "velocity": 82
      },
      {
        "deltaTime": 0,
        "running": true,
        "channel": 0,
        "type": "noteOn",
        "noteNumber": 89,
        "velocity": 83
      },
      {
        "deltaTime": 5,
        "channel": 0,
        "type": "noteOn",
        "noteNumber": 62,
        "velocity": 89
      },
      {
        "deltaTime": 5,
        "channel": 0,
        "type": "noteOn",
        "noteNumber": 52,
        "velocity": 88
      },
      {
        "deltaTime": 5,
        "channel": 0,
        "type": "noteOn",
        "noteNumber": 79,
        "velocity": 41
      },
      {
        "deltaTime": 25,
        "channel": 0,
        "type": "noteOff",
        "noteNumber": 79,
        "velocity": 0,
        "byte9": true
      },
      {
        "deltaTime": 95,
        "channel": 0,
        "type": "controller",
        "controllerType": 64,
        "value": 127
      },
      {
        "deltaTime": 25,
        "channel": 0,
        "type": "noteOff",
        "noteNumber": 89,
        "velocity": 0,
        "byte9": true
      },
      {
        "deltaTime": 25,
        "channel": 0,
        "type": "noteOff",
        "noteNumber": 84,
        "velocity": 0,
        "byte9": true
      },
      {
        "deltaTime": 25,
        "channel": 0,
        "type": "noteOff",
        "noteNumber": 62,
        "velocity": 0,
        "byte9": true
      },
      {
        "deltaTime": 0,
        "running": true,
        "channel": 0,
        "type": "noteOff",
        "noteNumber": 77,
        "velocity": 0,
        "byte9": true
      },
      {
        "deltaTime": 40,
        "channel": 0,
        "type": "noteOff",
        "noteNumber": 58,
        "velocity": 0,
        "byte9": true
      },
      {
        "deltaTime": 30,
        "channel": 0,
        "type": "noteOff",
        "noteNumber": 52,
        "velocity": 0,
        "byte9": true
      },
      {
        "deltaTime": 240,
        "channel": 0,
        "type": "noteOn",
        "noteNumber": 53,
        "velocity": 54
      },
      {
        "deltaTime": 35,
        "channel": 0,
        "type": "noteOn",
        "noteNumber": 54,
        "velocity": 59
      },
      {
        "deltaTime": 20,
        "channel": 0,
        "type": "noteOn",
        "noteNumber": 55,
        "velocity": 80
      },
      {
        "deltaTime": 5,
        "channel": 0,
        "type": "controller",
        "controllerType": 64,
        "value": 0
      },
      {
        "deltaTime": 40,
        "channel": 0,
        "type": "noteOff",
        "noteNumber": 54,
        "velocity": 0,
        "byte9": true
      },
      {
        "deltaTime": 5,
        "channel": 0,
        "type": "noteOff",
        "noteNumber": 53,
        "velocity": 0,
        "byte9": true
      },
      {
        "deltaTime": 15,
        "channel": 0,
        "type": "noteOn",
        "noteNumber": 58,
        "velocity": 73
      },
      {
        "deltaTime": 0,
        "running": true,
        "channel": 0,
        "type": "noteOn",
        "noteNumber": 61,
        "velocity": 71
      },
      {
        "deltaTime": 0,
        "running": true,
        "channel": 0,
        "type": "noteOn",
        "noteNumber": 69,
        "velocity": 80
      },
      {
        "deltaTime": 5,
        "channel": 0,
        "type": "noteOn",
        "noteNumber": 64,
        "velocity": 68
      },
      {
        "deltaTime": 10,
        "channel": 0,
        "type": "noteOn",
        "noteNumber": 57,
        "velocity": 74
      },
      {
        "deltaTime": 35,
        "channel": 0,
        "type": "noteOff",
        "noteNumber": 55,
        "velocity": 0,
        "byte9": true
      },
      {
        "deltaTime": 240,
        "channel": 0,
        "type": "noteOff",
        "noteNumber": 58,
        "velocity": 0,
        "byte9": true
      },
      {
        "deltaTime": 5,
        "channel": 0,
        "type": "noteOff",
        "noteNumber": 64,
        "velocity": 0,
        "byte9": true
      },
      {
        "deltaTime": 5,
        "channel": 0,
        "type": "noteOff",
        "noteNumber": 69,
        "velocity": 0,
        "byte9": true
      },
      {
        "deltaTime": 10,
        "channel": 0,
        "type": "controller",
        "controllerType": 64,
        "value": 127
      },
      {
        "deltaTime": 5,
        "channel": 0,
        "type": "noteOff",
        "noteNumber": 61,
        "velocity": 0,
        "byte9": true
      },
      {
        "deltaTime": 55,
        "channel": 0,
        "type": "noteOff",
        "noteNumber": 57,
        "velocity": 0,
        "byte9": true
      },
      {
        "deltaTime": 45,
        "channel": 0,
        "type": "noteOn",
        "noteNumber": 55,
        "velocity": 50
      },
      {
        "deltaTime": 25,
        "channel": 0,
        "type": "controller",
        "controllerType": 64,
        "value": 0
      },
      {
        "deltaTime": 5,
        "channel": 0,
        "type": "noteOff",
        "noteNumber": 55,
        "velocity": 0,
        "byte9": true
      },
      {
        "deltaTime": 20,
        "channel": 0,
        "type": "noteOn",
        "noteNumber": 57,
        "velocity": 44
      },
      {
        "deltaTime": 10,
        "channel": 0,
        "type": "noteOn",
        "noteNumber": 58,
        "velocity": 69
      },
      {
        "deltaTime": 0,
        "running": true,
        "channel": 0,
        "type": "noteOn",
        "noteNumber": 61,
        "velocity": 70
      },
      {
        "deltaTime": 0,
        "running": true,
        "channel": 0,
        "type": "noteOn",
        "noteNumber": 64,
        "velocity": 71
      },
      {
        "deltaTime": 0,
        "running": true,
        "channel": 0,
        "type": "noteOn",
        "noteNumber": 69,
        "velocity": 64
      },
      {
        "deltaTime": 35,
        "channel": 0,
        "type": "controller",
        "controllerType": 64,
        "value": 127
      },
      {
        "deltaTime": 0,
        "channel": 0,
        "type": "noteOff",
        "noteNumber": 57,
        "velocity": 0,
        "byte9": true
      },
      {
        "deltaTime": 45,
        "channel": 0,
        "type": "noteOff",
        "noteNumber": 69,
        "velocity": 0,
        "byte9": true
      },
      {
        "deltaTime": 55,
        "channel": 0,
        "type": "noteOff",
        "noteNumber": 64,
        "velocity": 0,
        "byte9": true
      },
      {
        "deltaTime": 10,
        "channel": 0,
        "type": "noteOff",
        "noteNumber": 58,
        "velocity": 0,
        "byte9": true
      },
      {
        "deltaTime": 45,
        "channel": 0,
        "type": "noteOff",
        "noteNumber": 61,
        "velocity": 0,
        "byte9": true
      },
      {
        "deltaTime": 105,
        "channel": 0,
        "type": "noteOn",
        "noteNumber": 57,
        "velocity": 78
      },
      {
        "deltaTime": 0,
        "running": true,
        "channel": 0,
        "type": "noteOn",
        "noteNumber": 60,
        "velocity": 75
      },
      {
        "deltaTime": 0,
        "running": true,
        "channel": 0,
        "type": "noteOn",
        "noteNumber": 65,
        "velocity": 74
      },
      {
        "deltaTime": 5,
        "channel": 0,
        "type": "noteOn",
        "noteNumber": 62,
        "velocity": 66
      },
      {
        "deltaTime": 10,
        "channel": 0,
        "type": "controller",
        "controllerType": 64,
        "value": 0
      },
      {
        "deltaTime": 470,
        "channel": 0,
        "type": "noteOn",
        "noteNumber": 48,
        "velocity": 113
      },
      {
        "deltaTime": 170,
        "channel": 0,
        "type": "controller",
        "controllerType": 64,
        "value": 127
      },
      {
        "deltaTime": 355,
        "channel": 0,
        "type": "noteOff",
        "noteNumber": 65,
        "velocity": 0,
        "byte9": true
      },
      {
        "deltaTime": 10,
        "channel": 0,
        "type": "noteOff",
        "noteNumber": 57,
        "velocity": 0,
        "byte9": true
      },
      {
        "deltaTime": 15,
        "channel": 0,
        "type": "noteOff",
        "noteNumber": 60,
        "velocity": 0,
        "byte9": true
      },
      {
        "deltaTime": 15,
        "channel": 0,
        "type": "noteOff",
        "noteNumber": 62,
        "velocity": 0,
        "byte9": true
      },
      {
        "deltaTime": 40,
        "channel": 0,
        "type": "noteOff",
        "noteNumber": 48,
        "velocity": 0,
        "byte9": true
      },
      {
        "deltaTime": 30,
        "channel": 0,
        "type": "controller",
        "controllerType": 64,
        "value": 0
      },
      {
        "deltaTime": 35,
        "channel": 0,
        "type": "noteOn",
        "noteNumber": 48,
        "velocity": 67
      },
      {
        "deltaTime": 0,
        "running": true,
        "channel": 0,
        "type": "noteOn",
        "noteNumber": 57,
        "velocity": 68
      },
      {
        "deltaTime": 0,
        "running": true,
        "channel": 0,
        "type": "noteOn",
        "noteNumber": 65,
        "velocity": 67
      },
      {
        "deltaTime": 5,
        "channel": 0,
        "type": "noteOn",
        "noteNumber": 60,
        "velocity": 74
      },
      {
        "deltaTime": 5,
        "channel": 0,
        "type": "noteOn",
        "noteNumber": 62,
        "velocity": 62
      },
      {
        "deltaTime": 115,
        "channel": 0,
        "type": "controller",
        "controllerType": 64,
        "value": 127
      },
      {
        "deltaTime": 175,
        "channel": 0,
        "type": "noteOff",
        "noteNumber": 57,
        "velocity": 0,
        "byte9": true
      },
      {
        "deltaTime": 55,
        "channel": 0,
        "type": "noteOff",
        "noteNumber": 62,
        "velocity": 0,
        "byte9": true
      },
      {
        "deltaTime": 5,
        "channel": 0,
        "type": "noteOff",
        "noteNumber": 60,
        "velocity": 0,
        "byte9": true
      },
      {
        "deltaTime": 15,
        "channel": 0,
        "type": "noteOff",
        "noteNumber": 48,
        "velocity": 0,
        "byte9": true
      },
      {
        "deltaTime": 30,
        "channel": 0,
        "type": "noteOff",
        "noteNumber": 65,
        "velocity": 0,
        "byte9": true
      },
      {
        "deltaTime": 530,
        "channel": 0,
        "type": "controller",
        "controllerType": 64,
        "value": 0
      },
      {
        "deltaTime": 30,
        "channel": 0,
        "type": "noteOn",
        "noteNumber": 63,
        "velocity": 72
      },
      {
        "deltaTime": 0,
        "running": true,
        "channel": 0,
        "type": "noteOn",
        "noteNumber": 75,
        "velocity": 87
      },
      {
        "deltaTime": 5,
        "channel": 0,
        "type": "noteOn",
        "noteNumber": 67,
        "velocity": 91
      },
      {
        "deltaTime": 0,
        "running": true,
        "channel": 0,
        "type": "noteOn",
        "noteNumber": 72,
        "velocity": 90
      },
      {
        "deltaTime": 5,
        "channel": 0,
        "type": "noteOn",
        "noteNumber": 55,
        "velocity": 64
      },
      {
        "deltaTime": 0,
        "running": true,
        "channel": 0,
        "type": "noteOn",
        "noteNumber": 60,
        "velocity": 58
      },
      {
        "deltaTime": 5,
        "channel": 0,
        "type": "noteOn",
        "noteNumber": 57,
        "velocity": 58
      },
      {
        "deltaTime": 60,
        "channel": 0,
        "type": "controller",
        "controllerType": 64,
        "value": 127
      },
      {
        "deltaTime": 115,
        "channel": 0,
        "type": "noteOff",
        "noteNumber": 55,
        "velocity": 0,
        "byte9": true
      },
      {
        "deltaTime": 40,
        "channel": 0,
        "type": "noteOff",
        "noteNumber": 57,
        "velocity": 0,
        "byte9": true
      },
      {
        "deltaTime": 20,
        "channel": 0,
        "type": "noteOff",
        "noteNumber": 63,
        "velocity": 0,
        "byte9": true
      },
      {
        "deltaTime": 0,
        "running": true,
        "channel": 0,
        "type": "noteOff",
        "noteNumber": 75,
        "velocity": 0,
        "byte9": true
      },
      {
        "deltaTime": 5,
        "channel": 0,
        "type": "noteOff",
        "noteNumber": 60,
        "velocity": 0,
        "byte9": true
      },
      {
        "deltaTime": 25,
        "channel": 0,
        "type": "noteOff",
        "noteNumber": 67,
        "velocity": 0,
        "byte9": true
      },
      {
        "deltaTime": 5,
        "channel": 0,
        "type": "noteOff",
        "noteNumber": 72,
        "velocity": 0,
        "byte9": true
      },
      {
        "deltaTime": 40,
        "channel": 0,
        "type": "noteOn",
        "noteNumber": 67,
        "velocity": 49
      },
      {
        "deltaTime": 5,
        "channel": 0,
        "type": "noteOn",
        "noteNumber": 77,
        "velocity": 80
      },
      {
        "deltaTime": 5,
        "channel": 0,
        "type": "noteOn",
        "noteNumber": 60,
        "velocity": 50
      },
      {
        "deltaTime": 0,
        "running": true,
        "channel": 0,
        "type": "noteOn",
        "noteNumber": 63,
        "velocity": 55
      },
      {
        "deltaTime": 0,
        "running": true,
        "channel": 0,
        "type": "noteOn",
        "noteNumber": 72,
        "velocity": 68
      },
      {
        "deltaTime": 5,
        "channel": 0,
        "type": "noteOn",
        "noteNumber": 55,
        "velocity": 62
      },
      {
        "deltaTime": 40,
        "channel": 0,
        "type": "noteOff",
        "noteNumber": 60,
        "velocity": 0,
        "byte9": true
      },
      {
        "deltaTime": 0,
        "running": true,
        "channel": 0,
        "type": "noteOff",
        "noteNumber": 63,
        "velocity": 0,
        "byte9": true
      },
      {
        "deltaTime": 50,
        "channel": 0,
        "type": "noteOff",
        "noteNumber": 77,
        "velocity": 0,
        "byte9": true
      },
      {
        "deltaTime": 15,
        "channel": 0,
        "type": "noteOff",
        "noteNumber": 72,
        "velocity": 0,
        "byte9": true
      },
      {
        "deltaTime": 5,
        "channel": 0,
        "type": "noteOff",
        "noteNumber": 67,
        "velocity": 0,
        "byte9": true
      },
      {
        "deltaTime": 5,
        "channel": 0,
        "type": "controller",
        "controllerType": 64,
        "value": 0
      },
      {
        "deltaTime": 15,
        "channel": 0,
        "type": "noteOn",
        "noteNumber": 63,
        "velocity": 49
      },
      {
        "deltaTime": 20,
        "channel": 0,
        "type": "controller",
        "controllerType": 64,
        "value": 127
      },
      {
        "deltaTime": 5,
        "channel": 0,
        "type": "noteOn",
        "noteNumber": 75,
        "velocity": 53
      },
      {
        "deltaTime": 140,
        "channel": 0,
        "type": "noteOff",
        "noteNumber": 55,
        "velocity": 0,
        "byte9": true
      },
      {
        "deltaTime": 25,
        "channel": 0,
        "type": "noteOff",
        "noteNumber": 75,
        "velocity": 0,
        "byte9": true
      },
      {
        "deltaTime": 15,
        "channel": 0,
        "type": "noteOff",
        "noteNumber": 63,
        "velocity": 0,
        "byte9": true
      },
      {
        "deltaTime": 100,
        "channel": 0,
        "type": "noteOn",
        "noteNumber": 74,
        "velocity": 78
      },
      {
        "deltaTime": 5,
        "channel": 0,
        "type": "noteOn",
        "noteNumber": 60,
        "velocity": 65
      },
      {
        "deltaTime": 0,
        "running": true,
        "channel": 0,
        "type": "noteOn",
        "noteNumber": 66,
        "velocity": 60
      },
      {
        "deltaTime": 5,
        "channel": 0,
        "type": "noteOn",
        "noteNumber": 54,
        "velocity": 67
      },
      {
        "deltaTime": 0,
        "running": true,
        "channel": 0,
        "type": "noteOn",
        "noteNumber": 62,
        "velocity": 71
      },
      {
        "deltaTime": 0,
        "running": true,
        "channel": 0,
        "type": "noteOn",
        "noteNumber": 70,
        "velocity": 64
      },
      {
        "deltaTime": 25,
        "channel": 0,
        "type": "controller",
        "controllerType": 64,
        "value": 0
      },
      {
        "deltaTime": 40,
        "channel": 0,
        "type": "noteOff",
        "noteNumber": 66,
        "velocity": 0,
        "byte9": true
      },
      {
        "deltaTime": 25,
        "channel": 0,
        "type": "noteOff",
        "noteNumber": 70,
        "velocity": 0,
        "byte9": true
      },
      {
        "deltaTime": 10,
        "channel": 0,
        "type": "noteOff",
        "noteNumber": 74,
        "velocity": 0,
        "byte9": true
      },
      {
        "deltaTime": 245,
        "channel": 0,
        "type": "noteOn",
        "noteNumber": 84,
        "velocity": 110
      },
      {
        "deltaTime": 85,
        "channel": 0,
        "type": "noteOff",
        "noteNumber": 84,
        "velocity": 0,
        "byte9": true
      },
      {
        "deltaTime": 60,
        "channel": 0,
        "type": "noteOn",
        "noteNumber": 80,
        "velocity": 57
      },
      {
        "deltaTime": 70,
        "channel": 0,
        "type": "noteOff",
        "noteNumber": 80,
        "velocity": 0,
        "byte9": true
      },
      {
        "deltaTime": 85,
        "channel": 0,
        "type": "noteOn",
        "noteNumber": 81,
        "velocity": 69
      },
      {
        "deltaTime": 55,
        "channel": 0,
        "type": "noteOff",
        "noteNumber": 60,
        "velocity": 0,
        "byte9": true
      },
      {
        "deltaTime": 5,
        "channel": 0,
        "type": "noteOff",
        "noteNumber": 81,
        "velocity": 0,
        "byte9": true
      },
      {
        "deltaTime": 100,
        "channel": 0,
        "type": "noteOff",
        "noteNumber": 62,
        "velocity": 0,
        "byte9": true
      },
      {
        "deltaTime": 0,
        "running": true,
        "channel": 0,
        "type": "noteOn",
        "noteNumber": 84,
        "velocity": 96
      },
      {
        "deltaTime": 80,
        "channel": 0,
        "type": "noteOff",
        "noteNumber": 84,
        "velocity": 0,
        "byte9": true
      },
      {
        "deltaTime": 25,
        "channel": 0,
        "type": "noteOff",
        "noteNumber": 54,
        "velocity": 0,
        "byte9": true
      },
      {
        "deltaTime": 60,
        "channel": 0,
        "type": "noteOn",
        "noteNumber": 81,
        "velocity": 71
      },
      {
        "deltaTime": 110,
        "channel": 0,
        "type": "noteOff",
        "noteNumber": 81,
        "velocity": 0,
        "byte9": true
      },
      {
        "deltaTime": 50,
        "channel": 0,
        "type": "noteOn",
        "noteNumber": 57,
        "velocity": 48
      },
      {
        "deltaTime": 5,
        "channel": 0,
        "type": "noteOn",
        "noteNumber": 55,
        "velocity": 37
      },
      {
        "deltaTime": 0,
        "running": true,
        "channel": 0,
        "type": "noteOn",
        "noteNumber": 58,
        "velocity": 34
      },
      {
        "deltaTime": 0,
        "running": true,
        "channel": 0,
        "type": "noteOn",
        "noteNumber": 62,
        "velocity": 40
      },
      {
        "deltaTime": 0,
        "running": true,
        "channel": 0,
        "type": "noteOn",
        "noteNumber": 77,
        "velocity": 67
      },
      {
        "deltaTime": 135,
        "channel": 0,
        "type": "noteOff",
        "noteNumber": 77,
        "velocity": 0,
        "byte9": true
      },
      {
        "deltaTime": 35,
        "channel": 0,
        "type": "noteOn",
        "noteNumber": 74,
        "velocity": 56
      },
      {
        "deltaTime": 80,
        "channel": 0,
        "type": "noteOff",
        "noteNumber": 74,
        "velocity": 0,
        "byte9": true
      },
      {
        "deltaTime": 255,
        "channel": 0,
        "type": "noteOn",
        "noteNumber": 69,
        "velocity": 84
      },
      {
        "deltaTime": 5,
        "channel": 0,
        "type": "noteOff",
        "noteNumber": 57,
        "velocity": 0,
        "byte9": true
      },
      {
        "deltaTime": 5,
        "channel": 0,
        "type": "noteOff",
        "noteNumber": 62,
        "velocity": 0,
        "byte9": true
      },
      {
        "deltaTime": 25,
        "channel": 0,
        "type": "noteOff",
        "noteNumber": 55,
        "velocity": 0,
        "byte9": true
      },
      {
        "deltaTime": 0,
        "running": true,
        "channel": 0,
        "type": "noteOff",
        "noteNumber": 58,
        "velocity": 0,
        "byte9": true
      },
      {
        "deltaTime": 245,
        "channel": 0,
        "type": "noteOff",
        "noteNumber": 69,
        "velocity": 0,
        "byte9": true
      },
      {
        "deltaTime": 30,
        "channel": 0,
        "type": "noteOn",
        "noteNumber": 66,
        "velocity": 37
      },
      {
        "deltaTime": 120,
        "channel": 0,
        "type": "noteOff",
        "noteNumber": 66,
        "velocity": 0,
        "byte9": true
      },
      {
        "deltaTime": 30,
        "channel": 0,
        "type": "noteOn",
        "noteNumber": 67,
        "velocity": 54
      },
      {
        "deltaTime": 325,
        "channel": 0,
        "type": "noteOn",
        "noteNumber": 62,
        "velocity": 53
      },
      {
        "deltaTime": 535,
        "channel": 0,
        "type": "noteOff",
        "noteNumber": 62,
        "velocity": 0,
        "byte9": true
      },
      {
        "deltaTime": 35,
        "channel": 0,
        "type": "noteOff",
        "noteNumber": 67,
        "velocity": 0,
        "byte9": true
      },
      {
        "deltaTime": 50,
        "channel": 0,
        "type": "noteOn",
        "noteNumber": 62,
        "velocity": 37
      },
      {
        "deltaTime": 10,
        "channel": 0,
        "type": "noteOn",
        "noteNumber": 58,
        "velocity": 26
      },
      {
        "deltaTime": 5,
        "channel": 0,
        "type": "noteOn",
        "noteNumber": 52,
        "velocity": 32
      },
      {
        "deltaTime": 5,
        "channel": 0,
        "type": "noteOn",
        "noteNumber": 65,
        "velocity": 46
      },
      {
        "deltaTime": 45,
        "channel": 0,
        "type": "noteOff",
        "noteNumber": 52,
        "velocity": 0,
        "byte9": true
      },
      {
        "deltaTime": 10,
        "channel": 0,
        "type": "noteOff",
        "noteNumber": 62,
        "velocity": 0,
        "byte9": true
      },
      {
        "deltaTime": 15,
        "channel": 0,
        "type": "noteOff",
        "noteNumber": 58,
        "velocity": 0,
        "byte9": true
      },
      {
        "deltaTime": 5,
        "channel": 0,
        "type": "noteOff",
        "noteNumber": 65,
        "velocity": 0,
        "byte9": true
      },
      {
        "deltaTime": 725,
        "channel": 0,
        "type": "noteOn",
        "noteNumber": 58,
        "velocity": 50
      },
      {
        "deltaTime": 0,
        "running": true,
        "channel": 0,
        "type": "noteOn",
        "noteNumber": 65,
        "velocity": 71
      },
      {
        "deltaTime": 5,
        "channel": 0,
        "type": "noteOn",
        "noteNumber": 62,
        "velocity": 63
      },
      {
        "deltaTime": 30,
        "channel": 0,
        "type": "noteOff",
        "noteNumber": 62,
        "velocity": 0,
        "byte9": true
      },
      {
        "deltaTime": 5,
        "channel": 0,
        "type": "noteOff",
        "noteNumber": 65,
        "velocity": 0,
        "byte9": true
      },
      {
        "deltaTime": 30,
        "channel": 0,
        "type": "noteOff",
        "noteNumber": 58,
        "velocity": 0,
        "byte9": true
      },
      {
        "deltaTime": 425,
        "channel": 0,
        "type": "noteOn",
        "noteNumber": 84,
        "velocity": 115
      },
      {
        "deltaTime": 145,
        "channel": 0,
        "type": "noteOff",
        "noteNumber": 84,
        "velocity": 0,
        "byte9": true
      },
      {
        "deltaTime": 90,
        "channel": 0,
        "type": "noteOn",
        "noteNumber": 80,
        "velocity": 34
      },
      {
        "deltaTime": 115,
        "channel": 0,
        "type": "noteOff",
        "noteNumber": 80,
        "velocity": 0,
        "byte9": true
      },
      {
        "deltaTime": 10,
        "channel": 0,
        "type": "noteOn",
        "noteNumber": 81,
        "velocity": 62
      },
      {
        "deltaTime": 55,
        "channel": 0,
        "type": "noteOff",
        "noteNumber": 81,
        "velocity": 0,
        "byte9": true
      },
      {
        "deltaTime": 55,
        "channel": 0,
        "type": "noteOn",
        "noteNumber": 84,
        "velocity": 99
      },
      {
        "deltaTime": 105,
        "channel": 0,
        "type": "noteOn",
        "noteNumber": 62,
        "velocity": 45
      },
      {
        "deltaTime": 5,
        "channel": 0,
        "type": "noteOn",
        "noteNumber": 57,
        "velocity": 39
      },
      {
        "deltaTime": 5,
        "channel": 0,
        "type": "noteOn",
        "noteNumber": 58,
        "velocity": 34
      },
      {
        "deltaTime": 0,
        "running": true,
        "channel": 0,
        "type": "noteOff",
        "noteNumber": 84,
        "velocity": 0,
        "byte9": true
      },
      {
        "deltaTime": 25,
        "channel": 0,
        "type": "noteOff",
        "noteNumber": 62,
        "velocity": 0,
        "byte9": true
      },
      {
        "deltaTime": 15,
        "channel": 0,
        "type": "noteOff",
        "noteNumber": 57,
        "velocity": 0,
        "byte9": true
      },
      {
        "deltaTime": 0,
        "running": true,
        "channel": 0,
        "type": "noteOff",
        "noteNumber": 58,
        "velocity": 0,
        "byte9": true
      },
      {
        "deltaTime": 25,
        "channel": 0,
        "type": "noteOn",
        "noteNumber": 80,
        "velocity": 25
      },
      {
        "deltaTime": 70,
        "channel": 0,
        "type": "noteOff",
        "noteNumber": 80,
        "velocity": 0,
        "byte9": true
      },
      {
        "deltaTime": 685,
        "channel": 0,
        "type": "noteOn",
        "noteNumber": 62,
        "velocity": 80
      },
      {
        "deltaTime": 5,
        "channel": 0,
        "type": "noteOn",
        "noteNumber": 57,
        "velocity": 74
      },
      {
        "deltaTime": 0,
        "running": true,
        "channel": 0,
        "type": "noteOn",
        "noteNumber": 58,
        "velocity": 68
      },
      {
        "deltaTime": 20,
        "channel": 0,
        "type": "noteOn",
        "noteNumber": 84,
        "velocity": 96
      },
      {
        "deltaTime": 5,
        "channel": 0,
        "type": "noteOff",
        "noteNumber": 57,
        "velocity": 0,
        "byte9": true
      },
      {
        "deltaTime": 20,
        "channel": 0,
        "type": "noteOff",
        "noteNumber": 62,
        "velocity": 0,
        "byte9": true
      },
      {
        "deltaTime": 10,
        "channel": 0,
        "type": "noteOff",
        "noteNumber": 58,
        "velocity": 0,
        "byte9": true
      },
      {
        "deltaTime": 105,
        "channel": 0,
        "type": "noteOff",
        "noteNumber": 84,
        "velocity": 0,
        "byte9": true
      },
      {
        "deltaTime": 90,
        "channel": 0,
        "type": "noteOn",
        "noteNumber": 80,
        "velocity": 25
      },
      {
        "deltaTime": 60,
        "channel": 0,
        "type": "noteOff",
        "noteNumber": 80,
        "velocity": 0,
        "byte9": true
      },
      {
        "deltaTime": 45,
        "channel": 0,
        "type": "noteOn",
        "noteNumber": 81,
        "velocity": 34
      },
      {
        "deltaTime": 80,
        "channel": 0,
        "type": "noteOff",
        "noteNumber": 81,
        "velocity": 0,
        "byte9": true
      },
      {
        "deltaTime": 70,
        "channel": 0,
        "type": "noteOn",
        "noteNumber": 84,
        "velocity": 94
      },
      {
        "deltaTime": 15,
        "channel": 0,
        "type": "noteOn",
        "noteNumber": 86,
        "velocity": 45
      },
      {
        "deltaTime": 25,
        "channel": 0,
        "type": "noteOff",
        "noteNumber": 86,
        "velocity": 0,
        "byte9": true
      },
      {
        "deltaTime": 10,
        "channel": 0,
        "type": "noteOn",
        "noteNumber": 57,
        "velocity": 38
      },
      {
        "deltaTime": 30,
        "channel": 0,
        "type": "noteOff",
        "noteNumber": 57,
        "velocity": 0,
        "byte9": true
      },
      {
        "deltaTime": 30,
        "channel": 0,
        "type": "noteOff",
        "noteNumber": 84,
        "velocity": 0,
        "byte9": true
      },
      {
        "deltaTime": 215,
        "channel": 0,
        "type": "noteOn",
        "noteNumber": 81,
        "velocity": 47
      },
      {
        "deltaTime": 40,
        "channel": 0,
        "type": "noteOff",
        "noteNumber": 81,
        "velocity": 0,
        "byte9": true
      },
      {
        "deltaTime": 70,
        "channel": 0,
        "type": "noteOn",
        "noteNumber": 84,
        "velocity": 91
      },
      {
        "deltaTime": 65,
        "channel": 0,
        "type": "noteOff",
        "noteNumber": 84,
        "velocity": 0,
        "byte9": true
      },
      {
        "deltaTime": 100,
        "channel": 0,
        "type": "noteOn",
        "noteNumber": 85,
        "velocity": 70
      },
      {
        "deltaTime": 265,
        "channel": 0,
        "type": "noteOff",
        "noteNumber": 85,
        "velocity": 0,
        "byte9": true
      },
      {
        "deltaTime": 55,
        "channel": 0,
        "type": "noteOn",
        "noteNumber": 82,
        "velocity": 58
      },
      {
        "deltaTime": 5,
        "channel": 0,
        "type": "noteOn",
        "noteNumber": 63,
        "velocity": 56
      },
      {
        "deltaTime": 5,
        "channel": 0,
        "type": "noteOn",
        "noteNumber": 52,
        "velocity": 57
      },
      {
        "deltaTime": 0,
        "running": true,
        "channel": 0,
        "type": "noteOn",
        "noteNumber": 58,
        "velocity": 46
      },
      {
        "deltaTime": 65,
        "channel": 0,
        "type": "noteOff",
        "noteNumber": 63,
        "velocity": 0,
        "byte9": true
      },
      {
        "deltaTime": 10,
        "channel": 0,
        "type": "noteOff",
        "noteNumber": 52,
        "velocity": 0,
        "byte9": true
      },
      {
        "deltaTime": 30,
        "channel": 0,
        "type": "noteOff",
        "noteNumber": 58,
        "velocity": 0,
        "byte9": true
      },
      {
        "deltaTime": 15,
        "channel": 0,
        "type": "noteOff",
        "noteNumber": 82,
        "velocity": 0,
        "byte9": true
      },
      {
        "deltaTime": 535,
        "channel": 0,
        "type": "noteOn",
        "noteNumber": 79,
        "velocity": 94
      },
      {
        "deltaTime": 125,
        "channel": 0,
        "type": "noteOff",
        "noteNumber": 79,
        "velocity": 0,
        "byte9": true
      },
      {
        "deltaTime": 30,
        "channel": 0,
        "type": "noteOn",
        "noteNumber": 82,
        "velocity": 81
      },
      {
        "deltaTime": 105,
        "channel": 0,
        "type": "noteOff",
        "noteNumber": 82,
        "velocity": 0,
        "byte9": true
      },
      {
        "deltaTime": 50,
        "channel": 0,
        "type": "noteOn",
        "noteNumber": 63,
        "velocity": 65
      },
      {
        "deltaTime": 10,
        "channel": 0,
        "type": "noteOn",
        "noteNumber": 58,
        "velocity": 54
      },
      {
        "deltaTime": 5,
        "channel": 0,
        "type": "noteOn",
        "noteNumber": 52,
        "velocity": 58
      },
      {
        "deltaTime": 160,
        "channel": 0,
        "type": "noteOn",
        "noteNumber": 76,
        "velocity": 71
      },
      {
        "deltaTime": 85,
        "channel": 0,
        "type": "noteOff",
        "noteNumber": 76,
        "velocity": 0,
        "byte9": true
      },
      {
        "deltaTime": 70,
        "channel": 0,
        "type": "noteOn",
        "noteNumber": 79,
        "velocity": 70
      },
      {
        "deltaTime": 20,
        "channel": 0,
        "type": "noteOff",
        "noteNumber": 52,
        "velocity": 0,
        "byte9": true
      },
      {
        "deltaTime": 25,
        "channel": 0,
        "type": "noteOff",
        "noteNumber": 58,
        "velocity": 0,
        "byte9": true
      },
      {
        "deltaTime": 15,
        "channel": 0,
        "type": "noteOff",
        "noteNumber": 63,
        "velocity": 0,
        "byte9": true
      },
      {
        "deltaTime": 50,
        "channel": 0,
        "type": "noteOff",
        "noteNumber": 79,
        "velocity": 0,
        "byte9": true
      },
      {
        "deltaTime": 30,
        "channel": 0,
        "type": "noteOn",
        "noteNumber": 64,
        "velocity": 69
      },
      {
        "deltaTime": 10,
        "channel": 0,
        "type": "noteOn",
        "noteNumber": 60,
        "velocity": 55
      },
      {
        "deltaTime": 10,
        "channel": 0,
        "type": "noteOn",
        "noteNumber": 53,
        "velocity": 50
      },
      {
        "deltaTime": 0,
        "running": true,
        "channel": 0,
        "type": "noteOn",
        "noteNumber": 57,
        "velocity": 54
      },
      {
        "deltaTime": 35,
        "channel": 0,
        "type": "noteOff",
        "noteNumber": 64,
        "velocity": 0,
        "byte9": true
      },
      {
        "deltaTime": 60,
        "channel": 0,
        "type": "noteOff",
        "noteNumber": 53,
        "velocity": 0,
        "byte9": true
      },
      {
        "deltaTime": 40,
        "channel": 0,
        "type": "noteOff",
        "noteNumber": 60,
        "velocity": 0,
        "byte9": true
      },
      {
        "deltaTime": 5,
        "channel": 0,
        "type": "noteOff",
        "noteNumber": 57,
        "velocity": 0,
        "byte9": true
      },
      {
        "deltaTime": 35,
        "channel": 0,
        "type": "noteOn",
        "noteNumber": 72,
        "velocity": 65
      },
      {
        "deltaTime": 70,
        "channel": 0,
        "type": "noteOff",
        "noteNumber": 72,
        "velocity": 0,
        "byte9": true
      },
      {
        "deltaTime": 80,
        "channel": 0,
        "type": "noteOn",
        "noteNumber": 74,
        "velocity": 72
      },
      {
        "deltaTime": 100,
        "channel": 0,
        "type": "noteOff",
        "noteNumber": 74,
        "velocity": 0,
        "byte9": true
      },
      {
        "deltaTime": 55,
        "channel": 0,
        "type": "noteOn",
        "noteNumber": 57,
        "velocity": 71
      },
      {
        "deltaTime": 5,
        "channel": 0,
        "type": "noteOn",
        "noteNumber": 67,
        "velocity": 60
      },
      {
        "deltaTime": 5,
        "channel": 0,
        "type": "noteOn",
        "noteNumber": 62,
        "velocity": 66
      },
      {
        "deltaTime": 30,
        "channel": 0,
        "type": "noteOff",
        "noteNumber": 67,
        "velocity": 0,
        "byte9": true
      },
      {
        "deltaTime": 70,
        "channel": 0,
        "type": "noteOff",
        "noteNumber": 57,
        "velocity": 0,
        "byte9": true
      },
      {
        "deltaTime": 5,
        "channel": 0,
        "type": "noteOff",
        "noteNumber": 62,
        "velocity": 0,
        "byte9": true
      },
      {
        "deltaTime": 60,
        "channel": 0,
        "type": "noteOn",
        "noteNumber": 69,
        "velocity": 64
      },
      {
        "deltaTime": 110,
        "channel": 0,
        "type": "noteOff",
        "noteNumber": 69,
        "velocity": 0,
        "byte9": true
      },
      {
        "deltaTime": 45,
        "channel": 0,
        "type": "noteOn",
        "noteNumber": 72,
        "velocity": 71
      },
      {
        "deltaTime": 115,
        "channel": 0,
        "type": "noteOff",
        "noteNumber": 72,
        "velocity": 0,
        "byte9": true
      },
      {
        "deltaTime": 20,
        "channel": 0,
        "type": "noteOn",
        "noteNumber": 57,
        "velocity": 66
      },
      {
        "deltaTime": 0,
        "running": true,
        "channel": 0,
        "type": "noteOn",
        "noteNumber": 62,
        "velocity": 64
      },
      {
        "deltaTime": 30,
        "channel": 0,
        "type": "noteOff",
        "noteNumber": 62,
        "velocity": 0,
        "byte9": true
      },
      {
        "deltaTime": 45,
        "channel": 0,
        "type": "noteOff",
        "noteNumber": 57,
        "velocity": 0,
        "byte9": true
      },
      {
        "deltaTime": 100,
        "channel": 0,
        "type": "noteOn",
        "noteNumber": 67,
        "velocity": 51
      },
      {
        "deltaTime": 5,
        "channel": 0,
        "type": "noteOn",
        "noteNumber": 65,
        "velocity": 60
      },
      {
        "deltaTime": 40,
        "channel": 0,
        "type": "noteOff",
        "noteNumber": 67,
        "velocity": 0,
        "byte9": true
      },
      {
        "deltaTime": 60,
        "channel": 0,
        "type": "noteOff",
        "noteNumber": 65,
        "velocity": 0,
        "byte9": true
      },
      {
        "deltaTime": 60,
        "channel": 0,
        "type": "noteOn",
        "noteNumber": 69,
        "velocity": 64
      },
      {
        "deltaTime": 115,
        "channel": 0,
        "type": "noteOff",
        "noteNumber": 69,
        "velocity": 0,
        "byte9": true
      },
      {
        "deltaTime": 35,
        "channel": 0,
        "type": "noteOn",
        "noteNumber": 62,
        "velocity": 64
      },
      {
        "deltaTime": 10,
        "channel": 0,
        "type": "noteOn",
        "noteNumber": 57,
        "velocity": 55
      },
      {
        "deltaTime": 65,
        "channel": 0,
        "type": "noteOff",
        "noteNumber": 62,
        "velocity": 0,
        "byte9": true
      },
      {
        "deltaTime": 90,
        "channel": 0,
        "type": "noteOff",
        "noteNumber": 57,
        "velocity": 0,
        "byte9": true
      },
      {
        "deltaTime": 10,
        "channel": 0,
        "type": "noteOn",
        "noteNumber": 64,
        "velocity": 63
      },
      {
        "deltaTime": 80,
        "channel": 0,
        "type": "noteOff",
        "noteNumber": 64,
        "velocity": 0,
        "byte9": true
      },
      {
        "deltaTime": 70,
        "channel": 0,
        "type": "noteOn",
        "noteNumber": 67,
        "velocity": 62
      },
      {
        "deltaTime": 80,
        "channel": 0,
        "type": "noteOff",
        "noteNumber": 67,
        "velocity": 0,
        "byte9": true
      },
      {
        "deltaTime": 60,
        "channel": 0,
        "type": "noteOn",
        "noteNumber": 56,
        "velocity": 73
      },
      {
        "deltaTime": 10,
        "channel": 0,
        "type": "noteOn",
        "noteNumber": 62,
        "velocity": 79
      },
      {
        "deltaTime": 165,
        "channel": 0,
        "type": "noteOn",
        "noteNumber": 72,
        "velocity": 52
      },
      {
        "deltaTime": 5,
        "channel": 0,
        "type": "noteOn",
        "noteNumber": 74,
        "velocity": 62
      },
      {
        "deltaTime": 25,
        "channel": 0,
        "type": "noteOff",
        "noteNumber": 74,
        "velocity": 0,
        "byte9": true
      },
      {
        "deltaTime": 25,
        "channel": 0,
        "type": "noteOff",
        "noteNumber": 56,
        "velocity": 0,
        "byte9": true
      },
      {
        "deltaTime": 0,
        "running": true,
        "channel": 0,
        "type": "noteOff",
        "noteNumber": 72,
        "velocity": 0,
        "byte9": true
      },
      {
        "deltaTime": 15,
        "channel": 0,
        "type": "noteOff",
        "noteNumber": 62,
        "velocity": 0,
        "byte9": true
      },
      {
        "deltaTime": 65,
        "channel": 0,
        "type": "noteOn",
        "noteNumber": 76,
        "velocity": 71
      },
      {
        "deltaTime": 110,
        "channel": 0,
        "type": "noteOff",
        "noteNumber": 76,
        "velocity": 0,
        "byte9": true
      },
      {
        "deltaTime": 45,
        "channel": 0,
        "type": "noteOn",
        "noteNumber": 56,
        "velocity": 64
      },
      {
        "deltaTime": 5,
        "channel": 0,
        "type": "noteOn",
        "noteNumber": 62,
        "velocity": 65
      },
      {
        "deltaTime": 0,
        "running": true,
        "channel": 0,
        "type": "noteOn",
        "noteNumber": 67,
        "velocity": 71
      },
      {
        "deltaTime": 25,
        "channel": 0,
        "type": "noteOn",
        "noteNumber": 79,
        "velocity": 75
      },
      {
        "deltaTime": 140,
        "channel": 0,
        "type": "controller",
        "controllerType": 64,
        "value": 127
      },
      {
        "deltaTime": 40,
        "channel": 0,
        "type": "noteOff",
        "noteNumber": 79,
        "velocity": 0,
        "byte9": true
      },
      {
        "deltaTime": 20,
        "channel": 0,
        "type": "noteOff",
        "noteNumber": 62,
        "velocity": 0,
        "byte9": true
      },
      {
        "deltaTime": 0,
        "running": true,
        "channel": 0,
        "type": "noteOff",
        "noteNumber": 67,
        "velocity": 0,
        "byte9": true
      },
      {
        "deltaTime": 15,
        "channel": 0,
        "type": "noteOff",
        "noteNumber": 56,
        "velocity": 0,
        "byte9": true
      },
      {
        "deltaTime": 40,
        "channel": 0,
        "type": "controller",
        "controllerType": 64,
        "value": 0
      },
      {
        "deltaTime": 65,
        "channel": 0,
        "type": "noteOn",
        "noteNumber": 56,
        "velocity": 64
      },
      {
        "deltaTime": 10,
        "channel": 0,
        "type": "noteOn",
        "noteNumber": 62,
        "velocity": 68
      },
      {
        "deltaTime": 0,
        "running": true,
        "channel": 0,
        "type": "noteOn",
        "noteNumber": 67,
        "velocity": 65
      },
      {
        "deltaTime": 0,
        "running": true,
        "channel": 0,
        "type": "noteOn",
        "noteNumber": 84,
        "velocity": 84
      },
      {
        "deltaTime": 55,
        "channel": 0,
        "type": "controller",
        "controllerType": 64,
        "value": 127
      },
      {
        "deltaTime": 5,
        "channel": 0,
        "type": "noteOff",
        "noteNumber": 67,
        "velocity": 0,
        "byte9": true
      },
      {
        "deltaTime": 20,
        "channel": 0,
        "type": "noteOff",
        "noteNumber": 56,
        "velocity": 0,
        "byte9": true
      },
      {
        "deltaTime": 5,
        "channel": 0,
        "type": "noteOff",
        "noteNumber": 62,
        "velocity": 0,
        "byte9": true
      },
      {
        "deltaTime": 15,
        "channel": 0,
        "type": "noteOff",
        "noteNumber": 84,
        "velocity": 0,
        "byte9": true
      },
      {
        "deltaTime": 40,
        "channel": 0,
        "type": "noteOn",
        "noteNumber": 56,
        "velocity": 48
      },
      {
        "deltaTime": 15,
        "channel": 0,
        "type": "noteOn",
        "noteNumber": 62,
        "velocity": 64
      },
      {
        "deltaTime": 0,
        "running": true,
        "channel": 0,
        "type": "noteOn",
        "noteNumber": 88,
        "velocity": 83
      },
      {
        "deltaTime": 5,
        "channel": 0,
        "type": "noteOn",
        "noteNumber": 67,
        "velocity": 45
      },
      {
        "deltaTime": 30,
        "channel": 0,
        "type": "noteOff",
        "noteNumber": 67,
        "velocity": 0,
        "byte9": true
      },
      {
        "deltaTime": 45,
        "channel": 0,
        "type": "noteOff",
        "noteNumber": 56,
        "velocity": 0,
        "byte9": true
      },
      {
        "deltaTime": 15,
        "channel": 0,
        "type": "noteOff",
        "noteNumber": 88,
        "velocity": 0,
        "byte9": true
      },
      {
        "deltaTime": 10,
        "channel": 0,
        "type": "noteOff",
        "noteNumber": 62,
        "velocity": 0,
        "byte9": true
      },
      {
        "deltaTime": 25,
        "channel": 0,
        "type": "controller",
        "controllerType": 64,
        "value": 0
      },
      {
        "deltaTime": 20,
        "channel": 0,
        "type": "noteOn",
        "noteNumber": 91,
        "velocity": 84
      },
      {
        "deltaTime": 5,
        "channel": 0,
        "type": "noteOn",
        "noteNumber": 56,
        "velocity": 59
      },
      {
        "deltaTime": 0,
        "running": true,
        "channel": 0,
        "type": "noteOn",
        "noteNumber": 65,
        "velocity": 70
      },
      {
        "deltaTime": 0,
        "running": true,
        "channel": 0,
        "type": "noteOn",
        "noteNumber": 79,
        "velocity": 75
      },
      {
        "deltaTime": 5,
        "channel": 0,
        "type": "noteOn",
        "noteNumber": 62,
        "velocity": 68
      },
      {
        "deltaTime": 5,
        "channel": 0,
        "type": "noteOn",
        "noteNumber": 84,
        "velocity": 62
      },
      {
        "deltaTime": 25,
        "channel": 0,
        "type": "noteOff",
        "noteNumber": 84,
        "velocity": 0,
        "byte9": true
      },
      {
        "deltaTime": 60,
        "channel": 0,
        "type": "noteOff",
        "noteNumber": 79,
        "velocity": 0,
        "byte9": true
      },
      {
        "deltaTime": 5,
        "channel": 0,
        "type": "noteOff",
        "noteNumber": 65,
        "velocity": 0,
        "byte9": true
      },
      {
        "deltaTime": 5,
        "channel": 0,
        "type": "noteOff",
        "noteNumber": 56,
        "velocity": 0,
        "byte9": true
      },
      {
        "deltaTime": 0,
        "running": true,
        "channel": 0,
        "type": "noteOff",
        "noteNumber": 91,
        "velocity": 0,
        "byte9": true
      },
      {
        "deltaTime": 10,
        "channel": 0,
        "type": "noteOff",
        "noteNumber": 62,
        "velocity": 0,
        "byte9": true
      },
      {
        "deltaTime": 35,
        "channel": 0,
        "type": "noteOn",
        "noteNumber": 91,
        "velocity": 67
      },
      {
        "deltaTime": 10,
        "channel": 0,
        "type": "noteOn",
        "noteNumber": 56,
        "velocity": 45
      },
      {
        "deltaTime": 0,
        "running": true,
        "channel": 0,
        "type": "noteOn",
        "noteNumber": 79,
        "velocity": 60
      },
      {
        "deltaTime": 10,
        "channel": 0,
        "type": "noteOn",
        "noteNumber": 62,
        "velocity": 64
      },
      {
        "deltaTime": 0,
        "running": true,
        "channel": 0,
        "type": "noteOn",
        "noteNumber": 65,
        "velocity": 48
      },
      {
        "deltaTime": 85,
        "channel": 0,
        "type": "noteOff",
        "noteNumber": 79,
        "velocity": 0,
        "byte9": true
      },
      {
        "deltaTime": 5,
        "channel": 0,
        "type": "noteOff",
        "noteNumber": 65,
        "velocity": 0,
        "byte9": true
      },
      {
        "deltaTime": 15,
        "channel": 0,
        "type": "noteOff",
        "noteNumber": 62,
        "velocity": 0,
        "byte9": true
      },
      {
        "deltaTime": 5,
        "channel": 0,
        "type": "noteOff",
        "noteNumber": 56,
        "velocity": 0,
        "byte9": true
      },
      {
        "deltaTime": 0,
        "running": true,
        "channel": 0,
        "type": "noteOff",
        "noteNumber": 91,
        "velocity": 0,
        "byte9": true
      },
      {
        "deltaTime": 15,
        "channel": 0,
        "type": "controller",
        "controllerType": 64,
        "value": 127
      },
      {
        "deltaTime": 15,
        "channel": 0,
        "type": "noteOn",
        "noteNumber": 56,
        "velocity": 49
      },
      {
        "deltaTime": 0,
        "running": true,
        "channel": 0,
        "type": "noteOn",
        "noteNumber": 84,
        "velocity": 78
      },
      {
        "deltaTime": 15,
        "channel": 0,
        "type": "noteOn",
        "noteNumber": 65,
        "velocity": 68
      },
      {
        "deltaTime": 5,
        "channel": 0,
        "type": "noteOn",
        "noteNumber": 62,
        "velocity": 71
      },
      {
        "deltaTime": 55,
        "channel": 0,
        "type": "noteOff",
        "noteNumber": 65,
        "velocity": 0,
        "byte9": true
      },
      {
        "deltaTime": 25,
        "channel": 0,
        "type": "noteOff",
        "noteNumber": 84,
        "velocity": 0,
        "byte9": true
      },
      {
        "deltaTime": 10,
        "channel": 0,
        "type": "noteOff",
        "noteNumber": 62,
        "velocity": 0,
        "byte9": true
      },
      {
        "deltaTime": 10,
        "channel": 0,
        "type": "controller",
        "controllerType": 64,
        "value": 0
      },
      {
        "deltaTime": 20,
        "channel": 0,
        "type": "noteOff",
        "noteNumber": 56,
        "velocity": 0,
        "byte9": true
      },
      {
        "deltaTime": 30,
        "channel": 0,
        "type": "controller",
        "controllerType": 64,
        "value": 127
      },
      {
        "deltaTime": 0,
        "channel": 0,
        "type": "noteOn",
        "noteNumber": 84,
        "velocity": 65
      },
      {
        "deltaTime": 10,
        "channel": 0,
        "type": "noteOn",
        "noteNumber": 56,
        "velocity": 28
      },
      {
        "deltaTime": 35,
        "channel": 0,
        "type": "noteOn",
        "noteNumber": 62,
        "velocity": 24
      },
      {
        "deltaTime": 45,
        "channel": 0,
        "type": "noteOff",
        "noteNumber": 62,
        "velocity": 0,
        "byte9": true
      },
      {
        "deltaTime": 5,
        "channel": 0,
        "type": "noteOff",
        "noteNumber": 56,
        "velocity": 0,
        "byte9": true
      },
      {
        "deltaTime": 10,
        "channel": 0,
        "type": "noteOff",
        "noteNumber": 84,
        "velocity": 0,
        "byte9": true
      },
      {
        "deltaTime": 50,
        "channel": 0,
        "type": "noteOn",
        "noteNumber": 56,
        "velocity": 53
      },
      {
        "deltaTime": 0,
        "running": true,
        "channel": 0,
        "type": "noteOn",
        "noteNumber": 88,
        "velocity": 85
      },
      {
        "deltaTime": 5,
        "channel": 0,
        "type": "noteOn",
        "noteNumber": 62,
        "velocity": 62
      },
      {
        "deltaTime": 5,
        "channel": 0,
        "type": "noteOn",
        "noteNumber": 65,
        "velocity": 58
      },
      {
        "deltaTime": 85,
        "channel": 0,
        "type": "noteOff",
        "noteNumber": 88,
        "velocity": 0,
        "byte9": true
      },
      {
        "deltaTime": 55,
        "channel": 0,
        "type": "noteOff",
        "noteNumber": 62,
        "velocity": 0,
        "byte9": true
      },
      {
        "deltaTime": 5,
        "channel": 0,
        "type": "noteOn",
        "noteNumber": 88,
        "velocity": 65
      },
      {
        "deltaTime": 10,
        "channel": 0,
        "type": "noteOff",
        "noteNumber": 56,
        "velocity": 0,
        "byte9": true
      },
      {
        "deltaTime": 50,
        "channel": 0,
        "type": "noteOff",
        "noteNumber": 65,
        "velocity": 0,
        "byte9": true
      },
      {
        "deltaTime": 60,
        "channel": 0,
        "type": "noteOff",
        "noteNumber": 88,
        "velocity": 0,
        "byte9": true
      },
      {
        "deltaTime": 30,
        "channel": 0,
        "type": "controller",
        "controllerType": 64,
        "value": 0
      },
      {
        "deltaTime": 10,
        "channel": 0,
        "type": "noteOn",
        "noteNumber": 57,
        "velocity": 58
      },
      {
        "deltaTime": 0,
        "running": true,
        "channel": 0,
        "type": "noteOn",
        "noteNumber": 81,
        "velocity": 61
      },
      {
        "deltaTime": 5,
        "channel": 0,
        "type": "noteOn",
        "noteNumber": 62,
        "velocity": 55
      },
      {
        "deltaTime": 10,
        "channel": 0,
        "type": "noteOn",
        "noteNumber": 65,
        "velocity": 32
      },
      {
        "deltaTime": 30,
        "channel": 0,
        "type": "noteOff",
        "noteNumber": 65,
        "velocity": 0,
        "byte9": true
      },
      {
        "deltaTime": 65,
        "channel": 0,
        "type": "noteOff",
        "noteNumber": 81,
        "velocity": 0,
        "byte9": true
      },
      {
        "deltaTime": 20,
        "channel": 0,
        "type": "noteOff",
        "noteNumber": 62,
        "velocity": 0,
        "byte9": true
      },
      {
        "deltaTime": 20,
        "channel": 0,
        "type": "noteOff",
        "noteNumber": 57,
        "velocity": 0,
        "byte9": true
      },
      {
        "deltaTime": 15,
        "channel": 0,
        "type": "noteOn",
        "noteNumber": 81,
        "velocity": 59
      },
      {
        "deltaTime": 25,
        "channel": 0,
        "type": "noteOn",
        "noteNumber": 57,
        "velocity": 25
      },
      {
        "deltaTime": 15,
        "channel": 0,
        "type": "noteOn",
        "noteNumber": 62,
        "velocity": 36
      },
      {
        "deltaTime": 0,
        "running": true,
        "channel": 0,
        "type": "noteOn",
        "noteNumber": 65,
        "velocity": 35
      },
      {
        "deltaTime": 45,
        "channel": 0,
        "type": "noteOff",
        "noteNumber": 62,
        "velocity": 0,
        "byte9": true
      },
      {
        "deltaTime": 0,
        "running": true,
        "channel": 0,
        "type": "noteOff",
        "noteNumber": 65,
        "velocity": 0,
        "byte9": true
      },
      {
        "deltaTime": 10,
        "channel": 0,
        "type": "noteOff",
        "noteNumber": 81,
        "velocity": 0,
        "byte9": true
      },
      {
        "deltaTime": 5,
        "channel": 0,
        "type": "noteOff",
        "noteNumber": 57,
        "velocity": 0,
        "byte9": true
      },
      {
        "deltaTime": 10,
        "channel": 0,
        "type": "controller",
        "controllerType": 64,
        "value": 127
      },
      {
        "deltaTime": 40,
        "channel": 0,
        "type": "noteOn",
        "noteNumber": 65,
        "velocity": 62
      },
      {
        "deltaTime": 5,
        "channel": 0,
        "type": "noteOn",
        "noteNumber": 57,
        "velocity": 73
      },
      {
        "deltaTime": 5,
        "channel": 0,
        "type": "noteOn",
        "noteNumber": 62,
        "velocity": 61
      },
      {
        "deltaTime": 0,
        "running": true,
        "channel": 0,
        "type": "noteOn",
        "noteNumber": 84,
        "velocity": 88
      },
      {
        "deltaTime": 110,
        "channel": 0,
        "type": "noteOff",
        "noteNumber": 84,
        "velocity": 0,
        "byte9": true
      },
      {
        "deltaTime": 10,
        "channel": 0,
        "type": "noteOff",
        "noteNumber": 57,
        "velocity": 0,
        "byte9": true
      },
      {
        "deltaTime": 0,
        "running": true,
        "channel": 0,
        "type": "noteOff",
        "noteNumber": 65,
        "velocity": 0,
        "byte9": true
      },
      {
        "deltaTime": 5,
        "channel": 0,
        "type": "noteOff",
        "noteNumber": 62,
        "velocity": 0,
        "byte9": true
      },
      {
        "deltaTime": 30,
        "channel": 0,
        "type": "noteOn",
        "noteNumber": 84,
        "velocity": 76
      },
      {
        "deltaTime": 100,
        "channel": 0,
        "type": "noteOff",
        "noteNumber": 84,
        "velocity": 0,
        "byte9": true
      },
      {
        "deltaTime": 40,
        "channel": 0,
        "type": "controller",
        "controllerType": 64,
        "value": 0
      },
      {
        "deltaTime": 20,
        "channel": 0,
        "type": "noteOn",
        "noteNumber": 57,
        "velocity": 60
      },
      {
        "deltaTime": 0,
        "running": true,
        "channel": 0,
        "type": "noteOn",
        "noteNumber": 65,
        "velocity": 60
      },
      {
        "deltaTime": 5,
        "channel": 0,
        "type": "noteOn",
        "noteNumber": 62,
        "velocity": 48
      },
      {
        "deltaTime": 0,
        "running": true,
        "channel": 0,
        "type": "noteOn",
        "noteNumber": 76,
        "velocity": 60
      },
      {
        "deltaTime": 70,
        "channel": 0,
        "type": "controller",
        "controllerType": 64,
        "value": 127
      },
      {
        "deltaTime": 20,
        "channel": 0,
        "type": "noteOff",
        "noteNumber": 76,
        "velocity": 0,
        "byte9": true
      },
      {
        "deltaTime": 10,
        "channel": 0,
        "type": "noteOff",
        "noteNumber": 65,
        "velocity": 0,
        "byte9": true
      },
      {
        "deltaTime": 20,
        "channel": 0,
        "type": "noteOff",
        "noteNumber": 62,
        "velocity": 0,
        "byte9": true
      },
      {
        "deltaTime": 35,
        "channel": 0,
        "type": "noteOn",
        "noteNumber": 76,
        "velocity": 58
      },
      {
        "deltaTime": 10,
        "channel": 0,
        "type": "noteOn",
        "noteNumber": 65,
        "velocity": 55
      },
      {
        "deltaTime": 5,
        "channel": 0,
        "type": "noteOn",
        "noteNumber": 62,
        "velocity": 33
      },
      {
        "deltaTime": 65,
        "channel": 0,
        "type": "noteOff",
        "noteNumber": 65,
        "velocity": 0,
        "byte9": true
      },
      {
        "deltaTime": 15,
        "channel": 0,
        "type": "noteOff",
        "noteNumber": 57,
        "velocity": 0,
        "byte9": true
      },
      {
        "deltaTime": 0,
        "running": true,
        "channel": 0,
        "type": "noteOff",
        "noteNumber": 62,
        "velocity": 0,
        "byte9": true
      },
      {
        "deltaTime": 20,
        "channel": 0,
        "type": "noteOff",
        "noteNumber": 76,
        "velocity": 0,
        "byte9": true
      },
      {
        "deltaTime": 45,
        "channel": 0,
        "type": "noteOn",
        "noteNumber": 57,
        "velocity": 60
      },
      {
        "deltaTime": 5,
        "channel": 0,
        "type": "noteOn",
        "noteNumber": 62,
        "velocity": 57
      },
      {
        "deltaTime": 0,
        "running": true,
        "channel": 0,
        "type": "noteOn",
        "noteNumber": 65,
        "velocity": 66
      },
      {
        "deltaTime": 0,
        "running": true,
        "channel": 0,
        "type": "noteOn",
        "noteNumber": 79,
        "velocity": 80
      },
      {
        "deltaTime": 10,
        "channel": 0,
        "type": "controller",
        "controllerType": 64,
        "value": 0
      },
      {
        "deltaTime": 85,
        "channel": 0,
        "type": "noteOff",
        "noteNumber": 79,
        "velocity": 0,
        "byte9": true
      },
      {
        "deltaTime": 10,
        "channel": 0,
        "type": "noteOff",
        "noteNumber": 65,
        "velocity": 0,
        "byte9": true
      },
      {
        "deltaTime": 15,
        "channel": 0,
        "type": "noteOff",
        "noteNumber": 62,
        "velocity": 0,
        "byte9": true
      },
      {
        "deltaTime": 20,
        "channel": 0,
        "type": "noteOff",
        "noteNumber": 57,
        "velocity": 0,
        "byte9": true
      },
      {
        "deltaTime": 5,
        "channel": 0,
        "type": "noteOn",
        "noteNumber": 79,
        "velocity": 64
      },
      {
        "deltaTime": 25,
        "channel": 0,
        "type": "controller",
        "controllerType": 64,
        "value": 127
      },
      {
        "deltaTime": 90,
        "channel": 0,
        "type": "noteOff",
        "noteNumber": 79,
        "velocity": 0,
        "byte9": true
      },
      {
        "deltaTime": 40,
        "channel": 0,
        "type": "noteOn",
        "noteNumber": 57,
        "velocity": 62
      },
      {
        "deltaTime": 5,
        "channel": 0,
        "type": "noteOn",
        "noteNumber": 62,
        "velocity": 55
      },
      {
        "deltaTime": 5,
        "channel": 0,
        "type": "noteOn",
        "noteNumber": 65,
        "velocity": 59
      },
      {
        "deltaTime": 0,
        "running": true,
        "channel": 0,
        "type": "noteOn",
        "noteNumber": 72,
        "velocity": 58
      },
      {
        "deltaTime": 75,
        "channel": 0,
        "type": "noteOff",
        "noteNumber": 72,
        "velocity": 0,
        "byte9": true
      },
      {
        "deltaTime": 15,
        "channel": 0,
        "type": "noteOff",
        "noteNumber": 65,
        "velocity": 0,
        "byte9": true
      },
      {
        "deltaTime": 80,
        "channel": 0,
        "type": "noteOn",
        "noteNumber": 65,
        "velocity": 38
      },
      {
        "deltaTime": 10,
        "channel": 0,
        "type": "noteOn",
        "noteNumber": 72,
        "velocity": 58
      },
      {
        "deltaTime": 50,
        "channel": 0,
        "type": "noteOff",
        "noteNumber": 65,
        "velocity": 0,
        "byte9": true
      },
      {
        "deltaTime": 0,
        "running": true,
        "channel": 0,
        "type": "noteOff",
        "noteNumber": 72,
        "velocity": 0,
        "byte9": true
      },
      {
        "deltaTime": 10,
        "channel": 0,
        "type": "noteOff",
        "noteNumber": 57,
        "velocity": 0,
        "byte9": true
      },
      {
        "deltaTime": 5,
        "channel": 0,
        "type": "noteOff",
        "noteNumber": 62,
        "velocity": 0,
        "byte9": true
      },
      {
        "deltaTime": 55,
        "channel": 0,
        "type": "controller",
        "controllerType": 64,
        "value": 0
      },
      {
        "deltaTime": 30,
        "channel": 0,
        "type": "noteOn",
        "noteNumber": 74,
        "velocity": 101
      },
      {
        "deltaTime": 15,
        "channel": 0,
        "type": "noteOn",
        "noteNumber": 62,
        "velocity": 60
      },
      {
        "deltaTime": 0,
        "running": true,
        "channel": 0,
        "type": "noteOn",
        "noteNumber": 67,
        "velocity": 68
      },
      {
        "deltaTime": 10,
        "channel": 0,
        "type": "noteOn",
        "noteNumber": 56,
        "velocity": 46
      },
      {
        "deltaTime": 50,
        "channel": 0,
        "type": "noteOff",
        "noteNumber": 67,
        "velocity": 0,
        "byte9": true
      },
      {
        "deltaTime": 25,
        "channel": 0,
        "type": "controller",
        "controllerType": 64,
        "value": 127
      },
      {
        "deltaTime": 0,
        "channel": 0,
        "type": "noteOff",
        "noteNumber": 62,
        "velocity": 0,
        "byte9": true
      },
      {
        "deltaTime": 10,
        "channel": 0,
        "type": "noteOff",
        "noteNumber": 74,
        "velocity": 0,
        "byte9": true
      },
      {
        "deltaTime": 10,
        "channel": 0,
        "type": "noteOff",
        "noteNumber": 56,
        "velocity": 0,
        "byte9": true
      },
      {
        "deltaTime": 35,
        "channel": 0,
        "type": "noteOn",
        "noteNumber": 74,
        "velocity": 82
      },
      {
        "deltaTime": 115,
        "channel": 0,
        "type": "noteOff",
        "noteNumber": 74,
        "velocity": 0,
        "byte9": true
      },
      {
        "deltaTime": 15,
        "channel": 0,
        "type": "controller",
        "controllerType": 64,
        "value": 0
      },
      {
        "deltaTime": 20,
        "channel": 0,
        "type": "noteOn",
        "noteNumber": 56,
        "velocity": 45
      },
      {
        "deltaTime": 5,
        "channel": 0,
        "type": "noteOn",
        "noteNumber": 62,
        "velocity": 42
      },
      {
        "deltaTime": 0,
        "running": true,
        "channel": 0,
        "type": "noteOn",
        "noteNumber": 65,
        "velocity": 52
      },
      {
        "deltaTime": 10,
        "channel": 0,
        "type": "noteOn",
        "noteNumber": 71,
        "velocity": 53
      },
      {
        "deltaTime": 95,
        "channel": 0,
        "type": "noteOff",
        "noteNumber": 71,
        "velocity": 0,
        "byte9": true
      },
      {
        "deltaTime": 60,
        "channel": 0,
        "type": "noteOff",
        "noteNumber": 62,
        "velocity": 0,
        "byte9": true
      },
      {
        "deltaTime": 0,
        "running": true,
        "channel": 0,
        "type": "noteOn",
        "noteNumber": 71,
        "velocity": 60
      },
      {
        "deltaTime": 30,
        "channel": 0,
        "type": "noteOff",
        "noteNumber": 65,
        "velocity": 0,
        "byte9": true
      },
      {
        "deltaTime": 25,
        "channel": 0,
        "type": "noteOn",
        "noteNumber": 62,
        "velocity": 20
      },
      {
        "deltaTime": 35,
        "channel": 0,
        "type": "noteOff",
        "noteNumber": 71,
        "velocity": 0,
        "byte9": true
      },
      {
        "deltaTime": 70,
        "channel": 0,
        "type": "noteOn",
        "noteNumber": 68,
        "velocity": 39
      },
      {
        "deltaTime": 10,
        "channel": 0,
        "type": "controller",
        "controllerType": 64,
        "value": 127
      },
      {
        "deltaTime": 15,
        "channel": 0,
        "type": "noteOff",
        "noteNumber": 62,
        "velocity": 0,
        "byte9": true
      },
      {
        "deltaTime": 55,
        "channel": 0,
        "type": "noteOff",
        "noteNumber": 68,
        "velocity": 0,
        "byte9": true
      },
      {
        "deltaTime": 20,
        "channel": 0,
        "type": "noteOff",
        "noteNumber": 56,
        "velocity": 0,
        "byte9": true
      },
      {
        "deltaTime": 85,
        "channel": 0,
        "type": "controller",
        "controllerType": 64,
        "value": 0
      },
      {
        "deltaTime": 165,
        "channel": 0,
        "type": "noteOn",
        "noteNumber": 55,
        "velocity": 74
      },
      {
        "deltaTime": 70,
        "channel": 0,
        "type": "noteOff",
        "noteNumber": 55,
        "velocity": 0,
        "byte9": true
      },
      {
        "deltaTime": 70,
        "channel": 0,
        "type": "noteOn",
        "noteNumber": 56,
        "velocity": 69
      },
      {
        "deltaTime": 100,
        "channel": 0,
        "type": "noteOff",
        "noteNumber": 56,
        "velocity": 0,
        "byte9": true
      },
      {
        "deltaTime": 70,
        "channel": 0,
        "type": "noteOn",
        "noteNumber": 58,
        "velocity": 55
      },
      {
        "deltaTime": 55,
        "channel": 0,
        "type": "noteOff",
        "noteNumber": 58,
        "velocity": 0,
        "byte9": true
      },
      {
        "deltaTime": 55,
        "channel": 0,
        "type": "noteOn",
        "noteNumber": 59,
        "velocity": 57
      },
      {
        "deltaTime": 65,
        "channel": 0,
        "type": "noteOff",
        "noteNumber": 59,
        "velocity": 0,
        "byte9": true
      },
      {
        "deltaTime": 50,
        "channel": 0,
        "type": "noteOn",
        "noteNumber": 61,
        "velocity": 57
      },
      {
        "deltaTime": 65,
        "channel": 0,
        "type": "noteOff",
        "noteNumber": 61,
        "velocity": 0,
        "byte9": true
      },
      {
        "deltaTime": 45,
        "channel": 0,
        "type": "noteOn",
        "noteNumber": 62,
        "velocity": 64
      },
      {
        "deltaTime": 70,
        "channel": 0,
        "type": "noteOff",
        "noteNumber": 62,
        "velocity": 0,
        "byte9": true
      },
      {
        "deltaTime": 40,
        "channel": 0,
        "type": "noteOn",
        "noteNumber": 64,
        "velocity": 66
      },
      {
        "deltaTime": 90,
        "channel": 0,
        "type": "noteOff",
        "noteNumber": 64,
        "velocity": 0,
        "byte9": true
      },
      {
        "deltaTime": 30,
        "channel": 0,
        "type": "noteOn",
        "noteNumber": 65,
        "velocity": 67
      },
      {
        "deltaTime": 75,
        "channel": 0,
        "type": "noteOff",
        "noteNumber": 65,
        "velocity": 0,
        "byte9": true
      },
      {
        "deltaTime": 45,
        "channel": 0,
        "type": "noteOn",
        "noteNumber": 67,
        "velocity": 54
      },
      {
        "deltaTime": 70,
        "channel": 0,
        "type": "noteOff",
        "noteNumber": 67,
        "velocity": 0,
        "byte9": true
      },
      {
        "deltaTime": 45,
        "channel": 0,
        "type": "noteOn",
        "noteNumber": 68,
        "velocity": 67
      },
      {
        "deltaTime": 70,
        "channel": 0,
        "type": "noteOff",
        "noteNumber": 68,
        "velocity": 0,
        "byte9": true
      },
      {
        "deltaTime": 35,
        "channel": 0,
        "type": "noteOn",
        "noteNumber": 62,
        "velocity": 47
      },
      {
        "deltaTime": 15,
        "channel": 0,
        "type": "noteOn",
        "noteNumber": 58,
        "velocity": 31
      },
      {
        "deltaTime": 5,
        "channel": 0,
        "type": "noteOn",
        "noteNumber": 69,
        "velocity": 71
      },
      {
        "deltaTime": 25,
        "channel": 0,
        "type": "noteOff",
        "noteNumber": 62,
        "velocity": 0,
        "byte9": true
      },
      {
        "deltaTime": 45,
        "channel": 0,
        "type": "noteOff",
        "noteNumber": 58,
        "velocity": 0,
        "byte9": true
      },
      {
        "deltaTime": 35,
        "channel": 0,
        "type": "noteOff",
        "noteNumber": 69,
        "velocity": 0,
        "byte9": true
      },
      {
        "deltaTime": 35,
        "channel": 0,
        "type": "noteOn",
        "noteNumber": 66,
        "velocity": 56
      },
      {
        "deltaTime": 55,
        "channel": 0,
        "type": "noteOff",
        "noteNumber": 66,
        "velocity": 0,
        "byte9": true
      },
      {
        "deltaTime": 50,
        "channel": 0,
        "type": "noteOn",
        "noteNumber": 67,
        "velocity": 58
      },
      {
        "deltaTime": 70,
        "channel": 0,
        "type": "noteOff",
        "noteNumber": 67,
        "velocity": 0,
        "byte9": true
      },
      {
        "deltaTime": 50,
        "channel": 0,
        "type": "noteOn",
        "noteNumber": 69,
        "velocity": 69
      },
      {
        "deltaTime": 55,
        "channel": 0,
        "type": "noteOn",
        "noteNumber": 58,
        "velocity": 31
      },
      {
        "deltaTime": 40,
        "channel": 0,
        "type": "noteOff",
        "noteNumber": 58,
        "velocity": 0,
        "byte9": true
      },
      {
        "deltaTime": 15,
        "channel": 0,
        "type": "noteOff",
        "noteNumber": 69,
        "velocity": 0,
        "byte9": true
      },
      {
        "deltaTime": 10,
        "channel": 0,
        "type": "noteOn",
        "noteNumber": 70,
        "velocity": 57
      },
      {
        "deltaTime": 45,
        "channel": 0,
        "type": "noteOff",
        "noteNumber": 70,
        "velocity": 0,
        "byte9": true
      },
      {
        "deltaTime": 75,
        "channel": 0,
        "type": "noteOn",
        "noteNumber": 74,
        "velocity": 77
      },
      {
        "deltaTime": 65,
        "channel": 0,
        "type": "noteOff",
        "noteNumber": 74,
        "velocity": 0,
        "byte9": true
      },
      {
        "deltaTime": 50,
        "channel": 0,
        "type": "noteOn",
        "noteNumber": 77,
        "velocity": 64
      },
      {
        "deltaTime": 65,
        "channel": 0,
        "type": "noteOff",
        "noteNumber": 77,
        "velocity": 0,
        "byte9": true
      },
      {
        "deltaTime": 80,
        "channel": 0,
        "type": "noteOn",
        "noteNumber": 81,
        "velocity": 71
      },
      {
        "deltaTime": 75,
        "channel": 0,
        "type": "noteOff",
        "noteNumber": 81,
        "velocity": 0,
        "byte9": true
      },
      {
        "deltaTime": 40,
        "channel": 0,
        "type": "noteOn",
        "noteNumber": 84,
        "velocity": 89
      },
      {
        "deltaTime": 5,
        "channel": 0,
        "type": "noteOn",
        "noteNumber": 62,
        "velocity": 51
      },
      {
        "deltaTime": 5,
        "channel": 0,
        "type": "noteOn",
        "noteNumber": 58,
        "velocity": 42
      },
      {
        "deltaTime": 5,
        "channel": 0,
        "type": "noteOn",
        "noteNumber": 57,
        "velocity": 36
      },
      {
        "deltaTime": 0,
        "running": true,
        "channel": 0,
        "type": "noteOn",
        "noteNumber": 72,
        "velocity": 69
      },
      {
        "deltaTime": 45,
        "channel": 0,
        "type": "noteOff",
        "noteNumber": 57,
        "velocity": 0,
        "byte9": true
      },
      {
        "deltaTime": 15,
        "channel": 0,
        "type": "noteOff",
        "noteNumber": 62,
        "velocity": 0,
        "byte9": true
      },
      {
        "deltaTime": 10,
        "channel": 0,
        "type": "noteOff",
        "noteNumber": 72,
        "velocity": 0,
        "byte9": true
      },
      {
        "deltaTime": 10,
        "channel": 0,
        "type": "noteOff",
        "noteNumber": 58,
        "velocity": 0,
        "byte9": true
      },
      {
        "deltaTime": 10,
        "channel": 0,
        "type": "noteOff",
        "noteNumber": 84,
        "velocity": 0,
        "byte9": true
      },
      {
        "deltaTime": 55,
        "channel": 0,
        "type": "noteOn",
        "noteNumber": 81,
        "velocity": 57
      },
      {
        "deltaTime": 25,
        "channel": 0,
        "type": "noteOff",
        "noteNumber": 81,
        "velocity": 0,
        "byte9": true
      },
      {
        "deltaTime": 60,
        "channel": 0,
        "type": "noteOn",
        "noteNumber": 84,
        "velocity": 87
      },
      {
        "deltaTime": 15,
        "channel": 0,
        "type": "noteOn",
        "noteNumber": 57,
        "velocity": 42
      },
      {
        "deltaTime": 0,
        "running": true,
        "channel": 0,
        "type": "noteOn",
        "noteNumber": 58,
        "velocity": 46
      },
      {
        "deltaTime": 0,
        "running": true,
        "channel": 0,
        "type": "noteOn",
        "noteNumber": 72,
        "velocity": 65
      },
      {
        "deltaTime": 5,
        "channel": 0,
        "type": "noteOn",
        "noteNumber": 62,
        "velocity": 49
      },
      {
        "deltaTime": 70,
        "channel": 0,
        "type": "noteOff",
        "noteNumber": 72,
        "velocity": 0,
        "byte9": true
      },
      {
        "deltaTime": 40,
        "channel": 0,
        "type": "noteOff",
        "noteNumber": 84,
        "velocity": 0,
        "byte9": true
      },
      {
        "deltaTime": 15,
        "channel": 0,
        "type": "noteOn",
        "noteNumber": 81,
        "velocity": 71
      },
      {
        "deltaTime": 20,
        "channel": 0,
        "type": "noteOff",
        "noteNumber": 58,
        "velocity": 0,
        "byte9": true
      },
      {
        "deltaTime": 10,
        "channel": 0,
        "type": "controller",
        "controllerType": 64,
        "value": 127
      },
      {
        "deltaTime": 10,
        "channel": 0,
        "type": "noteOff",
        "noteNumber": 62,
        "velocity": 0,
        "byte9": true
      },
      {
        "deltaTime": 25,
        "channel": 0,
        "type": "controller",
        "controllerType": 64,
        "value": 0
      },
      {
        "deltaTime": 30,
        "channel": 0,
        "type": "noteOff",
        "noteNumber": 81,
        "velocity": 0,
        "byte9": true
      },
      {
        "deltaTime": 20,
        "channel": 0,
        "type": "noteOn",
        "noteNumber": 77,
        "velocity": 66
      },
      {
        "deltaTime": 130,
        "channel": 0,
        "type": "noteOff",
        "noteNumber": 77,
        "velocity": 0,
        "byte9": true
      },
      {
        "deltaTime": 10,
        "channel": 0,
        "type": "noteOn",
        "noteNumber": 74,
        "velocity": 66
      },
      {
        "deltaTime": 35,
        "channel": 0,
        "type": "noteOff",
        "noteNumber": 74,
        "velocity": 0,
        "byte9": true
      },
      {
        "deltaTime": 60,
        "channel": 0,
        "type": "noteOn",
        "noteNumber": 84,
        "velocity": 87
      },
      {
        "deltaTime": 25,
        "channel": 0,
        "type": "noteOn",
        "noteNumber": 62,
        "velocity": 38
      },
      {
        "deltaTime": 15,
        "channel": 0,
        "type": "noteOn",
        "noteNumber": 58,
        "velocity": 31
      },
      {
        "deltaTime": 20,
        "channel": 0,
        "type": "noteOff",
        "noteNumber": 62,
        "velocity": 0,
        "byte9": true
      },
      {
        "deltaTime": 20,
        "channel": 0,
        "type": "noteOff",
        "noteNumber": 58,
        "velocity": 0,
        "byte9": true
      },
      {
        "deltaTime": 5,
        "channel": 0,
        "type": "noteOff",
        "noteNumber": 57,
        "velocity": 0,
        "byte9": true
      },
      {
        "deltaTime": 25,
        "channel": 0,
        "type": "noteOff",
        "noteNumber": 84,
        "velocity": 0,
        "byte9": true
      },
      {
        "deltaTime": 35,
        "channel": 0,
        "type": "noteOn",
        "noteNumber": 81,
        "velocity": 63
      },
      {
        "deltaTime": 5,
        "channel": 0,
        "type": "controller",
        "controllerType": 64,
        "value": 127
      },
      {
        "deltaTime": 40,
        "channel": 0,
        "type": "noteOff",
        "noteNumber": 81,
        "velocity": 0,
        "byte9": true
      },
      {
        "deltaTime": 30,
        "channel": 0,
        "type": "controller",
        "controllerType": 64,
        "value": 0
      },
      {
        "deltaTime": 25,
        "channel": 0,
        "type": "noteOn",
        "noteNumber": 58,
        "velocity": 44
      },
      {
        "deltaTime": 0,
        "running": true,
        "channel": 0,
        "type": "noteOn",
        "noteNumber": 63,
        "velocity": 51
      },
      {
        "deltaTime": 5,
        "channel": 0,
        "type": "noteOn",
        "noteNumber": 52,
        "velocity": 48
      },
      {
        "deltaTime": 5,
        "channel": 0,
        "type": "noteOn",
        "noteNumber": 73,
        "velocity": 71
      },
      {
        "deltaTime": 0,
        "running": true,
        "channel": 0,
        "type": "noteOn",
        "noteNumber": 85,
        "velocity": 75
      },
      {
        "deltaTime": 60,
        "channel": 0,
        "type": "noteOff",
        "noteNumber": 63,
        "velocity": 0,
        "byte9": true
      },
      {
        "deltaTime": 10,
        "channel": 0,
        "type": "noteOff",
        "noteNumber": 52,
        "velocity": 0,
        "byte9": true
      },
      {
        "deltaTime": 25,
        "channel": 0,
        "type": "noteOff",
        "noteNumber": 73,
        "velocity": 0,
        "byte9": true
      },
      {
        "deltaTime": 15,
        "channel": 0,
        "type": "noteOff",
        "noteNumber": 58,
        "velocity": 0,
        "byte9": true
      },
      {
        "deltaTime": 15,
        "channel": 0,
        "type": "noteOff",
        "noteNumber": 85,
        "velocity": 0,
        "byte9": true
      },
      {
        "deltaTime": 20,
        "channel": 0,
        "type": "noteOn",
        "noteNumber": 82,
        "velocity": 55
      },
      {
        "deltaTime": 115,
        "channel": 0,
        "type": "noteOn",
        "noteNumber": 63,
        "velocity": 37
      },
      {
        "deltaTime": 0,
        "running": true,
        "channel": 0,
        "type": "noteOn",
        "noteNumber": 73,
        "velocity": 49
      },
      {
        "deltaTime": 10,
        "channel": 0,
        "type": "noteOn",
        "noteNumber": 58,
        "velocity": 33
      },
      {
        "deltaTime": 15,
        "channel": 0,
        "type": "noteOff",
        "noteNumber": 73,
        "velocity": 0,
        "byte9": true
      },
      {
        "deltaTime": 25,
        "channel": 0,
        "type": "noteOff",
        "noteNumber": 82,
        "velocity": 0,
        "byte9": true
      },
      {
        "deltaTime": 5,
        "channel": 0,
        "type": "noteOff",
        "noteNumber": 63,
        "velocity": 0,
        "byte9": true
      },
      {
        "deltaTime": 30,
        "channel": 0,
        "type": "noteOff",
        "noteNumber": 58,
        "velocity": 0,
        "byte9": true
      },
      {
        "deltaTime": 435,
        "channel": 0,
        "type": "noteOn",
        "noteNumber": 58,
        "velocity": 56
      },
      {
        "deltaTime": 0,
        "running": true,
        "channel": 0,
        "type": "noteOn",
        "noteNumber": 63,
        "velocity": 71
      },
      {
        "deltaTime": 10,
        "channel": 0,
        "type": "noteOn",
        "noteNumber": 52,
        "velocity": 57
      },
      {
        "deltaTime": 30,
        "channel": 0,
        "type": "noteOff",
        "noteNumber": 52,
        "velocity": 0,
        "byte9": true
      },
      {
        "deltaTime": 40,
        "channel": 0,
        "type": "noteOff",
        "noteNumber": 63,
        "velocity": 0,
        "byte9": true
      },
      {
        "deltaTime": 20,
        "channel": 0,
        "type": "noteOff",
        "noteNumber": 58,
        "velocity": 0,
        "byte9": true
      },
      {
        "deltaTime": 110,
        "channel": 0,
        "type": "noteOn",
        "noteNumber": 63,
        "velocity": 60
      },
      {
        "deltaTime": 5,
        "channel": 0,
        "type": "noteOn",
        "noteNumber": 58,
        "velocity": 44
      },
      {
        "deltaTime": 10,
        "channel": 0,
        "type": "noteOn",
        "noteNumber": 52,
        "velocity": 53
      },
      {
        "deltaTime": 15,
        "channel": 0,
        "type": "controller",
        "controllerType": 64,
        "value": 127
      },
      {
        "deltaTime": 150,
        "channel": 0,
        "type": "noteOff",
        "noteNumber": 52,
        "velocity": 0,
        "byte9": true
      },
      {
        "deltaTime": 10,
        "channel": 0,
        "type": "noteOff",
        "noteNumber": 58,
        "velocity": 0,
        "byte9": true
      },
      {
        "deltaTime": 40,
        "channel": 0,
        "type": "noteOff",
        "noteNumber": 63,
        "velocity": 0,
        "byte9": true
      },
      {
        "deltaTime": 155,
        "channel": 0,
        "type": "controller",
        "controllerType": 64,
        "value": 0
      },
      {
        "deltaTime": 45,
        "channel": 0,
        "type": "noteOn",
        "noteNumber": 67,
        "velocity": 74
      },
      {
        "deltaTime": 0,
        "running": true,
        "channel": 0,
        "type": "noteOn",
        "noteNumber": 92,
        "velocity": 80
      },
      {
        "deltaTime": 5,
        "channel": 0,
        "type": "noteOn",
        "noteNumber": 62,
        "velocity": 70
      },
      {
        "deltaTime": 0,
        "running": true,
        "channel": 0,
        "type": "noteOn",
        "noteNumber": 80,
        "velocity": 76
      },
      {
        "deltaTime": 5,
        "channel": 0,
        "type": "noteOn",
        "noteNumber": 56,
        "velocity": 64
      },
      {
        "deltaTime": 35,
        "channel": 0,
        "type": "controller",
        "controllerType": 64,
        "value": 127
      },
      {
        "deltaTime": 100,
        "channel": 0,
        "type": "noteOff",
        "noteNumber": 62,
        "velocity": 0,
        "byte9": true
      },
      {
        "deltaTime": 5,
        "channel": 0,
        "type": "noteOff",
        "noteNumber": 67,
        "velocity": 0,
        "byte9": true
      },
      {
        "deltaTime": 35,
        "channel": 0,
        "type": "noteOff",
        "noteNumber": 92,
        "velocity": 0,
        "byte9": true
      },
      {
        "deltaTime": 20,
        "channel": 0,
        "type": "noteOff",
        "noteNumber": 80,
        "velocity": 0,
        "byte9": true
      },
      {
        "deltaTime": 40,
        "channel": 0,
        "type": "noteOff",
        "noteNumber": 56,
        "velocity": 0,
        "byte9": true
      },
      {
        "deltaTime": 35,
        "channel": 0,
        "type": "controller",
        "controllerType": 64,
        "value": 0
      },
      {
        "deltaTime": 25,
        "channel": 0,
        "type": "noteOn",
        "noteNumber": 55,
        "velocity": 71
      },
      {
        "deltaTime": 0,
        "running": true,
        "channel": 0,
        "type": "noteOn",
        "noteNumber": 64,
        "velocity": 66
      },
      {
        "deltaTime": 5,
        "channel": 0,
        "type": "noteOn",
        "noteNumber": 60,
        "velocity": 58
      },
      {
        "deltaTime": 0,
        "running": true,
        "channel": 0,
        "type": "noteOn",
        "noteNumber": 91,
        "velocity": 83
      },
      {
        "deltaTime": 5,
        "channel": 0,
        "type": "noteOn",
        "noteNumber": 79,
        "velocity": 79
      },
      {
        "deltaTime": 330,
        "channel": 0,
        "type": "noteOff",
        "noteNumber": 79,
        "velocity": 0,
        "byte9": true
      },
      {
        "deltaTime": 20,
        "channel": 0,
        "type": "noteOn",
        "noteNumber": 88,
        "velocity": 78
      },
      {
        "deltaTime": 5,
        "channel": 0,
        "type": "noteOff",
        "noteNumber": 91,
        "velocity": 0,
        "byte9": true
      },
      {
        "deltaTime": 120,
        "channel": 0,
        "type": "noteOff",
        "noteNumber": 88,
        "velocity": 0,
        "byte9": true
      },
      {
        "deltaTime": 20,
        "channel": 0,
        "type": "noteOn",
        "noteNumber": 84,
        "velocity": 74
      },
      {
        "deltaTime": 120,
        "channel": 0,
        "type": "noteOff",
        "noteNumber": 84,
        "velocity": 0,
        "byte9": true
      },
      {
        "deltaTime": 45,
        "channel": 0,
        "type": "noteOn",
        "noteNumber": 79,
        "velocity": 54
      },
      {
        "deltaTime": 115,
        "channel": 0,
        "type": "noteOff",
        "noteNumber": 64,
        "velocity": 0,
        "byte9": true
      },
      {
        "deltaTime": 10,
        "channel": 0,
        "type": "noteOff",
        "noteNumber": 60,
        "velocity": 0,
        "byte9": true
      },
      {
        "deltaTime": 10,
        "channel": 0,
        "type": "noteOff",
        "noteNumber": 55,
        "velocity": 0,
        "byte9": true
      },
      {
        "deltaTime": 90,
        "channel": 0,
        "type": "noteOff",
        "noteNumber": 79,
        "velocity": 0,
        "byte9": true
      },
      {
        "deltaTime": 80,
        "channel": 0,
        "type": "noteOn",
        "noteNumber": 76,
        "velocity": 72
      },
      {
        "deltaTime": 5,
        "channel": 0,
        "type": "noteOn",
        "noteNumber": 60,
        "velocity": 46
      },
      {
        "deltaTime": 0,
        "running": true,
        "channel": 0,
        "type": "noteOn",
        "noteNumber": 64,
        "velocity": 53
      },
      {
        "deltaTime": 5,
        "channel": 0,
        "type": "noteOn",
        "noteNumber": 55,
        "velocity": 53
      },
      {
        "deltaTime": 80,
        "channel": 0,
        "type": "noteOff",
        "noteNumber": 76,
        "velocity": 0,
        "byte9": true
      },
      {
        "deltaTime": 15,
        "channel": 0,
        "type": "noteOff",
        "noteNumber": 64,
        "velocity": 0,
        "byte9": true
      },
      {
        "deltaTime": 195,
        "channel": 0,
        "type": "noteOff",
        "noteNumber": 60,
        "velocity": 0,
        "byte9": true
      },
      {
        "deltaTime": 75,
        "channel": 0,
        "type": "noteOff",
        "noteNumber": 55,
        "velocity": 0,
        "byte9": true
      },
      {
        "deltaTime": 90,
        "channel": 0,
        "type": "noteOn",
        "noteNumber": 64,
        "velocity": 60
      },
      {
        "deltaTime": 10,
        "channel": 0,
        "type": "noteOn",
        "noteNumber": 55,
        "velocity": 47
      },
      {
        "deltaTime": 5,
        "channel": 0,
        "type": "noteOn",
        "noteNumber": 60,
        "velocity": 47
      },
      {
        "deltaTime": 25,
        "channel": 0,
        "type": "noteOff",
        "noteNumber": 64,
        "velocity": 0,
        "byte9": true
      },
      {
        "deltaTime": 5,
        "channel": 0,
        "type": "noteOff",
        "noteNumber": 60,
        "velocity": 0,
        "byte9": true
      },
      {
        "deltaTime": 40,
        "channel": 0,
        "type": "noteOff",
        "noteNumber": 55,
        "velocity": 0,
        "byte9": true
      },
      {
        "deltaTime": 135,
        "channel": 0,
        "type": "noteOn",
        "noteNumber": 74,
        "velocity": 87
      },
      {
        "deltaTime": 55,
        "channel": 0,
        "type": "noteOff",
        "noteNumber": 74,
        "velocity": 0,
        "byte9": true
      },
      {
        "deltaTime": 10,
        "channel": 0,
        "type": "noteOn",
        "noteNumber": 75,
        "velocity": 58
      },
      {
        "deltaTime": 70,
        "channel": 0,
        "type": "noteOn",
        "noteNumber": 74,
        "velocity": 64
      },
      {
        "deltaTime": 35,
        "channel": 0,
        "type": "noteOff",
        "noteNumber": 75,
        "velocity": 0,
        "byte9": true
      },
      {
        "deltaTime": 45,
        "channel": 0,
        "type": "noteOff",
        "noteNumber": 74,
        "velocity": 0,
        "byte9": true
      },
      {
        "deltaTime": 20,
        "channel": 0,
        "type": "noteOn",
        "noteNumber": 72,
        "velocity": 57
      },
      {
        "deltaTime": 25,
        "channel": 0,
        "type": "noteOn",
        "noteNumber": 55,
        "velocity": 34
      },
      {
        "deltaTime": 30,
        "channel": 0,
        "type": "controller",
        "controllerType": 64,
        "value": 127
      },
      {
        "deltaTime": 30,
        "channel": 0,
        "type": "noteOff",
        "noteNumber": 55,
        "velocity": 0,
        "byte9": true
      },
      {
        "deltaTime": 30,
        "channel": 0,
        "type": "noteOn",
        "noteNumber": 69,
        "velocity": 63
      },
      {
        "deltaTime": 0,
        "running": true,
        "channel": 0,
        "type": "noteOff",
        "noteNumber": 72,
        "velocity": 0,
        "byte9": true
      },
      {
        "deltaTime": 20,
        "channel": 0,
        "type": "controller",
        "controllerType": 64,
        "value": 0
      },
      {
        "deltaTime": 75,
        "channel": 0,
        "type": "noteOff",
        "noteNumber": 69,
        "velocity": 0,
        "byte9": true
      },
      {
        "deltaTime": 25,
        "channel": 0,
        "type": "noteOn",
        "noteNumber": 54,
        "velocity": 43
      },
      {
        "deltaTime": 0,
        "running": true,
        "channel": 0,
        "type": "noteOn",
        "noteNumber": 60,
        "velocity": 20
      },
      {
        "deltaTime": 10,
        "channel": 0,
        "type": "noteOn",
        "noteNumber": 64,
        "velocity": 32
      },
      {
        "deltaTime": 5,
        "channel": 0,
        "type": "noteOn",
        "noteNumber": 72,
        "velocity": 70
      },
      {
        "deltaTime": 100,
        "channel": 0,
        "type": "controller",
        "controllerType": 64,
        "value": 127
      },
      {
        "deltaTime": 110,
        "channel": 0,
        "type": "noteOff",
        "noteNumber": 64,
        "velocity": 0,
        "byte9": true
      },
      {
        "deltaTime": 45,
        "channel": 0,
        "type": "noteOff",
        "noteNumber": 60,
        "velocity": 0,
        "byte9": true
      },
      {
        "deltaTime": 10,
        "channel": 0,
        "type": "noteOff",
        "noteNumber": 54,
        "velocity": 0,
        "byte9": true
      },
      {
        "deltaTime": 145,
        "channel": 0,
        "type": "controller",
        "controllerType": 64,
        "value": 0
      },
      {
        "deltaTime": 5,
        "channel": 0,
        "type": "noteOff",
        "noteNumber": 72,
        "velocity": 0,
        "byte9": true
      },
      {
        "deltaTime": 20,
        "channel": 0,
        "type": "noteOn",
        "noteNumber": 60,
        "velocity": 46
      },
      {
        "deltaTime": 10,
        "channel": 0,
        "type": "noteOn",
        "noteNumber": 64,
        "velocity": 34
      },
      {
        "deltaTime": 5,
        "channel": 0,
        "type": "noteOn",
        "noteNumber": 69,
        "velocity": 61
      },
      {
        "deltaTime": 5,
        "channel": 0,
        "type": "noteOn",
        "noteNumber": 54,
        "velocity": 32
      },
      {
        "deltaTime": 100,
        "channel": 0,
        "type": "noteOff",
        "noteNumber": 64,
        "velocity": 0,
        "byte9": true
      },
      {
        "deltaTime": 30,
        "channel": 0,
        "type": "noteOff",
        "noteNumber": 60,
        "velocity": 0,
        "byte9": true
      },
      {
        "deltaTime": 5,
        "channel": 0,
        "type": "noteOff",
        "noteNumber": 54,
        "velocity": 0,
        "byte9": true
      },
      {
        "deltaTime": 145,
        "channel": 0,
        "type": "noteOff",
        "noteNumber": 69,
        "velocity": 0,
        "byte9": true
      },
      {
        "deltaTime": 5,
        "channel": 0,
        "type": "noteOn",
        "noteNumber": 67,
        "velocity": 68
      },
      {
        "deltaTime": 10,
        "channel": 0,
        "type": "noteOn",
        "noteNumber": 62,
        "velocity": 48
      },
      {
        "deltaTime": 5,
        "channel": 0,
        "type": "noteOn",
        "noteNumber": 54,
        "velocity": 40
      },
      {
        "deltaTime": 0,
        "running": true,
        "channel": 0,
        "type": "noteOn",
        "noteNumber": 60,
        "velocity": 41
      },
      {
        "deltaTime": 75,
        "channel": 0,
        "type": "noteOff",
        "noteNumber": 62,
        "velocity": 0,
        "byte9": true
      },
      {
        "deltaTime": 20,
        "channel": 0,
        "type": "noteOff",
        "noteNumber": 60,
        "velocity": 0,
        "byte9": true
      },
      {
        "deltaTime": 15,
        "channel": 0,
        "type": "noteOff",
        "noteNumber": 67,
        "velocity": 0,
        "byte9": true
      },
      {
        "deltaTime": 10,
        "channel": 0,
        "type": "noteOff",
        "noteNumber": 54,
        "velocity": 0,
        "byte9": true
      },
      {
        "deltaTime": 20,
        "channel": 0,
        "type": "controller",
        "controllerType": 64,
        "value": 127
      },
      {
        "deltaTime": 20,
        "channel": 0,
        "type": "noteOn",
        "noteNumber": 54,
        "velocity": 29
      },
      {
        "deltaTime": 5,
        "channel": 0,
        "type": "noteOn",
        "noteNumber": 60,
        "velocity": 44
      },
      {
        "deltaTime": 0,
        "running": true,
        "channel": 0,
        "type": "noteOn",
        "noteNumber": 66,
        "velocity": 52
      },
      {
        "deltaTime": 95,
        "channel": 0,
        "type": "noteOff",
        "noteNumber": 60,
        "velocity": 0,
        "byte9": true
      },
      {
        "deltaTime": 10,
        "channel": 0,
        "type": "noteOff",
        "noteNumber": 54,
        "velocity": 0,
        "byte9": true
      },
      {
        "deltaTime": 180,
        "channel": 0,
        "type": "noteOn",
        "noteNumber": 60,
        "velocity": 62
      },
      {
        "deltaTime": 5,
        "channel": 0,
        "type": "noteOn",
        "noteNumber": 62,
        "velocity": 65
      },
      {
        "deltaTime": 10,
        "channel": 0,
        "type": "noteOn",
        "noteNumber": 54,
        "velocity": 54
      },
      {
        "deltaTime": 85,
        "channel": 0,
        "type": "noteOff",
        "noteNumber": 62,
        "velocity": 0,
        "byte9": true
      },
      {
        "deltaTime": 30,
        "channel": 0,
        "type": "noteOff",
        "noteNumber": 60,
        "velocity": 0,
        "byte9": true
      },
      {
        "deltaTime": 5,
        "channel": 0,
        "type": "noteOff",
        "noteNumber": 54,
        "velocity": 0,
        "byte9": true
      },
      {
        "deltaTime": 10,
        "channel": 0,
        "type": "noteOff",
        "noteNumber": 66,
        "velocity": 0,
        "byte9": true
      },
      {
        "deltaTime": 470,
        "channel": 0,
        "type": "controller",
        "controllerType": 64,
        "value": 0
      },
      {
        "deltaTime": 20,
        "channel": 0,
        "type": "noteOn",
        "noteNumber": 66,
        "velocity": 45
      },
      {
        "deltaTime": 5,
        "channel": 0,
        "type": "noteOn",
        "noteNumber": 62,
        "velocity": 52
      },
      {
        "deltaTime": 5,
        "channel": 0,
        "type": "noteOn",
        "noteNumber": 90,
        "velocity": 75
      },
      {
        "deltaTime": 5,
        "channel": 0,
        "type": "noteOn",
        "noteNumber": 57,
        "velocity": 34
      },
      {
        "deltaTime": 25,
        "channel": 0,
        "type": "noteOff",
        "noteNumber": 66,
        "velocity": 0,
        "byte9": true
      },
      {
        "deltaTime": 5,
        "channel": 0,
        "type": "noteOff",
        "noteNumber": 62,
        "velocity": 0,
        "byte9": true
      },
      {
        "deltaTime": 10,
        "channel": 0,
        "type": "noteOff",
        "noteNumber": 57,
        "velocity": 0,
        "byte9": true
      },
      {
        "deltaTime": 45,
        "channel": 0,
        "type": "noteOff",
        "noteNumber": 90,
        "velocity": 0,
        "byte9": true
      },
      {
        "deltaTime": 85,
        "channel": 0,
        "type": "noteOn",
        "noteNumber": 88,
        "velocity": 51
      },
      {
        "deltaTime": 50,
        "channel": 0,
        "type": "noteOff",
        "noteNumber": 88,
        "velocity": 0,
        "byte9": true
      },
      {
        "deltaTime": 100,
        "channel": 0,
        "type": "noteOn",
        "noteNumber": 90,
        "velocity": 82
      },
      {
        "deltaTime": 10,
        "channel": 0,
        "type": "noteOn",
        "noteNumber": 66,
        "velocity": 39
      },
      {
        "deltaTime": 5,
        "channel": 0,
        "type": "noteOn",
        "noteNumber": 62,
        "velocity": 45
      },
      {
        "deltaTime": 5,
        "channel": 0,
        "type": "noteOn",
        "noteNumber": 57,
        "velocity": 38
      },
      {
        "deltaTime": 40,
        "channel": 0,
        "type": "noteOff",
        "noteNumber": 57,
        "velocity": 0,
        "byte9": true
      },
      {
        "deltaTime": 5,
        "channel": 0,
        "type": "noteOff",
        "noteNumber": 62,
        "velocity": 0,
        "byte9": true
      },
      {
        "deltaTime": 5,
        "channel": 0,
        "type": "noteOff",
        "noteNumber": 66,
        "velocity": 0,
        "byte9": true
      },
      {
        "deltaTime": 40,
        "channel": 0,
        "type": "noteOff",
        "noteNumber": 90,
        "velocity": 0,
        "byte9": true
      },
      {
        "deltaTime": 80,
        "channel": 0,
        "type": "noteOn",
        "noteNumber": 88,
        "velocity": 54
      },
      {
        "deltaTime": 75,
        "channel": 0,
        "type": "noteOff",
        "noteNumber": 88,
        "velocity": 0,
        "byte9": true
      },
      {
        "deltaTime": 245,
        "channel": 0,
        "type": "noteOn",
        "noteNumber": 66,
        "velocity": 46
      },
      {
        "deltaTime": 0,
        "running": true,
        "channel": 0,
        "type": "noteOn",
        "noteNumber": 86,
        "velocity": 81
      },
      {
        "deltaTime": 5,
        "channel": 0,
        "type": "noteOn",
        "noteNumber": 62,
        "velocity": 45
      },
      {
        "deltaTime": 10,
        "channel": 0,
        "type": "noteOn",
        "noteNumber": 57,
        "velocity": 36
      },
      {
        "deltaTime": 45,
        "channel": 0,
        "type": "noteOff",
        "noteNumber": 57,
        "velocity": 0,
        "byte9": true
      },
      {
        "deltaTime": 15,
        "channel": 0,
        "type": "noteOff",
        "noteNumber": 66,
        "velocity": 0,
        "byte9": true
      },
      {
        "deltaTime": 0,
        "running": true,
        "channel": 0,
        "type": "noteOff",
        "noteNumber": 86,
        "velocity": 0,
        "byte9": true
      },
      {
        "deltaTime": 20,
        "channel": 0,
        "type": "noteOff",
        "noteNumber": 62,
        "velocity": 0,
        "byte9": true
      },
      {
        "deltaTime": 70,
        "channel": 0,
        "type": "noteOn",
        "noteNumber": 66,
        "velocity": 49
      },
      {
        "deltaTime": 5,
        "channel": 0,
        "type": "noteOn",
        "noteNumber": 62,
        "velocity": 42
      },
      {
        "deltaTime": 5,
        "channel": 0,
        "type": "noteOn",
        "noteNumber": 85,
        "velocity": 58
      },
      {
        "deltaTime": 10,
        "channel": 0,
        "type": "noteOn",
        "noteNumber": 57,
        "velocity": 37
      },
      {
        "deltaTime": 15,
        "channel": 0,
        "type": "controller",
        "controllerType": 64,
        "value": 127
      },
      {
        "deltaTime": 25,
        "channel": 0,
        "type": "noteOff",
        "noteNumber": 57,
        "velocity": 0,
        "byte9": true
      },
      {
        "deltaTime": 0,
        "running": true,
        "channel": 0,
        "type": "noteOff",
        "noteNumber": 62,
        "velocity": 0,
        "byte9": true
      },
      {
        "deltaTime": 15,
        "channel": 0,
        "type": "noteOff",
        "noteNumber": 66,
        "velocity": 0,
        "byte9": true
      },
      {
        "deltaTime": 35,
        "channel": 0,
        "type": "noteOff",
        "noteNumber": 85,
        "velocity": 0,
        "byte9": true
      },
      {
        "deltaTime": 20,
        "channel": 0,
        "type": "noteOn",
        "noteNumber": 86,
        "velocity": 62
      },
      {
        "deltaTime": 95,
        "channel": 0,
        "type": "noteOff",
        "noteNumber": 86,
        "velocity": 0,
        "byte9": true
      },
      {
        "deltaTime": 65,
        "channel": 0,
        "type": "noteOn",
        "noteNumber": 88,
        "velocity": 81
      },
      {
        "deltaTime": 5,
        "channel": 0,
        "type": "noteOn",
        "noteNumber": 66,
        "velocity": 60
      },
      {
        "deltaTime": 10,
        "channel": 0,
        "type": "noteOn",
        "noteNumber": 62,
        "velocity": 58
      },
      {
        "deltaTime": 5,
        "channel": 0,
        "type": "noteOn",
        "noteNumber": 57,
        "velocity": 51
      },
      {
        "deltaTime": 70,
        "channel": 0,
        "type": "noteOff",
        "noteNumber": 66,
        "velocity": 0,
        "byte9": true
      },
      {
        "deltaTime": 5,
        "channel": 0,
        "type": "noteOff",
        "noteNumber": 57,
        "velocity": 0,
        "byte9": true
      },
      {
        "deltaTime": 5,
        "channel": 0,
        "type": "noteOff",
        "noteNumber": 88,
        "velocity": 0,
        "byte9": true
      },
      {
        "deltaTime": 10,
        "channel": 0,
        "type": "noteOff",
        "noteNumber": 62,
        "velocity": 0,
        "byte9": true
      },
      {
        "deltaTime": 40,
        "channel": 0,
        "type": "controller",
        "controllerType": 64,
        "value": 0
      },
      {
        "deltaTime": 40,
        "channel": 0,
        "type": "noteOn",
        "noteNumber": 66,
        "velocity": 44
      },
      {
        "deltaTime": 0,
        "running": true,
        "channel": 0,
        "type": "noteOn",
        "noteNumber": 83,
        "velocity": 66
      },
      {
        "deltaTime": 5,
        "channel": 0,
        "type": "noteOn",
        "noteNumber": 57,
        "velocity": 41
      },
      {
        "deltaTime": 5,
        "channel": 0,
        "type": "noteOn",
        "noteNumber": 62,
        "velocity": 48
      },
      {
        "deltaTime": 50,
        "channel": 0,
        "type": "controller",
        "controllerType": 64,
        "value": 127
      },
      {
        "deltaTime": 35,
        "channel": 0,
        "type": "noteOff",
        "noteNumber": 83,
        "velocity": 0,
        "byte9": true
      },
      {
        "deltaTime": 15,
        "channel": 0,
        "type": "noteOff",
        "noteNumber": 66,
        "velocity": 0,
        "byte9": true
      },
      {
        "deltaTime": 25,
        "channel": 0,
        "type": "noteOff",
        "noteNumber": 62,
        "velocity": 0,
        "byte9": true
      },
      {
        "deltaTime": 30,
        "channel": 0,
        "type": "noteOff",
        "noteNumber": 57,
        "velocity": 0,
        "byte9": true
      },
      {
        "deltaTime": 120,
        "channel": 0,
        "type": "noteOn",
        "noteNumber": 66,
        "velocity": 54
      },
      {
        "deltaTime": 0,
        "running": true,
        "channel": 0,
        "type": "noteOn",
        "noteNumber": 83,
        "velocity": 88
      },
      {
        "deltaTime": 5,
        "channel": 0,
        "type": "noteOn",
        "noteNumber": 57,
        "velocity": 41
      },
      {
        "deltaTime": 5,
        "channel": 0,
        "type": "noteOn",
        "noteNumber": 62,
        "velocity": 54
      },
      {
        "deltaTime": 40,
        "channel": 0,
        "type": "noteOff",
        "noteNumber": 57,
        "velocity": 0,
        "byte9": true
      },
      {
        "deltaTime": 35,
        "channel": 0,
        "type": "noteOff",
        "noteNumber": 66,
        "velocity": 0,
        "byte9": true
      },
      {
        "deltaTime": 45,
        "channel": 0,
        "type": "noteOff",
        "noteNumber": 62,
        "velocity": 0,
        "byte9": true
      },
      {
        "deltaTime": 10,
        "channel": 0,
        "type": "controller",
        "controllerType": 64,
        "value": 0
      },
      {
        "deltaTime": 35,
        "channel": 0,
        "type": "noteOn",
        "noteNumber": 62,
        "velocity": 27
      },
      {
        "deltaTime": 0,
        "running": true,
        "channel": 0,
        "type": "noteOn",
        "noteNumber": 66,
        "velocity": 42
      },
      {
        "deltaTime": 20,
        "channel": 0,
        "type": "noteOn",
        "noteNumber": 56,
        "velocity": 30
      },
      {
        "deltaTime": 5,
        "channel": 0,
        "type": "noteOff",
        "noteNumber": 83,
        "velocity": 0,
        "byte9": true
      },
      {
        "deltaTime": 25,
        "channel": 0,
        "type": "noteOff",
        "noteNumber": 56,
        "velocity": 0,
        "byte9": true
      },
      {
        "deltaTime": 0,
        "running": true,
        "channel": 0,
        "type": "noteOff",
        "noteNumber": 66,
        "velocity": 0,
        "byte9": true
      },
      {
        "deltaTime": 5,
        "channel": 0,
        "type": "noteOff",
        "noteNumber": 62,
        "velocity": 0,
        "byte9": true
      },
      {
        "deltaTime": 415,
        "channel": 0,
        "type": "controller",
        "controllerType": 64,
        "value": 127
      },
      {
        "deltaTime": 310,
        "channel": 0,
        "type": "noteOn",
        "noteNumber": 88,
        "velocity": 110
      },
      {
        "deltaTime": 15,
        "channel": 0,
        "type": "noteOn",
        "noteNumber": 56,
        "velocity": 69
      },
      {
        "deltaTime": 0,
        "running": true,
        "channel": 0,
        "type": "noteOn",
        "noteNumber": 62,
        "velocity": 68
      },
      {
        "deltaTime": 5,
        "channel": 0,
        "type": "noteOn",
        "noteNumber": 67,
        "velocity": 68
      },
      {
        "deltaTime": 110,
        "channel": 0,
        "type": "noteOff",
        "noteNumber": 67,
        "velocity": 0,
        "byte9": true
      },
      {
        "deltaTime": 15,
        "channel": 0,
        "type": "controller",
        "controllerType": 64,
        "value": 0
      },
      {
        "deltaTime": 15,
        "channel": 0,
        "type": "noteOff",
        "noteNumber": 62,
        "velocity": 0,
        "byte9": true
      },
      {
        "deltaTime": 35,
        "channel": 0,
        "type": "noteOn",
        "noteNumber": 62,
        "velocity": 30
      },
      {
        "deltaTime": 0,
        "running": true,
        "channel": 0,
        "type": "noteOn",
        "noteNumber": 67,
        "velocity": 45
      },
      {
        "deltaTime": 5,
        "channel": 0,
        "type": "noteOn",
        "noteNumber": 84,
        "velocity": 82
      },
      {
        "deltaTime": 0,
        "running": true,
        "channel": 0,
        "type": "noteOff",
        "noteNumber": 88,
        "velocity": 0,
        "byte9": true
      },
      {
        "deltaTime": 140,
        "channel": 0,
        "type": "noteOff",
        "noteNumber": 67,
        "velocity": 0,
        "byte9": true
      },
      {
        "deltaTime": 45,
        "channel": 0,
        "type": "noteOff",
        "noteNumber": 56,
        "velocity": 0,
        "byte9": true
      },
      {
        "deltaTime": 10,
        "channel": 0,
        "type": "noteOff",
        "noteNumber": 62,
        "velocity": 0,
        "byte9": true
      },
      {
        "deltaTime": 35,
        "channel": 0,
        "type": "controller",
        "controllerType": 64,
        "value": 127
      },
      {
        "deltaTime": 10,
        "channel": 0,
        "type": "noteOff",
        "noteNumber": 84,
        "velocity": 0,
        "byte9": true
      },
      {
        "deltaTime": 30,
        "channel": 0,
        "type": "noteOn",
        "noteNumber": 79,
        "velocity": 66
      },
      {
        "deltaTime": 10,
        "channel": 0,
        "type": "noteOn",
        "noteNumber": 56,
        "velocity": 55
      },
      {
        "deltaTime": 0,
        "running": true,
        "channel": 0,
        "type": "noteOn",
        "noteNumber": 62,
        "velocity": 65
      },
      {
        "deltaTime": 5,
        "channel": 0,
        "type": "noteOn",
        "noteNumber": 67,
        "velocity": 52
      },
      {
        "deltaTime": 80,
        "channel": 0,
        "type": "noteOff",
        "noteNumber": 79,
        "velocity": 0,
        "byte9": true
      },
      {
        "deltaTime": 45,
        "channel": 0,
        "type": "controller",
        "controllerType": 64,
        "value": 0
      },
      {
        "deltaTime": 45,
        "channel": 0,
        "type": "noteOn",
        "noteNumber": 76,
        "velocity": 62
      },
      {
        "deltaTime": 10,
        "channel": 0,
        "type": "noteOff",
        "noteNumber": 67,
        "velocity": 0,
        "byte9": true
      },
      {
        "deltaTime": 20,
        "channel": 0,
        "type": "controller",
        "controllerType": 64,
        "value": 127
      },
      {
        "deltaTime": 55,
        "channel": 0,
        "type": "noteOff",
        "noteNumber": 62,
        "velocity": 0,
        "byte9": true
      },
      {
        "deltaTime": 95,
        "channel": 0,
        "type": "noteOff",
        "noteNumber": 56,
        "velocity": 0,
        "byte9": true
      },
      {
        "deltaTime": 90,
        "channel": 0,
        "type": "noteOff",
        "noteNumber": 76,
        "velocity": 0,
        "byte9": true
      },
      {
        "deltaTime": 45,
        "channel": 0,
        "type": "noteOn",
        "noteNumber": 54,
        "velocity": 45
      },
      {
        "deltaTime": 10,
        "channel": 0,
        "type": "noteOn",
        "noteNumber": 61,
        "velocity": 34
      },
      {
        "deltaTime": 0,
        "running": true,
        "channel": 0,
        "type": "noteOn",
        "noteNumber": 64,
        "velocity": 40
      },
      {
        "deltaTime": 45,
        "channel": 0,
        "type": "noteOff",
        "noteNumber": 64,
        "velocity": 0,
        "byte9": true
      },
      {
        "deltaTime": 20,
        "channel": 0,
        "type": "noteOff",
        "noteNumber": 54,
        "velocity": 0,
        "byte9": true
      },
      {
        "deltaTime": 0,
        "running": true,
        "channel": 0,
        "type": "noteOff",
        "noteNumber": 61,
        "velocity": 0,
        "byte9": true
      },
      {
        "deltaTime": 60,
        "channel": 0,
        "type": "controller",
        "controllerType": 64,
        "value": 0
      },
      {
        "deltaTime": 25,
        "channel": 0,
        "type": "noteOn",
        "noteNumber": 61,
        "velocity": 43
      },
      {
        "deltaTime": 5,
        "channel": 0,
        "type": "noteOn",
        "noteNumber": 64,
        "velocity": 57
      },
      {
        "deltaTime": 0,
        "running": true,
        "channel": 0,
        "type": "noteOn",
        "noteNumber": 80,
        "velocity": 70
      },
      {
        "deltaTime": 10,
        "channel": 0,
        "type": "noteOn",
        "noteNumber": 59,
        "velocity": 29
      },
      {
        "deltaTime": 5,
        "channel": 0,
        "type": "noteOn",
        "noteNumber": 54,
        "velocity": 44
      },
      {
        "deltaTime": 60,
        "channel": 0,
        "type": "noteOff",
        "noteNumber": 64,
        "velocity": 0,
        "byte9": true
      },
      {
        "deltaTime": 5,
        "channel": 0,
        "type": "noteOff",
        "noteNumber": 59,
        "velocity": 0,
        "byte9": true
      },
      {
        "deltaTime": 0,
        "running": true,
        "channel": 0,
        "type": "noteOff",
        "noteNumber": 61,
        "velocity": 0,
        "byte9": true
      },
      {
        "deltaTime": 30,
        "channel": 0,
        "type": "noteOff",
        "noteNumber": 80,
        "velocity": 0,
        "byte9": true
      },
      {
        "deltaTime": 40,
        "channel": 0,
        "type": "noteOn",
        "noteNumber": 81,
        "velocity": 64
      },
      {
        "deltaTime": 10,
        "channel": 0,
        "type": "noteOn",
        "noteNumber": 64,
        "velocity": 37
      },
      {
        "deltaTime": 5,
        "channel": 0,
        "type": "noteOn",
        "noteNumber": 61,
        "velocity": 36
      },
      {
        "deltaTime": 10,
        "channel": 0,
        "type": "noteOn",
        "noteNumber": 59,
        "velocity": 37
      },
      {
        "deltaTime": 55,
        "channel": 0,
        "type": "noteOff",
        "noteNumber": 64,
        "velocity": 0,
        "byte9": true
      },
      {
        "deltaTime": 5,
        "channel": 0,
        "type": "noteOff",
        "noteNumber": 61,
        "velocity": 0,
        "byte9": true
      },
      {
        "deltaTime": 5,
        "channel": 0,
        "type": "noteOff",
        "noteNumber": 59,
        "velocity": 0,
        "byte9": true
      },
      {
        "deltaTime": 10,
        "channel": 0,
        "type": "noteOff",
        "noteNumber": 81,
        "velocity": 0,
        "byte9": true
      },
      {
        "deltaTime": 15,
        "channel": 0,
        "type": "controller",
        "controllerType": 64,
        "value": 127
      },
      {
        "deltaTime": 20,
        "channel": 0,
        "type": "noteOn",
        "noteNumber": 80,
        "velocity": 60
      },
      {
        "deltaTime": 10,
        "channel": 0,
        "type": "noteOn",
        "noteNumber": 64,
        "velocity": 53
      },
      {
        "deltaTime": 5,
        "channel": 0,
        "type": "noteOn",
        "noteNumber": 61,
        "velocity": 37
      },
      {
        "deltaTime": 15,
        "channel": 0,
        "type": "noteOn",
        "noteNumber": 59,
        "velocity": 27
      },
      {
        "deltaTime": 65,
        "channel": 0,
        "type": "noteOff",
        "noteNumber": 59,
        "velocity": 0,
        "byte9": true
      },
      {
        "deltaTime": 0,
        "running": true,
        "channel": 0,
        "type": "noteOff",
        "noteNumber": 64,
        "velocity": 0,
        "byte9": true
      },
      {
        "deltaTime": 5,
        "channel": 0,
        "type": "noteOff",
        "noteNumber": 61,
        "velocity": 0,
        "byte9": true
      },
      {
        "deltaTime": 20,
        "channel": 0,
        "type": "noteOff",
        "noteNumber": 54,
        "velocity": 0,
        "byte9": true
      },
      {
        "deltaTime": 5,
        "channel": 0,
        "type": "noteOff",
        "noteNumber": 80,
        "velocity": 0,
        "byte9": true
      },
      {
        "deltaTime": 25,
        "channel": 0,
        "type": "controller",
        "controllerType": 64,
        "value": 0
      },
      {
        "deltaTime": 20,
        "channel": 0,
        "type": "noteOn",
        "noteNumber": 64,
        "velocity": 38
      },
      {
        "deltaTime": 0,
        "running": true,
        "channel": 0,
        "type": "noteOn",
        "noteNumber": 76,
        "velocity": 69
      },
      {
        "deltaTime": 5,
        "channel": 0,
        "type": "noteOn",
        "noteNumber": 61,
        "velocity": 38
      },
      {
        "deltaTime": 5,
        "channel": 0,
        "type": "noteOn",
        "noteNumber": 54,
        "velocity": 30
      },
      {
        "deltaTime": 5,
        "channel": 0,
        "type": "noteOn",
        "noteNumber": 59,
        "velocity": 50
      },
      {
        "deltaTime": 80,
        "channel": 0,
        "type": "noteOff",
        "noteNumber": 76,
        "velocity": 0,
        "byte9": true
      },
      {
        "deltaTime": 25,
        "channel": 0,
        "type": "noteOff",
        "noteNumber": 59,
        "velocity": 0,
        "byte9": true
      },
      {
        "deltaTime": 0,
        "running": true,
        "channel": 0,
        "type": "noteOff",
        "noteNumber": 64,
        "velocity": 0,
        "byte9": true
      },
      {
        "deltaTime": 15,
        "channel": 0,
        "type": "noteOff",
        "noteNumber": 54,
        "velocity": 0,
        "byte9": true
      },
      {
        "deltaTime": 20,
        "channel": 0,
        "type": "noteOff",
        "noteNumber": 61,
        "velocity": 0,
        "byte9": true
      },
      {
        "deltaTime": 175,
        "channel": 0,
        "type": "noteOn",
        "noteNumber": 61,
        "velocity": 42
      },
      {
        "deltaTime": 0,
        "running": true,
        "channel": 0,
        "type": "noteOn",
        "noteNumber": 64,
        "velocity": 55
      },
      {
        "deltaTime": 0,
        "running": true,
        "channel": 0,
        "type": "noteOn",
        "noteNumber": 73,
        "velocity": 69
      },
      {
        "deltaTime": 10,
        "channel": 0,
        "type": "noteOn",
        "noteNumber": 59,
        "velocity": 48
      },
      {
        "deltaTime": 5,
        "channel": 0,
        "type": "noteOn",
        "noteNumber": 54,
        "velocity": 35
      },
      {
        "deltaTime": 60,
        "channel": 0,
        "type": "noteOff",
        "noteNumber": 64,
        "velocity": 0,
        "byte9": true
      },
      {
        "deltaTime": 5,
        "channel": 0,
        "type": "noteOff",
        "noteNumber": 61,
        "velocity": 0,
        "byte9": true
      },
      {
        "deltaTime": 20,
        "channel": 0,
        "type": "noteOff",
        "noteNumber": 59,
        "velocity": 0,
        "byte9": true
      },
      {
        "deltaTime": 25,
        "channel": 0,
        "type": "noteOff",
        "noteNumber": 54,
        "velocity": 0,
        "byte9": true
      },
      {
        "deltaTime": 65,
        "channel": 0,
        "type": "noteOn",
        "noteNumber": 64,
        "velocity": 41
      },
      {
        "deltaTime": 0,
        "running": true,
        "channel": 0,
        "type": "noteOn",
        "noteNumber": 69,
        "velocity": 54
      },
      {
        "deltaTime": 5,
        "channel": 0,
        "type": "noteOn",
        "noteNumber": 54,
        "velocity": 25
      },
      {
        "deltaTime": 0,
        "running": true,
        "channel": 0,
        "type": "noteOff",
        "noteNumber": 73,
        "velocity": 0,
        "byte9": true
      },
      {
        "deltaTime": 20,
        "channel": 0,
        "type": "controller",
        "controllerType": 64,
        "value": 127
      },
      {
        "deltaTime": 0,
        "channel": 0,
        "type": "noteOn",
        "noteNumber": 59,
        "velocity": 34
      },
      {
        "deltaTime": 5,
        "channel": 0,
        "type": "noteOn",
        "noteNumber": 61,
        "velocity": 25
      },
      {
        "deltaTime": 75,
        "channel": 0,
        "type": "noteOff",
        "noteNumber": 61,
        "velocity": 0,
        "byte9": true
      },
      {
        "deltaTime": 25,
        "channel": 0,
        "type": "noteOff",
        "noteNumber": 64,
        "velocity": 0,
        "byte9": true
      },
      {
        "deltaTime": 35,
        "channel": 0,
        "type": "noteOff",
        "noteNumber": 59,
        "velocity": 0,
        "byte9": true
      },
      {
        "deltaTime": 40,
        "channel": 0,
        "type": "noteOff",
        "noteNumber": 69,
        "velocity": 0,
        "byte9": true
      },
      {
        "deltaTime": 100,
        "channel": 0,
        "type": "noteOn",
        "noteNumber": 64,
        "velocity": 57
      },
      {
        "deltaTime": 5,
        "channel": 0,
        "type": "noteOn",
        "noteNumber": 59,
        "velocity": 46
      },
      {
        "deltaTime": 0,
        "running": true,
        "channel": 0,
        "type": "noteOn",
        "noteNumber": 61,
        "velocity": 48
      },
      {
        "deltaTime": 150,
        "channel": 0,
        "type": "controller",
        "controllerType": 64,
        "value": 0
      },
      {
        "deltaTime": 15,
        "channel": 0,
        "type": "noteOff",
        "noteNumber": 64,
        "velocity": 0,
        "byte9": true
      },
      {
        "deltaTime": 25,
        "channel": 0,
        "type": "noteOff",
        "noteNumber": 54,
        "velocity": 0,
        "byte9": true
      },
      {
        "deltaTime": 15,
        "channel": 0,
        "type": "noteOn",
        "noteNumber": 74,
        "velocity": 84
      },
      {
        "deltaTime": 55,
        "channel": 0,
        "type": "noteOff",
        "noteNumber": 74,
        "velocity": 0,
        "byte9": true
      },
      {
        "deltaTime": 0,
        "running": true,
        "channel": 0,
        "type": "noteOn",
        "noteNumber": 75,
        "velocity": 69
      },
      {
        "deltaTime": 45,
        "channel": 0,
        "type": "noteOff",
        "noteNumber": 61,
        "velocity": 0,
        "byte9": true
      },
      {
        "deltaTime": 45,
        "channel": 0,
        "type": "noteOn",
        "noteNumber": 74,
        "velocity": 70
      },
      {
        "deltaTime": 35,
        "channel": 0,
        "type": "noteOff",
        "noteNumber": 75,
        "velocity": 0,
        "byte9": true
      },
      {
        "deltaTime": 5,
        "channel": 0,
        "type": "noteOff",
        "noteNumber": 59,
        "velocity": 0,
        "byte9": true
      },
      {
        "deltaTime": 45,
        "channel": 0,
        "type": "noteOff",
        "noteNumber": 74,
        "velocity": 0,
        "byte9": true
      },
      {
        "deltaTime": 20,
        "channel": 0,
        "type": "noteOn",
        "noteNumber": 60,
        "velocity": 30
      },
      {
        "deltaTime": 20,
        "channel": 0,
        "type": "noteOn",
        "noteNumber": 72,
        "velocity": 68
      },
      {
        "deltaTime": 90,
        "channel": 0,
        "type": "noteOff",
        "noteNumber": 72,
        "velocity": 0,
        "byte9": true
      },
      {
        "deltaTime": 75,
        "channel": 0,
        "type": "noteOn",
        "noteNumber": 55,
        "velocity": 55
      },
      {
        "deltaTime": 10,
        "channel": 0,
        "type": "noteOn",
        "noteNumber": 74,
        "velocity": 87
      },
      {
        "deltaTime": 5,
        "channel": 0,
        "type": "noteOn",
        "noteNumber": 63,
        "velocity": 32
      },
      {
        "deltaTime": 40,
        "channel": 0,
        "type": "controller",
        "controllerType": 64,
        "value": 127
      },
      {
        "deltaTime": 145,
        "channel": 0,
        "type": "noteOff",
        "noteNumber": 55,
        "velocity": 0,
        "byte9": true
      },
      {
        "deltaTime": 10,
        "channel": 0,
        "type": "noteOff",
        "noteNumber": 63,
        "velocity": 0,
        "byte9": true
      },
      {
        "deltaTime": 35,
        "channel": 0,
        "type": "noteOff",
        "noteNumber": 60,
        "velocity": 0,
        "byte9": true
      },
      {
        "deltaTime": 50,
        "channel": 0,
        "type": "noteOn",
        "noteNumber": 63,
        "velocity": 57
      },
      {
        "deltaTime": 5,
        "channel": 0,
        "type": "noteOn",
        "noteNumber": 60,
        "velocity": 41
      },
      {
        "deltaTime": 10,
        "channel": 0,
        "type": "noteOn",
        "noteNumber": 75,
        "velocity": 78
      },
      {
        "deltaTime": 5,
        "channel": 0,
        "type": "noteOn",
        "noteNumber": 55,
        "velocity": 48
      },
      {
        "deltaTime": 5,
        "channel": 0,
        "type": "noteOff",
        "noteNumber": 74,
        "velocity": 0,
        "byte9": true
      },
      {
        "deltaTime": 15,
        "channel": 0,
        "type": "noteOn",
        "noteNumber": 57,
        "velocity": 27
      },
      {
        "deltaTime": 75,
        "channel": 0,
        "type": "noteOff",
        "noteNumber": 75,
        "velocity": 0,
        "byte9": true
      },
      {
        "deltaTime": 20,
        "channel": 0,
        "type": "controller",
        "controllerType": 64,
        "value": 0
      },
      {
        "deltaTime": 0,
        "channel": 0,
        "type": "noteOff",
        "noteNumber": 57,
        "velocity": 0,
        "byte9": true
      },
      {
        "deltaTime": 25,
        "channel": 0,
        "type": "noteOff",
        "noteNumber": 63,
        "velocity": 0,
        "byte9": true
      },
      {
        "deltaTime": 0,
        "running": true,
        "channel": 0,
        "type": "noteOn",
        "noteNumber": 77,
        "velocity": 65
      },
      {
        "deltaTime": 15,
        "channel": 0,
        "type": "noteOff",
        "noteNumber": 55,
        "velocity": 0,
        "byte9": true
      },
      {
        "deltaTime": 70,
        "channel": 0,
        "type": "noteOff",
        "noteNumber": 77,
        "velocity": 0,
        "byte9": true
      },
      {
        "deltaTime": 40,
        "channel": 0,
        "type": "noteOn",
        "noteNumber": 78,
        "velocity": 64
      },
      {
        "deltaTime": 80,
        "channel": 0,
        "type": "noteOff",
        "noteNumber": 78,
        "velocity": 0,
        "byte9": true
      },
      {
        "deltaTime": 50,
        "channel": 0,
        "type": "noteOn",
        "noteNumber": 80,
        "velocity": 60
      },
      {
        "deltaTime": 45,
        "channel": 0,
        "type": "noteOff",
        "noteNumber": 60,
        "velocity": 0,
        "byte9": true
      },
      {
        "deltaTime": 35,
        "channel": 0,
        "type": "noteOff",
        "noteNumber": 80,
        "velocity": 0,
        "byte9": true
      },
      {
        "deltaTime": 40,
        "channel": 0,
        "type": "noteOn",
        "noteNumber": 81,
        "velocity": 68
      },
      {
        "deltaTime": 30,
        "channel": 0,
        "type": "noteOn",
        "noteNumber": 60,
        "velocity": 32
      },
      {
        "deltaTime": 5,
        "channel": 0,
        "type": "noteOn",
        "noteNumber": 64,
        "velocity": 44
      },
      {
        "deltaTime": 10,
        "channel": 0,
        "type": "noteOn",
        "noteNumber": 54,
        "velocity": 33
      },
      {
        "deltaTime": 50,
        "channel": 0,
        "type": "noteOff",
        "noteNumber": 81,
        "velocity": 0,
        "byte9": true
      },
      {
        "deltaTime": 35,
        "channel": 0,
        "type": "noteOn",
        "noteNumber": 82,
        "velocity": 49
      },
      {
        "deltaTime": 40,
        "channel": 0,
        "type": "noteOff",
        "noteNumber": 64,
        "velocity": 0,
        "byte9": true
      },
      {
        "deltaTime": 35,
        "channel": 0,
        "type": "noteOff",
        "noteNumber": 82,
        "velocity": 0,
        "byte9": true
      },
      {
        "deltaTime": 170,
        "channel": 0,
        "type": "noteOff",
        "noteNumber": 60,
        "velocity": 0,
        "byte9": true
      },
      {
        "deltaTime": 190,
        "channel": 0,
        "type": "noteOn",
        "noteNumber": 60,
        "velocity": 40
      },
      {
        "deltaTime": 5,
        "channel": 0,
        "type": "noteOn",
        "noteNumber": 64,
        "velocity": 40
      },
      {
        "deltaTime": 0,
        "running": true,
        "channel": 0,
        "type": "noteOn",
        "noteNumber": 81,
        "velocity": 65
      },
      {
        "deltaTime": 25,
        "channel": 0,
        "type": "noteOn",
        "noteNumber": 58,
        "velocity": 31
      },
      {
        "deltaTime": 55,
        "channel": 0,
        "type": "noteOff",
        "noteNumber": 60,
        "velocity": 0,
        "byte9": true
      },
      {
        "deltaTime": 0,
        "running": true,
        "channel": 0,
        "type": "noteOff",
        "noteNumber": 64,
        "velocity": 0,
        "byte9": true
      },
      {
        "deltaTime": 25,
        "channel": 0,
        "type": "noteOff",
        "noteNumber": 81,
        "velocity": 0,
        "byte9": true
      },
      {
        "deltaTime": 25,
        "channel": 0,
        "type": "noteOn",
        "noteNumber": 82,
        "velocity": 61
      },
      {
        "deltaTime": 55,
        "channel": 0,
        "type": "noteOff",
        "noteNumber": 82,
        "velocity": 0,
        "byte9": true
      },
      {
        "deltaTime": 60,
        "channel": 0,
        "type": "noteOff",
        "noteNumber": 58,
        "velocity": 0,
        "byte9": true
      },
      {
        "deltaTime": 10,
        "channel": 0,
        "type": "noteOn",
        "noteNumber": 86,
        "velocity": 59
      },
      {
        "deltaTime": 20,
        "channel": 0,
        "type": "noteOff",
        "noteNumber": 54,
        "velocity": 0,
        "byte9": true
      },
      {
        "deltaTime": 50,
        "channel": 0,
        "type": "noteOff",
        "noteNumber": 86,
        "velocity": 0,
        "byte9": true
      },
      {
        "deltaTime": 45,
        "channel": 0,
        "type": "noteOn",
        "noteNumber": 89,
        "velocity": 75
      },
      {
        "deltaTime": 70,
        "channel": 0,
        "type": "noteOff",
        "noteNumber": 89,
        "velocity": 0,
        "byte9": true
      },
      {
        "deltaTime": 40,
        "channel": 0,
        "type": "noteOn",
        "noteNumber": 62,
        "velocity": 46
      },
      {
        "deltaTime": 5,
        "channel": 0,
        "type": "noteOn",
        "noteNumber": 93,
        "velocity": 74
      },
      {
        "deltaTime": 5,
        "channel": 0,
        "type": "noteOn",
        "noteNumber": 57,
        "velocity": 41
      },
      {
        "deltaTime": 5,
        "channel": 0,
        "type": "noteOn",
        "noteNumber": 58,
        "velocity": 34
      },
      {
        "deltaTime": 10,
        "channel": 0,
        "type": "noteOn",
        "noteNumber": 55,
        "velocity": 44
      },
      {
        "deltaTime": 75,
        "channel": 0,
        "type": "noteOff",
        "noteNumber": 93,
        "velocity": 0,
        "byte9": true
      },
      {
        "deltaTime": 50,
        "channel": 0,
        "type": "noteOn",
        "noteNumber": 96,
        "velocity": 82
      },
      {
        "deltaTime": 60,
        "channel": 0,
        "type": "noteOff",
        "noteNumber": 96,
        "velocity": 0,
        "byte9": true
      },
      {
        "deltaTime": 45,
        "channel": 0,
        "type": "noteOn",
        "noteNumber": 94,
        "velocity": 60
      },
      {
        "deltaTime": 30,
        "channel": 0,
        "type": "noteOff",
        "noteNumber": 62,
        "velocity": 0,
        "byte9": true
      },
      {
        "deltaTime": 30,
        "channel": 0,
        "type": "noteOff",
        "noteNumber": 58,
        "velocity": 0,
        "byte9": true
      },
      {
        "deltaTime": 40,
        "channel": 0,
        "type": "noteOff",
        "noteNumber": 57,
        "velocity": 0,
        "byte9": true
      },
      {
        "deltaTime": 25,
        "channel": 0,
        "type": "noteOff",
        "noteNumber": 94,
        "velocity": 0,
        "byte9": true
      },
      {
        "deltaTime": 15,
        "channel": 0,
        "type": "noteOn",
        "noteNumber": 90,
        "velocity": 57
      },
      {
        "deltaTime": 65,
        "channel": 0,
        "type": "noteOff",
        "noteNumber": 90,
        "velocity": 0,
        "byte9": true
      },
      {
        "deltaTime": 40,
        "channel": 0,
        "type": "noteOn",
        "noteNumber": 62,
        "velocity": 37
      },
      {
        "deltaTime": 5,
        "channel": 0,
        "type": "noteOn",
        "noteNumber": 93,
        "velocity": 84
      },
      {
        "deltaTime": 5,
        "channel": 0,
        "type": "noteOn",
        "noteNumber": 58,
        "velocity": 33
      },
      {
        "deltaTime": 65,
        "channel": 0,
        "type": "noteOff",
        "noteNumber": 62,
        "velocity": 0,
        "byte9": true
      },
      {
        "deltaTime": 20,
        "channel": 0,
        "type": "noteOff",
        "noteNumber": 93,
        "velocity": 0,
        "byte9": true
      },
      {
        "deltaTime": 5,
        "channel": 0,
        "type": "noteOff",
        "noteNumber": 58,
        "velocity": 0,
        "byte9": true
      },
      {
        "deltaTime": 30,
        "channel": 0,
        "type": "noteOff",
        "noteNumber": 55,
        "velocity": 0,
        "byte9": true
      },
      {
        "deltaTime": 5,
        "channel": 0,
        "type": "noteOn",
        "noteNumber": 91,
        "velocity": 66
      },
      {
        "deltaTime": 90,
        "channel": 0,
        "type": "noteOff",
        "noteNumber": 91,
        "velocity": 0,
        "byte9": true
      },
      {
        "deltaTime": 25,
        "channel": 0,
        "type": "noteOn",
        "noteNumber": 86,
        "velocity": 41
      },
      {
        "deltaTime": 70,
        "channel": 0,
        "type": "noteOff",
        "noteNumber": 86,
        "velocity": 0,
        "byte9": true
      },
      {
        "deltaTime": 60,
        "channel": 0,
        "type": "noteOn",
        "noteNumber": 84,
        "velocity": 70
      },
      {
        "deltaTime": 100,
        "channel": 0,
        "type": "noteOff",
        "noteNumber": 84,
        "velocity": 0,
        "byte9": true
      },
      {
        "deltaTime": 320,
        "channel": 0,
        "type": "noteOn",
        "noteNumber": 62,
        "velocity": 51
      },
      {
        "deltaTime": 5,
        "channel": 0,
        "type": "noteOn",
        "noteNumber": 57,
        "velocity": 52
      },
      {
        "deltaTime": 5,
        "channel": 0,
        "type": "noteOn",
        "noteNumber": 58,
        "velocity": 34
      },
      {
        "deltaTime": 25,
        "channel": 0,
        "type": "noteOff",
        "noteNumber": 62,
        "velocity": 0,
        "byte9": true
      },
      {
        "deltaTime": 10,
        "channel": 0,
        "type": "noteOff",
        "noteNumber": 57,
        "velocity": 0,
        "byte9": true
      },
      {
        "deltaTime": 15,
        "channel": 0,
        "type": "noteOff",
        "noteNumber": 58,
        "velocity": 0,
        "byte9": true
      },
      {
        "deltaTime": 130,
        "channel": 0,
        "type": "noteOn",
        "noteNumber": 82,
        "velocity": 72
      },
      {
        "deltaTime": 75,
        "channel": 0,
        "type": "noteOff",
        "noteNumber": 82,
        "velocity": 0,
        "byte9": true
      },
      {
        "deltaTime": 75,
        "channel": 0,
        "type": "noteOn",
        "noteNumber": 84,
        "velocity": 70
      },
      {
        "deltaTime": 10,
        "channel": 0,
        "type": "noteOn",
        "noteNumber": 83,
        "velocity": 53
      },
      {
        "deltaTime": 25,
        "channel": 0,
        "type": "noteOff",
        "noteNumber": 83,
        "velocity": 0,
        "byte9": true
      },
      {
        "deltaTime": 25,
        "channel": 0,
        "type": "noteOff",
        "noteNumber": 84,
        "velocity": 0,
        "byte9": true
      },
      {
        "deltaTime": 80,
        "channel": 0,
        "type": "noteOn",
        "noteNumber": 85,
        "velocity": 85
      },
      {
        "deltaTime": 95,
        "channel": 0,
        "type": "noteOff",
        "noteNumber": 85,
        "velocity": 0,
        "byte9": true
      },
      {
        "deltaTime": 70,
        "channel": 0,
        "type": "noteOn",
        "noteNumber": 84,
        "velocity": 74
      },
      {
        "deltaTime": 105,
        "channel": 0,
        "type": "noteOff",
        "noteNumber": 84,
        "velocity": 0,
        "byte9": true
      },
      {
        "deltaTime": 55,
        "channel": 0,
        "type": "noteOn",
        "noteNumber": 82,
        "velocity": 52
      },
      {
        "deltaTime": 75,
        "channel": 0,
        "type": "noteOff",
        "noteNumber": 82,
        "velocity": 0,
        "byte9": true
      },
      {
        "deltaTime": 80,
        "channel": 0,
        "type": "noteOn",
        "noteNumber": 58,
        "velocity": 67
      },
      {
        "deltaTime": 5,
        "channel": 0,
        "type": "noteOn",
        "noteNumber": 63,
        "velocity": 78
      },
      {
        "deltaTime": 15,
        "channel": 0,
        "type": "noteOn",
        "noteNumber": 52,
        "velocity": 59
      },
      {
        "deltaTime": 20,
        "channel": 0,
        "type": "noteOff",
        "noteNumber": 52,
        "velocity": 0,
        "byte9": true
      },
      {
        "deltaTime": 5,
        "channel": 0,
        "type": "noteOff",
        "noteNumber": 63,
        "velocity": 0,
        "byte9": true
      },
      {
        "deltaTime": 10,
        "channel": 0,
        "type": "noteOff",
        "noteNumber": 58,
        "velocity": 0,
        "byte9": true
      },
      {
        "deltaTime": 130,
        "channel": 0,
        "type": "noteOn",
        "noteNumber": 72,
        "velocity": 51
      },
      {
        "deltaTime": 165,
        "channel": 0,
        "type": "noteOff",
        "noteNumber": 72,
        "velocity": 0,
        "byte9": true
      },
      {
        "deltaTime": 145,
        "channel": 0,
        "type": "noteOn",
        "noteNumber": 72,
        "velocity": 78
      },
      {
        "deltaTime": 0,
        "running": true,
        "channel": 0,
        "type": "noteOn",
        "noteNumber": 84,
        "velocity": 81
      },
      {
        "deltaTime": 165,
        "channel": 0,
        "type": "noteOff",
        "noteNumber": 72,
        "velocity": 0,
        "byte9": true
      },
      {
        "deltaTime": 10,
        "channel": 0,
        "type": "noteOff",
        "noteNumber": 84,
        "velocity": 0,
        "byte9": true
      },
      {
        "deltaTime": 140,
        "channel": 0,
        "type": "noteOn",
        "noteNumber": 84,
        "velocity": 84
      },
      {
        "deltaTime": 5,
        "channel": 0,
        "type": "noteOn",
        "noteNumber": 72,
        "velocity": 71
      },
      {
        "deltaTime": 70,
        "channel": 0,
        "type": "noteOff",
        "noteNumber": 84,
        "velocity": 0,
        "byte9": true
      },
      {
        "deltaTime": 55,
        "channel": 0,
        "type": "noteOff",
        "noteNumber": 72,
        "velocity": 0,
        "byte9": true
      },
      {
        "deltaTime": 10,
        "channel": 0,
        "type": "noteOn",
        "noteNumber": 58,
        "velocity": 52
      },
      {
        "deltaTime": 10,
        "channel": 0,
        "type": "noteOn",
        "noteNumber": 52,
        "velocity": 59
      },
      {
        "deltaTime": 25,
        "channel": 0,
        "type": "noteOff",
        "noteNumber": 52,
        "velocity": 0,
        "byte9": true
      },
      {
        "deltaTime": 30,
        "channel": 0,
        "type": "noteOff",
        "noteNumber": 58,
        "velocity": 0,
        "byte9": true
      },
      {
        "deltaTime": 105,
        "channel": 0,
        "type": "noteOn",
        "noteNumber": 80,
        "velocity": 64
      },
      {
        "deltaTime": 5,
        "channel": 0,
        "type": "noteOn",
        "noteNumber": 68,
        "velocity": 73
      },
      {
        "deltaTime": 15,
        "channel": 0,
        "type": "noteOn",
        "noteNumber": 73,
        "velocity": 46
      },
      {
        "deltaTime": 25,
        "channel": 0,
        "type": "noteOff",
        "noteNumber": 73,
        "velocity": 0,
        "byte9": true
      },
      {
        "deltaTime": 55,
        "channel": 0,
        "type": "noteOff",
        "noteNumber": 80,
        "velocity": 0,
        "byte9": true
      },
      {
        "deltaTime": 10,
        "channel": 0,
        "type": "noteOff",
        "noteNumber": 68,
        "velocity": 0,
        "byte9": true
      },
      {
        "deltaTime": 50,
        "channel": 0,
        "type": "noteOn",
        "noteNumber": 81,
        "velocity": 74
      },
      {
        "deltaTime": 5,
        "channel": 0,
        "type": "noteOn",
        "noteNumber": 69,
        "velocity": 69
      },
      {
        "deltaTime": 55,
        "channel": 0,
        "type": "noteOff",
        "noteNumber": 69,
        "velocity": 0,
        "byte9": true
      },
      {
        "deltaTime": 5,
        "channel": 0,
        "type": "noteOff",
        "noteNumber": 81,
        "velocity": 0,
        "byte9": true
      },
      {
        "deltaTime": 95,
        "channel": 0,
        "type": "noteOn",
        "noteNumber": 81,
        "velocity": 80
      },
      {
        "deltaTime": 5,
        "channel": 0,
        "type": "noteOn",
        "noteNumber": 58,
        "velocity": 64
      },
      {
        "deltaTime": 0,
        "running": true,
        "channel": 0,
        "type": "noteOn",
        "noteNumber": 62,
        "velocity": 74
      },
      {
        "deltaTime": 5,
        "channel": 0,
        "type": "noteOn",
        "noteNumber": 57,
        "velocity": 66
      },
      {
        "deltaTime": 0,
        "running": true,
        "channel": 0,
        "type": "noteOn",
        "noteNumber": 69,
        "velocity": 82
      },
      {
        "deltaTime": 20,
        "channel": 0,
        "type": "noteOn",
        "noteNumber": 75,
        "velocity": 31
      },
      {
        "deltaTime": 25,
        "channel": 0,
        "type": "noteOff",
        "noteNumber": 75,
        "velocity": 0,
        "byte9": true
      },
      {
        "deltaTime": 135,
        "channel": 0,
        "type": "noteOff",
        "noteNumber": 81,
        "velocity": 0,
        "byte9": true
      },
      {
        "deltaTime": 20,
        "channel": 0,
        "type": "noteOff",
        "noteNumber": 69,
        "velocity": 0,
        "byte9": true
      },
      {
        "deltaTime": 30,
        "channel": 0,
        "type": "noteOff",
        "noteNumber": 62,
        "velocity": 0,
        "byte9": true
      },
      {
        "deltaTime": 35,
        "channel": 0,
        "type": "noteOff",
        "noteNumber": 58,
        "velocity": 0,
        "byte9": true
      },
      {
        "deltaTime": 20,
        "channel": 0,
        "type": "noteOff",
        "noteNumber": 57,
        "velocity": 0,
        "byte9": true
      },
      {
        "deltaTime": 5,
        "channel": 0,
        "type": "noteOn",
        "noteNumber": 77,
        "velocity": 64
      },
      {
        "deltaTime": 10,
        "channel": 0,
        "type": "noteOn",
        "noteNumber": 65,
        "velocity": 54
      },
      {
        "deltaTime": 55,
        "channel": 0,
        "type": "noteOff",
        "noteNumber": 77,
        "velocity": 0,
        "byte9": true
      },
      {
        "deltaTime": 10,
        "channel": 0,
        "type": "noteOff",
        "noteNumber": 65,
        "velocity": 0,
        "byte9": true
      },
      {
        "deltaTime": 85,
        "channel": 0,
        "type": "noteOn",
        "noteNumber": 65,
        "velocity": 68
      },
      {
        "deltaTime": 0,
        "running": true,
        "channel": 0,
        "type": "noteOn",
        "noteNumber": 77,
        "velocity": 71
      },
      {
        "deltaTime": 15,
        "channel": 0,
        "type": "noteOn",
        "noteNumber": 58,
        "velocity": 45
      },
      {
        "deltaTime": 5,
        "channel": 0,
        "type": "noteOn",
        "noteNumber": 57,
        "velocity": 48
      },
      {
        "deltaTime": 0,
        "running": true,
        "channel": 0,
        "type": "noteOn",
        "noteNumber": 62,
        "velocity": 52
      },
      {
        "deltaTime": 35,
        "channel": 0,
        "type": "noteOff",
        "noteNumber": 62,
        "velocity": 0,
        "byte9": true
      },
      {
        "deltaTime": 5,
        "channel": 0,
        "type": "noteOff",
        "noteNumber": 57,
        "velocity": 0,
        "byte9": true
      },
      {
        "deltaTime": 0,
        "running": true,
        "channel": 0,
        "type": "noteOff",
        "noteNumber": 65,
        "velocity": 0,
        "byte9": true
      },
      {
        "deltaTime": 25,
        "channel": 0,
        "type": "noteOff",
        "noteNumber": 58,
        "velocity": 0,
        "byte9": true
      },
      {
        "deltaTime": 5,
        "channel": 0,
        "type": "noteOff",
        "noteNumber": 77,
        "velocity": 0,
        "byte9": true
      },
      {
        "deltaTime": 255,
        "channel": 0,
        "type": "noteOn",
        "noteNumber": 80,
        "velocity": 80
      },
      {
        "deltaTime": 5,
        "channel": 0,
        "type": "noteOn",
        "noteNumber": 68,
        "velocity": 85
      },
      {
        "deltaTime": 5,
        "channel": 0,
        "type": "noteOn",
        "noteNumber": 58,
        "velocity": 61
      },
      {
        "deltaTime": 5,
        "channel": 0,
        "type": "noteOn",
        "noteNumber": 57,
        "velocity": 54
      },
      {
        "deltaTime": 5,
        "channel": 0,
        "type": "noteOn",
        "noteNumber": 62,
        "velocity": 50
      },
      {
        "deltaTime": 5,
        "channel": 0,
        "type": "noteOn",
        "noteNumber": 64,
        "velocity": 54
      },
      {
        "deltaTime": 25,
        "channel": 0,
        "type": "noteOff",
        "noteNumber": 64,
        "velocity": 0,
        "byte9": true
      },
      {
        "deltaTime": 35,
        "channel": 0,
        "type": "noteOff",
        "noteNumber": 62,
        "velocity": 0,
        "byte9": true
      },
      {
        "deltaTime": 25,
        "channel": 0,
        "type": "noteOff",
        "noteNumber": 68,
        "velocity": 0,
        "byte9": true
      },
      {
        "deltaTime": 0,
        "running": true,
        "channel": 0,
        "type": "noteOff",
        "noteNumber": 80,
        "velocity": 0,
        "byte9": true
      },
      {
        "deltaTime": 10,
        "channel": 0,
        "type": "noteOff",
        "noteNumber": 58,
        "velocity": 0,
        "byte9": true
      },
      {
        "deltaTime": 40,
        "channel": 0,
        "type": "noteOn",
        "noteNumber": 62,
        "velocity": 60
      },
      {
        "deltaTime": 0,
        "running": true,
        "channel": 0,
        "type": "noteOn",
        "noteNumber": 69,
        "velocity": 76
      },
      {
        "deltaTime": 5,
        "channel": 0,
        "type": "noteOn",
        "noteNumber": 58,
        "velocity": 54
      },
      {
        "deltaTime": 0,
        "running": true,
        "channel": 0,
        "type": "noteOn",
        "noteNumber": 81,
        "velocity": 57
      },
      {
        "deltaTime": 5,
        "channel": 0,
        "type": "noteOn",
        "noteNumber": 78,
        "velocity": 44
      },
      {
        "deltaTime": 5,
        "channel": 0,
        "type": "noteOn",
        "noteNumber": 79,
        "velocity": 52
      },
      {
        "deltaTime": 25,
        "channel": 0,
        "type": "noteOff",
        "noteNumber": 79,
        "velocity": 0,
        "byte9": true
      },
      {
        "deltaTime": 20,
        "channel": 0,
        "type": "noteOff",
        "noteNumber": 62,
        "velocity": 0,
        "byte9": true
      },
      {
        "deltaTime": 5,
        "channel": 0,
        "type": "noteOff",
        "noteNumber": 81,
        "velocity": 0,
        "byte9": true
      },
      {
        "deltaTime": 10,
        "channel": 0,
        "type": "noteOff",
        "noteNumber": 69,
        "velocity": 0,
        "byte9": true
      },
      {
        "deltaTime": 15,
        "channel": 0,
        "type": "noteOff",
        "noteNumber": 58,
        "velocity": 0,
        "byte9": true
      },
      {
        "deltaTime": 10,
        "channel": 0,
        "type": "noteOff",
        "noteNumber": 78,
        "velocity": 0,
        "byte9": true
      },
      {
        "deltaTime": 5,
        "channel": 0,
        "type": "noteOff",
        "noteNumber": 57,
        "velocity": 0,
        "byte9": true
      },
      {
        "deltaTime": 50,
        "channel": 0,
        "type": "noteOn",
        "noteNumber": 57,
        "velocity": 37
      },
      {
        "deltaTime": 0,
        "running": true,
        "channel": 0,
        "type": "noteOn",
        "noteNumber": 58,
        "velocity": 47
      },
      {
        "deltaTime": 5,
        "channel": 0,
        "type": "noteOn",
        "noteNumber": 62,
        "velocity": 61
      },
      {
        "deltaTime": 0,
        "running": true,
        "channel": 0,
        "type": "noteOn",
        "noteNumber": 81,
        "velocity": 81
      },
      {
        "deltaTime": 10,
        "channel": 0,
        "type": "noteOn",
        "noteNumber": 69,
        "velocity": 69
      },
      {
        "deltaTime": 45,
        "channel": 0,
        "type": "noteOff",
        "noteNumber": 62,
        "velocity": 0,
        "byte9": true
      },
      {
        "deltaTime": 5,
        "channel": 0,
        "type": "noteOff",
        "noteNumber": 69,
        "velocity": 0,
        "byte9": true
      },
      {
        "deltaTime": 5,
        "channel": 0,
        "type": "noteOff",
        "noteNumber": 81,
        "velocity": 0,
        "byte9": true
      },
      {
        "deltaTime": 20,
        "channel": 0,
        "type": "noteOff",
        "noteNumber": 58,
        "velocity": 0,
        "byte9": true
      },
      {
        "deltaTime": 30,
        "channel": 0,
        "type": "noteOff",
        "noteNumber": 57,
        "velocity": 0,
        "byte9": true
      },
      {
        "deltaTime": 20,
        "channel": 0,
        "type": "noteOn",
        "noteNumber": 57,
        "velocity": 19
      },
      {
        "deltaTime": 10,
        "channel": 0,
        "type": "noteOn",
        "noteNumber": 58,
        "velocity": 39
      },
      {
        "deltaTime": 5,
        "channel": 0,
        "type": "noteOn",
        "noteNumber": 62,
        "velocity": 48
      },
      {
        "deltaTime": 0,
        "running": true,
        "channel": 0,
        "type": "noteOn",
        "noteNumber": 65,
        "velocity": 76
      },
      {
        "deltaTime": 5,
        "channel": 0,
        "type": "noteOn",
        "noteNumber": 77,
        "velocity": 57
      },
      {
        "deltaTime": 25,
        "channel": 0,
        "type": "noteOff",
        "noteNumber": 62,
        "velocity": 0,
        "byte9": true
      },
      {
        "deltaTime": 25,
        "channel": 0,
        "type": "noteOff",
        "noteNumber": 65,
        "velocity": 0,
        "byte9": true
      },
      {
        "deltaTime": 5,
        "channel": 0,
        "type": "noteOff",
        "noteNumber": 58,
        "velocity": 0,
        "byte9": true
      },
      {
        "deltaTime": 5,
        "channel": 0,
        "type": "noteOff",
        "noteNumber": 77,
        "velocity": 0,
        "byte9": true
      },
      {
        "deltaTime": 30,
        "channel": 0,
        "type": "noteOff",
        "noteNumber": 57,
        "velocity": 0,
        "byte9": true
      },
      {
        "deltaTime": 230,
        "channel": 0,
        "type": "noteOn",
        "noteNumber": 57,
        "velocity": 58
      },
      {
        "deltaTime": 0,
        "running": true,
        "channel": 0,
        "type": "noteOn",
        "noteNumber": 62,
        "velocity": 66
      },
      {
        "deltaTime": 0,
        "running": true,
        "channel": 0,
        "type": "noteOn",
        "noteNumber": 77,
        "velocity": 80
      },
      {
        "deltaTime": 5,
        "channel": 0,
        "type": "noteOn",
        "noteNumber": 58,
        "velocity": 49
      },
      {
        "deltaTime": 0,
        "running": true,
        "channel": 0,
        "type": "noteOn",
        "noteNumber": 65,
        "velocity": 82
      },
      {
        "deltaTime": 45,
        "channel": 0,
        "type": "noteOff",
        "noteNumber": 62,
        "velocity": 0,
        "byte9": true
      },
      {
        "deltaTime": 0,
        "running": true,
        "channel": 0,
        "type": "noteOff",
        "noteNumber": 65,
        "velocity": 0,
        "byte9": true
      },
      {
        "deltaTime": 15,
        "channel": 0,
        "type": "noteOff",
        "noteNumber": 57,
        "velocity": 0,
        "byte9": true
      },
      {
        "deltaTime": 10,
        "channel": 0,
        "type": "noteOff",
        "noteNumber": 77,
        "velocity": 0,
        "byte9": true
      },
      {
        "deltaTime": 5,
        "channel": 0,
        "type": "noteOff",
        "noteNumber": 58,
        "velocity": 0,
        "byte9": true
      },
      {
        "deltaTime": 240,
        "channel": 0,
        "type": "noteOn",
        "noteNumber": 58,
        "velocity": 71
      },
      {
        "deltaTime": 5,
        "channel": 0,
        "type": "noteOn",
        "noteNumber": 68,
        "velocity": 86
      },
      {
        "deltaTime": 0,
        "running": true,
        "channel": 0,
        "type": "noteOn",
        "noteNumber": 80,
        "velocity": 77
      },
      {
        "deltaTime": 10,
        "channel": 0,
        "type": "noteOn",
        "noteNumber": 52,
        "velocity": 70
      },
      {
        "deltaTime": 90,
        "channel": 0,
        "type": "noteOff",
        "noteNumber": 52,
        "velocity": 0,
        "byte9": true
      },
      {
        "deltaTime": 15,
        "channel": 0,
        "type": "noteOff",
        "noteNumber": 68,
        "velocity": 0,
        "byte9": true
      },
      {
        "deltaTime": 15,
        "channel": 0,
        "type": "noteOff",
        "noteNumber": 58,
        "velocity": 0,
        "byte9": true
      },
      {
        "deltaTime": 5,
        "channel": 0,
        "type": "noteOff",
        "noteNumber": 80,
        "velocity": 0,
        "byte9": true
      },
      {
        "deltaTime": 150,
        "channel": 0,
        "type": "noteOn",
        "noteNumber": 58,
        "velocity": 60
      },
      {
        "deltaTime": 0,
        "running": true,
        "channel": 0,
        "type": "noteOn",
        "noteNumber": 70,
        "velocity": 88
      },
      {
        "deltaTime": 0,
        "running": true,
        "channel": 0,
        "type": "noteOn",
        "noteNumber": 82,
        "velocity": 85
      },
      {
        "deltaTime": 5,
        "channel": 0,
        "type": "noteOn",
        "noteNumber": 63,
        "velocity": 71
      },
      {
        "deltaTime": 5,
        "channel": 0,
        "type": "noteOn",
        "noteNumber": 52,
        "velocity": 68
      },
      {
        "deltaTime": 180,
        "channel": 0,
        "type": "controller",
        "controllerType": 64,
        "value": 127
      },
      {
        "deltaTime": 65,
        "channel": 0,
        "type": "noteOff",
        "noteNumber": 52,
        "velocity": 0,
        "byte9": true
      },
      {
        "deltaTime": 25,
        "channel": 0,
        "type": "noteOff",
        "noteNumber": 63,
        "velocity": 0,
        "byte9": true
      },
      {
        "deltaTime": 5,
        "channel": 0,
        "type": "noteOff",
        "noteNumber": 70,
        "velocity": 0,
        "byte9": true
      },
      {
        "deltaTime": 5,
        "channel": 0,
        "type": "noteOff",
        "noteNumber": 82,
        "velocity": 0,
        "byte9": true
      },
      {
        "deltaTime": 10,
        "channel": 0,
        "type": "noteOff",
        "noteNumber": 58,
        "velocity": 0,
        "byte9": true
      },
      {
        "deltaTime": 20,
        "channel": 0,
        "type": "controller",
        "controllerType": 64,
        "value": 0
      },
      {
        "deltaTime": 40,
        "channel": 0,
        "type": "noteOn",
        "noteNumber": 63,
        "velocity": 62
      },
      {
        "deltaTime": 5,
        "channel": 0,
        "type": "noteOn",
        "noteNumber": 58,
        "velocity": 43
      },
      {
        "deltaTime": 5,
        "channel": 0,
        "type": "noteOn",
        "noteNumber": 80,
        "velocity": 49
      },
      {
        "deltaTime": 5,
        "channel": 0,
        "type": "noteOn",
        "noteNumber": 52,
        "velocity": 57
      },
      {
        "deltaTime": 0,
        "running": true,
        "channel": 0,
        "type": "noteOn",
        "noteNumber": 68,
        "velocity": 64
      },
      {
        "deltaTime": 155,
        "channel": 0,
        "type": "noteOff",
        "noteNumber": 52,
        "velocity": 0,
        "byte9": true
      },
      {
        "deltaTime": 40,
        "channel": 0,
        "type": "noteOff",
        "noteNumber": 58,
        "velocity": 0,
        "byte9": true
      },
      {
        "deltaTime": 20,
        "channel": 0,
        "type": "noteOff",
        "noteNumber": 63,
        "velocity": 0,
        "byte9": true
      },
      {
        "deltaTime": 10,
        "channel": 0,
        "type": "noteOff",
        "noteNumber": 68,
        "velocity": 0,
        "byte9": true
      },
      {
        "deltaTime": 15,
        "channel": 0,
        "type": "noteOff",
        "noteNumber": 80,
        "velocity": 0,
        "byte9": true
      },
      {
        "deltaTime": 70,
        "channel": 0,
        "type": "noteOn",
        "noteNumber": 52,
        "velocity": 70
      },
      {
        "deltaTime": 5,
        "channel": 0,
        "type": "controller",
        "controllerType": 64,
        "value": 127
      },
      {
        "deltaTime": 55,
        "channel": 0,
        "type": "noteOff",
        "noteNumber": 52,
        "velocity": 0,
        "byte9": true
      },
      {
        "deltaTime": 30,
        "channel": 0,
        "type": "controller",
        "controllerType": 64,
        "value": 0
      },
      {
        "deltaTime": 80,
        "channel": 0,
        "type": "noteOn",
        "noteNumber": 52,
        "velocity": 81
      },
      {
        "deltaTime": 0,
        "running": true,
        "channel": 0,
        "type": "noteOn",
        "noteNumber": 58,
        "velocity": 71
      },
      {
        "deltaTime": 10,
        "channel": 0,
        "type": "noteOn",
        "noteNumber": 70,
        "velocity": 91
      },
      {
        "deltaTime": 0,
        "running": true,
        "channel": 0,
        "type": "noteOn",
        "noteNumber": 82,
        "velocity": 86
      },
      {
        "deltaTime": 10,
        "channel": 0,
        "type": "noteOn",
        "noteNumber": 75,
        "velocity": 78
      },
      {
        "deltaTime": 155,
        "channel": 0,
        "type": "noteOff",
        "noteNumber": 52,
        "velocity": 0,
        "byte9": true
      },
      {
        "deltaTime": 0,
        "running": true,
        "channel": 0,
        "type": "noteOff",
        "noteNumber": 82,
        "velocity": 0,
        "byte9": true
      },
      {
        "deltaTime": 10,
        "channel": 0,
        "type": "noteOff",
        "noteNumber": 58,
        "velocity": 0,
        "byte9": true
      },
      {
        "deltaTime": 5,
        "channel": 0,
        "type": "noteOff",
        "noteNumber": 75,
        "velocity": 0,
        "byte9": true
      },
      {
        "deltaTime": 10,
        "channel": 0,
        "type": "noteOff",
        "noteNumber": 70,
        "velocity": 0,
        "byte9": true
      },
      {
        "deltaTime": 30,
        "channel": 0,
        "type": "controller",
        "controllerType": 64,
        "value": 127
      },
      {
        "deltaTime": 85,
        "channel": 0,
        "type": "noteOn",
        "noteNumber": 58,
        "velocity": 69
      },
      {
        "deltaTime": 0,
        "running": true,
        "channel": 0,
        "type": "noteOn",
        "noteNumber": 80,
        "velocity": 67
      },
      {
        "deltaTime": 5,
        "channel": 0,
        "type": "noteOn",
        "noteNumber": 68,
        "velocity": 78
      },
      {
        "deltaTime": 5,
        "channel": 0,
        "type": "noteOn",
        "noteNumber": 52,
        "velocity": 72
      },
      {
        "deltaTime": 10,
        "channel": 0,
        "type": "noteOn",
        "noteNumber": 75,
        "velocity": 51
      },
      {
        "deltaTime": 25,
        "channel": 0,
        "type": "noteOff",
        "noteNumber": 75,
        "velocity": 0,
        "byte9": true
      },
      {
        "deltaTime": 40,
        "channel": 0,
        "type": "noteOff",
        "noteNumber": 52,
        "velocity": 0,
        "byte9": true
      },
      {
        "deltaTime": 0,
        "running": true,
        "channel": 0,
        "type": "noteOff",
        "noteNumber": 80,
        "velocity": 0,
        "byte9": true
      },
      {
        "deltaTime": 10,
        "channel": 0,
        "type": "noteOff",
        "noteNumber": 68,
        "velocity": 0,
        "byte9": true
      },
      {
        "deltaTime": 15,
        "channel": 0,
        "type": "noteOff",
        "noteNumber": 58,
        "velocity": 0,
        "byte9": true
      },
      {
        "deltaTime": 55,
        "channel": 0,
        "type": "controller",
        "controllerType": 64,
        "value": 0
      },
      {
        "deltaTime": 20,
        "channel": 0,
        "type": "noteOn",
        "noteNumber": 58,
        "velocity": 55
      },
      {
        "deltaTime": 0,
        "running": true,
        "channel": 0,
        "type": "noteOn",
        "noteNumber": 77,
        "velocity": 72
      },
      {
        "deltaTime": 5,
        "channel": 0,
        "type": "noteOn",
        "noteNumber": 52,
        "velocity": 62
      },
      {
        "deltaTime": 10,
        "channel": 0,
        "type": "noteOn",
        "noteNumber": 65,
        "velocity": 57
      },
      {
        "deltaTime": 30,
        "channel": 0,
        "type": "noteOff",
        "noteNumber": 65,
        "velocity": 0,
        "byte9": true
      },
      {
        "deltaTime": 35,
        "channel": 0,
        "type": "noteOff",
        "noteNumber": 52,
        "velocity": 0,
        "byte9": true
      },
      {
        "deltaTime": 5,
        "channel": 0,
        "type": "noteOff",
        "noteNumber": 77,
        "velocity": 0,
        "byte9": true
      },
      {
        "deltaTime": 30,
        "channel": 0,
        "type": "noteOff",
        "noteNumber": 58,
        "velocity": 0,
        "byte9": true
      },
      {
        "deltaTime": 25,
        "channel": 0,
        "type": "noteOn",
        "noteNumber": 74,
        "velocity": 49
      },
      {
        "deltaTime": 45,
        "channel": 0,
        "type": "noteOff",
        "noteNumber": 74,
        "velocity": 0,
        "byte9": true
      },
      {
        "deltaTime": 105,
        "channel": 0,
        "type": "noteOn",
        "noteNumber": 57,
        "velocity": 56
      },
      {
        "deltaTime": 5,
        "channel": 0,
        "type": "noteOn",
        "noteNumber": 72,
        "velocity": 92
      },
      {
        "deltaTime": 0,
        "running": true,
        "channel": 0,
        "type": "noteOn",
        "noteNumber": 77,
        "velocity": 88
      },
      {
        "deltaTime": 10,
        "channel": 0,
        "type": "noteOn",
        "noteNumber": 63,
        "velocity": 70
      },
      {
        "deltaTime": 0,
        "running": true,
        "channel": 0,
        "type": "noteOn",
        "noteNumber": 67,
        "velocity": 65
      },
      {
        "deltaTime": 260,
        "channel": 0,
        "type": "noteOff",
        "noteNumber": 72,
        "velocity": 0,
        "byte9": true
      },
      {
        "deltaTime": 5,
        "channel": 0,
        "type": "noteOff",
        "noteNumber": 67,
        "velocity": 0,
        "byte9": true
      },
      {
        "deltaTime": 50,
        "channel": 0,
        "type": "noteOn",
        "noteNumber": 74,
        "velocity": 60
      },
      {
        "deltaTime": 35,
        "channel": 0,
        "type": "noteOn",
        "noteNumber": 72,
        "velocity": 53
      },
      {
        "deltaTime": 15,
        "channel": 0,
        "type": "noteOff",
        "noteNumber": 77,
        "velocity": 0,
        "byte9": true
      },
      {
        "deltaTime": 60,
        "channel": 0,
        "type": "noteOff",
        "noteNumber": 74,
        "velocity": 0,
        "byte9": true
      },
      {
        "deltaTime": 25,
        "channel": 0,
        "type": "noteOff",
        "noteNumber": 72,
        "velocity": 0,
        "byte9": true
      },
      {
        "deltaTime": 25,
        "channel": 0,
        "type": "noteOn",
        "noteNumber": 65,
        "velocity": 31
      },
      {
        "deltaTime": 5,
        "channel": 0,
        "type": "noteOn",
        "noteNumber": 67,
        "velocity": 30
      },
      {
        "deltaTime": 100,
        "channel": 0,
        "type": "noteOff",
        "noteNumber": 67,
        "velocity": 0,
        "byte9": true
      },
      {
        "deltaTime": 15,
        "channel": 0,
        "type": "noteOff",
        "noteNumber": 63,
        "velocity": 0,
        "byte9": true
      },
      {
        "deltaTime": 10,
        "channel": 0,
        "type": "noteOff",
        "noteNumber": 57,
        "velocity": 0,
        "byte9": true
      },
      {
        "deltaTime": 10,
        "channel": 0,
        "type": "noteOff",
        "noteNumber": 65,
        "velocity": 0,
        "byte9": true
      },
      {
        "deltaTime": 360,
        "channel": 0,
        "type": "noteOn",
        "noteNumber": 67,
        "velocity": 77
      },
      {
        "deltaTime": 5,
        "channel": 0,
        "type": "noteOn",
        "noteNumber": 63,
        "velocity": 61
      },
      {
        "deltaTime": 5,
        "channel": 0,
        "type": "noteOn",
        "noteNumber": 57,
        "velocity": 62
      },
      {
        "deltaTime": 25,
        "channel": 0,
        "type": "noteOff",
        "noteNumber": 57,
        "velocity": 0,
        "byte9": true
      },
      {
        "deltaTime": 20,
        "channel": 0,
        "type": "noteOff",
        "noteNumber": 67,
        "velocity": 0,
        "byte9": true
      },
      {
        "deltaTime": 20,
        "channel": 0,
        "type": "noteOff",
        "noteNumber": 63,
        "velocity": 0,
        "byte9": true
      },
      {
        "deltaTime": 95,
        "channel": 0,
        "type": "noteOn",
        "noteNumber": 68,
        "velocity": 64
      },
      {
        "deltaTime": 80,
        "channel": 0,
        "type": "noteOff",
        "noteNumber": 68,
        "velocity": 0,
        "byte9": true
      },
      {
        "deltaTime": 50,
        "channel": 0,
        "type": "noteOn",
        "noteNumber": 69,
        "velocity": 61
      },
      {
        "deltaTime": 50,
        "channel": 0,
        "type": "noteOff",
        "noteNumber": 69,
        "velocity": 0,
        "byte9": true
      },
      {
        "deltaTime": 60,
        "channel": 0,
        "type": "noteOn",
        "noteNumber": 72,
        "velocity": 67
      },
      {
        "deltaTime": 65,
        "channel": 0,
        "type": "noteOff",
        "noteNumber": 72,
        "velocity": 0,
        "byte9": true
      },
      {
        "deltaTime": 50,
        "channel": 0,
        "type": "noteOn",
        "noteNumber": 74,
        "velocity": 85
      },
      {
        "deltaTime": 20,
        "channel": 0,
        "type": "noteOn",
        "noteNumber": 63,
        "velocity": 42
      },
      {
        "deltaTime": 35,
        "channel": 0,
        "type": "noteOff",
        "noteNumber": 63,
        "velocity": 0,
        "byte9": true
      },
      {
        "deltaTime": 15,
        "channel": 0,
        "type": "noteOff",
        "noteNumber": 74,
        "velocity": 0,
        "byte9": true
      },
      {
        "deltaTime": 75,
        "channel": 0,
        "type": "noteOn",
        "noteNumber": 63,
        "velocity": 35
      },
      {
        "deltaTime": 30,
        "channel": 0,
        "type": "noteOff",
        "noteNumber": 63,
        "velocity": 0,
        "byte9": true
      },
      {
        "deltaTime": 230,
        "channel": 0,
        "type": "noteOn",
        "noteNumber": 72,
        "velocity": 77
      },
      {
        "deltaTime": 5,
        "channel": 0,
        "type": "noteOn",
        "noteNumber": 57,
        "velocity": 65
      },
      {
        "deltaTime": 0,
        "running": true,
        "channel": 0,
        "type": "noteOn",
        "noteNumber": 63,
        "velocity": 57
      },
      {
        "deltaTime": 5,
        "channel": 0,
        "type": "noteOn",
        "noteNumber": 67,
        "velocity": 57
      },
      {
        "deltaTime": 30,
        "channel": 0,
        "type": "noteOff",
        "noteNumber": 67,
        "velocity": 0,
        "byte9": true
      },
      {
        "deltaTime": 35,
        "channel": 0,
        "type": "noteOff",
        "noteNumber": 57,
        "velocity": 0,
        "byte9": true
      },
      {
        "deltaTime": 30,
        "channel": 0,
        "type": "noteOff",
        "noteNumber": 72,
        "velocity": 0,
        "byte9": true
      },
      {
        "deltaTime": 20,
        "channel": 0,
        "type": "noteOff",
        "noteNumber": 63,
        "velocity": 0,
        "byte9": true
      },
      {
        "deltaTime": 50,
        "channel": 0,
        "type": "noteOn",
        "noteNumber": 76,
        "velocity": 72
      },
      {
        "deltaTime": 5,
        "channel": 0,
        "type": "noteOn",
        "noteNumber": 67,
        "velocity": 71
      },
      {
        "deltaTime": 5,
        "channel": 0,
        "type": "noteOn",
        "noteNumber": 72,
        "velocity": 53
      },
      {
        "deltaTime": 10,
        "channel": 0,
        "type": "noteOn",
        "noteNumber": 56,
        "velocity": 51
      },
      {
        "deltaTime": 0,
        "running": true,
        "channel": 0,
        "type": "noteOn",
        "noteNumber": 62,
        "velocity": 55
      },
      {
        "deltaTime": 105,
        "channel": 0,
        "type": "controller",
        "controllerType": 64,
        "value": 127
      },
      {
        "deltaTime": 90,
        "channel": 0,
        "type": "noteOff",
        "noteNumber": 56,
        "velocity": 0,
        "byte9": true
      },
      {
        "deltaTime": 20,
        "channel": 0,
        "type": "noteOff",
        "noteNumber": 72,
        "velocity": 0,
        "byte9": true
      },
      {
        "deltaTime": 10,
        "channel": 0,
        "type": "noteOff",
        "noteNumber": 62,
        "velocity": 0,
        "byte9": true
      },
      {
        "deltaTime": 0,
        "running": true,
        "channel": 0,
        "type": "noteOff",
        "noteNumber": 67,
        "velocity": 0,
        "byte9": true
      },
      {
        "deltaTime": 60,
        "channel": 0,
        "type": "noteOn",
        "noteNumber": 62,
        "velocity": 64
      },
      {
        "deltaTime": 5,
        "channel": 0,
        "type": "noteOn",
        "noteNumber": 56,
        "velocity": 53
      },
      {
        "deltaTime": 0,
        "running": true,
        "channel": 0,
        "type": "noteOn",
        "noteNumber": 72,
        "velocity": 56
      },
      {
        "deltaTime": 15,
        "channel": 0,
        "type": "noteOff",
        "noteNumber": 76,
        "velocity": 0,
        "byte9": true
      },
      {
        "deltaTime": 195,
        "channel": 0,
        "type": "noteOff",
        "noteNumber": 72,
        "velocity": 0,
        "byte9": true
      },
      {
        "deltaTime": 40,
        "channel": 0,
        "type": "noteOff",
        "noteNumber": 62,
        "velocity": 0,
        "byte9": true
      },
      {
        "deltaTime": 40,
        "channel": 0,
        "type": "noteOff",
        "noteNumber": 56,
        "velocity": 0,
        "byte9": true
      },
      {
        "deltaTime": 300,
        "channel": 0,
        "type": "controller",
        "controllerType": 64,
        "value": 0
      },
      {
        "deltaTime": 30,
        "channel": 0,
        "type": "noteOn",
        "noteNumber": 56,
        "velocity": 65
      },
      {
        "deltaTime": 0,
        "running": true,
        "channel": 0,
        "type": "noteOn",
        "noteNumber": 62,
        "velocity": 64
      },
      {
        "deltaTime": 0,
        "running": true,
        "channel": 0,
        "type": "noteOn",
        "noteNumber": 67,
        "velocity": 68
      },
      {
        "deltaTime": 0,
        "running": true,
        "channel": 0,
        "type": "noteOn",
        "noteNumber": 91,
        "velocity": 99
      },
      {
        "deltaTime": 55,
        "channel": 0,
        "type": "noteOff",
        "noteNumber": 67,
        "velocity": 0,
        "byte9": true
      },
      {
        "deltaTime": 15,
        "channel": 0,
        "type": "noteOff",
        "noteNumber": 91,
        "velocity": 0,
        "byte9": true
      },
      {
        "deltaTime": 70,
        "channel": 0,
        "type": "noteOn",
        "noteNumber": 88,
        "velocity": 55
      },
      {
        "deltaTime": 5,
        "channel": 0,
        "type": "noteOff",
        "noteNumber": 56,
        "velocity": 0,
        "byte9": true
      },
      {
        "deltaTime": 20,
        "channel": 0,
        "type": "noteOff",
        "noteNumber": 62,
        "velocity": 0,
        "byte9": true
      },
      {
        "deltaTime": 0,
        "running": true,
        "channel": 0,
        "type": "noteOff",
        "noteNumber": 88,
        "velocity": 0,
        "byte9": true
      },
      {
        "deltaTime": 75,
        "channel": 0,
        "type": "noteOn",
        "noteNumber": 91,
        "velocity": 90
      },
      {
        "deltaTime": 10,
        "channel": 0,
        "type": "noteOn",
        "noteNumber": 56,
        "velocity": 62
      },
      {
        "deltaTime": 5,
        "channel": 0,
        "type": "noteOn",
        "noteNumber": 62,
        "velocity": 67
      },
      {
        "deltaTime": 5,
        "channel": 0,
        "type": "noteOn",
        "noteNumber": 67,
        "velocity": 60
      },
      {
        "deltaTime": 80,
        "channel": 0,
        "type": "noteOff",
        "noteNumber": 91,
        "velocity": 0,
        "byte9": true
      },
      {
        "deltaTime": 40,
        "channel": 0,
        "type": "noteOn",
        "noteNumber": 88,
        "velocity": 74
      },
      {
        "deltaTime": 90,
        "channel": 0,
        "type": "noteOff",
        "noteNumber": 88,
        "velocity": 0,
        "byte9": true
      },
      {
        "deltaTime": 20,
        "channel": 0,
        "type": "controller",
        "controllerType": 64,
        "value": 127
      },
      {
        "deltaTime": 5,
        "channel": 0,
        "type": "noteOn",
        "noteNumber": 84,
        "velocity": 70
      },
      {
        "deltaTime": 85,
        "channel": 0,
        "type": "noteOff",
        "noteNumber": 84,
        "velocity": 0,
        "byte9": true
      },
      {
        "deltaTime": 25,
        "channel": 0,
        "type": "noteOn",
        "noteNumber": 79,
        "velocity": 58
      },
      {
        "deltaTime": 20,
        "channel": 0,
        "type": "noteOff",
        "noteNumber": 67,
        "velocity": 0,
        "byte9": true
      },
      {
        "deltaTime": 45,
        "channel": 0,
        "type": "noteOff",
        "noteNumber": 79,
        "velocity": 0,
        "byte9": true
      },
      {
        "deltaTime": 50,
        "channel": 0,
        "type": "noteOff",
        "noteNumber": 62,
        "velocity": 0,
        "byte9": true
      },
      {
        "deltaTime": 75,
        "channel": 0,
        "type": "noteOn",
        "noteNumber": 74,
        "velocity": 20
      },
      {
        "deltaTime": 15,
        "channel": 0,
        "type": "noteOff",
        "noteNumber": 56,
        "velocity": 0,
        "byte9": true
      },
      {
        "deltaTime": 40,
        "channel": 0,
        "type": "noteOff",
        "noteNumber": 74,
        "velocity": 0,
        "byte9": true
      },
      {
        "deltaTime": 115,
        "channel": 0,
        "type": "controller",
        "controllerType": 64,
        "value": 0
      },
      {
        "deltaTime": 15,
        "channel": 0,
        "type": "noteOn",
        "noteNumber": 60,
        "velocity": 62
      },
      {
        "deltaTime": 5,
        "channel": 0,
        "type": "noteOn",
        "noteNumber": 57,
        "velocity": 50
      },
      {
        "deltaTime": 0,
        "running": true,
        "channel": 0,
        "type": "noteOn",
        "noteNumber": 64,
        "velocity": 51
      },
      {
        "deltaTime": 0,
        "running": true,
        "channel": 0,
        "type": "noteOn",
        "noteNumber": 84,
        "velocity": 80
      },
      {
        "deltaTime": 125,
        "channel": 0,
        "type": "noteOff",
        "noteNumber": 64,
        "velocity": 0,
        "byte9": true
      },
      {
        "deltaTime": 10,
        "channel": 0,
        "type": "noteOff",
        "noteNumber": 60,
        "velocity": 0,
        "byte9": true
      },
      {
        "deltaTime": 5,
        "channel": 0,
        "type": "noteOff",
        "noteNumber": 57,
        "velocity": 0,
        "byte9": true
      },
      {
        "deltaTime": 5,
        "channel": 0,
        "type": "noteOff",
        "noteNumber": 84,
        "velocity": 0,
        "byte9": true
      },
      {
        "deltaTime": 25,
        "channel": 0,
        "type": "noteOn",
        "noteNumber": 81,
        "velocity": 60
      },
      {
        "deltaTime": 25,
        "channel": 0,
        "type": "noteOff",
        "noteNumber": 81,
        "velocity": 0,
        "byte9": true
      },
      {
        "deltaTime": 5,
        "channel": 0,
        "type": "noteOn",
        "noteNumber": 64,
        "velocity": 31
      },
      {
        "deltaTime": 20,
        "channel": 0,
        "type": "noteOn",
        "noteNumber": 57,
        "velocity": 25
      },
      {
        "deltaTime": 25,
        "channel": 0,
        "type": "noteOff",
        "noteNumber": 64,
        "velocity": 0,
        "byte9": true
      },
      {
        "deltaTime": 10,
        "channel": 0,
        "type": "noteOff",
        "noteNumber": 57,
        "velocity": 0,
        "byte9": true
      },
      {
        "deltaTime": 230,
        "channel": 0,
        "type": "noteOn",
        "noteNumber": 60,
        "velocity": 49
      },
      {
        "deltaTime": 0,
        "running": true,
        "channel": 0,
        "type": "noteOn",
        "noteNumber": 64,
        "velocity": 54
      },
      {
        "deltaTime": 5,
        "channel": 0,
        "type": "noteOn",
        "noteNumber": 57,
        "velocity": 42
      },
      {
        "deltaTime": 5,
        "channel": 0,
        "type": "noteOn",
        "noteNumber": 74,
        "velocity": 88
      },
      {
        "deltaTime": 55,
        "channel": 0,
        "type": "noteOff",
        "noteNumber": 74,
        "velocity": 0,
        "byte9": true
      },
      {
        "deltaTime": 10,
        "channel": 0,
        "type": "noteOn",
        "noteNumber": 75,
        "velocity": 55
      },
      {
        "deltaTime": 70,
        "channel": 0,
        "type": "noteOff",
        "noteNumber": 64,
        "velocity": 0,
        "byte9": true
      },
      {
        "deltaTime": 10,
        "channel": 0,
        "type": "noteOff",
        "noteNumber": 60,
        "velocity": 0,
        "byte9": true
      },
      {
        "deltaTime": 0,
        "running": true,
        "channel": 0,
        "type": "noteOn",
        "noteNumber": 74,
        "velocity": 49
      },
      {
        "deltaTime": 75,
        "channel": 0,
        "type": "noteOff",
        "noteNumber": 75,
        "velocity": 0,
        "byte9": true
      },
      {
        "deltaTime": 35,
        "channel": 0,
        "type": "noteOff",
        "noteNumber": 74,
        "velocity": 0,
        "byte9": true
      },
      {
        "deltaTime": 20,
        "channel": 0,
        "type": "noteOn",
        "noteNumber": 72,
        "velocity": 59
      },
      {
        "deltaTime": 100,
        "channel": 0,
        "type": "noteOff",
        "noteNumber": 72,
        "velocity": 0,
        "byte9": true
      },
      {
        "deltaTime": 80,
        "channel": 0,
        "type": "noteOn",
        "noteNumber": 60,
        "velocity": 17
      },
      {
        "deltaTime": 0,
        "running": true,
        "channel": 0,
        "type": "noteOn",
        "noteNumber": 64,
        "velocity": 46
      },
      {
        "deltaTime": 5,
        "channel": 0,
        "type": "noteOn",
        "noteNumber": 69,
        "velocity": 61
      },
      {
        "deltaTime": 50,
        "channel": 0,
        "type": "noteOff",
        "noteNumber": 64,
        "velocity": 0,
        "byte9": true
      },
      {
        "deltaTime": 25,
        "channel": 0,
        "type": "noteOff",
        "noteNumber": 60,
        "velocity": 0,
        "byte9": true
      },
      {
        "deltaTime": 220,
        "channel": 0,
        "type": "noteOff",
        "noteNumber": 69,
        "velocity": 0,
        "byte9": true
      },
      {
        "deltaTime": 15,
        "channel": 0,
        "type": "noteOn",
        "noteNumber": 67,
        "velocity": 51
      },
      {
        "deltaTime": 10,
        "channel": 0,
        "type": "noteOn",
        "noteNumber": 60,
        "velocity": 30
      },
      {
        "deltaTime": 30,
        "channel": 0,
        "type": "noteOff",
        "noteNumber": 67,
        "velocity": 0,
        "byte9": true
      },
      {
        "deltaTime": 25,
        "channel": 0,
        "type": "noteOff",
        "noteNumber": 60,
        "velocity": 0,
        "byte9": true
      },
      {
        "deltaTime": 115,
        "channel": 0,
        "type": "controller",
        "controllerType": 64,
        "value": 127
      },
      {
        "deltaTime": 0,
        "channel": 0,
        "type": "noteOff",
        "noteNumber": 57,
        "velocity": 0,
        "byte9": true
      },
      {
        "deltaTime": 10,
        "channel": 0,
        "type": "noteOn",
        "noteNumber": 69,
        "velocity": 48
      },
      {
        "deltaTime": 125,
        "channel": 0,
        "type": "noteOff",
        "noteNumber": 69,
        "velocity": 0,
        "byte9": true
      },
      {
        "deltaTime": 175,
        "channel": 0,
        "type": "noteOn",
        "noteNumber": 76,
        "velocity": 75
      },
      {
        "deltaTime": 5,
        "channel": 0,
        "type": "noteOn",
        "noteNumber": 64,
        "velocity": 70
      },
      {
        "deltaTime": 0,
        "running": true,
        "channel": 0,
        "type": "noteOn",
        "noteNumber": 71,
        "velocity": 70
      },
      {
        "deltaTime": 5,
        "channel": 0,
        "type": "noteOn",
        "noteNumber": 68,
        "velocity": 71
      },
      {
        "deltaTime": 5,
        "channel": 0,
        "type": "noteOn",
        "noteNumber": 65,
        "velocity": 72
      },
      {
        "deltaTime": 30,
        "channel": 0,
        "type": "controller",
        "controllerType": 64,
        "value": 0
      },
      {
        "deltaTime": 100,
        "channel": 0,
        "type": "controller",
        "controllerType": 64,
        "value": 127
      },
      {
        "deltaTime": 130,
        "channel": 0,
        "type": "noteOff",
        "noteNumber": 76,
        "velocity": 0,
        "byte9": true
      },
      {
        "deltaTime": 10,
        "channel": 0,
        "type": "noteOff",
        "noteNumber": 71,
        "velocity": 0,
        "byte9": true
      },
      {
        "deltaTime": 5,
        "channel": 0,
        "type": "noteOff",
        "noteNumber": 64,
        "velocity": 0,
        "byte9": true
      },
      {
        "deltaTime": 10,
        "channel": 0,
        "type": "noteOff",
        "noteNumber": 65,
        "velocity": 0,
        "byte9": true
      },
      {
        "deltaTime": 35,
        "channel": 0,
        "type": "noteOff",
        "noteNumber": 68,
        "velocity": 0,
        "byte9": true
      },
      {
        "deltaTime": 140,
        "channel": 0,
        "type": "noteOn",
        "noteNumber": 56,
        "velocity": 61
      },
      {
        "deltaTime": 5,
        "channel": 0,
        "type": "controller",
        "controllerType": 64,
        "value": 0
      },
      {
        "deltaTime": 5,
        "channel": 0,
        "type": "noteOn",
        "noteNumber": 62,
        "velocity": 77
      },
      {
        "deltaTime": 5,
        "channel": 0,
        "type": "noteOn",
        "noteNumber": 67,
        "velocity": 69
      },
      {
        "deltaTime": 0,
        "running": true,
        "channel": 0,
        "type": "noteOn",
        "noteNumber": 71,
        "velocity": 68
      },
      {
        "deltaTime": 5,
        "channel": 0,
        "type": "noteOn",
        "noteNumber": 70,
        "velocity": 36
      },
      {
        "deltaTime": 95,
        "channel": 0,
        "type": "noteOff",
        "noteNumber": 62,
        "velocity": 0,
        "byte9": true
      },
      {
        "deltaTime": 15,
        "channel": 0,
        "type": "noteOff",
        "noteNumber": 70,
        "velocity": 0,
        "byte9": true
      },
      {
        "deltaTime": 0,
        "running": true,
        "channel": 0,
        "type": "noteOff",
        "noteNumber": 71,
        "velocity": 0,
        "byte9": true
      },
      {
        "deltaTime": 15,
        "channel": 0,
        "type": "noteOff",
        "noteNumber": 67,
        "velocity": 0,
        "byte9": true
      },
      {
        "deltaTime": 55,
        "channel": 0,
        "type": "noteOn",
        "noteNumber": 59,
        "velocity": 67
      },
      {
        "deltaTime": 0,
        "running": true,
        "channel": 0,
        "type": "noteOn",
        "noteNumber": 74,
        "velocity": 80
      },
      {
        "deltaTime": 15,
        "channel": 0,
        "type": "noteOn",
        "noteNumber": 65,
        "velocity": 55
      },
      {
        "deltaTime": 0,
        "running": true,
        "channel": 0,
        "type": "noteOn",
        "noteNumber": 70,
        "velocity": 50
      },
      {
        "deltaTime": 10,
        "channel": 0,
        "type": "noteOn",
        "noteNumber": 64,
        "velocity": 25
      },
      {
        "deltaTime": 5,
        "channel": 0,
        "type": "noteOn",
        "noteNumber": 68,
        "velocity": 21
      },
      {
        "deltaTime": 20,
        "channel": 0,
        "type": "noteOff",
        "noteNumber": 64,
        "velocity": 0,
        "byte9": true
      },
      {
        "deltaTime": 5,
        "channel": 0,
        "type": "noteOff",
        "noteNumber": 68,
        "velocity": 0,
        "byte9": true
      },
      {
        "deltaTime": 15,
        "channel": 0,
        "type": "noteOff",
        "noteNumber": 65,
        "velocity": 0,
        "byte9": true
      },
      {
        "deltaTime": 15,
        "channel": 0,
        "type": "noteOff",
        "noteNumber": 70,
        "velocity": 0,
        "byte9": true
      },
      {
        "deltaTime": 5,
        "channel": 0,
        "type": "noteOff",
        "noteNumber": 74,
        "velocity": 0,
        "byte9": true
      },
      {
        "deltaTime": 190,
        "channel": 0,
        "type": "noteOff",
        "noteNumber": 59,
        "velocity": 0,
        "byte9": true
      },
      {
        "deltaTime": 5,
        "channel": 0,
        "type": "noteOn",
        "noteNumber": 77,
        "velocity": 78
      },
      {
        "deltaTime": 5,
        "channel": 0,
        "type": "noteOn",
        "noteNumber": 68,
        "velocity": 81
      },
      {
        "deltaTime": 5,
        "channel": 0,
        "type": "noteOn",
        "noteNumber": 74,
        "velocity": 71
      },
      {
        "deltaTime": 5,
        "channel": 0,
        "type": "noteOff",
        "noteNumber": 56,
        "velocity": 0,
        "byte9": true
      },
      {
        "deltaTime": 0,
        "running": true,
        "channel": 0,
        "type": "noteOn",
        "noteNumber": 62,
        "velocity": 75
      },
      {
        "deltaTime": 65,
        "channel": 0,
        "type": "noteOff",
        "noteNumber": 74,
        "velocity": 0,
        "byte9": true
      },
      {
        "deltaTime": 5,
        "channel": 0,
        "type": "noteOff",
        "noteNumber": 77,
        "velocity": 0,
        "byte9": true
      },
      {
        "deltaTime": 5,
        "channel": 0,
        "type": "noteOff",
        "noteNumber": 68,
        "velocity": 0,
        "byte9": true
      },
      {
        "deltaTime": 110,
        "channel": 0,
        "type": "noteOff",
        "noteNumber": 62,
        "velocity": 0,
        "byte9": true
      },
      {
        "deltaTime": 20,
        "channel": 0,
        "type": "noteOn",
        "noteNumber": 65,
        "velocity": 54
      },
      {
        "deltaTime": 0,
        "running": true,
        "channel": 0,
        "type": "noteOn",
        "noteNumber": 74,
        "velocity": 43
      },
      {
        "deltaTime": 0,
        "running": true,
        "channel": 0,
        "type": "noteOn",
        "noteNumber": 80,
        "velocity": 37
      },
      {
        "deltaTime": 35,
        "channel": 0,
        "type": "noteOff",
        "noteNumber": 74,
        "velocity": 0,
        "byte9": true
      },
      {
        "deltaTime": 25,
        "channel": 0,
        "type": "noteOff",
        "noteNumber": 80,
        "velocity": 0,
        "byte9": true
      },
      {
        "deltaTime": 25,
        "channel": 0,
        "type": "noteOff",
        "noteNumber": 65,
        "velocity": 0,
        "byte9": true
      },
      {
        "deltaTime": 160,
        "channel": 0,
        "type": "noteOn",
        "noteNumber": 68,
        "velocity": 72
      },
      {
        "deltaTime": 25,
        "channel": 0,
        "type": "noteOn",
        "noteNumber": 88,
        "velocity": 79
      },
      {
        "deltaTime": 10,
        "channel": 0,
        "type": "noteOn",
        "noteNumber": 65,
        "velocity": 32
      },
      {
        "deltaTime": 10,
        "channel": 0,
        "type": "noteOn",
        "noteNumber": 86,
        "velocity": 40
      },
      {
        "deltaTime": 30,
        "channel": 0,
        "type": "noteOff",
        "noteNumber": 68,
        "velocity": 0,
        "byte9": true
      },
      {
        "deltaTime": 0,
        "running": true,
        "channel": 0,
        "type": "noteOff",
        "noteNumber": 86,
        "velocity": 0,
        "byte9": true
      },
      {
        "deltaTime": 35,
        "channel": 0,
        "type": "noteOff",
        "noteNumber": 65,
        "velocity": 0,
        "byte9": true
      },
      {
        "deltaTime": 0,
        "running": true,
        "channel": 0,
        "type": "noteOff",
        "noteNumber": 88,
        "velocity": 0,
        "byte9": true
      },
      {
        "deltaTime": 110,
        "channel": 0,
        "type": "noteOn",
        "noteNumber": 84,
        "velocity": 41
      },
      {
        "deltaTime": 80,
        "channel": 0,
        "type": "noteOff",
        "noteNumber": 84,
        "velocity": 0,
        "byte9": true
      },
      {
        "deltaTime": 175,
        "channel": 0,
        "type": "noteOn",
        "noteNumber": 57,
        "velocity": 60
      },
      {
        "deltaTime": 0,
        "running": true,
        "channel": 0,
        "type": "noteOn",
        "noteNumber": 58,
        "velocity": 47
      },
      {
        "deltaTime": 5,
        "channel": 0,
        "type": "noteOn",
        "noteNumber": 62,
        "velocity": 54
      },
      {
        "deltaTime": 125,
        "channel": 0,
        "type": "noteOff",
        "noteNumber": 58,
        "velocity": 0,
        "byte9": true
      },
      {
        "deltaTime": 40,
        "channel": 0,
        "type": "noteOn",
        "noteNumber": 81,
        "velocity": 81
      },
      {
        "deltaTime": 5,
        "channel": 0,
        "type": "noteOn",
        "noteNumber": 58,
        "velocity": 46
      },
      {
        "deltaTime": 180,
        "channel": 0,
        "type": "noteOff",
        "noteNumber": 58,
        "velocity": 0,
        "byte9": true
      },
      {
        "deltaTime": 15,
        "channel": 0,
        "type": "noteOff",
        "noteNumber": 62,
        "velocity": 0,
        "byte9": true
      },
      {
        "deltaTime": 100,
        "channel": 0,
        "type": "noteOff",
        "noteNumber": 81,
        "velocity": 0,
        "byte9": true
      },
      {
        "deltaTime": 25,
        "channel": 0,
        "type": "noteOn",
        "noteNumber": 58,
        "velocity": 37
      },
      {
        "deltaTime": 0,
        "running": true,
        "channel": 0,
        "type": "noteOn",
        "noteNumber": 62,
        "velocity": 42
      },
      {
        "deltaTime": 5,
        "channel": 0,
        "type": "noteOn",
        "noteNumber": 78,
        "velocity": 42
      },
      {
        "deltaTime": 30,
        "channel": 0,
        "type": "noteOff",
        "noteNumber": 62,
        "velocity": 0,
        "byte9": true
      },
      {
        "deltaTime": 30,
        "channel": 0,
        "type": "noteOff",
        "noteNumber": 58,
        "velocity": 0,
        "byte9": true
      },
      {
        "deltaTime": 70,
        "channel": 0,
        "type": "noteOff",
        "noteNumber": 78,
        "velocity": 0,
        "byte9": true
      },
      {
        "deltaTime": 15,
        "channel": 0,
        "type": "noteOn",
        "noteNumber": 58,
        "velocity": 35
      },
      {
        "deltaTime": 5,
        "channel": 0,
        "type": "noteOn",
        "noteNumber": 62,
        "velocity": 44
      },
      {
        "deltaTime": 5,
        "channel": 0,
        "type": "controller",
        "controllerType": 64,
        "value": 127
      },
      {
        "deltaTime": 15,
        "channel": 0,
        "type": "noteOn",
        "noteNumber": 79,
        "velocity": 50
      },
      {
        "deltaTime": 40,
        "channel": 0,
        "type": "noteOff",
        "noteNumber": 62,
        "velocity": 0,
        "byte9": true
      },
      {
        "deltaTime": 25,
        "channel": 0,
        "type": "noteOff",
        "noteNumber": 58,
        "velocity": 0,
        "byte9": true
      },
      {
        "deltaTime": 65,
        "channel": 0,
        "type": "noteOff",
        "noteNumber": 57,
        "velocity": 0,
        "byte9": true
      },
      {
        "deltaTime": 100,
        "channel": 0,
        "type": "noteOff",
        "noteNumber": 79,
        "velocity": 0,
        "byte9": true
      },
      {
        "deltaTime": 65,
        "channel": 0,
        "type": "noteOn",
        "noteNumber": 57,
        "velocity": 40
      },
      {
        "deltaTime": 0,
        "running": true,
        "channel": 0,
        "type": "noteOn",
        "noteNumber": 58,
        "velocity": 38
      },
      {
        "deltaTime": 0,
        "running": true,
        "channel": 0,
        "type": "noteOn",
        "noteNumber": 62,
        "velocity": 40
      },
      {
        "deltaTime": 10,
        "channel": 0,
        "type": "noteOn",
        "noteNumber": 81,
        "velocity": 58
      },
      {
        "deltaTime": 25,
        "channel": 0,
        "type": "noteOff",
        "noteNumber": 57,
        "velocity": 0,
        "byte9": true
      },
      {
        "deltaTime": 0,
        "running": true,
        "channel": 0,
        "type": "noteOff",
        "noteNumber": 62,
        "velocity": 0,
        "byte9": true
      },
      {
        "deltaTime": 0,
        "running": true,
        "channel": 0,
        "type": "noteOff",
        "noteNumber": 81,
        "velocity": 0,
        "byte9": true
      },
      {
        "deltaTime": 25,
        "channel": 0,
        "type": "noteOff",
        "noteNumber": 58,
        "velocity": 0,
        "byte9": true
      },
      {
        "deltaTime": 40,
        "channel": 0,
        "type": "controller",
        "controllerType": 64,
        "value": 0
      },
      {
        "deltaTime": 95,
        "channel": 0,
        "type": "noteOn",
        "noteNumber": 57,
        "velocity": 54
      },
      {
        "deltaTime": 0,
        "running": true,
        "channel": 0,
        "type": "noteOn",
        "noteNumber": 96,
        "velocity": 81
      },
      {
        "deltaTime": 5,
        "channel": 0,
        "type": "noteOn",
        "noteNumber": 58,
        "velocity": 44
      },
      {
        "deltaTime": 0,
        "running": true,
        "channel": 0,
        "type": "noteOn",
        "noteNumber": 62,
        "velocity": 48
      },
      {
        "deltaTime": 20,
        "channel": 0,
        "type": "noteOff",
        "noteNumber": 96,
        "velocity": 0,
        "byte9": true
      },
      {
        "deltaTime": 5,
        "channel": 0,
        "type": "noteOff",
        "noteNumber": 57,
        "velocity": 0,
        "byte9": true
      },
      {
        "deltaTime": 5,
        "channel": 0,
        "type": "noteOff",
        "noteNumber": 62,
        "velocity": 0,
        "byte9": true
      },
      {
        "deltaTime": 5,
        "channel": 0,
        "type": "noteOff",
        "noteNumber": 58,
        "velocity": 0,
        "byte9": true
      },
      {
        "deltaTime": 225,
        "channel": 0,
        "type": "noteOn",
        "noteNumber": 96,
        "velocity": 83
      },
      {
        "deltaTime": 5,
        "channel": 0,
        "type": "noteOn",
        "noteNumber": 58,
        "velocity": 49
      },
      {
        "deltaTime": 0,
        "running": true,
        "channel": 0,
        "type": "noteOn",
        "noteNumber": 62,
        "velocity": 54
      },
      {
        "deltaTime": 5,
        "channel": 0,
        "type": "noteOn",
        "noteNumber": 57,
        "velocity": 49
      },
      {
        "deltaTime": 30,
        "channel": 0,
        "type": "noteOff",
        "noteNumber": 57,
        "velocity": 0,
        "byte9": true
      },
      {
        "deltaTime": 25,
        "channel": 0,
        "type": "noteOff",
        "noteNumber": 62,
        "velocity": 0,
        "byte9": true
      },
      {
        "deltaTime": 30,
        "channel": 0,
        "type": "noteOff",
        "noteNumber": 58,
        "velocity": 0,
        "byte9": true
      },
      {
        "deltaTime": 25,
        "channel": 0,
        "type": "noteOff",
        "noteNumber": 96,
        "velocity": 0,
        "byte9": true
      },
      {
        "deltaTime": 40,
        "channel": 0,
        "type": "noteOn",
        "noteNumber": 57,
        "velocity": 25
      },
      {
        "deltaTime": 0,
        "running": true,
        "channel": 0,
        "type": "noteOn",
        "noteNumber": 58,
        "velocity": 43
      },
      {
        "deltaTime": 5,
        "channel": 0,
        "type": "noteOn",
        "noteNumber": 62,
        "velocity": 49
      },
      {
        "deltaTime": 5,
        "channel": 0,
        "type": "controller",
        "controllerType": 64,
        "value": 127
      },
      {
        "deltaTime": 0,
        "channel": 0,
        "type": "noteOn",
        "noteNumber": 93,
        "velocity": 66
      },
      {
        "deltaTime": 135,
        "channel": 0,
        "type": "noteOff",
        "noteNumber": 62,
        "velocity": 0,
        "byte9": true
      },
      {
        "deltaTime": 15,
        "channel": 0,
        "type": "noteOff",
        "noteNumber": 58,
        "velocity": 0,
        "byte9": true
      },
      {
        "deltaTime": 25,
        "channel": 0,
        "type": "noteOff",
        "noteNumber": 57,
        "velocity": 0,
        "byte9": true
      },
      {
        "deltaTime": 0,
        "running": true,
        "channel": 0,
        "type": "noteOff",
        "noteNumber": 93,
        "velocity": 0,
        "byte9": true
      },
      {
        "deltaTime": 125,
        "channel": 0,
        "type": "controller",
        "controllerType": 64,
        "value": 0
      },
      {
        "deltaTime": 10,
        "channel": 0,
        "type": "noteOn",
        "noteNumber": 62,
        "velocity": 71
      },
      {
        "deltaTime": 5,
        "channel": 0,
        "type": "noteOn",
        "noteNumber": 58,
        "velocity": 59
      },
      {
        "deltaTime": 0,
        "running": true,
        "channel": 0,
        "type": "noteOn",
        "noteNumber": 90,
        "velocity": 71
      },
      {
        "deltaTime": 0,
        "running": true,
        "channel": 0,
        "type": "noteOn",
        "noteNumber": 91,
        "velocity": 62
      },
      {
        "deltaTime": 5,
        "channel": 0,
        "type": "noteOn",
        "noteNumber": 52,
        "velocity": 69
      },
      {
        "deltaTime": 60,
        "channel": 0,
        "type": "noteOff",
        "noteNumber": 90,
        "velocity": 0,
        "byte9": true
      },
      {
        "deltaTime": 160,
        "channel": 0,
        "type": "controller",
        "controllerType": 64,
        "value": 127
      },
      {
        "deltaTime": 285,
        "channel": 0,
        "type": "noteOff",
        "noteNumber": 52,
        "velocity": 0,
        "byte9": true
      },
      {
        "deltaTime": 5,
        "channel": 0,
        "type": "noteOff",
        "noteNumber": 58,
        "velocity": 0,
        "byte9": true
      },
      {
        "deltaTime": 0,
        "running": true,
        "channel": 0,
        "type": "noteOff",
        "noteNumber": 62,
        "velocity": 0,
        "byte9": true
      },
      {
        "deltaTime": 75,
        "channel": 0,
        "type": "noteOff",
        "noteNumber": 91,
        "velocity": 0,
        "byte9": true
      },
      {
        "deltaTime": 5,
        "channel": 0,
        "type": "controller",
        "controllerType": 64,
        "value": 0
      },
      {
        "deltaTime": 35,
        "channel": 0,
        "type": "noteOn",
        "noteNumber": 89,
        "velocity": 66
      },
      {
        "deltaTime": 5,
        "channel": 0,
        "type": "noteOn",
        "noteNumber": 58,
        "velocity": 49
      },
      {
        "deltaTime": 0,
        "running": true,
        "channel": 0,
        "type": "noteOn",
        "noteNumber": 62,
        "velocity": 51
      },
      {
        "deltaTime": 10,
        "channel": 0,
        "type": "noteOn",
        "noteNumber": 52,
        "velocity": 44
      },
      {
        "deltaTime": 180,
        "channel": 0,
        "type": "noteOff",
        "noteNumber": 58,
        "velocity": 0,
        "byte9": true
      },
      {
        "deltaTime": 5,
        "channel": 0,
        "type": "noteOff",
        "noteNumber": 52,
        "velocity": 0,
        "byte9": true
      },
      {
        "deltaTime": 0,
        "running": true,
        "channel": 0,
        "type": "noteOff",
        "noteNumber": 62,
        "velocity": 0,
        "byte9": true
      },
      {
        "deltaTime": 95,
        "channel": 0,
        "type": "controller",
        "controllerType": 64,
        "value": 127
      },
      {
        "deltaTime": 110,
        "channel": 0,
        "type": "noteOff",
        "noteNumber": 89,
        "velocity": 0,
        "byte9": true
      },
      {
        "deltaTime": 25,
        "channel": 0,
        "type": "controller",
        "controllerType": 64,
        "value": 0
      },
      {
        "deltaTime": 55,
        "channel": 0,
        "type": "noteOn",
        "noteNumber": 88,
        "velocity": 69
      },
      {
        "deltaTime": 5,
        "channel": 0,
        "type": "controller",
        "controllerType": 64,
        "value": 127
      },
      {
        "deltaTime": 0,
        "channel": 0,
        "type": "noteOn",
        "noteNumber": 58,
        "velocity": 45
      },
      {
        "deltaTime": 10,
        "channel": 0,
        "type": "noteOn",
        "noteNumber": 62,
        "velocity": 38
      },
      {
        "deltaTime": 35,
        "channel": 0,
        "type": "noteOff",
        "noteNumber": 62,
        "velocity": 0,
        "byte9": true
      },
      {
        "deltaTime": 5,
        "channel": 0,
        "type": "noteOff",
        "noteNumber": 88,
        "velocity": 0,
        "byte9": true
      },
      {
        "deltaTime": 5,
        "channel": 0,
        "type": "noteOff",
        "noteNumber": 58,
        "velocity": 0,
        "byte9": true
      },
      {
        "deltaTime": 260,
        "channel": 0,
        "type": "noteOn",
        "noteNumber": 92,
        "velocity": 83
      },
      {
        "deltaTime": 5,
        "channel": 0,
        "type": "noteOn",
        "noteNumber": 80,
        "velocity": 82
      },
      {
        "deltaTime": 5,
        "channel": 0,
        "type": "noteOn",
        "noteNumber": 62,
        "velocity": 77
      },
      {
        "deltaTime": 0,
        "running": true,
        "channel": 0,
        "type": "noteOn",
        "noteNumber": 87,
        "velocity": 82
      },
      {
        "deltaTime": 5,
        "channel": 0,
        "type": "noteOn",
        "noteNumber": 56,
        "velocity": 75
      },
      {
        "deltaTime": 0,
        "running": true,
        "channel": 0,
        "type": "noteOn",
        "noteNumber": 67,
        "velocity": 85
      },
      {
        "deltaTime": 5,
        "channel": 0,
        "type": "controller",
        "controllerType": 64,
        "value": 0
      },
      {
        "deltaTime": 120,
        "channel": 0,
        "type": "controller",
        "controllerType": 64,
        "value": 127
      },
      {
        "deltaTime": 125,
        "channel": 0,
        "type": "noteOff",
        "noteNumber": 62,
        "velocity": 0,
        "byte9": true
      },
      {
        "deltaTime": 20,
        "channel": 0,
        "type": "noteOff",
        "noteNumber": 92,
        "velocity": 0,
        "byte9": true
      },
      {
        "deltaTime": 5,
        "channel": 0,
        "type": "noteOff",
        "noteNumber": 87,
        "velocity": 0,
        "byte9": true
      },
      {
        "deltaTime": 5,
        "channel": 0,
        "type": "noteOff",
        "noteNumber": 67,
        "velocity": 0,
        "byte9": true
      },
      {
        "deltaTime": 5,
        "channel": 0,
        "type": "noteOff",
        "noteNumber": 80,
        "velocity": 0,
        "byte9": true
      },
      {
        "deltaTime": 90,
        "channel": 0,
        "type": "noteOff",
        "noteNumber": 56,
        "velocity": 0,
        "byte9": true
      },
      {
        "deltaTime": 90,
        "channel": 0,
        "type": "noteOn",
        "noteNumber": 60,
        "velocity": 79
      },
      {
        "deltaTime": 0,
        "running": true,
        "channel": 0,
        "type": "noteOn",
        "noteNumber": 64,
        "velocity": 85
      },
      {
        "deltaTime": 0,
        "running": true,
        "channel": 0,
        "type": "noteOn",
        "noteNumber": 79,
        "velocity": 83
      },
      {
        "deltaTime": 0,
        "running": true,
        "channel": 0,
        "type": "noteOn",
        "noteNumber": 91,
        "velocity": 81
      },
      {
        "deltaTime": 5,
        "channel": 0,
        "type": "noteOn",
        "noteNumber": 55,
        "velocity": 84
      },
      {
        "deltaTime": 0,
        "running": true,
        "channel": 0,
        "type": "noteOn",
        "noteNumber": 86,
        "velocity": 83
      },
      {
        "deltaTime": 10,
        "channel": 0,
        "type": "controller",
        "controllerType": 64,
        "value": 0
      },
      {
        "deltaTime": 5,
        "channel": 0,
        "type": "noteOn",
        "noteNumber": 89,
        "velocity": 43
      },
      {
        "deltaTime": 30,
        "channel": 0,
        "type": "noteOff",
        "noteNumber": 89,
        "velocity": 0,
        "byte9": true
      },
      {
        "deltaTime": 100,
        "channel": 0,
        "type": "controller",
        "controllerType": 64,
        "value": 127
      },
      {
        "deltaTime": 65,
        "channel": 0,
        "type": "noteOff",
        "noteNumber": 91,
        "velocity": 0,
        "byte9": true
      },
      {
        "deltaTime": 25,
        "channel": 0,
        "type": "noteOff",
        "noteNumber": 86,
        "velocity": 0,
        "byte9": true
      },
      {
        "deltaTime": 40,
        "channel": 0,
        "type": "noteOff",
        "noteNumber": 79,
        "velocity": 0,
        "byte9": true
      },
      {
        "deltaTime": 85,
        "channel": 0,
        "type": "noteOff",
        "noteNumber": 64,
        "velocity": 0,
        "byte9": true
      },
      {
        "deltaTime": 30,
        "channel": 0,
        "type": "noteOff",
        "noteNumber": 60,
        "velocity": 0,
        "byte9": true
      },
      {
        "deltaTime": 10,
        "channel": 0,
        "type": "noteOff",
        "noteNumber": 55,
        "velocity": 0,
        "byte9": true
      },
      {
        "deltaTime": 60,
        "channel": 0,
        "type": "noteOn",
        "noteNumber": 64,
        "velocity": 84
      },
      {
        "deltaTime": 10,
        "channel": 0,
        "type": "noteOn",
        "noteNumber": 55,
        "velocity": 70
      },
      {
        "deltaTime": 5,
        "channel": 0,
        "type": "noteOn",
        "noteNumber": 60,
        "velocity": 75
      },
      {
        "deltaTime": 0,
        "running": true,
        "channel": 0,
        "type": "noteOn",
        "noteNumber": 65,
        "velocity": 32
      },
      {
        "deltaTime": 25,
        "channel": 0,
        "type": "noteOff",
        "noteNumber": 65,
        "velocity": 0,
        "byte9": true
      },
      {
        "deltaTime": 10,
        "channel": 0,
        "type": "controller",
        "controllerType": 64,
        "value": 0
      },
      {
        "deltaTime": 245,
        "channel": 0,
        "type": "controller",
        "controllerType": 64,
        "value": 127
      },
      {
        "deltaTime": 215,
        "channel": 0,
        "type": "noteOff",
        "noteNumber": 55,
        "velocity": 0,
        "byte9": true
      },
      {
        "deltaTime": 20,
        "channel": 0,
        "type": "noteOff",
        "noteNumber": 60,
        "velocity": 0,
        "byte9": true
      },
      {
        "deltaTime": 50,
        "channel": 0,
        "type": "noteOff",
        "noteNumber": 64,
        "velocity": 0,
        "byte9": true
      },
      {
        "deltaTime": 45,
        "channel": 0,
        "type": "controller",
        "controllerType": 64,
        "value": 0
      },
      {
        "deltaTime": 35,
        "channel": 0,
        "type": "noteOn",
        "noteNumber": 55,
        "velocity": 55
      },
      {
        "deltaTime": 0,
        "running": true,
        "channel": 0,
        "type": "noteOn",
        "noteNumber": 60,
        "velocity": 52
      },
      {
        "deltaTime": 15,
        "channel": 0,
        "type": "noteOn",
        "noteNumber": 67,
        "velocity": 55
      },
      {
        "deltaTime": 60,
        "channel": 0,
        "type": "noteOff",
        "noteNumber": 55,
        "velocity": 0,
        "byte9": true
      },
      {
        "deltaTime": 10,
        "channel": 0,
        "type": "noteOff",
        "noteNumber": 60,
        "velocity": 0,
        "byte9": true
      },
      {
        "deltaTime": 30,
        "channel": 0,
        "type": "noteOff",
        "noteNumber": 67,
        "velocity": 0,
        "byte9": true
      },
      {
        "deltaTime": 350,
        "channel": 0,
        "type": "noteOn",
        "noteNumber": 64,
        "velocity": 53
      },
      {
        "deltaTime": 0,
        "running": true,
        "channel": 0,
        "type": "noteOn",
        "noteNumber": 71,
        "velocity": 75
      },
      {
        "deltaTime": 5,
        "channel": 0,
        "type": "noteOn",
        "noteNumber": 55,
        "velocity": 50
      },
      {
        "deltaTime": 0,
        "running": true,
        "channel": 0,
        "type": "noteOn",
        "noteNumber": 60,
        "velocity": 56
      },
      {
        "deltaTime": 180,
        "channel": 0,
        "type": "controller",
        "controllerType": 64,
        "value": 127
      },
      {
        "deltaTime": 20,
        "channel": 0,
        "type": "noteOff",
        "noteNumber": 71,
        "velocity": 0,
        "byte9": true
      },
      {
        "deltaTime": 20,
        "channel": 0,
        "type": "noteOff",
        "noteNumber": 64,
        "velocity": 0,
        "byte9": true
      },
      {
        "deltaTime": 15,
        "channel": 0,
        "type": "noteOff",
        "noteNumber": 55,
        "velocity": 0,
        "byte9": true
      },
      {
        "deltaTime": 5,
        "channel": 0,
        "type": "noteOff",
        "noteNumber": 60,
        "velocity": 0,
        "byte9": true
      },
      {
        "deltaTime": 195,
        "channel": 0,
        "type": "controller",
        "controllerType": 64,
        "value": 0
      },
      {
        "deltaTime": 70,
        "channel": 0,
        "type": "noteOn",
        "noteNumber": 74,
        "velocity": 73
      },
      {
        "deltaTime": 5,
        "channel": 0,
        "type": "noteOn",
        "noteNumber": 54,
        "velocity": 62
      },
      {
        "deltaTime": 0,
        "running": true,
        "channel": 0,
        "type": "noteOn",
        "noteNumber": 64,
        "velocity": 74
      },
      {
        "deltaTime": 5,
        "channel": 0,
        "type": "noteOn",
        "noteNumber": 68,
        "velocity": 48
      },
      {
        "deltaTime": 0,
        "running": true,
        "channel": 0,
        "type": "noteOn",
        "noteNumber": 71,
        "velocity": 63
      },
      {
        "deltaTime": 5,
        "channel": 0,
        "type": "noteOn",
        "noteNumber": 60,
        "velocity": 54
      },
      {
        "deltaTime": 20,
        "channel": 0,
        "type": "noteOff",
        "noteNumber": 68,
        "velocity": 0,
        "byte9": true
      },
      {
        "deltaTime": 20,
        "channel": 0,
        "type": "noteOff",
        "noteNumber": 60,
        "velocity": 0,
        "byte9": true
      },
      {
        "deltaTime": 0,
        "running": true,
        "channel": 0,
        "type": "noteOff",
        "noteNumber": 64,
        "velocity": 0,
        "byte9": true
      },
      {
        "deltaTime": 0,
        "running": true,
        "channel": 0,
        "type": "noteOff",
        "noteNumber": 74,
        "velocity": 0,
        "byte9": true
      },
      {
        "deltaTime": 5,
        "channel": 0,
        "type": "noteOff",
        "noteNumber": 71,
        "velocity": 0,
        "byte9": true
      },
      {
        "deltaTime": 20,
        "channel": 0,
        "type": "noteOff",
        "noteNumber": 54,
        "velocity": 0,
        "byte9": true
      },
      {
        "deltaTime": 55,
        "channel": 0,
        "type": "noteOn",
        "noteNumber": 54,
        "velocity": 50
      },
      {
        "deltaTime": 0,
        "running": true,
        "channel": 0,
        "type": "noteOn",
        "noteNumber": 74,
        "velocity": 52
      },
      {
        "deltaTime": 5,
        "channel": 0,
        "type": "noteOn",
        "noteNumber": 71,
        "velocity": 36
      },
      {
        "deltaTime": 5,
        "channel": 0,
        "type": "noteOn",
        "noteNumber": 64,
        "velocity": 53
      },
      {
        "deltaTime": 0,
        "running": true,
        "channel": 0,
        "type": "noteOn",
        "noteNumber": 68,
        "velocity": 44
      },
      {
        "deltaTime": 5,
        "channel": 0,
        "type": "noteOn",
        "noteNumber": 60,
        "velocity": 46
      },
      {
        "deltaTime": 145,
        "channel": 0,
        "type": "noteOff",
        "noteNumber": 64,
        "velocity": 0,
        "byte9": true
      },
      {
        "deltaTime": 5,
        "channel": 0,
        "type": "noteOff",
        "noteNumber": 68,
        "velocity": 0,
        "byte9": true
      },
      {
        "deltaTime": 5,
        "channel": 0,
        "type": "noteOff",
        "noteNumber": 54,
        "velocity": 0,
        "byte9": true
      },
      {
        "deltaTime": 0,
        "running": true,
        "channel": 0,
        "type": "noteOff",
        "noteNumber": 60,
        "velocity": 0,
        "byte9": true
      },
      {
        "deltaTime": 0,
        "running": true,
        "channel": 0,
        "type": "noteOff",
        "noteNumber": 71,
        "velocity": 0,
        "byte9": true
      },
      {
        "deltaTime": 0,
        "running": true,
        "channel": 0,
        "type": "noteOff",
        "noteNumber": 74,
        "velocity": 0,
        "byte9": true
      },
      {
        "deltaTime": 185,
        "channel": 0,
        "type": "noteOn",
        "noteNumber": 74,
        "velocity": 75
      },
      {
        "deltaTime": 5,
        "channel": 0,
        "type": "noteOn",
        "noteNumber": 54,
        "velocity": 71
      },
      {
        "deltaTime": 0,
        "running": true,
        "channel": 0,
        "type": "noteOn",
        "noteNumber": 68,
        "velocity": 62
      },
      {
        "deltaTime": 5,
        "channel": 0,
        "type": "noteOn",
        "noteNumber": 64,
        "velocity": 75
      },
      {
        "deltaTime": 0,
        "running": true,
        "channel": 0,
        "type": "noteOn",
        "noteNumber": 71,
        "velocity": 64
      },
      {
        "deltaTime": 5,
        "channel": 0,
        "type": "noteOn",
        "noteNumber": 60,
        "velocity": 70
      },
      {
        "deltaTime": 155,
        "channel": 0,
        "type": "noteOff",
        "noteNumber": 64,
        "velocity": 0,
        "byte9": true
      },
      {
        "deltaTime": 5,
        "channel": 0,
        "type": "noteOff",
        "noteNumber": 60,
        "velocity": 0,
        "byte9": true
      },
      {
        "deltaTime": 5,
        "channel": 0,
        "type": "noteOff",
        "noteNumber": 54,
        "velocity": 0,
        "byte9": true
      },
      {
        "deltaTime": 0,
        "running": true,
        "channel": 0,
        "type": "noteOff",
        "noteNumber": 68,
        "velocity": 0,
        "byte9": true
      },
      {
        "deltaTime": 0,
        "running": true,
        "channel": 0,
        "type": "noteOff",
        "noteNumber": 74,
        "velocity": 0,
        "byte9": true
      },
      {
        "deltaTime": 10,
        "channel": 0,
        "type": "noteOff",
        "noteNumber": 71,
        "velocity": 0,
        "byte9": true
      },
      {
        "deltaTime": 110,
        "channel": 0,
        "type": "noteOn",
        "noteNumber": 68,
        "velocity": 64
      },
      {
        "deltaTime": 5,
        "channel": 0,
        "type": "noteOn",
        "noteNumber": 71,
        "velocity": 60
      },
      {
        "deltaTime": 0,
        "running": true,
        "channel": 0,
        "type": "noteOn",
        "noteNumber": 74,
        "velocity": 67
      },
      {
        "deltaTime": 5,
        "channel": 0,
        "type": "noteOn",
        "noteNumber": 54,
        "velocity": 60
      },
      {
        "deltaTime": 0,
        "running": true,
        "channel": 0,
        "type": "noteOn",
        "noteNumber": 60,
        "velocity": 65
      },
      {
        "deltaTime": 0,
        "running": true,
        "channel": 0,
        "type": "noteOn",
        "noteNumber": 64,
        "velocity": 66
      },
      {
        "deltaTime": 95,
        "channel": 0,
        "type": "noteOff",
        "noteNumber": 64,
        "velocity": 0,
        "byte9": true
      },
      {
        "deltaTime": 40,
        "channel": 0,
        "type": "noteOff",
        "noteNumber": 68,
        "velocity": 0,
        "byte9": true
      },
      {
        "deltaTime": 5,
        "channel": 0,
        "type": "noteOff",
        "noteNumber": 71,
        "velocity": 0,
        "byte9": true
      },
      {
        "deltaTime": 25,
        "channel": 0,
        "type": "noteOff",
        "noteNumber": 74,
        "velocity": 0,
        "byte9": true
      },
      {
        "deltaTime": 170,
        "channel": 0,
        "type": "noteOn",
        "noteNumber": 73,
        "velocity": 74
      },
      {
        "deltaTime": 80,
        "channel": 0,
        "type": "noteOff",
        "noteNumber": 73,
        "velocity": 0,
        "byte9": true
      },
      {
        "deltaTime": 65,
        "channel": 0,
        "type": "noteOn",
        "noteNumber": 74,
        "velocity": 79
      },
      {
        "deltaTime": 90,
        "channel": 0,
        "type": "noteOff",
        "noteNumber": 74,
        "velocity": 0,
        "byte9": true
      },
      {
        "deltaTime": 75,
        "channel": 0,
        "type": "noteOn",
        "noteNumber": 77,
        "velocity": 72
      },
      {
        "deltaTime": 95,
        "channel": 0,
        "type": "noteOff",
        "noteNumber": 54,
        "velocity": 0,
        "byte9": true
      },
      {
        "deltaTime": 5,
        "channel": 0,
        "type": "noteOff",
        "noteNumber": 77,
        "velocity": 0,
        "byte9": true
      },
      {
        "deltaTime": 35,
        "channel": 0,
        "type": "noteOff",
        "noteNumber": 60,
        "velocity": 0,
        "byte9": true
      },
      {
        "deltaTime": 20,
        "channel": 0,
        "type": "noteOn",
        "noteNumber": 79,
        "velocity": 67
      },
      {
        "deltaTime": 65,
        "channel": 0,
        "type": "noteOff",
        "noteNumber": 79,
        "velocity": 0,
        "byte9": true
      },
      {
        "deltaTime": 70,
        "channel": 0,
        "type": "noteOn",
        "noteNumber": 54,
        "velocity": 48
      },
      {
        "deltaTime": 5,
        "channel": 0,
        "type": "noteOn",
        "noteNumber": 80,
        "velocity": 82
      },
      {
        "deltaTime": 85,
        "channel": 0,
        "type": "noteOff",
        "noteNumber": 80,
        "velocity": 0,
        "byte9": true
      },
      {
        "deltaTime": 5,
        "channel": 0,
        "type": "noteOff",
        "noteNumber": 54,
        "velocity": 0,
        "byte9": true
      },
      {
        "deltaTime": 75,
        "channel": 0,
        "type": "noteOn",
        "noteNumber": 80,
        "velocity": 57
      },
      {
        "deltaTime": 10,
        "channel": 0,
        "type": "noteOn",
        "noteNumber": 58,
        "velocity": 40
      },
      {
        "deltaTime": 0,
        "running": true,
        "channel": 0,
        "type": "noteOn",
        "noteNumber": 62,
        "velocity": 49
      },
      {
        "deltaTime": 5,
        "channel": 0,
        "type": "noteOn",
        "noteNumber": 57,
        "velocity": 34
      },
      {
        "deltaTime": 40,
        "channel": 0,
        "type": "noteOff",
        "noteNumber": 80,
        "velocity": 0,
        "byte9": true
      },
      {
        "deltaTime": 5,
        "channel": 0,
        "type": "noteOn",
        "noteNumber": 81,
        "velocity": 69
      },
      {
        "deltaTime": 170,
        "channel": 0,
        "type": "noteOff",
        "noteNumber": 81,
        "velocity": 0,
        "byte9": true
      },
      {
        "deltaTime": 90,
        "channel": 0,
        "type": "noteOn",
        "noteNumber": 84,
        "velocity": 101
      },
      {
        "deltaTime": 110,
        "channel": 0,
        "type": "noteOff",
        "noteNumber": 84,
        "velocity": 0,
        "byte9": true
      },
      {
        "deltaTime": 50,
        "channel": 0,
        "type": "noteOff",
        "noteNumber": 58,
        "velocity": 0,
        "byte9": true
      },
      {
        "deltaTime": 15,
        "channel": 0,
        "type": "noteOff",
        "noteNumber": 62,
        "velocity": 0,
        "byte9": true
      },
      {
        "deltaTime": 10,
        "channel": 0,
        "type": "noteOn",
        "noteNumber": 79,
        "velocity": 32
      },
      {
        "deltaTime": 35,
        "channel": 0,
        "type": "noteOn",
        "noteNumber": 80,
        "velocity": 39
      },
      {
        "deltaTime": 5,
        "channel": 0,
        "type": "noteOff",
        "noteNumber": 79,
        "velocity": 0,
        "byte9": true
      },
      {
        "deltaTime": 45,
        "channel": 0,
        "type": "noteOff",
        "noteNumber": 80,
        "velocity": 0,
        "byte9": true
      },
      {
        "deltaTime": 20,
        "channel": 0,
        "type": "noteOn",
        "noteNumber": 81,
        "velocity": 35
      },
      {
        "deltaTime": 85,
        "channel": 0,
        "type": "noteOff",
        "noteNumber": 81,
        "velocity": 0,
        "byte9": true
      },
      {
        "deltaTime": 130,
        "channel": 0,
        "type": "noteOn",
        "noteNumber": 84,
        "velocity": 99
      },
      {
        "deltaTime": 15,
        "channel": 0,
        "type": "noteOn",
        "noteNumber": 58,
        "velocity": 46
      },
      {
        "deltaTime": 10,
        "channel": 0,
        "type": "noteOn",
        "noteNumber": 62,
        "velocity": 38
      },
      {
        "deltaTime": 40,
        "channel": 0,
        "type": "noteOff",
        "noteNumber": 62,
        "velocity": 0,
        "byte9": true
      },
      {
        "deltaTime": 40,
        "channel": 0,
        "type": "noteOff",
        "noteNumber": 84,
        "velocity": 0,
        "byte9": true
      },
      {
        "deltaTime": 55,
        "channel": 0,
        "type": "noteOff",
        "noteNumber": 58,
        "velocity": 0,
        "byte9": true
      },
      {
        "deltaTime": 35,
        "channel": 0,
        "type": "noteOn",
        "noteNumber": 79,
        "velocity": 33
      },
      {
        "deltaTime": 35,
        "channel": 0,
        "type": "noteOn",
        "noteNumber": 80,
        "velocity": 34
      },
      {
        "deltaTime": 45,
        "channel": 0,
        "type": "noteOff",
        "noteNumber": 80,
        "velocity": 0,
        "byte9": true
      },
      {
        "deltaTime": 10,
        "channel": 0,
        "type": "noteOff",
        "noteNumber": 79,
        "velocity": 0,
        "byte9": true
      },
      {
        "deltaTime": 60,
        "channel": 0,
        "type": "noteOn",
        "noteNumber": 81,
        "velocity": 15
      },
      {
        "deltaTime": 70,
        "channel": 0,
        "type": "noteOff",
        "noteNumber": 81,
        "velocity": 0,
        "byte9": true
      },
      {
        "deltaTime": 210,
        "channel": 0,
        "type": "noteOn",
        "noteNumber": 62,
        "velocity": 51
      },
      {
        "deltaTime": 5,
        "channel": 0,
        "type": "noteOn",
        "noteNumber": 58,
        "velocity": 43
      },
      {
        "deltaTime": 0,
        "running": true,
        "channel": 0,
        "type": "noteOn",
        "noteNumber": 74,
        "velocity": 57
      },
      {
        "deltaTime": 10,
        "channel": 0,
        "type": "noteOn",
        "noteNumber": 76,
        "velocity": 60
      },
      {
        "deltaTime": 10,
        "channel": 0,
        "type": "noteOn",
        "noteNumber": 78,
        "velocity": 25
      },
      {
        "deltaTime": 10,
        "channel": 0,
        "type": "noteOff",
        "noteNumber": 76,
        "velocity": 0,
        "byte9": true
      },
      {
        "deltaTime": 20,
        "channel": 0,
        "type": "noteOff",
        "noteNumber": 78,
        "velocity": 0,
        "byte9": true
      },
      {
        "deltaTime": 70,
        "channel": 0,
        "type": "noteOff",
        "noteNumber": 74,
        "velocity": 0,
        "byte9": true
      },
      {
        "deltaTime": 60,
        "channel": 0,
        "type": "noteOff",
        "noteNumber": 58,
        "velocity": 0,
        "byte9": true
      },
      {
        "deltaTime": 10,
        "channel": 0,
        "type": "noteOff",
        "noteNumber": 62,
        "velocity": 0,
        "byte9": true
      },
      {
        "deltaTime": 100,
        "channel": 0,
        "type": "noteOff",
        "noteNumber": 57,
        "velocity": 0,
        "byte9": true
      },
      {
        "deltaTime": 190,
        "channel": 0,
        "type": "noteOn",
        "noteNumber": 77,
        "velocity": 90
      },
      {
        "deltaTime": 10,
        "channel": 0,
        "type": "noteOn",
        "noteNumber": 58,
        "velocity": 62
      },
      {
        "deltaTime": 0,
        "running": true,
        "channel": 0,
        "type": "noteOn",
        "noteNumber": 62,
        "velocity": 74
      },
      {
        "deltaTime": 170,
        "channel": 0,
        "type": "noteOff",
        "noteNumber": 62,
        "velocity": 0,
        "byte9": true
      },
      {
        "deltaTime": 15,
        "channel": 0,
        "type": "noteOff",
        "noteNumber": 58,
        "velocity": 0,
        "byte9": true
      },
      {
        "deltaTime": 10,
        "channel": 0,
        "type": "noteOff",
        "noteNumber": 77,
        "velocity": 0,
        "byte9": true
      },
      {
        "deltaTime": 265,
        "channel": 0,
        "type": "noteOn",
        "noteNumber": 58,
        "velocity": 52
      },
      {
        "deltaTime": 5,
        "channel": 0,
        "type": "noteOn",
        "noteNumber": 74,
        "velocity": 79
      },
      {
        "deltaTime": 5,
        "channel": 0,
        "type": "noteOn",
        "noteNumber": 62,
        "velocity": 48
      },
      {
        "deltaTime": 130,
        "channel": 0,
        "type": "noteOff",
        "noteNumber": 62,
        "velocity": 0,
        "byte9": true
      },
      {
        "deltaTime": 70,
        "channel": 0,
        "type": "noteOff",
        "noteNumber": 74,
        "velocity": 0,
        "byte9": true
      },
      {
        "deltaTime": 10,
        "channel": 0,
        "type": "noteOff",
        "noteNumber": 58,
        "velocity": 0,
        "byte9": true
      },
      {
        "deltaTime": 265,
        "channel": 0,
        "type": "noteOn",
        "noteNumber": 58,
        "velocity": 53
      },
      {
        "deltaTime": 0,
        "running": true,
        "channel": 0,
        "type": "noteOn",
        "noteNumber": 62,
        "velocity": 66
      },
      {
        "deltaTime": 5,
        "channel": 0,
        "type": "controller",
        "controllerType": 64,
        "value": 127
      },
      {
        "deltaTime": 0,
        "channel": 0,
        "type": "noteOn",
        "noteNumber": 52,
        "velocity": 62
      },
      {
        "deltaTime": 5,
        "channel": 0,
        "type": "noteOn",
        "noteNumber": 77,
        "velocity": 88
      },
      {
        "deltaTime": 150,
        "channel": 0,
        "type": "noteOff",
        "noteNumber": 52,
        "velocity": 0,
        "byte9": true
      },
      {
        "deltaTime": 35,
        "channel": 0,
        "type": "noteOff",
        "noteNumber": 62,
        "velocity": 0,
        "byte9": true
      },
      {
        "deltaTime": 20,
        "channel": 0,
        "type": "noteOff",
        "noteNumber": 58,
        "velocity": 0,
        "byte9": true
      },
      {
        "deltaTime": 65,
        "channel": 0,
        "type": "noteOff",
        "noteNumber": 77,
        "velocity": 0,
        "byte9": true
      },
      {
        "deltaTime": 45,
        "channel": 0,
        "type": "noteOn",
        "noteNumber": 79,
        "velocity": 71
      },
      {
        "deltaTime": 10,
        "channel": 0,
        "type": "noteOn",
        "noteNumber": 58,
        "velocity": 46
      },
      {
        "deltaTime": 10,
        "channel": 0,
        "type": "noteOn",
        "noteNumber": 52,
        "velocity": 55
      },
      {
        "deltaTime": 0,
        "running": true,
        "channel": 0,
        "type": "noteOn",
        "noteNumber": 62,
        "velocity": 38
      },
      {
        "deltaTime": 45,
        "channel": 0,
        "type": "noteOff",
        "noteNumber": 62,
        "velocity": 0,
        "byte9": true
      },
      {
        "deltaTime": 50,
        "channel": 0,
        "type": "controller",
        "controllerType": 64,
        "value": 0
      },
      {
        "deltaTime": 55,
        "channel": 0,
        "type": "noteOn",
        "noteNumber": 62,
        "velocity": 30
      },
      {
        "deltaTime": 0,
        "running": true,
        "channel": 0,
        "type": "noteOn",
        "noteNumber": 74,
        "velocity": 56
      },
      {
        "deltaTime": 0,
        "running": true,
        "channel": 0,
        "type": "noteOff",
        "noteNumber": 79,
        "velocity": 0,
        "byte9": true
      },
      {
        "deltaTime": 15,
        "channel": 0,
        "type": "controller",
        "controllerType": 64,
        "value": 127
      },
      {
        "deltaTime": 20,
        "channel": 0,
        "type": "noteOff",
        "noteNumber": 52,
        "velocity": 0,
        "byte9": true
      },
      {
        "deltaTime": 55,
        "channel": 0,
        "type": "noteOff",
        "noteNumber": 58,
        "velocity": 0,
        "byte9": true
      },
      {
        "deltaTime": 15,
        "channel": 0,
        "type": "noteOff",
        "noteNumber": 74,
        "velocity": 0,
        "byte9": true
      },
      {
        "deltaTime": 45,
        "channel": 0,
        "type": "noteOff",
        "noteNumber": 62,
        "velocity": 0,
        "byte9": true
      },
      {
        "deltaTime": 145,
        "channel": 0,
        "type": "controller",
        "controllerType": 64,
        "value": 0
      },
      {
        "deltaTime": 0,
        "channel": 0,
        "type": "noteOn",
        "noteNumber": 77,
        "velocity": 113
      },
      {
        "deltaTime": 5,
        "channel": 0,
        "type": "noteOn",
        "noteNumber": 57,
        "velocity": 65
      },
      {
        "deltaTime": 0,
        "running": true,
        "channel": 0,
        "type": "noteOn",
        "noteNumber": 60,
        "velocity": 71
      },
      {
        "deltaTime": 10,
        "channel": 0,
        "type": "noteOn",
        "noteNumber": 53,
        "velocity": 54
      },
      {
        "deltaTime": 130,
        "channel": 0,
        "type": "controller",
        "controllerType": 64,
        "value": 127
      },
      {
        "deltaTime": 145,
        "channel": 0,
        "type": "noteOff",
        "noteNumber": 57,
        "velocity": 0,
        "byte9": true
      },
      {
        "deltaTime": 5,
        "channel": 0,
        "type": "noteOff",
        "noteNumber": 53,
        "velocity": 0,
        "byte9": true
      },
      {
        "deltaTime": 10,
        "channel": 0,
        "type": "noteOff",
        "noteNumber": 60,
        "velocity": 0,
        "byte9": true
      },
      {
        "deltaTime": 60,
        "channel": 0,
        "type": "noteOff",
        "noteNumber": 77,
        "velocity": 0,
        "byte9": true
      },
      {
        "deltaTime": 145,
        "channel": 0,
        "type": "noteOn",
        "noteNumber": 60,
        "velocity": 54
      },
      {
        "deltaTime": 0,
        "running": true,
        "channel": 0,
        "type": "noteOn",
        "noteNumber": 79,
        "velocity": 80
      },
      {
        "deltaTime": 5,
        "channel": 0,
        "type": "noteOn",
        "noteNumber": 57,
        "velocity": 48
      },
      {
        "deltaTime": 5,
        "channel": 0,
        "type": "noteOn",
        "noteNumber": 53,
        "velocity": 36
      },
      {
        "deltaTime": 5,
        "channel": 0,
        "type": "noteOn",
        "noteNumber": 62,
        "velocity": 42
      },
      {
        "deltaTime": 25,
        "channel": 0,
        "type": "noteOff",
        "noteNumber": 62,
        "velocity": 0,
        "byte9": true
      },
      {
        "deltaTime": 25,
        "channel": 0,
        "type": "noteOff",
        "noteNumber": 53,
        "velocity": 0,
        "byte9": true
      },
      {
        "deltaTime": 0,
        "running": true,
        "channel": 0,
        "type": "noteOff",
        "noteNumber": 60,
        "velocity": 0,
        "byte9": true
      },
      {
        "deltaTime": 15,
        "channel": 0,
        "type": "noteOff",
        "noteNumber": 57,
        "velocity": 0,
        "byte9": true
      },
      {
        "deltaTime": 70,
        "channel": 0,
        "type": "controller",
        "controllerType": 64,
        "value": 0
      },
      {
        "deltaTime": 35,
        "channel": 0,
        "type": "noteOn",
        "noteNumber": 57,
        "velocity": 32
      },
      {
        "deltaTime": 5,
        "channel": 0,
        "type": "noteOn",
        "noteNumber": 53,
        "velocity": 35
      },
      {
        "deltaTime": 0,
        "running": true,
        "channel": 0,
        "type": "noteOn",
        "noteNumber": 62,
        "velocity": 36
      },
      {
        "deltaTime": 0,
        "running": true,
        "channel": 0,
        "type": "noteOn",
        "noteNumber": 74,
        "velocity": 64
      },
      {
        "deltaTime": 5,
        "channel": 0,
        "type": "noteOn",
        "noteNumber": 60,
        "velocity": 27
      },
      {
        "deltaTime": 75,
        "channel": 0,
        "type": "noteOff",
        "noteNumber": 62,
        "velocity": 0,
        "byte9": true
      },
      {
        "deltaTime": 30,
        "channel": 0,
        "type": "noteOff",
        "noteNumber": 60,
        "velocity": 0,
        "byte9": true
      },
      {
        "deltaTime": 10,
        "channel": 0,
        "type": "noteOff",
        "noteNumber": 57,
        "velocity": 0,
        "byte9": true
      },
      {
        "deltaTime": 10,
        "channel": 0,
        "type": "noteOff",
        "noteNumber": 53,
        "velocity": 0,
        "byte9": true
      },
      {
        "deltaTime": 50,
        "channel": 0,
        "type": "noteOff",
        "noteNumber": 74,
        "velocity": 0,
        "byte9": true
      },
      {
        "deltaTime": 15,
        "channel": 0,
        "type": "noteOff",
        "noteNumber": 79,
        "velocity": 0,
        "byte9": true
      },
      {
        "deltaTime": 65,
        "channel": 0,
        "type": "noteOn",
        "noteNumber": 77,
        "velocity": 80
      },
      {
        "deltaTime": 5,
        "channel": 0,
        "type": "noteOn",
        "noteNumber": 57,
        "velocity": 62
      },
      {
        "deltaTime": 0,
        "running": true,
        "channel": 0,
        "type": "noteOn",
        "noteNumber": 60,
        "velocity": 64
      },
      {
        "deltaTime": 5,
        "channel": 0,
        "type": "noteOn",
        "noteNumber": 53,
        "velocity": 62
      },
      {
        "deltaTime": 0,
        "running": true,
        "channel": 0,
        "type": "noteOn",
        "noteNumber": 62,
        "velocity": 66
      },
      {
        "deltaTime": 145,
        "channel": 0,
        "type": "controller",
        "controllerType": 64,
        "value": 127
      },
      {
        "deltaTime": 50,
        "channel": 0,
        "type": "noteOff",
        "noteNumber": 62,
        "velocity": 0,
        "byte9": true
      },
      {
        "deltaTime": 50,
        "channel": 0,
        "type": "noteOff",
        "noteNumber": 57,
        "velocity": 0,
        "byte9": true
      },
      {
        "deltaTime": 0,
        "running": true,
        "channel": 0,
        "type": "noteOff",
        "noteNumber": 60,
        "velocity": 0,
        "byte9": true
      },
      {
        "deltaTime": 10,
        "channel": 0,
        "type": "noteOff",
        "noteNumber": 53,
        "velocity": 0,
        "byte9": true
      },
      {
        "deltaTime": 75,
        "channel": 0,
        "type": "noteOff",
        "noteNumber": 77,
        "velocity": 0,
        "byte9": true
      },
      {
        "deltaTime": 135,
        "channel": 0,
        "type": "noteOn",
        "noteNumber": 79,
        "velocity": 85
      },
      {
        "deltaTime": 10,
        "channel": 0,
        "type": "noteOn",
        "noteNumber": 57,
        "velocity": 53
      },
      {
        "deltaTime": 0,
        "running": true,
        "channel": 0,
        "type": "noteOn",
        "noteNumber": 60,
        "velocity": 59
      },
      {
        "deltaTime": 5,
        "channel": 0,
        "type": "noteOn",
        "noteNumber": 53,
        "velocity": 55
      },
      {
        "deltaTime": 15,
        "channel": 0,
        "type": "noteOn",
        "noteNumber": 62,
        "velocity": 46
      },
      {
        "deltaTime": 25,
        "channel": 0,
        "type": "noteOff",
        "noteNumber": 62,
        "velocity": 0,
        "byte9": true
      },
      {
        "deltaTime": 40,
        "channel": 0,
        "type": "noteOff",
        "noteNumber": 60,
        "velocity": 0,
        "byte9": true
      },
      {
        "deltaTime": 45,
        "channel": 0,
        "type": "noteOn",
        "noteNumber": 60,
        "velocity": 25
      },
      {
        "deltaTime": 5,
        "channel": 0,
        "type": "controller",
        "controllerType": 64,
        "value": 0
      },
      {
        "deltaTime": 25,
        "channel": 0,
        "type": "noteOn",
        "noteNumber": 62,
        "velocity": 53
      },
      {
        "deltaTime": 20,
        "channel": 0,
        "type": "noteOn",
        "noteNumber": 74,
        "velocity": 27
      },
      {
        "deltaTime": 50,
        "channel": 0,
        "type": "noteOff",
        "noteNumber": 79,
        "velocity": 0,
        "byte9": true
      },
      {
        "deltaTime": 5,
        "channel": 0,
        "type": "noteOff",
        "noteNumber": 53,
        "velocity": 0,
        "byte9": true
      },
      {
        "deltaTime": 5,
        "channel": 0,
        "type": "noteOff",
        "noteNumber": 57,
        "velocity": 0,
        "byte9": true
      },
      {
        "deltaTime": 15,
        "channel": 0,
        "type": "noteOff",
        "noteNumber": 60,
        "velocity": 0,
        "byte9": true
      },
      {
        "deltaTime": 35,
        "channel": 0,
        "type": "noteOff",
        "noteNumber": 74,
        "velocity": 0,
        "byte9": true
      },
      {
        "deltaTime": 5,
        "channel": 0,
        "type": "noteOff",
        "noteNumber": 62,
        "velocity": 0,
        "byte9": true
      },
      {
        "deltaTime": 10,
        "channel": 0,
        "type": "controller",
        "controllerType": 64,
        "value": 127
      },
      {
        "deltaTime": 150,
        "channel": 0,
        "type": "controller",
        "controllerType": 64,
        "value": 0
      },
      {
        "deltaTime": 0,
        "channel": 0,
        "type": "noteOn",
        "noteNumber": 77,
        "velocity": 96
      },
      {
        "deltaTime": 5,
        "channel": 0,
        "type": "noteOn",
        "noteNumber": 55,
        "velocity": 77
      },
      {
        "deltaTime": 0,
        "running": true,
        "channel": 0,
        "type": "noteOn",
        "noteNumber": 60,
        "velocity": 74
      },
      {
        "deltaTime": 0,
        "running": true,
        "channel": 0,
        "type": "noteOn",
        "noteNumber": 64,
        "velocity": 76
      },
      {
        "deltaTime": 145,
        "channel": 0,
        "type": "controller",
        "controllerType": 64,
        "value": 127
      },
      {
        "deltaTime": 90,
        "channel": 0,
        "type": "noteOff",
        "noteNumber": 64,
        "velocity": 0,
        "byte9": true
      },
      {
        "deltaTime": 10,
        "channel": 0,
        "type": "noteOff",
        "noteNumber": 60,
        "velocity": 0,
        "byte9": true
      },
      {
        "deltaTime": 15,
        "channel": 0,
        "type": "noteOff",
        "noteNumber": 55,
        "velocity": 0,
        "byte9": true
      },
      {
        "deltaTime": 15,
        "channel": 0,
        "type": "noteOff",
        "noteNumber": 77,
        "velocity": 0,
        "byte9": true
      },
      {
        "deltaTime": 325,
        "channel": 0,
        "type": "controller",
        "controllerType": 64,
        "value": 0
      },
      {
        "deltaTime": 40,
        "channel": 0,
        "type": "noteOn",
        "noteNumber": 55,
        "velocity": 77
      },
      {
        "deltaTime": 0,
        "running": true,
        "channel": 0,
        "type": "noteOn",
        "noteNumber": 81,
        "velocity": 95
      },
      {
        "deltaTime": 5,
        "channel": 0,
        "type": "noteOn",
        "noteNumber": 60,
        "velocity": 62
      },
      {
        "deltaTime": 0,
        "running": true,
        "channel": 0,
        "type": "noteOn",
        "noteNumber": 64,
        "velocity": 72
      },
      {
        "deltaTime": 65,
        "channel": 0,
        "type": "noteOff",
        "noteNumber": 64,
        "velocity": 0,
        "byte9": true
      },
      {
        "deltaTime": 15,
        "channel": 0,
        "type": "noteOff",
        "noteNumber": 81,
        "velocity": 0,
        "byte9": true
      },
      {
        "deltaTime": 30,
        "channel": 0,
        "type": "noteOff",
        "noteNumber": 55,
        "velocity": 0,
        "byte9": true
      },
      {
        "deltaTime": 0,
        "running": true,
        "channel": 0,
        "type": "noteOff",
        "noteNumber": 60,
        "velocity": 0,
        "byte9": true
      },
      {
        "deltaTime": 365,
        "channel": 0,
        "type": "noteOn",
        "noteNumber": 78,
        "velocity": 83
      },
      {
        "deltaTime": 0,
        "running": true,
        "channel": 0,
        "type": "noteOn",
        "noteNumber": 84,
        "velocity": 91
      },
      {
        "deltaTime": 5,
        "channel": 0,
        "type": "noteOn",
        "noteNumber": 64,
        "velocity": 68
      },
      {
        "deltaTime": 5,
        "channel": 0,
        "type": "controller",
        "controllerType": 64,
        "value": 127
      },
      {
        "deltaTime": 0,
        "channel": 0,
        "type": "noteOn",
        "noteNumber": 60,
        "velocity": 65
      },
      {
        "deltaTime": 5,
        "channel": 0,
        "type": "noteOn",
        "noteNumber": 54,
        "velocity": 53
      },
      {
        "deltaTime": 20,
        "channel": 0,
        "type": "noteOff",
        "noteNumber": 60,
        "velocity": 0,
        "byte9": true
      },
      {
        "deltaTime": 0,
        "running": true,
        "channel": 0,
        "type": "noteOff",
        "noteNumber": 64,
        "velocity": 0,
        "byte9": true
      },
      {
        "deltaTime": 55,
        "channel": 0,
        "type": "noteOff",
        "noteNumber": 54,
        "velocity": 0,
        "byte9": true
      },
      {
        "deltaTime": 90,
        "channel": 0,
        "type": "noteOff",
        "noteNumber": 78,
        "velocity": 0,
        "byte9": true
      },
      {
        "deltaTime": 40,
        "channel": 0,
        "type": "noteOff",
        "noteNumber": 84,
        "velocity": 0,
        "byte9": true
      },
      {
        "deltaTime": 180,
        "channel": 0,
        "type": "programChange",
        "programNumber": 0
      },
      {
        "deltaTime": 40,
        "channel": 0,
        "type": "noteOn",
        "noteNumber": 78,
        "velocity": 86
      },
      {
        "deltaTime": 70,
        "channel": 0,
        "type": "noteOn",
        "noteNumber": 60,
        "velocity": 45
      },
      {
        "deltaTime": 0,
        "running": true,
        "channel": 0,
        "type": "noteOn",
        "noteNumber": 63,
        "velocity": 36
      },
      {
        "deltaTime": 0,
        "running": true,
        "channel": 0,
        "type": "noteOn",
        "noteNumber": 66,
        "velocity": 37
      },
      {
        "deltaTime": 0,
        "running": true,
        "channel": 0,
        "type": "noteOn",
        "noteNumber": 69,
        "velocity": 44
      },
      {
        "deltaTime": 0,
        "running": true,
        "channel": 0,
        "type": "noteOn",
        "noteNumber": 72,
        "velocity": 53
      },
      {
        "deltaTime": 80,
        "channel": 0,
        "type": "controller",
        "controllerType": 64,
        "value": 0
      },
      {
        "deltaTime": 0,
        "channel": 0,
        "type": "noteOff",
        "noteNumber": 60,
        "velocity": 0,
        "byte9": true
      },
      {
        "deltaTime": 0,
        "running": true,
        "channel": 0,
        "type": "noteOff",
        "noteNumber": 63,
        "velocity": 0,
        "byte9": true
      },
      {
        "deltaTime": 0,
        "running": true,
        "channel": 0,
        "type": "noteOff",
        "noteNumber": 66,
        "velocity": 0,
        "byte9": true
      },
      {
        "deltaTime": 0,
        "running": true,
        "channel": 0,
        "type": "noteOff",
        "noteNumber": 69,
        "velocity": 0,
        "byte9": true
      },
      {
        "deltaTime": 0,
        "running": true,
        "channel": 0,
        "type": "noteOff",
        "noteNumber": 72,
        "velocity": 0,
        "byte9": true
      },
      {
        "deltaTime": 5,
        "channel": 0,
        "type": "noteOff",
        "noteNumber": 78,
        "velocity": 0,
        "byte9": true
      },
      {
        "deltaTime": 395,
        "channel": 0,
        "type": "controller",
        "controllerType": 0,
        "value": 0
      },
      {
        "deltaTime": 0,
        "running": true,
        "channel": 0,
        "type": "controller",
        "controllerType": 32,
        "value": 0
      },
      {
        "deltaTime": 0,
        "channel": 0,
        "type": "noteOn",
        "noteNumber": 57,
        "velocity": 60
      },
      {
        "deltaTime": 0,
        "running": true,
        "channel": 0,
        "type": "noteOn",
        "noteNumber": 69,
        "velocity": 53
      },
      {
        "deltaTime": 0,
        "running": true,
        "channel": 0,
        "type": "noteOn",
        "noteNumber": 74,
        "velocity": 60
      },
      {
        "deltaTime": 0,
        "running": true,
        "channel": 0,
        "type": "noteOn",
        "noteNumber": 81,
        "velocity": 57
      },
      {
        "deltaTime": 5,
        "channel": 0,
        "type": "noteOn",
        "noteNumber": 58,
        "velocity": 42
      },
      {
        "deltaTime": 0,
        "running": true,
        "channel": 0,
        "type": "noteOn",
        "noteNumber": 62,
        "velocity": 61
      },
      {
        "deltaTime": 35,
        "channel": 0,
        "type": "noteOff",
        "noteNumber": 69,
        "velocity": 0,
        "byte9": true
      },
      {
        "deltaTime": 0,
        "running": true,
        "channel": 0,
        "type": "noteOff",
        "noteNumber": 74,
        "velocity": 0,
        "byte9": true
      },
      {
        "deltaTime": 5,
        "channel": 0,
        "type": "noteOff",
        "noteNumber": 57,
        "velocity": 0,
        "byte9": true
      },
      {
        "deltaTime": 0,
        "running": true,
        "channel": 0,
        "type": "noteOff",
        "noteNumber": 62,
        "velocity": 0,
        "byte9": true
      },
      {
        "deltaTime": 10,
        "channel": 0,
        "type": "noteOff",
        "noteNumber": 58,
        "velocity": 0,
        "byte9": true
      },
      {
        "deltaTime": 0,
        "running": true,
        "channel": 0,
        "type": "noteOff",
        "noteNumber": 81,
        "velocity": 0,
        "byte9": true
      },
      {
        "deltaTime": 1190,
        "channel": 0,
        "type": "noteOn",
        "noteNumber": 74,
        "velocity": 62
      },
      {
        "deltaTime": 5,
        "channel": 0,
        "type": "noteOn",
        "noteNumber": 69,
        "velocity": 70
      },
      {
        "deltaTime": 0,
        "running": true,
        "channel": 0,
        "type": "noteOn",
        "noteNumber": 70,
        "velocity": 59
      },
      {
        "deltaTime": 5,
        "channel": 0,
        "type": "noteOn",
        "noteNumber": 57,
        "velocity": 59
      },
      {
        "deltaTime": 0,
        "running": true,
        "channel": 0,
        "type": "noteOn",
        "noteNumber": 62,
        "velocity": 61
      },
      {
        "deltaTime": 5,
        "channel": 0,
        "type": "noteOn",
        "noteNumber": 58,
        "velocity": 46
      },
      {
        "deltaTime": 195,
        "channel": 0,
        "type": "controller",
        "controllerType": 64,
        "value": 127
      },
      {
        "deltaTime": 80,
        "channel": 0,
        "type": "noteOff",
        "noteNumber": 74,
        "velocity": 0,
        "byte9": true
      },
      {
        "deltaTime": 25,
        "channel": 0,
        "type": "noteOff",
        "noteNumber": 70,
        "velocity": 0,
        "byte9": true
      },
      {
        "deltaTime": 5,
        "channel": 0,
        "type": "noteOff",
        "noteNumber": 69,
        "velocity": 0,
        "byte9": true
      },
      {
        "deltaTime": 20,
        "channel": 0,
        "type": "noteOff",
        "noteNumber": 62,
        "velocity": 0,
        "byte9": true
      },
      {
        "deltaTime": 5,
        "channel": 0,
        "type": "noteOff",
        "noteNumber": 57,
        "velocity": 0,
        "byte9": true
      },
      {
        "deltaTime": 30,
        "channel": 0,
        "type": "noteOff",
        "noteNumber": 58,
        "velocity": 0,
        "byte9": true
      },
      {
        "deltaTime": 225,
        "channel": 0,
        "type": "controller",
        "controllerType": 64,
        "value": 0
      },
      {
        "deltaTime": 50,
        "channel": 0,
        "type": "noteOn",
        "noteNumber": 70,
        "velocity": 57
      },
      {
        "deltaTime": 5,
        "channel": 0,
        "type": "noteOn",
        "noteNumber": 74,
        "velocity": 70
      },
      {
        "deltaTime": 5,
        "channel": 0,
        "type": "noteOn",
        "noteNumber": 58,
        "velocity": 49
      },
      {
        "deltaTime": 10,
        "channel": 0,
        "type": "noteOn",
        "noteNumber": 62,
        "velocity": 60
      },
      {
        "deltaTime": 0,
        "running": true,
        "channel": 0,
        "type": "noteOn",
        "noteNumber": 64,
        "velocity": 36
      },
      {
        "deltaTime": 5,
        "channel": 0,
        "type": "noteOn",
        "noteNumber": 65,
        "velocity": 38
      },
      {
        "deltaTime": 10,
        "channel": 0,
        "type": "noteOn",
        "noteNumber": 52,
        "velocity": 48
      },
      {
        "deltaTime": 40,
        "channel": 0,
        "type": "noteOff",
        "noteNumber": 65,
        "velocity": 0,
        "byte9": true
      },
      {
        "deltaTime": 140,
        "channel": 0,
        "type": "noteOff",
        "noteNumber": 64,
        "velocity": 0,
        "byte9": true
      },
      {
        "deltaTime": 5,
        "channel": 0,
        "type": "noteOff",
        "noteNumber": 52,
        "velocity": 0,
        "byte9": true
      },
      {
        "deltaTime": 0,
        "running": true,
        "channel": 0,
        "type": "noteOff",
        "noteNumber": 62,
        "velocity": 0,
        "byte9": true
      },
      {
        "deltaTime": 0,
        "running": true,
        "channel": 0,
        "type": "noteOff",
        "noteNumber": 74,
        "velocity": 0,
        "byte9": true
      },
      {
        "deltaTime": 5,
        "channel": 0,
        "type": "noteOff",
        "noteNumber": 70,
        "velocity": 0,
        "byte9": true
      },
      {
        "deltaTime": 5,
        "channel": 0,
        "type": "noteOff",
        "noteNumber": 58,
        "velocity": 0,
        "byte9": true
      },
      {
        "deltaTime": 695,
        "channel": 0,
        "type": "noteOn",
        "noteNumber": 60,
        "velocity": 39
      },
      {
        "deltaTime": 10,
        "channel": 0,
        "type": "noteOn",
        "noteNumber": 58,
        "velocity": 27
      },
      {
        "deltaTime": 0,
        "running": true,
        "channel": 0,
        "type": "noteOn",
        "noteNumber": 64,
        "velocity": 44
      },
      {
        "deltaTime": 5,
        "channel": 0,
        "type": "noteOn",
        "noteNumber": 72,
        "velocity": 38
      },
      {
        "deltaTime": 5,
        "channel": 0,
        "type": "noteOn",
        "noteNumber": 52,
        "velocity": 31
      },
      {
        "deltaTime": 0,
        "running": true,
        "channel": 0,
        "type": "noteOn",
        "noteNumber": 69,
        "velocity": 43
      },
      {
        "deltaTime": 200,
        "channel": 0,
        "type": "noteOff",
        "noteNumber": 52,
        "velocity": 0,
        "byte9": true
      },
      {
        "deltaTime": 5,
        "channel": 0,
        "type": "noteOff",
        "noteNumber": 72,
        "velocity": 0,
        "byte9": true
      },
      {
        "deltaTime": 15,
        "channel": 0,
        "type": "noteOff",
        "noteNumber": 60,
        "velocity": 0,
        "byte9": true
      },
      {
        "deltaTime": 10,
        "channel": 0,
        "type": "noteOff",
        "noteNumber": 64,
        "velocity": 0,
        "byte9": true
      },
      {
        "deltaTime": 15,
        "channel": 0,
        "type": "noteOff",
        "noteNumber": 58,
        "velocity": 0,
        "byte9": true
      },
      {
        "deltaTime": 0,
        "running": true,
        "channel": 0,
        "type": "noteOff",
        "noteNumber": 69,
        "velocity": 0,
        "byte9": true
      },
      {
        "deltaTime": 55,
        "channel": 0,
        "type": "noteOn",
        "noteNumber": 64,
        "velocity": 60
      },
      {
        "deltaTime": 15,
        "channel": 0,
        "type": "noteOn",
        "noteNumber": 58,
        "velocity": 34
      },
      {
        "deltaTime": 0,
        "running": true,
        "channel": 0,
        "type": "noteOn",
        "noteNumber": 60,
        "velocity": 41
      },
      {
        "deltaTime": 0,
        "running": true,
        "channel": 0,
        "type": "noteOn",
        "noteNumber": 72,
        "velocity": 52
      },
      {
        "deltaTime": 5,
        "channel": 0,
        "type": "noteOn",
        "noteNumber": 69,
        "velocity": 39
      },
      {
        "deltaTime": 5,
        "channel": 0,
        "type": "noteOff",
        "noteNumber": 64,
        "velocity": 0,
        "byte9": true
      },
      {
        "deltaTime": 20,
        "channel": 0,
        "type": "noteOff",
        "noteNumber": 60,
        "velocity": 0,
        "byte9": true
      },
      {
        "deltaTime": 0,
        "running": true,
        "channel": 0,
        "type": "noteOff",
        "noteNumber": 72,
        "velocity": 0,
        "byte9": true
      },
      {
        "deltaTime": 10,
        "channel": 0,
        "type": "noteOff",
        "noteNumber": 69,
        "velocity": 0,
        "byte9": true
      },
      {
        "deltaTime": 10,
        "channel": 0,
        "type": "noteOff",
        "noteNumber": 58,
        "velocity": 0,
        "byte9": true
      },
      {
        "deltaTime": 925,
        "channel": 0,
        "type": "noteOn",
        "noteNumber": 69,
        "velocity": 76
      },
      {
        "deltaTime": 0,
        "running": true,
        "channel": 0,
        "type": "noteOn",
        "noteNumber": 74,
        "velocity": 68
      },
      {
        "deltaTime": 0,
        "running": true,
        "channel": 0,
        "type": "noteOn",
        "noteNumber": 81,
        "velocity": 74
      },
      {
        "deltaTime": 5,
        "channel": 0,
        "type": "noteOn",
        "noteNumber": 58,
        "velocity": 68
      },
      {
        "deltaTime": 0,
        "running": true,
        "channel": 0,
        "type": "noteOn",
        "noteNumber": 77,
        "velocity": 58
      },
      {
        "deltaTime": 5,
        "channel": 0,
        "type": "noteOn",
        "noteNumber": 57,
        "velocity": 66
      },
      {
        "deltaTime": 0,
        "running": true,
        "channel": 0,
        "type": "noteOn",
        "noteNumber": 62,
        "velocity": 72
      },
      {
        "deltaTime": 15,
        "channel": 0,
        "type": "noteOff",
        "noteNumber": 69,
        "velocity": 0,
        "byte9": true
      },
      {
        "deltaTime": 0,
        "running": true,
        "channel": 0,
        "type": "noteOff",
        "noteNumber": 74,
        "velocity": 0,
        "byte9": true
      },
      {
        "deltaTime": 5,
        "channel": 0,
        "type": "noteOff",
        "noteNumber": 62,
        "velocity": 0,
        "byte9": true
      },
      {
        "deltaTime": 0,
        "running": true,
        "channel": 0,
        "type": "noteOff",
        "noteNumber": 77,
        "velocity": 0,
        "byte9": true
      },
      {
        "deltaTime": 5,
        "channel": 0,
        "type": "noteOff",
        "noteNumber": 57,
        "velocity": 0,
        "byte9": true
      },
      {
        "deltaTime": 20,
        "channel": 0,
        "type": "noteOff",
        "noteNumber": 58,
        "velocity": 0,
        "byte9": true
      },
      {
        "deltaTime": 0,
        "running": true,
        "channel": 0,
        "type": "noteOff",
        "noteNumber": 81,
        "velocity": 0,
        "byte9": true
      },
      {
        "deltaTime": 405,
        "channel": 0,
        "type": "noteOn",
        "noteNumber": 93,
        "velocity": 88
      },
      {
        "deltaTime": 5,
        "channel": 0,
        "type": "noteOn",
        "noteNumber": 81,
        "velocity": 75
      },
      {
        "deltaTime": 0,
        "running": true,
        "channel": 0,
        "type": "noteOn",
        "noteNumber": 86,
        "velocity": 72
      },
      {
        "deltaTime": 0,
        "running": true,
        "channel": 0,
        "type": "noteOn",
        "noteNumber": 89,
        "velocity": 72
      },
      {
        "deltaTime": 5,
        "channel": 0,
        "type": "noteOn",
        "noteNumber": 57,
        "velocity": 69
      },
      {
        "deltaTime": 0,
        "running": true,
        "channel": 0,
        "type": "noteOn",
        "noteNumber": 58,
        "velocity": 62
      },
      {
        "deltaTime": 5,
        "channel": 0,
        "type": "noteOn",
        "noteNumber": 62,
        "velocity": 74
      },
      {
        "deltaTime": 5,
        "channel": 0,
        "type": "noteOn",
        "noteNumber": 53,
        "velocity": 71
      },
      {
        "deltaTime": 150,
        "channel": 0,
        "type": "controller",
        "controllerType": 64,
        "value": 127
      },
      {
        "deltaTime": 170,
        "channel": 0,
        "type": "noteOff",
        "noteNumber": 93,
        "velocity": 0,
        "byte9": true
      },
      {
        "deltaTime": 15,
        "channel": 0,
        "type": "noteOff",
        "noteNumber": 89,
        "velocity": 0,
        "byte9": true
      },
      {
        "deltaTime": 40,
        "channel": 0,
        "type": "noteOff",
        "noteNumber": 86,
        "velocity": 0,
        "byte9": true
      },
      {
        "deltaTime": 25,
        "channel": 0,
        "type": "noteOff",
        "noteNumber": 81,
        "velocity": 0,
        "byte9": true
      },
      {
        "deltaTime": 45,
        "channel": 0,
        "type": "noteOff",
        "noteNumber": 53,
        "velocity": 0,
        "byte9": true
      },
      {
        "deltaTime": 25,
        "channel": 0,
        "type": "noteOff",
        "noteNumber": 58,
        "velocity": 0,
        "byte9": true
      },
      {
        "deltaTime": 0,
        "running": true,
        "channel": 0,
        "type": "noteOff",
        "noteNumber": 62,
        "velocity": 0,
        "byte9": true
      },
      {
        "deltaTime": 5,
        "channel": 0,
        "type": "noteOff",
        "noteNumber": 57,
        "velocity": 0,
        "byte9": true
      },
      {
        "deltaTime": 120,
        "channel": 0,
        "type": "controller",
        "controllerType": 64,
        "value": 0
      },
      {
        "deltaTime": 35,
        "channel": 0,
        "type": "noteOn",
        "noteNumber": 62,
        "velocity": 51
      },
      {
        "deltaTime": 0,
        "running": true,
        "channel": 0,
        "type": "noteOn",
        "noteNumber": 77,
        "velocity": 51
      },
      {
        "deltaTime": 5,
        "channel": 0,
        "type": "noteOn",
        "noteNumber": 57,
        "velocity": 38
      },
      {
        "deltaTime": 0,
        "running": true,
        "channel": 0,
        "type": "noteOn",
        "noteNumber": 58,
        "velocity": 45
      },
      {
        "deltaTime": 0,
        "running": true,
        "channel": 0,
        "type": "noteOn",
        "noteNumber": 86,
        "velocity": 46
      },
      {
        "deltaTime": 0,
        "running": true,
        "channel": 0,
        "type": "noteOn",
        "noteNumber": 89,
        "velocity": 45
      },
      {
        "deltaTime": 5,
        "channel": 0,
        "type": "noteOn",
        "noteNumber": 84,
        "velocity": 55
      },
      {
        "deltaTime": 5,
        "channel": 0,
        "type": "noteOn",
        "noteNumber": 53,
        "velocity": 40
      },
      {
        "deltaTime": 35,
        "channel": 0,
        "type": "noteOff",
        "noteNumber": 84,
        "velocity": 0,
        "byte9": true
      },
      {
        "deltaTime": 0,
        "running": true,
        "channel": 0,
        "type": "noteOff",
        "noteNumber": 86,
        "velocity": 0,
        "byte9": true
      },
      {
        "deltaTime": 5,
        "channel": 0,
        "type": "noteOff",
        "noteNumber": 77,
        "velocity": 0,
        "byte9": true
      },
      {
        "deltaTime": 10,
        "channel": 0,
        "type": "noteOff",
        "noteNumber": 53,
        "velocity": 0,
        "byte9": true
      },
      {
        "deltaTime": 5,
        "channel": 0,
        "type": "noteOff",
        "noteNumber": 57,
        "velocity": 0,
        "byte9": true
      },
      {
        "deltaTime": 0,
        "running": true,
        "channel": 0,
        "type": "noteOff",
        "noteNumber": 62,
        "velocity": 0,
        "byte9": true
      },
      {
        "deltaTime": 0,
        "running": true,
        "channel": 0,
        "type": "noteOff",
        "noteNumber": 89,
        "velocity": 0,
        "byte9": true
      },
      {
        "deltaTime": 25,
        "channel": 0,
        "type": "noteOff",
        "noteNumber": 58,
        "velocity": 0,
        "byte9": true
      },
      {
        "deltaTime": 375,
        "channel": 0,
        "type": "noteOn",
        "noteNumber": 58,
        "velocity": 53
      },
      {
        "deltaTime": 0,
        "running": true,
        "channel": 0,
        "type": "noteOn",
        "noteNumber": 89,
        "velocity": 63
      },
      {
        "deltaTime": 0,
        "running": true,
        "channel": 0,
        "type": "noteOn",
        "noteNumber": 93,
        "velocity": 71
      },
      {
        "deltaTime": 5,
        "channel": 0,
        "type": "noteOn",
        "noteNumber": 62,
        "velocity": 68
      },
      {
        "deltaTime": 0,
        "running": true,
        "channel": 0,
        "type": "noteOn",
        "noteNumber": 81,
        "velocity": 60
      },
      {
        "deltaTime": 0,
        "running": true,
        "channel": 0,
        "type": "noteOn",
        "noteNumber": 86,
        "velocity": 57
      },
      {
        "deltaTime": 5,
        "channel": 0,
        "type": "noteOn",
        "noteNumber": 52,
        "velocity": 62
      },
      {
        "deltaTime": 95,
        "channel": 0,
        "type": "noteOff",
        "noteNumber": 52,
        "velocity": 0,
        "byte9": true
      },
      {
        "deltaTime": 15,
        "channel": 0,
        "type": "noteOff",
        "noteNumber": 62,
        "velocity": 0,
        "byte9": true
      },
      {
        "deltaTime": 0,
        "running": true,
        "channel": 0,
        "type": "noteOff",
        "noteNumber": 89,
        "velocity": 0,
        "byte9": true
      },
      {
        "deltaTime": 5,
        "channel": 0,
        "type": "noteOff",
        "noteNumber": 58,
        "velocity": 0,
        "byte9": true
      },
      {
        "deltaTime": 0,
        "running": true,
        "channel": 0,
        "type": "noteOff",
        "noteNumber": 86,
        "velocity": 0,
        "byte9": true
      },
      {
        "deltaTime": 0,
        "running": true,
        "channel": 0,
        "type": "noteOff",
        "noteNumber": 93,
        "velocity": 0,
        "byte9": true
      },
      {
        "deltaTime": 15,
        "channel": 0,
        "type": "noteOff",
        "noteNumber": 81,
        "velocity": 0,
        "byte9": true
      },
      {
        "deltaTime": 320,
        "channel": 0,
        "type": "noteOn",
        "noteNumber": 58,
        "velocity": 57
      },
      {
        "deltaTime": 0,
        "running": true,
        "channel": 0,
        "type": "noteOn",
        "noteNumber": 82,
        "velocity": 55
      },
      {
        "deltaTime": 5,
        "channel": 0,
        "type": "noteOn",
        "noteNumber": 62,
        "velocity": 68
      },
      {
        "deltaTime": 0,
        "running": true,
        "channel": 0,
        "type": "noteOn",
        "noteNumber": 89,
        "velocity": 66
      },
      {
        "deltaTime": 5,
        "channel": 0,
        "type": "noteOn",
        "noteNumber": 77,
        "velocity": 61
      },
      {
        "deltaTime": 0,
        "running": true,
        "channel": 0,
        "type": "noteOn",
        "noteNumber": 86,
        "velocity": 57
      },
      {
        "deltaTime": 5,
        "channel": 0,
        "type": "noteOn",
        "noteNumber": 52,
        "velocity": 66
      },
      {
        "deltaTime": 120,
        "channel": 0,
        "type": "noteOff",
        "noteNumber": 52,
        "velocity": 0,
        "byte9": true
      },
      {
        "deltaTime": 20,
        "channel": 0,
        "type": "noteOff",
        "noteNumber": 89,
        "velocity": 0,
        "byte9": true
      },
      {
        "deltaTime": 5,
        "channel": 0,
        "type": "noteOff",
        "noteNumber": 62,
        "velocity": 0,
        "byte9": true
      },
      {
        "deltaTime": 0,
        "running": true,
        "channel": 0,
        "type": "noteOff",
        "noteNumber": 86,
        "velocity": 0,
        "byte9": true
      },
      {
        "deltaTime": 10,
        "channel": 0,
        "type": "noteOff",
        "noteNumber": 77,
        "velocity": 0,
        "byte9": true
      },
      {
        "deltaTime": 10,
        "channel": 0,
        "type": "noteOff",
        "noteNumber": 58,
        "velocity": 0,
        "byte9": true
      },
      {
        "deltaTime": 30,
        "channel": 0,
        "type": "noteOff",
        "noteNumber": 82,
        "velocity": 0,
        "byte9": true
      },
      {
        "deltaTime": 300,
        "channel": 0,
        "type": "noteOn",
        "noteNumber": 58,
        "velocity": 57
      },
      {
        "deltaTime": 0,
        "running": true,
        "channel": 0,
        "type": "noteOn",
        "noteNumber": 61,
        "velocity": 69
      },
      {
        "deltaTime": 0,
        "running": true,
        "channel": 0,
        "type": "noteOn",
        "noteNumber": 75,
        "velocity": 77
      },
      {
        "deltaTime": 5,
        "channel": 0,
        "type": "noteOn",
        "noteNumber": 82,
        "velocity": 62
      },
      {
        "deltaTime": 0,
        "running": true,
        "channel": 0,
        "type": "noteOn",
        "noteNumber": 87,
        "velocity": 75
      },
      {
        "deltaTime": 10,
        "channel": 0,
        "type": "noteOn",
        "noteNumber": 52,
        "velocity": 51
      },
      {
        "deltaTime": 35,
        "channel": 0,
        "type": "controller",
        "controllerType": 64,
        "value": 127
      },
      {
        "deltaTime": 165,
        "channel": 0,
        "type": "noteOff",
        "noteNumber": 52,
        "velocity": 0,
        "byte9": true
      },
      {
        "deltaTime": 5,
        "channel": 0,
        "type": "noteOff",
        "noteNumber": 87,
        "velocity": 0,
        "byte9": true
      },
      {
        "deltaTime": 25,
        "channel": 0,
        "type": "noteOff",
        "noteNumber": 75,
        "velocity": 0,
        "byte9": true
      },
      {
        "deltaTime": 0,
        "running": true,
        "channel": 0,
        "type": "noteOff",
        "noteNumber": 82,
        "velocity": 0,
        "byte9": true
      },
      {
        "deltaTime": 5,
        "channel": 0,
        "type": "noteOff",
        "noteNumber": 61,
        "velocity": 0,
        "byte9": true
      },
      {
        "deltaTime": 5,
        "channel": 0,
        "type": "noteOff",
        "noteNumber": 58,
        "velocity": 0,
        "byte9": true
      },
      {
        "deltaTime": 70,
        "channel": 0,
        "type": "noteOn",
        "noteNumber": 85,
        "velocity": 64
      },
      {
        "deltaTime": 5,
        "channel": 0,
        "type": "noteOn",
        "noteNumber": 73,
        "velocity": 60
      },
      {
        "deltaTime": 0,
        "running": true,
        "channel": 0,
        "type": "noteOn",
        "noteNumber": 80,
        "velocity": 62
      },
      {
        "deltaTime": 5,
        "channel": 0,
        "type": "noteOn",
        "noteNumber": 58,
        "velocity": 50
      },
      {
        "deltaTime": 0,
        "running": true,
        "channel": 0,
        "type": "noteOn",
        "noteNumber": 61,
        "velocity": 58
      },
      {
        "deltaTime": 5,
        "channel": 0,
        "type": "noteOn",
        "noteNumber": 52,
        "velocity": 57
      },
      {
        "deltaTime": 40,
        "channel": 0,
        "type": "controller",
        "controllerType": 64,
        "value": 0
      },
      {
        "deltaTime": 40,
        "channel": 0,
        "type": "controller",
        "controllerType": 64,
        "value": 127
      },
      {
        "deltaTime": 200,
        "channel": 0,
        "type": "noteOff",
        "noteNumber": 52,
        "velocity": 0,
        "byte9": true
      },
      {
        "deltaTime": 45,
        "channel": 0,
        "type": "noteOff",
        "noteNumber": 58,
        "velocity": 0,
        "byte9": true
      },
      {
        "deltaTime": 5,
        "channel": 0,
        "type": "noteOff",
        "noteNumber": 61,
        "velocity": 0,
        "byte9": true
      },
      {
        "deltaTime": 35,
        "channel": 0,
        "type": "noteOff",
        "noteNumber": 73,
        "velocity": 0,
        "byte9": true
      },
      {
        "deltaTime": 5,
        "channel": 0,
        "type": "noteOff",
        "noteNumber": 85,
        "velocity": 0,
        "byte9": true
      },
      {
        "deltaTime": 10,
        "channel": 0,
        "type": "noteOff",
        "noteNumber": 80,
        "velocity": 0,
        "byte9": true
      },
      {
        "deltaTime": 80,
        "channel": 0,
        "type": "controller",
        "controllerType": 64,
        "value": 0
      },
      {
        "deltaTime": 5,
        "channel": 0,
        "type": "noteOn",
        "noteNumber": 60,
        "velocity": 69
      },
      {
        "deltaTime": 0,
        "running": true,
        "channel": 0,
        "type": "noteOn",
        "noteNumber": 64,
        "velocity": 74
      },
      {
        "deltaTime": 0,
        "running": true,
        "channel": 0,
        "type": "noteOn",
        "noteNumber": 84,
        "velocity": 80
      },
      {
        "deltaTime": 5,
        "channel": 0,
        "type": "noteOn",
        "noteNumber": 53,
        "velocity": 66
      },
      {
        "deltaTime": 0,
        "running": true,
        "channel": 0,
        "type": "noteOn",
        "noteNumber": 57,
        "velocity": 72
      },
      {
        "deltaTime": 0,
        "running": true,
        "channel": 0,
        "type": "noteOn",
        "noteNumber": 72,
        "velocity": 65
      },
      {
        "deltaTime": 0,
        "running": true,
        "channel": 0,
        "type": "noteOn",
        "noteNumber": 79,
        "velocity": 74
      },
      {
        "deltaTime": 705,
        "channel": 0,
        "type": "controller",
        "controllerType": 64,
        "value": 127
      },
      {
        "deltaTime": 920,
        "channel": 0,
        "type": "noteOff",
        "noteNumber": 84,
        "velocity": 0,
        "byte9": true
      },
      {
        "deltaTime": 20,
        "channel": 0,
        "type": "noteOff",
        "noteNumber": 53,
        "velocity": 0,
        "byte9": true
      },
      {
        "deltaTime": 0,
        "running": true,
        "channel": 0,
        "type": "noteOff",
        "noteNumber": 60,
        "velocity": 0,
        "byte9": true
      },
      {
        "deltaTime": 0,
        "running": true,
        "channel": 0,
        "type": "noteOff",
        "noteNumber": 64,
        "velocity": 0,
        "byte9": true
      },
      {
        "deltaTime": 0,
        "running": true,
        "channel": 0,
        "type": "noteOff",
        "noteNumber": 79,
        "velocity": 0,
        "byte9": true
      },
      {
        "deltaTime": 25,
        "channel": 0,
        "type": "noteOff",
        "noteNumber": 57,
        "velocity": 0,
        "byte9": true
      },
      {
        "deltaTime": 15,
        "channel": 0,
        "type": "noteOff",
        "noteNumber": 72,
        "velocity": 0,
        "byte9": true
      },
      {
        "deltaTime": 370,
        "channel": 0,
        "type": "controller",
        "controllerType": 64,
        "value": 0
      },
      {
        "deltaTime": 40,
        "channel": 0,
        "type": "noteOn",
        "noteNumber": 67,
        "velocity": 52
      },
      {
        "deltaTime": 5,
        "channel": 0,
        "type": "noteOn",
        "noteNumber": 56,
        "velocity": 44
      },
      {
        "deltaTime": 0,
        "running": true,
        "channel": 0,
        "type": "noteOn",
        "noteNumber": 72,
        "velocity": 53
      },
      {
        "deltaTime": 0,
        "running": true,
        "channel": 0,
        "type": "noteOn",
        "noteNumber": 76,
        "velocity": 56
      },
      {
        "deltaTime": 5,
        "channel": 0,
        "type": "noteOn",
        "noteNumber": 62,
        "velocity": 52
      },
      {
        "deltaTime": 45,
        "channel": 0,
        "type": "noteOff",
        "noteNumber": 67,
        "velocity": 0,
        "byte9": true
      },
      {
        "deltaTime": 5,
        "channel": 0,
        "type": "noteOff",
        "noteNumber": 72,
        "velocity": 0,
        "byte9": true
      },
      {
        "deltaTime": 10,
        "channel": 0,
        "type": "noteOff",
        "noteNumber": 56,
        "velocity": 0,
        "byte9": true
      },
      {
        "deltaTime": 0,
        "running": true,
        "channel": 0,
        "type": "noteOff",
        "noteNumber": 62,
        "velocity": 0,
        "byte9": true
      },
      {
        "deltaTime": 0,
        "running": true,
        "channel": 0,
        "type": "noteOff",
        "noteNumber": 76,
        "velocity": 0,
        "byte9": true
      },
      {
        "deltaTime": 715,
        "channel": 0,
        "type": "noteOn",
        "noteNumber": 72,
        "velocity": 74
      },
      {
        "deltaTime": 0,
        "running": true,
        "channel": 0,
        "type": "noteOn",
        "noteNumber": 79,
        "velocity": 76
      },
      {
        "deltaTime": 5,
        "channel": 0,
        "type": "noteOn",
        "noteNumber": 56,
        "velocity": 70
      },
      {
        "deltaTime": 0,
        "running": true,
        "channel": 0,
        "type": "noteOn",
        "noteNumber": 76,
        "velocity": 69
      },
      {
        "deltaTime": 5,
        "channel": 0,
        "type": "noteOn",
        "noteNumber": 67,
        "velocity": 72
      },
      {
        "deltaTime": 10,
        "channel": 0,
        "type": "noteOn",
        "noteNumber": 62,
        "velocity": 60
      },
      {
        "deltaTime": 30,
        "channel": 0,
        "type": "noteOff",
        "noteNumber": 62,
        "velocity": 0,
        "byte9": true
      },
      {
        "deltaTime": 5,
        "channel": 0,
        "type": "noteOff",
        "noteNumber": 72,
        "velocity": 0,
        "byte9": true
      },
      {
        "deltaTime": 5,
        "channel": 0,
        "type": "noteOff",
        "noteNumber": 67,
        "velocity": 0,
        "byte9": true
      },
      {
        "deltaTime": 0,
        "running": true,
        "channel": 0,
        "type": "noteOff",
        "noteNumber": 76,
        "velocity": 0,
        "byte9": true
      },
      {
        "deltaTime": 10,
        "channel": 0,
        "type": "noteOff",
        "noteNumber": 56,
        "velocity": 0,
        "byte9": true
      },
      {
        "deltaTime": 5,
        "channel": 0,
        "type": "noteOff",
        "noteNumber": 79,
        "velocity": 0,
        "byte9": true
      },
      {
        "deltaTime": 400,
        "channel": 0,
        "type": "noteOn",
        "noteNumber": 76,
        "velocity": 76
      },
      {
        "deltaTime": 5,
        "channel": 0,
        "type": "noteOn",
        "noteNumber": 67,
        "velocity": 73
      },
      {
        "deltaTime": 0,
        "running": true,
        "channel": 0,
        "type": "noteOn",
        "noteNumber": 72,
        "velocity": 68
      },
      {
        "deltaTime": 5,
        "channel": 0,
        "type": "noteOn",
        "noteNumber": 56,
        "velocity": 63
      },
      {
        "deltaTime": 0,
        "running": true,
        "channel": 0,
        "type": "noteOn",
        "noteNumber": 62,
        "velocity": 71
      },
      {
        "deltaTime": 160,
        "channel": 0,
        "type": "controller",
        "controllerType": 64,
        "value": 127
      },
      {
        "deltaTime": 195,
        "channel": 0,
        "type": "noteOff",
        "noteNumber": 62,
        "velocity": 0,
        "byte9": true
      },
      {
        "deltaTime": 85,
        "channel": 0,
        "type": "noteOff",
        "noteNumber": 67,
        "velocity": 0,
        "byte9": true
      },
      {
        "deltaTime": 45,
        "channel": 0,
        "type": "noteOff",
        "noteNumber": 56,
        "velocity": 0,
        "byte9": true
      },
      {
        "deltaTime": 15,
        "channel": 0,
        "type": "noteOff",
        "noteNumber": 72,
        "velocity": 0,
        "byte9": true
      },
      {
        "deltaTime": 20,
        "channel": 0,
        "type": "noteOff",
        "noteNumber": 76,
        "velocity": 0,
        "byte9": true
      },
      {
        "deltaTime": 95,
        "channel": 0,
        "type": "controller",
        "controllerType": 64,
        "value": 0
      },
      {
        "deltaTime": 45,
        "channel": 0,
        "type": "noteOn",
        "noteNumber": 72,
        "velocity": 47
      },
      {
        "deltaTime": 5,
        "channel": 0,
        "type": "noteOn",
        "noteNumber": 67,
        "velocity": 32
      },
      {
        "deltaTime": 0,
        "running": true,
        "channel": 0,
        "type": "noteOn",
        "noteNumber": 69,
        "velocity": 48
      },
      {
        "deltaTime": 5,
        "channel": 0,
        "type": "noteOn",
        "noteNumber": 60,
        "velocity": 40
      },
      {
        "deltaTime": 0,
        "running": true,
        "channel": 0,
        "type": "noteOn",
        "noteNumber": 64,
        "velocity": 35
      },
      {
        "deltaTime": 10,
        "channel": 0,
        "type": "noteOn",
        "noteNumber": 55,
        "velocity": 31
      },
      {
        "deltaTime": 0,
        "running": true,
        "channel": 0,
        "type": "noteOn",
        "noteNumber": 57,
        "velocity": 40
      },
      {
        "deltaTime": 30,
        "channel": 0,
        "type": "noteOff",
        "noteNumber": 67,
        "velocity": 0,
        "byte9": true
      },
      {
        "deltaTime": 0,
        "running": true,
        "channel": 0,
        "type": "noteOff",
        "noteNumber": 69,
        "velocity": 0,
        "byte9": true
      },
      {
        "deltaTime": 15,
        "channel": 0,
        "type": "noteOff",
        "noteNumber": 55,
        "velocity": 0,
        "byte9": true
      },
      {
        "deltaTime": 5,
        "channel": 0,
        "type": "noteOff",
        "noteNumber": 64,
        "velocity": 0,
        "byte9": true
      },
      {
        "deltaTime": 0,
        "running": true,
        "channel": 0,
        "type": "noteOff",
        "noteNumber": 72,
        "velocity": 0,
        "byte9": true
      },
      {
        "deltaTime": 5,
        "channel": 0,
        "type": "noteOff",
        "noteNumber": 60,
        "velocity": 0,
        "byte9": true
      },
      {
        "deltaTime": 20,
        "channel": 0,
        "type": "noteOff",
        "noteNumber": 57,
        "velocity": 0,
        "byte9": true
      },
      {
        "deltaTime": 850,
        "channel": 0,
        "type": "noteOn",
        "noteNumber": 67,
        "velocity": 56
      },
      {
        "deltaTime": 0,
        "running": true,
        "channel": 0,
        "type": "noteOn",
        "noteNumber": 69,
        "velocity": 54
      },
      {
        "deltaTime": 0,
        "running": true,
        "channel": 0,
        "type": "noteOn",
        "noteNumber": 72,
        "velocity": 51
      },
      {
        "deltaTime": 5,
        "channel": 0,
        "type": "noteOn",
        "noteNumber": 60,
        "velocity": 45
      },
      {
        "deltaTime": 0,
        "running": true,
        "channel": 0,
        "type": "noteOn",
        "noteNumber": 64,
        "velocity": 46
      },
      {
        "deltaTime": 10,
        "channel": 0,
        "type": "noteOn",
        "noteNumber": 57,
        "velocity": 38
      },
      {
        "deltaTime": 10,
        "channel": 0,
        "type": "noteOn",
        "noteNumber": 55,
        "velocity": 33
      },
      {
        "deltaTime": 180,
        "channel": 0,
        "type": "controller",
        "controllerType": 64,
        "value": 127
      },
      {
        "deltaTime": 195,
        "channel": 0,
        "type": "noteOff",
        "noteNumber": 60,
        "velocity": 0,
        "byte9": true
      },
      {
        "deltaTime": 5,
        "channel": 0,
        "type": "noteOff",
        "noteNumber": 55,
        "velocity": 0,
        "byte9": true
      },
      {
        "deltaTime": 15,
        "channel": 0,
        "type": "noteOff",
        "noteNumber": 64,
        "velocity": 0,
        "byte9": true
      },
      {
        "deltaTime": 5,
        "channel": 0,
        "type": "noteOff",
        "noteNumber": 69,
        "velocity": 0,
        "byte9": true
      },
      {
        "deltaTime": 5,
        "channel": 0,
        "type": "noteOff",
        "noteNumber": 57,
        "velocity": 0,
        "byte9": true
      },
      {
        "deltaTime": 10,
        "channel": 0,
        "type": "noteOff",
        "noteNumber": 67,
        "velocity": 0,
        "byte9": true
      },
      {
        "deltaTime": 20,
        "channel": 0,
        "type": "noteOff",
        "noteNumber": 72,
        "velocity": 0,
        "byte9": true
      },
      {
        "deltaTime": 315,
        "channel": 0,
        "type": "controller",
        "controllerType": 64,
        "value": 0
      },
      {
        "deltaTime": 20,
        "channel": 0,
        "type": "noteOn",
        "noteNumber": 71,
        "velocity": 87
      },
      {
        "deltaTime": 0,
        "running": true,
        "channel": 0,
        "type": "noteOn",
        "noteNumber": 79,
        "velocity": 84
      },
      {
        "deltaTime": 5,
        "channel": 0,
        "type": "noteOn",
        "noteNumber": 67,
        "velocity": 87
      },
      {
        "deltaTime": 0,
        "running": true,
        "channel": 0,
        "type": "noteOn",
        "noteNumber": 68,
        "velocity": 85
      },
      {
        "deltaTime": 5,
        "channel": 0,
        "type": "noteOn",
        "noteNumber": 74,
        "velocity": 78
      },
      {
        "deltaTime": 530,
        "channel": 0,
        "type": "noteOff",
        "noteNumber": 68,
        "velocity": 0,
        "byte9": true
      },
      {
        "deltaTime": 15,
        "channel": 0,
        "type": "noteOff",
        "noteNumber": 71,
        "velocity": 0,
        "byte9": true
      },
      {
        "deltaTime": 5,
        "channel": 0,
        "type": "controller",
        "controllerType": 64,
        "value": 127
      },
      {
        "deltaTime": 0,
        "channel": 0,
        "type": "noteOff",
        "noteNumber": 79,
        "velocity": 0,
        "byte9": true
      },
      {
        "deltaTime": 10,
        "channel": 0,
        "type": "noteOff",
        "noteNumber": 74,
        "velocity": 0,
        "byte9": true
      },
      {
        "deltaTime": 5,
        "channel": 0,
        "type": "controller",
        "controllerType": 64,
        "value": 0
      },
      {
        "deltaTime": 25,
        "channel": 0,
        "type": "noteOff",
        "noteNumber": 67,
        "velocity": 0,
        "byte9": true
      },
      {
        "deltaTime": 30,
        "channel": 0,
        "type": "noteOn",
        "noteNumber": 68,
        "velocity": 59
      },
      {
        "deltaTime": 10,
        "channel": 0,
        "type": "noteOn",
        "noteNumber": 65,
        "velocity": 62
      },
      {
        "deltaTime": 0,
        "running": true,
        "channel": 0,
        "type": "noteOn",
        "noteNumber": 71,
        "velocity": 50
      },
      {
        "deltaTime": 5,
        "channel": 0,
        "type": "noteOn",
        "noteNumber": 74,
        "velocity": 60
      },
      {
        "deltaTime": 0,
        "running": true,
        "channel": 0,
        "type": "noteOn",
        "noteNumber": 77,
        "velocity": 56
      },
      {
        "deltaTime": 255,
        "channel": 0,
        "type": "noteOff",
        "noteNumber": 77,
        "velocity": 0,
        "byte9": true
      },
      {
        "deltaTime": 50,
        "channel": 0,
        "type": "noteOff",
        "noteNumber": 71,
        "velocity": 0,
        "byte9": true
      },
      {
        "deltaTime": 15,
        "channel": 0,
        "type": "noteOff",
        "noteNumber": 68,
        "velocity": 0,
        "byte9": true
      },
      {
        "deltaTime": 20,
        "channel": 0,
        "type": "noteOff",
        "noteNumber": 74,
        "velocity": 0,
        "byte9": true
      },
      {
        "deltaTime": 50,
        "channel": 0,
        "type": "noteOff",
        "noteNumber": 65,
        "velocity": 0,
        "byte9": true
      },
      {
        "deltaTime": 80,
        "channel": 0,
        "type": "noteOn",
        "noteNumber": 68,
        "velocity": 53
      },
      {
        "deltaTime": 5,
        "channel": 0,
        "type": "noteOn",
        "noteNumber": 64,
        "velocity": 55
      },
      {
        "deltaTime": 0,
        "running": true,
        "channel": 0,
        "type": "noteOn",
        "noteNumber": 76,
        "velocity": 61
      },
      {
        "deltaTime": 20,
        "channel": 0,
        "type": "noteOn",
        "noteNumber": 71,
        "velocity": 37
      },
      {
        "deltaTime": 25,
        "channel": 0,
        "type": "controller",
        "controllerType": 64,
        "value": 127
      },
      {
        "deltaTime": 75,
        "channel": 0,
        "type": "noteOff",
        "noteNumber": 71,
        "velocity": 0,
        "byte9": true
      },
      {
        "deltaTime": 70,
        "channel": 0,
        "type": "noteOff",
        "noteNumber": 68,
        "velocity": 0,
        "byte9": true
      },
      {
        "deltaTime": 5,
        "channel": 0,
        "type": "noteOff",
        "noteNumber": 76,
        "velocity": 0,
        "byte9": true
      },
      {
        "deltaTime": 110,
        "channel": 0,
        "type": "noteOn",
        "noteNumber": 65,
        "velocity": 71
      },
      {
        "deltaTime": 5,
        "channel": 0,
        "type": "noteOn",
        "noteNumber": 77,
        "velocity": 68
      },
      {
        "deltaTime": 5,
        "channel": 0,
        "type": "noteOn",
        "noteNumber": 68,
        "velocity": 62
      },
      {
        "deltaTime": 10,
        "channel": 0,
        "type": "noteOff",
        "noteNumber": 64,
        "velocity": 0,
        "byte9": true
      },
      {
        "deltaTime": 0,
        "running": true,
        "channel": 0,
        "type": "noteOn",
        "noteNumber": 71,
        "velocity": 53
      },
      {
        "deltaTime": 15,
        "channel": 0,
        "type": "controller",
        "controllerType": 64,
        "value": 0
      },
      {
        "deltaTime": 10,
        "channel": 0,
        "type": "noteOff",
        "noteNumber": 71,
        "velocity": 0,
        "byte9": true
      },
      {
        "deltaTime": 15,
        "channel": 0,
        "type": "noteOff",
        "noteNumber": 65,
        "velocity": 0,
        "byte9": true
      },
      {
        "deltaTime": 15,
        "channel": 0,
        "type": "noteOff",
        "noteNumber": 77,
        "velocity": 0,
        "byte9": true
      },
      {
        "deltaTime": 20,
        "channel": 0,
        "type": "noteOff",
        "noteNumber": 68,
        "velocity": 0,
        "byte9": true
      },
      {
        "deltaTime": 385,
        "channel": 0,
        "type": "noteOn",
        "noteNumber": 58,
        "velocity": 54
      },
      {
        "deltaTime": 40,
        "channel": 0,
        "type": "controller",
        "controllerType": 64,
        "value": 127
      },
      {
        "deltaTime": 25,
        "channel": 0,
        "type": "noteOff",
        "noteNumber": 58,
        "velocity": 0,
        "byte9": true
      },
      {
        "deltaTime": 45,
        "channel": 0,
        "type": "controller",
        "controllerType": 64,
        "value": 0
      },
      {
        "deltaTime": 395,
        "channel": 0,
        "type": "noteOn",
        "noteNumber": 58,
        "velocity": 60
      },
      {
        "deltaTime": 0,
        "running": true,
        "channel": 0,
        "type": "noteOn",
        "noteNumber": 69,
        "velocity": 88
      },
      {
        "deltaTime": 5,
        "channel": 0,
        "type": "noteOn",
        "noteNumber": 60,
        "velocity": 65
      },
      {
        "deltaTime": 0,
        "running": true,
        "channel": 0,
        "type": "noteOn",
        "noteNumber": 65,
        "velocity": 80
      },
      {
        "deltaTime": 5,
        "channel": 0,
        "type": "noteOn",
        "noteNumber": 62,
        "velocity": 74
      },
      {
        "deltaTime": 0,
        "running": true,
        "channel": 0,
        "type": "noteOn",
        "noteNumber": 72,
        "velocity": 74
      },
      {
        "deltaTime": 240,
        "channel": 0,
        "type": "controller",
        "controllerType": 64,
        "value": 127
      },
      {
        "deltaTime": 265,
        "channel": 0,
        "type": "noteOff",
        "noteNumber": 69,
        "velocity": 0,
        "byte9": true
      },
      {
        "deltaTime": 25,
        "channel": 0,
        "type": "noteOff",
        "noteNumber": 60,
        "velocity": 0,
        "byte9": true
      },
      {
        "deltaTime": 0,
        "running": true,
        "channel": 0,
        "type": "noteOff",
        "noteNumber": 62,
        "velocity": 0,
        "byte9": true
      },
      {
        "deltaTime": 0,
        "running": true,
        "channel": 0,
        "type": "noteOff",
        "noteNumber": 65,
        "velocity": 0,
        "byte9": true
      },
      {
        "deltaTime": 35,
        "channel": 0,
        "type": "noteOff",
        "noteNumber": 58,
        "velocity": 0,
        "byte9": true
      },
      {
        "deltaTime": 35,
        "channel": 0,
        "type": "controller",
        "controllerType": 64,
        "value": 0
      },
      {
        "deltaTime": 45,
        "channel": 0,
        "type": "noteOff",
        "noteNumber": 72,
        "velocity": 0,
        "byte9": true
      },
      {
        "deltaTime": 10,
        "channel": 0,
        "type": "noteOn",
        "noteNumber": 58,
        "velocity": 36
      },
      {
        "deltaTime": 10,
        "channel": 0,
        "type": "noteOn",
        "noteNumber": 62,
        "velocity": 36
      },
      {
        "deltaTime": 5,
        "channel": 0,
        "type": "noteOn",
        "noteNumber": 60,
        "velocity": 43
      },
      {
        "deltaTime": 0,
        "running": true,
        "channel": 0,
        "type": "noteOn",
        "noteNumber": 65,
        "velocity": 36
      },
      {
        "deltaTime": 0,
        "running": true,
        "channel": 0,
        "type": "noteOn",
        "noteNumber": 69,
        "velocity": 53
      },
      {
        "deltaTime": 35,
        "channel": 0,
        "type": "noteOff",
        "noteNumber": 60,
        "velocity": 0,
        "byte9": true
      },
      {
        "deltaTime": 20,
        "channel": 0,
        "type": "noteOff",
        "noteNumber": 62,
        "velocity": 0,
        "byte9": true
      },
      {
        "deltaTime": 10,
        "channel": 0,
        "type": "noteOff",
        "noteNumber": 65,
        "velocity": 0,
        "byte9": true
      },
      {
        "deltaTime": 10,
        "channel": 0,
        "type": "noteOff",
        "noteNumber": 69,
        "velocity": 0,
        "byte9": true
      },
      {
        "deltaTime": 15,
        "channel": 0,
        "type": "noteOff",
        "noteNumber": 58,
        "velocity": 0,
        "byte9": true
      },
      {
        "deltaTime": 355,
        "channel": 0,
        "type": "noteOn",
        "noteNumber": 69,
        "velocity": 40
      },
      {
        "deltaTime": 5,
        "channel": 0,
        "type": "noteOn",
        "noteNumber": 62,
        "velocity": 40
      },
      {
        "deltaTime": 5,
        "channel": 0,
        "type": "noteOn",
        "noteNumber": 65,
        "velocity": 34
      },
      {
        "deltaTime": 5,
        "channel": 0,
        "type": "noteOn",
        "noteNumber": 58,
        "velocity": 33
      },
      {
        "deltaTime": 5,
        "channel": 0,
        "type": "noteOn",
        "noteNumber": 60,
        "velocity": 37
      },
      {
        "deltaTime": 85,
        "channel": 0,
        "type": "noteOff",
        "noteNumber": 60,
        "velocity": 0,
        "byte9": true
      },
      {
        "deltaTime": 15,
        "channel": 0,
        "type": "noteOff",
        "noteNumber": 62,
        "velocity": 0,
        "byte9": true
      },
      {
        "deltaTime": 0,
        "running": true,
        "channel": 0,
        "type": "noteOff",
        "noteNumber": 65,
        "velocity": 0,
        "byte9": true
      },
      {
        "deltaTime": 5,
        "channel": 0,
        "type": "noteOff",
        "noteNumber": 69,
        "velocity": 0,
        "byte9": true
      },
      {
        "deltaTime": 5,
        "channel": 0,
        "type": "noteOff",
        "noteNumber": 58,
        "velocity": 0,
        "byte9": true
      },
      {
        "deltaTime": 335,
        "channel": 0,
        "type": "noteOn",
        "noteNumber": 68,
        "velocity": 60
      },
      {
        "deltaTime": 10,
        "channel": 0,
        "type": "noteOn",
        "noteNumber": 64,
        "velocity": 62
      },
      {
        "deltaTime": 0,
        "running": true,
        "channel": 0,
        "type": "noteOn",
        "noteNumber": 72,
        "velocity": 60
      },
      {
        "deltaTime": 15,
        "channel": 0,
        "type": "noteOn",
        "noteNumber": 58,
        "velocity": 50
      },
      {
        "deltaTime": 90,
        "channel": 0,
        "type": "controller",
        "controllerType": 64,
        "value": 127
      },
      {
        "deltaTime": 430,
        "channel": 0,
        "type": "noteOff",
        "noteNumber": 58,
        "velocity": 0,
        "byte9": true
      },
      {
        "deltaTime": 15,
        "channel": 0,
        "type": "noteOff",
        "noteNumber": 64,
        "velocity": 0,
        "byte9": true
      },
      {
        "deltaTime": 20,
        "channel": 0,
        "type": "noteOff",
        "noteNumber": 72,
        "velocity": 0,
        "byte9": true
      },
      {
        "deltaTime": 10,
        "channel": 0,
        "type": "noteOff",
        "noteNumber": 68,
        "velocity": 0,
        "byte9": true
      },
      {
        "deltaTime": 200,
        "channel": 0,
        "type": "noteOn",
        "noteNumber": 68,
        "velocity": 62
      },
      {
        "deltaTime": 5,
        "channel": 0,
        "type": "noteOn",
        "noteNumber": 72,
        "velocity": 62
      },
      {
        "deltaTime": 5,
        "channel": 0,
        "type": "noteOn",
        "noteNumber": 58,
        "velocity": 64
      },
      {
        "deltaTime": 0,
        "running": true,
        "channel": 0,
        "type": "noteOn",
        "noteNumber": 64,
        "velocity": 64
      },
      {
        "deltaTime": 10,
        "channel": 0,
        "type": "controller",
        "controllerType": 64,
        "value": 0
      },
      {
        "deltaTime": 100,
        "channel": 0,
        "type": "controller",
        "controllerType": 64,
        "value": 127
      },
      {
        "deltaTime": 15,
        "channel": 0,
        "type": "noteOff",
        "noteNumber": 64,
        "velocity": 0,
        "byte9": true
      },
      {
        "deltaTime": 30,
        "channel": 0,
        "type": "noteOff",
        "noteNumber": 68,
        "velocity": 0,
        "byte9": true
      },
      {
        "deltaTime": 15,
        "channel": 0,
        "type": "noteOff",
        "noteNumber": 58,
        "velocity": 0,
        "byte9": true
      },
      {
        "deltaTime": 5,
        "channel": 0,
        "type": "noteOff",
        "noteNumber": 72,
        "velocity": 0,
        "byte9": true
      },
      {
        "deltaTime": 320,
        "channel": 0,
        "type": "controller",
        "controllerType": 64,
        "value": 0
      },
      {
        "deltaTime": 0,
        "channel": 0,
        "type": "noteOn",
        "noteNumber": 92,
        "velocity": 87
      },
      {
        "deltaTime": 5,
        "channel": 0,
        "type": "noteOn",
        "noteNumber": 62,
        "velocity": 82
      },
      {
        "deltaTime": 0,
        "running": true,
        "channel": 0,
        "type": "noteOn",
        "noteNumber": 80,
        "velocity": 87
      },
      {
        "deltaTime": 0,
        "running": true,
        "channel": 0,
        "type": "noteOn",
        "noteNumber": 87,
        "velocity": 83
      },
      {
        "deltaTime": 5,
        "channel": 0,
        "type": "noteOn",
        "noteNumber": 56,
        "velocity": 80
      },
      {
        "deltaTime": 0,
        "running": true,
        "channel": 0,
        "type": "noteOn",
        "noteNumber": 67,
        "velocity": 89
      },
      {
        "deltaTime": 125,
        "channel": 0,
        "type": "controller",
        "controllerType": 64,
        "value": 127
      },
      {
        "deltaTime": 195,
        "channel": 0,
        "type": "noteOff",
        "noteNumber": 62,
        "velocity": 0,
        "byte9": true
      },
      {
        "deltaTime": 25,
        "channel": 0,
        "type": "noteOff",
        "noteNumber": 67,
        "velocity": 0,
        "byte9": true
      },
      {
        "deltaTime": 15,
        "channel": 0,
        "type": "noteOff",
        "noteNumber": 80,
        "velocity": 0,
        "byte9": true
      },
      {
        "deltaTime": 5,
        "channel": 0,
        "type": "noteOff",
        "noteNumber": 92,
        "velocity": 0,
        "byte9": true
      },
      {
        "deltaTime": 15,
        "channel": 0,
        "type": "noteOff",
        "noteNumber": 87,
        "velocity": 0,
        "byte9": true
      },
      {
        "deltaTime": 50,
        "channel": 0,
        "type": "noteOff",
        "noteNumber": 56,
        "velocity": 0,
        "byte9": true
      },
      {
        "deltaTime": 135,
        "channel": 0,
        "type": "controller",
        "controllerType": 64,
        "value": 0
      },
      {
        "deltaTime": 60,
        "channel": 0,
        "type": "noteOn",
        "noteNumber": 91,
        "velocity": 58
      },
      {
        "deltaTime": 5,
        "channel": 0,
        "type": "noteOn",
        "noteNumber": 86,
        "velocity": 51
      },
      {
        "deltaTime": 5,
        "channel": 0,
        "type": "noteOn",
        "noteNumber": 79,
        "velocity": 33
      },
      {
        "deltaTime": 5,
        "channel": 0,
        "type": "noteOn",
        "noteNumber": 60,
        "velocity": 52
      },
      {
        "deltaTime": 0,
        "running": true,
        "channel": 0,
        "type": "noteOn",
        "noteNumber": 64,
        "velocity": 54
      },
      {
        "deltaTime": 5,
        "channel": 0,
        "type": "noteOn",
        "noteNumber": 55,
        "velocity": 58
      },
      {
        "deltaTime": 150,
        "channel": 0,
        "type": "noteOff",
        "noteNumber": 60,
        "velocity": 0,
        "byte9": true
      },
      {
        "deltaTime": 0,
        "running": true,
        "channel": 0,
        "type": "noteOff",
        "noteNumber": 64,
        "velocity": 0,
        "byte9": true
      },
      {
        "deltaTime": 0,
        "running": true,
        "channel": 0,
        "type": "noteOff",
        "noteNumber": 86,
        "velocity": 0,
        "byte9": true
      },
      {
        "deltaTime": 5,
        "channel": 0,
        "type": "noteOff",
        "noteNumber": 55,
        "velocity": 0,
        "byte9": true
      },
      {
        "deltaTime": 0,
        "running": true,
        "channel": 0,
        "type": "noteOff",
        "noteNumber": 91,
        "velocity": 0,
        "byte9": true
      },
      {
        "deltaTime": 5,
        "channel": 0,
        "type": "noteOff",
        "noteNumber": 79,
        "velocity": 0,
        "byte9": true
      },
      {
        "deltaTime": 800,
        "channel": 0,
        "type": "noteOn",
        "noteNumber": 88,
        "velocity": 68
      },
      {
        "deltaTime": 5,
        "channel": 0,
        "type": "noteOn",
        "noteNumber": 60,
        "velocity": 48
      },
      {
        "deltaTime": 0,
        "running": true,
        "channel": 0,
        "type": "noteOn",
        "noteNumber": 76,
        "velocity": 55
      },
      {
        "deltaTime": 5,
        "channel": 0,
        "type": "noteOn",
        "noteNumber": 55,
        "velocity": 53
      },
      {
        "deltaTime": 0,
        "running": true,
        "channel": 0,
        "type": "noteOn",
        "noteNumber": 64,
        "velocity": 50
      },
      {
        "deltaTime": 5,
        "channel": 0,
        "type": "noteOn",
        "noteNumber": 83,
        "velocity": 50
      },
      {
        "deltaTime": 10,
        "channel": 0,
        "type": "controller",
        "controllerType": 64,
        "value": 127
      },
      {
        "deltaTime": 45,
        "channel": 0,
        "type": "noteOff",
        "noteNumber": 55,
        "velocity": 0,
        "byte9": true
      },
      {
        "deltaTime": 20,
        "channel": 0,
        "type": "noteOff",
        "noteNumber": 88,
        "velocity": 0,
        "byte9": true
      },
      {
        "deltaTime": 5,
        "channel": 0,
        "type": "noteOff",
        "noteNumber": 64,
        "velocity": 0,
        "byte9": true
      },
      {
        "deltaTime": 10,
        "channel": 0,
        "type": "noteOff",
        "noteNumber": 83,
        "velocity": 0,
        "byte9": true
      },
      {
        "deltaTime": 10,
        "channel": 0,
        "type": "noteOff",
        "noteNumber": 60,
        "velocity": 0,
        "byte9": true
      },
      {
        "deltaTime": 0,
        "running": true,
        "channel": 0,
        "type": "noteOff",
        "noteNumber": 76,
        "velocity": 0,
        "byte9": true
      },
      {
        "deltaTime": 215,
        "channel": 0,
        "type": "noteOn",
        "noteNumber": 84,
        "velocity": 64
      },
      {
        "deltaTime": 5,
        "channel": 0,
        "type": "noteOn",
        "noteNumber": 72,
        "velocity": 49
      },
      {
        "deltaTime": 5,
        "channel": 0,
        "type": "noteOn",
        "noteNumber": 79,
        "velocity": 50
      },
      {
        "deltaTime": 10,
        "channel": 0,
        "type": "noteOn",
        "noteNumber": 64,
        "velocity": 57
      },
      {
        "deltaTime": 5,
        "channel": 0,
        "type": "noteOn",
        "noteNumber": 55,
        "velocity": 58
      },
      {
        "deltaTime": 0,
        "running": true,
        "channel": 0,
        "type": "noteOn",
        "noteNumber": 60,
        "velocity": 49
      },
      {
        "deltaTime": 40,
        "channel": 0,
        "type": "noteOff",
        "noteNumber": 60,
        "velocity": 0,
        "byte9": true
      },
      {
        "deltaTime": 5,
        "channel": 0,
        "type": "noteOff",
        "noteNumber": 64,
        "velocity": 0,
        "byte9": true
      },
      {
        "deltaTime": 5,
        "channel": 0,
        "type": "controller",
        "controllerType": 64,
        "value": 0
      },
      {
        "deltaTime": 10,
        "channel": 0,
        "type": "noteOff",
        "noteNumber": 84,
        "velocity": 0,
        "byte9": true
      },
      {
        "deltaTime": 5,
        "channel": 0,
        "type": "noteOff",
        "noteNumber": 55,
        "velocity": 0,
        "byte9": true
      },
      {
        "deltaTime": 0,
        "running": true,
        "channel": 0,
        "type": "noteOff",
        "noteNumber": 79,
        "velocity": 0,
        "byte9": true
      },
      {
        "deltaTime": 5,
        "channel": 0,
        "type": "noteOff",
        "noteNumber": 72,
        "velocity": 0,
        "byte9": true
      },
      {
        "deltaTime": 370,
        "channel": 0,
        "type": "noteOn",
        "noteNumber": 68,
        "velocity": 57
      },
      {
        "deltaTime": 5,
        "channel": 0,
        "type": "noteOn",
        "noteNumber": 64,
        "velocity": 63
      },
      {
        "deltaTime": 0,
        "running": true,
        "channel": 0,
        "type": "noteOn",
        "noteNumber": 71,
        "velocity": 68
      },
      {
        "deltaTime": 5,
        "channel": 0,
        "type": "noteOn",
        "noteNumber": 60,
        "velocity": 57
      },
      {
        "deltaTime": 5,
        "channel": 0,
        "type": "noteOn",
        "noteNumber": 54,
        "velocity": 59
      },
      {
        "deltaTime": 175,
        "channel": 0,
        "type": "controller",
        "controllerType": 64,
        "value": 127
      },
      {
        "deltaTime": 300,
        "channel": 0,
        "type": "noteOff",
        "noteNumber": 54,
        "velocity": 0,
        "byte9": true
      },
      {
        "deltaTime": 15,
        "channel": 0,
        "type": "noteOff",
        "noteNumber": 64,
        "velocity": 0,
        "byte9": true
      },
      {
        "deltaTime": 5,
        "channel": 0,
        "type": "noteOff",
        "noteNumber": 60,
        "velocity": 0,
        "byte9": true
      },
      {
        "deltaTime": 0,
        "running": true,
        "channel": 0,
        "type": "noteOff",
        "noteNumber": 68,
        "velocity": 0,
        "byte9": true
      },
      {
        "deltaTime": 40,
        "channel": 0,
        "type": "noteOff",
        "noteNumber": 71,
        "velocity": 0,
        "byte9": true
      },
      {
        "deltaTime": 20,
        "channel": 0,
        "type": "controller",
        "controllerType": 64,
        "value": 0
      },
      {
        "deltaTime": 75,
        "channel": 0,
        "type": "noteOn",
        "noteNumber": 54,
        "velocity": 48
      },
      {
        "deltaTime": 5,
        "channel": 0,
        "type": "noteOn",
        "noteNumber": 60,
        "velocity": 45
      },
      {
        "deltaTime": 0,
        "running": true,
        "channel": 0,
        "type": "noteOn",
        "noteNumber": 64,
        "velocity": 51
      },
      {
        "deltaTime": 0,
        "running": true,
        "channel": 0,
        "type": "noteOn",
        "noteNumber": 68,
        "velocity": 49
      },
      {
        "deltaTime": 5,
        "channel": 0,
        "type": "noteOn",
        "noteNumber": 72,
        "velocity": 51
      },
      {
        "deltaTime": 80,
        "channel": 0,
        "type": "noteOff",
        "noteNumber": 60,
        "velocity": 0,
        "byte9": true
      },
      {
        "deltaTime": 0,
        "running": true,
        "channel": 0,
        "type": "noteOff",
        "noteNumber": 64,
        "velocity": 0,
        "byte9": true
      },
      {
        "deltaTime": 5,
        "channel": 0,
        "type": "noteOff",
        "noteNumber": 54,
        "velocity": 0,
        "byte9": true
      },
      {
        "deltaTime": 5,
        "channel": 0,
        "type": "noteOff",
        "noteNumber": 68,
        "velocity": 0,
        "byte9": true
      },
      {
        "deltaTime": 15,
        "channel": 0,
        "type": "noteOff",
        "noteNumber": 72,
        "velocity": 0,
        "byte9": true
      },
      {
        "deltaTime": 345,
        "channel": 0,
        "type": "noteOn",
        "noteNumber": 54,
        "velocity": 51
      },
      {
        "deltaTime": 0,
        "running": true,
        "channel": 0,
        "type": "noteOn",
        "noteNumber": 60,
        "velocity": 53
      },
      {
        "deltaTime": 5,
        "channel": 0,
        "type": "noteOn",
        "noteNumber": 74,
        "velocity": 51
      },
      {
        "deltaTime": 5,
        "channel": 0,
        "type": "noteOn",
        "noteNumber": 64,
        "velocity": 47
      },
      {
        "deltaTime": 0,
        "running": true,
        "channel": 0,
        "type": "noteOn",
        "noteNumber": 68,
        "velocity": 33
      },
      {
        "deltaTime": 5,
        "channel": 0,
        "type": "noteOn",
        "noteNumber": 71,
        "velocity": 36
      },
      {
        "deltaTime": 5,
        "channel": 0,
        "type": "controller",
        "controllerType": 64,
        "value": 127
      },
      {
        "deltaTime": 140,
        "channel": 0,
        "type": "noteOff",
        "noteNumber": 54,
        "velocity": 0,
        "byte9": true
      },
      {
        "deltaTime": 10,
        "channel": 0,
        "type": "noteOff",
        "noteNumber": 60,
        "velocity": 0,
        "byte9": true
      },
      {
        "deltaTime": 15,
        "channel": 0,
        "type": "noteOff",
        "noteNumber": 71,
        "velocity": 0,
        "byte9": true
      },
      {
        "deltaTime": 15,
        "channel": 0,
        "type": "noteOff",
        "noteNumber": 64,
        "velocity": 0,
        "byte9": true
      },
      {
        "deltaTime": 15,
        "channel": 0,
        "type": "noteOff",
        "noteNumber": 68,
        "velocity": 0,
        "byte9": true
      },
      {
        "deltaTime": 20,
        "channel": 0,
        "type": "noteOff",
        "noteNumber": 74,
        "velocity": 0,
        "byte9": true
      },
      {
        "deltaTime": 70,
        "channel": 0,
        "type": "noteOn",
        "noteNumber": 68,
        "velocity": 45
      },
      {
        "deltaTime": 5,
        "channel": 0,
        "type": "noteOn",
        "noteNumber": 64,
        "velocity": 58
      },
      {
        "deltaTime": 5,
        "channel": 0,
        "type": "noteOn",
        "noteNumber": 60,
        "velocity": 66
      },
      {
        "deltaTime": 0,
        "running": true,
        "channel": 0,
        "type": "noteOn",
        "noteNumber": 72,
        "velocity": 58
      },
      {
        "deltaTime": 15,
        "channel": 0,
        "type": "noteOn",
        "noteNumber": 54,
        "velocity": 46
      },
      {
        "deltaTime": 5,
        "channel": 0,
        "type": "noteOff",
        "noteNumber": 64,
        "velocity": 0,
        "byte9": true
      },
      {
        "deltaTime": 20,
        "channel": 0,
        "type": "noteOff",
        "noteNumber": 68,
        "velocity": 0,
        "byte9": true
      },
      {
        "deltaTime": 15,
        "channel": 0,
        "type": "noteOff",
        "noteNumber": 54,
        "velocity": 0,
        "byte9": true
      },
      {
        "deltaTime": 0,
        "running": true,
        "channel": 0,
        "type": "noteOff",
        "noteNumber": 60,
        "velocity": 0,
        "byte9": true
      },
      {
        "deltaTime": 10,
        "channel": 0,
        "type": "noteOff",
        "noteNumber": 72,
        "velocity": 0,
        "byte9": true
      },
      {
        "deltaTime": 25,
        "channel": 0,
        "type": "controller",
        "controllerType": 64,
        "value": 0
      },
      {
        "deltaTime": 375,
        "channel": 0,
        "type": "noteOn",
        "noteNumber": 90,
        "velocity": 76
      },
      {
        "deltaTime": 5,
        "channel": 0,
        "type": "noteOn",
        "noteNumber": 78,
        "velocity": 64
      },
      {
        "deltaTime": 5,
        "channel": 0,
        "type": "noteOn",
        "noteNumber": 57,
        "velocity": 48
      },
      {
        "deltaTime": 0,
        "running": true,
        "channel": 0,
        "type": "noteOn",
        "noteNumber": 62,
        "velocity": 64
      },
      {
        "deltaTime": 0,
        "running": true,
        "channel": 0,
        "type": "noteOn",
        "noteNumber": 66,
        "velocity": 51
      },
      {
        "deltaTime": 5,
        "channel": 0,
        "type": "noteOn",
        "noteNumber": 61,
        "velocity": 50
      },
      {
        "deltaTime": 20,
        "channel": 0,
        "type": "noteOff",
        "noteNumber": 66,
        "velocity": 0,
        "byte9": true
      },
      {
        "deltaTime": 5,
        "channel": 0,
        "type": "noteOff",
        "noteNumber": 57,
        "velocity": 0,
        "byte9": true
      },
      {
        "deltaTime": 5,
        "channel": 0,
        "type": "noteOff",
        "noteNumber": 62,
        "velocity": 0,
        "byte9": true
      },
      {
        "deltaTime": 0,
        "running": true,
        "channel": 0,
        "type": "noteOff",
        "noteNumber": 78,
        "velocity": 0,
        "byte9": true
      },
      {
        "deltaTime": 15,
        "channel": 0,
        "type": "noteOff",
        "noteNumber": 61,
        "velocity": 0,
        "byte9": true
      },
      {
        "deltaTime": 10,
        "channel": 0,
        "type": "noteOff",
        "noteNumber": 90,
        "velocity": 0,
        "byte9": true
      },
      {
        "deltaTime": 415,
        "channel": 0,
        "type": "noteOn",
        "noteNumber": 74,
        "velocity": 82
      },
      {
        "deltaTime": 0,
        "running": true,
        "channel": 0,
        "type": "noteOn",
        "noteNumber": 86,
        "velocity": 80
      },
      {
        "deltaTime": 5,
        "channel": 0,
        "type": "noteOn",
        "noteNumber": 57,
        "velocity": 64
      },
      {
        "deltaTime": 5,
        "channel": 0,
        "type": "noteOn",
        "noteNumber": 61,
        "velocity": 54
      },
      {
        "deltaTime": 0,
        "running": true,
        "channel": 0,
        "type": "noteOn",
        "noteNumber": 62,
        "velocity": 64
      },
      {
        "deltaTime": 0,
        "running": true,
        "channel": 0,
        "type": "noteOn",
        "noteNumber": 66,
        "velocity": 64
      },
      {
        "deltaTime": 145,
        "channel": 0,
        "type": "controller",
        "controllerType": 64,
        "value": 127
      },
      {
        "deltaTime": 485,
        "channel": 0,
        "type": "noteOff",
        "noteNumber": 66,
        "velocity": 0,
        "byte9": true
      },
      {
        "deltaTime": 55,
        "channel": 0,
        "type": "noteOff",
        "noteNumber": 57,
        "velocity": 0,
        "byte9": true
      },
      {
        "deltaTime": 15,
        "channel": 0,
        "type": "noteOff",
        "noteNumber": 62,
        "velocity": 0,
        "byte9": true
      },
      {
        "deltaTime": 10,
        "channel": 0,
        "type": "noteOff",
        "noteNumber": 86,
        "velocity": 0,
        "byte9": true
      },
      {
        "deltaTime": 15,
        "channel": 0,
        "type": "noteOff",
        "noteNumber": 74,
        "velocity": 0,
        "byte9": true
      },
      {
        "deltaTime": 45,
        "channel": 0,
        "type": "noteOff",
        "noteNumber": 61,
        "velocity": 0,
        "byte9": true
      },
      {
        "deltaTime": 210,
        "channel": 0,
        "type": "noteOn",
        "noteNumber": 71,
        "velocity": 51
      },
      {
        "deltaTime": 25,
        "channel": 0,
        "type": "noteOff",
        "noteNumber": 71,
        "velocity": 0,
        "byte9": true
      },
      {
        "deltaTime": 45,
        "channel": 0,
        "type": "controller",
        "controllerType": 64,
        "value": 0
      },
      {
        "deltaTime": 60,
        "channel": 0,
        "type": "noteOn",
        "noteNumber": 66,
        "velocity": 62
      },
      {
        "deltaTime": 0,
        "running": true,
        "channel": 0,
        "type": "noteOn",
        "noteNumber": 74,
        "velocity": 72
      },
      {
        "deltaTime": 10,
        "channel": 0,
        "type": "noteOn",
        "noteNumber": 61,
        "velocity": 36
      },
      {
        "deltaTime": 0,
        "running": true,
        "channel": 0,
        "type": "noteOn",
        "noteNumber": 86,
        "velocity": 68
      },
      {
        "deltaTime": 5,
        "channel": 0,
        "type": "noteOn",
        "noteNumber": 57,
        "velocity": 36
      },
      {
        "deltaTime": 5,
        "channel": 0,
        "type": "noteOn",
        "noteNumber": 62,
        "velocity": 38
      },
      {
        "deltaTime": 10,
        "channel": 0,
        "type": "noteOff",
        "noteNumber": 74,
        "velocity": 0,
        "byte9": true
      },
      {
        "deltaTime": 0,
        "running": true,
        "channel": 0,
        "type": "noteOff",
        "noteNumber": 86,
        "velocity": 0,
        "byte9": true
      },
      {
        "deltaTime": 25,
        "channel": 0,
        "type": "noteOff",
        "noteNumber": 62,
        "velocity": 0,
        "byte9": true
      },
      {
        "deltaTime": 10,
        "channel": 0,
        "type": "noteOff",
        "noteNumber": 66,
        "velocity": 0,
        "byte9": true
      },
      {
        "deltaTime": 10,
        "channel": 0,
        "type": "noteOff",
        "noteNumber": 57,
        "velocity": 0,
        "byte9": true
      },
      {
        "deltaTime": 20,
        "channel": 0,
        "type": "noteOff",
        "noteNumber": 61,
        "velocity": 0,
        "byte9": true
      },
      {
        "deltaTime": 385,
        "channel": 0,
        "type": "noteOn",
        "noteNumber": 62,
        "velocity": 55
      },
      {
        "deltaTime": 0,
        "running": true,
        "channel": 0,
        "type": "noteOn",
        "noteNumber": 95,
        "velocity": 79
      },
      {
        "deltaTime": 5,
        "channel": 0,
        "type": "noteOn",
        "noteNumber": 56,
        "velocity": 52
      },
      {
        "deltaTime": 0,
        "running": true,
        "channel": 0,
        "type": "noteOn",
        "noteNumber": 83,
        "velocity": 68
      },
      {
        "deltaTime": 5,
        "channel": 0,
        "type": "noteOn",
        "noteNumber": 66,
        "velocity": 36
      },
      {
        "deltaTime": 25,
        "channel": 0,
        "type": "noteOff",
        "noteNumber": 83,
        "velocity": 0,
        "byte9": true
      },
      {
        "deltaTime": 20,
        "channel": 0,
        "type": "noteOff",
        "noteNumber": 95,
        "velocity": 0,
        "byte9": true
      },
      {
        "deltaTime": 15,
        "channel": 0,
        "type": "noteOff",
        "noteNumber": 66,
        "velocity": 0,
        "byte9": true
      },
      {
        "deltaTime": 5,
        "channel": 0,
        "type": "noteOff",
        "noteNumber": 56,
        "velocity": 0,
        "byte9": true
      },
      {
        "deltaTime": 0,
        "running": true,
        "channel": 0,
        "type": "noteOff",
        "noteNumber": 62,
        "velocity": 0,
        "byte9": true
      },
      {
        "deltaTime": 420,
        "channel": 0,
        "type": "noteOn",
        "noteNumber": 95,
        "velocity": 75
      },
      {
        "deltaTime": 5,
        "channel": 0,
        "type": "noteOn",
        "noteNumber": 66,
        "velocity": 57
      },
      {
        "deltaTime": 5,
        "channel": 0,
        "type": "noteOn",
        "noteNumber": 56,
        "velocity": 55
      },
      {
        "deltaTime": 5,
        "channel": 0,
        "type": "noteOn",
        "noteNumber": 62,
        "velocity": 55
      },
      {
        "deltaTime": 0,
        "running": true,
        "channel": 0,
        "type": "noteOn",
        "noteNumber": 83,
        "velocity": 62
      },
      {
        "deltaTime": 50,
        "channel": 0,
        "type": "controller",
        "controllerType": 64,
        "value": 127
      },
      {
        "deltaTime": 125,
        "channel": 0,
        "type": "noteOff",
        "noteNumber": 83,
        "velocity": 0,
        "byte9": true
      },
      {
        "deltaTime": 30,
        "channel": 0,
        "type": "noteOff",
        "noteNumber": 95,
        "velocity": 0,
        "byte9": true
      },
      {
        "deltaTime": 65,
        "channel": 0,
        "type": "noteOff",
        "noteNumber": 62,
        "velocity": 0,
        "byte9": true
      },
      {
        "deltaTime": 10,
        "channel": 0,
        "type": "noteOff",
        "noteNumber": 56,
        "velocity": 0,
        "byte9": true
      },
      {
        "deltaTime": 10,
        "channel": 0,
        "type": "noteOff",
        "noteNumber": 66,
        "velocity": 0,
        "byte9": true
      },
      {
        "deltaTime": 470,
        "channel": 0,
        "type": "controller",
        "controllerType": 64,
        "value": 0
      },
      {
        "deltaTime": 15,
        "channel": 0,
        "type": "noteOn",
        "noteNumber": 56,
        "velocity": 67
      },
      {
        "deltaTime": 5,
        "channel": 0,
        "type": "noteOn",
        "noteNumber": 62,
        "velocity": 64
      },
      {
        "deltaTime": 5,
        "channel": 0,
        "type": "noteOn",
        "noteNumber": 65,
        "velocity": 66
      },
      {
        "deltaTime": 0,
        "running": true,
        "channel": 0,
        "type": "noteOn",
        "noteNumber": 100,
        "velocity": 81
      },
      {
        "deltaTime": 10,
        "channel": 0,
        "type": "noteOn",
        "noteNumber": 88,
        "velocity": 77
      },
      {
        "deltaTime": 80,
        "channel": 0,
        "type": "controller",
        "controllerType": 64,
        "value": 127
      },
      {
        "deltaTime": 55,
        "channel": 0,
        "type": "noteOff",
        "noteNumber": 100,
        "velocity": 0,
        "byte9": true
      },
      {
        "deltaTime": 10,
        "channel": 0,
        "type": "noteOff",
        "noteNumber": 65,
        "velocity": 0,
        "byte9": true
      },
      {
        "deltaTime": 5,
        "channel": 0,
        "type": "noteOff",
        "noteNumber": 88,
        "velocity": 0,
        "byte9": true
      },
      {
        "deltaTime": 5,
        "channel": 0,
        "type": "noteOff",
        "noteNumber": 56,
        "velocity": 0,
        "byte9": true
      },
      {
        "deltaTime": 25,
        "channel": 0,
        "type": "noteOff",
        "noteNumber": 62,
        "velocity": 0,
        "byte9": true
      },
      {
        "deltaTime": 20,
        "channel": 0,
        "type": "noteOn",
        "noteNumber": 56,
        "velocity": 53
      },
      {
        "deltaTime": 10,
        "channel": 0,
        "type": "noteOn",
        "noteNumber": 62,
        "velocity": 31
      },
      {
        "deltaTime": 0,
        "running": true,
        "channel": 0,
        "type": "noteOn",
        "noteNumber": 65,
        "velocity": 64
      },
      {
        "deltaTime": 5,
        "channel": 0,
        "type": "noteOn",
        "noteNumber": 98,
        "velocity": 63
      },
      {
        "deltaTime": 5,
        "channel": 0,
        "type": "noteOn",
        "noteNumber": 86,
        "velocity": 58
      },
      {
        "deltaTime": 65,
        "channel": 0,
        "type": "noteOff",
        "noteNumber": 62,
        "velocity": 0,
        "byte9": true
      },
      {
        "deltaTime": 0,
        "running": true,
        "channel": 0,
        "type": "noteOff",
        "noteNumber": 98,
        "velocity": 0,
        "byte9": true
      },
      {
        "deltaTime": 35,
        "channel": 0,
        "type": "noteOff",
        "noteNumber": 65,
        "velocity": 0,
        "byte9": true
      },
      {
        "deltaTime": 20,
        "channel": 0,
        "type": "noteOff",
        "noteNumber": 86,
        "velocity": 0,
        "byte9": true
      },
      {
        "deltaTime": 25,
        "channel": 0,
        "type": "noteOff",
        "noteNumber": 56,
        "velocity": 0,
        "byte9": true
      },
      {
        "deltaTime": 120,
        "channel": 0,
        "type": "noteOn",
        "noteNumber": 54,
        "velocity": 60
      },
      {
        "deltaTime": 5,
        "channel": 0,
        "type": "controller",
        "controllerType": 64,
        "value": 0
      },
      {
        "deltaTime": 0,
        "channel": 0,
        "type": "noteOn",
        "noteNumber": 61,
        "velocity": 52
      },
      {
        "deltaTime": 0,
        "running": true,
        "channel": 0,
        "type": "noteOn",
        "noteNumber": 64,
        "velocity": 58
      },
      {
        "deltaTime": 5,
        "channel": 0,
        "type": "noteOn",
        "noteNumber": 85,
        "velocity": 69
      },
      {
        "deltaTime": 0,
        "running": true,
        "channel": 0,
        "type": "noteOn",
        "noteNumber": 97,
        "velocity": 75
      },
      {
        "deltaTime": 5,
        "channel": 0,
        "type": "noteOn",
        "noteNumber": 59,
        "velocity": 57
      },
      {
        "deltaTime": 140,
        "channel": 0,
        "type": "controller",
        "controllerType": 64,
        "value": 127
      },
      {
        "deltaTime": 470,
        "channel": 0,
        "type": "noteOff",
        "noteNumber": 59,
        "velocity": 0,
        "byte9": true
      },
      {
        "deltaTime": 15,
        "channel": 0,
        "type": "noteOff",
        "noteNumber": 97,
        "velocity": 0,
        "byte9": true
      },
      {
        "deltaTime": 10,
        "channel": 0,
        "type": "noteOff",
        "noteNumber": 85,
        "velocity": 0,
        "byte9": true
      },
      {
        "deltaTime": 5,
        "channel": 0,
        "type": "noteOff",
        "noteNumber": 64,
        "velocity": 0,
        "byte9": true
      },
      {
        "deltaTime": 10,
        "channel": 0,
        "type": "noteOff",
        "noteNumber": 54,
        "velocity": 0,
        "byte9": true
      },
      {
        "deltaTime": 50,
        "channel": 0,
        "type": "noteOff",
        "noteNumber": 61,
        "velocity": 0,
        "byte9": true
      },
      {
        "deltaTime": 370,
        "channel": 0,
        "type": "controller",
        "controllerType": 64,
        "value": 0
      },
      {
        "deltaTime": 35,
        "channel": 0,
        "type": "noteOn",
        "noteNumber": 64,
        "velocity": 55
      },
      {
        "deltaTime": 5,
        "channel": 0,
        "type": "noteOn",
        "noteNumber": 54,
        "velocity": 48
      },
      {
        "deltaTime": 0,
        "running": true,
        "channel": 0,
        "type": "noteOn",
        "noteNumber": 61,
        "velocity": 43
      },
      {
        "deltaTime": 10,
        "channel": 0,
        "type": "noteOn",
        "noteNumber": 80,
        "velocity": 54
      },
      {
        "deltaTime": 0,
        "running": true,
        "channel": 0,
        "type": "noteOn",
        "noteNumber": 92,
        "velocity": 60
      },
      {
        "deltaTime": 10,
        "channel": 0,
        "type": "noteOn",
        "noteNumber": 59,
        "velocity": 35
      },
      {
        "deltaTime": 30,
        "channel": 0,
        "type": "noteOff",
        "noteNumber": 64,
        "velocity": 0,
        "byte9": true
      },
      {
        "deltaTime": 10,
        "channel": 0,
        "type": "noteOff",
        "noteNumber": 59,
        "velocity": 0,
        "byte9": true
      },
      {
        "deltaTime": 5,
        "channel": 0,
        "type": "noteOff",
        "noteNumber": 54,
        "velocity": 0,
        "byte9": true
      },
      {
        "deltaTime": 5,
        "channel": 0,
        "type": "noteOff",
        "noteNumber": 92,
        "velocity": 0,
        "byte9": true
      },
      {
        "deltaTime": 20,
        "channel": 0,
        "type": "noteOff",
        "noteNumber": 80,
        "velocity": 0,
        "byte9": true
      },
      {
        "deltaTime": 30,
        "channel": 0,
        "type": "noteOff",
        "noteNumber": 61,
        "velocity": 0,
        "byte9": true
      },
      {
        "deltaTime": 360,
        "channel": 0,
        "type": "noteOn",
        "noteNumber": 64,
        "velocity": 55
      },
      {
        "deltaTime": 0,
        "running": true,
        "channel": 0,
        "type": "noteOn",
        "noteNumber": 88,
        "velocity": 67
      },
      {
        "deltaTime": 5,
        "channel": 0,
        "type": "noteOn",
        "noteNumber": 54,
        "velocity": 44
      },
      {
        "deltaTime": 0,
        "running": true,
        "channel": 0,
        "type": "noteOn",
        "noteNumber": 61,
        "velocity": 38
      },
      {
        "deltaTime": 5,
        "channel": 0,
        "type": "noteOn",
        "noteNumber": 59,
        "velocity": 45
      },
      {
        "deltaTime": 0,
        "running": true,
        "channel": 0,
        "type": "noteOn",
        "noteNumber": 76,
        "velocity": 48
      },
      {
        "deltaTime": 70,
        "channel": 0,
        "type": "noteOff",
        "noteNumber": 88,
        "velocity": 0,
        "byte9": true
      },
      {
        "deltaTime": 5,
        "channel": 0,
        "type": "noteOff",
        "noteNumber": 64,
        "velocity": 0,
        "byte9": true
      },
      {
        "deltaTime": 10,
        "channel": 0,
        "type": "noteOff",
        "noteNumber": 54,
        "velocity": 0,
        "byte9": true
      },
      {
        "deltaTime": 20,
        "channel": 0,
        "type": "noteOff",
        "noteNumber": 59,
        "velocity": 0,
        "byte9": true
      },
      {
        "deltaTime": 5,
        "channel": 0,
        "type": "noteOff",
        "noteNumber": 76,
        "velocity": 0,
        "byte9": true
      },
      {
        "deltaTime": 25,
        "channel": 0,
        "type": "noteOff",
        "noteNumber": 61,
        "velocity": 0,
        "byte9": true
      },
      {
        "deltaTime": 305,
        "channel": 0,
        "type": "noteOn",
        "noteNumber": 60,
        "velocity": 46
      },
      {
        "deltaTime": 5,
        "channel": 0,
        "type": "noteOn",
        "noteNumber": 63,
        "velocity": 59
      },
      {
        "deltaTime": 5,
        "channel": 0,
        "type": "noteOn",
        "noteNumber": 55,
        "velocity": 61
      },
      {
        "deltaTime": 0,
        "running": true,
        "channel": 0,
        "type": "noteOn",
        "noteNumber": 75,
        "velocity": 68
      },
      {
        "deltaTime": 5,
        "channel": 0,
        "type": "noteOn",
        "noteNumber": 87,
        "velocity": 69
      },
      {
        "deltaTime": 10,
        "channel": 0,
        "type": "noteOn",
        "noteNumber": 57,
        "velocity": 52
      },
      {
        "deltaTime": 80,
        "channel": 0,
        "type": "controller",
        "controllerType": 64,
        "value": 127
      },
      {
        "deltaTime": 355,
        "channel": 0,
        "type": "noteOff",
        "noteNumber": 55,
        "velocity": 0,
        "byte9": true
      },
      {
        "deltaTime": 25,
        "channel": 0,
        "type": "noteOff",
        "noteNumber": 60,
        "velocity": 0,
        "byte9": true
      },
      {
        "deltaTime": 5,
        "channel": 0,
        "type": "noteOff",
        "noteNumber": 57,
        "velocity": 0,
        "byte9": true
      },
      {
        "deltaTime": 5,
        "channel": 0,
        "type": "noteOff",
        "noteNumber": 63,
        "velocity": 0,
        "byte9": true
      },
      {
        "deltaTime": 5,
        "channel": 0,
        "type": "noteOff",
        "noteNumber": 87,
        "velocity": 0,
        "byte9": true
      },
      {
        "deltaTime": 35,
        "channel": 0,
        "type": "noteOff",
        "noteNumber": 75,
        "velocity": 0,
        "byte9": true
      },
      {
        "deltaTime": 280,
        "channel": 0,
        "type": "noteOn",
        "noteNumber": 60,
        "velocity": 66
      },
      {
        "deltaTime": 5,
        "channel": 0,
        "type": "noteOn",
        "noteNumber": 86,
        "velocity": 60
      },
      {
        "deltaTime": 5,
        "channel": 0,
        "type": "noteOn",
        "noteNumber": 54,
        "velocity": 60
      },
      {
        "deltaTime": 0,
        "running": true,
        "channel": 0,
        "type": "noteOn",
        "noteNumber": 64,
        "velocity": 62
      },
      {
        "deltaTime": 5,
        "channel": 0,
        "type": "noteOn",
        "noteNumber": 74,
        "velocity": 37
      },
      {
        "deltaTime": 0,
        "running": true,
        "channel": 0,
        "type": "noteOn",
        "noteNumber": 81,
        "velocity": 60
      },
      {
        "deltaTime": 20,
        "channel": 0,
        "type": "controller",
        "controllerType": 64,
        "value": 0
      },
      {
        "deltaTime": 5,
        "channel": 0,
        "type": "noteOn",
        "noteNumber": 76,
        "velocity": 33
      },
      {
        "deltaTime": 25,
        "channel": 0,
        "type": "noteOff",
        "noteNumber": 76,
        "velocity": 0,
        "byte9": true
      },
      {
        "deltaTime": 55,
        "channel": 0,
        "type": "controller",
        "controllerType": 64,
        "value": 127
      },
      {
        "deltaTime": 35,
        "channel": 0,
        "type": "noteOff",
        "noteNumber": 86,
        "velocity": 0,
        "byte9": true
      },
      {
        "deltaTime": 20,
        "channel": 0,
        "type": "noteOff",
        "noteNumber": 81,
        "velocity": 0,
        "byte9": true
      },
      {
        "deltaTime": 40,
        "channel": 0,
        "type": "noteOff",
        "noteNumber": 74,
        "velocity": 0,
        "byte9": true
      },
      {
        "deltaTime": 20,
        "channel": 0,
        "type": "noteOff",
        "noteNumber": 60,
        "velocity": 0,
        "byte9": true
      },
      {
        "deltaTime": 10,
        "channel": 0,
        "type": "noteOff",
        "noteNumber": 64,
        "velocity": 0,
        "byte9": true
      },
      {
        "deltaTime": 65,
        "channel": 0,
        "type": "noteOff",
        "noteNumber": 54,
        "velocity": 0,
        "byte9": true
      },
      {
        "deltaTime": 360,
        "channel": 0,
        "type": "controller",
        "controllerType": 64,
        "value": 0
      },
      {
        "deltaTime": 290,
        "channel": 0,
        "type": "noteOn",
        "noteNumber": 58,
        "velocity": 73
      },
      {
        "deltaTime": 0,
        "running": true,
        "channel": 0,
        "type": "noteOn",
        "noteNumber": 65,
        "velocity": 95
      },
      {
        "deltaTime": 0,
        "running": true,
        "channel": 0,
        "type": "noteOn",
        "noteNumber": 69,
        "velocity": 91
      },
      {
        "deltaTime": 0,
        "running": true,
        "channel": 0,
        "type": "noteOn",
        "noteNumber": 72,
        "velocity": 84
      },
      {
        "deltaTime": 5,
        "channel": 0,
        "type": "noteOn",
        "noteNumber": 60,
        "velocity": 76
      },
      {
        "deltaTime": 0,
        "running": true,
        "channel": 0,
        "type": "noteOn",
        "noteNumber": 62,
        "velocity": 81
      },
      {
        "deltaTime": 120,
        "channel": 0,
        "type": "noteOff",
        "noteNumber": 65,
        "velocity": 0,
        "byte9": true
      },
      {
        "deltaTime": 5,
        "channel": 0,
        "type": "noteOff",
        "noteNumber": 62,
        "velocity": 0,
        "byte9": true
      },
      {
        "deltaTime": 0,
        "running": true,
        "channel": 0,
        "type": "noteOff",
        "noteNumber": 69,
        "velocity": 0,
        "byte9": true
      },
      {
        "deltaTime": 0,
        "running": true,
        "channel": 0,
        "type": "noteOff",
        "noteNumber": 72,
        "velocity": 0,
        "byte9": true
      },
      {
        "deltaTime": 10,
        "channel": 0,
        "type": "noteOff",
        "noteNumber": 60,
        "velocity": 0,
        "byte9": true
      },
      {
        "deltaTime": 10,
        "channel": 0,
        "type": "noteOff",
        "noteNumber": 58,
        "velocity": 0,
        "byte9": true
      },
      {
        "deltaTime": 335,
        "channel": 0,
        "type": "noteOn",
        "noteNumber": 58,
        "velocity": 60
      },
      {
        "deltaTime": 0,
        "running": true,
        "channel": 0,
        "type": "noteOn",
        "noteNumber": 62,
        "velocity": 68
      },
      {
        "deltaTime": 5,
        "channel": 0,
        "type": "noteOn",
        "noteNumber": 60,
        "velocity": 60
      },
      {
        "deltaTime": 0,
        "running": true,
        "channel": 0,
        "type": "noteOn",
        "noteNumber": 65,
        "velocity": 87
      },
      {
        "deltaTime": 0,
        "running": true,
        "channel": 0,
        "type": "noteOn",
        "noteNumber": 69,
        "velocity": 81
      },
      {
        "deltaTime": 0,
        "running": true,
        "channel": 0,
        "type": "noteOn",
        "noteNumber": 72,
        "velocity": 79
      },
      {
        "deltaTime": 95,
        "channel": 0,
        "type": "noteOff",
        "noteNumber": 69,
        "velocity": 0,
        "byte9": true
      },
      {
        "deltaTime": 35,
        "channel": 0,
        "type": "noteOff",
        "noteNumber": 60,
        "velocity": 0,
        "byte9": true
      },
      {
        "deltaTime": 0,
        "running": true,
        "channel": 0,
        "type": "noteOff",
        "noteNumber": 62,
        "velocity": 0,
        "byte9": true
      },
      {
        "deltaTime": 5,
        "channel": 0,
        "type": "noteOff",
        "noteNumber": 65,
        "velocity": 0,
        "byte9": true
      },
      {
        "deltaTime": 25,
        "channel": 0,
        "type": "noteOff",
        "noteNumber": 72,
        "velocity": 0,
        "byte9": true
      },
      {
        "deltaTime": 25,
        "channel": 0,
        "type": "noteOn",
        "noteNumber": 60,
        "velocity": 31
      },
      {
        "deltaTime": 0,
        "running": true,
        "channel": 0,
        "type": "noteOn",
        "noteNumber": 62,
        "velocity": 42
      },
      {
        "deltaTime": 5,
        "channel": 0,
        "type": "noteOn",
        "noteNumber": 69,
        "velocity": 41
      },
      {
        "deltaTime": 185,
        "channel": 0,
        "type": "noteOff",
        "noteNumber": 60,
        "velocity": 0,
        "byte9": true
      },
      {
        "deltaTime": 15,
        "channel": 0,
        "type": "noteOff",
        "noteNumber": 58,
        "velocity": 0,
        "byte9": true
      },
      {
        "deltaTime": 0,
        "running": true,
        "channel": 0,
        "type": "noteOff",
        "noteNumber": 62,
        "velocity": 0,
        "byte9": true
      },
      {
        "deltaTime": 5,
        "channel": 0,
        "type": "noteOff",
        "noteNumber": 69,
        "velocity": 0,
        "byte9": true
      },
      {
        "deltaTime": 245,
        "channel": 0,
        "type": "noteOn",
        "noteNumber": 58,
        "velocity": 48
      },
      {
        "deltaTime": 5,
        "channel": 0,
        "type": "noteOn",
        "noteNumber": 69,
        "velocity": 65
      },
      {
        "deltaTime": 5,
        "channel": 0,
        "type": "noteOn",
        "noteNumber": 62,
        "velocity": 53
      },
      {
        "deltaTime": 0,
        "running": true,
        "channel": 0,
        "type": "noteOn",
        "noteNumber": 65,
        "velocity": 59
      },
      {
        "deltaTime": 0,
        "running": true,
        "channel": 0,
        "type": "noteOn",
        "noteNumber": 72,
        "velocity": 56
      },
      {
        "deltaTime": 10,
        "channel": 0,
        "type": "noteOn",
        "noteNumber": 60,
        "velocity": 44
      },
      {
        "deltaTime": 135,
        "channel": 0,
        "type": "noteOff",
        "noteNumber": 72,
        "velocity": 0,
        "byte9": true
      },
      {
        "deltaTime": 5,
        "channel": 0,
        "type": "noteOff",
        "noteNumber": 60,
        "velocity": 0,
        "byte9": true
      },
      {
        "deltaTime": 20,
        "channel": 0,
        "type": "noteOff",
        "noteNumber": 62,
        "velocity": 0,
        "byte9": true
      },
      {
        "deltaTime": 0,
        "running": true,
        "channel": 0,
        "type": "noteOff",
        "noteNumber": 69,
        "velocity": 0,
        "byte9": true
      },
      {
        "deltaTime": 5,
        "channel": 0,
        "type": "noteOff",
        "noteNumber": 65,
        "velocity": 0,
        "byte9": true
      },
      {
        "deltaTime": 5,
        "channel": 0,
        "type": "noteOff",
        "noteNumber": 58,
        "velocity": 0,
        "byte9": true
      },
      {
        "deltaTime": 290,
        "channel": 0,
        "type": "noteOn",
        "noteNumber": 69,
        "velocity": 62
      },
      {
        "deltaTime": 5,
        "channel": 0,
        "type": "noteOn",
        "noteNumber": 58,
        "velocity": 37
      },
      {
        "deltaTime": 0,
        "running": true,
        "channel": 0,
        "type": "noteOn",
        "noteNumber": 62,
        "velocity": 46
      },
      {
        "deltaTime": 5,
        "channel": 0,
        "type": "noteOn",
        "noteNumber": 65,
        "velocity": 49
      },
      {
        "deltaTime": 15,
        "channel": 0,
        "type": "noteOn",
        "noteNumber": 60,
        "velocity": 38
      },
      {
        "deltaTime": 115,
        "channel": 0,
        "type": "noteOff",
        "noteNumber": 60,
        "velocity": 0,
        "byte9": true
      },
      {
        "deltaTime": 10,
        "channel": 0,
        "type": "noteOff",
        "noteNumber": 69,
        "velocity": 0,
        "byte9": true
      },
      {
        "deltaTime": 10,
        "channel": 0,
        "type": "noteOff",
        "noteNumber": 65,
        "velocity": 0,
        "byte9": true
      },
      {
        "deltaTime": 5,
        "channel": 0,
        "type": "noteOff",
        "noteNumber": 58,
        "velocity": 0,
        "byte9": true
      },
      {
        "deltaTime": 0,
        "running": true,
        "channel": 0,
        "type": "noteOff",
        "noteNumber": 62,
        "velocity": 0,
        "byte9": true
      },
      {
        "deltaTime": 315,
        "channel": 0,
        "type": "noteOn",
        "noteNumber": 69,
        "velocity": 71
      },
      {
        "deltaTime": 5,
        "channel": 0,
        "type": "noteOn",
        "noteNumber": 58,
        "velocity": 46
      },
      {
        "deltaTime": 0,
        "running": true,
        "channel": 0,
        "type": "noteOn",
        "noteNumber": 62,
        "velocity": 53
      },
      {
        "deltaTime": 0,
        "running": true,
        "channel": 0,
        "type": "noteOn",
        "noteNumber": 65,
        "velocity": 64
      },
      {
        "deltaTime": 5,
        "channel": 0,
        "type": "noteOn",
        "noteNumber": 72,
        "velocity": 58
      },
      {
        "deltaTime": 5,
        "channel": 0,
        "type": "noteOn",
        "noteNumber": 60,
        "velocity": 47
      },
      {
        "deltaTime": 220,
        "channel": 0,
        "type": "noteOff",
        "noteNumber": 60,
        "velocity": 0,
        "byte9": true
      },
      {
        "deltaTime": 10,
        "channel": 0,
        "type": "noteOff",
        "noteNumber": 65,
        "velocity": 0,
        "byte9": true
      },
      {
        "deltaTime": 0,
        "running": true,
        "channel": 0,
        "type": "noteOff",
        "noteNumber": 69,
        "velocity": 0,
        "byte9": true
      },
      {
        "deltaTime": 10,
        "channel": 0,
        "type": "noteOff",
        "noteNumber": 58,
        "velocity": 0,
        "byte9": true
      },
      {
        "deltaTime": 0,
        "running": true,
        "channel": 0,
        "type": "noteOff",
        "noteNumber": 62,
        "velocity": 0,
        "byte9": true
      },
      {
        "deltaTime": 0,
        "running": true,
        "channel": 0,
        "type": "noteOff",
        "noteNumber": 72,
        "velocity": 0,
        "byte9": true
      },
      {
        "deltaTime": 545,
        "channel": 0,
        "type": "noteOn",
        "noteNumber": 68,
        "velocity": 69
      },
      {
        "deltaTime": 5,
        "channel": 0,
        "type": "noteOn",
        "noteNumber": 64,
        "velocity": 65
      },
      {
        "deltaTime": 5,
        "channel": 0,
        "type": "noteOn",
        "noteNumber": 58,
        "velocity": 52
      },
      {
        "deltaTime": 0,
        "running": true,
        "channel": 0,
        "type": "noteOn",
        "noteNumber": 72,
        "velocity": 64
      },
      {
        "deltaTime": 5,
        "channel": 0,
        "type": "noteOn",
        "noteNumber": 62,
        "velocity": 58
      },
      {
        "deltaTime": 980,
        "channel": 0,
        "type": "noteOff",
        "noteNumber": 64,
        "velocity": 0,
        "byte9": true
      },
      {
        "deltaTime": 25,
        "channel": 0,
        "type": "noteOff",
        "noteNumber": 62,
        "velocity": 0,
        "byte9": true
      },
      {
        "deltaTime": 30,
        "channel": 0,
        "type": "noteOff",
        "noteNumber": 72,
        "velocity": 0,
        "byte9": true
      },
      {
        "deltaTime": 5,
        "channel": 0,
        "type": "noteOff",
        "noteNumber": 68,
        "velocity": 0,
        "byte9": true
      },
      {
        "deltaTime": 5,
        "channel": 0,
        "type": "noteOff",
        "noteNumber": 58,
        "velocity": 0,
        "byte9": true
      },
      {
        "deltaTime": 50,
        "channel": 0,
        "type": "noteOn",
        "noteNumber": 58,
        "velocity": 46
      },
      {
        "deltaTime": 0,
        "running": true,
        "channel": 0,
        "type": "noteOn",
        "noteNumber": 62,
        "velocity": 57
      },
      {
        "deltaTime": 5,
        "channel": 0,
        "type": "noteOn",
        "noteNumber": 72,
        "velocity": 60
      },
      {
        "deltaTime": 5,
        "channel": 0,
        "type": "noteOn",
        "noteNumber": 65,
        "velocity": 65
      },
      {
        "deltaTime": 5,
        "channel": 0,
        "type": "noteOn",
        "noteNumber": 60,
        "velocity": 54
      },
      {
        "deltaTime": 5,
        "channel": 0,
        "type": "noteOn",
        "noteNumber": 69,
        "velocity": 45
      },
      {
        "deltaTime": 15,
        "channel": 0,
        "type": "noteOff",
        "noteNumber": 65,
        "velocity": 0,
        "byte9": true
      },
      {
        "deltaTime": 5,
        "channel": 0,
        "type": "noteOff",
        "noteNumber": 60,
        "velocity": 0,
        "byte9": true
      },
      {
        "deltaTime": 10,
        "channel": 0,
        "type": "noteOff",
        "noteNumber": 62,
        "velocity": 0,
        "byte9": true
      },
      {
        "deltaTime": 0,
        "running": true,
        "channel": 0,
        "type": "noteOff",
        "noteNumber": 69,
        "velocity": 0,
        "byte9": true
      },
      {
        "deltaTime": 5,
        "channel": 0,
        "type": "noteOff",
        "noteNumber": 58,
        "velocity": 0,
        "byte9": true
      },
      {
        "deltaTime": 5,
        "channel": 0,
        "type": "noteOff",
        "noteNumber": 72,
        "velocity": 0,
        "byte9": true
      },
      {
        "deltaTime": 890,
        "channel": 0,
        "type": "noteOn",
        "noteNumber": 58,
        "velocity": 57
      },
      {
        "deltaTime": 5,
        "channel": 0,
        "type": "noteOn",
        "noteNumber": 81,
        "velocity": 88
      },
      {
        "deltaTime": 5,
        "channel": 0,
        "type": "noteOn",
        "noteNumber": 60,
        "velocity": 62
      },
      {
        "deltaTime": 0,
        "running": true,
        "channel": 0,
        "type": "noteOn",
        "noteNumber": 62,
        "velocity": 62
      },
      {
        "deltaTime": 0,
        "running": true,
        "channel": 0,
        "type": "noteOn",
        "noteNumber": 72,
        "velocity": 83
      },
      {
        "deltaTime": 110,
        "channel": 0,
        "type": "controller",
        "controllerType": 64,
        "value": 127
      },
      {
        "deltaTime": 75,
        "channel": 0,
        "type": "noteOff",
        "noteNumber": 81,
        "velocity": 0,
        "byte9": true
      },
      {
        "deltaTime": 40,
        "channel": 0,
        "type": "noteOff",
        "noteNumber": 72,
        "velocity": 0,
        "byte9": true
      },
      {
        "deltaTime": 5,
        "channel": 0,
        "type": "noteOff",
        "noteNumber": 62,
        "velocity": 0,
        "byte9": true
      },
      {
        "deltaTime": 5,
        "channel": 0,
        "type": "noteOff",
        "noteNumber": 60,
        "velocity": 0,
        "byte9": true
      },
      {
        "deltaTime": 20,
        "channel": 0,
        "type": "noteOff",
        "noteNumber": 58,
        "velocity": 0,
        "byte9": true
      },
      {
        "deltaTime": 75,
        "channel": 0,
        "type": "noteOn",
        "noteNumber": 77,
        "velocity": 55
      },
      {
        "deltaTime": 5,
        "channel": 0,
        "type": "controller",
        "controllerType": 64,
        "value": 0
      },
      {
        "deltaTime": 0,
        "channel": 0,
        "type": "noteOn",
        "noteNumber": 69,
        "velocity": 51
      },
      {
        "deltaTime": 10,
        "channel": 0,
        "type": "noteOn",
        "noteNumber": 62,
        "velocity": 47
      },
      {
        "deltaTime": 5,
        "channel": 0,
        "type": "noteOn",
        "noteNumber": 58,
        "velocity": 33
      },
      {
        "deltaTime": 10,
        "channel": 0,
        "type": "noteOn",
        "noteNumber": 60,
        "velocity": 35
      },
      {
        "deltaTime": 0,
        "running": true,
        "channel": 0,
        "type": "noteOff",
        "noteNumber": 77,
        "velocity": 0,
        "byte9": true
      },
      {
        "deltaTime": 5,
        "channel": 0,
        "type": "noteOff",
        "noteNumber": 69,
        "velocity": 0,
        "byte9": true
      },
      {
        "deltaTime": 15,
        "channel": 0,
        "type": "noteOff",
        "noteNumber": 62,
        "velocity": 0,
        "byte9": true
      },
      {
        "deltaTime": 10,
        "channel": 0,
        "type": "noteOff",
        "noteNumber": 60,
        "velocity": 0,
        "byte9": true
      },
      {
        "deltaTime": 25,
        "channel": 0,
        "type": "noteOff",
        "noteNumber": 58,
        "velocity": 0,
        "byte9": true
      },
      {
        "deltaTime": 1035,
        "channel": 0,
        "type": "noteOn",
        "noteNumber": 70,
        "velocity": 75
      },
      {
        "deltaTime": 0,
        "running": true,
        "channel": 0,
        "type": "noteOn",
        "noteNumber": 74,
        "velocity": 75
      },
      {
        "deltaTime": 5,
        "channel": 0,
        "type": "noteOn",
        "noteNumber": 65,
        "velocity": 82
      },
      {
        "deltaTime": 0,
        "running": true,
        "channel": 0,
        "type": "noteOn",
        "noteNumber": 77,
        "velocity": 73
      },
      {
        "deltaTime": 5,
        "channel": 0,
        "type": "noteOn",
        "noteNumber": 58,
        "velocity": 57
      },
      {
        "deltaTime": 0,
        "running": true,
        "channel": 0,
        "type": "noteOn",
        "noteNumber": 62,
        "velocity": 61
      },
      {
        "deltaTime": 150,
        "channel": 0,
        "type": "noteOff",
        "noteNumber": 74,
        "velocity": 0,
        "byte9": true
      },
      {
        "deltaTime": 15,
        "channel": 0,
        "type": "noteOff",
        "noteNumber": 77,
        "velocity": 0,
        "byte9": true
      },
      {
        "deltaTime": 15,
        "channel": 0,
        "type": "noteOff",
        "noteNumber": 65,
        "velocity": 0,
        "byte9": true
      },
      {
        "deltaTime": 5,
        "channel": 0,
        "type": "noteOff",
        "noteNumber": 70,
        "velocity": 0,
        "byte9": true
      },
      {
        "deltaTime": 10,
        "channel": 0,
        "type": "noteOff",
        "noteNumber": 62,
        "velocity": 0,
        "byte9": true
      },
      {
        "deltaTime": 25,
        "channel": 0,
        "type": "noteOff",
        "noteNumber": 58,
        "velocity": 0,
        "byte9": true
      },
      {
        "deltaTime": 255,
        "channel": 0,
        "type": "noteOn",
        "noteNumber": 73,
        "velocity": 75
      },
      {
        "deltaTime": 5,
        "channel": 0,
        "type": "noteOn",
        "noteNumber": 64,
        "velocity": 71
      },
      {
        "deltaTime": 0,
        "running": true,
        "channel": 0,
        "type": "noteOn",
        "noteNumber": 68,
        "velocity": 64
      },
      {
        "deltaTime": 0,
        "running": true,
        "channel": 0,
        "type": "noteOn",
        "noteNumber": 70,
        "velocity": 67
      },
      {
        "deltaTime": 5,
        "channel": 0,
        "type": "noteOn",
        "noteNumber": 61,
        "velocity": 64
      },
      {
        "deltaTime": 70,
        "channel": 0,
        "type": "controller",
        "controllerType": 64,
        "value": 127
      },
      {
        "deltaTime": 115,
        "channel": 0,
        "type": "noteOff",
        "noteNumber": 70,
        "velocity": 0,
        "byte9": true
      },
      {
        "deltaTime": 30,
        "channel": 0,
        "type": "noteOff",
        "noteNumber": 64,
        "velocity": 0,
        "byte9": true
      },
      {
        "deltaTime": 10,
        "channel": 0,
        "type": "noteOff",
        "noteNumber": 68,
        "velocity": 0,
        "byte9": true
      },
      {
        "deltaTime": 30,
        "channel": 0,
        "type": "noteOff",
        "noteNumber": 61,
        "velocity": 0,
        "byte9": true
      },
      {
        "deltaTime": 25,
        "channel": 0,
        "type": "noteOff",
        "noteNumber": 73,
        "velocity": 0,
        "byte9": true
      },
      {
        "deltaTime": 35,
        "channel": 0,
        "type": "noteOn",
        "noteNumber": 64,
        "velocity": 73
      },
      {
        "deltaTime": 0,
        "running": true,
        "channel": 0,
        "type": "noteOn",
        "noteNumber": 68,
        "velocity": 67
      },
      {
        "deltaTime": 5,
        "channel": 0,
        "type": "noteOn",
        "noteNumber": 70,
        "velocity": 67
      },
      {
        "deltaTime": 10,
        "channel": 0,
        "type": "noteOn",
        "noteNumber": 58,
        "velocity": 57
      },
      {
        "deltaTime": 15,
        "channel": 0,
        "type": "controller",
        "controllerType": 64,
        "value": 0
      },
      {
        "deltaTime": 65,
        "channel": 0,
        "type": "controller",
        "controllerType": 64,
        "value": 127
      },
      {
        "deltaTime": 285,
        "channel": 0,
        "type": "noteOff",
        "noteNumber": 64,
        "velocity": 0,
        "byte9": true
      },
      {
        "deltaTime": 45,
        "channel": 0,
        "type": "noteOff",
        "noteNumber": 68,
        "velocity": 0,
        "byte9": true
      },
      {
        "deltaTime": 0,
        "running": true,
        "channel": 0,
        "type": "noteOff",
        "noteNumber": 70,
        "velocity": 0,
        "byte9": true
      },
      {
        "deltaTime": 30,
        "channel": 0,
        "type": "noteOff",
        "noteNumber": 58,
        "velocity": 0,
        "byte9": true
      },
      {
        "deltaTime": 10,
        "channel": 0,
        "type": "noteOn",
        "noteNumber": 57,
        "velocity": 80
      },
      {
        "deltaTime": 10,
        "channel": 0,
        "type": "noteOn",
        "noteNumber": 67,
        "velocity": 88
      },
      {
        "deltaTime": 5,
        "channel": 0,
        "type": "noteOn",
        "noteNumber": 72,
        "velocity": 78
      },
      {
        "deltaTime": 5,
        "channel": 0,
        "type": "noteOn",
        "noteNumber": 62,
        "velocity": 83
      },
      {
        "deltaTime": 10,
        "channel": 0,
        "type": "controller",
        "controllerType": 64,
        "value": 0
      },
      {
        "deltaTime": 635,
        "channel": 0,
        "type": "controller",
        "controllerType": 64,
        "value": 127
      },
      {
        "deltaTime": 795,
        "channel": 0,
        "type": "noteOff",
        "noteNumber": 67,
        "velocity": 0,
        "byte9": true
      },
      {
        "deltaTime": 30,
        "channel": 0,
        "type": "noteOff",
        "noteNumber": 62,
        "velocity": 0,
        "byte9": true
      },
      {
        "deltaTime": 55,
        "channel": 0,
        "type": "noteOff",
        "noteNumber": 72,
        "velocity": 0,
        "byte9": true
      },
      {
        "deltaTime": 15,
        "channel": 0,
        "type": "noteOn",
        "noteNumber": 67,
        "velocity": 66
      },
      {
        "deltaTime": 30,
        "channel": 0,
        "type": "noteOff",
        "noteNumber": 57,
        "velocity": 0,
        "byte9": true
      },
      {
        "deltaTime": 30,
        "channel": 0,
        "type": "noteOff",
        "noteNumber": 67,
        "velocity": 0,
        "byte9": true
      },
      {
        "deltaTime": 380,
        "channel": 0,
        "type": "controller",
        "controllerType": 64,
        "value": 0
      },
      {
        "deltaTime": 55,
        "channel": 0,
        "type": "noteOn",
        "noteNumber": 56,
        "velocity": 76
      },
      {
        "deltaTime": 0,
        "running": true,
        "channel": 0,
        "type": "noteOn",
        "noteNumber": 79,
        "velocity": 87
      },
      {
        "deltaTime": 5,
        "channel": 0,
        "type": "noteOn",
        "noteNumber": 62,
        "velocity": 76
      },
      {
        "deltaTime": 0,
        "running": true,
        "channel": 0,
        "type": "noteOn",
        "noteNumber": 67,
        "velocity": 87
      },
      {
        "deltaTime": 0,
        "running": true,
        "channel": 0,
        "type": "noteOn",
        "noteNumber": 72,
        "velocity": 83
      },
      {
        "deltaTime": 10,
        "channel": 0,
        "type": "noteOn",
        "noteNumber": 76,
        "velocity": 61
      },
      {
        "deltaTime": 20,
        "channel": 0,
        "type": "noteOff",
        "noteNumber": 67,
        "velocity": 0,
        "byte9": true
      },
      {
        "deltaTime": 5,
        "channel": 0,
        "type": "noteOff",
        "noteNumber": 72,
        "velocity": 0,
        "byte9": true
      },
      {
        "deltaTime": 0,
        "running": true,
        "channel": 0,
        "type": "noteOff",
        "noteNumber": 76,
        "velocity": 0,
        "byte9": true
      },
      {
        "deltaTime": 15,
        "channel": 0,
        "type": "noteOff",
        "noteNumber": 62,
        "velocity": 0,
        "byte9": true
      },
      {
        "deltaTime": 10,
        "channel": 0,
        "type": "noteOff",
        "noteNumber": 56,
        "velocity": 0,
        "byte9": true
      },
      {
        "deltaTime": 5,
        "channel": 0,
        "type": "noteOff",
        "noteNumber": 79,
        "velocity": 0,
        "byte9": true
      },
      {
        "deltaTime": 60,
        "channel": 0,
        "type": "noteOn",
        "noteNumber": 79,
        "velocity": 66
      },
      {
        "deltaTime": 15,
        "channel": 0,
        "type": "noteOn",
        "noteNumber": 56,
        "velocity": 71
      },
      {
        "deltaTime": 0,
        "running": true,
        "channel": 0,
        "type": "noteOn",
        "noteNumber": 67,
        "velocity": 62
      },
      {
        "deltaTime": 0,
        "running": true,
        "channel": 0,
        "type": "noteOn",
        "noteNumber": 72,
        "velocity": 69
      },
      {
        "deltaTime": 10,
        "channel": 0,
        "type": "noteOn",
        "noteNumber": 62,
        "velocity": 64
      },
      {
        "deltaTime": 170,
        "channel": 0,
        "type": "noteOff",
        "noteNumber": 56,
        "velocity": 0,
        "byte9": true
      },
      {
        "deltaTime": 5,
        "channel": 0,
        "type": "noteOff",
        "noteNumber": 72,
        "velocity": 0,
        "byte9": true
      },
      {
        "deltaTime": 5,
        "channel": 0,
        "type": "noteOff",
        "noteNumber": 67,
        "velocity": 0,
        "byte9": true
      },
      {
        "deltaTime": 20,
        "channel": 0,
        "type": "noteOff",
        "noteNumber": 79,
        "velocity": 0,
        "byte9": true
      },
      {
        "deltaTime": 10,
        "channel": 0,
        "type": "noteOff",
        "noteNumber": 62,
        "velocity": 0,
        "byte9": true
      },
      {
        "deltaTime": 90,
        "channel": 0,
        "type": "noteOn",
        "noteNumber": 67,
        "velocity": 61
      },
      {
        "deltaTime": 0,
        "running": true,
        "channel": 0,
        "type": "noteOn",
        "noteNumber": 76,
        "velocity": 67
      },
      {
        "deltaTime": 5,
        "channel": 0,
        "type": "noteOn",
        "noteNumber": 56,
        "velocity": 59
      },
      {
        "deltaTime": 0,
        "running": true,
        "channel": 0,
        "type": "noteOn",
        "noteNumber": 72,
        "velocity": 58
      },
      {
        "deltaTime": 5,
        "channel": 0,
        "type": "noteOn",
        "noteNumber": 62,
        "velocity": 55
      },
      {
        "deltaTime": 115,
        "channel": 0,
        "type": "controller",
        "controllerType": 64,
        "value": 127
      },
      {
        "deltaTime": 100,
        "channel": 0,
        "type": "noteOff",
        "noteNumber": 56,
        "velocity": 0,
        "byte9": true
      },
      {
        "deltaTime": 0,
        "running": true,
        "channel": 0,
        "type": "noteOff",
        "noteNumber": 72,
        "velocity": 0,
        "byte9": true
      },
      {
        "deltaTime": 15,
        "channel": 0,
        "type": "noteOff",
        "noteNumber": 67,
        "velocity": 0,
        "byte9": true
      },
      {
        "deltaTime": 30,
        "channel": 0,
        "type": "noteOff",
        "noteNumber": 62,
        "velocity": 0,
        "byte9": true
      },
      {
        "deltaTime": 30,
        "channel": 0,
        "type": "noteOff",
        "noteNumber": 76,
        "velocity": 0,
        "byte9": true
      },
      {
        "deltaTime": 35,
        "channel": 0,
        "type": "noteOn",
        "noteNumber": 72,
        "velocity": 65
      },
      {
        "deltaTime": 10,
        "channel": 0,
        "type": "controller",
        "controllerType": 64,
        "value": 0
      },
      {
        "deltaTime": 0,
        "channel": 0,
        "type": "noteOn",
        "noteNumber": 62,
        "velocity": 55
      },
      {
        "deltaTime": 0,
        "running": true,
        "channel": 0,
        "type": "noteOn",
        "noteNumber": 67,
        "velocity": 64
      },
      {
        "deltaTime": 10,
        "channel": 0,
        "type": "noteOn",
        "noteNumber": 56,
        "velocity": 56
      },
      {
        "deltaTime": 290,
        "channel": 0,
        "type": "controller",
        "controllerType": 64,
        "value": 127
      },
      {
        "deltaTime": 205,
        "channel": 0,
        "type": "noteOff",
        "noteNumber": 67,
        "velocity": 0,
        "byte9": true
      },
      {
        "deltaTime": 5,
        "channel": 0,
        "type": "noteOff",
        "noteNumber": 72,
        "velocity": 0,
        "byte9": true
      },
      {
        "deltaTime": 10,
        "channel": 0,
        "type": "noteOff",
        "noteNumber": 56,
        "velocity": 0,
        "byte9": true
      },
      {
        "deltaTime": 10,
        "channel": 0,
        "type": "noteOff",
        "noteNumber": 62,
        "velocity": 0,
        "byte9": true
      },
      {
        "deltaTime": 100,
        "channel": 0,
        "type": "controller",
        "controllerType": 64,
        "value": 0
      },
      {
        "deltaTime": 5,
        "channel": 0,
        "type": "noteOn",
        "noteNumber": 67,
        "velocity": 74
      },
      {
        "deltaTime": 0,
        "running": true,
        "channel": 0,
        "type": "noteOn",
        "noteNumber": 72,
        "velocity": 74
      },
      {
        "deltaTime": 0,
        "running": true,
        "channel": 0,
        "type": "noteOn",
        "noteNumber": 79,
        "velocity": 77
      },
      {
        "deltaTime": 5,
        "channel": 0,
        "type": "noteOn",
        "noteNumber": 62,
        "velocity": 71
      },
      {
        "deltaTime": 10,
        "channel": 0,
        "type": "noteOn",
        "noteNumber": 56,
        "velocity": 58
      },
      {
        "deltaTime": 145,
        "channel": 0,
        "type": "controller",
        "controllerType": 64,
        "value": 127
      },
      {
        "deltaTime": 110,
        "channel": 0,
        "type": "noteOff",
        "noteNumber": 62,
        "velocity": 0,
        "byte9": true
      },
      {
        "deltaTime": 10,
        "channel": 0,
        "type": "noteOff",
        "noteNumber": 79,
        "velocity": 0,
        "byte9": true
      },
      {
        "deltaTime": 50,
        "channel": 0,
        "type": "noteOff",
        "noteNumber": 67,
        "velocity": 0,
        "byte9": true
      },
      {
        "deltaTime": 30,
        "channel": 0,
        "type": "noteOff",
        "noteNumber": 72,
        "velocity": 0,
        "byte9": true
      },
      {
        "deltaTime": 20,
        "channel": 0,
        "type": "noteOff",
        "noteNumber": 56,
        "velocity": 0,
        "byte9": true
      },
      {
        "deltaTime": 70,
        "channel": 0,
        "type": "controller",
        "controllerType": 64,
        "value": 0
      },
      {
        "deltaTime": 40,
        "channel": 0,
        "type": "noteOn",
        "noteNumber": 67,
        "velocity": 40
      },
      {
        "deltaTime": 0,
        "running": true,
        "channel": 0,
        "type": "noteOn",
        "noteNumber": 76,
        "velocity": 47
      },
      {
        "deltaTime": 5,
        "channel": 0,
        "type": "noteOn",
        "noteNumber": 55,
        "velocity": 41
      },
      {
        "deltaTime": 0,
        "running": true,
        "channel": 0,
        "type": "noteOn",
        "noteNumber": 60,
        "velocity": 50
      },
      {
        "deltaTime": 5,
        "channel": 0,
        "type": "noteOn",
        "noteNumber": 64,
        "velocity": 40
      },
      {
        "deltaTime": 0,
        "running": true,
        "channel": 0,
        "type": "noteOn",
        "noteNumber": 72,
        "velocity": 41
      },
      {
        "deltaTime": 120,
        "channel": 0,
        "type": "noteOff",
        "noteNumber": 55,
        "velocity": 0,
        "byte9": true
      },
      {
        "deltaTime": 5,
        "channel": 0,
        "type": "noteOff",
        "noteNumber": 64,
        "velocity": 0,
        "byte9": true
      },
      {
        "deltaTime": 0,
        "running": true,
        "channel": 0,
        "type": "noteOff",
        "noteNumber": 67,
        "velocity": 0,
        "byte9": true
      },
      {
        "deltaTime": 5,
        "channel": 0,
        "type": "noteOff",
        "noteNumber": 60,
        "velocity": 0,
        "byte9": true
      },
      {
        "deltaTime": 0,
        "running": true,
        "channel": 0,
        "type": "noteOff",
        "noteNumber": 72,
        "velocity": 0,
        "byte9": true
      },
      {
        "deltaTime": 5,
        "channel": 0,
        "type": "noteOff",
        "noteNumber": 76,
        "velocity": 0,
        "byte9": true
      },
      {
        "deltaTime": 840,
        "channel": 0,
        "type": "noteOn",
        "noteNumber": 55,
        "velocity": 65
      },
      {
        "deltaTime": 0,
        "running": true,
        "channel": 0,
        "type": "noteOn",
        "noteNumber": 60,
        "velocity": 66
      },
      {
        "deltaTime": 0,
        "running": true,
        "channel": 0,
        "type": "noteOn",
        "noteNumber": 64,
        "velocity": 66
      },
      {
        "deltaTime": 5,
        "channel": 0,
        "type": "noteOn",
        "noteNumber": 91,
        "velocity": 83
      },
      {
        "deltaTime": 5,
        "channel": 0,
        "type": "noteOn",
        "noteNumber": 57,
        "velocity": 50
      },
      {
        "deltaTime": 0,
        "running": true,
        "channel": 0,
        "type": "noteOn",
        "noteNumber": 79,
        "velocity": 77
      },
      {
        "deltaTime": 5,
        "channel": 0,
        "type": "noteOn",
        "noteNumber": 86,
        "velocity": 68
      },
      {
        "deltaTime": 25,
        "channel": 0,
        "type": "noteOff",
        "noteNumber": 57,
        "velocity": 0,
        "byte9": true
      },
      {
        "deltaTime": 0,
        "running": true,
        "channel": 0,
        "type": "noteOff",
        "noteNumber": 86,
        "velocity": 0,
        "byte9": true
      },
      {
        "deltaTime": 20,
        "channel": 0,
        "type": "noteOff",
        "noteNumber": 64,
        "velocity": 0,
        "byte9": true
      },
      {
        "deltaTime": 10,
        "channel": 0,
        "type": "noteOff",
        "noteNumber": 55,
        "velocity": 0,
        "byte9": true
      },
      {
        "deltaTime": 0,
        "running": true,
        "channel": 0,
        "type": "noteOff",
        "noteNumber": 60,
        "velocity": 0,
        "byte9": true
      },
      {
        "deltaTime": 25,
        "channel": 0,
        "type": "noteOff",
        "noteNumber": 91,
        "velocity": 0,
        "byte9": true
      },
      {
        "deltaTime": 30,
        "channel": 0,
        "type": "noteOff",
        "noteNumber": 79,
        "velocity": 0,
        "byte9": true
      },
      {
        "deltaTime": 360,
        "channel": 0,
        "type": "noteOn",
        "noteNumber": 88,
        "velocity": 77
      },
      {
        "deltaTime": 5,
        "channel": 0,
        "type": "noteOn",
        "noteNumber": 55,
        "velocity": 55
      },
      {
        "deltaTime": 0,
        "running": true,
        "channel": 0,
        "type": "noteOn",
        "noteNumber": 57,
        "velocity": 48
      },
      {
        "deltaTime": 0,
        "running": true,
        "channel": 0,
        "type": "noteOn",
        "noteNumber": 60,
        "velocity": 51
      },
      {
        "deltaTime": 0,
        "running": true,
        "channel": 0,
        "type": "noteOn",
        "noteNumber": 64,
        "velocity": 56
      },
      {
        "deltaTime": 0,
        "running": true,
        "channel": 0,
        "type": "noteOn",
        "noteNumber": 76,
        "velocity": 58
      },
      {
        "deltaTime": 0,
        "running": true,
        "channel": 0,
        "type": "noteOn",
        "noteNumber": 83,
        "velocity": 68
      },
      {
        "deltaTime": 110,
        "channel": 0,
        "type": "controller",
        "controllerType": 64,
        "value": 127
      },
      {
        "deltaTime": 330,
        "channel": 0,
        "type": "noteOff",
        "noteNumber": 76,
        "velocity": 0,
        "byte9": true
      },
      {
        "deltaTime": 10,
        "channel": 0,
        "type": "noteOff",
        "noteNumber": 60,
        "velocity": 0,
        "byte9": true
      },
      {
        "deltaTime": 5,
        "channel": 0,
        "type": "noteOff",
        "noteNumber": 64,
        "velocity": 0,
        "byte9": true
      },
      {
        "deltaTime": 25,
        "channel": 0,
        "type": "noteOff",
        "noteNumber": 55,
        "velocity": 0,
        "byte9": true
      },
      {
        "deltaTime": 0,
        "running": true,
        "channel": 0,
        "type": "noteOff",
        "noteNumber": 57,
        "velocity": 0,
        "byte9": true
      },
      {
        "deltaTime": 0,
        "running": true,
        "channel": 0,
        "type": "noteOff",
        "noteNumber": 83,
        "velocity": 0,
        "byte9": true
      },
      {
        "deltaTime": 0,
        "running": true,
        "channel": 0,
        "type": "noteOff",
        "noteNumber": 88,
        "velocity": 0,
        "byte9": true
      },
      {
        "deltaTime": 410,
        "channel": 0,
        "type": "controller",
        "controllerType": 64,
        "value": 0
      },
      {
        "deltaTime": 45,
        "channel": 0,
        "type": "noteOn",
        "noteNumber": 77,
        "velocity": 87
      },
      {
        "deltaTime": 0,
        "running": true,
        "channel": 0,
        "type": "noteOn",
        "noteNumber": 89,
        "velocity": 80
      },
      {
        "deltaTime": 5,
        "channel": 0,
        "type": "noteOn",
        "noteNumber": 56,
        "velocity": 58
      },
      {
        "deltaTime": 0,
        "running": true,
        "channel": 0,
        "type": "noteOn",
        "noteNumber": 59,
        "velocity": 64
      },
      {
        "deltaTime": 0,
        "running": true,
        "channel": 0,
        "type": "noteOn",
        "noteNumber": 84,
        "velocity": 82
      },
      {
        "deltaTime": 5,
        "channel": 0,
        "type": "noteOn",
        "noteNumber": 62,
        "velocity": 71
      },
      {
        "deltaTime": 15,
        "channel": 0,
        "type": "noteOff",
        "noteNumber": 84,
        "velocity": 0,
        "byte9": true
      },
      {
        "deltaTime": 0,
        "running": true,
        "channel": 0,
        "type": "noteOff",
        "noteNumber": 89,
        "velocity": 0,
        "byte9": true
      },
      {
        "deltaTime": 5,
        "channel": 0,
        "type": "noteOn",
        "noteNumber": 53,
        "velocity": 26
      },
      {
        "deltaTime": 5,
        "channel": 0,
        "type": "noteOff",
        "noteNumber": 59,
        "velocity": 0,
        "byte9": true
      },
      {
        "deltaTime": 0,
        "running": true,
        "channel": 0,
        "type": "noteOff",
        "noteNumber": 62,
        "velocity": 0,
        "byte9": true
      },
      {
        "deltaTime": 20,
        "channel": 0,
        "type": "noteOff",
        "noteNumber": 53,
        "velocity": 0,
        "byte9": true
      },
      {
        "deltaTime": 0,
        "running": true,
        "channel": 0,
        "type": "noteOff",
        "noteNumber": 56,
        "velocity": 0,
        "byte9": true
      },
      {
        "deltaTime": 0,
        "running": true,
        "channel": 0,
        "type": "noteOff",
        "noteNumber": 77,
        "velocity": 0,
        "byte9": true
      },
      {
        "deltaTime": 275,
        "channel": 0,
        "type": "noteOn",
        "noteNumber": 79,
        "velocity": 82
      },
      {
        "deltaTime": 5,
        "channel": 0,
        "type": "noteOn",
        "noteNumber": 71,
        "velocity": 82
      },
      {
        "deltaTime": 5,
        "channel": 0,
        "type": "noteOn",
        "noteNumber": 67,
        "velocity": 84
      },
      {
        "deltaTime": 0,
        "running": true,
        "channel": 0,
        "type": "noteOn",
        "noteNumber": 68,
        "velocity": 83
      },
      {
        "deltaTime": 5,
        "channel": 0,
        "type": "noteOn",
        "noteNumber": 74,
        "velocity": 69
      },
      {
        "deltaTime": 145,
        "channel": 0,
        "type": "noteOff",
        "noteNumber": 68,
        "velocity": 0,
        "byte9": true
      },
      {
        "deltaTime": 10,
        "channel": 0,
        "type": "noteOff",
        "noteNumber": 79,
        "velocity": 0,
        "byte9": true
      },
      {
        "deltaTime": 5,
        "channel": 0,
        "type": "noteOff",
        "noteNumber": 67,
        "velocity": 0,
        "byte9": true
      },
      {
        "deltaTime": 5,
        "channel": 0,
        "type": "noteOff",
        "noteNumber": 71,
        "velocity": 0,
        "byte9": true
      },
      {
        "deltaTime": 15,
        "channel": 0,
        "type": "noteOff",
        "noteNumber": 74,
        "velocity": 0,
        "byte9": true
      },
      {
        "deltaTime": 25,
        "channel": 0,
        "type": "noteOn",
        "noteNumber": 79,
        "velocity": 67
      },
      {
        "deltaTime": 5,
        "channel": 0,
        "type": "noteOn",
        "noteNumber": 67,
        "velocity": 64
      },
      {
        "deltaTime": 10,
        "channel": 0,
        "type": "noteOn",
        "noteNumber": 68,
        "velocity": 56
      },
      {
        "deltaTime": 5,
        "channel": 0,
        "type": "noteOn",
        "noteNumber": 71,
        "velocity": 71
      },
      {
        "deltaTime": 10,
        "channel": 0,
        "type": "noteOn",
        "noteNumber": 74,
        "velocity": 53
      },
      {
        "deltaTime": 195,
        "channel": 0,
        "type": "noteOff",
        "noteNumber": 68,
        "velocity": 0,
        "byte9": true
      },
      {
        "deltaTime": 0,
        "running": true,
        "channel": 0,
        "type": "noteOff",
        "noteNumber": 79,
        "velocity": 0,
        "byte9": true
      },
      {
        "deltaTime": 10,
        "channel": 0,
        "type": "noteOff",
        "noteNumber": 71,
        "velocity": 0,
        "byte9": true
      },
      {
        "deltaTime": 10,
        "channel": 0,
        "type": "noteOff",
        "noteNumber": 74,
        "velocity": 0,
        "byte9": true
      },
      {
        "deltaTime": 35,
        "channel": 0,
        "type": "noteOn",
        "noteNumber": 68,
        "velocity": 56
      },
      {
        "deltaTime": 5,
        "channel": 0,
        "type": "noteOn",
        "noteNumber": 65,
        "velocity": 76
      },
      {
        "deltaTime": 5,
        "channel": 0,
        "type": "noteOn",
        "noteNumber": 71,
        "velocity": 68
      },
      {
        "deltaTime": 5,
        "channel": 0,
        "type": "noteOn",
        "noteNumber": 74,
        "velocity": 54
      },
      {
        "deltaTime": 0,
        "running": true,
        "channel": 0,
        "type": "noteOn",
        "noteNumber": 77,
        "velocity": 65
      },
      {
        "deltaTime": 10,
        "channel": 0,
        "type": "noteOff",
        "noteNumber": 67,
        "velocity": 0,
        "byte9": true
      },
      {
        "deltaTime": 95,
        "channel": 0,
        "type": "noteOff",
        "noteNumber": 77,
        "velocity": 0,
        "byte9": true
      },
      {
        "deltaTime": 15,
        "channel": 0,
        "type": "noteOff",
        "noteNumber": 68,
        "velocity": 0,
        "byte9": true
      },
      {
        "deltaTime": 25,
        "channel": 0,
        "type": "noteOff",
        "noteNumber": 71,
        "velocity": 0,
        "byte9": true
      },
      {
        "deltaTime": 0,
        "running": true,
        "channel": 0,
        "type": "noteOff",
        "noteNumber": 74,
        "velocity": 0,
        "byte9": true
      },
      {
        "deltaTime": 30,
        "channel": 0,
        "type": "noteOn",
        "noteNumber": 64,
        "velocity": 51
      },
      {
        "deltaTime": 0,
        "running": true,
        "channel": 0,
        "type": "noteOff",
        "noteNumber": 65,
        "velocity": 0,
        "byte9": true
      },
      {
        "deltaTime": 25,
        "channel": 0,
        "type": "noteOn",
        "noteNumber": 68,
        "velocity": 29
      },
      {
        "deltaTime": 0,
        "running": true,
        "channel": 0,
        "type": "noteOn",
        "noteNumber": 76,
        "velocity": 54
      },
      {
        "deltaTime": 175,
        "channel": 0,
        "type": "noteOff",
        "noteNumber": 68,
        "velocity": 0,
        "byte9": true
      },
      {
        "deltaTime": 10,
        "channel": 0,
        "type": "noteOff",
        "noteNumber": 76,
        "velocity": 0,
        "byte9": true
      },
      {
        "deltaTime": 70,
        "channel": 0,
        "type": "noteOn",
        "noteNumber": 65,
        "velocity": 61
      },
      {
        "deltaTime": 10,
        "channel": 0,
        "type": "noteOn",
        "noteNumber": 68,
        "velocity": 71
      },
      {
        "deltaTime": 0,
        "running": true,
        "channel": 0,
        "type": "noteOn",
        "noteNumber": 77,
        "velocity": 74
      },
      {
        "deltaTime": 10,
        "channel": 0,
        "type": "noteOn",
        "noteNumber": 71,
        "velocity": 40
      },
      {
        "deltaTime": 5,
        "channel": 0,
        "type": "noteOff",
        "noteNumber": 65,
        "velocity": 0,
        "byte9": true
      },
      {
        "deltaTime": 30,
        "channel": 0,
        "type": "noteOff",
        "noteNumber": 64,
        "velocity": 0,
        "byte9": true
      },
      {
        "deltaTime": 0,
        "running": true,
        "channel": 0,
        "type": "noteOn",
        "noteNumber": 76,
        "velocity": 18
      },
      {
        "deltaTime": 25,
        "channel": 0,
        "type": "noteOff",
        "noteNumber": 71,
        "velocity": 0,
        "byte9": true
      },
      {
        "deltaTime": 15,
        "channel": 0,
        "type": "noteOff",
        "noteNumber": 76,
        "velocity": 0,
        "byte9": true
      },
      {
        "deltaTime": 15,
        "channel": 0,
        "type": "noteOff",
        "noteNumber": 68,
        "velocity": 0,
        "byte9": true
      },
      {
        "deltaTime": 30,
        "channel": 0,
        "type": "noteOff",
        "noteNumber": 77,
        "velocity": 0,
        "byte9": true
      },
      {
        "deltaTime": 45,
        "channel": 0,
        "type": "noteOn",
        "noteNumber": 74,
        "velocity": 59
      },
      {
        "deltaTime": 5,
        "channel": 0,
        "type": "noteOn",
        "noteNumber": 70,
        "velocity": 57
      },
      {
        "deltaTime": 5,
        "channel": 0,
        "type": "noteOn",
        "noteNumber": 62,
        "velocity": 56
      },
      {
        "deltaTime": 5,
        "channel": 0,
        "type": "noteOn",
        "noteNumber": 65,
        "velocity": 51
      },
      {
        "deltaTime": 85,
        "channel": 0,
        "type": "noteOff",
        "noteNumber": 62,
        "velocity": 0,
        "byte9": true
      },
      {
        "deltaTime": 5,
        "channel": 0,
        "type": "noteOff",
        "noteNumber": 74,
        "velocity": 0,
        "byte9": true
      },
      {
        "deltaTime": 5,
        "channel": 0,
        "type": "noteOff",
        "noteNumber": 65,
        "velocity": 0,
        "byte9": true
      },
      {
        "deltaTime": 30,
        "channel": 0,
        "type": "noteOff",
        "noteNumber": 70,
        "velocity": 0,
        "byte9": true
      },
      {
        "deltaTime": 320,
        "channel": 0,
        "type": "noteOn",
        "noteNumber": 58,
        "velocity": 64
      },
      {
        "deltaTime": 0,
        "running": true,
        "channel": 0,
        "type": "noteOn",
        "noteNumber": 62,
        "velocity": 68
      },
      {
        "deltaTime": 5,
        "channel": 0,
        "type": "noteOn",
        "noteNumber": 55,
        "velocity": 72
      },
      {
        "deltaTime": 0,
        "running": true,
        "channel": 0,
        "type": "noteOn",
        "noteNumber": 65,
        "velocity": 67
      },
      {
        "deltaTime": 5,
        "channel": 0,
        "type": "noteOn",
        "noteNumber": 53,
        "velocity": 63
      },
      {
        "deltaTime": 10,
        "channel": 0,
        "type": "noteOn",
        "noteNumber": 52,
        "velocity": 57
      },
      {
        "deltaTime": 25,
        "channel": 0,
        "type": "noteOff",
        "noteNumber": 52,
        "velocity": 0,
        "byte9": true
      },
      {
        "deltaTime": 775,
        "channel": 0,
        "type": "noteOff",
        "noteNumber": 55,
        "velocity": 0,
        "byte9": true
      },
      {
        "deltaTime": 5,
        "channel": 0,
        "type": "noteOff",
        "noteNumber": 62,
        "velocity": 0,
        "byte9": true
      },
      {
        "deltaTime": 40,
        "channel": 0,
        "type": "noteOff",
        "noteNumber": 58,
        "velocity": 0,
        "byte9": true
      },
      {
        "deltaTime": 15,
        "channel": 0,
        "type": "noteOff",
        "noteNumber": 65,
        "velocity": 0,
        "byte9": true
      },
      {
        "deltaTime": 55,
        "channel": 0,
        "type": "noteOn",
        "noteNumber": 58,
        "velocity": 42
      },
      {
        "deltaTime": 5,
        "channel": 0,
        "type": "noteOn",
        "noteNumber": 55,
        "velocity": 54
      },
      {
        "deltaTime": 5,
        "channel": 0,
        "type": "noteOn",
        "noteNumber": 50,
        "velocity": 44
      },
      {
        "deltaTime": 0,
        "running": true,
        "channel": 0,
        "type": "noteOn",
        "noteNumber": 62,
        "velocity": 57
      },
      {
        "deltaTime": 10,
        "channel": 0,
        "type": "noteOff",
        "noteNumber": 53,
        "velocity": 0,
        "byte9": true
      },
      {
        "deltaTime": 60,
        "channel": 0,
        "type": "noteOff",
        "noteNumber": 50,
        "velocity": 0,
        "byte9": true
      },
      {
        "deltaTime": 10,
        "channel": 0,
        "type": "noteOff",
        "noteNumber": 55,
        "velocity": 0,
        "byte9": true
      },
      {
        "deltaTime": 30,
        "channel": 0,
        "type": "noteOff",
        "noteNumber": 62,
        "velocity": 0,
        "byte9": true
      },
      {
        "deltaTime": 15,
        "channel": 0,
        "type": "noteOff",
        "noteNumber": 58,
        "velocity": 0,
        "byte9": true
      },
      {
        "deltaTime": 360,
        "channel": 0,
        "type": "noteOn",
        "noteNumber": 68,
        "velocity": 56
      },
      {
        "deltaTime": 0,
        "running": true,
        "channel": 0,
        "type": "noteOn",
        "noteNumber": 72,
        "velocity": 60
      },
      {
        "deltaTime": 5,
        "channel": 0,
        "type": "noteOn",
        "noteNumber": 58,
        "velocity": 42
      },
      {
        "deltaTime": 0,
        "running": true,
        "channel": 0,
        "type": "noteOn",
        "noteNumber": 64,
        "velocity": 61
      },
      {
        "deltaTime": 10,
        "channel": 0,
        "type": "noteOn",
        "noteNumber": 52,
        "velocity": 58
      },
      {
        "deltaTime": 295,
        "channel": 0,
        "type": "controller",
        "controllerType": 64,
        "value": 127
      },
      {
        "deltaTime": 175,
        "channel": 0,
        "type": "noteOff",
        "noteNumber": 52,
        "velocity": 0,
        "byte9": true
      },
      {
        "deltaTime": 65,
        "channel": 0,
        "type": "noteOff",
        "noteNumber": 58,
        "velocity": 0,
        "byte9": true
      },
      {
        "deltaTime": 25,
        "channel": 0,
        "type": "noteOff",
        "noteNumber": 64,
        "velocity": 0,
        "byte9": true
      },
      {
        "deltaTime": 0,
        "running": true,
        "channel": 0,
        "type": "noteOff",
        "noteNumber": 68,
        "velocity": 0,
        "byte9": true
      },
      {
        "deltaTime": 65,
        "channel": 0,
        "type": "noteOff",
        "noteNumber": 72,
        "velocity": 0,
        "byte9": true
      },
      {
        "deltaTime": 135,
        "channel": 0,
        "type": "noteOn",
        "noteNumber": 68,
        "velocity": 63
      },
      {
        "deltaTime": 5,
        "channel": 0,
        "type": "noteOn",
        "noteNumber": 58,
        "velocity": 54
      },
      {
        "deltaTime": 0,
        "running": true,
        "channel": 0,
        "type": "noteOn",
        "noteNumber": 64,
        "velocity": 63
      },
      {
        "deltaTime": 20,
        "channel": 0,
        "type": "noteOn",
        "noteNumber": 52,
        "velocity": 56
      },
      {
        "deltaTime": 10,
        "channel": 0,
        "type": "controller",
        "controllerType": 64,
        "value": 0
      },
      {
        "deltaTime": 35,
        "channel": 0,
        "type": "controller",
        "controllerType": 64,
        "value": 127
      },
      {
        "deltaTime": 60,
        "channel": 0,
        "type": "noteOff",
        "noteNumber": 64,
        "velocity": 0,
        "byte9": true
      },
      {
        "deltaTime": 5,
        "channel": 0,
        "type": "noteOff",
        "noteNumber": 52,
        "velocity": 0,
        "byte9": true
      },
      {
        "deltaTime": 30,
        "channel": 0,
        "type": "noteOff",
        "noteNumber": 58,
        "velocity": 0,
        "byte9": true
      },
      {
        "deltaTime": 10,
        "channel": 0,
        "type": "noteOff",
        "noteNumber": 68,
        "velocity": 0,
        "byte9": true
      },
      {
        "deltaTime": 305,
        "channel": 0,
        "type": "noteOn",
        "noteNumber": 94,
        "velocity": 91
      },
      {
        "deltaTime": 5,
        "channel": 0,
        "type": "noteOn",
        "noteNumber": 82,
        "velocity": 88
      },
      {
        "deltaTime": 0,
        "running": true,
        "channel": 0,
        "type": "noteOn",
        "noteNumber": 89,
        "velocity": 89
      },
      {
        "deltaTime": 5,
        "channel": 0,
        "type": "noteOn",
        "noteNumber": 56,
        "velocity": 78
      },
      {
        "deltaTime": 0,
        "running": true,
        "channel": 0,
        "type": "noteOn",
        "noteNumber": 62,
        "velocity": 83
      },
      {
        "deltaTime": 0,
        "running": true,
        "channel": 0,
        "type": "noteOn",
        "noteNumber": 67,
        "velocity": 92
      },
      {
        "deltaTime": 15,
        "channel": 0,
        "type": "controller",
        "controllerType": 64,
        "value": 0
      },
      {
        "deltaTime": 130,
        "channel": 0,
        "type": "controller",
        "controllerType": 64,
        "value": 127
      },
      {
        "deltaTime": 170,
        "channel": 0,
        "type": "noteOff",
        "noteNumber": 89,
        "velocity": 0,
        "byte9": true
      },
      {
        "deltaTime": 5,
        "channel": 0,
        "type": "noteOff",
        "noteNumber": 94,
        "velocity": 0,
        "byte9": true
      },
      {
        "deltaTime": 5,
        "channel": 0,
        "type": "noteOff",
        "noteNumber": 67,
        "velocity": 0,
        "byte9": true
      },
      {
        "deltaTime": 0,
        "running": true,
        "channel": 0,
        "type": "noteOff",
        "noteNumber": 82,
        "velocity": 0,
        "byte9": true
      },
      {
        "deltaTime": 10,
        "channel": 0,
        "type": "noteOff",
        "noteNumber": 56,
        "velocity": 0,
        "byte9": true
      },
      {
        "deltaTime": 0,
        "running": true,
        "channel": 0,
        "type": "noteOff",
        "noteNumber": 62,
        "velocity": 0,
        "byte9": true
      },
      {
        "deltaTime": 20,
        "channel": 0,
        "type": "noteOn",
        "noteNumber": 56,
        "velocity": 33
      },
      {
        "deltaTime": 5,
        "channel": 0,
        "type": "noteOn",
        "noteNumber": 67,
        "velocity": 66
      },
      {
        "deltaTime": 10,
        "channel": 0,
        "type": "noteOn",
        "noteNumber": 62,
        "velocity": 59
      },
      {
        "deltaTime": 0,
        "running": true,
        "channel": 0,
        "type": "noteOn",
        "noteNumber": 88,
        "velocity": 58
      },
      {
        "deltaTime": 0,
        "running": true,
        "channel": 0,
        "type": "noteOn",
        "noteNumber": 93,
        "velocity": 74
      },
      {
        "deltaTime": 5,
        "channel": 0,
        "type": "noteOn",
        "noteNumber": 81,
        "velocity": 57
      },
      {
        "deltaTime": 5,
        "channel": 0,
        "type": "noteOn",
        "noteNumber": 89,
        "velocity": 45
      },
      {
        "deltaTime": 20,
        "channel": 0,
        "type": "noteOn",
        "noteNumber": 90,
        "velocity": 26
      },
      {
        "deltaTime": 5,
        "channel": 0,
        "type": "noteOff",
        "noteNumber": 89,
        "velocity": 0,
        "byte9": true
      },
      {
        "deltaTime": 85,
        "channel": 0,
        "type": "noteOff",
        "noteNumber": 88,
        "velocity": 0,
        "byte9": true
      },
      {
        "deltaTime": 0,
        "running": true,
        "channel": 0,
        "type": "noteOff",
        "noteNumber": 93,
        "velocity": 0,
        "byte9": true
      },
      {
        "deltaTime": 10,
        "channel": 0,
        "type": "noteOff",
        "noteNumber": 62,
        "velocity": 0,
        "byte9": true
      },
      {
        "deltaTime": 10,
        "channel": 0,
        "type": "noteOff",
        "noteNumber": 67,
        "velocity": 0,
        "byte9": true
      },
      {
        "deltaTime": 5,
        "channel": 0,
        "type": "noteOff",
        "noteNumber": 90,
        "velocity": 0,
        "byte9": true
      },
      {
        "deltaTime": 20,
        "channel": 0,
        "type": "noteOff",
        "noteNumber": 81,
        "velocity": 0,
        "byte9": true
      },
      {
        "deltaTime": 30,
        "channel": 0,
        "type": "noteOff",
        "noteNumber": 56,
        "velocity": 0,
        "byte9": true
      },
      {
        "deltaTime": 20,
        "channel": 0,
        "type": "controller",
        "controllerType": 64,
        "value": 0
      },
      {
        "deltaTime": 35,
        "channel": 0,
        "type": "noteOn",
        "noteNumber": 79,
        "velocity": 53
      },
      {
        "deltaTime": 0,
        "running": true,
        "channel": 0,
        "type": "noteOn",
        "noteNumber": 91,
        "velocity": 51
      },
      {
        "deltaTime": 5,
        "channel": 0,
        "type": "noteOn",
        "noteNumber": 55,
        "velocity": 64
      },
      {
        "deltaTime": 0,
        "running": true,
        "channel": 0,
        "type": "noteOn",
        "noteNumber": 64,
        "velocity": 62
      },
      {
        "deltaTime": 5,
        "channel": 0,
        "type": "noteOn",
        "noteNumber": 60,
        "velocity": 60
      },
      {
        "deltaTime": 5,
        "channel": 0,
        "type": "noteOn",
        "noteNumber": 86,
        "velocity": 61
      },
      {
        "deltaTime": 420,
        "channel": 0,
        "type": "controller",
        "controllerType": 64,
        "value": 127
      },
      {
        "deltaTime": 20,
        "channel": 0,
        "type": "noteOff",
        "noteNumber": 91,
        "velocity": 0,
        "byte9": true
      },
      {
        "deltaTime": 35,
        "channel": 0,
        "type": "noteOff",
        "noteNumber": 86,
        "velocity": 0,
        "byte9": true
      },
      {
        "deltaTime": 30,
        "channel": 0,
        "type": "noteOff",
        "noteNumber": 64,
        "velocity": 0,
        "byte9": true
      },
      {
        "deltaTime": 0,
        "running": true,
        "channel": 0,
        "type": "noteOff",
        "noteNumber": 79,
        "velocity": 0,
        "byte9": true
      },
      {
        "deltaTime": 80,
        "channel": 0,
        "type": "noteOff",
        "noteNumber": 55,
        "velocity": 0,
        "byte9": true
      },
      {
        "deltaTime": 15,
        "channel": 0,
        "type": "noteOff",
        "noteNumber": 60,
        "velocity": 0,
        "byte9": true
      },
      {
        "deltaTime": 190,
        "channel": 0,
        "type": "noteOn",
        "noteNumber": 60,
        "velocity": 61
      },
      {
        "deltaTime": 0,
        "running": true,
        "channel": 0,
        "type": "noteOn",
        "noteNumber": 76,
        "velocity": 54
      },
      {
        "deltaTime": 0,
        "running": true,
        "channel": 0,
        "type": "noteOn",
        "noteNumber": 88,
        "velocity": 57
      },
      {
        "deltaTime": 5,
        "channel": 0,
        "type": "noteOn",
        "noteNumber": 55,
        "velocity": 64
      },
      {
        "deltaTime": 0,
        "running": true,
        "channel": 0,
        "type": "noteOn",
        "noteNumber": 83,
        "velocity": 56
      },
      {
        "deltaTime": 5,
        "channel": 0,
        "type": "controller",
        "controllerType": 64,
        "value": 0
      },
      {
        "deltaTime": 0,
        "channel": 0,
        "type": "noteOn",
        "noteNumber": 64,
        "velocity": 57
      },
      {
        "deltaTime": 35,
        "channel": 0,
        "type": "noteOff",
        "noteNumber": 64,
        "velocity": 0,
        "byte9": true
      },
      {
        "deltaTime": 20,
        "channel": 0,
        "type": "noteOff",
        "noteNumber": 55,
        "velocity": 0,
        "byte9": true
      },
      {
        "deltaTime": 0,
        "running": true,
        "channel": 0,
        "type": "noteOff",
        "noteNumber": 60,
        "velocity": 0,
        "byte9": true
      },
      {
        "deltaTime": 5,
        "channel": 0,
        "type": "noteOff",
        "noteNumber": 83,
        "velocity": 0,
        "byte9": true
      },
      {
        "deltaTime": 0,
        "running": true,
        "channel": 0,
        "type": "noteOff",
        "noteNumber": 88,
        "velocity": 0,
        "byte9": true
      },
      {
        "deltaTime": 10,
        "channel": 0,
        "type": "noteOff",
        "noteNumber": 76,
        "velocity": 0,
        "byte9": true
      },
      {
        "deltaTime": 425,
        "channel": 0,
        "type": "noteOn",
        "noteNumber": 84,
        "velocity": 79
      },
      {
        "deltaTime": 5,
        "channel": 0,
        "type": "noteOn",
        "noteNumber": 72,
        "velocity": 68
      },
      {
        "deltaTime": 0,
        "running": true,
        "channel": 0,
        "type": "noteOn",
        "noteNumber": 79,
        "velocity": 70
      },
      {
        "deltaTime": 5,
        "channel": 0,
        "type": "noteOn",
        "noteNumber": 60,
        "velocity": 65
      },
      {
        "deltaTime": 5,
        "channel": 0,
        "type": "noteOn",
        "noteNumber": 64,
        "velocity": 68
      },
      {
        "deltaTime": 5,
        "channel": 0,
        "type": "noteOn",
        "noteNumber": 55,
        "velocity": 69
      },
      {
        "deltaTime": 150,
        "channel": 0,
        "type": "controller",
        "controllerType": 64,
        "value": 127
      },
      {
        "deltaTime": 120,
        "channel": 0,
        "type": "noteOff",
        "noteNumber": 84,
        "velocity": 0,
        "byte9": true
      },
      {
        "deltaTime": 50,
        "channel": 0,
        "type": "noteOff",
        "noteNumber": 79,
        "velocity": 0,
        "byte9": true
      },
      {
        "deltaTime": 10,
        "channel": 0,
        "type": "noteOff",
        "noteNumber": 72,
        "velocity": 0,
        "byte9": true
      },
      {
        "deltaTime": 60,
        "channel": 0,
        "type": "noteOff",
        "noteNumber": 55,
        "velocity": 0,
        "byte9": true
      },
      {
        "deltaTime": 10,
        "channel": 0,
        "type": "noteOff",
        "noteNumber": 64,
        "velocity": 0,
        "byte9": true
      },
      {
        "deltaTime": 25,
        "channel": 0,
        "type": "noteOff",
        "noteNumber": 60,
        "velocity": 0,
        "byte9": true
      },
      {
        "deltaTime": 130,
        "channel": 0,
        "type": "controller",
        "controllerType": 64,
        "value": 0
      },
      {
        "deltaTime": 50,
        "channel": 0,
        "type": "noteOn",
        "noteNumber": 60,
        "velocity": 57
      },
      {
        "deltaTime": 0,
        "running": true,
        "channel": 0,
        "type": "noteOn",
        "noteNumber": 70,
        "velocity": 63
      },
      {
        "deltaTime": 0,
        "running": true,
        "channel": 0,
        "type": "noteOn",
        "noteNumber": 82,
        "velocity": 65
      },
      {
        "deltaTime": 10,
        "channel": 0,
        "type": "noteOn",
        "noteNumber": 54,
        "velocity": 54
      },
      {
        "deltaTime": 0,
        "running": true,
        "channel": 0,
        "type": "noteOn",
        "noteNumber": 75,
        "velocity": 48
      },
      {
        "deltaTime": 5,
        "channel": 0,
        "type": "noteOn",
        "noteNumber": 64,
        "velocity": 49
      },
      {
        "deltaTime": 120,
        "channel": 0,
        "type": "noteOff",
        "noteNumber": 64,
        "velocity": 0,
        "byte9": true
      },
      {
        "deltaTime": 15,
        "channel": 0,
        "type": "noteOff",
        "noteNumber": 75,
        "velocity": 0,
        "byte9": true
      },
      {
        "deltaTime": 10,
        "channel": 0,
        "type": "noteOff",
        "noteNumber": 60,
        "velocity": 0,
        "byte9": true
      },
      {
        "deltaTime": 0,
        "running": true,
        "channel": 0,
        "type": "noteOff",
        "noteNumber": 70,
        "velocity": 0,
        "byte9": true
      },
      {
        "deltaTime": 0,
        "running": true,
        "channel": 0,
        "type": "noteOff",
        "noteNumber": 82,
        "velocity": 0,
        "byte9": true
      },
      {
        "deltaTime": 5,
        "channel": 0,
        "type": "noteOff",
        "noteNumber": 54,
        "velocity": 0,
        "byte9": true
      },
      {
        "deltaTime": 310,
        "channel": 0,
        "type": "noteOn",
        "noteNumber": 60,
        "velocity": 51
      },
      {
        "deltaTime": 0,
        "running": true,
        "channel": 0,
        "type": "noteOn",
        "noteNumber": 71,
        "velocity": 54
      },
      {
        "deltaTime": 0,
        "running": true,
        "channel": 0,
        "type": "noteOn",
        "noteNumber": 76,
        "velocity": 57
      },
      {
        "deltaTime": 0,
        "running": true,
        "channel": 0,
        "type": "noteOn",
        "noteNumber": 83,
        "velocity": 52
      },
      {
        "deltaTime": 5,
        "channel": 0,
        "type": "noteOn",
        "noteNumber": 54,
        "velocity": 49
      },
      {
        "deltaTime": 0,
        "running": true,
        "channel": 0,
        "type": "noteOn",
        "noteNumber": 64,
        "velocity": 51
      },
      {
        "deltaTime": 140,
        "channel": 0,
        "type": "noteOff",
        "noteNumber": 71,
        "velocity": 0,
        "byte9": true
      },
      {
        "deltaTime": 10,
        "channel": 0,
        "type": "noteOff",
        "noteNumber": 76,
        "velocity": 0,
        "byte9": true
      },
      {
        "deltaTime": 30,
        "channel": 0,
        "type": "noteOff",
        "noteNumber": 60,
        "velocity": 0,
        "byte9": true
      },
      {
        "deltaTime": 0,
        "running": true,
        "channel": 0,
        "type": "noteOff",
        "noteNumber": 64,
        "velocity": 0,
        "byte9": true
      },
      {
        "deltaTime": 5,
        "channel": 0,
        "type": "noteOff",
        "noteNumber": 83,
        "velocity": 0,
        "byte9": true
      },
      {
        "deltaTime": 5,
        "channel": 0,
        "type": "noteOff",
        "noteNumber": 54,
        "velocity": 0,
        "byte9": true
      },
      {
        "deltaTime": 340,
        "channel": 0,
        "type": "controller",
        "controllerType": 64,
        "value": 127
      },
      {
        "deltaTime": 270,
        "channel": 0,
        "type": "controller",
        "controllerType": 64,
        "value": 0
      },
      {
        "deltaTime": 0,
        "channel": 0,
        "type": "noteOn",
        "noteNumber": 54,
        "velocity": 69
      },
      {
        "deltaTime": 5,
        "channel": 0,
        "type": "noteOn",
        "noteNumber": 60,
        "velocity": 67
      },
      {
        "deltaTime": 0,
        "running": true,
        "channel": 0,
        "type": "noteOn",
        "noteNumber": 88,
        "velocity": 80
      },
      {
        "deltaTime": 5,
        "channel": 0,
        "type": "noteOn",
        "noteNumber": 76,
        "velocity": 71
      },
      {
        "deltaTime": 0,
        "running": true,
        "channel": 0,
        "type": "noteOn",
        "noteNumber": 83,
        "velocity": 74
      },
      {
        "deltaTime": 5,
        "channel": 0,
        "type": "noteOn",
        "noteNumber": 64,
        "velocity": 62
      },
      {
        "deltaTime": 80,
        "channel": 0,
        "type": "controller",
        "controllerType": 64,
        "value": 127
      },
      {
        "deltaTime": 0,
        "channel": 0,
        "type": "noteOff",
        "noteNumber": 88,
        "velocity": 0,
        "byte9": true
      },
      {
        "deltaTime": 15,
        "channel": 0,
        "type": "noteOff",
        "noteNumber": 64,
        "velocity": 0,
        "byte9": true
      },
      {
        "deltaTime": 0,
        "running": true,
        "channel": 0,
        "type": "noteOff",
        "noteNumber": 83,
        "velocity": 0,
        "byte9": true
      },
      {
        "deltaTime": 5,
        "channel": 0,
        "type": "noteOff",
        "noteNumber": 76,
        "velocity": 0,
        "byte9": true
      },
      {
        "deltaTime": 20,
        "channel": 0,
        "type": "noteOff",
        "noteNumber": 60,
        "velocity": 0,
        "byte9": true
      },
      {
        "deltaTime": 5,
        "channel": 0,
        "type": "noteOff",
        "noteNumber": 54,
        "velocity": 0,
        "byte9": true
      },
      {
        "deltaTime": 10,
        "channel": 0,
        "type": "controller",
        "controllerType": 64,
        "value": 0
      },
      {
        "deltaTime": 20,
        "channel": 0,
        "type": "noteOn",
        "noteNumber": 54,
        "velocity": 23
      },
      {
        "deltaTime": 15,
        "channel": 0,
        "type": "noteOn",
        "noteNumber": 60,
        "velocity": 33
      },
      {
        "deltaTime": 5,
        "channel": 0,
        "type": "noteOn",
        "noteNumber": 64,
        "velocity": 35
      },
      {
        "deltaTime": 5,
        "channel": 0,
        "type": "noteOn",
        "noteNumber": 86,
        "velocity": 28
      },
      {
        "deltaTime": 5,
        "channel": 0,
        "type": "noteOn",
        "noteNumber": 74,
        "velocity": 36
      },
      {
        "deltaTime": 80,
        "channel": 0,
        "type": "noteOff",
        "noteNumber": 74,
        "velocity": 0,
        "byte9": true
      },
      {
        "deltaTime": 15,
        "channel": 0,
        "type": "noteOff",
        "noteNumber": 86,
        "velocity": 0,
        "byte9": true
      },
      {
        "deltaTime": 5,
        "channel": 0,
        "type": "controller",
        "controllerType": 64,
        "value": 127
      },
      {
        "deltaTime": 15,
        "channel": 0,
        "type": "noteOff",
        "noteNumber": 60,
        "velocity": 0,
        "byte9": true
      },
      {
        "deltaTime": 25,
        "channel": 0,
        "type": "noteOff",
        "noteNumber": 64,
        "velocity": 0,
        "byte9": true
      },
      {
        "deltaTime": 70,
        "channel": 0,
        "type": "noteOff",
        "noteNumber": 54,
        "velocity": 0,
        "byte9": true
      },
      {
        "deltaTime": 50,
        "channel": 0,
        "type": "controller",
        "controllerType": 64,
        "value": 0
      },
      {
        "deltaTime": 10,
        "channel": 0,
        "type": "noteOn",
        "noteNumber": 62,
        "velocity": 71
      },
      {
        "deltaTime": 5,
        "channel": 0,
        "type": "noteOn",
        "noteNumber": 57,
        "velocity": 66
      },
      {
        "deltaTime": 0,
        "running": true,
        "channel": 0,
        "type": "noteOn",
        "noteNumber": 58,
        "velocity": 58
      },
      {
        "deltaTime": 0,
        "running": true,
        "channel": 0,
        "type": "noteOn",
        "noteNumber": 82,
        "velocity": 71
      },
      {
        "deltaTime": 0,
        "running": true,
        "channel": 0,
        "type": "noteOn",
        "noteNumber": 86,
        "velocity": 71
      },
      {
        "deltaTime": 5,
        "channel": 0,
        "type": "noteOn",
        "noteNumber": 77,
        "velocity": 78
      },
      {
        "deltaTime": 0,
        "running": true,
        "channel": 0,
        "type": "noteOn",
        "noteNumber": 89,
        "velocity": 79
      },
      {
        "deltaTime": 5,
        "channel": 0,
        "type": "noteOn",
        "noteNumber": 53,
        "velocity": 61
      },
      {
        "deltaTime": 115,
        "channel": 0,
        "type": "controller",
        "controllerType": 64,
        "value": 127
      },
      {
        "deltaTime": 355,
        "channel": 0,
        "type": "noteOff",
        "noteNumber": 77,
        "velocity": 0,
        "byte9": true
      },
      {
        "deltaTime": 10,
        "channel": 0,
        "type": "noteOff",
        "noteNumber": 86,
        "velocity": 0,
        "byte9": true
      },
      {
        "deltaTime": 0,
        "running": true,
        "channel": 0,
        "type": "noteOff",
        "noteNumber": 89,
        "velocity": 0,
        "byte9": true
      },
      {
        "deltaTime": 20,
        "channel": 0,
        "type": "noteOff",
        "noteNumber": 82,
        "velocity": 0,
        "byte9": true
      },
      {
        "deltaTime": 5,
        "channel": 0,
        "type": "noteOff",
        "noteNumber": 62,
        "velocity": 0,
        "byte9": true
      },
      {
        "deltaTime": 5,
        "channel": 0,
        "type": "noteOff",
        "noteNumber": 53,
        "velocity": 0,
        "byte9": true
      },
      {
        "deltaTime": 15,
        "channel": 0,
        "type": "noteOff",
        "noteNumber": 57,
        "velocity": 0,
        "byte9": true
      },
      {
        "deltaTime": 10,
        "channel": 0,
        "type": "noteOff",
        "noteNumber": 58,
        "velocity": 0,
        "byte9": true
      },
      {
        "deltaTime": 50,
        "channel": 0,
        "type": "controller",
        "controllerType": 64,
        "value": 0
      },
      {
        "deltaTime": 25,
        "channel": 0,
        "type": "noteOn",
        "noteNumber": 58,
        "velocity": 37
      },
      {
        "deltaTime": 5,
        "channel": 0,
        "type": "noteOn",
        "noteNumber": 62,
        "velocity": 56
      },
      {
        "deltaTime": 15,
        "channel": 0,
        "type": "noteOn",
        "noteNumber": 57,
        "velocity": 32
      },
      {
        "deltaTime": 0,
        "running": true,
        "channel": 0,
        "type": "noteOn",
        "noteNumber": 86,
        "velocity": 41
      },
      {
        "deltaTime": 5,
        "channel": 0,
        "type": "noteOn",
        "noteNumber": 74,
        "velocity": 35
      },
      {
        "deltaTime": 35,
        "channel": 0,
        "type": "noteOff",
        "noteNumber": 57,
        "velocity": 0,
        "byte9": true
      },
      {
        "deltaTime": 10,
        "channel": 0,
        "type": "noteOff",
        "noteNumber": 62,
        "velocity": 0,
        "byte9": true
      },
      {
        "deltaTime": 15,
        "channel": 0,
        "type": "noteOff",
        "noteNumber": 74,
        "velocity": 0,
        "byte9": true
      },
      {
        "deltaTime": 15,
        "channel": 0,
        "type": "noteOff",
        "noteNumber": 58,
        "velocity": 0,
        "byte9": true
      },
      {
        "deltaTime": 20,
        "channel": 0,
        "type": "noteOff",
        "noteNumber": 86,
        "velocity": 0,
        "byte9": true
      },
      {
        "deltaTime": 380,
        "channel": 0,
        "type": "noteOn",
        "noteNumber": 58,
        "velocity": 40
      },
      {
        "deltaTime": 0,
        "running": true,
        "channel": 0,
        "type": "noteOn",
        "noteNumber": 62,
        "velocity": 61
      },
      {
        "deltaTime": 0,
        "running": true,
        "channel": 0,
        "type": "noteOn",
        "noteNumber": 89,
        "velocity": 55
      },
      {
        "deltaTime": 5,
        "channel": 0,
        "type": "noteOn",
        "noteNumber": 77,
        "velocity": 35
      },
      {
        "deltaTime": 0,
        "running": true,
        "channel": 0,
        "type": "noteOn",
        "noteNumber": 86,
        "velocity": 37
      },
      {
        "deltaTime": 5,
        "channel": 0,
        "type": "noteOn",
        "noteNumber": 57,
        "velocity": 42
      },
      {
        "deltaTime": 0,
        "running": true,
        "channel": 0,
        "type": "noteOn",
        "noteNumber": 82,
        "velocity": 31
      },
      {
        "deltaTime": 10,
        "channel": 0,
        "type": "noteOn",
        "noteNumber": 53,
        "velocity": 37
      },
      {
        "deltaTime": 125,
        "channel": 0,
        "type": "noteOff",
        "noteNumber": 82,
        "velocity": 0,
        "byte9": true
      },
      {
        "deltaTime": 5,
        "channel": 0,
        "type": "noteOff",
        "noteNumber": 53,
        "velocity": 0,
        "byte9": true
      },
      {
        "deltaTime": 5,
        "channel": 0,
        "type": "noteOff",
        "noteNumber": 77,
        "velocity": 0,
        "byte9": true
      },
      {
        "deltaTime": 10,
        "channel": 0,
        "type": "noteOff",
        "noteNumber": 58,
        "velocity": 0,
        "byte9": true
      },
      {
        "deltaTime": 5,
        "channel": 0,
        "type": "noteOff",
        "noteNumber": 57,
        "velocity": 0,
        "byte9": true
      },
      {
        "deltaTime": 0,
        "running": true,
        "channel": 0,
        "type": "noteOff",
        "noteNumber": 62,
        "velocity": 0,
        "byte9": true
      },
      {
        "deltaTime": 0,
        "running": true,
        "channel": 0,
        "type": "noteOff",
        "noteNumber": 86,
        "velocity": 0,
        "byte9": true
      },
      {
        "deltaTime": 0,
        "running": true,
        "channel": 0,
        "type": "noteOff",
        "noteNumber": 89,
        "velocity": 0,
        "byte9": true
      },
      {
        "deltaTime": 475,
        "channel": 0,
        "type": "controller",
        "controllerType": 64,
        "value": 127
      },
      {
        "deltaTime": 80,
        "channel": 0,
        "type": "controller",
        "controllerType": 64,
        "value": 0
      },
      {
        "deltaTime": 130,
        "channel": 0,
        "type": "noteOn",
        "noteNumber": 58,
        "velocity": 64
      },
      {
        "deltaTime": 0,
        "running": true,
        "channel": 0,
        "type": "noteOn",
        "noteNumber": 62,
        "velocity": 74
      },
      {
        "deltaTime": 0,
        "running": true,
        "channel": 0,
        "type": "noteOn",
        "noteNumber": 86,
        "velocity": 87
      },
      {
        "deltaTime": 5,
        "channel": 0,
        "type": "noteOn",
        "noteNumber": 52,
        "velocity": 79
      },
      {
        "deltaTime": 110,
        "channel": 0,
        "type": "noteOff",
        "noteNumber": 52,
        "velocity": 0,
        "byte9": true
      },
      {
        "deltaTime": 0,
        "running": true,
        "channel": 0,
        "type": "noteOff",
        "noteNumber": 62,
        "velocity": 0,
        "byte9": true
      },
      {
        "deltaTime": 5,
        "channel": 0,
        "type": "noteOff",
        "noteNumber": 86,
        "velocity": 0,
        "byte9": true
      },
      {
        "deltaTime": 20,
        "channel": 0,
        "type": "noteOff",
        "noteNumber": 58,
        "velocity": 0,
        "byte9": true
      },
      {
        "deltaTime": 80,
        "channel": 0,
        "type": "noteOn",
        "noteNumber": 62,
        "velocity": 63
      },
      {
        "deltaTime": 5,
        "channel": 0,
        "type": "noteOn",
        "noteNumber": 58,
        "velocity": 48
      },
      {
        "deltaTime": 0,
        "running": true,
        "channel": 0,
        "type": "noteOn",
        "noteNumber": 86,
        "velocity": 60
      },
      {
        "deltaTime": 5,
        "channel": 0,
        "type": "noteOn",
        "noteNumber": 52,
        "velocity": 64
      },
      {
        "deltaTime": 0,
        "running": true,
        "channel": 0,
        "type": "noteOn",
        "noteNumber": 77,
        "velocity": 54
      },
      {
        "deltaTime": 0,
        "running": true,
        "channel": 0,
        "type": "noteOn",
        "noteNumber": 89,
        "velocity": 71
      },
      {
        "deltaTime": 5,
        "channel": 0,
        "type": "noteOn",
        "noteNumber": 82,
        "velocity": 48
      },
      {
        "deltaTime": 185,
        "channel": 0,
        "type": "noteOff",
        "noteNumber": 52,
        "velocity": 0,
        "byte9": true
      },
      {
        "deltaTime": 5,
        "channel": 0,
        "type": "noteOff",
        "noteNumber": 86,
        "velocity": 0,
        "byte9": true
      },
      {
        "deltaTime": 5,
        "channel": 0,
        "type": "noteOff",
        "noteNumber": 77,
        "velocity": 0,
        "byte9": true
      },
      {
        "deltaTime": 5,
        "channel": 0,
        "type": "noteOff",
        "noteNumber": 82,
        "velocity": 0,
        "byte9": true
      },
      {
        "deltaTime": 10,
        "channel": 0,
        "type": "noteOff",
        "noteNumber": 58,
        "velocity": 0,
        "byte9": true
      },
      {
        "deltaTime": 5,
        "channel": 0,
        "type": "noteOff",
        "noteNumber": 62,
        "velocity": 0,
        "byte9": true
      },
      {
        "deltaTime": 10,
        "channel": 0,
        "type": "noteOff",
        "noteNumber": 89,
        "velocity": 0,
        "byte9": true
      },
      {
        "deltaTime": 10,
        "channel": 0,
        "type": "controller",
        "controllerType": 64,
        "value": 127
      },
      {
        "deltaTime": 45,
        "channel": 0,
        "type": "controller",
        "controllerType": 64,
        "value": 0
      },
      {
        "deltaTime": 85,
        "channel": 0,
        "type": "noteOn",
        "noteNumber": 86,
        "velocity": 71
      },
      {
        "deltaTime": 5,
        "channel": 0,
        "type": "noteOn",
        "noteNumber": 52,
        "velocity": 62
      },
      {
        "deltaTime": 0,
        "running": true,
        "channel": 0,
        "type": "noteOn",
        "noteNumber": 62,
        "velocity": 48
      },
      {
        "deltaTime": 5,
        "channel": 0,
        "type": "noteOn",
        "noteNumber": 58,
        "velocity": 40
      },
      {
        "deltaTime": 5,
        "channel": 0,
        "type": "noteOn",
        "noteNumber": 77,
        "velocity": 48
      },
      {
        "deltaTime": 10,
        "channel": 0,
        "type": "noteOn",
        "noteNumber": 82,
        "velocity": 34
      },
      {
        "deltaTime": 145,
        "channel": 0,
        "type": "noteOff",
        "noteNumber": 52,
        "velocity": 0,
        "byte9": true
      },
      {
        "deltaTime": 10,
        "channel": 0,
        "type": "noteOff",
        "noteNumber": 77,
        "velocity": 0,
        "byte9": true
      },
      {
        "deltaTime": 0,
        "running": true,
        "channel": 0,
        "type": "noteOff",
        "noteNumber": 82,
        "velocity": 0,
        "byte9": true
      },
      {
        "deltaTime": 5,
        "channel": 0,
        "type": "noteOff",
        "noteNumber": 62,
        "velocity": 0,
        "byte9": true
      },
      {
        "deltaTime": 5,
        "channel": 0,
        "type": "noteOff",
        "noteNumber": 86,
        "velocity": 0,
        "byte9": true
      },
      {
        "deltaTime": 50,
        "channel": 0,
        "type": "noteOff",
        "noteNumber": 58,
        "velocity": 0,
        "byte9": true
      },
      {
        "deltaTime": 80,
        "channel": 0,
        "type": "noteOn",
        "noteNumber": 52,
        "velocity": 66
      },
      {
        "deltaTime": 5,
        "channel": 0,
        "type": "noteOn",
        "noteNumber": 58,
        "velocity": 59
      },
      {
        "deltaTime": 0,
        "running": true,
        "channel": 0,
        "type": "noteOn",
        "noteNumber": 61,
        "velocity": 64
      },
      {
        "deltaTime": 0,
        "running": true,
        "channel": 0,
        "type": "noteOn",
        "noteNumber": 77,
        "velocity": 70
      },
      {
        "deltaTime": 0,
        "running": true,
        "channel": 0,
        "type": "noteOn",
        "noteNumber": 82,
        "velocity": 61
      },
      {
        "deltaTime": 0,
        "running": true,
        "channel": 0,
        "type": "noteOn",
        "noteNumber": 85,
        "velocity": 64
      },
      {
        "deltaTime": 10,
        "channel": 0,
        "type": "noteOn",
        "noteNumber": 89,
        "velocity": 69
      },
      {
        "deltaTime": 75,
        "channel": 0,
        "type": "noteOff",
        "noteNumber": 77,
        "velocity": 0,
        "byte9": true
      },
      {
        "deltaTime": 0,
        "running": true,
        "channel": 0,
        "type": "noteOff",
        "noteNumber": 89,
        "velocity": 0,
        "byte9": true
      },
      {
        "deltaTime": 5,
        "channel": 0,
        "type": "noteOff",
        "noteNumber": 52,
        "velocity": 0,
        "byte9": true
      },
      {
        "deltaTime": 0,
        "running": true,
        "channel": 0,
        "type": "noteOff",
        "noteNumber": 82,
        "velocity": 0,
        "byte9": true
      },
      {
        "deltaTime": 5,
        "channel": 0,
        "type": "noteOff",
        "noteNumber": 61,
        "velocity": 0,
        "byte9": true
      },
      {
        "deltaTime": 10,
        "channel": 0,
        "type": "noteOff",
        "noteNumber": 85,
        "velocity": 0,
        "byte9": true
      },
      {
        "deltaTime": 25,
        "channel": 0,
        "type": "noteOff",
        "noteNumber": 58,
        "velocity": 0,
        "byte9": true
      },
      {
        "deltaTime": 525,
        "channel": 0,
        "type": "controller",
        "controllerType": 64,
        "value": 127
      },
      {
        "deltaTime": 275,
        "channel": 0,
        "type": "noteOn",
        "noteNumber": 86,
        "velocity": 80
      },
      {
        "deltaTime": 50,
        "channel": 0,
        "type": "controller",
        "controllerType": 64,
        "value": 0
      },
      {
        "deltaTime": 20,
        "channel": 0,
        "type": "noteOff",
        "noteNumber": 86,
        "velocity": 0,
        "byte9": true
      },
      {
        "deltaTime": 120,
        "channel": 0,
        "type": "noteOn",
        "noteNumber": 89,
        "velocity": 77
      },
      {
        "deltaTime": 5,
        "channel": 0,
        "type": "noteOn",
        "noteNumber": 84,
        "velocity": 74
      },
      {
        "deltaTime": 5,
        "channel": 0,
        "type": "noteOn",
        "noteNumber": 77,
        "velocity": 66
      },
      {
        "deltaTime": 15,
        "channel": 0,
        "type": "noteOff",
        "noteNumber": 89,
        "velocity": 0,
        "byte9": true
      },
      {
        "deltaTime": 5,
        "channel": 0,
        "type": "noteOff",
        "noteNumber": 84,
        "velocity": 0,
        "byte9": true
      },
      {
        "deltaTime": 10,
        "channel": 0,
        "type": "noteOff",
        "noteNumber": 77,
        "velocity": 0,
        "byte9": true
      },
      {
        "deltaTime": 270,
        "channel": 0,
        "type": "noteOn",
        "noteNumber": 64,
        "velocity": 79
      },
      {
        "deltaTime": 0,
        "running": true,
        "channel": 0,
        "type": "noteOn",
        "noteNumber": 69,
        "velocity": 69
      },
      {
        "deltaTime": 0,
        "running": true,
        "channel": 0,
        "type": "noteOn",
        "noteNumber": 72,
        "velocity": 73
      },
      {
        "deltaTime": 5,
        "channel": 0,
        "type": "noteOn",
        "noteNumber": 65,
        "velocity": 71
      },
      {
        "deltaTime": 5,
        "channel": 0,
        "type": "noteOn",
        "noteNumber": 57,
        "velocity": 69
      },
      {
        "deltaTime": 215,
        "channel": 0,
        "type": "controller",
        "controllerType": 64,
        "value": 127
      },
      {
        "deltaTime": 185,
        "channel": 0,
        "type": "noteOff",
        "noteNumber": 72,
        "velocity": 0,
        "byte9": true
      },
      {
        "deltaTime": 5,
        "channel": 0,
        "type": "noteOff",
        "noteNumber": 69,
        "velocity": 0,
        "byte9": true
      },
      {
        "deltaTime": 30,
        "channel": 0,
        "type": "noteOff",
        "noteNumber": 65,
        "velocity": 0,
        "byte9": true
      },
      {
        "deltaTime": 35,
        "channel": 0,
        "type": "noteOff",
        "noteNumber": 64,
        "velocity": 0,
        "byte9": true
      },
      {
        "deltaTime": 55,
        "channel": 0,
        "type": "noteOff",
        "noteNumber": 57,
        "velocity": 0,
        "byte9": true
      },
      {
        "deltaTime": 100,
        "channel": 0,
        "type": "controller",
        "controllerType": 64,
        "value": 0
      },
      {
        "deltaTime": 5,
        "channel": 0,
        "type": "noteOn",
        "noteNumber": 64,
        "velocity": 55
      },
      {
        "deltaTime": 10,
        "channel": 0,
        "type": "noteOn",
        "noteNumber": 57,
        "velocity": 50
      },
      {
        "deltaTime": 0,
        "running": true,
        "channel": 0,
        "type": "noteOn",
        "noteNumber": 60,
        "velocity": 54
      },
      {
        "deltaTime": 0,
        "running": true,
        "channel": 0,
        "type": "noteOn",
        "noteNumber": 69,
        "velocity": 55
      },
      {
        "deltaTime": 5,
        "channel": 0,
        "type": "noteOn",
        "noteNumber": 65,
        "velocity": 55
      },
      {
        "deltaTime": 50,
        "channel": 0,
        "type": "noteOff",
        "noteNumber": 57,
        "velocity": 0,
        "byte9": true
      },
      {
        "deltaTime": 0,
        "running": true,
        "channel": 0,
        "type": "noteOff",
        "noteNumber": 60,
        "velocity": 0,
        "byte9": true
      },
      {
        "deltaTime": 10,
        "channel": 0,
        "type": "noteOff",
        "noteNumber": 69,
        "velocity": 0,
        "byte9": true
      },
      {
        "deltaTime": 10,
        "channel": 0,
        "type": "noteOff",
        "noteNumber": 65,
        "velocity": 0,
        "byte9": true
      },
      {
        "deltaTime": 5,
        "channel": 0,
        "type": "noteOff",
        "noteNumber": 64,
        "velocity": 0,
        "byte9": true
      },
      {
        "deltaTime": 375,
        "channel": 0,
        "type": "noteOn",
        "noteNumber": 60,
        "velocity": 64
      },
      {
        "deltaTime": 5,
        "channel": 0,
        "type": "noteOn",
        "noteNumber": 65,
        "velocity": 58
      },
      {
        "deltaTime": 5,
        "channel": 0,
        "type": "noteOn",
        "noteNumber": 57,
        "velocity": 55
      },
      {
        "deltaTime": 75,
        "channel": 0,
        "type": "noteOff",
        "noteNumber": 57,
        "velocity": 0,
        "byte9": true
      },
      {
        "deltaTime": 20,
        "channel": 0,
        "type": "noteOff",
        "noteNumber": 60,
        "velocity": 0,
        "byte9": true
      },
      {
        "deltaTime": 40,
        "channel": 0,
        "type": "noteOff",
        "noteNumber": 65,
        "velocity": 0,
        "byte9": true
      },
      {
        "deltaTime": 325,
        "channel": 0,
        "type": "noteOn",
        "noteNumber": 60,
        "velocity": 43
      },
      {
        "deltaTime": 0,
        "running": true,
        "channel": 0,
        "type": "noteOn",
        "noteNumber": 63,
        "velocity": 51
      },
      {
        "deltaTime": 0,
        "running": true,
        "channel": 0,
        "type": "noteOn",
        "noteNumber": 75,
        "velocity": 64
      },
      {
        "deltaTime": 5,
        "channel": 0,
        "type": "noteOn",
        "noteNumber": 55,
        "velocity": 53
      },
      {
        "deltaTime": 0,
        "running": true,
        "channel": 0,
        "type": "noteOn",
        "noteNumber": 72,
        "velocity": 66
      },
      {
        "deltaTime": 5,
        "channel": 0,
        "type": "noteOn",
        "noteNumber": 67,
        "velocity": 63
      },
      {
        "deltaTime": 15,
        "channel": 0,
        "type": "controller",
        "controllerType": 64,
        "value": 127
      },
      {
        "deltaTime": 170,
        "channel": 0,
        "type": "noteOff",
        "noteNumber": 55,
        "velocity": 0,
        "byte9": true
      },
      {
        "deltaTime": 55,
        "channel": 0,
        "type": "noteOff",
        "noteNumber": 63,
        "velocity": 0,
        "byte9": true
      },
      {
        "deltaTime": 5,
        "channel": 0,
        "type": "noteOff",
        "noteNumber": 67,
        "velocity": 0,
        "byte9": true
      },
      {
        "deltaTime": 15,
        "channel": 0,
        "type": "noteOff",
        "noteNumber": 75,
        "velocity": 0,
        "byte9": true
      },
      {
        "deltaTime": 10,
        "channel": 0,
        "type": "noteOff",
        "noteNumber": 60,
        "velocity": 0,
        "byte9": true
      },
      {
        "deltaTime": 5,
        "channel": 0,
        "type": "noteOff",
        "noteNumber": 72,
        "velocity": 0,
        "byte9": true
      },
      {
        "deltaTime": 45,
        "channel": 0,
        "type": "noteOn",
        "noteNumber": 77,
        "velocity": 71
      },
      {
        "deltaTime": 5,
        "channel": 0,
        "type": "noteOn",
        "noteNumber": 55,
        "velocity": 68
      },
      {
        "deltaTime": 0,
        "running": true,
        "channel": 0,
        "type": "noteOn",
        "noteNumber": 72,
        "velocity": 62
      },
      {
        "deltaTime": 5,
        "channel": 0,
        "type": "noteOn",
        "noteNumber": 60,
        "velocity": 41
      },
      {
        "deltaTime": 0,
        "running": true,
        "channel": 0,
        "type": "noteOn",
        "noteNumber": 67,
        "velocity": 38
      },
      {
        "deltaTime": 10,
        "channel": 0,
        "type": "noteOn",
        "noteNumber": 63,
        "velocity": 34
      },
      {
        "deltaTime": 25,
        "channel": 0,
        "type": "noteOff",
        "noteNumber": 63,
        "velocity": 0,
        "byte9": true
      },
      {
        "deltaTime": 60,
        "channel": 0,
        "type": "noteOff",
        "noteNumber": 77,
        "velocity": 0,
        "byte9": true
      },
      {
        "deltaTime": 5,
        "channel": 0,
        "type": "noteOff",
        "noteNumber": 67,
        "velocity": 0,
        "byte9": true
      },
      {
        "deltaTime": 15,
        "channel": 0,
        "type": "noteOff",
        "noteNumber": 72,
        "velocity": 0,
        "byte9": true
      },
      {
        "deltaTime": 15,
        "channel": 0,
        "type": "controller",
        "controllerType": 64,
        "value": 0
      },
      {
        "deltaTime": 5,
        "channel": 0,
        "type": "noteOn",
        "noteNumber": 63,
        "velocity": 45
      },
      {
        "deltaTime": 25,
        "channel": 0,
        "type": "noteOn",
        "noteNumber": 67,
        "velocity": 19
      },
      {
        "deltaTime": 15,
        "channel": 0,
        "type": "controller",
        "controllerType": 64,
        "value": 127
      },
      {
        "deltaTime": 0,
        "channel": 0,
        "type": "noteOn",
        "noteNumber": 75,
        "velocity": 43
      },
      {
        "deltaTime": 100,
        "channel": 0,
        "type": "noteOff",
        "noteNumber": 67,
        "velocity": 0,
        "byte9": true
      },
      {
        "deltaTime": 25,
        "channel": 0,
        "type": "noteOff",
        "noteNumber": 55,
        "velocity": 0,
        "byte9": true
      },
      {
        "deltaTime": 75,
        "channel": 0,
        "type": "noteOff",
        "noteNumber": 60,
        "velocity": 0,
        "byte9": true
      },
      {
        "deltaTime": 0,
        "running": true,
        "channel": 0,
        "type": "noteOff",
        "noteNumber": 75,
        "velocity": 0,
        "byte9": true
      },
      {
        "deltaTime": 20,
        "channel": 0,
        "type": "noteOff",
        "noteNumber": 63,
        "velocity": 0,
        "byte9": true
      },
      {
        "deltaTime": 65,
        "channel": 0,
        "type": "noteOn",
        "noteNumber": 66,
        "velocity": 53
      },
      {
        "deltaTime": 0,
        "running": true,
        "channel": 0,
        "type": "noteOn",
        "noteNumber": 70,
        "velocity": 60
      },
      {
        "deltaTime": 0,
        "running": true,
        "channel": 0,
        "type": "noteOn",
        "noteNumber": 74,
        "velocity": 68
      },
      {
        "deltaTime": 10,
        "channel": 0,
        "type": "noteOn",
        "noteNumber": 54,
        "velocity": 57
      },
      {
        "deltaTime": 0,
        "running": true,
        "channel": 0,
        "type": "noteOn",
        "noteNumber": 60,
        "velocity": 63
      },
      {
        "deltaTime": 0,
        "running": true,
        "channel": 0,
        "type": "noteOn",
        "noteNumber": 64,
        "velocity": 68
      },
      {
        "deltaTime": 15,
        "channel": 0,
        "type": "controller",
        "controllerType": 64,
        "value": 0
      },
      {
        "deltaTime": 100,
        "channel": 0,
        "type": "controller",
        "controllerType": 64,
        "value": 127
      },
      {
        "deltaTime": 60,
        "channel": 0,
        "type": "noteOff",
        "noteNumber": 66,
        "velocity": 0,
        "byte9": true
      },
      {
        "deltaTime": 40,
        "channel": 0,
        "type": "noteOff",
        "noteNumber": 70,
        "velocity": 0,
        "byte9": true
      },
      {
        "deltaTime": 0,
        "running": true,
        "channel": 0,
        "type": "noteOff",
        "noteNumber": 74,
        "velocity": 0,
        "byte9": true
      },
      {
        "deltaTime": 20,
        "channel": 0,
        "type": "noteOff",
        "noteNumber": 60,
        "velocity": 0,
        "byte9": true
      },
      {
        "deltaTime": 5,
        "channel": 0,
        "type": "noteOff",
        "noteNumber": 64,
        "velocity": 0,
        "byte9": true
      },
      {
        "deltaTime": 30,
        "channel": 0,
        "type": "noteOff",
        "noteNumber": 54,
        "velocity": 0,
        "byte9": true
      },
      {
        "deltaTime": 210,
        "channel": 0,
        "type": "noteOn",
        "noteNumber": 60,
        "velocity": 54
      },
      {
        "deltaTime": 30,
        "channel": 0,
        "type": "noteOff",
        "noteNumber": 60,
        "velocity": 0,
        "byte9": true
      },
      {
        "deltaTime": 95,
        "channel": 0,
        "type": "controller",
        "controllerType": 64,
        "value": 0
      },
      {
        "deltaTime": 45,
        "channel": 0,
        "type": "noteOn",
        "noteNumber": 96,
        "velocity": 91
      },
      {
        "deltaTime": 5,
        "channel": 0,
        "type": "noteOn",
        "noteNumber": 84,
        "velocity": 95
      },
      {
        "deltaTime": 0,
        "running": true,
        "channel": 0,
        "type": "noteOn",
        "noteNumber": 89,
        "velocity": 83
      },
      {
        "deltaTime": 5,
        "channel": 0,
        "type": "noteOn",
        "noteNumber": 58,
        "velocity": 67
      },
      {
        "deltaTime": 0,
        "running": true,
        "channel": 0,
        "type": "noteOn",
        "noteNumber": 60,
        "velocity": 79
      },
      {
        "deltaTime": 0,
        "running": true,
        "channel": 0,
        "type": "noteOn",
        "noteNumber": 93,
        "velocity": 80
      },
      {
        "deltaTime": 5,
        "channel": 0,
        "type": "noteOn",
        "noteNumber": 54,
        "velocity": 74
      },
      {
        "deltaTime": 5,
        "channel": 0,
        "type": "noteOn",
        "noteNumber": 64,
        "velocity": 75
      },
      {
        "deltaTime": 10,
        "channel": 0,
        "type": "noteOff",
        "noteNumber": 89,
        "velocity": 0,
        "byte9": true
      },
      {
        "deltaTime": 20,
        "channel": 0,
        "type": "noteOff",
        "noteNumber": 84,
        "velocity": 0,
        "byte9": true
      },
      {
        "deltaTime": 5,
        "channel": 0,
        "type": "noteOff",
        "noteNumber": 64,
        "velocity": 0,
        "byte9": true
      },
      {
        "deltaTime": 30,
        "channel": 0,
        "type": "noteOff",
        "noteNumber": 54,
        "velocity": 0,
        "byte9": true
      },
      {
        "deltaTime": 0,
        "running": true,
        "channel": 0,
        "type": "noteOff",
        "noteNumber": 93,
        "velocity": 0,
        "byte9": true
      },
      {
        "deltaTime": 0,
        "running": true,
        "channel": 0,
        "type": "noteOff",
        "noteNumber": 96,
        "velocity": 0,
        "byte9": true
      },
      {
        "deltaTime": 15,
        "channel": 0,
        "type": "noteOff",
        "noteNumber": 58,
        "velocity": 0,
        "byte9": true
      },
      {
        "deltaTime": 5,
        "channel": 0,
        "type": "noteOff",
        "noteNumber": 60,
        "velocity": 0,
        "byte9": true
      },
      {
        "deltaTime": 10,
        "channel": 0,
        "type": "controller",
        "controllerType": 64,
        "value": 127
      },
      {
        "deltaTime": 30,
        "channel": 0,
        "type": "noteOn",
        "noteNumber": 54,
        "velocity": 57
      },
      {
        "deltaTime": 5,
        "channel": 0,
        "type": "noteOn",
        "noteNumber": 96,
        "velocity": 77
      },
      {
        "deltaTime": 5,
        "channel": 0,
        "type": "noteOn",
        "noteNumber": 60,
        "velocity": 38
      },
      {
        "deltaTime": 0,
        "running": true,
        "channel": 0,
        "type": "noteOn",
        "noteNumber": 64,
        "velocity": 65
      },
      {
        "deltaTime": 5,
        "channel": 0,
        "type": "noteOn",
        "noteNumber": 58,
        "velocity": 57
      },
      {
        "deltaTime": 5,
        "channel": 0,
        "type": "noteOn",
        "noteNumber": 84,
        "velocity": 79
      },
      {
        "deltaTime": 0,
        "running": true,
        "channel": 0,
        "type": "noteOn",
        "noteNumber": 89,
        "velocity": 77
      },
      {
        "deltaTime": 0,
        "running": true,
        "channel": 0,
        "type": "noteOn",
        "noteNumber": 93,
        "velocity": 60
      },
      {
        "deltaTime": 95,
        "channel": 0,
        "type": "noteOff",
        "noteNumber": 60,
        "velocity": 0,
        "byte9": true
      },
      {
        "deltaTime": 0,
        "running": true,
        "channel": 0,
        "type": "noteOff",
        "noteNumber": 93,
        "velocity": 0,
        "byte9": true
      },
      {
        "deltaTime": 10,
        "channel": 0,
        "type": "noteOff",
        "noteNumber": 89,
        "velocity": 0,
        "byte9": true
      },
      {
        "deltaTime": 5,
        "channel": 0,
        "type": "noteOff",
        "noteNumber": 96,
        "velocity": 0,
        "byte9": true
      },
      {
        "deltaTime": 25,
        "channel": 0,
        "type": "noteOff",
        "noteNumber": 84,
        "velocity": 0,
        "byte9": true
      },
      {
        "deltaTime": 20,
        "channel": 0,
        "type": "noteOff",
        "noteNumber": 64,
        "velocity": 0,
        "byte9": true
      },
      {
        "deltaTime": 60,
        "channel": 0,
        "type": "noteOff",
        "noteNumber": 54,
        "velocity": 0,
        "byte9": true
      },
      {
        "deltaTime": 5,
        "channel": 0,
        "type": "noteOff",
        "noteNumber": 58,
        "velocity": 0,
        "byte9": true
      },
      {
        "deltaTime": 20,
        "channel": 0,
        "type": "controller",
        "controllerType": 64,
        "value": 0
      },
      {
        "deltaTime": 45,
        "channel": 0,
        "type": "noteOn",
        "noteNumber": 58,
        "velocity": 49
      },
      {
        "deltaTime": 10,
        "channel": 0,
        "type": "noteOn",
        "noteNumber": 62,
        "velocity": 69
      },
      {
        "deltaTime": 0,
        "running": true,
        "channel": 0,
        "type": "noteOn",
        "noteNumber": 93,
        "velocity": 84
      },
      {
        "deltaTime": 5,
        "channel": 0,
        "type": "noteOn",
        "noteNumber": 57,
        "velocity": 62
      },
      {
        "deltaTime": 5,
        "channel": 0,
        "type": "noteOn",
        "noteNumber": 53,
        "velocity": 60
      },
      {
        "deltaTime": 0,
        "running": true,
        "channel": 0,
        "type": "noteOn",
        "noteNumber": 81,
        "velocity": 70
      },
      {
        "deltaTime": 5,
        "channel": 0,
        "type": "noteOn",
        "noteNumber": 86,
        "velocity": 68
      },
      {
        "deltaTime": 0,
        "running": true,
        "channel": 0,
        "type": "noteOn",
        "noteNumber": 89,
        "velocity": 71
      },
      {
        "deltaTime": 455,
        "channel": 0,
        "type": "controller",
        "controllerType": 64,
        "value": 127
      },
      {
        "deltaTime": 125,
        "channel": 0,
        "type": "noteOff",
        "noteNumber": 93,
        "velocity": 0,
        "byte9": true
      },
      {
        "deltaTime": 5,
        "channel": 0,
        "type": "noteOff",
        "noteNumber": 89,
        "velocity": 0,
        "byte9": true
      },
      {
        "deltaTime": 5,
        "channel": 0,
        "type": "noteOff",
        "noteNumber": 86,
        "velocity": 0,
        "byte9": true
      },
      {
        "deltaTime": 50,
        "channel": 0,
        "type": "noteOff",
        "noteNumber": 81,
        "velocity": 0,
        "byte9": true
      },
      {
        "deltaTime": 90,
        "channel": 0,
        "type": "noteOff",
        "noteNumber": 62,
        "velocity": 0,
        "byte9": true
      },
      {
        "deltaTime": 15,
        "channel": 0,
        "type": "noteOff",
        "noteNumber": 53,
        "velocity": 0,
        "byte9": true
      },
      {
        "deltaTime": 15,
        "channel": 0,
        "type": "noteOff",
        "noteNumber": 57,
        "velocity": 0,
        "byte9": true
      },
      {
        "deltaTime": 5,
        "channel": 0,
        "type": "noteOff",
        "noteNumber": 58,
        "velocity": 0,
        "byte9": true
      },
      {
        "deltaTime": 45,
        "channel": 0,
        "type": "controller",
        "controllerType": 64,
        "value": 0
      },
      {
        "deltaTime": 20,
        "channel": 0,
        "type": "noteOn",
        "noteNumber": 89,
        "velocity": 55
      },
      {
        "deltaTime": 10,
        "channel": 0,
        "type": "noteOn",
        "noteNumber": 77,
        "velocity": 38
      },
      {
        "deltaTime": 0,
        "running": true,
        "channel": 0,
        "type": "noteOn",
        "noteNumber": 84,
        "velocity": 55
      },
      {
        "deltaTime": 5,
        "channel": 0,
        "type": "noteOn",
        "noteNumber": 62,
        "velocity": 60
      },
      {
        "deltaTime": 5,
        "channel": 0,
        "type": "noteOn",
        "noteNumber": 58,
        "velocity": 39
      },
      {
        "deltaTime": 10,
        "channel": 0,
        "type": "noteOn",
        "noteNumber": 57,
        "velocity": 34
      },
      {
        "deltaTime": 0,
        "running": true,
        "channel": 0,
        "type": "noteOff",
        "noteNumber": 89,
        "velocity": 0,
        "byte9": true
      },
      {
        "deltaTime": 10,
        "channel": 0,
        "type": "noteOff",
        "noteNumber": 84,
        "velocity": 0,
        "byte9": true
      },
      {
        "deltaTime": 15,
        "channel": 0,
        "type": "noteOff",
        "noteNumber": 77,
        "velocity": 0,
        "byte9": true
      },
      {
        "deltaTime": 10,
        "channel": 0,
        "type": "noteOff",
        "noteNumber": 57,
        "velocity": 0,
        "byte9": true
      },
      {
        "deltaTime": 10,
        "channel": 0,
        "type": "noteOff",
        "noteNumber": 62,
        "velocity": 0,
        "byte9": true
      },
      {
        "deltaTime": 15,
        "channel": 0,
        "type": "noteOff",
        "noteNumber": 58,
        "velocity": 0,
        "byte9": true
      },
      {
        "deltaTime": 1000,
        "channel": 0,
        "type": "noteOn",
        "noteNumber": 58,
        "velocity": 37
      },
      {
        "deltaTime": 5,
        "channel": 0,
        "type": "noteOn",
        "noteNumber": 62,
        "velocity": 54
      },
      {
        "deltaTime": 5,
        "channel": 0,
        "type": "noteOn",
        "noteNumber": 84,
        "velocity": 54
      },
      {
        "deltaTime": 0,
        "running": true,
        "channel": 0,
        "type": "noteOn",
        "noteNumber": 93,
        "velocity": 57
      },
      {
        "deltaTime": 0,
        "running": true,
        "channel": 0,
        "type": "noteOn",
        "noteNumber": 96,
        "velocity": 66
      },
      {
        "deltaTime": 5,
        "channel": 0,
        "type": "noteOn",
        "noteNumber": 52,
        "velocity": 49
      },
      {
        "deltaTime": 0,
        "running": true,
        "channel": 0,
        "type": "noteOn",
        "noteNumber": 89,
        "velocity": 48
      },
      {
        "deltaTime": 150,
        "channel": 0,
        "type": "noteOff",
        "noteNumber": 52,
        "velocity": 0,
        "byte9": true
      },
      {
        "deltaTime": 10,
        "channel": 0,
        "type": "noteOff",
        "noteNumber": 62,
        "velocity": 0,
        "byte9": true
      },
      {
        "deltaTime": 10,
        "channel": 0,
        "type": "noteOff",
        "noteNumber": 89,
        "velocity": 0,
        "byte9": true
      },
      {
        "deltaTime": 5,
        "channel": 0,
        "type": "noteOff",
        "noteNumber": 58,
        "velocity": 0,
        "byte9": true
      },
      {
        "deltaTime": 0,
        "running": true,
        "channel": 0,
        "type": "noteOff",
        "noteNumber": 96,
        "velocity": 0,
        "byte9": true
      },
      {
        "deltaTime": 5,
        "channel": 0,
        "type": "noteOff",
        "noteNumber": 84,
        "velocity": 0,
        "byte9": true
      },
      {
        "deltaTime": 10,
        "channel": 0,
        "type": "noteOff",
        "noteNumber": 93,
        "velocity": 0,
        "byte9": true
      },
      {
        "deltaTime": 275,
        "channel": 0,
        "type": "noteOn",
        "noteNumber": 58,
        "velocity": 42
      },
      {
        "deltaTime": 0,
        "running": true,
        "channel": 0,
        "type": "noteOn",
        "noteNumber": 62,
        "velocity": 64
      },
      {
        "deltaTime": 10,
        "channel": 0,
        "type": "noteOn",
        "noteNumber": 52,
        "velocity": 59
      },
      {
        "deltaTime": 0,
        "running": true,
        "channel": 0,
        "type": "noteOn",
        "noteNumber": 84,
        "velocity": 62
      },
      {
        "deltaTime": 0,
        "running": true,
        "channel": 0,
        "type": "noteOn",
        "noteNumber": 93,
        "velocity": 57
      },
      {
        "deltaTime": 0,
        "running": true,
        "channel": 0,
        "type": "noteOn",
        "noteNumber": 96,
        "velocity": 65
      },
      {
        "deltaTime": 10,
        "channel": 0,
        "type": "noteOn",
        "noteNumber": 89,
        "velocity": 49
      },
      {
        "deltaTime": 130,
        "channel": 0,
        "type": "noteOff",
        "noteNumber": 96,
        "velocity": 0,
        "byte9": true
      },
      {
        "deltaTime": 5,
        "channel": 0,
        "type": "controller",
        "controllerType": 64,
        "value": 127
      },
      {
        "deltaTime": 20,
        "channel": 0,
        "type": "noteOff",
        "noteNumber": 52,
        "velocity": 0,
        "byte9": true
      },
      {
        "deltaTime": 0,
        "running": true,
        "channel": 0,
        "type": "noteOff",
        "noteNumber": 93,
        "velocity": 0,
        "byte9": true
      },
      {
        "deltaTime": 10,
        "channel": 0,
        "type": "noteOff",
        "noteNumber": 89,
        "velocity": 0,
        "byte9": true
      },
      {
        "deltaTime": 10,
        "channel": 0,
        "type": "noteOff",
        "noteNumber": 84,
        "velocity": 0,
        "byte9": true
      },
      {
        "deltaTime": 30,
        "channel": 0,
        "type": "noteOff",
        "noteNumber": 62,
        "velocity": 0,
        "byte9": true
      },
      {
        "deltaTime": 5,
        "channel": 0,
        "type": "noteOff",
        "noteNumber": 58,
        "velocity": 0,
        "byte9": true
      },
      {
        "deltaTime": 180,
        "channel": 0,
        "type": "controller",
        "controllerType": 64,
        "value": 0
      },
      {
        "deltaTime": 65,
        "channel": 0,
        "type": "noteOn",
        "noteNumber": 58,
        "velocity": 37
      },
      {
        "deltaTime": 0,
        "running": true,
        "channel": 0,
        "type": "noteOn",
        "noteNumber": 62,
        "velocity": 53
      },
      {
        "deltaTime": 0,
        "running": true,
        "channel": 0,
        "type": "noteOn",
        "noteNumber": 93,
        "velocity": 54
      },
      {
        "deltaTime": 10,
        "channel": 0,
        "type": "noteOn",
        "noteNumber": 88,
        "velocity": 49
      },
      {
        "deltaTime": 5,
        "channel": 0,
        "type": "controller",
        "controllerType": 64,
        "value": 127
      },
      {
        "deltaTime": 0,
        "channel": 0,
        "type": "noteOn",
        "noteNumber": 52,
        "velocity": 45
      },
      {
        "deltaTime": 5,
        "channel": 0,
        "type": "noteOn",
        "noteNumber": 81,
        "velocity": 27
      },
      {
        "deltaTime": 65,
        "channel": 0,
        "type": "noteOff",
        "noteNumber": 88,
        "velocity": 0,
        "byte9": true
      },
      {
        "deltaTime": 15,
        "channel": 0,
        "type": "noteOff",
        "noteNumber": 93,
        "velocity": 0,
        "byte9": true
      },
      {
        "deltaTime": 35,
        "channel": 0,
        "type": "noteOff",
        "noteNumber": 52,
        "velocity": 0,
        "byte9": true
      },
      {
        "deltaTime": 15,
        "channel": 0,
        "type": "noteOff",
        "noteNumber": 81,
        "velocity": 0,
        "byte9": true
      },
      {
        "deltaTime": 5,
        "channel": 0,
        "type": "noteOff",
        "noteNumber": 62,
        "velocity": 0,
        "byte9": true
      },
      {
        "deltaTime": 20,
        "channel": 0,
        "type": "noteOff",
        "noteNumber": 58,
        "velocity": 0,
        "byte9": true
      },
      {
        "deltaTime": 170,
        "channel": 0,
        "type": "controller",
        "controllerType": 64,
        "value": 0
      },
      {
        "deltaTime": 0,
        "channel": 0,
        "type": "noteOn",
        "noteNumber": 77,
        "velocity": 53
      },
      {
        "deltaTime": 0,
        "running": true,
        "channel": 0,
        "type": "noteOn",
        "noteNumber": 89,
        "velocity": 55
      },
      {
        "deltaTime": 5,
        "channel": 0,
        "type": "noteOn",
        "noteNumber": 58,
        "velocity": 47
      },
      {
        "deltaTime": 0,
        "running": true,
        "channel": 0,
        "type": "noteOn",
        "noteNumber": 84,
        "velocity": 57
      },
      {
        "deltaTime": 5,
        "channel": 0,
        "type": "noteOn",
        "noteNumber": 62,
        "velocity": 52
      },
      {
        "deltaTime": 5,
        "channel": 0,
        "type": "noteOn",
        "noteNumber": 52,
        "velocity": 51
      },
      {
        "deltaTime": 165,
        "channel": 0,
        "type": "controller",
        "controllerType": 64,
        "value": 127
      },
      {
        "deltaTime": 180,
        "channel": 0,
        "type": "noteOff",
        "noteNumber": 77,
        "velocity": 0,
        "byte9": true
      },
      {
        "deltaTime": 25,
        "channel": 0,
        "type": "noteOff",
        "noteNumber": 84,
        "velocity": 0,
        "byte9": true
      },
      {
        "deltaTime": 15,
        "channel": 0,
        "type": "noteOff",
        "noteNumber": 89,
        "velocity": 0,
        "byte9": true
      },
      {
        "deltaTime": 15,
        "channel": 0,
        "type": "noteOff",
        "noteNumber": 52,
        "velocity": 0,
        "byte9": true
      },
      {
        "deltaTime": 65,
        "channel": 0,
        "type": "noteOff",
        "noteNumber": 62,
        "velocity": 0,
        "byte9": true
      },
      {
        "deltaTime": 40,
        "channel": 0,
        "type": "noteOff",
        "noteNumber": 58,
        "velocity": 0,
        "byte9": true
      },
      {
        "deltaTime": 60,
        "channel": 0,
        "type": "controller",
        "controllerType": 64,
        "value": 0
      },
      {
        "deltaTime": 40,
        "channel": 0,
        "type": "noteOn",
        "noteNumber": 58,
        "velocity": 60
      },
      {
        "deltaTime": 0,
        "running": true,
        "channel": 0,
        "type": "noteOn",
        "noteNumber": 96,
        "velocity": 91
      },
      {
        "deltaTime": 5,
        "channel": 0,
        "type": "noteOn",
        "noteNumber": 57,
        "velocity": 68
      },
      {
        "deltaTime": 0,
        "running": true,
        "channel": 0,
        "type": "noteOn",
        "noteNumber": 62,
        "velocity": 75
      },
      {
        "deltaTime": 0,
        "running": true,
        "channel": 0,
        "type": "noteOn",
        "noteNumber": 84,
        "velocity": 88
      },
      {
        "deltaTime": 0,
        "running": true,
        "channel": 0,
        "type": "noteOn",
        "noteNumber": 89,
        "velocity": 80
      },
      {
        "deltaTime": 10,
        "channel": 0,
        "type": "noteOn",
        "noteNumber": 53,
        "velocity": 69
      },
      {
        "deltaTime": 0,
        "running": true,
        "channel": 0,
        "type": "noteOn",
        "noteNumber": 93,
        "velocity": 75
      },
      {
        "deltaTime": 325,
        "channel": 0,
        "type": "controller",
        "controllerType": 64,
        "value": 127
      },
      {
        "deltaTime": 135,
        "channel": 0,
        "type": "noteOff",
        "noteNumber": 96,
        "velocity": 0,
        "byte9": true
      },
      {
        "deltaTime": 20,
        "channel": 0,
        "type": "noteOff",
        "noteNumber": 93,
        "velocity": 0,
        "byte9": true
      },
      {
        "deltaTime": 5,
        "channel": 0,
        "type": "noteOff",
        "noteNumber": 89,
        "velocity": 0,
        "byte9": true
      },
      {
        "deltaTime": 15,
        "channel": 0,
        "type": "noteOff",
        "noteNumber": 84,
        "velocity": 0,
        "byte9": true
      },
      {
        "deltaTime": 85,
        "channel": 0,
        "type": "noteOff",
        "noteNumber": 57,
        "velocity": 0,
        "byte9": true
      },
      {
        "deltaTime": 25,
        "channel": 0,
        "type": "noteOff",
        "noteNumber": 62,
        "velocity": 0,
        "byte9": true
      },
      {
        "deltaTime": 30,
        "channel": 0,
        "type": "noteOff",
        "noteNumber": 58,
        "velocity": 0,
        "byte9": true
      },
      {
        "deltaTime": 5,
        "channel": 0,
        "type": "noteOff",
        "noteNumber": 53,
        "velocity": 0,
        "byte9": true
      },
      {
        "deltaTime": 135,
        "channel": 0,
        "type": "noteOn",
        "noteNumber": 93,
        "velocity": 57
      },
      {
        "deltaTime": 5,
        "channel": 0,
        "type": "noteOn",
        "noteNumber": 58,
        "velocity": 58
      },
      {
        "deltaTime": 0,
        "running": true,
        "channel": 0,
        "type": "noteOn",
        "noteNumber": 81,
        "velocity": 56
      },
      {
        "deltaTime": 5,
        "channel": 0,
        "type": "noteOn",
        "noteNumber": 62,
        "velocity": 66
      },
      {
        "deltaTime": 0,
        "running": true,
        "channel": 0,
        "type": "noteOn",
        "noteNumber": 86,
        "velocity": 48
      },
      {
        "deltaTime": 5,
        "channel": 0,
        "type": "controller",
        "controllerType": 64,
        "value": 0
      },
      {
        "deltaTime": 0,
        "channel": 0,
        "type": "noteOn",
        "noteNumber": 57,
        "velocity": 49
      },
      {
        "deltaTime": 0,
        "running": true,
        "channel": 0,
        "type": "noteOn",
        "noteNumber": 89,
        "velocity": 32
      },
      {
        "deltaTime": 15,
        "channel": 0,
        "type": "noteOff",
        "noteNumber": 93,
        "velocity": 0,
        "byte9": true
      },
      {
        "deltaTime": 10,
        "channel": 0,
        "type": "noteOff",
        "noteNumber": 57,
        "velocity": 0,
        "byte9": true
      },
      {
        "deltaTime": 0,
        "running": true,
        "channel": 0,
        "type": "noteOff",
        "noteNumber": 86,
        "velocity": 0,
        "byte9": true
      },
      {
        "deltaTime": 5,
        "channel": 0,
        "type": "noteOff",
        "noteNumber": 62,
        "velocity": 0,
        "byte9": true
      },
      {
        "deltaTime": 0,
        "running": true,
        "channel": 0,
        "type": "noteOff",
        "noteNumber": 89,
        "velocity": 0,
        "byte9": true
      },
      {
        "deltaTime": 20,
        "channel": 0,
        "type": "noteOff",
        "noteNumber": 81,
        "velocity": 0,
        "byte9": true
      },
      {
        "deltaTime": 5,
        "channel": 0,
        "type": "noteOff",
        "noteNumber": 58,
        "velocity": 0,
        "byte9": true
      },
      {
        "deltaTime": 925,
        "channel": 0,
        "type": "noteOn",
        "noteNumber": 51,
        "velocity": 34
      },
      {
        "deltaTime": 75,
        "channel": 0,
        "type": "noteOn",
        "noteNumber": 52,
        "velocity": 57
      },
      {
        "deltaTime": 15,
        "channel": 0,
        "type": "noteOff",
        "noteNumber": 51,
        "velocity": 0,
        "byte9": true
      },
      {
        "deltaTime": 25,
        "channel": 0,
        "type": "noteOn",
        "noteNumber": 58,
        "velocity": 35
      },
      {
        "deltaTime": 0,
        "running": true,
        "channel": 0,
        "type": "noteOn",
        "noteNumber": 65,
        "velocity": 51
      },
      {
        "deltaTime": 5,
        "channel": 0,
        "type": "noteOn",
        "noteNumber": 55,
        "velocity": 40
      },
      {
        "deltaTime": 5,
        "channel": 0,
        "type": "noteOn",
        "noteNumber": 62,
        "velocity": 55
      },
      {
        "deltaTime": 10,
        "channel": 0,
        "type": "noteOn",
        "noteNumber": 53,
        "velocity": 46
      },
      {
        "deltaTime": 10,
        "channel": 0,
        "type": "noteOff",
        "noteNumber": 52,
        "velocity": 0,
        "byte9": true
      },
      {
        "deltaTime": 345,
        "channel": 0,
        "type": "noteOff",
        "noteNumber": 55,
        "velocity": 0,
        "byte9": true
      },
      {
        "deltaTime": 35,
        "channel": 0,
        "type": "noteOff",
        "noteNumber": 62,
        "velocity": 0,
        "byte9": true
      },
      {
        "deltaTime": 50,
        "channel": 0,
        "type": "noteOff",
        "noteNumber": 65,
        "velocity": 0,
        "byte9": true
      },
      {
        "deltaTime": 30,
        "channel": 0,
        "type": "noteOn",
        "noteNumber": 55,
        "velocity": 35
      },
      {
        "deltaTime": 0,
        "running": true,
        "channel": 0,
        "type": "noteOn",
        "noteNumber": 62,
        "velocity": 42
      },
      {
        "deltaTime": 15,
        "channel": 0,
        "type": "noteOn",
        "noteNumber": 50,
        "velocity": 31
      },
      {
        "deltaTime": 5,
        "channel": 0,
        "type": "noteOff",
        "noteNumber": 53,
        "velocity": 0,
        "byte9": true
      },
      {
        "deltaTime": 190,
        "channel": 0,
        "type": "noteOff",
        "noteNumber": 55,
        "velocity": 0,
        "byte9": true
      },
      {
        "deltaTime": 65,
        "channel": 0,
        "type": "noteOff",
        "noteNumber": 62,
        "velocity": 0,
        "byte9": true
      },
      {
        "deltaTime": 10,
        "channel": 0,
        "type": "controller",
        "controllerType": 64,
        "value": 127
      },
      {
        "deltaTime": 30,
        "channel": 0,
        "type": "noteOn",
        "noteNumber": 55,
        "velocity": 73
      },
      {
        "deltaTime": 5,
        "channel": 0,
        "type": "noteOn",
        "noteNumber": 52,
        "velocity": 66
      },
      {
        "deltaTime": 0,
        "running": true,
        "channel": 0,
        "type": "noteOn",
        "noteNumber": 64,
        "velocity": 62
      },
      {
        "deltaTime": 5,
        "channel": 0,
        "type": "controller",
        "controllerType": 64,
        "value": 0
      },
      {
        "deltaTime": 105,
        "channel": 0,
        "type": "noteOff",
        "noteNumber": 55,
        "velocity": 0,
        "byte9": true
      },
      {
        "deltaTime": 5,
        "channel": 0,
        "type": "noteOff",
        "noteNumber": 50,
        "velocity": 0,
        "byte9": true
      },
      {
        "deltaTime": 15,
        "channel": 0,
        "type": "noteOff",
        "noteNumber": 58,
        "velocity": 0,
        "byte9": true
      },
      {
        "deltaTime": 5,
        "channel": 0,
        "type": "noteOff",
        "noteNumber": 64,
        "velocity": 0,
        "byte9": true
      },
      {
        "deltaTime": 20,
        "channel": 0,
        "type": "noteOff",
        "noteNumber": 52,
        "velocity": 0,
        "byte9": true
      },
      {
        "deltaTime": 10,
        "channel": 0,
        "type": "noteOn",
        "noteNumber": 53,
        "velocity": 50
      },
      {
        "deltaTime": 5,
        "channel": 0,
        "type": "noteOn",
        "noteNumber": 58,
        "velocity": 26
      },
      {
        "deltaTime": 5,
        "channel": 0,
        "type": "noteOn",
        "noteNumber": 55,
        "velocity": 49
      },
      {
        "deltaTime": 5,
        "channel": 0,
        "type": "noteOn",
        "noteNumber": 65,
        "velocity": 49
      },
      {
        "deltaTime": 15,
        "channel": 0,
        "type": "noteOn",
        "noteNumber": 62,
        "velocity": 55
      },
      {
        "deltaTime": 180,
        "channel": 0,
        "type": "noteOff",
        "noteNumber": 62,
        "velocity": 0,
        "byte9": true
      },
      {
        "deltaTime": 30,
        "channel": 0,
        "type": "noteOff",
        "noteNumber": 55,
        "velocity": 0,
        "byte9": true
      },
      {
        "deltaTime": 20,
        "channel": 0,
        "type": "noteOff",
        "noteNumber": 65,
        "velocity": 0,
        "byte9": true
      },
      {
        "deltaTime": 15,
        "channel": 0,
        "type": "noteOff",
        "noteNumber": 58,
        "velocity": 0,
        "byte9": true
      },
      {
        "deltaTime": 40,
        "channel": 0,
        "type": "noteOff",
        "noteNumber": 53,
        "velocity": 0,
        "byte9": true
      },
      {
        "deltaTime": 5,
        "channel": 0,
        "type": "noteOn",
        "noteNumber": 50,
        "velocity": 38
      },
      {
        "deltaTime": 25,
        "channel": 0,
        "type": "noteOn",
        "noteNumber": 62,
        "velocity": 25
      },
      {
        "deltaTime": 45,
        "channel": 0,
        "type": "noteOff",
        "noteNumber": 62,
        "velocity": 0,
        "byte9": true
      },
      {
        "deltaTime": 100,
        "channel": 0,
        "type": "noteOn",
        "noteNumber": 52,
        "velocity": 50
      },
      {
        "deltaTime": 5,
        "channel": 0,
        "type": "noteOn",
        "noteNumber": 55,
        "velocity": 31
      },
      {
        "deltaTime": 10,
        "channel": 0,
        "type": "noteOn",
        "noteNumber": 64,
        "velocity": 54
      },
      {
        "deltaTime": 5,
        "channel": 0,
        "type": "noteOn",
        "noteNumber": 58,
        "velocity": 13
      },
      {
        "deltaTime": 30,
        "channel": 0,
        "type": "controller",
        "controllerType": 64,
        "value": 127
      },
      {
        "deltaTime": 65,
        "channel": 0,
        "type": "noteOff",
        "noteNumber": 55,
        "velocity": 0,
        "byte9": true
      },
      {
        "deltaTime": 0,
        "running": true,
        "channel": 0,
        "type": "noteOff",
        "noteNumber": 58,
        "velocity": 0,
        "byte9": true
      },
      {
        "deltaTime": 35,
        "channel": 0,
        "type": "noteOff",
        "noteNumber": 64,
        "velocity": 0,
        "byte9": true
      },
      {
        "deltaTime": 110,
        "channel": 0,
        "type": "noteOff",
        "noteNumber": 50,
        "velocity": 0,
        "byte9": true
      },
      {
        "deltaTime": 35,
        "channel": 0,
        "type": "noteOn",
        "noteNumber": 53,
        "velocity": 70
      },
      {
        "deltaTime": 0,
        "running": true,
        "channel": 0,
        "type": "noteOn",
        "noteNumber": 58,
        "velocity": 68
      },
      {
        "deltaTime": 0,
        "running": true,
        "channel": 0,
        "type": "noteOn",
        "noteNumber": 65,
        "velocity": 72
      },
      {
        "deltaTime": 10,
        "channel": 0,
        "type": "noteOn",
        "noteNumber": 55,
        "velocity": 74
      },
      {
        "deltaTime": 5,
        "channel": 0,
        "type": "noteOff",
        "noteNumber": 52,
        "velocity": 0,
        "byte9": true
      },
      {
        "deltaTime": 5,
        "channel": 0,
        "type": "noteOn",
        "noteNumber": 62,
        "velocity": 50
      },
      {
        "deltaTime": 10,
        "channel": 0,
        "type": "noteOn",
        "noteNumber": 64,
        "velocity": 37
      },
      {
        "deltaTime": 25,
        "channel": 0,
        "type": "noteOff",
        "noteNumber": 62,
        "velocity": 0,
        "byte9": true
      },
      {
        "deltaTime": 15,
        "channel": 0,
        "type": "noteOff",
        "noteNumber": 64,
        "velocity": 0,
        "byte9": true
      },
      {
        "deltaTime": 30,
        "channel": 0,
        "type": "noteOff",
        "noteNumber": 65,
        "velocity": 0,
        "byte9": true
      },
      {
        "deltaTime": 15,
        "channel": 0,
        "type": "controller",
        "controllerType": 64,
        "value": 0
      },
      {
        "deltaTime": 5,
        "channel": 0,
        "type": "noteOff",
        "noteNumber": 55,
        "velocity": 0,
        "byte9": true
      },
      {
        "deltaTime": 5,
        "channel": 0,
        "type": "noteOff",
        "noteNumber": 53,
        "velocity": 0,
        "byte9": true
      },
      {
        "deltaTime": 5,
        "channel": 0,
        "type": "noteOff",
        "noteNumber": 58,
        "velocity": 0,
        "byte9": true
      },
      {
        "deltaTime": 45,
        "channel": 0,
        "type": "noteOn",
        "noteNumber": 52,
        "velocity": 54
      },
      {
        "deltaTime": 15,
        "channel": 0,
        "type": "noteOn",
        "noteNumber": 57,
        "velocity": 54
      },
      {
        "deltaTime": 0,
        "running": true,
        "channel": 0,
        "type": "noteOn",
        "noteNumber": 64,
        "velocity": 53
      },
      {
        "deltaTime": 20,
        "channel": 0,
        "type": "noteOn",
        "noteNumber": 60,
        "velocity": 45
      },
      {
        "deltaTime": 25,
        "channel": 0,
        "type": "noteOn",
        "noteNumber": 53,
        "velocity": 17
      },
      {
        "deltaTime": 150,
        "channel": 0,
        "type": "noteOff",
        "noteNumber": 60,
        "velocity": 0,
        "byte9": true
      },
      {
        "deltaTime": 20,
        "channel": 0,
        "type": "noteOff",
        "noteNumber": 53,
        "velocity": 0,
        "byte9": true
      },
      {
        "deltaTime": 15,
        "channel": 0,
        "type": "noteOff",
        "noteNumber": 57,
        "velocity": 0,
        "byte9": true
      },
      {
        "deltaTime": 35,
        "channel": 0,
        "type": "noteOff",
        "noteNumber": 64,
        "velocity": 0,
        "byte9": true
      },
      {
        "deltaTime": 10,
        "channel": 0,
        "type": "noteOff",
        "noteNumber": 52,
        "velocity": 0,
        "byte9": true
      },
      {
        "deltaTime": 35,
        "channel": 0,
        "type": "noteOn",
        "noteNumber": 53,
        "velocity": 26
      },
      {
        "deltaTime": 0,
        "running": true,
        "channel": 0,
        "type": "noteOn",
        "noteNumber": 57,
        "velocity": 38
      },
      {
        "deltaTime": 0,
        "running": true,
        "channel": 0,
        "type": "noteOn",
        "noteNumber": 60,
        "velocity": 40
      },
      {
        "deltaTime": 5,
        "channel": 0,
        "type": "noteOn",
        "noteNumber": 48,
        "velocity": 51
      },
      {
        "deltaTime": 20,
        "channel": 0,
        "type": "noteOff",
        "noteNumber": 53,
        "velocity": 0,
        "byte9": true
      },
      {
        "deltaTime": 5,
        "channel": 0,
        "type": "noteOff",
        "noteNumber": 57,
        "velocity": 0,
        "byte9": true
      },
      {
        "deltaTime": 0,
        "running": true,
        "channel": 0,
        "type": "noteOff",
        "noteNumber": 60,
        "velocity": 0,
        "byte9": true
      },
      {
        "deltaTime": 10,
        "channel": 0,
        "type": "noteOff",
        "noteNumber": 48,
        "velocity": 0,
        "byte9": true
      },
      {
        "deltaTime": 575,
        "channel": 0,
        "type": "noteOn",
        "noteNumber": 62,
        "velocity": 56
      },
      {
        "deltaTime": 5,
        "channel": 0,
        "type": "noteOn",
        "noteNumber": 72,
        "velocity": 48
      },
      {
        "deltaTime": 5,
        "channel": 0,
        "type": "noteOn",
        "noteNumber": 57,
        "velocity": 54
      },
      {
        "deltaTime": 0,
        "running": true,
        "channel": 0,
        "type": "noteOn",
        "noteNumber": 67,
        "velocity": 53
      },
      {
        "deltaTime": 110,
        "channel": 0,
        "type": "noteOff",
        "noteNumber": 57,
        "velocity": 0,
        "byte9": true
      },
      {
        "deltaTime": 10,
        "channel": 0,
        "type": "noteOff",
        "noteNumber": 62,
        "velocity": 0,
        "byte9": true
      },
      {
        "deltaTime": 10,
        "channel": 0,
        "type": "noteOff",
        "noteNumber": 67,
        "velocity": 0,
        "byte9": true
      },
      {
        "deltaTime": 0,
        "running": true,
        "channel": 0,
        "type": "noteOff",
        "noteNumber": 72,
        "velocity": 0,
        "byte9": true
      },
      {
        "deltaTime": 305,
        "channel": 0,
        "type": "noteOn",
        "noteNumber": 62,
        "velocity": 42
      },
      {
        "deltaTime": 10,
        "channel": 0,
        "type": "noteOn",
        "noteNumber": 53,
        "velocity": 53
      },
      {
        "deltaTime": 0,
        "running": true,
        "channel": 0,
        "type": "noteOn",
        "noteNumber": 69,
        "velocity": 41
      },
      {
        "deltaTime": 5,
        "channel": 0,
        "type": "noteOn",
        "noteNumber": 67,
        "velocity": 40
      },
      {
        "deltaTime": 95,
        "channel": 0,
        "type": "noteOff",
        "noteNumber": 53,
        "velocity": 0,
        "byte9": true
      },
      {
        "deltaTime": 90,
        "channel": 0,
        "type": "noteOff",
        "noteNumber": 62,
        "velocity": 0,
        "byte9": true
      },
      {
        "deltaTime": 40,
        "channel": 0,
        "type": "noteOff",
        "noteNumber": 67,
        "velocity": 0,
        "byte9": true
      },
      {
        "deltaTime": 0,
        "running": true,
        "channel": 0,
        "type": "noteOff",
        "noteNumber": 69,
        "velocity": 0,
        "byte9": true
      },
      {
        "deltaTime": 430,
        "channel": 0,
        "type": "controller",
        "controllerType": 64,
        "value": 127
      },
      {
        "deltaTime": 225,
        "channel": 0,
        "type": "noteOn",
        "noteNumber": 79,
        "velocity": 76
      },
      {
        "deltaTime": 5,
        "channel": 0,
        "type": "noteOn",
        "noteNumber": 72,
        "velocity": 78
      },
      {
        "deltaTime": 0,
        "running": true,
        "channel": 0,
        "type": "noteOn",
        "noteNumber": 76,
        "velocity": 74
      },
      {
        "deltaTime": 5,
        "channel": 0,
        "type": "noteOn",
        "noteNumber": 56,
        "velocity": 64
      },
      {
        "deltaTime": 0,
        "running": true,
        "channel": 0,
        "type": "noteOn",
        "noteNumber": 67,
        "velocity": 76
      },
      {
        "deltaTime": 5,
        "channel": 0,
        "type": "noteOn",
        "noteNumber": 62,
        "velocity": 64
      },
      {
        "deltaTime": 20,
        "channel": 0,
        "type": "controller",
        "controllerType": 64,
        "value": 0
      },
      {
        "deltaTime": 130,
        "channel": 0,
        "type": "controller",
        "controllerType": 64,
        "value": 127
      },
      {
        "deltaTime": 335,
        "channel": 0,
        "type": "noteOff",
        "noteNumber": 67,
        "velocity": 0,
        "byte9": true
      },
      {
        "deltaTime": 10,
        "channel": 0,
        "type": "noteOff",
        "noteNumber": 72,
        "velocity": 0,
        "byte9": true
      },
      {
        "deltaTime": 0,
        "running": true,
        "channel": 0,
        "type": "noteOff",
        "noteNumber": 76,
        "velocity": 0,
        "byte9": true
      },
      {
        "deltaTime": 5,
        "channel": 0,
        "type": "noteOff",
        "noteNumber": 62,
        "velocity": 0,
        "byte9": true
      },
      {
        "deltaTime": 25,
        "channel": 0,
        "type": "noteOff",
        "noteNumber": 56,
        "velocity": 0,
        "byte9": true
      },
      {
        "deltaTime": 20,
        "channel": 0,
        "type": "noteOff",
        "noteNumber": 79,
        "velocity": 0,
        "byte9": true
      },
      {
        "deltaTime": 60,
        "channel": 0,
        "type": "controller",
        "controllerType": 64,
        "value": 0
      },
      {
        "deltaTime": 25,
        "channel": 0,
        "type": "noteOn",
        "noteNumber": 56,
        "velocity": 46
      },
      {
        "deltaTime": 5,
        "channel": 0,
        "type": "noteOn",
        "noteNumber": 62,
        "velocity": 41
      },
      {
        "deltaTime": 0,
        "running": true,
        "channel": 0,
        "type": "noteOn",
        "noteNumber": 67,
        "velocity": 37
      },
      {
        "deltaTime": 5,
        "channel": 0,
        "type": "noteOn",
        "noteNumber": 76,
        "velocity": 43
      },
      {
        "deltaTime": 20,
        "channel": 0,
        "type": "noteOn",
        "noteNumber": 72,
        "velocity": 38
      },
      {
        "deltaTime": 60,
        "channel": 0,
        "type": "noteOff",
        "noteNumber": 62,
        "velocity": 0,
        "byte9": true
      },
      {
        "deltaTime": 25,
        "channel": 0,
        "type": "noteOff",
        "noteNumber": 67,
        "velocity": 0,
        "byte9": true
      },
      {
        "deltaTime": 0,
        "running": true,
        "channel": 0,
        "type": "noteOff",
        "noteNumber": 72,
        "velocity": 0,
        "byte9": true
      },
      {
        "deltaTime": 5,
        "channel": 0,
        "type": "noteOff",
        "noteNumber": 56,
        "velocity": 0,
        "byte9": true
      },
      {
        "deltaTime": 50,
        "channel": 0,
        "type": "noteOff",
        "noteNumber": 76,
        "velocity": 0,
        "byte9": true
      },
      {
        "deltaTime": 295,
        "channel": 0,
        "type": "noteOn",
        "noteNumber": 56,
        "velocity": 46
      },
      {
        "deltaTime": 5,
        "channel": 0,
        "type": "noteOn",
        "noteNumber": 67,
        "velocity": 41
      },
      {
        "deltaTime": 5,
        "channel": 0,
        "type": "noteOn",
        "noteNumber": 72,
        "velocity": 43
      },
      {
        "deltaTime": 5,
        "channel": 0,
        "type": "noteOn",
        "noteNumber": 62,
        "velocity": 30
      },
      {
        "deltaTime": 25,
        "channel": 0,
        "type": "controller",
        "controllerType": 64,
        "value": 127
      },
      {
        "deltaTime": 105,
        "channel": 0,
        "type": "noteOff",
        "noteNumber": 72,
        "velocity": 0,
        "byte9": true
      },
      {
        "deltaTime": 35,
        "channel": 0,
        "type": "noteOff",
        "noteNumber": 67,
        "velocity": 0,
        "byte9": true
      },
      {
        "deltaTime": 15,
        "channel": 0,
        "type": "noteOff",
        "noteNumber": 62,
        "velocity": 0,
        "byte9": true
      },
      {
        "deltaTime": 245,
        "channel": 0,
        "type": "noteOff",
        "noteNumber": 56,
        "velocity": 0,
        "byte9": true
      },
      {
        "deltaTime": 5,
        "channel": 0,
        "type": "controller",
        "controllerType": 64,
        "value": 0
      },
      {
        "deltaTime": 15,
        "channel": 0,
        "type": "noteOn",
        "noteNumber": 62,
        "velocity": 46
      },
      {
        "deltaTime": 0,
        "running": true,
        "channel": 0,
        "type": "noteOn",
        "noteNumber": 72,
        "velocity": 47
      },
      {
        "deltaTime": 5,
        "channel": 0,
        "type": "noteOn",
        "noteNumber": 67,
        "velocity": 52
      },
      {
        "deltaTime": 5,
        "channel": 0,
        "type": "noteOn",
        "noteNumber": 57,
        "velocity": 46
      },
      {
        "deltaTime": 60,
        "channel": 0,
        "type": "noteOff",
        "noteNumber": 62,
        "velocity": 0,
        "byte9": true
      },
      {
        "deltaTime": 25,
        "channel": 0,
        "type": "noteOff",
        "noteNumber": 67,
        "velocity": 0,
        "byte9": true
      },
      {
        "deltaTime": 0,
        "running": true,
        "channel": 0,
        "type": "noteOff",
        "noteNumber": 72,
        "velocity": 0,
        "byte9": true
      },
      {
        "deltaTime": 25,
        "channel": 0,
        "type": "noteOff",
        "noteNumber": 57,
        "velocity": 0,
        "byte9": true
      },
      {
        "deltaTime": 45,
        "channel": 0,
        "type": "noteOn",
        "noteNumber": 56,
        "velocity": 33
      },
      {
        "deltaTime": 90,
        "channel": 0,
        "type": "noteOff",
        "noteNumber": 56,
        "velocity": 0,
        "byte9": true
      },
      {
        "deltaTime": 25,
        "channel": 0,
        "type": "noteOn",
        "noteNumber": 57,
        "velocity": 55
      },
      {
        "deltaTime": 0,
        "running": true,
        "channel": 0,
        "type": "noteOn",
        "noteNumber": 72,
        "velocity": 60
      },
      {
        "deltaTime": 5,
        "channel": 0,
        "type": "noteOn",
        "noteNumber": 62,
        "velocity": 63
      },
      {
        "deltaTime": 0,
        "running": true,
        "channel": 0,
        "type": "noteOn",
        "noteNumber": 67,
        "velocity": 68
      },
      {
        "deltaTime": 190,
        "channel": 0,
        "type": "controller",
        "controllerType": 64,
        "value": 127
      },
      {
        "deltaTime": 200,
        "channel": 0,
        "type": "noteOff",
        "noteNumber": 72,
        "velocity": 0,
        "byte9": true
      },
      {
        "deltaTime": 30,
        "channel": 0,
        "type": "noteOff",
        "noteNumber": 67,
        "velocity": 0,
        "byte9": true
      },
      {
        "deltaTime": 85,
        "channel": 0,
        "type": "noteOff",
        "noteNumber": 62,
        "velocity": 0,
        "byte9": true
      },
      {
        "deltaTime": 145,
        "channel": 0,
        "type": "noteOff",
        "noteNumber": 57,
        "velocity": 0,
        "byte9": true
      },
      {
        "deltaTime": 10,
        "channel": 0,
        "type": "controller",
        "controllerType": 64,
        "value": 0
      },
      {
        "deltaTime": 20,
        "channel": 0,
        "type": "noteOn",
        "noteNumber": 53,
        "velocity": 43
      },
      {
        "deltaTime": 5,
        "channel": 0,
        "type": "noteOn",
        "noteNumber": 69,
        "velocity": 52
      },
      {
        "deltaTime": 5,
        "channel": 0,
        "type": "noteOn",
        "noteNumber": 60,
        "velocity": 45
      },
      {
        "deltaTime": 0,
        "running": true,
        "channel": 0,
        "type": "noteOn",
        "noteNumber": 64,
        "velocity": 39
      },
      {
        "deltaTime": 35,
        "channel": 0,
        "type": "noteOff",
        "noteNumber": 53,
        "velocity": 0,
        "byte9": true
      },
      {
        "deltaTime": 30,
        "channel": 0,
        "type": "noteOff",
        "noteNumber": 60,
        "velocity": 0,
        "byte9": true
      },
      {
        "deltaTime": 15,
        "channel": 0,
        "type": "noteOff",
        "noteNumber": 64,
        "velocity": 0,
        "byte9": true
      },
      {
        "deltaTime": 0,
        "running": true,
        "channel": 0,
        "type": "noteOff",
        "noteNumber": 69,
        "velocity": 0,
        "byte9": true
      },
      {
        "deltaTime": 395,
        "channel": 0,
        "type": "controller",
        "controllerType": 64,
        "value": 127
      },
      {
        "deltaTime": 430,
        "channel": 0,
        "type": "controller",
        "controllerType": 64,
        "value": 0
      },
      {
        "deltaTime": 30,
        "channel": 0,
        "type": "noteOn",
        "noteNumber": 76,
        "velocity": 79
      },
      {
        "deltaTime": 5,
        "channel": 0,
        "type": "noteOn",
        "noteNumber": 68,
        "velocity": 81
      },
      {
        "deltaTime": 5,
        "channel": 0,
        "type": "noteOn",
        "noteNumber": 71,
        "velocity": 79
      },
      {
        "deltaTime": 5,
        "channel": 0,
        "type": "noteOn",
        "noteNumber": 64,
        "velocity": 82
      },
      {
        "deltaTime": 5,
        "channel": 0,
        "type": "noteOn",
        "noteNumber": 65,
        "velocity": 81
      },
      {
        "deltaTime": 310,
        "channel": 0,
        "type": "noteOff",
        "noteNumber": 65,
        "velocity": 0,
        "byte9": true
      },
      {
        "deltaTime": 0,
        "running": true,
        "channel": 0,
        "type": "noteOff",
        "noteNumber": 71,
        "velocity": 0,
        "byte9": true
      },
      {
        "deltaTime": 5,
        "channel": 0,
        "type": "noteOff",
        "noteNumber": 68,
        "velocity": 0,
        "byte9": true
      },
      {
        "deltaTime": 0,
        "running": true,
        "channel": 0,
        "type": "noteOff",
        "noteNumber": 76,
        "velocity": 0,
        "byte9": true
      },
      {
        "deltaTime": 20,
        "channel": 0,
        "type": "noteOff",
        "noteNumber": 64,
        "velocity": 0,
        "byte9": true
      },
      {
        "deltaTime": 30,
        "channel": 0,
        "type": "noteOn",
        "noteNumber": 62,
        "velocity": 48
      },
      {
        "deltaTime": 85,
        "channel": 0,
        "type": "noteOff",
        "noteNumber": 62,
        "velocity": 0,
        "byte9": true
      },
      {
        "deltaTime": 15,
        "channel": 0,
        "type": "noteOn",
        "noteNumber": 76,
        "velocity": 75
      },
      {
        "deltaTime": 5,
        "channel": 0,
        "type": "noteOn",
        "noteNumber": 68,
        "velocity": 69
      },
      {
        "deltaTime": 5,
        "channel": 0,
        "type": "noteOn",
        "noteNumber": 64,
        "velocity": 71
      },
      {
        "deltaTime": 0,
        "running": true,
        "channel": 0,
        "type": "noteOn",
        "noteNumber": 65,
        "velocity": 71
      },
      {
        "deltaTime": 0,
        "running": true,
        "channel": 0,
        "type": "noteOn",
        "noteNumber": 71,
        "velocity": 68
      },
      {
        "deltaTime": 220,
        "channel": 0,
        "type": "controller",
        "controllerType": 64,
        "value": 127
      },
      {
        "deltaTime": 30,
        "channel": 0,
        "type": "noteOff",
        "noteNumber": 65,
        "velocity": 0,
        "byte9": true
      },
      {
        "deltaTime": 25,
        "channel": 0,
        "type": "noteOff",
        "noteNumber": 68,
        "velocity": 0,
        "byte9": true
      },
      {
        "deltaTime": 10,
        "channel": 0,
        "type": "noteOff",
        "noteNumber": 71,
        "velocity": 0,
        "byte9": true
      },
      {
        "deltaTime": 5,
        "channel": 0,
        "type": "noteOff",
        "noteNumber": 76,
        "velocity": 0,
        "byte9": true
      },
      {
        "deltaTime": 45,
        "channel": 0,
        "type": "noteOn",
        "noteNumber": 65,
        "velocity": 50
      },
      {
        "deltaTime": 0,
        "running": true,
        "channel": 0,
        "type": "noteOn",
        "noteNumber": 68,
        "velocity": 32
      },
      {
        "deltaTime": 5,
        "channel": 0,
        "type": "noteOn",
        "noteNumber": 71,
        "velocity": 50
      },
      {
        "deltaTime": 0,
        "running": true,
        "channel": 0,
        "type": "noteOn",
        "noteNumber": 74,
        "velocity": 64
      },
      {
        "deltaTime": 10,
        "channel": 0,
        "type": "noteOn",
        "noteNumber": 62,
        "velocity": 55
      },
      {
        "deltaTime": 5,
        "channel": 0,
        "type": "controller",
        "controllerType": 64,
        "value": 0
      },
      {
        "deltaTime": 10,
        "channel": 0,
        "type": "noteOff",
        "noteNumber": 64,
        "velocity": 0,
        "byte9": true
      },
      {
        "deltaTime": 115,
        "channel": 0,
        "type": "controller",
        "controllerType": 64,
        "value": 127
      },
      {
        "deltaTime": 155,
        "channel": 0,
        "type": "noteOff",
        "noteNumber": 62,
        "velocity": 0,
        "byte9": true
      },
      {
        "deltaTime": 65,
        "channel": 0,
        "type": "noteOff",
        "noteNumber": 74,
        "velocity": 0,
        "byte9": true
      },
      {
        "deltaTime": 5,
        "channel": 0,
        "type": "noteOff",
        "noteNumber": 71,
        "velocity": 0,
        "byte9": true
      },
      {
        "deltaTime": 10,
        "channel": 0,
        "type": "noteOff",
        "noteNumber": 65,
        "velocity": 0,
        "byte9": true
      },
      {
        "deltaTime": 10,
        "channel": 0,
        "type": "noteOff",
        "noteNumber": 68,
        "velocity": 0,
        "byte9": true
      },
      {
        "deltaTime": 195,
        "channel": 0,
        "type": "controller",
        "controllerType": 64,
        "value": 0
      },
      {
        "deltaTime": 30,
        "channel": 0,
        "type": "noteOn",
        "noteNumber": 70,
        "velocity": 67
      },
      {
        "deltaTime": 0,
        "running": true,
        "channel": 0,
        "type": "noteOn",
        "noteNumber": 77,
        "velocity": 73
      },
      {
        "deltaTime": 5,
        "channel": 0,
        "type": "noteOn",
        "noteNumber": 65,
        "velocity": 72
      },
      {
        "deltaTime": 0,
        "running": true,
        "channel": 0,
        "type": "noteOn",
        "noteNumber": 74,
        "velocity": 71
      },
      {
        "deltaTime": 5,
        "channel": 0,
        "type": "noteOn",
        "noteNumber": 62,
        "velocity": 49
      },
      {
        "deltaTime": 25,
        "channel": 0,
        "type": "noteOn",
        "noteNumber": 55,
        "velocity": 51
      },
      {
        "deltaTime": 25,
        "channel": 0,
        "type": "noteOff",
        "noteNumber": 55,
        "velocity": 0,
        "byte9": true
      },
      {
        "deltaTime": 240,
        "channel": 0,
        "type": "controller",
        "controllerType": 64,
        "value": 127
      },
      {
        "deltaTime": 5,
        "channel": 0,
        "type": "noteOff",
        "noteNumber": 62,
        "velocity": 0,
        "byte9": true
      },
      {
        "deltaTime": 0,
        "running": true,
        "channel": 0,
        "type": "noteOff",
        "noteNumber": 65,
        "velocity": 0,
        "byte9": true
      },
      {
        "deltaTime": 0,
        "running": true,
        "channel": 0,
        "type": "noteOff",
        "noteNumber": 77,
        "velocity": 0,
        "byte9": true
      },
      {
        "deltaTime": 5,
        "channel": 0,
        "type": "noteOff",
        "noteNumber": 74,
        "velocity": 0,
        "byte9": true
      },
      {
        "deltaTime": 15,
        "channel": 0,
        "type": "noteOff",
        "noteNumber": 70,
        "velocity": 0,
        "byte9": true
      },
      {
        "deltaTime": 25,
        "channel": 0,
        "type": "noteOn",
        "noteNumber": 55,
        "velocity": 32
      },
      {
        "deltaTime": 35,
        "channel": 0,
        "type": "noteOff",
        "noteNumber": 55,
        "velocity": 0,
        "byte9": true
      },
      {
        "deltaTime": 25,
        "channel": 0,
        "type": "controller",
        "controllerType": 64,
        "value": 0
      },
      {
        "deltaTime": 60,
        "channel": 0,
        "type": "noteOn",
        "noteNumber": 55,
        "velocity": 33
      },
      {
        "deltaTime": 10,
        "channel": 0,
        "type": "noteOn",
        "noteNumber": 70,
        "velocity": 54
      },
      {
        "deltaTime": 5,
        "channel": 0,
        "type": "noteOn",
        "noteNumber": 62,
        "velocity": 47
      },
      {
        "deltaTime": 0,
        "running": true,
        "channel": 0,
        "type": "noteOn",
        "noteNumber": 77,
        "velocity": 63
      },
      {
        "deltaTime": 5,
        "channel": 0,
        "type": "noteOn",
        "noteNumber": 65,
        "velocity": 53
      },
      {
        "deltaTime": 10,
        "channel": 0,
        "type": "noteOn",
        "noteNumber": 74,
        "velocity": 45
      },
      {
        "deltaTime": 150,
        "channel": 0,
        "type": "noteOff",
        "noteNumber": 74,
        "velocity": 0,
        "byte9": true
      },
      {
        "deltaTime": 55,
        "channel": 0,
        "type": "noteOff",
        "noteNumber": 65,
        "velocity": 0,
        "byte9": true
      },
      {
        "deltaTime": 0,
        "running": true,
        "channel": 0,
        "type": "noteOff",
        "noteNumber": 70,
        "velocity": 0,
        "byte9": true
      },
      {
        "deltaTime": 30,
        "channel": 0,
        "type": "noteOff",
        "noteNumber": 55,
        "velocity": 0,
        "byte9": true
      },
      {
        "deltaTime": 20,
        "channel": 0,
        "type": "noteOff",
        "noteNumber": 77,
        "velocity": 0,
        "byte9": true
      },
      {
        "deltaTime": 20,
        "channel": 0,
        "type": "noteOff",
        "noteNumber": 62,
        "velocity": 0,
        "byte9": true
      },
      {
        "deltaTime": 45,
        "channel": 0,
        "type": "controller",
        "controllerType": 64,
        "value": 127
      },
      {
        "deltaTime": 5,
        "channel": 0,
        "type": "noteOn",
        "noteNumber": 70,
        "velocity": 57
      },
      {
        "deltaTime": 0,
        "running": true,
        "channel": 0,
        "type": "noteOn",
        "noteNumber": 74,
        "velocity": 66
      },
      {
        "deltaTime": 5,
        "channel": 0,
        "type": "noteOn",
        "noteNumber": 58,
        "velocity": 47
      },
      {
        "deltaTime": 5,
        "channel": 0,
        "type": "noteOn",
        "noteNumber": 65,
        "velocity": 62
      },
      {
        "deltaTime": 15,
        "channel": 0,
        "type": "noteOn",
        "noteNumber": 55,
        "velocity": 35
      },
      {
        "deltaTime": 45,
        "channel": 0,
        "type": "noteOff",
        "noteNumber": 55,
        "velocity": 0,
        "byte9": true
      },
      {
        "deltaTime": 65,
        "channel": 0,
        "type": "noteOff",
        "noteNumber": 65,
        "velocity": 0,
        "byte9": true
      },
      {
        "deltaTime": 25,
        "channel": 0,
        "type": "noteOff",
        "noteNumber": 58,
        "velocity": 0,
        "byte9": true
      },
      {
        "deltaTime": 10,
        "channel": 0,
        "type": "noteOff",
        "noteNumber": 74,
        "velocity": 0,
        "byte9": true
      },
      {
        "deltaTime": 5,
        "channel": 0,
        "type": "noteOff",
        "noteNumber": 70,
        "velocity": 0,
        "byte9": true
      },
      {
        "deltaTime": 30,
        "channel": 0,
        "type": "controller",
        "controllerType": 64,
        "value": 0
      },
      {
        "deltaTime": 35,
        "channel": 0,
        "type": "controller",
        "controllerType": 64,
        "value": 127
      },
      {
        "deltaTime": 320,
        "channel": 0,
        "type": "controller",
        "controllerType": 64,
        "value": 0
      },
      {
        "deltaTime": 55,
        "channel": 0,
        "type": "noteOn",
        "noteNumber": 84,
        "velocity": 85
      },
      {
        "deltaTime": 5,
        "channel": 0,
        "type": "noteOn",
        "noteNumber": 72,
        "velocity": 80
      },
      {
        "deltaTime": 5,
        "channel": 0,
        "type": "noteOn",
        "noteNumber": 58,
        "velocity": 44
      },
      {
        "deltaTime": 5,
        "channel": 0,
        "type": "noteOn",
        "noteNumber": 77,
        "velocity": 64
      },
      {
        "deltaTime": 0,
        "running": true,
        "channel": 0,
        "type": "noteOn",
        "noteNumber": 81,
        "velocity": 57
      },
      {
        "deltaTime": 5,
        "channel": 0,
        "type": "noteOn",
        "noteNumber": 57,
        "velocity": 45
      },
      {
        "deltaTime": 0,
        "running": true,
        "channel": 0,
        "type": "noteOn",
        "noteNumber": 62,
        "velocity": 57
      },
      {
        "deltaTime": 170,
        "channel": 0,
        "type": "noteOff",
        "noteNumber": 57,
        "velocity": 0,
        "byte9": true
      },
      {
        "deltaTime": 5,
        "channel": 0,
        "type": "controller",
        "controllerType": 64,
        "value": 127
      },
      {
        "deltaTime": 40,
        "channel": 0,
        "type": "noteOff",
        "noteNumber": 58,
        "velocity": 0,
        "byte9": true
      },
      {
        "deltaTime": 25,
        "channel": 0,
        "type": "noteOff",
        "noteNumber": 84,
        "velocity": 0,
        "byte9": true
      },
      {
        "deltaTime": 10,
        "channel": 0,
        "type": "noteOff",
        "noteNumber": 62,
        "velocity": 0,
        "byte9": true
      },
      {
        "deltaTime": 0,
        "running": true,
        "channel": 0,
        "type": "noteOff",
        "noteNumber": 77,
        "velocity": 0,
        "byte9": true
      },
      {
        "deltaTime": 0,
        "running": true,
        "channel": 0,
        "type": "noteOff",
        "noteNumber": 81,
        "velocity": 0,
        "byte9": true
      },
      {
        "deltaTime": 45,
        "channel": 0,
        "type": "noteOff",
        "noteNumber": 72,
        "velocity": 0,
        "byte9": true
      },
      {
        "deltaTime": 30,
        "channel": 0,
        "type": "noteOn",
        "noteNumber": 57,
        "velocity": 37
      },
      {
        "deltaTime": 40,
        "channel": 0,
        "type": "noteOff",
        "noteNumber": 57,
        "velocity": 0,
        "byte9": true
      },
      {
        "deltaTime": 35,
        "channel": 0,
        "type": "controller",
        "controllerType": 64,
        "value": 0
      },
      {
        "deltaTime": 70,
        "channel": 0,
        "type": "noteOn",
        "noteNumber": 69,
        "velocity": 59
      },
      {
        "deltaTime": 0,
        "running": true,
        "channel": 0,
        "type": "noteOn",
        "noteNumber": 77,
        "velocity": 55
      },
      {
        "deltaTime": 5,
        "channel": 0,
        "type": "noteOn",
        "noteNumber": 62,
        "velocity": 59
      },
      {
        "deltaTime": 0,
        "running": true,
        "channel": 0,
        "type": "noteOn",
        "noteNumber": 81,
        "velocity": 52
      },
      {
        "deltaTime": 5,
        "channel": 0,
        "type": "noteOn",
        "noteNumber": 57,
        "velocity": 37
      },
      {
        "deltaTime": 0,
        "running": true,
        "channel": 0,
        "type": "noteOn",
        "noteNumber": 58,
        "velocity": 38
      },
      {
        "deltaTime": 0,
        "running": true,
        "channel": 0,
        "type": "noteOn",
        "noteNumber": 74,
        "velocity": 57
      },
      {
        "deltaTime": 10,
        "channel": 0,
        "type": "noteOn",
        "noteNumber": 53,
        "velocity": 37
      },
      {
        "deltaTime": 25,
        "channel": 0,
        "type": "controller",
        "controllerType": 64,
        "value": 127
      },
      {
        "deltaTime": 200,
        "channel": 0,
        "type": "noteOff",
        "noteNumber": 81,
        "velocity": 0,
        "byte9": true
      },
      {
        "deltaTime": 10,
        "channel": 0,
        "type": "noteOff",
        "noteNumber": 57,
        "velocity": 0,
        "byte9": true
      },
      {
        "deltaTime": 5,
        "channel": 0,
        "type": "noteOff",
        "noteNumber": 62,
        "velocity": 0,
        "byte9": true
      },
      {
        "deltaTime": 5,
        "channel": 0,
        "type": "noteOff",
        "noteNumber": 74,
        "velocity": 0,
        "byte9": true
      },
      {
        "deltaTime": 5,
        "channel": 0,
        "type": "noteOff",
        "noteNumber": 53,
        "velocity": 0,
        "byte9": true
      },
      {
        "deltaTime": 0,
        "running": true,
        "channel": 0,
        "type": "noteOff",
        "noteNumber": 77,
        "velocity": 0,
        "byte9": true
      },
      {
        "deltaTime": 5,
        "channel": 0,
        "type": "noteOff",
        "noteNumber": 58,
        "velocity": 0,
        "byte9": true
      },
      {
        "deltaTime": 0,
        "running": true,
        "channel": 0,
        "type": "noteOff",
        "noteNumber": 69,
        "velocity": 0,
        "byte9": true
      },
      {
        "deltaTime": 110,
        "channel": 0,
        "type": "controller",
        "controllerType": 64,
        "value": 0
      },
      {
        "deltaTime": 95,
        "channel": 0,
        "type": "noteOn",
        "noteNumber": 58,
        "velocity": 38
      },
      {
        "deltaTime": 0,
        "running": true,
        "channel": 0,
        "type": "noteOn",
        "noteNumber": 79,
        "velocity": 55
      },
      {
        "deltaTime": 10,
        "channel": 0,
        "type": "noteOn",
        "noteNumber": 62,
        "velocity": 46
      },
      {
        "deltaTime": 0,
        "running": true,
        "channel": 0,
        "type": "noteOn",
        "noteNumber": 67,
        "velocity": 41
      },
      {
        "deltaTime": 10,
        "channel": 0,
        "type": "noteOn",
        "noteNumber": 52,
        "velocity": 43
      },
      {
        "deltaTime": 0,
        "running": true,
        "channel": 0,
        "type": "noteOn",
        "noteNumber": 74,
        "velocity": 50
      },
      {
        "deltaTime": 90,
        "channel": 0,
        "type": "noteOff",
        "noteNumber": 52,
        "velocity": 0,
        "byte9": true
      },
      {
        "deltaTime": 30,
        "channel": 0,
        "type": "noteOff",
        "noteNumber": 62,
        "velocity": 0,
        "byte9": true
      },
      {
        "deltaTime": 0,
        "running": true,
        "channel": 0,
        "type": "noteOff",
        "noteNumber": 79,
        "velocity": 0,
        "byte9": true
      },
      {
        "deltaTime": 5,
        "channel": 0,
        "type": "noteOff",
        "noteNumber": 58,
        "velocity": 0,
        "byte9": true
      },
      {
        "deltaTime": 5,
        "channel": 0,
        "type": "noteOff",
        "noteNumber": 67,
        "velocity": 0,
        "byte9": true
      },
      {
        "deltaTime": 0,
        "running": true,
        "channel": 0,
        "type": "noteOff",
        "noteNumber": 74,
        "velocity": 0,
        "byte9": true
      },
      {
        "deltaTime": 335,
        "channel": 0,
        "type": "noteOn",
        "noteNumber": 58,
        "velocity": 38
      },
      {
        "deltaTime": 5,
        "channel": 0,
        "type": "noteOn",
        "noteNumber": 64,
        "velocity": 46
      },
      {
        "deltaTime": 0,
        "running": true,
        "channel": 0,
        "type": "noteOn",
        "noteNumber": 76,
        "velocity": 49
      },
      {
        "deltaTime": 5,
        "channel": 0,
        "type": "noteOn",
        "noteNumber": 71,
        "velocity": 49
      },
      {
        "deltaTime": 5,
        "channel": 0,
        "type": "noteOn",
        "noteNumber": 52,
        "velocity": 42
      },
      {
        "deltaTime": 10,
        "channel": 0,
        "type": "controller",
        "controllerType": 64,
        "value": 127
      },
      {
        "deltaTime": 115,
        "channel": 0,
        "type": "controller",
        "controllerType": 64,
        "value": 0
      },
      {
        "deltaTime": 0,
        "channel": 0,
        "type": "noteOff",
        "noteNumber": 52,
        "velocity": 0,
        "byte9": true
      },
      {
        "deltaTime": 5,
        "channel": 0,
        "type": "noteOff",
        "noteNumber": 76,
        "velocity": 0,
        "byte9": true
      },
      {
        "deltaTime": 5,
        "channel": 0,
        "type": "noteOff",
        "noteNumber": 71,
        "velocity": 0,
        "byte9": true
      },
      {
        "deltaTime": 10,
        "channel": 0,
        "type": "noteOff",
        "noteNumber": 58,
        "velocity": 0,
        "byte9": true
      },
      {
        "deltaTime": 30,
        "channel": 0,
        "type": "noteOff",
        "noteNumber": 64,
        "velocity": 0,
        "byte9": true
      },
      {
        "deltaTime": 270,
        "channel": 0,
        "type": "noteOn",
        "noteNumber": 60,
        "velocity": 54
      },
      {
        "deltaTime": 5,
        "channel": 0,
        "type": "noteOn",
        "noteNumber": 72,
        "velocity": 40
      },
      {
        "deltaTime": 10,
        "channel": 0,
        "type": "noteOn",
        "noteNumber": 58,
        "velocity": 47
      },
      {
        "deltaTime": 0,
        "running": true,
        "channel": 0,
        "type": "noteOn",
        "noteNumber": 67,
        "velocity": 43
      },
      {
        "deltaTime": 5,
        "channel": 0,
        "type": "controller",
        "controllerType": 64,
        "value": 127
      },
      {
        "deltaTime": 0,
        "channel": 0,
        "type": "noteOn",
        "noteNumber": 52,
        "velocity": 51
      },
      {
        "deltaTime": 10,
        "channel": 0,
        "type": "noteOff",
        "noteNumber": 60,
        "velocity": 0,
        "byte9": true
      },
      {
        "deltaTime": 15,
        "channel": 0,
        "type": "noteOff",
        "noteNumber": 52,
        "velocity": 0,
        "byte9": true
      },
      {
        "deltaTime": 10,
        "channel": 0,
        "type": "noteOff",
        "noteNumber": 67,
        "velocity": 0,
        "byte9": true
      },
      {
        "deltaTime": 30,
        "channel": 0,
        "type": "noteOff",
        "noteNumber": 58,
        "velocity": 0,
        "byte9": true
      },
      {
        "deltaTime": 15,
        "channel": 0,
        "type": "noteOff",
        "noteNumber": 72,
        "velocity": 0,
        "byte9": true
      },
      {
        "deltaTime": 705,
        "channel": 0,
        "type": "controller",
        "controllerType": 64,
        "value": 0
      },
      {
        "deltaTime": 30,
        "channel": 0,
        "type": "noteOn",
        "noteNumber": 56,
        "velocity": 74
      },
      {
        "deltaTime": 0,
        "running": true,
        "channel": 0,
        "type": "noteOn",
        "noteNumber": 62,
        "velocity": 74
      },
      {
        "deltaTime": 0,
        "running": true,
        "channel": 0,
        "type": "noteOn",
        "noteNumber": 80,
        "velocity": 83
      },
      {
        "deltaTime": 5,
        "channel": 0,
        "type": "noteOn",
        "noteNumber": 68,
        "velocity": 91
      },
      {
        "deltaTime": 5,
        "channel": 0,
        "type": "noteOn",
        "noteNumber": 67,
        "velocity": 78
      },
      {
        "deltaTime": 105,
        "channel": 0,
        "type": "controller",
        "controllerType": 64,
        "value": 127
      },
      {
        "deltaTime": 15,
        "channel": 0,
        "type": "noteOff",
        "noteNumber": 62,
        "velocity": 0,
        "byte9": true
      },
      {
        "deltaTime": 0,
        "running": true,
        "channel": 0,
        "type": "noteOff",
        "noteNumber": 67,
        "velocity": 0,
        "byte9": true
      },
      {
        "deltaTime": 30,
        "channel": 0,
        "type": "controller",
        "controllerType": 64,
        "value": 0
      },
      {
        "deltaTime": 0,
        "channel": 0,
        "type": "noteOff",
        "noteNumber": 80,
        "velocity": 0,
        "byte9": true
      },
      {
        "deltaTime": 15,
        "channel": 0,
        "type": "noteOff",
        "noteNumber": 68,
        "velocity": 0,
        "byte9": true
      },
      {
        "deltaTime": 20,
        "channel": 0,
        "type": "noteOff",
        "noteNumber": 56,
        "velocity": 0,
        "byte9": true
      },
      {
        "deltaTime": 60,
        "channel": 0,
        "type": "noteOn",
        "noteNumber": 55,
        "velocity": 57
      },
      {
        "deltaTime": 0,
        "running": true,
        "channel": 0,
        "type": "noteOn",
        "noteNumber": 64,
        "velocity": 49
      },
      {
        "deltaTime": 5,
        "channel": 0,
        "type": "noteOn",
        "noteNumber": 60,
        "velocity": 46
      },
      {
        "deltaTime": 0,
        "running": true,
        "channel": 0,
        "type": "noteOn",
        "noteNumber": 67,
        "velocity": 53
      },
      {
        "deltaTime": 5,
        "channel": 0,
        "type": "noteOn",
        "noteNumber": 78,
        "velocity": 29
      },
      {
        "deltaTime": 0,
        "running": true,
        "channel": 0,
        "type": "noteOn",
        "noteNumber": 79,
        "velocity": 48
      },
      {
        "deltaTime": 10,
        "channel": 0,
        "type": "noteOn",
        "noteNumber": 76,
        "velocity": 46
      },
      {
        "deltaTime": 25,
        "channel": 0,
        "type": "noteOff",
        "noteNumber": 78,
        "velocity": 0,
        "byte9": true
      },
      {
        "deltaTime": 10,
        "channel": 0,
        "type": "noteOff",
        "noteNumber": 76,
        "velocity": 0,
        "byte9": true
      },
      {
        "deltaTime": 25,
        "channel": 0,
        "type": "noteOff",
        "noteNumber": 79,
        "velocity": 0,
        "byte9": true
      },
      {
        "deltaTime": 5,
        "channel": 0,
        "type": "noteOff",
        "noteNumber": 64,
        "velocity": 0,
        "byte9": true
      },
      {
        "deltaTime": 20,
        "channel": 0,
        "type": "noteOff",
        "noteNumber": 67,
        "velocity": 0,
        "byte9": true
      },
      {
        "deltaTime": 10,
        "channel": 0,
        "type": "noteOff",
        "noteNumber": 60,
        "velocity": 0,
        "byte9": true
      },
      {
        "deltaTime": 5,
        "channel": 0,
        "type": "noteOff",
        "noteNumber": 55,
        "velocity": 0,
        "byte9": true
      },
      {
        "deltaTime": 165,
        "channel": 0,
        "type": "noteOn",
        "noteNumber": 76,
        "velocity": 65
      },
      {
        "deltaTime": 5,
        "channel": 0,
        "type": "noteOn",
        "noteNumber": 64,
        "velocity": 57
      },
      {
        "deltaTime": 0,
        "running": true,
        "channel": 0,
        "type": "noteOn",
        "noteNumber": 67,
        "velocity": 64
      },
      {
        "deltaTime": 0,
        "running": true,
        "channel": 0,
        "type": "noteOn",
        "noteNumber": 79,
        "velocity": 60
      },
      {
        "deltaTime": 5,
        "channel": 0,
        "type": "noteOn",
        "noteNumber": 55,
        "velocity": 55
      },
      {
        "deltaTime": 0,
        "running": true,
        "channel": 0,
        "type": "noteOn",
        "noteNumber": 60,
        "velocity": 47
      },
      {
        "deltaTime": 150,
        "channel": 0,
        "type": "controller",
        "controllerType": 64,
        "value": 127
      },
      {
        "deltaTime": 185,
        "channel": 0,
        "type": "noteOff",
        "noteNumber": 76,
        "velocity": 0,
        "byte9": true
      },
      {
        "deltaTime": 5,
        "channel": 0,
        "type": "noteOff",
        "noteNumber": 79,
        "velocity": 0,
        "byte9": true
      },
      {
        "deltaTime": 50,
        "channel": 0,
        "type": "noteOff",
        "noteNumber": 67,
        "velocity": 0,
        "byte9": true
      },
      {
        "deltaTime": 20,
        "channel": 0,
        "type": "noteOff",
        "noteNumber": 64,
        "velocity": 0,
        "byte9": true
      },
      {
        "deltaTime": 15,
        "channel": 0,
        "type": "noteOff",
        "noteNumber": 60,
        "velocity": 0,
        "byte9": true
      },
      {
        "deltaTime": 15,
        "channel": 0,
        "type": "noteOff",
        "noteNumber": 55,
        "velocity": 0,
        "byte9": true
      },
      {
        "deltaTime": 110,
        "channel": 0,
        "type": "controller",
        "controllerType": 64,
        "value": 0
      },
      {
        "deltaTime": 15,
        "channel": 0,
        "type": "noteOn",
        "noteNumber": 60,
        "velocity": 48
      },
      {
        "deltaTime": 10,
        "channel": 0,
        "type": "noteOn",
        "noteNumber": 64,
        "velocity": 50
      },
      {
        "deltaTime": 5,
        "channel": 0,
        "type": "noteOn",
        "noteNumber": 55,
        "velocity": 35
      },
      {
        "deltaTime": 5,
        "channel": 0,
        "type": "noteOn",
        "noteNumber": 76,
        "velocity": 24
      },
      {
        "deltaTime": 10,
        "channel": 0,
        "type": "noteOn",
        "noteNumber": 69,
        "velocity": 39
      },
      {
        "deltaTime": 20,
        "channel": 0,
        "type": "noteOff",
        "noteNumber": 64,
        "velocity": 0,
        "byte9": true
      },
      {
        "deltaTime": 5,
        "channel": 0,
        "type": "noteOff",
        "noteNumber": 55,
        "velocity": 0,
        "byte9": true
      },
      {
        "deltaTime": 10,
        "channel": 0,
        "type": "noteOff",
        "noteNumber": 60,
        "velocity": 0,
        "byte9": true
      },
      {
        "deltaTime": 0,
        "running": true,
        "channel": 0,
        "type": "noteOff",
        "noteNumber": 69,
        "velocity": 0,
        "byte9": true
      },
      {
        "deltaTime": 35,
        "channel": 0,
        "type": "noteOff",
        "noteNumber": 76,
        "velocity": 0,
        "byte9": true
      },
      {
        "deltaTime": 225,
        "channel": 0,
        "type": "noteOn",
        "noteNumber": 67,
        "velocity": 73
      },
      {
        "deltaTime": 0,
        "running": true,
        "channel": 0,
        "type": "noteOn",
        "noteNumber": 79,
        "velocity": 76
      },
      {
        "deltaTime": 10,
        "channel": 0,
        "type": "noteOn",
        "noteNumber": 55,
        "velocity": 63
      },
      {
        "deltaTime": 0,
        "running": true,
        "channel": 0,
        "type": "noteOn",
        "noteNumber": 60,
        "velocity": 60
      },
      {
        "deltaTime": 0,
        "running": true,
        "channel": 0,
        "type": "noteOn",
        "noteNumber": 64,
        "velocity": 54
      },
      {
        "deltaTime": 25,
        "channel": 0,
        "type": "noteOff",
        "noteNumber": 67,
        "velocity": 0,
        "byte9": true
      },
      {
        "deltaTime": 5,
        "channel": 0,
        "type": "noteOff",
        "noteNumber": 55,
        "velocity": 0,
        "byte9": true
      },
      {
        "deltaTime": 5,
        "channel": 0,
        "type": "noteOff",
        "noteNumber": 64,
        "velocity": 0,
        "byte9": true
      },
      {
        "deltaTime": 5,
        "channel": 0,
        "type": "noteOff",
        "noteNumber": 60,
        "velocity": 0,
        "byte9": true
      },
      {
        "deltaTime": 15,
        "channel": 0,
        "type": "noteOff",
        "noteNumber": 79,
        "velocity": 0,
        "byte9": true
      },
      {
        "deltaTime": 90,
        "channel": 0,
        "type": "noteOn",
        "noteNumber": 64,
        "velocity": 57
      },
      {
        "deltaTime": 5,
        "channel": 0,
        "type": "noteOn",
        "noteNumber": 55,
        "velocity": 71
      },
      {
        "deltaTime": 0,
        "running": true,
        "channel": 0,
        "type": "noteOn",
        "noteNumber": 60,
        "velocity": 58
      },
      {
        "deltaTime": 5,
        "channel": 0,
        "type": "controller",
        "controllerType": 64,
        "value": 127
      },
      {
        "deltaTime": 0,
        "channel": 0,
        "type": "noteOn",
        "noteNumber": 84,
        "velocity": 77
      },
      {
        "deltaTime": 5,
        "channel": 0,
        "type": "noteOn",
        "noteNumber": 71,
        "velocity": 46
      },
      {
        "deltaTime": 5,
        "channel": 0,
        "type": "noteOn",
        "noteNumber": 72,
        "velocity": 57
      },
      {
        "deltaTime": 15,
        "channel": 0,
        "type": "noteOff",
        "noteNumber": 84,
        "velocity": 0,
        "byte9": true
      },
      {
        "deltaTime": 25,
        "channel": 0,
        "type": "noteOff",
        "noteNumber": 71,
        "velocity": 0,
        "byte9": true
      },
      {
        "deltaTime": 15,
        "channel": 0,
        "type": "noteOff",
        "noteNumber": 72,
        "velocity": 0,
        "byte9": true
      },
      {
        "deltaTime": 20,
        "channel": 0,
        "type": "noteOff",
        "noteNumber": 64,
        "velocity": 0,
        "byte9": true
      },
      {
        "deltaTime": 30,
        "channel": 0,
        "type": "noteOff",
        "noteNumber": 55,
        "velocity": 0,
        "byte9": true
      },
      {
        "deltaTime": 0,
        "running": true,
        "channel": 0,
        "type": "noteOff",
        "noteNumber": 60,
        "velocity": 0,
        "byte9": true
      },
      {
        "deltaTime": 180,
        "channel": 0,
        "type": "noteOn",
        "noteNumber": 86,
        "velocity": 88
      },
      {
        "deltaTime": 5,
        "channel": 0,
        "type": "noteOn",
        "noteNumber": 55,
        "velocity": 75
      },
      {
        "deltaTime": 0,
        "running": true,
        "channel": 0,
        "type": "noteOn",
        "noteNumber": 74,
        "velocity": 80
      },
      {
        "deltaTime": 5,
        "channel": 0,
        "type": "noteOn",
        "noteNumber": 64,
        "velocity": 74
      },
      {
        "deltaTime": 5,
        "channel": 0,
        "type": "noteOn",
        "noteNumber": 60,
        "velocity": 67
      },
      {
        "deltaTime": 0,
        "running": true,
        "channel": 0,
        "type": "noteOn",
        "noteNumber": 76,
        "velocity": 64
      },
      {
        "deltaTime": 25,
        "channel": 0,
        "type": "noteOff",
        "noteNumber": 76,
        "velocity": 0,
        "byte9": true
      },
      {
        "deltaTime": 25,
        "channel": 0,
        "type": "noteOff",
        "noteNumber": 55,
        "velocity": 0,
        "byte9": true
      },
      {
        "deltaTime": 5,
        "channel": 0,
        "type": "noteOff",
        "noteNumber": 64,
        "velocity": 0,
        "byte9": true
      },
      {
        "deltaTime": 5,
        "channel": 0,
        "type": "noteOff",
        "noteNumber": 74,
        "velocity": 0,
        "byte9": true
      },
      {
        "deltaTime": 20,
        "channel": 0,
        "type": "noteOff",
        "noteNumber": 86,
        "velocity": 0,
        "byte9": true
      },
      {
        "deltaTime": 35,
        "channel": 0,
        "type": "noteOff",
        "noteNumber": 60,
        "velocity": 0,
        "byte9": true
      },
      {
        "deltaTime": 15,
        "channel": 0,
        "type": "controller",
        "controllerType": 64,
        "value": 0
      },
      {
        "deltaTime": 45,
        "channel": 0,
        "type": "noteOn",
        "noteNumber": 64,
        "velocity": 50
      },
      {
        "deltaTime": 0,
        "running": true,
        "channel": 0,
        "type": "noteOn",
        "noteNumber": 76,
        "velocity": 62
      },
      {
        "deltaTime": 0,
        "running": true,
        "channel": 0,
        "type": "noteOn",
        "noteNumber": 88,
        "velocity": 66
      },
      {
        "deltaTime": 5,
        "channel": 0,
        "type": "noteOn",
        "noteNumber": 54,
        "velocity": 58
      },
      {
        "deltaTime": 0,
        "running": true,
        "channel": 0,
        "type": "noteOn",
        "noteNumber": 60,
        "velocity": 55
      },
      {
        "deltaTime": 5,
        "channel": 0,
        "type": "noteOn",
        "noteNumber": 83,
        "velocity": 47
      },
      {
        "deltaTime": 5,
        "channel": 0,
        "type": "noteOn",
        "noteNumber": 80,
        "velocity": 31
      },
      {
        "deltaTime": 145,
        "channel": 0,
        "type": "noteOff",
        "noteNumber": 80,
        "velocity": 0,
        "byte9": true
      },
      {
        "deltaTime": 10,
        "channel": 0,
        "type": "noteOff",
        "noteNumber": 76,
        "velocity": 0,
        "byte9": true
      },
      {
        "deltaTime": 0,
        "running": true,
        "channel": 0,
        "type": "noteOff",
        "noteNumber": 83,
        "velocity": 0,
        "byte9": true
      },
      {
        "deltaTime": 5,
        "channel": 0,
        "type": "noteOff",
        "noteNumber": 64,
        "velocity": 0,
        "byte9": true
      },
      {
        "deltaTime": 0,
        "running": true,
        "channel": 0,
        "type": "noteOff",
        "noteNumber": 88,
        "velocity": 0,
        "byte9": true
      },
      {
        "deltaTime": 10,
        "channel": 0,
        "type": "noteOff",
        "noteNumber": 54,
        "velocity": 0,
        "byte9": true
      },
      {
        "deltaTime": 5,
        "channel": 0,
        "type": "noteOff",
        "noteNumber": 60,
        "velocity": 0,
        "byte9": true
      },
      {
        "deltaTime": 100,
        "channel": 0,
        "type": "noteOn",
        "noteNumber": 88,
        "velocity": 60
      },
      {
        "deltaTime": 5,
        "channel": 0,
        "type": "noteOn",
        "noteNumber": 76,
        "velocity": 57
      },
      {
        "deltaTime": 5,
        "channel": 0,
        "type": "noteOn",
        "noteNumber": 83,
        "velocity": 46
      },
      {
        "deltaTime": 5,
        "channel": 0,
        "type": "noteOn",
        "noteNumber": 54,
        "velocity": 50
      },
      {
        "deltaTime": 0,
        "running": true,
        "channel": 0,
        "type": "noteOn",
        "noteNumber": 80,
        "velocity": 36
      },
      {
        "deltaTime": 5,
        "channel": 0,
        "type": "noteOn",
        "noteNumber": 60,
        "velocity": 47
      },
      {
        "deltaTime": 0,
        "running": true,
        "channel": 0,
        "type": "noteOn",
        "noteNumber": 64,
        "velocity": 46
      },
      {
        "deltaTime": 65,
        "channel": 0,
        "type": "noteOff",
        "noteNumber": 64,
        "velocity": 0,
        "byte9": true
      },
      {
        "deltaTime": 5,
        "channel": 0,
        "type": "noteOff",
        "noteNumber": 80,
        "velocity": 0,
        "byte9": true
      },
      {
        "deltaTime": 5,
        "channel": 0,
        "type": "noteOff",
        "noteNumber": 54,
        "velocity": 0,
        "byte9": true
      },
      {
        "deltaTime": 0,
        "running": true,
        "channel": 0,
        "type": "noteOff",
        "noteNumber": 60,
        "velocity": 0,
        "byte9": true
      },
      {
        "deltaTime": 5,
        "channel": 0,
        "type": "noteOff",
        "noteNumber": 76,
        "velocity": 0,
        "byte9": true
      },
      {
        "deltaTime": 0,
        "running": true,
        "channel": 0,
        "type": "noteOff",
        "noteNumber": 83,
        "velocity": 0,
        "byte9": true
      },
      {
        "deltaTime": 10,
        "channel": 0,
        "type": "noteOff",
        "noteNumber": 88,
        "velocity": 0,
        "byte9": true
      },
      {
        "deltaTime": 880,
        "channel": 0,
        "type": "noteOn",
        "noteNumber": 80,
        "velocity": 52
      },
      {
        "deltaTime": 0,
        "running": true,
        "channel": 0,
        "type": "noteOn",
        "noteNumber": 88,
        "velocity": 71
      },
      {
        "deltaTime": 5,
        "channel": 0,
        "type": "noteOn",
        "noteNumber": 64,
        "velocity": 71
      },
      {
        "deltaTime": 0,
        "running": true,
        "channel": 0,
        "type": "noteOn",
        "noteNumber": 76,
        "velocity": 71
      },
      {
        "deltaTime": 5,
        "channel": 0,
        "type": "noteOn",
        "noteNumber": 54,
        "velocity": 60
      },
      {
        "deltaTime": 0,
        "running": true,
        "channel": 0,
        "type": "noteOn",
        "noteNumber": 60,
        "velocity": 68
      },
      {
        "deltaTime": 0,
        "running": true,
        "channel": 0,
        "type": "noteOn",
        "noteNumber": 83,
        "velocity": 58
      },
      {
        "deltaTime": 30,
        "channel": 0,
        "type": "noteOff",
        "noteNumber": 76,
        "velocity": 0,
        "byte9": true
      },
      {
        "deltaTime": 5,
        "channel": 0,
        "type": "noteOff",
        "noteNumber": 80,
        "velocity": 0,
        "byte9": true
      },
      {
        "deltaTime": 0,
        "running": true,
        "channel": 0,
        "type": "noteOff",
        "noteNumber": 83,
        "velocity": 0,
        "byte9": true
      },
      {
        "deltaTime": 15,
        "channel": 0,
        "type": "noteOff",
        "noteNumber": 64,
        "velocity": 0,
        "byte9": true
      },
      {
        "deltaTime": 5,
        "channel": 0,
        "type": "noteOff",
        "noteNumber": 88,
        "velocity": 0,
        "byte9": true
      },
      {
        "deltaTime": 5,
        "channel": 0,
        "type": "noteOff",
        "noteNumber": 60,
        "velocity": 0,
        "byte9": true
      },
      {
        "deltaTime": 5,
        "channel": 0,
        "type": "noteOff",
        "noteNumber": 54,
        "velocity": 0,
        "byte9": true
      },
      {
        "deltaTime": 370,
        "channel": 0,
        "type": "noteOn",
        "noteNumber": 54,
        "velocity": 64
      },
      {
        "deltaTime": 0,
        "running": true,
        "channel": 0,
        "type": "noteOn",
        "noteNumber": 60,
        "velocity": 65
      },
      {
        "deltaTime": 5,
        "channel": 0,
        "type": "noteOn",
        "noteNumber": 64,
        "velocity": 72
      },
      {
        "deltaTime": 0,
        "running": true,
        "channel": 0,
        "type": "noteOn",
        "noteNumber": 80,
        "velocity": 71
      },
      {
        "deltaTime": 5,
        "channel": 0,
        "type": "noteOn",
        "noteNumber": 76,
        "velocity": 85
      },
      {
        "deltaTime": 0,
        "running": true,
        "channel": 0,
        "type": "noteOn",
        "noteNumber": 83,
        "velocity": 74
      },
      {
        "deltaTime": 0,
        "running": true,
        "channel": 0,
        "type": "noteOn",
        "noteNumber": 88,
        "velocity": 73
      },
      {
        "deltaTime": 10,
        "channel": 0,
        "type": "noteOn",
        "noteNumber": 86,
        "velocity": 54
      },
      {
        "deltaTime": 10,
        "channel": 0,
        "type": "noteOff",
        "noteNumber": 60,
        "velocity": 0,
        "byte9": true
      },
      {
        "deltaTime": 15,
        "channel": 0,
        "type": "noteOff",
        "noteNumber": 64,
        "velocity": 0,
        "byte9": true
      },
      {
        "deltaTime": 5,
        "channel": 0,
        "type": "noteOff",
        "noteNumber": 86,
        "velocity": 0,
        "byte9": true
      },
      {
        "deltaTime": 5,
        "channel": 0,
        "type": "noteOff",
        "noteNumber": 54,
        "velocity": 0,
        "byte9": true
      },
      {
        "deltaTime": 15,
        "channel": 0,
        "type": "noteOff",
        "noteNumber": 83,
        "velocity": 0,
        "byte9": true
      },
      {
        "deltaTime": 0,
        "running": true,
        "channel": 0,
        "type": "noteOff",
        "noteNumber": 88,
        "velocity": 0,
        "byte9": true
      },
      {
        "deltaTime": 5,
        "channel": 0,
        "type": "noteOff",
        "noteNumber": 76,
        "velocity": 0,
        "byte9": true
      },
      {
        "deltaTime": 20,
        "channel": 0,
        "type": "noteOff",
        "noteNumber": 80,
        "velocity": 0,
        "byte9": true
      },
      {
        "deltaTime": 90,
        "channel": 0,
        "type": "noteOn",
        "noteNumber": 62,
        "velocity": 44
      },
      {
        "deltaTime": 5,
        "channel": 0,
        "type": "noteOn",
        "noteNumber": 66,
        "velocity": 57
      },
      {
        "deltaTime": 0,
        "running": true,
        "channel": 0,
        "type": "noteOn",
        "noteNumber": 74,
        "velocity": 69
      },
      {
        "deltaTime": 5,
        "channel": 0,
        "type": "noteOn",
        "noteNumber": 57,
        "velocity": 56
      },
      {
        "deltaTime": 0,
        "running": true,
        "channel": 0,
        "type": "noteOn",
        "noteNumber": 86,
        "velocity": 41
      },
      {
        "deltaTime": 20,
        "channel": 0,
        "type": "noteOn",
        "noteNumber": 61,
        "velocity": 29
      },
      {
        "deltaTime": 0,
        "running": true,
        "channel": 0,
        "type": "noteOn",
        "noteNumber": 78,
        "velocity": 27
      },
      {
        "deltaTime": 25,
        "channel": 0,
        "type": "noteOff",
        "noteNumber": 78,
        "velocity": 0,
        "byte9": true
      },
      {
        "deltaTime": 15,
        "channel": 0,
        "type": "noteOff",
        "noteNumber": 74,
        "velocity": 0,
        "byte9": true
      },
      {
        "deltaTime": 0,
        "running": true,
        "channel": 0,
        "type": "noteOff",
        "noteNumber": 86,
        "velocity": 0,
        "byte9": true
      },
      {
        "deltaTime": 10,
        "channel": 0,
        "type": "noteOff",
        "noteNumber": 66,
        "velocity": 0,
        "byte9": true
      },
      {
        "deltaTime": 15,
        "channel": 0,
        "type": "noteOff",
        "noteNumber": 57,
        "velocity": 0,
        "byte9": true
      },
      {
        "deltaTime": 15,
        "channel": 0,
        "type": "noteOff",
        "noteNumber": 62,
        "velocity": 0,
        "byte9": true
      },
      {
        "deltaTime": 25,
        "channel": 0,
        "type": "noteOff",
        "noteNumber": 61,
        "velocity": 0,
        "byte9": true
      },
      {
        "deltaTime": 325,
        "channel": 0,
        "type": "noteOn",
        "noteNumber": 86,
        "velocity": 72
      },
      {
        "deltaTime": 5,
        "channel": 0,
        "type": "noteOn",
        "noteNumber": 66,
        "velocity": 55
      },
      {
        "deltaTime": 0,
        "running": true,
        "channel": 0,
        "type": "noteOn",
        "noteNumber": 74,
        "velocity": 72
      },
      {
        "deltaTime": 0,
        "running": true,
        "channel": 0,
        "type": "noteOn",
        "noteNumber": 78,
        "velocity": 62
      },
      {
        "deltaTime": 5,
        "channel": 0,
        "type": "noteOn",
        "noteNumber": 57,
        "velocity": 50
      },
      {
        "deltaTime": 5,
        "channel": 0,
        "type": "noteOn",
        "noteNumber": 61,
        "velocity": 44
      },
      {
        "deltaTime": 0,
        "running": true,
        "channel": 0,
        "type": "noteOn",
        "noteNumber": 62,
        "velocity": 54
      },
      {
        "deltaTime": 30,
        "channel": 0,
        "type": "controller",
        "controllerType": 64,
        "value": 127
      },
      {
        "deltaTime": 0,
        "channel": 0,
        "type": "noteOff",
        "noteNumber": 62,
        "velocity": 0,
        "byte9": true
      },
      {
        "deltaTime": 65,
        "channel": 0,
        "type": "noteOff",
        "noteNumber": 74,
        "velocity": 0,
        "byte9": true
      },
      {
        "deltaTime": 10,
        "channel": 0,
        "type": "noteOff",
        "noteNumber": 66,
        "velocity": 0,
        "byte9": true
      },
      {
        "deltaTime": 5,
        "channel": 0,
        "type": "noteOff",
        "noteNumber": 57,
        "velocity": 0,
        "byte9": true
      },
      {
        "deltaTime": 20,
        "channel": 0,
        "type": "noteOff",
        "noteNumber": 78,
        "velocity": 0,
        "byte9": true
      },
      {
        "deltaTime": 30,
        "channel": 0,
        "type": "noteOff",
        "noteNumber": 86,
        "velocity": 0,
        "byte9": true
      },
      {
        "deltaTime": 30,
        "channel": 0,
        "type": "noteOff",
        "noteNumber": 61,
        "velocity": 0,
        "byte9": true
      },
      {
        "deltaTime": 245,
        "channel": 0,
        "type": "controller",
        "controllerType": 64,
        "value": 0
      },
      {
        "deltaTime": 30,
        "channel": 0,
        "type": "noteOn",
        "noteNumber": 95,
        "velocity": 92
      },
      {
        "deltaTime": 5,
        "channel": 0,
        "type": "noteOn",
        "noteNumber": 66,
        "velocity": 77
      },
      {
        "deltaTime": 0,
        "running": true,
        "channel": 0,
        "type": "noteOn",
        "noteNumber": 83,
        "velocity": 89
      },
      {
        "deltaTime": 5,
        "channel": 0,
        "type": "noteOn",
        "noteNumber": 57,
        "velocity": 68
      },
      {
        "deltaTime": 5,
        "channel": 0,
        "type": "noteOn",
        "noteNumber": 61,
        "velocity": 59
      },
      {
        "deltaTime": 0,
        "running": true,
        "channel": 0,
        "type": "noteOn",
        "noteNumber": 62,
        "velocity": 68
      },
      {
        "deltaTime": 20,
        "channel": 0,
        "type": "controller",
        "controllerType": 64,
        "value": 127
      },
      {
        "deltaTime": 145,
        "channel": 0,
        "type": "noteOff",
        "noteNumber": 57,
        "velocity": 0,
        "byte9": true
      },
      {
        "deltaTime": 5,
        "channel": 0,
        "type": "noteOff",
        "noteNumber": 95,
        "velocity": 0,
        "byte9": true
      },
      {
        "deltaTime": 10,
        "channel": 0,
        "type": "noteOff",
        "noteNumber": 62,
        "velocity": 0,
        "byte9": true
      },
      {
        "deltaTime": 5,
        "channel": 0,
        "type": "noteOff",
        "noteNumber": 83,
        "velocity": 0,
        "byte9": true
      },
      {
        "deltaTime": 5,
        "channel": 0,
        "type": "noteOff",
        "noteNumber": 61,
        "velocity": 0,
        "byte9": true
      },
      {
        "deltaTime": 5,
        "channel": 0,
        "type": "noteOff",
        "noteNumber": 66,
        "velocity": 0,
        "byte9": true
      },
      {
        "deltaTime": 100,
        "channel": 0,
        "type": "noteOn",
        "noteNumber": 95,
        "velocity": 75
      },
      {
        "deltaTime": 5,
        "channel": 0,
        "type": "noteOn",
        "noteNumber": 83,
        "velocity": 68
      },
      {
        "deltaTime": 10,
        "channel": 0,
        "type": "noteOn",
        "noteNumber": 66,
        "velocity": 42
      },
      {
        "deltaTime": 30,
        "channel": 0,
        "type": "noteOff",
        "noteNumber": 66,
        "velocity": 0,
        "byte9": true
      },
      {
        "deltaTime": 0,
        "running": true,
        "channel": 0,
        "type": "noteOff",
        "noteNumber": 95,
        "velocity": 0,
        "byte9": true
      },
      {
        "deltaTime": 15,
        "channel": 0,
        "type": "noteOff",
        "noteNumber": 83,
        "velocity": 0,
        "byte9": true
      },
      {
        "deltaTime": 75,
        "channel": 0,
        "type": "controller",
        "controllerType": 64,
        "value": 0
      },
      {
        "deltaTime": 35,
        "channel": 0,
        "type": "noteOn",
        "noteNumber": 66,
        "velocity": 46
      },
      {
        "deltaTime": 5,
        "channel": 0,
        "type": "noteOn",
        "noteNumber": 89,
        "velocity": 49
      },
      {
        "deltaTime": 15,
        "channel": 0,
        "type": "noteOn",
        "noteNumber": 77,
        "velocity": 25
      },
      {
        "deltaTime": 15,
        "channel": 0,
        "type": "noteOff",
        "noteNumber": 89,
        "velocity": 0,
        "byte9": true
      },
      {
        "deltaTime": 5,
        "channel": 0,
        "type": "noteOff",
        "noteNumber": 66,
        "velocity": 0,
        "byte9": true
      },
      {
        "deltaTime": 5,
        "channel": 0,
        "type": "noteOff",
        "noteNumber": 77,
        "velocity": 0,
        "byte9": true
      },
      {
        "deltaTime": 175,
        "channel": 0,
        "type": "controller",
        "controllerType": 64,
        "value": 127
      },
      {
        "deltaTime": 65,
        "channel": 0,
        "type": "noteOn",
        "noteNumber": 66,
        "velocity": 57
      },
      {
        "deltaTime": 20,
        "channel": 0,
        "type": "noteOn",
        "noteNumber": 57,
        "velocity": 24
      },
      {
        "deltaTime": 5,
        "channel": 0,
        "type": "noteOn",
        "noteNumber": 89,
        "velocity": 76
      },
      {
        "deltaTime": 5,
        "channel": 0,
        "type": "noteOn",
        "noteNumber": 77,
        "velocity": 66
      },
      {
        "deltaTime": 20,
        "channel": 0,
        "type": "noteOff",
        "noteNumber": 57,
        "velocity": 0,
        "byte9": true
      },
      {
        "deltaTime": 35,
        "channel": 0,
        "type": "noteOff",
        "noteNumber": 77,
        "velocity": 0,
        "byte9": true
      },
      {
        "deltaTime": 0,
        "running": true,
        "channel": 0,
        "type": "noteOff",
        "noteNumber": 89,
        "velocity": 0,
        "byte9": true
      },
      {
        "deltaTime": 20,
        "channel": 0,
        "type": "noteOff",
        "noteNumber": 66,
        "velocity": 0,
        "byte9": true
      },
      {
        "deltaTime": 55,
        "channel": 0,
        "type": "controller",
        "controllerType": 64,
        "value": 0
      },
      {
        "deltaTime": 35,
        "channel": 0,
        "type": "noteOn",
        "noteNumber": 67,
        "velocity": 63
      },
      {
        "deltaTime": 0,
        "running": true,
        "channel": 0,
        "type": "noteOn",
        "noteNumber": 76,
        "velocity": 53
      },
      {
        "deltaTime": 0,
        "running": true,
        "channel": 0,
        "type": "noteOn",
        "noteNumber": 88,
        "velocity": 62
      },
      {
        "deltaTime": 5,
        "channel": 0,
        "type": "noteOn",
        "noteNumber": 56,
        "velocity": 49
      },
      {
        "deltaTime": 0,
        "running": true,
        "channel": 0,
        "type": "noteOn",
        "noteNumber": 62,
        "velocity": 54
      },
      {
        "deltaTime": 5,
        "channel": 0,
        "type": "noteOn",
        "noteNumber": 84,
        "velocity": 53
      },
      {
        "deltaTime": 120,
        "channel": 0,
        "type": "controller",
        "controllerType": 64,
        "value": 127
      },
      {
        "deltaTime": 60,
        "channel": 0,
        "type": "noteOff",
        "noteNumber": 67,
        "velocity": 0,
        "byte9": true
      },
      {
        "deltaTime": 10,
        "channel": 0,
        "type": "noteOff",
        "noteNumber": 84,
        "velocity": 0,
        "byte9": true
      },
      {
        "deltaTime": 5,
        "channel": 0,
        "type": "noteOff",
        "noteNumber": 56,
        "velocity": 0,
        "byte9": true
      },
      {
        "deltaTime": 0,
        "running": true,
        "channel": 0,
        "type": "noteOff",
        "noteNumber": 76,
        "velocity": 0,
        "byte9": true
      },
      {
        "deltaTime": 0,
        "running": true,
        "channel": 0,
        "type": "noteOff",
        "noteNumber": 88,
        "velocity": 0,
        "byte9": true
      },
      {
        "deltaTime": 20,
        "channel": 0,
        "type": "noteOff",
        "noteNumber": 62,
        "velocity": 0,
        "byte9": true
      },
      {
        "deltaTime": 85,
        "channel": 0,
        "type": "noteOn",
        "noteNumber": 62,
        "velocity": 55
      },
      {
        "deltaTime": 0,
        "running": true,
        "channel": 0,
        "type": "noteOn",
        "noteNumber": 84,
        "velocity": 68
      },
      {
        "deltaTime": 5,
        "channel": 0,
        "type": "noteOn",
        "noteNumber": 56,
        "velocity": 58
      },
      {
        "deltaTime": 0,
        "running": true,
        "channel": 0,
        "type": "noteOn",
        "noteNumber": 67,
        "velocity": 64
      },
      {
        "deltaTime": 0,
        "running": true,
        "channel": 0,
        "type": "noteOn",
        "noteNumber": 76,
        "velocity": 63
      },
      {
        "deltaTime": 0,
        "running": true,
        "channel": 0,
        "type": "noteOn",
        "noteNumber": 88,
        "velocity": 57
      },
      {
        "deltaTime": 315,
        "channel": 0,
        "type": "noteOff",
        "noteNumber": 88,
        "velocity": 0,
        "byte9": true
      },
      {
        "deltaTime": 10,
        "channel": 0,
        "type": "noteOff",
        "noteNumber": 84,
        "velocity": 0,
        "byte9": true
      },
      {
        "deltaTime": 45,
        "channel": 0,
        "type": "noteOff",
        "noteNumber": 76,
        "velocity": 0,
        "byte9": true
      },
      {
        "deltaTime": 10,
        "channel": 0,
        "type": "noteOff",
        "noteNumber": 62,
        "velocity": 0,
        "byte9": true
      },
      {
        "deltaTime": 10,
        "channel": 0,
        "type": "noteOff",
        "noteNumber": 67,
        "velocity": 0,
        "byte9": true
      },
      {
        "deltaTime": 40,
        "channel": 0,
        "type": "noteOff",
        "noteNumber": 56,
        "velocity": 0,
        "byte9": true
      },
      {
        "deltaTime": 205,
        "channel": 0,
        "type": "noteOn",
        "noteNumber": 56,
        "velocity": 53
      },
      {
        "deltaTime": 0,
        "running": true,
        "channel": 0,
        "type": "noteOn",
        "noteNumber": 67,
        "velocity": 60
      },
      {
        "deltaTime": 5,
        "channel": 0,
        "type": "noteOn",
        "noteNumber": 72,
        "velocity": 51
      },
      {
        "deltaTime": 5,
        "channel": 0,
        "type": "noteOn",
        "noteNumber": 62,
        "velocity": 49
      },
      {
        "deltaTime": 0,
        "running": true,
        "channel": 0,
        "type": "noteOn",
        "noteNumber": 79,
        "velocity": 43
      },
      {
        "deltaTime": 15,
        "channel": 0,
        "type": "noteOn",
        "noteNumber": 76,
        "velocity": 40
      },
      {
        "deltaTime": 145,
        "channel": 0,
        "type": "noteOff",
        "noteNumber": 76,
        "velocity": 0,
        "byte9": true
      },
      {
        "deltaTime": 10,
        "channel": 0,
        "type": "noteOff",
        "noteNumber": 67,
        "velocity": 0,
        "byte9": true
      },
      {
        "deltaTime": 10,
        "channel": 0,
        "type": "noteOff",
        "noteNumber": 62,
        "velocity": 0,
        "byte9": true
      },
      {
        "deltaTime": 5,
        "channel": 0,
        "type": "noteOff",
        "noteNumber": 56,
        "velocity": 0,
        "byte9": true
      },
      {
        "deltaTime": 0,
        "running": true,
        "channel": 0,
        "type": "noteOff",
        "noteNumber": 72,
        "velocity": 0,
        "byte9": true
      },
      {
        "deltaTime": 5,
        "channel": 0,
        "type": "noteOff",
        "noteNumber": 79,
        "velocity": 0,
        "byte9": true
      },
      {
        "deltaTime": 110,
        "channel": 0,
        "type": "controller",
        "controllerType": 64,
        "value": 0
      },
      {
        "deltaTime": 10,
        "channel": 0,
        "type": "noteOn",
        "noteNumber": 76,
        "velocity": 71
      },
      {
        "deltaTime": 0,
        "running": true,
        "channel": 0,
        "type": "noteOn",
        "noteNumber": 79,
        "velocity": 71
      },
      {
        "deltaTime": 5,
        "channel": 0,
        "type": "noteOn",
        "noteNumber": 56,
        "velocity": 67
      },
      {
        "deltaTime": 0,
        "running": true,
        "channel": 0,
        "type": "noteOn",
        "noteNumber": 72,
        "velocity": 66
      },
      {
        "deltaTime": 5,
        "channel": 0,
        "type": "noteOn",
        "noteNumber": 62,
        "velocity": 64
      },
      {
        "deltaTime": 0,
        "running": true,
        "channel": 0,
        "type": "noteOn",
        "noteNumber": 67,
        "velocity": 71
      },
      {
        "deltaTime": 40,
        "channel": 0,
        "type": "controller",
        "controllerType": 64,
        "value": 127
      },
      {
        "deltaTime": 180,
        "channel": 0,
        "type": "noteOff",
        "noteNumber": 67,
        "velocity": 0,
        "byte9": true
      },
      {
        "deltaTime": 0,
        "running": true,
        "channel": 0,
        "type": "noteOff",
        "noteNumber": 79,
        "velocity": 0,
        "byte9": true
      },
      {
        "deltaTime": 10,
        "channel": 0,
        "type": "noteOff",
        "noteNumber": 62,
        "velocity": 0,
        "byte9": true
      },
      {
        "deltaTime": 5,
        "channel": 0,
        "type": "noteOff",
        "noteNumber": 76,
        "velocity": 0,
        "byte9": true
      },
      {
        "deltaTime": 20,
        "channel": 0,
        "type": "noteOff",
        "noteNumber": 72,
        "velocity": 0,
        "byte9": true
      },
      {
        "deltaTime": 45,
        "channel": 0,
        "type": "noteOff",
        "noteNumber": 56,
        "velocity": 0,
        "byte9": true
      },
      {
        "deltaTime": 290,
        "channel": 0,
        "type": "controller",
        "controllerType": 64,
        "value": 0
      },
      {
        "deltaTime": 35,
        "channel": 0,
        "type": "noteOn",
        "noteNumber": 61,
        "velocity": 46
      },
      {
        "deltaTime": 10,
        "channel": 0,
        "type": "noteOn",
        "noteNumber": 64,
        "velocity": 55
      },
      {
        "deltaTime": 5,
        "channel": 0,
        "type": "noteOn",
        "noteNumber": 54,
        "velocity": 39
      },
      {
        "deltaTime": 0,
        "running": true,
        "channel": 0,
        "type": "noteOn",
        "noteNumber": 68,
        "velocity": 38
      },
      {
        "deltaTime": 10,
        "channel": 0,
        "type": "noteOn",
        "noteNumber": 73,
        "velocity": 21
      },
      {
        "deltaTime": 0,
        "running": true,
        "channel": 0,
        "type": "noteOn",
        "noteNumber": 76,
        "velocity": 24
      },
      {
        "deltaTime": 15,
        "channel": 0,
        "type": "noteOff",
        "noteNumber": 68,
        "velocity": 0,
        "byte9": true
      },
      {
        "deltaTime": 5,
        "channel": 0,
        "type": "noteOff",
        "noteNumber": 54,
        "velocity": 0,
        "byte9": true
      },
      {
        "deltaTime": 5,
        "channel": 0,
        "type": "noteOff",
        "noteNumber": 64,
        "velocity": 0,
        "byte9": true
      },
      {
        "deltaTime": 0,
        "running": true,
        "channel": 0,
        "type": "noteOff",
        "noteNumber": 73,
        "velocity": 0,
        "byte9": true
      },
      {
        "deltaTime": 0,
        "running": true,
        "channel": 0,
        "type": "noteOff",
        "noteNumber": 76,
        "velocity": 0,
        "byte9": true
      },
      {
        "deltaTime": 15,
        "channel": 0,
        "type": "noteOff",
        "noteNumber": 61,
        "velocity": 0,
        "byte9": true
      },
      {
        "deltaTime": 245,
        "channel": 0,
        "type": "noteOn",
        "noteNumber": 76,
        "velocity": 71
      },
      {
        "deltaTime": 5,
        "channel": 0,
        "type": "noteOn",
        "noteNumber": 64,
        "velocity": 65
      },
      {
        "deltaTime": 0,
        "running": true,
        "channel": 0,
        "type": "noteOn",
        "noteNumber": 68,
        "velocity": 70
      },
      {
        "deltaTime": 0,
        "running": true,
        "channel": 0,
        "type": "noteOn",
        "noteNumber": 73,
        "velocity": 55
      },
      {
        "deltaTime": 5,
        "channel": 0,
        "type": "noteOn",
        "noteNumber": 54,
        "velocity": 53
      },
      {
        "deltaTime": 0,
        "running": true,
        "channel": 0,
        "type": "noteOn",
        "noteNumber": 61,
        "velocity": 44
      },
      {
        "deltaTime": 155,
        "channel": 0,
        "type": "controller",
        "controllerType": 64,
        "value": 127
      },
      {
        "deltaTime": 130,
        "channel": 0,
        "type": "noteOff",
        "noteNumber": 64,
        "velocity": 0,
        "byte9": true
      },
      {
        "deltaTime": 120,
        "channel": 0,
        "type": "noteOff",
        "noteNumber": 54,
        "velocity": 0,
        "byte9": true
      },
      {
        "deltaTime": 15,
        "channel": 0,
        "type": "noteOff",
        "noteNumber": 61,
        "velocity": 0,
        "byte9": true
      },
      {
        "deltaTime": 40,
        "channel": 0,
        "type": "noteOff",
        "noteNumber": 68,
        "velocity": 0,
        "byte9": true
      },
      {
        "deltaTime": 50,
        "channel": 0,
        "type": "noteOff",
        "noteNumber": 73,
        "velocity": 0,
        "byte9": true
      },
      {
        "deltaTime": 20,
        "channel": 0,
        "type": "noteOff",
        "noteNumber": 76,
        "velocity": 0,
        "byte9": true
      },
      {
        "deltaTime": 80,
        "channel": 0,
        "type": "controller",
        "controllerType": 64,
        "value": 0
      },
      {
        "deltaTime": 35,
        "channel": 0,
        "type": "noteOn",
        "noteNumber": 68,
        "velocity": 40
      },
      {
        "deltaTime": 5,
        "channel": 0,
        "type": "noteOn",
        "noteNumber": 64,
        "velocity": 45
      },
      {
        "deltaTime": 5,
        "channel": 0,
        "type": "noteOn",
        "noteNumber": 61,
        "velocity": 46
      },
      {
        "deltaTime": 10,
        "channel": 0,
        "type": "noteOn",
        "noteNumber": 54,
        "velocity": 37
      },
      {
        "deltaTime": 135,
        "channel": 0,
        "type": "noteOff",
        "noteNumber": 64,
        "velocity": 0,
        "byte9": true
      },
      {
        "deltaTime": 5,
        "channel": 0,
        "type": "noteOff",
        "noteNumber": 61,
        "velocity": 0,
        "byte9": true
      },
      {
        "deltaTime": 10,
        "channel": 0,
        "type": "noteOff",
        "noteNumber": 54,
        "velocity": 0,
        "byte9": true
      },
      {
        "deltaTime": 15,
        "channel": 0,
        "type": "noteOff",
        "noteNumber": 68,
        "velocity": 0,
        "byte9": true
      },
      {
        "deltaTime": 285,
        "channel": 0,
        "type": "noteOn",
        "noteNumber": 84,
        "velocity": 81
      },
      {
        "deltaTime": 10,
        "channel": 0,
        "type": "noteOn",
        "noteNumber": 72,
        "velocity": 65
      },
      {
        "deltaTime": 5,
        "channel": 0,
        "type": "noteOn",
        "noteNumber": 61,
        "velocity": 60
      },
      {
        "deltaTime": 5,
        "channel": 0,
        "type": "noteOn",
        "noteNumber": 54,
        "velocity": 57
      },
      {
        "deltaTime": 60,
        "channel": 0,
        "type": "noteOff",
        "noteNumber": 72,
        "velocity": 0,
        "byte9": true
      },
      {
        "deltaTime": 20,
        "channel": 0,
        "type": "noteOff",
        "noteNumber": 84,
        "velocity": 0,
        "byte9": true
      },
      {
        "deltaTime": 20,
        "channel": 0,
        "type": "noteOff",
        "noteNumber": 54,
        "velocity": 0,
        "byte9": true
      },
      {
        "deltaTime": 35,
        "channel": 0,
        "type": "noteOff",
        "noteNumber": 61,
        "velocity": 0,
        "byte9": true
      },
      {
        "deltaTime": 140,
        "channel": 0,
        "type": "controller",
        "controllerType": 64,
        "value": 127
      },
      {
        "deltaTime": 130,
        "channel": 0,
        "type": "controller",
        "controllerType": 64,
        "value": 0
      },
      {
        "deltaTime": 75,
        "channel": 0,
        "type": "noteOn",
        "noteNumber": 61,
        "velocity": 55
      },
      {
        "deltaTime": 0,
        "running": true,
        "channel": 0,
        "type": "noteOn",
        "noteNumber": 65,
        "velocity": 71
      },
      {
        "deltaTime": 5,
        "channel": 0,
        "type": "noteOn",
        "noteNumber": 55,
        "velocity": 70
      },
      {
        "deltaTime": 0,
        "running": true,
        "channel": 0,
        "type": "noteOn",
        "noteNumber": 60,
        "velocity": 61
      },
      {
        "deltaTime": 0,
        "running": true,
        "channel": 0,
        "type": "noteOn",
        "noteNumber": 75,
        "velocity": 83
      },
      {
        "deltaTime": 0,
        "running": true,
        "channel": 0,
        "type": "noteOn",
        "noteNumber": 87,
        "velocity": 86
      },
      {
        "deltaTime": 20,
        "channel": 0,
        "type": "noteOn",
        "noteNumber": 64,
        "velocity": 37
      },
      {
        "deltaTime": 30,
        "channel": 0,
        "type": "noteOff",
        "noteNumber": 64,
        "velocity": 0,
        "byte9": true
      },
      {
        "deltaTime": 30,
        "channel": 0,
        "type": "controller",
        "controllerType": 64,
        "value": 127
      },
      {
        "deltaTime": 115,
        "channel": 0,
        "type": "noteOff",
        "noteNumber": 75,
        "velocity": 0,
        "byte9": true
      },
      {
        "deltaTime": 10,
        "channel": 0,
        "type": "noteOff",
        "noteNumber": 55,
        "velocity": 0,
        "byte9": true
      },
      {
        "deltaTime": 0,
        "running": true,
        "channel": 0,
        "type": "noteOff",
        "noteNumber": 87,
        "velocity": 0,
        "byte9": true
      },
      {
        "deltaTime": 10,
        "channel": 0,
        "type": "noteOff",
        "noteNumber": 65,
        "velocity": 0,
        "byte9": true
      },
      {
        "deltaTime": 5,
        "channel": 0,
        "type": "noteOff",
        "noteNumber": 60,
        "velocity": 0,
        "byte9": true
      },
      {
        "deltaTime": 20,
        "channel": 0,
        "type": "noteOff",
        "noteNumber": 61,
        "velocity": 0,
        "byte9": true
      },
      {
        "deltaTime": 75,
        "channel": 0,
        "type": "noteOn",
        "noteNumber": 61,
        "velocity": 59
      },
      {
        "deltaTime": 5,
        "channel": 0,
        "type": "noteOn",
        "noteNumber": 60,
        "velocity": 71
      },
      {
        "deltaTime": 0,
        "running": true,
        "channel": 0,
        "type": "noteOn",
        "noteNumber": 65,
        "velocity": 72
      },
      {
        "deltaTime": 0,
        "running": true,
        "channel": 0,
        "type": "noteOn",
        "noteNumber": 89,
        "velocity": 78
      },
      {
        "deltaTime": 10,
        "channel": 0,
        "type": "noteOn",
        "noteNumber": 55,
        "velocity": 58
      },
      {
        "deltaTime": 0,
        "running": true,
        "channel": 0,
        "type": "noteOn",
        "noteNumber": 77,
        "velocity": 71
      },
      {
        "deltaTime": 65,
        "channel": 0,
        "type": "noteOff",
        "noteNumber": 77,
        "velocity": 0,
        "byte9": true
      },
      {
        "deltaTime": 0,
        "running": true,
        "channel": 0,
        "type": "noteOff",
        "noteNumber": 89,
        "velocity": 0,
        "byte9": true
      },
      {
        "deltaTime": 10,
        "channel": 0,
        "type": "noteOff",
        "noteNumber": 55,
        "velocity": 0,
        "byte9": true
      },
      {
        "deltaTime": 5,
        "channel": 0,
        "type": "noteOff",
        "noteNumber": 65,
        "velocity": 0,
        "byte9": true
      },
      {
        "deltaTime": 25,
        "channel": 0,
        "type": "noteOff",
        "noteNumber": 60,
        "velocity": 0,
        "byte9": true
      },
      {
        "deltaTime": 10,
        "channel": 0,
        "type": "noteOff",
        "noteNumber": 61,
        "velocity": 0,
        "byte9": true
      },
      {
        "deltaTime": 10,
        "channel": 0,
        "type": "controller",
        "controllerType": 64,
        "value": 0
      },
      {
        "deltaTime": 30,
        "channel": 0,
        "type": "controller",
        "controllerType": 64,
        "value": 127
      },
      {
        "deltaTime": 5,
        "channel": 0,
        "type": "noteOn",
        "noteNumber": 65,
        "velocity": 48
      },
      {
        "deltaTime": 5,
        "channel": 0,
        "type": "noteOn",
        "noteNumber": 60,
        "velocity": 36
      },
      {
        "deltaTime": 0,
        "running": true,
        "channel": 0,
        "type": "noteOn",
        "noteNumber": 61,
        "velocity": 52
      },
      {
        "deltaTime": 5,
        "channel": 0,
        "type": "noteOn",
        "noteNumber": 55,
        "velocity": 52
      },
      {
        "deltaTime": 15,
        "channel": 0,
        "type": "noteOn",
        "noteNumber": 75,
        "velocity": 48
      },
      {
        "deltaTime": 0,
        "running": true,
        "channel": 0,
        "type": "noteOn",
        "noteNumber": 87,
        "velocity": 47
      },
      {
        "deltaTime": 110,
        "channel": 0,
        "type": "noteOff",
        "noteNumber": 55,
        "velocity": 0,
        "byte9": true
      },
      {
        "deltaTime": 20,
        "channel": 0,
        "type": "noteOff",
        "noteNumber": 60,
        "velocity": 0,
        "byte9": true
      },
      {
        "deltaTime": 0,
        "running": true,
        "channel": 0,
        "type": "noteOff",
        "noteNumber": 65,
        "velocity": 0,
        "byte9": true
      },
      {
        "deltaTime": 15,
        "channel": 0,
        "type": "noteOff",
        "noteNumber": 87,
        "velocity": 0,
        "byte9": true
      },
      {
        "deltaTime": 30,
        "channel": 0,
        "type": "noteOff",
        "noteNumber": 61,
        "velocity": 0,
        "byte9": true
      },
      {
        "deltaTime": 15,
        "channel": 0,
        "type": "noteOff",
        "noteNumber": 75,
        "velocity": 0,
        "byte9": true
      },
      {
        "deltaTime": 80,
        "channel": 0,
        "type": "noteOn",
        "noteNumber": 60,
        "velocity": 74
      },
      {
        "deltaTime": 0,
        "running": true,
        "channel": 0,
        "type": "noteOn",
        "noteNumber": 64,
        "velocity": 78
      },
      {
        "deltaTime": 5,
        "channel": 0,
        "type": "noteOn",
        "noteNumber": 54,
        "velocity": 73
      },
      {
        "deltaTime": 0,
        "running": true,
        "channel": 0,
        "type": "noteOn",
        "noteNumber": 86,
        "velocity": 74
      },
      {
        "deltaTime": 5,
        "channel": 0,
        "type": "controller",
        "controllerType": 64,
        "value": 0
      },
      {
        "deltaTime": 0,
        "channel": 0,
        "type": "noteOn",
        "noteNumber": 74,
        "velocity": 77
      },
      {
        "deltaTime": 20,
        "channel": 0,
        "type": "noteOn",
        "noteNumber": 80,
        "velocity": 32
      },
      {
        "deltaTime": 30,
        "channel": 0,
        "type": "noteOff",
        "noteNumber": 80,
        "velocity": 0,
        "byte9": true
      },
      {
        "deltaTime": 50,
        "channel": 0,
        "type": "controller",
        "controllerType": 64,
        "value": 127
      },
      {
        "deltaTime": 40,
        "channel": 0,
        "type": "noteOff",
        "noteNumber": 74,
        "velocity": 0,
        "byte9": true
      },
      {
        "deltaTime": 40,
        "channel": 0,
        "type": "noteOff",
        "noteNumber": 86,
        "velocity": 0,
        "byte9": true
      },
      {
        "deltaTime": 10,
        "channel": 0,
        "type": "noteOff",
        "noteNumber": 64,
        "velocity": 0,
        "byte9": true
      },
      {
        "deltaTime": 5,
        "channel": 0,
        "type": "noteOff",
        "noteNumber": 60,
        "velocity": 0,
        "byte9": true
      },
      {
        "deltaTime": 5,
        "channel": 0,
        "type": "noteOff",
        "noteNumber": 54,
        "velocity": 0,
        "byte9": true
      },
      {
        "deltaTime": 125,
        "channel": 0,
        "type": "noteOn",
        "noteNumber": 60,
        "velocity": 79
      },
      {
        "deltaTime": 5,
        "channel": 0,
        "type": "noteOn",
        "noteNumber": 54,
        "velocity": 77
      },
      {
        "deltaTime": 0,
        "running": true,
        "channel": 0,
        "type": "noteOn",
        "noteNumber": 64,
        "velocity": 78
      },
      {
        "deltaTime": 0,
        "running": true,
        "channel": 0,
        "type": "noteOn",
        "noteNumber": 96,
        "velocity": 88
      },
      {
        "deltaTime": 10,
        "channel": 0,
        "type": "noteOn",
        "noteNumber": 84,
        "velocity": 72
      },
      {
        "deltaTime": 25,
        "channel": 0,
        "type": "noteOff",
        "noteNumber": 84,
        "velocity": 0,
        "byte9": true
      },
      {
        "deltaTime": 10,
        "channel": 0,
        "type": "noteOff",
        "noteNumber": 64,
        "velocity": 0,
        "byte9": true
      },
      {
        "deltaTime": 15,
        "channel": 0,
        "type": "noteOff",
        "noteNumber": 54,
        "velocity": 0,
        "byte9": true
      },
      {
        "deltaTime": 0,
        "running": true,
        "channel": 0,
        "type": "noteOff",
        "noteNumber": 60,
        "velocity": 0,
        "byte9": true
      },
      {
        "deltaTime": 0,
        "running": true,
        "channel": 0,
        "type": "noteOff",
        "noteNumber": 96,
        "velocity": 0,
        "byte9": true
      },
      {
        "deltaTime": 80,
        "channel": 0,
        "type": "noteOn",
        "noteNumber": 60,
        "velocity": 71
      },
      {
        "deltaTime": 0,
        "running": true,
        "channel": 0,
        "type": "noteOn",
        "noteNumber": 96,
        "velocity": 85
      },
      {
        "deltaTime": 5,
        "channel": 0,
        "type": "noteOn",
        "noteNumber": 54,
        "velocity": 71
      },
      {
        "deltaTime": 0,
        "running": true,
        "channel": 0,
        "type": "noteOn",
        "noteNumber": 64,
        "velocity": 76
      },
      {
        "deltaTime": 0,
        "running": true,
        "channel": 0,
        "type": "noteOn",
        "noteNumber": 84,
        "velocity": 82
      },
      {
        "deltaTime": 40,
        "channel": 0,
        "type": "noteOff",
        "noteNumber": 64,
        "velocity": 0,
        "byte9": true
      },
      {
        "deltaTime": 5,
        "channel": 0,
        "type": "noteOff",
        "noteNumber": 84,
        "velocity": 0,
        "byte9": true
      },
      {
        "deltaTime": 10,
        "channel": 0,
        "type": "noteOff",
        "noteNumber": 54,
        "velocity": 0,
        "byte9": true
      },
      {
        "deltaTime": 0,
        "running": true,
        "channel": 0,
        "type": "noteOff",
        "noteNumber": 96,
        "velocity": 0,
        "byte9": true
      },
      {
        "deltaTime": 15,
        "channel": 0,
        "type": "noteOff",
        "noteNumber": 60,
        "velocity": 0,
        "byte9": true
      },
      {
        "deltaTime": 60,
        "channel": 0,
        "type": "controller",
        "controllerType": 64,
        "value": 0
      },
      {
        "deltaTime": 15,
        "channel": 0,
        "type": "noteOn",
        "noteNumber": 60,
        "velocity": 67
      },
      {
        "deltaTime": 0,
        "running": true,
        "channel": 0,
        "type": "noteOn",
        "noteNumber": 64,
        "velocity": 73
      },
      {
        "deltaTime": 5,
        "channel": 0,
        "type": "noteOn",
        "noteNumber": 54,
        "velocity": 67
      },
      {
        "deltaTime": 0,
        "running": true,
        "channel": 0,
        "type": "noteOn",
        "noteNumber": 93,
        "velocity": 83
      },
      {
        "deltaTime": 10,
        "channel": 0,
        "type": "noteOn",
        "noteNumber": 81,
        "velocity": 72
      },
      {
        "deltaTime": 20,
        "channel": 0,
        "type": "noteOff",
        "noteNumber": 64,
        "velocity": 0,
        "byte9": true
      },
      {
        "deltaTime": 20,
        "channel": 0,
        "type": "noteOff",
        "noteNumber": 81,
        "velocity": 0,
        "byte9": true
      },
      {
        "deltaTime": 5,
        "channel": 0,
        "type": "noteOff",
        "noteNumber": 54,
        "velocity": 0,
        "byte9": true
      },
      {
        "deltaTime": 0,
        "running": true,
        "channel": 0,
        "type": "noteOff",
        "noteNumber": 60,
        "velocity": 0,
        "byte9": true
      },
      {
        "deltaTime": 5,
        "channel": 0,
        "type": "noteOff",
        "noteNumber": 93,
        "velocity": 0,
        "byte9": true
      },
      {
        "deltaTime": 35,
        "channel": 0,
        "type": "controller",
        "controllerType": 64,
        "value": 127
      },
      {
        "deltaTime": 55,
        "channel": 0,
        "type": "noteOn",
        "noteNumber": 54,
        "velocity": 69
      },
      {
        "deltaTime": 5,
        "channel": 0,
        "type": "noteOn",
        "noteNumber": 60,
        "velocity": 63
      },
      {
        "deltaTime": 0,
        "running": true,
        "channel": 0,
        "type": "noteOn",
        "noteNumber": 64,
        "velocity": 66
      },
      {
        "deltaTime": 5,
        "channel": 0,
        "type": "noteOn",
        "noteNumber": 93,
        "velocity": 74
      },
      {
        "deltaTime": 10,
        "channel": 0,
        "type": "noteOn",
        "noteNumber": 81,
        "velocity": 61
      },
      {
        "deltaTime": 15,
        "channel": 0,
        "type": "noteOff",
        "noteNumber": 60,
        "velocity": 0,
        "byte9": true
      },
      {
        "deltaTime": 0,
        "running": true,
        "channel": 0,
        "type": "noteOff",
        "noteNumber": 64,
        "velocity": 0,
        "byte9": true
      },
      {
        "deltaTime": 0,
        "running": true,
        "channel": 0,
        "type": "noteOff",
        "noteNumber": 93,
        "velocity": 0,
        "byte9": true
      },
      {
        "deltaTime": 10,
        "channel": 0,
        "type": "noteOff",
        "noteNumber": 81,
        "velocity": 0,
        "byte9": true
      },
      {
        "deltaTime": 35,
        "channel": 0,
        "type": "noteOff",
        "noteNumber": 54,
        "velocity": 0,
        "byte9": true
      },
      {
        "deltaTime": 40,
        "channel": 0,
        "type": "controller",
        "controllerType": 64,
        "value": 0
      },
      {
        "deltaTime": 35,
        "channel": 0,
        "type": "noteOn",
        "noteNumber": 58,
        "velocity": 74
      },
      {
        "deltaTime": 5,
        "channel": 0,
        "type": "noteOn",
        "noteNumber": 57,
        "velocity": 77
      },
      {
        "deltaTime": 0,
        "running": true,
        "channel": 0,
        "type": "noteOn",
        "noteNumber": 62,
        "velocity": 90
      },
      {
        "deltaTime": 5,
        "channel": 0,
        "type": "noteOn",
        "noteNumber": 89,
        "velocity": 88
      },
      {
        "deltaTime": 5,
        "channel": 0,
        "type": "noteOn",
        "noteNumber": 53,
        "velocity": 76
      },
      {
        "deltaTime": 0,
        "running": true,
        "channel": 0,
        "type": "noteOn",
        "noteNumber": 77,
        "velocity": 92
      },
      {
        "deltaTime": 200,
        "channel": 0,
        "type": "noteOff",
        "noteNumber": 89,
        "velocity": 0,
        "byte9": true
      },
      {
        "deltaTime": 45,
        "channel": 0,
        "type": "noteOff",
        "noteNumber": 58,
        "velocity": 0,
        "byte9": true
      },
      {
        "deltaTime": 5,
        "channel": 0,
        "type": "noteOff",
        "noteNumber": 77,
        "velocity": 0,
        "byte9": true
      },
      {
        "deltaTime": 5,
        "channel": 0,
        "type": "noteOff",
        "noteNumber": 62,
        "velocity": 0,
        "byte9": true
      },
      {
        "deltaTime": 5,
        "channel": 0,
        "type": "noteOff",
        "noteNumber": 53,
        "velocity": 0,
        "byte9": true
      },
      {
        "deltaTime": 0,
        "running": true,
        "channel": 0,
        "type": "noteOff",
        "noteNumber": 57,
        "velocity": 0,
        "byte9": true
      },
      {
        "deltaTime": 875,
        "channel": 0,
        "type": "noteOn",
        "noteNumber": 65,
        "velocity": 44
      },
      {
        "deltaTime": 5,
        "channel": 0,
        "type": "noteOn",
        "noteNumber": 55,
        "velocity": 29
      },
      {
        "deltaTime": 0,
        "running": true,
        "channel": 0,
        "type": "noteOn",
        "noteNumber": 58,
        "velocity": 35
      },
      {
        "deltaTime": 5,
        "channel": 0,
        "type": "noteOn",
        "noteNumber": 52,
        "velocity": 35
      },
      {
        "deltaTime": 0,
        "running": true,
        "channel": 0,
        "type": "noteOn",
        "noteNumber": 62,
        "velocity": 38
      },
      {
        "deltaTime": 5,
        "channel": 0,
        "type": "noteOn",
        "noteNumber": 53,
        "velocity": 44
      },
      {
        "deltaTime": 35,
        "channel": 0,
        "type": "noteOff",
        "noteNumber": 52,
        "velocity": 0,
        "byte9": true
      },
      {
        "deltaTime": 145,
        "channel": 0,
        "type": "noteOff",
        "noteNumber": 65,
        "velocity": 0,
        "byte9": true
      },
      {
        "deltaTime": 10,
        "channel": 0,
        "type": "noteOff",
        "noteNumber": 55,
        "velocity": 0,
        "byte9": true
      },
      {
        "deltaTime": 5,
        "channel": 0,
        "type": "noteOff",
        "noteNumber": 58,
        "velocity": 0,
        "byte9": true
      },
      {
        "deltaTime": 0,
        "running": true,
        "channel": 0,
        "type": "noteOff",
        "noteNumber": 62,
        "velocity": 0,
        "byte9": true
      },
      {
        "deltaTime": 10,
        "channel": 0,
        "type": "noteOff",
        "noteNumber": 53,
        "velocity": 0,
        "byte9": true
      },
      {
        "deltaTime": 655,
        "channel": 0,
        "type": "noteOn",
        "noteNumber": 51,
        "velocity": 25
      },
      {
        "deltaTime": 65,
        "channel": 0,
        "type": "noteOff",
        "noteNumber": 51,
        "velocity": 0,
        "byte9": true
      },
      {
        "deltaTime": 5,
        "channel": 0,
        "type": "noteOn",
        "noteNumber": 52,
        "velocity": 39
      },
      {
        "deltaTime": 15,
        "channel": 0,
        "type": "noteOn",
        "noteNumber": 55,
        "velocity": 66
      },
      {
        "deltaTime": 5,
        "channel": 0,
        "type": "noteOn",
        "noteNumber": 65,
        "velocity": 51
      },
      {
        "deltaTime": 5,
        "channel": 0,
        "type": "noteOn",
        "noteNumber": 58,
        "velocity": 37
      },
      {
        "deltaTime": 5,
        "channel": 0,
        "type": "noteOn",
        "noteNumber": 53,
        "velocity": 48
      },
      {
        "deltaTime": 0,
        "running": true,
        "channel": 0,
        "type": "noteOn",
        "noteNumber": 61,
        "velocity": 35
      },
      {
        "deltaTime": 35,
        "channel": 0,
        "type": "noteOff",
        "noteNumber": 52,
        "velocity": 0,
        "byte9": true
      },
      {
        "deltaTime": 460,
        "channel": 0,
        "type": "controller",
        "controllerType": 64,
        "value": 127
      },
      {
        "deltaTime": 25,
        "channel": 0,
        "type": "noteOff",
        "noteNumber": 55,
        "velocity": 0,
        "byte9": true
      },
      {
        "deltaTime": 10,
        "channel": 0,
        "type": "noteOff",
        "noteNumber": 65,
        "velocity": 0,
        "byte9": true
      },
      {
        "deltaTime": 5,
        "channel": 0,
        "type": "noteOff",
        "noteNumber": 53,
        "velocity": 0,
        "byte9": true
      },
      {
        "deltaTime": 0,
        "running": true,
        "channel": 0,
        "type": "noteOff",
        "noteNumber": 58,
        "velocity": 0,
        "byte9": true
      },
      {
        "deltaTime": 10,
        "channel": 0,
        "type": "noteOff",
        "noteNumber": 61,
        "velocity": 0,
        "byte9": true
      },
      {
        "deltaTime": 210,
        "channel": 0,
        "type": "noteOn",
        "noteNumber": 55,
        "velocity": 62
      },
      {
        "deltaTime": 0,
        "running": true,
        "channel": 0,
        "type": "noteOn",
        "noteNumber": 58,
        "velocity": 52
      },
      {
        "deltaTime": 0,
        "running": true,
        "channel": 0,
        "type": "noteOn",
        "noteNumber": 65,
        "velocity": 66
      },
      {
        "deltaTime": 5,
        "channel": 0,
        "type": "noteOn",
        "noteNumber": 53,
        "velocity": 65
      },
      {
        "deltaTime": 0,
        "running": true,
        "channel": 0,
        "type": "noteOn",
        "noteNumber": 61,
        "velocity": 50
      },
      {
        "deltaTime": 20,
        "channel": 0,
        "type": "noteOff",
        "noteNumber": 55,
        "velocity": 0,
        "byte9": true
      },
      {
        "deltaTime": 20,
        "channel": 0,
        "type": "noteOff",
        "noteNumber": 58,
        "velocity": 0,
        "byte9": true
      },
      {
        "deltaTime": 15,
        "channel": 0,
        "type": "noteOff",
        "noteNumber": 61,
        "velocity": 0,
        "byte9": true
      },
      {
        "deltaTime": 10,
        "channel": 0,
        "type": "noteOff",
        "noteNumber": 53,
        "velocity": 0,
        "byte9": true
      },
      {
        "deltaTime": 5,
        "channel": 0,
        "type": "noteOff",
        "noteNumber": 65,
        "velocity": 0,
        "byte9": true
      },
      {
        "deltaTime": 155,
        "channel": 0,
        "type": "noteOn",
        "noteNumber": 80,
        "velocity": 28
      },
      {
        "deltaTime": 30,
        "channel": 0,
        "type": "noteOff",
        "noteNumber": 80,
        "velocity": 0,
        "byte9": true
      },
      {
        "deltaTime": 5,
        "channel": 0,
        "type": "controller",
        "controllerType": 64,
        "value": 0
      },
      {
        "deltaTime": 85,
        "channel": 0,
        "type": "noteOn",
        "noteNumber": 62,
        "velocity": 67
      },
      {
        "deltaTime": 5,
        "channel": 0,
        "type": "noteOn",
        "noteNumber": 57,
        "velocity": 54
      },
      {
        "deltaTime": 0,
        "running": true,
        "channel": 0,
        "type": "noteOn",
        "noteNumber": 72,
        "velocity": 79
      },
      {
        "deltaTime": 0,
        "running": true,
        "channel": 0,
        "type": "noteOn",
        "noteNumber": 84,
        "velocity": 82
      },
      {
        "deltaTime": 5,
        "channel": 0,
        "type": "noteOn",
        "noteNumber": 58,
        "velocity": 46
      },
      {
        "deltaTime": 25,
        "channel": 0,
        "type": "noteOff",
        "noteNumber": 57,
        "velocity": 0,
        "byte9": true
      },
      {
        "deltaTime": 0,
        "running": true,
        "channel": 0,
        "type": "noteOff",
        "noteNumber": 62,
        "velocity": 0,
        "byte9": true
      },
      {
        "deltaTime": 10,
        "channel": 0,
        "type": "noteOff",
        "noteNumber": 72,
        "velocity": 0,
        "byte9": true
      },
      {
        "deltaTime": 5,
        "channel": 0,
        "type": "noteOff",
        "noteNumber": 84,
        "velocity": 0,
        "byte9": true
      },
      {
        "deltaTime": 5,
        "channel": 0,
        "type": "noteOff",
        "noteNumber": 58,
        "velocity": 0,
        "byte9": true
      },
      {
        "deltaTime": 80,
        "channel": 0,
        "type": "noteOn",
        "noteNumber": 84,
        "velocity": 78
      },
      {
        "deltaTime": 5,
        "channel": 0,
        "type": "noteOn",
        "noteNumber": 58,
        "velocity": 45
      },
      {
        "deltaTime": 0,
        "running": true,
        "channel": 0,
        "type": "noteOn",
        "noteNumber": 62,
        "velocity": 64
      },
      {
        "deltaTime": 0,
        "running": true,
        "channel": 0,
        "type": "noteOn",
        "noteNumber": 72,
        "velocity": 74
      },
      {
        "deltaTime": 5,
        "channel": 0,
        "type": "noteOn",
        "noteNumber": 57,
        "velocity": 37
      },
      {
        "deltaTime": 25,
        "channel": 0,
        "type": "noteOff",
        "noteNumber": 62,
        "velocity": 0,
        "byte9": true
      },
      {
        "deltaTime": 5,
        "channel": 0,
        "type": "noteOff",
        "noteNumber": 57,
        "velocity": 0,
        "byte9": true
      },
      {
        "deltaTime": 10,
        "channel": 0,
        "type": "noteOff",
        "noteNumber": 72,
        "velocity": 0,
        "byte9": true
      },
      {
        "deltaTime": 0,
        "running": true,
        "channel": 0,
        "type": "noteOff",
        "noteNumber": 84,
        "velocity": 0,
        "byte9": true
      },
      {
        "deltaTime": 10,
        "channel": 0,
        "type": "noteOff",
        "noteNumber": 58,
        "velocity": 0,
        "byte9": true
      },
      {
        "deltaTime": 90,
        "channel": 0,
        "type": "noteOn",
        "noteNumber": 62,
        "velocity": 64
      },
      {
        "deltaTime": 10,
        "channel": 0,
        "type": "noteOn",
        "noteNumber": 57,
        "velocity": 41
      },
      {
        "deltaTime": 0,
        "running": true,
        "channel": 0,
        "type": "noteOn",
        "noteNumber": 58,
        "velocity": 51
      },
      {
        "deltaTime": 5,
        "channel": 0,
        "type": "noteOn",
        "noteNumber": 81,
        "velocity": 74
      },
      {
        "deltaTime": 5,
        "channel": 0,
        "type": "noteOn",
        "noteNumber": 69,
        "velocity": 65
      },
      {
        "deltaTime": 15,
        "channel": 0,
        "type": "noteOff",
        "noteNumber": 62,
        "velocity": 0,
        "byte9": true
      },
      {
        "deltaTime": 5,
        "channel": 0,
        "type": "noteOff",
        "noteNumber": 57,
        "velocity": 0,
        "byte9": true
      },
      {
        "deltaTime": 0,
        "running": true,
        "channel": 0,
        "type": "noteOff",
        "noteNumber": 81,
        "velocity": 0,
        "byte9": true
      },
      {
        "deltaTime": 20,
        "channel": 0,
        "type": "noteOff",
        "noteNumber": 58,
        "velocity": 0,
        "byte9": true
      },
      {
        "deltaTime": 0,
        "running": true,
        "channel": 0,
        "type": "noteOff",
        "noteNumber": 69,
        "velocity": 0,
        "byte9": true
      },
      {
        "deltaTime": 120,
        "channel": 0,
        "type": "noteOn",
        "noteNumber": 62,
        "velocity": 48
      },
      {
        "deltaTime": 0,
        "running": true,
        "channel": 0,
        "type": "noteOn",
        "noteNumber": 81,
        "velocity": 66
      },
      {
        "deltaTime": 5,
        "channel": 0,
        "type": "noteOn",
        "noteNumber": 69,
        "velocity": 71
      },
      {
        "deltaTime": 5,
        "channel": 0,
        "type": "noteOn",
        "noteNumber": 58,
        "velocity": 35
      },
      {
        "deltaTime": 5,
        "channel": 0,
        "type": "noteOn",
        "noteNumber": 57,
        "velocity": 35
      },
      {
        "deltaTime": 10,
        "channel": 0,
        "type": "noteOff",
        "noteNumber": 81,
        "velocity": 0,
        "byte9": true
      },
      {
        "deltaTime": 5,
        "channel": 0,
        "type": "noteOff",
        "noteNumber": 62,
        "velocity": 0,
        "byte9": true
      },
      {
        "deltaTime": 0,
        "running": true,
        "channel": 0,
        "type": "noteOff",
        "noteNumber": 69,
        "velocity": 0,
        "byte9": true
      },
      {
        "deltaTime": 10,
        "channel": 0,
        "type": "noteOff",
        "noteNumber": 58,
        "velocity": 0,
        "byte9": true
      },
      {
        "deltaTime": 5,
        "channel": 0,
        "type": "noteOff",
        "noteNumber": 57,
        "velocity": 0,
        "byte9": true
      },
      {
        "deltaTime": 145,
        "channel": 0,
        "type": "noteOn",
        "noteNumber": 58,
        "velocity": 65
      },
      {
        "deltaTime": 0,
        "running": true,
        "channel": 0,
        "type": "noteOn",
        "noteNumber": 77,
        "velocity": 78
      },
      {
        "deltaTime": 5,
        "channel": 0,
        "type": "noteOn",
        "noteNumber": 57,
        "velocity": 55
      },
      {
        "deltaTime": 5,
        "channel": 0,
        "type": "noteOn",
        "noteNumber": 62,
        "velocity": 54
      },
      {
        "deltaTime": 0,
        "running": true,
        "channel": 0,
        "type": "noteOn",
        "noteNumber": 65,
        "velocity": 71
      },
      {
        "deltaTime": 15,
        "channel": 0,
        "type": "noteOff",
        "noteNumber": 77,
        "velocity": 0,
        "byte9": true
      },
      {
        "deltaTime": 5,
        "channel": 0,
        "type": "noteOff",
        "noteNumber": 57,
        "velocity": 0,
        "byte9": true
      },
      {
        "deltaTime": 0,
        "running": true,
        "channel": 0,
        "type": "noteOff",
        "noteNumber": 65,
        "velocity": 0,
        "byte9": true
      },
      {
        "deltaTime": 5,
        "channel": 0,
        "type": "noteOff",
        "noteNumber": 62,
        "velocity": 0,
        "byte9": true
      },
      {
        "deltaTime": 10,
        "channel": 0,
        "type": "noteOff",
        "noteNumber": 58,
        "velocity": 0,
        "byte9": true
      },
      {
        "deltaTime": 355,
        "channel": 0,
        "type": "noteOn",
        "noteNumber": 51,
        "velocity": 29
      },
      {
        "deltaTime": 35,
        "channel": 0,
        "type": "noteOn",
        "noteNumber": 52,
        "velocity": 70
      },
      {
        "deltaTime": 5,
        "channel": 0,
        "type": "noteOn",
        "noteNumber": 58,
        "velocity": 57
      },
      {
        "deltaTime": 0,
        "running": true,
        "channel": 0,
        "type": "noteOn",
        "noteNumber": 65,
        "velocity": 65
      },
      {
        "deltaTime": 5,
        "channel": 0,
        "type": "noteOff",
        "noteNumber": 51,
        "velocity": 0,
        "byte9": true
      },
      {
        "deltaTime": 0,
        "running": true,
        "channel": 0,
        "type": "noteOn",
        "noteNumber": 55,
        "velocity": 71
      },
      {
        "deltaTime": 0,
        "running": true,
        "channel": 0,
        "type": "noteOn",
        "noteNumber": 62,
        "velocity": 64
      },
      {
        "deltaTime": 10,
        "channel": 0,
        "type": "noteOn",
        "noteNumber": 53,
        "velocity": 62
      },
      {
        "deltaTime": 25,
        "channel": 0,
        "type": "noteOff",
        "noteNumber": 52,
        "velocity": 0,
        "byte9": true
      },
      {
        "deltaTime": 920,
        "channel": 0,
        "type": "noteOff",
        "noteNumber": 62,
        "velocity": 0,
        "byte9": true
      },
      {
        "deltaTime": 5,
        "channel": 0,
        "type": "noteOff",
        "noteNumber": 55,
        "velocity": 0,
        "byte9": true
      },
      {
        "deltaTime": 60,
        "channel": 0,
        "type": "noteOff",
        "noteNumber": 58,
        "velocity": 0,
        "byte9": true
      },
      {
        "deltaTime": 60,
        "channel": 0,
        "type": "noteOff",
        "noteNumber": 65,
        "velocity": 0,
        "byte9": true
      },
      {
        "deltaTime": 60,
        "channel": 0,
        "type": "noteOn",
        "noteNumber": 55,
        "velocity": 53
      },
      {
        "deltaTime": 0,
        "running": true,
        "channel": 0,
        "type": "noteOn",
        "noteNumber": 62,
        "velocity": 45
      },
      {
        "deltaTime": 5,
        "channel": 0,
        "type": "noteOn",
        "noteNumber": 50,
        "velocity": 47
      },
      {
        "deltaTime": 5,
        "channel": 0,
        "type": "noteOn",
        "noteNumber": 58,
        "velocity": 33
      },
      {
        "deltaTime": 40,
        "channel": 0,
        "type": "noteOff",
        "noteNumber": 53,
        "velocity": 0,
        "byte9": true
      },
      {
        "deltaTime": 95,
        "channel": 0,
        "type": "noteOff",
        "noteNumber": 50,
        "velocity": 0,
        "byte9": true
      },
      {
        "deltaTime": 5,
        "channel": 0,
        "type": "noteOff",
        "noteNumber": 55,
        "velocity": 0,
        "byte9": true
      },
      {
        "deltaTime": 5,
        "channel": 0,
        "type": "noteOff",
        "noteNumber": 62,
        "velocity": 0,
        "byte9": true
      },
      {
        "deltaTime": 40,
        "channel": 0,
        "type": "noteOff",
        "noteNumber": 58,
        "velocity": 0,
        "byte9": true
      },
      {
        "deltaTime": 190,
        "channel": 0,
        "type": "noteOn",
        "noteNumber": 50,
        "velocity": 24
      },
      {
        "deltaTime": 45,
        "channel": 0,
        "type": "noteOff",
        "noteNumber": 50,
        "velocity": 0,
        "byte9": true
      },
      {
        "deltaTime": 15,
        "channel": 0,
        "type": "noteOn",
        "noteNumber": 51,
        "velocity": 23
      },
      {
        "deltaTime": 40,
        "channel": 0,
        "type": "noteOn",
        "noteNumber": 55,
        "velocity": 47
      },
      {
        "deltaTime": 10,
        "channel": 0,
        "type": "noteOn",
        "noteNumber": 52,
        "velocity": 44
      },
      {
        "deltaTime": 0,
        "running": true,
        "channel": 0,
        "type": "noteOn",
        "noteNumber": 58,
        "velocity": 34
      },
      {
        "deltaTime": 5,
        "channel": 0,
        "type": "noteOn",
        "noteNumber": 61,
        "velocity": 35
      },
      {
        "deltaTime": 5,
        "channel": 0,
        "type": "noteOn",
        "noteNumber": 64,
        "velocity": 53
      },
      {
        "deltaTime": 35,
        "channel": 0,
        "type": "noteOff",
        "noteNumber": 51,
        "velocity": 0,
        "byte9": true
      },
      {
        "deltaTime": 175,
        "channel": 0,
        "type": "noteOff",
        "noteNumber": 55,
        "velocity": 0,
        "byte9": true
      },
      {
        "deltaTime": 0,
        "running": true,
        "channel": 0,
        "type": "noteOff",
        "noteNumber": 58,
        "velocity": 0,
        "byte9": true
      },
      {
        "deltaTime": 0,
        "running": true,
        "channel": 0,
        "type": "noteOff",
        "noteNumber": 61,
        "velocity": 0,
        "byte9": true
      },
      {
        "deltaTime": 0,
        "running": true,
        "channel": 0,
        "type": "noteOff",
        "noteNumber": 64,
        "velocity": 0,
        "byte9": true
      },
      {
        "deltaTime": 10,
        "channel": 0,
        "type": "noteOff",
        "noteNumber": 52,
        "velocity": 0,
        "byte9": true
      },
      {
        "deltaTime": 245,
        "channel": 0,
        "type": "noteOn",
        "noteNumber": 55,
        "velocity": 54
      },
      {
        "deltaTime": 5,
        "channel": 0,
        "type": "noteOn",
        "noteNumber": 58,
        "velocity": 39
      },
      {
        "deltaTime": 0,
        "running": true,
        "channel": 0,
        "type": "noteOn",
        "noteNumber": 61,
        "velocity": 36
      },
      {
        "deltaTime": 5,
        "channel": 0,
        "type": "noteOn",
        "noteNumber": 53,
        "velocity": 55
      },
      {
        "deltaTime": 0,
        "running": true,
        "channel": 0,
        "type": "noteOn",
        "noteNumber": 65,
        "velocity": 50
      },
      {
        "deltaTime": 160,
        "channel": 0,
        "type": "noteOff",
        "noteNumber": 55,
        "velocity": 0,
        "byte9": true
      },
      {
        "deltaTime": 0,
        "running": true,
        "channel": 0,
        "type": "noteOff",
        "noteNumber": 65,
        "velocity": 0,
        "byte9": true
      },
      {
        "deltaTime": 15,
        "channel": 0,
        "type": "noteOff",
        "noteNumber": 61,
        "velocity": 0,
        "byte9": true
      },
      {
        "deltaTime": 10,
        "channel": 0,
        "type": "noteOff",
        "noteNumber": 58,
        "velocity": 0,
        "byte9": true
      },
      {
        "deltaTime": 75,
        "channel": 0,
        "type": "noteOff",
        "noteNumber": 53,
        "velocity": 0,
        "byte9": true
      },
      {
        "deltaTime": 200,
        "channel": 0,
        "type": "noteOn",
        "noteNumber": 55,
        "velocity": 56
      },
      {
        "deltaTime": 10,
        "channel": 0,
        "type": "noteOn",
        "noteNumber": 58,
        "velocity": 50
      },
      {
        "deltaTime": 10,
        "channel": 0,
        "type": "noteOn",
        "noteNumber": 61,
        "velocity": 45
      },
      {
        "deltaTime": 0,
        "running": true,
        "channel": 0,
        "type": "noteOn",
        "noteNumber": 67,
        "velocity": 54
      },
      {
        "deltaTime": 5,
        "channel": 0,
        "type": "noteOn",
        "noteNumber": 64,
        "velocity": 47
      },
      {
        "deltaTime": 65,
        "channel": 0,
        "type": "controller",
        "controllerType": 64,
        "value": 127
      },
      {
        "deltaTime": 100,
        "channel": 0,
        "type": "noteOff",
        "noteNumber": 64,
        "velocity": 0,
        "byte9": true
      },
      {
        "deltaTime": 35,
        "channel": 0,
        "type": "noteOff",
        "noteNumber": 58,
        "velocity": 0,
        "byte9": true
      },
      {
        "deltaTime": 5,
        "channel": 0,
        "type": "noteOff",
        "noteNumber": 61,
        "velocity": 0,
        "byte9": true
      },
      {
        "deltaTime": 20,
        "channel": 0,
        "type": "noteOff",
        "noteNumber": 67,
        "velocity": 0,
        "byte9": true
      },
      {
        "deltaTime": 75,
        "channel": 0,
        "type": "noteOff",
        "noteNumber": 55,
        "velocity": 0,
        "byte9": true
      },
      {
        "deltaTime": 10,
        "channel": 0,
        "type": "noteOn",
        "noteNumber": 58,
        "velocity": 44
      },
      {
        "deltaTime": 10,
        "channel": 0,
        "type": "noteOn",
        "noteNumber": 61,
        "velocity": 55
      },
      {
        "deltaTime": 10,
        "channel": 0,
        "type": "noteOn",
        "noteNumber": 64,
        "velocity": 51
      },
      {
        "deltaTime": 5,
        "channel": 0,
        "type": "noteOn",
        "noteNumber": 52,
        "velocity": 44
      },
      {
        "deltaTime": 145,
        "channel": 0,
        "type": "noteOff",
        "noteNumber": 64,
        "velocity": 0,
        "byte9": true
      },
      {
        "deltaTime": 30,
        "channel": 0,
        "type": "noteOff",
        "noteNumber": 52,
        "velocity": 0,
        "byte9": true
      },
      {
        "deltaTime": 5,
        "channel": 0,
        "type": "noteOff",
        "noteNumber": 58,
        "velocity": 0,
        "byte9": true
      },
      {
        "deltaTime": 10,
        "channel": 0,
        "type": "noteOff",
        "noteNumber": 61,
        "velocity": 0,
        "byte9": true
      },
      {
        "deltaTime": 250,
        "channel": 0,
        "type": "controller",
        "controllerType": 64,
        "value": 0
      },
      {
        "deltaTime": 10,
        "channel": 0,
        "type": "noteOn",
        "noteNumber": 55,
        "velocity": 58
      },
      {
        "deltaTime": 0,
        "running": true,
        "channel": 0,
        "type": "noteOn",
        "noteNumber": 60,
        "velocity": 60
      },
      {
        "deltaTime": 5,
        "channel": 0,
        "type": "noteOn",
        "noteNumber": 48,
        "velocity": 50
      },
      {
        "deltaTime": 5,
        "channel": 0,
        "type": "noteOn",
        "noteNumber": 57,
        "velocity": 53
      },
      {
        "deltaTime": 325,
        "channel": 0,
        "type": "controller",
        "controllerType": 64,
        "value": 127
      },
      {
        "deltaTime": 105,
        "channel": 0,
        "type": "noteOff",
        "noteNumber": 55,
        "velocity": 0,
        "byte9": true
      },
      {
        "deltaTime": 50,
        "channel": 0,
        "type": "noteOff",
        "noteNumber": 57,
        "velocity": 0,
        "byte9": true
      },
      {
        "deltaTime": 5,
        "channel": 0,
        "type": "noteOff",
        "noteNumber": 60,
        "velocity": 0,
        "byte9": true
      },
      {
        "deltaTime": 15,
        "channel": 0,
        "type": "noteOff",
        "noteNumber": 48,
        "velocity": 0,
        "byte9": true
      },
      {
        "deltaTime": 525,
        "channel": 0,
        "type": "controller",
        "controllerType": 64,
        "value": 0
      },
      {
        "deltaTime": 55,
        "channel": 0,
        "type": "noteOn",
        "noteNumber": 72,
        "velocity": 81
      },
      {
        "deltaTime": 5,
        "channel": 0,
        "type": "noteOn",
        "noteNumber": 57,
        "velocity": 68
      },
      {
        "deltaTime": 0,
        "running": true,
        "channel": 0,
        "type": "noteOn",
        "noteNumber": 60,
        "velocity": 73
      },
      {
        "deltaTime": 0,
        "running": true,
        "channel": 0,
        "type": "noteOn",
        "noteNumber": 62,
        "velocity": 80
      },
      {
        "deltaTime": 5,
        "channel": 0,
        "type": "noteOn",
        "noteNumber": 67,
        "velocity": 68
      },
      {
        "deltaTime": 20,
        "channel": 0,
        "type": "noteOff",
        "noteNumber": 62,
        "velocity": 0,
        "byte9": true
      },
      {
        "deltaTime": 5,
        "channel": 0,
        "type": "noteOff",
        "noteNumber": 67,
        "velocity": 0,
        "byte9": true
      },
      {
        "deltaTime": 5,
        "channel": 0,
        "type": "noteOff",
        "noteNumber": 57,
        "velocity": 0,
        "byte9": true
      },
      {
        "deltaTime": 5,
        "channel": 0,
        "type": "noteOff",
        "noteNumber": 60,
        "velocity": 0,
        "byte9": true
      },
      {
        "deltaTime": 15,
        "channel": 0,
        "type": "noteOff",
        "noteNumber": 72,
        "velocity": 0,
        "byte9": true
      },
      {
        "deltaTime": 910,
        "channel": 0,
        "type": "noteOn",
        "noteNumber": 79,
        "velocity": 87
      },
      {
        "deltaTime": 5,
        "channel": 0,
        "type": "noteOn",
        "noteNumber": 62,
        "velocity": 83
      },
      {
        "deltaTime": 0,
        "running": true,
        "channel": 0,
        "type": "noteOn",
        "noteNumber": 67,
        "velocity": 89
      },
      {
        "deltaTime": 0,
        "running": true,
        "channel": 0,
        "type": "noteOn",
        "noteNumber": 72,
        "velocity": 84
      },
      {
        "deltaTime": 0,
        "running": true,
        "channel": 0,
        "type": "noteOn",
        "noteNumber": 76,
        "velocity": 84
      },
      {
        "deltaTime": 5,
        "channel": 0,
        "type": "noteOn",
        "noteNumber": 56,
        "velocity": 77
      },
      {
        "deltaTime": 180,
        "channel": 0,
        "type": "controller",
        "controllerType": 64,
        "value": 127
      },
      {
        "deltaTime": 285,
        "channel": 0,
        "type": "noteOff",
        "noteNumber": 79,
        "velocity": 0,
        "byte9": true
      },
      {
        "deltaTime": 20,
        "channel": 0,
        "type": "noteOff",
        "noteNumber": 67,
        "velocity": 0,
        "byte9": true
      },
      {
        "deltaTime": 5,
        "channel": 0,
        "type": "noteOff",
        "noteNumber": 72,
        "velocity": 0,
        "byte9": true
      },
      {
        "deltaTime": 0,
        "running": true,
        "channel": 0,
        "type": "noteOff",
        "noteNumber": 76,
        "velocity": 0,
        "byte9": true
      },
      {
        "deltaTime": 20,
        "channel": 0,
        "type": "noteOff",
        "noteNumber": 62,
        "velocity": 0,
        "byte9": true
      },
      {
        "deltaTime": 5,
        "channel": 0,
        "type": "noteOff",
        "noteNumber": 56,
        "velocity": 0,
        "byte9": true
      },
      {
        "deltaTime": 285,
        "channel": 0,
        "type": "noteOn",
        "noteNumber": 72,
        "velocity": 60
      },
      {
        "deltaTime": 10,
        "channel": 0,
        "type": "noteOn",
        "noteNumber": 64,
        "velocity": 53
      },
      {
        "deltaTime": 5,
        "channel": 0,
        "type": "noteOn",
        "noteNumber": 67,
        "velocity": 60
      },
      {
        "deltaTime": 5,
        "channel": 0,
        "type": "noteOn",
        "noteNumber": 62,
        "velocity": 58
      },
      {
        "deltaTime": 5,
        "channel": 0,
        "type": "noteOn",
        "noteNumber": 56,
        "velocity": 46
      },
      {
        "deltaTime": 10,
        "channel": 0,
        "type": "controller",
        "controllerType": 64,
        "value": 0
      },
      {
        "deltaTime": 130,
        "channel": 0,
        "type": "controller",
        "controllerType": 64,
        "value": 127
      },
      {
        "deltaTime": 290,
        "channel": 0,
        "type": "noteOff",
        "noteNumber": 64,
        "velocity": 0,
        "byte9": true
      },
      {
        "deltaTime": 120,
        "channel": 0,
        "type": "noteOff",
        "noteNumber": 62,
        "velocity": 0,
        "byte9": true
      },
      {
        "deltaTime": 15,
        "channel": 0,
        "type": "noteOff",
        "noteNumber": 67,
        "velocity": 0,
        "byte9": true
      },
      {
        "deltaTime": 20,
        "channel": 0,
        "type": "noteOff",
        "noteNumber": 72,
        "velocity": 0,
        "byte9": true
      },
      {
        "deltaTime": 50,
        "channel": 0,
        "type": "noteOff",
        "noteNumber": 56,
        "velocity": 0,
        "byte9": true
      },
      {
        "deltaTime": 420,
        "channel": 0,
        "type": "controller",
        "controllerType": 64,
        "value": 0
      },
      {
        "deltaTime": 30,
        "channel": 0,
        "type": "noteOn",
        "noteNumber": 79,
        "velocity": 73
      },
      {
        "deltaTime": 5,
        "channel": 0,
        "type": "noteOn",
        "noteNumber": 67,
        "velocity": 68
      },
      {
        "deltaTime": 5,
        "channel": 0,
        "type": "noteOn",
        "noteNumber": 64,
        "velocity": 65
      },
      {
        "deltaTime": 0,
        "running": true,
        "channel": 0,
        "type": "noteOn",
        "noteNumber": 76,
        "velocity": 61
      },
      {
        "deltaTime": 5,
        "channel": 0,
        "type": "noteOn",
        "noteNumber": 55,
        "velocity": 55
      },
      {
        "deltaTime": 0,
        "running": true,
        "channel": 0,
        "type": "noteOn",
        "noteNumber": 60,
        "velocity": 50
      },
      {
        "deltaTime": 0,
        "running": true,
        "channel": 0,
        "type": "noteOn",
        "noteNumber": 72,
        "velocity": 59
      },
      {
        "deltaTime": 5,
        "channel": 0,
        "type": "noteOn",
        "noteNumber": 57,
        "velocity": 50
      },
      {
        "deltaTime": 405,
        "channel": 0,
        "type": "controller",
        "controllerType": 64,
        "value": 127
      },
      {
        "deltaTime": 75,
        "channel": 0,
        "type": "noteOff",
        "noteNumber": 79,
        "velocity": 0,
        "byte9": true
      },
      {
        "deltaTime": 20,
        "channel": 0,
        "type": "noteOff",
        "noteNumber": 76,
        "velocity": 0,
        "byte9": true
      },
      {
        "deltaTime": 20,
        "channel": 0,
        "type": "noteOff",
        "noteNumber": 64,
        "velocity": 0,
        "byte9": true
      },
      {
        "deltaTime": 0,
        "running": true,
        "channel": 0,
        "type": "noteOff",
        "noteNumber": 72,
        "velocity": 0,
        "byte9": true
      },
      {
        "deltaTime": 10,
        "channel": 0,
        "type": "noteOff",
        "noteNumber": 67,
        "velocity": 0,
        "byte9": true
      },
      {
        "deltaTime": 10,
        "channel": 0,
        "type": "noteOff",
        "noteNumber": 55,
        "velocity": 0,
        "byte9": true
      },
      {
        "deltaTime": 15,
        "channel": 0,
        "type": "noteOff",
        "noteNumber": 60,
        "velocity": 0,
        "byte9": true
      },
      {
        "deltaTime": 20,
        "channel": 0,
        "type": "noteOff",
        "noteNumber": 57,
        "velocity": 0,
        "byte9": true
      },
      {
        "deltaTime": 225,
        "channel": 0,
        "type": "noteOn",
        "noteNumber": 72,
        "velocity": 62
      },
      {
        "deltaTime": 5,
        "channel": 0,
        "type": "noteOn",
        "noteNumber": 64,
        "velocity": 60
      },
      {
        "deltaTime": 5,
        "channel": 0,
        "type": "controller",
        "controllerType": 64,
        "value": 0
      },
      {
        "deltaTime": 0,
        "channel": 0,
        "type": "noteOn",
        "noteNumber": 55,
        "velocity": 53
      },
      {
        "deltaTime": 0,
        "running": true,
        "channel": 0,
        "type": "noteOn",
        "noteNumber": 67,
        "velocity": 62
      },
      {
        "deltaTime": 10,
        "channel": 0,
        "type": "noteOn",
        "noteNumber": 57,
        "velocity": 49
      },
      {
        "deltaTime": 0,
        "running": true,
        "channel": 0,
        "type": "noteOn",
        "noteNumber": 60,
        "velocity": 44
      },
      {
        "deltaTime": 205,
        "channel": 0,
        "type": "controller",
        "controllerType": 64,
        "value": 127
      },
      {
        "deltaTime": 335,
        "channel": 0,
        "type": "noteOff",
        "noteNumber": 64,
        "velocity": 0,
        "byte9": true
      },
      {
        "deltaTime": 5,
        "channel": 0,
        "type": "noteOff",
        "noteNumber": 55,
        "velocity": 0,
        "byte9": true
      },
      {
        "deltaTime": 15,
        "channel": 0,
        "type": "noteOff",
        "noteNumber": 60,
        "velocity": 0,
        "byte9": true
      },
      {
        "deltaTime": 20,
        "channel": 0,
        "type": "noteOff",
        "noteNumber": 57,
        "velocity": 0,
        "byte9": true
      },
      {
        "deltaTime": 0,
        "running": true,
        "channel": 0,
        "type": "noteOff",
        "noteNumber": 67,
        "velocity": 0,
        "byte9": true
      },
      {
        "deltaTime": 30,
        "channel": 0,
        "type": "noteOff",
        "noteNumber": 72,
        "velocity": 0,
        "byte9": true
      },
      {
        "deltaTime": 450,
        "channel": 0,
        "type": "controller",
        "controllerType": 64,
        "value": 0
      },
      {
        "deltaTime": 35,
        "channel": 0,
        "type": "noteOn",
        "noteNumber": 68,
        "velocity": 87
      },
      {
        "deltaTime": 0,
        "running": true,
        "channel": 0,
        "type": "noteOn",
        "noteNumber": 71,
        "velocity": 87
      },
      {
        "deltaTime": 0,
        "running": true,
        "channel": 0,
        "type": "noteOn",
        "noteNumber": 79,
        "velocity": 87
      },
      {
        "deltaTime": 10,
        "channel": 0,
        "type": "noteOn",
        "noteNumber": 67,
        "velocity": 83
      },
      {
        "deltaTime": 5,
        "channel": 0,
        "type": "noteOn",
        "noteNumber": 74,
        "velocity": 73
      },
      {
        "deltaTime": 215,
        "channel": 0,
        "type": "controller",
        "controllerType": 64,
        "value": 127
      },
      {
        "deltaTime": 180,
        "channel": 0,
        "type": "noteOff",
        "noteNumber": 67,
        "velocity": 0,
        "byte9": true
      },
      {
        "deltaTime": 10,
        "channel": 0,
        "type": "noteOff",
        "noteNumber": 79,
        "velocity": 0,
        "byte9": true
      },
      {
        "deltaTime": 75,
        "channel": 0,
        "type": "noteOff",
        "noteNumber": 74,
        "velocity": 0,
        "byte9": true
      },
      {
        "deltaTime": 15,
        "channel": 0,
        "type": "noteOff",
        "noteNumber": 71,
        "velocity": 0,
        "byte9": true
      },
      {
        "deltaTime": 10,
        "channel": 0,
        "type": "noteOff",
        "noteNumber": 68,
        "velocity": 0,
        "byte9": true
      },
      {
        "deltaTime": 295,
        "channel": 0,
        "type": "noteOn",
        "noteNumber": 74,
        "velocity": 82
      },
      {
        "deltaTime": 10,
        "channel": 0,
        "type": "noteOn",
        "noteNumber": 64,
        "velocity": 71
      },
      {
        "deltaTime": 0,
        "running": true,
        "channel": 0,
        "type": "noteOn",
        "noteNumber": 67,
        "velocity": 66
      },
      {
        "deltaTime": 0,
        "running": true,
        "channel": 0,
        "type": "noteOn",
        "noteNumber": 70,
        "velocity": 55
      },
      {
        "deltaTime": 5,
        "channel": 0,
        "type": "controller",
        "controllerType": 64,
        "value": 0
      },
      {
        "deltaTime": 5,
        "channel": 0,
        "type": "noteOn",
        "noteNumber": 62,
        "velocity": 64
      },
      {
        "deltaTime": 5,
        "channel": 0,
        "type": "noteOn",
        "noteNumber": 56,
        "velocity": 52
      },
      {
        "deltaTime": 190,
        "channel": 0,
        "type": "controller",
        "controllerType": 64,
        "value": 127
      },
      {
        "deltaTime": 110,
        "channel": 0,
        "type": "noteOff",
        "noteNumber": 74,
        "velocity": 0,
        "byte9": true
      },
      {
        "deltaTime": 5,
        "channel": 0,
        "type": "noteOff",
        "noteNumber": 67,
        "velocity": 0,
        "byte9": true
      },
      {
        "deltaTime": 10,
        "channel": 0,
        "type": "noteOff",
        "noteNumber": 70,
        "velocity": 0,
        "byte9": true
      },
      {
        "deltaTime": 15,
        "channel": 0,
        "type": "noteOff",
        "noteNumber": 62,
        "velocity": 0,
        "byte9": true
      },
      {
        "deltaTime": 15,
        "channel": 0,
        "type": "noteOff",
        "noteNumber": 64,
        "velocity": 0,
        "byte9": true
      },
      {
        "deltaTime": 30,
        "channel": 0,
        "type": "noteOff",
        "noteNumber": 56,
        "velocity": 0,
        "byte9": true
      },
      {
        "deltaTime": 95,
        "channel": 0,
        "type": "noteOn",
        "noteNumber": 65,
        "velocity": 73
      },
      {
        "deltaTime": 5,
        "channel": 0,
        "type": "noteOn",
        "noteNumber": 62,
        "velocity": 68
      },
      {
        "deltaTime": 0,
        "running": true,
        "channel": 0,
        "type": "noteOn",
        "noteNumber": 70,
        "velocity": 55
      },
      {
        "deltaTime": 5,
        "channel": 0,
        "type": "noteOn",
        "noteNumber": 56,
        "velocity": 59
      },
      {
        "deltaTime": 5,
        "channel": 0,
        "type": "noteOn",
        "noteNumber": 68,
        "velocity": 64
      },
      {
        "deltaTime": 10,
        "channel": 0,
        "type": "controller",
        "controllerType": 64,
        "value": 0
      },
      {
        "deltaTime": 40,
        "channel": 0,
        "type": "noteOff",
        "noteNumber": 70,
        "velocity": 0,
        "byte9": true
      },
      {
        "deltaTime": 120,
        "channel": 0,
        "type": "controller",
        "controllerType": 64,
        "value": 127
      },
      {
        "deltaTime": 315,
        "channel": 0,
        "type": "noteOff",
        "noteNumber": 62,
        "velocity": 0,
        "byte9": true
      },
      {
        "deltaTime": 20,
        "channel": 0,
        "type": "noteOff",
        "noteNumber": 56,
        "velocity": 0,
        "byte9": true
      },
      {
        "deltaTime": 10,
        "channel": 0,
        "type": "noteOff",
        "noteNumber": 65,
        "velocity": 0,
        "byte9": true
      },
      {
        "deltaTime": 60,
        "channel": 0,
        "type": "noteOff",
        "noteNumber": 68,
        "velocity": 0,
        "byte9": true
      },
      {
        "deltaTime": 40,
        "channel": 0,
        "type": "controller",
        "controllerType": 64,
        "value": 0
      },
      {
        "deltaTime": 0,
        "channel": 0,
        "type": "noteOn",
        "noteNumber": 62,
        "velocity": 48
      },
      {
        "deltaTime": 5,
        "channel": 0,
        "type": "noteOn",
        "noteNumber": 57,
        "velocity": 44
      },
      {
        "deltaTime": 5,
        "channel": 0,
        "type": "noteOn",
        "noteNumber": 58,
        "velocity": 46
      },
      {
        "deltaTime": 5,
        "channel": 0,
        "type": "noteOn",
        "noteNumber": 65,
        "velocity": 54
      },
      {
        "deltaTime": 5,
        "channel": 0,
        "type": "noteOn",
        "noteNumber": 69,
        "velocity": 60
      },
      {
        "deltaTime": 60,
        "channel": 0,
        "type": "noteOff",
        "noteNumber": 65,
        "velocity": 0,
        "byte9": true
      },
      {
        "deltaTime": 15,
        "channel": 0,
        "type": "noteOff",
        "noteNumber": 62,
        "velocity": 0,
        "byte9": true
      },
      {
        "deltaTime": 0,
        "running": true,
        "channel": 0,
        "type": "noteOff",
        "noteNumber": 69,
        "velocity": 0,
        "byte9": true
      },
      {
        "deltaTime": 15,
        "channel": 0,
        "type": "noteOff",
        "noteNumber": 57,
        "velocity": 0,
        "byte9": true
      },
      {
        "deltaTime": 5,
        "channel": 0,
        "type": "noteOff",
        "noteNumber": 58,
        "velocity": 0,
        "byte9": true
      },
      {
        "deltaTime": 350,
        "channel": 0,
        "type": "noteOn",
        "noteNumber": 62,
        "velocity": 44
      },
      {
        "deltaTime": 5,
        "channel": 0,
        "type": "noteOn",
        "noteNumber": 58,
        "velocity": 38
      },
      {
        "deltaTime": 0,
        "running": true,
        "channel": 0,
        "type": "noteOn",
        "noteNumber": 65,
        "velocity": 50
      },
      {
        "deltaTime": 5,
        "channel": 0,
        "type": "noteOn",
        "noteNumber": 57,
        "velocity": 43
      },
      {
        "deltaTime": 30,
        "channel": 0,
        "type": "controller",
        "controllerType": 64,
        "value": 127
      },
      {
        "deltaTime": 75,
        "channel": 0,
        "type": "controller",
        "controllerType": 64,
        "value": 0
      },
      {
        "deltaTime": 15,
        "channel": 0,
        "type": "controller",
        "controllerType": 64,
        "value": 127
      },
      {
        "deltaTime": 45,
        "channel": 0,
        "type": "noteOff",
        "noteNumber": 65,
        "velocity": 0,
        "byte9": true
      },
      {
        "deltaTime": 10,
        "channel": 0,
        "type": "noteOff",
        "noteNumber": 58,
        "velocity": 0,
        "byte9": true
      },
      {
        "deltaTime": 20,
        "channel": 0,
        "type": "noteOff",
        "noteNumber": 62,
        "velocity": 0,
        "byte9": true
      },
      {
        "deltaTime": 35,
        "channel": 0,
        "type": "noteOff",
        "noteNumber": 57,
        "velocity": 0,
        "byte9": true
      },
      {
        "deltaTime": 230,
        "channel": 0,
        "type": "controller",
        "controllerType": 64,
        "value": 0
      },
      {
        "deltaTime": 25,
        "channel": 0,
        "type": "noteOn",
        "noteNumber": 58,
        "velocity": 35
      },
      {
        "deltaTime": 0,
        "running": true,
        "channel": 0,
        "type": "noteOn",
        "noteNumber": 62,
        "velocity": 49
      },
      {
        "deltaTime": 5,
        "channel": 0,
        "type": "noteOn",
        "noteNumber": 55,
        "velocity": 39
      },
      {
        "deltaTime": 200,
        "channel": 0,
        "type": "noteOff",
        "noteNumber": 55,
        "velocity": 0,
        "byte9": true
      },
      {
        "deltaTime": 20,
        "channel": 0,
        "type": "noteOff",
        "noteNumber": 58,
        "velocity": 0,
        "byte9": true
      },
      {
        "deltaTime": 0,
        "running": true,
        "channel": 0,
        "type": "noteOff",
        "noteNumber": 62,
        "velocity": 0,
        "byte9": true
      },
      {
        "deltaTime": 60,
        "channel": 0,
        "type": "noteOn",
        "noteNumber": 52,
        "velocity": 64
      },
      {
        "deltaTime": 15,
        "channel": 0,
        "type": "noteOn",
        "noteNumber": 58,
        "velocity": 50
      },
      {
        "deltaTime": 10,
        "channel": 0,
        "type": "noteOn",
        "noteNumber": 62,
        "velocity": 51
      },
      {
        "deltaTime": 5,
        "channel": 0,
        "type": "noteOn",
        "noteNumber": 53,
        "velocity": 57
      },
      {
        "deltaTime": 0,
        "running": true,
        "channel": 0,
        "type": "noteOn",
        "noteNumber": 55,
        "velocity": 68
      },
      {
        "deltaTime": 5,
        "channel": 0,
        "type": "noteOn",
        "noteNumber": 65,
        "velocity": 61
      },
      {
        "deltaTime": 25,
        "channel": 0,
        "type": "noteOff",
        "noteNumber": 52,
        "velocity": 0,
        "byte9": true
      },
      {
        "deltaTime": 55,
        "channel": 0,
        "type": "noteOff",
        "noteNumber": 55,
        "velocity": 0,
        "byte9": true
      },
      {
        "deltaTime": 30,
        "channel": 0,
        "type": "noteOff",
        "noteNumber": 65,
        "velocity": 0,
        "byte9": true
      },
      {
        "deltaTime": 30,
        "channel": 0,
        "type": "noteOff",
        "noteNumber": 62,
        "velocity": 0,
        "byte9": true
      },
      {
        "deltaTime": 10,
        "channel": 0,
        "type": "noteOff",
        "noteNumber": 58,
        "velocity": 0,
        "byte9": true
      },
      {
        "deltaTime": 40,
        "channel": 0,
        "type": "noteOn",
        "noteNumber": 55,
        "velocity": 28
      },
      {
        "deltaTime": 40,
        "channel": 0,
        "type": "noteOff",
        "noteNumber": 53,
        "velocity": 0,
        "byte9": true
      },
      {
        "deltaTime": 70,
        "channel": 0,
        "type": "noteOff",
        "noteNumber": 55,
        "velocity": 0,
        "byte9": true
      },
      {
        "deltaTime": 125,
        "channel": 0,
        "type": "noteOn",
        "noteNumber": 52,
        "velocity": 50
      },
      {
        "deltaTime": 45,
        "channel": 0,
        "type": "noteOn",
        "noteNumber": 58,
        "velocity": 57
      },
      {
        "deltaTime": 0,
        "running": true,
        "channel": 0,
        "type": "noteOn",
        "noteNumber": 62,
        "velocity": 70
      },
      {
        "deltaTime": 5,
        "channel": 0,
        "type": "noteOn",
        "noteNumber": 53,
        "velocity": 68
      },
      {
        "deltaTime": 0,
        "running": true,
        "channel": 0,
        "type": "noteOn",
        "noteNumber": 55,
        "velocity": 72
      },
      {
        "deltaTime": 5,
        "channel": 0,
        "type": "noteOn",
        "noteNumber": 65,
        "velocity": 62
      },
      {
        "deltaTime": 35,
        "channel": 0,
        "type": "noteOff",
        "noteNumber": 52,
        "velocity": 0,
        "byte9": true
      },
      {
        "deltaTime": 75,
        "channel": 0,
        "type": "noteOff",
        "noteNumber": 62,
        "velocity": 0,
        "byte9": true
      },
      {
        "deltaTime": 10,
        "channel": 0,
        "type": "noteOff",
        "noteNumber": 55,
        "velocity": 0,
        "byte9": true
      },
      {
        "deltaTime": 5,
        "channel": 0,
        "type": "noteOff",
        "noteNumber": 65,
        "velocity": 0,
        "byte9": true
      },
      {
        "deltaTime": 10,
        "channel": 0,
        "type": "noteOff",
        "noteNumber": 58,
        "velocity": 0,
        "byte9": true
      },
      {
        "deltaTime": 60,
        "channel": 0,
        "type": "noteOn",
        "noteNumber": 55,
        "velocity": 54
      },
      {
        "deltaTime": 0,
        "running": true,
        "channel": 0,
        "type": "noteOn",
        "noteNumber": 58,
        "velocity": 39
      },
      {
        "deltaTime": 5,
        "channel": 0,
        "type": "noteOff",
        "noteNumber": 53,
        "velocity": 0,
        "byte9": true
      },
      {
        "deltaTime": 0,
        "running": true,
        "channel": 0,
        "type": "noteOn",
        "noteNumber": 64,
        "velocity": 50
      },
      {
        "deltaTime": 5,
        "channel": 0,
        "type": "noteOn",
        "noteNumber": 52,
        "velocity": 52
      },
      {
        "deltaTime": 120,
        "channel": 0,
        "type": "noteOff",
        "noteNumber": 55,
        "velocity": 0,
        "byte9": true
      },
      {
        "deltaTime": 10,
        "channel": 0,
        "type": "noteOff",
        "noteNumber": 52,
        "velocity": 0,
        "byte9": true
      },
      {
        "deltaTime": 0,
        "running": true,
        "channel": 0,
        "type": "noteOff",
        "noteNumber": 58,
        "velocity": 0,
        "byte9": true
      },
      {
        "deltaTime": 5,
        "channel": 0,
        "type": "noteOff",
        "noteNumber": 64,
        "velocity": 0,
        "byte9": true
      },
      {
        "deltaTime": 290,
        "channel": 0,
        "type": "noteOn",
        "noteNumber": 55,
        "velocity": 55
      },
      {
        "deltaTime": 5,
        "channel": 0,
        "type": "noteOn",
        "noteNumber": 58,
        "velocity": 36
      },
      {
        "deltaTime": 0,
        "running": true,
        "channel": 0,
        "type": "noteOn",
        "noteNumber": 61,
        "velocity": 43
      },
      {
        "deltaTime": 0,
        "running": true,
        "channel": 0,
        "type": "noteOn",
        "noteNumber": 64,
        "velocity": 55
      },
      {
        "deltaTime": 5,
        "channel": 0,
        "type": "noteOn",
        "noteNumber": 52,
        "velocity": 54
      },
      {
        "deltaTime": 165,
        "channel": 0,
        "type": "controller",
        "controllerType": 64,
        "value": 127
      },
      {
        "deltaTime": 55,
        "channel": 0,
        "type": "noteOff",
        "noteNumber": 55,
        "velocity": 0,
        "byte9": true
      },
      {
        "deltaTime": 50,
        "channel": 0,
        "type": "noteOff",
        "noteNumber": 58,
        "velocity": 0,
        "byte9": true
      },
      {
        "deltaTime": 50,
        "channel": 0,
        "type": "noteOff",
        "noteNumber": 52,
        "velocity": 0,
        "byte9": true
      },
      {
        "deltaTime": 0,
        "running": true,
        "channel": 0,
        "type": "noteOff",
        "noteNumber": 61,
        "velocity": 0,
        "byte9": true
      },
      {
        "deltaTime": 15,
        "channel": 0,
        "type": "noteOff",
        "noteNumber": 64,
        "velocity": 0,
        "byte9": true
      },
      {
        "deltaTime": 905,
        "channel": 0,
        "type": "noteOn",
        "noteNumber": 54,
        "velocity": 61
      },
      {
        "deltaTime": 0,
        "running": true,
        "channel": 0,
        "type": "noteOn",
        "noteNumber": 63,
        "velocity": 59
      },
      {
        "deltaTime": 5,
        "channel": 0,
        "type": "noteOn",
        "noteNumber": 80,
        "velocity": 80
      },
      {
        "deltaTime": 0,
        "running": true,
        "channel": 0,
        "type": "noteOn",
        "noteNumber": 92,
        "velocity": 81
      },
      {
        "deltaTime": 5,
        "channel": 0,
        "type": "noteOn",
        "noteNumber": 58,
        "velocity": 45
      },
      {
        "deltaTime": 0,
        "running": true,
        "channel": 0,
        "type": "noteOn",
        "noteNumber": 87,
        "velocity": 77
      },
      {
        "deltaTime": 10,
        "channel": 0,
        "type": "noteOn",
        "noteNumber": 59,
        "velocity": 50
      },
      {
        "deltaTime": 30,
        "channel": 0,
        "type": "noteOff",
        "noteNumber": 59,
        "velocity": 0,
        "byte9": true
      },
      {
        "deltaTime": 50,
        "channel": 0,
        "type": "noteOff",
        "noteNumber": 54,
        "velocity": 0,
        "byte9": true
      },
      {
        "deltaTime": 25,
        "channel": 0,
        "type": "noteOff",
        "noteNumber": 58,
        "velocity": 0,
        "byte9": true
      },
      {
        "deltaTime": 0,
        "running": true,
        "channel": 0,
        "type": "noteOff",
        "noteNumber": 63,
        "velocity": 0,
        "byte9": true
      },
      {
        "deltaTime": 5,
        "channel": 0,
        "type": "noteOff",
        "noteNumber": 92,
        "velocity": 0,
        "byte9": true
      },
      {
        "deltaTime": 10,
        "channel": 0,
        "type": "noteOff",
        "noteNumber": 80,
        "velocity": 0,
        "byte9": true
      },
      {
        "deltaTime": 0,
        "running": true,
        "channel": 0,
        "type": "noteOff",
        "noteNumber": 87,
        "velocity": 0,
        "byte9": true
      },
      {
        "deltaTime": 10,
        "channel": 0,
        "type": "controller",
        "controllerType": 64,
        "value": 0
      },
      {
        "deltaTime": 65,
        "channel": 0,
        "type": "noteOn",
        "noteNumber": 64,
        "velocity": 49
      },
      {
        "deltaTime": 5,
        "channel": 0,
        "type": "noteOn",
        "noteNumber": 60,
        "velocity": 36
      },
      {
        "deltaTime": 5,
        "channel": 0,
        "type": "noteOn",
        "noteNumber": 91,
        "velocity": 55
      },
      {
        "deltaTime": 5,
        "channel": 0,
        "type": "noteOn",
        "noteNumber": 55,
        "velocity": 46
      },
      {
        "deltaTime": 0,
        "running": true,
        "channel": 0,
        "type": "noteOn",
        "noteNumber": 79,
        "velocity": 35
      },
      {
        "deltaTime": 10,
        "channel": 0,
        "type": "noteOn",
        "noteNumber": 86,
        "velocity": 52
      },
      {
        "deltaTime": 25,
        "channel": 0,
        "type": "noteOff",
        "noteNumber": 55,
        "velocity": 0,
        "byte9": true
      },
      {
        "deltaTime": 0,
        "running": true,
        "channel": 0,
        "type": "noteOff",
        "noteNumber": 86,
        "velocity": 0,
        "byte9": true
      },
      {
        "deltaTime": 5,
        "channel": 0,
        "type": "noteOff",
        "noteNumber": 91,
        "velocity": 0,
        "byte9": true
      },
      {
        "deltaTime": 10,
        "channel": 0,
        "type": "noteOff",
        "noteNumber": 79,
        "velocity": 0,
        "byte9": true
      },
      {
        "deltaTime": 5,
        "channel": 0,
        "type": "noteOff",
        "noteNumber": 64,
        "velocity": 0,
        "byte9": true
      },
      {
        "deltaTime": 5,
        "channel": 0,
        "type": "noteOff",
        "noteNumber": 60,
        "velocity": 0,
        "byte9": true
      },
      {
        "deltaTime": 230,
        "channel": 0,
        "type": "noteOn",
        "noteNumber": 60,
        "velocity": 55
      },
      {
        "deltaTime": 5,
        "channel": 0,
        "type": "noteOn",
        "noteNumber": 64,
        "velocity": 60
      },
      {
        "deltaTime": 0,
        "running": true,
        "channel": 0,
        "type": "noteOn",
        "noteNumber": 76,
        "velocity": 72
      },
      {
        "deltaTime": 5,
        "channel": 0,
        "type": "noteOn",
        "noteNumber": 55,
        "velocity": 69
      },
      {
        "deltaTime": 0,
        "running": true,
        "channel": 0,
        "type": "noteOn",
        "noteNumber": 83,
        "velocity": 73
      },
      {
        "deltaTime": 0,
        "running": true,
        "channel": 0,
        "type": "noteOn",
        "noteNumber": 88,
        "velocity": 71
      },
      {
        "deltaTime": 150,
        "channel": 0,
        "type": "controller",
        "controllerType": 64,
        "value": 127
      },
      {
        "deltaTime": 140,
        "channel": 0,
        "type": "noteOff",
        "noteNumber": 83,
        "velocity": 0,
        "byte9": true
      },
      {
        "deltaTime": 0,
        "running": true,
        "channel": 0,
        "type": "noteOff",
        "noteNumber": 88,
        "velocity": 0,
        "byte9": true
      },
      {
        "deltaTime": 50,
        "channel": 0,
        "type": "noteOff",
        "noteNumber": 76,
        "velocity": 0,
        "byte9": true
      },
      {
        "deltaTime": 45,
        "channel": 0,
        "type": "noteOff",
        "noteNumber": 60,
        "velocity": 0,
        "byte9": true
      },
      {
        "deltaTime": 10,
        "channel": 0,
        "type": "noteOff",
        "noteNumber": 64,
        "velocity": 0,
        "byte9": true
      },
      {
        "deltaTime": 5,
        "channel": 0,
        "type": "noteOff",
        "noteNumber": 55,
        "velocity": 0,
        "byte9": true
      },
      {
        "deltaTime": 135,
        "channel": 0,
        "type": "controller",
        "controllerType": 64,
        "value": 0
      },
      {
        "deltaTime": 45,
        "channel": 0,
        "type": "noteOn",
        "noteNumber": 64,
        "velocity": 38
      },
      {
        "deltaTime": 0,
        "running": true,
        "channel": 0,
        "type": "noteOn",
        "noteNumber": 84,
        "velocity": 54
      },
      {
        "deltaTime": 5,
        "channel": 0,
        "type": "noteOn",
        "noteNumber": 55,
        "velocity": 53
      },
      {
        "deltaTime": 0,
        "running": true,
        "channel": 0,
        "type": "noteOn",
        "noteNumber": 60,
        "velocity": 36
      },
      {
        "deltaTime": 0,
        "running": true,
        "channel": 0,
        "type": "noteOn",
        "noteNumber": 72,
        "velocity": 41
      },
      {
        "deltaTime": 10,
        "channel": 0,
        "type": "noteOn",
        "noteNumber": 79,
        "velocity": 33
      },
      {
        "deltaTime": 10,
        "channel": 0,
        "type": "noteOff",
        "noteNumber": 84,
        "velocity": 0,
        "byte9": true
      },
      {
        "deltaTime": 10,
        "channel": 0,
        "type": "noteOff",
        "noteNumber": 60,
        "velocity": 0,
        "byte9": true
      },
      {
        "deltaTime": 0,
        "running": true,
        "channel": 0,
        "type": "noteOff",
        "noteNumber": 64,
        "velocity": 0,
        "byte9": true
      },
      {
        "deltaTime": 15,
        "channel": 0,
        "type": "noteOff",
        "noteNumber": 55,
        "velocity": 0,
        "byte9": true
      },
      {
        "deltaTime": 0,
        "running": true,
        "channel": 0,
        "type": "noteOff",
        "noteNumber": 79,
        "velocity": 0,
        "byte9": true
      },
      {
        "deltaTime": 10,
        "channel": 0,
        "type": "noteOff",
        "noteNumber": 72,
        "velocity": 0,
        "byte9": true
      },
      {
        "deltaTime": 405,
        "channel": 0,
        "type": "noteOn",
        "noteNumber": 55,
        "velocity": 54
      },
      {
        "deltaTime": 0,
        "running": true,
        "channel": 0,
        "type": "noteOn",
        "noteNumber": 64,
        "velocity": 37
      },
      {
        "deltaTime": 0,
        "running": true,
        "channel": 0,
        "type": "noteOn",
        "noteNumber": 69,
        "velocity": 56
      },
      {
        "deltaTime": 0,
        "running": true,
        "channel": 0,
        "type": "noteOn",
        "noteNumber": 76,
        "velocity": 55
      },
      {
        "deltaTime": 5,
        "channel": 0,
        "type": "noteOn",
        "noteNumber": 81,
        "velocity": 50
      },
      {
        "deltaTime": 5,
        "channel": 0,
        "type": "noteOn",
        "noteNumber": 60,
        "velocity": 37
      },
      {
        "deltaTime": 60,
        "channel": 0,
        "type": "noteOff",
        "noteNumber": 64,
        "velocity": 0,
        "byte9": true
      },
      {
        "deltaTime": 5,
        "channel": 0,
        "type": "noteOff",
        "noteNumber": 69,
        "velocity": 0,
        "byte9": true
      },
      {
        "deltaTime": 10,
        "channel": 0,
        "type": "noteOff",
        "noteNumber": 55,
        "velocity": 0,
        "byte9": true
      },
      {
        "deltaTime": 20,
        "channel": 0,
        "type": "noteOff",
        "noteNumber": 60,
        "velocity": 0,
        "byte9": true
      },
      {
        "deltaTime": 10,
        "channel": 0,
        "type": "noteOff",
        "noteNumber": 76,
        "velocity": 0,
        "byte9": true
      },
      {
        "deltaTime": 15,
        "channel": 0,
        "type": "noteOff",
        "noteNumber": 81,
        "velocity": 0,
        "byte9": true
      },
      {
        "deltaTime": 145,
        "channel": 0,
        "type": "controller",
        "controllerType": 64,
        "value": 127
      },
      {
        "deltaTime": 160,
        "channel": 0,
        "type": "controller",
        "controllerType": 64,
        "value": 0
      },
      {
        "deltaTime": 70,
        "channel": 0,
        "type": "noteOn",
        "noteNumber": 71,
        "velocity": 73
      },
      {
        "deltaTime": 0,
        "running": true,
        "channel": 0,
        "type": "noteOn",
        "noteNumber": 83,
        "velocity": 71
      },
      {
        "deltaTime": 10,
        "channel": 0,
        "type": "noteOn",
        "noteNumber": 54,
        "velocity": 60
      },
      {
        "deltaTime": 0,
        "running": true,
        "channel": 0,
        "type": "noteOn",
        "noteNumber": 60,
        "velocity": 66
      },
      {
        "deltaTime": 0,
        "running": true,
        "channel": 0,
        "type": "noteOn",
        "noteNumber": 64,
        "velocity": 57
      },
      {
        "deltaTime": 0,
        "running": true,
        "channel": 0,
        "type": "noteOn",
        "noteNumber": 80,
        "velocity": 35
      },
      {
        "deltaTime": 5,
        "channel": 0,
        "type": "noteOn",
        "noteNumber": 76,
        "velocity": 55
      },
      {
        "deltaTime": 95,
        "channel": 0,
        "type": "noteOff",
        "noteNumber": 71,
        "velocity": 0,
        "byte9": true
      },
      {
        "deltaTime": 15,
        "channel": 0,
        "type": "noteOff",
        "noteNumber": 76,
        "velocity": 0,
        "byte9": true
      },
      {
        "deltaTime": 20,
        "channel": 0,
        "type": "noteOff",
        "noteNumber": 64,
        "velocity": 0,
        "byte9": true
      },
      {
        "deltaTime": 0,
        "running": true,
        "channel": 0,
        "type": "noteOff",
        "noteNumber": 83,
        "velocity": 0,
        "byte9": true
      },
      {
        "deltaTime": 10,
        "channel": 0,
        "type": "noteOff",
        "noteNumber": 54,
        "velocity": 0,
        "byte9": true
      },
      {
        "deltaTime": 0,
        "running": true,
        "channel": 0,
        "type": "noteOff",
        "noteNumber": 60,
        "velocity": 0,
        "byte9": true
      },
      {
        "deltaTime": 5,
        "channel": 0,
        "type": "noteOff",
        "noteNumber": 80,
        "velocity": 0,
        "byte9": true
      },
      {
        "deltaTime": 305,
        "channel": 0,
        "type": "noteOn",
        "noteNumber": 80,
        "velocity": 50
      },
      {
        "deltaTime": 10,
        "channel": 0,
        "type": "noteOn",
        "noteNumber": 71,
        "velocity": 64
      },
      {
        "deltaTime": 0,
        "running": true,
        "channel": 0,
        "type": "noteOn",
        "noteNumber": 76,
        "velocity": 63
      },
      {
        "deltaTime": 0,
        "running": true,
        "channel": 0,
        "type": "noteOn",
        "noteNumber": 83,
        "velocity": 64
      },
      {
        "deltaTime": 5,
        "channel": 0,
        "type": "noteOn",
        "noteNumber": 64,
        "velocity": 58
      },
      {
        "deltaTime": 5,
        "channel": 0,
        "type": "noteOn",
        "noteNumber": 54,
        "velocity": 52
      },
      {
        "deltaTime": 0,
        "running": true,
        "channel": 0,
        "type": "noteOn",
        "noteNumber": 60,
        "velocity": 57
      },
      {
        "deltaTime": 30,
        "channel": 0,
        "type": "controller",
        "controllerType": 64,
        "value": 127
      },
      {
        "deltaTime": 185,
        "channel": 0,
        "type": "noteOff",
        "noteNumber": 71,
        "velocity": 0,
        "byte9": true
      },
      {
        "deltaTime": 0,
        "running": true,
        "channel": 0,
        "type": "noteOff",
        "noteNumber": 76,
        "velocity": 0,
        "byte9": true
      },
      {
        "deltaTime": 20,
        "channel": 0,
        "type": "noteOff",
        "noteNumber": 83,
        "velocity": 0,
        "byte9": true
      },
      {
        "deltaTime": 15,
        "channel": 0,
        "type": "noteOff",
        "noteNumber": 60,
        "velocity": 0,
        "byte9": true
      },
      {
        "deltaTime": 5,
        "channel": 0,
        "type": "noteOff",
        "noteNumber": 64,
        "velocity": 0,
        "byte9": true
      },
      {
        "deltaTime": 10,
        "channel": 0,
        "type": "noteOff",
        "noteNumber": 80,
        "velocity": 0,
        "byte9": true
      },
      {
        "deltaTime": 5,
        "channel": 0,
        "type": "noteOff",
        "noteNumber": 54,
        "velocity": 0,
        "byte9": true
      },
      {
        "deltaTime": 155,
        "channel": 0,
        "type": "controller",
        "controllerType": 64,
        "value": 0
      },
      {
        "deltaTime": 50,
        "channel": 0,
        "type": "noteOn",
        "noteNumber": 84,
        "velocity": 66
      },
      {
        "deltaTime": 5,
        "channel": 0,
        "type": "noteOn",
        "noteNumber": 54,
        "velocity": 53
      },
      {
        "deltaTime": 0,
        "running": true,
        "channel": 0,
        "type": "noteOn",
        "noteNumber": 64,
        "velocity": 58
      },
      {
        "deltaTime": 5,
        "channel": 0,
        "type": "noteOn",
        "noteNumber": 60,
        "velocity": 54
      },
      {
        "deltaTime": 0,
        "running": true,
        "channel": 0,
        "type": "noteOn",
        "noteNumber": 72,
        "velocity": 49
      },
      {
        "deltaTime": 5,
        "channel": 0,
        "type": "noteOn",
        "noteNumber": 77,
        "velocity": 53
      },
      {
        "deltaTime": 0,
        "running": true,
        "channel": 0,
        "type": "noteOn",
        "noteNumber": 81,
        "velocity": 44
      },
      {
        "deltaTime": 20,
        "channel": 0,
        "type": "controller",
        "controllerType": 64,
        "value": 127
      },
      {
        "deltaTime": 50,
        "channel": 0,
        "type": "noteOff",
        "noteNumber": 81,
        "velocity": 0,
        "byte9": true
      },
      {
        "deltaTime": 10,
        "channel": 0,
        "type": "noteOff",
        "noteNumber": 77,
        "velocity": 0,
        "byte9": true
      },
      {
        "deltaTime": 0,
        "running": true,
        "channel": 0,
        "type": "noteOff",
        "noteNumber": 84,
        "velocity": 0,
        "byte9": true
      },
      {
        "deltaTime": 20,
        "channel": 0,
        "type": "noteOff",
        "noteNumber": 72,
        "velocity": 0,
        "byte9": true
      },
      {
        "deltaTime": 10,
        "channel": 0,
        "type": "noteOff",
        "noteNumber": 64,
        "velocity": 0,
        "byte9": true
      },
      {
        "deltaTime": 35,
        "channel": 0,
        "type": "noteOff",
        "noteNumber": 60,
        "velocity": 0,
        "byte9": true
      },
      {
        "deltaTime": 20,
        "channel": 0,
        "type": "noteOff",
        "noteNumber": 54,
        "velocity": 0,
        "byte9": true
      },
      {
        "deltaTime": 155,
        "channel": 0,
        "type": "noteOn",
        "noteNumber": 74,
        "velocity": 61
      },
      {
        "deltaTime": 0,
        "running": true,
        "channel": 0,
        "type": "noteOn",
        "noteNumber": 77,
        "velocity": 54
      },
      {
        "deltaTime": 5,
        "channel": 0,
        "type": "noteOn",
        "noteNumber": 69,
        "velocity": 57
      },
      {
        "deltaTime": 0,
        "running": true,
        "channel": 0,
        "type": "noteOn",
        "noteNumber": 81,
        "velocity": 49
      },
      {
        "deltaTime": 5,
        "channel": 0,
        "type": "noteOn",
        "noteNumber": 54,
        "velocity": 57
      },
      {
        "deltaTime": 0,
        "running": true,
        "channel": 0,
        "type": "noteOn",
        "noteNumber": 60,
        "velocity": 62
      },
      {
        "deltaTime": 0,
        "running": true,
        "channel": 0,
        "type": "noteOn",
        "noteNumber": 64,
        "velocity": 62
      },
      {
        "deltaTime": 130,
        "channel": 0,
        "type": "noteOff",
        "noteNumber": 81,
        "velocity": 0,
        "byte9": true
      },
      {
        "deltaTime": 25,
        "channel": 0,
        "type": "noteOff",
        "noteNumber": 77,
        "velocity": 0,
        "byte9": true
      },
      {
        "deltaTime": 10,
        "channel": 0,
        "type": "noteOff",
        "noteNumber": 60,
        "velocity": 0,
        "byte9": true
      },
      {
        "deltaTime": 5,
        "channel": 0,
        "type": "noteOff",
        "noteNumber": 74,
        "velocity": 0,
        "byte9": true
      },
      {
        "deltaTime": 15,
        "channel": 0,
        "type": "noteOff",
        "noteNumber": 64,
        "velocity": 0,
        "byte9": true
      },
      {
        "deltaTime": 5,
        "channel": 0,
        "type": "noteOff",
        "noteNumber": 69,
        "velocity": 0,
        "byte9": true
      },
      {
        "deltaTime": 15,
        "channel": 0,
        "type": "noteOff",
        "noteNumber": 54,
        "velocity": 0,
        "byte9": true
      },
      {
        "deltaTime": 260,
        "channel": 0,
        "type": "noteOn",
        "noteNumber": 67,
        "velocity": 89
      },
      {
        "deltaTime": 0,
        "running": true,
        "channel": 0,
        "type": "noteOn",
        "noteNumber": 70,
        "velocity": 80
      },
      {
        "deltaTime": 0,
        "running": true,
        "channel": 0,
        "type": "noteOn",
        "noteNumber": 74,
        "velocity": 83
      },
      {
        "deltaTime": 0,
        "running": true,
        "channel": 0,
        "type": "noteOn",
        "noteNumber": 77,
        "velocity": 80
      },
      {
        "deltaTime": 5,
        "channel": 0,
        "type": "controller",
        "controllerType": 64,
        "value": 0
      },
      {
        "deltaTime": 0,
        "channel": 0,
        "type": "noteOn",
        "noteNumber": 62,
        "velocity": 92
      },
      {
        "deltaTime": 5,
        "channel": 0,
        "type": "noteOn",
        "noteNumber": 60,
        "velocity": 74
      },
      {
        "deltaTime": 25,
        "channel": 0,
        "type": "noteOff",
        "noteNumber": 60,
        "velocity": 0,
        "byte9": true
      },
      {
        "deltaTime": 110,
        "channel": 0,
        "type": "controller",
        "controllerType": 64,
        "value": 127
      },
      {
        "deltaTime": 210,
        "channel": 0,
        "type": "noteOff",
        "noteNumber": 77,
        "velocity": 0,
        "byte9": true
      },
      {
        "deltaTime": 5,
        "channel": 0,
        "type": "noteOff",
        "noteNumber": 74,
        "velocity": 0,
        "byte9": true
      },
      {
        "deltaTime": 50,
        "channel": 0,
        "type": "noteOff",
        "noteNumber": 70,
        "velocity": 0,
        "byte9": true
      },
      {
        "deltaTime": 20,
        "channel": 0,
        "type": "noteOff",
        "noteNumber": 67,
        "velocity": 0,
        "byte9": true
      },
      {
        "deltaTime": 205,
        "channel": 0,
        "type": "noteOff",
        "noteNumber": 62,
        "velocity": 0,
        "byte9": true
      },
      {
        "deltaTime": 20,
        "channel": 0,
        "type": "noteOn",
        "noteNumber": 58,
        "velocity": 61
      },
      {
        "deltaTime": 5,
        "channel": 0,
        "type": "controller",
        "controllerType": 64,
        "value": 0
      },
      {
        "deltaTime": 5,
        "channel": 0,
        "type": "noteOn",
        "noteNumber": 65,
        "velocity": 65
      },
      {
        "deltaTime": 5,
        "channel": 0,
        "type": "noteOn",
        "noteNumber": 74,
        "velocity": 62
      },
      {
        "deltaTime": 5,
        "channel": 0,
        "type": "noteOn",
        "noteNumber": 70,
        "velocity": 47
      },
      {
        "deltaTime": 60,
        "channel": 0,
        "type": "noteOff",
        "noteNumber": 58,
        "velocity": 0,
        "byte9": true
      },
      {
        "deltaTime": 0,
        "running": true,
        "channel": 0,
        "type": "noteOff",
        "noteNumber": 74,
        "velocity": 0,
        "byte9": true
      },
      {
        "deltaTime": 15,
        "channel": 0,
        "type": "noteOff",
        "noteNumber": 65,
        "velocity": 0,
        "byte9": true
      },
      {
        "deltaTime": 0,
        "running": true,
        "channel": 0,
        "type": "noteOff",
        "noteNumber": 70,
        "velocity": 0,
        "byte9": true
      },
      {
        "deltaTime": 295,
        "channel": 0,
        "type": "noteOn",
        "noteNumber": 51,
        "velocity": 35
      },
      {
        "deltaTime": 5,
        "channel": 0,
        "type": "noteOn",
        "noteNumber": 50,
        "velocity": 29
      },
      {
        "deltaTime": 40,
        "channel": 0,
        "type": "noteOff",
        "noteNumber": 50,
        "velocity": 0,
        "byte9": true
      },
      {
        "deltaTime": 20,
        "channel": 0,
        "type": "noteOn",
        "noteNumber": 52,
        "velocity": 38
      },
      {
        "deltaTime": 20,
        "channel": 0,
        "type": "noteOn",
        "noteNumber": 55,
        "velocity": 55
      },
      {
        "deltaTime": 0,
        "running": true,
        "channel": 0,
        "type": "noteOn",
        "noteNumber": 58,
        "velocity": 37
      },
      {
        "deltaTime": 0,
        "running": true,
        "channel": 0,
        "type": "noteOn",
        "noteNumber": 65,
        "velocity": 49
      },
      {
        "deltaTime": 5,
        "channel": 0,
        "type": "noteOn",
        "noteNumber": 62,
        "velocity": 48
      },
      {
        "deltaTime": 5,
        "channel": 0,
        "type": "noteOff",
        "noteNumber": 51,
        "velocity": 0,
        "byte9": true
      },
      {
        "deltaTime": 0,
        "running": true,
        "channel": 0,
        "type": "noteOff",
        "noteNumber": 52,
        "velocity": 0,
        "byte9": true
      },
      {
        "deltaTime": 10,
        "channel": 0,
        "type": "noteOn",
        "noteNumber": 53,
        "velocity": 42
      },
      {
        "deltaTime": 235,
        "channel": 0,
        "type": "noteOff",
        "noteNumber": 62,
        "velocity": 0,
        "byte9": true
      },
      {
        "deltaTime": 10,
        "channel": 0,
        "type": "noteOff",
        "noteNumber": 55,
        "velocity": 0,
        "byte9": true
      },
      {
        "deltaTime": 30,
        "channel": 0,
        "type": "noteOff",
        "noteNumber": 58,
        "velocity": 0,
        "byte9": true
      },
      {
        "deltaTime": 25,
        "channel": 0,
        "type": "noteOff",
        "noteNumber": 65,
        "velocity": 0,
        "byte9": true
      },
      {
        "deltaTime": 80,
        "channel": 0,
        "type": "noteOff",
        "noteNumber": 53,
        "velocity": 0,
        "byte9": true
      },
      {
        "deltaTime": 75,
        "channel": 0,
        "type": "noteOn",
        "noteNumber": 50,
        "velocity": 44
      },
      {
        "deltaTime": 10,
        "channel": 0,
        "type": "noteOn",
        "noteNumber": 58,
        "velocity": 35
      },
      {
        "deltaTime": 0,
        "running": true,
        "channel": 0,
        "type": "noteOn",
        "noteNumber": 62,
        "velocity": 46
      },
      {
        "deltaTime": 5,
        "channel": 0,
        "type": "noteOn",
        "noteNumber": 55,
        "velocity": 47
      },
      {
        "deltaTime": 120,
        "channel": 0,
        "type": "noteOff",
        "noteNumber": 50,
        "velocity": 0,
        "byte9": true
      },
      {
        "deltaTime": 10,
        "channel": 0,
        "type": "noteOff",
        "noteNumber": 55,
        "velocity": 0,
        "byte9": true
      },
      {
        "deltaTime": 25,
        "channel": 0,
        "type": "noteOff",
        "noteNumber": 62,
        "velocity": 0,
        "byte9": true
      },
      {
        "deltaTime": 25,
        "channel": 0,
        "type": "noteOff",
        "noteNumber": 58,
        "velocity": 0,
        "byte9": true
      },
      {
        "deltaTime": 290,
        "channel": 0,
        "type": "noteOn",
        "noteNumber": 58,
        "velocity": 45
      },
      {
        "deltaTime": 15,
        "channel": 0,
        "type": "controller",
        "controllerType": 64,
        "value": 127
      },
      {
        "deltaTime": 0,
        "channel": 0,
        "type": "noteOn",
        "noteNumber": 48,
        "velocity": 48
      },
      {
        "deltaTime": 0,
        "running": true,
        "channel": 0,
        "type": "noteOn",
        "noteNumber": 55,
        "velocity": 47
      },
      {
        "deltaTime": 0,
        "running": true,
        "channel": 0,
        "type": "noteOn",
        "noteNumber": 62,
        "velocity": 53
      },
      {
        "deltaTime": 0,
        "running": true,
        "channel": 0,
        "type": "noteOn",
        "noteNumber": 65,
        "velocity": 38
      },
      {
        "deltaTime": 30,
        "channel": 0,
        "type": "noteOff",
        "noteNumber": 55,
        "velocity": 0,
        "byte9": true
      },
      {
        "deltaTime": 5,
        "channel": 0,
        "type": "noteOff",
        "noteNumber": 48,
        "velocity": 0,
        "byte9": true
      },
      {
        "deltaTime": 45,
        "channel": 0,
        "type": "noteOff",
        "noteNumber": 58,
        "velocity": 0,
        "byte9": true
      },
      {
        "deltaTime": 0,
        "running": true,
        "channel": 0,
        "type": "noteOff",
        "noteNumber": 62,
        "velocity": 0,
        "byte9": true
      },
      {
        "deltaTime": 20,
        "channel": 0,
        "type": "noteOff",
        "noteNumber": 65,
        "velocity": 0,
        "byte9": true
      },
      {
        "deltaTime": 215,
        "channel": 0,
        "type": "noteOn",
        "noteNumber": 69,
        "velocity": 74
      },
      {
        "deltaTime": 5,
        "channel": 0,
        "type": "noteOn",
        "noteNumber": 62,
        "velocity": 77
      },
      {
        "deltaTime": 0,
        "running": true,
        "channel": 0,
        "type": "noteOn",
        "noteNumber": 66,
        "velocity": 60
      },
      {
        "deltaTime": 5,
        "channel": 0,
        "type": "controller",
        "controllerType": 64,
        "value": 0
      },
      {
        "deltaTime": 5,
        "channel": 0,
        "type": "noteOn",
        "noteNumber": 58,
        "velocity": 62
      },
      {
        "deltaTime": 90,
        "channel": 0,
        "type": "noteOff",
        "noteNumber": 69,
        "velocity": 0,
        "byte9": true
      },
      {
        "deltaTime": 25,
        "channel": 0,
        "type": "noteOff",
        "noteNumber": 62,
        "velocity": 0,
        "byte9": true
      },
      {
        "deltaTime": 15,
        "channel": 0,
        "type": "noteOff",
        "noteNumber": 58,
        "velocity": 0,
        "byte9": true
      },
      {
        "deltaTime": 0,
        "running": true,
        "channel": 0,
        "type": "noteOff",
        "noteNumber": 66,
        "velocity": 0,
        "byte9": true
      },
      {
        "deltaTime": 60,
        "channel": 0,
        "type": "noteOn",
        "noteNumber": 58,
        "velocity": 37
      },
      {
        "deltaTime": 10,
        "channel": 0,
        "type": "noteOn",
        "noteNumber": 66,
        "velocity": 42
      },
      {
        "deltaTime": 0,
        "running": true,
        "channel": 0,
        "type": "noteOn",
        "noteNumber": 69,
        "velocity": 59
      },
      {
        "deltaTime": 5,
        "channel": 0,
        "type": "noteOn",
        "noteNumber": 62,
        "velocity": 62
      },
      {
        "deltaTime": 105,
        "channel": 0,
        "type": "noteOff",
        "noteNumber": 62,
        "velocity": 0,
        "byte9": true
      },
      {
        "deltaTime": 5,
        "channel": 0,
        "type": "noteOff",
        "noteNumber": 69,
        "velocity": 0,
        "byte9": true
      },
      {
        "deltaTime": 20,
        "channel": 0,
        "type": "noteOff",
        "noteNumber": 58,
        "velocity": 0,
        "byte9": true
      },
      {
        "deltaTime": 0,
        "running": true,
        "channel": 0,
        "type": "noteOff",
        "noteNumber": 66,
        "velocity": 0,
        "byte9": true
      },
      {
        "deltaTime": 120,
        "channel": 0,
        "type": "noteOn",
        "noteNumber": 58,
        "velocity": 56
      },
      {
        "deltaTime": 10,
        "channel": 0,
        "type": "noteOn",
        "noteNumber": 66,
        "velocity": 56
      },
      {
        "deltaTime": 5,
        "channel": 0,
        "type": "noteOn",
        "noteNumber": 62,
        "velocity": 74
      },
      {
        "deltaTime": 5,
        "channel": 0,
        "type": "noteOn",
        "noteNumber": 69,
        "velocity": 62
      },
      {
        "deltaTime": 25,
        "channel": 0,
        "type": "controller",
        "controllerType": 64,
        "value": 127
      },
      {
        "deltaTime": 45,
        "channel": 0,
        "type": "noteOff",
        "noteNumber": 69,
        "velocity": 0,
        "byte9": true
      },
      {
        "deltaTime": 5,
        "channel": 0,
        "type": "noteOff",
        "noteNumber": 62,
        "velocity": 0,
        "byte9": true
      },
      {
        "deltaTime": 10,
        "channel": 0,
        "type": "noteOff",
        "noteNumber": 58,
        "velocity": 0,
        "byte9": true
      },
      {
        "deltaTime": 15,
        "channel": 0,
        "type": "controller",
        "controllerType": 64,
        "value": 0
      },
      {
        "deltaTime": 5,
        "channel": 0,
        "type": "noteOff",
        "noteNumber": 66,
        "velocity": 0,
        "byte9": true
      },
      {
        "deltaTime": 85,
        "channel": 0,
        "type": "noteOn",
        "noteNumber": 58,
        "velocity": 39
      },
      {
        "deltaTime": 10,
        "channel": 0,
        "type": "noteOn",
        "noteNumber": 66,
        "velocity": 43
      },
      {
        "deltaTime": 5,
        "channel": 0,
        "type": "noteOn",
        "noteNumber": 69,
        "velocity": 39
      },
      {
        "deltaTime": 5,
        "channel": 0,
        "type": "noteOn",
        "noteNumber": 62,
        "velocity": 54
      },
      {
        "deltaTime": 10,
        "channel": 0,
        "type": "noteOn",
        "noteNumber": 52,
        "velocity": 29
      },
      {
        "deltaTime": 30,
        "channel": 0,
        "type": "noteOff",
        "noteNumber": 52,
        "velocity": 0,
        "byte9": true
      },
      {
        "deltaTime": 15,
        "channel": 0,
        "type": "noteOff",
        "noteNumber": 69,
        "velocity": 0,
        "byte9": true
      },
      {
        "deltaTime": 5,
        "channel": 0,
        "type": "noteOff",
        "noteNumber": 62,
        "velocity": 0,
        "byte9": true
      },
      {
        "deltaTime": 15,
        "channel": 0,
        "type": "noteOff",
        "noteNumber": 58,
        "velocity": 0,
        "byte9": true
      },
      {
        "deltaTime": 15,
        "channel": 0,
        "type": "noteOff",
        "noteNumber": 66,
        "velocity": 0,
        "byte9": true
      },
      {
        "deltaTime": 175,
        "channel": 0,
        "type": "noteOn",
        "noteNumber": 58,
        "velocity": 60
      },
      {
        "deltaTime": 5,
        "channel": 0,
        "type": "noteOn",
        "noteNumber": 66,
        "velocity": 52
      },
      {
        "deltaTime": 5,
        "channel": 0,
        "type": "noteOn",
        "noteNumber": 62,
        "velocity": 71
      },
      {
        "deltaTime": 5,
        "channel": 0,
        "type": "noteOn",
        "noteNumber": 69,
        "velocity": 60
      },
      {
        "deltaTime": 5,
        "channel": 0,
        "type": "noteOn",
        "noteNumber": 52,
        "velocity": 50
      },
      {
        "deltaTime": 40,
        "channel": 0,
        "type": "noteOff",
        "noteNumber": 52,
        "velocity": 0,
        "byte9": true
      },
      {
        "deltaTime": 30,
        "channel": 0,
        "type": "noteOff",
        "noteNumber": 58,
        "velocity": 0,
        "byte9": true
      },
      {
        "deltaTime": 30,
        "channel": 0,
        "type": "noteOff",
        "noteNumber": 69,
        "velocity": 0,
        "byte9": true
      },
      {
        "deltaTime": 25,
        "channel": 0,
        "type": "noteOff",
        "noteNumber": 62,
        "velocity": 0,
        "byte9": true
      },
      {
        "deltaTime": 15,
        "channel": 0,
        "type": "noteOff",
        "noteNumber": 66,
        "velocity": 0,
        "byte9": true
      },
      {
        "deltaTime": 180,
        "channel": 0,
        "type": "controller",
        "controllerType": 64,
        "value": 127
      },
      {
        "deltaTime": 110,
        "channel": 0,
        "type": "controller",
        "controllerType": 64,
        "value": 0
      },
      {
        "deltaTime": 0,
        "channel": 0,
        "type": "noteOn",
        "noteNumber": 48,
        "velocity": 59
      },
      {
        "deltaTime": 5,
        "channel": 0,
        "type": "noteOn",
        "noteNumber": 60,
        "velocity": 58
      },
      {
        "deltaTime": 0,
        "running": true,
        "channel": 0,
        "type": "noteOn",
        "noteNumber": 65,
        "velocity": 55
      },
      {
        "deltaTime": 5,
        "channel": 0,
        "type": "noteOn",
        "noteNumber": 62,
        "velocity": 47
      },
      {
        "deltaTime": 5,
        "channel": 0,
        "type": "noteOn",
        "noteNumber": 57,
        "velocity": 45
      },
      {
        "deltaTime": 10,
        "channel": 0,
        "type": "noteOn",
        "noteNumber": 41,
        "velocity": 26
      },
      {
        "deltaTime": 5,
        "channel": 0,
        "type": "noteOff",
        "noteNumber": 48,
        "velocity": 0,
        "byte9": true
      },
      {
        "deltaTime": 10,
        "channel": 0,
        "type": "noteOff",
        "noteNumber": 57,
        "velocity": 0,
        "byte9": true
      },
      {
        "deltaTime": 0,
        "running": true,
        "channel": 0,
        "type": "noteOff",
        "noteNumber": 65,
        "velocity": 0,
        "byte9": true
      },
      {
        "deltaTime": 10,
        "channel": 0,
        "type": "noteOff",
        "noteNumber": 62,
        "velocity": 0,
        "byte9": true
      },
      {
        "deltaTime": 5,
        "channel": 0,
        "type": "noteOff",
        "noteNumber": 60,
        "velocity": 0,
        "byte9": true
      },
      {
        "deltaTime": 10,
        "channel": 0,
        "type": "noteOff",
        "noteNumber": 41,
        "velocity": 0,
        "byte9": true
      },
      {
        "deltaTime": 380,
        "channel": 0,
        "type": "noteOn",
        "noteNumber": 45,
        "velocity": 82
      },
      {
        "deltaTime": 555,
        "channel": 0,
        "type": "noteOff",
        "noteNumber": 45,
        "velocity": 0,
        "byte9": true
      },
      {
        "deltaTime": 105,
        "channel": 0,
        "type": "noteOn",
        "noteNumber": 58,
        "velocity": 38
      },
      {
        "deltaTime": 5,
        "channel": 0,
        "type": "noteOn",
        "noteNumber": 46,
        "velocity": 35
      },
      {
        "deltaTime": 100,
        "channel": 0,
        "type": "noteOff",
        "noteNumber": 46,
        "velocity": 0,
        "byte9": true
      },
      {
        "deltaTime": 25,
        "channel": 0,
        "type": "noteOff",
        "noteNumber": 58,
        "velocity": 0,
        "byte9": true
      },
      {
        "deltaTime": 360,
        "channel": 0,
        "type": "noteOn",
        "noteNumber": 47,
        "velocity": 42
      },
      {
        "deltaTime": 0,
        "running": true,
        "channel": 0,
        "type": "noteOn",
        "noteNumber": 59,
        "velocity": 45
      },
      {
        "deltaTime": 95,
        "channel": 0,
        "type": "noteOff",
        "noteNumber": 47,
        "velocity": 0,
        "byte9": true
      },
      {
        "deltaTime": 10,
        "channel": 0,
        "type": "noteOff",
        "noteNumber": 59,
        "velocity": 0,
        "byte9": true
      },
      {
        "deltaTime": 365,
        "channel": 0,
        "type": "noteOn",
        "noteNumber": 60,
        "velocity": 49
      },
      {
        "deltaTime": 5,
        "channel": 0,
        "type": "noteOn",
        "noteNumber": 48,
        "velocity": 33
      },
      {
        "deltaTime": 150,
        "channel": 0,
        "type": "noteOff",
        "noteNumber": 48,
        "velocity": 0,
        "byte9": true
      },
      {
        "deltaTime": 35,
        "channel": 0,
        "type": "noteOff",
        "noteNumber": 60,
        "velocity": 0,
        "byte9": true
      },
      {
        "deltaTime": 10,
        "channel": 0,
        "type": "controller",
        "controllerType": 64,
        "value": 127
      },
      {
        "deltaTime": 535,
        "channel": 0,
        "type": "noteOn",
        "noteNumber": 41,
        "velocity": 50
      },
      {
        "deltaTime": 50,
        "channel": 0,
        "type": "noteOn",
        "noteNumber": 48,
        "velocity": 37
      },
      {
        "deltaTime": 25,
        "channel": 0,
        "type": "noteOn",
        "noteNumber": 62,
        "velocity": 49
      },
      {
        "deltaTime": 30,
        "channel": 0,
        "type": "noteOn",
        "noteNumber": 57,
        "velocity": 50
      },
      {
        "deltaTime": 35,
        "channel": 0,
        "type": "noteOn",
        "noteNumber": 67,
        "velocity": 52
      },
      {
        "deltaTime": 45,
        "channel": 0,
        "type": "noteOff",
        "noteNumber": 62,
        "velocity": 0,
        "byte9": true
      },
      {
        "deltaTime": 30,
        "channel": 0,
        "type": "noteOn",
        "noteNumber": 71,
        "velocity": 56
      },
      {
        "deltaTime": 50,
        "channel": 0,
        "type": "noteOff",
        "noteNumber": 67,
        "velocity": 0,
        "byte9": true
      },
      {
        "deltaTime": 40,
        "channel": 0,
        "type": "noteOff",
        "noteNumber": 71,
        "velocity": 0,
        "byte9": true
      },
      {
        "deltaTime": 10,
        "channel": 0,
        "type": "noteOn",
        "noteNumber": 74,
        "velocity": 58
      },
      {
        "deltaTime": 25,
        "channel": 0,
        "type": "noteOff",
        "noteNumber": 74,
        "velocity": 0,
        "byte9": true
      },
      {
        "deltaTime": 65,
        "channel": 0,
        "type": "noteOn",
        "noteNumber": 79,
        "velocity": 68
      },
      {
        "deltaTime": 90,
        "channel": 0,
        "type": "noteOff",
        "noteNumber": 79,
        "velocity": 0,
        "byte9": true
      },
      {
        "deltaTime": 65,
        "channel": 0,
        "type": "noteOn",
        "noteNumber": 83,
        "velocity": 66
      },
      {
        "deltaTime": 35,
        "channel": 0,
        "type": "noteOff",
        "noteNumber": 83,
        "velocity": 0,
        "byte9": true
      },
      {
        "deltaTime": 110,
        "channel": 0,
        "type": "noteOn",
        "noteNumber": 86,
        "velocity": 61
      },
      {
        "deltaTime": 35,
        "channel": 0,
        "type": "noteOff",
        "noteNumber": 86,
        "velocity": 0,
        "byte9": true
      },
      {
        "deltaTime": 140,
        "channel": 0,
        "type": "noteOn",
        "noteNumber": 91,
        "velocity": 53
      },
      {
        "deltaTime": 35,
        "channel": 0,
        "type": "noteOff",
        "noteNumber": 91,
        "velocity": 0,
        "byte9": true
      },
      {
        "deltaTime": 140,
        "channel": 0,
        "type": "noteOn",
        "noteNumber": 95,
        "velocity": 53
      },
      {
        "deltaTime": 35,
        "channel": 0,
        "type": "noteOff",
        "noteNumber": 95,
        "velocity": 0,
        "byte9": true
      },
      {
        "deltaTime": 135,
        "channel": 0,
        "type": "noteOn",
        "noteNumber": 98,
        "velocity": 57
      },
      {
        "deltaTime": 50,
        "channel": 0,
        "type": "noteOff",
        "noteNumber": 98,
        "velocity": 0,
        "byte9": true
      },
      {
        "deltaTime": 155,
        "channel": 0,
        "type": "noteOn",
        "noteNumber": 103,
        "velocity": 41
      },
      {
        "deltaTime": 185,
        "channel": 0,
        "type": "noteOff",
        "noteNumber": 103,
        "velocity": 0,
        "byte9": true
      },
      {
        "deltaTime": 40,
        "channel": 0,
        "type": "noteOff",
        "noteNumber": 57,
        "velocity": 0,
        "byte9": true
      },
      {
        "deltaTime": 20,
        "channel": 0,
        "type": "noteOff",
        "noteNumber": 41,
        "velocity": 0,
        "byte9": true
      },
      {
        "deltaTime": 5,
        "channel": 0,
        "type": "noteOff",
        "noteNumber": 48,
        "velocity": 0,
        "byte9": true
      },
      {
        "deltaTime": 485,
        "channel": 0,
        "type": "controller",
        "controllerType": 64,
        "value": 0
      },
      { "deltaTime": 975, "meta": true, "type": "endOfTrack" }
    ]
  ]
}
