{
  "header": { "format": 1, "numTracks": 1, "ticksPerBeat": 480 },
  "tracks": [
    [
      {
        "deltaTime": 0,
        "meta": true,
        "type": "timeSignature",
        "numerator": 4,
        "denominator": 4,
        "metronome": 24,
        "thirtyseconds": 8
      },
      {
        "deltaTime": 0,
        "meta": true,
        "type": "keySignature",
        "key": 0,
        "scale": 0
      },
      {
        "deltaTime": 0,
        "meta": true,
        "type": "smpteOffset",
        "frameRate": 25,
        "hour": 0,
        "min": 0,
        "sec": 0,
        "frame": 0,
        "subFrame": 0
      },
      {
        "deltaTime": 0,
        "meta": true,
        "type": "setTempo",
        "microsecondsPerBeat": 983607
      },
      { "deltaTime": 0, "meta": true, "type": "channelPrefix", "channel": 0 },
      {
        "deltaTime": 0,
        "channel": 0,
        "type": "programChange",
        "programNumber": 0
      },
      {
        "deltaTime": 32,
        "channel": 0,
        "type": "noteOn",
        "noteNumber": 39,
        "velocity": 58
      },
      {
        "deltaTime": 0,
        "running": true,
        "channel": 0,
        "type": "noteOn",
        "noteNumber": 82,
        "velocity": 81
      },
      {
        "deltaTime": 4,
        "channel": 0,
        "type": "noteOn",
        "noteNumber": 46,
        "velocity": 52
      },
      {
        "deltaTime": 16,
        "channel": 0,
        "type": "controller",
        "controllerType": 64,
        "value": 127
      },
      {
        "deltaTime": 52,
        "channel": 0,
        "type": "noteOff",
        "noteNumber": 39,
        "velocity": 0,
        "byte9": true
      },
      {
        "deltaTime": 0,
        "running": true,
        "channel": 0,
        "type": "noteOff",
        "noteNumber": 46,
        "velocity": 0,
        "byte9": true
      },
      {
        "deltaTime": 404,
        "channel": 0,
        "type": "noteOn",
        "noteNumber": 65,
        "velocity": 32
      },
      {
        "deltaTime": 8,
        "channel": 0,
        "type": "noteOn",
        "noteNumber": 61,
        "velocity": 34
      },
      {
        "deltaTime": 8,
        "channel": 0,
        "type": "noteOn",
        "noteNumber": 60,
        "velocity": 30
      },
      {
        "deltaTime": 4,
        "channel": 0,
        "type": "noteOn",
        "noteNumber": 55,
        "velocity": 38
      },
      {
        "deltaTime": 16,
        "channel": 0,
        "type": "noteOff",
        "noteNumber": 82,
        "velocity": 0,
        "byte9": true
      },
      {
        "deltaTime": 196,
        "channel": 0,
        "type": "noteOff",
        "noteNumber": 65,
        "velocity": 0,
        "byte9": true
      },
      {
        "deltaTime": 16,
        "channel": 0,
        "type": "noteOff",
        "noteNumber": 60,
        "velocity": 0,
        "byte9": true
      },
      {
        "deltaTime": 8,
        "channel": 0,
        "type": "noteOff",
        "noteNumber": 61,
        "velocity": 0,
        "byte9": true
      },
      {
        "deltaTime": 4,
        "channel": 0,
        "type": "noteOff",
        "noteNumber": 55,
        "velocity": 0,
        "byte9": true
      },
      {
        "deltaTime": 12,
        "channel": 0,
        "type": "noteOn",
        "noteNumber": 84,
        "velocity": 110
      },
      {
        "deltaTime": 148,
        "channel": 0,
        "type": "noteOff",
        "noteNumber": 84,
        "velocity": 0,
        "byte9": true
      },
      {
        "deltaTime": 12,
        "channel": 0,
        "type": "noteOn",
        "noteNumber": 78,
        "velocity": 87
      },
      {
        "deltaTime": 32,
        "channel": 0,
        "type": "controller",
        "controllerType": 64,
        "value": 0
      },
      {
        "deltaTime": 48,
        "channel": 0,
        "type": "noteOn",
        "noteNumber": 45,
        "velocity": 52
      },
      {
        "deltaTime": 36,
        "channel": 0,
        "type": "controller",
        "controllerType": 64,
        "value": 127
      },
      {
        "deltaTime": 80,
        "channel": 0,
        "type": "noteOff",
        "noteNumber": 45,
        "velocity": 0,
        "byte9": true
      },
      {
        "deltaTime": 320,
        "channel": 0,
        "type": "noteOn",
        "noteNumber": 61,
        "velocity": 35
      },
      {
        "deltaTime": 4,
        "channel": 0,
        "type": "noteOn",
        "noteNumber": 65,
        "velocity": 35
      },
      {
        "deltaTime": 8,
        "channel": 0,
        "type": "noteOn",
        "noteNumber": 60,
        "velocity": 17
      },
      {
        "deltaTime": 4,
        "channel": 0,
        "type": "noteOn",
        "noteNumber": 55,
        "velocity": 26
      },
      {
        "deltaTime": 108,
        "channel": 0,
        "type": "noteOff",
        "noteNumber": 65,
        "velocity": 0,
        "byte9": true
      },
      {
        "deltaTime": 4,
        "channel": 0,
        "type": "noteOff",
        "noteNumber": 60,
        "velocity": 0,
        "byte9": true
      },
      {
        "deltaTime": 20,
        "channel": 0,
        "type": "noteOff",
        "noteNumber": 61,
        "velocity": 0,
        "byte9": true
      },
      {
        "deltaTime": 12,
        "channel": 0,
        "type": "noteOff",
        "noteNumber": 55,
        "velocity": 0,
        "byte9": true
      },
      {
        "deltaTime": 324,
        "channel": 0,
        "type": "controller",
        "controllerType": 64,
        "value": 0
      },
      {
        "deltaTime": 0,
        "channel": 0,
        "type": "noteOn",
        "noteNumber": 44,
        "velocity": 57
      },
      {
        "deltaTime": 56,
        "channel": 0,
        "type": "controller",
        "controllerType": 64,
        "value": 127
      },
      {
        "deltaTime": 48,
        "channel": 0,
        "type": "noteOff",
        "noteNumber": 78,
        "velocity": 0,
        "byte9": true
      },
      {
        "deltaTime": 28,
        "channel": 0,
        "type": "noteOff",
        "noteNumber": 44,
        "velocity": 0,
        "byte9": true
      },
      {
        "deltaTime": 360,
        "channel": 0,
        "type": "noteOn",
        "noteNumber": 63,
        "velocity": 53
      },
      {
        "deltaTime": 8,
        "channel": 0,
        "type": "noteOn",
        "noteNumber": 54,
        "velocity": 47
      },
      {
        "deltaTime": 4,
        "channel": 0,
        "type": "noteOn",
        "noteNumber": 58,
        "velocity": 35
      },
      {
        "deltaTime": 0,
        "running": true,
        "channel": 0,
        "type": "noteOn",
        "noteNumber": 59,
        "velocity": 52
      },
      {
        "deltaTime": 8,
        "channel": 0,
        "type": "controller",
        "controllerType": 64,
        "value": 0
      },
      {
        "deltaTime": 56,
        "channel": 0,
        "type": "controller",
        "controllerType": 64,
        "value": 127
      },
      {
        "deltaTime": 92,
        "channel": 0,
        "type": "noteOn",
        "noteNumber": 73,
        "velocity": 87
      },
      {
        "deltaTime": 0,
        "running": true,
        "channel": 0,
        "type": "noteOn",
        "noteNumber": 85,
        "velocity": 88
      },
      {
        "deltaTime": 8,
        "channel": 0,
        "type": "controller",
        "controllerType": 64,
        "value": 0
      },
      {
        "deltaTime": 60,
        "channel": 0,
        "type": "controller",
        "controllerType": 64,
        "value": 127
      },
      {
        "deltaTime": 64,
        "channel": 0,
        "type": "noteOff",
        "noteNumber": 73,
        "velocity": 0,
        "byte9": true
      },
      {
        "deltaTime": 4,
        "channel": 0,
        "type": "noteOff",
        "noteNumber": 85,
        "velocity": 0,
        "byte9": true
      },
      {
        "deltaTime": 8,
        "channel": 0,
        "type": "noteOff",
        "noteNumber": 59,
        "velocity": 0,
        "byte9": true
      },
      {
        "deltaTime": 12,
        "channel": 0,
        "type": "noteOff",
        "noteNumber": 63,
        "velocity": 0,
        "byte9": true
      },
      {
        "deltaTime": 28,
        "channel": 0,
        "type": "noteOff",
        "noteNumber": 58,
        "velocity": 0,
        "byte9": true
      },
      {
        "deltaTime": 0,
        "running": true,
        "channel": 0,
        "type": "noteOn",
        "noteNumber": 82,
        "velocity": 50
      },
      {
        "deltaTime": 4,
        "channel": 0,
        "type": "noteOff",
        "noteNumber": 54,
        "velocity": 0,
        "byte9": true
      },
      {
        "deltaTime": 28,
        "channel": 0,
        "type": "noteOff",
        "noteNumber": 82,
        "velocity": 0,
        "byte9": true
      },
      {
        "deltaTime": 44,
        "channel": 0,
        "type": "noteOn",
        "noteNumber": 85,
        "velocity": 77
      },
      {
        "deltaTime": 8,
        "channel": 0,
        "type": "noteOn",
        "noteNumber": 73,
        "velocity": 75
      },
      {
        "deltaTime": 24,
        "channel": 0,
        "type": "noteOff",
        "noteNumber": 85,
        "velocity": 0,
        "byte9": true
      },
      {
        "deltaTime": 4,
        "channel": 0,
        "type": "noteOff",
        "noteNumber": 73,
        "velocity": 0,
        "byte9": true
      },
      {
        "deltaTime": 40,
        "channel": 0,
        "type": "controller",
        "controllerType": 64,
        "value": 0
      },
      {
        "deltaTime": 12,
        "channel": 0,
        "type": "noteOn",
        "noteNumber": 58,
        "velocity": 35
      },
      {
        "deltaTime": 0,
        "running": true,
        "channel": 0,
        "type": "noteOn",
        "noteNumber": 63,
        "velocity": 43
      },
      {
        "deltaTime": 0,
        "running": true,
        "channel": 0,
        "type": "noteOn",
        "noteNumber": 68,
        "velocity": 74
      },
      {
        "deltaTime": 0,
        "running": true,
        "channel": 0,
        "type": "noteOn",
        "noteNumber": 80,
        "velocity": 64
      },
      {
        "deltaTime": 4,
        "channel": 0,
        "type": "noteOn",
        "noteNumber": 53,
        "velocity": 51
      },
      {
        "deltaTime": 0,
        "running": true,
        "channel": 0,
        "type": "noteOn",
        "noteNumber": 59,
        "velocity": 41
      },
      {
        "deltaTime": 72,
        "channel": 0,
        "type": "controller",
        "controllerType": 64,
        "value": 127
      },
      {
        "deltaTime": 132,
        "channel": 0,
        "type": "noteOff",
        "noteNumber": 59,
        "velocity": 0,
        "byte9": true
      },
      {
        "deltaTime": 8,
        "channel": 0,
        "type": "noteOff",
        "noteNumber": 80,
        "velocity": 0,
        "byte9": true
      },
      {
        "deltaTime": 8,
        "channel": 0,
        "type": "noteOff",
        "noteNumber": 63,
        "velocity": 0,
        "byte9": true
      },
      {
        "deltaTime": 4,
        "channel": 0,
        "type": "noteOff",
        "noteNumber": 53,
        "velocity": 0,
        "byte9": true
      },
      {
        "deltaTime": 8,
        "channel": 0,
        "type": "noteOff",
        "noteNumber": 58,
        "velocity": 0,
        "byte9": true
      },
      {
        "deltaTime": 4,
        "channel": 0,
        "type": "noteOff",
        "noteNumber": 68,
        "velocity": 0,
        "byte9": true
      },
      {
        "deltaTime": 184,
        "channel": 0,
        "type": "controller",
        "controllerType": 64,
        "value": 0
      },
      {
        "deltaTime": 16,
        "channel": 0,
        "type": "noteOn",
        "noteNumber": 58,
        "velocity": 34
      },
      {
        "deltaTime": 0,
        "running": true,
        "channel": 0,
        "type": "noteOn",
        "noteNumber": 73,
        "velocity": 53
      },
      {
        "deltaTime": 0,
        "running": true,
        "channel": 0,
        "type": "noteOn",
        "noteNumber": 79,
        "velocity": 58
      },
      {
        "deltaTime": 4,
        "channel": 0,
        "type": "noteOn",
        "noteNumber": 52,
        "velocity": 46
      },
      {
        "deltaTime": 0,
        "running": true,
        "channel": 0,
        "type": "noteOn",
        "noteNumber": 62,
        "velocity": 37
      },
      {
        "deltaTime": 0,
        "running": true,
        "channel": 0,
        "type": "noteOn",
        "noteNumber": 67,
        "velocity": 44
      },
      {
        "deltaTime": 28,
        "channel": 0,
        "type": "controller",
        "controllerType": 64,
        "value": 127
      },
      {
        "deltaTime": 28,
        "channel": 0,
        "type": "noteOff",
        "noteNumber": 79,
        "velocity": 0,
        "byte9": true
      },
      {
        "deltaTime": 28,
        "channel": 0,
        "type": "noteOff",
        "noteNumber": 73,
        "velocity": 0,
        "byte9": true
      },
      {
        "deltaTime": 32,
        "channel": 0,
        "type": "noteOff",
        "noteNumber": 67,
        "velocity": 0,
        "byte9": true
      },
      {
        "deltaTime": 8,
        "channel": 0,
        "type": "noteOff",
        "noteNumber": 62,
        "velocity": 0,
        "byte9": true
      },
      {
        "deltaTime": 40,
        "channel": 0,
        "type": "noteOff",
        "noteNumber": 58,
        "velocity": 0,
        "byte9": true
      },
      {
        "deltaTime": 28,
        "channel": 0,
        "type": "noteOff",
        "noteNumber": 52,
        "velocity": 0,
        "byte9": true
      },
      {
        "deltaTime": 208,
        "channel": 0,
        "type": "noteOn",
        "noteNumber": 48,
        "velocity": 36
      },
      {
        "deltaTime": 4,
        "channel": 0,
        "type": "noteOn",
        "noteNumber": 60,
        "velocity": 43
      },
      {
        "deltaTime": 20,
        "channel": 0,
        "type": "noteOff",
        "noteNumber": 60,
        "velocity": 0,
        "byte9": true
      },
      {
        "deltaTime": 28,
        "channel": 0,
        "type": "noteOff",
        "noteNumber": 48,
        "velocity": 0,
        "byte9": true
      },
      {
        "deltaTime": 16,
        "channel": 0,
        "type": "noteOn",
        "noteNumber": 60,
        "velocity": 70
      },
      {
        "deltaTime": 4,
        "channel": 0,
        "type": "controller",
        "controllerType": 64,
        "value": 0
      },
      {
        "deltaTime": 4,
        "channel": 0,
        "type": "noteOn",
        "noteNumber": 68,
        "velocity": 76
      },
      {
        "deltaTime": 4,
        "channel": 0,
        "type": "noteOn",
        "noteNumber": 41,
        "velocity": 62
      },
      {
        "deltaTime": 8,
        "channel": 0,
        "type": "noteOn",
        "noteNumber": 56,
        "velocity": 36
      },
      {
        "deltaTime": 4,
        "channel": 0,
        "type": "noteOn",
        "noteNumber": 51,
        "velocity": 31
      },
      {
        "deltaTime": 92,
        "channel": 0,
        "type": "controller",
        "controllerType": 64,
        "value": 127
      },
      {
        "deltaTime": 76,
        "channel": 0,
        "type": "noteOff",
        "noteNumber": 41,
        "velocity": 0,
        "byte9": true
      },
      {
        "deltaTime": 40,
        "channel": 0,
        "type": "noteOff",
        "noteNumber": 51,
        "velocity": 0,
        "byte9": true
      },
      {
        "deltaTime": 0,
        "running": true,
        "channel": 0,
        "type": "noteOff",
        "noteNumber": 60,
        "velocity": 0,
        "byte9": true
      },
      {
        "deltaTime": 20,
        "channel": 0,
        "type": "noteOff",
        "noteNumber": 56,
        "velocity": 0,
        "byte9": true
      },
      {
        "deltaTime": 232,
        "channel": 0,
        "type": "noteOn",
        "noteNumber": 56,
        "velocity": 39
      },
      {
        "deltaTime": 0,
        "running": true,
        "channel": 0,
        "type": "noteOn",
        "noteNumber": 60,
        "velocity": 53
      },
      {
        "deltaTime": 388,
        "channel": 0,
        "type": "noteOff",
        "noteNumber": 56,
        "velocity": 0,
        "byte9": true
      },
      {
        "deltaTime": 16,
        "channel": 0,
        "type": "noteOff",
        "noteNumber": 60,
        "velocity": 0,
        "byte9": true
      },
      {
        "deltaTime": 56,
        "channel": 0,
        "type": "noteOff",
        "noteNumber": 68,
        "velocity": 0,
        "byte9": true
      },
      {
        "deltaTime": 20,
        "channel": 0,
        "type": "noteOn",
        "noteNumber": 52,
        "velocity": 43
      },
      {
        "deltaTime": 0,
        "running": true,
        "channel": 0,
        "type": "noteOn",
        "noteNumber": 56,
        "velocity": 32
      },
      {
        "deltaTime": 4,
        "channel": 0,
        "type": "noteOn",
        "noteNumber": 60,
        "velocity": 46
      },
      {
        "deltaTime": 0,
        "running": true,
        "channel": 0,
        "type": "noteOn",
        "noteNumber": 64,
        "velocity": 44
      },
      {
        "deltaTime": 4,
        "channel": 0,
        "type": "controller",
        "controllerType": 64,
        "value": 0
      },
      {
        "deltaTime": 96,
        "channel": 0,
        "type": "controller",
        "controllerType": 64,
        "value": 127
      },
      {
        "deltaTime": 164,
        "channel": 0,
        "type": "noteOff",
        "noteNumber": 60,
        "velocity": 0,
        "byte9": true
      },
      {
        "deltaTime": 40,
        "channel": 0,
        "type": "noteOff",
        "noteNumber": 56,
        "velocity": 0,
        "byte9": true
      },
      {
        "deltaTime": 28,
        "channel": 0,
        "type": "noteOff",
        "noteNumber": 64,
        "velocity": 0,
        "byte9": true
      },
      {
        "deltaTime": 160,
        "channel": 0,
        "type": "noteOn",
        "noteNumber": 55,
        "velocity": 39
      },
      {
        "deltaTime": 8,
        "channel": 0,
        "type": "noteOff",
        "noteNumber": 52,
        "velocity": 0,
        "byte9": true
      },
      {
        "deltaTime": 112,
        "channel": 0,
        "type": "noteOff",
        "noteNumber": 55,
        "velocity": 0,
        "byte9": true
      },
      {
        "deltaTime": 20,
        "channel": 0,
        "type": "noteOn",
        "noteNumber": 65,
        "velocity": 68
      },
      {
        "deltaTime": 100,
        "channel": 0,
        "type": "noteOff",
        "noteNumber": 65,
        "velocity": 0,
        "byte9": true
      },
      {
        "deltaTime": 68,
        "channel": 0,
        "type": "noteOn",
        "noteNumber": 68,
        "velocity": 61
      },
      {
        "deltaTime": 28,
        "channel": 0,
        "type": "noteOff",
        "noteNumber": 68,
        "velocity": 0,
        "byte9": true
      },
      {
        "deltaTime": 48,
        "channel": 0,
        "type": "noteOn",
        "noteNumber": 70,
        "velocity": 86
      },
      {
        "deltaTime": 44,
        "channel": 0,
        "type": "noteOff",
        "noteNumber": 70,
        "velocity": 0,
        "byte9": true
      },
      {
        "deltaTime": 32,
        "channel": 0,
        "type": "noteOn",
        "noteNumber": 70,
        "velocity": 67
      },
      {
        "deltaTime": 8,
        "channel": 0,
        "type": "noteOn",
        "noteNumber": 63,
        "velocity": 51
      },
      {
        "deltaTime": 4,
        "channel": 0,
        "type": "noteOn",
        "noteNumber": 54,
        "velocity": 55
      },
      {
        "deltaTime": 0,
        "running": true,
        "channel": 0,
        "type": "noteOn",
        "noteNumber": 59,
        "velocity": 62
      },
      {
        "deltaTime": 4,
        "channel": 0,
        "type": "controller",
        "controllerType": 64,
        "value": 0
      },
      {
        "deltaTime": 0,
        "channel": 0,
        "type": "noteOn",
        "noteNumber": 58,
        "velocity": 46
      },
      {
        "deltaTime": 0,
        "running": true,
        "channel": 0,
        "type": "noteOn",
        "noteNumber": 71,
        "velocity": 73
      },
      {
        "deltaTime": 28,
        "channel": 0,
        "type": "noteOff",
        "noteNumber": 70,
        "velocity": 0,
        "byte9": true
      },
      {
        "deltaTime": 132,
        "channel": 0,
        "type": "controller",
        "controllerType": 64,
        "value": 127
      },
      {
        "deltaTime": 116,
        "channel": 0,
        "type": "noteOff",
        "noteNumber": 63,
        "velocity": 0,
        "byte9": true
      },
      {
        "deltaTime": 24,
        "channel": 0,
        "type": "noteOff",
        "noteNumber": 59,
        "velocity": 0,
        "byte9": true
      },
      {
        "deltaTime": 4,
        "channel": 0,
        "type": "noteOff",
        "noteNumber": 58,
        "velocity": 0,
        "byte9": true
      },
      {
        "deltaTime": 172,
        "channel": 0,
        "type": "noteOn",
        "noteNumber": 63,
        "velocity": 28
      },
      {
        "deltaTime": 4,
        "channel": 0,
        "type": "noteOn",
        "noteNumber": 58,
        "velocity": 25
      },
      {
        "deltaTime": 8,
        "channel": 0,
        "type": "noteOn",
        "noteNumber": 59,
        "velocity": 34
      },
      {
        "deltaTime": 76,
        "channel": 0,
        "type": "noteOff",
        "noteNumber": 71,
        "velocity": 0,
        "byte9": true
      },
      {
        "deltaTime": 72,
        "channel": 0,
        "type": "noteOn",
        "noteNumber": 68,
        "velocity": 43
      },
      {
        "deltaTime": 36,
        "channel": 0,
        "type": "noteOff",
        "noteNumber": 59,
        "velocity": 0,
        "byte9": true
      },
      {
        "deltaTime": 20,
        "channel": 0,
        "type": "noteOff",
        "noteNumber": 68,
        "velocity": 0,
        "byte9": true
      },
      {
        "deltaTime": 24,
        "channel": 0,
        "type": "noteOff",
        "noteNumber": 58,
        "velocity": 0,
        "byte9": true
      },
      {
        "deltaTime": 8,
        "channel": 0,
        "type": "noteOn",
        "noteNumber": 71,
        "velocity": 43
      },
      {
        "deltaTime": 4,
        "channel": 0,
        "type": "noteOff",
        "noteNumber": 54,
        "velocity": 0,
        "byte9": true
      },
      {
        "deltaTime": 0,
        "running": true,
        "channel": 0,
        "type": "noteOff",
        "noteNumber": 63,
        "velocity": 0,
        "byte9": true
      },
      {
        "deltaTime": 16,
        "channel": 0,
        "type": "noteOff",
        "noteNumber": 71,
        "velocity": 0,
        "byte9": true
      },
      {
        "deltaTime": 128,
        "channel": 0,
        "type": "noteOn",
        "noteNumber": 66,
        "velocity": 49
      },
      {
        "deltaTime": 4,
        "channel": 0,
        "type": "noteOn",
        "noteNumber": 62,
        "velocity": 52
      },
      {
        "deltaTime": 0,
        "running": true,
        "channel": 0,
        "type": "noteOn",
        "noteNumber": 78,
        "velocity": 69
      },
      {
        "deltaTime": 0,
        "running": true,
        "channel": 0,
        "type": "noteOn",
        "noteNumber": 90,
        "velocity": 72
      },
      {
        "deltaTime": 8,
        "channel": 0,
        "type": "controller",
        "controllerType": 64,
        "value": 0
      },
      {
        "deltaTime": 8,
        "channel": 0,
        "type": "noteOff",
        "noteNumber": 62,
        "velocity": 0,
        "byte9": true
      },
      {
        "deltaTime": 0,
        "running": true,
        "channel": 0,
        "type": "noteOff",
        "noteNumber": 66,
        "velocity": 0,
        "byte9": true
      },
      {
        "deltaTime": 12,
        "channel": 0,
        "type": "noteOff",
        "noteNumber": 78,
        "velocity": 0,
        "byte9": true
      },
      {
        "deltaTime": 4,
        "channel": 0,
        "type": "noteOff",
        "noteNumber": 90,
        "velocity": 0,
        "byte9": true
      },
      {
        "deltaTime": 136,
        "channel": 0,
        "type": "controller",
        "controllerType": 64,
        "value": 127
      },
      {
        "deltaTime": 68,
        "channel": 0,
        "type": "noteOn",
        "noteNumber": 87,
        "velocity": 72
      },
      {
        "deltaTime": 4,
        "channel": 0,
        "type": "noteOn",
        "noteNumber": 75,
        "velocity": 62
      },
      {
        "deltaTime": 4,
        "channel": 0,
        "type": "noteOn",
        "noteNumber": 62,
        "velocity": 46
      },
      {
        "deltaTime": 4,
        "channel": 0,
        "type": "noteOn",
        "noteNumber": 66,
        "velocity": 47
      },
      {
        "deltaTime": 4,
        "channel": 0,
        "type": "noteOn",
        "noteNumber": 56,
        "velocity": 39
      },
      {
        "deltaTime": 200,
        "channel": 0,
        "type": "noteOff",
        "noteNumber": 87,
        "velocity": 0,
        "byte9": true
      },
      {
        "deltaTime": 12,
        "channel": 0,
        "type": "noteOff",
        "noteNumber": 56,
        "velocity": 0,
        "byte9": true
      },
      {
        "deltaTime": 4,
        "channel": 0,
        "type": "noteOff",
        "noteNumber": 62,
        "velocity": 0,
        "byte9": true
      },
      {
        "deltaTime": 0,
        "running": true,
        "channel": 0,
        "type": "noteOff",
        "noteNumber": 66,
        "velocity": 0,
        "byte9": true
      },
      {
        "deltaTime": 4,
        "channel": 0,
        "type": "noteOff",
        "noteNumber": 75,
        "velocity": 0,
        "byte9": true
      },
      {
        "deltaTime": 84,
        "channel": 0,
        "type": "noteOn",
        "noteNumber": 66,
        "velocity": 39
      },
      {
        "deltaTime": 4,
        "channel": 0,
        "type": "noteOn",
        "noteNumber": 85,
        "velocity": 56
      },
      {
        "deltaTime": 8,
        "channel": 0,
        "type": "noteOn",
        "noteNumber": 56,
        "velocity": 27
      },
      {
        "deltaTime": 0,
        "running": true,
        "channel": 0,
        "type": "noteOn",
        "noteNumber": 62,
        "velocity": 29
      },
      {
        "deltaTime": 4,
        "channel": 0,
        "type": "noteOn",
        "noteNumber": 73,
        "velocity": 37
      },
      {
        "deltaTime": 20,
        "channel": 0,
        "type": "noteOff",
        "noteNumber": 62,
        "velocity": 0,
        "byte9": true
      },
      {
        "deltaTime": 8,
        "channel": 0,
        "type": "noteOff",
        "noteNumber": 66,
        "velocity": 0,
        "byte9": true
      },
      {
        "deltaTime": 0,
        "running": true,
        "channel": 0,
        "type": "noteOff",
        "noteNumber": 85,
        "velocity": 0,
        "byte9": true
      },
      {
        "deltaTime": 4,
        "channel": 0,
        "type": "noteOff",
        "noteNumber": 56,
        "velocity": 0,
        "byte9": true
      },
      {
        "deltaTime": 0,
        "running": true,
        "channel": 0,
        "type": "noteOff",
        "noteNumber": 73,
        "velocity": 0,
        "byte9": true
      },
      {
        "deltaTime": 128,
        "channel": 0,
        "type": "noteOn",
        "noteNumber": 66,
        "velocity": 40
      },
      {
        "deltaTime": 0,
        "running": true,
        "channel": 0,
        "type": "noteOn",
        "noteNumber": 68,
        "velocity": 51
      },
      {
        "deltaTime": 4,
        "channel": 0,
        "type": "noteOn",
        "noteNumber": 80,
        "velocity": 36
      },
      {
        "deltaTime": 4,
        "channel": 0,
        "type": "controller",
        "controllerType": 64,
        "value": 0
      },
      {
        "deltaTime": 0,
        "channel": 0,
        "type": "noteOn",
        "noteNumber": 62,
        "velocity": 28
      },
      {
        "deltaTime": 4,
        "channel": 0,
        "type": "noteOn",
        "noteNumber": 56,
        "velocity": 30
      },
      {
        "deltaTime": 40,
        "channel": 0,
        "type": "controller",
        "controllerType": 64,
        "value": 127
      },
      {
        "deltaTime": 68,
        "channel": 0,
        "type": "noteOff",
        "noteNumber": 62,
        "velocity": 0,
        "byte9": true
      },
      {
        "deltaTime": 24,
        "channel": 0,
        "type": "noteOff",
        "noteNumber": 66,
        "velocity": 0,
        "byte9": true
      },
      {
        "deltaTime": 36,
        "channel": 0,
        "type": "noteOff",
        "noteNumber": 68,
        "velocity": 0,
        "byte9": true
      },
      {
        "deltaTime": 4,
        "channel": 0,
        "type": "noteOff",
        "noteNumber": 80,
        "velocity": 0,
        "byte9": true
      },
      {
        "deltaTime": 32,
        "channel": 0,
        "type": "noteOff",
        "noteNumber": 56,
        "velocity": 0,
        "byte9": true
      },
      {
        "deltaTime": 92,
        "channel": 0,
        "type": "controller",
        "controllerType": 64,
        "value": 0
      },
      {
        "deltaTime": 0,
        "channel": 0,
        "type": "noteOn",
        "noteNumber": 67,
        "velocity": 34
      },
      {
        "deltaTime": 0,
        "running": true,
        "channel": 0,
        "type": "noteOn",
        "noteNumber": 79,
        "velocity": 44
      },
      {
        "deltaTime": 8,
        "channel": 0,
        "type": "noteOn",
        "noteNumber": 62,
        "velocity": 29
      },
      {
        "deltaTime": 8,
        "channel": 0,
        "type": "noteOn",
        "noteNumber": 55,
        "velocity": 31
      },
      {
        "deltaTime": 0,
        "running": true,
        "channel": 0,
        "type": "noteOn",
        "noteNumber": 60,
        "velocity": 32
      },
      {
        "deltaTime": 60,
        "channel": 0,
        "type": "controller",
        "controllerType": 64,
        "value": 127
      },
      {
        "deltaTime": 92,
        "channel": 0,
        "type": "noteOff",
        "noteNumber": 79,
        "velocity": 0,
        "byte9": true
      },
      {
        "deltaTime": 128,
        "channel": 0,
        "type": "noteOff",
        "noteNumber": 60,
        "velocity": 0,
        "byte9": true
      },
      {
        "deltaTime": 12,
        "channel": 0,
        "type": "noteOff",
        "noteNumber": 67,
        "velocity": 0,
        "byte9": true
      },
      {
        "deltaTime": 52,
        "channel": 0,
        "type": "noteOff",
        "noteNumber": 62,
        "velocity": 0,
        "byte9": true
      },
      {
        "deltaTime": 124,
        "channel": 0,
        "type": "noteOn",
        "noteNumber": 65,
        "velocity": 32
      },
      {
        "deltaTime": 4,
        "channel": 0,
        "type": "noteOn",
        "noteNumber": 62,
        "velocity": 27
      },
      {
        "deltaTime": 12,
        "channel": 0,
        "type": "noteOn",
        "noteNumber": 60,
        "velocity": 24
      },
      {
        "deltaTime": 44,
        "channel": 0,
        "type": "noteOff",
        "noteNumber": 65,
        "velocity": 0,
        "byte9": true
      },
      {
        "deltaTime": 88,
        "channel": 0,
        "type": "noteOn",
        "noteNumber": 67,
        "velocity": 65
      },
      {
        "deltaTime": 4,
        "channel": 0,
        "type": "noteOff",
        "noteNumber": 60,
        "velocity": 0,
        "byte9": true
      },
      {
        "deltaTime": 4,
        "channel": 0,
        "type": "noteOff",
        "noteNumber": 62,
        "velocity": 0,
        "byte9": true
      },
      {
        "deltaTime": 32,
        "channel": 0,
        "type": "noteOff",
        "noteNumber": 55,
        "velocity": 0,
        "byte9": true
      },
      {
        "deltaTime": 100,
        "channel": 0,
        "type": "noteOn",
        "noteNumber": 68,
        "velocity": 70
      },
      {
        "deltaTime": 20,
        "channel": 0,
        "type": "noteOff",
        "noteNumber": 67,
        "velocity": 0,
        "byte9": true
      },
      {
        "deltaTime": 28,
        "channel": 0,
        "type": "noteOff",
        "noteNumber": 68,
        "velocity": 0,
        "byte9": true
      },
      {
        "deltaTime": 40,
        "channel": 0,
        "type": "noteOn",
        "noteNumber": 70,
        "velocity": 79
      },
      {
        "deltaTime": 40,
        "channel": 0,
        "type": "noteOff",
        "noteNumber": 70,
        "velocity": 0,
        "byte9": true
      },
      {
        "deltaTime": 52,
        "channel": 0,
        "type": "noteOn",
        "noteNumber": 61,
        "velocity": 63
      },
      {
        "deltaTime": 4,
        "channel": 0,
        "type": "noteOn",
        "noteNumber": 75,
        "velocity": 81
      },
      {
        "deltaTime": 4,
        "channel": 0,
        "type": "noteOn",
        "noteNumber": 65,
        "velocity": 58
      },
      {
        "deltaTime": 8,
        "channel": 0,
        "type": "noteOn",
        "noteNumber": 60,
        "velocity": 49
      },
      {
        "deltaTime": 8,
        "channel": 0,
        "type": "controller",
        "controllerType": 64,
        "value": 0
      },
      {
        "deltaTime": 112,
        "channel": 0,
        "type": "controller",
        "controllerType": 64,
        "value": 127
      },
      {
        "deltaTime": 12,
        "channel": 0,
        "type": "noteOff",
        "noteNumber": 60,
        "velocity": 0,
        "byte9": true
      },
      {
        "deltaTime": 0,
        "running": true,
        "channel": 0,
        "type": "noteOff",
        "noteNumber": 75,
        "velocity": 0,
        "byte9": true
      },
      {
        "deltaTime": 24,
        "channel": 0,
        "type": "noteOn",
        "noteNumber": 58,
        "velocity": 48
      },
      {
        "deltaTime": 8,
        "channel": 0,
        "type": "noteOn",
        "noteNumber": 75,
        "velocity": 73
      },
      {
        "deltaTime": 8,
        "channel": 0,
        "type": "controller",
        "controllerType": 64,
        "value": 0
      },
      {
        "deltaTime": 88,
        "channel": 0,
        "type": "controller",
        "controllerType": 64,
        "value": 127
      },
      {
        "deltaTime": 72,
        "channel": 0,
        "type": "noteOff",
        "noteNumber": 65,
        "velocity": 0,
        "byte9": true
      },
      {
        "deltaTime": 48,
        "channel": 0,
        "type": "noteOff",
        "noteNumber": 58,
        "velocity": 0,
        "byte9": true
      },
      {
        "deltaTime": 24,
        "channel": 0,
        "type": "noteOff",
        "noteNumber": 75,
        "velocity": 0,
        "byte9": true
      },
      {
        "deltaTime": 8,
        "channel": 0,
        "type": "noteOff",
        "noteNumber": 61,
        "velocity": 0,
        "byte9": true
      },
      {
        "deltaTime": 40,
        "channel": 0,
        "type": "noteOn",
        "noteNumber": 61,
        "velocity": 21
      },
      {
        "deltaTime": 0,
        "running": true,
        "channel": 0,
        "type": "noteOn",
        "noteNumber": 75,
        "velocity": 35
      },
      {
        "deltaTime": 8,
        "channel": 0,
        "type": "controller",
        "controllerType": 64,
        "value": 0
      },
      {
        "deltaTime": 0,
        "channel": 0,
        "type": "noteOn",
        "noteNumber": 64,
        "velocity": 26
      },
      {
        "deltaTime": 4,
        "channel": 0,
        "type": "noteOn",
        "noteNumber": 57,
        "velocity": 40
      },
      {
        "deltaTime": 0,
        "running": true,
        "channel": 0,
        "type": "noteOn",
        "noteNumber": 67,
        "velocity": 33
      },
      {
        "deltaTime": 16,
        "channel": 0,
        "type": "noteOn",
        "noteNumber": 71,
        "velocity": 33
      },
      {
        "deltaTime": 4,
        "channel": 0,
        "type": "noteOn",
        "noteNumber": 72,
        "velocity": 26
      },
      {
        "deltaTime": 44,
        "channel": 0,
        "type": "controller",
        "controllerType": 64,
        "value": 127
      },
      {
        "deltaTime": 4,
        "channel": 0,
        "type": "noteOff",
        "noteNumber": 72,
        "velocity": 0,
        "byte9": true
      },
      {
        "deltaTime": 80,
        "channel": 0,
        "type": "noteOff",
        "noteNumber": 64,
        "velocity": 0,
        "byte9": true
      },
      {
        "deltaTime": 24,
        "channel": 0,
        "type": "noteOff",
        "noteNumber": 61,
        "velocity": 0,
        "byte9": true
      },
      {
        "deltaTime": 16,
        "channel": 0,
        "type": "noteOff",
        "noteNumber": 57,
        "velocity": 0,
        "byte9": true
      },
      {
        "deltaTime": 28,
        "channel": 0,
        "type": "noteOff",
        "noteNumber": 71,
        "velocity": 0,
        "byte9": true
      },
      {
        "deltaTime": 16,
        "channel": 0,
        "type": "noteOff",
        "noteNumber": 75,
        "velocity": 0,
        "byte9": true
      },
      {
        "deltaTime": 8,
        "channel": 0,
        "type": "noteOff",
        "noteNumber": 67,
        "velocity": 0,
        "byte9": true
      },
      {
        "deltaTime": 148,
        "channel": 0,
        "type": "noteOn",
        "noteNumber": 52,
        "velocity": 42
      },
      {
        "deltaTime": 28,
        "channel": 0,
        "type": "noteOff",
        "noteNumber": 52,
        "velocity": 0,
        "byte9": true
      },
      {
        "deltaTime": 76,
        "channel": 0,
        "type": "controller",
        "controllerType": 64,
        "value": 0
      },
      {
        "deltaTime": 4,
        "channel": 0,
        "type": "noteOn",
        "noteNumber": 63,
        "velocity": 36
      },
      {
        "deltaTime": 8,
        "channel": 0,
        "type": "noteOn",
        "noteNumber": 44,
        "velocity": 44
      },
      {
        "deltaTime": 0,
        "running": true,
        "channel": 0,
        "type": "noteOn",
        "noteNumber": 51,
        "velocity": 43
      },
      {
        "deltaTime": 0,
        "running": true,
        "channel": 0,
        "type": "noteOn",
        "noteNumber": 60,
        "velocity": 40
      },
      {
        "deltaTime": 4,
        "channel": 0,
        "type": "noteOn",
        "noteNumber": 58,
        "velocity": 38
      },
      {
        "deltaTime": 4,
        "channel": 0,
        "type": "noteOn",
        "noteNumber": 53,
        "velocity": 27
      },
      {
        "deltaTime": 8,
        "channel": 0,
        "type": "noteOn",
        "noteNumber": 55,
        "velocity": 19
      },
      {
        "deltaTime": 120,
        "channel": 0,
        "type": "controller",
        "controllerType": 64,
        "value": 127
      },
      {
        "deltaTime": 88,
        "channel": 0,
        "type": "noteOff",
        "noteNumber": 55,
        "velocity": 0,
        "byte9": true
      },
      {
        "deltaTime": 4,
        "channel": 0,
        "type": "noteOff",
        "noteNumber": 53,
        "velocity": 0,
        "byte9": true
      },
      {
        "deltaTime": 68,
        "channel": 0,
        "type": "noteOff",
        "noteNumber": 60,
        "velocity": 0,
        "byte9": true
      },
      {
        "deltaTime": 16,
        "channel": 0,
        "type": "noteOff",
        "noteNumber": 51,
        "velocity": 0,
        "byte9": true
      },
      {
        "deltaTime": 40,
        "channel": 0,
        "type": "noteOff",
        "noteNumber": 58,
        "velocity": 0,
        "byte9": true
      },
      {
        "deltaTime": 132,
        "channel": 0,
        "type": "noteOff",
        "noteNumber": 63,
        "velocity": 0,
        "byte9": true
      },
      {
        "deltaTime": 20,
        "channel": 0,
        "type": "noteOn",
        "noteNumber": 60,
        "velocity": 36
      },
      {
        "deltaTime": 4,
        "channel": 0,
        "type": "noteOn",
        "noteNumber": 58,
        "velocity": 32
      },
      {
        "deltaTime": 8,
        "channel": 0,
        "type": "noteOn",
        "noteNumber": 51,
        "velocity": 31
      },
      {
        "deltaTime": 0,
        "running": true,
        "channel": 0,
        "type": "noteOn",
        "noteNumber": 53,
        "velocity": 32
      },
      {
        "deltaTime": 0,
        "running": true,
        "channel": 0,
        "type": "noteOn",
        "noteNumber": 55,
        "velocity": 32
      },
      {
        "deltaTime": 196,
        "channel": 0,
        "type": "noteOff",
        "noteNumber": 53,
        "velocity": 0,
        "byte9": true
      },
      {
        "deltaTime": 12,
        "channel": 0,
        "type": "noteOff",
        "noteNumber": 55,
        "velocity": 0,
        "byte9": true
      },
      {
        "deltaTime": 28,
        "channel": 0,
        "type": "noteOff",
        "noteNumber": 60,
        "velocity": 0,
        "byte9": true
      },
      {
        "deltaTime": 16,
        "channel": 0,
        "type": "noteOff",
        "noteNumber": 58,
        "velocity": 0,
        "byte9": true
      },
      {
        "deltaTime": 20,
        "channel": 0,
        "type": "noteOff",
        "noteNumber": 44,
        "velocity": 0,
        "byte9": true
      },
      {
        "deltaTime": 12,
        "channel": 0,
        "type": "noteOff",
        "noteNumber": 51,
        "velocity": 0,
        "byte9": true
      },
      {
        "deltaTime": 176,
        "channel": 0,
        "type": "noteOn",
        "noteNumber": 63,
        "velocity": 77
      },
      {
        "deltaTime": 0,
        "running": true,
        "channel": 0,
        "type": "noteOn",
        "noteNumber": 70,
        "velocity": 74
      },
      {
        "deltaTime": 8,
        "channel": 0,
        "type": "controller",
        "controllerType": 64,
        "value": 0
      },
      {
        "deltaTime": 0,
        "channel": 0,
        "type": "noteOn",
        "noteNumber": 59,
        "velocity": 87
      },
      {
        "deltaTime": 0,
        "running": true,
        "channel": 0,
        "type": "noteOn",
        "noteNumber": 65,
        "velocity": 73
      },
      {
        "deltaTime": 4,
        "channel": 0,
        "type": "noteOn",
        "noteNumber": 58,
        "velocity": 86
      },
      {
        "deltaTime": 8,
        "channel": 0,
        "type": "noteOn",
        "noteNumber": 68,
        "velocity": 39
      },
      {
        "deltaTime": 16,
        "channel": 0,
        "type": "noteOff",
        "noteNumber": 68,
        "velocity": 0,
        "byte9": true
      },
      {
        "deltaTime": 104,
        "channel": 0,
        "type": "controller",
        "controllerType": 64,
        "value": 127
      },
      {
        "deltaTime": 152,
        "channel": 0,
        "type": "noteOff",
        "noteNumber": 59,
        "velocity": 0,
        "byte9": true
      },
      {
        "deltaTime": 4,
        "channel": 0,
        "type": "noteOff",
        "noteNumber": 65,
        "velocity": 0,
        "byte9": true
      },
      {
        "deltaTime": 12,
        "channel": 0,
        "type": "noteOff",
        "noteNumber": 63,
        "velocity": 0,
        "byte9": true
      },
      {
        "deltaTime": 52,
        "channel": 0,
        "type": "noteOff",
        "noteNumber": 70,
        "velocity": 0,
        "byte9": true
      },
      {
        "deltaTime": 28,
        "channel": 0,
        "type": "noteOff",
        "noteNumber": 58,
        "velocity": 0,
        "byte9": true
      },
      {
        "deltaTime": 4,
        "channel": 0,
        "type": "noteOn",
        "noteNumber": 59,
        "velocity": 57
      },
      {
        "deltaTime": 0,
        "running": true,
        "channel": 0,
        "type": "noteOn",
        "noteNumber": 63,
        "velocity": 44
      },
      {
        "deltaTime": 4,
        "channel": 0,
        "type": "noteOn",
        "noteNumber": 68,
        "velocity": 54
      },
      {
        "deltaTime": 8,
        "channel": 0,
        "type": "noteOn",
        "noteNumber": 56,
        "velocity": 42
      },
      {
        "deltaTime": 0,
        "running": true,
        "channel": 0,
        "type": "noteOn",
        "noteNumber": 65,
        "velocity": 42
      },
      {
        "deltaTime": 232,
        "channel": 0,
        "type": "noteOff",
        "noteNumber": 56,
        "velocity": 0,
        "byte9": true
      },
      {
        "deltaTime": 64,
        "channel": 0,
        "type": "noteOn",
        "noteNumber": 56,
        "velocity": 60
      },
      {
        "deltaTime": 60,
        "channel": 0,
        "type": "noteOff",
        "noteNumber": 68,
        "velocity": 0,
        "byte9": true
      },
      {
        "deltaTime": 20,
        "channel": 0,
        "type": "noteOff",
        "noteNumber": 65,
        "velocity": 0,
        "byte9": true
      },
      {
        "deltaTime": 16,
        "channel": 0,
        "type": "noteOff",
        "noteNumber": 56,
        "velocity": 0,
        "byte9": true
      },
      {
        "deltaTime": 0,
        "running": true,
        "channel": 0,
        "type": "noteOff",
        "noteNumber": 59,
        "velocity": 0,
        "byte9": true
      },
      {
        "deltaTime": 28,
        "channel": 0,
        "type": "noteOff",
        "noteNumber": 63,
        "velocity": 0,
        "byte9": true
      },
      {
        "deltaTime": 40,
        "channel": 0,
        "type": "noteOn",
        "noteNumber": 46,
        "velocity": 56
      },
      {
        "deltaTime": 4,
        "channel": 0,
        "type": "noteOn",
        "noteNumber": 58,
        "velocity": 57
      },
      {
        "deltaTime": 0,
        "running": true,
        "channel": 0,
        "type": "noteOn",
        "noteNumber": 63,
        "velocity": 50
      },
      {
        "deltaTime": 0,
        "running": true,
        "channel": 0,
        "type": "noteOn",
        "noteNumber": 67,
        "velocity": 57
      },
      {
        "deltaTime": 36,
        "channel": 0,
        "type": "controller",
        "controllerType": 64,
        "value": 0
      },
      {
        "deltaTime": 96,
        "channel": 0,
        "type": "controller",
        "controllerType": 64,
        "value": 127
      },
      {
        "deltaTime": 128,
        "channel": 0,
        "type": "noteOff",
        "noteNumber": 58,
        "velocity": 0,
        "byte9": true
      },
      {
        "deltaTime": 52,
        "channel": 0,
        "type": "noteOn",
        "noteNumber": 58,
        "velocity": 81
      },
      {
        "deltaTime": 288,
        "channel": 0,
        "type": "noteOff",
        "noteNumber": 58,
        "velocity": 0,
        "byte9": true
      },
      {
        "deltaTime": 16,
        "channel": 0,
        "type": "noteOff",
        "noteNumber": 67,
        "velocity": 0,
        "byte9": true
      },
      {
        "deltaTime": 4,
        "channel": 0,
        "type": "noteOff",
        "noteNumber": 63,
        "velocity": 0,
        "byte9": true
      },
      {
        "deltaTime": 72,
        "channel": 0,
        "type": "noteOn",
        "noteNumber": 58,
        "velocity": 62
      },
      {
        "deltaTime": 84,
        "channel": 0,
        "type": "noteOn",
        "noteNumber": 63,
        "velocity": 32
      },
      {
        "deltaTime": 20,
        "channel": 0,
        "type": "noteOff",
        "noteNumber": 63,
        "velocity": 0,
        "byte9": true
      },
      {
        "deltaTime": 48,
        "channel": 0,
        "type": "noteOff",
        "noteNumber": 46,
        "velocity": 0,
        "byte9": true
      },
      {
        "deltaTime": 76,
        "channel": 0,
        "type": "noteOn",
        "noteNumber": 46,
        "velocity": 35
      },
      {
        "deltaTime": 32,
        "channel": 0,
        "type": "noteOff",
        "noteNumber": 58,
        "velocity": 0,
        "byte9": true
      },
      {
        "deltaTime": 44,
        "channel": 0,
        "type": "noteOff",
        "noteNumber": 46,
        "velocity": 0,
        "byte9": true
      },
      {
        "deltaTime": 12,
        "channel": 0,
        "type": "noteOn",
        "noteNumber": 63,
        "velocity": 51
      },
      {
        "deltaTime": 4,
        "channel": 0,
        "type": "noteOn",
        "noteNumber": 58,
        "velocity": 53
      },
      {
        "deltaTime": 0,
        "running": true,
        "channel": 0,
        "type": "noteOn",
        "noteNumber": 59,
        "velocity": 58
      },
      {
        "deltaTime": 0,
        "running": true,
        "channel": 0,
        "type": "noteOn",
        "noteNumber": 70,
        "velocity": 56
      },
      {
        "deltaTime": 4,
        "channel": 0,
        "type": "noteOn",
        "noteNumber": 65,
        "velocity": 49
      },
      {
        "deltaTime": 4,
        "channel": 0,
        "type": "controller",
        "controllerType": 64,
        "value": 0
      },
      {
        "deltaTime": 92,
        "channel": 0,
        "type": "controller",
        "controllerType": 64,
        "value": 127
      },
      {
        "deltaTime": 164,
        "channel": 0,
        "type": "noteOff",
        "noteNumber": 65,
        "velocity": 0,
        "byte9": true
      },
      {
        "deltaTime": 40,
        "channel": 0,
        "type": "noteOff",
        "noteNumber": 59,
        "velocity": 0,
        "byte9": true
      },
      {
        "deltaTime": 16,
        "channel": 0,
        "type": "noteOff",
        "noteNumber": 63,
        "velocity": 0,
        "byte9": true
      },
      {
        "deltaTime": 44,
        "channel": 0,
        "type": "noteOff",
        "noteNumber": 70,
        "velocity": 0,
        "byte9": true
      },
      {
        "deltaTime": 20,
        "channel": 0,
        "type": "noteOn",
        "noteNumber": 68,
        "velocity": 49
      },
      {
        "deltaTime": 4,
        "channel": 0,
        "type": "noteOn",
        "noteNumber": 63,
        "velocity": 33
      },
      {
        "deltaTime": 8,
        "channel": 0,
        "type": "noteOn",
        "noteNumber": 59,
        "velocity": 46
      },
      {
        "deltaTime": 4,
        "channel": 0,
        "type": "noteOn",
        "noteNumber": 46,
        "velocity": 34
      },
      {
        "deltaTime": 12,
        "channel": 0,
        "type": "noteOn",
        "noteNumber": 65,
        "velocity": 25
      },
      {
        "deltaTime": 124,
        "channel": 0,
        "type": "noteOff",
        "noteNumber": 46,
        "velocity": 0,
        "byte9": true
      },
      {
        "deltaTime": 88,
        "channel": 0,
        "type": "noteOn",
        "noteNumber": 46,
        "velocity": 52
      },
      {
        "deltaTime": 20,
        "channel": 0,
        "type": "noteOff",
        "noteNumber": 59,
        "velocity": 0,
        "byte9": true
      },
      {
        "deltaTime": 12,
        "channel": 0,
        "type": "noteOff",
        "noteNumber": 63,
        "velocity": 0,
        "byte9": true
      },
      {
        "deltaTime": 24,
        "channel": 0,
        "type": "noteOff",
        "noteNumber": 58,
        "velocity": 0,
        "byte9": true
      },
      {
        "deltaTime": 12,
        "channel": 0,
        "type": "noteOff",
        "noteNumber": 65,
        "velocity": 0,
        "byte9": true
      },
      {
        "deltaTime": 20,
        "channel": 0,
        "type": "noteOn",
        "noteNumber": 63,
        "velocity": 28
      },
      {
        "deltaTime": 0,
        "running": true,
        "channel": 0,
        "type": "noteOff",
        "noteNumber": 68,
        "velocity": 0,
        "byte9": true
      },
      {
        "deltaTime": 24,
        "channel": 0,
        "type": "noteOn",
        "noteNumber": 59,
        "velocity": 36
      },
      {
        "deltaTime": 88,
        "channel": 0,
        "type": "noteOff",
        "noteNumber": 63,
        "velocity": 0,
        "byte9": true
      },
      {
        "deltaTime": 32,
        "channel": 0,
        "type": "noteOff",
        "noteNumber": 59,
        "velocity": 0,
        "byte9": true
      },
      {
        "deltaTime": 76,
        "channel": 0,
        "type": "noteOff",
        "noteNumber": 46,
        "velocity": 0,
        "byte9": true
      },
      {
        "deltaTime": 28,
        "channel": 0,
        "type": "noteOn",
        "noteNumber": 63,
        "velocity": 44
      },
      {
        "deltaTime": 4,
        "channel": 0,
        "type": "noteOn",
        "noteNumber": 56,
        "velocity": 48
      },
      {
        "deltaTime": 4,
        "channel": 0,
        "type": "noteOn",
        "noteNumber": 46,
        "velocity": 44
      },
      {
        "deltaTime": 0,
        "running": true,
        "channel": 0,
        "type": "noteOn",
        "noteNumber": 65,
        "velocity": 50
      },
      {
        "deltaTime": 4,
        "channel": 0,
        "type": "controller",
        "controllerType": 64,
        "value": 0
      },
      {
        "deltaTime": 0,
        "channel": 0,
        "type": "noteOn",
        "noteNumber": 60,
        "velocity": 53
      },
      {
        "deltaTime": 172,
        "channel": 0,
        "type": "controller",
        "controllerType": 64,
        "value": 127
      },
      {
        "deltaTime": 56,
        "channel": 0,
        "type": "noteOff",
        "noteNumber": 46,
        "velocity": 0,
        "byte9": true
      },
      {
        "deltaTime": 156,
        "channel": 0,
        "type": "noteOn",
        "noteNumber": 34,
        "velocity": 55
      },
      {
        "deltaTime": 0,
        "running": true,
        "channel": 0,
        "type": "noteOn",
        "noteNumber": 46,
        "velocity": 38
      },
      {
        "deltaTime": 32,
        "channel": 0,
        "type": "noteOff",
        "noteNumber": 46,
        "velocity": 0,
        "byte9": true
      },
      {
        "deltaTime": 16,
        "channel": 0,
        "type": "noteOff",
        "noteNumber": 34,
        "velocity": 0,
        "byte9": true
      },
      {
        "deltaTime": 260,
        "channel": 0,
        "type": "noteOn",
        "noteNumber": 22,
        "velocity": 62
      },
      {
        "deltaTime": 16,
        "channel": 0,
        "type": "controller",
        "controllerType": 64,
        "value": 0
      },
      {
        "deltaTime": 28,
        "channel": 0,
        "type": "controller",
        "controllerType": 64,
        "value": 127
      },
      {
        "deltaTime": 132,
        "channel": 0,
        "type": "noteOff",
        "noteNumber": 22,
        "velocity": 0,
        "byte9": true
      },
      {
        "deltaTime": 56,
        "channel": 0,
        "type": "noteOff",
        "noteNumber": 60,
        "velocity": 0,
        "byte9": true
      },
      {
        "deltaTime": 48,
        "channel": 0,
        "type": "noteOff",
        "noteNumber": 56,
        "velocity": 0,
        "byte9": true
      },
      {
        "deltaTime": 60,
        "channel": 0,
        "type": "noteOff",
        "noteNumber": 65,
        "velocity": 0,
        "byte9": true
      },
      {
        "deltaTime": 24,
        "channel": 0,
        "type": "noteOff",
        "noteNumber": 63,
        "velocity": 0,
        "byte9": true
      },
      {
        "deltaTime": 104,
        "channel": 0,
        "type": "controller",
        "controllerType": 64,
        "value": 127
      },
      {
        "deltaTime": 8,
        "channel": 0,
        "type": "controller",
        "controllerType": 64,
        "value": 0
      },
      {
        "deltaTime": 296,
        "channel": 0,
        "type": "noteOn",
        "noteNumber": 59,
        "velocity": 71
      },
      {
        "deltaTime": 0,
        "running": true,
        "channel": 0,
        "type": "noteOn",
        "noteNumber": 63,
        "velocity": 56
      },
      {
        "deltaTime": 0,
        "running": true,
        "channel": 0,
        "type": "noteOn",
        "noteNumber": 68,
        "velocity": 67
      },
      {
        "deltaTime": 12,
        "channel": 0,
        "type": "noteOn",
        "noteNumber": 56,
        "velocity": 50
      },
      {
        "deltaTime": 8,
        "channel": 0,
        "type": "noteOn",
        "noteNumber": 64,
        "velocity": 41
      },
      {
        "deltaTime": 8,
        "channel": 0,
        "type": "controller",
        "controllerType": 64,
        "value": 0
      },
      {
        "deltaTime": 0,
        "channel": 0,
        "type": "noteOn",
        "noteNumber": 65,
        "velocity": 20
      },
      {
        "deltaTime": 16,
        "channel": 0,
        "type": "noteOff",
        "noteNumber": 65,
        "velocity": 0,
        "byte9": true
      },
      {
        "deltaTime": 152,
        "channel": 0,
        "type": "controller",
        "controllerType": 64,
        "value": 127
      },
      {
        "deltaTime": 16,
        "channel": 0,
        "type": "controller",
        "controllerType": 64,
        "value": 127
      },
      {
        "deltaTime": 4,
        "channel": 0,
        "type": "noteOff",
        "noteNumber": 56,
        "velocity": 0,
        "byte9": true
      },
      {
        "deltaTime": 36,
        "channel": 0,
        "type": "controller",
        "controllerType": 64,
        "value": 0
      },
      {
        "deltaTime": 60,
        "channel": 0,
        "type": "noteOff",
        "noteNumber": 59,
        "velocity": 0,
        "byte9": true
      },
      {
        "deltaTime": 12,
        "channel": 0,
        "type": "noteOff",
        "noteNumber": 64,
        "velocity": 0,
        "byte9": true
      },
      {
        "deltaTime": 4,
        "channel": 0,
        "type": "noteOff",
        "noteNumber": 63,
        "velocity": 0,
        "byte9": true
      },
      {
        "deltaTime": 0,
        "running": true,
        "channel": 0,
        "type": "noteOff",
        "noteNumber": 68,
        "velocity": 0,
        "byte9": true
      },
      {
        "deltaTime": 104,
        "channel": 0,
        "type": "controller",
        "controllerType": 64,
        "value": 0
      },
      {
        "deltaTime": 28,
        "channel": 0,
        "type": "noteOn",
        "noteNumber": 39,
        "velocity": 35
      },
      {
        "deltaTime": 8,
        "channel": 0,
        "type": "noteOn",
        "noteNumber": 46,
        "velocity": 34
      },
      {
        "deltaTime": 12,
        "channel": 0,
        "type": "controller",
        "controllerType": 64,
        "value": 127
      },
      {
        "deltaTime": 132,
        "channel": 0,
        "type": "controller",
        "controllerType": 64,
        "value": 0
      },
      {
        "deltaTime": 64,
        "channel": 0,
        "type": "controller",
        "controllerType": 64,
        "value": 127
      },
      {
        "deltaTime": 4,
        "channel": 0,
        "type": "noteOff",
        "noteNumber": 39,
        "velocity": 0,
        "byte9": true
      },
      {
        "deltaTime": 0,
        "running": true,
        "channel": 0,
        "type": "noteOff",
        "noteNumber": 46,
        "velocity": 0,
        "byte9": true
      },
      {
        "deltaTime": 212,
        "channel": 0,
        "type": "controller",
        "controllerType": 64,
        "value": 0
      },
      {
        "deltaTime": 24,
        "channel": 0,
        "type": "noteOn",
        "noteNumber": 70,
        "velocity": 61
      },
      {
        "deltaTime": 4,
        "channel": 0,
        "type": "noteOn",
        "noteNumber": 82,
        "velocity": 58
      },
      {
        "deltaTime": 4,
        "channel": 0,
        "type": "noteOn",
        "noteNumber": 77,
        "velocity": 58
      },
      {
        "deltaTime": 4,
        "channel": 0,
        "type": "noteOn",
        "noteNumber": 62,
        "velocity": 39
      },
      {
        "deltaTime": 0,
        "running": true,
        "channel": 0,
        "type": "noteOn",
        "noteNumber": 65,
        "velocity": 53
      },
      {
        "deltaTime": 4,
        "channel": 0,
        "type": "noteOn",
        "noteNumber": 60,
        "velocity": 43
      },
      {
        "deltaTime": 4,
        "channel": 0,
        "type": "noteOn",
        "noteNumber": 55,
        "velocity": 49
      },
      {
        "deltaTime": 44,
        "channel": 0,
        "type": "controller",
        "controllerType": 64,
        "value": 127
      },
      {
        "deltaTime": 124,
        "channel": 0,
        "type": "noteOff",
        "noteNumber": 70,
        "velocity": 0,
        "byte9": true
      },
      {
        "deltaTime": 16,
        "channel": 0,
        "type": "noteOff",
        "noteNumber": 77,
        "velocity": 0,
        "byte9": true
      },
      {
        "deltaTime": 12,
        "channel": 0,
        "type": "noteOff",
        "noteNumber": 62,
        "velocity": 0,
        "byte9": true
      },
      {
        "deltaTime": 0,
        "running": true,
        "channel": 0,
        "type": "noteOff",
        "noteNumber": 65,
        "velocity": 0,
        "byte9": true
      },
      {
        "deltaTime": 4,
        "channel": 0,
        "type": "noteOff",
        "noteNumber": 55,
        "velocity": 0,
        "byte9": true
      },
      {
        "deltaTime": 8,
        "channel": 0,
        "type": "noteOff",
        "noteNumber": 60,
        "velocity": 0,
        "byte9": true
      },
      {
        "deltaTime": 0,
        "running": true,
        "channel": 0,
        "type": "noteOff",
        "noteNumber": 82,
        "velocity": 0,
        "byte9": true
      },
      {
        "deltaTime": 260,
        "channel": 0,
        "type": "noteOn",
        "noteNumber": 81,
        "velocity": 68
      },
      {
        "deltaTime": 0,
        "running": true,
        "channel": 0,
        "type": "noteOn",
        "noteNumber": 93,
        "velocity": 75
      },
      {
        "deltaTime": 4,
        "channel": 0,
        "type": "controller",
        "controllerType": 64,
        "value": 0
      },
      {
        "deltaTime": 4,
        "channel": 0,
        "type": "noteOn",
        "noteNumber": 61,
        "velocity": 58
      },
      {
        "deltaTime": 0,
        "running": true,
        "channel": 0,
        "type": "noteOn",
        "noteNumber": 66,
        "velocity": 59
      },
      {
        "deltaTime": 0,
        "running": true,
        "channel": 0,
        "type": "noteOn",
        "noteNumber": 88,
        "velocity": 53
      },
      {
        "deltaTime": 4,
        "channel": 0,
        "type": "noteOn",
        "noteNumber": 55,
        "velocity": 59
      },
      {
        "deltaTime": 212,
        "channel": 0,
        "type": "controller",
        "controllerType": 64,
        "value": 127
      },
      {
        "deltaTime": 64,
        "channel": 0,
        "type": "noteOff",
        "noteNumber": 93,
        "velocity": 0,
        "byte9": true
      },
      {
        "deltaTime": 16,
        "channel": 0,
        "type": "noteOff",
        "noteNumber": 88,
        "velocity": 0,
        "byte9": true
      },
      {
        "deltaTime": 4,
        "channel": 0,
        "type": "noteOff",
        "noteNumber": 81,
        "velocity": 0,
        "byte9": true
      },
      {
        "deltaTime": 12,
        "channel": 0,
        "type": "noteOff",
        "noteNumber": 55,
        "velocity": 0,
        "byte9": true
      },
      {
        "deltaTime": 20,
        "channel": 0,
        "type": "noteOff",
        "noteNumber": 66,
        "velocity": 0,
        "byte9": true
      },
      {
        "deltaTime": 8,
        "channel": 0,
        "type": "noteOff",
        "noteNumber": 61,
        "velocity": 0,
        "byte9": true
      },
      {
        "deltaTime": 180,
        "channel": 0,
        "type": "controller",
        "controllerType": 64,
        "value": 0
      },
      {
        "deltaTime": 108,
        "channel": 0,
        "type": "noteOn",
        "noteNumber": 61,
        "velocity": 49
      },
      {
        "deltaTime": 24,
        "channel": 0,
        "type": "noteOff",
        "noteNumber": 61,
        "velocity": 0,
        "byte9": true
      },
      {
        "deltaTime": 48,
        "channel": 0,
        "type": "noteOn",
        "noteNumber": 61,
        "velocity": 62
      },
      {
        "deltaTime": 0,
        "running": true,
        "channel": 0,
        "type": "noteOn",
        "noteNumber": 76,
        "velocity": 69
      },
      {
        "deltaTime": 0,
        "running": true,
        "channel": 0,
        "type": "noteOn",
        "noteNumber": 80,
        "velocity": 69
      },
      {
        "deltaTime": 4,
        "channel": 0,
        "type": "noteOn",
        "noteNumber": 66,
        "velocity": 64
      },
      {
        "deltaTime": 4,
        "channel": 0,
        "type": "noteOn",
        "noteNumber": 55,
        "velocity": 64
      },
      {
        "deltaTime": 0,
        "running": true,
        "channel": 0,
        "type": "noteOn",
        "noteNumber": 84,
        "velocity": 58
      },
      {
        "deltaTime": 0,
        "running": true,
        "channel": 0,
        "type": "noteOn",
        "noteNumber": 88,
        "velocity": 51
      },
      {
        "deltaTime": 36,
        "channel": 0,
        "type": "noteOff",
        "noteNumber": 80,
        "velocity": 0,
        "byte9": true
      },
      {
        "deltaTime": 4,
        "channel": 0,
        "type": "noteOn",
        "noteNumber": 81,
        "velocity": 44
      },
      {
        "deltaTime": 16,
        "channel": 0,
        "type": "noteOff",
        "noteNumber": 55,
        "velocity": 0,
        "byte9": true
      },
      {
        "deltaTime": 24,
        "channel": 0,
        "type": "noteOff",
        "noteNumber": 88,
        "velocity": 0,
        "byte9": true
      },
      {
        "deltaTime": 4,
        "channel": 0,
        "type": "noteOff",
        "noteNumber": 76,
        "velocity": 0,
        "byte9": true
      },
      {
        "deltaTime": 4,
        "channel": 0,
        "type": "noteOff",
        "noteNumber": 84,
        "velocity": 0,
        "byte9": true
      },
      {
        "deltaTime": 4,
        "channel": 0,
        "type": "noteOff",
        "noteNumber": 66,
        "velocity": 0,
        "byte9": true
      },
      {
        "deltaTime": 0,
        "running": true,
        "channel": 0,
        "type": "noteOff",
        "noteNumber": 81,
        "velocity": 0,
        "byte9": true
      },
      {
        "deltaTime": 28,
        "channel": 0,
        "type": "noteOff",
        "noteNumber": 61,
        "velocity": 0,
        "byte9": true
      },
      {
        "deltaTime": 112,
        "channel": 0,
        "type": "noteOn",
        "noteNumber": 70,
        "velocity": 60
      },
      {
        "deltaTime": 4,
        "channel": 0,
        "type": "noteOn",
        "noteNumber": 63,
        "velocity": 47
      },
      {
        "deltaTime": 0,
        "running": true,
        "channel": 0,
        "type": "noteOn",
        "noteNumber": 82,
        "velocity": 57
      },
      {
        "deltaTime": 8,
        "channel": 0,
        "type": "noteOn",
        "noteNumber": 54,
        "velocity": 37
      },
      {
        "deltaTime": 0,
        "running": true,
        "channel": 0,
        "type": "noteOn",
        "noteNumber": 59,
        "velocity": 51
      },
      {
        "deltaTime": 4,
        "channel": 0,
        "type": "noteOn",
        "noteNumber": 58,
        "velocity": 33
      },
      {
        "deltaTime": 192,
        "channel": 0,
        "type": "controller",
        "controllerType": 64,
        "value": 127
      },
      {
        "deltaTime": 192,
        "channel": 0,
        "type": "noteOff",
        "noteNumber": 63,
        "velocity": 0,
        "byte9": true
      },
      {
        "deltaTime": 28,
        "channel": 0,
        "type": "noteOff",
        "noteNumber": 54,
        "velocity": 0,
        "byte9": true
      },
      {
        "deltaTime": 12,
        "channel": 0,
        "type": "noteOff",
        "noteNumber": 59,
        "velocity": 0,
        "byte9": true
      },
      {
        "deltaTime": 32,
        "channel": 0,
        "type": "noteOn",
        "noteNumber": 63,
        "velocity": 48
      },
      {
        "deltaTime": 4,
        "channel": 0,
        "type": "controller",
        "controllerType": 64,
        "value": 0
      },
      {
        "deltaTime": 0,
        "channel": 0,
        "type": "noteOff",
        "noteNumber": 70,
        "velocity": 0,
        "byte9": true
      },
      {
        "deltaTime": 4,
        "channel": 0,
        "type": "noteOn",
        "noteNumber": 59,
        "velocity": 39
      },
      {
        "deltaTime": 4,
        "channel": 0,
        "type": "noteOn",
        "noteNumber": 53,
        "velocity": 37
      },
      {
        "deltaTime": 0,
        "running": true,
        "channel": 0,
        "type": "noteOff",
        "noteNumber": 82,
        "velocity": 0,
        "byte9": true
      },
      {
        "deltaTime": 168,
        "channel": 0,
        "type": "controller",
        "controllerType": 64,
        "value": 127
      },
      {
        "deltaTime": 56,
        "channel": 0,
        "type": "noteOff",
        "noteNumber": 59,
        "velocity": 0,
        "byte9": true
      },
      {
        "deltaTime": 4,
        "channel": 0,
        "type": "noteOff",
        "noteNumber": 63,
        "velocity": 0,
        "byte9": true
      },
      {
        "deltaTime": 24,
        "channel": 0,
        "type": "noteOff",
        "noteNumber": 58,
        "velocity": 0,
        "byte9": true
      },
      {
        "deltaTime": 8,
        "channel": 0,
        "type": "noteOff",
        "noteNumber": 53,
        "velocity": 0,
        "byte9": true
      },
      {
        "deltaTime": 76,
        "channel": 0,
        "type": "controller",
        "controllerType": 64,
        "value": 0
      },
      {
        "deltaTime": 280,
        "channel": 0,
        "type": "noteOn",
        "noteNumber": 70,
        "velocity": 62
      },
      {
        "deltaTime": 4,
        "channel": 0,
        "type": "noteOn",
        "noteNumber": 55,
        "velocity": 64
      },
      {
        "deltaTime": 4,
        "channel": 0,
        "type": "noteOn",
        "noteNumber": 65,
        "velocity": 52
      },
      {
        "deltaTime": 12,
        "channel": 0,
        "type": "noteOff",
        "noteNumber": 55,
        "velocity": 0,
        "byte9": true
      },
      {
        "deltaTime": 0,
        "running": true,
        "channel": 0,
        "type": "noteOff",
        "noteNumber": 65,
        "velocity": 0,
        "byte9": true
      },
      {
        "deltaTime": 20,
        "channel": 0,
        "type": "noteOff",
        "noteNumber": 70,
        "velocity": 0,
        "byte9": true
      },
      {
        "deltaTime": 140,
        "channel": 0,
        "type": "noteOn",
        "noteNumber": 72,
        "velocity": 69
      },
      {
        "deltaTime": 4,
        "channel": 0,
        "type": "noteOn",
        "noteNumber": 64,
        "velocity": 71
      },
      {
        "deltaTime": 0,
        "running": true,
        "channel": 0,
        "type": "noteOn",
        "noteNumber": 66,
        "velocity": 48
      },
      {
        "deltaTime": 0,
        "running": true,
        "channel": 0,
        "type": "noteOn",
        "noteNumber": 68,
        "velocity": 63
      },
      {
        "deltaTime": 8,
        "channel": 0,
        "type": "noteOn",
        "noteNumber": 60,
        "velocity": 64
      },
      {
        "deltaTime": 8,
        "channel": 0,
        "type": "noteOff",
        "noteNumber": 66,
        "velocity": 0,
        "byte9": true
      },
      {
        "deltaTime": 8,
        "channel": 0,
        "type": "noteOff",
        "noteNumber": 64,
        "velocity": 0,
        "byte9": true
      },
      {
        "deltaTime": 8,
        "channel": 0,
        "type": "noteOff",
        "noteNumber": 68,
        "velocity": 0,
        "byte9": true
      },
      {
        "deltaTime": 0,
        "running": true,
        "channel": 0,
        "type": "noteOff",
        "noteNumber": 72,
        "velocity": 0,
        "byte9": true
      },
      {
        "deltaTime": 20,
        "channel": 0,
        "type": "noteOff",
        "noteNumber": 60,
        "velocity": 0,
        "byte9": true
      },
      {
        "deltaTime": 84,
        "channel": 0,
        "type": "noteOn",
        "noteNumber": 73,
        "velocity": 85
      },
      {
        "deltaTime": 4,
        "channel": 0,
        "type": "noteOn",
        "noteNumber": 64,
        "velocity": 84
      },
      {
        "deltaTime": 0,
        "running": true,
        "channel": 0,
        "type": "noteOn",
        "noteNumber": 68,
        "velocity": 77
      },
      {
        "deltaTime": 0,
        "running": true,
        "channel": 0,
        "type": "noteOn",
        "noteNumber": 70,
        "velocity": 74
      },
      {
        "deltaTime": 8,
        "channel": 0,
        "type": "noteOn",
        "noteNumber": 61,
        "velocity": 76
      },
      {
        "deltaTime": 100,
        "channel": 0,
        "type": "noteOff",
        "noteNumber": 73,
        "velocity": 0,
        "byte9": true
      },
      {
        "deltaTime": 4,
        "channel": 0,
        "type": "controller",
        "controllerType": 64,
        "value": 127
      },
      {
        "deltaTime": 4,
        "channel": 0,
        "type": "noteOff",
        "noteNumber": 64,
        "velocity": 0,
        "byte9": true
      },
      {
        "deltaTime": 8,
        "channel": 0,
        "type": "noteOff",
        "noteNumber": 68,
        "velocity": 0,
        "byte9": true
      },
      {
        "deltaTime": 4,
        "channel": 0,
        "type": "noteOff",
        "noteNumber": 70,
        "velocity": 0,
        "byte9": true
      },
      {
        "deltaTime": 12,
        "channel": 0,
        "type": "controller",
        "controllerType": 64,
        "value": 0
      },
      {
        "deltaTime": 8,
        "channel": 0,
        "type": "noteOn",
        "noteNumber": 63,
        "velocity": 74
      },
      {
        "deltaTime": 0,
        "running": true,
        "channel": 0,
        "type": "noteOn",
        "noteNumber": 68,
        "velocity": 73
      },
      {
        "deltaTime": 4,
        "channel": 0,
        "type": "noteOn",
        "noteNumber": 64,
        "velocity": 72
      },
      {
        "deltaTime": 0,
        "running": true,
        "channel": 0,
        "type": "noteOn",
        "noteNumber": 70,
        "velocity": 80
      },
      {
        "deltaTime": 0,
        "running": true,
        "channel": 0,
        "type": "noteOn",
        "noteNumber": 75,
        "velocity": 79
      },
      {
        "deltaTime": 8,
        "channel": 0,
        "type": "noteOff",
        "noteNumber": 61,
        "velocity": 0,
        "byte9": true
      },
      {
        "deltaTime": 48,
        "channel": 0,
        "type": "noteOff",
        "noteNumber": 64,
        "velocity": 0,
        "byte9": true
      },
      {
        "deltaTime": 0,
        "running": true,
        "channel": 0,
        "type": "noteOff",
        "noteNumber": 70,
        "velocity": 0,
        "byte9": true
      },
      {
        "deltaTime": 8,
        "channel": 0,
        "type": "noteOff",
        "noteNumber": 63,
        "velocity": 0,
        "byte9": true
      },
      {
        "deltaTime": 0,
        "running": true,
        "channel": 0,
        "type": "noteOff",
        "noteNumber": 68,
        "velocity": 0,
        "byte9": true
      },
      {
        "deltaTime": 0,
        "running": true,
        "channel": 0,
        "type": "noteOff",
        "noteNumber": 75,
        "velocity": 0,
        "byte9": true
      },
      {
        "deltaTime": 24,
        "channel": 0,
        "type": "noteOn",
        "noteNumber": 61,
        "velocity": 56
      },
      {
        "deltaTime": 8,
        "channel": 0,
        "type": "noteOn",
        "noteNumber": 68,
        "velocity": 42
      },
      {
        "deltaTime": 0,
        "running": true,
        "channel": 0,
        "type": "noteOn",
        "noteNumber": 73,
        "velocity": 60
      },
      {
        "deltaTime": 8,
        "channel": 0,
        "type": "noteOn",
        "noteNumber": 64,
        "velocity": 57
      },
      {
        "deltaTime": 8,
        "channel": 0,
        "type": "noteOn",
        "noteNumber": 70,
        "velocity": 30
      },
      {
        "deltaTime": 52,
        "channel": 0,
        "type": "noteOff",
        "noteNumber": 64,
        "velocity": 0,
        "byte9": true
      },
      {
        "deltaTime": 0,
        "running": true,
        "channel": 0,
        "type": "noteOff",
        "noteNumber": 70,
        "velocity": 0,
        "byte9": true
      },
      {
        "deltaTime": 8,
        "channel": 0,
        "type": "noteOff",
        "noteNumber": 68,
        "velocity": 0,
        "byte9": true
      },
      {
        "deltaTime": 8,
        "channel": 0,
        "type": "noteOff",
        "noteNumber": 73,
        "velocity": 0,
        "byte9": true
      },
      {
        "deltaTime": 12,
        "channel": 0,
        "type": "noteOff",
        "noteNumber": 61,
        "velocity": 0,
        "byte9": true
      },
      {
        "deltaTime": 48,
        "channel": 0,
        "type": "controller",
        "controllerType": 64,
        "value": 127
      },
      {
        "deltaTime": 24,
        "channel": 0,
        "type": "noteOn",
        "noteNumber": 56,
        "velocity": 37
      },
      {
        "deltaTime": 8,
        "channel": 0,
        "type": "controller",
        "controllerType": 64,
        "value": 0
      },
      {
        "deltaTime": 36,
        "channel": 0,
        "type": "noteOff",
        "noteNumber": 56,
        "velocity": 0,
        "byte9": true
      },
      {
        "deltaTime": 20,
        "channel": 0,
        "type": "noteOn",
        "noteNumber": 60,
        "velocity": 44
      },
      {
        "deltaTime": 0,
        "running": true,
        "channel": 0,
        "type": "noteOn",
        "noteNumber": 65,
        "velocity": 41
      },
      {
        "deltaTime": 8,
        "channel": 0,
        "type": "noteOn",
        "noteNumber": 72,
        "velocity": 51
      },
      {
        "deltaTime": 4,
        "channel": 0,
        "type": "noteOn",
        "noteNumber": 68,
        "velocity": 36
      },
      {
        "deltaTime": 20,
        "channel": 0,
        "type": "noteOff",
        "noteNumber": 68,
        "velocity": 0,
        "byte9": true
      },
      {
        "deltaTime": 64,
        "channel": 0,
        "type": "noteOff",
        "noteNumber": 65,
        "velocity": 0,
        "byte9": true
      },
      {
        "deltaTime": 16,
        "channel": 0,
        "type": "noteOff",
        "noteNumber": 72,
        "velocity": 0,
        "byte9": true
      },
      {
        "deltaTime": 4,
        "channel": 0,
        "type": "noteOff",
        "noteNumber": 60,
        "velocity": 0,
        "byte9": true
      },
      {
        "deltaTime": 40,
        "channel": 0,
        "type": "noteOn",
        "noteNumber": 68,
        "velocity": 49
      },
      {
        "deltaTime": 12,
        "channel": 0,
        "type": "noteOn",
        "noteNumber": 56,
        "velocity": 38
      },
      {
        "deltaTime": 0,
        "running": true,
        "channel": 0,
        "type": "noteOn",
        "noteNumber": 65,
        "velocity": 36
      },
      {
        "deltaTime": 4,
        "channel": 0,
        "type": "noteOn",
        "noteNumber": 60,
        "velocity": 31
      },
      {
        "deltaTime": 12,
        "channel": 0,
        "type": "noteOff",
        "noteNumber": 65,
        "velocity": 0,
        "byte9": true
      },
      {
        "deltaTime": 4,
        "channel": 0,
        "type": "noteOff",
        "noteNumber": 56,
        "velocity": 0,
        "byte9": true
      },
      {
        "deltaTime": 4,
        "channel": 0,
        "type": "noteOff",
        "noteNumber": 60,
        "velocity": 0,
        "byte9": true
      },
      {
        "deltaTime": 8,
        "channel": 0,
        "type": "noteOff",
        "noteNumber": 68,
        "velocity": 0,
        "byte9": true
      },
      {
        "deltaTime": 940,
        "channel": 0,
        "type": "noteOn",
        "noteNumber": 61,
        "velocity": 30
      },
      {
        "deltaTime": 28,
        "channel": 0,
        "type": "noteOff",
        "noteNumber": 61,
        "velocity": 0,
        "byte9": true
      },
      {
        "deltaTime": 32,
        "channel": 0,
        "type": "noteOn",
        "noteNumber": 63,
        "velocity": 48
      },
      {
        "deltaTime": 0,
        "running": true,
        "channel": 0,
        "type": "noteOn",
        "noteNumber": 68,
        "velocity": 47
      },
      {
        "deltaTime": 0,
        "running": true,
        "channel": 0,
        "type": "noteOn",
        "noteNumber": 75,
        "velocity": 56
      },
      {
        "deltaTime": 4,
        "channel": 0,
        "type": "noteOn",
        "noteNumber": 64,
        "velocity": 30
      },
      {
        "deltaTime": 4,
        "channel": 0,
        "type": "noteOn",
        "noteNumber": 72,
        "velocity": 48
      },
      {
        "deltaTime": 88,
        "channel": 0,
        "type": "noteOff",
        "noteNumber": 64,
        "velocity": 0,
        "byte9": true
      },
      {
        "deltaTime": 4,
        "channel": 0,
        "type": "noteOff",
        "noteNumber": 68,
        "velocity": 0,
        "byte9": true
      },
      {
        "deltaTime": 0,
        "running": true,
        "channel": 0,
        "type": "noteOff",
        "noteNumber": 72,
        "velocity": 0,
        "byte9": true
      },
      {
        "deltaTime": 12,
        "channel": 0,
        "type": "noteOff",
        "noteNumber": 75,
        "velocity": 0,
        "byte9": true
      },
      {
        "deltaTime": 12,
        "channel": 0,
        "type": "noteOff",
        "noteNumber": 63,
        "velocity": 0,
        "byte9": true
      },
      {
        "deltaTime": 44,
        "channel": 0,
        "type": "noteOn",
        "noteNumber": 61,
        "velocity": 34
      },
      {
        "deltaTime": 0,
        "running": true,
        "channel": 0,
        "type": "noteOn",
        "noteNumber": 75,
        "velocity": 55
      },
      {
        "deltaTime": 4,
        "channel": 0,
        "type": "noteOn",
        "noteNumber": 64,
        "velocity": 50
      },
      {
        "deltaTime": 0,
        "running": true,
        "channel": 0,
        "type": "noteOn",
        "noteNumber": 68,
        "velocity": 53
      },
      {
        "deltaTime": 8,
        "channel": 0,
        "type": "noteOn",
        "noteNumber": 72,
        "velocity": 44
      },
      {
        "deltaTime": 8,
        "channel": 0,
        "type": "noteOn",
        "noteNumber": 63,
        "velocity": 53
      },
      {
        "deltaTime": 12,
        "channel": 0,
        "type": "noteOff",
        "noteNumber": 61,
        "velocity": 0,
        "byte9": true
      },
      {
        "deltaTime": 56,
        "channel": 0,
        "type": "noteOff",
        "noteNumber": 64,
        "velocity": 0,
        "byte9": true
      },
      {
        "deltaTime": 4,
        "channel": 0,
        "type": "noteOff",
        "noteNumber": 68,
        "velocity": 0,
        "byte9": true
      },
      {
        "deltaTime": 4,
        "channel": 0,
        "type": "noteOff",
        "noteNumber": 72,
        "velocity": 0,
        "byte9": true
      },
      {
        "deltaTime": 8,
        "channel": 0,
        "type": "noteOff",
        "noteNumber": 75,
        "velocity": 0,
        "byte9": true
      },
      {
        "deltaTime": 8,
        "channel": 0,
        "type": "noteOff",
        "noteNumber": 63,
        "velocity": 0,
        "byte9": true
      },
      {
        "deltaTime": 52,
        "channel": 0,
        "type": "noteOn",
        "noteNumber": 68,
        "velocity": 46
      },
      {
        "deltaTime": 0,
        "running": true,
        "channel": 0,
        "type": "noteOn",
        "noteNumber": 75,
        "velocity": 45
      },
      {
        "deltaTime": 4,
        "channel": 0,
        "type": "noteOn",
        "noteNumber": 64,
        "velocity": 35
      },
      {
        "deltaTime": 4,
        "channel": 0,
        "type": "noteOn",
        "noteNumber": 63,
        "velocity": 52
      },
      {
        "deltaTime": 0,
        "running": true,
        "channel": 0,
        "type": "noteOn",
        "noteNumber": 72,
        "velocity": 42
      },
      {
        "deltaTime": 80,
        "channel": 0,
        "type": "noteOff",
        "noteNumber": 72,
        "velocity": 0,
        "byte9": true
      },
      {
        "deltaTime": 8,
        "channel": 0,
        "type": "noteOff",
        "noteNumber": 68,
        "velocity": 0,
        "byte9": true
      },
      {
        "deltaTime": 12,
        "channel": 0,
        "type": "noteOff",
        "noteNumber": 64,
        "velocity": 0,
        "byte9": true
      },
      {
        "deltaTime": 28,
        "channel": 0,
        "type": "noteOff",
        "noteNumber": 75,
        "velocity": 0,
        "byte9": true
      },
      {
        "deltaTime": 24,
        "channel": 0,
        "type": "noteOff",
        "noteNumber": 63,
        "velocity": 0,
        "byte9": true
      },
      {
        "deltaTime": 8,
        "channel": 0,
        "type": "noteOn",
        "noteNumber": 64,
        "velocity": 53
      },
      {
        "deltaTime": 0,
        "running": true,
        "channel": 0,
        "type": "noteOn",
        "noteNumber": 68,
        "velocity": 53
      },
      {
        "deltaTime": 0,
        "running": true,
        "channel": 0,
        "type": "noteOn",
        "noteNumber": 73,
        "velocity": 56
      },
      {
        "deltaTime": 12,
        "channel": 0,
        "type": "noteOn",
        "noteNumber": 61,
        "velocity": 44
      },
      {
        "deltaTime": 152,
        "channel": 0,
        "type": "noteOff",
        "noteNumber": 64,
        "velocity": 0,
        "byte9": true
      },
      {
        "deltaTime": 12,
        "channel": 0,
        "type": "noteOff",
        "noteNumber": 61,
        "velocity": 0,
        "byte9": true
      },
      {
        "deltaTime": 8,
        "channel": 0,
        "type": "noteOn",
        "noteNumber": 56,
        "velocity": 28
      },
      {
        "deltaTime": 12,
        "channel": 0,
        "type": "noteOff",
        "noteNumber": 68,
        "velocity": 0,
        "byte9": true
      },
      {
        "deltaTime": 0,
        "running": true,
        "channel": 0,
        "type": "noteOff",
        "noteNumber": 73,
        "velocity": 0,
        "byte9": true
      },
      {
        "deltaTime": 48,
        "channel": 0,
        "type": "noteOff",
        "noteNumber": 56,
        "velocity": 0,
        "byte9": true
      },
      {
        "deltaTime": 4,
        "channel": 0,
        "type": "noteOn",
        "noteNumber": 68,
        "velocity": 32
      },
      {
        "deltaTime": 0,
        "running": true,
        "channel": 0,
        "type": "noteOn",
        "noteNumber": 72,
        "velocity": 44
      },
      {
        "deltaTime": 4,
        "channel": 0,
        "type": "noteOn",
        "noteNumber": 65,
        "velocity": 31
      },
      {
        "deltaTime": 28,
        "channel": 0,
        "type": "noteOn",
        "noteNumber": 60,
        "velocity": 11
      },
      {
        "deltaTime": 92,
        "channel": 0,
        "type": "noteOff",
        "noteNumber": 72,
        "velocity": 0,
        "byte9": true
      },
      {
        "deltaTime": 8,
        "channel": 0,
        "type": "noteOff",
        "noteNumber": 60,
        "velocity": 0,
        "byte9": true
      },
      {
        "deltaTime": 0,
        "running": true,
        "channel": 0,
        "type": "noteOff",
        "noteNumber": 65,
        "velocity": 0,
        "byte9": true
      },
      {
        "deltaTime": 0,
        "running": true,
        "channel": 0,
        "type": "noteOff",
        "noteNumber": 68,
        "velocity": 0,
        "byte9": true
      },
      {
        "deltaTime": 264,
        "channel": 0,
        "type": "noteOn",
        "noteNumber": 56,
        "velocity": 39
      },
      {
        "deltaTime": 40,
        "channel": 0,
        "type": "noteOff",
        "noteNumber": 56,
        "velocity": 0,
        "byte9": true
      },
      {
        "deltaTime": 24,
        "channel": 0,
        "type": "noteOn",
        "noteNumber": 59,
        "velocity": 71
      },
      {
        "deltaTime": 0,
        "running": true,
        "channel": 0,
        "type": "noteOn",
        "noteNumber": 63,
        "velocity": 64
      },
      {
        "deltaTime": 0,
        "running": true,
        "channel": 0,
        "type": "noteOn",
        "noteNumber": 68,
        "velocity": 59
      },
      {
        "deltaTime": 4,
        "channel": 0,
        "type": "noteOn",
        "noteNumber": 58,
        "velocity": 50
      },
      {
        "deltaTime": 0,
        "running": true,
        "channel": 0,
        "type": "noteOn",
        "noteNumber": 71,
        "velocity": 62
      },
      {
        "deltaTime": 148,
        "channel": 0,
        "type": "noteOff",
        "noteNumber": 59,
        "velocity": 0,
        "byte9": true
      },
      {
        "deltaTime": 4,
        "channel": 0,
        "type": "noteOff",
        "noteNumber": 63,
        "velocity": 0,
        "byte9": true
      },
      {
        "deltaTime": 4,
        "channel": 0,
        "type": "noteOff",
        "noteNumber": 58,
        "velocity": 0,
        "byte9": true
      },
      {
        "deltaTime": 4,
        "channel": 0,
        "type": "noteOff",
        "noteNumber": 68,
        "velocity": 0,
        "byte9": true
      },
      {
        "deltaTime": 0,
        "running": true,
        "channel": 0,
        "type": "noteOff",
        "noteNumber": 71,
        "velocity": 0,
        "byte9": true
      },
      {
        "deltaTime": 12,
        "channel": 0,
        "type": "noteOn",
        "noteNumber": 56,
        "velocity": 36
      },
      {
        "deltaTime": 48,
        "channel": 0,
        "type": "noteOff",
        "noteNumber": 56,
        "velocity": 0,
        "byte9": true
      },
      {
        "deltaTime": 12,
        "channel": 0,
        "type": "noteOn",
        "noteNumber": 63,
        "velocity": 64
      },
      {
        "deltaTime": 0,
        "running": true,
        "channel": 0,
        "type": "noteOn",
        "noteNumber": 68,
        "velocity": 59
      },
      {
        "deltaTime": 4,
        "channel": 0,
        "type": "noteOn",
        "noteNumber": 58,
        "velocity": 44
      },
      {
        "deltaTime": 0,
        "running": true,
        "channel": 0,
        "type": "noteOn",
        "noteNumber": 59,
        "velocity": 65
      },
      {
        "deltaTime": 0,
        "running": true,
        "channel": 0,
        "type": "noteOn",
        "noteNumber": 71,
        "velocity": 56
      },
      {
        "deltaTime": 48,
        "channel": 0,
        "type": "controller",
        "controllerType": 64,
        "value": 127
      },
      {
        "deltaTime": 16,
        "channel": 0,
        "type": "noteOff",
        "noteNumber": 71,
        "velocity": 0,
        "byte9": true
      },
      {
        "deltaTime": 8,
        "channel": 0,
        "type": "noteOff",
        "noteNumber": 59,
        "velocity": 0,
        "byte9": true
      },
      {
        "deltaTime": 8,
        "channel": 0,
        "type": "noteOff",
        "noteNumber": 68,
        "velocity": 0,
        "byte9": true
      },
      {
        "deltaTime": 44,
        "channel": 0,
        "type": "noteOff",
        "noteNumber": 58,
        "velocity": 0,
        "byte9": true
      },
      {
        "deltaTime": 24,
        "channel": 0,
        "type": "noteOff",
        "noteNumber": 63,
        "velocity": 0,
        "byte9": true
      },
      {
        "deltaTime": 48,
        "channel": 0,
        "type": "controller",
        "controllerType": 64,
        "value": 0
      },
      {
        "deltaTime": 64,
        "channel": 0,
        "type": "controller",
        "controllerType": 64,
        "value": 127
      },
      {
        "deltaTime": 192,
        "channel": 0,
        "type": "controller",
        "controllerType": 64,
        "value": 0
      },
      {
        "deltaTime": 24,
        "channel": 0,
        "type": "controller",
        "controllerType": 64,
        "value": 127
      },
      {
        "deltaTime": 152,
        "channel": 0,
        "type": "noteOn",
        "noteNumber": 61,
        "velocity": 74
      },
      {
        "deltaTime": 4,
        "channel": 0,
        "type": "noteOn",
        "noteNumber": 66,
        "velocity": 70
      },
      {
        "deltaTime": 4,
        "channel": 0,
        "type": "controller",
        "controllerType": 64,
        "value": 0
      },
      {
        "deltaTime": 4,
        "channel": 0,
        "type": "noteOn",
        "noteNumber": 56,
        "velocity": 61
      },
      {
        "deltaTime": 24,
        "channel": 0,
        "type": "noteOff",
        "noteNumber": 61,
        "velocity": 0,
        "byte9": true
      },
      {
        "deltaTime": 8,
        "channel": 0,
        "type": "noteOff",
        "noteNumber": 66,
        "velocity": 0,
        "byte9": true
      },
      {
        "deltaTime": 36,
        "channel": 0,
        "type": "controller",
        "controllerType": 64,
        "value": 127
      },
      {
        "deltaTime": 0,
        "channel": 0,
        "type": "noteOff",
        "noteNumber": 56,
        "velocity": 0,
        "byte9": true
      },
      {
        "deltaTime": 68,
        "channel": 0,
        "type": "noteOn",
        "noteNumber": 74,
        "velocity": 73
      },
      {
        "deltaTime": 8,
        "channel": 0,
        "type": "noteOn",
        "noteNumber": 67,
        "velocity": 72
      },
      {
        "deltaTime": 4,
        "channel": 0,
        "type": "noteOn",
        "noteNumber": 56,
        "velocity": 60
      },
      {
        "deltaTime": 0,
        "running": true,
        "channel": 0,
        "type": "noteOn",
        "noteNumber": 66,
        "velocity": 60
      },
      {
        "deltaTime": 12,
        "channel": 0,
        "type": "noteOn",
        "noteNumber": 62,
        "velocity": 41
      },
      {
        "deltaTime": 16,
        "channel": 0,
        "type": "noteOff",
        "noteNumber": 67,
        "velocity": 0,
        "byte9": true
      },
      {
        "deltaTime": 20,
        "channel": 0,
        "type": "noteOff",
        "noteNumber": 74,
        "velocity": 0,
        "byte9": true
      },
      {
        "deltaTime": 44,
        "channel": 0,
        "type": "noteOff",
        "noteNumber": 66,
        "velocity": 0,
        "byte9": true
      },
      {
        "deltaTime": 4,
        "channel": 0,
        "type": "noteOff",
        "noteNumber": 62,
        "velocity": 0,
        "byte9": true
      },
      {
        "deltaTime": 4,
        "channel": 0,
        "type": "noteOff",
        "noteNumber": 56,
        "velocity": 0,
        "byte9": true
      },
      {
        "deltaTime": 44,
        "channel": 0,
        "type": "controller",
        "controllerType": 64,
        "value": 0
      },
      {
        "deltaTime": 8,
        "channel": 0,
        "type": "noteOn",
        "noteNumber": 79,
        "velocity": 74
      },
      {
        "deltaTime": 4,
        "channel": 0,
        "type": "noteOn",
        "noteNumber": 56,
        "velocity": 69
      },
      {
        "deltaTime": 0,
        "running": true,
        "channel": 0,
        "type": "noteOn",
        "noteNumber": 66,
        "velocity": 70
      },
      {
        "deltaTime": 0,
        "running": true,
        "channel": 0,
        "type": "noteOn",
        "noteNumber": 74,
        "velocity": 81
      },
      {
        "deltaTime": 4,
        "channel": 0,
        "type": "noteOn",
        "noteNumber": 62,
        "velocity": 48
      },
      {
        "deltaTime": 24,
        "channel": 0,
        "type": "controller",
        "controllerType": 64,
        "value": 127
      },
      {
        "deltaTime": 16,
        "channel": 0,
        "type": "noteOff",
        "noteNumber": 74,
        "velocity": 0,
        "byte9": true
      },
      {
        "deltaTime": 12,
        "channel": 0,
        "type": "noteOff",
        "noteNumber": 79,
        "velocity": 0,
        "byte9": true
      },
      {
        "deltaTime": 44,
        "channel": 0,
        "type": "noteOff",
        "noteNumber": 66,
        "velocity": 0,
        "byte9": true
      },
      {
        "deltaTime": 8,
        "channel": 0,
        "type": "noteOff",
        "noteNumber": 62,
        "velocity": 0,
        "byte9": true
      },
      {
        "deltaTime": 12,
        "channel": 0,
        "type": "noteOff",
        "noteNumber": 56,
        "velocity": 0,
        "byte9": true
      },
      {
        "deltaTime": 40,
        "channel": 0,
        "type": "noteOn",
        "noteNumber": 77,
        "velocity": 79
      },
      {
        "deltaTime": 0,
        "running": true,
        "channel": 0,
        "type": "noteOn",
        "noteNumber": 82,
        "velocity": 77
      },
      {
        "deltaTime": 4,
        "channel": 0,
        "type": "noteOn",
        "noteNumber": 62,
        "velocity": 65
      },
      {
        "deltaTime": 0,
        "running": true,
        "channel": 0,
        "type": "noteOn",
        "noteNumber": 65,
        "velocity": 71
      },
      {
        "deltaTime": 0,
        "running": true,
        "channel": 0,
        "type": "noteOn",
        "noteNumber": 72,
        "velocity": 74
      },
      {
        "deltaTime": 4,
        "channel": 0,
        "type": "noteOn",
        "noteNumber": 60,
        "velocity": 59
      },
      {
        "deltaTime": 4,
        "channel": 0,
        "type": "noteOn",
        "noteNumber": 55,
        "velocity": 65
      },
      {
        "deltaTime": 12,
        "channel": 0,
        "type": "controller",
        "controllerType": 64,
        "value": 0
      },
      {
        "deltaTime": 272,
        "channel": 0,
        "type": "controller",
        "controllerType": 64,
        "value": 127
      },
      {
        "deltaTime": 76,
        "channel": 0,
        "type": "noteOff",
        "noteNumber": 72,
        "velocity": 0,
        "byte9": true
      },
      {
        "deltaTime": 56,
        "channel": 0,
        "type": "noteOff",
        "noteNumber": 65,
        "velocity": 0,
        "byte9": true
      },
      {
        "deltaTime": 4,
        "channel": 0,
        "type": "noteOff",
        "noteNumber": 77,
        "velocity": 0,
        "byte9": true
      },
      {
        "deltaTime": 8,
        "channel": 0,
        "type": "noteOff",
        "noteNumber": 62,
        "velocity": 0,
        "byte9": true
      },
      {
        "deltaTime": 4,
        "channel": 0,
        "type": "noteOff",
        "noteNumber": 60,
        "velocity": 0,
        "byte9": true
      },
      {
        "deltaTime": 116,
        "channel": 0,
        "type": "controller",
        "controllerType": 64,
        "value": 0
      },
      {
        "deltaTime": 0,
        "channel": 0,
        "type": "noteOn",
        "noteNumber": 77,
        "velocity": 45
      },
      {
        "deltaTime": 4,
        "channel": 0,
        "type": "noteOn",
        "noteNumber": 72,
        "velocity": 44
      },
      {
        "deltaTime": 0,
        "running": true,
        "channel": 0,
        "type": "noteOn",
        "noteNumber": 74,
        "velocity": 46
      },
      {
        "deltaTime": 4,
        "channel": 0,
        "type": "noteOn",
        "noteNumber": 62,
        "velocity": 34
      },
      {
        "deltaTime": 0,
        "running": true,
        "channel": 0,
        "type": "noteOn",
        "noteNumber": 65,
        "velocity": 45
      },
      {
        "deltaTime": 4,
        "channel": 0,
        "type": "noteOn",
        "noteNumber": 60,
        "velocity": 37
      },
      {
        "deltaTime": 48,
        "channel": 0,
        "type": "noteOff",
        "noteNumber": 74,
        "velocity": 0,
        "byte9": true
      },
      {
        "deltaTime": 36,
        "channel": 0,
        "type": "controller",
        "controllerType": 64,
        "value": 127
      },
      {
        "deltaTime": 92,
        "channel": 0,
        "type": "noteOff",
        "noteNumber": 62,
        "velocity": 0,
        "byte9": true
      },
      {
        "deltaTime": 4,
        "channel": 0,
        "type": "noteOff",
        "noteNumber": 65,
        "velocity": 0,
        "byte9": true
      },
      {
        "deltaTime": 4,
        "channel": 0,
        "type": "noteOff",
        "noteNumber": 72,
        "velocity": 0,
        "byte9": true
      },
      {
        "deltaTime": 4,
        "channel": 0,
        "type": "noteOff",
        "noteNumber": 55,
        "velocity": 0,
        "byte9": true
      },
      {
        "deltaTime": 8,
        "channel": 0,
        "type": "noteOff",
        "noteNumber": 60,
        "velocity": 0,
        "byte9": true
      },
      {
        "deltaTime": 16,
        "channel": 0,
        "type": "noteOff",
        "noteNumber": 77,
        "velocity": 0,
        "byte9": true
      },
      {
        "deltaTime": 28,
        "channel": 0,
        "type": "noteOff",
        "noteNumber": 82,
        "velocity": 0,
        "byte9": true
      },
      {
        "deltaTime": 224,
        "channel": 0,
        "type": "controller",
        "controllerType": 64,
        "value": 0
      },
      {
        "deltaTime": 68,
        "channel": 0,
        "type": "controller",
        "controllerType": 64,
        "value": 127
      },
      {
        "deltaTime": 76,
        "channel": 0,
        "type": "controller",
        "controllerType": 64,
        "value": 0
      },
      {
        "deltaTime": 24,
        "channel": 0,
        "type": "noteOn",
        "noteNumber": 68,
        "velocity": 93
      },
      {
        "deltaTime": 0,
        "running": true,
        "channel": 0,
        "type": "noteOn",
        "noteNumber": 75,
        "velocity": 85
      },
      {
        "deltaTime": 4,
        "channel": 0,
        "type": "noteOn",
        "noteNumber": 63,
        "velocity": 80
      },
      {
        "deltaTime": 0,
        "running": true,
        "channel": 0,
        "type": "noteOn",
        "noteNumber": 72,
        "velocity": 88
      },
      {
        "deltaTime": 4,
        "channel": 0,
        "type": "noteOn",
        "noteNumber": 61,
        "velocity": 74
      },
      {
        "deltaTime": 0,
        "running": true,
        "channel": 0,
        "type": "noteOn",
        "noteNumber": 65,
        "velocity": 77
      },
      {
        "deltaTime": 64,
        "channel": 0,
        "type": "controller",
        "controllerType": 64,
        "value": 127
      },
      {
        "deltaTime": 20,
        "channel": 0,
        "type": "noteOff",
        "noteNumber": 65,
        "velocity": 0,
        "byte9": true
      },
      {
        "deltaTime": 4,
        "channel": 0,
        "type": "noteOff",
        "noteNumber": 68,
        "velocity": 0,
        "byte9": true
      },
      {
        "deltaTime": 8,
        "channel": 0,
        "type": "noteOff",
        "noteNumber": 72,
        "velocity": 0,
        "byte9": true
      },
      {
        "deltaTime": 4,
        "channel": 0,
        "type": "noteOff",
        "noteNumber": 63,
        "velocity": 0,
        "byte9": true
      },
      {
        "deltaTime": 4,
        "channel": 0,
        "type": "noteOff",
        "noteNumber": 61,
        "velocity": 0,
        "byte9": true
      },
      {
        "deltaTime": 12,
        "channel": 0,
        "type": "noteOff",
        "noteNumber": 75,
        "velocity": 0,
        "byte9": true
      },
      {
        "deltaTime": 36,
        "channel": 0,
        "type": "noteOn",
        "noteNumber": 68,
        "velocity": 86
      },
      {
        "deltaTime": 0,
        "running": true,
        "channel": 0,
        "type": "noteOn",
        "noteNumber": 72,
        "velocity": 82
      },
      {
        "deltaTime": 0,
        "running": true,
        "channel": 0,
        "type": "noteOn",
        "noteNumber": 77,
        "velocity": 82
      },
      {
        "deltaTime": 4,
        "channel": 0,
        "type": "noteOn",
        "noteNumber": 63,
        "velocity": 71
      },
      {
        "deltaTime": 4,
        "channel": 0,
        "type": "noteOn",
        "noteNumber": 61,
        "velocity": 71
      },
      {
        "deltaTime": 0,
        "running": true,
        "channel": 0,
        "type": "noteOn",
        "noteNumber": 65,
        "velocity": 73
      },
      {
        "deltaTime": 4,
        "channel": 0,
        "type": "noteOn",
        "noteNumber": 75,
        "velocity": 33
      },
      {
        "deltaTime": 20,
        "channel": 0,
        "type": "noteOff",
        "noteNumber": 75,
        "velocity": 0,
        "byte9": true
      },
      {
        "deltaTime": 44,
        "channel": 0,
        "type": "noteOff",
        "noteNumber": 65,
        "velocity": 0,
        "byte9": true
      },
      {
        "deltaTime": 20,
        "channel": 0,
        "type": "noteOff",
        "noteNumber": 63,
        "velocity": 0,
        "byte9": true
      },
      {
        "deltaTime": 0,
        "running": true,
        "channel": 0,
        "type": "noteOff",
        "noteNumber": 72,
        "velocity": 0,
        "byte9": true
      },
      {
        "deltaTime": 12,
        "channel": 0,
        "type": "noteOff",
        "noteNumber": 68,
        "velocity": 0,
        "byte9": true
      },
      {
        "deltaTime": 4,
        "channel": 0,
        "type": "noteOff",
        "noteNumber": 61,
        "velocity": 0,
        "byte9": true
      },
      {
        "deltaTime": 0,
        "running": true,
        "channel": 0,
        "type": "noteOff",
        "noteNumber": 77,
        "velocity": 0,
        "byte9": true
      },
      {
        "deltaTime": 48,
        "channel": 0,
        "type": "controller",
        "controllerType": 64,
        "value": 0
      },
      {
        "deltaTime": 0,
        "channel": 0,
        "type": "noteOn",
        "noteNumber": 67,
        "velocity": 74
      },
      {
        "deltaTime": 0,
        "running": true,
        "channel": 0,
        "type": "noteOn",
        "noteNumber": 73,
        "velocity": 62
      },
      {
        "deltaTime": 0,
        "running": true,
        "channel": 0,
        "type": "noteOn",
        "noteNumber": 76,
        "velocity": 66
      },
      {
        "deltaTime": 4,
        "channel": 0,
        "type": "noteOn",
        "noteNumber": 55,
        "velocity": 75
      },
      {
        "deltaTime": 0,
        "running": true,
        "channel": 0,
        "type": "noteOn",
        "noteNumber": 61,
        "velocity": 59
      },
      {
        "deltaTime": 0,
        "running": true,
        "channel": 0,
        "type": "noteOn",
        "noteNumber": 64,
        "velocity": 71
      },
      {
        "deltaTime": 0,
        "running": true,
        "channel": 0,
        "type": "noteOn",
        "noteNumber": 71,
        "velocity": 77
      },
      {
        "deltaTime": 128,
        "channel": 0,
        "type": "controller",
        "controllerType": 64,
        "value": 127
      },
      {
        "deltaTime": 120,
        "channel": 0,
        "type": "noteOff",
        "noteNumber": 64,
        "velocity": 0,
        "byte9": true
      },
      {
        "deltaTime": 0,
        "running": true,
        "channel": 0,
        "type": "noteOff",
        "noteNumber": 76,
        "velocity": 0,
        "byte9": true
      },
      {
        "deltaTime": 8,
        "channel": 0,
        "type": "noteOff",
        "noteNumber": 71,
        "velocity": 0,
        "byte9": true
      },
      {
        "deltaTime": 12,
        "channel": 0,
        "type": "noteOff",
        "noteNumber": 73,
        "velocity": 0,
        "byte9": true
      },
      {
        "deltaTime": 8,
        "channel": 0,
        "type": "noteOff",
        "noteNumber": 61,
        "velocity": 0,
        "byte9": true
      },
      {
        "deltaTime": 4,
        "channel": 0,
        "type": "noteOff",
        "noteNumber": 55,
        "velocity": 0,
        "byte9": true
      },
      {
        "deltaTime": 4,
        "channel": 0,
        "type": "noteOff",
        "noteNumber": 67,
        "velocity": 0,
        "byte9": true
      },
      {
        "deltaTime": 148,
        "channel": 0,
        "type": "noteOn",
        "noteNumber": 54,
        "velocity": 56
      },
      {
        "deltaTime": 36,
        "channel": 0,
        "type": "noteOff",
        "noteNumber": 54,
        "velocity": 0,
        "byte9": true
      },
      {
        "deltaTime": 0,
        "running": true,
        "channel": 0,
        "type": "noteOn",
        "noteNumber": 55,
        "velocity": 71
      },
      {
        "deltaTime": 16,
        "channel": 0,
        "type": "controller",
        "controllerType": 64,
        "value": 0
      },
      {
        "deltaTime": 0,
        "channel": 0,
        "type": "noteOn",
        "noteNumber": 59,
        "velocity": 89
      },
      {
        "deltaTime": 0,
        "running": true,
        "channel": 0,
        "type": "noteOn",
        "noteNumber": 67,
        "velocity": 80
      },
      {
        "deltaTime": 4,
        "channel": 0,
        "type": "noteOn",
        "noteNumber": 56,
        "velocity": 86
      },
      {
        "deltaTime": 0,
        "running": true,
        "channel": 0,
        "type": "noteOn",
        "noteNumber": 62,
        "velocity": 69
      },
      {
        "deltaTime": 4,
        "channel": 0,
        "type": "noteOn",
        "noteNumber": 63,
        "velocity": 54
      },
      {
        "deltaTime": 8,
        "channel": 0,
        "type": "noteOn",
        "noteNumber": 54,
        "velocity": 17
      },
      {
        "deltaTime": 4,
        "channel": 0,
        "type": "noteOff",
        "noteNumber": 55,
        "velocity": 0,
        "byte9": true
      },
      {
        "deltaTime": 4,
        "channel": 0,
        "type": "noteOff",
        "noteNumber": 63,
        "velocity": 0,
        "byte9": true
      },
      {
        "deltaTime": 4,
        "channel": 0,
        "type": "noteOff",
        "noteNumber": 54,
        "velocity": 0,
        "byte9": true
      },
      {
        "deltaTime": 296,
        "channel": 0,
        "type": "noteOff",
        "noteNumber": 62,
        "velocity": 0,
        "byte9": true
      },
      {
        "deltaTime": 36,
        "channel": 0,
        "type": "noteOff",
        "noteNumber": 59,
        "velocity": 0,
        "byte9": true
      },
      {
        "deltaTime": 68,
        "channel": 0,
        "type": "noteOn",
        "noteNumber": 51,
        "velocity": 38
      },
      {
        "deltaTime": 12,
        "channel": 0,
        "type": "noteOff",
        "noteNumber": 51,
        "velocity": 0,
        "byte9": true
      },
      {
        "deltaTime": 4,
        "channel": 0,
        "type": "noteOn",
        "noteNumber": 54,
        "velocity": 42
      },
      {
        "deltaTime": 0,
        "running": true,
        "channel": 0,
        "type": "noteOff",
        "noteNumber": 56,
        "velocity": 0,
        "byte9": true
      },
      {
        "deltaTime": 24,
        "channel": 0,
        "type": "noteOff",
        "noteNumber": 67,
        "velocity": 0,
        "byte9": true
      },
      {
        "deltaTime": 8,
        "channel": 0,
        "type": "noteOn",
        "noteNumber": 63,
        "velocity": 14
      },
      {
        "deltaTime": 12,
        "channel": 0,
        "type": "noteOn",
        "noteNumber": 55,
        "velocity": 57
      },
      {
        "deltaTime": 4,
        "channel": 0,
        "type": "noteOn",
        "noteNumber": 60,
        "velocity": 48
      },
      {
        "deltaTime": 4,
        "channel": 0,
        "type": "noteOff",
        "noteNumber": 54,
        "velocity": 0,
        "byte9": true
      },
      {
        "deltaTime": 232,
        "channel": 0,
        "type": "controller",
        "controllerType": 64,
        "value": 127
      },
      {
        "deltaTime": 84,
        "channel": 0,
        "type": "noteOff",
        "noteNumber": 55,
        "velocity": 0,
        "byte9": true
      },
      {
        "deltaTime": 28,
        "channel": 0,
        "type": "noteOff",
        "noteNumber": 60,
        "velocity": 0,
        "byte9": true
      },
      {
        "deltaTime": 92,
        "channel": 0,
        "type": "controller",
        "controllerType": 64,
        "value": 0
      },
      {
        "deltaTime": 16,
        "channel": 0,
        "type": "noteOff",
        "noteNumber": 63,
        "velocity": 0,
        "byte9": true
      },
      {
        "deltaTime": 8,
        "channel": 0,
        "type": "noteOn",
        "noteNumber": 60,
        "velocity": 50
      },
      {
        "deltaTime": 4,
        "channel": 0,
        "type": "noteOn",
        "noteNumber": 55,
        "velocity": 38
      },
      {
        "deltaTime": 88,
        "channel": 0,
        "type": "controller",
        "controllerType": 64,
        "value": 127
      },
      {
        "deltaTime": 144,
        "channel": 0,
        "type": "noteOff",
        "noteNumber": 55,
        "velocity": 0,
        "byte9": true
      },
      {
        "deltaTime": 204,
        "channel": 0,
        "type": "noteOff",
        "noteNumber": 60,
        "velocity": 0,
        "byte9": true
      },
      {
        "deltaTime": 28,
        "channel": 0,
        "type": "controller",
        "controllerType": 64,
        "value": 0
      },
      {
        "deltaTime": 172,
        "channel": 0,
        "type": "noteOn",
        "noteNumber": 49,
        "velocity": 67
      },
      {
        "deltaTime": 0,
        "running": true,
        "channel": 0,
        "type": "noteOn",
        "noteNumber": 53,
        "velocity": 71
      },
      {
        "deltaTime": 0,
        "running": true,
        "channel": 0,
        "type": "noteOn",
        "noteNumber": 58,
        "velocity": 90
      },
      {
        "deltaTime": 0,
        "running": true,
        "channel": 0,
        "type": "noteOn",
        "noteNumber": 59,
        "velocity": 77
      },
      {
        "deltaTime": 0,
        "running": true,
        "channel": 0,
        "type": "noteOn",
        "noteNumber": 63,
        "velocity": 74
      },
      {
        "deltaTime": 0,
        "running": true,
        "channel": 0,
        "type": "noteOn",
        "noteNumber": 67,
        "velocity": 78
      },
      {
        "deltaTime": 24,
        "channel": 0,
        "type": "noteOff",
        "noteNumber": 58,
        "velocity": 0,
        "byte9": true
      },
      {
        "deltaTime": 4,
        "channel": 0,
        "type": "noteOff",
        "noteNumber": 67,
        "velocity": 0,
        "byte9": true
      },
      {
        "deltaTime": 4,
        "channel": 0,
        "type": "noteOff",
        "noteNumber": 59,
        "velocity": 0,
        "byte9": true
      },
      {
        "deltaTime": 12,
        "channel": 0,
        "type": "noteOff",
        "noteNumber": 53,
        "velocity": 0,
        "byte9": true
      },
      {
        "deltaTime": 0,
        "running": true,
        "channel": 0,
        "type": "noteOff",
        "noteNumber": 63,
        "velocity": 0,
        "byte9": true
      },
      {
        "deltaTime": 24,
        "channel": 0,
        "type": "noteOff",
        "noteNumber": 49,
        "velocity": 0,
        "byte9": true
      },
      {
        "deltaTime": 96,
        "channel": 0,
        "type": "noteOn",
        "noteNumber": 68,
        "velocity": 70
      },
      {
        "deltaTime": 4,
        "channel": 0,
        "type": "noteOn",
        "noteNumber": 55,
        "velocity": 73
      },
      {
        "deltaTime": 0,
        "running": true,
        "channel": 0,
        "type": "noteOn",
        "noteNumber": 58,
        "velocity": 77
      },
      {
        "deltaTime": 0,
        "running": true,
        "channel": 0,
        "type": "noteOn",
        "noteNumber": 64,
        "velocity": 67
      },
      {
        "deltaTime": 4,
        "channel": 0,
        "type": "noteOn",
        "noteNumber": 48,
        "velocity": 71
      },
      {
        "deltaTime": 0,
        "running": true,
        "channel": 0,
        "type": "noteOn",
        "noteNumber": 61,
        "velocity": 69
      },
      {
        "deltaTime": 12,
        "channel": 0,
        "type": "noteOn",
        "noteNumber": 66,
        "velocity": 25
      },
      {
        "deltaTime": 8,
        "channel": 0,
        "type": "controller",
        "controllerType": 64,
        "value": 127
      },
      {
        "deltaTime": 12,
        "channel": 0,
        "type": "noteOff",
        "noteNumber": 66,
        "velocity": 0,
        "byte9": true
      },
      {
        "deltaTime": 40,
        "channel": 0,
        "type": "noteOff",
        "noteNumber": 64,
        "velocity": 0,
        "byte9": true
      },
      {
        "deltaTime": 4,
        "channel": 0,
        "type": "noteOff",
        "noteNumber": 55,
        "velocity": 0,
        "byte9": true
      },
      {
        "deltaTime": 36,
        "channel": 0,
        "type": "noteOff",
        "noteNumber": 58,
        "velocity": 0,
        "byte9": true
      },
      {
        "deltaTime": 12,
        "channel": 0,
        "type": "noteOff",
        "noteNumber": 61,
        "velocity": 0,
        "byte9": true
      },
      {
        "deltaTime": 0,
        "running": true,
        "channel": 0,
        "type": "noteOff",
        "noteNumber": 68,
        "velocity": 0,
        "byte9": true
      },
      {
        "deltaTime": 28,
        "channel": 0,
        "type": "noteOff",
        "noteNumber": 48,
        "velocity": 0,
        "byte9": true
      },
      {
        "deltaTime": 8,
        "channel": 0,
        "type": "controller",
        "controllerType": 64,
        "value": 0
      },
      {
        "deltaTime": 4,
        "channel": 0,
        "type": "noteOn",
        "noteNumber": 56,
        "velocity": 77
      },
      {
        "deltaTime": 0,
        "running": true,
        "channel": 0,
        "type": "noteOn",
        "noteNumber": 60,
        "velocity": 81
      },
      {
        "deltaTime": 0,
        "running": true,
        "channel": 0,
        "type": "noteOn",
        "noteNumber": 63,
        "velocity": 69
      },
      {
        "deltaTime": 0,
        "running": true,
        "channel": 0,
        "type": "noteOn",
        "noteNumber": 67,
        "velocity": 77
      },
      {
        "deltaTime": 8,
        "channel": 0,
        "type": "noteOn",
        "noteNumber": 55,
        "velocity": 84
      },
      {
        "deltaTime": 376,
        "channel": 0,
        "type": "noteOff",
        "noteNumber": 60,
        "velocity": 0,
        "byte9": true
      },
      {
        "deltaTime": 4,
        "channel": 0,
        "type": "noteOff",
        "noteNumber": 56,
        "velocity": 0,
        "byte9": true
      },
      {
        "deltaTime": 20,
        "channel": 0,
        "type": "noteOff",
        "noteNumber": 63,
        "velocity": 0,
        "byte9": true
      },
      {
        "deltaTime": 0,
        "running": true,
        "channel": 0,
        "type": "noteOff",
        "noteNumber": 67,
        "velocity": 0,
        "byte9": true
      },
      {
        "deltaTime": 4,
        "channel": 0,
        "type": "noteOff",
        "noteNumber": 55,
        "velocity": 0,
        "byte9": true
      },
      {
        "deltaTime": 4,
        "channel": 0,
        "type": "noteOn",
        "noteNumber": 51,
        "velocity": 30
      },
      {
        "deltaTime": 28,
        "channel": 0,
        "type": "noteOn",
        "noteNumber": 56,
        "velocity": 55
      },
      {
        "deltaTime": 0,
        "running": true,
        "channel": 0,
        "type": "noteOn",
        "noteNumber": 63,
        "velocity": 43
      },
      {
        "deltaTime": 8,
        "channel": 0,
        "type": "noteOn",
        "noteNumber": 65,
        "velocity": 57
      },
      {
        "deltaTime": 4,
        "channel": 0,
        "type": "noteOff",
        "noteNumber": 51,
        "velocity": 0,
        "byte9": true
      },
      {
        "deltaTime": 0,
        "running": true,
        "channel": 0,
        "type": "noteOn",
        "noteNumber": 60,
        "velocity": 60
      },
      {
        "deltaTime": 8,
        "channel": 0,
        "type": "noteOn",
        "noteNumber": 53,
        "velocity": 62
      },
      {
        "deltaTime": 208,
        "channel": 0,
        "type": "controller",
        "controllerType": 64,
        "value": 127
      },
      {
        "deltaTime": 20,
        "channel": 0,
        "type": "noteOff",
        "noteNumber": 56,
        "velocity": 0,
        "byte9": true
      },
      {
        "deltaTime": 12,
        "channel": 0,
        "type": "noteOff",
        "noteNumber": 60,
        "velocity": 0,
        "byte9": true
      },
      {
        "deltaTime": 8,
        "channel": 0,
        "type": "noteOff",
        "noteNumber": 53,
        "velocity": 0,
        "byte9": true
      },
      {
        "deltaTime": 24,
        "channel": 0,
        "type": "noteOff",
        "noteNumber": 65,
        "velocity": 0,
        "byte9": true
      },
      {
        "deltaTime": 8,
        "channel": 0,
        "type": "noteOff",
        "noteNumber": 63,
        "velocity": 0,
        "byte9": true
      },
      {
        "deltaTime": 192,
        "channel": 0,
        "type": "controller",
        "controllerType": 64,
        "value": 0
      },
      {
        "deltaTime": 0,
        "channel": 0,
        "type": "noteOn",
        "noteNumber": 70,
        "velocity": 94
      },
      {
        "deltaTime": 4,
        "channel": 0,
        "type": "noteOn",
        "noteNumber": 54,
        "velocity": 77
      },
      {
        "deltaTime": 0,
        "running": true,
        "channel": 0,
        "type": "noteOn",
        "noteNumber": 60,
        "velocity": 80
      },
      {
        "deltaTime": 0,
        "running": true,
        "channel": 0,
        "type": "noteOn",
        "noteNumber": 65,
        "velocity": 89
      },
      {
        "deltaTime": 0,
        "running": true,
        "channel": 0,
        "type": "noteOn",
        "noteNumber": 74,
        "velocity": 91
      },
      {
        "deltaTime": 104,
        "channel": 0,
        "type": "controller",
        "controllerType": 64,
        "value": 127
      },
      {
        "deltaTime": 84,
        "channel": 0,
        "type": "noteOff",
        "noteNumber": 65,
        "velocity": 0,
        "byte9": true
      },
      {
        "deltaTime": 40,
        "channel": 0,
        "type": "noteOff",
        "noteNumber": 70,
        "velocity": 0,
        "byte9": true
      },
      {
        "deltaTime": 12,
        "channel": 0,
        "type": "noteOff",
        "noteNumber": 74,
        "velocity": 0,
        "byte9": true
      },
      {
        "deltaTime": 80,
        "channel": 0,
        "type": "noteOff",
        "noteNumber": 60,
        "velocity": 0,
        "byte9": true
      },
      {
        "deltaTime": 120,
        "channel": 0,
        "type": "noteOff",
        "noteNumber": 54,
        "velocity": 0,
        "byte9": true
      },
      {
        "deltaTime": 216,
        "channel": 0,
        "type": "noteOn",
        "noteNumber": 60,
        "velocity": 73
      },
      {
        "deltaTime": 0,
        "running": true,
        "channel": 0,
        "type": "noteOn",
        "noteNumber": 82,
        "velocity": 81
      },
      {
        "deltaTime": 4,
        "channel": 0,
        "type": "noteOn",
        "noteNumber": 54,
        "velocity": 73
      },
      {
        "deltaTime": 0,
        "running": true,
        "channel": 0,
        "type": "noteOn",
        "noteNumber": 65,
        "velocity": 76
      },
      {
        "deltaTime": 0,
        "running": true,
        "channel": 0,
        "type": "noteOn",
        "noteNumber": 77,
        "velocity": 83
      },
      {
        "deltaTime": 0,
        "running": true,
        "channel": 0,
        "type": "noteOn",
        "noteNumber": 86,
        "velocity": 79
      },
      {
        "deltaTime": 16,
        "channel": 0,
        "type": "controller",
        "controllerType": 64,
        "value": 0
      },
      {
        "deltaTime": 72,
        "channel": 0,
        "type": "controller",
        "controllerType": 64,
        "value": 127
      },
      {
        "deltaTime": 68,
        "channel": 0,
        "type": "noteOff",
        "noteNumber": 86,
        "velocity": 0,
        "byte9": true
      },
      {
        "deltaTime": 4,
        "channel": 0,
        "type": "noteOff",
        "noteNumber": 77,
        "velocity": 0,
        "byte9": true
      },
      {
        "deltaTime": 12,
        "channel": 0,
        "type": "noteOff",
        "noteNumber": 82,
        "velocity": 0,
        "byte9": true
      },
      {
        "deltaTime": 8,
        "channel": 0,
        "type": "noteOff",
        "noteNumber": 65,
        "velocity": 0,
        "byte9": true
      },
      {
        "deltaTime": 4,
        "channel": 0,
        "type": "noteOff",
        "noteNumber": 60,
        "velocity": 0,
        "byte9": true
      },
      {
        "deltaTime": 40,
        "channel": 0,
        "type": "noteOn",
        "noteNumber": 80,
        "velocity": 27
      },
      {
        "deltaTime": 20,
        "channel": 0,
        "type": "noteOff",
        "noteNumber": 54,
        "velocity": 0,
        "byte9": true
      },
      {
        "deltaTime": 4,
        "channel": 0,
        "type": "noteOff",
        "noteNumber": 80,
        "velocity": 0,
        "byte9": true
      },
      {
        "deltaTime": 60,
        "channel": 0,
        "type": "noteOn",
        "noteNumber": 75,
        "velocity": 67
      },
      {
        "deltaTime": 0,
        "running": true,
        "channel": 0,
        "type": "noteOn",
        "noteNumber": 82,
        "velocity": 57
      },
      {
        "deltaTime": 4,
        "channel": 0,
        "type": "noteOn",
        "noteNumber": 59,
        "velocity": 62
      },
      {
        "deltaTime": 0,
        "running": true,
        "channel": 0,
        "type": "noteOn",
        "noteNumber": 64,
        "velocity": 55
      },
      {
        "deltaTime": 0,
        "running": true,
        "channel": 0,
        "type": "noteOn",
        "noteNumber": 70,
        "velocity": 61
      },
      {
        "deltaTime": 4,
        "channel": 0,
        "type": "noteOn",
        "noteNumber": 53,
        "velocity": 50
      },
      {
        "deltaTime": 4,
        "channel": 0,
        "type": "controller",
        "controllerType": 64,
        "value": 0
      },
      {
        "deltaTime": 0,
        "channel": 0,
        "type": "noteOn",
        "noteNumber": 79,
        "velocity": 48
      },
      {
        "deltaTime": 12,
        "channel": 0,
        "type": "noteOff",
        "noteNumber": 70,
        "velocity": 0,
        "byte9": true
      },
      {
        "deltaTime": 4,
        "channel": 0,
        "type": "noteOff",
        "noteNumber": 64,
        "velocity": 0,
        "byte9": true
      },
      {
        "deltaTime": 4,
        "channel": 0,
        "type": "noteOff",
        "noteNumber": 53,
        "velocity": 0,
        "byte9": true
      },
      {
        "deltaTime": 0,
        "running": true,
        "channel": 0,
        "type": "noteOff",
        "noteNumber": 75,
        "velocity": 0,
        "byte9": true
      },
      {
        "deltaTime": 0,
        "running": true,
        "channel": 0,
        "type": "noteOff",
        "noteNumber": 79,
        "velocity": 0,
        "byte9": true
      },
      {
        "deltaTime": 8,
        "channel": 0,
        "type": "noteOff",
        "noteNumber": 59,
        "velocity": 0,
        "byte9": true
      },
      {
        "deltaTime": 4,
        "channel": 0,
        "type": "noteOff",
        "noteNumber": 82,
        "velocity": 0,
        "byte9": true
      },
      {
        "deltaTime": 292,
        "channel": 0,
        "type": "controller",
        "controllerType": 64,
        "value": 127
      },
      {
        "deltaTime": 72,
        "channel": 0,
        "type": "controller",
        "controllerType": 64,
        "value": 0
      },
      {
        "deltaTime": 68,
        "channel": 0,
        "type": "controller",
        "controllerType": 64,
        "value": 127
      },
      {
        "deltaTime": 164,
        "channel": 0,
        "type": "noteOn",
        "noteNumber": 58,
        "velocity": 68
      },
      {
        "deltaTime": 0,
        "running": true,
        "channel": 0,
        "type": "noteOn",
        "noteNumber": 87,
        "velocity": 83
      },
      {
        "deltaTime": 4,
        "channel": 0,
        "type": "noteOn",
        "noteNumber": 52,
        "velocity": 79
      },
      {
        "deltaTime": 0,
        "running": true,
        "channel": 0,
        "type": "noteOn",
        "noteNumber": 63,
        "velocity": 75
      },
      {
        "deltaTime": 0,
        "running": true,
        "channel": 0,
        "type": "noteOn",
        "noteNumber": 75,
        "velocity": 85
      },
      {
        "deltaTime": 0,
        "running": true,
        "channel": 0,
        "type": "noteOn",
        "noteNumber": 82,
        "velocity": 82
      },
      {
        "deltaTime": 12,
        "channel": 0,
        "type": "controller",
        "controllerType": 64,
        "value": 0
      },
      {
        "deltaTime": 68,
        "channel": 0,
        "type": "controller",
        "controllerType": 64,
        "value": 127
      },
      {
        "deltaTime": 24,
        "channel": 0,
        "type": "noteOff",
        "noteNumber": 52,
        "velocity": 0,
        "byte9": true
      },
      {
        "deltaTime": 28,
        "channel": 0,
        "type": "noteOff",
        "noteNumber": 58,
        "velocity": 0,
        "byte9": true
      },
      {
        "deltaTime": 8,
        "channel": 0,
        "type": "noteOff",
        "noteNumber": 63,
        "velocity": 0,
        "byte9": true
      },
      {
        "deltaTime": 20,
        "channel": 0,
        "type": "noteOff",
        "noteNumber": 82,
        "velocity": 0,
        "byte9": true
      },
      {
        "deltaTime": 0,
        "running": true,
        "channel": 0,
        "type": "noteOff",
        "noteNumber": 87,
        "velocity": 0,
        "byte9": true
      },
      {
        "deltaTime": 16,
        "channel": 0,
        "type": "noteOff",
        "noteNumber": 75,
        "velocity": 0,
        "byte9": true
      },
      {
        "deltaTime": 408,
        "channel": 0,
        "type": "controller",
        "controllerType": 64,
        "value": 0
      },
      {
        "deltaTime": 144,
        "channel": 0,
        "type": "noteOn",
        "noteNumber": 61,
        "velocity": 83
      },
      {
        "deltaTime": 4,
        "channel": 0,
        "type": "noteOn",
        "noteNumber": 65,
        "velocity": 64
      },
      {
        "deltaTime": 0,
        "running": true,
        "channel": 0,
        "type": "noteOn",
        "noteNumber": 68,
        "velocity": 74
      },
      {
        "deltaTime": 4,
        "channel": 0,
        "type": "noteOn",
        "noteNumber": 51,
        "velocity": 71
      },
      {
        "deltaTime": 4,
        "channel": 0,
        "type": "noteOn",
        "noteNumber": 57,
        "velocity": 68
      },
      {
        "deltaTime": 12,
        "channel": 0,
        "type": "noteOff",
        "noteNumber": 65,
        "velocity": 0,
        "byte9": true
      },
      {
        "deltaTime": 8,
        "channel": 0,
        "type": "noteOff",
        "noteNumber": 57,
        "velocity": 0,
        "byte9": true
      },
      {
        "deltaTime": 4,
        "channel": 0,
        "type": "noteOff",
        "noteNumber": 61,
        "velocity": 0,
        "byte9": true
      },
      {
        "deltaTime": 8,
        "channel": 0,
        "type": "noteOff",
        "noteNumber": 68,
        "velocity": 0,
        "byte9": true
      },
      {
        "deltaTime": 8,
        "channel": 0,
        "type": "noteOff",
        "noteNumber": 51,
        "velocity": 0,
        "byte9": true
      },
      {
        "deltaTime": 96,
        "channel": 0,
        "type": "noteOn",
        "noteNumber": 61,
        "velocity": 60
      },
      {
        "deltaTime": 0,
        "running": true,
        "channel": 0,
        "type": "noteOn",
        "noteNumber": 68,
        "velocity": 61
      },
      {
        "deltaTime": 4,
        "channel": 0,
        "type": "noteOn",
        "noteNumber": 51,
        "velocity": 51
      },
      {
        "deltaTime": 0,
        "running": true,
        "channel": 0,
        "type": "noteOn",
        "noteNumber": 65,
        "velocity": 64
      },
      {
        "deltaTime": 4,
        "channel": 0,
        "type": "noteOn",
        "noteNumber": 57,
        "velocity": 49
      },
      {
        "deltaTime": 8,
        "channel": 0,
        "type": "controller",
        "controllerType": 64,
        "value": 127
      },
      {
        "deltaTime": 40,
        "channel": 0,
        "type": "noteOff",
        "noteNumber": 57,
        "velocity": 0,
        "byte9": true
      },
      {
        "deltaTime": 12,
        "channel": 0,
        "type": "noteOff",
        "noteNumber": 65,
        "velocity": 0,
        "byte9": true
      },
      {
        "deltaTime": 16,
        "channel": 0,
        "type": "noteOff",
        "noteNumber": 61,
        "velocity": 0,
        "byte9": true
      },
      {
        "deltaTime": 0,
        "running": true,
        "channel": 0,
        "type": "noteOff",
        "noteNumber": 68,
        "velocity": 0,
        "byte9": true
      },
      {
        "deltaTime": 40,
        "channel": 0,
        "type": "noteOff",
        "noteNumber": 51,
        "velocity": 0,
        "byte9": true
      },
      {
        "deltaTime": 52,
        "channel": 0,
        "type": "controller",
        "controllerType": 64,
        "value": 0
      },
      {
        "deltaTime": 8,
        "channel": 0,
        "type": "noteOn",
        "noteNumber": 56,
        "velocity": 59
      },
      {
        "deltaTime": 0,
        "running": true,
        "channel": 0,
        "type": "noteOn",
        "noteNumber": 63,
        "velocity": 59
      },
      {
        "deltaTime": 0,
        "running": true,
        "channel": 0,
        "type": "noteOn",
        "noteNumber": 67,
        "velocity": 59
      },
      {
        "deltaTime": 4,
        "channel": 0,
        "type": "noteOn",
        "noteNumber": 60,
        "velocity": 69
      },
      {
        "deltaTime": 8,
        "channel": 0,
        "type": "noteOn",
        "noteNumber": 46,
        "velocity": 62
      },
      {
        "deltaTime": 40,
        "channel": 0,
        "type": "noteOff",
        "noteNumber": 46,
        "velocity": 0,
        "byte9": true
      },
      {
        "deltaTime": 8,
        "channel": 0,
        "type": "controller",
        "controllerType": 64,
        "value": 127
      },
      {
        "deltaTime": 80,
        "channel": 0,
        "type": "noteOff",
        "noteNumber": 60,
        "velocity": 0,
        "byte9": true
      },
      {
        "deltaTime": 8,
        "channel": 0,
        "type": "noteOff",
        "noteNumber": 56,
        "velocity": 0,
        "byte9": true
      },
      {
        "deltaTime": 16,
        "channel": 0,
        "type": "noteOff",
        "noteNumber": 67,
        "velocity": 0,
        "byte9": true
      },
      {
        "deltaTime": 4,
        "channel": 0,
        "type": "noteOff",
        "noteNumber": 63,
        "velocity": 0,
        "byte9": true
      },
      {
        "deltaTime": 40,
        "channel": 0,
        "type": "noteOn",
        "noteNumber": 65,
        "velocity": 34
      },
      {
        "deltaTime": 8,
        "channel": 0,
        "type": "noteOn",
        "noteNumber": 58,
        "velocity": 56
      },
      {
        "deltaTime": 4,
        "channel": 0,
        "type": "controller",
        "controllerType": 64,
        "value": 0
      },
      {
        "deltaTime": 4,
        "channel": 0,
        "type": "noteOn",
        "noteNumber": 62,
        "velocity": 57
      },
      {
        "deltaTime": 8,
        "channel": 0,
        "type": "noteOn",
        "noteNumber": 51,
        "velocity": 53
      },
      {
        "deltaTime": 188,
        "channel": 0,
        "type": "controller",
        "controllerType": 64,
        "value": 127
      },
      {
        "deltaTime": 68,
        "channel": 0,
        "type": "noteOff",
        "noteNumber": 65,
        "velocity": 0,
        "byte9": true
      },
      {
        "deltaTime": 4,
        "channel": 0,
        "type": "noteOff",
        "noteNumber": 62,
        "velocity": 0,
        "byte9": true
      },
      {
        "deltaTime": 8,
        "channel": 0,
        "type": "noteOff",
        "noteNumber": 58,
        "velocity": 0,
        "byte9": true
      },
      {
        "deltaTime": 144,
        "channel": 0,
        "type": "noteOn",
        "noteNumber": 54,
        "velocity": 40
      },
      {
        "deltaTime": 36,
        "channel": 0,
        "type": "controller",
        "controllerType": 64,
        "value": 0
      },
      {
        "deltaTime": 4,
        "channel": 0,
        "type": "noteOff",
        "noteNumber": 54,
        "velocity": 0,
        "byte9": true
      },
      {
        "deltaTime": 12,
        "channel": 0,
        "type": "noteOn",
        "noteNumber": 65,
        "velocity": 78
      },
      {
        "deltaTime": 0,
        "running": true,
        "channel": 0,
        "type": "noteOn",
        "noteNumber": 70,
        "velocity": 81
      },
      {
        "deltaTime": 4,
        "channel": 0,
        "type": "noteOn",
        "noteNumber": 60,
        "velocity": 77
      },
      {
        "deltaTime": 4,
        "channel": 0,
        "type": "noteOff",
        "noteNumber": 51,
        "velocity": 0,
        "byte9": true
      },
      {
        "deltaTime": 0,
        "running": true,
        "channel": 0,
        "type": "noteOn",
        "noteNumber": 55,
        "velocity": 76
      },
      {
        "deltaTime": 56,
        "channel": 0,
        "type": "controller",
        "controllerType": 64,
        "value": 127
      },
      {
        "deltaTime": 68,
        "channel": 0,
        "type": "noteOff",
        "noteNumber": 60,
        "velocity": 0,
        "byte9": true
      },
      {
        "deltaTime": 32,
        "channel": 0,
        "type": "noteOff",
        "noteNumber": 65,
        "velocity": 0,
        "byte9": true
      },
      {
        "deltaTime": 12,
        "channel": 0,
        "type": "noteOff",
        "noteNumber": 55,
        "velocity": 0,
        "byte9": true
      },
      {
        "deltaTime": 4,
        "channel": 0,
        "type": "noteOff",
        "noteNumber": 70,
        "velocity": 0,
        "byte9": true
      },
      {
        "deltaTime": 228,
        "channel": 0,
        "type": "noteOn",
        "noteNumber": 55,
        "velocity": 87
      },
      {
        "deltaTime": 0,
        "running": true,
        "channel": 0,
        "type": "noteOn",
        "noteNumber": 61,
        "velocity": 77
      },
      {
        "deltaTime": 0,
        "running": true,
        "channel": 0,
        "type": "noteOn",
        "noteNumber": 88,
        "velocity": 94
      },
      {
        "deltaTime": 4,
        "channel": 0,
        "type": "noteOn",
        "noteNumber": 66,
        "velocity": 92
      },
      {
        "deltaTime": 0,
        "running": true,
        "channel": 0,
        "type": "noteOn",
        "noteNumber": 81,
        "velocity": 96
      },
      {
        "deltaTime": 0,
        "running": true,
        "channel": 0,
        "type": "noteOn",
        "noteNumber": 93,
        "velocity": 90
      },
      {
        "deltaTime": 8,
        "channel": 0,
        "type": "noteOn",
        "noteNumber": 91,
        "velocity": 56
      },
      {
        "deltaTime": 4,
        "channel": 0,
        "type": "controller",
        "controllerType": 64,
        "value": 0
      },
      {
        "deltaTime": 8,
        "channel": 0,
        "type": "noteOff",
        "noteNumber": 91,
        "velocity": 0,
        "byte9": true
      },
      {
        "deltaTime": 128,
        "channel": 0,
        "type": "controller",
        "controllerType": 64,
        "value": 127
      },
      {
        "deltaTime": 312,
        "channel": 0,
        "type": "noteOff",
        "noteNumber": 81,
        "velocity": 0,
        "byte9": true
      },
      {
        "deltaTime": 8,
        "channel": 0,
        "type": "noteOff",
        "noteNumber": 55,
        "velocity": 0,
        "byte9": true
      },
      {
        "deltaTime": 8,
        "channel": 0,
        "type": "noteOff",
        "noteNumber": 61,
        "velocity": 0,
        "byte9": true
      },
      {
        "deltaTime": 0,
        "running": true,
        "channel": 0,
        "type": "noteOff",
        "noteNumber": 88,
        "velocity": 0,
        "byte9": true
      },
      {
        "deltaTime": 8,
        "channel": 0,
        "type": "noteOff",
        "noteNumber": 66,
        "velocity": 0,
        "byte9": true
      },
      {
        "deltaTime": 20,
        "channel": 0,
        "type": "noteOff",
        "noteNumber": 93,
        "velocity": 0,
        "byte9": true
      },
      {
        "deltaTime": 280,
        "channel": 0,
        "type": "controller",
        "controllerType": 64,
        "value": 0
      },
      {
        "deltaTime": 4,
        "channel": 0,
        "type": "noteOn",
        "noteNumber": 61,
        "velocity": 54
      },
      {
        "deltaTime": 4,
        "channel": 0,
        "type": "noteOn",
        "noteNumber": 65,
        "velocity": 55
      },
      {
        "deltaTime": 4,
        "channel": 0,
        "type": "noteOn",
        "noteNumber": 55,
        "velocity": 56
      },
      {
        "deltaTime": 0,
        "running": true,
        "channel": 0,
        "type": "noteOn",
        "noteNumber": 91,
        "velocity": 64
      },
      {
        "deltaTime": 0,
        "running": true,
        "channel": 0,
        "type": "noteOn",
        "noteNumber": 96,
        "velocity": 76
      },
      {
        "deltaTime": 4,
        "channel": 0,
        "type": "noteOn",
        "noteNumber": 84,
        "velocity": 65
      },
      {
        "deltaTime": 36,
        "channel": 0,
        "type": "controller",
        "controllerType": 64,
        "value": 127
      },
      {
        "deltaTime": 28,
        "channel": 0,
        "type": "noteOff",
        "noteNumber": 96,
        "velocity": 0,
        "byte9": true
      },
      {
        "deltaTime": 4,
        "channel": 0,
        "type": "noteOff",
        "noteNumber": 84,
        "velocity": 0,
        "byte9": true
      },
      {
        "deltaTime": 8,
        "channel": 0,
        "type": "noteOff",
        "noteNumber": 65,
        "velocity": 0,
        "byte9": true
      },
      {
        "deltaTime": 4,
        "channel": 0,
        "type": "noteOff",
        "noteNumber": 55,
        "velocity": 0,
        "byte9": true
      },
      {
        "deltaTime": 4,
        "channel": 0,
        "type": "noteOff",
        "noteNumber": 91,
        "velocity": 0,
        "byte9": true
      },
      {
        "deltaTime": 24,
        "channel": 0,
        "type": "noteOff",
        "noteNumber": 61,
        "velocity": 0,
        "byte9": true
      },
      {
        "deltaTime": 140,
        "channel": 0,
        "type": "controller",
        "controllerType": 64,
        "value": 0
      },
      {
        "deltaTime": 0,
        "channel": 0,
        "type": "noteOn",
        "noteNumber": 63,
        "velocity": 51
      },
      {
        "deltaTime": 4,
        "channel": 0,
        "type": "noteOn",
        "noteNumber": 90,
        "velocity": 57
      },
      {
        "deltaTime": 4,
        "channel": 0,
        "type": "noteOn",
        "noteNumber": 58,
        "velocity": 38
      },
      {
        "deltaTime": 0,
        "running": true,
        "channel": 0,
        "type": "noteOn",
        "noteNumber": 83,
        "velocity": 58
      },
      {
        "deltaTime": 0,
        "running": true,
        "channel": 0,
        "type": "noteOn",
        "noteNumber": 95,
        "velocity": 64
      },
      {
        "deltaTime": 4,
        "channel": 0,
        "type": "noteOn",
        "noteNumber": 54,
        "velocity": 37
      },
      {
        "deltaTime": 0,
        "running": true,
        "channel": 0,
        "type": "noteOn",
        "noteNumber": 59,
        "velocity": 48
      },
      {
        "deltaTime": 104,
        "channel": 0,
        "type": "controller",
        "controllerType": 64,
        "value": 127
      },
      {
        "deltaTime": 88,
        "channel": 0,
        "type": "noteOff",
        "noteNumber": 95,
        "velocity": 0,
        "byte9": true
      },
      {
        "deltaTime": 24,
        "channel": 0,
        "type": "noteOff",
        "noteNumber": 90,
        "velocity": 0,
        "byte9": true
      },
      {
        "deltaTime": 16,
        "channel": 0,
        "type": "noteOff",
        "noteNumber": 83,
        "velocity": 0,
        "byte9": true
      },
      {
        "deltaTime": 136,
        "channel": 0,
        "type": "noteOff",
        "noteNumber": 63,
        "velocity": 0,
        "byte9": true
      },
      {
        "deltaTime": 20,
        "channel": 0,
        "type": "noteOff",
        "noteNumber": 59,
        "velocity": 0,
        "byte9": true
      },
      {
        "deltaTime": 24,
        "channel": 0,
        "type": "noteOff",
        "noteNumber": 54,
        "velocity": 0,
        "byte9": true
      },
      {
        "deltaTime": 0,
        "running": true,
        "channel": 0,
        "type": "noteOff",
        "noteNumber": 58,
        "velocity": 0,
        "byte9": true
      },
      {
        "deltaTime": 40,
        "channel": 0,
        "type": "noteOn",
        "noteNumber": 63,
        "velocity": 55
      },
      {
        "deltaTime": 8,
        "channel": 0,
        "type": "noteOn",
        "noteNumber": 58,
        "velocity": 29
      },
      {
        "deltaTime": 0,
        "running": true,
        "channel": 0,
        "type": "noteOn",
        "noteNumber": 59,
        "velocity": 59
      },
      {
        "deltaTime": 4,
        "channel": 0,
        "type": "noteOn",
        "noteNumber": 53,
        "velocity": 55
      },
      {
        "deltaTime": 8,
        "channel": 0,
        "type": "controller",
        "controllerType": 64,
        "value": 0
      },
      {
        "deltaTime": 212,
        "channel": 0,
        "type": "controller",
        "controllerType": 64,
        "value": 127
      },
      {
        "deltaTime": 100,
        "channel": 0,
        "type": "noteOff",
        "noteNumber": 63,
        "velocity": 0,
        "byte9": true
      },
      {
        "deltaTime": 8,
        "channel": 0,
        "type": "noteOff",
        "noteNumber": 59,
        "velocity": 0,
        "byte9": true
      },
      {
        "deltaTime": 28,
        "channel": 0,
        "type": "noteOff",
        "noteNumber": 58,
        "velocity": 0,
        "byte9": true
      },
      {
        "deltaTime": 72,
        "channel": 0,
        "type": "noteOn",
        "noteNumber": 58,
        "velocity": 52
      },
      {
        "deltaTime": 12,
        "channel": 0,
        "type": "noteOff",
        "noteNumber": 53,
        "velocity": 0,
        "byte9": true
      },
      {
        "deltaTime": 24,
        "channel": 0,
        "type": "noteOn",
        "noteNumber": 73,
        "velocity": 85
      },
      {
        "deltaTime": 4,
        "channel": 0,
        "type": "noteOn",
        "noteNumber": 65,
        "velocity": 89
      },
      {
        "deltaTime": 0,
        "running": true,
        "channel": 0,
        "type": "noteOn",
        "noteNumber": 70,
        "velocity": 86
      },
      {
        "deltaTime": 4,
        "channel": 0,
        "type": "controller",
        "controllerType": 64,
        "value": 0
      },
      {
        "deltaTime": 4,
        "channel": 0,
        "type": "noteOn",
        "noteNumber": 68,
        "velocity": 42
      },
      {
        "deltaTime": 4,
        "channel": 0,
        "type": "noteOn",
        "noteNumber": 61,
        "velocity": 76
      },
      {
        "deltaTime": 8,
        "channel": 0,
        "type": "noteOff",
        "noteNumber": 58,
        "velocity": 0,
        "byte9": true
      },
      {
        "deltaTime": 4,
        "channel": 0,
        "type": "noteOff",
        "noteNumber": 68,
        "velocity": 0,
        "byte9": true
      },
      {
        "deltaTime": 36,
        "channel": 0,
        "type": "controller",
        "controllerType": 64,
        "value": 127
      },
      {
        "deltaTime": 116,
        "channel": 0,
        "type": "noteOff",
        "noteNumber": 73,
        "velocity": 0,
        "byte9": true
      },
      {
        "deltaTime": 20,
        "channel": 0,
        "type": "noteOff",
        "noteNumber": 65,
        "velocity": 0,
        "byte9": true
      },
      {
        "deltaTime": 20,
        "channel": 0,
        "type": "noteOff",
        "noteNumber": 70,
        "velocity": 0,
        "byte9": true
      },
      {
        "deltaTime": 28,
        "channel": 0,
        "type": "noteOn",
        "noteNumber": 70,
        "velocity": 83
      },
      {
        "deltaTime": 4,
        "channel": 0,
        "type": "noteOn",
        "noteNumber": 63,
        "velocity": 91
      },
      {
        "deltaTime": 0,
        "running": true,
        "channel": 0,
        "type": "noteOn",
        "noteNumber": 68,
        "velocity": 84
      },
      {
        "deltaTime": 0,
        "running": true,
        "channel": 0,
        "type": "noteOn",
        "noteNumber": 75,
        "velocity": 86
      },
      {
        "deltaTime": 4,
        "channel": 0,
        "type": "noteOn",
        "noteNumber": 65,
        "velocity": 84
      },
      {
        "deltaTime": 4,
        "channel": 0,
        "type": "controller",
        "controllerType": 64,
        "value": 0
      },
      {
        "deltaTime": 12,
        "channel": 0,
        "type": "noteOff",
        "noteNumber": 61,
        "velocity": 0,
        "byte9": true
      },
      {
        "deltaTime": 60,
        "channel": 0,
        "type": "controller",
        "controllerType": 64,
        "value": 127
      },
      {
        "deltaTime": 100,
        "channel": 0,
        "type": "noteOff",
        "noteNumber": 68,
        "velocity": 0,
        "byte9": true
      },
      {
        "deltaTime": 8,
        "channel": 0,
        "type": "noteOff",
        "noteNumber": 75,
        "velocity": 0,
        "byte9": true
      },
      {
        "deltaTime": 4,
        "channel": 0,
        "type": "noteOff",
        "noteNumber": 63,
        "velocity": 0,
        "byte9": true
      },
      {
        "deltaTime": 12,
        "channel": 0,
        "type": "noteOff",
        "noteNumber": 65,
        "velocity": 0,
        "byte9": true
      },
      {
        "deltaTime": 8,
        "channel": 0,
        "type": "noteOff",
        "noteNumber": 70,
        "velocity": 0,
        "byte9": true
      },
      {
        "deltaTime": 28,
        "channel": 0,
        "type": "controller",
        "controllerType": 64,
        "value": 0
      },
      {
        "deltaTime": 8,
        "channel": 0,
        "type": "noteOn",
        "noteNumber": 68,
        "velocity": 69
      },
      {
        "deltaTime": 0,
        "running": true,
        "channel": 0,
        "type": "noteOn",
        "noteNumber": 72,
        "velocity": 68
      },
      {
        "deltaTime": 4,
        "channel": 0,
        "type": "noteOn",
        "noteNumber": 60,
        "velocity": 68
      },
      {
        "deltaTime": 0,
        "running": true,
        "channel": 0,
        "type": "noteOn",
        "noteNumber": 64,
        "velocity": 64
      },
      {
        "deltaTime": 60,
        "channel": 0,
        "type": "controller",
        "controllerType": 64,
        "value": 127
      },
      {
        "deltaTime": 28,
        "channel": 0,
        "type": "noteOff",
        "noteNumber": 72,
        "velocity": 0,
        "byte9": true
      },
      {
        "deltaTime": 12,
        "channel": 0,
        "type": "noteOff",
        "noteNumber": 68,
        "velocity": 0,
        "byte9": true
      },
      {
        "deltaTime": 28,
        "channel": 0,
        "type": "noteOff",
        "noteNumber": 64,
        "velocity": 0,
        "byte9": true
      },
      {
        "deltaTime": 24,
        "channel": 0,
        "type": "noteOff",
        "noteNumber": 60,
        "velocity": 0,
        "byte9": true
      },
      {
        "deltaTime": 76,
        "channel": 0,
        "type": "controller",
        "controllerType": 64,
        "value": 0
      },
      {
        "deltaTime": 12,
        "channel": 0,
        "type": "noteOn",
        "noteNumber": 55,
        "velocity": 42
      },
      {
        "deltaTime": 4,
        "channel": 0,
        "type": "noteOn",
        "noteNumber": 58,
        "velocity": 30
      },
      {
        "deltaTime": 4,
        "channel": 0,
        "type": "noteOn",
        "noteNumber": 65,
        "velocity": 30
      },
      {
        "deltaTime": 4,
        "channel": 0,
        "type": "noteOn",
        "noteNumber": 64,
        "velocity": 36
      },
      {
        "deltaTime": 44,
        "channel": 0,
        "type": "controller",
        "controllerType": 64,
        "value": 127
      },
      {
        "deltaTime": 0,
        "channel": 0,
        "type": "noteOff",
        "noteNumber": 65,
        "velocity": 0,
        "byte9": true
      },
      {
        "deltaTime": 64,
        "channel": 0,
        "type": "noteOn",
        "noteNumber": 66,
        "velocity": 20
      },
      {
        "deltaTime": 64,
        "channel": 0,
        "type": "noteOff",
        "noteNumber": 66,
        "velocity": 0,
        "byte9": true
      },
      {
        "deltaTime": 8,
        "channel": 0,
        "type": "noteOff",
        "noteNumber": 58,
        "velocity": 0,
        "byte9": true
      },
      {
        "deltaTime": 4,
        "channel": 0,
        "type": "noteOff",
        "noteNumber": 55,
        "velocity": 0,
        "byte9": true
      },
      {
        "deltaTime": 8,
        "channel": 0,
        "type": "noteOn",
        "noteNumber": 52,
        "velocity": 52
      },
      {
        "deltaTime": 16,
        "channel": 0,
        "type": "noteOff",
        "noteNumber": 64,
        "velocity": 0,
        "byte9": true
      },
      {
        "deltaTime": 12,
        "channel": 0,
        "type": "controller",
        "controllerType": 64,
        "value": 0
      },
      {
        "deltaTime": 12,
        "channel": 0,
        "type": "noteOff",
        "noteNumber": 52,
        "velocity": 0,
        "byte9": true
      },
      {
        "deltaTime": 8,
        "channel": 0,
        "type": "noteOn",
        "noteNumber": 56,
        "velocity": 60
      },
      {
        "deltaTime": 4,
        "channel": 0,
        "type": "noteOn",
        "noteNumber": 55,
        "velocity": 63
      },
      {
        "deltaTime": 0,
        "running": true,
        "channel": 0,
        "type": "noteOn",
        "noteNumber": 67,
        "velocity": 57
      },
      {
        "deltaTime": 8,
        "channel": 0,
        "type": "noteOn",
        "noteNumber": 60,
        "velocity": 53
      },
      {
        "deltaTime": 180,
        "channel": 0,
        "type": "noteOff",
        "noteNumber": 67,
        "velocity": 0,
        "byte9": true
      },
      {
        "deltaTime": 12,
        "channel": 0,
        "type": "noteOff",
        "noteNumber": 60,
        "velocity": 0,
        "byte9": true
      },
      {
        "deltaTime": 0,
        "running": true,
        "channel": 0,
        "type": "noteOn",
        "noteNumber": 65,
        "velocity": 15
      },
      {
        "deltaTime": 16,
        "channel": 0,
        "type": "noteOff",
        "noteNumber": 56,
        "velocity": 0,
        "byte9": true
      },
      {
        "deltaTime": 8,
        "channel": 0,
        "type": "noteOff",
        "noteNumber": 65,
        "velocity": 0,
        "byte9": true
      },
      {
        "deltaTime": 32,
        "channel": 0,
        "type": "noteOn",
        "noteNumber": 66,
        "velocity": 48
      },
      {
        "deltaTime": 4,
        "channel": 0,
        "type": "noteOn",
        "noteNumber": 56,
        "velocity": 36
      },
      {
        "deltaTime": 4,
        "channel": 0,
        "type": "noteOn",
        "noteNumber": 54,
        "velocity": 39
      },
      {
        "deltaTime": 0,
        "running": true,
        "channel": 0,
        "type": "noteOff",
        "noteNumber": 55,
        "velocity": 0,
        "byte9": true
      },
      {
        "deltaTime": 4,
        "channel": 0,
        "type": "noteOn",
        "noteNumber": 60,
        "velocity": 59
      },
      {
        "deltaTime": 180,
        "channel": 0,
        "type": "noteOff",
        "noteNumber": 60,
        "velocity": 0,
        "byte9": true
      },
      {
        "deltaTime": 4,
        "channel": 0,
        "type": "noteOn",
        "noteNumber": 51,
        "velocity": 34
      },
      {
        "deltaTime": 4,
        "channel": 0,
        "type": "noteOff",
        "noteNumber": 56,
        "velocity": 0,
        "byte9": true
      },
      {
        "deltaTime": 8,
        "channel": 0,
        "type": "noteOff",
        "noteNumber": 66,
        "velocity": 0,
        "byte9": true
      },
      {
        "deltaTime": 8,
        "channel": 0,
        "type": "noteOff",
        "noteNumber": 54,
        "velocity": 0,
        "byte9": true
      },
      {
        "deltaTime": 36,
        "channel": 0,
        "type": "noteOn",
        "noteNumber": 56,
        "velocity": 46
      },
      {
        "deltaTime": 8,
        "channel": 0,
        "type": "noteOn",
        "noteNumber": 53,
        "velocity": 51
      },
      {
        "deltaTime": 0,
        "running": true,
        "channel": 0,
        "type": "noteOn",
        "noteNumber": 60,
        "velocity": 53
      },
      {
        "deltaTime": 0,
        "running": true,
        "channel": 0,
        "type": "noteOn",
        "noteNumber": 65,
        "velocity": 46
      },
      {
        "deltaTime": 4,
        "channel": 0,
        "type": "noteOff",
        "noteNumber": 51,
        "velocity": 0,
        "byte9": true
      },
      {
        "deltaTime": 228,
        "channel": 0,
        "type": "controller",
        "controllerType": 64,
        "value": 127
      },
      {
        "deltaTime": 56,
        "channel": 0,
        "type": "noteOff",
        "noteNumber": 56,
        "velocity": 0,
        "byte9": true
      },
      {
        "deltaTime": 16,
        "channel": 0,
        "type": "noteOff",
        "noteNumber": 53,
        "velocity": 0,
        "byte9": true
      },
      {
        "deltaTime": 4,
        "channel": 0,
        "type": "noteOff",
        "noteNumber": 60,
        "velocity": 0,
        "byte9": true
      },
      {
        "deltaTime": 12,
        "channel": 0,
        "type": "noteOff",
        "noteNumber": 65,
        "velocity": 0,
        "byte9": true
      },
      {
        "deltaTime": 136,
        "channel": 0,
        "type": "controller",
        "controllerType": 64,
        "value": 0
      },
      {
        "deltaTime": 4,
        "channel": 0,
        "type": "noteOn",
        "noteNumber": 68,
        "velocity": 79
      },
      {
        "deltaTime": 0,
        "running": true,
        "channel": 0,
        "type": "noteOn",
        "noteNumber": 75,
        "velocity": 71
      },
      {
        "deltaTime": 4,
        "channel": 0,
        "type": "noteOn",
        "noteNumber": 64,
        "velocity": 78
      },
      {
        "deltaTime": 0,
        "running": true,
        "channel": 0,
        "type": "noteOn",
        "noteNumber": 72,
        "velocity": 70
      },
      {
        "deltaTime": 4,
        "channel": 0,
        "type": "noteOn",
        "noteNumber": 63,
        "velocity": 74
      },
      {
        "deltaTime": 48,
        "channel": 0,
        "type": "noteOff",
        "noteNumber": 64,
        "velocity": 0,
        "byte9": true
      },
      {
        "deltaTime": 12,
        "channel": 0,
        "type": "noteOff",
        "noteNumber": 75,
        "velocity": 0,
        "byte9": true
      },
      {
        "deltaTime": 8,
        "channel": 0,
        "type": "noteOff",
        "noteNumber": 68,
        "velocity": 0,
        "byte9": true
      },
      {
        "deltaTime": 8,
        "channel": 0,
        "type": "noteOff",
        "noteNumber": 72,
        "velocity": 0,
        "byte9": true
      },
      {
        "deltaTime": 8,
        "channel": 0,
        "type": "noteOff",
        "noteNumber": 63,
        "velocity": 0,
        "byte9": true
      },
      {
        "deltaTime": 8,
        "channel": 0,
        "type": "noteOn",
        "noteNumber": 61,
        "velocity": 49
      },
      {
        "deltaTime": 52,
        "channel": 0,
        "type": "noteOff",
        "noteNumber": 61,
        "velocity": 0,
        "byte9": true
      },
      {
        "deltaTime": 8,
        "channel": 0,
        "type": "noteOn",
        "noteNumber": 63,
        "velocity": 83
      },
      {
        "deltaTime": 0,
        "running": true,
        "channel": 0,
        "type": "noteOn",
        "noteNumber": 68,
        "velocity": 84
      },
      {
        "deltaTime": 0,
        "running": true,
        "channel": 0,
        "type": "noteOn",
        "noteNumber": 75,
        "velocity": 74
      },
      {
        "deltaTime": 4,
        "channel": 0,
        "type": "noteOn",
        "noteNumber": 64,
        "velocity": 82
      },
      {
        "deltaTime": 0,
        "running": true,
        "channel": 0,
        "type": "noteOn",
        "noteNumber": 72,
        "velocity": 71
      },
      {
        "deltaTime": 192,
        "channel": 0,
        "type": "controller",
        "controllerType": 64,
        "value": 127
      },
      {
        "deltaTime": 88,
        "channel": 0,
        "type": "noteOff",
        "noteNumber": 64,
        "velocity": 0,
        "byte9": true
      },
      {
        "deltaTime": 0,
        "running": true,
        "channel": 0,
        "type": "noteOff",
        "noteNumber": 68,
        "velocity": 0,
        "byte9": true
      },
      {
        "deltaTime": 8,
        "channel": 0,
        "type": "noteOff",
        "noteNumber": 72,
        "velocity": 0,
        "byte9": true
      },
      {
        "deltaTime": 0,
        "running": true,
        "channel": 0,
        "type": "noteOff",
        "noteNumber": 75,
        "velocity": 0,
        "byte9": true
      },
      {
        "deltaTime": 28,
        "channel": 0,
        "type": "controller",
        "controllerType": 64,
        "value": 0
      },
      {
        "deltaTime": 4,
        "channel": 0,
        "type": "noteOn",
        "noteNumber": 68,
        "velocity": 50
      },
      {
        "deltaTime": 0,
        "running": true,
        "channel": 0,
        "type": "noteOn",
        "noteNumber": 73,
        "velocity": 36
      },
      {
        "deltaTime": 4,
        "channel": 0,
        "type": "noteOn",
        "noteNumber": 64,
        "velocity": 61
      },
      {
        "deltaTime": 4,
        "channel": 0,
        "type": "noteOn",
        "noteNumber": 61,
        "velocity": 52
      },
      {
        "deltaTime": 4,
        "channel": 0,
        "type": "noteOff",
        "noteNumber": 63,
        "velocity": 0,
        "byte9": true
      },
      {
        "deltaTime": 64,
        "channel": 0,
        "type": "controller",
        "controllerType": 64,
        "value": 127
      },
      {
        "deltaTime": 228,
        "channel": 0,
        "type": "noteOff",
        "noteNumber": 64,
        "velocity": 0,
        "byte9": true
      },
      {
        "deltaTime": 16,
        "channel": 0,
        "type": "noteOff",
        "noteNumber": 68,
        "velocity": 0,
        "byte9": true
      },
      {
        "deltaTime": 0,
        "running": true,
        "channel": 0,
        "type": "noteOff",
        "noteNumber": 73,
        "velocity": 0,
        "byte9": true
      },
      {
        "deltaTime": 68,
        "channel": 0,
        "type": "noteOff",
        "noteNumber": 61,
        "velocity": 0,
        "byte9": true
      },
      {
        "deltaTime": 60,
        "channel": 0,
        "type": "controller",
        "controllerType": 64,
        "value": 0
      },
      {
        "deltaTime": 212,
        "channel": 0,
        "type": "noteOn",
        "noteNumber": 63,
        "velocity": 53
      },
      {
        "deltaTime": 4,
        "channel": 0,
        "type": "noteOn",
        "noteNumber": 68,
        "velocity": 53
      },
      {
        "deltaTime": 4,
        "channel": 0,
        "type": "noteOn",
        "noteNumber": 59,
        "velocity": 53
      },
      {
        "deltaTime": 4,
        "channel": 0,
        "type": "noteOn",
        "noteNumber": 71,
        "velocity": 38
      },
      {
        "deltaTime": 4,
        "channel": 0,
        "type": "noteOn",
        "noteNumber": 58,
        "velocity": 56
      },
      {
        "deltaTime": 116,
        "channel": 0,
        "type": "noteOff",
        "noteNumber": 59,
        "velocity": 0,
        "byte9": true
      },
      {
        "deltaTime": 16,
        "channel": 0,
        "type": "noteOff",
        "noteNumber": 63,
        "velocity": 0,
        "byte9": true
      },
      {
        "deltaTime": 8,
        "channel": 0,
        "type": "noteOff",
        "noteNumber": 68,
        "velocity": 0,
        "byte9": true
      },
      {
        "deltaTime": 4,
        "channel": 0,
        "type": "noteOff",
        "noteNumber": 71,
        "velocity": 0,
        "byte9": true
      },
      {
        "deltaTime": 20,
        "channel": 0,
        "type": "noteOff",
        "noteNumber": 58,
        "velocity": 0,
        "byte9": true
      },
      {
        "deltaTime": 12,
        "channel": 0,
        "type": "noteOn",
        "noteNumber": 56,
        "velocity": 32
      },
      {
        "deltaTime": 36,
        "channel": 0,
        "type": "noteOff",
        "noteNumber": 56,
        "velocity": 0,
        "byte9": true
      },
      {
        "deltaTime": 24,
        "channel": 0,
        "type": "noteOn",
        "noteNumber": 58,
        "velocity": 52
      },
      {
        "deltaTime": 4,
        "channel": 0,
        "type": "noteOn",
        "noteNumber": 63,
        "velocity": 50
      },
      {
        "deltaTime": 0,
        "running": true,
        "channel": 0,
        "type": "noteOn",
        "noteNumber": 68,
        "velocity": 46
      },
      {
        "deltaTime": 0,
        "running": true,
        "channel": 0,
        "type": "noteOn",
        "noteNumber": 71,
        "velocity": 46
      },
      {
        "deltaTime": 4,
        "channel": 0,
        "type": "noteOn",
        "noteNumber": 59,
        "velocity": 47
      },
      {
        "deltaTime": 160,
        "channel": 0,
        "type": "controller",
        "controllerType": 64,
        "value": 127
      },
      {
        "deltaTime": 52,
        "channel": 0,
        "type": "noteOff",
        "noteNumber": 71,
        "velocity": 0,
        "byte9": true
      },
      {
        "deltaTime": 12,
        "channel": 0,
        "type": "noteOff",
        "noteNumber": 68,
        "velocity": 0,
        "byte9": true
      },
      {
        "deltaTime": 4,
        "channel": 0,
        "type": "noteOff",
        "noteNumber": 58,
        "velocity": 0,
        "byte9": true
      },
      {
        "deltaTime": 8,
        "channel": 0,
        "type": "noteOff",
        "noteNumber": 59,
        "velocity": 0,
        "byte9": true
      },
      {
        "deltaTime": 4,
        "channel": 0,
        "type": "noteOff",
        "noteNumber": 63,
        "velocity": 0,
        "byte9": true
      },
      {
        "deltaTime": 184,
        "channel": 0,
        "type": "controller",
        "controllerType": 64,
        "value": 0
      },
      {
        "deltaTime": 24,
        "channel": 0,
        "type": "noteOn",
        "noteNumber": 56,
        "velocity": 36
      },
      {
        "deltaTime": 0,
        "running": true,
        "channel": 0,
        "type": "noteOn",
        "noteNumber": 63,
        "velocity": 38
      },
      {
        "deltaTime": 0,
        "running": true,
        "channel": 0,
        "type": "noteOn",
        "noteNumber": 67,
        "velocity": 30
      },
      {
        "deltaTime": 4,
        "channel": 0,
        "type": "noteOn",
        "noteNumber": 46,
        "velocity": 35
      },
      {
        "deltaTime": 0,
        "running": true,
        "channel": 0,
        "type": "noteOn",
        "noteNumber": 60,
        "velocity": 49
      },
      {
        "deltaTime": 20,
        "channel": 0,
        "type": "noteOff",
        "noteNumber": 60,
        "velocity": 0,
        "byte9": true
      },
      {
        "deltaTime": 8,
        "channel": 0,
        "type": "noteOff",
        "noteNumber": 56,
        "velocity": 0,
        "byte9": true
      },
      {
        "deltaTime": 0,
        "running": true,
        "channel": 0,
        "type": "noteOff",
        "noteNumber": 67,
        "velocity": 0,
        "byte9": true
      },
      {
        "deltaTime": 12,
        "channel": 0,
        "type": "noteOff",
        "noteNumber": 63,
        "velocity": 0,
        "byte9": true
      },
      {
        "deltaTime": 4,
        "channel": 0,
        "type": "noteOff",
        "noteNumber": 46,
        "velocity": 0,
        "byte9": true
      },
      {
        "deltaTime": 184,
        "channel": 0,
        "type": "controller",
        "controllerType": 64,
        "value": 127
      },
      {
        "deltaTime": 184,
        "channel": 0,
        "type": "noteOn",
        "noteNumber": 94,
        "velocity": 80
      },
      {
        "deltaTime": 4,
        "channel": 0,
        "type": "noteOn",
        "noteNumber": 56,
        "velocity": 71
      },
      {
        "deltaTime": 0,
        "running": true,
        "channel": 0,
        "type": "noteOn",
        "noteNumber": 62,
        "velocity": 66
      },
      {
        "deltaTime": 0,
        "running": true,
        "channel": 0,
        "type": "noteOn",
        "noteNumber": 66,
        "velocity": 76
      },
      {
        "deltaTime": 4,
        "channel": 0,
        "type": "noteOn",
        "noteNumber": 82,
        "velocity": 76
      },
      {
        "deltaTime": 0,
        "running": true,
        "channel": 0,
        "type": "noteOn",
        "noteNumber": 87,
        "velocity": 76
      },
      {
        "deltaTime": 12,
        "channel": 0,
        "type": "noteOff",
        "noteNumber": 62,
        "velocity": 0,
        "byte9": true
      },
      {
        "deltaTime": 4,
        "channel": 0,
        "type": "controller",
        "controllerType": 64,
        "value": 0
      },
      {
        "deltaTime": 4,
        "channel": 0,
        "type": "noteOff",
        "noteNumber": 66,
        "velocity": 0,
        "byte9": true
      },
      {
        "deltaTime": 0,
        "running": true,
        "channel": 0,
        "type": "noteOff",
        "noteNumber": 82,
        "velocity": 0,
        "byte9": true
      },
      {
        "deltaTime": 8,
        "channel": 0,
        "type": "noteOff",
        "noteNumber": 94,
        "velocity": 0,
        "byte9": true
      },
      {
        "deltaTime": 4,
        "channel": 0,
        "type": "noteOff",
        "noteNumber": 87,
        "velocity": 0,
        "byte9": true
      },
      {
        "deltaTime": 4,
        "channel": 0,
        "type": "noteOff",
        "noteNumber": 56,
        "velocity": 0,
        "byte9": true
      },
      {
        "deltaTime": 44,
        "channel": 0,
        "type": "controller",
        "controllerType": 64,
        "value": 127
      },
      {
        "deltaTime": 0,
        "channel": 0,
        "type": "noteOn",
        "noteNumber": 62,
        "velocity": 38
      },
      {
        "deltaTime": 0,
        "running": true,
        "channel": 0,
        "type": "noteOn",
        "noteNumber": 66,
        "velocity": 52
      },
      {
        "deltaTime": 4,
        "channel": 0,
        "type": "noteOn",
        "noteNumber": 56,
        "velocity": 38
      },
      {
        "deltaTime": 8,
        "channel": 0,
        "type": "noteOn",
        "noteNumber": 78,
        "velocity": 56
      },
      {
        "deltaTime": 0,
        "running": true,
        "channel": 0,
        "type": "noteOn",
        "noteNumber": 90,
        "velocity": 58
      },
      {
        "deltaTime": 40,
        "channel": 0,
        "type": "noteOff",
        "noteNumber": 66,
        "velocity": 0,
        "byte9": true
      },
      {
        "deltaTime": 8,
        "channel": 0,
        "type": "noteOff",
        "noteNumber": 56,
        "velocity": 0,
        "byte9": true
      },
      {
        "deltaTime": 8,
        "channel": 0,
        "type": "noteOff",
        "noteNumber": 62,
        "velocity": 0,
        "byte9": true
      },
      {
        "deltaTime": 16,
        "channel": 0,
        "type": "noteOff",
        "noteNumber": 90,
        "velocity": 0,
        "byte9": true
      },
      {
        "deltaTime": 12,
        "channel": 0,
        "type": "noteOff",
        "noteNumber": 78,
        "velocity": 0,
        "byte9": true
      },
      {
        "deltaTime": 112,
        "channel": 0,
        "type": "controller",
        "controllerType": 64,
        "value": 0
      },
      {
        "deltaTime": 16,
        "channel": 0,
        "type": "noteOn",
        "noteNumber": 73,
        "velocity": 56
      },
      {
        "deltaTime": 0,
        "running": true,
        "channel": 0,
        "type": "noteOn",
        "noteNumber": 85,
        "velocity": 67
      },
      {
        "deltaTime": 12,
        "channel": 0,
        "type": "noteOn",
        "noteNumber": 66,
        "velocity": 51
      },
      {
        "deltaTime": 8,
        "channel": 0,
        "type": "noteOn",
        "noteNumber": 56,
        "velocity": 40
      },
      {
        "deltaTime": 0,
        "running": true,
        "channel": 0,
        "type": "noteOn",
        "noteNumber": 62,
        "velocity": 34
      },
      {
        "deltaTime": 8,
        "channel": 0,
        "type": "controller",
        "controllerType": 64,
        "value": 127
      },
      {
        "deltaTime": 100,
        "channel": 0,
        "type": "noteOff",
        "noteNumber": 66,
        "velocity": 0,
        "byte9": true
      },
      {
        "deltaTime": 12,
        "channel": 0,
        "type": "noteOff",
        "noteNumber": 73,
        "velocity": 0,
        "byte9": true
      },
      {
        "deltaTime": 0,
        "running": true,
        "channel": 0,
        "type": "noteOff",
        "noteNumber": 85,
        "velocity": 0,
        "byte9": true
      },
      {
        "deltaTime": 20,
        "channel": 0,
        "type": "noteOff",
        "noteNumber": 62,
        "velocity": 0,
        "byte9": true
      },
      {
        "deltaTime": 28,
        "channel": 0,
        "type": "noteOff",
        "noteNumber": 56,
        "velocity": 0,
        "byte9": true
      },
      {
        "deltaTime": 64,
        "channel": 0,
        "type": "noteOn",
        "noteNumber": 62,
        "velocity": 31
      },
      {
        "deltaTime": 4,
        "channel": 0,
        "type": "controller",
        "controllerType": 64,
        "value": 0
      },
      {
        "deltaTime": 0,
        "channel": 0,
        "type": "noteOn",
        "noteNumber": 60,
        "velocity": 33
      },
      {
        "deltaTime": 0,
        "running": true,
        "channel": 0,
        "type": "noteOn",
        "noteNumber": 65,
        "velocity": 44
      },
      {
        "deltaTime": 0,
        "running": true,
        "channel": 0,
        "type": "noteOn",
        "noteNumber": 82,
        "velocity": 48
      },
      {
        "deltaTime": 4,
        "channel": 0,
        "type": "noteOn",
        "noteNumber": 70,
        "velocity": 39
      },
      {
        "deltaTime": 4,
        "channel": 0,
        "type": "noteOn",
        "noteNumber": 55,
        "velocity": 42
      },
      {
        "deltaTime": 140,
        "channel": 0,
        "type": "controller",
        "controllerType": 64,
        "value": 127
      },
      {
        "deltaTime": 88,
        "channel": 0,
        "type": "noteOff",
        "noteNumber": 82,
        "velocity": 0,
        "byte9": true
      },
      {
        "deltaTime": 12,
        "channel": 0,
        "type": "noteOff",
        "noteNumber": 70,
        "velocity": 0,
        "byte9": true
      },
      {
        "deltaTime": 8,
        "channel": 0,
        "type": "noteOff",
        "noteNumber": 65,
        "velocity": 0,
        "byte9": true
      },
      {
        "deltaTime": 4,
        "channel": 0,
        "type": "noteOff",
        "noteNumber": 55,
        "velocity": 0,
        "byte9": true
      },
      {
        "deltaTime": 24,
        "channel": 0,
        "type": "noteOff",
        "noteNumber": 60,
        "velocity": 0,
        "byte9": true
      },
      {
        "deltaTime": 64,
        "channel": 0,
        "type": "noteOff",
        "noteNumber": 62,
        "velocity": 0,
        "byte9": true
      },
      {
        "deltaTime": 140,
        "channel": 0,
        "type": "controller",
        "controllerType": 64,
        "value": 0
      },
      {
        "deltaTime": 4,
        "channel": 0,
        "type": "noteOn",
        "noteNumber": 74,
        "velocity": 54
      },
      {
        "deltaTime": 0,
        "running": true,
        "channel": 0,
        "type": "noteOn",
        "noteNumber": 79,
        "velocity": 51
      },
      {
        "deltaTime": 4,
        "channel": 0,
        "type": "noteOn",
        "noteNumber": 62,
        "velocity": 32
      },
      {
        "deltaTime": 0,
        "running": true,
        "channel": 0,
        "type": "noteOn",
        "noteNumber": 67,
        "velocity": 35
      },
      {
        "deltaTime": 4,
        "channel": 0,
        "type": "noteOn",
        "noteNumber": 60,
        "velocity": 33
      },
      {
        "deltaTime": 12,
        "channel": 0,
        "type": "noteOn",
        "noteNumber": 55,
        "velocity": 32
      },
      {
        "deltaTime": 64,
        "channel": 0,
        "type": "controller",
        "controllerType": 64,
        "value": 127
      },
      {
        "deltaTime": 12,
        "channel": 0,
        "type": "noteOff",
        "noteNumber": 67,
        "velocity": 0,
        "byte9": true
      },
      {
        "deltaTime": 40,
        "channel": 0,
        "type": "noteOff",
        "noteNumber": 55,
        "velocity": 0,
        "byte9": true
      },
      {
        "deltaTime": 4,
        "channel": 0,
        "type": "noteOff",
        "noteNumber": 62,
        "velocity": 0,
        "byte9": true
      },
      {
        "deltaTime": 8,
        "channel": 0,
        "type": "noteOff",
        "noteNumber": 74,
        "velocity": 0,
        "byte9": true
      },
      {
        "deltaTime": 4,
        "channel": 0,
        "type": "noteOff",
        "noteNumber": 60,
        "velocity": 0,
        "byte9": true
      },
      {
        "deltaTime": 12,
        "channel": 0,
        "type": "noteOff",
        "noteNumber": 79,
        "velocity": 0,
        "byte9": true
      },
      {
        "deltaTime": 284,
        "channel": 0,
        "type": "controller",
        "controllerType": 64,
        "value": 0
      },
      {
        "deltaTime": 24,
        "channel": 0,
        "type": "noteOn",
        "noteNumber": 56,
        "velocity": 46
      },
      {
        "deltaTime": 0,
        "running": true,
        "channel": 0,
        "type": "noteOn",
        "noteNumber": 61,
        "velocity": 43
      },
      {
        "deltaTime": 0,
        "running": true,
        "channel": 0,
        "type": "noteOn",
        "noteNumber": 65,
        "velocity": 61
      },
      {
        "deltaTime": 4,
        "channel": 0,
        "type": "noteOn",
        "noteNumber": 60,
        "velocity": 53
      },
      {
        "deltaTime": 4,
        "channel": 0,
        "type": "noteOn",
        "noteNumber": 84,
        "velocity": 66
      },
      {
        "deltaTime": 0,
        "running": true,
        "channel": 0,
        "type": "noteOn",
        "noteNumber": 89,
        "velocity": 67
      },
      {
        "deltaTime": 4,
        "channel": 0,
        "type": "controller",
        "controllerType": 64,
        "value": 127
      },
      {
        "deltaTime": 0,
        "channel": 0,
        "type": "noteOn",
        "noteNumber": 77,
        "velocity": 54
      },
      {
        "deltaTime": 8,
        "channel": 0,
        "type": "noteOff",
        "noteNumber": 60,
        "velocity": 0,
        "byte9": true
      },
      {
        "deltaTime": 4,
        "channel": 0,
        "type": "noteOff",
        "noteNumber": 65,
        "velocity": 0,
        "byte9": true
      },
      {
        "deltaTime": 0,
        "running": true,
        "channel": 0,
        "type": "noteOff",
        "noteNumber": 77,
        "velocity": 0,
        "byte9": true
      },
      {
        "deltaTime": 16,
        "channel": 0,
        "type": "noteOff",
        "noteNumber": 84,
        "velocity": 0,
        "byte9": true
      },
      {
        "deltaTime": 4,
        "channel": 0,
        "type": "noteOff",
        "noteNumber": 56,
        "velocity": 0,
        "byte9": true
      },
      {
        "deltaTime": 4,
        "channel": 0,
        "type": "noteOff",
        "noteNumber": 61,
        "velocity": 0,
        "byte9": true
      },
      {
        "deltaTime": 4,
        "channel": 0,
        "type": "noteOff",
        "noteNumber": 89,
        "velocity": 0,
        "byte9": true
      },
      {
        "deltaTime": 120,
        "channel": 0,
        "type": "noteOn",
        "noteNumber": 56,
        "velocity": 82
      },
      {
        "deltaTime": 0,
        "running": true,
        "channel": 0,
        "type": "noteOn",
        "noteNumber": 61,
        "velocity": 79
      },
      {
        "deltaTime": 4,
        "channel": 0,
        "type": "noteOn",
        "noteNumber": 60,
        "velocity": 90
      },
      {
        "deltaTime": 0,
        "running": true,
        "channel": 0,
        "type": "noteOn",
        "noteNumber": 65,
        "velocity": 89
      },
      {
        "deltaTime": 0,
        "running": true,
        "channel": 0,
        "type": "noteOn",
        "noteNumber": 96,
        "velocity": 92
      },
      {
        "deltaTime": 4,
        "channel": 0,
        "type": "noteOn",
        "noteNumber": 84,
        "velocity": 94
      },
      {
        "deltaTime": 0,
        "running": true,
        "channel": 0,
        "type": "noteOn",
        "noteNumber": 91,
        "velocity": 92
      },
      {
        "deltaTime": 4,
        "channel": 0,
        "type": "controller",
        "controllerType": 64,
        "value": 0
      },
      {
        "deltaTime": 72,
        "channel": 0,
        "type": "controller",
        "controllerType": 64,
        "value": 127
      },
      {
        "deltaTime": 160,
        "channel": 0,
        "type": "noteOff",
        "noteNumber": 96,
        "velocity": 0,
        "byte9": true
      },
      {
        "deltaTime": 8,
        "channel": 0,
        "type": "noteOff",
        "noteNumber": 60,
        "velocity": 0,
        "byte9": true
      },
      {
        "deltaTime": 0,
        "running": true,
        "channel": 0,
        "type": "noteOff",
        "noteNumber": 91,
        "velocity": 0,
        "byte9": true
      },
      {
        "deltaTime": 12,
        "channel": 0,
        "type": "noteOff",
        "noteNumber": 65,
        "velocity": 0,
        "byte9": true
      },
      {
        "deltaTime": 0,
        "running": true,
        "channel": 0,
        "type": "noteOff",
        "noteNumber": 84,
        "velocity": 0,
        "byte9": true
      },
      {
        "deltaTime": 20,
        "channel": 0,
        "type": "noteOff",
        "noteNumber": 61,
        "velocity": 0,
        "byte9": true
      },
      {
        "deltaTime": 20,
        "channel": 0,
        "type": "noteOff",
        "noteNumber": 56,
        "velocity": 0,
        "byte9": true
      },
      {
        "deltaTime": 16,
        "channel": 0,
        "type": "controller",
        "controllerType": 64,
        "value": 0
      },
      {
        "deltaTime": 20,
        "channel": 0,
        "type": "noteOn",
        "noteNumber": 61,
        "velocity": 40
      },
      {
        "deltaTime": 0,
        "running": true,
        "channel": 0,
        "type": "noteOn",
        "noteNumber": 64,
        "velocity": 40
      },
      {
        "deltaTime": 4,
        "channel": 0,
        "type": "noteOn",
        "noteNumber": 55,
        "velocity": 48
      },
      {
        "deltaTime": 12,
        "channel": 0,
        "type": "noteOn",
        "noteNumber": 94,
        "velocity": 48
      },
      {
        "deltaTime": 12,
        "channel": 0,
        "type": "noteOff",
        "noteNumber": 55,
        "velocity": 0,
        "byte9": true
      },
      {
        "deltaTime": 4,
        "channel": 0,
        "type": "noteOff",
        "noteNumber": 64,
        "velocity": 0,
        "byte9": true
      },
      {
        "deltaTime": 0,
        "running": true,
        "channel": 0,
        "type": "noteOff",
        "noteNumber": 94,
        "velocity": 0,
        "byte9": true
      },
      {
        "deltaTime": 8,
        "channel": 0,
        "type": "controller",
        "controllerType": 64,
        "value": 127
      },
      {
        "deltaTime": 0,
        "channel": 0,
        "type": "noteOff",
        "noteNumber": 61,
        "velocity": 0,
        "byte9": true
      },
      {
        "deltaTime": 116,
        "channel": 0,
        "type": "noteOn",
        "noteNumber": 91,
        "velocity": 79
      },
      {
        "deltaTime": 4,
        "channel": 0,
        "type": "noteOn",
        "noteNumber": 55,
        "velocity": 84
      },
      {
        "deltaTime": 0,
        "running": true,
        "channel": 0,
        "type": "noteOn",
        "noteNumber": 61,
        "velocity": 74
      },
      {
        "deltaTime": 0,
        "running": true,
        "channel": 0,
        "type": "noteOn",
        "noteNumber": 79,
        "velocity": 78
      },
      {
        "deltaTime": 0,
        "running": true,
        "channel": 0,
        "type": "noteOn",
        "noteNumber": 85,
        "velocity": 81
      },
      {
        "deltaTime": 4,
        "channel": 0,
        "type": "noteOn",
        "noteNumber": 64,
        "velocity": 74
      },
      {
        "deltaTime": 8,
        "channel": 0,
        "type": "controller",
        "controllerType": 64,
        "value": 0
      },
      {
        "deltaTime": 12,
        "channel": 0,
        "type": "noteOn",
        "noteNumber": 89,
        "velocity": 24
      },
      {
        "deltaTime": 16,
        "channel": 0,
        "type": "noteOff",
        "noteNumber": 89,
        "velocity": 0,
        "byte9": true
      },
      {
        "deltaTime": 16,
        "channel": 0,
        "type": "noteOff",
        "noteNumber": 85,
        "velocity": 0,
        "byte9": true
      },
      {
        "deltaTime": 12,
        "channel": 0,
        "type": "noteOn",
        "noteNumber": 86,
        "velocity": 36
      },
      {
        "deltaTime": 16,
        "channel": 0,
        "type": "controller",
        "controllerType": 64,
        "value": 127
      },
      {
        "deltaTime": 112,
        "channel": 0,
        "type": "noteOff",
        "noteNumber": 55,
        "velocity": 0,
        "byte9": true
      },
      {
        "deltaTime": 8,
        "channel": 0,
        "type": "noteOff",
        "noteNumber": 86,
        "velocity": 0,
        "byte9": true
      },
      {
        "deltaTime": 8,
        "channel": 0,
        "type": "noteOff",
        "noteNumber": 64,
        "velocity": 0,
        "byte9": true
      },
      {
        "deltaTime": 12,
        "channel": 0,
        "type": "noteOff",
        "noteNumber": 91,
        "velocity": 0,
        "byte9": true
      },
      {
        "deltaTime": 20,
        "channel": 0,
        "type": "noteOff",
        "noteNumber": 79,
        "velocity": 0,
        "byte9": true
      },
      {
        "deltaTime": 4,
        "channel": 0,
        "type": "noteOff",
        "noteNumber": 61,
        "velocity": 0,
        "byte9": true
      },
      {
        "deltaTime": 60,
        "channel": 0,
        "type": "controller",
        "controllerType": 64,
        "value": 0
      },
      {
        "deltaTime": 4,
        "channel": 0,
        "type": "noteOn",
        "noteNumber": 89,
        "velocity": 57
      },
      {
        "deltaTime": 4,
        "channel": 0,
        "type": "noteOn",
        "noteNumber": 60,
        "velocity": 60
      },
      {
        "deltaTime": 0,
        "running": true,
        "channel": 0,
        "type": "noteOn",
        "noteNumber": 63,
        "velocity": 60
      },
      {
        "deltaTime": 4,
        "channel": 0,
        "type": "noteOn",
        "noteNumber": 58,
        "velocity": 45
      },
      {
        "deltaTime": 4,
        "channel": 0,
        "type": "noteOn",
        "noteNumber": 77,
        "velocity": 29
      },
      {
        "deltaTime": 0,
        "running": true,
        "channel": 0,
        "type": "noteOn",
        "noteNumber": 84,
        "velocity": 54
      },
      {
        "deltaTime": 4,
        "channel": 0,
        "type": "noteOn",
        "noteNumber": 53,
        "velocity": 52
      },
      {
        "deltaTime": 128,
        "channel": 0,
        "type": "controller",
        "controllerType": 64,
        "value": 127
      },
      {
        "deltaTime": 52,
        "channel": 0,
        "type": "noteOff",
        "noteNumber": 89,
        "velocity": 0,
        "byte9": true
      },
      {
        "deltaTime": 20,
        "channel": 0,
        "type": "noteOff",
        "noteNumber": 84,
        "velocity": 0,
        "byte9": true
      },
      {
        "deltaTime": 28,
        "channel": 0,
        "type": "noteOff",
        "noteNumber": 77,
        "velocity": 0,
        "byte9": true
      },
      {
        "deltaTime": 60,
        "channel": 0,
        "type": "noteOff",
        "noteNumber": 63,
        "velocity": 0,
        "byte9": true
      },
      {
        "deltaTime": 44,
        "channel": 0,
        "type": "noteOff",
        "noteNumber": 60,
        "velocity": 0,
        "byte9": true
      },
      {
        "deltaTime": 48,
        "channel": 0,
        "type": "noteOff",
        "noteNumber": 58,
        "velocity": 0,
        "byte9": true
      },
      {
        "deltaTime": 20,
        "channel": 0,
        "type": "noteOff",
        "noteNumber": 53,
        "velocity": 0,
        "byte9": true
      },
      {
        "deltaTime": 180,
        "channel": 0,
        "type": "noteOn",
        "noteNumber": 54,
        "velocity": 31
      },
      {
        "deltaTime": 16,
        "channel": 0,
        "type": "noteOff",
        "noteNumber": 54,
        "velocity": 0,
        "byte9": true
      },
      {
        "deltaTime": 4,
        "channel": 0,
        "type": "noteOn",
        "noteNumber": 55,
        "velocity": 58
      },
      {
        "deltaTime": 12,
        "channel": 0,
        "type": "noteOff",
        "noteNumber": 55,
        "velocity": 0,
        "byte9": true
      },
      {
        "deltaTime": 0,
        "running": true,
        "channel": 0,
        "type": "noteOn",
        "noteNumber": 68,
        "velocity": 76
      },
      {
        "deltaTime": 4,
        "channel": 0,
        "type": "noteOn",
        "noteNumber": 60,
        "velocity": 82
      },
      {
        "deltaTime": 0,
        "running": true,
        "channel": 0,
        "type": "noteOn",
        "noteNumber": 63,
        "velocity": 75
      },
      {
        "deltaTime": 0,
        "running": true,
        "channel": 0,
        "type": "noteOn",
        "noteNumber": 65,
        "velocity": 70
      },
      {
        "deltaTime": 4,
        "channel": 0,
        "type": "noteOn",
        "noteNumber": 56,
        "velocity": 69
      },
      {
        "deltaTime": 12,
        "channel": 0,
        "type": "controller",
        "controllerType": 64,
        "value": 0
      },
      {
        "deltaTime": 88,
        "channel": 0,
        "type": "controller",
        "controllerType": 64,
        "value": 127
      },
      {
        "deltaTime": 136,
        "channel": 0,
        "type": "noteOff",
        "noteNumber": 65,
        "velocity": 0,
        "byte9": true
      },
      {
        "deltaTime": 0,
        "running": true,
        "channel": 0,
        "type": "noteOff",
        "noteNumber": 68,
        "velocity": 0,
        "byte9": true
      },
      {
        "deltaTime": 4,
        "channel": 0,
        "type": "noteOff",
        "noteNumber": 60,
        "velocity": 0,
        "byte9": true
      },
      {
        "deltaTime": 20,
        "channel": 0,
        "type": "noteOn",
        "noteNumber": 54,
        "velocity": 25
      },
      {
        "deltaTime": 0,
        "running": true,
        "channel": 0,
        "type": "noteOff",
        "noteNumber": 63,
        "velocity": 0,
        "byte9": true
      },
      {
        "deltaTime": 24,
        "channel": 0,
        "type": "noteOff",
        "noteNumber": 54,
        "velocity": 0,
        "byte9": true
      },
      {
        "deltaTime": 24,
        "channel": 0,
        "type": "controller",
        "controllerType": 64,
        "value": 0
      },
      {
        "deltaTime": 0,
        "channel": 0,
        "type": "noteOn",
        "noteNumber": 63,
        "velocity": 77
      },
      {
        "deltaTime": 0,
        "running": true,
        "channel": 0,
        "type": "noteOn",
        "noteNumber": 70,
        "velocity": 82
      },
      {
        "deltaTime": 4,
        "channel": 0,
        "type": "noteOn",
        "noteNumber": 58,
        "velocity": 83
      },
      {
        "deltaTime": 0,
        "running": true,
        "channel": 0,
        "type": "noteOn",
        "noteNumber": 59,
        "velocity": 81
      },
      {
        "deltaTime": 0,
        "running": true,
        "channel": 0,
        "type": "noteOn",
        "noteNumber": 65,
        "velocity": 71
      },
      {
        "deltaTime": 24,
        "channel": 0,
        "type": "noteOff",
        "noteNumber": 56,
        "velocity": 0,
        "byte9": true
      },
      {
        "deltaTime": 132,
        "channel": 0,
        "type": "noteOff",
        "noteNumber": 59,
        "velocity": 0,
        "byte9": true
      },
      {
        "deltaTime": 4,
        "channel": 0,
        "type": "noteOff",
        "noteNumber": 65,
        "velocity": 0,
        "byte9": true
      },
      {
        "deltaTime": 12,
        "channel": 0,
        "type": "noteOff",
        "noteNumber": 63,
        "velocity": 0,
        "byte9": true
      },
      {
        "deltaTime": 0,
        "running": true,
        "channel": 0,
        "type": "noteOff",
        "noteNumber": 70,
        "velocity": 0,
        "byte9": true
      },
      {
        "deltaTime": 4,
        "channel": 0,
        "type": "noteOn",
        "noteNumber": 56,
        "velocity": 56
      },
      {
        "deltaTime": 0,
        "running": true,
        "channel": 0,
        "type": "noteOff",
        "noteNumber": 58,
        "velocity": 0,
        "byte9": true
      },
      {
        "deltaTime": 52,
        "channel": 0,
        "type": "noteOn",
        "noteNumber": 63,
        "velocity": 70
      },
      {
        "deltaTime": 4,
        "channel": 0,
        "type": "noteOn",
        "noteNumber": 70,
        "velocity": 74
      },
      {
        "deltaTime": 4,
        "channel": 0,
        "type": "noteOn",
        "noteNumber": 59,
        "velocity": 73
      },
      {
        "deltaTime": 0,
        "running": true,
        "channel": 0,
        "type": "noteOn",
        "noteNumber": 65,
        "velocity": 62
      },
      {
        "deltaTime": 4,
        "channel": 0,
        "type": "noteOn",
        "noteNumber": 58,
        "velocity": 67
      },
      {
        "deltaTime": 8,
        "channel": 0,
        "type": "noteOff",
        "noteNumber": 56,
        "velocity": 0,
        "byte9": true
      },
      {
        "deltaTime": 168,
        "channel": 0,
        "type": "noteOff",
        "noteNumber": 59,
        "velocity": 0,
        "byte9": true
      },
      {
        "deltaTime": 4,
        "channel": 0,
        "type": "noteOn",
        "noteNumber": 54,
        "velocity": 42
      },
      {
        "deltaTime": 4,
        "channel": 0,
        "type": "noteOff",
        "noteNumber": 58,
        "velocity": 0,
        "byte9": true
      },
      {
        "deltaTime": 0,
        "running": true,
        "channel": 0,
        "type": "noteOff",
        "noteNumber": 70,
        "velocity": 0,
        "byte9": true
      },
      {
        "deltaTime": 8,
        "channel": 0,
        "type": "noteOff",
        "noteNumber": 63,
        "velocity": 0,
        "byte9": true
      },
      {
        "deltaTime": 0,
        "running": true,
        "channel": 0,
        "type": "noteOff",
        "noteNumber": 65,
        "velocity": 0,
        "byte9": true
      },
      {
        "deltaTime": 24,
        "channel": 0,
        "type": "noteOn",
        "noteNumber": 55,
        "velocity": 29
      },
      {
        "deltaTime": 8,
        "channel": 0,
        "type": "noteOn",
        "noteNumber": 68,
        "velocity": 53
      },
      {
        "deltaTime": 4,
        "channel": 0,
        "type": "noteOn",
        "noteNumber": 56,
        "velocity": 62
      },
      {
        "deltaTime": 0,
        "running": true,
        "channel": 0,
        "type": "noteOn",
        "noteNumber": 59,
        "velocity": 50
      },
      {
        "deltaTime": 4,
        "channel": 0,
        "type": "noteOn",
        "noteNumber": 62,
        "velocity": 52
      },
      {
        "deltaTime": 4,
        "channel": 0,
        "type": "noteOff",
        "noteNumber": 55,
        "velocity": 0,
        "byte9": true
      },
      {
        "deltaTime": 0,
        "running": true,
        "channel": 0,
        "type": "noteOn",
        "noteNumber": 65,
        "velocity": 34
      },
      {
        "deltaTime": 8,
        "channel": 0,
        "type": "noteOff",
        "noteNumber": 54,
        "velocity": 0,
        "byte9": true
      },
      {
        "deltaTime": 116,
        "channel": 0,
        "type": "controller",
        "controllerType": 64,
        "value": 127
      },
      {
        "deltaTime": 20,
        "channel": 0,
        "type": "noteOff",
        "noteNumber": 59,
        "velocity": 0,
        "byte9": true
      },
      {
        "deltaTime": 0,
        "running": true,
        "channel": 0,
        "type": "noteOff",
        "noteNumber": 62,
        "velocity": 0,
        "byte9": true
      },
      {
        "deltaTime": 8,
        "channel": 0,
        "type": "noteOff",
        "noteNumber": 65,
        "velocity": 0,
        "byte9": true
      },
      {
        "deltaTime": 12,
        "channel": 0,
        "type": "controller",
        "controllerType": 64,
        "value": 0
      },
      {
        "deltaTime": 0,
        "channel": 0,
        "type": "noteOff",
        "noteNumber": 56,
        "velocity": 0,
        "byte9": true
      },
      {
        "deltaTime": 0,
        "running": true,
        "channel": 0,
        "type": "noteOff",
        "noteNumber": 68,
        "velocity": 0,
        "byte9": true
      },
      {
        "deltaTime": 8,
        "channel": 0,
        "type": "noteOn",
        "noteNumber": 54,
        "velocity": 38
      },
      {
        "deltaTime": 48,
        "channel": 0,
        "type": "noteOn",
        "noteNumber": 59,
        "velocity": 62
      },
      {
        "deltaTime": 0,
        "running": true,
        "channel": 0,
        "type": "noteOn",
        "noteNumber": 68,
        "velocity": 55
      },
      {
        "deltaTime": 4,
        "channel": 0,
        "type": "noteOn",
        "noteNumber": 56,
        "velocity": 48
      },
      {
        "deltaTime": 4,
        "channel": 0,
        "type": "noteOn",
        "noteNumber": 62,
        "velocity": 50
      },
      {
        "deltaTime": 4,
        "channel": 0,
        "type": "noteOff",
        "noteNumber": 54,
        "velocity": 0,
        "byte9": true
      },
      {
        "deltaTime": 4,
        "channel": 0,
        "type": "controller",
        "controllerType": 64,
        "value": 127
      },
      {
        "deltaTime": 4,
        "channel": 0,
        "type": "noteOn",
        "noteNumber": 65,
        "velocity": 36
      },
      {
        "deltaTime": 48,
        "channel": 0,
        "type": "noteOff",
        "noteNumber": 65,
        "velocity": 0,
        "byte9": true
      },
      {
        "deltaTime": 8,
        "channel": 0,
        "type": "noteOff",
        "noteNumber": 68,
        "velocity": 0,
        "byte9": true
      },
      {
        "deltaTime": 16,
        "channel": 0,
        "type": "noteOff",
        "noteNumber": 59,
        "velocity": 0,
        "byte9": true
      },
      {
        "deltaTime": 32,
        "channel": 0,
        "type": "noteOff",
        "noteNumber": 56,
        "velocity": 0,
        "byte9": true
      },
      {
        "deltaTime": 16,
        "channel": 0,
        "type": "noteOff",
        "noteNumber": 62,
        "velocity": 0,
        "byte9": true
      },
      {
        "deltaTime": 28,
        "channel": 0,
        "type": "noteOn",
        "noteNumber": 63,
        "velocity": 67
      },
      {
        "deltaTime": 0,
        "running": true,
        "channel": 0,
        "type": "noteOn",
        "noteNumber": 67,
        "velocity": 67
      },
      {
        "deltaTime": 4,
        "channel": 0,
        "type": "noteOn",
        "noteNumber": 58,
        "velocity": 63
      },
      {
        "deltaTime": 4,
        "channel": 0,
        "type": "noteOn",
        "noteNumber": 55,
        "velocity": 65
      },
      {
        "deltaTime": 4,
        "channel": 0,
        "type": "noteOn",
        "noteNumber": 46,
        "velocity": 42
      },
      {
        "deltaTime": 28,
        "channel": 0,
        "type": "controller",
        "controllerType": 64,
        "value": 0
      },
      {
        "deltaTime": 104,
        "channel": 0,
        "type": "controller",
        "controllerType": 64,
        "value": 127
      },
      {
        "deltaTime": 124,
        "channel": 0,
        "type": "noteOff",
        "noteNumber": 55,
        "velocity": 0,
        "byte9": true
      },
      {
        "deltaTime": 20,
        "channel": 0,
        "type": "noteOff",
        "noteNumber": 58,
        "velocity": 0,
        "byte9": true
      },
      {
        "deltaTime": 96,
        "channel": 0,
        "type": "noteOff",
        "noteNumber": 63,
        "velocity": 0,
        "byte9": true
      },
      {
        "deltaTime": 100,
        "channel": 0,
        "type": "noteOff",
        "noteNumber": 67,
        "velocity": 0,
        "byte9": true
      },
      {
        "deltaTime": 48,
        "channel": 0,
        "type": "noteOn",
        "noteNumber": 58,
        "velocity": 47
      },
      {
        "deltaTime": 0,
        "running": true,
        "channel": 0,
        "type": "noteOn",
        "noteNumber": 63,
        "velocity": 47
      },
      {
        "deltaTime": 4,
        "channel": 0,
        "type": "noteOn",
        "noteNumber": 55,
        "velocity": 53
      },
      {
        "deltaTime": 12,
        "channel": 0,
        "type": "controller",
        "controllerType": 64,
        "value": 0
      },
      {
        "deltaTime": 52,
        "channel": 0,
        "type": "controller",
        "controllerType": 64,
        "value": 127
      },
      {
        "deltaTime": 44,
        "channel": 0,
        "type": "noteOff",
        "noteNumber": 55,
        "velocity": 0,
        "byte9": true
      },
      {
        "deltaTime": 48,
        "channel": 0,
        "type": "noteOff",
        "noteNumber": 58,
        "velocity": 0,
        "byte9": true
      },
      {
        "deltaTime": 24,
        "channel": 0,
        "type": "noteOn",
        "noteNumber": 58,
        "velocity": 95
      },
      {
        "deltaTime": 12,
        "channel": 0,
        "type": "noteOff",
        "noteNumber": 63,
        "velocity": 0,
        "byte9": true
      },
      {
        "deltaTime": 80,
        "channel": 0,
        "type": "noteOff",
        "noteNumber": 46,
        "velocity": 0,
        "byte9": true
      },
      {
        "deltaTime": 188,
        "channel": 0,
        "type": "noteOff",
        "noteNumber": 58,
        "velocity": 0,
        "byte9": true
      },
      {
        "deltaTime": 24,
        "channel": 0,
        "type": "noteOn",
        "noteNumber": 63,
        "velocity": 70
      },
      {
        "deltaTime": 4,
        "channel": 0,
        "type": "noteOn",
        "noteNumber": 59,
        "velocity": 71
      },
      {
        "deltaTime": 0,
        "running": true,
        "channel": 0,
        "type": "noteOn",
        "noteNumber": 70,
        "velocity": 73
      },
      {
        "deltaTime": 4,
        "channel": 0,
        "type": "noteOn",
        "noteNumber": 58,
        "velocity": 57
      },
      {
        "deltaTime": 4,
        "channel": 0,
        "type": "noteOn",
        "noteNumber": 65,
        "velocity": 58
      },
      {
        "deltaTime": 8,
        "channel": 0,
        "type": "controller",
        "controllerType": 64,
        "value": 0
      },
      {
        "deltaTime": 220,
        "channel": 0,
        "type": "controller",
        "controllerType": 64,
        "value": 127
      },
      {
        "deltaTime": 164,
        "channel": 0,
        "type": "noteOff",
        "noteNumber": 59,
        "velocity": 0,
        "byte9": true
      },
      {
        "deltaTime": 0,
        "running": true,
        "channel": 0,
        "type": "noteOff",
        "noteNumber": 65,
        "velocity": 0,
        "byte9": true
      },
      {
        "deltaTime": 24,
        "channel": 0,
        "type": "noteOff",
        "noteNumber": 63,
        "velocity": 0,
        "byte9": true
      },
      {
        "deltaTime": 16,
        "channel": 0,
        "type": "noteOff",
        "noteNumber": 70,
        "velocity": 0,
        "byte9": true
      },
      {
        "deltaTime": 32,
        "channel": 0,
        "type": "noteOn",
        "noteNumber": 63,
        "velocity": 47
      },
      {
        "deltaTime": 0,
        "running": true,
        "channel": 0,
        "type": "noteOn",
        "noteNumber": 68,
        "velocity": 56
      },
      {
        "deltaTime": 4,
        "channel": 0,
        "type": "noteOn",
        "noteNumber": 59,
        "velocity": 61
      },
      {
        "deltaTime": 4,
        "channel": 0,
        "type": "noteOn",
        "noteNumber": 65,
        "velocity": 55
      },
      {
        "deltaTime": 4,
        "channel": 0,
        "type": "controller",
        "controllerType": 64,
        "value": 0
      },
      {
        "deltaTime": 60,
        "channel": 0,
        "type": "noteOff",
        "noteNumber": 58,
        "velocity": 0,
        "byte9": true
      },
      {
        "deltaTime": 32,
        "channel": 0,
        "type": "controller",
        "controllerType": 64,
        "value": 127
      },
      {
        "deltaTime": 56,
        "channel": 0,
        "type": "controller",
        "controllerType": 64,
        "value": 0
      },
      {
        "deltaTime": 12,
        "channel": 0,
        "type": "noteOn",
        "noteNumber": 58,
        "velocity": 91
      },
      {
        "deltaTime": 72,
        "channel": 0,
        "type": "controller",
        "controllerType": 64,
        "value": 127
      },
      {
        "deltaTime": 60,
        "channel": 0,
        "type": "noteOff",
        "noteNumber": 58,
        "velocity": 0,
        "byte9": true
      },
      {
        "deltaTime": 184,
        "channel": 0,
        "type": "controller",
        "controllerType": 64,
        "value": 0
      },
      {
        "deltaTime": 8,
        "channel": 0,
        "type": "noteOn",
        "noteNumber": 46,
        "velocity": 62
      },
      {
        "deltaTime": 8,
        "channel": 0,
        "type": "noteOff",
        "noteNumber": 59,
        "velocity": 0,
        "byte9": true
      },
      {
        "deltaTime": 4,
        "channel": 0,
        "type": "noteOff",
        "noteNumber": 65,
        "velocity": 0,
        "byte9": true
      },
      {
        "deltaTime": 8,
        "channel": 0,
        "type": "noteOff",
        "noteNumber": 68,
        "velocity": 0,
        "byte9": true
      },
      {
        "deltaTime": 88,
        "channel": 0,
        "type": "controller",
        "controllerType": 64,
        "value": 127
      },
      {
        "deltaTime": 8,
        "channel": 0,
        "type": "noteOff",
        "noteNumber": 63,
        "velocity": 0,
        "byte9": true
      },
      {
        "deltaTime": 48,
        "channel": 0,
        "type": "noteOn",
        "noteNumber": 58,
        "velocity": 68
      },
      {
        "deltaTime": 4,
        "channel": 0,
        "type": "noteOn",
        "noteNumber": 63,
        "velocity": 60
      },
      {
        "deltaTime": 0,
        "running": true,
        "channel": 0,
        "type": "noteOn",
        "noteNumber": 67,
        "velocity": 53
      },
      {
        "deltaTime": 12,
        "channel": 0,
        "type": "noteOff",
        "noteNumber": 58,
        "velocity": 0,
        "byte9": true
      },
      {
        "deltaTime": 4,
        "channel": 0,
        "type": "controller",
        "controllerType": 64,
        "value": 0
      },
      {
        "deltaTime": 0,
        "channel": 0,
        "type": "noteOff",
        "noteNumber": 67,
        "velocity": 0,
        "byte9": true
      },
      {
        "deltaTime": 16,
        "channel": 0,
        "type": "noteOff",
        "noteNumber": 63,
        "velocity": 0,
        "byte9": true
      },
      {
        "deltaTime": 272,
        "channel": 0,
        "type": "noteOn",
        "noteNumber": 63,
        "velocity": 62
      },
      {
        "deltaTime": 4,
        "channel": 0,
        "type": "noteOn",
        "noteNumber": 58,
        "velocity": 57
      },
      {
        "deltaTime": 0,
        "running": true,
        "channel": 0,
        "type": "noteOn",
        "noteNumber": 67,
        "velocity": 60
      },
      {
        "deltaTime": 24,
        "channel": 0,
        "type": "controller",
        "controllerType": 64,
        "value": 127
      },
      {
        "deltaTime": 56,
        "channel": 0,
        "type": "noteOff",
        "noteNumber": 46,
        "velocity": 0,
        "byte9": true
      },
      {
        "deltaTime": 88,
        "channel": 0,
        "type": "noteOn",
        "noteNumber": 46,
        "velocity": 72
      },
      {
        "deltaTime": 88,
        "channel": 0,
        "type": "noteOff",
        "noteNumber": 58,
        "velocity": 0,
        "byte9": true
      },
      {
        "deltaTime": 48,
        "channel": 0,
        "type": "noteOff",
        "noteNumber": 67,
        "velocity": 0,
        "byte9": true
      },
      {
        "deltaTime": 36,
        "channel": 0,
        "type": "noteOff",
        "noteNumber": 63,
        "velocity": 0,
        "byte9": true
      },
      {
        "deltaTime": 184,
        "channel": 0,
        "type": "noteOff",
        "noteNumber": 46,
        "velocity": 0,
        "byte9": true
      },
      {
        "deltaTime": 200,
        "channel": 0,
        "type": "controller",
        "controllerType": 64,
        "value": 0
      },
      {
        "deltaTime": 8,
        "channel": 0,
        "type": "noteOn",
        "noteNumber": 61,
        "velocity": 62
      },
      {
        "deltaTime": 0,
        "running": true,
        "channel": 0,
        "type": "noteOn",
        "noteNumber": 66,
        "velocity": 56
      },
      {
        "deltaTime": 0,
        "running": true,
        "channel": 0,
        "type": "noteOn",
        "noteNumber": 70,
        "velocity": 64
      },
      {
        "deltaTime": 4,
        "channel": 0,
        "type": "noteOn",
        "noteNumber": 56,
        "velocity": 48
      },
      {
        "deltaTime": 4,
        "channel": 0,
        "type": "noteOn",
        "noteNumber": 62,
        "velocity": 50
      },
      {
        "deltaTime": 8,
        "channel": 0,
        "type": "noteOff",
        "noteNumber": 61,
        "velocity": 0,
        "byte9": true
      },
      {
        "deltaTime": 4,
        "channel": 0,
        "type": "noteOff",
        "noteNumber": 66,
        "velocity": 0,
        "byte9": true
      },
      {
        "deltaTime": 4,
        "channel": 0,
        "type": "noteOff",
        "noteNumber": 62,
        "velocity": 0,
        "byte9": true
      },
      {
        "deltaTime": 12,
        "channel": 0,
        "type": "noteOff",
        "noteNumber": 70,
        "velocity": 0,
        "byte9": true
      },
      {
        "deltaTime": 8,
        "channel": 0,
        "type": "noteOff",
        "noteNumber": 56,
        "velocity": 0,
        "byte9": true
      },
      {
        "deltaTime": 116,
        "channel": 0,
        "type": "noteOn",
        "noteNumber": 56,
        "velocity": 69
      },
      {
        "deltaTime": 0,
        "running": true,
        "channel": 0,
        "type": "noteOn",
        "noteNumber": 62,
        "velocity": 79
      },
      {
        "deltaTime": 0,
        "running": true,
        "channel": 0,
        "type": "noteOn",
        "noteNumber": 70,
        "velocity": 82
      },
      {
        "deltaTime": 4,
        "channel": 0,
        "type": "noteOn",
        "noteNumber": 61,
        "velocity": 83
      },
      {
        "deltaTime": 0,
        "running": true,
        "channel": 0,
        "type": "noteOn",
        "noteNumber": 66,
        "velocity": 76
      },
      {
        "deltaTime": 24,
        "channel": 0,
        "type": "noteOff",
        "noteNumber": 61,
        "velocity": 0,
        "byte9": true
      },
      {
        "deltaTime": 8,
        "channel": 0,
        "type": "noteOff",
        "noteNumber": 62,
        "velocity": 0,
        "byte9": true
      },
      {
        "deltaTime": 0,
        "running": true,
        "channel": 0,
        "type": "noteOff",
        "noteNumber": 66,
        "velocity": 0,
        "byte9": true
      },
      {
        "deltaTime": 12,
        "channel": 0,
        "type": "noteOff",
        "noteNumber": 56,
        "velocity": 0,
        "byte9": true
      },
      {
        "deltaTime": 0,
        "running": true,
        "channel": 0,
        "type": "noteOff",
        "noteNumber": 70,
        "velocity": 0,
        "byte9": true
      },
      {
        "deltaTime": 72,
        "channel": 0,
        "type": "noteOn",
        "noteNumber": 70,
        "velocity": 60
      },
      {
        "deltaTime": 4,
        "channel": 0,
        "type": "noteOn",
        "noteNumber": 61,
        "velocity": 53
      },
      {
        "deltaTime": 0,
        "running": true,
        "channel": 0,
        "type": "noteOn",
        "noteNumber": 66,
        "velocity": 60
      },
      {
        "deltaTime": 8,
        "channel": 0,
        "type": "noteOn",
        "noteNumber": 56,
        "velocity": 59
      },
      {
        "deltaTime": 0,
        "running": true,
        "channel": 0,
        "type": "noteOn",
        "noteNumber": 62,
        "velocity": 62
      },
      {
        "deltaTime": 44,
        "channel": 0,
        "type": "controller",
        "controllerType": 64,
        "value": 127
      },
      {
        "deltaTime": 44,
        "channel": 0,
        "type": "noteOff",
        "noteNumber": 61,
        "velocity": 0,
        "byte9": true
      },
      {
        "deltaTime": 4,
        "channel": 0,
        "type": "noteOff",
        "noteNumber": 66,
        "velocity": 0,
        "byte9": true
      },
      {
        "deltaTime": 4,
        "channel": 0,
        "type": "noteOff",
        "noteNumber": 62,
        "velocity": 0,
        "byte9": true
      },
      {
        "deltaTime": 4,
        "channel": 0,
        "type": "noteOff",
        "noteNumber": 70,
        "velocity": 0,
        "byte9": true
      },
      {
        "deltaTime": 8,
        "channel": 0,
        "type": "noteOff",
        "noteNumber": 56,
        "velocity": 0,
        "byte9": true
      },
      {
        "deltaTime": 12,
        "channel": 0,
        "type": "controller",
        "controllerType": 64,
        "value": 0
      },
      {
        "deltaTime": 56,
        "channel": 0,
        "type": "noteOn",
        "noteNumber": 70,
        "velocity": 69
      },
      {
        "deltaTime": 4,
        "channel": 0,
        "type": "noteOn",
        "noteNumber": 56,
        "velocity": 59
      },
      {
        "deltaTime": 0,
        "running": true,
        "channel": 0,
        "type": "noteOn",
        "noteNumber": 61,
        "velocity": 67
      },
      {
        "deltaTime": 0,
        "running": true,
        "channel": 0,
        "type": "noteOn",
        "noteNumber": 62,
        "velocity": 47
      },
      {
        "deltaTime": 0,
        "running": true,
        "channel": 0,
        "type": "noteOn",
        "noteNumber": 66,
        "velocity": 69
      },
      {
        "deltaTime": 8,
        "channel": 0,
        "type": "controller",
        "controllerType": 64,
        "value": 127
      },
      {
        "deltaTime": 12,
        "channel": 0,
        "type": "noteOff",
        "noteNumber": 62,
        "velocity": 0,
        "byte9": true
      },
      {
        "deltaTime": 56,
        "channel": 0,
        "type": "noteOff",
        "noteNumber": 70,
        "velocity": 0,
        "byte9": true
      },
      {
        "deltaTime": 12,
        "channel": 0,
        "type": "noteOff",
        "noteNumber": 61,
        "velocity": 0,
        "byte9": true
      },
      {
        "deltaTime": 0,
        "running": true,
        "channel": 0,
        "type": "noteOff",
        "noteNumber": 66,
        "velocity": 0,
        "byte9": true
      },
      {
        "deltaTime": 56,
        "channel": 0,
        "type": "noteOff",
        "noteNumber": 56,
        "velocity": 0,
        "byte9": true
      },
      {
        "deltaTime": 12,
        "channel": 0,
        "type": "noteOn",
        "noteNumber": 70,
        "velocity": 88
      },
      {
        "deltaTime": 4,
        "channel": 0,
        "type": "noteOn",
        "noteNumber": 60,
        "velocity": 87
      },
      {
        "deltaTime": 0,
        "running": true,
        "channel": 0,
        "type": "noteOn",
        "noteNumber": 65,
        "velocity": 83
      },
      {
        "deltaTime": 4,
        "channel": 0,
        "type": "noteOn",
        "noteNumber": 55,
        "velocity": 96
      },
      {
        "deltaTime": 20,
        "channel": 0,
        "type": "controller",
        "controllerType": 64,
        "value": 0
      },
      {
        "deltaTime": 440,
        "channel": 0,
        "type": "noteOff",
        "noteNumber": 65,
        "velocity": 0,
        "byte9": true
      },
      {
        "deltaTime": 4,
        "channel": 0,
        "type": "noteOff",
        "noteNumber": 60,
        "velocity": 0,
        "byte9": true
      },
      {
        "deltaTime": 8,
        "channel": 0,
        "type": "noteOff",
        "noteNumber": 70,
        "velocity": 0,
        "byte9": true
      },
      {
        "deltaTime": 64,
        "channel": 0,
        "type": "noteOn",
        "noteNumber": 69,
        "velocity": 52
      },
      {
        "deltaTime": 4,
        "channel": 0,
        "type": "noteOn",
        "noteNumber": 59,
        "velocity": 37
      },
      {
        "deltaTime": 4,
        "channel": 0,
        "type": "noteOn",
        "noteNumber": 54,
        "velocity": 37
      },
      {
        "deltaTime": 0,
        "running": true,
        "channel": 0,
        "type": "noteOff",
        "noteNumber": 55,
        "velocity": 0,
        "byte9": true
      },
      {
        "deltaTime": 4,
        "channel": 0,
        "type": "noteOn",
        "noteNumber": 64,
        "velocity": 40
      },
      {
        "deltaTime": 44,
        "channel": 0,
        "type": "noteOff",
        "noteNumber": 69,
        "velocity": 0,
        "byte9": true
      },
      {
        "deltaTime": 32,
        "channel": 0,
        "type": "noteOff",
        "noteNumber": 59,
        "velocity": 0,
        "byte9": true
      },
      {
        "deltaTime": 20,
        "channel": 0,
        "type": "noteOff",
        "noteNumber": 64,
        "velocity": 0,
        "byte9": true
      },
      {
        "deltaTime": 64,
        "channel": 0,
        "type": "noteOn",
        "noteNumber": 70,
        "velocity": 62
      },
      {
        "deltaTime": 4,
        "channel": 0,
        "type": "noteOn",
        "noteNumber": 60,
        "velocity": 58
      },
      {
        "deltaTime": 0,
        "running": true,
        "channel": 0,
        "type": "noteOn",
        "noteNumber": 65,
        "velocity": 53
      },
      {
        "deltaTime": 12,
        "channel": 0,
        "type": "noteOn",
        "noteNumber": 55,
        "velocity": 66
      },
      {
        "deltaTime": 4,
        "channel": 0,
        "type": "noteOff",
        "noteNumber": 54,
        "velocity": 0,
        "byte9": true
      },
      {
        "deltaTime": 0,
        "running": true,
        "channel": 0,
        "type": "noteOff",
        "noteNumber": 60,
        "velocity": 0,
        "byte9": true
      },
      {
        "deltaTime": 0,
        "running": true,
        "channel": 0,
        "type": "noteOff",
        "noteNumber": 65,
        "velocity": 0,
        "byte9": true
      },
      {
        "deltaTime": 8,
        "channel": 0,
        "type": "noteOff",
        "noteNumber": 55,
        "velocity": 0,
        "byte9": true
      },
      {
        "deltaTime": 8,
        "channel": 0,
        "type": "noteOff",
        "noteNumber": 70,
        "velocity": 0,
        "byte9": true
      },
      {
        "deltaTime": 292,
        "channel": 0,
        "type": "noteOn",
        "noteNumber": 81,
        "velocity": 57
      },
      {
        "deltaTime": 0,
        "running": true,
        "channel": 0,
        "type": "noteOn",
        "noteNumber": 93,
        "velocity": 57
      },
      {
        "deltaTime": 4,
        "channel": 0,
        "type": "noteOn",
        "noteNumber": 55,
        "velocity": 56
      },
      {
        "deltaTime": 0,
        "running": true,
        "channel": 0,
        "type": "noteOn",
        "noteNumber": 61,
        "velocity": 40
      },
      {
        "deltaTime": 4,
        "channel": 0,
        "type": "noteOn",
        "noteNumber": 66,
        "velocity": 46
      },
      {
        "deltaTime": 0,
        "running": true,
        "channel": 0,
        "type": "noteOn",
        "noteNumber": 88,
        "velocity": 43
      },
      {
        "deltaTime": 32,
        "channel": 0,
        "type": "noteOff",
        "noteNumber": 81,
        "velocity": 0,
        "byte9": true
      },
      {
        "deltaTime": 4,
        "channel": 0,
        "type": "noteOff",
        "noteNumber": 88,
        "velocity": 0,
        "byte9": true
      },
      {
        "deltaTime": 0,
        "running": true,
        "channel": 0,
        "type": "noteOff",
        "noteNumber": 93,
        "velocity": 0,
        "byte9": true
      },
      {
        "deltaTime": 12,
        "channel": 0,
        "type": "noteOff",
        "noteNumber": 55,
        "velocity": 0,
        "byte9": true
      },
      {
        "deltaTime": 0,
        "running": true,
        "channel": 0,
        "type": "noteOff",
        "noteNumber": 66,
        "velocity": 0,
        "byte9": true
      },
      {
        "deltaTime": 8,
        "channel": 0,
        "type": "noteOff",
        "noteNumber": 61,
        "velocity": 0,
        "byte9": true
      },
      {
        "deltaTime": 336,
        "channel": 0,
        "type": "noteOn",
        "noteNumber": 55,
        "velocity": 78
      },
      {
        "deltaTime": 0,
        "running": true,
        "channel": 0,
        "type": "noteOn",
        "noteNumber": 61,
        "velocity": 65
      },
      {
        "deltaTime": 0,
        "running": true,
        "channel": 0,
        "type": "noteOn",
        "noteNumber": 66,
        "velocity": 77
      },
      {
        "deltaTime": 0,
        "running": true,
        "channel": 0,
        "type": "noteOn",
        "noteNumber": 89,
        "velocity": 58
      },
      {
        "deltaTime": 0,
        "running": true,
        "channel": 0,
        "type": "noteOn",
        "noteNumber": 96,
        "velocity": 77
      },
      {
        "deltaTime": 4,
        "channel": 0,
        "type": "noteOn",
        "noteNumber": 84,
        "velocity": 60
      },
      {
        "deltaTime": 0,
        "running": true,
        "channel": 0,
        "type": "noteOn",
        "noteNumber": 93,
        "velocity": 58
      },
      {
        "deltaTime": 4,
        "channel": 0,
        "type": "noteOn",
        "noteNumber": 83,
        "velocity": 42
      },
      {
        "deltaTime": 4,
        "channel": 0,
        "type": "noteOn",
        "noteNumber": 88,
        "velocity": 30
      },
      {
        "deltaTime": 0,
        "running": true,
        "channel": 0,
        "type": "noteOn",
        "noteNumber": 95,
        "velocity": 34
      },
      {
        "deltaTime": 16,
        "channel": 0,
        "type": "noteOff",
        "noteNumber": 88,
        "velocity": 0,
        "byte9": true
      },
      {
        "deltaTime": 20,
        "channel": 0,
        "type": "noteOff",
        "noteNumber": 83,
        "velocity": 0,
        "byte9": true
      },
      {
        "deltaTime": 12,
        "channel": 0,
        "type": "controller",
        "controllerType": 64,
        "value": 127
      },
      {
        "deltaTime": 32,
        "channel": 0,
        "type": "noteOff",
        "noteNumber": 84,
        "velocity": 0,
        "byte9": true
      },
      {
        "deltaTime": 0,
        "running": true,
        "channel": 0,
        "type": "noteOff",
        "noteNumber": 95,
        "velocity": 0,
        "byte9": true
      },
      {
        "deltaTime": 4,
        "channel": 0,
        "type": "noteOff",
        "noteNumber": 93,
        "velocity": 0,
        "byte9": true
      },
      {
        "deltaTime": 4,
        "channel": 0,
        "type": "noteOff",
        "noteNumber": 55,
        "velocity": 0,
        "byte9": true
      },
      {
        "deltaTime": 0,
        "running": true,
        "channel": 0,
        "type": "noteOff",
        "noteNumber": 89,
        "velocity": 0,
        "byte9": true
      },
      {
        "deltaTime": 0,
        "running": true,
        "channel": 0,
        "type": "noteOff",
        "noteNumber": 96,
        "velocity": 0,
        "byte9": true
      },
      {
        "deltaTime": 8,
        "channel": 0,
        "type": "noteOff",
        "noteNumber": 66,
        "velocity": 0,
        "byte9": true
      },
      {
        "deltaTime": 12,
        "channel": 0,
        "type": "noteOff",
        "noteNumber": 61,
        "velocity": 0,
        "byte9": true
      },
      {
        "deltaTime": 36,
        "channel": 0,
        "type": "noteOn",
        "noteNumber": 61,
        "velocity": 51
      },
      {
        "deltaTime": 0,
        "running": true,
        "channel": 0,
        "type": "noteOn",
        "noteNumber": 66,
        "velocity": 71
      },
      {
        "deltaTime": 4,
        "channel": 0,
        "type": "noteOn",
        "noteNumber": 55,
        "velocity": 74
      },
      {
        "deltaTime": 0,
        "running": true,
        "channel": 0,
        "type": "noteOn",
        "noteNumber": 93,
        "velocity": 77
      },
      {
        "deltaTime": 4,
        "channel": 0,
        "type": "noteOn",
        "noteNumber": 81,
        "velocity": 66
      },
      {
        "deltaTime": 0,
        "running": true,
        "channel": 0,
        "type": "noteOn",
        "noteNumber": 88,
        "velocity": 74
      },
      {
        "deltaTime": 68,
        "channel": 0,
        "type": "noteOff",
        "noteNumber": 88,
        "velocity": 0,
        "byte9": true
      },
      {
        "deltaTime": 4,
        "channel": 0,
        "type": "noteOff",
        "noteNumber": 93,
        "velocity": 0,
        "byte9": true
      },
      {
        "deltaTime": 12,
        "channel": 0,
        "type": "noteOff",
        "noteNumber": 55,
        "velocity": 0,
        "byte9": true
      },
      {
        "deltaTime": 4,
        "channel": 0,
        "type": "noteOff",
        "noteNumber": 81,
        "velocity": 0,
        "byte9": true
      },
      {
        "deltaTime": 8,
        "channel": 0,
        "type": "noteOff",
        "noteNumber": 66,
        "velocity": 0,
        "byte9": true
      },
      {
        "deltaTime": 24,
        "channel": 0,
        "type": "noteOff",
        "noteNumber": 61,
        "velocity": 0,
        "byte9": true
      },
      {
        "deltaTime": 24,
        "channel": 0,
        "type": "controller",
        "controllerType": 64,
        "value": 0
      },
      {
        "deltaTime": 8,
        "channel": 0,
        "type": "noteOn",
        "noteNumber": 66,
        "velocity": 60
      },
      {
        "deltaTime": 4,
        "channel": 0,
        "type": "noteOn",
        "noteNumber": 55,
        "velocity": 60
      },
      {
        "deltaTime": 0,
        "running": true,
        "channel": 0,
        "type": "noteOn",
        "noteNumber": 61,
        "velocity": 64
      },
      {
        "deltaTime": 0,
        "running": true,
        "channel": 0,
        "type": "noteOn",
        "noteNumber": 89,
        "velocity": 57
      },
      {
        "deltaTime": 4,
        "channel": 0,
        "type": "noteOn",
        "noteNumber": 84,
        "velocity": 57
      },
      {
        "deltaTime": 8,
        "channel": 0,
        "type": "noteOn",
        "noteNumber": 77,
        "velocity": 37
      },
      {
        "deltaTime": 20,
        "channel": 0,
        "type": "controller",
        "controllerType": 64,
        "value": 127
      },
      {
        "deltaTime": 28,
        "channel": 0,
        "type": "noteOff",
        "noteNumber": 55,
        "velocity": 0,
        "byte9": true
      },
      {
        "deltaTime": 8,
        "channel": 0,
        "type": "noteOff",
        "noteNumber": 77,
        "velocity": 0,
        "byte9": true
      },
      {
        "deltaTime": 4,
        "channel": 0,
        "type": "noteOff",
        "noteNumber": 66,
        "velocity": 0,
        "byte9": true
      },
      {
        "deltaTime": 8,
        "channel": 0,
        "type": "noteOff",
        "noteNumber": 89,
        "velocity": 0,
        "byte9": true
      },
      {
        "deltaTime": 4,
        "channel": 0,
        "type": "noteOff",
        "noteNumber": 84,
        "velocity": 0,
        "byte9": true
      },
      {
        "deltaTime": 16,
        "channel": 0,
        "type": "noteOff",
        "noteNumber": 61,
        "velocity": 0,
        "byte9": true
      },
      {
        "deltaTime": 64,
        "channel": 0,
        "type": "noteOn",
        "noteNumber": 63,
        "velocity": 77
      },
      {
        "deltaTime": 4,
        "channel": 0,
        "type": "noteOn",
        "noteNumber": 87,
        "velocity": 49
      },
      {
        "deltaTime": 4,
        "channel": 0,
        "type": "noteOn",
        "noteNumber": 54,
        "velocity": 51
      },
      {
        "deltaTime": 0,
        "running": true,
        "channel": 0,
        "type": "noteOn",
        "noteNumber": 59,
        "velocity": 46
      },
      {
        "deltaTime": 4,
        "channel": 0,
        "type": "noteOn",
        "noteNumber": 58,
        "velocity": 49
      },
      {
        "deltaTime": 8,
        "channel": 0,
        "type": "noteOff",
        "noteNumber": 87,
        "velocity": 0,
        "byte9": true
      },
      {
        "deltaTime": 8,
        "channel": 0,
        "type": "noteOff",
        "noteNumber": 59,
        "velocity": 0,
        "byte9": true
      },
      {
        "deltaTime": 4,
        "channel": 0,
        "type": "noteOff",
        "noteNumber": 63,
        "velocity": 0,
        "byte9": true
      },
      {
        "deltaTime": 8,
        "channel": 0,
        "type": "controller",
        "controllerType": 64,
        "value": 0
      },
      {
        "deltaTime": 0,
        "channel": 0,
        "type": "noteOff",
        "noteNumber": 54,
        "velocity": 0,
        "byte9": true
      },
      {
        "deltaTime": 28,
        "channel": 0,
        "type": "noteOff",
        "noteNumber": 58,
        "velocity": 0,
        "byte9": true
      },
      {
        "deltaTime": 468,
        "channel": 0,
        "type": "noteOn",
        "noteNumber": 65,
        "velocity": 57
      },
      {
        "deltaTime": 4,
        "channel": 0,
        "type": "noteOn",
        "noteNumber": 58,
        "velocity": 31
      },
      {
        "deltaTime": 4,
        "channel": 0,
        "type": "noteOn",
        "noteNumber": 53,
        "velocity": 50
      },
      {
        "deltaTime": 0,
        "running": true,
        "channel": 0,
        "type": "noteOn",
        "noteNumber": 59,
        "velocity": 54
      },
      {
        "deltaTime": 0,
        "running": true,
        "channel": 0,
        "type": "noteOn",
        "noteNumber": 63,
        "velocity": 31
      },
      {
        "deltaTime": 232,
        "channel": 0,
        "type": "controller",
        "controllerType": 64,
        "value": 127
      },
      {
        "deltaTime": 24,
        "channel": 0,
        "type": "noteOff",
        "noteNumber": 63,
        "velocity": 0,
        "byte9": true
      },
      {
        "deltaTime": 4,
        "channel": 0,
        "type": "noteOff",
        "noteNumber": 59,
        "velocity": 0,
        "byte9": true
      },
      {
        "deltaTime": 20,
        "channel": 0,
        "type": "noteOff",
        "noteNumber": 58,
        "velocity": 0,
        "byte9": true
      },
      {
        "deltaTime": 12,
        "channel": 0,
        "type": "noteOff",
        "noteNumber": 53,
        "velocity": 0,
        "byte9": true
      },
      {
        "deltaTime": 12,
        "channel": 0,
        "type": "noteOff",
        "noteNumber": 65,
        "velocity": 0,
        "byte9": true
      },
      {
        "deltaTime": 128,
        "channel": 0,
        "type": "noteOn",
        "noteNumber": 53,
        "velocity": 57
      },
      {
        "deltaTime": 24,
        "channel": 0,
        "type": "noteOff",
        "noteNumber": 53,
        "velocity": 0,
        "byte9": true
      },
      {
        "deltaTime": 12,
        "channel": 0,
        "type": "controller",
        "controllerType": 64,
        "value": 0
      },
      {
        "deltaTime": 0,
        "channel": 0,
        "type": "noteOn",
        "noteNumber": 54,
        "velocity": 30
      },
      {
        "deltaTime": 12,
        "channel": 0,
        "type": "noteOn",
        "noteNumber": 70,
        "velocity": 61
      },
      {
        "deltaTime": 4,
        "channel": 0,
        "type": "noteOn",
        "noteNumber": 55,
        "velocity": 60
      },
      {
        "deltaTime": 0,
        "running": true,
        "channel": 0,
        "type": "noteOn",
        "noteNumber": 61,
        "velocity": 55
      },
      {
        "deltaTime": 0,
        "running": true,
        "channel": 0,
        "type": "noteOn",
        "noteNumber": 65,
        "velocity": 56
      },
      {
        "deltaTime": 8,
        "channel": 0,
        "type": "noteOff",
        "noteNumber": 54,
        "velocity": 0,
        "byte9": true
      },
      {
        "deltaTime": 36,
        "channel": 0,
        "type": "controller",
        "controllerType": 64,
        "value": 127
      },
      {
        "deltaTime": 84,
        "channel": 0,
        "type": "noteOff",
        "noteNumber": 70,
        "velocity": 0,
        "byte9": true
      },
      {
        "deltaTime": 32,
        "channel": 0,
        "type": "noteOff",
        "noteNumber": 65,
        "velocity": 0,
        "byte9": true
      },
      {
        "deltaTime": 28,
        "channel": 0,
        "type": "noteOff",
        "noteNumber": 61,
        "velocity": 0,
        "byte9": true
      },
      {
        "deltaTime": 8,
        "channel": 0,
        "type": "noteOff",
        "noteNumber": 55,
        "velocity": 0,
        "byte9": true
      },
      {
        "deltaTime": 28,
        "channel": 0,
        "type": "controller",
        "controllerType": 64,
        "value": 0
      },
      {
        "deltaTime": 12,
        "channel": 0,
        "type": "noteOn",
        "noteNumber": 65,
        "velocity": 79
      },
      {
        "deltaTime": 0,
        "running": true,
        "channel": 0,
        "type": "noteOn",
        "noteNumber": 72,
        "velocity": 77
      },
      {
        "deltaTime": 4,
        "channel": 0,
        "type": "noteOn",
        "noteNumber": 60,
        "velocity": 67
      },
      {
        "deltaTime": 0,
        "running": true,
        "channel": 0,
        "type": "noteOn",
        "noteNumber": 61,
        "velocity": 73
      },
      {
        "deltaTime": 72,
        "channel": 0,
        "type": "controller",
        "controllerType": 64,
        "value": 127
      },
      {
        "deltaTime": 36,
        "channel": 0,
        "type": "noteOff",
        "noteNumber": 65,
        "velocity": 0,
        "byte9": true
      },
      {
        "deltaTime": 16,
        "channel": 0,
        "type": "noteOff",
        "noteNumber": 72,
        "velocity": 0,
        "byte9": true
      },
      {
        "deltaTime": 4,
        "channel": 0,
        "type": "noteOff",
        "noteNumber": 61,
        "velocity": 0,
        "byte9": true
      },
      {
        "deltaTime": 52,
        "channel": 0,
        "type": "noteOff",
        "noteNumber": 60,
        "velocity": 0,
        "byte9": true
      },
      {
        "deltaTime": 12,
        "channel": 0,
        "type": "noteOn",
        "noteNumber": 58,
        "velocity": 28
      },
      {
        "deltaTime": 36,
        "channel": 0,
        "type": "controller",
        "controllerType": 64,
        "value": 0
      },
      {
        "deltaTime": 8,
        "channel": 0,
        "type": "noteOn",
        "noteNumber": 73,
        "velocity": 69
      },
      {
        "deltaTime": 4,
        "channel": 0,
        "type": "noteOff",
        "noteNumber": 58,
        "velocity": 0,
        "byte9": true
      },
      {
        "deltaTime": 0,
        "running": true,
        "channel": 0,
        "type": "noteOn",
        "noteNumber": 61,
        "velocity": 67
      },
      {
        "deltaTime": 4,
        "channel": 0,
        "type": "noteOn",
        "noteNumber": 64,
        "velocity": 69
      },
      {
        "deltaTime": 0,
        "running": true,
        "channel": 0,
        "type": "noteOn",
        "noteNumber": 68,
        "velocity": 72
      },
      {
        "deltaTime": 0,
        "running": true,
        "channel": 0,
        "type": "noteOn",
        "noteNumber": 70,
        "velocity": 62
      },
      {
        "deltaTime": 108,
        "channel": 0,
        "type": "controller",
        "controllerType": 64,
        "value": 127
      },
      {
        "deltaTime": 12,
        "channel": 0,
        "type": "noteOff",
        "noteNumber": 64,
        "velocity": 0,
        "byte9": true
      },
      {
        "deltaTime": 0,
        "running": true,
        "channel": 0,
        "type": "noteOff",
        "noteNumber": 73,
        "velocity": 0,
        "byte9": true
      },
      {
        "deltaTime": 20,
        "channel": 0,
        "type": "noteOff",
        "noteNumber": 68,
        "velocity": 0,
        "byte9": true
      },
      {
        "deltaTime": 0,
        "running": true,
        "channel": 0,
        "type": "noteOff",
        "noteNumber": 70,
        "velocity": 0,
        "byte9": true
      },
      {
        "deltaTime": 16,
        "channel": 0,
        "type": "noteOff",
        "noteNumber": 61,
        "velocity": 0,
        "byte9": true
      },
      {
        "deltaTime": 8,
        "channel": 0,
        "type": "noteOn",
        "noteNumber": 63,
        "velocity": 71
      },
      {
        "deltaTime": 0,
        "running": true,
        "channel": 0,
        "type": "noteOn",
        "noteNumber": 68,
        "velocity": 77
      },
      {
        "deltaTime": 4,
        "channel": 0,
        "type": "noteOn",
        "noteNumber": 75,
        "velocity": 83
      },
      {
        "deltaTime": 4,
        "channel": 0,
        "type": "noteOn",
        "noteNumber": 64,
        "velocity": 68
      },
      {
        "deltaTime": 0,
        "running": true,
        "channel": 0,
        "type": "noteOn",
        "noteNumber": 70,
        "velocity": 67
      },
      {
        "deltaTime": 12,
        "channel": 0,
        "type": "noteOn",
        "noteNumber": 65,
        "velocity": 41
      },
      {
        "deltaTime": 16,
        "channel": 0,
        "type": "controller",
        "controllerType": 64,
        "value": 0
      },
      {
        "deltaTime": 0,
        "channel": 0,
        "type": "noteOff",
        "noteNumber": 65,
        "velocity": 0,
        "byte9": true
      },
      {
        "deltaTime": 16,
        "channel": 0,
        "type": "noteOff",
        "noteNumber": 64,
        "velocity": 0,
        "byte9": true
      },
      {
        "deltaTime": 8,
        "channel": 0,
        "type": "noteOff",
        "noteNumber": 70,
        "velocity": 0,
        "byte9": true
      },
      {
        "deltaTime": 4,
        "channel": 0,
        "type": "noteOff",
        "noteNumber": 63,
        "velocity": 0,
        "byte9": true
      },
      {
        "deltaTime": 0,
        "running": true,
        "channel": 0,
        "type": "noteOff",
        "noteNumber": 75,
        "velocity": 0,
        "byte9": true
      },
      {
        "deltaTime": 4,
        "channel": 0,
        "type": "noteOff",
        "noteNumber": 68,
        "velocity": 0,
        "byte9": true
      },
      {
        "deltaTime": 12,
        "channel": 0,
        "type": "noteOn",
        "noteNumber": 61,
        "velocity": 50
      },
      {
        "deltaTime": 16,
        "channel": 0,
        "type": "noteOn",
        "noteNumber": 73,
        "velocity": 50
      },
      {
        "deltaTime": 8,
        "channel": 0,
        "type": "noteOn",
        "noteNumber": 64,
        "velocity": 54
      },
      {
        "deltaTime": 0,
        "running": true,
        "channel": 0,
        "type": "noteOn",
        "noteNumber": 68,
        "velocity": 45
      },
      {
        "deltaTime": 8,
        "channel": 0,
        "type": "controller",
        "controllerType": 64,
        "value": 127
      },
      {
        "deltaTime": 36,
        "channel": 0,
        "type": "noteOff",
        "noteNumber": 68,
        "velocity": 0,
        "byte9": true
      },
      {
        "deltaTime": 8,
        "channel": 0,
        "type": "noteOff",
        "noteNumber": 73,
        "velocity": 0,
        "byte9": true
      },
      {
        "deltaTime": 48,
        "channel": 0,
        "type": "noteOff",
        "noteNumber": 64,
        "velocity": 0,
        "byte9": true
      },
      {
        "deltaTime": 32,
        "channel": 0,
        "type": "noteOff",
        "noteNumber": 61,
        "velocity": 0,
        "byte9": true
      },
      {
        "deltaTime": 12,
        "channel": 0,
        "type": "noteOn",
        "noteNumber": 65,
        "velocity": 70
      },
      {
        "deltaTime": 0,
        "running": true,
        "channel": 0,
        "type": "noteOn",
        "noteNumber": 68,
        "velocity": 57
      },
      {
        "deltaTime": 4,
        "channel": 0,
        "type": "noteOn",
        "noteNumber": 72,
        "velocity": 64
      },
      {
        "deltaTime": 4,
        "channel": 0,
        "type": "noteOn",
        "noteNumber": 60,
        "velocity": 64
      },
      {
        "deltaTime": 4,
        "channel": 0,
        "type": "controller",
        "controllerType": 64,
        "value": 0
      },
      {
        "deltaTime": 8,
        "channel": 0,
        "type": "noteOff",
        "noteNumber": 72,
        "velocity": 0,
        "byte9": true
      },
      {
        "deltaTime": 4,
        "channel": 0,
        "type": "noteOff",
        "noteNumber": 65,
        "velocity": 0,
        "byte9": true
      },
      {
        "deltaTime": 4,
        "channel": 0,
        "type": "noteOff",
        "noteNumber": 60,
        "velocity": 0,
        "byte9": true
      },
      {
        "deltaTime": 0,
        "running": true,
        "channel": 0,
        "type": "noteOff",
        "noteNumber": 68,
        "velocity": 0,
        "byte9": true
      },
      {
        "deltaTime": 200,
        "channel": 0,
        "type": "noteOn",
        "noteNumber": 68,
        "velocity": 56
      },
      {
        "deltaTime": 8,
        "channel": 0,
        "type": "noteOn",
        "noteNumber": 60,
        "velocity": 58
      },
      {
        "deltaTime": 4,
        "channel": 0,
        "type": "noteOn",
        "noteNumber": 56,
        "velocity": 53
      },
      {
        "deltaTime": 8,
        "channel": 0,
        "type": "noteOn",
        "noteNumber": 65,
        "velocity": 29
      },
      {
        "deltaTime": 0,
        "running": true,
        "channel": 0,
        "type": "noteOff",
        "noteNumber": 68,
        "velocity": 0,
        "byte9": true
      },
      {
        "deltaTime": 4,
        "channel": 0,
        "type": "noteOff",
        "noteNumber": 60,
        "velocity": 0,
        "byte9": true
      },
      {
        "deltaTime": 8,
        "channel": 0,
        "type": "noteOff",
        "noteNumber": 65,
        "velocity": 0,
        "byte9": true
      },
      {
        "deltaTime": 8,
        "channel": 0,
        "type": "noteOff",
        "noteNumber": 56,
        "velocity": 0,
        "byte9": true
      },
      {
        "deltaTime": 256,
        "channel": 0,
        "type": "noteOn",
        "noteNumber": 56,
        "velocity": 44
      },
      {
        "deltaTime": 4,
        "channel": 0,
        "type": "noteOn",
        "noteNumber": 55,
        "velocity": 48
      },
      {
        "deltaTime": 4,
        "channel": 0,
        "type": "noteOn",
        "noteNumber": 67,
        "velocity": 33
      },
      {
        "deltaTime": 4,
        "channel": 0,
        "type": "noteOn",
        "noteNumber": 60,
        "velocity": 44
      },
      {
        "deltaTime": 8,
        "channel": 0,
        "type": "noteOn",
        "noteNumber": 63,
        "velocity": 30
      },
      {
        "deltaTime": 108,
        "channel": 0,
        "type": "noteOff",
        "noteNumber": 56,
        "velocity": 0,
        "byte9": true
      },
      {
        "deltaTime": 0,
        "running": true,
        "channel": 0,
        "type": "noteOff",
        "noteNumber": 63,
        "velocity": 0,
        "byte9": true
      },
      {
        "deltaTime": 8,
        "channel": 0,
        "type": "noteOff",
        "noteNumber": 60,
        "velocity": 0,
        "byte9": true
      },
      {
        "deltaTime": 8,
        "channel": 0,
        "type": "noteOff",
        "noteNumber": 67,
        "velocity": 0,
        "byte9": true
      },
      {
        "deltaTime": 24,
        "channel": 0,
        "type": "noteOn",
        "noteNumber": 56,
        "velocity": 42
      },
      {
        "deltaTime": 8,
        "channel": 0,
        "type": "noteOn",
        "noteNumber": 65,
        "velocity": 49
      },
      {
        "deltaTime": 4,
        "channel": 0,
        "type": "noteOff",
        "noteNumber": 55,
        "velocity": 0,
        "byte9": true
      },
      {
        "deltaTime": 0,
        "running": true,
        "channel": 0,
        "type": "noteOff",
        "noteNumber": 56,
        "velocity": 0,
        "byte9": true
      },
      {
        "deltaTime": 4,
        "channel": 0,
        "type": "noteOn",
        "noteNumber": 53,
        "velocity": 39
      },
      {
        "deltaTime": 8,
        "channel": 0,
        "type": "noteOff",
        "noteNumber": 65,
        "velocity": 0,
        "byte9": true
      },
      {
        "deltaTime": 8,
        "channel": 0,
        "type": "noteOff",
        "noteNumber": 53,
        "velocity": 0,
        "byte9": true
      },
      {
        "deltaTime": 452,
        "channel": 0,
        "type": "noteOn",
        "noteNumber": 75,
        "velocity": 56
      },
      {
        "deltaTime": 4,
        "channel": 0,
        "type": "noteOn",
        "noteNumber": 87,
        "velocity": 60
      },
      {
        "deltaTime": 4,
        "channel": 0,
        "type": "noteOn",
        "noteNumber": 58,
        "velocity": 51
      },
      {
        "deltaTime": 0,
        "running": true,
        "channel": 0,
        "type": "noteOn",
        "noteNumber": 63,
        "velocity": 52
      },
      {
        "deltaTime": 8,
        "channel": 0,
        "type": "noteOff",
        "noteNumber": 75,
        "velocity": 0,
        "byte9": true
      },
      {
        "deltaTime": 4,
        "channel": 0,
        "type": "noteOff",
        "noteNumber": 87,
        "velocity": 0,
        "byte9": true
      },
      {
        "deltaTime": 4,
        "channel": 0,
        "type": "noteOff",
        "noteNumber": 63,
        "velocity": 0,
        "byte9": true
      },
      {
        "deltaTime": 12,
        "channel": 0,
        "type": "noteOff",
        "noteNumber": 58,
        "velocity": 0,
        "byte9": true
      },
      {
        "deltaTime": 300,
        "channel": 0,
        "type": "noteOn",
        "noteNumber": 75,
        "velocity": 59
      },
      {
        "deltaTime": 0,
        "running": true,
        "channel": 0,
        "type": "noteOn",
        "noteNumber": 87,
        "velocity": 74
      },
      {
        "deltaTime": 8,
        "channel": 0,
        "type": "noteOn",
        "noteNumber": 63,
        "velocity": 44
      },
      {
        "deltaTime": 4,
        "channel": 0,
        "type": "noteOn",
        "noteNumber": 52,
        "velocity": 34
      },
      {
        "deltaTime": 0,
        "running": true,
        "channel": 0,
        "type": "noteOn",
        "noteNumber": 58,
        "velocity": 32
      },
      {
        "deltaTime": 4,
        "channel": 0,
        "type": "noteOff",
        "noteNumber": 75,
        "velocity": 0,
        "byte9": true
      },
      {
        "deltaTime": 12,
        "channel": 0,
        "type": "noteOff",
        "noteNumber": 63,
        "velocity": 0,
        "byte9": true
      },
      {
        "deltaTime": 4,
        "channel": 0,
        "type": "noteOff",
        "noteNumber": 87,
        "velocity": 0,
        "byte9": true
      },
      {
        "deltaTime": 4,
        "channel": 0,
        "type": "noteOff",
        "noteNumber": 52,
        "velocity": 0,
        "byte9": true
      },
      {
        "deltaTime": 32,
        "channel": 0,
        "type": "noteOff",
        "noteNumber": 58,
        "velocity": 0,
        "byte9": true
      },
      {
        "deltaTime": 328,
        "channel": 0,
        "type": "noteOn",
        "noteNumber": 63,
        "velocity": 71
      },
      {
        "deltaTime": 4,
        "channel": 0,
        "type": "noteOn",
        "noteNumber": 75,
        "velocity": 59
      },
      {
        "deltaTime": 0,
        "running": true,
        "channel": 0,
        "type": "noteOn",
        "noteNumber": 87,
        "velocity": 74
      },
      {
        "deltaTime": 4,
        "channel": 0,
        "type": "noteOn",
        "noteNumber": 59,
        "velocity": 63
      },
      {
        "deltaTime": 4,
        "channel": 0,
        "type": "noteOn",
        "noteNumber": 56,
        "velocity": 42
      },
      {
        "deltaTime": 8,
        "channel": 0,
        "type": "noteOff",
        "noteNumber": 63,
        "velocity": 0,
        "byte9": true
      },
      {
        "deltaTime": 4,
        "channel": 0,
        "type": "noteOff",
        "noteNumber": 59,
        "velocity": 0,
        "byte9": true
      },
      {
        "deltaTime": 0,
        "running": true,
        "channel": 0,
        "type": "noteOff",
        "noteNumber": 75,
        "velocity": 0,
        "byte9": true
      },
      {
        "deltaTime": 16,
        "channel": 0,
        "type": "noteOff",
        "noteNumber": 56,
        "velocity": 0,
        "byte9": true
      },
      {
        "deltaTime": 0,
        "running": true,
        "channel": 0,
        "type": "noteOff",
        "noteNumber": 87,
        "velocity": 0,
        "byte9": true
      },
      {
        "deltaTime": 280,
        "channel": 0,
        "type": "noteOn",
        "noteNumber": 63,
        "velocity": 60
      },
      {
        "deltaTime": 8,
        "channel": 0,
        "type": "noteOn",
        "noteNumber": 53,
        "velocity": 54
      },
      {
        "deltaTime": 0,
        "running": true,
        "channel": 0,
        "type": "noteOn",
        "noteNumber": 56,
        "velocity": 42
      },
      {
        "deltaTime": 0,
        "running": true,
        "channel": 0,
        "type": "noteOn",
        "noteNumber": 87,
        "velocity": 78
      },
      {
        "deltaTime": 4,
        "channel": 0,
        "type": "noteOn",
        "noteNumber": 59,
        "velocity": 51
      },
      {
        "deltaTime": 0,
        "running": true,
        "channel": 0,
        "type": "noteOn",
        "noteNumber": 75,
        "velocity": 72
      },
      {
        "deltaTime": 212,
        "channel": 0,
        "type": "controller",
        "controllerType": 64,
        "value": 127
      },
      {
        "deltaTime": 20,
        "channel": 0,
        "type": "noteOff",
        "noteNumber": 63,
        "velocity": 0,
        "byte9": true
      },
      {
        "deltaTime": 28,
        "channel": 0,
        "type": "noteOff",
        "noteNumber": 59,
        "velocity": 0,
        "byte9": true
      },
      {
        "deltaTime": 8,
        "channel": 0,
        "type": "noteOff",
        "noteNumber": 53,
        "velocity": 0,
        "byte9": true
      },
      {
        "deltaTime": 8,
        "channel": 0,
        "type": "noteOff",
        "noteNumber": 56,
        "velocity": 0,
        "byte9": true
      },
      {
        "deltaTime": 20,
        "channel": 0,
        "type": "noteOff",
        "noteNumber": 87,
        "velocity": 0,
        "byte9": true
      },
      {
        "deltaTime": 12,
        "channel": 0,
        "type": "noteOff",
        "noteNumber": 75,
        "velocity": 0,
        "byte9": true
      },
      {
        "deltaTime": 80,
        "channel": 0,
        "type": "noteOn",
        "noteNumber": 85,
        "velocity": 64
      },
      {
        "deltaTime": 8,
        "channel": 0,
        "type": "noteOn",
        "noteNumber": 73,
        "velocity": 56
      },
      {
        "deltaTime": 4,
        "channel": 0,
        "type": "noteOn",
        "noteNumber": 56,
        "velocity": 43
      },
      {
        "deltaTime": 0,
        "running": true,
        "channel": 0,
        "type": "noteOn",
        "noteNumber": 59,
        "velocity": 54
      },
      {
        "deltaTime": 0,
        "running": true,
        "channel": 0,
        "type": "noteOn",
        "noteNumber": 63,
        "velocity": 50
      },
      {
        "deltaTime": 8,
        "channel": 0,
        "type": "controller",
        "controllerType": 64,
        "value": 0
      },
      {
        "deltaTime": 44,
        "channel": 0,
        "type": "controller",
        "controllerType": 64,
        "value": 127
      },
      {
        "deltaTime": 40,
        "channel": 0,
        "type": "noteOff",
        "noteNumber": 59,
        "velocity": 0,
        "byte9": true
      },
      {
        "deltaTime": 20,
        "channel": 0,
        "type": "noteOff",
        "noteNumber": 73,
        "velocity": 0,
        "byte9": true
      },
      {
        "deltaTime": 16,
        "channel": 0,
        "type": "noteOff",
        "noteNumber": 56,
        "velocity": 0,
        "byte9": true
      },
      {
        "deltaTime": 4,
        "channel": 0,
        "type": "noteOff",
        "noteNumber": 85,
        "velocity": 0,
        "byte9": true
      },
      {
        "deltaTime": 44,
        "channel": 0,
        "type": "noteOff",
        "noteNumber": 63,
        "velocity": 0,
        "byte9": true
      },
      {
        "deltaTime": 296,
        "channel": 0,
        "type": "noteOn",
        "noteNumber": 66,
        "velocity": 76
      },
      {
        "deltaTime": 0,
        "running": true,
        "channel": 0,
        "type": "noteOn",
        "noteNumber": 82,
        "velocity": 77
      },
      {
        "deltaTime": 0,
        "running": true,
        "channel": 0,
        "type": "noteOn",
        "noteNumber": 94,
        "velocity": 78
      },
      {
        "deltaTime": 4,
        "channel": 0,
        "type": "noteOn",
        "noteNumber": 62,
        "velocity": 71
      },
      {
        "deltaTime": 0,
        "running": true,
        "channel": 0,
        "type": "noteOn",
        "noteNumber": 87,
        "velocity": 58
      },
      {
        "deltaTime": 4,
        "channel": 0,
        "type": "controller",
        "controllerType": 64,
        "value": 0
      },
      {
        "deltaTime": 0,
        "channel": 0,
        "type": "noteOn",
        "noteNumber": 56,
        "velocity": 56
      },
      {
        "deltaTime": 8,
        "channel": 0,
        "type": "noteOff",
        "noteNumber": 62,
        "velocity": 0,
        "byte9": true
      },
      {
        "deltaTime": 0,
        "running": true,
        "channel": 0,
        "type": "noteOff",
        "noteNumber": 66,
        "velocity": 0,
        "byte9": true
      },
      {
        "deltaTime": 0,
        "running": true,
        "channel": 0,
        "type": "noteOff",
        "noteNumber": 82,
        "velocity": 0,
        "byte9": true
      },
      {
        "deltaTime": 4,
        "channel": 0,
        "type": "noteOff",
        "noteNumber": 87,
        "velocity": 0,
        "byte9": true
      },
      {
        "deltaTime": 4,
        "channel": 0,
        "type": "noteOff",
        "noteNumber": 56,
        "velocity": 0,
        "byte9": true
      },
      {
        "deltaTime": 4,
        "channel": 0,
        "type": "noteOff",
        "noteNumber": 94,
        "velocity": 0,
        "byte9": true
      },
      {
        "deltaTime": 116,
        "channel": 0,
        "type": "noteOn",
        "noteNumber": 94,
        "velocity": 77
      },
      {
        "deltaTime": 4,
        "channel": 0,
        "type": "noteOn",
        "noteNumber": 56,
        "velocity": 77
      },
      {
        "deltaTime": 0,
        "running": true,
        "channel": 0,
        "type": "noteOn",
        "noteNumber": 62,
        "velocity": 78
      },
      {
        "deltaTime": 0,
        "running": true,
        "channel": 0,
        "type": "noteOn",
        "noteNumber": 66,
        "velocity": 86
      },
      {
        "deltaTime": 0,
        "running": true,
        "channel": 0,
        "type": "noteOn",
        "noteNumber": 82,
        "velocity": 81
      },
      {
        "deltaTime": 12,
        "channel": 0,
        "type": "noteOn",
        "noteNumber": 87,
        "velocity": 58
      },
      {
        "deltaTime": 68,
        "channel": 0,
        "type": "noteOff",
        "noteNumber": 87,
        "velocity": 0,
        "byte9": true
      },
      {
        "deltaTime": 4,
        "channel": 0,
        "type": "noteOff",
        "noteNumber": 94,
        "velocity": 0,
        "byte9": true
      },
      {
        "deltaTime": 16,
        "channel": 0,
        "type": "noteOff",
        "noteNumber": 82,
        "velocity": 0,
        "byte9": true
      },
      {
        "deltaTime": 4,
        "channel": 0,
        "type": "noteOff",
        "noteNumber": 56,
        "velocity": 0,
        "byte9": true
      },
      {
        "deltaTime": 4,
        "channel": 0,
        "type": "noteOff",
        "noteNumber": 66,
        "velocity": 0,
        "byte9": true
      },
      {
        "deltaTime": 8,
        "channel": 0,
        "type": "noteOff",
        "noteNumber": 62,
        "velocity": 0,
        "byte9": true
      },
      {
        "deltaTime": 28,
        "channel": 0,
        "type": "controller",
        "controllerType": 64,
        "value": 127
      },
      {
        "deltaTime": 12,
        "channel": 0,
        "type": "noteOn",
        "noteNumber": 62,
        "velocity": 60
      },
      {
        "deltaTime": 0,
        "running": true,
        "channel": 0,
        "type": "noteOn",
        "noteNumber": 66,
        "velocity": 68
      },
      {
        "deltaTime": 0,
        "running": true,
        "channel": 0,
        "type": "noteOn",
        "noteNumber": 90,
        "velocity": 62
      },
      {
        "deltaTime": 4,
        "channel": 0,
        "type": "noteOn",
        "noteNumber": 56,
        "velocity": 67
      },
      {
        "deltaTime": 0,
        "running": true,
        "channel": 0,
        "type": "noteOn",
        "noteNumber": 78,
        "velocity": 62
      },
      {
        "deltaTime": 44,
        "channel": 0,
        "type": "noteOff",
        "noteNumber": 66,
        "velocity": 0,
        "byte9": true
      },
      {
        "deltaTime": 12,
        "channel": 0,
        "type": "noteOff",
        "noteNumber": 56,
        "velocity": 0,
        "byte9": true
      },
      {
        "deltaTime": 0,
        "running": true,
        "channel": 0,
        "type": "noteOff",
        "noteNumber": 62,
        "velocity": 0,
        "byte9": true
      },
      {
        "deltaTime": 4,
        "channel": 0,
        "type": "noteOff",
        "noteNumber": 78,
        "velocity": 0,
        "byte9": true
      },
      {
        "deltaTime": 0,
        "running": true,
        "channel": 0,
        "type": "noteOff",
        "noteNumber": 90,
        "velocity": 0,
        "byte9": true
      },
      {
        "deltaTime": 92,
        "channel": 0,
        "type": "noteOn",
        "noteNumber": 78,
        "velocity": 77
      },
      {
        "deltaTime": 0,
        "running": true,
        "channel": 0,
        "type": "noteOn",
        "noteNumber": 90,
        "velocity": 76
      },
      {
        "deltaTime": 4,
        "channel": 0,
        "type": "noteOn",
        "noteNumber": 66,
        "velocity": 74
      },
      {
        "deltaTime": 4,
        "channel": 0,
        "type": "controller",
        "controllerType": 64,
        "value": 0
      },
      {
        "deltaTime": 0,
        "channel": 0,
        "type": "noteOn",
        "noteNumber": 56,
        "velocity": 72
      },
      {
        "deltaTime": 0,
        "running": true,
        "channel": 0,
        "type": "noteOn",
        "noteNumber": 62,
        "velocity": 71
      },
      {
        "deltaTime": 28,
        "channel": 0,
        "type": "noteOff",
        "noteNumber": 66,
        "velocity": 0,
        "byte9": true
      },
      {
        "deltaTime": 0,
        "running": true,
        "channel": 0,
        "type": "noteOff",
        "noteNumber": 90,
        "velocity": 0,
        "byte9": true
      },
      {
        "deltaTime": 4,
        "channel": 0,
        "type": "noteOff",
        "noteNumber": 78,
        "velocity": 0,
        "byte9": true
      },
      {
        "deltaTime": 20,
        "channel": 0,
        "type": "noteOff",
        "noteNumber": 56,
        "velocity": 0,
        "byte9": true
      },
      {
        "deltaTime": 8,
        "channel": 0,
        "type": "noteOff",
        "noteNumber": 62,
        "velocity": 0,
        "byte9": true
      },
      {
        "deltaTime": 20,
        "channel": 0,
        "type": "controller",
        "controllerType": 64,
        "value": 127
      },
      {
        "deltaTime": 56,
        "channel": 0,
        "type": "noteOn",
        "noteNumber": 73,
        "velocity": 73
      },
      {
        "deltaTime": 4,
        "channel": 0,
        "type": "noteOn",
        "noteNumber": 85,
        "velocity": 64
      },
      {
        "deltaTime": 4,
        "channel": 0,
        "type": "noteOn",
        "noteNumber": 56,
        "velocity": 70
      },
      {
        "deltaTime": 0,
        "running": true,
        "channel": 0,
        "type": "noteOn",
        "noteNumber": 66,
        "velocity": 67
      },
      {
        "deltaTime": 4,
        "channel": 0,
        "type": "noteOn",
        "noteNumber": 62,
        "velocity": 62
      },
      {
        "deltaTime": 60,
        "channel": 0,
        "type": "noteOff",
        "noteNumber": 62,
        "velocity": 0,
        "byte9": true
      },
      {
        "deltaTime": 44,
        "channel": 0,
        "type": "noteOff",
        "noteNumber": 66,
        "velocity": 0,
        "byte9": true
      },
      {
        "deltaTime": 0,
        "running": true,
        "channel": 0,
        "type": "noteOff",
        "noteNumber": 73,
        "velocity": 0,
        "byte9": true
      },
      {
        "deltaTime": 8,
        "channel": 0,
        "type": "noteOff",
        "noteNumber": 85,
        "velocity": 0,
        "byte9": true
      },
      {
        "deltaTime": 4,
        "channel": 0,
        "type": "noteOff",
        "noteNumber": 56,
        "velocity": 0,
        "byte9": true
      },
      {
        "deltaTime": 32,
        "channel": 0,
        "type": "controller",
        "controllerType": 64,
        "value": 0
      },
      {
        "deltaTime": 0,
        "channel": 0,
        "type": "noteOn",
        "noteNumber": 62,
        "velocity": 45
      },
      {
        "deltaTime": 0,
        "running": true,
        "channel": 0,
        "type": "noteOn",
        "noteNumber": 65,
        "velocity": 57
      },
      {
        "deltaTime": 0,
        "running": true,
        "channel": 0,
        "type": "noteOn",
        "noteNumber": 74,
        "velocity": 58
      },
      {
        "deltaTime": 0,
        "running": true,
        "channel": 0,
        "type": "noteOn",
        "noteNumber": 86,
        "velocity": 66
      },
      {
        "deltaTime": 4,
        "channel": 0,
        "type": "noteOn",
        "noteNumber": 79,
        "velocity": 54
      },
      {
        "deltaTime": 4,
        "channel": 0,
        "type": "noteOn",
        "noteNumber": 60,
        "velocity": 51
      },
      {
        "deltaTime": 12,
        "channel": 0,
        "type": "noteOn",
        "noteNumber": 55,
        "velocity": 54
      },
      {
        "deltaTime": 136,
        "channel": 0,
        "type": "controller",
        "controllerType": 64,
        "value": 127
      },
      {
        "deltaTime": 84,
        "channel": 0,
        "type": "noteOff",
        "noteNumber": 79,
        "velocity": 0,
        "byte9": true
      },
      {
        "deltaTime": 0,
        "running": true,
        "channel": 0,
        "type": "noteOff",
        "noteNumber": 86,
        "velocity": 0,
        "byte9": true
      },
      {
        "deltaTime": 20,
        "channel": 0,
        "type": "noteOff",
        "noteNumber": 65,
        "velocity": 0,
        "byte9": true
      },
      {
        "deltaTime": 4,
        "channel": 0,
        "type": "noteOff",
        "noteNumber": 60,
        "velocity": 0,
        "byte9": true
      },
      {
        "deltaTime": 20,
        "channel": 0,
        "type": "noteOff",
        "noteNumber": 55,
        "velocity": 0,
        "byte9": true
      },
      {
        "deltaTime": 4,
        "channel": 0,
        "type": "noteOff",
        "noteNumber": 74,
        "velocity": 0,
        "byte9": true
      },
      {
        "deltaTime": 16,
        "channel": 0,
        "type": "noteOff",
        "noteNumber": 62,
        "velocity": 0,
        "byte9": true
      },
      {
        "deltaTime": 176,
        "channel": 0,
        "type": "controller",
        "controllerType": 64,
        "value": 0
      },
      {
        "deltaTime": 0,
        "channel": 0,
        "type": "noteOn",
        "noteNumber": 70,
        "velocity": 46
      },
      {
        "deltaTime": 0,
        "running": true,
        "channel": 0,
        "type": "noteOn",
        "noteNumber": 82,
        "velocity": 57
      },
      {
        "deltaTime": 4,
        "channel": 0,
        "type": "noteOn",
        "noteNumber": 62,
        "velocity": 29
      },
      {
        "deltaTime": 0,
        "running": true,
        "channel": 0,
        "type": "noteOn",
        "noteNumber": 65,
        "velocity": 49
      },
      {
        "deltaTime": 4,
        "channel": 0,
        "type": "noteOn",
        "noteNumber": 60,
        "velocity": 39
      },
      {
        "deltaTime": 8,
        "channel": 0,
        "type": "noteOn",
        "noteNumber": 77,
        "velocity": 44
      },
      {
        "deltaTime": 4,
        "channel": 0,
        "type": "noteOn",
        "noteNumber": 55,
        "velocity": 37
      },
      {
        "deltaTime": 76,
        "channel": 0,
        "type": "controller",
        "controllerType": 64,
        "value": 127
      },
      {
        "deltaTime": 84,
        "channel": 0,
        "type": "noteOff",
        "noteNumber": 77,
        "velocity": 0,
        "byte9": true
      },
      {
        "deltaTime": 20,
        "channel": 0,
        "type": "noteOff",
        "noteNumber": 82,
        "velocity": 0,
        "byte9": true
      },
      {
        "deltaTime": 52,
        "channel": 0,
        "type": "noteOff",
        "noteNumber": 70,
        "velocity": 0,
        "byte9": true
      },
      {
        "deltaTime": 4,
        "channel": 0,
        "type": "noteOff",
        "noteNumber": 65,
        "velocity": 0,
        "byte9": true
      },
      {
        "deltaTime": 8,
        "channel": 0,
        "type": "noteOff",
        "noteNumber": 60,
        "velocity": 0,
        "byte9": true
      },
      {
        "deltaTime": 0,
        "running": true,
        "channel": 0,
        "type": "noteOff",
        "noteNumber": 62,
        "velocity": 0,
        "byte9": true
      },
      {
        "deltaTime": 4,
        "channel": 0,
        "type": "noteOff",
        "noteNumber": 55,
        "velocity": 0,
        "byte9": true
      },
      {
        "deltaTime": 220,
        "channel": 0,
        "type": "controller",
        "controllerType": 64,
        "value": 0
      },
      {
        "deltaTime": 4,
        "channel": 0,
        "type": "noteOn",
        "noteNumber": 68,
        "velocity": 95
      },
      {
        "deltaTime": 0,
        "running": true,
        "channel": 0,
        "type": "noteOn",
        "noteNumber": 72,
        "velocity": 90
      },
      {
        "deltaTime": 0,
        "running": true,
        "channel": 0,
        "type": "noteOn",
        "noteNumber": 75,
        "velocity": 91
      },
      {
        "deltaTime": 4,
        "channel": 0,
        "type": "noteOn",
        "noteNumber": 61,
        "velocity": 77
      },
      {
        "deltaTime": 0,
        "running": true,
        "channel": 0,
        "type": "noteOn",
        "noteNumber": 63,
        "velocity": 78
      },
      {
        "deltaTime": 4,
        "channel": 0,
        "type": "noteOn",
        "noteNumber": 65,
        "velocity": 82
      },
      {
        "deltaTime": 60,
        "channel": 0,
        "type": "controller",
        "controllerType": 64,
        "value": 127
      },
      {
        "deltaTime": 68,
        "channel": 0,
        "type": "noteOff",
        "noteNumber": 65,
        "velocity": 0,
        "byte9": true
      },
      {
        "deltaTime": 12,
        "channel": 0,
        "type": "noteOff",
        "noteNumber": 68,
        "velocity": 0,
        "byte9": true
      },
      {
        "deltaTime": 4,
        "channel": 0,
        "type": "noteOff",
        "noteNumber": 61,
        "velocity": 0,
        "byte9": true
      },
      {
        "deltaTime": 0,
        "running": true,
        "channel": 0,
        "type": "noteOff",
        "noteNumber": 63,
        "velocity": 0,
        "byte9": true
      },
      {
        "deltaTime": 0,
        "running": true,
        "channel": 0,
        "type": "noteOff",
        "noteNumber": 75,
        "velocity": 0,
        "byte9": true
      },
      {
        "deltaTime": 24,
        "channel": 0,
        "type": "noteOn",
        "noteNumber": 68,
        "velocity": 37
      },
      {
        "deltaTime": 0,
        "running": true,
        "channel": 0,
        "type": "noteOn",
        "noteNumber": 77,
        "velocity": 76
      },
      {
        "deltaTime": 4,
        "channel": 0,
        "type": "noteOn",
        "noteNumber": 63,
        "velocity": 60
      },
      {
        "deltaTime": 4,
        "channel": 0,
        "type": "noteOn",
        "noteNumber": 61,
        "velocity": 55
      },
      {
        "deltaTime": 4,
        "channel": 0,
        "type": "noteOn",
        "noteNumber": 65,
        "velocity": 55
      },
      {
        "deltaTime": 32,
        "channel": 0,
        "type": "noteOff",
        "noteNumber": 68,
        "velocity": 0,
        "byte9": true
      },
      {
        "deltaTime": 4,
        "channel": 0,
        "type": "noteOff",
        "noteNumber": 65,
        "velocity": 0,
        "byte9": true
      },
      {
        "deltaTime": 8,
        "channel": 0,
        "type": "noteOff",
        "noteNumber": 77,
        "velocity": 0,
        "byte9": true
      },
      {
        "deltaTime": 4,
        "channel": 0,
        "type": "controller",
        "controllerType": 64,
        "value": 0
      },
      {
        "deltaTime": 16,
        "channel": 0,
        "type": "noteOff",
        "noteNumber": 61,
        "velocity": 0,
        "byte9": true
      },
      {
        "deltaTime": 12,
        "channel": 0,
        "type": "noteOn",
        "noteNumber": 68,
        "velocity": 39
      },
      {
        "deltaTime": 4,
        "channel": 0,
        "type": "noteOn",
        "noteNumber": 75,
        "velocity": 38
      },
      {
        "deltaTime": 4,
        "channel": 0,
        "type": "noteOn",
        "noteNumber": 61,
        "velocity": 25
      },
      {
        "deltaTime": 0,
        "running": true,
        "channel": 0,
        "type": "noteOn",
        "noteNumber": 65,
        "velocity": 48
      },
      {
        "deltaTime": 8,
        "channel": 0,
        "type": "controller",
        "controllerType": 64,
        "value": 127
      },
      {
        "deltaTime": 48,
        "channel": 0,
        "type": "noteOff",
        "noteNumber": 65,
        "velocity": 0,
        "byte9": true
      },
      {
        "deltaTime": 0,
        "running": true,
        "channel": 0,
        "type": "noteOff",
        "noteNumber": 72,
        "velocity": 0,
        "byte9": true
      },
      {
        "deltaTime": 24,
        "channel": 0,
        "type": "noteOff",
        "noteNumber": 63,
        "velocity": 0,
        "byte9": true
      },
      {
        "deltaTime": 12,
        "channel": 0,
        "type": "noteOff",
        "noteNumber": 61,
        "velocity": 0,
        "byte9": true
      },
      {
        "deltaTime": 4,
        "channel": 0,
        "type": "noteOff",
        "noteNumber": 68,
        "velocity": 0,
        "byte9": true
      },
      {
        "deltaTime": 8,
        "channel": 0,
        "type": "noteOff",
        "noteNumber": 75,
        "velocity": 0,
        "byte9": true
      },
      {
        "deltaTime": 44,
        "channel": 0,
        "type": "noteOn",
        "noteNumber": 73,
        "velocity": 53
      },
      {
        "deltaTime": 4,
        "channel": 0,
        "type": "noteOn",
        "noteNumber": 67,
        "velocity": 44
      },
      {
        "deltaTime": 0,
        "running": true,
        "channel": 0,
        "type": "noteOn",
        "noteNumber": 71,
        "velocity": 58
      },
      {
        "deltaTime": 0,
        "running": true,
        "channel": 0,
        "type": "noteOn",
        "noteNumber": 76,
        "velocity": 51
      },
      {
        "deltaTime": 4,
        "channel": 0,
        "type": "noteOn",
        "noteNumber": 55,
        "velocity": 66
      },
      {
        "deltaTime": 0,
        "running": true,
        "channel": 0,
        "type": "noteOn",
        "noteNumber": 61,
        "velocity": 53
      },
      {
        "deltaTime": 0,
        "running": true,
        "channel": 0,
        "type": "noteOn",
        "noteNumber": 64,
        "velocity": 55
      },
      {
        "deltaTime": 16,
        "channel": 0,
        "type": "controller",
        "controllerType": 64,
        "value": 0
      },
      {
        "deltaTime": 144,
        "channel": 0,
        "type": "controller",
        "controllerType": 64,
        "value": 127
      },
      {
        "deltaTime": 140,
        "channel": 0,
        "type": "noteOff",
        "noteNumber": 64,
        "velocity": 0,
        "byte9": true
      },
      {
        "deltaTime": 8,
        "channel": 0,
        "type": "noteOff",
        "noteNumber": 76,
        "velocity": 0,
        "byte9": true
      },
      {
        "deltaTime": 8,
        "channel": 0,
        "type": "noteOff",
        "noteNumber": 71,
        "velocity": 0,
        "byte9": true
      },
      {
        "deltaTime": 8,
        "channel": 0,
        "type": "noteOff",
        "noteNumber": 61,
        "velocity": 0,
        "byte9": true
      },
      {
        "deltaTime": 0,
        "running": true,
        "channel": 0,
        "type": "noteOff",
        "noteNumber": 73,
        "velocity": 0,
        "byte9": true
      },
      {
        "deltaTime": 12,
        "channel": 0,
        "type": "noteOff",
        "noteNumber": 67,
        "velocity": 0,
        "byte9": true
      },
      {
        "deltaTime": 4,
        "channel": 0,
        "type": "noteOff",
        "noteNumber": 55,
        "velocity": 0,
        "byte9": true
      },
      {
        "deltaTime": 164,
        "channel": 0,
        "type": "noteOn",
        "noteNumber": 54,
        "velocity": 59
      },
      {
        "deltaTime": 24,
        "channel": 0,
        "type": "noteOn",
        "noteNumber": 55,
        "velocity": 66
      },
      {
        "deltaTime": 24,
        "channel": 0,
        "type": "controller",
        "controllerType": 64,
        "value": 0
      },
      {
        "deltaTime": 8,
        "channel": 0,
        "type": "noteOn",
        "noteNumber": 56,
        "velocity": 81
      },
      {
        "deltaTime": 0,
        "running": true,
        "channel": 0,
        "type": "noteOn",
        "noteNumber": 62,
        "velocity": 88
      },
      {
        "deltaTime": 0,
        "running": true,
        "channel": 0,
        "type": "noteOn",
        "noteNumber": 67,
        "velocity": 78
      },
      {
        "deltaTime": 4,
        "channel": 0,
        "type": "noteOn",
        "noteNumber": 59,
        "velocity": 85
      },
      {
        "deltaTime": 16,
        "channel": 0,
        "type": "noteOff",
        "noteNumber": 55,
        "velocity": 0,
        "byte9": true
      },
      {
        "deltaTime": 4,
        "channel": 0,
        "type": "noteOff",
        "noteNumber": 54,
        "velocity": 0,
        "byte9": true
      },
      {
        "deltaTime": 248,
        "channel": 0,
        "type": "controller",
        "controllerType": 64,
        "value": 127
      },
      {
        "deltaTime": 248,
        "channel": 0,
        "type": "noteOff",
        "noteNumber": 59,
        "velocity": 0,
        "byte9": true
      },
      {
        "deltaTime": 4,
        "channel": 0,
        "type": "noteOff",
        "noteNumber": 62,
        "velocity": 0,
        "byte9": true
      },
      {
        "deltaTime": 4,
        "channel": 0,
        "type": "noteOff",
        "noteNumber": 67,
        "velocity": 0,
        "byte9": true
      },
      {
        "deltaTime": 72,
        "channel": 0,
        "type": "noteOff",
        "noteNumber": 56,
        "velocity": 0,
        "byte9": true
      },
      {
        "deltaTime": 40,
        "channel": 0,
        "type": "noteOn",
        "noteNumber": 68,
        "velocity": 80
      },
      {
        "deltaTime": 4,
        "channel": 0,
        "type": "noteOn",
        "noteNumber": 56,
        "velocity": 67
      },
      {
        "deltaTime": 0,
        "running": true,
        "channel": 0,
        "type": "noteOn",
        "noteNumber": 60,
        "velocity": 77
      },
      {
        "deltaTime": 0,
        "running": true,
        "channel": 0,
        "type": "noteOn",
        "noteNumber": 63,
        "velocity": 77
      },
      {
        "deltaTime": 20,
        "channel": 0,
        "type": "controller",
        "controllerType": 64,
        "value": 0
      },
      {
        "deltaTime": 104,
        "channel": 0,
        "type": "controller",
        "controllerType": 64,
        "value": 127
      },
      {
        "deltaTime": 76,
        "channel": 0,
        "type": "noteOff",
        "noteNumber": 68,
        "velocity": 0,
        "byte9": true
      },
      {
        "deltaTime": 20,
        "channel": 0,
        "type": "noteOff",
        "noteNumber": 60,
        "velocity": 0,
        "byte9": true
      },
      {
        "deltaTime": 24,
        "channel": 0,
        "type": "noteOff",
        "noteNumber": 56,
        "velocity": 0,
        "byte9": true
      },
      {
        "deltaTime": 12,
        "channel": 0,
        "type": "noteOff",
        "noteNumber": 63,
        "velocity": 0,
        "byte9": true
      },
      {
        "deltaTime": 72,
        "channel": 0,
        "type": "noteOn",
        "noteNumber": 68,
        "velocity": 33
      },
      {
        "deltaTime": 20,
        "channel": 0,
        "type": "noteOff",
        "noteNumber": 68,
        "velocity": 0,
        "byte9": true
      },
      {
        "deltaTime": 132,
        "channel": 0,
        "type": "noteOn",
        "noteNumber": 56,
        "velocity": 37
      },
      {
        "deltaTime": 44,
        "channel": 0,
        "type": "controller",
        "controllerType": 64,
        "value": 0
      },
      {
        "deltaTime": 0,
        "channel": 0,
        "type": "noteOn",
        "noteNumber": 63,
        "velocity": 83
      },
      {
        "deltaTime": 4,
        "channel": 0,
        "type": "noteOn",
        "noteNumber": 58,
        "velocity": 78
      },
      {
        "deltaTime": 0,
        "running": true,
        "channel": 0,
        "type": "noteOn",
        "noteNumber": 67,
        "velocity": 68
      },
      {
        "deltaTime": 0,
        "running": true,
        "channel": 0,
        "type": "noteOn",
        "noteNumber": 70,
        "velocity": 77
      },
      {
        "deltaTime": 4,
        "channel": 0,
        "type": "noteOn",
        "noteNumber": 59,
        "velocity": 88
      },
      {
        "deltaTime": 28,
        "channel": 0,
        "type": "noteOff",
        "noteNumber": 56,
        "velocity": 0,
        "byte9": true
      },
      {
        "deltaTime": 204,
        "channel": 0,
        "type": "noteOff",
        "noteNumber": 58,
        "velocity": 0,
        "byte9": true
      },
      {
        "deltaTime": 16,
        "channel": 0,
        "type": "controller",
        "controllerType": 64,
        "value": 127
      },
      {
        "deltaTime": 0,
        "channel": 0,
        "type": "noteOff",
        "noteNumber": 67,
        "velocity": 0,
        "byte9": true
      },
      {
        "deltaTime": 12,
        "channel": 0,
        "type": "noteOff",
        "noteNumber": 70,
        "velocity": 0,
        "byte9": true
      },
      {
        "deltaTime": 20,
        "channel": 0,
        "type": "noteOff",
        "noteNumber": 59,
        "velocity": 0,
        "byte9": true
      },
      {
        "deltaTime": 20,
        "channel": 0,
        "type": "noteOff",
        "noteNumber": 63,
        "velocity": 0,
        "byte9": true
      },
      {
        "deltaTime": 108,
        "channel": 0,
        "type": "noteOn",
        "noteNumber": 68,
        "velocity": 72
      },
      {
        "deltaTime": 4,
        "channel": 0,
        "type": "noteOn",
        "noteNumber": 58,
        "velocity": 77
      },
      {
        "deltaTime": 4,
        "channel": 0,
        "type": "noteOn",
        "noteNumber": 61,
        "velocity": 68
      },
      {
        "deltaTime": 0,
        "running": true,
        "channel": 0,
        "type": "noteOn",
        "noteNumber": 64,
        "velocity": 68
      },
      {
        "deltaTime": 4,
        "channel": 0,
        "type": "noteOn",
        "noteNumber": 48,
        "velocity": 64
      },
      {
        "deltaTime": 4,
        "channel": 0,
        "type": "controller",
        "controllerType": 64,
        "value": 0
      },
      {
        "deltaTime": 0,
        "channel": 0,
        "type": "noteOn",
        "noteNumber": 55,
        "velocity": 48
      },
      {
        "deltaTime": 16,
        "channel": 0,
        "type": "noteOn",
        "noteNumber": 66,
        "velocity": 23
      },
      {
        "deltaTime": 4,
        "channel": 0,
        "type": "noteOff",
        "noteNumber": 55,
        "velocity": 0,
        "byte9": true
      },
      {
        "deltaTime": 52,
        "channel": 0,
        "type": "controller",
        "controllerType": 64,
        "value": 127
      },
      {
        "deltaTime": 24,
        "channel": 0,
        "type": "noteOff",
        "noteNumber": 64,
        "velocity": 0,
        "byte9": true
      },
      {
        "deltaTime": 4,
        "channel": 0,
        "type": "noteOff",
        "noteNumber": 61,
        "velocity": 0,
        "byte9": true
      },
      {
        "deltaTime": 8,
        "channel": 0,
        "type": "noteOff",
        "noteNumber": 58,
        "velocity": 0,
        "byte9": true
      },
      {
        "deltaTime": 0,
        "running": true,
        "channel": 0,
        "type": "noteOff",
        "noteNumber": 68,
        "velocity": 0,
        "byte9": true
      },
      {
        "deltaTime": 24,
        "channel": 0,
        "type": "noteOff",
        "noteNumber": 66,
        "velocity": 0,
        "byte9": true
      },
      {
        "deltaTime": 28,
        "channel": 0,
        "type": "noteOn",
        "noteNumber": 58,
        "velocity": 59
      },
      {
        "deltaTime": 0,
        "running": true,
        "channel": 0,
        "type": "noteOn",
        "noteNumber": 61,
        "velocity": 69
      },
      {
        "deltaTime": 0,
        "running": true,
        "channel": 0,
        "type": "noteOn",
        "noteNumber": 67,
        "velocity": 57
      },
      {
        "deltaTime": 12,
        "channel": 0,
        "type": "noteOn",
        "noteNumber": 55,
        "velocity": 58
      },
      {
        "deltaTime": 16,
        "channel": 0,
        "type": "noteOff",
        "noteNumber": 58,
        "velocity": 0,
        "byte9": true
      },
      {
        "deltaTime": 8,
        "channel": 0,
        "type": "noteOff",
        "noteNumber": 48,
        "velocity": 0,
        "byte9": true
      },
      {
        "deltaTime": 4,
        "channel": 0,
        "type": "noteOff",
        "noteNumber": 55,
        "velocity": 0,
        "byte9": true
      },
      {
        "deltaTime": 0,
        "running": true,
        "channel": 0,
        "type": "noteOff",
        "noteNumber": 67,
        "velocity": 0,
        "byte9": true
      },
      {
        "deltaTime": 8,
        "channel": 0,
        "type": "noteOff",
        "noteNumber": 61,
        "velocity": 0,
        "byte9": true
      },
      {
        "deltaTime": 44,
        "channel": 0,
        "type": "noteOn",
        "noteNumber": 52,
        "velocity": 38
      },
      {
        "deltaTime": 24,
        "channel": 0,
        "type": "controller",
        "controllerType": 64,
        "value": 0
      },
      {
        "deltaTime": 0,
        "channel": 0,
        "type": "noteOff",
        "noteNumber": 52,
        "velocity": 0,
        "byte9": true
      },
      {
        "deltaTime": 32,
        "channel": 0,
        "type": "noteOn",
        "noteNumber": 67,
        "velocity": 70
      },
      {
        "deltaTime": 4,
        "channel": 0,
        "type": "noteOn",
        "noteNumber": 56,
        "velocity": 77
      },
      {
        "deltaTime": 4,
        "channel": 0,
        "type": "noteOn",
        "noteNumber": 55,
        "velocity": 85
      },
      {
        "deltaTime": 0,
        "running": true,
        "channel": 0,
        "type": "noteOn",
        "noteNumber": 60,
        "velocity": 80
      },
      {
        "deltaTime": 0,
        "running": true,
        "channel": 0,
        "type": "noteOn",
        "noteNumber": 63,
        "velocity": 65
      },
      {
        "deltaTime": 312,
        "channel": 0,
        "type": "noteOff",
        "noteNumber": 67,
        "velocity": 0,
        "byte9": true
      },
      {
        "deltaTime": 16,
        "channel": 0,
        "type": "noteOff",
        "noteNumber": 56,
        "velocity": 0,
        "byte9": true
      },
      {
        "deltaTime": 0,
        "running": true,
        "channel": 0,
        "type": "noteOff",
        "noteNumber": 60,
        "velocity": 0,
        "byte9": true
      },
      {
        "deltaTime": 32,
        "channel": 0,
        "type": "noteOff",
        "noteNumber": 63,
        "velocity": 0,
        "byte9": true
      },
      {
        "deltaTime": 20,
        "channel": 0,
        "type": "noteOn",
        "noteNumber": 54,
        "velocity": 68
      },
      {
        "deltaTime": 0,
        "running": true,
        "channel": 0,
        "type": "noteOn",
        "noteNumber": 63,
        "velocity": 39
      },
      {
        "deltaTime": 4,
        "channel": 0,
        "type": "noteOn",
        "noteNumber": 56,
        "velocity": 69
      },
      {
        "deltaTime": 0,
        "running": true,
        "channel": 0,
        "type": "noteOn",
        "noteNumber": 66,
        "velocity": 64
      },
      {
        "deltaTime": 8,
        "channel": 0,
        "type": "noteOn",
        "noteNumber": 60,
        "velocity": 66
      },
      {
        "deltaTime": 8,
        "channel": 0,
        "type": "noteOff",
        "noteNumber": 55,
        "velocity": 0,
        "byte9": true
      },
      {
        "deltaTime": 32,
        "channel": 0,
        "type": "noteOff",
        "noteNumber": 66,
        "velocity": 0,
        "byte9": true
      },
      {
        "deltaTime": 12,
        "channel": 0,
        "type": "noteOff",
        "noteNumber": 56,
        "velocity": 0,
        "byte9": true
      },
      {
        "deltaTime": 0,
        "running": true,
        "channel": 0,
        "type": "noteOff",
        "noteNumber": 60,
        "velocity": 0,
        "byte9": true
      },
      {
        "deltaTime": 24,
        "channel": 0,
        "type": "noteOff",
        "noteNumber": 54,
        "velocity": 0,
        "byte9": true
      },
      {
        "deltaTime": 16,
        "channel": 0,
        "type": "noteOn",
        "noteNumber": 53,
        "velocity": 45
      },
      {
        "deltaTime": 8,
        "channel": 0,
        "type": "noteOn",
        "noteNumber": 56,
        "velocity": 23
      },
      {
        "deltaTime": 0,
        "running": true,
        "channel": 0,
        "type": "noteOn",
        "noteNumber": 60,
        "velocity": 41
      },
      {
        "deltaTime": 0,
        "running": true,
        "channel": 0,
        "type": "noteOn",
        "noteNumber": 65,
        "velocity": 49
      },
      {
        "deltaTime": 92,
        "channel": 0,
        "type": "noteOff",
        "noteNumber": 60,
        "velocity": 0,
        "byte9": true
      },
      {
        "deltaTime": 4,
        "channel": 0,
        "type": "noteOff",
        "noteNumber": 65,
        "velocity": 0,
        "byte9": true
      },
      {
        "deltaTime": 4,
        "channel": 0,
        "type": "noteOff",
        "noteNumber": 56,
        "velocity": 0,
        "byte9": true
      },
      {
        "deltaTime": 12,
        "channel": 0,
        "type": "noteOff",
        "noteNumber": 63,
        "velocity": 0,
        "byte9": true
      },
      {
        "deltaTime": 28,
        "channel": 0,
        "type": "noteOn",
        "noteNumber": 56,
        "velocity": 48
      },
      {
        "deltaTime": 0,
        "running": true,
        "channel": 0,
        "type": "noteOn",
        "noteNumber": 63,
        "velocity": 31
      },
      {
        "deltaTime": 4,
        "channel": 0,
        "type": "noteOn",
        "noteNumber": 48,
        "velocity": 55
      },
      {
        "deltaTime": 0,
        "running": true,
        "channel": 0,
        "type": "noteOn",
        "noteNumber": 60,
        "velocity": 48
      },
      {
        "deltaTime": 4,
        "channel": 0,
        "type": "noteOff",
        "noteNumber": 53,
        "velocity": 0,
        "byte9": true
      },
      {
        "deltaTime": 12,
        "channel": 0,
        "type": "noteOff",
        "noteNumber": 48,
        "velocity": 0,
        "byte9": true
      },
      {
        "deltaTime": 0,
        "running": true,
        "channel": 0,
        "type": "noteOff",
        "noteNumber": 60,
        "velocity": 0,
        "byte9": true
      },
      {
        "deltaTime": 8,
        "channel": 0,
        "type": "noteOff",
        "noteNumber": 56,
        "velocity": 0,
        "byte9": true
      },
      {
        "deltaTime": 24,
        "channel": 0,
        "type": "noteOff",
        "noteNumber": 63,
        "velocity": 0,
        "byte9": true
      },
      {
        "deltaTime": 280,
        "channel": 0,
        "type": "controller",
        "controllerType": 64,
        "value": 127
      },
      {
        "deltaTime": 188,
        "channel": 0,
        "type": "controller",
        "controllerType": 64,
        "value": 0
      },
      {
        "deltaTime": 36,
        "channel": 0,
        "type": "noteOn",
        "noteNumber": 70,
        "velocity": 67
      },
      {
        "deltaTime": 4,
        "channel": 0,
        "type": "noteOn",
        "noteNumber": 54,
        "velocity": 50
      },
      {
        "deltaTime": 0,
        "running": true,
        "channel": 0,
        "type": "noteOn",
        "noteNumber": 74,
        "velocity": 47
      },
      {
        "deltaTime": 0,
        "running": true,
        "channel": 0,
        "type": "noteOn",
        "noteNumber": 77,
        "velocity": 64
      },
      {
        "deltaTime": 4,
        "channel": 0,
        "type": "noteOn",
        "noteNumber": 65,
        "velocity": 49
      },
      {
        "deltaTime": 4,
        "channel": 0,
        "type": "noteOn",
        "noteNumber": 60,
        "velocity": 37
      },
      {
        "deltaTime": 32,
        "channel": 0,
        "type": "controller",
        "controllerType": 64,
        "value": 127
      },
      {
        "deltaTime": 48,
        "channel": 0,
        "type": "noteOff",
        "noteNumber": 65,
        "velocity": 0,
        "byte9": true
      },
      {
        "deltaTime": 4,
        "channel": 0,
        "type": "noteOff",
        "noteNumber": 70,
        "velocity": 0,
        "byte9": true
      },
      {
        "deltaTime": 8,
        "channel": 0,
        "type": "noteOff",
        "noteNumber": 54,
        "velocity": 0,
        "byte9": true
      },
      {
        "deltaTime": 4,
        "channel": 0,
        "type": "noteOff",
        "noteNumber": 74,
        "velocity": 0,
        "byte9": true
      },
      {
        "deltaTime": 0,
        "running": true,
        "channel": 0,
        "type": "noteOff",
        "noteNumber": 77,
        "velocity": 0,
        "byte9": true
      },
      {
        "deltaTime": 12,
        "channel": 0,
        "type": "noteOff",
        "noteNumber": 60,
        "velocity": 0,
        "byte9": true
      },
      {
        "deltaTime": 28,
        "channel": 0,
        "type": "noteOn",
        "noteNumber": 77,
        "velocity": 67
      },
      {
        "deltaTime": 4,
        "channel": 0,
        "type": "noteOn",
        "noteNumber": 54,
        "velocity": 59
      },
      {
        "deltaTime": 0,
        "running": true,
        "channel": 0,
        "type": "noteOn",
        "noteNumber": 70,
        "velocity": 70
      },
      {
        "deltaTime": 0,
        "running": true,
        "channel": 0,
        "type": "noteOn",
        "noteNumber": 74,
        "velocity": 51
      },
      {
        "deltaTime": 4,
        "channel": 0,
        "type": "noteOn",
        "noteNumber": 60,
        "velocity": 67
      },
      {
        "deltaTime": 0,
        "running": true,
        "channel": 0,
        "type": "noteOn",
        "noteNumber": 65,
        "velocity": 64
      },
      {
        "deltaTime": 16,
        "channel": 0,
        "type": "controller",
        "controllerType": 64,
        "value": 0
      },
      {
        "deltaTime": 32,
        "channel": 0,
        "type": "noteOff",
        "noteNumber": 65,
        "velocity": 0,
        "byte9": true
      },
      {
        "deltaTime": 4,
        "channel": 0,
        "type": "noteOff",
        "noteNumber": 70,
        "velocity": 0,
        "byte9": true
      },
      {
        "deltaTime": 8,
        "channel": 0,
        "type": "noteOff",
        "noteNumber": 60,
        "velocity": 0,
        "byte9": true
      },
      {
        "deltaTime": 0,
        "running": true,
        "channel": 0,
        "type": "noteOff",
        "noteNumber": 74,
        "velocity": 0,
        "byte9": true
      },
      {
        "deltaTime": 0,
        "running": true,
        "channel": 0,
        "type": "noteOff",
        "noteNumber": 77,
        "velocity": 0,
        "byte9": true
      },
      {
        "deltaTime": 4,
        "channel": 0,
        "type": "noteOff",
        "noteNumber": 54,
        "velocity": 0,
        "byte9": true
      },
      {
        "deltaTime": 28,
        "channel": 0,
        "type": "noteOn",
        "noteNumber": 54,
        "velocity": 33
      },
      {
        "deltaTime": 4,
        "channel": 0,
        "type": "noteOn",
        "noteNumber": 77,
        "velocity": 61
      },
      {
        "deltaTime": 4,
        "channel": 0,
        "type": "noteOn",
        "noteNumber": 60,
        "velocity": 52
      },
      {
        "deltaTime": 0,
        "running": true,
        "channel": 0,
        "type": "noteOn",
        "noteNumber": 70,
        "velocity": 44
      },
      {
        "deltaTime": 0,
        "running": true,
        "channel": 0,
        "type": "noteOn",
        "noteNumber": 74,
        "velocity": 38
      },
      {
        "deltaTime": 4,
        "channel": 0,
        "type": "noteOn",
        "noteNumber": 65,
        "velocity": 33
      },
      {
        "deltaTime": 88,
        "channel": 0,
        "type": "controller",
        "controllerType": 64,
        "value": 127
      },
      {
        "deltaTime": 0,
        "channel": 0,
        "type": "noteOff",
        "noteNumber": 65,
        "velocity": 0,
        "byte9": true
      },
      {
        "deltaTime": 0,
        "running": true,
        "channel": 0,
        "type": "noteOff",
        "noteNumber": 74,
        "velocity": 0,
        "byte9": true
      },
      {
        "deltaTime": 8,
        "channel": 0,
        "type": "noteOff",
        "noteNumber": 54,
        "velocity": 0,
        "byte9": true
      },
      {
        "deltaTime": 0,
        "running": true,
        "channel": 0,
        "type": "noteOff",
        "noteNumber": 70,
        "velocity": 0,
        "byte9": true
      },
      {
        "deltaTime": 0,
        "running": true,
        "channel": 0,
        "type": "noteOff",
        "noteNumber": 77,
        "velocity": 0,
        "byte9": true
      },
      {
        "deltaTime": 4,
        "channel": 0,
        "type": "noteOff",
        "noteNumber": 60,
        "velocity": 0,
        "byte9": true
      },
      {
        "deltaTime": 36,
        "channel": 0,
        "type": "controller",
        "controllerType": 64,
        "value": 0
      },
      {
        "deltaTime": 8,
        "channel": 0,
        "type": "noteOn",
        "noteNumber": 65,
        "velocity": 57
      },
      {
        "deltaTime": 0,
        "running": true,
        "channel": 0,
        "type": "noteOn",
        "noteNumber": 70,
        "velocity": 60
      },
      {
        "deltaTime": 0,
        "running": true,
        "channel": 0,
        "type": "noteOn",
        "noteNumber": 77,
        "velocity": 58
      },
      {
        "deltaTime": 4,
        "channel": 0,
        "type": "noteOn",
        "noteNumber": 54,
        "velocity": 58
      },
      {
        "deltaTime": 0,
        "running": true,
        "channel": 0,
        "type": "noteOn",
        "noteNumber": 60,
        "velocity": 60
      },
      {
        "deltaTime": 4,
        "channel": 0,
        "type": "noteOn",
        "noteNumber": 74,
        "velocity": 37
      },
      {
        "deltaTime": 8,
        "channel": 0,
        "type": "noteOff",
        "noteNumber": 65,
        "velocity": 0,
        "byte9": true
      },
      {
        "deltaTime": 4,
        "channel": 0,
        "type": "noteOff",
        "noteNumber": 60,
        "velocity": 0,
        "byte9": true
      },
      {
        "deltaTime": 4,
        "channel": 0,
        "type": "noteOff",
        "noteNumber": 70,
        "velocity": 0,
        "byte9": true
      },
      {
        "deltaTime": 0,
        "running": true,
        "channel": 0,
        "type": "noteOff",
        "noteNumber": 74,
        "velocity": 0,
        "byte9": true
      },
      {
        "deltaTime": 12,
        "channel": 0,
        "type": "noteOff",
        "noteNumber": 77,
        "velocity": 0,
        "byte9": true
      },
      {
        "deltaTime": 4,
        "channel": 0,
        "type": "noteOff",
        "noteNumber": 54,
        "velocity": 0,
        "byte9": true
      },
      {
        "deltaTime": 120,
        "channel": 0,
        "type": "controller",
        "controllerType": 64,
        "value": 127
      },
      {
        "deltaTime": 44,
        "channel": 0,
        "type": "controller",
        "controllerType": 64,
        "value": 0
      },
      {
        "deltaTime": 96,
        "channel": 0,
        "type": "noteOn",
        "noteNumber": 59,
        "velocity": 68
      },
      {
        "deltaTime": 0,
        "running": true,
        "channel": 0,
        "type": "noteOn",
        "noteNumber": 82,
        "velocity": 82
      },
      {
        "deltaTime": 4,
        "channel": 0,
        "type": "noteOn",
        "noteNumber": 53,
        "velocity": 75
      },
      {
        "deltaTime": 0,
        "running": true,
        "channel": 0,
        "type": "noteOn",
        "noteNumber": 64,
        "velocity": 74
      },
      {
        "deltaTime": 0,
        "running": true,
        "channel": 0,
        "type": "noteOn",
        "noteNumber": 70,
        "velocity": 88
      },
      {
        "deltaTime": 0,
        "running": true,
        "channel": 0,
        "type": "noteOn",
        "noteNumber": 75,
        "velocity": 71
      },
      {
        "deltaTime": 4,
        "channel": 0,
        "type": "noteOn",
        "noteNumber": 79,
        "velocity": 53
      },
      {
        "deltaTime": 76,
        "channel": 0,
        "type": "noteOff",
        "noteNumber": 70,
        "velocity": 0,
        "byte9": true
      },
      {
        "deltaTime": 8,
        "channel": 0,
        "type": "noteOff",
        "noteNumber": 75,
        "velocity": 0,
        "byte9": true
      },
      {
        "deltaTime": 4,
        "channel": 0,
        "type": "noteOff",
        "noteNumber": 79,
        "velocity": 0,
        "byte9": true
      },
      {
        "deltaTime": 4,
        "channel": 0,
        "type": "noteOff",
        "noteNumber": 82,
        "velocity": 0,
        "byte9": true
      },
      {
        "deltaTime": 4,
        "channel": 0,
        "type": "noteOff",
        "noteNumber": 64,
        "velocity": 0,
        "byte9": true
      },
      {
        "deltaTime": 4,
        "channel": 0,
        "type": "noteOff",
        "noteNumber": 53,
        "velocity": 0,
        "byte9": true
      },
      {
        "deltaTime": 4,
        "channel": 0,
        "type": "noteOff",
        "noteNumber": 59,
        "velocity": 0,
        "byte9": true
      },
      {
        "deltaTime": 144,
        "channel": 0,
        "type": "controller",
        "controllerType": 64,
        "value": 127
      },
      {
        "deltaTime": 144,
        "channel": 0,
        "type": "noteOn",
        "noteNumber": 58,
        "velocity": 77
      },
      {
        "deltaTime": 0,
        "running": true,
        "channel": 0,
        "type": "noteOn",
        "noteNumber": 63,
        "velocity": 83
      },
      {
        "deltaTime": 0,
        "running": true,
        "channel": 0,
        "type": "noteOn",
        "noteNumber": 72,
        "velocity": 81
      },
      {
        "deltaTime": 0,
        "running": true,
        "channel": 0,
        "type": "noteOn",
        "noteNumber": 79,
        "velocity": 83
      },
      {
        "deltaTime": 0,
        "running": true,
        "channel": 0,
        "type": "noteOn",
        "noteNumber": 84,
        "velocity": 87
      },
      {
        "deltaTime": 4,
        "channel": 0,
        "type": "noteOn",
        "noteNumber": 52,
        "velocity": 82
      },
      {
        "deltaTime": 12,
        "channel": 0,
        "type": "controller",
        "controllerType": 64,
        "value": 0
      },
      {
        "deltaTime": 96,
        "channel": 0,
        "type": "controller",
        "controllerType": 64,
        "value": 127
      },
      {
        "deltaTime": 100,
        "channel": 0,
        "type": "noteOff",
        "noteNumber": 52,
        "velocity": 0,
        "byte9": true
      },
      {
        "deltaTime": 36,
        "channel": 0,
        "type": "noteOff",
        "noteNumber": 58,
        "velocity": 0,
        "byte9": true
      },
      {
        "deltaTime": 16,
        "channel": 0,
        "type": "noteOff",
        "noteNumber": 63,
        "velocity": 0,
        "byte9": true
      },
      {
        "deltaTime": 16,
        "channel": 0,
        "type": "noteOff",
        "noteNumber": 84,
        "velocity": 0,
        "byte9": true
      },
      {
        "deltaTime": 16,
        "channel": 0,
        "type": "noteOff",
        "noteNumber": 72,
        "velocity": 0,
        "byte9": true
      },
      {
        "deltaTime": 16,
        "channel": 0,
        "type": "noteOff",
        "noteNumber": 79,
        "velocity": 0,
        "byte9": true
      },
      {
        "deltaTime": 232,
        "channel": 0,
        "type": "controller",
        "controllerType": 64,
        "value": 0
      },
      {
        "deltaTime": 8,
        "channel": 0,
        "type": "noteOn",
        "noteNumber": 73,
        "velocity": 80
      },
      {
        "deltaTime": 4,
        "channel": 0,
        "type": "noteOn",
        "noteNumber": 63,
        "velocity": 64
      },
      {
        "deltaTime": 0,
        "running": true,
        "channel": 0,
        "type": "noteOn",
        "noteNumber": 68,
        "velocity": 79
      },
      {
        "deltaTime": 0,
        "running": true,
        "channel": 0,
        "type": "noteOn",
        "noteNumber": 85,
        "velocity": 78
      },
      {
        "deltaTime": 4,
        "channel": 0,
        "type": "noteOn",
        "noteNumber": 57,
        "velocity": 71
      },
      {
        "deltaTime": 0,
        "running": true,
        "channel": 0,
        "type": "noteOn",
        "noteNumber": 61,
        "velocity": 62
      },
      {
        "deltaTime": 0,
        "running": true,
        "channel": 0,
        "type": "noteOn",
        "noteNumber": 80,
        "velocity": 59
      },
      {
        "deltaTime": 4,
        "channel": 0,
        "type": "noteOn",
        "noteNumber": 77,
        "velocity": 64
      },
      {
        "deltaTime": 60,
        "channel": 0,
        "type": "controller",
        "controllerType": 64,
        "value": 127
      },
      {
        "deltaTime": 160,
        "channel": 0,
        "type": "noteOff",
        "noteNumber": 77,
        "velocity": 0,
        "byte9": true
      },
      {
        "deltaTime": 24,
        "channel": 0,
        "type": "noteOff",
        "noteNumber": 80,
        "velocity": 0,
        "byte9": true
      },
      {
        "deltaTime": 4,
        "channel": 0,
        "type": "noteOff",
        "noteNumber": 73,
        "velocity": 0,
        "byte9": true
      },
      {
        "deltaTime": 16,
        "channel": 0,
        "type": "noteOff",
        "noteNumber": 68,
        "velocity": 0,
        "byte9": true
      },
      {
        "deltaTime": 0,
        "running": true,
        "channel": 0,
        "type": "noteOff",
        "noteNumber": 85,
        "velocity": 0,
        "byte9": true
      },
      {
        "deltaTime": 8,
        "channel": 0,
        "type": "noteOff",
        "noteNumber": 57,
        "velocity": 0,
        "byte9": true
      },
      {
        "deltaTime": 40,
        "channel": 0,
        "type": "noteOff",
        "noteNumber": 63,
        "velocity": 0,
        "byte9": true
      },
      {
        "deltaTime": 32,
        "channel": 0,
        "type": "noteOff",
        "noteNumber": 61,
        "velocity": 0,
        "byte9": true
      },
      {
        "deltaTime": 56,
        "channel": 0,
        "type": "noteOn",
        "noteNumber": 86,
        "velocity": 79
      },
      {
        "deltaTime": 4,
        "channel": 0,
        "type": "noteOn",
        "noteNumber": 66,
        "velocity": 88
      },
      {
        "deltaTime": 0,
        "running": true,
        "channel": 0,
        "type": "noteOn",
        "noteNumber": 74,
        "velocity": 83
      },
      {
        "deltaTime": 0,
        "running": true,
        "channel": 0,
        "type": "noteOn",
        "noteNumber": 79,
        "velocity": 79
      },
      {
        "deltaTime": 0,
        "running": true,
        "channel": 0,
        "type": "noteOn",
        "noteNumber": 83,
        "velocity": 73
      },
      {
        "deltaTime": 4,
        "channel": 0,
        "type": "noteOn",
        "noteNumber": 56,
        "velocity": 79
      },
      {
        "deltaTime": 0,
        "running": true,
        "channel": 0,
        "type": "noteOn",
        "noteNumber": 62,
        "velocity": 71
      },
      {
        "deltaTime": 4,
        "channel": 0,
        "type": "controller",
        "controllerType": 64,
        "value": 0
      },
      {
        "deltaTime": 60,
        "channel": 0,
        "type": "controller",
        "controllerType": 64,
        "value": 127
      },
      {
        "deltaTime": 64,
        "channel": 0,
        "type": "noteOff",
        "noteNumber": 62,
        "velocity": 0,
        "byte9": true
      },
      {
        "deltaTime": 8,
        "channel": 0,
        "type": "noteOff",
        "noteNumber": 74,
        "velocity": 0,
        "byte9": true
      },
      {
        "deltaTime": 8,
        "channel": 0,
        "type": "noteOff",
        "noteNumber": 79,
        "velocity": 0,
        "byte9": true
      },
      {
        "deltaTime": 8,
        "channel": 0,
        "type": "noteOff",
        "noteNumber": 83,
        "velocity": 0,
        "byte9": true
      },
      {
        "deltaTime": 8,
        "channel": 0,
        "type": "noteOff",
        "noteNumber": 66,
        "velocity": 0,
        "byte9": true
      },
      {
        "deltaTime": 4,
        "channel": 0,
        "type": "noteOff",
        "noteNumber": 86,
        "velocity": 0,
        "byte9": true
      },
      {
        "deltaTime": 8,
        "channel": 0,
        "type": "noteOff",
        "noteNumber": 56,
        "velocity": 0,
        "byte9": true
      },
      {
        "deltaTime": 72,
        "channel": 0,
        "type": "noteOn",
        "noteNumber": 62,
        "velocity": 36
      },
      {
        "deltaTime": 20,
        "channel": 0,
        "type": "noteOff",
        "noteNumber": 62,
        "velocity": 0,
        "byte9": true
      },
      {
        "deltaTime": 28,
        "channel": 0,
        "type": "controller",
        "controllerType": 64,
        "value": 0
      },
      {
        "deltaTime": 24,
        "channel": 0,
        "type": "noteOn",
        "noteNumber": 66,
        "velocity": 86
      },
      {
        "deltaTime": 4,
        "channel": 0,
        "type": "noteOn",
        "noteNumber": 56,
        "velocity": 77
      },
      {
        "deltaTime": 0,
        "running": true,
        "channel": 0,
        "type": "noteOn",
        "noteNumber": 77,
        "velocity": 81
      },
      {
        "deltaTime": 0,
        "running": true,
        "channel": 0,
        "type": "noteOn",
        "noteNumber": 85,
        "velocity": 84
      },
      {
        "deltaTime": 0,
        "running": true,
        "channel": 0,
        "type": "noteOn",
        "noteNumber": 89,
        "velocity": 85
      },
      {
        "deltaTime": 4,
        "channel": 0,
        "type": "noteOn",
        "noteNumber": 62,
        "velocity": 61
      },
      {
        "deltaTime": 24,
        "channel": 0,
        "type": "noteOn",
        "noteNumber": 86,
        "velocity": 54
      },
      {
        "deltaTime": 4,
        "channel": 0,
        "type": "noteOff",
        "noteNumber": 85,
        "velocity": 0,
        "byte9": true
      },
      {
        "deltaTime": 4,
        "channel": 0,
        "type": "controller",
        "controllerType": 64,
        "value": 127
      },
      {
        "deltaTime": 24,
        "channel": 0,
        "type": "noteOff",
        "noteNumber": 77,
        "velocity": 0,
        "byte9": true
      },
      {
        "deltaTime": 20,
        "channel": 0,
        "type": "noteOff",
        "noteNumber": 86,
        "velocity": 0,
        "byte9": true
      },
      {
        "deltaTime": 4,
        "channel": 0,
        "type": "noteOff",
        "noteNumber": 89,
        "velocity": 0,
        "byte9": true
      },
      {
        "deltaTime": 28,
        "channel": 0,
        "type": "noteOff",
        "noteNumber": 66,
        "velocity": 0,
        "byte9": true
      },
      {
        "deltaTime": 20,
        "channel": 0,
        "type": "noteOff",
        "noteNumber": 56,
        "velocity": 0,
        "byte9": true
      },
      {
        "deltaTime": 4,
        "channel": 0,
        "type": "noteOff",
        "noteNumber": 62,
        "velocity": 0,
        "byte9": true
      },
      {
        "deltaTime": 32,
        "channel": 0,
        "type": "noteOn",
        "noteNumber": 62,
        "velocity": 84
      },
      {
        "deltaTime": 0,
        "running": true,
        "channel": 0,
        "type": "noteOn",
        "noteNumber": 86,
        "velocity": 82
      },
      {
        "deltaTime": 4,
        "channel": 0,
        "type": "noteOn",
        "noteNumber": 65,
        "velocity": 85
      },
      {
        "deltaTime": 0,
        "running": true,
        "channel": 0,
        "type": "noteOn",
        "noteNumber": 74,
        "velocity": 87
      },
      {
        "deltaTime": 4,
        "channel": 0,
        "type": "noteOn",
        "noteNumber": 60,
        "velocity": 74
      },
      {
        "deltaTime": 4,
        "channel": 0,
        "type": "noteOn",
        "noteNumber": 55,
        "velocity": 72
      },
      {
        "deltaTime": 8,
        "channel": 0,
        "type": "noteOn",
        "noteNumber": 58,
        "velocity": 33
      },
      {
        "deltaTime": 20,
        "channel": 0,
        "type": "controller",
        "controllerType": 64,
        "value": 0
      },
      {
        "deltaTime": 0,
        "channel": 0,
        "type": "noteOff",
        "noteNumber": 58,
        "velocity": 0,
        "byte9": true
      },
      {
        "deltaTime": 64,
        "channel": 0,
        "type": "controller",
        "controllerType": 64,
        "value": 127
      },
      {
        "deltaTime": 320,
        "channel": 0,
        "type": "noteOff",
        "noteNumber": 60,
        "velocity": 0,
        "byte9": true
      },
      {
        "deltaTime": 8,
        "channel": 0,
        "type": "noteOff",
        "noteNumber": 62,
        "velocity": 0,
        "byte9": true
      },
      {
        "deltaTime": 0,
        "running": true,
        "channel": 0,
        "type": "noteOff",
        "noteNumber": 65,
        "velocity": 0,
        "byte9": true
      },
      {
        "deltaTime": 12,
        "channel": 0,
        "type": "noteOff",
        "noteNumber": 74,
        "velocity": 0,
        "byte9": true
      },
      {
        "deltaTime": 36,
        "channel": 0,
        "type": "noteOff",
        "noteNumber": 86,
        "velocity": 0,
        "byte9": true
      },
      {
        "deltaTime": 8,
        "channel": 0,
        "type": "noteOn",
        "noteNumber": 62,
        "velocity": 59
      },
      {
        "deltaTime": 0,
        "running": true,
        "channel": 0,
        "type": "noteOn",
        "noteNumber": 74,
        "velocity": 66
      },
      {
        "deltaTime": 4,
        "channel": 0,
        "type": "noteOn",
        "noteNumber": 60,
        "velocity": 59
      },
      {
        "deltaTime": 0,
        "running": true,
        "channel": 0,
        "type": "noteOn",
        "noteNumber": 65,
        "velocity": 64
      },
      {
        "deltaTime": 4,
        "channel": 0,
        "type": "noteOn",
        "noteNumber": 79,
        "velocity": 57
      },
      {
        "deltaTime": 0,
        "running": true,
        "channel": 0,
        "type": "noteOn",
        "noteNumber": 82,
        "velocity": 57
      },
      {
        "deltaTime": 8,
        "channel": 0,
        "type": "noteOff",
        "noteNumber": 74,
        "velocity": 0,
        "byte9": true
      },
      {
        "deltaTime": 4,
        "channel": 0,
        "type": "controller",
        "controllerType": 64,
        "value": 0
      },
      {
        "deltaTime": 0,
        "channel": 0,
        "type": "noteOff",
        "noteNumber": 60,
        "velocity": 0,
        "byte9": true
      },
      {
        "deltaTime": 0,
        "running": true,
        "channel": 0,
        "type": "noteOff",
        "noteNumber": 65,
        "velocity": 0,
        "byte9": true
      },
      {
        "deltaTime": 4,
        "channel": 0,
        "type": "noteOff",
        "noteNumber": 55,
        "velocity": 0,
        "byte9": true
      },
      {
        "deltaTime": 0,
        "running": true,
        "channel": 0,
        "type": "noteOff",
        "noteNumber": 79,
        "velocity": 0,
        "byte9": true
      },
      {
        "deltaTime": 0,
        "running": true,
        "channel": 0,
        "type": "noteOff",
        "noteNumber": 82,
        "velocity": 0,
        "byte9": true
      },
      {
        "deltaTime": 8,
        "channel": 0,
        "type": "noteOff",
        "noteNumber": 62,
        "velocity": 0,
        "byte9": true
      },
      {
        "deltaTime": 72,
        "channel": 0,
        "type": "controller",
        "controllerType": 64,
        "value": 127
      },
      {
        "deltaTime": 128,
        "channel": 0,
        "type": "controller",
        "controllerType": 64,
        "value": 0
      },
      {
        "deltaTime": 4,
        "channel": 0,
        "type": "noteOn",
        "noteNumber": 62,
        "velocity": 37
      },
      {
        "deltaTime": 20,
        "channel": 0,
        "type": "noteOff",
        "noteNumber": 62,
        "velocity": 0,
        "byte9": true
      },
      {
        "deltaTime": 40,
        "channel": 0,
        "type": "controller",
        "controllerType": 64,
        "value": 127
      },
      {
        "deltaTime": 4,
        "channel": 0,
        "type": "noteOn",
        "noteNumber": 62,
        "velocity": 70
      },
      {
        "deltaTime": 0,
        "running": true,
        "channel": 0,
        "type": "noteOn",
        "noteNumber": 94,
        "velocity": 83
      },
      {
        "deltaTime": 4,
        "channel": 0,
        "type": "noteOn",
        "noteNumber": 60,
        "velocity": 59
      },
      {
        "deltaTime": 0,
        "running": true,
        "channel": 0,
        "type": "noteOn",
        "noteNumber": 65,
        "velocity": 81
      },
      {
        "deltaTime": 0,
        "running": true,
        "channel": 0,
        "type": "noteOn",
        "noteNumber": 82,
        "velocity": 88
      },
      {
        "deltaTime": 4,
        "channel": 0,
        "type": "noteOn",
        "noteNumber": 55,
        "velocity": 73
      },
      {
        "deltaTime": 0,
        "running": true,
        "channel": 0,
        "type": "noteOn",
        "noteNumber": 87,
        "velocity": 83
      },
      {
        "deltaTime": 52,
        "channel": 0,
        "type": "noteOff",
        "noteNumber": 60,
        "velocity": 0,
        "byte9": true
      },
      {
        "deltaTime": 0,
        "running": true,
        "channel": 0,
        "type": "noteOff",
        "noteNumber": 62,
        "velocity": 0,
        "byte9": true
      },
      {
        "deltaTime": 8,
        "channel": 0,
        "type": "noteOff",
        "noteNumber": 65,
        "velocity": 0,
        "byte9": true
      },
      {
        "deltaTime": 0,
        "running": true,
        "channel": 0,
        "type": "noteOff",
        "noteNumber": 87,
        "velocity": 0,
        "byte9": true
      },
      {
        "deltaTime": 16,
        "channel": 0,
        "type": "noteOff",
        "noteNumber": 55,
        "velocity": 0,
        "byte9": true
      },
      {
        "deltaTime": 12,
        "channel": 0,
        "type": "noteOff",
        "noteNumber": 82,
        "velocity": 0,
        "byte9": true
      },
      {
        "deltaTime": 8,
        "channel": 0,
        "type": "noteOff",
        "noteNumber": 94,
        "velocity": 0,
        "byte9": true
      },
      {
        "deltaTime": 52,
        "channel": 0,
        "type": "noteOn",
        "noteNumber": 55,
        "velocity": 77
      },
      {
        "deltaTime": 0,
        "running": true,
        "channel": 0,
        "type": "noteOn",
        "noteNumber": 61,
        "velocity": 77
      },
      {
        "deltaTime": 0,
        "running": true,
        "channel": 0,
        "type": "noteOn",
        "noteNumber": 93,
        "velocity": 91
      },
      {
        "deltaTime": 4,
        "channel": 0,
        "type": "noteOn",
        "noteNumber": 66,
        "velocity": 88
      },
      {
        "deltaTime": 0,
        "running": true,
        "channel": 0,
        "type": "noteOn",
        "noteNumber": 81,
        "velocity": 90
      },
      {
        "deltaTime": 0,
        "running": true,
        "channel": 0,
        "type": "noteOn",
        "noteNumber": 88,
        "velocity": 88
      },
      {
        "deltaTime": 12,
        "channel": 0,
        "type": "controller",
        "controllerType": 64,
        "value": 0
      },
      {
        "deltaTime": 0,
        "channel": 0,
        "type": "noteOn",
        "noteNumber": 91,
        "velocity": 49
      },
      {
        "deltaTime": 16,
        "channel": 0,
        "type": "noteOff",
        "noteNumber": 91,
        "velocity": 0,
        "byte9": true
      },
      {
        "deltaTime": 40,
        "channel": 0,
        "type": "controller",
        "controllerType": 64,
        "value": 127
      },
      {
        "deltaTime": 32,
        "channel": 0,
        "type": "noteOff",
        "noteNumber": 88,
        "velocity": 0,
        "byte9": true
      },
      {
        "deltaTime": 0,
        "running": true,
        "channel": 0,
        "type": "noteOff",
        "noteNumber": 93,
        "velocity": 0,
        "byte9": true
      },
      {
        "deltaTime": 16,
        "channel": 0,
        "type": "noteOff",
        "noteNumber": 55,
        "velocity": 0,
        "byte9": true
      },
      {
        "deltaTime": 0,
        "running": true,
        "channel": 0,
        "type": "noteOff",
        "noteNumber": 81,
        "velocity": 0,
        "byte9": true
      },
      {
        "deltaTime": 12,
        "channel": 0,
        "type": "noteOff",
        "noteNumber": 66,
        "velocity": 0,
        "byte9": true
      },
      {
        "deltaTime": 16,
        "channel": 0,
        "type": "noteOff",
        "noteNumber": 61,
        "velocity": 0,
        "byte9": true
      },
      {
        "deltaTime": 32,
        "channel": 0,
        "type": "noteOn",
        "noteNumber": 76,
        "velocity": 75
      },
      {
        "deltaTime": 4,
        "channel": 0,
        "type": "noteOn",
        "noteNumber": 61,
        "velocity": 69
      },
      {
        "deltaTime": 0,
        "running": true,
        "channel": 0,
        "type": "noteOn",
        "noteNumber": 66,
        "velocity": 76
      },
      {
        "deltaTime": 0,
        "running": true,
        "channel": 0,
        "type": "noteOn",
        "noteNumber": 88,
        "velocity": 71
      },
      {
        "deltaTime": 8,
        "channel": 0,
        "type": "noteOn",
        "noteNumber": 55,
        "velocity": 71
      },
      {
        "deltaTime": 56,
        "channel": 0,
        "type": "noteOff",
        "noteNumber": 88,
        "velocity": 0,
        "byte9": true
      },
      {
        "deltaTime": 4,
        "channel": 0,
        "type": "noteOff",
        "noteNumber": 76,
        "velocity": 0,
        "byte9": true
      },
      {
        "deltaTime": 8,
        "channel": 0,
        "type": "noteOff",
        "noteNumber": 55,
        "velocity": 0,
        "byte9": true
      },
      {
        "deltaTime": 8,
        "channel": 0,
        "type": "noteOff",
        "noteNumber": 66,
        "velocity": 0,
        "byte9": true
      },
      {
        "deltaTime": 24,
        "channel": 0,
        "type": "noteOff",
        "noteNumber": 61,
        "velocity": 0,
        "byte9": true
      },
      {
        "deltaTime": 24,
        "channel": 0,
        "type": "controller",
        "controllerType": 64,
        "value": 0
      },
      {
        "deltaTime": 12,
        "channel": 0,
        "type": "noteOn",
        "noteNumber": 84,
        "velocity": 74
      },
      {
        "deltaTime": 4,
        "channel": 0,
        "type": "noteOn",
        "noteNumber": 61,
        "velocity": 50
      },
      {
        "deltaTime": 0,
        "running": true,
        "channel": 0,
        "type": "noteOn",
        "noteNumber": 66,
        "velocity": 70
      },
      {
        "deltaTime": 0,
        "running": true,
        "channel": 0,
        "type": "noteOn",
        "noteNumber": 72,
        "velocity": 60
      },
      {
        "deltaTime": 8,
        "channel": 0,
        "type": "noteOn",
        "noteNumber": 55,
        "velocity": 65
      },
      {
        "deltaTime": 32,
        "channel": 0,
        "type": "controller",
        "controllerType": 64,
        "value": 127
      },
      {
        "deltaTime": 12,
        "channel": 0,
        "type": "noteOff",
        "noteNumber": 84,
        "velocity": 0,
        "byte9": true
      },
      {
        "deltaTime": 12,
        "channel": 0,
        "type": "noteOff",
        "noteNumber": 72,
        "velocity": 0,
        "byte9": true
      },
      {
        "deltaTime": 32,
        "channel": 0,
        "type": "noteOff",
        "noteNumber": 55,
        "velocity": 0,
        "byte9": true
      },
      {
        "deltaTime": 16,
        "channel": 0,
        "type": "noteOff",
        "noteNumber": 66,
        "velocity": 0,
        "byte9": true
      },
      {
        "deltaTime": 12,
        "channel": 0,
        "type": "noteOff",
        "noteNumber": 61,
        "velocity": 0,
        "byte9": true
      },
      {
        "deltaTime": 40,
        "channel": 0,
        "type": "noteOn",
        "noteNumber": 69,
        "velocity": 68
      },
      {
        "deltaTime": 0,
        "running": true,
        "channel": 0,
        "type": "noteOn",
        "noteNumber": 81,
        "velocity": 69
      },
      {
        "deltaTime": 4,
        "channel": 0,
        "type": "noteOn",
        "noteNumber": 61,
        "velocity": 53
      },
      {
        "deltaTime": 8,
        "channel": 0,
        "type": "noteOn",
        "noteNumber": 55,
        "velocity": 57
      },
      {
        "deltaTime": 0,
        "running": true,
        "channel": 0,
        "type": "noteOn",
        "noteNumber": 64,
        "velocity": 55
      },
      {
        "deltaTime": 4,
        "channel": 0,
        "type": "noteOff",
        "noteNumber": 69,
        "velocity": 0,
        "byte9": true
      },
      {
        "deltaTime": 12,
        "channel": 0,
        "type": "controller",
        "controllerType": 64,
        "value": 0
      },
      {
        "deltaTime": 0,
        "channel": 0,
        "type": "noteOff",
        "noteNumber": 64,
        "velocity": 0,
        "byte9": true
      },
      {
        "deltaTime": 0,
        "running": true,
        "channel": 0,
        "type": "noteOff",
        "noteNumber": 81,
        "velocity": 0,
        "byte9": true
      },
      {
        "deltaTime": 4,
        "channel": 0,
        "type": "noteOff",
        "noteNumber": 55,
        "velocity": 0,
        "byte9": true
      },
      {
        "deltaTime": 16,
        "channel": 0,
        "type": "noteOff",
        "noteNumber": 61,
        "velocity": 0,
        "byte9": true
      },
      {
        "deltaTime": 200,
        "channel": 0,
        "type": "noteOn",
        "noteNumber": 61,
        "velocity": 64
      },
      {
        "deltaTime": 8,
        "channel": 0,
        "type": "noteOn",
        "noteNumber": 64,
        "velocity": 50
      },
      {
        "deltaTime": 16,
        "channel": 0,
        "type": "noteOff",
        "noteNumber": 61,
        "velocity": 0,
        "byte9": true
      },
      {
        "deltaTime": 0,
        "running": true,
        "channel": 0,
        "type": "noteOff",
        "noteNumber": 64,
        "velocity": 0,
        "byte9": true
      },
      {
        "deltaTime": 208,
        "channel": 0,
        "type": "noteOn",
        "noteNumber": 63,
        "velocity": 60
      },
      {
        "deltaTime": 4,
        "channel": 0,
        "type": "noteOn",
        "noteNumber": 54,
        "velocity": 78
      },
      {
        "deltaTime": 0,
        "running": true,
        "channel": 0,
        "type": "noteOn",
        "noteNumber": 59,
        "velocity": 76
      },
      {
        "deltaTime": 508,
        "channel": 0,
        "type": "noteOff",
        "noteNumber": 54,
        "velocity": 0,
        "byte9": true
      },
      {
        "deltaTime": 0,
        "running": true,
        "channel": 0,
        "type": "noteOff",
        "noteNumber": 59,
        "velocity": 0,
        "byte9": true
      },
      {
        "deltaTime": 36,
        "channel": 0,
        "type": "noteOn",
        "noteNumber": 53,
        "velocity": 64
      },
      {
        "deltaTime": 4,
        "channel": 0,
        "type": "noteOn",
        "noteNumber": 59,
        "velocity": 46
      },
      {
        "deltaTime": 416,
        "channel": 0,
        "type": "noteOff",
        "noteNumber": 53,
        "velocity": 0,
        "byte9": true
      },
      {
        "deltaTime": 16,
        "channel": 0,
        "type": "noteOff",
        "noteNumber": 59,
        "velocity": 0,
        "byte9": true
      },
      {
        "deltaTime": 16,
        "channel": 0,
        "type": "noteOff",
        "noteNumber": 63,
        "velocity": 0,
        "byte9": true
      },
      {
        "deltaTime": 32,
        "channel": 0,
        "type": "noteOn",
        "noteNumber": 49,
        "velocity": 38
      },
      {
        "deltaTime": 0,
        "running": true,
        "channel": 0,
        "type": "noteOn",
        "noteNumber": 53,
        "velocity": 53
      },
      {
        "deltaTime": 0,
        "running": true,
        "channel": 0,
        "type": "noteOn",
        "noteNumber": 58,
        "velocity": 44
      },
      {
        "deltaTime": 4,
        "channel": 0,
        "type": "noteOn",
        "noteNumber": 61,
        "velocity": 45
      },
      {
        "deltaTime": 136,
        "channel": 0,
        "type": "noteOff",
        "noteNumber": 49,
        "velocity": 0,
        "byte9": true
      },
      {
        "deltaTime": 24,
        "channel": 0,
        "type": "noteOn",
        "noteNumber": 46,
        "velocity": 33
      },
      {
        "deltaTime": 16,
        "channel": 0,
        "type": "noteOff",
        "noteNumber": 53,
        "velocity": 0,
        "byte9": true
      },
      {
        "deltaTime": 4,
        "channel": 0,
        "type": "noteOff",
        "noteNumber": 58,
        "velocity": 0,
        "byte9": true
      },
      {
        "deltaTime": 20,
        "channel": 0,
        "type": "noteOn",
        "noteNumber": 49,
        "velocity": 47
      },
      {
        "deltaTime": 8,
        "channel": 0,
        "type": "noteOff",
        "noteNumber": 61,
        "velocity": 0,
        "byte9": true
      },
      {
        "deltaTime": 16,
        "channel": 0,
        "type": "noteOff",
        "noteNumber": 46,
        "velocity": 0,
        "byte9": true
      },
      {
        "deltaTime": 16,
        "channel": 0,
        "type": "noteOn",
        "noteNumber": 58,
        "velocity": 69
      },
      {
        "deltaTime": 0,
        "running": true,
        "channel": 0,
        "type": "noteOn",
        "noteNumber": 63,
        "velocity": 67
      },
      {
        "deltaTime": 4,
        "channel": 0,
        "type": "noteOn",
        "noteNumber": 51,
        "velocity": 48
      },
      {
        "deltaTime": 0,
        "running": true,
        "channel": 0,
        "type": "noteOn",
        "noteNumber": 53,
        "velocity": 63
      },
      {
        "deltaTime": 28,
        "channel": 0,
        "type": "noteOff",
        "noteNumber": 49,
        "velocity": 0,
        "byte9": true
      },
      {
        "deltaTime": 136,
        "channel": 0,
        "type": "noteOff",
        "noteNumber": 53,
        "velocity": 0,
        "byte9": true
      },
      {
        "deltaTime": 4,
        "channel": 0,
        "type": "noteOff",
        "noteNumber": 51,
        "velocity": 0,
        "byte9": true
      },
      {
        "deltaTime": 0,
        "running": true,
        "channel": 0,
        "type": "noteOff",
        "noteNumber": 58,
        "velocity": 0,
        "byte9": true
      },
      {
        "deltaTime": 4,
        "channel": 0,
        "type": "noteOn",
        "noteNumber": 46,
        "velocity": 37
      },
      {
        "deltaTime": 16,
        "channel": 0,
        "type": "noteOff",
        "noteNumber": 63,
        "velocity": 0,
        "byte9": true
      },
      {
        "deltaTime": 52,
        "channel": 0,
        "type": "noteOff",
        "noteNumber": 46,
        "velocity": 0,
        "byte9": true
      },
      {
        "deltaTime": 0,
        "running": true,
        "channel": 0,
        "type": "noteOn",
        "noteNumber": 48,
        "velocity": 61
      },
      {
        "deltaTime": 0,
        "running": true,
        "channel": 0,
        "type": "noteOn",
        "noteNumber": 56,
        "velocity": 54
      },
      {
        "deltaTime": 4,
        "channel": 0,
        "type": "noteOn",
        "noteNumber": 52,
        "velocity": 60
      },
      {
        "deltaTime": 0,
        "running": true,
        "channel": 0,
        "type": "noteOn",
        "noteNumber": 60,
        "velocity": 57
      },
      {
        "deltaTime": 8,
        "channel": 0,
        "type": "noteOn",
        "noteNumber": 63,
        "velocity": 43
      },
      {
        "deltaTime": 8,
        "channel": 0,
        "type": "controller",
        "controllerType": 64,
        "value": 127
      },
      {
        "deltaTime": 4,
        "channel": 0,
        "type": "noteOff",
        "noteNumber": 52,
        "velocity": 0,
        "byte9": true
      },
      {
        "deltaTime": 16,
        "channel": 0,
        "type": "noteOff",
        "noteNumber": 48,
        "velocity": 0,
        "byte9": true
      },
      {
        "deltaTime": 8,
        "channel": 0,
        "type": "noteOff",
        "noteNumber": 56,
        "velocity": 0,
        "byte9": true
      },
      {
        "deltaTime": 8,
        "channel": 0,
        "type": "noteOff",
        "noteNumber": 60,
        "velocity": 0,
        "byte9": true
      },
      {
        "deltaTime": 20,
        "channel": 0,
        "type": "noteOff",
        "noteNumber": 63,
        "velocity": 0,
        "byte9": true
      },
      {
        "deltaTime": 108,
        "channel": 0,
        "type": "noteOn",
        "noteNumber": 64,
        "velocity": 77
      },
      {
        "deltaTime": 0,
        "running": true,
        "channel": 0,
        "type": "noteOn",
        "noteNumber": 74,
        "velocity": 80
      },
      {
        "deltaTime": 4,
        "channel": 0,
        "type": "noteOn",
        "noteNumber": 63,
        "velocity": 85
      },
      {
        "deltaTime": 0,
        "running": true,
        "channel": 0,
        "type": "noteOn",
        "noteNumber": 73,
        "velocity": 57
      },
      {
        "deltaTime": 20,
        "channel": 0,
        "type": "controller",
        "controllerType": 64,
        "value": 0
      },
      {
        "deltaTime": 0,
        "channel": 0,
        "type": "noteOn",
        "noteNumber": 71,
        "velocity": 20
      },
      {
        "deltaTime": 20,
        "channel": 0,
        "type": "noteOff",
        "noteNumber": 71,
        "velocity": 0,
        "byte9": true
      },
      {
        "deltaTime": 24,
        "channel": 0,
        "type": "noteOff",
        "noteNumber": 74,
        "velocity": 0,
        "byte9": true
      },
      {
        "deltaTime": 24,
        "channel": 0,
        "type": "noteOff",
        "noteNumber": 73,
        "velocity": 0,
        "byte9": true
      },
      {
        "deltaTime": 8,
        "channel": 0,
        "type": "controller",
        "controllerType": 64,
        "value": 127
      },
      {
        "deltaTime": 20,
        "channel": 0,
        "type": "noteOff",
        "noteNumber": 64,
        "velocity": 0,
        "byte9": true
      },
      {
        "deltaTime": 28,
        "channel": 0,
        "type": "noteOn",
        "noteNumber": 68,
        "velocity": 67
      },
      {
        "deltaTime": 0,
        "running": true,
        "channel": 0,
        "type": "noteOn",
        "noteNumber": 75,
        "velocity": 62
      },
      {
        "deltaTime": 4,
        "channel": 0,
        "type": "noteOn",
        "noteNumber": 61,
        "velocity": 69
      },
      {
        "deltaTime": 0,
        "running": true,
        "channel": 0,
        "type": "noteOn",
        "noteNumber": 64,
        "velocity": 64
      },
      {
        "deltaTime": 4,
        "channel": 0,
        "type": "noteOn",
        "noteNumber": 73,
        "velocity": 61
      },
      {
        "deltaTime": 4,
        "channel": 0,
        "type": "noteOff",
        "noteNumber": 63,
        "velocity": 0,
        "byte9": true
      },
      {
        "deltaTime": 48,
        "channel": 0,
        "type": "noteOff",
        "noteNumber": 75,
        "velocity": 0,
        "byte9": true
      },
      {
        "deltaTime": 4,
        "channel": 0,
        "type": "noteOff",
        "noteNumber": 64,
        "velocity": 0,
        "byte9": true
      },
      {
        "deltaTime": 40,
        "channel": 0,
        "type": "noteOff",
        "noteNumber": 61,
        "velocity": 0,
        "byte9": true
      },
      {
        "deltaTime": 4,
        "channel": 0,
        "type": "noteOff",
        "noteNumber": 68,
        "velocity": 0,
        "byte9": true
      },
      {
        "deltaTime": 0,
        "running": true,
        "channel": 0,
        "type": "noteOff",
        "noteNumber": 73,
        "velocity": 0,
        "byte9": true
      },
      {
        "deltaTime": 40,
        "channel": 0,
        "type": "noteOn",
        "noteNumber": 68,
        "velocity": 40
      },
      {
        "deltaTime": 4,
        "channel": 0,
        "type": "noteOn",
        "noteNumber": 60,
        "velocity": 50
      },
      {
        "deltaTime": 0,
        "running": true,
        "channel": 0,
        "type": "noteOn",
        "noteNumber": 65,
        "velocity": 55
      },
      {
        "deltaTime": 0,
        "running": true,
        "channel": 0,
        "type": "noteOn",
        "noteNumber": 72,
        "velocity": 64
      },
      {
        "deltaTime": 4,
        "channel": 0,
        "type": "controller",
        "controllerType": 64,
        "value": 0
      },
      {
        "deltaTime": 0,
        "channel": 0,
        "type": "noteOn",
        "noteNumber": 56,
        "velocity": 36
      },
      {
        "deltaTime": 4,
        "channel": 0,
        "type": "noteOn",
        "noteNumber": 64,
        "velocity": 57
      },
      {
        "deltaTime": 8,
        "channel": 0,
        "type": "noteOn",
        "noteNumber": 53,
        "velocity": 40
      },
      {
        "deltaTime": 204,
        "channel": 0,
        "type": "noteOff",
        "noteNumber": 65,
        "velocity": 0,
        "byte9": true
      },
      {
        "deltaTime": 4,
        "channel": 0,
        "type": "controller",
        "controllerType": 64,
        "value": 127
      },
      {
        "deltaTime": 20,
        "channel": 0,
        "type": "noteOff",
        "noteNumber": 68,
        "velocity": 0,
        "byte9": true
      },
      {
        "deltaTime": 8,
        "channel": 0,
        "type": "noteOff",
        "noteNumber": 72,
        "velocity": 0,
        "byte9": true
      },
      {
        "deltaTime": 32,
        "channel": 0,
        "type": "noteOff",
        "noteNumber": 60,
        "velocity": 0,
        "byte9": true
      },
      {
        "deltaTime": 40,
        "channel": 0,
        "type": "noteOff",
        "noteNumber": 64,
        "velocity": 0,
        "byte9": true
      },
      {
        "deltaTime": 104,
        "channel": 0,
        "type": "noteOn",
        "noteNumber": 60,
        "velocity": 42
      },
      {
        "deltaTime": 28,
        "channel": 0,
        "type": "controller",
        "controllerType": 64,
        "value": 0
      },
      {
        "deltaTime": 0,
        "channel": 0,
        "type": "noteOff",
        "noteNumber": 60,
        "velocity": 0,
        "byte9": true
      },
      {
        "deltaTime": 20,
        "channel": 0,
        "type": "noteOn",
        "noteNumber": 79,
        "velocity": 73
      },
      {
        "deltaTime": 4,
        "channel": 0,
        "type": "noteOn",
        "noteNumber": 64,
        "velocity": 62
      },
      {
        "deltaTime": 4,
        "channel": 0,
        "type": "noteOn",
        "noteNumber": 68,
        "velocity": 71
      },
      {
        "deltaTime": 0,
        "running": true,
        "channel": 0,
        "type": "noteOn",
        "noteNumber": 72,
        "velocity": 65
      },
      {
        "deltaTime": 120,
        "channel": 0,
        "type": "noteOff",
        "noteNumber": 68,
        "velocity": 0,
        "byte9": true
      },
      {
        "deltaTime": 4,
        "channel": 0,
        "type": "noteOff",
        "noteNumber": 79,
        "velocity": 0,
        "byte9": true
      },
      {
        "deltaTime": 4,
        "channel": 0,
        "type": "noteOff",
        "noteNumber": 72,
        "velocity": 0,
        "byte9": true
      },
      {
        "deltaTime": 36,
        "channel": 0,
        "type": "noteOn",
        "noteNumber": 60,
        "velocity": 58
      },
      {
        "deltaTime": 0,
        "running": true,
        "channel": 0,
        "type": "noteOff",
        "noteNumber": 64,
        "velocity": 0,
        "byte9": true
      },
      {
        "deltaTime": 0,
        "running": true,
        "channel": 0,
        "type": "noteOn",
        "noteNumber": 68,
        "velocity": 25
      },
      {
        "deltaTime": 0,
        "running": true,
        "channel": 0,
        "type": "noteOn",
        "noteNumber": 77,
        "velocity": 63
      },
      {
        "deltaTime": 16,
        "channel": 0,
        "type": "noteOff",
        "noteNumber": 60,
        "velocity": 0,
        "byte9": true
      },
      {
        "deltaTime": 0,
        "running": true,
        "channel": 0,
        "type": "noteOff",
        "noteNumber": 68,
        "velocity": 0,
        "byte9": true
      },
      {
        "deltaTime": 4,
        "channel": 0,
        "type": "noteOff",
        "noteNumber": 77,
        "velocity": 0,
        "byte9": true
      },
      {
        "deltaTime": 8,
        "channel": 0,
        "type": "noteOff",
        "noteNumber": 53,
        "velocity": 0,
        "byte9": true
      },
      {
        "deltaTime": 12,
        "channel": 0,
        "type": "noteOff",
        "noteNumber": 56,
        "velocity": 0,
        "byte9": true
      },
      {
        "deltaTime": 196,
        "channel": 0,
        "type": "noteOn",
        "noteNumber": 85,
        "velocity": 69
      },
      {
        "deltaTime": 4,
        "channel": 0,
        "type": "noteOn",
        "noteNumber": 58,
        "velocity": 69
      },
      {
        "deltaTime": 0,
        "running": true,
        "channel": 0,
        "type": "noteOn",
        "noteNumber": 63,
        "velocity": 67
      },
      {
        "deltaTime": 0,
        "running": true,
        "channel": 0,
        "type": "noteOn",
        "noteNumber": 73,
        "velocity": 62
      },
      {
        "deltaTime": 4,
        "channel": 0,
        "type": "noteOn",
        "noteNumber": 80,
        "velocity": 43
      },
      {
        "deltaTime": 8,
        "channel": 0,
        "type": "noteOff",
        "noteNumber": 73,
        "velocity": 0,
        "byte9": true
      },
      {
        "deltaTime": 4,
        "channel": 0,
        "type": "noteOff",
        "noteNumber": 63,
        "velocity": 0,
        "byte9": true
      },
      {
        "deltaTime": 0,
        "running": true,
        "channel": 0,
        "type": "noteOff",
        "noteNumber": 80,
        "velocity": 0,
        "byte9": true
      },
      {
        "deltaTime": 8,
        "channel": 0,
        "type": "noteOff",
        "noteNumber": 85,
        "velocity": 0,
        "byte9": true
      },
      {
        "deltaTime": 4,
        "channel": 0,
        "type": "noteOff",
        "noteNumber": 58,
        "velocity": 0,
        "byte9": true
      },
      {
        "deltaTime": 208,
        "channel": 0,
        "type": "noteOn",
        "noteNumber": 58,
        "velocity": 74
      },
      {
        "deltaTime": 0,
        "running": true,
        "channel": 0,
        "type": "noteOn",
        "noteNumber": 82,
        "velocity": 83
      },
      {
        "deltaTime": 4,
        "channel": 0,
        "type": "noteOn",
        "noteNumber": 52,
        "velocity": 80
      },
      {
        "deltaTime": 0,
        "running": true,
        "channel": 0,
        "type": "noteOn",
        "noteNumber": 63,
        "velocity": 82
      },
      {
        "deltaTime": 0,
        "running": true,
        "channel": 0,
        "type": "noteOn",
        "noteNumber": 87,
        "velocity": 56
      },
      {
        "deltaTime": 4,
        "channel": 0,
        "type": "noteOn",
        "noteNumber": 75,
        "velocity": 45
      },
      {
        "deltaTime": 4,
        "channel": 0,
        "type": "noteOn",
        "noteNumber": 88,
        "velocity": 72
      },
      {
        "deltaTime": 8,
        "channel": 0,
        "type": "noteOff",
        "noteNumber": 75,
        "velocity": 0,
        "byte9": true
      },
      {
        "deltaTime": 8,
        "channel": 0,
        "type": "noteOff",
        "noteNumber": 88,
        "velocity": 0,
        "byte9": true
      },
      {
        "deltaTime": 16,
        "channel": 0,
        "type": "noteOn",
        "noteNumber": 88,
        "velocity": 24
      },
      {
        "deltaTime": 20,
        "channel": 0,
        "type": "noteOff",
        "noteNumber": 88,
        "velocity": 0,
        "byte9": true
      },
      {
        "deltaTime": 36,
        "channel": 0,
        "type": "controller",
        "controllerType": 64,
        "value": 127
      },
      {
        "deltaTime": 104,
        "channel": 0,
        "type": "noteOff",
        "noteNumber": 87,
        "velocity": 0,
        "byte9": true
      },
      {
        "deltaTime": 8,
        "channel": 0,
        "type": "noteOff",
        "noteNumber": 82,
        "velocity": 0,
        "byte9": true
      },
      {
        "deltaTime": 28,
        "channel": 0,
        "type": "noteOff",
        "noteNumber": 52,
        "velocity": 0,
        "byte9": true
      },
      {
        "deltaTime": 8,
        "channel": 0,
        "type": "noteOff",
        "noteNumber": 63,
        "velocity": 0,
        "byte9": true
      },
      {
        "deltaTime": 16,
        "channel": 0,
        "type": "noteOff",
        "noteNumber": 58,
        "velocity": 0,
        "byte9": true
      },
      {
        "deltaTime": 44,
        "channel": 0,
        "type": "controller",
        "controllerType": 64,
        "value": 0
      },
      {
        "deltaTime": 12,
        "channel": 0,
        "type": "noteOn",
        "noteNumber": 63,
        "velocity": 55
      },
      {
        "deltaTime": 8,
        "channel": 0,
        "type": "noteOn",
        "noteNumber": 52,
        "velocity": 43
      },
      {
        "deltaTime": 0,
        "running": true,
        "channel": 0,
        "type": "noteOn",
        "noteNumber": 58,
        "velocity": 46
      },
      {
        "deltaTime": 0,
        "running": true,
        "channel": 0,
        "type": "noteOn",
        "noteNumber": 80,
        "velocity": 47
      },
      {
        "deltaTime": 0,
        "running": true,
        "channel": 0,
        "type": "noteOn",
        "noteNumber": 84,
        "velocity": 63
      },
      {
        "deltaTime": 8,
        "channel": 0,
        "type": "noteOn",
        "noteNumber": 72,
        "velocity": 27
      },
      {
        "deltaTime": 12,
        "channel": 0,
        "type": "noteOff",
        "noteNumber": 52,
        "velocity": 0,
        "byte9": true
      },
      {
        "deltaTime": 0,
        "running": true,
        "channel": 0,
        "type": "noteOff",
        "noteNumber": 84,
        "velocity": 0,
        "byte9": true
      },
      {
        "deltaTime": 4,
        "channel": 0,
        "type": "noteOff",
        "noteNumber": 63,
        "velocity": 0,
        "byte9": true
      },
      {
        "deltaTime": 0,
        "running": true,
        "channel": 0,
        "type": "noteOff",
        "noteNumber": 72,
        "velocity": 0,
        "byte9": true
      },
      {
        "deltaTime": 20,
        "channel": 0,
        "type": "noteOff",
        "noteNumber": 80,
        "velocity": 0,
        "byte9": true
      },
      {
        "deltaTime": 4,
        "channel": 0,
        "type": "noteOff",
        "noteNumber": 58,
        "velocity": 0,
        "byte9": true
      },
      {
        "deltaTime": 176,
        "channel": 0,
        "type": "noteOn",
        "noteNumber": 82,
        "velocity": 57
      },
      {
        "deltaTime": 4,
        "channel": 0,
        "type": "noteOn",
        "noteNumber": 52,
        "velocity": 51
      },
      {
        "deltaTime": 0,
        "running": true,
        "channel": 0,
        "type": "noteOn",
        "noteNumber": 58,
        "velocity": 47
      },
      {
        "deltaTime": 0,
        "running": true,
        "channel": 0,
        "type": "noteOn",
        "noteNumber": 63,
        "velocity": 50
      },
      {
        "deltaTime": 4,
        "channel": 0,
        "type": "noteOn",
        "noteNumber": 70,
        "velocity": 58
      },
      {
        "deltaTime": 4,
        "channel": 0,
        "type": "noteOn",
        "noteNumber": 75,
        "velocity": 53
      },
      {
        "deltaTime": 12,
        "channel": 0,
        "type": "noteOff",
        "noteNumber": 52,
        "velocity": 0,
        "byte9": true
      },
      {
        "deltaTime": 0,
        "running": true,
        "channel": 0,
        "type": "noteOff",
        "noteNumber": 75,
        "velocity": 0,
        "byte9": true
      },
      {
        "deltaTime": 0,
        "running": true,
        "channel": 0,
        "type": "noteOn",
        "noteNumber": 79,
        "velocity": 24
      },
      {
        "deltaTime": 4,
        "channel": 0,
        "type": "noteOff",
        "noteNumber": 70,
        "velocity": 0,
        "byte9": true
      },
      {
        "deltaTime": 12,
        "channel": 0,
        "type": "noteOff",
        "noteNumber": 79,
        "velocity": 0,
        "byte9": true
      },
      {
        "deltaTime": 4,
        "channel": 0,
        "type": "noteOff",
        "noteNumber": 63,
        "velocity": 0,
        "byte9": true
      },
      {
        "deltaTime": 16,
        "channel": 0,
        "type": "noteOff",
        "noteNumber": 82,
        "velocity": 0,
        "byte9": true
      },
      {
        "deltaTime": 12,
        "channel": 0,
        "type": "noteOff",
        "noteNumber": 58,
        "velocity": 0,
        "byte9": true
      },
      {
        "deltaTime": 164,
        "channel": 0,
        "type": "noteOn",
        "noteNumber": 63,
        "velocity": 53
      },
      {
        "deltaTime": 0,
        "running": true,
        "channel": 0,
        "type": "noteOn",
        "noteNumber": 80,
        "velocity": 53
      },
      {
        "deltaTime": 4,
        "channel": 0,
        "type": "noteOn",
        "noteNumber": 59,
        "velocity": 57
      },
      {
        "deltaTime": 4,
        "channel": 0,
        "type": "noteOn",
        "noteNumber": 56,
        "velocity": 36
      },
      {
        "deltaTime": 0,
        "running": true,
        "channel": 0,
        "type": "noteOn",
        "noteNumber": 75,
        "velocity": 55
      },
      {
        "deltaTime": 4,
        "channel": 0,
        "type": "noteOn",
        "noteNumber": 53,
        "velocity": 38
      },
      {
        "deltaTime": 0,
        "running": true,
        "channel": 0,
        "type": "noteOn",
        "noteNumber": 68,
        "velocity": 43
      },
      {
        "deltaTime": 60,
        "channel": 0,
        "type": "controller",
        "controllerType": 64,
        "value": 127
      },
      {
        "deltaTime": 132,
        "channel": 0,
        "type": "noteOff",
        "noteNumber": 80,
        "velocity": 0,
        "byte9": true
      },
      {
        "deltaTime": 16,
        "channel": 0,
        "type": "noteOff",
        "noteNumber": 75,
        "velocity": 0,
        "byte9": true
      },
      {
        "deltaTime": 4,
        "channel": 0,
        "type": "noteOff",
        "noteNumber": 59,
        "velocity": 0,
        "byte9": true
      },
      {
        "deltaTime": 0,
        "running": true,
        "channel": 0,
        "type": "noteOff",
        "noteNumber": 63,
        "velocity": 0,
        "byte9": true
      },
      {
        "deltaTime": 4,
        "channel": 0,
        "type": "noteOff",
        "noteNumber": 68,
        "velocity": 0,
        "byte9": true
      },
      {
        "deltaTime": 60,
        "channel": 0,
        "type": "noteOff",
        "noteNumber": 56,
        "velocity": 0,
        "byte9": true
      },
      {
        "deltaTime": 104,
        "channel": 0,
        "type": "noteOff",
        "noteNumber": 53,
        "velocity": 0,
        "byte9": true
      },
      {
        "deltaTime": 20,
        "channel": 0,
        "type": "noteOn",
        "noteNumber": 56,
        "velocity": 42
      },
      {
        "deltaTime": 32,
        "channel": 0,
        "type": "noteOn",
        "noteNumber": 57,
        "velocity": 45
      },
      {
        "deltaTime": 24,
        "channel": 0,
        "type": "controller",
        "controllerType": 64,
        "value": 0
      },
      {
        "deltaTime": 0,
        "channel": 0,
        "type": "noteOff",
        "noteNumber": 56,
        "velocity": 0,
        "byte9": true
      },
      {
        "deltaTime": 4,
        "channel": 0,
        "type": "noteOn",
        "noteNumber": 63,
        "velocity": 67
      },
      {
        "deltaTime": 4,
        "channel": 0,
        "type": "noteOn",
        "noteNumber": 59,
        "velocity": 71
      },
      {
        "deltaTime": 0,
        "running": true,
        "channel": 0,
        "type": "noteOn",
        "noteNumber": 70,
        "velocity": 71
      },
      {
        "deltaTime": 4,
        "channel": 0,
        "type": "noteOn",
        "noteNumber": 58,
        "velocity": 67
      },
      {
        "deltaTime": 0,
        "running": true,
        "channel": 0,
        "type": "noteOn",
        "noteNumber": 65,
        "velocity": 57
      },
      {
        "deltaTime": 4,
        "channel": 0,
        "type": "noteOff",
        "noteNumber": 57,
        "velocity": 0,
        "byte9": true
      },
      {
        "deltaTime": 48,
        "channel": 0,
        "type": "noteOff",
        "noteNumber": 59,
        "velocity": 0,
        "byte9": true
      },
      {
        "deltaTime": 20,
        "channel": 0,
        "type": "noteOff",
        "noteNumber": 63,
        "velocity": 0,
        "byte9": true
      },
      {
        "deltaTime": 0,
        "running": true,
        "channel": 0,
        "type": "noteOff",
        "noteNumber": 65,
        "velocity": 0,
        "byte9": true
      },
      {
        "deltaTime": 8,
        "channel": 0,
        "type": "noteOn",
        "noteNumber": 56,
        "velocity": 47
      },
      {
        "deltaTime": 0,
        "running": true,
        "channel": 0,
        "type": "noteOff",
        "noteNumber": 58,
        "velocity": 0,
        "byte9": true
      },
      {
        "deltaTime": 4,
        "channel": 0,
        "type": "noteOff",
        "noteNumber": 70,
        "velocity": 0,
        "byte9": true
      },
      {
        "deltaTime": 52,
        "channel": 0,
        "type": "noteOn",
        "noteNumber": 57,
        "velocity": 20
      },
      {
        "deltaTime": 16,
        "channel": 0,
        "type": "noteOff",
        "noteNumber": 56,
        "velocity": 0,
        "byte9": true
      },
      {
        "deltaTime": 4,
        "channel": 0,
        "type": "noteOff",
        "noteNumber": 57,
        "velocity": 0,
        "byte9": true
      },
      {
        "deltaTime": 8,
        "channel": 0,
        "type": "noteOn",
        "noteNumber": 58,
        "velocity": 77
      },
      {
        "deltaTime": 0,
        "running": true,
        "channel": 0,
        "type": "noteOn",
        "noteNumber": 63,
        "velocity": 75
      },
      {
        "deltaTime": 8,
        "channel": 0,
        "type": "noteOn",
        "noteNumber": 59,
        "velocity": 81
      },
      {
        "deltaTime": 0,
        "running": true,
        "channel": 0,
        "type": "noteOn",
        "noteNumber": 65,
        "velocity": 66
      },
      {
        "deltaTime": 0,
        "running": true,
        "channel": 0,
        "type": "noteOn",
        "noteNumber": 70,
        "velocity": 75
      },
      {
        "deltaTime": 88,
        "channel": 0,
        "type": "controller",
        "controllerType": 64,
        "value": 127
      },
      {
        "deltaTime": 128,
        "channel": 0,
        "type": "noteOff",
        "noteNumber": 65,
        "velocity": 0,
        "byte9": true
      },
      {
        "deltaTime": 0,
        "running": true,
        "channel": 0,
        "type": "noteOff",
        "noteNumber": 70,
        "velocity": 0,
        "byte9": true
      },
      {
        "deltaTime": 4,
        "channel": 0,
        "type": "noteOff",
        "noteNumber": 58,
        "velocity": 0,
        "byte9": true
      },
      {
        "deltaTime": 20,
        "channel": 0,
        "type": "noteOff",
        "noteNumber": 63,
        "velocity": 0,
        "byte9": true
      },
      {
        "deltaTime": 12,
        "channel": 0,
        "type": "noteOff",
        "noteNumber": 59,
        "velocity": 0,
        "byte9": true
      },
      {
        "deltaTime": 88,
        "channel": 0,
        "type": "noteOn",
        "noteNumber": 56,
        "velocity": 49
      },
      {
        "deltaTime": 0,
        "running": true,
        "channel": 0,
        "type": "noteOn",
        "noteNumber": 63,
        "velocity": 33
      },
      {
        "deltaTime": 4,
        "channel": 0,
        "type": "controller",
        "controllerType": 64,
        "value": 0
      },
      {
        "deltaTime": 0,
        "channel": 0,
        "type": "noteOn",
        "noteNumber": 60,
        "velocity": 57
      },
      {
        "deltaTime": 0,
        "running": true,
        "channel": 0,
        "type": "noteOn",
        "noteNumber": 67,
        "velocity": 41
      },
      {
        "deltaTime": 4,
        "channel": 0,
        "type": "noteOn",
        "noteNumber": 46,
        "velocity": 60
      },
      {
        "deltaTime": 16,
        "channel": 0,
        "type": "noteOff",
        "noteNumber": 56,
        "velocity": 0,
        "byte9": true
      },
      {
        "deltaTime": 4,
        "channel": 0,
        "type": "noteOff",
        "noteNumber": 67,
        "velocity": 0,
        "byte9": true
      },
      {
        "deltaTime": 12,
        "channel": 0,
        "type": "noteOff",
        "noteNumber": 60,
        "velocity": 0,
        "byte9": true
      },
      {
        "deltaTime": 20,
        "channel": 0,
        "type": "noteOff",
        "noteNumber": 63,
        "velocity": 0,
        "byte9": true
      },
      {
        "deltaTime": 96,
        "channel": 0,
        "type": "noteOn",
        "noteNumber": 67,
        "velocity": 70
      },
      {
        "deltaTime": 4,
        "channel": 0,
        "type": "noteOn",
        "noteNumber": 60,
        "velocity": 76
      },
      {
        "deltaTime": 0,
        "running": true,
        "channel": 0,
        "type": "noteOn",
        "noteNumber": 63,
        "velocity": 69
      },
      {
        "deltaTime": 4,
        "channel": 0,
        "type": "noteOn",
        "noteNumber": 58,
        "velocity": 68
      },
      {
        "deltaTime": 96,
        "channel": 0,
        "type": "controller",
        "controllerType": 64,
        "value": 127
      },
      {
        "deltaTime": 76,
        "channel": 0,
        "type": "noteOff",
        "noteNumber": 60,
        "velocity": 0,
        "byte9": true
      },
      {
        "deltaTime": 44,
        "channel": 0,
        "type": "noteOff",
        "noteNumber": 58,
        "velocity": 0,
        "byte9": true
      },
      {
        "deltaTime": 12,
        "channel": 0,
        "type": "noteOff",
        "noteNumber": 67,
        "velocity": 0,
        "byte9": true
      },
      {
        "deltaTime": 12,
        "channel": 0,
        "type": "noteOn",
        "noteNumber": 53,
        "velocity": 40
      },
      {
        "deltaTime": 24,
        "channel": 0,
        "type": "noteOff",
        "noteNumber": 53,
        "velocity": 0,
        "byte9": true
      },
      {
        "deltaTime": 0,
        "running": true,
        "channel": 0,
        "type": "noteOff",
        "noteNumber": 63,
        "velocity": 0,
        "byte9": true
      },
      {
        "deltaTime": 32,
        "channel": 0,
        "type": "controller",
        "controllerType": 64,
        "value": 0
      },
      {
        "deltaTime": 4,
        "channel": 0,
        "type": "noteOn",
        "noteNumber": 56,
        "velocity": 49
      },
      {
        "deltaTime": 0,
        "running": true,
        "channel": 0,
        "type": "noteOn",
        "noteNumber": 62,
        "velocity": 44
      },
      {
        "deltaTime": 8,
        "channel": 0,
        "type": "noteOn",
        "noteNumber": 59,
        "velocity": 29
      },
      {
        "deltaTime": 16,
        "channel": 0,
        "type": "noteOff",
        "noteNumber": 59,
        "velocity": 0,
        "byte9": true
      },
      {
        "deltaTime": 12,
        "channel": 0,
        "type": "noteOff",
        "noteNumber": 62,
        "velocity": 0,
        "byte9": true
      },
      {
        "deltaTime": 12,
        "channel": 0,
        "type": "noteOff",
        "noteNumber": 56,
        "velocity": 0,
        "byte9": true
      },
      {
        "deltaTime": 56,
        "channel": 0,
        "type": "noteOn",
        "noteNumber": 53,
        "velocity": 24
      },
      {
        "deltaTime": 24,
        "channel": 0,
        "type": "noteOff",
        "noteNumber": 53,
        "velocity": 0,
        "byte9": true
      },
      {
        "deltaTime": 16,
        "channel": 0,
        "type": "noteOn",
        "noteNumber": 62,
        "velocity": 74
      },
      {
        "deltaTime": 4,
        "channel": 0,
        "type": "noteOn",
        "noteNumber": 59,
        "velocity": 72
      },
      {
        "deltaTime": 4,
        "channel": 0,
        "type": "noteOn",
        "noteNumber": 56,
        "velocity": 62
      },
      {
        "deltaTime": 96,
        "channel": 0,
        "type": "controller",
        "controllerType": 64,
        "value": 127
      },
      {
        "deltaTime": 64,
        "channel": 0,
        "type": "noteOff",
        "noteNumber": 62,
        "velocity": 0,
        "byte9": true
      },
      {
        "deltaTime": 44,
        "channel": 0,
        "type": "noteOff",
        "noteNumber": 59,
        "velocity": 0,
        "byte9": true
      },
      {
        "deltaTime": 44,
        "channel": 0,
        "type": "noteOff",
        "noteNumber": 56,
        "velocity": 0,
        "byte9": true
      },
      {
        "deltaTime": 4,
        "channel": 0,
        "type": "noteOff",
        "noteNumber": 46,
        "velocity": 0,
        "byte9": true
      },
      {
        "deltaTime": 4,
        "channel": 0,
        "type": "noteOn",
        "noteNumber": 51,
        "velocity": 32
      },
      {
        "deltaTime": 4,
        "channel": 0,
        "type": "noteOn",
        "noteNumber": 54,
        "velocity": 43
      },
      {
        "deltaTime": 48,
        "channel": 0,
        "type": "controller",
        "controllerType": 64,
        "value": 0
      },
      {
        "deltaTime": 4,
        "channel": 0,
        "type": "noteOn",
        "noteNumber": 70,
        "velocity": 71
      },
      {
        "deltaTime": 4,
        "channel": 0,
        "type": "noteOff",
        "noteNumber": 51,
        "velocity": 0,
        "byte9": true
      },
      {
        "deltaTime": 4,
        "channel": 0,
        "type": "noteOff",
        "noteNumber": 54,
        "velocity": 0,
        "byte9": true
      },
      {
        "deltaTime": 0,
        "running": true,
        "channel": 0,
        "type": "noteOn",
        "noteNumber": 55,
        "velocity": 65
      },
      {
        "deltaTime": 0,
        "running": true,
        "channel": 0,
        "type": "noteOn",
        "noteNumber": 60,
        "velocity": 58
      },
      {
        "deltaTime": 0,
        "running": true,
        "channel": 0,
        "type": "noteOn",
        "noteNumber": 65,
        "velocity": 64
      },
      {
        "deltaTime": 132,
        "channel": 0,
        "type": "noteOff",
        "noteNumber": 65,
        "velocity": 0,
        "byte9": true
      },
      {
        "deltaTime": 4,
        "channel": 0,
        "type": "noteOff",
        "noteNumber": 70,
        "velocity": 0,
        "byte9": true
      },
      {
        "deltaTime": 20,
        "channel": 0,
        "type": "noteOff",
        "noteNumber": 60,
        "velocity": 0,
        "byte9": true
      },
      {
        "deltaTime": 44,
        "channel": 0,
        "type": "noteOff",
        "noteNumber": 55,
        "velocity": 0,
        "byte9": true
      },
      {
        "deltaTime": 24,
        "channel": 0,
        "type": "noteOn",
        "noteNumber": 54,
        "velocity": 39
      },
      {
        "deltaTime": 0,
        "running": true,
        "channel": 0,
        "type": "noteOn",
        "noteNumber": 59,
        "velocity": 49
      },
      {
        "deltaTime": 4,
        "channel": 0,
        "type": "noteOn",
        "noteNumber": 64,
        "velocity": 53
      },
      {
        "deltaTime": 0,
        "running": true,
        "channel": 0,
        "type": "noteOn",
        "noteNumber": 69,
        "velocity": 55
      },
      {
        "deltaTime": 112,
        "channel": 0,
        "type": "noteOff",
        "noteNumber": 69,
        "velocity": 0,
        "byte9": true
      },
      {
        "deltaTime": 12,
        "channel": 0,
        "type": "noteOff",
        "noteNumber": 59,
        "velocity": 0,
        "byte9": true
      },
      {
        "deltaTime": 12,
        "channel": 0,
        "type": "noteOff",
        "noteNumber": 64,
        "velocity": 0,
        "byte9": true
      },
      {
        "deltaTime": 36,
        "channel": 0,
        "type": "noteOn",
        "noteNumber": 51,
        "velocity": 28
      },
      {
        "deltaTime": 40,
        "channel": 0,
        "type": "noteOff",
        "noteNumber": 54,
        "velocity": 0,
        "byte9": true
      },
      {
        "deltaTime": 16,
        "channel": 0,
        "type": "noteOff",
        "noteNumber": 51,
        "velocity": 0,
        "byte9": true
      },
      {
        "deltaTime": 12,
        "channel": 0,
        "type": "noteOn",
        "noteNumber": 70,
        "velocity": 62
      },
      {
        "deltaTime": 4,
        "channel": 0,
        "type": "noteOn",
        "noteNumber": 55,
        "velocity": 57
      },
      {
        "deltaTime": 0,
        "running": true,
        "channel": 0,
        "type": "noteOn",
        "noteNumber": 60,
        "velocity": 50
      },
      {
        "deltaTime": 0,
        "running": true,
        "channel": 0,
        "type": "noteOn",
        "noteNumber": 65,
        "velocity": 55
      },
      {
        "deltaTime": 40,
        "channel": 0,
        "type": "controller",
        "controllerType": 64,
        "value": 127
      },
      {
        "deltaTime": 8,
        "channel": 0,
        "type": "noteOff",
        "noteNumber": 60,
        "velocity": 0,
        "byte9": true
      },
      {
        "deltaTime": 16,
        "channel": 0,
        "type": "noteOff",
        "noteNumber": 55,
        "velocity": 0,
        "byte9": true
      },
      {
        "deltaTime": 4,
        "channel": 0,
        "type": "noteOff",
        "noteNumber": 65,
        "velocity": 0,
        "byte9": true
      },
      {
        "deltaTime": 20,
        "channel": 0,
        "type": "noteOff",
        "noteNumber": 70,
        "velocity": 0,
        "byte9": true
      },
      {
        "deltaTime": 136,
        "channel": 0,
        "type": "controller",
        "controllerType": 64,
        "value": 0
      },
      {
        "deltaTime": 4,
        "channel": 0,
        "type": "noteOn",
        "noteNumber": 82,
        "velocity": 76
      },
      {
        "deltaTime": 8,
        "channel": 0,
        "type": "noteOn",
        "noteNumber": 61,
        "velocity": 60
      },
      {
        "deltaTime": 4,
        "channel": 0,
        "type": "noteOn",
        "noteNumber": 56,
        "velocity": 58
      },
      {
        "deltaTime": 0,
        "running": true,
        "channel": 0,
        "type": "noteOn",
        "noteNumber": 60,
        "velocity": 65
      },
      {
        "deltaTime": 4,
        "channel": 0,
        "type": "noteOn",
        "noteNumber": 65,
        "velocity": 68
      },
      {
        "deltaTime": 0,
        "running": true,
        "channel": 0,
        "type": "noteOn",
        "noteNumber": 77,
        "velocity": 71
      },
      {
        "deltaTime": 0,
        "running": true,
        "channel": 0,
        "type": "noteOn",
        "noteNumber": 85,
        "velocity": 54
      },
      {
        "deltaTime": 0,
        "running": true,
        "channel": 0,
        "type": "noteOn",
        "noteNumber": 89,
        "velocity": 76
      },
      {
        "deltaTime": 8,
        "channel": 0,
        "type": "noteOn",
        "noteNumber": 88,
        "velocity": 40
      },
      {
        "deltaTime": 20,
        "channel": 0,
        "type": "noteOff",
        "noteNumber": 88,
        "velocity": 0,
        "byte9": true
      },
      {
        "deltaTime": 4,
        "channel": 0,
        "type": "controller",
        "controllerType": 64,
        "value": 127
      },
      {
        "deltaTime": 24,
        "channel": 0,
        "type": "noteOff",
        "noteNumber": 82,
        "velocity": 0,
        "byte9": true
      },
      {
        "deltaTime": 28,
        "channel": 0,
        "type": "noteOff",
        "noteNumber": 85,
        "velocity": 0,
        "byte9": true
      },
      {
        "deltaTime": 32,
        "channel": 0,
        "type": "noteOff",
        "noteNumber": 56,
        "velocity": 0,
        "byte9": true
      },
      {
        "deltaTime": 0,
        "running": true,
        "channel": 0,
        "type": "noteOff",
        "noteNumber": 77,
        "velocity": 0,
        "byte9": true
      },
      {
        "deltaTime": 8,
        "channel": 0,
        "type": "noteOff",
        "noteNumber": 65,
        "velocity": 0,
        "byte9": true
      },
      {
        "deltaTime": 0,
        "running": true,
        "channel": 0,
        "type": "noteOff",
        "noteNumber": 89,
        "velocity": 0,
        "byte9": true
      },
      {
        "deltaTime": 4,
        "channel": 0,
        "type": "noteOff",
        "noteNumber": 60,
        "velocity": 0,
        "byte9": true
      },
      {
        "deltaTime": 12,
        "channel": 0,
        "type": "noteOff",
        "noteNumber": 61,
        "velocity": 0,
        "byte9": true
      },
      {
        "deltaTime": 16,
        "channel": 0,
        "type": "noteOn",
        "noteNumber": 65,
        "velocity": 80
      },
      {
        "deltaTime": 4,
        "channel": 0,
        "type": "controller",
        "controllerType": 64,
        "value": 0
      },
      {
        "deltaTime": 0,
        "channel": 0,
        "type": "noteOn",
        "noteNumber": 56,
        "velocity": 77
      },
      {
        "deltaTime": 0,
        "running": true,
        "channel": 0,
        "type": "noteOn",
        "noteNumber": 61,
        "velocity": 56
      },
      {
        "deltaTime": 0,
        "running": true,
        "channel": 0,
        "type": "noteOn",
        "noteNumber": 89,
        "velocity": 82
      },
      {
        "deltaTime": 4,
        "channel": 0,
        "type": "noteOn",
        "noteNumber": 60,
        "velocity": 87
      },
      {
        "deltaTime": 0,
        "running": true,
        "channel": 0,
        "type": "noteOn",
        "noteNumber": 77,
        "velocity": 76
      },
      {
        "deltaTime": 0,
        "running": true,
        "channel": 0,
        "type": "noteOn",
        "noteNumber": 85,
        "velocity": 74
      },
      {
        "deltaTime": 228,
        "channel": 0,
        "type": "controller",
        "controllerType": 64,
        "value": 127
      },
      {
        "deltaTime": 84,
        "channel": 0,
        "type": "noteOff",
        "noteNumber": 77,
        "velocity": 0,
        "byte9": true
      },
      {
        "deltaTime": 16,
        "channel": 0,
        "type": "noteOff",
        "noteNumber": 60,
        "velocity": 0,
        "byte9": true
      },
      {
        "deltaTime": 0,
        "running": true,
        "channel": 0,
        "type": "noteOff",
        "noteNumber": 65,
        "velocity": 0,
        "byte9": true
      },
      {
        "deltaTime": 8,
        "channel": 0,
        "type": "noteOff",
        "noteNumber": 85,
        "velocity": 0,
        "byte9": true
      },
      {
        "deltaTime": 16,
        "channel": 0,
        "type": "noteOff",
        "noteNumber": 56,
        "velocity": 0,
        "byte9": true
      },
      {
        "deltaTime": 0,
        "running": true,
        "channel": 0,
        "type": "noteOff",
        "noteNumber": 89,
        "velocity": 0,
        "byte9": true
      },
      {
        "deltaTime": 8,
        "channel": 0,
        "type": "noteOff",
        "noteNumber": 61,
        "velocity": 0,
        "byte9": true
      },
      {
        "deltaTime": 116,
        "channel": 0,
        "type": "noteOn",
        "noteNumber": 85,
        "velocity": 71
      },
      {
        "deltaTime": 0,
        "running": true,
        "channel": 0,
        "type": "noteOn",
        "noteNumber": 91,
        "velocity": 67
      },
      {
        "deltaTime": 4,
        "channel": 0,
        "type": "noteOn",
        "noteNumber": 79,
        "velocity": 49
      },
      {
        "deltaTime": 4,
        "channel": 0,
        "type": "noteOn",
        "noteNumber": 61,
        "velocity": 62
      },
      {
        "deltaTime": 4,
        "channel": 0,
        "type": "noteOn",
        "noteNumber": 64,
        "velocity": 71
      },
      {
        "deltaTime": 4,
        "channel": 0,
        "type": "noteOff",
        "noteNumber": 91,
        "velocity": 0,
        "byte9": true
      },
      {
        "deltaTime": 4,
        "channel": 0,
        "type": "noteOn",
        "noteNumber": 55,
        "velocity": 44
      },
      {
        "deltaTime": 0,
        "running": true,
        "channel": 0,
        "type": "noteOff",
        "noteNumber": 79,
        "velocity": 0,
        "byte9": true
      },
      {
        "deltaTime": 4,
        "channel": 0,
        "type": "controller",
        "controllerType": 64,
        "value": 0
      },
      {
        "deltaTime": 0,
        "channel": 0,
        "type": "noteOff",
        "noteNumber": 64,
        "velocity": 0,
        "byte9": true
      },
      {
        "deltaTime": 4,
        "channel": 0,
        "type": "noteOff",
        "noteNumber": 85,
        "velocity": 0,
        "byte9": true
      },
      {
        "deltaTime": 8,
        "channel": 0,
        "type": "noteOff",
        "noteNumber": 55,
        "velocity": 0,
        "byte9": true
      },
      {
        "deltaTime": 4,
        "channel": 0,
        "type": "noteOff",
        "noteNumber": 61,
        "velocity": 0,
        "byte9": true
      },
      {
        "deltaTime": 220,
        "channel": 0,
        "type": "noteOn",
        "noteNumber": 64,
        "velocity": 66
      },
      {
        "deltaTime": 4,
        "channel": 0,
        "type": "noteOn",
        "noteNumber": 55,
        "velocity": 71
      },
      {
        "deltaTime": 0,
        "running": true,
        "channel": 0,
        "type": "noteOn",
        "noteNumber": 59,
        "velocity": 67
      },
      {
        "deltaTime": 0,
        "running": true,
        "channel": 0,
        "type": "noteOn",
        "noteNumber": 61,
        "velocity": 53
      },
      {
        "deltaTime": 16,
        "channel": 0,
        "type": "noteOn",
        "noteNumber": 52,
        "velocity": 37
      },
      {
        "deltaTime": 204,
        "channel": 0,
        "type": "noteOff",
        "noteNumber": 52,
        "velocity": 0,
        "byte9": true
      },
      {
        "deltaTime": 8,
        "channel": 0,
        "type": "noteOff",
        "noteNumber": 55,
        "velocity": 0,
        "byte9": true
      },
      {
        "deltaTime": 0,
        "running": true,
        "channel": 0,
        "type": "noteOff",
        "noteNumber": 59,
        "velocity": 0,
        "byte9": true
      },
      {
        "deltaTime": 0,
        "running": true,
        "channel": 0,
        "type": "noteOff",
        "noteNumber": 64,
        "velocity": 0,
        "byte9": true
      },
      {
        "deltaTime": 4,
        "channel": 0,
        "type": "noteOn",
        "noteNumber": 45,
        "velocity": 36
      },
      {
        "deltaTime": 20,
        "channel": 0,
        "type": "noteOff",
        "noteNumber": 61,
        "velocity": 0,
        "byte9": true
      },
      {
        "deltaTime": 8,
        "channel": 0,
        "type": "noteOff",
        "noteNumber": 45,
        "velocity": 0,
        "byte9": true
      },
      {
        "deltaTime": 40,
        "channel": 0,
        "type": "noteOn",
        "noteNumber": 55,
        "velocity": 53
      },
      {
        "deltaTime": 0,
        "running": true,
        "channel": 0,
        "type": "noteOn",
        "noteNumber": 63,
        "velocity": 45
      },
      {
        "deltaTime": 8,
        "channel": 0,
        "type": "noteOn",
        "noteNumber": 51,
        "velocity": 48
      },
      {
        "deltaTime": 0,
        "running": true,
        "channel": 0,
        "type": "noteOn",
        "noteNumber": 60,
        "velocity": 31
      },
      {
        "deltaTime": 16,
        "channel": 0,
        "type": "noteOn",
        "noteNumber": 44,
        "velocity": 43
      },
      {
        "deltaTime": 24,
        "channel": 0,
        "type": "noteOff",
        "noteNumber": 55,
        "velocity": 0,
        "byte9": true
      },
      {
        "deltaTime": 16,
        "channel": 0,
        "type": "noteOff",
        "noteNumber": 60,
        "velocity": 0,
        "byte9": true
      },
      {
        "deltaTime": 24,
        "channel": 0,
        "type": "noteOff",
        "noteNumber": 63,
        "velocity": 0,
        "byte9": true
      },
      {
        "deltaTime": 8,
        "channel": 0,
        "type": "noteOff",
        "noteNumber": 51,
        "velocity": 0,
        "byte9": true
      },
      {
        "deltaTime": 84,
        "channel": 0,
        "type": "noteOn",
        "noteNumber": 51,
        "velocity": 44
      },
      {
        "deltaTime": 64,
        "channel": 0,
        "type": "noteOn",
        "noteNumber": 67,
        "velocity": 50
      },
      {
        "deltaTime": 4,
        "channel": 0,
        "type": "noteOff",
        "noteNumber": 51,
        "velocity": 0,
        "byte9": true
      },
      {
        "deltaTime": 0,
        "running": true,
        "channel": 0,
        "type": "noteOn",
        "noteNumber": 58,
        "velocity": 42
      },
      {
        "deltaTime": 4,
        "channel": 0,
        "type": "noteOn",
        "noteNumber": 55,
        "velocity": 40
      },
      {
        "deltaTime": 0,
        "running": true,
        "channel": 0,
        "type": "noteOn",
        "noteNumber": 60,
        "velocity": 58
      },
      {
        "deltaTime": 0,
        "running": true,
        "channel": 0,
        "type": "noteOn",
        "noteNumber": 63,
        "velocity": 48
      },
      {
        "deltaTime": 68,
        "channel": 0,
        "type": "noteOff",
        "noteNumber": 60,
        "velocity": 0,
        "byte9": true
      },
      {
        "deltaTime": 8,
        "channel": 0,
        "type": "noteOff",
        "noteNumber": 67,
        "velocity": 0,
        "byte9": true
      },
      {
        "deltaTime": 16,
        "channel": 0,
        "type": "noteOff",
        "noteNumber": 58,
        "velocity": 0,
        "byte9": true
      },
      {
        "deltaTime": 0,
        "running": true,
        "channel": 0,
        "type": "noteOff",
        "noteNumber": 63,
        "velocity": 0,
        "byte9": true
      },
      {
        "deltaTime": 24,
        "channel": 0,
        "type": "noteOff",
        "noteNumber": 44,
        "velocity": 0,
        "byte9": true
      },
      {
        "deltaTime": 24,
        "channel": 0,
        "type": "noteOff",
        "noteNumber": 55,
        "velocity": 0,
        "byte9": true
      },
      {
        "deltaTime": 72,
        "channel": 0,
        "type": "noteOn",
        "noteNumber": 54,
        "velocity": 33
      },
      {
        "deltaTime": 32,
        "channel": 0,
        "type": "noteOn",
        "noteNumber": 58,
        "velocity": 43
      },
      {
        "deltaTime": 0,
        "running": true,
        "channel": 0,
        "type": "noteOn",
        "noteNumber": 63,
        "velocity": 46
      },
      {
        "deltaTime": 0,
        "running": true,
        "channel": 0,
        "type": "noteOn",
        "noteNumber": 67,
        "velocity": 51
      },
      {
        "deltaTime": 4,
        "channel": 0,
        "type": "noteOff",
        "noteNumber": 54,
        "velocity": 0,
        "byte9": true
      },
      {
        "deltaTime": 0,
        "running": true,
        "channel": 0,
        "type": "noteOn",
        "noteNumber": 55,
        "velocity": 51
      },
      {
        "deltaTime": 4,
        "channel": 0,
        "type": "noteOn",
        "noteNumber": 60,
        "velocity": 48
      },
      {
        "deltaTime": 148,
        "channel": 0,
        "type": "noteOff",
        "noteNumber": 60,
        "velocity": 0,
        "byte9": true
      },
      {
        "deltaTime": 16,
        "channel": 0,
        "type": "noteOff",
        "noteNumber": 58,
        "velocity": 0,
        "byte9": true
      },
      {
        "deltaTime": 8,
        "channel": 0,
        "type": "noteOff",
        "noteNumber": 63,
        "velocity": 0,
        "byte9": true
      },
      {
        "deltaTime": 16,
        "channel": 0,
        "type": "noteOff",
        "noteNumber": 67,
        "velocity": 0,
        "byte9": true
      },
      {
        "deltaTime": 8,
        "channel": 0,
        "type": "noteOff",
        "noteNumber": 55,
        "velocity": 0,
        "byte9": true
      },
      {
        "deltaTime": 20,
        "channel": 0,
        "type": "noteOn",
        "noteNumber": 53,
        "velocity": 40
      },
      {
        "deltaTime": 4,
        "channel": 0,
        "type": "noteOn",
        "noteNumber": 58,
        "velocity": 40
      },
      {
        "deltaTime": 4,
        "channel": 0,
        "type": "noteOn",
        "noteNumber": 63,
        "velocity": 35
      },
      {
        "deltaTime": 0,
        "running": true,
        "channel": 0,
        "type": "noteOn",
        "noteNumber": 65,
        "velocity": 57
      },
      {
        "deltaTime": 8,
        "channel": 0,
        "type": "noteOn",
        "noteNumber": 60,
        "velocity": 47
      },
      {
        "deltaTime": 132,
        "channel": 0,
        "type": "noteOff",
        "noteNumber": 63,
        "velocity": 0,
        "byte9": true
      },
      {
        "deltaTime": 32,
        "channel": 0,
        "type": "noteOff",
        "noteNumber": 53,
        "velocity": 0,
        "byte9": true
      },
      {
        "deltaTime": 32,
        "channel": 0,
        "type": "noteOff",
        "noteNumber": 58,
        "velocity": 0,
        "byte9": true
      },
      {
        "deltaTime": 0,
        "running": true,
        "channel": 0,
        "type": "noteOff",
        "noteNumber": 60,
        "velocity": 0,
        "byte9": true
      },
      {
        "deltaTime": 20,
        "channel": 0,
        "type": "noteOff",
        "noteNumber": 65,
        "velocity": 0,
        "byte9": true
      },
      {
        "deltaTime": 12,
        "channel": 0,
        "type": "controller",
        "controllerType": 64,
        "value": 127
      },
      {
        "deltaTime": 124,
        "channel": 0,
        "type": "noteOn",
        "noteNumber": 56,
        "velocity": 30
      },
      {
        "deltaTime": 16,
        "channel": 0,
        "type": "noteOff",
        "noteNumber": 56,
        "velocity": 0,
        "byte9": true
      },
      {
        "deltaTime": 4,
        "channel": 0,
        "type": "noteOn",
        "noteNumber": 63,
        "velocity": 64
      },
      {
        "deltaTime": 4,
        "channel": 0,
        "type": "noteOn",
        "noteNumber": 57,
        "velocity": 36
      },
      {
        "deltaTime": 0,
        "running": true,
        "channel": 0,
        "type": "noteOn",
        "noteNumber": 59,
        "velocity": 72
      },
      {
        "deltaTime": 0,
        "running": true,
        "channel": 0,
        "type": "noteOn",
        "noteNumber": 70,
        "velocity": 70
      },
      {
        "deltaTime": 4,
        "channel": 0,
        "type": "noteOn",
        "noteNumber": 65,
        "velocity": 55
      },
      {
        "deltaTime": 8,
        "channel": 0,
        "type": "noteOn",
        "noteNumber": 58,
        "velocity": 74
      },
      {
        "deltaTime": 4,
        "channel": 0,
        "type": "controller",
        "controllerType": 64,
        "value": 0
      },
      {
        "deltaTime": 0,
        "channel": 0,
        "type": "noteOff",
        "noteNumber": 57,
        "velocity": 0,
        "byte9": true
      },
      {
        "deltaTime": 8,
        "channel": 0,
        "type": "noteOn",
        "noteNumber": 68,
        "velocity": 20
      },
      {
        "deltaTime": 16,
        "channel": 0,
        "type": "noteOff",
        "noteNumber": 68,
        "velocity": 0,
        "byte9": true
      },
      {
        "deltaTime": 28,
        "channel": 0,
        "type": "noteOff",
        "noteNumber": 65,
        "velocity": 0,
        "byte9": true
      },
      {
        "deltaTime": 4,
        "channel": 0,
        "type": "noteOff",
        "noteNumber": 59,
        "velocity": 0,
        "byte9": true
      },
      {
        "deltaTime": 12,
        "channel": 0,
        "type": "noteOff",
        "noteNumber": 63,
        "velocity": 0,
        "byte9": true
      },
      {
        "deltaTime": 4,
        "channel": 0,
        "type": "noteOff",
        "noteNumber": 70,
        "velocity": 0,
        "byte9": true
      },
      {
        "deltaTime": 4,
        "channel": 0,
        "type": "noteOff",
        "noteNumber": 58,
        "velocity": 0,
        "byte9": true
      },
      {
        "deltaTime": 28,
        "channel": 0,
        "type": "noteOn",
        "noteNumber": 68,
        "velocity": 37
      },
      {
        "deltaTime": 4,
        "channel": 0,
        "type": "noteOn",
        "noteNumber": 57,
        "velocity": 27
      },
      {
        "deltaTime": 64,
        "channel": 0,
        "type": "noteOff",
        "noteNumber": 68,
        "velocity": 0,
        "byte9": true
      },
      {
        "deltaTime": 52,
        "channel": 0,
        "type": "noteOn",
        "noteNumber": 56,
        "velocity": 31
      },
      {
        "deltaTime": 8,
        "channel": 0,
        "type": "noteOn",
        "noteNumber": 63,
        "velocity": 62
      },
      {
        "deltaTime": 4,
        "channel": 0,
        "type": "noteOn",
        "noteNumber": 59,
        "velocity": 68
      },
      {
        "deltaTime": 4,
        "channel": 0,
        "type": "noteOff",
        "noteNumber": 56,
        "velocity": 0,
        "byte9": true
      },
      {
        "deltaTime": 0,
        "running": true,
        "channel": 0,
        "type": "noteOn",
        "noteNumber": 70,
        "velocity": 57
      },
      {
        "deltaTime": 4,
        "channel": 0,
        "type": "noteOn",
        "noteNumber": 65,
        "velocity": 51
      },
      {
        "deltaTime": 4,
        "channel": 0,
        "type": "noteOn",
        "noteNumber": 58,
        "velocity": 62
      },
      {
        "deltaTime": 4,
        "channel": 0,
        "type": "noteOff",
        "noteNumber": 57,
        "velocity": 0,
        "byte9": true
      },
      {
        "deltaTime": 8,
        "channel": 0,
        "type": "noteOn",
        "noteNumber": 68,
        "velocity": 26
      },
      {
        "deltaTime": 36,
        "channel": 0,
        "type": "noteOff",
        "noteNumber": 59,
        "velocity": 0,
        "byte9": true
      },
      {
        "deltaTime": 8,
        "channel": 0,
        "type": "noteOff",
        "noteNumber": 58,
        "velocity": 0,
        "byte9": true
      },
      {
        "deltaTime": 0,
        "running": true,
        "channel": 0,
        "type": "noteOff",
        "noteNumber": 63,
        "velocity": 0,
        "byte9": true
      },
      {
        "deltaTime": 4,
        "channel": 0,
        "type": "noteOff",
        "noteNumber": 65,
        "velocity": 0,
        "byte9": true
      },
      {
        "deltaTime": 0,
        "running": true,
        "channel": 0,
        "type": "noteOff",
        "noteNumber": 70,
        "velocity": 0,
        "byte9": true
      },
      {
        "deltaTime": 4,
        "channel": 0,
        "type": "noteOff",
        "noteNumber": 68,
        "velocity": 0,
        "byte9": true
      },
      {
        "deltaTime": 52,
        "channel": 0,
        "type": "noteOn",
        "noteNumber": 70,
        "velocity": 56
      },
      {
        "deltaTime": 4,
        "channel": 0,
        "type": "noteOn",
        "noteNumber": 58,
        "velocity": 45
      },
      {
        "deltaTime": 4,
        "channel": 0,
        "type": "noteOn",
        "noteNumber": 59,
        "velocity": 51
      },
      {
        "deltaTime": 0,
        "running": true,
        "channel": 0,
        "type": "noteOn",
        "noteNumber": 62,
        "velocity": 46
      },
      {
        "deltaTime": 8,
        "channel": 0,
        "type": "noteOn",
        "noteNumber": 65,
        "velocity": 31
      },
      {
        "deltaTime": 28,
        "channel": 0,
        "type": "controller",
        "controllerType": 64,
        "value": 127
      },
      {
        "deltaTime": 48,
        "channel": 0,
        "type": "noteOff",
        "noteNumber": 59,
        "velocity": 0,
        "byte9": true
      },
      {
        "deltaTime": 4,
        "channel": 0,
        "type": "noteOff",
        "noteNumber": 65,
        "velocity": 0,
        "byte9": true
      },
      {
        "deltaTime": 4,
        "channel": 0,
        "type": "noteOff",
        "noteNumber": 62,
        "velocity": 0,
        "byte9": true
      },
      {
        "deltaTime": 16,
        "channel": 0,
        "type": "controller",
        "controllerType": 64,
        "value": 0
      },
      {
        "deltaTime": 8,
        "channel": 0,
        "type": "noteOff",
        "noteNumber": 70,
        "velocity": 0,
        "byte9": true
      },
      {
        "deltaTime": 40,
        "channel": 0,
        "type": "noteOff",
        "noteNumber": 58,
        "velocity": 0,
        "byte9": true
      },
      {
        "deltaTime": 8,
        "channel": 0,
        "type": "noteOn",
        "noteNumber": 56,
        "velocity": 33
      },
      {
        "deltaTime": 0,
        "running": true,
        "channel": 0,
        "type": "noteOn",
        "noteNumber": 68,
        "velocity": 54
      },
      {
        "deltaTime": 4,
        "channel": 0,
        "type": "noteOn",
        "noteNumber": 59,
        "velocity": 59
      },
      {
        "deltaTime": 4,
        "channel": 0,
        "type": "controller",
        "controllerType": 64,
        "value": 127
      },
      {
        "deltaTime": 4,
        "channel": 0,
        "type": "noteOn",
        "noteNumber": 62,
        "velocity": 41
      },
      {
        "deltaTime": 8,
        "channel": 0,
        "type": "noteOff",
        "noteNumber": 56,
        "velocity": 0,
        "byte9": true
      },
      {
        "deltaTime": 16,
        "channel": 0,
        "type": "noteOff",
        "noteNumber": 68,
        "velocity": 0,
        "byte9": true
      },
      {
        "deltaTime": 8,
        "channel": 0,
        "type": "noteOff",
        "noteNumber": 59,
        "velocity": 0,
        "byte9": true
      },
      {
        "deltaTime": 24,
        "channel": 0,
        "type": "noteOff",
        "noteNumber": 62,
        "velocity": 0,
        "byte9": true
      },
      {
        "deltaTime": 116,
        "channel": 0,
        "type": "noteOn",
        "noteNumber": 63,
        "velocity": 60
      },
      {
        "deltaTime": 4,
        "channel": 0,
        "type": "noteOn",
        "noteNumber": 58,
        "velocity": 50
      },
      {
        "deltaTime": 0,
        "running": true,
        "channel": 0,
        "type": "noteOn",
        "noteNumber": 67,
        "velocity": 53
      },
      {
        "deltaTime": 4,
        "channel": 0,
        "type": "noteOn",
        "noteNumber": 46,
        "velocity": 42
      },
      {
        "deltaTime": 0,
        "running": true,
        "channel": 0,
        "type": "noteOn",
        "noteNumber": 55,
        "velocity": 51
      },
      {
        "deltaTime": 8,
        "channel": 0,
        "type": "controller",
        "controllerType": 64,
        "value": 0
      },
      {
        "deltaTime": 108,
        "channel": 0,
        "type": "controller",
        "controllerType": 64,
        "value": 127
      },
      {
        "deltaTime": 160,
        "channel": 0,
        "type": "noteOff",
        "noteNumber": 55,
        "velocity": 0,
        "byte9": true
      },
      {
        "deltaTime": 20,
        "channel": 0,
        "type": "noteOff",
        "noteNumber": 58,
        "velocity": 0,
        "byte9": true
      },
      {
        "deltaTime": 0,
        "running": true,
        "channel": 0,
        "type": "noteOff",
        "noteNumber": 63,
        "velocity": 0,
        "byte9": true
      },
      {
        "deltaTime": 248,
        "channel": 0,
        "type": "controller",
        "controllerType": 64,
        "value": 0
      },
      {
        "deltaTime": 0,
        "channel": 0,
        "type": "noteOn",
        "noteNumber": 63,
        "velocity": 51
      },
      {
        "deltaTime": 4,
        "channel": 0,
        "type": "noteOn",
        "noteNumber": 58,
        "velocity": 47
      },
      {
        "deltaTime": 4,
        "channel": 0,
        "type": "noteOn",
        "noteNumber": 55,
        "velocity": 45
      },
      {
        "deltaTime": 28,
        "channel": 0,
        "type": "controller",
        "controllerType": 64,
        "value": 127
      },
      {
        "deltaTime": 36,
        "channel": 0,
        "type": "noteOff",
        "noteNumber": 55,
        "velocity": 0,
        "byte9": true
      },
      {
        "deltaTime": 64,
        "channel": 0,
        "type": "noteOff",
        "noteNumber": 58,
        "velocity": 0,
        "byte9": true
      },
      {
        "deltaTime": 40,
        "channel": 0,
        "type": "noteOn",
        "noteNumber": 58,
        "velocity": 91
      },
      {
        "deltaTime": 60,
        "channel": 0,
        "type": "controller",
        "controllerType": 64,
        "value": 0
      },
      {
        "deltaTime": 8,
        "channel": 0,
        "type": "controller",
        "controllerType": 64,
        "value": 127
      },
      {
        "deltaTime": 92,
        "channel": 0,
        "type": "noteOff",
        "noteNumber": 63,
        "velocity": 0,
        "byte9": true
      },
      {
        "deltaTime": 8,
        "channel": 0,
        "type": "noteOff",
        "noteNumber": 67,
        "velocity": 0,
        "byte9": true
      },
      {
        "deltaTime": 148,
        "channel": 0,
        "type": "noteOn",
        "noteNumber": 63,
        "velocity": 49
      },
      {
        "deltaTime": 0,
        "running": true,
        "channel": 0,
        "type": "noteOn",
        "noteNumber": 70,
        "velocity": 58
      },
      {
        "deltaTime": 8,
        "channel": 0,
        "type": "noteOn",
        "noteNumber": 59,
        "velocity": 41
      },
      {
        "deltaTime": 4,
        "channel": 0,
        "type": "controller",
        "controllerType": 64,
        "value": 0
      },
      {
        "deltaTime": 0,
        "channel": 0,
        "type": "noteOn",
        "noteNumber": 65,
        "velocity": 34
      },
      {
        "deltaTime": 40,
        "channel": 0,
        "type": "noteOff",
        "noteNumber": 58,
        "velocity": 0,
        "byte9": true
      },
      {
        "deltaTime": 104,
        "channel": 0,
        "type": "noteOn",
        "noteNumber": 58,
        "velocity": 71
      },
      {
        "deltaTime": 88,
        "channel": 0,
        "type": "controller",
        "controllerType": 64,
        "value": 127
      },
      {
        "deltaTime": 104,
        "channel": 0,
        "type": "noteOff",
        "noteNumber": 65,
        "velocity": 0,
        "byte9": true
      },
      {
        "deltaTime": 16,
        "channel": 0,
        "type": "noteOn",
        "noteNumber": 68,
        "velocity": 1
      },
      {
        "deltaTime": 12,
        "channel": 0,
        "type": "noteOff",
        "noteNumber": 59,
        "velocity": 0,
        "byte9": true
      },
      {
        "deltaTime": 16,
        "channel": 0,
        "type": "noteOff",
        "noteNumber": 63,
        "velocity": 0,
        "byte9": true
      },
      {
        "deltaTime": 60,
        "channel": 0,
        "type": "controller",
        "controllerType": 64,
        "value": 0
      },
      {
        "deltaTime": 12,
        "channel": 0,
        "type": "noteOff",
        "noteNumber": 68,
        "velocity": 0,
        "byte9": true
      },
      {
        "deltaTime": 4,
        "channel": 0,
        "type": "noteOn",
        "noteNumber": 63,
        "velocity": 42
      },
      {
        "deltaTime": 8,
        "channel": 0,
        "type": "noteOn",
        "noteNumber": 59,
        "velocity": 40
      },
      {
        "deltaTime": 8,
        "channel": 0,
        "type": "noteOn",
        "noteNumber": 65,
        "velocity": 24
      },
      {
        "deltaTime": 20,
        "channel": 0,
        "type": "noteOff",
        "noteNumber": 58,
        "velocity": 0,
        "byte9": true
      },
      {
        "deltaTime": 4,
        "channel": 0,
        "type": "controller",
        "controllerType": 64,
        "value": 127
      },
      {
        "deltaTime": 136,
        "channel": 0,
        "type": "noteOn",
        "noteNumber": 58,
        "velocity": 78
      },
      {
        "deltaTime": 8,
        "channel": 0,
        "type": "controller",
        "controllerType": 64,
        "value": 0
      },
      {
        "deltaTime": 60,
        "channel": 0,
        "type": "controller",
        "controllerType": 64,
        "value": 127
      },
      {
        "deltaTime": 92,
        "channel": 0,
        "type": "noteOff",
        "noteNumber": 65,
        "velocity": 0,
        "byte9": true
      },
      {
        "deltaTime": 28,
        "channel": 0,
        "type": "noteOff",
        "noteNumber": 59,
        "velocity": 0,
        "byte9": true
      },
      {
        "deltaTime": 16,
        "channel": 0,
        "type": "noteOn",
        "noteNumber": 68,
        "velocity": 1
      },
      {
        "deltaTime": 24,
        "channel": 0,
        "type": "noteOff",
        "noteNumber": 63,
        "velocity": 0,
        "byte9": true
      },
      {
        "deltaTime": 8,
        "channel": 0,
        "type": "noteOff",
        "noteNumber": 58,
        "velocity": 0,
        "byte9": true
      },
      {
        "deltaTime": 0,
        "running": true,
        "channel": 0,
        "type": "noteOff",
        "noteNumber": 70,
        "velocity": 0,
        "byte9": true
      },
      {
        "deltaTime": 12,
        "channel": 0,
        "type": "noteOn",
        "noteNumber": 54,
        "velocity": 43
      },
      {
        "deltaTime": 20,
        "channel": 0,
        "type": "noteOff",
        "noteNumber": 68,
        "velocity": 0,
        "byte9": true
      },
      {
        "deltaTime": 44,
        "channel": 0,
        "type": "noteOff",
        "noteNumber": 54,
        "velocity": 0,
        "byte9": true
      },
      {
        "deltaTime": 0,
        "running": true,
        "channel": 0,
        "type": "noteOn",
        "noteNumber": 55,
        "velocity": 66
      },
      {
        "deltaTime": 0,
        "running": true,
        "channel": 0,
        "type": "noteOn",
        "noteNumber": 60,
        "velocity": 60
      },
      {
        "deltaTime": 0,
        "running": true,
        "channel": 0,
        "type": "noteOn",
        "noteNumber": 70,
        "velocity": 60
      },
      {
        "deltaTime": 4,
        "channel": 0,
        "type": "controller",
        "controllerType": 64,
        "value": 0
      },
      {
        "deltaTime": 0,
        "channel": 0,
        "type": "noteOn",
        "noteNumber": 65,
        "velocity": 60
      },
      {
        "deltaTime": 88,
        "channel": 0,
        "type": "noteOff",
        "noteNumber": 46,
        "velocity": 0,
        "byte9": true
      },
      {
        "deltaTime": 72,
        "channel": 0,
        "type": "noteOn",
        "noteNumber": 46,
        "velocity": 60
      },
      {
        "deltaTime": 60,
        "channel": 0,
        "type": "controller",
        "controllerType": 64,
        "value": 127
      },
      {
        "deltaTime": 144,
        "channel": 0,
        "type": "noteOff",
        "noteNumber": 65,
        "velocity": 0,
        "byte9": true
      },
      {
        "deltaTime": 24,
        "channel": 0,
        "type": "noteOff",
        "noteNumber": 60,
        "velocity": 0,
        "byte9": true
      },
      {
        "deltaTime": 4,
        "channel": 0,
        "type": "noteOn",
        "noteNumber": 54,
        "velocity": 21
      },
      {
        "deltaTime": 60,
        "channel": 0,
        "type": "noteOff",
        "noteNumber": 54,
        "velocity": 0,
        "byte9": true
      },
      {
        "deltaTime": 4,
        "channel": 0,
        "type": "controller",
        "controllerType": 64,
        "value": 0
      },
      {
        "deltaTime": 4,
        "channel": 0,
        "type": "noteOff",
        "noteNumber": 70,
        "velocity": 0,
        "byte9": true
      },
      {
        "deltaTime": 16,
        "channel": 0,
        "type": "noteOff",
        "noteNumber": 55,
        "velocity": 0,
        "byte9": true
      },
      {
        "deltaTime": 0,
        "running": true,
        "channel": 0,
        "type": "noteOn",
        "noteNumber": 65,
        "velocity": 55
      },
      {
        "deltaTime": 4,
        "channel": 0,
        "type": "noteOn",
        "noteNumber": 60,
        "velocity": 49
      },
      {
        "deltaTime": 0,
        "running": true,
        "channel": 0,
        "type": "noteOn",
        "noteNumber": 70,
        "velocity": 25
      },
      {
        "deltaTime": 28,
        "channel": 0,
        "type": "controller",
        "controllerType": 64,
        "value": 127
      },
      {
        "deltaTime": 92,
        "channel": 0,
        "type": "noteOff",
        "noteNumber": 60,
        "velocity": 0,
        "byte9": true
      },
      {
        "deltaTime": 40,
        "channel": 0,
        "type": "noteOn",
        "noteNumber": 55,
        "velocity": 66
      },
      {
        "deltaTime": 0,
        "running": true,
        "channel": 0,
        "type": "noteOff",
        "noteNumber": 65,
        "velocity": 0,
        "byte9": true
      },
      {
        "deltaTime": 28,
        "channel": 0,
        "type": "noteOff",
        "noteNumber": 46,
        "velocity": 0,
        "byte9": true
      },
      {
        "deltaTime": 4,
        "channel": 0,
        "type": "noteOff",
        "noteNumber": 70,
        "velocity": 0,
        "byte9": true
      },
      {
        "deltaTime": 4,
        "channel": 0,
        "type": "noteOff",
        "noteNumber": 55,
        "velocity": 0,
        "byte9": true
      },
      {
        "deltaTime": 684,
        "channel": 0,
        "type": "noteOn",
        "noteNumber": 61,
        "velocity": 52
      },
      {
        "deltaTime": 0,
        "running": true,
        "channel": 0,
        "type": "noteOn",
        "noteNumber": 66,
        "velocity": 56
      },
      {
        "deltaTime": 0,
        "running": true,
        "channel": 0,
        "type": "noteOn",
        "noteNumber": 70,
        "velocity": 64
      },
      {
        "deltaTime": 8,
        "channel": 0,
        "type": "noteOn",
        "noteNumber": 56,
        "velocity": 47
      },
      {
        "deltaTime": 4,
        "channel": 0,
        "type": "controller",
        "controllerType": 64,
        "value": 0
      },
      {
        "deltaTime": 0,
        "channel": 0,
        "type": "noteOn",
        "noteNumber": 62,
        "velocity": 50
      },
      {
        "deltaTime": 96,
        "channel": 0,
        "type": "controller",
        "controllerType": 64,
        "value": 127
      },
      {
        "deltaTime": 92,
        "channel": 0,
        "type": "noteOff",
        "noteNumber": 61,
        "velocity": 0,
        "byte9": true
      },
      {
        "deltaTime": 44,
        "channel": 0,
        "type": "noteOff",
        "noteNumber": 66,
        "velocity": 0,
        "byte9": true
      },
      {
        "deltaTime": 32,
        "channel": 0,
        "type": "noteOff",
        "noteNumber": 70,
        "velocity": 0,
        "byte9": true
      },
      {
        "deltaTime": 8,
        "channel": 0,
        "type": "noteOff",
        "noteNumber": 56,
        "velocity": 0,
        "byte9": true
      },
      {
        "deltaTime": 0,
        "running": true,
        "channel": 0,
        "type": "noteOff",
        "noteNumber": 62,
        "velocity": 0,
        "byte9": true
      },
      {
        "deltaTime": 188,
        "channel": 0,
        "type": "controller",
        "controllerType": 64,
        "value": 0
      },
      {
        "deltaTime": 0,
        "channel": 0,
        "type": "noteOn",
        "noteNumber": 89,
        "velocity": 71
      },
      {
        "deltaTime": 8,
        "channel": 0,
        "type": "noteOn",
        "noteNumber": 62,
        "velocity": 32
      },
      {
        "deltaTime": 8,
        "channel": 0,
        "type": "noteOn",
        "noteNumber": 60,
        "velocity": 35
      },
      {
        "deltaTime": 0,
        "running": true,
        "channel": 0,
        "type": "noteOn",
        "noteNumber": 65,
        "velocity": 40
      },
      {
        "deltaTime": 24,
        "channel": 0,
        "type": "noteOn",
        "noteNumber": 55,
        "velocity": 24
      },
      {
        "deltaTime": 32,
        "channel": 0,
        "type": "noteOff",
        "noteNumber": 89,
        "velocity": 0,
        "byte9": true
      },
      {
        "deltaTime": 16,
        "channel": 0,
        "type": "noteOn",
        "noteNumber": 86,
        "velocity": 51
      },
      {
        "deltaTime": 204,
        "channel": 0,
        "type": "controller",
        "controllerType": 64,
        "value": 127
      },
      {
        "deltaTime": 72,
        "channel": 0,
        "type": "noteOff",
        "noteNumber": 62,
        "velocity": 0,
        "byte9": true
      },
      {
        "deltaTime": 12,
        "channel": 0,
        "type": "noteOff",
        "noteNumber": 86,
        "velocity": 0,
        "byte9": true
      },
      {
        "deltaTime": 4,
        "channel": 0,
        "type": "noteOff",
        "noteNumber": 65,
        "velocity": 0,
        "byte9": true
      },
      {
        "deltaTime": 32,
        "channel": 0,
        "type": "noteOff",
        "noteNumber": 60,
        "velocity": 0,
        "byte9": true
      },
      {
        "deltaTime": 44,
        "channel": 0,
        "type": "noteOn",
        "noteNumber": 65,
        "velocity": 44
      },
      {
        "deltaTime": 8,
        "channel": 0,
        "type": "noteOn",
        "noteNumber": 60,
        "velocity": 50
      },
      {
        "deltaTime": 0,
        "running": true,
        "channel": 0,
        "type": "noteOn",
        "noteNumber": 62,
        "velocity": 34
      },
      {
        "deltaTime": 0,
        "running": true,
        "channel": 0,
        "type": "noteOn",
        "noteNumber": 82,
        "velocity": 83
      },
      {
        "deltaTime": 40,
        "channel": 0,
        "type": "controller",
        "controllerType": 64,
        "value": 0
      },
      {
        "deltaTime": 16,
        "channel": 0,
        "type": "noteOff",
        "noteNumber": 82,
        "velocity": 0,
        "byte9": true
      },
      {
        "deltaTime": 40,
        "channel": 0,
        "type": "controller",
        "controllerType": 64,
        "value": 127
      },
      {
        "deltaTime": 8,
        "channel": 0,
        "type": "noteOn",
        "noteNumber": 79,
        "velocity": 42
      },
      {
        "deltaTime": 4,
        "channel": 0,
        "type": "noteOff",
        "noteNumber": 62,
        "velocity": 0,
        "byte9": true
      },
      {
        "deltaTime": 56,
        "channel": 0,
        "type": "noteOn",
        "noteNumber": 62,
        "velocity": 17
      },
      {
        "deltaTime": 140,
        "channel": 0,
        "type": "noteOff",
        "noteNumber": 62,
        "velocity": 0,
        "byte9": true
      },
      {
        "deltaTime": 0,
        "running": true,
        "channel": 0,
        "type": "noteOff",
        "noteNumber": 65,
        "velocity": 0,
        "byte9": true
      },
      {
        "deltaTime": 16,
        "channel": 0,
        "type": "noteOff",
        "noteNumber": 60,
        "velocity": 0,
        "byte9": true
      },
      {
        "deltaTime": 20,
        "channel": 0,
        "type": "noteOff",
        "noteNumber": 55,
        "velocity": 0,
        "byte9": true
      },
      {
        "deltaTime": 0,
        "running": true,
        "channel": 0,
        "type": "noteOff",
        "noteNumber": 79,
        "velocity": 0,
        "byte9": true
      },
      {
        "deltaTime": 148,
        "channel": 0,
        "type": "noteOn",
        "noteNumber": 61,
        "velocity": 71
      },
      {
        "deltaTime": 0,
        "running": true,
        "channel": 0,
        "type": "noteOn",
        "noteNumber": 66,
        "velocity": 73
      },
      {
        "deltaTime": 0,
        "running": true,
        "channel": 0,
        "type": "noteOn",
        "noteNumber": 74,
        "velocity": 110
      },
      {
        "deltaTime": 4,
        "channel": 0,
        "type": "noteOn",
        "noteNumber": 55,
        "velocity": 71
      },
      {
        "deltaTime": 36,
        "channel": 0,
        "type": "controller",
        "controllerType": 64,
        "value": 0
      },
      {
        "deltaTime": 36,
        "channel": 0,
        "type": "noteOff",
        "noteNumber": 74,
        "velocity": 0,
        "byte9": true
      },
      {
        "deltaTime": 56,
        "channel": 0,
        "type": "noteOn",
        "noteNumber": 73,
        "velocity": 64
      },
      {
        "deltaTime": 200,
        "channel": 0,
        "type": "controller",
        "controllerType": 64,
        "value": 127
      },
      {
        "deltaTime": 56,
        "channel": 0,
        "type": "noteOff",
        "noteNumber": 55,
        "velocity": 0,
        "byte9": true
      },
      {
        "deltaTime": 28,
        "channel": 0,
        "type": "noteOff",
        "noteNumber": 66,
        "velocity": 0,
        "byte9": true
      },
      {
        "deltaTime": 20,
        "channel": 0,
        "type": "noteOff",
        "noteNumber": 61,
        "velocity": 0,
        "byte9": true
      },
      {
        "deltaTime": 32,
        "channel": 0,
        "type": "noteOff",
        "noteNumber": 73,
        "velocity": 0,
        "byte9": true
      },
      {
        "deltaTime": 16,
        "channel": 0,
        "type": "noteOn",
        "noteNumber": 61,
        "velocity": 46
      },
      {
        "deltaTime": 0,
        "running": true,
        "channel": 0,
        "type": "noteOn",
        "noteNumber": 66,
        "velocity": 64
      },
      {
        "deltaTime": 4,
        "channel": 0,
        "type": "noteOn",
        "noteNumber": 70,
        "velocity": 83
      },
      {
        "deltaTime": 4,
        "channel": 0,
        "type": "noteOn",
        "noteNumber": 55,
        "velocity": 63
      },
      {
        "deltaTime": 48,
        "channel": 0,
        "type": "controller",
        "controllerType": 64,
        "value": 0
      },
      {
        "deltaTime": 28,
        "channel": 0,
        "type": "noteOff",
        "noteNumber": 66,
        "velocity": 0,
        "byte9": true
      },
      {
        "deltaTime": 4,
        "channel": 0,
        "type": "noteOff",
        "noteNumber": 70,
        "velocity": 0,
        "byte9": true
      },
      {
        "deltaTime": 20,
        "channel": 0,
        "type": "noteOn",
        "noteNumber": 66,
        "velocity": 25
      },
      {
        "deltaTime": 12,
        "channel": 0,
        "type": "controller",
        "controllerType": 64,
        "value": 127
      },
      {
        "deltaTime": 4,
        "channel": 0,
        "type": "noteOn",
        "noteNumber": 69,
        "velocity": 59
      },
      {
        "deltaTime": 188,
        "channel": 0,
        "type": "noteOff",
        "noteNumber": 66,
        "velocity": 0,
        "byte9": true
      },
      {
        "deltaTime": 4,
        "channel": 0,
        "type": "noteOff",
        "noteNumber": 55,
        "velocity": 0,
        "byte9": true
      },
      {
        "deltaTime": 40,
        "channel": 0,
        "type": "noteOff",
        "noteNumber": 61,
        "velocity": 0,
        "byte9": true
      },
      {
        "deltaTime": 116,
        "channel": 0,
        "type": "noteOn",
        "noteNumber": 63,
        "velocity": 49
      },
      {
        "deltaTime": 8,
        "channel": 0,
        "type": "noteOff",
        "noteNumber": 69,
        "velocity": 0,
        "byte9": true
      },
      {
        "deltaTime": 4,
        "channel": 0,
        "type": "noteOn",
        "noteNumber": 59,
        "velocity": 55
      },
      {
        "deltaTime": 4,
        "channel": 0,
        "type": "noteOn",
        "noteNumber": 54,
        "velocity": 42
      },
      {
        "deltaTime": 0,
        "running": true,
        "channel": 0,
        "type": "noteOn",
        "noteNumber": 58,
        "velocity": 31
      },
      {
        "deltaTime": 40,
        "channel": 0,
        "type": "controller",
        "controllerType": 64,
        "value": 0
      },
      {
        "deltaTime": 40,
        "channel": 0,
        "type": "controller",
        "controllerType": 64,
        "value": 127
      },
      {
        "deltaTime": 20,
        "channel": 0,
        "type": "noteOff",
        "noteNumber": 63,
        "velocity": 0,
        "byte9": true
      },
      {
        "deltaTime": 16,
        "channel": 0,
        "type": "noteOff",
        "noteNumber": 59,
        "velocity": 0,
        "byte9": true
      },
      {
        "deltaTime": 28,
        "channel": 0,
        "type": "noteOff",
        "noteNumber": 58,
        "velocity": 0,
        "byte9": true
      },
      {
        "deltaTime": 96,
        "channel": 0,
        "type": "noteOff",
        "noteNumber": 54,
        "velocity": 0,
        "byte9": true
      },
      {
        "deltaTime": 68,
        "channel": 0,
        "type": "noteOn",
        "noteNumber": 53,
        "velocity": 41
      },
      {
        "deltaTime": 8,
        "channel": 0,
        "type": "controller",
        "controllerType": 64,
        "value": 0
      },
      {
        "deltaTime": 12,
        "channel": 0,
        "type": "noteOff",
        "noteNumber": 53,
        "velocity": 0,
        "byte9": true
      },
      {
        "deltaTime": 36,
        "channel": 0,
        "type": "noteOn",
        "noteNumber": 54,
        "velocity": 45
      },
      {
        "deltaTime": 60,
        "channel": 0,
        "type": "noteOff",
        "noteNumber": 54,
        "velocity": 0,
        "byte9": true
      },
      {
        "deltaTime": 4,
        "channel": 0,
        "type": "noteOn",
        "noteNumber": 56,
        "velocity": 60
      },
      {
        "deltaTime": 60,
        "channel": 0,
        "type": "noteOn",
        "noteNumber": 58,
        "velocity": 57
      },
      {
        "deltaTime": 16,
        "channel": 0,
        "type": "noteOff",
        "noteNumber": 56,
        "velocity": 0,
        "byte9": true
      },
      {
        "deltaTime": 24,
        "channel": 0,
        "type": "noteOff",
        "noteNumber": 58,
        "velocity": 0,
        "byte9": true
      },
      {
        "deltaTime": 16,
        "channel": 0,
        "type": "noteOn",
        "noteNumber": 59,
        "velocity": 64
      },
      {
        "deltaTime": 40,
        "channel": 0,
        "type": "noteOff",
        "noteNumber": 59,
        "velocity": 0,
        "byte9": true
      },
      {
        "deltaTime": 28,
        "channel": 0,
        "type": "noteOn",
        "noteNumber": 61,
        "velocity": 55
      },
      {
        "deltaTime": 56,
        "channel": 0,
        "type": "noteOff",
        "noteNumber": 61,
        "velocity": 0,
        "byte9": true
      },
      {
        "deltaTime": 4,
        "channel": 0,
        "type": "noteOn",
        "noteNumber": 63,
        "velocity": 53
      },
      {
        "deltaTime": 28,
        "channel": 0,
        "type": "controller",
        "controllerType": 64,
        "value": 127
      },
      {
        "deltaTime": 12,
        "channel": 0,
        "type": "noteOff",
        "noteNumber": 63,
        "velocity": 0,
        "byte9": true
      },
      {
        "deltaTime": 20,
        "channel": 0,
        "type": "noteOn",
        "noteNumber": 65,
        "velocity": 62
      },
      {
        "deltaTime": 44,
        "channel": 0,
        "type": "noteOn",
        "noteNumber": 63,
        "velocity": 39
      },
      {
        "deltaTime": 0,
        "running": true,
        "channel": 0,
        "type": "noteOff",
        "noteNumber": 65,
        "velocity": 0,
        "byte9": true
      },
      {
        "deltaTime": 4,
        "channel": 0,
        "type": "noteOn",
        "noteNumber": 59,
        "velocity": 44
      },
      {
        "deltaTime": 4,
        "channel": 0,
        "type": "controller",
        "controllerType": 64,
        "value": 0
      },
      {
        "deltaTime": 0,
        "channel": 0,
        "type": "noteOn",
        "noteNumber": 53,
        "velocity": 42
      },
      {
        "deltaTime": 16,
        "channel": 0,
        "type": "noteOn",
        "noteNumber": 67,
        "velocity": 58
      },
      {
        "deltaTime": 36,
        "channel": 0,
        "type": "noteOff",
        "noteNumber": 63,
        "velocity": 0,
        "byte9": true
      },
      {
        "deltaTime": 4,
        "channel": 0,
        "type": "noteOff",
        "noteNumber": 67,
        "velocity": 0,
        "byte9": true
      },
      {
        "deltaTime": 16,
        "channel": 0,
        "type": "noteOff",
        "noteNumber": 53,
        "velocity": 0,
        "byte9": true
      },
      {
        "deltaTime": 8,
        "channel": 0,
        "type": "noteOn",
        "noteNumber": 68,
        "velocity": 77
      },
      {
        "deltaTime": 12,
        "channel": 0,
        "type": "noteOff",
        "noteNumber": 59,
        "velocity": 0,
        "byte9": true
      },
      {
        "deltaTime": 8,
        "channel": 0,
        "type": "controller",
        "controllerType": 64,
        "value": 127
      },
      {
        "deltaTime": 20,
        "channel": 0,
        "type": "noteOff",
        "noteNumber": 68,
        "velocity": 0,
        "byte9": true
      },
      {
        "deltaTime": 16,
        "channel": 0,
        "type": "noteOn",
        "noteNumber": 70,
        "velocity": 79
      },
      {
        "deltaTime": 48,
        "channel": 0,
        "type": "noteOff",
        "noteNumber": 70,
        "velocity": 0,
        "byte9": true
      },
      {
        "deltaTime": 16,
        "channel": 0,
        "type": "noteOn",
        "noteNumber": 72,
        "velocity": 83
      },
      {
        "deltaTime": 32,
        "channel": 0,
        "type": "controller",
        "controllerType": 64,
        "value": 0
      },
      {
        "deltaTime": 8,
        "channel": 0,
        "type": "noteOn",
        "noteNumber": 58,
        "velocity": 40
      },
      {
        "deltaTime": 0,
        "running": true,
        "channel": 0,
        "type": "noteOn",
        "noteNumber": 61,
        "velocity": 52
      },
      {
        "deltaTime": 12,
        "channel": 0,
        "type": "noteOn",
        "noteNumber": 55,
        "velocity": 44
      },
      {
        "deltaTime": 16,
        "channel": 0,
        "type": "noteOff",
        "noteNumber": 72,
        "velocity": 0,
        "byte9": true
      },
      {
        "deltaTime": 4,
        "channel": 0,
        "type": "noteOn",
        "noteNumber": 67,
        "velocity": 34
      },
      {
        "deltaTime": 56,
        "channel": 0,
        "type": "noteOff",
        "noteNumber": 67,
        "velocity": 0,
        "byte9": true
      },
      {
        "deltaTime": 12,
        "channel": 0,
        "type": "noteOn",
        "noteNumber": 68,
        "velocity": 60
      },
      {
        "deltaTime": 4,
        "channel": 0,
        "type": "noteOff",
        "noteNumber": 61,
        "velocity": 0,
        "byte9": true
      },
      {
        "deltaTime": 12,
        "channel": 0,
        "type": "noteOff",
        "noteNumber": 58,
        "velocity": 0,
        "byte9": true
      },
      {
        "deltaTime": 32,
        "channel": 0,
        "type": "noteOff",
        "noteNumber": 68,
        "velocity": 0,
        "byte9": true
      },
      {
        "deltaTime": 8,
        "channel": 0,
        "type": "noteOn",
        "noteNumber": 70,
        "velocity": 54
      },
      {
        "deltaTime": 16,
        "channel": 0,
        "type": "noteOff",
        "noteNumber": 70,
        "velocity": 0,
        "byte9": true
      },
      {
        "deltaTime": 24,
        "channel": 0,
        "type": "noteOn",
        "noteNumber": 58,
        "velocity": 42
      },
      {
        "deltaTime": 16,
        "channel": 0,
        "type": "noteOn",
        "noteNumber": 72,
        "velocity": 60
      },
      {
        "deltaTime": 36,
        "channel": 0,
        "type": "noteOff",
        "noteNumber": 55,
        "velocity": 0,
        "byte9": true
      },
      {
        "deltaTime": 4,
        "channel": 0,
        "type": "controller",
        "controllerType": 64,
        "value": 127
      },
      {
        "deltaTime": 0,
        "channel": 0,
        "type": "noteOff",
        "noteNumber": 72,
        "velocity": 0,
        "byte9": true
      },
      {
        "deltaTime": 24,
        "channel": 0,
        "type": "noteOn",
        "noteNumber": 73,
        "velocity": 43
      },
      {
        "deltaTime": 48,
        "channel": 0,
        "type": "noteOff",
        "noteNumber": 73,
        "velocity": 0,
        "byte9": true
      },
      {
        "deltaTime": 20,
        "channel": 0,
        "type": "noteOff",
        "noteNumber": 58,
        "velocity": 0,
        "byte9": true
      },
      {
        "deltaTime": 0,
        "running": true,
        "channel": 0,
        "type": "noteOn",
        "noteNumber": 75,
        "velocity": 37
      },
      {
        "deltaTime": 16,
        "channel": 0,
        "type": "noteOff",
        "noteNumber": 75,
        "velocity": 0,
        "byte9": true
      },
      {
        "deltaTime": 32,
        "channel": 0,
        "type": "noteOn",
        "noteNumber": 76,
        "velocity": 62
      },
      {
        "deltaTime": 8,
        "channel": 0,
        "type": "controller",
        "controllerType": 64,
        "value": 0
      },
      {
        "deltaTime": 28,
        "channel": 0,
        "type": "noteOff",
        "noteNumber": 76,
        "velocity": 0,
        "byte9": true
      },
      {
        "deltaTime": 8,
        "channel": 0,
        "type": "noteOn",
        "noteNumber": 63,
        "velocity": 48
      },
      {
        "deltaTime": 4,
        "channel": 0,
        "type": "noteOn",
        "noteNumber": 58,
        "velocity": 39
      },
      {
        "deltaTime": 8,
        "channel": 0,
        "type": "noteOn",
        "noteNumber": 78,
        "velocity": 63
      },
      {
        "deltaTime": 4,
        "channel": 0,
        "type": "noteOn",
        "noteNumber": 52,
        "velocity": 39
      },
      {
        "deltaTime": 20,
        "channel": 0,
        "type": "noteOff",
        "noteNumber": 63,
        "velocity": 0,
        "byte9": true
      },
      {
        "deltaTime": 32,
        "channel": 0,
        "type": "noteOff",
        "noteNumber": 78,
        "velocity": 0,
        "byte9": true
      },
      {
        "deltaTime": 16,
        "channel": 0,
        "type": "noteOn",
        "noteNumber": 80,
        "velocity": 31
      },
      {
        "deltaTime": 12,
        "channel": 0,
        "type": "noteOff",
        "noteNumber": 58,
        "velocity": 0,
        "byte9": true
      },
      {
        "deltaTime": 40,
        "channel": 0,
        "type": "noteOff",
        "noteNumber": 80,
        "velocity": 0,
        "byte9": true
      },
      {
        "deltaTime": 0,
        "running": true,
        "channel": 0,
        "type": "noteOn",
        "noteNumber": 82,
        "velocity": 42
      },
      {
        "deltaTime": 16,
        "channel": 0,
        "type": "noteOff",
        "noteNumber": 82,
        "velocity": 0,
        "byte9": true
      },
      {
        "deltaTime": 36,
        "channel": 0,
        "type": "noteOn",
        "noteNumber": 84,
        "velocity": 67
      },
      {
        "deltaTime": 44,
        "channel": 0,
        "type": "noteOn",
        "noteNumber": 63,
        "velocity": 38
      },
      {
        "deltaTime": 0,
        "running": true,
        "channel": 0,
        "type": "noteOff",
        "noteNumber": 84,
        "velocity": 0,
        "byte9": true
      },
      {
        "deltaTime": 4,
        "channel": 0,
        "type": "noteOn",
        "noteNumber": 58,
        "velocity": 42
      },
      {
        "deltaTime": 28,
        "channel": 0,
        "type": "noteOn",
        "noteNumber": 87,
        "velocity": 55
      },
      {
        "deltaTime": 68,
        "channel": 0,
        "type": "noteOff",
        "noteNumber": 87,
        "velocity": 0,
        "byte9": true
      },
      {
        "deltaTime": 32,
        "channel": 0,
        "type": "noteOn",
        "noteNumber": 88,
        "velocity": 57
      },
      {
        "deltaTime": 8,
        "channel": 0,
        "type": "noteOff",
        "noteNumber": 52,
        "velocity": 0,
        "byte9": true
      },
      {
        "deltaTime": 24,
        "channel": 0,
        "type": "noteOff",
        "noteNumber": 88,
        "velocity": 0,
        "byte9": true
      },
      {
        "deltaTime": 4,
        "channel": 0,
        "type": "noteOff",
        "noteNumber": 58,
        "velocity": 0,
        "byte9": true
      },
      {
        "deltaTime": 16,
        "channel": 0,
        "type": "noteOff",
        "noteNumber": 63,
        "velocity": 0,
        "byte9": true
      },
      {
        "deltaTime": 8,
        "channel": 0,
        "type": "noteOn",
        "noteNumber": 91,
        "velocity": 89
      },
      {
        "deltaTime": 0,
        "running": true,
        "channel": 0,
        "type": "noteOn",
        "noteNumber": 93,
        "velocity": 96
      },
      {
        "deltaTime": 40,
        "channel": 0,
        "type": "noteOn",
        "noteNumber": 64,
        "velocity": 39
      },
      {
        "deltaTime": 4,
        "channel": 0,
        "type": "noteOn",
        "noteNumber": 60,
        "velocity": 41
      },
      {
        "deltaTime": 4,
        "channel": 0,
        "type": "noteOn",
        "noteNumber": 56,
        "velocity": 28
      },
      {
        "deltaTime": 4,
        "channel": 0,
        "type": "noteOff",
        "noteNumber": 93,
        "velocity": 0,
        "byte9": true
      },
      {
        "deltaTime": 4,
        "channel": 0,
        "type": "noteOff",
        "noteNumber": 91,
        "velocity": 0,
        "byte9": true
      },
      {
        "deltaTime": 8,
        "channel": 0,
        "type": "noteOn",
        "noteNumber": 53,
        "velocity": 34
      },
      {
        "deltaTime": 0,
        "running": true,
        "channel": 0,
        "type": "noteOn",
        "noteNumber": 88,
        "velocity": 74
      },
      {
        "deltaTime": 36,
        "channel": 0,
        "type": "noteOff",
        "noteNumber": 88,
        "velocity": 0,
        "byte9": true
      },
      {
        "deltaTime": 24,
        "channel": 0,
        "type": "noteOn",
        "noteNumber": 89,
        "velocity": 80
      },
      {
        "deltaTime": 36,
        "channel": 0,
        "type": "noteOff",
        "noteNumber": 60,
        "velocity": 0,
        "byte9": true
      },
      {
        "deltaTime": 52,
        "channel": 0,
        "type": "noteOff",
        "noteNumber": 89,
        "velocity": 0,
        "byte9": true
      },
      {
        "deltaTime": 8,
        "channel": 0,
        "type": "noteOn",
        "noteNumber": 84,
        "velocity": 53
      },
      {
        "deltaTime": 32,
        "channel": 0,
        "type": "noteOff",
        "noteNumber": 64,
        "velocity": 0,
        "byte9": true
      },
      {
        "deltaTime": 0,
        "running": true,
        "channel": 0,
        "type": "noteOff",
        "noteNumber": 84,
        "velocity": 0,
        "byte9": true
      },
      {
        "deltaTime": 52,
        "channel": 0,
        "type": "noteOff",
        "noteNumber": 56,
        "velocity": 0,
        "byte9": true
      },
      {
        "deltaTime": 32,
        "channel": 0,
        "type": "noteOff",
        "noteNumber": 53,
        "velocity": 0,
        "byte9": true
      },
      {
        "deltaTime": 8,
        "channel": 0,
        "type": "noteOn",
        "noteNumber": 80,
        "velocity": 44
      },
      {
        "deltaTime": 48,
        "channel": 0,
        "type": "noteOff",
        "noteNumber": 80,
        "velocity": 0,
        "byte9": true
      },
      {
        "deltaTime": 120,
        "channel": 0,
        "type": "noteOn",
        "noteNumber": 79,
        "velocity": 54
      },
      {
        "deltaTime": 4,
        "channel": 0,
        "type": "noteOn",
        "noteNumber": 60,
        "velocity": 36
      },
      {
        "deltaTime": 4,
        "channel": 0,
        "type": "noteOn",
        "noteNumber": 56,
        "velocity": 31
      },
      {
        "deltaTime": 12,
        "channel": 0,
        "type": "noteOff",
        "noteNumber": 79,
        "velocity": 0,
        "byte9": true
      },
      {
        "deltaTime": 8,
        "channel": 0,
        "type": "noteOff",
        "noteNumber": 60,
        "velocity": 0,
        "byte9": true
      },
      {
        "deltaTime": 36,
        "channel": 0,
        "type": "noteOff",
        "noteNumber": 56,
        "velocity": 0,
        "byte9": true
      },
      {
        "deltaTime": 52,
        "channel": 0,
        "type": "noteOn",
        "noteNumber": 80,
        "velocity": 30
      },
      {
        "deltaTime": 16,
        "channel": 0,
        "type": "noteOff",
        "noteNumber": 80,
        "velocity": 0,
        "byte9": true
      },
      {
        "deltaTime": 16,
        "channel": 0,
        "type": "noteOn",
        "noteNumber": 82,
        "velocity": 62
      },
      {
        "deltaTime": 48,
        "channel": 0,
        "type": "noteOn",
        "noteNumber": 80,
        "velocity": 60
      },
      {
        "deltaTime": 28,
        "channel": 0,
        "type": "noteOff",
        "noteNumber": 82,
        "velocity": 0,
        "byte9": true
      },
      {
        "deltaTime": 28,
        "channel": 0,
        "type": "noteOn",
        "noteNumber": 79,
        "velocity": 67
      },
      {
        "deltaTime": 0,
        "running": true,
        "channel": 0,
        "type": "noteOff",
        "noteNumber": 80,
        "velocity": 0,
        "byte9": true
      },
      {
        "deltaTime": 16,
        "channel": 0,
        "type": "noteOn",
        "noteNumber": 56,
        "velocity": 34
      },
      {
        "deltaTime": 0,
        "running": true,
        "channel": 0,
        "type": "noteOn",
        "noteNumber": 60,
        "velocity": 32
      },
      {
        "deltaTime": 16,
        "channel": 0,
        "type": "noteOn",
        "noteNumber": 53,
        "velocity": 22
      },
      {
        "deltaTime": 8,
        "channel": 0,
        "type": "noteOff",
        "noteNumber": 60,
        "velocity": 0,
        "byte9": true
      },
      {
        "deltaTime": 4,
        "channel": 0,
        "type": "noteOff",
        "noteNumber": 79,
        "velocity": 0,
        "byte9": true
      },
      {
        "deltaTime": 12,
        "channel": 0,
        "type": "noteOff",
        "noteNumber": 53,
        "velocity": 0,
        "byte9": true
      },
      {
        "deltaTime": 24,
        "channel": 0,
        "type": "noteOff",
        "noteNumber": 56,
        "velocity": 0,
        "byte9": true
      },
      {
        "deltaTime": 4,
        "channel": 0,
        "type": "noteOn",
        "noteNumber": 78,
        "velocity": 57
      },
      {
        "deltaTime": 108,
        "channel": 0,
        "type": "noteOff",
        "noteNumber": 78,
        "velocity": 0,
        "byte9": true
      },
      {
        "deltaTime": 32,
        "channel": 0,
        "type": "noteOn",
        "noteNumber": 63,
        "velocity": 57
      },
      {
        "deltaTime": 4,
        "channel": 0,
        "type": "noteOn",
        "noteNumber": 58,
        "velocity": 43
      },
      {
        "deltaTime": 0,
        "running": true,
        "channel": 0,
        "type": "noteOn",
        "noteNumber": 77,
        "velocity": 75
      },
      {
        "deltaTime": 8,
        "channel": 0,
        "type": "noteOn",
        "noteNumber": 52,
        "velocity": 42
      },
      {
        "deltaTime": 32,
        "channel": 0,
        "type": "noteOff",
        "noteNumber": 63,
        "velocity": 0,
        "byte9": true
      },
      {
        "deltaTime": 4,
        "channel": 0,
        "type": "noteOff",
        "noteNumber": 77,
        "velocity": 0,
        "byte9": true
      },
      {
        "deltaTime": 24,
        "channel": 0,
        "type": "noteOff",
        "noteNumber": 52,
        "velocity": 0,
        "byte9": true
      },
      {
        "deltaTime": 20,
        "channel": 0,
        "type": "noteOff",
        "noteNumber": 58,
        "velocity": 0,
        "byte9": true
      },
      {
        "deltaTime": 16,
        "channel": 0,
        "type": "noteOn",
        "noteNumber": 75,
        "velocity": 59
      },
      {
        "deltaTime": 64,
        "channel": 0,
        "type": "noteOff",
        "noteNumber": 75,
        "velocity": 0,
        "byte9": true
      },
      {
        "deltaTime": 76,
        "channel": 0,
        "type": "noteOn",
        "noteNumber": 76,
        "velocity": 91
      },
      {
        "deltaTime": 8,
        "channel": 0,
        "type": "noteOn",
        "noteNumber": 61,
        "velocity": 52
      },
      {
        "deltaTime": 4,
        "channel": 0,
        "type": "noteOn",
        "noteNumber": 58,
        "velocity": 45
      },
      {
        "deltaTime": 0,
        "running": true,
        "channel": 0,
        "type": "noteOn",
        "noteNumber": 64,
        "velocity": 58
      },
      {
        "deltaTime": 52,
        "channel": 0,
        "type": "noteOff",
        "noteNumber": 76,
        "velocity": 0,
        "byte9": true
      },
      {
        "deltaTime": 40,
        "channel": 0,
        "type": "noteOn",
        "noteNumber": 73,
        "velocity": 71
      },
      {
        "deltaTime": 44,
        "channel": 0,
        "type": "noteOff",
        "noteNumber": 64,
        "velocity": 0,
        "byte9": true
      },
      {
        "deltaTime": 4,
        "channel": 0,
        "type": "noteOff",
        "noteNumber": 61,
        "velocity": 0,
        "byte9": true
      },
      {
        "deltaTime": 36,
        "channel": 0,
        "type": "noteOff",
        "noteNumber": 73,
        "velocity": 0,
        "byte9": true
      },
      {
        "deltaTime": 52,
        "channel": 0,
        "type": "noteOn",
        "noteNumber": 61,
        "velocity": 62
      },
      {
        "deltaTime": 4,
        "channel": 0,
        "type": "noteOn",
        "noteNumber": 72,
        "velocity": 74
      },
      {
        "deltaTime": 4,
        "channel": 0,
        "type": "noteOn",
        "noteNumber": 64,
        "velocity": 51
      },
      {
        "deltaTime": 16,
        "channel": 0,
        "type": "noteOff",
        "noteNumber": 64,
        "velocity": 0,
        "byte9": true
      },
      {
        "deltaTime": 16,
        "channel": 0,
        "type": "noteOff",
        "noteNumber": 72,
        "velocity": 0,
        "byte9": true
      },
      {
        "deltaTime": 12,
        "channel": 0,
        "type": "noteOff",
        "noteNumber": 61,
        "velocity": 0,
        "byte9": true
      },
      {
        "deltaTime": 48,
        "channel": 0,
        "type": "noteOn",
        "noteNumber": 70,
        "velocity": 48
      },
      {
        "deltaTime": 4,
        "channel": 0,
        "type": "noteOff",
        "noteNumber": 58,
        "velocity": 0,
        "byte9": true
      },
      {
        "deltaTime": 36,
        "channel": 0,
        "type": "controller",
        "controllerType": 64,
        "value": 127
      },
      {
        "deltaTime": 60,
        "channel": 0,
        "type": "noteOff",
        "noteNumber": 70,
        "velocity": 0,
        "byte9": true
      },
      {
        "deltaTime": 28,
        "channel": 0,
        "type": "noteOn",
        "noteNumber": 68,
        "velocity": 76
      },
      {
        "deltaTime": 8,
        "channel": 0,
        "type": "noteOn",
        "noteNumber": 61,
        "velocity": 51
      },
      {
        "deltaTime": 0,
        "running": true,
        "channel": 0,
        "type": "noteOn",
        "noteNumber": 64,
        "velocity": 60
      },
      {
        "deltaTime": 4,
        "channel": 0,
        "type": "noteOn",
        "noteNumber": 58,
        "velocity": 47
      },
      {
        "deltaTime": 32,
        "channel": 0,
        "type": "controller",
        "controllerType": 64,
        "value": 0
      },
      {
        "deltaTime": 4,
        "channel": 0,
        "type": "noteOff",
        "noteNumber": 64,
        "velocity": 0,
        "byte9": true
      },
      {
        "deltaTime": 4,
        "channel": 0,
        "type": "noteOff",
        "noteNumber": 68,
        "velocity": 0,
        "byte9": true
      },
      {
        "deltaTime": 32,
        "channel": 0,
        "type": "noteOn",
        "noteNumber": 67,
        "velocity": 54
      },
      {
        "deltaTime": 48,
        "channel": 0,
        "type": "controller",
        "controllerType": 64,
        "value": 127
      },
      {
        "deltaTime": 4,
        "channel": 0,
        "type": "noteOff",
        "noteNumber": 61,
        "velocity": 0,
        "byte9": true
      },
      {
        "deltaTime": 20,
        "channel": 0,
        "type": "noteOff",
        "noteNumber": 58,
        "velocity": 0,
        "byte9": true
      },
      {
        "deltaTime": 60,
        "channel": 0,
        "type": "noteOff",
        "noteNumber": 67,
        "velocity": 0,
        "byte9": true
      },
      {
        "deltaTime": 36,
        "channel": 0,
        "type": "noteOn",
        "noteNumber": 64,
        "velocity": 48
      },
      {
        "deltaTime": 40,
        "channel": 0,
        "type": "noteOff",
        "noteNumber": 64,
        "velocity": 0,
        "byte9": true
      },
      {
        "deltaTime": 24,
        "channel": 0,
        "type": "controller",
        "controllerType": 64,
        "value": 0
      },
      {
        "deltaTime": 4,
        "channel": 0,
        "type": "noteOn",
        "noteNumber": 56,
        "velocity": 25
      },
      {
        "deltaTime": 0,
        "running": true,
        "channel": 0,
        "type": "noteOn",
        "noteNumber": 63,
        "velocity": 46
      },
      {
        "deltaTime": 4,
        "channel": 0,
        "type": "noteOn",
        "noteNumber": 67,
        "velocity": 71
      },
      {
        "deltaTime": 4,
        "channel": 0,
        "type": "noteOn",
        "noteNumber": 59,
        "velocity": 50
      },
      {
        "deltaTime": 8,
        "channel": 0,
        "type": "noteOn",
        "noteNumber": 53,
        "velocity": 28
      },
      {
        "deltaTime": 32,
        "channel": 0,
        "type": "controller",
        "controllerType": 64,
        "value": 127
      },
      {
        "deltaTime": 52,
        "channel": 0,
        "type": "noteOff",
        "noteNumber": 59,
        "velocity": 0,
        "byte9": true
      },
      {
        "deltaTime": 4,
        "channel": 0,
        "type": "noteOff",
        "noteNumber": 53,
        "velocity": 0,
        "byte9": true
      },
      {
        "deltaTime": 12,
        "channel": 0,
        "type": "noteOff",
        "noteNumber": 63,
        "velocity": 0,
        "byte9": true
      },
      {
        "deltaTime": 8,
        "channel": 0,
        "type": "noteOff",
        "noteNumber": 56,
        "velocity": 0,
        "byte9": true
      },
      {
        "deltaTime": 24,
        "channel": 0,
        "type": "noteOff",
        "noteNumber": 67,
        "velocity": 0,
        "byte9": true
      },
      {
        "deltaTime": 20,
        "channel": 0,
        "type": "noteOn",
        "noteNumber": 64,
        "velocity": 49
      },
      {
        "deltaTime": 8,
        "channel": 0,
        "type": "noteOn",
        "noteNumber": 59,
        "velocity": 43
      },
      {
        "deltaTime": 0,
        "running": true,
        "channel": 0,
        "type": "noteOn",
        "noteNumber": 63,
        "velocity": 23
      },
      {
        "deltaTime": 20,
        "channel": 0,
        "type": "noteOff",
        "noteNumber": 63,
        "velocity": 0,
        "byte9": true
      },
      {
        "deltaTime": 4,
        "channel": 0,
        "type": "controller",
        "controllerType": 64,
        "value": 0
      },
      {
        "deltaTime": 0,
        "channel": 0,
        "type": "noteOff",
        "noteNumber": 59,
        "velocity": 0,
        "byte9": true
      },
      {
        "deltaTime": 0,
        "running": true,
        "channel": 0,
        "type": "noteOff",
        "noteNumber": 64,
        "velocity": 0,
        "byte9": true
      },
      {
        "deltaTime": 36,
        "channel": 0,
        "type": "noteOn",
        "noteNumber": 63,
        "velocity": 53
      },
      {
        "deltaTime": 8,
        "channel": 0,
        "type": "noteOn",
        "noteNumber": 59,
        "velocity": 58
      },
      {
        "deltaTime": 0,
        "running": true,
        "channel": 0,
        "type": "noteOn",
        "noteNumber": 65,
        "velocity": 71
      },
      {
        "deltaTime": 4,
        "channel": 0,
        "type": "controller",
        "controllerType": 64,
        "value": 127
      },
      {
        "deltaTime": 0,
        "channel": 0,
        "type": "noteOn",
        "noteNumber": 53,
        "velocity": 41
      },
      {
        "deltaTime": 0,
        "running": true,
        "channel": 0,
        "type": "noteOn",
        "noteNumber": 56,
        "velocity": 29
      },
      {
        "deltaTime": 88,
        "channel": 0,
        "type": "noteOff",
        "noteNumber": 53,
        "velocity": 0,
        "byte9": true
      },
      {
        "deltaTime": 12,
        "channel": 0,
        "type": "noteOff",
        "noteNumber": 63,
        "velocity": 0,
        "byte9": true
      },
      {
        "deltaTime": 4,
        "channel": 0,
        "type": "noteOff",
        "noteNumber": 59,
        "velocity": 0,
        "byte9": true
      },
      {
        "deltaTime": 12,
        "channel": 0,
        "type": "noteOff",
        "noteNumber": 56,
        "velocity": 0,
        "byte9": true
      },
      {
        "deltaTime": 8,
        "channel": 0,
        "type": "noteOff",
        "noteNumber": 65,
        "velocity": 0,
        "byte9": true
      },
      {
        "deltaTime": 28,
        "channel": 0,
        "type": "noteOn",
        "noteNumber": 63,
        "velocity": 69
      },
      {
        "deltaTime": 0,
        "running": true,
        "channel": 0,
        "type": "noteOn",
        "noteNumber": 67,
        "velocity": 80
      },
      {
        "deltaTime": 4,
        "channel": 0,
        "type": "noteOn",
        "noteNumber": 56,
        "velocity": 51
      },
      {
        "deltaTime": 4,
        "channel": 0,
        "type": "noteOn",
        "noteNumber": 53,
        "velocity": 60
      },
      {
        "deltaTime": 0,
        "running": true,
        "channel": 0,
        "type": "noteOn",
        "noteNumber": 59,
        "velocity": 61
      },
      {
        "deltaTime": 24,
        "channel": 0,
        "type": "controller",
        "controllerType": 64,
        "value": 0
      },
      {
        "deltaTime": 28,
        "channel": 0,
        "type": "noteOff",
        "noteNumber": 63,
        "velocity": 0,
        "byte9": true
      },
      {
        "deltaTime": 4,
        "channel": 0,
        "type": "noteOff",
        "noteNumber": 53,
        "velocity": 0,
        "byte9": true
      },
      {
        "deltaTime": 12,
        "channel": 0,
        "type": "noteOff",
        "noteNumber": 59,
        "velocity": 0,
        "byte9": true
      },
      {
        "deltaTime": 8,
        "channel": 0,
        "type": "noteOff",
        "noteNumber": 67,
        "velocity": 0,
        "byte9": true
      },
      {
        "deltaTime": 4,
        "channel": 0,
        "type": "controller",
        "controllerType": 64,
        "value": 127
      },
      {
        "deltaTime": 8,
        "channel": 0,
        "type": "noteOn",
        "noteNumber": 63,
        "velocity": 51
      },
      {
        "deltaTime": 8,
        "channel": 0,
        "type": "noteOn",
        "noteNumber": 53,
        "velocity": 33
      },
      {
        "deltaTime": 4,
        "channel": 0,
        "type": "noteOn",
        "noteNumber": 59,
        "velocity": 49
      },
      {
        "deltaTime": 0,
        "running": true,
        "channel": 0,
        "type": "noteOn",
        "noteNumber": 68,
        "velocity": 61
      },
      {
        "deltaTime": 52,
        "channel": 0,
        "type": "noteOff",
        "noteNumber": 63,
        "velocity": 0,
        "byte9": true
      },
      {
        "deltaTime": 4,
        "channel": 0,
        "type": "noteOff",
        "noteNumber": 59,
        "velocity": 0,
        "byte9": true
      },
      {
        "deltaTime": 44,
        "channel": 0,
        "type": "noteOff",
        "noteNumber": 68,
        "velocity": 0,
        "byte9": true
      },
      {
        "deltaTime": 8,
        "channel": 0,
        "type": "noteOff",
        "noteNumber": 53,
        "velocity": 0,
        "byte9": true
      },
      {
        "deltaTime": 0,
        "running": true,
        "channel": 0,
        "type": "noteOff",
        "noteNumber": 56,
        "velocity": 0,
        "byte9": true
      },
      {
        "deltaTime": 24,
        "channel": 0,
        "type": "noteOn",
        "noteNumber": 56,
        "velocity": 17
      },
      {
        "deltaTime": 0,
        "running": true,
        "channel": 0,
        "type": "noteOn",
        "noteNumber": 63,
        "velocity": 60
      },
      {
        "deltaTime": 4,
        "channel": 0,
        "type": "noteOn",
        "noteNumber": 70,
        "velocity": 78
      },
      {
        "deltaTime": 4,
        "channel": 0,
        "type": "noteOn",
        "noteNumber": 59,
        "velocity": 59
      },
      {
        "deltaTime": 20,
        "channel": 0,
        "type": "noteOff",
        "noteNumber": 59,
        "velocity": 0,
        "byte9": true
      },
      {
        "deltaTime": 4,
        "channel": 0,
        "type": "noteOff",
        "noteNumber": 63,
        "velocity": 0,
        "byte9": true
      },
      {
        "deltaTime": 4,
        "channel": 0,
        "type": "controller",
        "controllerType": 64,
        "value": 0
      },
      {
        "deltaTime": 20,
        "channel": 0,
        "type": "noteOff",
        "noteNumber": 70,
        "velocity": 0,
        "byte9": true
      },
      {
        "deltaTime": 16,
        "channel": 0,
        "type": "noteOn",
        "noteNumber": 63,
        "velocity": 57
      },
      {
        "deltaTime": 4,
        "channel": 0,
        "type": "controller",
        "controllerType": 64,
        "value": 127
      },
      {
        "deltaTime": 12,
        "channel": 0,
        "type": "noteOn",
        "noteNumber": 72,
        "velocity": 64
      },
      {
        "deltaTime": 40,
        "channel": 0,
        "type": "noteOff",
        "noteNumber": 56,
        "velocity": 0,
        "byte9": true
      },
      {
        "deltaTime": 8,
        "channel": 0,
        "type": "noteOff",
        "noteNumber": 72,
        "velocity": 0,
        "byte9": true
      },
      {
        "deltaTime": 20,
        "channel": 0,
        "type": "noteOff",
        "noteNumber": 63,
        "velocity": 0,
        "byte9": true
      },
      {
        "deltaTime": 72,
        "channel": 0,
        "type": "noteOn",
        "noteNumber": 73,
        "velocity": 88
      },
      {
        "deltaTime": 4,
        "channel": 0,
        "type": "noteOn",
        "noteNumber": 56,
        "velocity": 58
      },
      {
        "deltaTime": 0,
        "running": true,
        "channel": 0,
        "type": "noteOn",
        "noteNumber": 62,
        "velocity": 57
      },
      {
        "deltaTime": 0,
        "running": true,
        "channel": 0,
        "type": "noteOn",
        "noteNumber": 66,
        "velocity": 69
      },
      {
        "deltaTime": 0,
        "running": true,
        "channel": 0,
        "type": "noteOn",
        "noteNumber": 85,
        "velocity": 85
      },
      {
        "deltaTime": 12,
        "channel": 0,
        "type": "controller",
        "controllerType": 64,
        "value": 0
      },
      {
        "deltaTime": 64,
        "channel": 0,
        "type": "controller",
        "controllerType": 64,
        "value": 127
      },
      {
        "deltaTime": 36,
        "channel": 0,
        "type": "noteOff",
        "noteNumber": 62,
        "velocity": 0,
        "byte9": true
      },
      {
        "deltaTime": 4,
        "channel": 0,
        "type": "noteOff",
        "noteNumber": 73,
        "velocity": 0,
        "byte9": true
      },
      {
        "deltaTime": 4,
        "channel": 0,
        "type": "noteOff",
        "noteNumber": 85,
        "velocity": 0,
        "byte9": true
      },
      {
        "deltaTime": 8,
        "channel": 0,
        "type": "noteOff",
        "noteNumber": 66,
        "velocity": 0,
        "byte9": true
      },
      {
        "deltaTime": 28,
        "channel": 0,
        "type": "noteOn",
        "noteNumber": 66,
        "velocity": 64
      },
      {
        "deltaTime": 0,
        "running": true,
        "channel": 0,
        "type": "noteOn",
        "noteNumber": 70,
        "velocity": 79
      },
      {
        "deltaTime": 4,
        "channel": 0,
        "type": "noteOn",
        "noteNumber": 82,
        "velocity": 69
      },
      {
        "deltaTime": 4,
        "channel": 0,
        "type": "noteOn",
        "noteNumber": 62,
        "velocity": 36
      },
      {
        "deltaTime": 72,
        "channel": 0,
        "type": "noteOff",
        "noteNumber": 70,
        "velocity": 0,
        "byte9": true
      },
      {
        "deltaTime": 20,
        "channel": 0,
        "type": "noteOff",
        "noteNumber": 82,
        "velocity": 0,
        "byte9": true
      },
      {
        "deltaTime": 16,
        "channel": 0,
        "type": "noteOff",
        "noteNumber": 66,
        "velocity": 0,
        "byte9": true
      },
      {
        "deltaTime": 4,
        "channel": 0,
        "type": "noteOff",
        "noteNumber": 56,
        "velocity": 0,
        "byte9": true
      },
      {
        "deltaTime": 4,
        "channel": 0,
        "type": "noteOff",
        "noteNumber": 62,
        "velocity": 0,
        "byte9": true
      },
      {
        "deltaTime": 36,
        "channel": 0,
        "type": "controller",
        "controllerType": 64,
        "value": 0
      },
      {
        "deltaTime": 12,
        "channel": 0,
        "type": "noteOn",
        "noteNumber": 56,
        "velocity": 68
      },
      {
        "deltaTime": 0,
        "running": true,
        "channel": 0,
        "type": "noteOn",
        "noteNumber": 62,
        "velocity": 60
      },
      {
        "deltaTime": 0,
        "running": true,
        "channel": 0,
        "type": "noteOn",
        "noteNumber": 66,
        "velocity": 76
      },
      {
        "deltaTime": 0,
        "running": true,
        "channel": 0,
        "type": "noteOn",
        "noteNumber": 75,
        "velocity": 84
      },
      {
        "deltaTime": 0,
        "running": true,
        "channel": 0,
        "type": "noteOn",
        "noteNumber": 87,
        "velocity": 84
      },
      {
        "deltaTime": 36,
        "channel": 0,
        "type": "controller",
        "controllerType": 64,
        "value": 127
      },
      {
        "deltaTime": 84,
        "channel": 0,
        "type": "noteOff",
        "noteNumber": 62,
        "velocity": 0,
        "byte9": true
      },
      {
        "deltaTime": 4,
        "channel": 0,
        "type": "noteOff",
        "noteNumber": 66,
        "velocity": 0,
        "byte9": true
      },
      {
        "deltaTime": 0,
        "running": true,
        "channel": 0,
        "type": "noteOff",
        "noteNumber": 87,
        "velocity": 0,
        "byte9": true
      },
      {
        "deltaTime": 4,
        "channel": 0,
        "type": "noteOff",
        "noteNumber": 56,
        "velocity": 0,
        "byte9": true
      },
      {
        "deltaTime": 0,
        "running": true,
        "channel": 0,
        "type": "noteOff",
        "noteNumber": 75,
        "velocity": 0,
        "byte9": true
      },
      {
        "deltaTime": 40,
        "channel": 0,
        "type": "noteOn",
        "noteNumber": 56,
        "velocity": 53
      },
      {
        "deltaTime": 0,
        "running": true,
        "channel": 0,
        "type": "noteOn",
        "noteNumber": 62,
        "velocity": 49
      },
      {
        "deltaTime": 0,
        "running": true,
        "channel": 0,
        "type": "noteOn",
        "noteNumber": 66,
        "velocity": 52
      },
      {
        "deltaTime": 4,
        "channel": 0,
        "type": "noteOn",
        "noteNumber": 73,
        "velocity": 71
      },
      {
        "deltaTime": 0,
        "running": true,
        "channel": 0,
        "type": "noteOn",
        "noteNumber": 85,
        "velocity": 77
      },
      {
        "deltaTime": 12,
        "channel": 0,
        "type": "controller",
        "controllerType": 64,
        "value": 0
      },
      {
        "deltaTime": 32,
        "channel": 0,
        "type": "noteOff",
        "noteNumber": 73,
        "velocity": 0,
        "byte9": true
      },
      {
        "deltaTime": 16,
        "channel": 0,
        "type": "controller",
        "controllerType": 64,
        "value": 127
      },
      {
        "deltaTime": 0,
        "channel": 0,
        "type": "noteOff",
        "noteNumber": 85,
        "velocity": 0,
        "byte9": true
      },
      {
        "deltaTime": 16,
        "channel": 0,
        "type": "noteOff",
        "noteNumber": 66,
        "velocity": 0,
        "byte9": true
      },
      {
        "deltaTime": 8,
        "channel": 0,
        "type": "noteOff",
        "noteNumber": 56,
        "velocity": 0,
        "byte9": true
      },
      {
        "deltaTime": 20,
        "channel": 0,
        "type": "noteOff",
        "noteNumber": 62,
        "velocity": 0,
        "byte9": true
      },
      {
        "deltaTime": 32,
        "channel": 0,
        "type": "noteOn",
        "noteNumber": 78,
        "velocity": 74
      },
      {
        "deltaTime": 0,
        "running": true,
        "channel": 0,
        "type": "noteOn",
        "noteNumber": 90,
        "velocity": 77
      },
      {
        "deltaTime": 4,
        "channel": 0,
        "type": "noteOn",
        "noteNumber": 66,
        "velocity": 70
      },
      {
        "deltaTime": 4,
        "channel": 0,
        "type": "noteOn",
        "noteNumber": 56,
        "velocity": 64
      },
      {
        "deltaTime": 0,
        "running": true,
        "channel": 0,
        "type": "noteOn",
        "noteNumber": 62,
        "velocity": 66
      },
      {
        "deltaTime": 44,
        "channel": 0,
        "type": "noteOff",
        "noteNumber": 78,
        "velocity": 0,
        "byte9": true
      },
      {
        "deltaTime": 12,
        "channel": 0,
        "type": "noteOff",
        "noteNumber": 90,
        "velocity": 0,
        "byte9": true
      },
      {
        "deltaTime": 16,
        "channel": 0,
        "type": "noteOff",
        "noteNumber": 62,
        "velocity": 0,
        "byte9": true
      },
      {
        "deltaTime": 24,
        "channel": 0,
        "type": "noteOff",
        "noteNumber": 66,
        "velocity": 0,
        "byte9": true
      },
      {
        "deltaTime": 8,
        "channel": 0,
        "type": "noteOff",
        "noteNumber": 56,
        "velocity": 0,
        "byte9": true
      },
      {
        "deltaTime": 48,
        "channel": 0,
        "type": "controller",
        "controllerType": 64,
        "value": 0
      },
      {
        "deltaTime": 4,
        "channel": 0,
        "type": "noteOn",
        "noteNumber": 66,
        "velocity": 70
      },
      {
        "deltaTime": 4,
        "channel": 0,
        "type": "noteOn",
        "noteNumber": 56,
        "velocity": 67
      },
      {
        "deltaTime": 0,
        "running": true,
        "channel": 0,
        "type": "noteOn",
        "noteNumber": 62,
        "velocity": 66
      },
      {
        "deltaTime": 4,
        "channel": 0,
        "type": "noteOn",
        "noteNumber": 94,
        "velocity": 76
      },
      {
        "deltaTime": 4,
        "channel": 0,
        "type": "noteOn",
        "noteNumber": 82,
        "velocity": 73
      },
      {
        "deltaTime": 16,
        "channel": 0,
        "type": "controller",
        "controllerType": 64,
        "value": 127
      },
      {
        "deltaTime": 40,
        "channel": 0,
        "type": "noteOff",
        "noteNumber": 94,
        "velocity": 0,
        "byte9": true
      },
      {
        "deltaTime": 16,
        "channel": 0,
        "type": "noteOff",
        "noteNumber": 82,
        "velocity": 0,
        "byte9": true
      },
      {
        "deltaTime": 4,
        "channel": 0,
        "type": "noteOff",
        "noteNumber": 66,
        "velocity": 0,
        "byte9": true
      },
      {
        "deltaTime": 36,
        "channel": 0,
        "type": "noteOff",
        "noteNumber": 56,
        "velocity": 0,
        "byte9": true
      },
      {
        "deltaTime": 4,
        "channel": 0,
        "type": "noteOff",
        "noteNumber": 62,
        "velocity": 0,
        "byte9": true
      },
      {
        "deltaTime": 48,
        "channel": 0,
        "type": "noteOn",
        "noteNumber": 62,
        "velocity": 50
      },
      {
        "deltaTime": 0,
        "running": true,
        "channel": 0,
        "type": "noteOn",
        "noteNumber": 65,
        "velocity": 62
      },
      {
        "deltaTime": 4,
        "channel": 0,
        "type": "noteOn",
        "noteNumber": 79,
        "velocity": 63
      },
      {
        "deltaTime": 0,
        "running": true,
        "channel": 0,
        "type": "noteOn",
        "noteNumber": 91,
        "velocity": 71
      },
      {
        "deltaTime": 4,
        "channel": 0,
        "type": "noteOn",
        "noteNumber": 60,
        "velocity": 50
      },
      {
        "deltaTime": 0,
        "running": true,
        "channel": 0,
        "type": "noteOn",
        "noteNumber": 86,
        "velocity": 61
      },
      {
        "deltaTime": 4,
        "channel": 0,
        "type": "noteOn",
        "noteNumber": 55,
        "velocity": 51
      },
      {
        "deltaTime": 16,
        "channel": 0,
        "type": "controller",
        "controllerType": 64,
        "value": 0
      },
      {
        "deltaTime": 60,
        "channel": 0,
        "type": "controller",
        "controllerType": 64,
        "value": 127
      },
      {
        "deltaTime": 20,
        "channel": 0,
        "type": "noteOff",
        "noteNumber": 91,
        "velocity": 0,
        "byte9": true
      },
      {
        "deltaTime": 12,
        "channel": 0,
        "type": "noteOff",
        "noteNumber": 86,
        "velocity": 0,
        "byte9": true
      },
      {
        "deltaTime": 8,
        "channel": 0,
        "type": "noteOff",
        "noteNumber": 79,
        "velocity": 0,
        "byte9": true
      },
      {
        "deltaTime": 264,
        "channel": 0,
        "type": "noteOff",
        "noteNumber": 60,
        "velocity": 0,
        "byte9": true
      },
      {
        "deltaTime": 8,
        "channel": 0,
        "type": "noteOff",
        "noteNumber": 62,
        "velocity": 0,
        "byte9": true
      },
      {
        "deltaTime": 68,
        "channel": 0,
        "type": "noteOn",
        "noteNumber": 60,
        "velocity": 49
      },
      {
        "deltaTime": 4,
        "channel": 0,
        "type": "noteOff",
        "noteNumber": 65,
        "velocity": 0,
        "byte9": true
      },
      {
        "deltaTime": 24,
        "channel": 0,
        "type": "noteOn",
        "noteNumber": 62,
        "velocity": 22
      },
      {
        "deltaTime": 24,
        "channel": 0,
        "type": "noteOff",
        "noteNumber": 62,
        "velocity": 0,
        "byte9": true
      },
      {
        "deltaTime": 16,
        "channel": 0,
        "type": "noteOff",
        "noteNumber": 60,
        "velocity": 0,
        "byte9": true
      },
      {
        "deltaTime": 8,
        "channel": 0,
        "type": "noteOn",
        "noteNumber": 62,
        "velocity": 34
      },
      {
        "deltaTime": 0,
        "running": true,
        "channel": 0,
        "type": "noteOn",
        "noteNumber": 65,
        "velocity": 61
      },
      {
        "deltaTime": 4,
        "channel": 0,
        "type": "noteOn",
        "noteNumber": 89,
        "velocity": 99
      },
      {
        "deltaTime": 4,
        "channel": 0,
        "type": "noteOn",
        "noteNumber": 60,
        "velocity": 18
      },
      {
        "deltaTime": 4,
        "channel": 0,
        "type": "controller",
        "controllerType": 64,
        "value": 0
      },
      {
        "deltaTime": 44,
        "channel": 0,
        "type": "noteOff",
        "noteNumber": 89,
        "velocity": 0,
        "byte9": true
      },
      {
        "deltaTime": 16,
        "channel": 0,
        "type": "noteOn",
        "noteNumber": 86,
        "velocity": 68
      },
      {
        "deltaTime": 20,
        "channel": 0,
        "type": "noteOff",
        "noteNumber": 65,
        "velocity": 0,
        "byte9": true
      },
      {
        "deltaTime": 20,
        "channel": 0,
        "type": "noteOff",
        "noteNumber": 86,
        "velocity": 0,
        "byte9": true
      },
      {
        "deltaTime": 12,
        "channel": 0,
        "type": "noteOff",
        "noteNumber": 62,
        "velocity": 0,
        "byte9": true
      },
      {
        "deltaTime": 12,
        "channel": 0,
        "type": "noteOn",
        "noteNumber": 87,
        "velocity": 74
      },
      {
        "deltaTime": 52,
        "channel": 0,
        "type": "noteOff",
        "noteNumber": 87,
        "velocity": 0,
        "byte9": true
      },
      {
        "deltaTime": 12,
        "channel": 0,
        "type": "noteOn",
        "noteNumber": 89,
        "velocity": 80
      },
      {
        "deltaTime": 4,
        "channel": 0,
        "type": "noteOn",
        "noteNumber": 62,
        "velocity": 20
      },
      {
        "deltaTime": 0,
        "running": true,
        "channel": 0,
        "type": "noteOn",
        "noteNumber": 65,
        "velocity": 58
      },
      {
        "deltaTime": 60,
        "channel": 0,
        "type": "noteOff",
        "noteNumber": 65,
        "velocity": 0,
        "byte9": true
      },
      {
        "deltaTime": 4,
        "channel": 0,
        "type": "noteOn",
        "noteNumber": 84,
        "velocity": 60
      },
      {
        "deltaTime": 0,
        "running": true,
        "channel": 0,
        "type": "noteOn",
        "noteNumber": 86,
        "velocity": 54
      },
      {
        "deltaTime": 4,
        "channel": 0,
        "type": "controller",
        "controllerType": 64,
        "value": 127
      },
      {
        "deltaTime": 0,
        "channel": 0,
        "type": "noteOff",
        "noteNumber": 62,
        "velocity": 0,
        "byte9": true
      },
      {
        "deltaTime": 0,
        "running": true,
        "channel": 0,
        "type": "noteOff",
        "noteNumber": 89,
        "velocity": 0,
        "byte9": true
      },
      {
        "deltaTime": 16,
        "channel": 0,
        "type": "noteOff",
        "noteNumber": 86,
        "velocity": 0,
        "byte9": true
      },
      {
        "deltaTime": 12,
        "channel": 0,
        "type": "noteOff",
        "noteNumber": 84,
        "velocity": 0,
        "byte9": true
      },
      {
        "deltaTime": 16,
        "channel": 0,
        "type": "noteOff",
        "noteNumber": 55,
        "velocity": 0,
        "byte9": true
      },
      {
        "deltaTime": 12,
        "channel": 0,
        "type": "noteOff",
        "noteNumber": 60,
        "velocity": 0,
        "byte9": true
      },
      {
        "deltaTime": 96,
        "channel": 0,
        "type": "noteOn",
        "noteNumber": 79,
        "velocity": 17
      },
      {
        "deltaTime": 28,
        "channel": 0,
        "type": "noteOff",
        "noteNumber": 79,
        "velocity": 0,
        "byte9": true
      },
      {
        "deltaTime": 8,
        "channel": 0,
        "type": "noteOn",
        "noteNumber": 76,
        "velocity": 42
      },
      {
        "deltaTime": 20,
        "channel": 0,
        "type": "noteOff",
        "noteNumber": 76,
        "velocity": 0,
        "byte9": true
      },
      {
        "deltaTime": 8,
        "channel": 0,
        "type": "noteOn",
        "noteNumber": 61,
        "velocity": 53
      },
      {
        "deltaTime": 0,
        "running": true,
        "channel": 0,
        "type": "noteOn",
        "noteNumber": 65,
        "velocity": 50
      },
      {
        "deltaTime": 12,
        "channel": 0,
        "type": "controller",
        "controllerType": 64,
        "value": 0
      },
      {
        "deltaTime": 4,
        "channel": 0,
        "type": "noteOn",
        "noteNumber": 56,
        "velocity": 32
      },
      {
        "deltaTime": 0,
        "running": true,
        "channel": 0,
        "type": "noteOn",
        "noteNumber": 84,
        "velocity": 80
      },
      {
        "deltaTime": 52,
        "channel": 0,
        "type": "noteOn",
        "noteNumber": 60,
        "velocity": 1
      },
      {
        "deltaTime": 8,
        "channel": 0,
        "type": "noteOff",
        "noteNumber": 84,
        "velocity": 0,
        "byte9": true
      },
      {
        "deltaTime": 16,
        "channel": 0,
        "type": "noteOn",
        "noteNumber": 81,
        "velocity": 44
      },
      {
        "deltaTime": 8,
        "channel": 0,
        "type": "noteOff",
        "noteNumber": 65,
        "velocity": 0,
        "byte9": true
      },
      {
        "deltaTime": 36,
        "channel": 0,
        "type": "controller",
        "controllerType": 64,
        "value": 127
      },
      {
        "deltaTime": 8,
        "channel": 0,
        "type": "noteOn",
        "noteNumber": 82,
        "velocity": 68
      },
      {
        "deltaTime": 12,
        "channel": 0,
        "type": "noteOff",
        "noteNumber": 81,
        "velocity": 0,
        "byte9": true
      },
      {
        "deltaTime": 28,
        "channel": 0,
        "type": "noteOff",
        "noteNumber": 82,
        "velocity": 0,
        "byte9": true
      },
      {
        "deltaTime": 20,
        "channel": 0,
        "type": "noteOn",
        "noteNumber": 84,
        "velocity": 80
      },
      {
        "deltaTime": 8,
        "channel": 0,
        "type": "controller",
        "controllerType": 64,
        "value": 0
      },
      {
        "deltaTime": 8,
        "channel": 0,
        "type": "noteOn",
        "noteNumber": 65,
        "velocity": 44
      },
      {
        "deltaTime": 28,
        "channel": 0,
        "type": "noteOff",
        "noteNumber": 84,
        "velocity": 0,
        "byte9": true
      },
      {
        "deltaTime": 28,
        "channel": 0,
        "type": "noteOn",
        "noteNumber": 79,
        "velocity": 71
      },
      {
        "deltaTime": 12,
        "channel": 0,
        "type": "controller",
        "controllerType": 64,
        "value": 127
      },
      {
        "deltaTime": 28,
        "channel": 0,
        "type": "noteOff",
        "noteNumber": 79,
        "velocity": 0,
        "byte9": true
      },
      {
        "deltaTime": 20,
        "channel": 0,
        "type": "noteOff",
        "noteNumber": 65,
        "velocity": 0,
        "byte9": true
      },
      {
        "deltaTime": 36,
        "channel": 0,
        "type": "noteOff",
        "noteNumber": 60,
        "velocity": 0,
        "byte9": true
      },
      {
        "deltaTime": 8,
        "channel": 0,
        "type": "noteOn",
        "noteNumber": 79,
        "velocity": 80
      },
      {
        "deltaTime": 52,
        "channel": 0,
        "type": "noteOff",
        "noteNumber": 61,
        "velocity": 0,
        "byte9": true
      },
      {
        "deltaTime": 12,
        "channel": 0,
        "type": "noteOff",
        "noteNumber": 56,
        "velocity": 0,
        "byte9": true
      },
      {
        "deltaTime": 0,
        "running": true,
        "channel": 0,
        "type": "noteOff",
        "noteNumber": 79,
        "velocity": 0,
        "byte9": true
      },
      {
        "deltaTime": 64,
        "channel": 0,
        "type": "controller",
        "controllerType": 64,
        "value": 0
      },
      {
        "deltaTime": 0,
        "channel": 0,
        "type": "noteOn",
        "noteNumber": 61,
        "velocity": 37
      },
      {
        "deltaTime": 4,
        "channel": 0,
        "type": "noteOn",
        "noteNumber": 55,
        "velocity": 53
      },
      {
        "deltaTime": 0,
        "running": true,
        "channel": 0,
        "type": "noteOn",
        "noteNumber": 64,
        "velocity": 43
      },
      {
        "deltaTime": 124,
        "channel": 0,
        "type": "noteOn",
        "noteNumber": 79,
        "velocity": 71
      },
      {
        "deltaTime": 0,
        "running": true,
        "channel": 0,
        "type": "noteOn",
        "noteNumber": 81,
        "velocity": 71
      },
      {
        "deltaTime": 4,
        "channel": 0,
        "type": "noteOff",
        "noteNumber": 61,
        "velocity": 0,
        "byte9": true
      },
      {
        "deltaTime": 24,
        "channel": 0,
        "type": "noteOn",
        "noteNumber": 61,
        "velocity": 28
      },
      {
        "deltaTime": 16,
        "channel": 0,
        "type": "noteOff",
        "noteNumber": 81,
        "velocity": 0,
        "byte9": true
      },
      {
        "deltaTime": 20,
        "channel": 0,
        "type": "noteOff",
        "noteNumber": 79,
        "velocity": 0,
        "byte9": true
      },
      {
        "deltaTime": 28,
        "channel": 0,
        "type": "noteOff",
        "noteNumber": 64,
        "velocity": 0,
        "byte9": true
      },
      {
        "deltaTime": 24,
        "channel": 0,
        "type": "noteOn",
        "noteNumber": 78,
        "velocity": 62
      },
      {
        "deltaTime": 4,
        "channel": 0,
        "type": "noteOff",
        "noteNumber": 61,
        "velocity": 0,
        "byte9": true
      },
      {
        "deltaTime": 20,
        "channel": 0,
        "type": "noteOff",
        "noteNumber": 55,
        "velocity": 0,
        "byte9": true
      },
      {
        "deltaTime": 8,
        "channel": 0,
        "type": "noteOn",
        "noteNumber": 79,
        "velocity": 66
      },
      {
        "deltaTime": 8,
        "channel": 0,
        "type": "noteOff",
        "noteNumber": 78,
        "velocity": 0,
        "byte9": true
      },
      {
        "deltaTime": 36,
        "channel": 0,
        "type": "noteOn",
        "noteNumber": 78,
        "velocity": 48
      },
      {
        "deltaTime": 12,
        "channel": 0,
        "type": "noteOff",
        "noteNumber": 79,
        "velocity": 0,
        "byte9": true
      },
      {
        "deltaTime": 36,
        "channel": 0,
        "type": "noteOn",
        "noteNumber": 76,
        "velocity": 40
      },
      {
        "deltaTime": 0,
        "running": true,
        "channel": 0,
        "type": "noteOff",
        "noteNumber": 78,
        "velocity": 0,
        "byte9": true
      },
      {
        "deltaTime": 40,
        "channel": 0,
        "type": "noteOff",
        "noteNumber": 76,
        "velocity": 0,
        "byte9": true
      },
      {
        "deltaTime": 8,
        "channel": 0,
        "type": "noteOn",
        "noteNumber": 75,
        "velocity": 56
      },
      {
        "deltaTime": 44,
        "channel": 0,
        "type": "noteOff",
        "noteNumber": 75,
        "velocity": 0,
        "byte9": true
      },
      {
        "deltaTime": 8,
        "channel": 0,
        "type": "noteOn",
        "noteNumber": 74,
        "velocity": 53
      },
      {
        "deltaTime": 12,
        "channel": 0,
        "type": "noteOn",
        "noteNumber": 63,
        "velocity": 25
      },
      {
        "deltaTime": 20,
        "channel": 0,
        "type": "noteOff",
        "noteNumber": 63,
        "velocity": 0,
        "byte9": true
      },
      {
        "deltaTime": 52,
        "channel": 0,
        "type": "noteOn",
        "noteNumber": 71,
        "velocity": 70
      },
      {
        "deltaTime": 16,
        "channel": 0,
        "type": "noteOff",
        "noteNumber": 74,
        "velocity": 0,
        "byte9": true
      },
      {
        "deltaTime": 68,
        "channel": 0,
        "type": "noteOff",
        "noteNumber": 71,
        "velocity": 0,
        "byte9": true
      },
      {
        "deltaTime": 32,
        "channel": 0,
        "type": "noteOn",
        "noteNumber": 63,
        "velocity": 48
      },
      {
        "deltaTime": 0,
        "running": true,
        "channel": 0,
        "type": "noteOn",
        "noteNumber": 67,
        "velocity": 49
      },
      {
        "deltaTime": 4,
        "channel": 0,
        "type": "noteOn",
        "noteNumber": 59,
        "velocity": 35
      },
      {
        "deltaTime": 12,
        "channel": 0,
        "type": "noteOn",
        "noteNumber": 56,
        "velocity": 30
      },
      {
        "deltaTime": 52,
        "channel": 0,
        "type": "noteOff",
        "noteNumber": 67,
        "velocity": 0,
        "byte9": true
      },
      {
        "deltaTime": 8,
        "channel": 0,
        "type": "noteOff",
        "noteNumber": 63,
        "velocity": 0,
        "byte9": true
      },
      {
        "deltaTime": 32,
        "channel": 0,
        "type": "noteOn",
        "noteNumber": 65,
        "velocity": 28
      },
      {
        "deltaTime": 36,
        "channel": 0,
        "type": "controller",
        "controllerType": 64,
        "value": 127
      },
      {
        "deltaTime": 4,
        "channel": 0,
        "type": "noteOff",
        "noteNumber": 59,
        "velocity": 0,
        "byte9": true
      },
      {
        "deltaTime": 52,
        "channel": 0,
        "type": "noteOff",
        "noteNumber": 65,
        "velocity": 0,
        "byte9": true
      },
      {
        "deltaTime": 32,
        "channel": 0,
        "type": "noteOn",
        "noteNumber": 63,
        "velocity": 53
      },
      {
        "deltaTime": 4,
        "channel": 0,
        "type": "noteOn",
        "noteNumber": 70,
        "velocity": 77
      },
      {
        "deltaTime": 48,
        "channel": 0,
        "type": "controller",
        "controllerType": 64,
        "value": 0
      },
      {
        "deltaTime": 8,
        "channel": 0,
        "type": "noteOff",
        "noteNumber": 63,
        "velocity": 0,
        "byte9": true
      },
      {
        "deltaTime": 4,
        "channel": 0,
        "type": "noteOff",
        "noteNumber": 70,
        "velocity": 0,
        "byte9": true
      },
      {
        "deltaTime": 36,
        "channel": 0,
        "type": "noteOn",
        "noteNumber": 68,
        "velocity": 60
      },
      {
        "deltaTime": 28,
        "channel": 0,
        "type": "controller",
        "controllerType": 64,
        "value": 127
      },
      {
        "deltaTime": 76,
        "channel": 0,
        "type": "noteOff",
        "noteNumber": 68,
        "velocity": 0,
        "byte9": true
      },
      {
        "deltaTime": 24,
        "channel": 0,
        "type": "noteOn",
        "noteNumber": 63,
        "velocity": 75
      },
      {
        "deltaTime": 28,
        "channel": 0,
        "type": "controller",
        "controllerType": 64,
        "value": 0
      },
      {
        "deltaTime": 48,
        "channel": 0,
        "type": "noteOff",
        "noteNumber": 63,
        "velocity": 0,
        "byte9": true
      },
      {
        "deltaTime": 8,
        "channel": 0,
        "type": "noteOff",
        "noteNumber": 56,
        "velocity": 0,
        "byte9": true
      },
      {
        "deltaTime": 8,
        "channel": 0,
        "type": "noteOn",
        "noteNumber": 60,
        "velocity": 32
      },
      {
        "deltaTime": 16,
        "channel": 0,
        "type": "controller",
        "controllerType": 64,
        "value": 127
      },
      {
        "deltaTime": 100,
        "channel": 0,
        "type": "noteOff",
        "noteNumber": 60,
        "velocity": 0,
        "byte9": true
      },
      {
        "deltaTime": 20,
        "channel": 0,
        "type": "noteOn",
        "noteNumber": 56,
        "velocity": 38
      },
      {
        "deltaTime": 64,
        "channel": 0,
        "type": "controller",
        "controllerType": 64,
        "value": 0
      },
      {
        "deltaTime": 8,
        "channel": 0,
        "type": "noteOn",
        "noteNumber": 58,
        "velocity": 60
      },
      {
        "deltaTime": 0,
        "running": true,
        "channel": 0,
        "type": "noteOn",
        "noteNumber": 59,
        "velocity": 75
      },
      {
        "deltaTime": 0,
        "running": true,
        "channel": 0,
        "type": "noteOn",
        "noteNumber": 63,
        "velocity": 63
      },
      {
        "deltaTime": 0,
        "running": true,
        "channel": 0,
        "type": "noteOn",
        "noteNumber": 70,
        "velocity": 71
      },
      {
        "deltaTime": 4,
        "channel": 0,
        "type": "noteOn",
        "noteNumber": 65,
        "velocity": 57
      },
      {
        "deltaTime": 16,
        "channel": 0,
        "type": "noteOff",
        "noteNumber": 56,
        "velocity": 0,
        "byte9": true
      },
      {
        "deltaTime": 144,
        "channel": 0,
        "type": "noteOff",
        "noteNumber": 58,
        "velocity": 0,
        "byte9": true
      },
      {
        "deltaTime": 0,
        "running": true,
        "channel": 0,
        "type": "noteOff",
        "noteNumber": 65,
        "velocity": 0,
        "byte9": true
      },
      {
        "deltaTime": 4,
        "channel": 0,
        "type": "noteOff",
        "noteNumber": 59,
        "velocity": 0,
        "byte9": true
      },
      {
        "deltaTime": 12,
        "channel": 0,
        "type": "noteOff",
        "noteNumber": 63,
        "velocity": 0,
        "byte9": true
      },
      {
        "deltaTime": 4,
        "channel": 0,
        "type": "noteOn",
        "noteNumber": 56,
        "velocity": 31
      },
      {
        "deltaTime": 4,
        "channel": 0,
        "type": "noteOff",
        "noteNumber": 70,
        "velocity": 0,
        "byte9": true
      },
      {
        "deltaTime": 48,
        "channel": 0,
        "type": "noteOn",
        "noteNumber": 70,
        "velocity": 64
      },
      {
        "deltaTime": 4,
        "channel": 0,
        "type": "noteOn",
        "noteNumber": 63,
        "velocity": 57
      },
      {
        "deltaTime": 4,
        "channel": 0,
        "type": "noteOn",
        "noteNumber": 58,
        "velocity": 49
      },
      {
        "deltaTime": 0,
        "running": true,
        "channel": 0,
        "type": "noteOn",
        "noteNumber": 59,
        "velocity": 64
      },
      {
        "deltaTime": 8,
        "channel": 0,
        "type": "noteOff",
        "noteNumber": 56,
        "velocity": 0,
        "byte9": true
      },
      {
        "deltaTime": 4,
        "channel": 0,
        "type": "controller",
        "controllerType": 64,
        "value": 127
      },
      {
        "deltaTime": 0,
        "channel": 0,
        "type": "noteOn",
        "noteNumber": 65,
        "velocity": 45
      },
      {
        "deltaTime": 12,
        "channel": 0,
        "type": "noteOn",
        "noteNumber": 68,
        "velocity": 27
      },
      {
        "deltaTime": 40,
        "channel": 0,
        "type": "noteOff",
        "noteNumber": 70,
        "velocity": 0,
        "byte9": true
      },
      {
        "deltaTime": 8,
        "channel": 0,
        "type": "noteOff",
        "noteNumber": 68,
        "velocity": 0,
        "byte9": true
      },
      {
        "deltaTime": 8,
        "channel": 0,
        "type": "noteOff",
        "noteNumber": 65,
        "velocity": 0,
        "byte9": true
      },
      {
        "deltaTime": 12,
        "channel": 0,
        "type": "noteOff",
        "noteNumber": 58,
        "velocity": 0,
        "byte9": true
      },
      {
        "deltaTime": 8,
        "channel": 0,
        "type": "noteOff",
        "noteNumber": 59,
        "velocity": 0,
        "byte9": true
      },
      {
        "deltaTime": 4,
        "channel": 0,
        "type": "noteOff",
        "noteNumber": 63,
        "velocity": 0,
        "byte9": true
      },
      {
        "deltaTime": 64,
        "channel": 0,
        "type": "noteOn",
        "noteNumber": 68,
        "velocity": 65
      },
      {
        "deltaTime": 4,
        "channel": 0,
        "type": "noteOn",
        "noteNumber": 58,
        "velocity": 64
      },
      {
        "deltaTime": 0,
        "running": true,
        "channel": 0,
        "type": "noteOn",
        "noteNumber": 61,
        "velocity": 67
      },
      {
        "deltaTime": 4,
        "channel": 0,
        "type": "noteOn",
        "noteNumber": 56,
        "velocity": 64
      },
      {
        "deltaTime": 0,
        "running": true,
        "channel": 0,
        "type": "noteOn",
        "noteNumber": 64,
        "velocity": 62
      },
      {
        "deltaTime": 12,
        "channel": 0,
        "type": "noteOn",
        "noteNumber": 66,
        "velocity": 28
      },
      {
        "deltaTime": 4,
        "channel": 0,
        "type": "controller",
        "controllerType": 64,
        "value": 0
      },
      {
        "deltaTime": 68,
        "channel": 0,
        "type": "controller",
        "controllerType": 64,
        "value": 127
      },
      {
        "deltaTime": 108,
        "channel": 0,
        "type": "noteOff",
        "noteNumber": 56,
        "velocity": 0,
        "byte9": true
      },
      {
        "deltaTime": 0,
        "running": true,
        "channel": 0,
        "type": "noteOff",
        "noteNumber": 68,
        "velocity": 0,
        "byte9": true
      },
      {
        "deltaTime": 4,
        "channel": 0,
        "type": "noteOff",
        "noteNumber": 61,
        "velocity": 0,
        "byte9": true
      },
      {
        "deltaTime": 0,
        "running": true,
        "channel": 0,
        "type": "noteOff",
        "noteNumber": 64,
        "velocity": 0,
        "byte9": true
      },
      {
        "deltaTime": 8,
        "channel": 0,
        "type": "noteOff",
        "noteNumber": 58,
        "velocity": 0,
        "byte9": true
      },
      {
        "deltaTime": 8,
        "channel": 0,
        "type": "noteOff",
        "noteNumber": 66,
        "velocity": 0,
        "byte9": true
      },
      {
        "deltaTime": 8,
        "channel": 0,
        "type": "noteOn",
        "noteNumber": 54,
        "velocity": 33
      },
      {
        "deltaTime": 4,
        "channel": 0,
        "type": "noteOn",
        "noteNumber": 68,
        "velocity": 48
      },
      {
        "deltaTime": 8,
        "channel": 0,
        "type": "noteOn",
        "noteNumber": 58,
        "velocity": 69
      },
      {
        "deltaTime": 0,
        "running": true,
        "channel": 0,
        "type": "noteOn",
        "noteNumber": 61,
        "velocity": 60
      },
      {
        "deltaTime": 4,
        "channel": 0,
        "type": "noteOn",
        "noteNumber": 64,
        "velocity": 53
      },
      {
        "deltaTime": 4,
        "channel": 0,
        "type": "noteOn",
        "noteNumber": 55,
        "velocity": 79
      },
      {
        "deltaTime": 20,
        "channel": 0,
        "type": "controller",
        "controllerType": 64,
        "value": 0
      },
      {
        "deltaTime": 4,
        "channel": 0,
        "type": "noteOff",
        "noteNumber": 54,
        "velocity": 0,
        "byte9": true
      },
      {
        "deltaTime": 4,
        "channel": 0,
        "type": "noteOff",
        "noteNumber": 68,
        "velocity": 0,
        "byte9": true
      },
      {
        "deltaTime": 8,
        "channel": 0,
        "type": "noteOn",
        "noteNumber": 67,
        "velocity": 57
      },
      {
        "deltaTime": 16,
        "channel": 0,
        "type": "noteOff",
        "noteNumber": 67,
        "velocity": 0,
        "byte9": true
      },
      {
        "deltaTime": 24,
        "channel": 0,
        "type": "noteOn",
        "noteNumber": 67,
        "velocity": 22
      },
      {
        "deltaTime": 12,
        "channel": 0,
        "type": "controller",
        "controllerType": 64,
        "value": 127
      },
      {
        "deltaTime": 44,
        "channel": 0,
        "type": "noteOff",
        "noteNumber": 64,
        "velocity": 0,
        "byte9": true
      },
      {
        "deltaTime": 36,
        "channel": 0,
        "type": "noteOff",
        "noteNumber": 67,
        "velocity": 0,
        "byte9": true
      },
      {
        "deltaTime": 4,
        "channel": 0,
        "type": "noteOff",
        "noteNumber": 58,
        "velocity": 0,
        "byte9": true
      },
      {
        "deltaTime": 12,
        "channel": 0,
        "type": "noteOn",
        "noteNumber": 51,
        "velocity": 31
      },
      {
        "deltaTime": 0,
        "running": true,
        "channel": 0,
        "type": "noteOff",
        "noteNumber": 61,
        "velocity": 0,
        "byte9": true
      },
      {
        "deltaTime": 8,
        "channel": 0,
        "type": "noteOff",
        "noteNumber": 55,
        "velocity": 0,
        "byte9": true
      },
      {
        "deltaTime": 24,
        "channel": 0,
        "type": "noteOff",
        "noteNumber": 51,
        "velocity": 0,
        "byte9": true
      },
      {
        "deltaTime": 8,
        "channel": 0,
        "type": "noteOn",
        "noteNumber": 56,
        "velocity": 81
      },
      {
        "deltaTime": 0,
        "running": true,
        "channel": 0,
        "type": "noteOn",
        "noteNumber": 60,
        "velocity": 82
      },
      {
        "deltaTime": 0,
        "running": true,
        "channel": 0,
        "type": "noteOn",
        "noteNumber": 64,
        "velocity": 64
      },
      {
        "deltaTime": 0,
        "running": true,
        "channel": 0,
        "type": "noteOn",
        "noteNumber": 67,
        "velocity": 68
      },
      {
        "deltaTime": 4,
        "channel": 0,
        "type": "noteOn",
        "noteNumber": 65,
        "velocity": 44
      },
      {
        "deltaTime": 4,
        "channel": 0,
        "type": "noteOn",
        "noteNumber": 55,
        "velocity": 79
      },
      {
        "deltaTime": 24,
        "channel": 0,
        "type": "controller",
        "controllerType": 64,
        "value": 0
      },
      {
        "deltaTime": 160,
        "channel": 0,
        "type": "controller",
        "controllerType": 64,
        "value": 127
      },
      {
        "deltaTime": 16,
        "channel": 0,
        "type": "noteOff",
        "noteNumber": 56,
        "velocity": 0,
        "byte9": true
      },
      {
        "deltaTime": 0,
        "running": true,
        "channel": 0,
        "type": "noteOff",
        "noteNumber": 64,
        "velocity": 0,
        "byte9": true
      },
      {
        "deltaTime": 16,
        "channel": 0,
        "type": "noteOff",
        "noteNumber": 60,
        "velocity": 0,
        "byte9": true
      },
      {
        "deltaTime": 0,
        "running": true,
        "channel": 0,
        "type": "noteOff",
        "noteNumber": 67,
        "velocity": 0,
        "byte9": true
      },
      {
        "deltaTime": 4,
        "channel": 0,
        "type": "noteOff",
        "noteNumber": 65,
        "velocity": 0,
        "byte9": true
      },
      {
        "deltaTime": 8,
        "channel": 0,
        "type": "noteOff",
        "noteNumber": 55,
        "velocity": 0,
        "byte9": true
      },
      {
        "deltaTime": 12,
        "channel": 0,
        "type": "noteOn",
        "noteNumber": 64,
        "velocity": 54
      },
      {
        "deltaTime": 4,
        "channel": 0,
        "type": "noteOn",
        "noteNumber": 52,
        "velocity": 57
      },
      {
        "deltaTime": 4,
        "channel": 0,
        "type": "noteOn",
        "noteNumber": 56,
        "velocity": 23
      },
      {
        "deltaTime": 24,
        "channel": 0,
        "type": "noteOff",
        "noteNumber": 56,
        "velocity": 0,
        "byte9": true
      },
      {
        "deltaTime": 16,
        "channel": 0,
        "type": "controller",
        "controllerType": 64,
        "value": 0
      },
      {
        "deltaTime": 8,
        "channel": 0,
        "type": "noteOff",
        "noteNumber": 64,
        "velocity": 0,
        "byte9": true
      },
      {
        "deltaTime": 32,
        "channel": 0,
        "type": "noteOn",
        "noteNumber": 65,
        "velocity": 55
      },
      {
        "deltaTime": 20,
        "channel": 0,
        "type": "noteOn",
        "noteNumber": 56,
        "velocity": 25
      },
      {
        "deltaTime": 0,
        "running": true,
        "channel": 0,
        "type": "noteOn",
        "noteNumber": 60,
        "velocity": 19
      },
      {
        "deltaTime": 16,
        "channel": 0,
        "type": "noteOn",
        "noteNumber": 64,
        "velocity": 18
      },
      {
        "deltaTime": 24,
        "channel": 0,
        "type": "controller",
        "controllerType": 64,
        "value": 127
      },
      {
        "deltaTime": 8,
        "channel": 0,
        "type": "noteOff",
        "noteNumber": 60,
        "velocity": 0,
        "byte9": true
      },
      {
        "deltaTime": 0,
        "running": true,
        "channel": 0,
        "type": "noteOff",
        "noteNumber": 64,
        "velocity": 0,
        "byte9": true
      },
      {
        "deltaTime": 20,
        "channel": 0,
        "type": "controller",
        "controllerType": 64,
        "value": 0
      },
      {
        "deltaTime": 4,
        "channel": 0,
        "type": "noteOff",
        "noteNumber": 56,
        "velocity": 0,
        "byte9": true
      },
      {
        "deltaTime": 28,
        "channel": 0,
        "type": "noteOff",
        "noteNumber": 65,
        "velocity": 0,
        "byte9": true
      },
      {
        "deltaTime": 4,
        "channel": 0,
        "type": "controller",
        "controllerType": 64,
        "value": 127
      },
      {
        "deltaTime": 4,
        "channel": 0,
        "type": "noteOff",
        "noteNumber": 52,
        "velocity": 0,
        "byte9": true
      },
      {
        "deltaTime": 16,
        "channel": 0,
        "type": "noteOn",
        "noteNumber": 55,
        "velocity": 76
      },
      {
        "deltaTime": 4,
        "channel": 0,
        "type": "noteOn",
        "noteNumber": 67,
        "velocity": 77
      },
      {
        "deltaTime": 4,
        "channel": 0,
        "type": "noteOn",
        "noteNumber": 56,
        "velocity": 76
      },
      {
        "deltaTime": 4,
        "channel": 0,
        "type": "noteOn",
        "noteNumber": 60,
        "velocity": 75
      },
      {
        "deltaTime": 0,
        "running": true,
        "channel": 0,
        "type": "noteOn",
        "noteNumber": 64,
        "velocity": 58
      },
      {
        "deltaTime": 8,
        "channel": 0,
        "type": "noteOn",
        "noteNumber": 65,
        "velocity": 45
      },
      {
        "deltaTime": 16,
        "channel": 0,
        "type": "noteOff",
        "noteNumber": 65,
        "velocity": 0,
        "byte9": true
      },
      {
        "deltaTime": 16,
        "channel": 0,
        "type": "controller",
        "controllerType": 64,
        "value": 0
      },
      {
        "deltaTime": 8,
        "channel": 0,
        "type": "noteOff",
        "noteNumber": 55,
        "velocity": 0,
        "byte9": true
      },
      {
        "deltaTime": 0,
        "running": true,
        "channel": 0,
        "type": "noteOff",
        "noteNumber": 67,
        "velocity": 0,
        "byte9": true
      },
      {
        "deltaTime": 4,
        "channel": 0,
        "type": "noteOff",
        "noteNumber": 56,
        "velocity": 0,
        "byte9": true
      },
      {
        "deltaTime": 0,
        "running": true,
        "channel": 0,
        "type": "noteOff",
        "noteNumber": 64,
        "velocity": 0,
        "byte9": true
      },
      {
        "deltaTime": 8,
        "channel": 0,
        "type": "noteOff",
        "noteNumber": 60,
        "velocity": 0,
        "byte9": true
      },
      {
        "deltaTime": 28,
        "channel": 0,
        "type": "noteOn",
        "noteNumber": 56,
        "velocity": 44
      },
      {
        "deltaTime": 4,
        "channel": 0,
        "type": "noteOn",
        "noteNumber": 60,
        "velocity": 45
      },
      {
        "deltaTime": 0,
        "running": true,
        "channel": 0,
        "type": "noteOn",
        "noteNumber": 65,
        "velocity": 58
      },
      {
        "deltaTime": 8,
        "channel": 0,
        "type": "noteOn",
        "noteNumber": 53,
        "velocity": 55
      },
      {
        "deltaTime": 44,
        "channel": 0,
        "type": "controller",
        "controllerType": 64,
        "value": 127
      },
      {
        "deltaTime": 40,
        "channel": 0,
        "type": "noteOff",
        "noteNumber": 60,
        "velocity": 0,
        "byte9": true
      },
      {
        "deltaTime": 28,
        "channel": 0,
        "type": "noteOff",
        "noteNumber": 56,
        "velocity": 0,
        "byte9": true
      },
      {
        "deltaTime": 40,
        "channel": 0,
        "type": "controller",
        "controllerType": 64,
        "value": 0
      },
      {
        "deltaTime": 0,
        "channel": 0,
        "type": "noteOff",
        "noteNumber": 53,
        "velocity": 0,
        "byte9": true
      },
      {
        "deltaTime": 16,
        "channel": 0,
        "type": "noteOff",
        "noteNumber": 65,
        "velocity": 0,
        "byte9": true
      },
      {
        "deltaTime": 32,
        "channel": 0,
        "type": "noteOn",
        "noteNumber": 48,
        "velocity": 51
      },
      {
        "deltaTime": 0,
        "running": true,
        "channel": 0,
        "type": "noteOn",
        "noteNumber": 56,
        "velocity": 47
      },
      {
        "deltaTime": 4,
        "channel": 0,
        "type": "noteOn",
        "noteNumber": 60,
        "velocity": 64
      },
      {
        "deltaTime": 20,
        "channel": 0,
        "type": "controller",
        "controllerType": 64,
        "value": 127
      },
      {
        "deltaTime": 20,
        "channel": 0,
        "type": "noteOff",
        "noteNumber": 48,
        "velocity": 0,
        "byte9": true
      },
      {
        "deltaTime": 4,
        "channel": 0,
        "type": "noteOff",
        "noteNumber": 56,
        "velocity": 0,
        "byte9": true
      },
      {
        "deltaTime": 16,
        "channel": 0,
        "type": "noteOff",
        "noteNumber": 60,
        "velocity": 0,
        "byte9": true
      },
      {
        "deltaTime": 148,
        "channel": 0,
        "type": "controller",
        "controllerType": 64,
        "value": 0
      },
      {
        "deltaTime": 20,
        "channel": 0,
        "type": "noteOn",
        "noteNumber": 44,
        "velocity": 51
      },
      {
        "deltaTime": 16,
        "channel": 0,
        "type": "noteOn",
        "noteNumber": 74,
        "velocity": 74
      },
      {
        "deltaTime": 8,
        "channel": 0,
        "type": "noteOn",
        "noteNumber": 76,
        "velocity": 29
      },
      {
        "deltaTime": 12,
        "channel": 0,
        "type": "noteOff",
        "noteNumber": 44,
        "velocity": 0,
        "byte9": true
      },
      {
        "deltaTime": 4,
        "channel": 0,
        "type": "controller",
        "controllerType": 64,
        "value": 127
      },
      {
        "deltaTime": 0,
        "channel": 0,
        "type": "noteOff",
        "noteNumber": 76,
        "velocity": 0,
        "byte9": true
      },
      {
        "deltaTime": 44,
        "channel": 0,
        "type": "noteOff",
        "noteNumber": 74,
        "velocity": 0,
        "byte9": true
      },
      {
        "deltaTime": 84,
        "channel": 0,
        "type": "noteOn",
        "noteNumber": 65,
        "velocity": 80
      },
      {
        "deltaTime": 12,
        "channel": 0,
        "type": "noteOn",
        "noteNumber": 60,
        "velocity": 66
      },
      {
        "deltaTime": 4,
        "channel": 0,
        "type": "noteOn",
        "noteNumber": 54,
        "velocity": 48
      },
      {
        "deltaTime": 12,
        "channel": 0,
        "type": "controller",
        "controllerType": 64,
        "value": 0
      },
      {
        "deltaTime": 24,
        "channel": 0,
        "type": "noteOff",
        "noteNumber": 65,
        "velocity": 0,
        "byte9": true
      },
      {
        "deltaTime": 20,
        "channel": 0,
        "type": "controller",
        "controllerType": 64,
        "value": 127
      },
      {
        "deltaTime": 0,
        "channel": 0,
        "type": "noteOn",
        "noteNumber": 70,
        "velocity": 72
      },
      {
        "deltaTime": 52,
        "channel": 0,
        "type": "noteOff",
        "noteNumber": 70,
        "velocity": 0,
        "byte9": true
      },
      {
        "deltaTime": 24,
        "channel": 0,
        "type": "noteOff",
        "noteNumber": 60,
        "velocity": 0,
        "byte9": true
      },
      {
        "deltaTime": 0,
        "running": true,
        "channel": 0,
        "type": "noteOn",
        "noteNumber": 74,
        "velocity": 46
      },
      {
        "deltaTime": 16,
        "channel": 0,
        "type": "noteOff",
        "noteNumber": 74,
        "velocity": 0,
        "byte9": true
      },
      {
        "deltaTime": 16,
        "channel": 0,
        "type": "noteOff",
        "noteNumber": 54,
        "velocity": 0,
        "byte9": true
      },
      {
        "deltaTime": 28,
        "channel": 0,
        "type": "noteOn",
        "noteNumber": 77,
        "velocity": 74
      },
      {
        "deltaTime": 4,
        "channel": 0,
        "type": "noteOn",
        "noteNumber": 54,
        "velocity": 52
      },
      {
        "deltaTime": 0,
        "running": true,
        "channel": 0,
        "type": "noteOn",
        "noteNumber": 65,
        "velocity": 65
      },
      {
        "deltaTime": 8,
        "channel": 0,
        "type": "noteOn",
        "noteNumber": 60,
        "velocity": 64
      },
      {
        "deltaTime": 4,
        "channel": 0,
        "type": "noteOff",
        "noteNumber": 77,
        "velocity": 0,
        "byte9": true
      },
      {
        "deltaTime": 20,
        "channel": 0,
        "type": "noteOff",
        "noteNumber": 65,
        "velocity": 0,
        "byte9": true
      },
      {
        "deltaTime": 20,
        "channel": 0,
        "type": "noteOff",
        "noteNumber": 60,
        "velocity": 0,
        "byte9": true
      },
      {
        "deltaTime": 24,
        "channel": 0,
        "type": "noteOn",
        "noteNumber": 82,
        "velocity": 38
      },
      {
        "deltaTime": 24,
        "channel": 0,
        "type": "noteOn",
        "noteNumber": 60,
        "velocity": 32
      },
      {
        "deltaTime": 12,
        "channel": 0,
        "type": "noteOff",
        "noteNumber": 82,
        "velocity": 0,
        "byte9": true
      },
      {
        "deltaTime": 4,
        "channel": 0,
        "type": "noteOff",
        "noteNumber": 54,
        "velocity": 0,
        "byte9": true
      },
      {
        "deltaTime": 12,
        "channel": 0,
        "type": "noteOff",
        "noteNumber": 60,
        "velocity": 0,
        "byte9": true
      },
      {
        "deltaTime": 20,
        "channel": 0,
        "type": "noteOn",
        "noteNumber": 86,
        "velocity": 63
      },
      {
        "deltaTime": 28,
        "channel": 0,
        "type": "noteOff",
        "noteNumber": 86,
        "velocity": 0,
        "byte9": true
      },
      {
        "deltaTime": 24,
        "channel": 0,
        "type": "noteOn",
        "noteNumber": 54,
        "velocity": 79
      },
      {
        "deltaTime": 0,
        "running": true,
        "channel": 0,
        "type": "noteOn",
        "noteNumber": 60,
        "velocity": 79
      },
      {
        "deltaTime": 0,
        "running": true,
        "channel": 0,
        "type": "noteOn",
        "noteNumber": 65,
        "velocity": 80
      },
      {
        "deltaTime": 4,
        "channel": 0,
        "type": "noteOn",
        "noteNumber": 77,
        "velocity": 95
      },
      {
        "deltaTime": 4,
        "channel": 0,
        "type": "noteOn",
        "noteNumber": 89,
        "velocity": 94
      },
      {
        "deltaTime": 112,
        "channel": 0,
        "type": "noteOff",
        "noteNumber": 77,
        "velocity": 0,
        "byte9": true
      },
      {
        "deltaTime": 0,
        "running": true,
        "channel": 0,
        "type": "noteOff",
        "noteNumber": 89,
        "velocity": 0,
        "byte9": true
      },
      {
        "deltaTime": 4,
        "channel": 0,
        "type": "noteOff",
        "noteNumber": 65,
        "velocity": 0,
        "byte9": true
      },
      {
        "deltaTime": 4,
        "channel": 0,
        "type": "noteOff",
        "noteNumber": 54,
        "velocity": 0,
        "byte9": true
      },
      {
        "deltaTime": 12,
        "channel": 0,
        "type": "noteOff",
        "noteNumber": 60,
        "velocity": 0,
        "byte9": true
      },
      {
        "deltaTime": 44,
        "channel": 0,
        "type": "controller",
        "controllerType": 64,
        "value": 0
      },
      {
        "deltaTime": 4,
        "channel": 0,
        "type": "noteOn",
        "noteNumber": 54,
        "velocity": 76
      },
      {
        "deltaTime": 0,
        "running": true,
        "channel": 0,
        "type": "noteOn",
        "noteNumber": 60,
        "velocity": 72
      },
      {
        "deltaTime": 0,
        "running": true,
        "channel": 0,
        "type": "noteOn",
        "noteNumber": 65,
        "velocity": 82
      },
      {
        "deltaTime": 0,
        "running": true,
        "channel": 0,
        "type": "noteOn",
        "noteNumber": 77,
        "velocity": 94
      },
      {
        "deltaTime": 0,
        "running": true,
        "channel": 0,
        "type": "noteOn",
        "noteNumber": 89,
        "velocity": 92
      },
      {
        "deltaTime": 12,
        "channel": 0,
        "type": "controller",
        "controllerType": 64,
        "value": 127
      },
      {
        "deltaTime": 4,
        "channel": 0,
        "type": "noteOn",
        "noteNumber": 79,
        "velocity": 44
      },
      {
        "deltaTime": 12,
        "channel": 0,
        "type": "noteOff",
        "noteNumber": 79,
        "velocity": 0,
        "byte9": true
      },
      {
        "deltaTime": 56,
        "channel": 0,
        "type": "noteOff",
        "noteNumber": 54,
        "velocity": 0,
        "byte9": true
      },
      {
        "deltaTime": 4,
        "channel": 0,
        "type": "noteOff",
        "noteNumber": 77,
        "velocity": 0,
        "byte9": true
      },
      {
        "deltaTime": 4,
        "channel": 0,
        "type": "noteOff",
        "noteNumber": 60,
        "velocity": 0,
        "byte9": true
      },
      {
        "deltaTime": 4,
        "channel": 0,
        "type": "noteOff",
        "noteNumber": 89,
        "velocity": 0,
        "byte9": true
      },
      {
        "deltaTime": 24,
        "channel": 0,
        "type": "noteOn",
        "noteNumber": 54,
        "velocity": 56
      },
      {
        "deltaTime": 0,
        "running": true,
        "channel": 0,
        "type": "noteOn",
        "noteNumber": 86,
        "velocity": 60
      },
      {
        "deltaTime": 16,
        "channel": 0,
        "type": "noteOn",
        "noteNumber": 60,
        "velocity": 27
      },
      {
        "deltaTime": 4,
        "channel": 0,
        "type": "noteOff",
        "noteNumber": 65,
        "velocity": 0,
        "byte9": true
      },
      {
        "deltaTime": 0,
        "running": true,
        "channel": 0,
        "type": "noteOff",
        "noteNumber": 86,
        "velocity": 0,
        "byte9": true
      },
      {
        "deltaTime": 16,
        "channel": 0,
        "type": "noteOff",
        "noteNumber": 60,
        "velocity": 0,
        "byte9": true
      },
      {
        "deltaTime": 16,
        "channel": 0,
        "type": "noteOff",
        "noteNumber": 54,
        "velocity": 0,
        "byte9": true
      },
      {
        "deltaTime": 24,
        "channel": 0,
        "type": "noteOn",
        "noteNumber": 64,
        "velocity": 75
      },
      {
        "deltaTime": 4,
        "channel": 0,
        "type": "noteOn",
        "noteNumber": 53,
        "velocity": 71
      },
      {
        "deltaTime": 0,
        "running": true,
        "channel": 0,
        "type": "noteOn",
        "noteNumber": 82,
        "velocity": 82
      },
      {
        "deltaTime": 4,
        "channel": 0,
        "type": "controller",
        "controllerType": 64,
        "value": 0
      },
      {
        "deltaTime": 0,
        "channel": 0,
        "type": "noteOn",
        "noteNumber": 59,
        "velocity": 63
      },
      {
        "deltaTime": 0,
        "running": true,
        "channel": 0,
        "type": "noteOn",
        "noteNumber": 94,
        "velocity": 80
      },
      {
        "deltaTime": 76,
        "channel": 0,
        "type": "controller",
        "controllerType": 64,
        "value": 127
      },
      {
        "deltaTime": 32,
        "channel": 0,
        "type": "noteOff",
        "noteNumber": 53,
        "velocity": 0,
        "byte9": true
      },
      {
        "deltaTime": 4,
        "channel": 0,
        "type": "noteOff",
        "noteNumber": 64,
        "velocity": 0,
        "byte9": true
      },
      {
        "deltaTime": 0,
        "running": true,
        "channel": 0,
        "type": "noteOff",
        "noteNumber": 82,
        "velocity": 0,
        "byte9": true
      },
      {
        "deltaTime": 0,
        "running": true,
        "channel": 0,
        "type": "noteOff",
        "noteNumber": 94,
        "velocity": 0,
        "byte9": true
      },
      {
        "deltaTime": 40,
        "channel": 0,
        "type": "noteOn",
        "noteNumber": 53,
        "velocity": 64
      },
      {
        "deltaTime": 0,
        "running": true,
        "channel": 0,
        "type": "noteOn",
        "noteNumber": 64,
        "velocity": 70
      },
      {
        "deltaTime": 0,
        "running": true,
        "channel": 0,
        "type": "noteOn",
        "noteNumber": 94,
        "velocity": 64
      },
      {
        "deltaTime": 4,
        "channel": 0,
        "type": "noteOn",
        "noteNumber": 82,
        "velocity": 74
      },
      {
        "deltaTime": 12,
        "channel": 0,
        "type": "noteOn",
        "noteNumber": 87,
        "velocity": 43
      },
      {
        "deltaTime": 4,
        "channel": 0,
        "type": "controller",
        "controllerType": 64,
        "value": 0
      },
      {
        "deltaTime": 12,
        "channel": 0,
        "type": "noteOff",
        "noteNumber": 87,
        "velocity": 0,
        "byte9": true
      },
      {
        "deltaTime": 16,
        "channel": 0,
        "type": "noteOff",
        "noteNumber": 64,
        "velocity": 0,
        "byte9": true
      },
      {
        "deltaTime": 0,
        "running": true,
        "channel": 0,
        "type": "noteOff",
        "noteNumber": 82,
        "velocity": 0,
        "byte9": true
      },
      {
        "deltaTime": 4,
        "channel": 0,
        "type": "noteOff",
        "noteNumber": 53,
        "velocity": 0,
        "byte9": true
      },
      {
        "deltaTime": 4,
        "channel": 0,
        "type": "noteOff",
        "noteNumber": 94,
        "velocity": 0,
        "byte9": true
      },
      {
        "deltaTime": 20,
        "channel": 0,
        "type": "noteOff",
        "noteNumber": 59,
        "velocity": 0,
        "byte9": true
      },
      {
        "deltaTime": 16,
        "channel": 0,
        "type": "noteOn",
        "noteNumber": 53,
        "velocity": 58
      },
      {
        "deltaTime": 0,
        "running": true,
        "channel": 0,
        "type": "noteOn",
        "noteNumber": 59,
        "velocity": 33
      },
      {
        "deltaTime": 0,
        "running": true,
        "channel": 0,
        "type": "noteOn",
        "noteNumber": 64,
        "velocity": 53
      },
      {
        "deltaTime": 8,
        "channel": 0,
        "type": "noteOn",
        "noteNumber": 92,
        "velocity": 50
      },
      {
        "deltaTime": 8,
        "channel": 0,
        "type": "controller",
        "controllerType": 64,
        "value": 127
      },
      {
        "deltaTime": 0,
        "channel": 0,
        "type": "noteOn",
        "noteNumber": 80,
        "velocity": 45
      },
      {
        "deltaTime": 20,
        "channel": 0,
        "type": "noteOff",
        "noteNumber": 64,
        "velocity": 0,
        "byte9": true
      },
      {
        "deltaTime": 0,
        "running": true,
        "channel": 0,
        "type": "noteOff",
        "noteNumber": 80,
        "velocity": 0,
        "byte9": true
      },
      {
        "deltaTime": 12,
        "channel": 0,
        "type": "noteOff",
        "noteNumber": 53,
        "velocity": 0,
        "byte9": true
      },
      {
        "deltaTime": 0,
        "running": true,
        "channel": 0,
        "type": "noteOff",
        "noteNumber": 59,
        "velocity": 0,
        "byte9": true
      },
      {
        "deltaTime": 4,
        "channel": 0,
        "type": "noteOff",
        "noteNumber": 92,
        "velocity": 0,
        "byte9": true
      },
      {
        "deltaTime": 96,
        "channel": 0,
        "type": "noteOn",
        "noteNumber": 58,
        "velocity": 74
      },
      {
        "deltaTime": 0,
        "running": true,
        "channel": 0,
        "type": "noteOn",
        "noteNumber": 63,
        "velocity": 83
      },
      {
        "deltaTime": 0,
        "running": true,
        "channel": 0,
        "type": "noteOn",
        "noteNumber": 85,
        "velocity": 88
      },
      {
        "deltaTime": 0,
        "running": true,
        "channel": 0,
        "type": "noteOn",
        "noteNumber": 97,
        "velocity": 82
      },
      {
        "deltaTime": 4,
        "channel": 0,
        "type": "noteOn",
        "noteNumber": 52,
        "velocity": 74
      },
      {
        "deltaTime": 4,
        "channel": 0,
        "type": "controller",
        "controllerType": 64,
        "value": 0
      },
      {
        "deltaTime": 0,
        "channel": 0,
        "type": "noteOn",
        "noteNumber": 92,
        "velocity": 71
      },
      {
        "deltaTime": 60,
        "channel": 0,
        "type": "controller",
        "controllerType": 64,
        "value": 127
      },
      {
        "deltaTime": 76,
        "channel": 0,
        "type": "noteOff",
        "noteNumber": 63,
        "velocity": 0,
        "byte9": true
      },
      {
        "deltaTime": 4,
        "channel": 0,
        "type": "noteOff",
        "noteNumber": 52,
        "velocity": 0,
        "byte9": true
      },
      {
        "deltaTime": 0,
        "running": true,
        "channel": 0,
        "type": "noteOff",
        "noteNumber": 58,
        "velocity": 0,
        "byte9": true
      },
      {
        "deltaTime": 0,
        "running": true,
        "channel": 0,
        "type": "noteOff",
        "noteNumber": 85,
        "velocity": 0,
        "byte9": true
      },
      {
        "deltaTime": 4,
        "channel": 0,
        "type": "noteOff",
        "noteNumber": 92,
        "velocity": 0,
        "byte9": true
      },
      {
        "deltaTime": 12,
        "channel": 0,
        "type": "noteOff",
        "noteNumber": 97,
        "velocity": 0,
        "byte9": true
      },
      {
        "deltaTime": 64,
        "channel": 0,
        "type": "noteOn",
        "noteNumber": 63,
        "velocity": 84
      },
      {
        "deltaTime": 0,
        "running": true,
        "channel": 0,
        "type": "noteOn",
        "noteNumber": 87,
        "velocity": 90
      },
      {
        "deltaTime": 0,
        "running": true,
        "channel": 0,
        "type": "noteOn",
        "noteNumber": 99,
        "velocity": 82
      },
      {
        "deltaTime": 4,
        "channel": 0,
        "type": "noteOn",
        "noteNumber": 52,
        "velocity": 80
      },
      {
        "deltaTime": 0,
        "running": true,
        "channel": 0,
        "type": "noteOn",
        "noteNumber": 58,
        "velocity": 74
      },
      {
        "deltaTime": 4,
        "channel": 0,
        "type": "noteOn",
        "noteNumber": 94,
        "velocity": 74
      },
      {
        "deltaTime": 20,
        "channel": 0,
        "type": "controller",
        "controllerType": 64,
        "value": 0
      },
      {
        "deltaTime": 44,
        "channel": 0,
        "type": "controller",
        "controllerType": 64,
        "value": 127
      },
      {
        "deltaTime": 28,
        "channel": 0,
        "type": "noteOff",
        "noteNumber": 52,
        "velocity": 0,
        "byte9": true
      },
      {
        "deltaTime": 0,
        "running": true,
        "channel": 0,
        "type": "noteOff",
        "noteNumber": 99,
        "velocity": 0,
        "byte9": true
      },
      {
        "deltaTime": 4,
        "channel": 0,
        "type": "noteOff",
        "noteNumber": 94,
        "velocity": 0,
        "byte9": true
      },
      {
        "deltaTime": 12,
        "channel": 0,
        "type": "noteOff",
        "noteNumber": 87,
        "velocity": 0,
        "byte9": true
      },
      {
        "deltaTime": 16,
        "channel": 0,
        "type": "noteOff",
        "noteNumber": 58,
        "velocity": 0,
        "byte9": true
      },
      {
        "deltaTime": 0,
        "running": true,
        "channel": 0,
        "type": "noteOff",
        "noteNumber": 63,
        "velocity": 0,
        "byte9": true
      },
      {
        "deltaTime": 196,
        "channel": 0,
        "type": "controller",
        "controllerType": 64,
        "value": 0
      },
      {
        "deltaTime": 60,
        "channel": 0,
        "type": "controller",
        "controllerType": 64,
        "value": 127
      },
      {
        "deltaTime": 88,
        "channel": 0,
        "type": "noteOn",
        "noteNumber": 68,
        "velocity": 73
      },
      {
        "deltaTime": 4,
        "channel": 0,
        "type": "noteOn",
        "noteNumber": 59,
        "velocity": 65
      },
      {
        "deltaTime": 4,
        "channel": 0,
        "type": "noteOn",
        "noteNumber": 63,
        "velocity": 47
      },
      {
        "deltaTime": 0,
        "running": true,
        "channel": 0,
        "type": "noteOn",
        "noteNumber": 73,
        "velocity": 86
      },
      {
        "deltaTime": 0,
        "running": true,
        "channel": 0,
        "type": "noteOn",
        "noteNumber": 77,
        "velocity": 87
      },
      {
        "deltaTime": 0,
        "running": true,
        "channel": 0,
        "type": "noteOn",
        "noteNumber": 80,
        "velocity": 79
      },
      {
        "deltaTime": 4,
        "channel": 0,
        "type": "controller",
        "controllerType": 64,
        "value": 0
      },
      {
        "deltaTime": 56,
        "channel": 0,
        "type": "noteOff",
        "noteNumber": 77,
        "velocity": 0,
        "byte9": true
      },
      {
        "deltaTime": 8,
        "channel": 0,
        "type": "noteOff",
        "noteNumber": 59,
        "velocity": 0,
        "byte9": true
      },
      {
        "deltaTime": 8,
        "channel": 0,
        "type": "noteOff",
        "noteNumber": 73,
        "velocity": 0,
        "byte9": true
      },
      {
        "deltaTime": 8,
        "channel": 0,
        "type": "controller",
        "controllerType": 64,
        "value": 127
      },
      {
        "deltaTime": 0,
        "channel": 0,
        "type": "noteOff",
        "noteNumber": 68,
        "velocity": 0,
        "byte9": true
      },
      {
        "deltaTime": 16,
        "channel": 0,
        "type": "noteOn",
        "noteNumber": 68,
        "velocity": 29
      },
      {
        "deltaTime": 0,
        "running": true,
        "channel": 0,
        "type": "noteOn",
        "noteNumber": 78,
        "velocity": 49
      },
      {
        "deltaTime": 12,
        "channel": 0,
        "type": "noteOn",
        "noteNumber": 59,
        "velocity": 37
      },
      {
        "deltaTime": 0,
        "running": true,
        "channel": 0,
        "type": "noteOn",
        "noteNumber": 73,
        "velocity": 35
      },
      {
        "deltaTime": 0,
        "running": true,
        "channel": 0,
        "type": "noteOff",
        "noteNumber": 80,
        "velocity": 0,
        "byte9": true
      },
      {
        "deltaTime": 24,
        "channel": 0,
        "type": "noteOff",
        "noteNumber": 59,
        "velocity": 0,
        "byte9": true
      },
      {
        "deltaTime": 4,
        "channel": 0,
        "type": "noteOff",
        "noteNumber": 73,
        "velocity": 0,
        "byte9": true
      },
      {
        "deltaTime": 16,
        "channel": 0,
        "type": "noteOff",
        "noteNumber": 68,
        "velocity": 0,
        "byte9": true
      },
      {
        "deltaTime": 4,
        "channel": 0,
        "type": "noteOff",
        "noteNumber": 63,
        "velocity": 0,
        "byte9": true
      },
      {
        "deltaTime": 8,
        "channel": 0,
        "type": "noteOff",
        "noteNumber": 78,
        "velocity": 0,
        "byte9": true
      },
      {
        "deltaTime": 84,
        "channel": 0,
        "type": "noteOn",
        "noteNumber": 79,
        "velocity": 75
      },
      {
        "deltaTime": 4,
        "channel": 0,
        "type": "noteOn",
        "noteNumber": 68,
        "velocity": 70
      },
      {
        "deltaTime": 0,
        "running": true,
        "channel": 0,
        "type": "noteOn",
        "noteNumber": 75,
        "velocity": 63
      },
      {
        "deltaTime": 4,
        "channel": 0,
        "type": "noteOn",
        "noteNumber": 72,
        "velocity": 71
      },
      {
        "deltaTime": 4,
        "channel": 0,
        "type": "noteOn",
        "noteNumber": 67,
        "velocity": 66
      },
      {
        "deltaTime": 4,
        "channel": 0,
        "type": "controller",
        "controllerType": 64,
        "value": 0
      },
      {
        "deltaTime": 12,
        "channel": 0,
        "type": "noteOn",
        "noteNumber": 65,
        "velocity": 32
      },
      {
        "deltaTime": 16,
        "channel": 0,
        "type": "noteOff",
        "noteNumber": 65,
        "velocity": 0,
        "byte9": true
      },
      {
        "deltaTime": 48,
        "channel": 0,
        "type": "controller",
        "controllerType": 64,
        "value": 127
      },
      {
        "deltaTime": 28,
        "channel": 0,
        "type": "noteOff",
        "noteNumber": 79,
        "velocity": 0,
        "byte9": true
      },
      {
        "deltaTime": 20,
        "channel": 0,
        "type": "noteOff",
        "noteNumber": 72,
        "velocity": 0,
        "byte9": true
      },
      {
        "deltaTime": 4,
        "channel": 0,
        "type": "noteOff",
        "noteNumber": 67,
        "velocity": 0,
        "byte9": true
      },
      {
        "deltaTime": 16,
        "channel": 0,
        "type": "noteOff",
        "noteNumber": 68,
        "velocity": 0,
        "byte9": true
      },
      {
        "deltaTime": 20,
        "channel": 0,
        "type": "noteOff",
        "noteNumber": 75,
        "velocity": 0,
        "byte9": true
      },
      {
        "deltaTime": 48,
        "channel": 0,
        "type": "noteOn",
        "noteNumber": 77,
        "velocity": 79
      },
      {
        "deltaTime": 4,
        "channel": 0,
        "type": "noteOn",
        "noteNumber": 68,
        "velocity": 79
      },
      {
        "deltaTime": 4,
        "channel": 0,
        "type": "noteOn",
        "noteNumber": 71,
        "velocity": 73
      },
      {
        "deltaTime": 0,
        "running": true,
        "channel": 0,
        "type": "noteOn",
        "noteNumber": 74,
        "velocity": 65
      },
      {
        "deltaTime": 4,
        "channel": 0,
        "type": "noteOn",
        "noteNumber": 66,
        "velocity": 76
      },
      {
        "deltaTime": 8,
        "channel": 0,
        "type": "noteOn",
        "noteNumber": 56,
        "velocity": 54
      },
      {
        "deltaTime": 8,
        "channel": 0,
        "type": "controller",
        "controllerType": 64,
        "value": 0
      },
      {
        "deltaTime": 64,
        "channel": 0,
        "type": "controller",
        "controllerType": 64,
        "value": 127
      },
      {
        "deltaTime": 24,
        "channel": 0,
        "type": "noteOff",
        "noteNumber": 71,
        "velocity": 0,
        "byte9": true
      },
      {
        "deltaTime": 16,
        "channel": 0,
        "type": "noteOff",
        "noteNumber": 74,
        "velocity": 0,
        "byte9": true
      },
      {
        "deltaTime": 12,
        "channel": 0,
        "type": "noteOff",
        "noteNumber": 66,
        "velocity": 0,
        "byte9": true
      },
      {
        "deltaTime": 0,
        "running": true,
        "channel": 0,
        "type": "noteOff",
        "noteNumber": 68,
        "velocity": 0,
        "byte9": true
      },
      {
        "deltaTime": 36,
        "channel": 0,
        "type": "noteOff",
        "noteNumber": 56,
        "velocity": 0,
        "byte9": true
      },
      {
        "deltaTime": 12,
        "channel": 0,
        "type": "noteOff",
        "noteNumber": 77,
        "velocity": 0,
        "byte9": true
      },
      {
        "deltaTime": 48,
        "channel": 0,
        "type": "noteOn",
        "noteNumber": 55,
        "velocity": 69
      },
      {
        "deltaTime": 0,
        "running": true,
        "channel": 0,
        "type": "noteOn",
        "noteNumber": 74,
        "velocity": 67
      },
      {
        "deltaTime": 4,
        "channel": 0,
        "type": "noteOn",
        "noteNumber": 65,
        "velocity": 48
      },
      {
        "deltaTime": 0,
        "running": true,
        "channel": 0,
        "type": "noteOn",
        "noteNumber": 70,
        "velocity": 77
      },
      {
        "deltaTime": 4,
        "channel": 0,
        "type": "noteOn",
        "noteNumber": 62,
        "velocity": 47
      },
      {
        "deltaTime": 0,
        "running": true,
        "channel": 0,
        "type": "noteOn",
        "noteNumber": 67,
        "velocity": 68
      },
      {
        "deltaTime": 8,
        "channel": 0,
        "type": "controller",
        "controllerType": 64,
        "value": 0
      },
      {
        "deltaTime": 24,
        "channel": 0,
        "type": "noteOff",
        "noteNumber": 65,
        "velocity": 0,
        "byte9": true
      },
      {
        "deltaTime": 8,
        "channel": 0,
        "type": "noteOff",
        "noteNumber": 62,
        "velocity": 0,
        "byte9": true
      },
      {
        "deltaTime": 16,
        "channel": 0,
        "type": "noteOff",
        "noteNumber": 74,
        "velocity": 0,
        "byte9": true
      },
      {
        "deltaTime": 8,
        "channel": 0,
        "type": "controller",
        "controllerType": 64,
        "value": 127
      },
      {
        "deltaTime": 4,
        "channel": 0,
        "type": "noteOff",
        "noteNumber": 55,
        "velocity": 0,
        "byte9": true
      },
      {
        "deltaTime": 8,
        "channel": 0,
        "type": "noteOff",
        "noteNumber": 70,
        "velocity": 0,
        "byte9": true
      },
      {
        "deltaTime": 12,
        "channel": 0,
        "type": "noteOff",
        "noteNumber": 67,
        "velocity": 0,
        "byte9": true
      },
      {
        "deltaTime": 136,
        "channel": 0,
        "type": "noteOn",
        "noteNumber": 70,
        "velocity": 71
      },
      {
        "deltaTime": 4,
        "channel": 0,
        "type": "noteOn",
        "noteNumber": 58,
        "velocity": 77
      },
      {
        "deltaTime": 0,
        "running": true,
        "channel": 0,
        "type": "noteOn",
        "noteNumber": 65,
        "velocity": 71
      },
      {
        "deltaTime": 4,
        "channel": 0,
        "type": "noteOn",
        "noteNumber": 60,
        "velocity": 73
      },
      {
        "deltaTime": 8,
        "channel": 0,
        "type": "noteOn",
        "noteNumber": 68,
        "velocity": 33
      },
      {
        "deltaTime": 8,
        "channel": 0,
        "type": "controller",
        "controllerType": 64,
        "value": 0
      },
      {
        "deltaTime": 8,
        "channel": 0,
        "type": "noteOff",
        "noteNumber": 68,
        "velocity": 0,
        "byte9": true
      },
      {
        "deltaTime": 56,
        "channel": 0,
        "type": "controller",
        "controllerType": 64,
        "value": 127
      },
      {
        "deltaTime": 24,
        "channel": 0,
        "type": "noteOff",
        "noteNumber": 65,
        "velocity": 0,
        "byte9": true
      },
      {
        "deltaTime": 0,
        "running": true,
        "channel": 0,
        "type": "noteOff",
        "noteNumber": 70,
        "velocity": 0,
        "byte9": true
      },
      {
        "deltaTime": 4,
        "channel": 0,
        "type": "noteOff",
        "noteNumber": 58,
        "velocity": 0,
        "byte9": true
      },
      {
        "deltaTime": 16,
        "channel": 0,
        "type": "noteOff",
        "noteNumber": 60,
        "velocity": 0,
        "byte9": true
      },
      {
        "deltaTime": 112,
        "channel": 0,
        "type": "noteOn",
        "noteNumber": 62,
        "velocity": 78
      },
      {
        "deltaTime": 0,
        "running": true,
        "channel": 0,
        "type": "noteOn",
        "noteNumber": 65,
        "velocity": 67
      },
      {
        "deltaTime": 4,
        "channel": 0,
        "type": "noteOn",
        "noteNumber": 55,
        "velocity": 71
      },
      {
        "deltaTime": 0,
        "running": true,
        "channel": 0,
        "type": "noteOn",
        "noteNumber": 58,
        "velocity": 71
      },
      {
        "deltaTime": 8,
        "channel": 0,
        "type": "controller",
        "controllerType": 64,
        "value": 0
      },
      {
        "deltaTime": 44,
        "channel": 0,
        "type": "noteOff",
        "noteNumber": 58,
        "velocity": 0,
        "byte9": true
      },
      {
        "deltaTime": 12,
        "channel": 0,
        "type": "controller",
        "controllerType": 64,
        "value": 127
      },
      {
        "deltaTime": 4,
        "channel": 0,
        "type": "noteOff",
        "noteNumber": 55,
        "velocity": 0,
        "byte9": true
      },
      {
        "deltaTime": 4,
        "channel": 0,
        "type": "noteOff",
        "noteNumber": 62,
        "velocity": 0,
        "byte9": true
      },
      {
        "deltaTime": 4,
        "channel": 0,
        "type": "noteOff",
        "noteNumber": 65,
        "velocity": 0,
        "byte9": true
      },
      {
        "deltaTime": 104,
        "channel": 0,
        "type": "noteOn",
        "noteNumber": 56,
        "velocity": 28
      },
      {
        "deltaTime": 52,
        "channel": 0,
        "type": "noteOn",
        "noteNumber": 66,
        "velocity": 85
      },
      {
        "deltaTime": 0,
        "running": true,
        "channel": 0,
        "type": "noteOn",
        "noteNumber": 77,
        "velocity": 105
      },
      {
        "deltaTime": 0,
        "running": true,
        "channel": 0,
        "type": "noteOn",
        "noteNumber": 84,
        "velocity": 103
      },
      {
        "deltaTime": 4,
        "channel": 0,
        "type": "noteOn",
        "noteNumber": 55,
        "velocity": 85
      },
      {
        "deltaTime": 0,
        "running": true,
        "channel": 0,
        "type": "noteOn",
        "noteNumber": 61,
        "velocity": 69
      },
      {
        "deltaTime": 8,
        "channel": 0,
        "type": "controller",
        "controllerType": 64,
        "value": 0
      },
      {
        "deltaTime": 0,
        "channel": 0,
        "type": "noteOff",
        "noteNumber": 56,
        "velocity": 0,
        "byte9": true
      },
      {
        "deltaTime": 56,
        "channel": 0,
        "type": "controller",
        "controllerType": 64,
        "value": 127
      },
      {
        "deltaTime": 44,
        "channel": 0,
        "type": "noteOff",
        "noteNumber": 55,
        "velocity": 0,
        "byte9": true
      },
      {
        "deltaTime": 20,
        "channel": 0,
        "type": "noteOff",
        "noteNumber": 66,
        "velocity": 0,
        "byte9": true
      },
      {
        "deltaTime": 8,
        "channel": 0,
        "type": "noteOff",
        "noteNumber": 61,
        "velocity": 0,
        "byte9": true
      },
      {
        "deltaTime": 4,
        "channel": 0,
        "type": "noteOff",
        "noteNumber": 77,
        "velocity": 0,
        "byte9": true
      },
      {
        "deltaTime": 12,
        "channel": 0,
        "type": "noteOff",
        "noteNumber": 84,
        "velocity": 0,
        "byte9": true
      },
      {
        "deltaTime": 68,
        "channel": 0,
        "type": "noteOn",
        "noteNumber": 61,
        "velocity": 64
      },
      {
        "deltaTime": 0,
        "running": true,
        "channel": 0,
        "type": "noteOn",
        "noteNumber": 66,
        "velocity": 77
      },
      {
        "deltaTime": 0,
        "running": true,
        "channel": 0,
        "type": "noteOn",
        "noteNumber": 81,
        "velocity": 81
      },
      {
        "deltaTime": 4,
        "channel": 0,
        "type": "noteOn",
        "noteNumber": 55,
        "velocity": 71
      },
      {
        "deltaTime": 4,
        "channel": 0,
        "type": "noteOn",
        "noteNumber": 72,
        "velocity": 79
      },
      {
        "deltaTime": 0,
        "running": true,
        "channel": 0,
        "type": "noteOn",
        "noteNumber": 77,
        "velocity": 80
      },
      {
        "deltaTime": 12,
        "channel": 0,
        "type": "controller",
        "controllerType": 64,
        "value": 0
      },
      {
        "deltaTime": 52,
        "channel": 0,
        "type": "controller",
        "controllerType": 64,
        "value": 127
      },
      {
        "deltaTime": 12,
        "channel": 0,
        "type": "noteOff",
        "noteNumber": 81,
        "velocity": 0,
        "byte9": true
      },
      {
        "deltaTime": 8,
        "channel": 0,
        "type": "noteOff",
        "noteNumber": 77,
        "velocity": 0,
        "byte9": true
      },
      {
        "deltaTime": 8,
        "channel": 0,
        "type": "noteOff",
        "noteNumber": 66,
        "velocity": 0,
        "byte9": true
      },
      {
        "deltaTime": 4,
        "channel": 0,
        "type": "noteOff",
        "noteNumber": 55,
        "velocity": 0,
        "byte9": true
      },
      {
        "deltaTime": 4,
        "channel": 0,
        "type": "noteOff",
        "noteNumber": 72,
        "velocity": 0,
        "byte9": true
      },
      {
        "deltaTime": 52,
        "channel": 0,
        "type": "noteOff",
        "noteNumber": 61,
        "velocity": 0,
        "byte9": true
      },
      {
        "deltaTime": 84,
        "channel": 0,
        "type": "noteOn",
        "noteNumber": 77,
        "velocity": 64
      },
      {
        "deltaTime": 4,
        "channel": 0,
        "type": "noteOn",
        "noteNumber": 55,
        "velocity": 72
      },
      {
        "deltaTime": 0,
        "running": true,
        "channel": 0,
        "type": "noteOn",
        "noteNumber": 61,
        "velocity": 61
      },
      {
        "deltaTime": 0,
        "running": true,
        "channel": 0,
        "type": "noteOn",
        "noteNumber": 69,
        "velocity": 58
      },
      {
        "deltaTime": 0,
        "running": true,
        "channel": 0,
        "type": "noteOn",
        "noteNumber": 72,
        "velocity": 63
      },
      {
        "deltaTime": 4,
        "channel": 0,
        "type": "noteOn",
        "noteNumber": 65,
        "velocity": 64
      },
      {
        "deltaTime": 16,
        "channel": 0,
        "type": "controller",
        "controllerType": 64,
        "value": 0
      },
      {
        "deltaTime": 56,
        "channel": 0,
        "type": "controller",
        "controllerType": 64,
        "value": 127
      },
      {
        "deltaTime": 28,
        "channel": 0,
        "type": "noteOff",
        "noteNumber": 65,
        "velocity": 0,
        "byte9": true
      },
      {
        "deltaTime": 0,
        "running": true,
        "channel": 0,
        "type": "noteOff",
        "noteNumber": 77,
        "velocity": 0,
        "byte9": true
      },
      {
        "deltaTime": 12,
        "channel": 0,
        "type": "noteOff",
        "noteNumber": 72,
        "velocity": 0,
        "byte9": true
      },
      {
        "deltaTime": 24,
        "channel": 0,
        "type": "noteOff",
        "noteNumber": 69,
        "velocity": 0,
        "byte9": true
      },
      {
        "deltaTime": 76,
        "channel": 0,
        "type": "noteOff",
        "noteNumber": 55,
        "velocity": 0,
        "byte9": true
      },
      {
        "deltaTime": 4,
        "channel": 0,
        "type": "noteOff",
        "noteNumber": 61,
        "velocity": 0,
        "byte9": true
      },
      {
        "deltaTime": 96,
        "channel": 0,
        "type": "controller",
        "controllerType": 64,
        "value": 0
      },
      {
        "deltaTime": 4,
        "channel": 0,
        "type": "noteOn",
        "noteNumber": 61,
        "velocity": 53
      },
      {
        "deltaTime": 4,
        "channel": 0,
        "type": "noteOn",
        "noteNumber": 55,
        "velocity": 54
      },
      {
        "deltaTime": 4,
        "channel": 0,
        "type": "noteOn",
        "noteNumber": 65,
        "velocity": 57
      },
      {
        "deltaTime": 4,
        "channel": 0,
        "type": "noteOn",
        "noteNumber": 72,
        "velocity": 48
      },
      {
        "deltaTime": 4,
        "channel": 0,
        "type": "noteOn",
        "noteNumber": 69,
        "velocity": 46
      },
      {
        "deltaTime": 24,
        "channel": 0,
        "type": "controller",
        "controllerType": 64,
        "value": 127
      },
      {
        "deltaTime": 8,
        "channel": 0,
        "type": "noteOff",
        "noteNumber": 61,
        "velocity": 0,
        "byte9": true
      },
      {
        "deltaTime": 16,
        "channel": 0,
        "type": "noteOff",
        "noteNumber": 55,
        "velocity": 0,
        "byte9": true
      },
      {
        "deltaTime": 48,
        "channel": 0,
        "type": "noteOff",
        "noteNumber": 69,
        "velocity": 0,
        "byte9": true
      },
      {
        "deltaTime": 8,
        "channel": 0,
        "type": "noteOff",
        "noteNumber": 65,
        "velocity": 0,
        "byte9": true
      },
      {
        "deltaTime": 64,
        "channel": 0,
        "type": "noteOff",
        "noteNumber": 72,
        "velocity": 0,
        "byte9": true
      },
      {
        "deltaTime": 40,
        "channel": 0,
        "type": "controller",
        "controllerType": 64,
        "value": 0
      },
      {
        "deltaTime": 28,
        "channel": 0,
        "type": "noteOn",
        "noteNumber": 65,
        "velocity": 49
      },
      {
        "deltaTime": 4,
        "channel": 0,
        "type": "controller",
        "controllerType": 64,
        "value": 127
      },
      {
        "deltaTime": 0,
        "channel": 0,
        "type": "noteOn",
        "noteNumber": 60,
        "velocity": 47
      },
      {
        "deltaTime": 0,
        "running": true,
        "channel": 0,
        "type": "noteOn",
        "noteNumber": 69,
        "velocity": 33
      },
      {
        "deltaTime": 8,
        "channel": 0,
        "type": "noteOn",
        "noteNumber": 68,
        "velocity": 21
      },
      {
        "deltaTime": 12,
        "channel": 0,
        "type": "noteOff",
        "noteNumber": 69,
        "velocity": 0,
        "byte9": true
      },
      {
        "deltaTime": 8,
        "channel": 0,
        "type": "noteOff",
        "noteNumber": 68,
        "velocity": 0,
        "byte9": true
      },
      {
        "deltaTime": 4,
        "channel": 0,
        "type": "noteOff",
        "noteNumber": 65,
        "velocity": 0,
        "byte9": true
      },
      {
        "deltaTime": 16,
        "channel": 0,
        "type": "noteOff",
        "noteNumber": 60,
        "velocity": 0,
        "byte9": true
      },
      {
        "deltaTime": 128,
        "channel": 0,
        "type": "noteOn",
        "noteNumber": 59,
        "velocity": 50
      },
      {
        "deltaTime": 0,
        "running": true,
        "channel": 0,
        "type": "noteOn",
        "noteNumber": 63,
        "velocity": 43
      },
      {
        "deltaTime": 0,
        "running": true,
        "channel": 0,
        "type": "noteOn",
        "noteNumber": 70,
        "velocity": 50
      },
      {
        "deltaTime": 4,
        "channel": 0,
        "type": "noteOn",
        "noteNumber": 54,
        "velocity": 39
      },
      {
        "deltaTime": 0,
        "running": true,
        "channel": 0,
        "type": "noteOn",
        "noteNumber": 65,
        "velocity": 39
      },
      {
        "deltaTime": 4,
        "channel": 0,
        "type": "noteOn",
        "noteNumber": 44,
        "velocity": 44
      },
      {
        "deltaTime": 12,
        "channel": 0,
        "type": "controller",
        "controllerType": 64,
        "value": 0
      },
      {
        "deltaTime": 4,
        "channel": 0,
        "type": "noteOn",
        "noteNumber": 68,
        "velocity": 26
      },
      {
        "deltaTime": 40,
        "channel": 0,
        "type": "noteOff",
        "noteNumber": 70,
        "velocity": 0,
        "byte9": true
      },
      {
        "deltaTime": 4,
        "channel": 0,
        "type": "controller",
        "controllerType": 64,
        "value": 127
      },
      {
        "deltaTime": 0,
        "channel": 0,
        "type": "noteOff",
        "noteNumber": 65,
        "velocity": 0,
        "byte9": true
      },
      {
        "deltaTime": 0,
        "running": true,
        "channel": 0,
        "type": "noteOff",
        "noteNumber": 68,
        "velocity": 0,
        "byte9": true
      },
      {
        "deltaTime": 16,
        "channel": 0,
        "type": "noteOff",
        "noteNumber": 63,
        "velocity": 0,
        "byte9": true
      },
      {
        "deltaTime": 16,
        "channel": 0,
        "type": "noteOff",
        "noteNumber": 54,
        "velocity": 0,
        "byte9": true
      },
      {
        "deltaTime": 0,
        "running": true,
        "channel": 0,
        "type": "noteOff",
        "noteNumber": 59,
        "velocity": 0,
        "byte9": true
      },
      {
        "deltaTime": 60,
        "channel": 0,
        "type": "noteOn",
        "noteNumber": 53,
        "velocity": 55
      },
      {
        "deltaTime": 20,
        "channel": 0,
        "type": "noteOff",
        "noteNumber": 53,
        "velocity": 0,
        "byte9": true
      },
      {
        "deltaTime": 0,
        "running": true,
        "channel": 0,
        "type": "noteOn",
        "noteNumber": 54,
        "velocity": 39
      },
      {
        "deltaTime": 44,
        "channel": 0,
        "type": "noteOn",
        "noteNumber": 56,
        "velocity": 42
      },
      {
        "deltaTime": 4,
        "channel": 0,
        "type": "controller",
        "controllerType": 64,
        "value": 0
      },
      {
        "deltaTime": 4,
        "channel": 0,
        "type": "noteOff",
        "noteNumber": 54,
        "velocity": 0,
        "byte9": true
      },
      {
        "deltaTime": 20,
        "channel": 0,
        "type": "noteOn",
        "noteNumber": 58,
        "velocity": 45
      },
      {
        "deltaTime": 4,
        "channel": 0,
        "type": "noteOff",
        "noteNumber": 56,
        "velocity": 0,
        "byte9": true
      },
      {
        "deltaTime": 12,
        "channel": 0,
        "type": "noteOff",
        "noteNumber": 58,
        "velocity": 0,
        "byte9": true
      },
      {
        "deltaTime": 32,
        "channel": 0,
        "type": "noteOn",
        "noteNumber": 59,
        "velocity": 31
      },
      {
        "deltaTime": 16,
        "channel": 0,
        "type": "noteOn",
        "noteNumber": 54,
        "velocity": 8
      },
      {
        "deltaTime": 4,
        "channel": 0,
        "type": "noteOff",
        "noteNumber": 59,
        "velocity": 0,
        "byte9": true
      },
      {
        "deltaTime": 20,
        "channel": 0,
        "type": "noteOn",
        "noteNumber": 61,
        "velocity": 25
      },
      {
        "deltaTime": 24,
        "channel": 0,
        "type": "noteOn",
        "noteNumber": 63,
        "velocity": 52
      },
      {
        "deltaTime": 8,
        "channel": 0,
        "type": "noteOff",
        "noteNumber": 61,
        "velocity": 0,
        "byte9": true
      },
      {
        "deltaTime": 24,
        "channel": 0,
        "type": "noteOff",
        "noteNumber": 63,
        "velocity": 0,
        "byte9": true
      },
      {
        "deltaTime": 20,
        "channel": 0,
        "type": "noteOn",
        "noteNumber": 65,
        "velocity": 55
      },
      {
        "deltaTime": 8,
        "channel": 0,
        "type": "noteOff",
        "noteNumber": 44,
        "velocity": 0,
        "byte9": true
      },
      {
        "deltaTime": 16,
        "channel": 0,
        "type": "noteOff",
        "noteNumber": 65,
        "velocity": 0,
        "byte9": true
      },
      {
        "deltaTime": 12,
        "channel": 0,
        "type": "noteOff",
        "noteNumber": 54,
        "velocity": 0,
        "byte9": true
      },
      {
        "deltaTime": 24,
        "channel": 0,
        "type": "noteOn",
        "noteNumber": 68,
        "velocity": 21
      },
      {
        "deltaTime": 28,
        "channel": 0,
        "type": "noteOff",
        "noteNumber": 68,
        "velocity": 0,
        "byte9": true
      },
      {
        "deltaTime": 0,
        "running": true,
        "channel": 0,
        "type": "noteOn",
        "noteNumber": 70,
        "velocity": 53
      },
      {
        "deltaTime": 20,
        "channel": 0,
        "type": "noteOff",
        "noteNumber": 70,
        "velocity": 0,
        "byte9": true
      },
      {
        "deltaTime": 28,
        "channel": 0,
        "type": "noteOn",
        "noteNumber": 72,
        "velocity": 56
      },
      {
        "deltaTime": 16,
        "channel": 0,
        "type": "noteOff",
        "noteNumber": 72,
        "velocity": 0,
        "byte9": true
      },
      {
        "deltaTime": 20,
        "channel": 0,
        "type": "noteOn",
        "noteNumber": 73,
        "velocity": 51
      },
      {
        "deltaTime": 16,
        "channel": 0,
        "type": "noteOff",
        "noteNumber": 73,
        "velocity": 0,
        "byte9": true
      },
      {
        "deltaTime": 32,
        "channel": 0,
        "type": "noteOn",
        "noteNumber": 75,
        "velocity": 43
      },
      {
        "deltaTime": 16,
        "channel": 0,
        "type": "noteOff",
        "noteNumber": 75,
        "velocity": 0,
        "byte9": true
      },
      {
        "deltaTime": 24,
        "channel": 0,
        "type": "noteOn",
        "noteNumber": 77,
        "velocity": 67
      },
      {
        "deltaTime": 20,
        "channel": 0,
        "type": "noteOff",
        "noteNumber": 77,
        "velocity": 0,
        "byte9": true
      },
      {
        "deltaTime": 20,
        "channel": 0,
        "type": "noteOn",
        "noteNumber": 78,
        "velocity": 37
      },
      {
        "deltaTime": 28,
        "channel": 0,
        "type": "noteOn",
        "noteNumber": 80,
        "velocity": 48
      },
      {
        "deltaTime": 8,
        "channel": 0,
        "type": "noteOff",
        "noteNumber": 78,
        "velocity": 0,
        "byte9": true
      },
      {
        "deltaTime": 16,
        "channel": 0,
        "type": "noteOn",
        "noteNumber": 59,
        "velocity": 37
      },
      {
        "deltaTime": 0,
        "running": true,
        "channel": 0,
        "type": "noteOn",
        "noteNumber": 63,
        "velocity": 37
      },
      {
        "deltaTime": 12,
        "channel": 0,
        "type": "noteOn",
        "noteNumber": 82,
        "velocity": 42
      },
      {
        "deltaTime": 4,
        "channel": 0,
        "type": "noteOn",
        "noteNumber": 53,
        "velocity": 34
      },
      {
        "deltaTime": 4,
        "channel": 0,
        "type": "noteOff",
        "noteNumber": 80,
        "velocity": 0,
        "byte9": true
      },
      {
        "deltaTime": 8,
        "channel": 0,
        "type": "noteOff",
        "noteNumber": 82,
        "velocity": 0,
        "byte9": true
      },
      {
        "deltaTime": 24,
        "channel": 0,
        "type": "noteOn",
        "noteNumber": 83,
        "velocity": 59
      },
      {
        "deltaTime": 36,
        "channel": 0,
        "type": "noteOff",
        "noteNumber": 83,
        "velocity": 0,
        "byte9": true
      },
      {
        "deltaTime": 8,
        "channel": 0,
        "type": "noteOn",
        "noteNumber": 84,
        "velocity": 60
      },
      {
        "deltaTime": 20,
        "channel": 0,
        "type": "noteOff",
        "noteNumber": 84,
        "velocity": 0,
        "byte9": true
      },
      {
        "deltaTime": 4,
        "channel": 0,
        "type": "noteOff",
        "noteNumber": 63,
        "velocity": 0,
        "byte9": true
      },
      {
        "deltaTime": 0,
        "running": true,
        "channel": 0,
        "type": "noteOn",
        "noteNumber": 85,
        "velocity": 48
      },
      {
        "deltaTime": 24,
        "channel": 0,
        "type": "noteOff",
        "noteNumber": 59,
        "velocity": 0,
        "byte9": true
      },
      {
        "deltaTime": 16,
        "channel": 0,
        "type": "noteOff",
        "noteNumber": 85,
        "velocity": 0,
        "byte9": true
      },
      {
        "deltaTime": 20,
        "channel": 0,
        "type": "noteOn",
        "noteNumber": 86,
        "velocity": 19
      },
      {
        "deltaTime": 12,
        "channel": 0,
        "type": "noteOff",
        "noteNumber": 53,
        "velocity": 0,
        "byte9": true
      },
      {
        "deltaTime": 0,
        "running": true,
        "channel": 0,
        "type": "noteOn",
        "noteNumber": 87,
        "velocity": 55
      },
      {
        "deltaTime": 20,
        "channel": 0,
        "type": "noteOff",
        "noteNumber": 86,
        "velocity": 0,
        "byte9": true
      },
      {
        "deltaTime": 20,
        "channel": 0,
        "type": "noteOff",
        "noteNumber": 87,
        "velocity": 0,
        "byte9": true
      },
      {
        "deltaTime": 8,
        "channel": 0,
        "type": "noteOn",
        "noteNumber": 88,
        "velocity": 51
      },
      {
        "deltaTime": 16,
        "channel": 0,
        "type": "noteOff",
        "noteNumber": 88,
        "velocity": 0,
        "byte9": true
      },
      {
        "deltaTime": 24,
        "channel": 0,
        "type": "noteOn",
        "noteNumber": 89,
        "velocity": 79
      },
      {
        "deltaTime": 16,
        "channel": 0,
        "type": "noteOn",
        "noteNumber": 61,
        "velocity": 53
      },
      {
        "deltaTime": 28,
        "channel": 0,
        "type": "noteOff",
        "noteNumber": 61,
        "velocity": 0,
        "byte9": true
      },
      {
        "deltaTime": 8,
        "channel": 0,
        "type": "noteOff",
        "noteNumber": 89,
        "velocity": 0,
        "byte9": true
      },
      {
        "deltaTime": 92,
        "channel": 0,
        "type": "noteOn",
        "noteNumber": 85,
        "velocity": 82
      },
      {
        "deltaTime": 8,
        "channel": 0,
        "type": "noteOn",
        "noteNumber": 61,
        "velocity": 62
      },
      {
        "deltaTime": 4,
        "channel": 0,
        "type": "noteOn",
        "noteNumber": 58,
        "velocity": 43
      },
      {
        "deltaTime": 8,
        "channel": 0,
        "type": "noteOn",
        "noteNumber": 53,
        "velocity": 38
      },
      {
        "deltaTime": 24,
        "channel": 0,
        "type": "noteOff",
        "noteNumber": 53,
        "velocity": 0,
        "byte9": true
      },
      {
        "deltaTime": 0,
        "running": true,
        "channel": 0,
        "type": "noteOff",
        "noteNumber": 61,
        "velocity": 0,
        "byte9": true
      },
      {
        "deltaTime": 20,
        "channel": 0,
        "type": "noteOff",
        "noteNumber": 85,
        "velocity": 0,
        "byte9": true
      },
      {
        "deltaTime": 4,
        "channel": 0,
        "type": "noteOff",
        "noteNumber": 58,
        "velocity": 0,
        "byte9": true
      },
      {
        "deltaTime": 20,
        "channel": 0,
        "type": "noteOn",
        "noteNumber": 61,
        "velocity": 44
      },
      {
        "deltaTime": 12,
        "channel": 0,
        "type": "noteOn",
        "noteNumber": 58,
        "velocity": 19
      },
      {
        "deltaTime": 0,
        "running": true,
        "channel": 0,
        "type": "noteOn",
        "noteNumber": 82,
        "velocity": 50
      },
      {
        "deltaTime": 4,
        "channel": 0,
        "type": "noteOn",
        "noteNumber": 53,
        "velocity": 40
      },
      {
        "deltaTime": 12,
        "channel": 0,
        "type": "controller",
        "controllerType": 64,
        "value": 127
      },
      {
        "deltaTime": 24,
        "channel": 0,
        "type": "noteOff",
        "noteNumber": 61,
        "velocity": 0,
        "byte9": true
      },
      {
        "deltaTime": 8,
        "channel": 0,
        "type": "noteOff",
        "noteNumber": 53,
        "velocity": 0,
        "byte9": true
      },
      {
        "deltaTime": 4,
        "channel": 0,
        "type": "noteOff",
        "noteNumber": 58,
        "velocity": 0,
        "byte9": true
      },
      {
        "deltaTime": 64,
        "channel": 0,
        "type": "noteOff",
        "noteNumber": 82,
        "velocity": 0,
        "byte9": true
      },
      {
        "deltaTime": 24,
        "channel": 0,
        "type": "noteOn",
        "noteNumber": 58,
        "velocity": 58
      },
      {
        "deltaTime": 48,
        "channel": 0,
        "type": "noteOff",
        "noteNumber": 58,
        "velocity": 0,
        "byte9": true
      },
      {
        "deltaTime": 12,
        "channel": 0,
        "type": "controller",
        "controllerType": 64,
        "value": 0
      },
      {
        "deltaTime": 16,
        "channel": 0,
        "type": "noteOn",
        "noteNumber": 63,
        "velocity": 68
      },
      {
        "deltaTime": 4,
        "channel": 0,
        "type": "noteOn",
        "noteNumber": 58,
        "velocity": 52
      },
      {
        "deltaTime": 0,
        "running": true,
        "channel": 0,
        "type": "noteOn",
        "noteNumber": 84,
        "velocity": 50
      },
      {
        "deltaTime": 4,
        "channel": 0,
        "type": "noteOn",
        "noteNumber": 52,
        "velocity": 61
      },
      {
        "deltaTime": 4,
        "channel": 0,
        "type": "noteOn",
        "noteNumber": 72,
        "velocity": 45
      },
      {
        "deltaTime": 12,
        "channel": 0,
        "type": "controller",
        "controllerType": 64,
        "value": 127
      },
      {
        "deltaTime": 56,
        "channel": 0,
        "type": "noteOff",
        "noteNumber": 52,
        "velocity": 0,
        "byte9": true
      },
      {
        "deltaTime": 0,
        "running": true,
        "channel": 0,
        "type": "noteOff",
        "noteNumber": 72,
        "velocity": 0,
        "byte9": true
      },
      {
        "deltaTime": 0,
        "running": true,
        "channel": 0,
        "type": "noteOff",
        "noteNumber": 84,
        "velocity": 0,
        "byte9": true
      },
      {
        "deltaTime": 8,
        "channel": 0,
        "type": "noteOff",
        "noteNumber": 63,
        "velocity": 0,
        "byte9": true
      },
      {
        "deltaTime": 16,
        "channel": 0,
        "type": "noteOff",
        "noteNumber": 58,
        "velocity": 0,
        "byte9": true
      },
      {
        "deltaTime": 72,
        "channel": 0,
        "type": "noteOn",
        "noteNumber": 58,
        "velocity": 54
      },
      {
        "deltaTime": 0,
        "running": true,
        "channel": 0,
        "type": "noteOn",
        "noteNumber": 63,
        "velocity": 60
      },
      {
        "deltaTime": 0,
        "running": true,
        "channel": 0,
        "type": "noteOn",
        "noteNumber": 73,
        "velocity": 50
      },
      {
        "deltaTime": 4,
        "channel": 0,
        "type": "noteOn",
        "noteNumber": 52,
        "velocity": 53
      },
      {
        "deltaTime": 0,
        "running": true,
        "channel": 0,
        "type": "noteOn",
        "noteNumber": 85,
        "velocity": 68
      },
      {
        "deltaTime": 8,
        "channel": 0,
        "type": "noteOff",
        "noteNumber": 63,
        "velocity": 0,
        "byte9": true
      },
      {
        "deltaTime": 4,
        "channel": 0,
        "type": "noteOff",
        "noteNumber": 73,
        "velocity": 0,
        "byte9": true
      },
      {
        "deltaTime": 0,
        "running": true,
        "channel": 0,
        "type": "noteOff",
        "noteNumber": 85,
        "velocity": 0,
        "byte9": true
      },
      {
        "deltaTime": 4,
        "channel": 0,
        "type": "noteOff",
        "noteNumber": 52,
        "velocity": 0,
        "byte9": true
      },
      {
        "deltaTime": 16,
        "channel": 0,
        "type": "noteOff",
        "noteNumber": 58,
        "velocity": 0,
        "byte9": true
      },
      {
        "deltaTime": 8,
        "channel": 0,
        "type": "controller",
        "controllerType": 64,
        "value": 0
      },
      {
        "deltaTime": 36,
        "channel": 0,
        "type": "noteOn",
        "noteNumber": 52,
        "velocity": 80
      },
      {
        "deltaTime": 0,
        "running": true,
        "channel": 0,
        "type": "noteOn",
        "noteNumber": 58,
        "velocity": 67
      },
      {
        "deltaTime": 0,
        "running": true,
        "channel": 0,
        "type": "noteOn",
        "noteNumber": 63,
        "velocity": 76
      },
      {
        "deltaTime": 0,
        "running": true,
        "channel": 0,
        "type": "noteOn",
        "noteNumber": 75,
        "velocity": 84
      },
      {
        "deltaTime": 0,
        "running": true,
        "channel": 0,
        "type": "noteOn",
        "noteNumber": 87,
        "velocity": 87
      },
      {
        "deltaTime": 4,
        "channel": 0,
        "type": "controller",
        "controllerType": 64,
        "value": 127
      },
      {
        "deltaTime": 72,
        "channel": 0,
        "type": "noteOff",
        "noteNumber": 87,
        "velocity": 0,
        "byte9": true
      },
      {
        "deltaTime": 16,
        "channel": 0,
        "type": "noteOff",
        "noteNumber": 52,
        "velocity": 0,
        "byte9": true
      },
      {
        "deltaTime": 4,
        "channel": 0,
        "type": "noteOff",
        "noteNumber": 75,
        "velocity": 0,
        "byte9": true
      },
      {
        "deltaTime": 24,
        "channel": 0,
        "type": "noteOff",
        "noteNumber": 63,
        "velocity": 0,
        "byte9": true
      },
      {
        "deltaTime": 8,
        "channel": 0,
        "type": "noteOff",
        "noteNumber": 58,
        "velocity": 0,
        "byte9": true
      },
      {
        "deltaTime": 36,
        "channel": 0,
        "type": "noteOn",
        "noteNumber": 63,
        "velocity": 74
      },
      {
        "deltaTime": 4,
        "channel": 0,
        "type": "noteOn",
        "noteNumber": 60,
        "velocity": 75
      },
      {
        "deltaTime": 0,
        "running": true,
        "channel": 0,
        "type": "noteOn",
        "noteNumber": 80,
        "velocity": 78
      },
      {
        "deltaTime": 4,
        "channel": 0,
        "type": "noteOn",
        "noteNumber": 53,
        "velocity": 75
      },
      {
        "deltaTime": 0,
        "running": true,
        "channel": 0,
        "type": "noteOn",
        "noteNumber": 56,
        "velocity": 62
      },
      {
        "deltaTime": 0,
        "running": true,
        "channel": 0,
        "type": "noteOn",
        "noteNumber": 92,
        "velocity": 84
      },
      {
        "deltaTime": 4,
        "channel": 0,
        "type": "noteOn",
        "noteNumber": 82,
        "velocity": 67
      },
      {
        "deltaTime": 16,
        "channel": 0,
        "type": "noteOff",
        "noteNumber": 82,
        "velocity": 0,
        "byte9": true
      },
      {
        "deltaTime": 4,
        "channel": 0,
        "type": "controller",
        "controllerType": 64,
        "value": 0
      },
      {
        "deltaTime": 64,
        "channel": 0,
        "type": "controller",
        "controllerType": 64,
        "value": 127
      },
      {
        "deltaTime": 120,
        "channel": 0,
        "type": "noteOff",
        "noteNumber": 60,
        "velocity": 0,
        "byte9": true
      },
      {
        "deltaTime": 20,
        "channel": 0,
        "type": "noteOff",
        "noteNumber": 56,
        "velocity": 0,
        "byte9": true
      },
      {
        "deltaTime": 4,
        "channel": 0,
        "type": "noteOff",
        "noteNumber": 63,
        "velocity": 0,
        "byte9": true
      },
      {
        "deltaTime": 4,
        "channel": 0,
        "type": "noteOff",
        "noteNumber": 53,
        "velocity": 0,
        "byte9": true
      },
      {
        "deltaTime": 4,
        "channel": 0,
        "type": "noteOff",
        "noteNumber": 92,
        "velocity": 0,
        "byte9": true
      },
      {
        "deltaTime": 20,
        "channel": 0,
        "type": "noteOff",
        "noteNumber": 80,
        "velocity": 0,
        "byte9": true
      },
      {
        "deltaTime": 20,
        "channel": 0,
        "type": "controller",
        "controllerType": 64,
        "value": 0
      },
      {
        "deltaTime": 16,
        "channel": 0,
        "type": "noteOn",
        "noteNumber": 60,
        "velocity": 62
      },
      {
        "deltaTime": 0,
        "running": true,
        "channel": 0,
        "type": "noteOn",
        "noteNumber": 63,
        "velocity": 51
      },
      {
        "deltaTime": 4,
        "channel": 0,
        "type": "noteOn",
        "noteNumber": 79,
        "velocity": 62
      },
      {
        "deltaTime": 0,
        "running": true,
        "channel": 0,
        "type": "noteOn",
        "noteNumber": 91,
        "velocity": 58
      },
      {
        "deltaTime": 4,
        "channel": 0,
        "type": "noteOn",
        "noteNumber": 53,
        "velocity": 41
      },
      {
        "deltaTime": 0,
        "running": true,
        "channel": 0,
        "type": "noteOn",
        "noteNumber": 56,
        "velocity": 39
      },
      {
        "deltaTime": 8,
        "channel": 0,
        "type": "noteOn",
        "noteNumber": 87,
        "velocity": 34
      },
      {
        "deltaTime": 8,
        "channel": 0,
        "type": "controller",
        "controllerType": 64,
        "value": 127
      },
      {
        "deltaTime": 32,
        "channel": 0,
        "type": "noteOff",
        "noteNumber": 87,
        "velocity": 0,
        "byte9": true
      },
      {
        "deltaTime": 0,
        "running": true,
        "channel": 0,
        "type": "noteOff",
        "noteNumber": 91,
        "velocity": 0,
        "byte9": true
      },
      {
        "deltaTime": 8,
        "channel": 0,
        "type": "noteOff",
        "noteNumber": 79,
        "velocity": 0,
        "byte9": true
      },
      {
        "deltaTime": 4,
        "channel": 0,
        "type": "noteOff",
        "noteNumber": 63,
        "velocity": 0,
        "byte9": true
      },
      {
        "deltaTime": 4,
        "channel": 0,
        "type": "noteOff",
        "noteNumber": 53,
        "velocity": 0,
        "byte9": true
      },
      {
        "deltaTime": 16,
        "channel": 0,
        "type": "noteOff",
        "noteNumber": 60,
        "velocity": 0,
        "byte9": true
      },
      {
        "deltaTime": 4,
        "channel": 0,
        "type": "noteOff",
        "noteNumber": 56,
        "velocity": 0,
        "byte9": true
      },
      {
        "deltaTime": 76,
        "channel": 0,
        "type": "noteOn",
        "noteNumber": 60,
        "velocity": 67
      },
      {
        "deltaTime": 0,
        "running": true,
        "channel": 0,
        "type": "noteOn",
        "noteNumber": 80,
        "velocity": 51
      },
      {
        "deltaTime": 0,
        "running": true,
        "channel": 0,
        "type": "noteOn",
        "noteNumber": 92,
        "velocity": 60
      },
      {
        "deltaTime": 4,
        "channel": 0,
        "type": "noteOn",
        "noteNumber": 56,
        "velocity": 39
      },
      {
        "deltaTime": 0,
        "running": true,
        "channel": 0,
        "type": "noteOn",
        "noteNumber": 63,
        "velocity": 52
      },
      {
        "deltaTime": 4,
        "channel": 0,
        "type": "noteOn",
        "noteNumber": 53,
        "velocity": 44
      },
      {
        "deltaTime": 0,
        "running": true,
        "channel": 0,
        "type": "noteOn",
        "noteNumber": 87,
        "velocity": 49
      },
      {
        "deltaTime": 4,
        "channel": 0,
        "type": "noteOff",
        "noteNumber": 80,
        "velocity": 0,
        "byte9": true
      },
      {
        "deltaTime": 0,
        "running": true,
        "channel": 0,
        "type": "noteOff",
        "noteNumber": 92,
        "velocity": 0,
        "byte9": true
      },
      {
        "deltaTime": 4,
        "channel": 0,
        "type": "noteOff",
        "noteNumber": 63,
        "velocity": 0,
        "byte9": true
      },
      {
        "deltaTime": 8,
        "channel": 0,
        "type": "noteOff",
        "noteNumber": 53,
        "velocity": 0,
        "byte9": true
      },
      {
        "deltaTime": 0,
        "running": true,
        "channel": 0,
        "type": "noteOff",
        "noteNumber": 87,
        "velocity": 0,
        "byte9": true
      },
      {
        "deltaTime": 12,
        "channel": 0,
        "type": "noteOff",
        "noteNumber": 60,
        "velocity": 0,
        "byte9": true
      },
      {
        "deltaTime": 8,
        "channel": 0,
        "type": "noteOff",
        "noteNumber": 56,
        "velocity": 0,
        "byte9": true
      },
      {
        "deltaTime": 4,
        "channel": 0,
        "type": "controller",
        "controllerType": 64,
        "value": 0
      },
      {
        "deltaTime": 28,
        "channel": 0,
        "type": "controller",
        "controllerType": 64,
        "value": 127
      },
      {
        "deltaTime": 0,
        "channel": 0,
        "type": "noteOn",
        "noteNumber": 60,
        "velocity": 66
      },
      {
        "deltaTime": 0,
        "running": true,
        "channel": 0,
        "type": "noteOn",
        "noteNumber": 63,
        "velocity": 72
      },
      {
        "deltaTime": 4,
        "channel": 0,
        "type": "noteOn",
        "noteNumber": 82,
        "velocity": 69
      },
      {
        "deltaTime": 0,
        "running": true,
        "channel": 0,
        "type": "noteOn",
        "noteNumber": 87,
        "velocity": 77
      },
      {
        "deltaTime": 0,
        "running": true,
        "channel": 0,
        "type": "noteOn",
        "noteNumber": 94,
        "velocity": 80
      },
      {
        "deltaTime": 4,
        "channel": 0,
        "type": "noteOn",
        "noteNumber": 53,
        "velocity": 71
      },
      {
        "deltaTime": 0,
        "running": true,
        "channel": 0,
        "type": "noteOn",
        "noteNumber": 56,
        "velocity": 49
      },
      {
        "deltaTime": 80,
        "channel": 0,
        "type": "noteOff",
        "noteNumber": 63,
        "velocity": 0,
        "byte9": true
      },
      {
        "deltaTime": 0,
        "running": true,
        "channel": 0,
        "type": "noteOff",
        "noteNumber": 87,
        "velocity": 0,
        "byte9": true
      },
      {
        "deltaTime": 12,
        "channel": 0,
        "type": "noteOff",
        "noteNumber": 53,
        "velocity": 0,
        "byte9": true
      },
      {
        "deltaTime": 0,
        "running": true,
        "channel": 0,
        "type": "noteOff",
        "noteNumber": 94,
        "velocity": 0,
        "byte9": true
      },
      {
        "deltaTime": 4,
        "channel": 0,
        "type": "noteOff",
        "noteNumber": 56,
        "velocity": 0,
        "byte9": true
      },
      {
        "deltaTime": 4,
        "channel": 0,
        "type": "noteOff",
        "noteNumber": 60,
        "velocity": 0,
        "byte9": true
      },
      {
        "deltaTime": 0,
        "running": true,
        "channel": 0,
        "type": "noteOff",
        "noteNumber": 82,
        "velocity": 0,
        "byte9": true
      },
      {
        "deltaTime": 44,
        "channel": 0,
        "type": "noteOn",
        "noteNumber": 60,
        "velocity": 68
      },
      {
        "deltaTime": 4,
        "channel": 0,
        "type": "noteOn",
        "noteNumber": 53,
        "velocity": 57
      },
      {
        "deltaTime": 0,
        "running": true,
        "channel": 0,
        "type": "noteOn",
        "noteNumber": 63,
        "velocity": 57
      },
      {
        "deltaTime": 0,
        "running": true,
        "channel": 0,
        "type": "noteOn",
        "noteNumber": 92,
        "velocity": 74
      },
      {
        "deltaTime": 4,
        "channel": 0,
        "type": "noteOn",
        "noteNumber": 56,
        "velocity": 45
      },
      {
        "deltaTime": 0,
        "running": true,
        "channel": 0,
        "type": "noteOn",
        "noteNumber": 80,
        "velocity": 61
      },
      {
        "deltaTime": 8,
        "channel": 0,
        "type": "noteOn",
        "noteNumber": 87,
        "velocity": 54
      },
      {
        "deltaTime": 12,
        "channel": 0,
        "type": "noteOff",
        "noteNumber": 63,
        "velocity": 0,
        "byte9": true
      },
      {
        "deltaTime": 12,
        "channel": 0,
        "type": "noteOff",
        "noteNumber": 60,
        "velocity": 0,
        "byte9": true
      },
      {
        "deltaTime": 4,
        "channel": 0,
        "type": "noteOff",
        "noteNumber": 53,
        "velocity": 0,
        "byte9": true
      },
      {
        "deltaTime": 24,
        "channel": 0,
        "type": "controller",
        "controllerType": 64,
        "value": 0
      },
      {
        "deltaTime": 0,
        "channel": 0,
        "type": "noteOff",
        "noteNumber": 92,
        "velocity": 0,
        "byte9": true
      },
      {
        "deltaTime": 4,
        "channel": 0,
        "type": "noteOff",
        "noteNumber": 80,
        "velocity": 0,
        "byte9": true
      },
      {
        "deltaTime": 4,
        "channel": 0,
        "type": "noteOff",
        "noteNumber": 87,
        "velocity": 0,
        "byte9": true
      },
      {
        "deltaTime": 12,
        "channel": 0,
        "type": "noteOn",
        "noteNumber": 60,
        "velocity": 53
      },
      {
        "deltaTime": 0,
        "running": true,
        "channel": 0,
        "type": "noteOn",
        "noteNumber": 63,
        "velocity": 57
      },
      {
        "deltaTime": 4,
        "channel": 0,
        "type": "noteOn",
        "noteNumber": 53,
        "velocity": 34
      },
      {
        "deltaTime": 8,
        "channel": 0,
        "type": "controller",
        "controllerType": 64,
        "value": 127
      },
      {
        "deltaTime": 4,
        "channel": 0,
        "type": "noteOn",
        "noteNumber": 79,
        "velocity": 59
      },
      {
        "deltaTime": 24,
        "channel": 0,
        "type": "noteOff",
        "noteNumber": 60,
        "velocity": 0,
        "byte9": true
      },
      {
        "deltaTime": 12,
        "channel": 0,
        "type": "noteOff",
        "noteNumber": 79,
        "velocity": 0,
        "byte9": true
      },
      {
        "deltaTime": 8,
        "channel": 0,
        "type": "noteOff",
        "noteNumber": 53,
        "velocity": 0,
        "byte9": true
      },
      {
        "deltaTime": 28,
        "channel": 0,
        "type": "noteOff",
        "noteNumber": 63,
        "velocity": 0,
        "byte9": true
      },
      {
        "deltaTime": 16,
        "channel": 0,
        "type": "noteOff",
        "noteNumber": 56,
        "velocity": 0,
        "byte9": true
      },
      {
        "deltaTime": 48,
        "channel": 0,
        "type": "noteOn",
        "noteNumber": 91,
        "velocity": 73
      },
      {
        "deltaTime": 4,
        "channel": 0,
        "type": "noteOn",
        "noteNumber": 58,
        "velocity": 72
      },
      {
        "deltaTime": 0,
        "running": true,
        "channel": 0,
        "type": "noteOn",
        "noteNumber": 63,
        "velocity": 77
      },
      {
        "deltaTime": 0,
        "running": true,
        "channel": 0,
        "type": "noteOn",
        "noteNumber": 79,
        "velocity": 74
      },
      {
        "deltaTime": 0,
        "running": true,
        "channel": 0,
        "type": "noteOn",
        "noteNumber": 88,
        "velocity": 73
      },
      {
        "deltaTime": 4,
        "channel": 0,
        "type": "noteOn",
        "noteNumber": 52,
        "velocity": 80
      },
      {
        "deltaTime": 12,
        "channel": 0,
        "type": "noteOn",
        "noteNumber": 89,
        "velocity": 39
      },
      {
        "deltaTime": 12,
        "channel": 0,
        "type": "controller",
        "controllerType": 64,
        "value": 0
      },
      {
        "deltaTime": 4,
        "channel": 0,
        "type": "noteOff",
        "noteNumber": 89,
        "velocity": 0,
        "byte9": true
      },
      {
        "deltaTime": 52,
        "channel": 0,
        "type": "controller",
        "controllerType": 64,
        "value": 127
      },
      {
        "deltaTime": 16,
        "channel": 0,
        "type": "noteOff",
        "noteNumber": 88,
        "velocity": 0,
        "byte9": true
      },
      {
        "deltaTime": 0,
        "running": true,
        "channel": 0,
        "type": "noteOff",
        "noteNumber": 91,
        "velocity": 0,
        "byte9": true
      },
      {
        "deltaTime": 24,
        "channel": 0,
        "type": "noteOff",
        "noteNumber": 79,
        "velocity": 0,
        "byte9": true
      },
      {
        "deltaTime": 8,
        "channel": 0,
        "type": "noteOff",
        "noteNumber": 52,
        "velocity": 0,
        "byte9": true
      },
      {
        "deltaTime": 8,
        "channel": 0,
        "type": "noteOff",
        "noteNumber": 63,
        "velocity": 0,
        "byte9": true
      },
      {
        "deltaTime": 16,
        "channel": 0,
        "type": "noteOff",
        "noteNumber": 58,
        "velocity": 0,
        "byte9": true
      },
      {
        "deltaTime": 84,
        "channel": 0,
        "type": "noteOn",
        "noteNumber": 75,
        "velocity": 80
      },
      {
        "deltaTime": 0,
        "running": true,
        "channel": 0,
        "type": "noteOn",
        "noteNumber": 87,
        "velocity": 72
      },
      {
        "deltaTime": 8,
        "channel": 0,
        "type": "noteOn",
        "noteNumber": 58,
        "velocity": 70
      },
      {
        "deltaTime": 0,
        "running": true,
        "channel": 0,
        "type": "noteOn",
        "noteNumber": 63,
        "velocity": 70
      },
      {
        "deltaTime": 4,
        "channel": 0,
        "type": "noteOn",
        "noteNumber": 52,
        "velocity": 68
      },
      {
        "deltaTime": 0,
        "running": true,
        "channel": 0,
        "type": "noteOn",
        "noteNumber": 81,
        "velocity": 53
      },
      {
        "deltaTime": 0,
        "running": true,
        "channel": 0,
        "type": "noteOn",
        "noteNumber": 85,
        "velocity": 46
      },
      {
        "deltaTime": 8,
        "channel": 0,
        "type": "controller",
        "controllerType": 64,
        "value": 0
      },
      {
        "deltaTime": 4,
        "channel": 0,
        "type": "noteOn",
        "noteNumber": 83,
        "velocity": 34
      },
      {
        "deltaTime": 0,
        "running": true,
        "channel": 0,
        "type": "noteOff",
        "noteNumber": 85,
        "velocity": 0,
        "byte9": true
      },
      {
        "deltaTime": 28,
        "channel": 0,
        "type": "noteOn",
        "noteNumber": 76,
        "velocity": 40
      },
      {
        "deltaTime": 12,
        "channel": 0,
        "type": "noteOff",
        "noteNumber": 75,
        "velocity": 0,
        "byte9": true
      },
      {
        "deltaTime": 4,
        "channel": 0,
        "type": "noteOff",
        "noteNumber": 87,
        "velocity": 0,
        "byte9": true
      },
      {
        "deltaTime": 16,
        "channel": 0,
        "type": "controller",
        "controllerType": 64,
        "value": 127
      },
      {
        "deltaTime": 0,
        "channel": 0,
        "type": "noteOff",
        "noteNumber": 76,
        "velocity": 0,
        "byte9": true
      },
      {
        "deltaTime": 20,
        "channel": 0,
        "type": "noteOff",
        "noteNumber": 83,
        "velocity": 0,
        "byte9": true
      },
      {
        "deltaTime": 4,
        "channel": 0,
        "type": "noteOff",
        "noteNumber": 81,
        "velocity": 0,
        "byte9": true
      },
      {
        "deltaTime": 44,
        "channel": 0,
        "type": "noteOff",
        "noteNumber": 52,
        "velocity": 0,
        "byte9": true
      },
      {
        "deltaTime": 4,
        "channel": 0,
        "type": "noteOff",
        "noteNumber": 63,
        "velocity": 0,
        "byte9": true
      },
      {
        "deltaTime": 16,
        "channel": 0,
        "type": "noteOff",
        "noteNumber": 58,
        "velocity": 0,
        "byte9": true
      },
      {
        "deltaTime": 76,
        "channel": 0,
        "type": "noteOn",
        "noteNumber": 58,
        "velocity": 65
      },
      {
        "deltaTime": 0,
        "running": true,
        "channel": 0,
        "type": "noteOn",
        "noteNumber": 63,
        "velocity": 69
      },
      {
        "deltaTime": 0,
        "running": true,
        "channel": 0,
        "type": "noteOn",
        "noteNumber": 72,
        "velocity": 75
      },
      {
        "deltaTime": 0,
        "running": true,
        "channel": 0,
        "type": "noteOn",
        "noteNumber": 80,
        "velocity": 64
      },
      {
        "deltaTime": 4,
        "channel": 0,
        "type": "noteOn",
        "noteNumber": 52,
        "velocity": 73
      },
      {
        "deltaTime": 0,
        "running": true,
        "channel": 0,
        "type": "noteOn",
        "noteNumber": 84,
        "velocity": 77
      },
      {
        "deltaTime": 4,
        "channel": 0,
        "type": "controller",
        "controllerType": 64,
        "value": 0
      },
      {
        "deltaTime": 0,
        "channel": 0,
        "type": "noteOn",
        "noteNumber": 78,
        "velocity": 42
      },
      {
        "deltaTime": 60,
        "channel": 0,
        "type": "controller",
        "controllerType": 64,
        "value": 127
      },
      {
        "deltaTime": 0,
        "channel": 0,
        "type": "noteOff",
        "noteNumber": 78,
        "velocity": 0,
        "byte9": true
      },
      {
        "deltaTime": 12,
        "channel": 0,
        "type": "noteOff",
        "noteNumber": 63,
        "velocity": 0,
        "byte9": true
      },
      {
        "deltaTime": 4,
        "channel": 0,
        "type": "noteOff",
        "noteNumber": 84,
        "velocity": 0,
        "byte9": true
      },
      {
        "deltaTime": 4,
        "channel": 0,
        "type": "noteOff",
        "noteNumber": 80,
        "velocity": 0,
        "byte9": true
      },
      {
        "deltaTime": 12,
        "channel": 0,
        "type": "noteOff",
        "noteNumber": 72,
        "velocity": 0,
        "byte9": true
      },
      {
        "deltaTime": 24,
        "channel": 0,
        "type": "noteOff",
        "noteNumber": 52,
        "velocity": 0,
        "byte9": true
      },
      {
        "deltaTime": 36,
        "channel": 0,
        "type": "noteOff",
        "noteNumber": 58,
        "velocity": 0,
        "byte9": true
      },
      {
        "deltaTime": 80,
        "channel": 0,
        "type": "noteOn",
        "noteNumber": 66,
        "velocity": 74
      },
      {
        "deltaTime": 4,
        "channel": 0,
        "type": "noteOn",
        "noteNumber": 58,
        "velocity": 65
      },
      {
        "deltaTime": 0,
        "running": true,
        "channel": 0,
        "type": "noteOn",
        "noteNumber": 63,
        "velocity": 74
      },
      {
        "deltaTime": 0,
        "running": true,
        "channel": 0,
        "type": "noteOn",
        "noteNumber": 75,
        "velocity": 63
      },
      {
        "deltaTime": 0,
        "running": true,
        "channel": 0,
        "type": "noteOn",
        "noteNumber": 78,
        "velocity": 46
      },
      {
        "deltaTime": 4,
        "channel": 0,
        "type": "noteOn",
        "noteNumber": 52,
        "velocity": 73
      },
      {
        "deltaTime": 16,
        "channel": 0,
        "type": "noteOn",
        "noteNumber": 79,
        "velocity": 50
      },
      {
        "deltaTime": 4,
        "channel": 0,
        "type": "controller",
        "controllerType": 64,
        "value": 0
      },
      {
        "deltaTime": 0,
        "channel": 0,
        "type": "noteOff",
        "noteNumber": 66,
        "velocity": 0,
        "byte9": true
      },
      {
        "deltaTime": 16,
        "channel": 0,
        "type": "noteOn",
        "noteNumber": 67,
        "velocity": 37
      },
      {
        "deltaTime": 16,
        "channel": 0,
        "type": "noteOff",
        "noteNumber": 78,
        "velocity": 0,
        "byte9": true
      },
      {
        "deltaTime": 36,
        "channel": 0,
        "type": "controller",
        "controllerType": 64,
        "value": 127
      },
      {
        "deltaTime": 52,
        "channel": 0,
        "type": "noteOff",
        "noteNumber": 67,
        "velocity": 0,
        "byte9": true
      },
      {
        "deltaTime": 0,
        "running": true,
        "channel": 0,
        "type": "noteOn",
        "noteNumber": 77,
        "velocity": 1
      },
      {
        "deltaTime": 12,
        "channel": 0,
        "type": "noteOff",
        "noteNumber": 52,
        "velocity": 0,
        "byte9": true
      },
      {
        "deltaTime": 16,
        "channel": 0,
        "type": "noteOff",
        "noteNumber": 79,
        "velocity": 0,
        "byte9": true
      },
      {
        "deltaTime": 4,
        "channel": 0,
        "type": "noteOff",
        "noteNumber": 63,
        "velocity": 0,
        "byte9": true
      },
      {
        "deltaTime": 0,
        "running": true,
        "channel": 0,
        "type": "noteOff",
        "noteNumber": 75,
        "velocity": 0,
        "byte9": true
      },
      {
        "deltaTime": 4,
        "channel": 0,
        "type": "noteOff",
        "noteNumber": 58,
        "velocity": 0,
        "byte9": true
      },
      {
        "deltaTime": 28,
        "channel": 0,
        "type": "noteOff",
        "noteNumber": 77,
        "velocity": 0,
        "byte9": true
      },
      {
        "deltaTime": 24,
        "channel": 0,
        "type": "noteOn",
        "noteNumber": 79,
        "velocity": 71
      },
      {
        "deltaTime": 8,
        "channel": 0,
        "type": "noteOn",
        "noteNumber": 63,
        "velocity": 56
      },
      {
        "deltaTime": 0,
        "running": true,
        "channel": 0,
        "type": "noteOn",
        "noteNumber": 68,
        "velocity": 71
      },
      {
        "deltaTime": 4,
        "channel": 0,
        "type": "noteOn",
        "noteNumber": 53,
        "velocity": 55
      },
      {
        "deltaTime": 0,
        "running": true,
        "channel": 0,
        "type": "noteOn",
        "noteNumber": 59,
        "velocity": 66
      },
      {
        "deltaTime": 0,
        "running": true,
        "channel": 0,
        "type": "noteOn",
        "noteNumber": 76,
        "velocity": 54
      },
      {
        "deltaTime": 4,
        "channel": 0,
        "type": "noteOn",
        "noteNumber": 56,
        "velocity": 46
      },
      {
        "deltaTime": 0,
        "running": true,
        "channel": 0,
        "type": "noteOn",
        "noteNumber": 77,
        "velocity": 33
      },
      {
        "deltaTime": 8,
        "channel": 0,
        "type": "controller",
        "controllerType": 64,
        "value": 0
      },
      {
        "deltaTime": 80,
        "channel": 0,
        "type": "controller",
        "controllerType": 64,
        "value": 127
      },
      {
        "deltaTime": 80,
        "channel": 0,
        "type": "noteOff",
        "noteNumber": 59,
        "velocity": 0,
        "byte9": true
      },
      {
        "deltaTime": 24,
        "channel": 0,
        "type": "noteOff",
        "noteNumber": 76,
        "velocity": 0,
        "byte9": true
      },
      {
        "deltaTime": 44,
        "channel": 0,
        "type": "noteOn",
        "noteNumber": 59,
        "velocity": 34
      },
      {
        "deltaTime": 4,
        "channel": 0,
        "type": "noteOff",
        "noteNumber": 63,
        "velocity": 0,
        "byte9": true
      },
      {
        "deltaTime": 0,
        "running": true,
        "channel": 0,
        "type": "noteOff",
        "noteNumber": 68,
        "velocity": 0,
        "byte9": true
      },
      {
        "deltaTime": 4,
        "channel": 0,
        "type": "noteOff",
        "noteNumber": 79,
        "velocity": 0,
        "byte9": true
      },
      {
        "deltaTime": 20,
        "channel": 0,
        "type": "noteOff",
        "noteNumber": 77,
        "velocity": 0,
        "byte9": true
      },
      {
        "deltaTime": 24,
        "channel": 0,
        "type": "controller",
        "controllerType": 64,
        "value": 0
      },
      {
        "deltaTime": 0,
        "channel": 0,
        "type": "noteOn",
        "noteNumber": 77,
        "velocity": 44
      },
      {
        "deltaTime": 4,
        "channel": 0,
        "type": "noteOn",
        "noteNumber": 63,
        "velocity": 56
      },
      {
        "deltaTime": 0,
        "running": true,
        "channel": 0,
        "type": "noteOn",
        "noteNumber": 68,
        "velocity": 71
      },
      {
        "deltaTime": 28,
        "channel": 0,
        "type": "noteOff",
        "noteNumber": 59,
        "velocity": 0,
        "byte9": true
      },
      {
        "deltaTime": 24,
        "channel": 0,
        "type": "controller",
        "controllerType": 64,
        "value": 127
      },
      {
        "deltaTime": 80,
        "channel": 0,
        "type": "noteOff",
        "noteNumber": 63,
        "velocity": 0,
        "byte9": true
      },
      {
        "deltaTime": 0,
        "running": true,
        "channel": 0,
        "type": "noteOff",
        "noteNumber": 68,
        "velocity": 0,
        "byte9": true
      },
      {
        "deltaTime": 36,
        "channel": 0,
        "type": "noteOn",
        "noteNumber": 68,
        "velocity": 46
      },
      {
        "deltaTime": 0,
        "running": true,
        "channel": 0,
        "type": "noteOff",
        "noteNumber": 77,
        "velocity": 0,
        "byte9": true
      },
      {
        "deltaTime": 4,
        "channel": 0,
        "type": "noteOn",
        "noteNumber": 63,
        "velocity": 47
      },
      {
        "deltaTime": 0,
        "running": true,
        "channel": 0,
        "type": "noteOn",
        "noteNumber": 71,
        "velocity": 68
      },
      {
        "deltaTime": 8,
        "channel": 0,
        "type": "noteOn",
        "noteNumber": 59,
        "velocity": 36
      },
      {
        "deltaTime": 20,
        "channel": 0,
        "type": "controller",
        "controllerType": 64,
        "value": 0
      },
      {
        "deltaTime": 48,
        "channel": 0,
        "type": "controller",
        "controllerType": 64,
        "value": 127
      },
      {
        "deltaTime": 0,
        "channel": 0,
        "type": "noteOff",
        "noteNumber": 59,
        "velocity": 0,
        "byte9": true
      },
      {
        "deltaTime": 52,
        "channel": 0,
        "type": "noteOff",
        "noteNumber": 53,
        "velocity": 0,
        "byte9": true
      },
      {
        "deltaTime": 40,
        "channel": 0,
        "type": "noteOff",
        "noteNumber": 56,
        "velocity": 0,
        "byte9": true
      },
      {
        "deltaTime": 36,
        "channel": 0,
        "type": "noteOff",
        "noteNumber": 71,
        "velocity": 0,
        "byte9": true
      },
      {
        "deltaTime": 4,
        "channel": 0,
        "type": "noteOff",
        "noteNumber": 63,
        "velocity": 0,
        "byte9": true
      },
      {
        "deltaTime": 8,
        "channel": 0,
        "type": "noteOff",
        "noteNumber": 68,
        "velocity": 0,
        "byte9": true
      },
      {
        "deltaTime": 32,
        "channel": 0,
        "type": "noteOn",
        "noteNumber": 53,
        "velocity": 62
      },
      {
        "deltaTime": 152,
        "channel": 0,
        "type": "noteOff",
        "noteNumber": 53,
        "velocity": 0,
        "byte9": true
      },
      {
        "deltaTime": 72,
        "channel": 0,
        "type": "noteOn",
        "noteNumber": 73,
        "velocity": 82
      },
      {
        "deltaTime": 8,
        "channel": 0,
        "type": "noteOn",
        "noteNumber": 61,
        "velocity": 76
      },
      {
        "deltaTime": 0,
        "running": true,
        "channel": 0,
        "type": "noteOn",
        "noteNumber": 66,
        "velocity": 77
      },
      {
        "deltaTime": 4,
        "channel": 0,
        "type": "noteOn",
        "noteNumber": 56,
        "velocity": 71
      },
      {
        "deltaTime": 0,
        "running": true,
        "channel": 0,
        "type": "noteOn",
        "noteNumber": 70,
        "velocity": 55
      },
      {
        "deltaTime": 8,
        "channel": 0,
        "type": "noteOn",
        "noteNumber": 62,
        "velocity": 73
      },
      {
        "deltaTime": 8,
        "channel": 0,
        "type": "controller",
        "controllerType": 64,
        "value": 0
      },
      {
        "deltaTime": 88,
        "channel": 0,
        "type": "controller",
        "controllerType": 64,
        "value": 127
      },
      {
        "deltaTime": 76,
        "channel": 0,
        "type": "noteOff",
        "noteNumber": 56,
        "velocity": 0,
        "byte9": true
      },
      {
        "deltaTime": 36,
        "channel": 0,
        "type": "noteOff",
        "noteNumber": 62,
        "velocity": 0,
        "byte9": true
      },
      {
        "deltaTime": 8,
        "channel": 0,
        "type": "noteOff",
        "noteNumber": 61,
        "velocity": 0,
        "byte9": true
      },
      {
        "deltaTime": 4,
        "channel": 0,
        "type": "noteOff",
        "noteNumber": 66,
        "velocity": 0,
        "byte9": true
      },
      {
        "deltaTime": 4,
        "channel": 0,
        "type": "noteOff",
        "noteNumber": 70,
        "velocity": 0,
        "byte9": true
      },
      {
        "deltaTime": 8,
        "channel": 0,
        "type": "noteOn",
        "noteNumber": 56,
        "velocity": 49
      },
      {
        "deltaTime": 4,
        "channel": 0,
        "type": "noteOff",
        "noteNumber": 73,
        "velocity": 0,
        "byte9": true
      },
      {
        "deltaTime": 44,
        "channel": 0,
        "type": "noteOff",
        "noteNumber": 56,
        "velocity": 0,
        "byte9": true
      },
      {
        "deltaTime": 4,
        "channel": 0,
        "type": "controller",
        "controllerType": 64,
        "value": 0
      },
      {
        "deltaTime": 16,
        "channel": 0,
        "type": "noteOn",
        "noteNumber": 61,
        "velocity": 62
      },
      {
        "deltaTime": 0,
        "running": true,
        "channel": 0,
        "type": "noteOn",
        "noteNumber": 73,
        "velocity": 60
      },
      {
        "deltaTime": 4,
        "channel": 0,
        "type": "noteOn",
        "noteNumber": 66,
        "velocity": 58
      },
      {
        "deltaTime": 0,
        "running": true,
        "channel": 0,
        "type": "noteOn",
        "noteNumber": 70,
        "velocity": 55
      },
      {
        "deltaTime": 8,
        "channel": 0,
        "type": "noteOn",
        "noteNumber": 56,
        "velocity": 42
      },
      {
        "deltaTime": 0,
        "running": true,
        "channel": 0,
        "type": "noteOn",
        "noteNumber": 62,
        "velocity": 66
      },
      {
        "deltaTime": 16,
        "channel": 0,
        "type": "controller",
        "controllerType": 64,
        "value": 127
      },
      {
        "deltaTime": 76,
        "channel": 0,
        "type": "noteOff",
        "noteNumber": 66,
        "velocity": 0,
        "byte9": true
      },
      {
        "deltaTime": 4,
        "channel": 0,
        "type": "noteOff",
        "noteNumber": 62,
        "velocity": 0,
        "byte9": true
      },
      {
        "deltaTime": 16,
        "channel": 0,
        "type": "noteOff",
        "noteNumber": 61,
        "velocity": 0,
        "byte9": true
      },
      {
        "deltaTime": 0,
        "running": true,
        "channel": 0,
        "type": "noteOff",
        "noteNumber": 73,
        "velocity": 0,
        "byte9": true
      },
      {
        "deltaTime": 16,
        "channel": 0,
        "type": "noteOff",
        "noteNumber": 70,
        "velocity": 0,
        "byte9": true
      },
      {
        "deltaTime": 4,
        "channel": 0,
        "type": "noteOff",
        "noteNumber": 56,
        "velocity": 0,
        "byte9": true
      },
      {
        "deltaTime": 28,
        "channel": 0,
        "type": "noteOn",
        "noteNumber": 61,
        "velocity": 46
      },
      {
        "deltaTime": 0,
        "running": true,
        "channel": 0,
        "type": "noteOn",
        "noteNumber": 66,
        "velocity": 62
      },
      {
        "deltaTime": 0,
        "running": true,
        "channel": 0,
        "type": "noteOn",
        "noteNumber": 70,
        "velocity": 59
      },
      {
        "deltaTime": 4,
        "channel": 0,
        "type": "noteOn",
        "noteNumber": 56,
        "velocity": 57
      },
      {
        "deltaTime": 16,
        "channel": 0,
        "type": "controller",
        "controllerType": 64,
        "value": 0
      },
      {
        "deltaTime": 44,
        "channel": 0,
        "type": "controller",
        "controllerType": 64,
        "value": 127
      },
      {
        "deltaTime": 4,
        "channel": 0,
        "type": "noteOff",
        "noteNumber": 61,
        "velocity": 0,
        "byte9": true
      },
      {
        "deltaTime": 20,
        "channel": 0,
        "type": "noteOff",
        "noteNumber": 56,
        "velocity": 0,
        "byte9": true
      },
      {
        "deltaTime": 8,
        "channel": 0,
        "type": "noteOff",
        "noteNumber": 66,
        "velocity": 0,
        "byte9": true
      },
      {
        "deltaTime": 12,
        "channel": 0,
        "type": "noteOff",
        "noteNumber": 70,
        "velocity": 0,
        "byte9": true
      },
      {
        "deltaTime": 168,
        "channel": 0,
        "type": "controller",
        "controllerType": 64,
        "value": 0
      },
      {
        "deltaTime": 20,
        "channel": 0,
        "type": "noteOn",
        "noteNumber": 66,
        "velocity": 67
      },
      {
        "deltaTime": 0,
        "running": true,
        "channel": 0,
        "type": "noteOn",
        "noteNumber": 78,
        "velocity": 62
      },
      {
        "deltaTime": 4,
        "channel": 0,
        "type": "noteOn",
        "noteNumber": 73,
        "velocity": 60
      },
      {
        "deltaTime": 12,
        "channel": 0,
        "type": "controller",
        "controllerType": 64,
        "value": 127
      },
      {
        "deltaTime": 0,
        "channel": 0,
        "type": "noteOn",
        "noteNumber": 56,
        "velocity": 27
      },
      {
        "deltaTime": 44,
        "channel": 0,
        "type": "noteOff",
        "noteNumber": 56,
        "velocity": 0,
        "byte9": true
      },
      {
        "deltaTime": 48,
        "channel": 0,
        "type": "noteOff",
        "noteNumber": 66,
        "velocity": 0,
        "byte9": true
      },
      {
        "deltaTime": 4,
        "channel": 0,
        "type": "noteOff",
        "noteNumber": 73,
        "velocity": 0,
        "byte9": true
      },
      {
        "deltaTime": 4,
        "channel": 0,
        "type": "noteOff",
        "noteNumber": 78,
        "velocity": 0,
        "byte9": true
      },
      {
        "deltaTime": 44,
        "channel": 0,
        "type": "noteOn",
        "noteNumber": 62,
        "velocity": 39
      },
      {
        "deltaTime": 8,
        "channel": 0,
        "type": "noteOn",
        "noteNumber": 79,
        "velocity": 62
      },
      {
        "deltaTime": 4,
        "channel": 0,
        "type": "noteOn",
        "noteNumber": 60,
        "velocity": 32
      },
      {
        "deltaTime": 0,
        "running": true,
        "channel": 0,
        "type": "noteOn",
        "noteNumber": 67,
        "velocity": 56
      },
      {
        "deltaTime": 4,
        "channel": 0,
        "type": "noteOn",
        "noteNumber": 74,
        "velocity": 55
      },
      {
        "deltaTime": 4,
        "channel": 0,
        "type": "controller",
        "controllerType": 64,
        "value": 0
      },
      {
        "deltaTime": 8,
        "channel": 0,
        "type": "noteOn",
        "noteNumber": 55,
        "velocity": 33
      },
      {
        "deltaTime": 60,
        "channel": 0,
        "type": "controller",
        "controllerType": 64,
        "value": 127
      },
      {
        "deltaTime": 76,
        "channel": 0,
        "type": "noteOff",
        "noteNumber": 55,
        "velocity": 0,
        "byte9": true
      },
      {
        "deltaTime": 8,
        "channel": 0,
        "type": "noteOff",
        "noteNumber": 60,
        "velocity": 0,
        "byte9": true
      },
      {
        "deltaTime": 4,
        "channel": 0,
        "type": "noteOff",
        "noteNumber": 67,
        "velocity": 0,
        "byte9": true
      },
      {
        "deltaTime": 8,
        "channel": 0,
        "type": "noteOff",
        "noteNumber": 62,
        "velocity": 0,
        "byte9": true
      },
      {
        "deltaTime": 0,
        "running": true,
        "channel": 0,
        "type": "noteOff",
        "noteNumber": 74,
        "velocity": 0,
        "byte9": true
      },
      {
        "deltaTime": 0,
        "running": true,
        "channel": 0,
        "type": "noteOff",
        "noteNumber": 79,
        "velocity": 0,
        "byte9": true
      },
      {
        "deltaTime": 64,
        "channel": 0,
        "type": "noteOn",
        "noteNumber": 62,
        "velocity": 40
      },
      {
        "deltaTime": 4,
        "channel": 0,
        "type": "noteOn",
        "noteNumber": 60,
        "velocity": 37
      },
      {
        "deltaTime": 0,
        "running": true,
        "channel": 0,
        "type": "noteOn",
        "noteNumber": 79,
        "velocity": 58
      },
      {
        "deltaTime": 4,
        "channel": 0,
        "type": "noteOn",
        "noteNumber": 65,
        "velocity": 42
      },
      {
        "deltaTime": 0,
        "running": true,
        "channel": 0,
        "type": "noteOn",
        "noteNumber": 67,
        "velocity": 46
      },
      {
        "deltaTime": 4,
        "channel": 0,
        "type": "noteOn",
        "noteNumber": 55,
        "velocity": 33
      },
      {
        "deltaTime": 0,
        "running": true,
        "channel": 0,
        "type": "noteOn",
        "noteNumber": 74,
        "velocity": 65
      },
      {
        "deltaTime": 12,
        "channel": 0,
        "type": "noteOff",
        "noteNumber": 65,
        "velocity": 0,
        "byte9": true
      },
      {
        "deltaTime": 16,
        "channel": 0,
        "type": "noteOff",
        "noteNumber": 55,
        "velocity": 0,
        "byte9": true
      },
      {
        "deltaTime": 4,
        "channel": 0,
        "type": "noteOff",
        "noteNumber": 60,
        "velocity": 0,
        "byte9": true
      },
      {
        "deltaTime": 0,
        "running": true,
        "channel": 0,
        "type": "noteOff",
        "noteNumber": 67,
        "velocity": 0,
        "byte9": true
      },
      {
        "deltaTime": 4,
        "channel": 0,
        "type": "noteOff",
        "noteNumber": 62,
        "velocity": 0,
        "byte9": true
      },
      {
        "deltaTime": 8,
        "channel": 0,
        "type": "noteOff",
        "noteNumber": 74,
        "velocity": 0,
        "byte9": true
      },
      {
        "deltaTime": 0,
        "running": true,
        "channel": 0,
        "type": "noteOff",
        "noteNumber": 79,
        "velocity": 0,
        "byte9": true
      },
      {
        "deltaTime": 48,
        "channel": 0,
        "type": "noteOn",
        "noteNumber": 62,
        "velocity": 32
      },
      {
        "deltaTime": 4,
        "channel": 0,
        "type": "noteOn",
        "noteNumber": 79,
        "velocity": 44
      },
      {
        "deltaTime": 4,
        "channel": 0,
        "type": "noteOn",
        "noteNumber": 67,
        "velocity": 45
      },
      {
        "deltaTime": 0,
        "running": true,
        "channel": 0,
        "type": "noteOn",
        "noteNumber": 74,
        "velocity": 36
      },
      {
        "deltaTime": 4,
        "channel": 0,
        "type": "noteOn",
        "noteNumber": 60,
        "velocity": 29
      },
      {
        "deltaTime": 0,
        "running": true,
        "channel": 0,
        "type": "noteOn",
        "noteNumber": 65,
        "velocity": 27
      },
      {
        "deltaTime": 16,
        "channel": 0,
        "type": "noteOff",
        "noteNumber": 65,
        "velocity": 0,
        "byte9": true
      },
      {
        "deltaTime": 4,
        "channel": 0,
        "type": "noteOff",
        "noteNumber": 60,
        "velocity": 0,
        "byte9": true
      },
      {
        "deltaTime": 0,
        "running": true,
        "channel": 0,
        "type": "noteOff",
        "noteNumber": 67,
        "velocity": 0,
        "byte9": true
      },
      {
        "deltaTime": 4,
        "channel": 0,
        "type": "noteOff",
        "noteNumber": 74,
        "velocity": 0,
        "byte9": true
      },
      {
        "deltaTime": 4,
        "channel": 0,
        "type": "noteOff",
        "noteNumber": 62,
        "velocity": 0,
        "byte9": true
      },
      {
        "deltaTime": 0,
        "running": true,
        "channel": 0,
        "type": "noteOff",
        "noteNumber": 79,
        "velocity": 0,
        "byte9": true
      },
      {
        "deltaTime": 108,
        "channel": 0,
        "type": "noteOn",
        "noteNumber": 62,
        "velocity": 66
      },
      {
        "deltaTime": 0,
        "running": true,
        "channel": 0,
        "type": "noteOn",
        "noteNumber": 79,
        "velocity": 64
      },
      {
        "deltaTime": 4,
        "channel": 0,
        "type": "noteOn",
        "noteNumber": 60,
        "velocity": 57
      },
      {
        "deltaTime": 0,
        "running": true,
        "channel": 0,
        "type": "noteOn",
        "noteNumber": 74,
        "velocity": 72
      },
      {
        "deltaTime": 4,
        "channel": 0,
        "type": "noteOn",
        "noteNumber": 65,
        "velocity": 54
      },
      {
        "deltaTime": 0,
        "running": true,
        "channel": 0,
        "type": "noteOn",
        "noteNumber": 67,
        "velocity": 57
      },
      {
        "deltaTime": 12,
        "channel": 0,
        "type": "noteOff",
        "noteNumber": 60,
        "velocity": 0,
        "byte9": true
      },
      {
        "deltaTime": 4,
        "channel": 0,
        "type": "noteOff",
        "noteNumber": 65,
        "velocity": 0,
        "byte9": true
      },
      {
        "deltaTime": 4,
        "channel": 0,
        "type": "noteOff",
        "noteNumber": 67,
        "velocity": 0,
        "byte9": true
      },
      {
        "deltaTime": 8,
        "channel": 0,
        "type": "noteOff",
        "noteNumber": 62,
        "velocity": 0,
        "byte9": true
      },
      {
        "deltaTime": 0,
        "running": true,
        "channel": 0,
        "type": "noteOff",
        "noteNumber": 79,
        "velocity": 0,
        "byte9": true
      },
      {
        "deltaTime": 8,
        "channel": 0,
        "type": "noteOff",
        "noteNumber": 74,
        "velocity": 0,
        "byte9": true
      },
      {
        "deltaTime": 36,
        "channel": 0,
        "type": "controller",
        "controllerType": 64,
        "value": 0
      },
      {
        "deltaTime": 28,
        "channel": 0,
        "type": "noteOn",
        "noteNumber": 60,
        "velocity": 47
      },
      {
        "deltaTime": 0,
        "running": true,
        "channel": 0,
        "type": "noteOn",
        "noteNumber": 62,
        "velocity": 60
      },
      {
        "deltaTime": 0,
        "running": true,
        "channel": 0,
        "type": "noteOn",
        "noteNumber": 65,
        "velocity": 60
      },
      {
        "deltaTime": 8,
        "channel": 0,
        "type": "noteOn",
        "noteNumber": 75,
        "velocity": 45
      },
      {
        "deltaTime": 0,
        "running": true,
        "channel": 0,
        "type": "noteOn",
        "noteNumber": 80,
        "velocity": 46
      },
      {
        "deltaTime": 4,
        "channel": 0,
        "type": "noteOn",
        "noteNumber": 68,
        "velocity": 30
      },
      {
        "deltaTime": 4,
        "channel": 0,
        "type": "noteOff",
        "noteNumber": 65,
        "velocity": 0,
        "byte9": true
      },
      {
        "deltaTime": 4,
        "channel": 0,
        "type": "noteOff",
        "noteNumber": 60,
        "velocity": 0,
        "byte9": true
      },
      {
        "deltaTime": 8,
        "channel": 0,
        "type": "noteOff",
        "noteNumber": 68,
        "velocity": 0,
        "byte9": true
      },
      {
        "deltaTime": 0,
        "running": true,
        "channel": 0,
        "type": "noteOff",
        "noteNumber": 75,
        "velocity": 0,
        "byte9": true
      },
      {
        "deltaTime": 4,
        "channel": 0,
        "type": "noteOff",
        "noteNumber": 62,
        "velocity": 0,
        "byte9": true
      },
      {
        "deltaTime": 8,
        "channel": 0,
        "type": "noteOff",
        "noteNumber": 80,
        "velocity": 0,
        "byte9": true
      },
      {
        "deltaTime": 4,
        "channel": 0,
        "type": "controller",
        "controllerType": 64,
        "value": 127
      },
      {
        "deltaTime": 104,
        "channel": 0,
        "type": "controller",
        "controllerType": 64,
        "value": 0
      },
      {
        "deltaTime": 4,
        "channel": 0,
        "type": "noteOn",
        "noteNumber": 82,
        "velocity": 77
      },
      {
        "deltaTime": 4,
        "channel": 0,
        "type": "noteOn",
        "noteNumber": 62,
        "velocity": 64
      },
      {
        "deltaTime": 0,
        "running": true,
        "channel": 0,
        "type": "noteOn",
        "noteNumber": 70,
        "velocity": 72
      },
      {
        "deltaTime": 0,
        "running": true,
        "channel": 0,
        "type": "noteOn",
        "noteNumber": 75,
        "velocity": 74
      },
      {
        "deltaTime": 4,
        "channel": 0,
        "type": "noteOn",
        "noteNumber": 55,
        "velocity": 64
      },
      {
        "deltaTime": 0,
        "running": true,
        "channel": 0,
        "type": "noteOn",
        "noteNumber": 60,
        "velocity": 58
      },
      {
        "deltaTime": 0,
        "running": true,
        "channel": 0,
        "type": "noteOn",
        "noteNumber": 65,
        "velocity": 64
      },
      {
        "deltaTime": 32,
        "channel": 0,
        "type": "noteOff",
        "noteNumber": 70,
        "velocity": 0,
        "byte9": true
      },
      {
        "deltaTime": 4,
        "channel": 0,
        "type": "noteOff",
        "noteNumber": 65,
        "velocity": 0,
        "byte9": true
      },
      {
        "deltaTime": 4,
        "channel": 0,
        "type": "noteOff",
        "noteNumber": 62,
        "velocity": 0,
        "byte9": true
      },
      {
        "deltaTime": 4,
        "channel": 0,
        "type": "controller",
        "controllerType": 64,
        "value": 127
      },
      {
        "deltaTime": 0,
        "channel": 0,
        "type": "noteOff",
        "noteNumber": 75,
        "velocity": 0,
        "byte9": true
      },
      {
        "deltaTime": 4,
        "channel": 0,
        "type": "noteOff",
        "noteNumber": 55,
        "velocity": 0,
        "byte9": true
      },
      {
        "deltaTime": 12,
        "channel": 0,
        "type": "noteOff",
        "noteNumber": 60,
        "velocity": 0,
        "byte9": true
      },
      {
        "deltaTime": 4,
        "channel": 0,
        "type": "noteOff",
        "noteNumber": 82,
        "velocity": 0,
        "byte9": true
      },
      {
        "deltaTime": 148,
        "channel": 0,
        "type": "noteOn",
        "noteNumber": 61,
        "velocity": 80
      },
      {
        "deltaTime": 4,
        "channel": 0,
        "type": "noteOn",
        "noteNumber": 56,
        "velocity": 77
      },
      {
        "deltaTime": 0,
        "running": true,
        "channel": 0,
        "type": "noteOn",
        "noteNumber": 60,
        "velocity": 77
      },
      {
        "deltaTime": 0,
        "running": true,
        "channel": 0,
        "type": "noteOn",
        "noteNumber": 65,
        "velocity": 87
      },
      {
        "deltaTime": 0,
        "running": true,
        "channel": 0,
        "type": "noteOn",
        "noteNumber": 77,
        "velocity": 96
      },
      {
        "deltaTime": 0,
        "running": true,
        "channel": 0,
        "type": "noteOn",
        "noteNumber": 84,
        "velocity": 94
      },
      {
        "deltaTime": 0,
        "running": true,
        "channel": 0,
        "type": "noteOn",
        "noteNumber": 89,
        "velocity": 91
      },
      {
        "deltaTime": 4,
        "channel": 0,
        "type": "controller",
        "controllerType": 64,
        "value": 0
      },
      {
        "deltaTime": 68,
        "channel": 0,
        "type": "controller",
        "controllerType": 64,
        "value": 127
      },
      {
        "deltaTime": 164,
        "channel": 0,
        "type": "noteOff",
        "noteNumber": 77,
        "velocity": 0,
        "byte9": true
      },
      {
        "deltaTime": 4,
        "channel": 0,
        "type": "noteOff",
        "noteNumber": 56,
        "velocity": 0,
        "byte9": true
      },
      {
        "deltaTime": 0,
        "running": true,
        "channel": 0,
        "type": "noteOff",
        "noteNumber": 65,
        "velocity": 0,
        "byte9": true
      },
      {
        "deltaTime": 4,
        "channel": 0,
        "type": "noteOff",
        "noteNumber": 60,
        "velocity": 0,
        "byte9": true
      },
      {
        "deltaTime": 0,
        "running": true,
        "channel": 0,
        "type": "noteOff",
        "noteNumber": 89,
        "velocity": 0,
        "byte9": true
      },
      {
        "deltaTime": 4,
        "channel": 0,
        "type": "noteOff",
        "noteNumber": 61,
        "velocity": 0,
        "byte9": true
      },
      {
        "deltaTime": 8,
        "channel": 0,
        "type": "noteOff",
        "noteNumber": 84,
        "velocity": 0,
        "byte9": true
      },
      {
        "deltaTime": 36,
        "channel": 0,
        "type": "controller",
        "controllerType": 64,
        "value": 0
      },
      {
        "deltaTime": 12,
        "channel": 0,
        "type": "noteOn",
        "noteNumber": 65,
        "velocity": 65
      },
      {
        "deltaTime": 4,
        "channel": 0,
        "type": "noteOn",
        "noteNumber": 61,
        "velocity": 57
      },
      {
        "deltaTime": 0,
        "running": true,
        "channel": 0,
        "type": "noteOn",
        "noteNumber": 77,
        "velocity": 60
      },
      {
        "deltaTime": 0,
        "running": true,
        "channel": 0,
        "type": "noteOn",
        "noteNumber": 89,
        "velocity": 73
      },
      {
        "deltaTime": 4,
        "channel": 0,
        "type": "noteOn",
        "noteNumber": 60,
        "velocity": 61
      },
      {
        "deltaTime": 0,
        "running": true,
        "channel": 0,
        "type": "noteOn",
        "noteNumber": 84,
        "velocity": 70
      },
      {
        "deltaTime": 4,
        "channel": 0,
        "type": "noteOn",
        "noteNumber": 56,
        "velocity": 49
      },
      {
        "deltaTime": 20,
        "channel": 0,
        "type": "controller",
        "controllerType": 64,
        "value": 127
      },
      {
        "deltaTime": 60,
        "channel": 0,
        "type": "noteOff",
        "noteNumber": 84,
        "velocity": 0,
        "byte9": true
      },
      {
        "deltaTime": 8,
        "channel": 0,
        "type": "noteOff",
        "noteNumber": 89,
        "velocity": 0,
        "byte9": true
      },
      {
        "deltaTime": 8,
        "channel": 0,
        "type": "noteOff",
        "noteNumber": 77,
        "velocity": 0,
        "byte9": true
      },
      {
        "deltaTime": 4,
        "channel": 0,
        "type": "noteOff",
        "noteNumber": 60,
        "velocity": 0,
        "byte9": true
      },
      {
        "deltaTime": 0,
        "running": true,
        "channel": 0,
        "type": "noteOff",
        "noteNumber": 65,
        "velocity": 0,
        "byte9": true
      },
      {
        "deltaTime": 32,
        "channel": 0,
        "type": "noteOff",
        "noteNumber": 61,
        "velocity": 0,
        "byte9": true
      },
      {
        "deltaTime": 4,
        "channel": 0,
        "type": "noteOff",
        "noteNumber": 56,
        "velocity": 0,
        "byte9": true
      },
      {
        "deltaTime": 24,
        "channel": 0,
        "type": "noteOn",
        "noteNumber": 77,
        "velocity": 72
      },
      {
        "deltaTime": 0,
        "running": true,
        "channel": 0,
        "type": "noteOn",
        "noteNumber": 89,
        "velocity": 76
      },
      {
        "deltaTime": 4,
        "channel": 0,
        "type": "noteOn",
        "noteNumber": 61,
        "velocity": 64
      },
      {
        "deltaTime": 0,
        "running": true,
        "channel": 0,
        "type": "noteOn",
        "noteNumber": 83,
        "velocity": 72
      },
      {
        "deltaTime": 0,
        "running": true,
        "channel": 0,
        "type": "noteOn",
        "noteNumber": 85,
        "velocity": 62
      },
      {
        "deltaTime": 4,
        "channel": 0,
        "type": "noteOn",
        "noteNumber": 55,
        "velocity": 75
      },
      {
        "deltaTime": 0,
        "running": true,
        "channel": 0,
        "type": "noteOn",
        "noteNumber": 64,
        "velocity": 67
      },
      {
        "deltaTime": 8,
        "channel": 0,
        "type": "controller",
        "controllerType": 64,
        "value": 0
      },
      {
        "deltaTime": 60,
        "channel": 0,
        "type": "controller",
        "controllerType": 64,
        "value": 127
      },
      {
        "deltaTime": 60,
        "channel": 0,
        "type": "noteOff",
        "noteNumber": 83,
        "velocity": 0,
        "byte9": true
      },
      {
        "deltaTime": 12,
        "channel": 0,
        "type": "noteOff",
        "noteNumber": 77,
        "velocity": 0,
        "byte9": true
      },
      {
        "deltaTime": 4,
        "channel": 0,
        "type": "noteOff",
        "noteNumber": 55,
        "velocity": 0,
        "byte9": true
      },
      {
        "deltaTime": 4,
        "channel": 0,
        "type": "noteOff",
        "noteNumber": 64,
        "velocity": 0,
        "byte9": true
      },
      {
        "deltaTime": 0,
        "running": true,
        "channel": 0,
        "type": "noteOff",
        "noteNumber": 85,
        "velocity": 0,
        "byte9": true
      },
      {
        "deltaTime": 4,
        "channel": 0,
        "type": "noteOff",
        "noteNumber": 89,
        "velocity": 0,
        "byte9": true
      },
      {
        "deltaTime": 8,
        "channel": 0,
        "type": "noteOff",
        "noteNumber": 61,
        "velocity": 0,
        "byte9": true
      },
      {
        "deltaTime": 60,
        "channel": 0,
        "type": "noteOn",
        "noteNumber": 61,
        "velocity": 71
      },
      {
        "deltaTime": 4,
        "channel": 0,
        "type": "noteOn",
        "noteNumber": 85,
        "velocity": 67
      },
      {
        "deltaTime": 0,
        "running": true,
        "channel": 0,
        "type": "noteOn",
        "noteNumber": 89,
        "velocity": 71
      },
      {
        "deltaTime": 4,
        "channel": 0,
        "type": "noteOn",
        "noteNumber": 55,
        "velocity": 77
      },
      {
        "deltaTime": 0,
        "running": true,
        "channel": 0,
        "type": "noteOn",
        "noteNumber": 64,
        "velocity": 73
      },
      {
        "deltaTime": 0,
        "running": true,
        "channel": 0,
        "type": "noteOn",
        "noteNumber": 77,
        "velocity": 71
      },
      {
        "deltaTime": 0,
        "running": true,
        "channel": 0,
        "type": "noteOn",
        "noteNumber": 83,
        "velocity": 75
      },
      {
        "deltaTime": 20,
        "channel": 0,
        "type": "controller",
        "controllerType": 64,
        "value": 0
      },
      {
        "deltaTime": 36,
        "channel": 0,
        "type": "controller",
        "controllerType": 64,
        "value": 127
      },
      {
        "deltaTime": 12,
        "channel": 0,
        "type": "noteOff",
        "noteNumber": 55,
        "velocity": 0,
        "byte9": true
      },
      {
        "deltaTime": 4,
        "channel": 0,
        "type": "noteOff",
        "noteNumber": 64,
        "velocity": 0,
        "byte9": true
      },
      {
        "deltaTime": 12,
        "channel": 0,
        "type": "noteOff",
        "noteNumber": 83,
        "velocity": 0,
        "byte9": true
      },
      {
        "deltaTime": 4,
        "channel": 0,
        "type": "noteOff",
        "noteNumber": 77,
        "velocity": 0,
        "byte9": true
      },
      {
        "deltaTime": 8,
        "channel": 0,
        "type": "noteOff",
        "noteNumber": 61,
        "velocity": 0,
        "byte9": true
      },
      {
        "deltaTime": 16,
        "channel": 0,
        "type": "noteOff",
        "noteNumber": 85,
        "velocity": 0,
        "byte9": true
      },
      {
        "deltaTime": 52,
        "channel": 0,
        "type": "noteOff",
        "noteNumber": 89,
        "velocity": 0,
        "byte9": true
      },
      {
        "deltaTime": 64,
        "channel": 0,
        "type": "noteOn",
        "noteNumber": 58,
        "velocity": 60
      },
      {
        "deltaTime": 0,
        "running": true,
        "channel": 0,
        "type": "noteOn",
        "noteNumber": 60,
        "velocity": 76
      },
      {
        "deltaTime": 0,
        "running": true,
        "channel": 0,
        "type": "noteOn",
        "noteNumber": 63,
        "velocity": 80
      },
      {
        "deltaTime": 4,
        "channel": 0,
        "type": "noteOn",
        "noteNumber": 53,
        "velocity": 71
      },
      {
        "deltaTime": 0,
        "running": true,
        "channel": 0,
        "type": "noteOn",
        "noteNumber": 83,
        "velocity": 91
      },
      {
        "deltaTime": 0,
        "running": true,
        "channel": 0,
        "type": "noteOn",
        "noteNumber": 89,
        "velocity": 81
      },
      {
        "deltaTime": 4,
        "channel": 0,
        "type": "noteOn",
        "noteNumber": 77,
        "velocity": 85
      },
      {
        "deltaTime": 16,
        "channel": 0,
        "type": "controller",
        "controllerType": 64,
        "value": 0
      },
      {
        "deltaTime": 64,
        "channel": 0,
        "type": "controller",
        "controllerType": 64,
        "value": 127
      },
      {
        "deltaTime": 184,
        "channel": 0,
        "type": "noteOff",
        "noteNumber": 89,
        "velocity": 0,
        "byte9": true
      },
      {
        "deltaTime": 28,
        "channel": 0,
        "type": "noteOff",
        "noteNumber": 83,
        "velocity": 0,
        "byte9": true
      },
      {
        "deltaTime": 4,
        "channel": 0,
        "type": "noteOff",
        "noteNumber": 77,
        "velocity": 0,
        "byte9": true
      },
      {
        "deltaTime": 8,
        "channel": 0,
        "type": "noteOff",
        "noteNumber": 53,
        "velocity": 0,
        "byte9": true
      },
      {
        "deltaTime": 0,
        "running": true,
        "channel": 0,
        "type": "noteOff",
        "noteNumber": 63,
        "velocity": 0,
        "byte9": true
      },
      {
        "deltaTime": 112,
        "channel": 0,
        "type": "noteOff",
        "noteNumber": 58,
        "velocity": 0,
        "byte9": true
      },
      {
        "deltaTime": 8,
        "channel": 0,
        "type": "noteOff",
        "noteNumber": 60,
        "velocity": 0,
        "byte9": true
      },
      {
        "deltaTime": 108,
        "channel": 0,
        "type": "noteOn",
        "noteNumber": 80,
        "velocity": 53
      },
      {
        "deltaTime": 4,
        "channel": 0,
        "type": "controller",
        "controllerType": 64,
        "value": 0
      },
      {
        "deltaTime": 4,
        "channel": 0,
        "type": "noteOn",
        "noteNumber": 63,
        "velocity": 46
      },
      {
        "deltaTime": 0,
        "running": true,
        "channel": 0,
        "type": "noteOn",
        "noteNumber": 68,
        "velocity": 43
      },
      {
        "deltaTime": 0,
        "running": true,
        "channel": 0,
        "type": "noteOn",
        "noteNumber": 75,
        "velocity": 56
      },
      {
        "deltaTime": 4,
        "channel": 0,
        "type": "noteOn",
        "noteNumber": 53,
        "velocity": 37
      },
      {
        "deltaTime": 0,
        "running": true,
        "channel": 0,
        "type": "noteOn",
        "noteNumber": 60,
        "velocity": 47
      },
      {
        "deltaTime": 4,
        "channel": 0,
        "type": "noteOn",
        "noteNumber": 58,
        "velocity": 37
      },
      {
        "deltaTime": 60,
        "channel": 0,
        "type": "controller",
        "controllerType": 64,
        "value": 127
      },
      {
        "deltaTime": 52,
        "channel": 0,
        "type": "noteOff",
        "noteNumber": 63,
        "velocity": 0,
        "byte9": true
      },
      {
        "deltaTime": 8,
        "channel": 0,
        "type": "noteOff",
        "noteNumber": 53,
        "velocity": 0,
        "byte9": true
      },
      {
        "deltaTime": 0,
        "running": true,
        "channel": 0,
        "type": "noteOff",
        "noteNumber": 60,
        "velocity": 0,
        "byte9": true
      },
      {
        "deltaTime": 0,
        "running": true,
        "channel": 0,
        "type": "noteOff",
        "noteNumber": 80,
        "velocity": 0,
        "byte9": true
      },
      {
        "deltaTime": 4,
        "channel": 0,
        "type": "noteOff",
        "noteNumber": 58,
        "velocity": 0,
        "byte9": true
      },
      {
        "deltaTime": 0,
        "running": true,
        "channel": 0,
        "type": "noteOff",
        "noteNumber": 68,
        "velocity": 0,
        "byte9": true
      },
      {
        "deltaTime": 4,
        "channel": 0,
        "type": "noteOff",
        "noteNumber": 75,
        "velocity": 0,
        "byte9": true
      },
      {
        "deltaTime": 108,
        "channel": 0,
        "type": "noteOn",
        "noteNumber": 58,
        "velocity": 25
      },
      {
        "deltaTime": 4,
        "channel": 0,
        "type": "noteOn",
        "noteNumber": 53,
        "velocity": 38
      },
      {
        "deltaTime": 20,
        "channel": 0,
        "type": "noteOff",
        "noteNumber": 58,
        "velocity": 0,
        "byte9": true
      },
      {
        "deltaTime": 44,
        "channel": 0,
        "type": "noteOff",
        "noteNumber": 53,
        "velocity": 0,
        "byte9": true
      },
      {
        "deltaTime": 92,
        "channel": 0,
        "type": "noteOn",
        "noteNumber": 55,
        "velocity": 24
      },
      {
        "deltaTime": 12,
        "channel": 0,
        "type": "noteOn",
        "noteNumber": 56,
        "velocity": 47
      },
      {
        "deltaTime": 16,
        "channel": 0,
        "type": "noteOff",
        "noteNumber": 55,
        "velocity": 0,
        "byte9": true
      },
      {
        "deltaTime": 48,
        "channel": 0,
        "type": "noteOn",
        "noteNumber": 57,
        "velocity": 53
      },
      {
        "deltaTime": 8,
        "channel": 0,
        "type": "noteOff",
        "noteNumber": 56,
        "velocity": 0,
        "byte9": true
      },
      {
        "deltaTime": 4,
        "channel": 0,
        "type": "noteOn",
        "noteNumber": 63,
        "velocity": 74
      },
      {
        "deltaTime": 4,
        "channel": 0,
        "type": "noteOff",
        "noteNumber": 57,
        "velocity": 0,
        "byte9": true
      },
      {
        "deltaTime": 0,
        "running": true,
        "channel": 0,
        "type": "noteOn",
        "noteNumber": 70,
        "velocity": 74
      },
      {
        "deltaTime": 4,
        "channel": 0,
        "type": "noteOn",
        "noteNumber": 58,
        "velocity": 78
      },
      {
        "deltaTime": 0,
        "running": true,
        "channel": 0,
        "type": "noteOn",
        "noteNumber": 59,
        "velocity": 73
      },
      {
        "deltaTime": 0,
        "running": true,
        "channel": 0,
        "type": "noteOn",
        "noteNumber": 65,
        "velocity": 65
      },
      {
        "deltaTime": 16,
        "channel": 0,
        "type": "controller",
        "controllerType": 64,
        "value": 0
      },
      {
        "deltaTime": 96,
        "channel": 0,
        "type": "controller",
        "controllerType": 64,
        "value": 127
      },
      {
        "deltaTime": 76,
        "channel": 0,
        "type": "controller",
        "controllerType": 64,
        "value": 0
      },
      {
        "deltaTime": 28,
        "channel": 0,
        "type": "controller",
        "controllerType": 64,
        "value": 127
      },
      {
        "deltaTime": 84,
        "channel": 0,
        "type": "noteOff",
        "noteNumber": 58,
        "velocity": 0,
        "byte9": true
      },
      {
        "deltaTime": 36,
        "channel": 0,
        "type": "noteOff",
        "noteNumber": 59,
        "velocity": 0,
        "byte9": true
      },
      {
        "deltaTime": 20,
        "channel": 0,
        "type": "noteOff",
        "noteNumber": 65,
        "velocity": 0,
        "byte9": true
      },
      {
        "deltaTime": 8,
        "channel": 0,
        "type": "noteOff",
        "noteNumber": 70,
        "velocity": 0,
        "byte9": true
      },
      {
        "deltaTime": 4,
        "channel": 0,
        "type": "noteOff",
        "noteNumber": 63,
        "velocity": 0,
        "byte9": true
      },
      {
        "deltaTime": 36,
        "channel": 0,
        "type": "noteOn",
        "noteNumber": 68,
        "velocity": 52
      },
      {
        "deltaTime": 4,
        "channel": 0,
        "type": "noteOn",
        "noteNumber": 59,
        "velocity": 49
      },
      {
        "deltaTime": 0,
        "running": true,
        "channel": 0,
        "type": "noteOn",
        "noteNumber": 62,
        "velocity": 47
      },
      {
        "deltaTime": 8,
        "channel": 0,
        "type": "noteOn",
        "noteNumber": 65,
        "velocity": 29
      },
      {
        "deltaTime": 4,
        "channel": 0,
        "type": "noteOn",
        "noteNumber": 56,
        "velocity": 33
      },
      {
        "deltaTime": 8,
        "channel": 0,
        "type": "noteOn",
        "noteNumber": 46,
        "velocity": 31
      },
      {
        "deltaTime": 4,
        "channel": 0,
        "type": "controller",
        "controllerType": 64,
        "value": 0
      },
      {
        "deltaTime": 72,
        "channel": 0,
        "type": "controller",
        "controllerType": 64,
        "value": 127
      },
      {
        "deltaTime": 160,
        "channel": 0,
        "type": "noteOff",
        "noteNumber": 59,
        "velocity": 0,
        "byte9": true
      },
      {
        "deltaTime": 68,
        "channel": 0,
        "type": "noteOn",
        "noteNumber": 59,
        "velocity": 52
      },
      {
        "deltaTime": 20,
        "channel": 0,
        "type": "noteOff",
        "noteNumber": 65,
        "velocity": 0,
        "byte9": true
      },
      {
        "deltaTime": 4,
        "channel": 0,
        "type": "noteOff",
        "noteNumber": 68,
        "velocity": 0,
        "byte9": true
      },
      {
        "deltaTime": 28,
        "channel": 0,
        "type": "noteOff",
        "noteNumber": 46,
        "velocity": 0,
        "byte9": true
      },
      {
        "deltaTime": 8,
        "channel": 0,
        "type": "noteOff",
        "noteNumber": 59,
        "velocity": 0,
        "byte9": true
      },
      {
        "deltaTime": 16,
        "channel": 0,
        "type": "noteOff",
        "noteNumber": 56,
        "velocity": 0,
        "byte9": true
      },
      {
        "deltaTime": 44,
        "channel": 0,
        "type": "noteOff",
        "noteNumber": 62,
        "velocity": 0,
        "byte9": true
      },
      {
        "deltaTime": 116,
        "channel": 0,
        "type": "noteOn",
        "noteNumber": 58,
        "velocity": 34
      },
      {
        "deltaTime": 0,
        "running": true,
        "channel": 0,
        "type": "noteOn",
        "noteNumber": 63,
        "velocity": 46
      },
      {
        "deltaTime": 0,
        "running": true,
        "channel": 0,
        "type": "noteOn",
        "noteNumber": 67,
        "velocity": 40
      },
      {
        "deltaTime": 4,
        "channel": 0,
        "type": "controller",
        "controllerType": 64,
        "value": 0
      },
      {
        "deltaTime": 0,
        "channel": 0,
        "type": "noteOn",
        "noteNumber": 46,
        "velocity": 34
      },
      {
        "deltaTime": 8,
        "channel": 0,
        "type": "noteOn",
        "noteNumber": 55,
        "velocity": 36
      },
      {
        "deltaTime": 72,
        "channel": 0,
        "type": "controller",
        "controllerType": 64,
        "value": 127
      },
      {
        "deltaTime": 96,
        "channel": 0,
        "type": "noteOff",
        "noteNumber": 58,
        "velocity": 0,
        "byte9": true
      },
      {
        "deltaTime": 12,
        "channel": 0,
        "type": "noteOff",
        "noteNumber": 67,
        "velocity": 0,
        "byte9": true
      },
      {
        "deltaTime": 16,
        "channel": 0,
        "type": "noteOff",
        "noteNumber": 63,
        "velocity": 0,
        "byte9": true
      },
      {
        "deltaTime": 108,
        "channel": 0,
        "type": "noteOff",
        "noteNumber": 46,
        "velocity": 0,
        "byte9": true
      },
      {
        "deltaTime": 68,
        "channel": 0,
        "type": "noteOn",
        "noteNumber": 46,
        "velocity": 30
      },
      {
        "deltaTime": 12,
        "channel": 0,
        "type": "noteOff",
        "noteNumber": 55,
        "velocity": 0,
        "byte9": true
      },
      {
        "deltaTime": 72,
        "channel": 0,
        "type": "noteOn",
        "noteNumber": 55,
        "velocity": 50
      },
      {
        "deltaTime": 0,
        "running": true,
        "channel": 0,
        "type": "noteOn",
        "noteNumber": 67,
        "velocity": 65
      },
      {
        "deltaTime": 120,
        "channel": 0,
        "type": "noteOff",
        "noteNumber": 67,
        "velocity": 0,
        "byte9": true
      },
      {
        "deltaTime": 36,
        "channel": 0,
        "type": "noteOn",
        "noteNumber": 70,
        "velocity": 79
      },
      {
        "deltaTime": 48,
        "channel": 0,
        "type": "noteOff",
        "noteNumber": 70,
        "velocity": 0,
        "byte9": true
      },
      {
        "deltaTime": 112,
        "channel": 0,
        "type": "noteOn",
        "noteNumber": 75,
        "velocity": 75
      },
      {
        "deltaTime": 28,
        "channel": 0,
        "type": "noteOff",
        "noteNumber": 75,
        "velocity": 0,
        "byte9": true
      },
      {
        "deltaTime": 8,
        "channel": 0,
        "type": "noteOff",
        "noteNumber": 55,
        "velocity": 0,
        "byte9": true
      },
      {
        "deltaTime": 72,
        "channel": 0,
        "type": "noteOff",
        "noteNumber": 46,
        "velocity": 0,
        "byte9": true
      },
      {
        "deltaTime": 52,
        "channel": 0,
        "type": "noteOn",
        "noteNumber": 56,
        "velocity": 53
      },
      {
        "deltaTime": 8,
        "channel": 0,
        "type": "noteOn",
        "noteNumber": 63,
        "velocity": 42
      },
      {
        "deltaTime": 0,
        "running": true,
        "channel": 0,
        "type": "noteOn",
        "noteNumber": 65,
        "velocity": 44
      },
      {
        "deltaTime": 8,
        "channel": 0,
        "type": "noteOn",
        "noteNumber": 46,
        "velocity": 32
      },
      {
        "deltaTime": 20,
        "channel": 0,
        "type": "controller",
        "controllerType": 64,
        "value": 0
      },
      {
        "deltaTime": 4,
        "channel": 0,
        "type": "noteOn",
        "noteNumber": 60,
        "velocity": 13
      },
      {
        "deltaTime": 76,
        "channel": 0,
        "type": "controller",
        "controllerType": 64,
        "value": 127
      },
      {
        "deltaTime": 156,
        "channel": 0,
        "type": "noteOff",
        "noteNumber": 56,
        "velocity": 0,
        "byte9": true
      },
      {
        "deltaTime": 28,
        "channel": 0,
        "type": "noteOff",
        "noteNumber": 60,
        "velocity": 0,
        "byte9": true
      },
      {
        "deltaTime": 72,
        "channel": 0,
        "type": "noteOff",
        "noteNumber": 63,
        "velocity": 0,
        "byte9": true
      },
      {
        "deltaTime": 4,
        "channel": 0,
        "type": "noteOff",
        "noteNumber": 65,
        "velocity": 0,
        "byte9": true
      },
      {
        "deltaTime": 24,
        "channel": 0,
        "type": "noteOn",
        "noteNumber": 58,
        "velocity": 55
      },
      {
        "deltaTime": 108,
        "channel": 0,
        "type": "noteOff",
        "noteNumber": 58,
        "velocity": 0,
        "byte9": true
      },
      {
        "deltaTime": 64,
        "channel": 0,
        "type": "noteOn",
        "noteNumber": 58,
        "velocity": 51
      },
      {
        "deltaTime": 112,
        "channel": 0,
        "type": "noteOff",
        "noteNumber": 58,
        "velocity": 0,
        "byte9": true
      },
      {
        "deltaTime": 52,
        "channel": 0,
        "type": "noteOn",
        "noteNumber": 58,
        "velocity": 46
      },
      {
        "deltaTime": 56,
        "channel": 0,
        "type": "noteOff",
        "noteNumber": 58,
        "velocity": 0,
        "byte9": true
      },
      {
        "deltaTime": 100,
        "channel": 0,
        "type": "noteOff",
        "noteNumber": 46,
        "velocity": 0,
        "byte9": true
      },
      {
        "deltaTime": 24,
        "channel": 0,
        "type": "noteOn",
        "noteNumber": 67,
        "velocity": 53
      },
      {
        "deltaTime": 12,
        "channel": 0,
        "type": "noteOn",
        "noteNumber": 46,
        "velocity": 18
      },
      {
        "deltaTime": 4,
        "channel": 0,
        "type": "noteOn",
        "noteNumber": 55,
        "velocity": 43
      },
      {
        "deltaTime": 0,
        "running": true,
        "channel": 0,
        "type": "noteOn",
        "noteNumber": 58,
        "velocity": 45
      },
      {
        "deltaTime": 0,
        "running": true,
        "channel": 0,
        "type": "noteOn",
        "noteNumber": 62,
        "velocity": 52
      },
      {
        "deltaTime": 16,
        "channel": 0,
        "type": "controller",
        "controllerType": 64,
        "value": 0
      },
      {
        "deltaTime": 60,
        "channel": 0,
        "type": "controller",
        "controllerType": 64,
        "value": 127
      },
      {
        "deltaTime": 52,
        "channel": 0,
        "type": "noteOff",
        "noteNumber": 58,
        "velocity": 0,
        "byte9": true
      },
      {
        "deltaTime": 16,
        "channel": 0,
        "type": "noteOff",
        "noteNumber": 46,
        "velocity": 0,
        "byte9": true
      },
      {
        "deltaTime": 24,
        "channel": 0,
        "type": "noteOff",
        "noteNumber": 62,
        "velocity": 0,
        "byte9": true
      },
      {
        "deltaTime": 8,
        "channel": 0,
        "type": "noteOff",
        "noteNumber": 67,
        "velocity": 0,
        "byte9": true
      },
      {
        "deltaTime": 52,
        "channel": 0,
        "type": "noteOn",
        "noteNumber": 46,
        "velocity": 59
      },
      {
        "deltaTime": 40,
        "channel": 0,
        "type": "noteOff",
        "noteNumber": 46,
        "velocity": 0,
        "byte9": true
      },
      {
        "deltaTime": 8,
        "channel": 0,
        "type": "noteOff",
        "noteNumber": 55,
        "velocity": 0,
        "byte9": true
      },
      {
        "deltaTime": 260,
        "channel": 0,
        "type": "noteOn",
        "noteNumber": 79,
        "velocity": 56
      },
      {
        "deltaTime": 4,
        "channel": 0,
        "type": "noteOn",
        "noteNumber": 67,
        "velocity": 40
      },
      {
        "deltaTime": 4,
        "channel": 0,
        "type": "noteOn",
        "noteNumber": 60,
        "velocity": 37
      },
      {
        "deltaTime": 4,
        "channel": 0,
        "type": "noteOn",
        "noteNumber": 63,
        "velocity": 25
      },
      {
        "deltaTime": 8,
        "channel": 0,
        "type": "noteOff",
        "noteNumber": 67,
        "velocity": 0,
        "byte9": true
      },
      {
        "deltaTime": 20,
        "channel": 0,
        "type": "noteOff",
        "noteNumber": 79,
        "velocity": 0,
        "byte9": true
      },
      {
        "deltaTime": 52,
        "channel": 0,
        "type": "noteOff",
        "noteNumber": 63,
        "velocity": 0,
        "byte9": true
      },
      {
        "deltaTime": 64,
        "channel": 0,
        "type": "noteOn",
        "noteNumber": 63,
        "velocity": 39
      },
      {
        "deltaTime": 0,
        "running": true,
        "channel": 0,
        "type": "noteOn",
        "noteNumber": 70,
        "velocity": 64
      },
      {
        "deltaTime": 4,
        "channel": 0,
        "type": "noteOn",
        "noteNumber": 82,
        "velocity": 61
      },
      {
        "deltaTime": 4,
        "channel": 0,
        "type": "noteOn",
        "noteNumber": 67,
        "velocity": 40
      },
      {
        "deltaTime": 16,
        "channel": 0,
        "type": "noteOff",
        "noteNumber": 70,
        "velocity": 0,
        "byte9": true
      },
      {
        "deltaTime": 8,
        "channel": 0,
        "type": "noteOff",
        "noteNumber": 82,
        "velocity": 0,
        "byte9": true
      },
      {
        "deltaTime": 8,
        "channel": 0,
        "type": "noteOff",
        "noteNumber": 67,
        "velocity": 0,
        "byte9": true
      },
      {
        "deltaTime": 24,
        "channel": 0,
        "type": "noteOff",
        "noteNumber": 60,
        "velocity": 0,
        "byte9": true
      },
      {
        "deltaTime": 80,
        "channel": 0,
        "type": "noteOff",
        "noteNumber": 63,
        "velocity": 0,
        "byte9": true
      },
      {
        "deltaTime": 12,
        "channel": 0,
        "type": "noteOn",
        "noteNumber": 87,
        "velocity": 53
      },
      {
        "deltaTime": 4,
        "channel": 0,
        "type": "noteOn",
        "noteNumber": 75,
        "velocity": 61
      },
      {
        "deltaTime": 28,
        "channel": 0,
        "type": "noteOff",
        "noteNumber": 87,
        "velocity": 0,
        "byte9": true
      },
      {
        "deltaTime": 12,
        "channel": 0,
        "type": "noteOff",
        "noteNumber": 75,
        "velocity": 0,
        "byte9": true
      },
      {
        "deltaTime": 120,
        "channel": 0,
        "type": "noteOn",
        "noteNumber": 68,
        "velocity": 40
      },
      {
        "deltaTime": 0,
        "running": true,
        "channel": 0,
        "type": "noteOn",
        "noteNumber": 72,
        "velocity": 47
      },
      {
        "deltaTime": 0,
        "running": true,
        "channel": 0,
        "type": "noteOn",
        "noteNumber": 79,
        "velocity": 40
      },
      {
        "deltaTime": 4,
        "channel": 0,
        "type": "noteOn",
        "noteNumber": 60,
        "velocity": 46
      },
      {
        "deltaTime": 0,
        "running": true,
        "channel": 0,
        "type": "noteOn",
        "noteNumber": 77,
        "velocity": 42
      },
      {
        "deltaTime": 4,
        "channel": 0,
        "type": "controller",
        "controllerType": 64,
        "value": 0
      },
      {
        "deltaTime": 8,
        "channel": 0,
        "type": "noteOn",
        "noteNumber": 63,
        "velocity": 31
      },
      {
        "deltaTime": 44,
        "channel": 0,
        "type": "controller",
        "controllerType": 64,
        "value": 127
      },
      {
        "deltaTime": 48,
        "channel": 0,
        "type": "noteOff",
        "noteNumber": 72,
        "velocity": 0,
        "byte9": true
      },
      {
        "deltaTime": 4,
        "channel": 0,
        "type": "noteOff",
        "noteNumber": 79,
        "velocity": 0,
        "byte9": true
      },
      {
        "deltaTime": 4,
        "channel": 0,
        "type": "noteOff",
        "noteNumber": 77,
        "velocity": 0,
        "byte9": true
      },
      {
        "deltaTime": 44,
        "channel": 0,
        "type": "noteOn",
        "noteNumber": 58,
        "velocity": 47
      },
      {
        "deltaTime": 148,
        "channel": 0,
        "type": "noteOff",
        "noteNumber": 63,
        "velocity": 0,
        "byte9": true
      },
      {
        "deltaTime": 28,
        "channel": 0,
        "type": "noteOff",
        "noteNumber": 68,
        "velocity": 0,
        "byte9": true
      },
      {
        "deltaTime": 60,
        "channel": 0,
        "type": "noteOn",
        "noteNumber": 68,
        "velocity": 56
      },
      {
        "deltaTime": 4,
        "channel": 0,
        "type": "noteOn",
        "noteNumber": 95,
        "velocity": 85
      },
      {
        "deltaTime": 4,
        "channel": 0,
        "type": "noteOn",
        "noteNumber": 83,
        "velocity": 77
      },
      {
        "deltaTime": 4,
        "channel": 0,
        "type": "noteOn",
        "noteNumber": 63,
        "velocity": 38
      },
      {
        "deltaTime": 120,
        "channel": 0,
        "type": "noteOff",
        "noteNumber": 68,
        "velocity": 0,
        "byte9": true
      },
      {
        "deltaTime": 12,
        "channel": 0,
        "type": "noteOff",
        "noteNumber": 63,
        "velocity": 0,
        "byte9": true
      },
      {
        "deltaTime": 4,
        "channel": 0,
        "type": "noteOff",
        "noteNumber": 83,
        "velocity": 0,
        "byte9": true
      },
      {
        "deltaTime": 8,
        "channel": 0,
        "type": "noteOff",
        "noteNumber": 95,
        "velocity": 0,
        "byte9": true
      },
      {
        "deltaTime": 84,
        "channel": 0,
        "type": "noteOn",
        "noteNumber": 94,
        "velocity": 77
      },
      {
        "deltaTime": 4,
        "channel": 0,
        "type": "noteOn",
        "noteNumber": 68,
        "velocity": 61
      },
      {
        "deltaTime": 8,
        "channel": 0,
        "type": "noteOn",
        "noteNumber": 63,
        "velocity": 38
      },
      {
        "deltaTime": 68,
        "channel": 0,
        "type": "noteOff",
        "noteNumber": 68,
        "velocity": 0,
        "byte9": true
      },
      {
        "deltaTime": 12,
        "channel": 0,
        "type": "noteOff",
        "noteNumber": 94,
        "velocity": 0,
        "byte9": true
      },
      {
        "deltaTime": 8,
        "channel": 0,
        "type": "noteOff",
        "noteNumber": 63,
        "velocity": 0,
        "byte9": true
      },
      {
        "deltaTime": 20,
        "channel": 0,
        "type": "noteOff",
        "noteNumber": 60,
        "velocity": 0,
        "byte9": true
      },
      {
        "deltaTime": 0,
        "running": true,
        "channel": 0,
        "type": "noteOn",
        "noteNumber": 91,
        "velocity": 35
      },
      {
        "deltaTime": 28,
        "channel": 0,
        "type": "noteOff",
        "noteNumber": 58,
        "velocity": 0,
        "byte9": true
      },
      {
        "deltaTime": 56,
        "channel": 0,
        "type": "noteOff",
        "noteNumber": 91,
        "velocity": 0,
        "byte9": true
      },
      {
        "deltaTime": 36,
        "channel": 0,
        "type": "noteOn",
        "noteNumber": 92,
        "velocity": 65
      },
      {
        "deltaTime": 72,
        "channel": 0,
        "type": "noteOff",
        "noteNumber": 92,
        "velocity": 0,
        "byte9": true
      },
      {
        "deltaTime": 24,
        "channel": 0,
        "type": "noteOn",
        "noteNumber": 94,
        "velocity": 59
      },
      {
        "deltaTime": 28,
        "channel": 0,
        "type": "controller",
        "controllerType": 64,
        "value": 0
      },
      {
        "deltaTime": 12,
        "channel": 0,
        "type": "controller",
        "controllerType": 64,
        "value": 127
      },
      {
        "deltaTime": 68,
        "channel": 0,
        "type": "noteOff",
        "noteNumber": 94,
        "velocity": 0,
        "byte9": true
      },
      {
        "deltaTime": 32,
        "channel": 0,
        "type": "noteOn",
        "noteNumber": 91,
        "velocity": 54
      },
      {
        "deltaTime": 4,
        "channel": 0,
        "type": "noteOn",
        "noteNumber": 62,
        "velocity": 39
      },
      {
        "deltaTime": 0,
        "running": true,
        "channel": 0,
        "type": "noteOn",
        "noteNumber": 63,
        "velocity": 27
      },
      {
        "deltaTime": 0,
        "running": true,
        "channel": 0,
        "type": "noteOn",
        "noteNumber": 67,
        "velocity": 33
      },
      {
        "deltaTime": 48,
        "channel": 0,
        "type": "controller",
        "controllerType": 64,
        "value": 0
      },
      {
        "deltaTime": 24,
        "channel": 0,
        "type": "noteOff",
        "noteNumber": 91,
        "velocity": 0,
        "byte9": true
      },
      {
        "deltaTime": 16,
        "channel": 0,
        "type": "controller",
        "controllerType": 64,
        "value": 127
      },
      {
        "deltaTime": 8,
        "channel": 0,
        "type": "noteOn",
        "noteNumber": 86,
        "velocity": 44
      },
      {
        "deltaTime": 136,
        "channel": 0,
        "type": "noteOff",
        "noteNumber": 67,
        "velocity": 0,
        "byte9": true
      },
      {
        "deltaTime": 20,
        "channel": 0,
        "type": "noteOff",
        "noteNumber": 63,
        "velocity": 0,
        "byte9": true
      },
      {
        "deltaTime": 4,
        "channel": 0,
        "type": "noteOff",
        "noteNumber": 62,
        "velocity": 0,
        "byte9": true
      },
      {
        "deltaTime": 4,
        "channel": 0,
        "type": "noteOff",
        "noteNumber": 86,
        "velocity": 0,
        "byte9": true
      },
      {
        "deltaTime": 40,
        "channel": 0,
        "type": "noteOn",
        "noteNumber": 63,
        "velocity": 37
      },
      {
        "deltaTime": 8,
        "channel": 0,
        "type": "noteOn",
        "noteNumber": 89,
        "velocity": 60
      },
      {
        "deltaTime": 4,
        "channel": 0,
        "type": "noteOn",
        "noteNumber": 67,
        "velocity": 26
      },
      {
        "deltaTime": 8,
        "channel": 0,
        "type": "noteOn",
        "noteNumber": 62,
        "velocity": 19
      },
      {
        "deltaTime": 108,
        "channel": 0,
        "type": "noteOff",
        "noteNumber": 67,
        "velocity": 0,
        "byte9": true
      },
      {
        "deltaTime": 24,
        "channel": 0,
        "type": "noteOff",
        "noteNumber": 62,
        "velocity": 0,
        "byte9": true
      },
      {
        "deltaTime": 4,
        "channel": 0,
        "type": "noteOff",
        "noteNumber": 89,
        "velocity": 0,
        "byte9": true
      },
      {
        "deltaTime": 8,
        "channel": 0,
        "type": "noteOn",
        "noteNumber": 87,
        "velocity": 59
      },
      {
        "deltaTime": 52,
        "channel": 0,
        "type": "noteOff",
        "noteNumber": 63,
        "velocity": 0,
        "byte9": true
      },
      {
        "deltaTime": 244,
        "channel": 0,
        "type": "noteOn",
        "noteNumber": 68,
        "velocity": 25
      },
      {
        "deltaTime": 8,
        "channel": 0,
        "type": "noteOn",
        "noteNumber": 59,
        "velocity": 43
      },
      {
        "deltaTime": 0,
        "running": true,
        "channel": 0,
        "type": "noteOn",
        "noteNumber": 63,
        "velocity": 23
      },
      {
        "deltaTime": 0,
        "running": true,
        "channel": 0,
        "type": "noteOn",
        "noteNumber": 83,
        "velocity": 34
      },
      {
        "deltaTime": 16,
        "channel": 0,
        "type": "controller",
        "controllerType": 64,
        "value": 0
      },
      {
        "deltaTime": 16,
        "channel": 0,
        "type": "noteOff",
        "noteNumber": 87,
        "velocity": 0,
        "byte9": true
      },
      {
        "deltaTime": 52,
        "channel": 0,
        "type": "controller",
        "controllerType": 64,
        "value": 127
      },
      {
        "deltaTime": 96,
        "channel": 0,
        "type": "noteOff",
        "noteNumber": 83,
        "velocity": 0,
        "byte9": true
      },
      {
        "deltaTime": 48,
        "channel": 0,
        "type": "noteOff",
        "noteNumber": 68,
        "velocity": 0,
        "byte9": true
      },
      {
        "deltaTime": 40,
        "channel": 0,
        "type": "noteOff",
        "noteNumber": 63,
        "velocity": 0,
        "byte9": true
      },
      {
        "deltaTime": 8,
        "channel": 0,
        "type": "noteOff",
        "noteNumber": 59,
        "velocity": 0,
        "byte9": true
      },
      {
        "deltaTime": 152,
        "channel": 0,
        "type": "noteOn",
        "noteNumber": 56,
        "velocity": 15
      },
      {
        "deltaTime": 28,
        "channel": 0,
        "type": "noteOff",
        "noteNumber": 56,
        "velocity": 0,
        "byte9": true
      },
      {
        "deltaTime": 28,
        "channel": 0,
        "type": "noteOn",
        "noteNumber": 58,
        "velocity": 35
      },
      {
        "deltaTime": 8,
        "channel": 0,
        "type": "noteOn",
        "noteNumber": 70,
        "velocity": 48
      },
      {
        "deltaTime": 4,
        "channel": 0,
        "type": "noteOn",
        "noteNumber": 63,
        "velocity": 37
      },
      {
        "deltaTime": 4,
        "channel": 0,
        "type": "noteOn",
        "noteNumber": 59,
        "velocity": 34
      },
      {
        "deltaTime": 8,
        "channel": 0,
        "type": "noteOn",
        "noteNumber": 65,
        "velocity": 32
      },
      {
        "deltaTime": 8,
        "channel": 0,
        "type": "controller",
        "controllerType": 64,
        "value": 0
      },
      {
        "deltaTime": 40,
        "channel": 0,
        "type": "noteOff",
        "noteNumber": 65,
        "velocity": 0,
        "byte9": true
      },
      {
        "deltaTime": 8,
        "channel": 0,
        "type": "noteOff",
        "noteNumber": 58,
        "velocity": 0,
        "byte9": true
      },
      {
        "deltaTime": 0,
        "running": true,
        "channel": 0,
        "type": "noteOff",
        "noteNumber": 63,
        "velocity": 0,
        "byte9": true
      },
      {
        "deltaTime": 4,
        "channel": 0,
        "type": "noteOff",
        "noteNumber": 59,
        "velocity": 0,
        "byte9": true
      },
      {
        "deltaTime": 8,
        "channel": 0,
        "type": "noteOff",
        "noteNumber": 70,
        "velocity": 0,
        "byte9": true
      },
      {
        "deltaTime": 8,
        "channel": 0,
        "type": "noteOn",
        "noteNumber": 56,
        "velocity": 27
      },
      {
        "deltaTime": 48,
        "channel": 0,
        "type": "noteOff",
        "noteNumber": 56,
        "velocity": 0,
        "byte9": true
      },
      {
        "deltaTime": 20,
        "channel": 0,
        "type": "noteOn",
        "noteNumber": 58,
        "velocity": 44
      },
      {
        "deltaTime": 8,
        "channel": 0,
        "type": "noteOn",
        "noteNumber": 59,
        "velocity": 51
      },
      {
        "deltaTime": 0,
        "running": true,
        "channel": 0,
        "type": "noteOn",
        "noteNumber": 63,
        "velocity": 40
      },
      {
        "deltaTime": 0,
        "running": true,
        "channel": 0,
        "type": "noteOn",
        "noteNumber": 70,
        "velocity": 42
      },
      {
        "deltaTime": 12,
        "channel": 0,
        "type": "noteOn",
        "noteNumber": 65,
        "velocity": 35
      },
      {
        "deltaTime": 68,
        "channel": 0,
        "type": "controller",
        "controllerType": 64,
        "value": 127
      },
      {
        "deltaTime": 52,
        "channel": 0,
        "type": "noteOff",
        "noteNumber": 59,
        "velocity": 0,
        "byte9": true
      },
      {
        "deltaTime": 0,
        "running": true,
        "channel": 0,
        "type": "noteOff",
        "noteNumber": 65,
        "velocity": 0,
        "byte9": true
      },
      {
        "deltaTime": 8,
        "channel": 0,
        "type": "noteOff",
        "noteNumber": 70,
        "velocity": 0,
        "byte9": true
      },
      {
        "deltaTime": 28,
        "channel": 0,
        "type": "noteOn",
        "noteNumber": 59,
        "velocity": 30
      },
      {
        "deltaTime": 8,
        "channel": 0,
        "type": "noteOn",
        "noteNumber": 68,
        "velocity": 51
      },
      {
        "deltaTime": 36,
        "channel": 0,
        "type": "noteOff",
        "noteNumber": 59,
        "velocity": 0,
        "byte9": true
      },
      {
        "deltaTime": 8,
        "channel": 0,
        "type": "noteOff",
        "noteNumber": 58,
        "velocity": 0,
        "byte9": true
      },
      {
        "deltaTime": 20,
        "channel": 0,
        "type": "noteOff",
        "noteNumber": 63,
        "velocity": 0,
        "byte9": true
      },
      {
        "deltaTime": 64,
        "channel": 0,
        "type": "noteOff",
        "noteNumber": 68,
        "velocity": 0,
        "byte9": true
      },
      {
        "deltaTime": 32,
        "channel": 0,
        "type": "noteOn",
        "noteNumber": 70,
        "velocity": 49
      },
      {
        "deltaTime": 12,
        "channel": 0,
        "type": "noteOn",
        "noteNumber": 55,
        "velocity": 42
      },
      {
        "deltaTime": 0,
        "running": true,
        "channel": 0,
        "type": "noteOn",
        "noteNumber": 62,
        "velocity": 46
      },
      {
        "deltaTime": 0,
        "running": true,
        "channel": 0,
        "type": "noteOn",
        "noteNumber": 65,
        "velocity": 50
      },
      {
        "deltaTime": 4,
        "channel": 0,
        "type": "controller",
        "controllerType": 64,
        "value": 0
      },
      {
        "deltaTime": 144,
        "channel": 0,
        "type": "noteOn",
        "noteNumber": 46,
        "velocity": 42
      },
      {
        "deltaTime": 88,
        "channel": 0,
        "type": "controller",
        "controllerType": 64,
        "value": 127
      },
      {
        "deltaTime": 68,
        "channel": 0,
        "type": "noteOff",
        "noteNumber": 62,
        "velocity": 0,
        "byte9": true
      },
      {
        "deltaTime": 8,
        "channel": 0,
        "type": "noteOff",
        "noteNumber": 65,
        "velocity": 0,
        "byte9": true
      },
      {
        "deltaTime": 20,
        "channel": 0,
        "type": "noteOff",
        "noteNumber": 55,
        "velocity": 0,
        "byte9": true
      },
      {
        "deltaTime": 24,
        "channel": 0,
        "type": "noteOff",
        "noteNumber": 70,
        "velocity": 0,
        "byte9": true
      },
      {
        "deltaTime": 192,
        "channel": 0,
        "type": "noteOn",
        "noteNumber": 67,
        "velocity": 67
      },
      {
        "deltaTime": 0,
        "running": true,
        "channel": 0,
        "type": "noteOn",
        "noteNumber": 74,
        "velocity": 76
      },
      {
        "deltaTime": 20,
        "channel": 0,
        "type": "noteOn",
        "noteNumber": 55,
        "velocity": 27
      },
      {
        "deltaTime": 20,
        "channel": 0,
        "type": "noteOff",
        "noteNumber": 67,
        "velocity": 0,
        "byte9": true
      },
      {
        "deltaTime": 12,
        "channel": 0,
        "type": "noteOff",
        "noteNumber": 55,
        "velocity": 0,
        "byte9": true
      },
      {
        "deltaTime": 0,
        "running": true,
        "channel": 0,
        "type": "noteOff",
        "noteNumber": 74,
        "velocity": 0,
        "byte9": true
      },
      {
        "deltaTime": 80,
        "channel": 0,
        "type": "controller",
        "controllerType": 64,
        "value": 0
      },
      {
        "deltaTime": 28,
        "channel": 0,
        "type": "noteOn",
        "noteNumber": 55,
        "velocity": 49
      },
      {
        "deltaTime": 0,
        "running": true,
        "channel": 0,
        "type": "noteOn",
        "noteNumber": 67,
        "velocity": 67
      },
      {
        "deltaTime": 0,
        "running": true,
        "channel": 0,
        "type": "noteOn",
        "noteNumber": 74,
        "velocity": 77
      },
      {
        "deltaTime": 16,
        "channel": 0,
        "type": "controller",
        "controllerType": 64,
        "value": 127
      },
      {
        "deltaTime": 68,
        "channel": 0,
        "type": "noteOff",
        "noteNumber": 46,
        "velocity": 0,
        "byte9": true
      },
      {
        "deltaTime": 56,
        "channel": 0,
        "type": "noteOff",
        "noteNumber": 74,
        "velocity": 0,
        "byte9": true
      },
      {
        "deltaTime": 16,
        "channel": 0,
        "type": "noteOff",
        "noteNumber": 67,
        "velocity": 0,
        "byte9": true
      },
      {
        "deltaTime": 4,
        "channel": 0,
        "type": "noteOn",
        "noteNumber": 46,
        "velocity": 38
      },
      {
        "deltaTime": 36,
        "channel": 0,
        "type": "noteOff",
        "noteNumber": 55,
        "velocity": 0,
        "byte9": true
      },
      {
        "deltaTime": 128,
        "channel": 0,
        "type": "noteOn",
        "noteNumber": 70,
        "velocity": 53
      },
      {
        "deltaTime": 4,
        "channel": 0,
        "type": "noteOn",
        "noteNumber": 59,
        "velocity": 42
      },
      {
        "deltaTime": 0,
        "running": true,
        "channel": 0,
        "type": "noteOn",
        "noteNumber": 63,
        "velocity": 39
      },
      {
        "deltaTime": 12,
        "channel": 0,
        "type": "noteOn",
        "noteNumber": 65,
        "velocity": 37
      },
      {
        "deltaTime": 16,
        "channel": 0,
        "type": "noteOff",
        "noteNumber": 59,
        "velocity": 0,
        "byte9": true
      },
      {
        "deltaTime": 8,
        "channel": 0,
        "type": "noteOff",
        "noteNumber": 63,
        "velocity": 0,
        "byte9": true
      },
      {
        "deltaTime": 0,
        "running": true,
        "channel": 0,
        "type": "noteOff",
        "noteNumber": 70,
        "velocity": 0,
        "byte9": true
      },
      {
        "deltaTime": 4,
        "channel": 0,
        "type": "noteOff",
        "noteNumber": 65,
        "velocity": 0,
        "byte9": true
      },
      {
        "deltaTime": 16,
        "channel": 0,
        "type": "noteOff",
        "noteNumber": 46,
        "velocity": 0,
        "byte9": true
      },
      {
        "deltaTime": 28,
        "channel": 0,
        "type": "noteOn",
        "noteNumber": 46,
        "velocity": 31
      },
      {
        "deltaTime": 44,
        "channel": 0,
        "type": "controller",
        "controllerType": 64,
        "value": 0
      },
      {
        "deltaTime": 32,
        "channel": 0,
        "type": "noteOn",
        "noteNumber": 59,
        "velocity": 46
      },
      {
        "deltaTime": 0,
        "running": true,
        "channel": 0,
        "type": "noteOn",
        "noteNumber": 63,
        "velocity": 46
      },
      {
        "deltaTime": 0,
        "running": true,
        "channel": 0,
        "type": "noteOn",
        "noteNumber": 70,
        "velocity": 55
      },
      {
        "deltaTime": 8,
        "channel": 0,
        "type": "noteOn",
        "noteNumber": 58,
        "velocity": 34
      },
      {
        "deltaTime": 0,
        "running": true,
        "channel": 0,
        "type": "noteOn",
        "noteNumber": 65,
        "velocity": 46
      },
      {
        "deltaTime": 208,
        "channel": 0,
        "type": "controller",
        "controllerType": 64,
        "value": 127
      },
      {
        "deltaTime": 64,
        "channel": 0,
        "type": "noteOff",
        "noteNumber": 58,
        "velocity": 0,
        "byte9": true
      },
      {
        "deltaTime": 12,
        "channel": 0,
        "type": "noteOff",
        "noteNumber": 59,
        "velocity": 0,
        "byte9": true
      },
      {
        "deltaTime": 0,
        "running": true,
        "channel": 0,
        "type": "noteOff",
        "noteNumber": 65,
        "velocity": 0,
        "byte9": true
      },
      {
        "deltaTime": 8,
        "channel": 0,
        "type": "noteOff",
        "noteNumber": 63,
        "velocity": 0,
        "byte9": true
      },
      {
        "deltaTime": 40,
        "channel": 0,
        "type": "noteOff",
        "noteNumber": 70,
        "velocity": 0,
        "byte9": true
      },
      {
        "deltaTime": 28,
        "channel": 0,
        "type": "noteOn",
        "noteNumber": 58,
        "velocity": 34
      },
      {
        "deltaTime": 0,
        "running": true,
        "channel": 0,
        "type": "noteOn",
        "noteNumber": 59,
        "velocity": 39
      },
      {
        "deltaTime": 0,
        "running": true,
        "channel": 0,
        "type": "noteOn",
        "noteNumber": 63,
        "velocity": 42
      },
      {
        "deltaTime": 0,
        "running": true,
        "channel": 0,
        "type": "noteOn",
        "noteNumber": 68,
        "velocity": 50
      },
      {
        "deltaTime": 32,
        "channel": 0,
        "type": "controller",
        "controllerType": 64,
        "value": 0
      },
      {
        "deltaTime": 40,
        "channel": 0,
        "type": "controller",
        "controllerType": 64,
        "value": 127
      },
      {
        "deltaTime": 32,
        "channel": 0,
        "type": "noteOff",
        "noteNumber": 46,
        "velocity": 0,
        "byte9": true
      },
      {
        "deltaTime": 152,
        "channel": 0,
        "type": "noteOn",
        "noteNumber": 46,
        "velocity": 37
      },
      {
        "deltaTime": 16,
        "channel": 0,
        "type": "noteOff",
        "noteNumber": 59,
        "velocity": 0,
        "byte9": true
      },
      {
        "deltaTime": 4,
        "channel": 0,
        "type": "noteOff",
        "noteNumber": 58,
        "velocity": 0,
        "byte9": true
      },
      {
        "deltaTime": 16,
        "channel": 0,
        "type": "noteOff",
        "noteNumber": 68,
        "velocity": 0,
        "byte9": true
      },
      {
        "deltaTime": 4,
        "channel": 0,
        "type": "noteOff",
        "noteNumber": 63,
        "velocity": 0,
        "byte9": true
      },
      {
        "deltaTime": 8,
        "channel": 0,
        "type": "noteOff",
        "noteNumber": 46,
        "velocity": 0,
        "byte9": true
      },
      {
        "deltaTime": 36,
        "channel": 0,
        "type": "noteOn",
        "noteNumber": 46,
        "velocity": 26
      },
      {
        "deltaTime": 4,
        "channel": 0,
        "type": "noteOn",
        "noteNumber": 55,
        "velocity": 47
      },
      {
        "deltaTime": 0,
        "running": true,
        "channel": 0,
        "type": "noteOn",
        "noteNumber": 62,
        "velocity": 39
      },
      {
        "deltaTime": 4,
        "channel": 0,
        "type": "controller",
        "controllerType": 64,
        "value": 0
      },
      {
        "deltaTime": 0,
        "channel": 0,
        "type": "noteOn",
        "noteNumber": 67,
        "velocity": 38
      },
      {
        "deltaTime": 84,
        "channel": 0,
        "type": "controller",
        "controllerType": 64,
        "value": 127
      },
      {
        "deltaTime": 80,
        "channel": 0,
        "type": "noteOn",
        "noteNumber": 58,
        "velocity": 39
      },
      {
        "deltaTime": 8,
        "channel": 0,
        "type": "noteOff",
        "noteNumber": 62,
        "velocity": 0,
        "byte9": true
      },
      {
        "deltaTime": 4,
        "channel": 0,
        "type": "noteOff",
        "noteNumber": 67,
        "velocity": 0,
        "byte9": true
      },
      {
        "deltaTime": 16,
        "channel": 0,
        "type": "noteOff",
        "noteNumber": 58,
        "velocity": 0,
        "byte9": true
      },
      {
        "deltaTime": 124,
        "channel": 0,
        "type": "noteOn",
        "noteNumber": 65,
        "velocity": 29
      },
      {
        "deltaTime": 20,
        "channel": 0,
        "type": "noteOff",
        "noteNumber": 65,
        "velocity": 0,
        "byte9": true
      },
      {
        "deltaTime": 48,
        "channel": 0,
        "type": "noteOn",
        "noteNumber": 67,
        "velocity": 58
      },
      {
        "deltaTime": 16,
        "channel": 0,
        "type": "noteOff",
        "noteNumber": 67,
        "velocity": 0,
        "byte9": true
      },
      {
        "deltaTime": 60,
        "channel": 0,
        "type": "noteOn",
        "noteNumber": 72,
        "velocity": 62
      },
      {
        "deltaTime": 28,
        "channel": 0,
        "type": "noteOff",
        "noteNumber": 72,
        "velocity": 0,
        "byte9": true
      },
      {
        "deltaTime": 40,
        "channel": 0,
        "type": "noteOn",
        "noteNumber": 74,
        "velocity": 58
      },
      {
        "deltaTime": 24,
        "channel": 0,
        "type": "noteOff",
        "noteNumber": 74,
        "velocity": 0,
        "byte9": true
      },
      {
        "deltaTime": 48,
        "channel": 0,
        "type": "noteOn",
        "noteNumber": 77,
        "velocity": 51
      },
      {
        "deltaTime": 4,
        "channel": 0,
        "type": "noteOn",
        "noteNumber": 79,
        "velocity": 45
      },
      {
        "deltaTime": 16,
        "channel": 0,
        "type": "noteOff",
        "noteNumber": 77,
        "velocity": 0,
        "byte9": true
      },
      {
        "deltaTime": 0,
        "running": true,
        "channel": 0,
        "type": "noteOff",
        "noteNumber": 79,
        "velocity": 0,
        "byte9": true
      },
      {
        "deltaTime": 40,
        "channel": 0,
        "type": "noteOn",
        "noteNumber": 79,
        "velocity": 55
      },
      {
        "deltaTime": 28,
        "channel": 0,
        "type": "noteOff",
        "noteNumber": 79,
        "velocity": 0,
        "byte9": true
      },
      {
        "deltaTime": 44,
        "channel": 0,
        "type": "noteOn",
        "noteNumber": 84,
        "velocity": 91
      },
      {
        "deltaTime": 64,
        "channel": 0,
        "type": "noteOff",
        "noteNumber": 84,
        "velocity": 0,
        "byte9": true
      },
      {
        "deltaTime": 52,
        "channel": 0,
        "type": "noteOn",
        "noteNumber": 84,
        "velocity": 79
      },
      {
        "deltaTime": 36,
        "channel": 0,
        "type": "noteOff",
        "noteNumber": 84,
        "velocity": 0,
        "byte9": true
      },
      {
        "deltaTime": 56,
        "channel": 0,
        "type": "noteOff",
        "noteNumber": 55,
        "velocity": 0,
        "byte9": true
      },
      {
        "deltaTime": 8,
        "channel": 0,
        "type": "noteOn",
        "noteNumber": 84,
        "velocity": 80
      },
      {
        "deltaTime": 4,
        "channel": 0,
        "type": "noteOff",
        "noteNumber": 46,
        "velocity": 0,
        "byte9": true
      },
      {
        "deltaTime": 56,
        "channel": 0,
        "type": "noteOff",
        "noteNumber": 84,
        "velocity": 0,
        "byte9": true
      },
      {
        "deltaTime": 24,
        "channel": 0,
        "type": "noteOn",
        "noteNumber": 83,
        "velocity": 58
      },
      {
        "deltaTime": 144,
        "channel": 0,
        "type": "noteOn",
        "noteNumber": 63,
        "velocity": 27
      },
      {
        "deltaTime": 12,
        "channel": 0,
        "type": "noteOn",
        "noteNumber": 56,
        "velocity": 21
      },
      {
        "deltaTime": 4,
        "channel": 0,
        "type": "noteOn",
        "noteNumber": 59,
        "velocity": 37
      },
      {
        "deltaTime": 12,
        "channel": 0,
        "type": "controller",
        "controllerType": 64,
        "value": 0
      },
      {
        "deltaTime": 116,
        "channel": 0,
        "type": "controller",
        "controllerType": 64,
        "value": 127
      },
      {
        "deltaTime": 148,
        "channel": 0,
        "type": "noteOff",
        "noteNumber": 59,
        "velocity": 0,
        "byte9": true
      },
      {
        "deltaTime": 20,
        "channel": 0,
        "type": "noteOff",
        "noteNumber": 63,
        "velocity": 0,
        "byte9": true
      },
      {
        "deltaTime": 96,
        "channel": 0,
        "type": "noteOn",
        "noteNumber": 63,
        "velocity": 28
      },
      {
        "deltaTime": 12,
        "channel": 0,
        "type": "noteOn",
        "noteNumber": 59,
        "velocity": 33
      },
      {
        "deltaTime": 16,
        "channel": 0,
        "type": "noteOff",
        "noteNumber": 63,
        "velocity": 0,
        "byte9": true
      },
      {
        "deltaTime": 8,
        "channel": 0,
        "type": "noteOff",
        "noteNumber": 59,
        "velocity": 0,
        "byte9": true
      },
      {
        "deltaTime": 92,
        "channel": 0,
        "type": "noteOff",
        "noteNumber": 56,
        "velocity": 0,
        "byte9": true
      },
      {
        "deltaTime": 36,
        "channel": 0,
        "type": "noteOff",
        "noteNumber": 83,
        "velocity": 0,
        "byte9": true
      },
      {
        "deltaTime": 8,
        "channel": 0,
        "type": "noteOn",
        "noteNumber": 82,
        "velocity": 60
      },
      {
        "deltaTime": 64,
        "channel": 0,
        "type": "noteOff",
        "noteNumber": 82,
        "velocity": 0,
        "byte9": true
      },
      {
        "deltaTime": 8,
        "channel": 0,
        "type": "noteOn",
        "noteNumber": 80,
        "velocity": 42
      },
      {
        "deltaTime": 64,
        "channel": 0,
        "type": "noteOff",
        "noteNumber": 80,
        "velocity": 0,
        "byte9": true
      },
      {
        "deltaTime": 20,
        "channel": 0,
        "type": "noteOn",
        "noteNumber": 46,
        "velocity": 32
      },
      {
        "deltaTime": 0,
        "running": true,
        "channel": 0,
        "type": "noteOn",
        "noteNumber": 55,
        "velocity": 37
      },
      {
        "deltaTime": 4,
        "channel": 0,
        "type": "controller",
        "controllerType": 64,
        "value": 0
      },
      {
        "deltaTime": 0,
        "channel": 0,
        "type": "noteOn",
        "noteNumber": 79,
        "velocity": 44
      },
      {
        "deltaTime": 100,
        "channel": 0,
        "type": "controller",
        "controllerType": 64,
        "value": 127
      },
      {
        "deltaTime": 116,
        "channel": 0,
        "type": "noteOff",
        "noteNumber": 79,
        "velocity": 0,
        "byte9": true
      },
      {
        "deltaTime": 44,
        "channel": 0,
        "type": "noteOff",
        "noteNumber": 55,
        "velocity": 0,
        "byte9": true
      },
      {
        "deltaTime": 120,
        "channel": 0,
        "type": "noteOn",
        "noteNumber": 77,
        "velocity": 57
      },
      {
        "deltaTime": 12,
        "channel": 0,
        "type": "noteOn",
        "noteNumber": 55,
        "velocity": 33
      },
      {
        "deltaTime": 80,
        "channel": 0,
        "type": "noteOff",
        "noteNumber": 77,
        "velocity": 0,
        "byte9": true
      },
      {
        "deltaTime": 28,
        "channel": 0,
        "type": "noteOn",
        "noteNumber": 65,
        "velocity": 33
      },
      {
        "deltaTime": 96,
        "channel": 0,
        "type": "noteOff",
        "noteNumber": 65,
        "velocity": 0,
        "byte9": true
      },
      {
        "deltaTime": 52,
        "channel": 0,
        "type": "noteOn",
        "noteNumber": 65,
        "velocity": 39
      },
      {
        "deltaTime": 124,
        "channel": 0,
        "type": "noteOff",
        "noteNumber": 65,
        "velocity": 0,
        "byte9": true
      },
      {
        "deltaTime": 16,
        "channel": 0,
        "type": "noteOff",
        "noteNumber": 55,
        "velocity": 0,
        "byte9": true
      },
      {
        "deltaTime": 72,
        "channel": 0,
        "type": "noteOn",
        "noteNumber": 70,
        "velocity": 55
      },
      {
        "deltaTime": 24,
        "channel": 0,
        "type": "noteOff",
        "noteNumber": 70,
        "velocity": 0,
        "byte9": true
      },
      {
        "deltaTime": 76,
        "channel": 0,
        "type": "noteOn",
        "noteNumber": 63,
        "velocity": 45
      },
      {
        "deltaTime": 4,
        "channel": 0,
        "type": "noteOn",
        "noteNumber": 58,
        "velocity": 28
      },
      {
        "deltaTime": 8,
        "channel": 0,
        "type": "noteOn",
        "noteNumber": 59,
        "velocity": 32
      },
      {
        "deltaTime": 20,
        "channel": 0,
        "type": "controller",
        "controllerType": 64,
        "value": 0
      },
      {
        "deltaTime": 92,
        "channel": 0,
        "type": "controller",
        "controllerType": 64,
        "value": 127
      },
      {
        "deltaTime": 4,
        "channel": 0,
        "type": "noteOff",
        "noteNumber": 59,
        "velocity": 0,
        "byte9": true
      },
      {
        "deltaTime": 8,
        "channel": 0,
        "type": "noteOff",
        "noteNumber": 63,
        "velocity": 0,
        "byte9": true
      },
      {
        "deltaTime": 20,
        "channel": 0,
        "type": "noteOn",
        "noteNumber": 63,
        "velocity": 35
      },
      {
        "deltaTime": 4,
        "channel": 0,
        "type": "noteOn",
        "noteNumber": 59,
        "velocity": 12
      },
      {
        "deltaTime": 184,
        "channel": 0,
        "type": "noteOff",
        "noteNumber": 58,
        "velocity": 0,
        "byte9": true
      },
      {
        "deltaTime": 16,
        "channel": 0,
        "type": "noteOn",
        "noteNumber": 70,
        "velocity": 42
      },
      {
        "deltaTime": 4,
        "channel": 0,
        "type": "noteOff",
        "noteNumber": 59,
        "velocity": 0,
        "byte9": true
      },
      {
        "deltaTime": 32,
        "channel": 0,
        "type": "noteOff",
        "noteNumber": 63,
        "velocity": 0,
        "byte9": true
      },
      {
        "deltaTime": 60,
        "channel": 0,
        "type": "noteOn",
        "noteNumber": 63,
        "velocity": 48
      },
      {
        "deltaTime": 4,
        "channel": 0,
        "type": "noteOn",
        "noteNumber": 59,
        "velocity": 34
      },
      {
        "deltaTime": 4,
        "channel": 0,
        "type": "noteOn",
        "noteNumber": 58,
        "velocity": 23
      },
      {
        "deltaTime": 12,
        "channel": 0,
        "type": "controller",
        "controllerType": 64,
        "value": 0
      },
      {
        "deltaTime": 44,
        "channel": 0,
        "type": "controller",
        "controllerType": 64,
        "value": 127
      },
      {
        "deltaTime": 16,
        "channel": 0,
        "type": "noteOff",
        "noteNumber": 63,
        "velocity": 0,
        "byte9": true
      },
      {
        "deltaTime": 20,
        "channel": 0,
        "type": "noteOff",
        "noteNumber": 59,
        "velocity": 0,
        "byte9": true
      },
      {
        "deltaTime": 76,
        "channel": 0,
        "type": "noteOn",
        "noteNumber": 63,
        "velocity": 36
      },
      {
        "deltaTime": 8,
        "channel": 0,
        "type": "noteOn",
        "noteNumber": 59,
        "velocity": 24
      },
      {
        "deltaTime": 16,
        "channel": 0,
        "type": "noteOff",
        "noteNumber": 58,
        "velocity": 0,
        "byte9": true
      },
      {
        "deltaTime": 104,
        "channel": 0,
        "type": "noteOff",
        "noteNumber": 46,
        "velocity": 0,
        "byte9": true
      },
      {
        "deltaTime": 36,
        "channel": 0,
        "type": "noteOff",
        "noteNumber": 70,
        "velocity": 0,
        "byte9": true
      },
      {
        "deltaTime": 20,
        "channel": 0,
        "type": "noteOff",
        "noteNumber": 59,
        "velocity": 0,
        "byte9": true
      },
      {
        "deltaTime": 52,
        "channel": 0,
        "type": "noteOn",
        "noteNumber": 46,
        "velocity": 29
      },
      {
        "deltaTime": 4,
        "channel": 0,
        "type": "noteOff",
        "noteNumber": 63,
        "velocity": 0,
        "byte9": true
      },
      {
        "deltaTime": 44,
        "channel": 0,
        "type": "noteOff",
        "noteNumber": 46,
        "velocity": 0,
        "byte9": true
      },
      {
        "deltaTime": 44,
        "channel": 0,
        "type": "noteOn",
        "noteNumber": 58,
        "velocity": 36
      },
      {
        "deltaTime": 8,
        "channel": 0,
        "type": "noteOn",
        "noteNumber": 67,
        "velocity": 29
      },
      {
        "deltaTime": 4,
        "channel": 0,
        "type": "controller",
        "controllerType": 64,
        "value": 0
      },
      {
        "deltaTime": 8,
        "channel": 0,
        "type": "noteOn",
        "noteNumber": 46,
        "velocity": 21
      },
      {
        "deltaTime": 0,
        "running": true,
        "channel": 0,
        "type": "noteOn",
        "noteNumber": 62,
        "velocity": 32
      },
      {
        "deltaTime": 8,
        "channel": 0,
        "type": "noteOn",
        "noteNumber": 55,
        "velocity": 25
      },
      {
        "deltaTime": 80,
        "channel": 0,
        "type": "controller",
        "controllerType": 64,
        "value": 127
      },
      {
        "deltaTime": 104,
        "channel": 0,
        "type": "noteOff",
        "noteNumber": 62,
        "velocity": 0,
        "byte9": true
      },
      {
        "deltaTime": 4,
        "channel": 0,
        "type": "noteOff",
        "noteNumber": 58,
        "velocity": 0,
        "byte9": true
      },
      {
        "deltaTime": 8,
        "channel": 0,
        "type": "noteOff",
        "noteNumber": 67,
        "velocity": 0,
        "byte9": true
      },
      {
        "deltaTime": 176,
        "channel": 0,
        "type": "noteOff",
        "noteNumber": 55,
        "velocity": 0,
        "byte9": true
      },
      {
        "deltaTime": 216,
        "channel": 0,
        "type": "noteOn",
        "noteNumber": 94,
        "velocity": 39
      },
      {
        "deltaTime": 12,
        "channel": 0,
        "type": "noteOn",
        "noteNumber": 82,
        "velocity": 28
      },
      {
        "deltaTime": 48,
        "channel": 0,
        "type": "noteOn",
        "noteNumber": 58,
        "velocity": 1
      },
      {
        "deltaTime": 124,
        "channel": 0,
        "type": "noteOff",
        "noteNumber": 46,
        "velocity": 0,
        "byte9": true
      },
      {
        "deltaTime": 12,
        "channel": 0,
        "type": "noteOff",
        "noteNumber": 82,
        "velocity": 0,
        "byte9": true
      },
      {
        "deltaTime": 20,
        "channel": 0,
        "type": "noteOff",
        "noteNumber": 94,
        "velocity": 0,
        "byte9": true
      },
      {
        "deltaTime": 4,
        "channel": 0,
        "type": "noteOff",
        "noteNumber": 58,
        "velocity": 0,
        "byte9": true
      },
      {
        "deltaTime": 512,
        "channel": 0,
        "type": "noteOn",
        "noteNumber": 94,
        "velocity": 27
      },
      {
        "deltaTime": 8,
        "channel": 0,
        "type": "noteOn",
        "noteNumber": 82,
        "velocity": 23
      },
      {
        "deltaTime": 44,
        "channel": 0,
        "type": "noteOff",
        "noteNumber": 82,
        "velocity": 0,
        "byte9": true
      },
      {
        "deltaTime": 0,
        "running": true,
        "channel": 0,
        "type": "noteOff",
        "noteNumber": 94,
        "velocity": 0,
        "byte9": true
      },
      {
        "deltaTime": 188,
        "channel": 0,
        "type": "noteOn",
        "noteNumber": 95,
        "velocity": 30
      },
      {
        "deltaTime": 8,
        "channel": 0,
        "type": "noteOn",
        "noteNumber": 59,
        "velocity": 30
      },
      {
        "deltaTime": 60,
        "channel": 0,
        "type": "controller",
        "controllerType": 64,
        "value": 0
      },
      {
        "deltaTime": 0,
        "channel": 0,
        "type": "noteOff",
        "noteNumber": 95,
        "velocity": 0,
        "byte9": true
      },
      {
        "deltaTime": 16,
        "channel": 0,
        "type": "noteOff",
        "noteNumber": 59,
        "velocity": 0,
        "byte9": true
      },
      {
        "deltaTime": 16,
        "channel": 0,
        "type": "noteOn",
        "noteNumber": 94,
        "velocity": 33
      },
      {
        "deltaTime": 56,
        "channel": 0,
        "type": "noteOn",
        "noteNumber": 58,
        "velocity": 1
      },
      {
        "deltaTime": 68,
        "channel": 0,
        "type": "noteOff",
        "noteNumber": 94,
        "velocity": 0,
        "byte9": true
      },
      {
        "deltaTime": 24,
        "channel": 0,
        "type": "noteOff",
        "noteNumber": 58,
        "velocity": 0,
        "byte9": true
      },
      {
        "deltaTime": 24,
        "channel": 0,
        "type": "noteOn",
        "noteNumber": 92,
        "velocity": 19
      },
      {
        "deltaTime": 8,
        "channel": 0,
        "type": "noteOn",
        "noteNumber": 56,
        "velocity": 18
      },
      {
        "deltaTime": 20,
        "channel": 0,
        "type": "noteOff",
        "noteNumber": 92,
        "velocity": 0,
        "byte9": true
      },
      {
        "deltaTime": 44,
        "channel": 0,
        "type": "noteOff",
        "noteNumber": 56,
        "velocity": 0,
        "byte9": true
      },
      {
        "deltaTime": 12,
        "channel": 0,
        "type": "noteOn",
        "noteNumber": 94,
        "velocity": 23
      },
      {
        "deltaTime": 4,
        "channel": 0,
        "type": "noteOn",
        "noteNumber": 58,
        "velocity": 25
      },
      {
        "deltaTime": 1004,
        "channel": 0,
        "type": "noteOff",
        "noteNumber": 94,
        "velocity": 0,
        "byte9": true
      },
      {
        "deltaTime": 288,
        "channel": 0,
        "type": "noteOff",
        "noteNumber": 58,
        "velocity": 0,
        "byte9": true
      },
      { "deltaTime": 584, "meta": true, "type": "endOfTrack" }
    ]
  ]
}
