{
  "header": { "format": 1, "numTracks": 2, "ticksPerBeat": 120 },
  "tracks": [
    [
      {
        "deltaTime": 0,
        "meta": true,
        "type": "keySignature",
        "key": -4,
        "scale": 0
      },
      {
        "deltaTime": 0,
        "meta": true,
        "type": "trackName",
        "text": "'Spring Is Here' - Bill Evans Changes"
      },
      {
        "deltaTime": 0,
        "meta": true,
        "type": "setTempo",
        "microsecondsPerBeat": 1132075
      },
      {
        "deltaTime": 0,
        "meta": true,
        "type": "timeSignature",
        "numerator": 4,
        "denominator": 4,
        "metronome": 24,
        "thirtyseconds": 8
      },
      { "deltaTime": 0, "meta": true, "type": "endOfTrack" }
    ],
    [
      {
        "deltaTime": 0,
        "meta": true,
        "type": "trackName",
        "text": "Melody  (BB)"
      },
      {
        "deltaTime": 0,
        "meta": true,
        "type": "text",
        "text": "Bill Evans uses this E7#9 chord instead of Abdim7"
      },
      {
        "deltaTime": 0,
        "channel": 0,
        "type": "noteOn",
        "noteNumber": 79,
        "velocity": 80
      },
      {
        "deltaTime": 1,
        "running": true,
        "channel": 0,
        "type": "noteOn",
        "noteNumber": 74,
        "velocity": 75
      },
      {
        "deltaTime": 1,
        "running": true,
        "channel": 0,
        "type": "noteOn",
        "noteNumber": 72,
        "velocity": 84
      },
      {
        "deltaTime": 0,
        "running": true,
        "channel": 0,
        "type": "noteOn",
        "noteNumber": 68,
        "velocity": 83
      },
      {
        "deltaTime": 1,
        "channel": 0,
        "type": "noteOn",
        "noteNumber": 67,
        "velocity": 91
      },
      {
        "deltaTime": 60,
        "channel": 0,
        "type": "noteOff",
        "noteNumber": 67,
        "velocity": 0,
        "byte9": true
      },
      {
        "deltaTime": 75,
        "running": true,
        "channel": 0,
        "type": "noteOn",
        "noteNumber": 67,
        "velocity": 44
      },
      {
        "deltaTime": 1,
        "running": true,
        "channel": 0,
        "type": "noteOn",
        "noteNumber": 62,
        "velocity": 31
      },
      {
        "deltaTime": 0,
        "running": true,
        "channel": 0,
        "type": "noteOn",
        "noteNumber": 56,
        "velocity": 30
      },
      {
        "deltaTime": 52,
        "channel": 0,
        "type": "noteOff",
        "noteNumber": 72,
        "velocity": 0,
        "byte9": true
      },
      {
        "deltaTime": 6,
        "running": true,
        "channel": 0,
        "type": "noteOff",
        "noteNumber": 68,
        "velocity": 0,
        "byte9": true
      },
      {
        "deltaTime": 6,
        "running": true,
        "channel": 0,
        "type": "noteOff",
        "noteNumber": 74,
        "velocity": 0,
        "byte9": true
      },
      {
        "deltaTime": 14,
        "channel": 0,
        "type": "noteOff",
        "noteNumber": 62,
        "velocity": 0,
        "byte9": true
      },
      {
        "deltaTime": 15,
        "channel": 0,
        "type": "noteOff",
        "noteNumber": 79,
        "velocity": 0,
        "byte9": true
      },
      {
        "deltaTime": 17,
        "channel": 0,
        "type": "noteOff",
        "noteNumber": 67,
        "velocity": 0,
        "byte9": true
      },
      {
        "deltaTime": 9,
        "running": true,
        "channel": 0,
        "type": "noteOff",
        "noteNumber": 56,
        "velocity": 0,
        "byte9": true
      },
      {
        "deltaTime": 37,
        "channel": 0,
        "type": "noteOn",
        "noteNumber": 67,
        "velocity": 49
      },
      {
        "deltaTime": 2,
        "running": true,
        "channel": 0,
        "type": "noteOn",
        "noteNumber": 62,
        "velocity": 34
      },
      {
        "deltaTime": 2,
        "running": true,
        "channel": 0,
        "type": "noteOn",
        "noteNumber": 56,
        "velocity": 21
      },
      {
        "deltaTime": 1,
        "running": true,
        "channel": 0,
        "type": "noteOn",
        "noteNumber": 60,
        "velocity": 31
      },
      {
        "deltaTime": 3,
        "running": true,
        "channel": 0,
        "type": "noteOff",
        "noteNumber": 60,
        "velocity": 0,
        "byte9": true
      },
      {
        "deltaTime": 12,
        "running": true,
        "channel": 0,
        "type": "noteOff",
        "noteNumber": 67,
        "velocity": 0,
        "byte9": true
      },
      {
        "deltaTime": 0,
        "running": true,
        "channel": 0,
        "type": "noteOff",
        "noteNumber": 62,
        "velocity": 0,
        "byte9": true
      },
      {
        "deltaTime": 1,
        "running": true,
        "channel": 0,
        "type": "noteOff",
        "noteNumber": 56,
        "velocity": 0,
        "byte9": true
      },
      {
        "deltaTime": 43,
        "running": true,
        "channel": 0,
        "type": "noteOn",
        "noteNumber": 67,
        "velocity": 36
      },
      {
        "deltaTime": 1,
        "channel": 0,
        "type": "controller",
        "controllerType": 86,
        "value": 6
      },
      {
        "deltaTime": 0,
        "channel": 0,
        "type": "noteOn",
        "noteNumber": 62,
        "velocity": 32
      },
      {
        "deltaTime": 2,
        "running": true,
        "channel": 0,
        "type": "noteOn",
        "noteNumber": 56,
        "velocity": 26
      },
      {
        "deltaTime": 2,
        "running": true,
        "channel": 0,
        "type": "noteOn",
        "noteNumber": 60,
        "velocity": 29
      },
      {
        "deltaTime": 52,
        "channel": 0,
        "type": "noteOff",
        "noteNumber": 67,
        "velocity": 0,
        "byte9": true
      },
      {
        "deltaTime": 2,
        "running": true,
        "channel": 0,
        "type": "noteOff",
        "noteNumber": 62,
        "velocity": 0,
        "byte9": true
      },
      {
        "deltaTime": 4,
        "running": true,
        "channel": 0,
        "type": "noteOff",
        "noteNumber": 60,
        "velocity": 0,
        "byte9": true
      },
      {
        "deltaTime": 10,
        "running": true,
        "channel": 0,
        "type": "noteOff",
        "noteNumber": 56,
        "velocity": 0,
        "byte9": true
      },
      {
        "deltaTime": 30,
        "channel": 0,
        "type": "noteOn",
        "noteNumber": 92,
        "velocity": 84
      },
      {
        "deltaTime": 22,
        "channel": 0,
        "type": "noteOff",
        "noteNumber": 92,
        "velocity": 0,
        "byte9": true
      },
      {
        "deltaTime": 3,
        "channel": 0,
        "type": "noteOn",
        "noteNumber": 63,
        "velocity": 30
      },
      {
        "deltaTime": 1,
        "running": true,
        "channel": 0,
        "type": "noteOn",
        "noteNumber": 60,
        "velocity": 44
      },
      {
        "deltaTime": 1,
        "running": true,
        "channel": 0,
        "type": "noteOn",
        "noteNumber": 53,
        "velocity": 38
      },
      {
        "deltaTime": 1,
        "running": true,
        "channel": 0,
        "type": "noteOn",
        "noteNumber": 58,
        "velocity": 31
      },
      {
        "deltaTime": 0,
        "channel": 0,
        "type": "noteOn",
        "noteNumber": 89,
        "velocity": 60
      },
      {
        "deltaTime": 9,
        "meta": true,
        "type": "text",
        "text": "A jagged line using just Eb Maj. pentatonic notes - (Eb,F,G,Bb,C)"
      },
      {
        "deltaTime": 7,
        "running": true,
        "channel": 0,
        "type": "noteOff",
        "noteNumber": 89,
        "velocity": 0,
        "byte9": true
      },
      {
        "deltaTime": 8,
        "meta": true,
        "type": "text",
        "text": "Line alternates a step and a skip - all within the pentatonic scale."
      },
      {
        "deltaTime": 2,
        "running": true,
        "channel": 0,
        "type": "noteOn",
        "noteNumber": 87,
        "velocity": 46
      },
      {
        "deltaTime": 4,
        "running": true,
        "channel": 0,
        "type": "noteOff",
        "noteNumber": 87,
        "velocity": 0,
        "byte9": true
      },
      {
        "deltaTime": 15,
        "running": true,
        "channel": 0,
        "type": "noteOn",
        "noteNumber": 89,
        "velocity": 67
      },
      {
        "deltaTime": 36,
        "channel": 0,
        "type": "noteOn",
        "noteNumber": 84,
        "velocity": 40
      },
      {
        "deltaTime": 1,
        "running": true,
        "channel": 0,
        "type": "noteOff",
        "noteNumber": 89,
        "velocity": 0,
        "byte9": true
      },
      {
        "deltaTime": 16,
        "running": true,
        "channel": 0,
        "type": "noteOff",
        "noteNumber": 84,
        "velocity": 0,
        "byte9": true
      },
      {
        "deltaTime": 12,
        "channel": 0,
        "type": "controller",
        "controllerType": 86,
        "value": 6
      },
      {
        "deltaTime": 6,
        "channel": 0,
        "type": "noteOn",
        "noteNumber": 87,
        "velocity": 69
      },
      {
        "deltaTime": 11,
        "running": true,
        "channel": 0,
        "type": "noteOff",
        "noteNumber": 87,
        "velocity": 0,
        "byte9": true
      },
      {
        "deltaTime": 6,
        "running": true,
        "channel": 0,
        "type": "noteOn",
        "noteNumber": 79,
        "velocity": 41
      },
      {
        "deltaTime": 12,
        "running": true,
        "channel": 0,
        "type": "noteOff",
        "noteNumber": 79,
        "velocity": 0,
        "byte9": true
      },
      {
        "deltaTime": 10,
        "running": true,
        "channel": 0,
        "type": "noteOn",
        "noteNumber": 84,
        "velocity": 63
      },
      {
        "deltaTime": 10,
        "running": true,
        "channel": 0,
        "type": "noteOff",
        "noteNumber": 84,
        "velocity": 0,
        "byte9": true
      },
      {
        "deltaTime": 10,
        "running": true,
        "channel": 0,
        "type": "noteOn",
        "noteNumber": 82,
        "velocity": 54
      },
      {
        "deltaTime": 10,
        "running": true,
        "channel": 0,
        "type": "noteOff",
        "noteNumber": 82,
        "velocity": 0,
        "byte9": true
      },
      {
        "deltaTime": 12,
        "running": true,
        "channel": 0,
        "type": "noteOn",
        "noteNumber": 72,
        "velocity": 38
      },
      {
        "deltaTime": 7,
        "running": true,
        "channel": 0,
        "type": "noteOff",
        "noteNumber": 72,
        "velocity": 0,
        "byte9": true
      },
      {
        "deltaTime": 11,
        "running": true,
        "channel": 0,
        "type": "noteOn",
        "noteNumber": 79,
        "velocity": 51
      },
      {
        "deltaTime": 9,
        "running": true,
        "channel": 0,
        "type": "noteOff",
        "noteNumber": 79,
        "velocity": 0,
        "byte9": true
      },
      {
        "deltaTime": 63,
        "channel": 0,
        "type": "noteOff",
        "noteNumber": 60,
        "velocity": 0,
        "byte9": true
      },
      {
        "deltaTime": 0,
        "running": true,
        "channel": 0,
        "type": "noteOff",
        "noteNumber": 58,
        "velocity": 0,
        "byte9": true
      },
      {
        "deltaTime": 6,
        "running": true,
        "channel": 0,
        "type": "noteOff",
        "noteNumber": 63,
        "velocity": 0,
        "byte9": true
      },
      {
        "deltaTime": 4,
        "channel": 0,
        "type": "noteOff",
        "noteNumber": 53,
        "velocity": 0,
        "byte9": true
      },
      {
        "deltaTime": 49,
        "running": true,
        "channel": 0,
        "type": "noteOn",
        "noteNumber": 63,
        "velocity": 25
      },
      {
        "deltaTime": 4,
        "channel": 0,
        "type": "controller",
        "controllerType": 86,
        "value": 12
      },
      {
        "deltaTime": 0,
        "channel": 0,
        "type": "noteOn",
        "noteNumber": 58,
        "velocity": 23
      },
      {
        "deltaTime": 0,
        "running": true,
        "channel": 0,
        "type": "noteOn",
        "noteNumber": 60,
        "velocity": 31
      },
      {
        "deltaTime": 1,
        "running": true,
        "channel": 0,
        "type": "noteOn",
        "noteNumber": 53,
        "velocity": 24
      },
      {
        "deltaTime": 65,
        "running": true,
        "channel": 0,
        "type": "noteOff",
        "noteNumber": 63,
        "velocity": 0,
        "byte9": true
      },
      {
        "deltaTime": 5,
        "running": true,
        "channel": 0,
        "type": "noteOff",
        "noteNumber": 60,
        "velocity": 0,
        "byte9": true
      },
      {
        "deltaTime": 3,
        "channel": 0,
        "type": "noteOn",
        "noteNumber": 67,
        "velocity": 55
      },
      {
        "deltaTime": 1,
        "channel": 0,
        "type": "noteOff",
        "noteNumber": 53,
        "velocity": 0,
        "byte9": true
      },
      {
        "deltaTime": 1,
        "running": true,
        "channel": 0,
        "type": "noteOff",
        "noteNumber": 58,
        "velocity": 0,
        "byte9": true
      },
      {
        "deltaTime": 6,
        "channel": 0,
        "type": "noteOn",
        "noteNumber": 68,
        "velocity": 59
      },
      {
        "deltaTime": 4,
        "running": true,
        "channel": 0,
        "type": "noteOff",
        "noteNumber": 67,
        "velocity": 0,
        "byte9": true
      },
      {
        "deltaTime": 5,
        "channel": 0,
        "type": "noteOn",
        "noteNumber": 69,
        "velocity": 53
      },
      {
        "deltaTime": 5,
        "running": true,
        "channel": 0,
        "type": "noteOff",
        "noteNumber": 69,
        "velocity": 0,
        "byte9": true
      },
      {
        "deltaTime": 5,
        "running": true,
        "channel": 0,
        "type": "noteOn",
        "noteNumber": 70,
        "velocity": 81
      },
      {
        "deltaTime": 2,
        "running": true,
        "channel": 0,
        "type": "noteOff",
        "noteNumber": 68,
        "velocity": 0,
        "byte9": true
      },
      {
        "deltaTime": 11,
        "running": true,
        "channel": 0,
        "type": "noteOff",
        "noteNumber": 70,
        "velocity": 0,
        "byte9": true
      },
      {
        "deltaTime": 6,
        "channel": 0,
        "type": "controller",
        "controllerType": 85,
        "value": 6
      },
      {
        "deltaTime": 0,
        "running": true,
        "channel": 0,
        "type": "controller",
        "controllerType": 86,
        "value": 12
      },
      {
        "deltaTime": 46,
        "channel": 0,
        "type": "noteOn",
        "noteNumber": 67,
        "velocity": 73
      },
      {
        "deltaTime": 3,
        "channel": 0,
        "type": "noteOn",
        "noteNumber": 56,
        "velocity": 26
      },
      {
        "deltaTime": 1,
        "running": true,
        "channel": 0,
        "type": "noteOn",
        "noteNumber": 50,
        "velocity": 19
      },
      {
        "deltaTime": 0,
        "running": true,
        "channel": 0,
        "type": "noteOn",
        "noteNumber": 60,
        "velocity": 24
      },
      {
        "deltaTime": 4,
        "channel": 0,
        "type": "noteOff",
        "noteNumber": 67,
        "velocity": 0,
        "byte9": true
      },
      {
        "deltaTime": 2,
        "channel": 0,
        "type": "noteOff",
        "noteNumber": 60,
        "velocity": 0,
        "byte9": true
      },
      {
        "deltaTime": 2,
        "running": true,
        "channel": 0,
        "type": "noteOff",
        "noteNumber": 56,
        "velocity": 0,
        "byte9": true
      },
      {
        "deltaTime": 0,
        "running": true,
        "channel": 0,
        "type": "noteOff",
        "noteNumber": 50,
        "velocity": 0,
        "byte9": true
      },
      {
        "deltaTime": 2,
        "channel": 0,
        "type": "controller",
        "controllerType": 86,
        "value": 37
      },
      {
        "deltaTime": 31,
        "channel": 0,
        "type": "noteOn",
        "noteNumber": 67,
        "velocity": 74
      },
      {
        "deltaTime": 1,
        "channel": 0,
        "type": "noteOn",
        "noteNumber": 56,
        "velocity": 36
      },
      {
        "deltaTime": 1,
        "running": true,
        "channel": 0,
        "type": "noteOn",
        "noteNumber": 60,
        "velocity": 40
      },
      {
        "deltaTime": 6,
        "running": true,
        "channel": 0,
        "type": "noteOff",
        "noteNumber": 60,
        "velocity": 0,
        "byte9": true
      },
      {
        "deltaTime": 2,
        "channel": 0,
        "type": "noteOff",
        "noteNumber": 67,
        "velocity": 0,
        "byte9": true
      },
      {
        "deltaTime": 2,
        "channel": 0,
        "type": "noteOff",
        "noteNumber": 56,
        "velocity": 0,
        "byte9": true
      },
      {
        "deltaTime": 0,
        "channel": 0,
        "type": "noteOn",
        "noteNumber": 66,
        "velocity": 36
      },
      {
        "deltaTime": 12,
        "running": true,
        "channel": 0,
        "type": "noteOff",
        "noteNumber": 66,
        "velocity": 0,
        "byte9": true
      },
      {
        "deltaTime": 5,
        "channel": 0,
        "type": "controller",
        "controllerType": 85,
        "value": 8
      },
      {
        "deltaTime": 0,
        "running": true,
        "channel": 0,
        "type": "controller",
        "controllerType": 86,
        "value": 8
      },
      {
        "deltaTime": 1,
        "channel": 0,
        "type": "noteOn",
        "noteNumber": 67,
        "velocity": 62
      },
      {
        "deltaTime": 3,
        "channel": 0,
        "type": "noteOn",
        "noteNumber": 60,
        "velocity": 44
      },
      {
        "deltaTime": 1,
        "running": true,
        "channel": 0,
        "type": "noteOn",
        "noteNumber": 56,
        "velocity": 29
      },
      {
        "deltaTime": 1,
        "running": true,
        "channel": 0,
        "type": "noteOn",
        "noteNumber": 50,
        "velocity": 24
      },
      {
        "deltaTime": 3,
        "running": true,
        "channel": 0,
        "type": "noteOff",
        "noteNumber": 60,
        "velocity": 0,
        "byte9": true
      },
      {
        "deltaTime": 0,
        "running": true,
        "channel": 0,
        "type": "noteOff",
        "noteNumber": 56,
        "velocity": 0,
        "byte9": true
      },
      {
        "deltaTime": 0,
        "running": true,
        "channel": 0,
        "type": "noteOff",
        "noteNumber": 50,
        "velocity": 0,
        "byte9": true
      },
      {
        "deltaTime": 1,
        "channel": 0,
        "type": "controller",
        "controllerType": 86,
        "value": 37
      },
      {
        "deltaTime": 2,
        "channel": 0,
        "type": "noteOff",
        "noteNumber": 67,
        "velocity": 0,
        "byte9": true
      },
      {
        "deltaTime": 23,
        "running": true,
        "channel": 0,
        "type": "noteOn",
        "noteNumber": 67,
        "velocity": 71
      },
      {
        "deltaTime": 3,
        "channel": 0,
        "type": "noteOn",
        "noteNumber": 60,
        "velocity": 38
      },
      {
        "deltaTime": 0,
        "running": true,
        "channel": 0,
        "type": "noteOn",
        "noteNumber": 56,
        "velocity": 27
      },
      {
        "deltaTime": 2,
        "running": true,
        "channel": 0,
        "type": "noteOn",
        "noteNumber": 50,
        "velocity": 22
      },
      {
        "deltaTime": 3,
        "running": true,
        "channel": 0,
        "type": "noteOff",
        "noteNumber": 60,
        "velocity": 0,
        "byte9": true
      },
      {
        "deltaTime": 1,
        "running": true,
        "channel": 0,
        "type": "noteOff",
        "noteNumber": 50,
        "velocity": 0,
        "byte9": true
      },
      {
        "deltaTime": 2,
        "channel": 0,
        "type": "noteOff",
        "noteNumber": 67,
        "velocity": 0,
        "byte9": true
      },
      {
        "deltaTime": 1,
        "running": true,
        "channel": 0,
        "type": "noteOn",
        "noteNumber": 66,
        "velocity": 46
      },
      {
        "deltaTime": 2,
        "channel": 0,
        "type": "noteOff",
        "noteNumber": 56,
        "velocity": 0,
        "byte9": true
      },
      {
        "deltaTime": 7,
        "channel": 0,
        "type": "noteOff",
        "noteNumber": 66,
        "velocity": 0,
        "byte9": true
      },
      {
        "deltaTime": 7,
        "running": true,
        "channel": 0,
        "type": "noteOn",
        "noteNumber": 67,
        "velocity": 71
      },
      {
        "deltaTime": 0,
        "channel": 0,
        "type": "noteOn",
        "noteNumber": 60,
        "velocity": 50
      },
      {
        "deltaTime": 1,
        "running": true,
        "channel": 0,
        "type": "noteOn",
        "noteNumber": 56,
        "velocity": 33
      },
      {
        "deltaTime": 2,
        "running": true,
        "channel": 0,
        "type": "noteOn",
        "noteNumber": 50,
        "velocity": 24
      },
      {
        "deltaTime": 3,
        "channel": 0,
        "type": "noteOff",
        "noteNumber": 67,
        "velocity": 0,
        "byte9": true
      },
      {
        "deltaTime": 0,
        "channel": 0,
        "type": "noteOff",
        "noteNumber": 60,
        "velocity": 0,
        "byte9": true
      },
      {
        "deltaTime": 0,
        "running": true,
        "channel": 0,
        "type": "noteOff",
        "noteNumber": 56,
        "velocity": 0,
        "byte9": true
      },
      {
        "deltaTime": 0,
        "running": true,
        "channel": 0,
        "type": "noteOff",
        "noteNumber": 50,
        "velocity": 0,
        "byte9": true
      },
      {
        "deltaTime": 1,
        "channel": 0,
        "type": "controller",
        "controllerType": 86,
        "value": 37
      },
      {
        "deltaTime": 20,
        "channel": 0,
        "type": "noteOn",
        "noteNumber": 67,
        "velocity": 75
      },
      {
        "deltaTime": 3,
        "channel": 0,
        "type": "noteOn",
        "noteNumber": 60,
        "velocity": 38
      },
      {
        "deltaTime": 0,
        "running": true,
        "channel": 0,
        "type": "noteOn",
        "noteNumber": 56,
        "velocity": 31
      },
      {
        "deltaTime": 1,
        "running": true,
        "channel": 0,
        "type": "noteOn",
        "noteNumber": 50,
        "velocity": 29
      },
      {
        "deltaTime": 5,
        "channel": 0,
        "type": "noteOff",
        "noteNumber": 67,
        "velocity": 0,
        "byte9": true
      },
      {
        "deltaTime": 0,
        "channel": 0,
        "type": "noteOff",
        "noteNumber": 60,
        "velocity": 0,
        "byte9": true
      },
      {
        "deltaTime": 1,
        "running": true,
        "channel": 0,
        "type": "noteOff",
        "noteNumber": 50,
        "velocity": 0,
        "byte9": true
      },
      {
        "deltaTime": 2,
        "channel": 0,
        "type": "noteOn",
        "noteNumber": 66,
        "velocity": 47
      },
      {
        "deltaTime": 10,
        "running": true,
        "channel": 0,
        "type": "noteOff",
        "noteNumber": 66,
        "velocity": 0,
        "byte9": true
      },
      {
        "deltaTime": 1,
        "channel": 0,
        "type": "noteOff",
        "noteNumber": 56,
        "velocity": 0,
        "byte9": true
      },
      {
        "deltaTime": 5,
        "running": true,
        "channel": 0,
        "type": "noteOn",
        "noteNumber": 53,
        "velocity": 45
      },
      {
        "deltaTime": 1,
        "running": true,
        "channel": 0,
        "type": "noteOn",
        "noteNumber": 59,
        "velocity": 47
      },
      {
        "deltaTime": 1,
        "channel": 0,
        "type": "controller",
        "controllerType": 85,
        "value": 8
      },
      {
        "deltaTime": 0,
        "running": true,
        "channel": 0,
        "type": "controller",
        "controllerType": 86,
        "value": 8
      },
      {
        "deltaTime": 0,
        "channel": 0,
        "type": "noteOn",
        "noteNumber": 67,
        "velocity": 66
      },
      {
        "deltaTime": 4,
        "channel": 0,
        "type": "noteOn",
        "noteNumber": 49,
        "velocity": 34
      },
      {
        "deltaTime": 7,
        "running": true,
        "channel": 0,
        "type": "noteOff",
        "noteNumber": 53,
        "velocity": 0,
        "byte9": true
      },
      {
        "deltaTime": 0,
        "channel": 0,
        "type": "noteOff",
        "noteNumber": 67,
        "velocity": 0,
        "byte9": true
      },
      {
        "deltaTime": 1,
        "channel": 0,
        "type": "noteOff",
        "noteNumber": 59,
        "velocity": 0,
        "byte9": true
      },
      {
        "deltaTime": 1,
        "running": true,
        "channel": 0,
        "type": "noteOff",
        "noteNumber": 49,
        "velocity": 0,
        "byte9": true
      },
      {
        "deltaTime": 18,
        "channel": 0,
        "type": "noteOn",
        "noteNumber": 67,
        "velocity": 68
      },
      {
        "deltaTime": 2,
        "channel": 0,
        "type": "noteOn",
        "noteNumber": 59,
        "velocity": 38
      },
      {
        "deltaTime": 2,
        "channel": 0,
        "type": "noteOn",
        "noteNumber": 63,
        "velocity": 35
      },
      {
        "deltaTime": 0,
        "channel": 0,
        "type": "noteOn",
        "noteNumber": 53,
        "velocity": 33
      },
      {
        "deltaTime": 1,
        "running": true,
        "channel": 0,
        "type": "noteOn",
        "noteNumber": 49,
        "velocity": 19
      },
      {
        "deltaTime": 7,
        "channel": 0,
        "type": "noteOff",
        "noteNumber": 67,
        "velocity": 0,
        "byte9": true
      },
      {
        "deltaTime": 1,
        "running": true,
        "channel": 0,
        "type": "noteOff",
        "noteNumber": 63,
        "velocity": 0,
        "byte9": true
      },
      {
        "deltaTime": 3,
        "channel": 0,
        "type": "noteOff",
        "noteNumber": 59,
        "velocity": 0,
        "byte9": true
      },
      {
        "deltaTime": 3,
        "running": true,
        "channel": 0,
        "type": "noteOff",
        "noteNumber": 53,
        "velocity": 0,
        "byte9": true
      },
      {
        "deltaTime": 1,
        "running": true,
        "channel": 0,
        "type": "noteOff",
        "noteNumber": 49,
        "velocity": 0,
        "byte9": true
      },
      {
        "deltaTime": 105,
        "channel": 0,
        "type": "noteOn",
        "noteNumber": 67,
        "velocity": 80
      },
      {
        "deltaTime": 1,
        "channel": 0,
        "type": "noteOn",
        "noteNumber": 58,
        "velocity": 84
      },
      {
        "deltaTime": 1,
        "channel": 0,
        "type": "noteOn",
        "noteNumber": 63,
        "velocity": 74
      },
      {
        "deltaTime": 0,
        "channel": 0,
        "type": "noteOn",
        "noteNumber": 49,
        "velocity": 55
      },
      {
        "deltaTime": 0,
        "running": true,
        "channel": 0,
        "type": "noteOn",
        "noteNumber": 59,
        "velocity": 63
      },
      {
        "deltaTime": 0,
        "running": true,
        "channel": 0,
        "type": "noteOn",
        "noteNumber": 53,
        "velocity": 63
      },
      {
        "deltaTime": 15,
        "channel": 0,
        "type": "noteOff",
        "noteNumber": 58,
        "velocity": 0,
        "byte9": true
      },
      {
        "deltaTime": 0,
        "running": true,
        "channel": 0,
        "type": "noteOff",
        "noteNumber": 59,
        "velocity": 0,
        "byte9": true
      },
      {
        "deltaTime": 2,
        "channel": 0,
        "type": "noteOff",
        "noteNumber": 63,
        "velocity": 0,
        "byte9": true
      },
      {
        "deltaTime": 0,
        "channel": 0,
        "type": "noteOff",
        "noteNumber": 53,
        "velocity": 0,
        "byte9": true
      },
      {
        "deltaTime": 1,
        "running": true,
        "channel": 0,
        "type": "noteOff",
        "noteNumber": 49,
        "velocity": 0,
        "byte9": true
      },
      {
        "deltaTime": 3,
        "channel": 0,
        "type": "noteOff",
        "noteNumber": 67,
        "velocity": 0,
        "byte9": true
      },
      {
        "deltaTime": 10,
        "channel": 0,
        "type": "noteOn",
        "noteNumber": 67,
        "velocity": 72
      },
      {
        "deltaTime": 1,
        "channel": 0,
        "type": "noteOn",
        "noteNumber": 58,
        "velocity": 76
      },
      {
        "deltaTime": 0,
        "running": true,
        "channel": 0,
        "type": "noteOn",
        "noteNumber": 49,
        "velocity": 60
      },
      {
        "deltaTime": 0,
        "channel": 0,
        "type": "noteOn",
        "noteNumber": 63,
        "velocity": 69
      },
      {
        "deltaTime": 1,
        "channel": 0,
        "type": "noteOn",
        "noteNumber": 59,
        "velocity": 68
      },
      {
        "deltaTime": 1,
        "running": true,
        "channel": 0,
        "type": "noteOn",
        "noteNumber": 53,
        "velocity": 62
      },
      {
        "deltaTime": 9,
        "channel": 0,
        "type": "noteOff",
        "noteNumber": 59,
        "velocity": 0,
        "byte9": true
      },
      {
        "deltaTime": 5,
        "channel": 0,
        "type": "noteOff",
        "noteNumber": 67,
        "velocity": 0,
        "byte9": true
      },
      {
        "deltaTime": 0,
        "channel": 0,
        "type": "noteOff",
        "noteNumber": 58,
        "velocity": 0,
        "byte9": true
      },
      {
        "deltaTime": 1,
        "running": true,
        "channel": 0,
        "type": "noteOff",
        "noteNumber": 53,
        "velocity": 0,
        "byte9": true
      },
      {
        "deltaTime": 1,
        "running": true,
        "channel": 0,
        "type": "noteOn",
        "noteNumber": 59,
        "velocity": 28
      },
      {
        "deltaTime": 1,
        "channel": 0,
        "type": "noteOn",
        "noteNumber": 68,
        "velocity": 68
      },
      {
        "deltaTime": 3,
        "running": true,
        "channel": 0,
        "type": "noteOn",
        "noteNumber": 67,
        "velocity": 30
      },
      {
        "deltaTime": 6,
        "running": true,
        "channel": 0,
        "type": "noteOff",
        "noteNumber": 63,
        "velocity": 0,
        "byte9": true
      },
      {
        "deltaTime": 1,
        "channel": 0,
        "type": "noteOff",
        "noteNumber": 59,
        "velocity": 0,
        "byte9": true
      },
      {
        "deltaTime": 1,
        "channel": 0,
        "type": "noteOff",
        "noteNumber": 67,
        "velocity": 0,
        "byte9": true
      },
      {
        "deltaTime": 5,
        "channel": 0,
        "type": "noteOff",
        "noteNumber": 49,
        "velocity": 0,
        "byte9": true
      },
      {
        "deltaTime": 0,
        "channel": 0,
        "type": "noteOff",
        "noteNumber": 68,
        "velocity": 0,
        "byte9": true
      },
      {
        "deltaTime": 9,
        "channel": 0,
        "type": "noteOn",
        "noteNumber": 58,
        "velocity": 83
      },
      {
        "deltaTime": 0,
        "channel": 0,
        "type": "noteOn",
        "noteNumber": 63,
        "velocity": 73
      },
      {
        "deltaTime": 1,
        "channel": 0,
        "type": "noteOn",
        "noteNumber": 48,
        "velocity": 79
      },
      {
        "deltaTime": 0,
        "channel": 0,
        "type": "noteOn",
        "noteNumber": 65,
        "velocity": 80
      },
      {
        "deltaTime": 26,
        "channel": 0,
        "type": "noteOff",
        "noteNumber": 58,
        "velocity": 0,
        "byte9": true
      },
      {
        "deltaTime": 6,
        "channel": 0,
        "type": "noteOff",
        "noteNumber": 65,
        "velocity": 0,
        "byte9": true
      },
      {
        "deltaTime": 1,
        "running": true,
        "channel": 0,
        "type": "noteOff",
        "noteNumber": 63,
        "velocity": 0,
        "byte9": true
      },
      {
        "deltaTime": 12,
        "channel": 0,
        "type": "noteOn",
        "noteNumber": 58,
        "velocity": 67
      },
      {
        "deltaTime": 1,
        "running": true,
        "channel": 0,
        "type": "noteOff",
        "noteNumber": 48,
        "velocity": 0,
        "byte9": true
      },
      {
        "deltaTime": 3,
        "channel": 0,
        "type": "noteOn",
        "noteNumber": 77,
        "velocity": 82
      },
      {
        "deltaTime": 7,
        "channel": 0,
        "type": "noteOff",
        "noteNumber": 58,
        "velocity": 0,
        "byte9": true
      },
      {
        "deltaTime": 27,
        "channel": 0,
        "type": "noteOff",
        "noteNumber": 77,
        "velocity": 0,
        "byte9": true
      },
      {
        "deltaTime": 25,
        "running": true,
        "channel": 0,
        "type": "noteOn",
        "noteNumber": 70,
        "velocity": 59
      },
      {
        "deltaTime": 3,
        "running": true,
        "channel": 0,
        "type": "noteOn",
        "noteNumber": 67,
        "velocity": 50
      },
      {
        "deltaTime": 0,
        "channel": 0,
        "type": "noteOn",
        "noteNumber": 63,
        "velocity": 37
      },
      {
        "deltaTime": 2,
        "channel": 0,
        "type": "noteOn",
        "noteNumber": 77,
        "velocity": 44
      },
      {
        "deltaTime": 12,
        "channel": 0,
        "type": "controller",
        "controllerType": 85,
        "value": 6
      },
      {
        "deltaTime": 0,
        "running": true,
        "channel": 0,
        "type": "controller",
        "controllerType": 86,
        "value": 6
      },
      {
        "deltaTime": 49,
        "channel": 0,
        "type": "noteOff",
        "noteNumber": 63,
        "velocity": 0,
        "byte9": true
      },
      {
        "deltaTime": 6,
        "channel": 0,
        "type": "noteOff",
        "noteNumber": 77,
        "velocity": 0,
        "byte9": true
      },
      {
        "deltaTime": 11,
        "running": true,
        "channel": 0,
        "type": "noteOn",
        "noteNumber": 77,
        "velocity": 59
      },
      {
        "deltaTime": 3,
        "running": true,
        "channel": 0,
        "type": "noteOff",
        "noteNumber": 67,
        "velocity": 0,
        "byte9": true
      },
      {
        "deltaTime": 7,
        "running": true,
        "channel": 0,
        "type": "noteOff",
        "noteNumber": 70,
        "velocity": 0,
        "byte9": true
      },
      {
        "deltaTime": 6,
        "running": true,
        "channel": 0,
        "type": "noteOff",
        "noteNumber": 77,
        "velocity": 0,
        "byte9": true
      },
      {
        "deltaTime": 6,
        "running": true,
        "channel": 0,
        "type": "noteOn",
        "noteNumber": 75,
        "velocity": 60
      },
      {
        "deltaTime": 10,
        "running": true,
        "channel": 0,
        "type": "noteOff",
        "noteNumber": 75,
        "velocity": 0,
        "byte9": true
      },
      {
        "deltaTime": 5,
        "channel": 0,
        "type": "noteOn",
        "noteNumber": 53,
        "velocity": 20
      },
      {
        "deltaTime": 3,
        "running": true,
        "channel": 0,
        "type": "noteOn",
        "noteNumber": 56,
        "velocity": 50
      },
      {
        "deltaTime": 0,
        "channel": 0,
        "type": "noteOn",
        "noteNumber": 77,
        "velocity": 50
      },
      {
        "deltaTime": 0,
        "channel": 0,
        "type": "noteOn",
        "noteNumber": 63,
        "velocity": 27
      },
      {
        "deltaTime": 2,
        "running": true,
        "channel": 0,
        "type": "noteOn",
        "noteNumber": 60,
        "velocity": 31
      },
      {
        "deltaTime": 0,
        "channel": 0,
        "type": "noteOn",
        "noteNumber": 72,
        "velocity": 54
      },
      {
        "deltaTime": 1,
        "running": true,
        "channel": 0,
        "type": "noteOn",
        "noteNumber": 68,
        "velocity": 28
      },
      {
        "deltaTime": 3,
        "channel": 0,
        "type": "noteOff",
        "noteNumber": 56,
        "velocity": 0,
        "byte9": true
      },
      {
        "deltaTime": 27,
        "channel": 0,
        "type": "noteOff",
        "noteNumber": 63,
        "velocity": 0,
        "byte9": true
      },
      {
        "deltaTime": 21,
        "channel": 0,
        "type": "noteOff",
        "noteNumber": 72,
        "velocity": 0,
        "byte9": true
      },
      {
        "deltaTime": 2,
        "running": true,
        "channel": 0,
        "type": "noteOff",
        "noteNumber": 68,
        "velocity": 0,
        "byte9": true
      },
      {
        "deltaTime": 25,
        "running": true,
        "channel": 0,
        "type": "noteOff",
        "noteNumber": 77,
        "velocity": 0,
        "byte9": true
      },
      {
        "deltaTime": 21,
        "channel": 0,
        "type": "noteOff",
        "noteNumber": 60,
        "velocity": 0,
        "byte9": true
      },
      {
        "deltaTime": 30,
        "running": true,
        "channel": 0,
        "type": "noteOn",
        "noteNumber": 63,
        "velocity": 25
      },
      {
        "deltaTime": 1,
        "channel": 0,
        "type": "noteOn",
        "noteNumber": 68,
        "velocity": 35
      },
      {
        "deltaTime": 0,
        "running": true,
        "channel": 0,
        "type": "noteOn",
        "noteNumber": 72,
        "velocity": 39
      },
      {
        "deltaTime": 1,
        "running": true,
        "channel": 0,
        "type": "noteOn",
        "noteNumber": 65,
        "velocity": 34
      },
      {
        "deltaTime": 2,
        "channel": 0,
        "type": "noteOn",
        "noteNumber": 60,
        "velocity": 24
      },
      {
        "deltaTime": 1,
        "running": true,
        "channel": 0,
        "type": "noteOn",
        "noteNumber": 56,
        "velocity": 10
      },
      {
        "deltaTime": 19,
        "channel": 0,
        "type": "noteOff",
        "noteNumber": 65,
        "velocity": 0,
        "byte9": true
      },
      {
        "deltaTime": 5,
        "running": true,
        "channel": 0,
        "type": "noteOff",
        "noteNumber": 72,
        "velocity": 0,
        "byte9": true
      },
      {
        "deltaTime": 2,
        "running": true,
        "channel": 0,
        "type": "noteOff",
        "noteNumber": 68,
        "velocity": 0,
        "byte9": true
      },
      {
        "deltaTime": 10,
        "channel": 0,
        "type": "noteOff",
        "noteNumber": 60,
        "velocity": 0,
        "byte9": true
      },
      {
        "deltaTime": 5,
        "running": true,
        "channel": 0,
        "type": "noteOff",
        "noteNumber": 53,
        "velocity": 0,
        "byte9": true
      },
      {
        "deltaTime": 1,
        "running": true,
        "channel": 0,
        "type": "noteOff",
        "noteNumber": 63,
        "velocity": 0,
        "byte9": true
      },
      {
        "deltaTime": 12,
        "running": true,
        "channel": 0,
        "type": "noteOff",
        "noteNumber": 56,
        "velocity": 0,
        "byte9": true
      },
      {
        "deltaTime": 39,
        "channel": 0,
        "type": "noteOn",
        "noteNumber": 54,
        "velocity": 77
      },
      {
        "deltaTime": 0,
        "running": true,
        "channel": 0,
        "type": "noteOn",
        "noteNumber": 65,
        "velocity": 90
      },
      {
        "deltaTime": 0,
        "running": true,
        "channel": 0,
        "type": "noteOn",
        "noteNumber": 61,
        "velocity": 71
      },
      {
        "deltaTime": 1,
        "running": true,
        "channel": 0,
        "type": "noteOn",
        "noteNumber": 58,
        "velocity": 74
      },
      {
        "deltaTime": 0,
        "channel": 0,
        "type": "noteOn",
        "noteNumber": 88,
        "velocity": 94
      },
      {
        "deltaTime": 0,
        "running": true,
        "channel": 0,
        "type": "noteOn",
        "noteNumber": 82,
        "velocity": 91
      },
      {
        "deltaTime": 0,
        "running": true,
        "channel": 0,
        "type": "noteOn",
        "noteNumber": 76,
        "velocity": 90
      },
      {
        "deltaTime": 2,
        "running": true,
        "channel": 0,
        "type": "noteOn",
        "noteNumber": 85,
        "velocity": 62
      },
      {
        "deltaTime": 16,
        "running": true,
        "channel": 0,
        "type": "noteOff",
        "noteNumber": 88,
        "velocity": 0,
        "byte9": true
      },
      {
        "deltaTime": 1,
        "channel": 0,
        "type": "noteOff",
        "noteNumber": 54,
        "velocity": 0,
        "byte9": true
      },
      {
        "deltaTime": 1,
        "channel": 0,
        "type": "noteOff",
        "noteNumber": 76,
        "velocity": 0,
        "byte9": true
      },
      {
        "deltaTime": 1,
        "running": true,
        "channel": 0,
        "type": "noteOff",
        "noteNumber": 85,
        "velocity": 0,
        "byte9": true
      },
      {
        "deltaTime": 1,
        "channel": 0,
        "type": "noteOff",
        "noteNumber": 65,
        "velocity": 0,
        "byte9": true
      },
      {
        "deltaTime": 1,
        "running": true,
        "channel": 0,
        "type": "noteOff",
        "noteNumber": 61,
        "velocity": 0,
        "byte9": true
      },
      {
        "deltaTime": 0,
        "channel": 0,
        "type": "noteOff",
        "noteNumber": 82,
        "velocity": 0,
        "byte9": true
      },
      {
        "deltaTime": 0,
        "meta": true,
        "type": "text",
        "text": "These are 'Red Garland' type voicings - LH plays typical rootless voicing while RH plays Octave with perfect-"
      },
      {
        "deltaTime": 0,
        "channel": 0,
        "type": "controller",
        "controllerType": 85,
        "value": 6
      },
      {
        "deltaTime": 0,
        "running": true,
        "channel": 0,
        "type": "controller",
        "controllerType": 86,
        "value": 6
      },
      {
        "deltaTime": 1,
        "channel": 0,
        "type": "noteOff",
        "noteNumber": 58,
        "velocity": 0,
        "byte9": true
      },
      {
        "deltaTime": 5,
        "channel": 0,
        "type": "noteOn",
        "noteNumber": 65,
        "velocity": 82
      },
      {
        "deltaTime": 4,
        "channel": 0,
        "type": "noteOn",
        "noteNumber": 75,
        "velocity": 82
      },
      {
        "deltaTime": 1,
        "running": true,
        "channel": 0,
        "type": "noteOn",
        "noteNumber": 87,
        "velocity": 75
      },
      {
        "deltaTime": 0,
        "running": true,
        "channel": 0,
        "type": "noteOn",
        "noteNumber": 82,
        "velocity": 75
      },
      {
        "deltaTime": 0,
        "channel": 0,
        "type": "noteOn",
        "noteNumber": 61,
        "velocity": 65
      },
      {
        "deltaTime": 1,
        "running": true,
        "channel": 0,
        "type": "noteOff",
        "noteNumber": 65,
        "velocity": 0,
        "byte9": true
      },
      {
        "deltaTime": 0,
        "running": true,
        "channel": 0,
        "type": "noteOn",
        "noteNumber": 58,
        "velocity": 69
      },
      {
        "deltaTime": 0,
        "running": true,
        "channel": 0,
        "type": "noteOn",
        "noteNumber": 54,
        "velocity": 69
      },
      {
        "deltaTime": 2,
        "channel": 0,
        "type": "noteOff",
        "noteNumber": 82,
        "velocity": 0,
        "byte9": true
      },
      {
        "deltaTime": 1,
        "running": true,
        "channel": 0,
        "type": "noteOff",
        "noteNumber": 75,
        "velocity": 0,
        "byte9": true
      },
      {
        "deltaTime": 2,
        "running": true,
        "channel": 0,
        "type": "noteOff",
        "noteNumber": 87,
        "velocity": 0,
        "byte9": true
      },
      {
        "deltaTime": 2,
        "channel": 0,
        "type": "noteOff",
        "noteNumber": 61,
        "velocity": 0,
        "byte9": true
      },
      {
        "deltaTime": 0,
        "running": true,
        "channel": 0,
        "type": "noteOff",
        "noteNumber": 54,
        "velocity": 0,
        "byte9": true
      },
      {
        "deltaTime": 1,
        "running": true,
        "channel": 0,
        "type": "noteOff",
        "noteNumber": 58,
        "velocity": 0,
        "byte9": true
      },
      {
        "deltaTime": 32,
        "channel": 0,
        "type": "noteOn",
        "noteNumber": 75,
        "velocity": 69
      },
      {
        "deltaTime": 1,
        "running": true,
        "channel": 0,
        "type": "noteOn",
        "noteNumber": 87,
        "velocity": 62
      },
      {
        "deltaTime": 0,
        "channel": 0,
        "type": "noteOn",
        "noteNumber": 65,
        "velocity": 72
      },
      {
        "deltaTime": 1,
        "channel": 0,
        "type": "noteOn",
        "noteNumber": 82,
        "velocity": 56
      },
      {
        "deltaTime": 0,
        "channel": 0,
        "type": "noteOn",
        "noteNumber": 58,
        "velocity": 52
      },
      {
        "deltaTime": 0,
        "running": true,
        "channel": 0,
        "type": "noteOn",
        "noteNumber": 61,
        "velocity": 47
      },
      {
        "deltaTime": 0,
        "running": true,
        "channel": 0,
        "type": "noteOn",
        "noteNumber": 54,
        "velocity": 50
      },
      {
        "deltaTime": 3,
        "channel": 0,
        "type": "noteOff",
        "noteNumber": 82,
        "velocity": 0,
        "byte9": true
      },
      {
        "deltaTime": 1,
        "running": true,
        "channel": 0,
        "type": "noteOff",
        "noteNumber": 75,
        "velocity": 0,
        "byte9": true
      },
      {
        "deltaTime": 0,
        "running": true,
        "channel": 0,
        "type": "noteOff",
        "noteNumber": 87,
        "velocity": 0,
        "byte9": true
      },
      {
        "deltaTime": 2,
        "channel": 0,
        "type": "noteOff",
        "noteNumber": 65,
        "velocity": 0,
        "byte9": true
      },
      {
        "deltaTime": 1,
        "running": true,
        "channel": 0,
        "type": "noteOff",
        "noteNumber": 61,
        "velocity": 0,
        "byte9": true
      },
      {
        "deltaTime": 0,
        "running": true,
        "channel": 0,
        "type": "noteOff",
        "noteNumber": 54,
        "velocity": 0,
        "byte9": true
      },
      {
        "deltaTime": 2,
        "running": true,
        "channel": 0,
        "type": "noteOff",
        "noteNumber": 58,
        "velocity": 0,
        "byte9": true
      },
      {
        "deltaTime": 35,
        "running": true,
        "channel": 0,
        "type": "noteOn",
        "noteNumber": 58,
        "velocity": 47
      },
      {
        "deltaTime": 1,
        "running": true,
        "channel": 0,
        "type": "noteOn",
        "noteNumber": 65,
        "velocity": 58
      },
      {
        "deltaTime": 0,
        "channel": 0,
        "type": "noteOn",
        "noteNumber": 87,
        "velocity": 67
      },
      {
        "deltaTime": 0,
        "channel": 0,
        "type": "noteOn",
        "noteNumber": 54,
        "velocity": 38
      },
      {
        "deltaTime": 0,
        "running": true,
        "channel": 0,
        "type": "noteOn",
        "noteNumber": 61,
        "velocity": 36
      },
      {
        "deltaTime": 1,
        "channel": 0,
        "type": "noteOn",
        "noteNumber": 75,
        "velocity": 64
      },
      {
        "deltaTime": 1,
        "running": true,
        "channel": 0,
        "type": "noteOn",
        "noteNumber": 82,
        "velocity": 52
      },
      {
        "deltaTime": 3,
        "channel": 0,
        "type": "noteOff",
        "noteNumber": 65,
        "velocity": 0,
        "byte9": true
      },
      {
        "deltaTime": 2,
        "channel": 0,
        "type": "noteOff",
        "noteNumber": 87,
        "velocity": 0,
        "byte9": true
      },
      {
        "deltaTime": 0,
        "running": true,
        "channel": 0,
        "type": "noteOff",
        "noteNumber": 75,
        "velocity": 0,
        "byte9": true
      },
      {
        "deltaTime": 0,
        "running": true,
        "channel": 0,
        "type": "noteOff",
        "noteNumber": 82,
        "velocity": 0,
        "byte9": true
      },
      {
        "deltaTime": 1,
        "channel": 0,
        "type": "noteOff",
        "noteNumber": 54,
        "velocity": 0,
        "byte9": true
      },
      {
        "deltaTime": 0,
        "running": true,
        "channel": 0,
        "type": "noteOff",
        "noteNumber": 61,
        "velocity": 0,
        "byte9": true
      },
      {
        "deltaTime": 2,
        "running": true,
        "channel": 0,
        "type": "noteOff",
        "noteNumber": 58,
        "velocity": 0,
        "byte9": true
      },
      {
        "deltaTime": 11,
        "channel": 0,
        "type": "noteOn",
        "noteNumber": 73,
        "velocity": 35
      },
      {
        "deltaTime": 0,
        "channel": 0,
        "type": "noteOn",
        "noteNumber": 61,
        "velocity": 29
      },
      {
        "deltaTime": 0,
        "running": true,
        "channel": 0,
        "type": "noteOn",
        "noteNumber": 58,
        "velocity": 30
      },
      {
        "deltaTime": 0,
        "running": true,
        "channel": 0,
        "type": "noteOn",
        "noteNumber": 65,
        "velocity": 29
      },
      {
        "deltaTime": 1,
        "channel": 0,
        "type": "noteOn",
        "noteNumber": 85,
        "velocity": 33
      },
      {
        "deltaTime": 3,
        "channel": 0,
        "type": "noteOff",
        "noteNumber": 61,
        "velocity": 0,
        "byte9": true
      },
      {
        "deltaTime": 0,
        "running": true,
        "channel": 0,
        "type": "noteOff",
        "noteNumber": 65,
        "velocity": 0,
        "byte9": true
      },
      {
        "deltaTime": 1,
        "channel": 0,
        "type": "noteOff",
        "noteNumber": 73,
        "velocity": 0,
        "byte9": true
      },
      {
        "deltaTime": 0,
        "channel": 0,
        "type": "noteOff",
        "noteNumber": 58,
        "velocity": 0,
        "byte9": true
      },
      {
        "deltaTime": 1,
        "channel": 0,
        "type": "noteOff",
        "noteNumber": 85,
        "velocity": 0,
        "byte9": true
      },
      {
        "deltaTime": 12,
        "running": true,
        "channel": 0,
        "type": "noteOn",
        "noteNumber": 87,
        "velocity": 58
      },
      {
        "deltaTime": 0,
        "channel": 0,
        "type": "noteOn",
        "noteNumber": 54,
        "velocity": 36
      },
      {
        "deltaTime": 1,
        "running": true,
        "channel": 0,
        "type": "noteOn",
        "noteNumber": 65,
        "velocity": 48
      },
      {
        "deltaTime": 0,
        "running": true,
        "channel": 0,
        "type": "noteOn",
        "noteNumber": 58,
        "velocity": 37
      },
      {
        "deltaTime": 0,
        "channel": 0,
        "type": "noteOn",
        "noteNumber": 75,
        "velocity": 39
      },
      {
        "deltaTime": 0,
        "channel": 0,
        "type": "noteOn",
        "noteNumber": 61,
        "velocity": 44
      },
      {
        "deltaTime": 2,
        "channel": 0,
        "type": "noteOn",
        "noteNumber": 82,
        "velocity": 48
      },
      {
        "deltaTime": 36,
        "channel": 0,
        "type": "noteOff",
        "noteNumber": 82,
        "velocity": 0,
        "byte9": true
      },
      {
        "deltaTime": 24,
        "channel": 0,
        "type": "noteOff",
        "noteNumber": 54,
        "velocity": 0,
        "byte9": true
      },
      {
        "deltaTime": 0,
        "channel": 0,
        "type": "noteOff",
        "noteNumber": 75,
        "velocity": 0,
        "byte9": true
      },
      {
        "deltaTime": 1,
        "running": true,
        "channel": 0,
        "type": "noteOff",
        "noteNumber": 87,
        "velocity": 0,
        "byte9": true
      },
      {
        "deltaTime": 0,
        "channel": 0,
        "type": "noteOff",
        "noteNumber": 65,
        "velocity": 0,
        "byte9": true
      },
      {
        "deltaTime": 1,
        "running": true,
        "channel": 0,
        "type": "noteOff",
        "noteNumber": 58,
        "velocity": 0,
        "byte9": true
      },
      {
        "deltaTime": 4,
        "running": true,
        "channel": 0,
        "type": "noteOff",
        "noteNumber": 61,
        "velocity": 0,
        "byte9": true
      },
      {
        "deltaTime": 19,
        "running": true,
        "channel": 0,
        "type": "noteOn",
        "noteNumber": 61,
        "velocity": 23
      },
      {
        "deltaTime": 0,
        "channel": 0,
        "type": "noteOn",
        "noteNumber": 85,
        "velocity": 25
      },
      {
        "deltaTime": 1,
        "channel": 0,
        "type": "noteOn",
        "noteNumber": 58,
        "velocity": 33
      },
      {
        "deltaTime": 1,
        "channel": 0,
        "type": "noteOn",
        "noteNumber": 80,
        "velocity": 25
      },
      {
        "deltaTime": 3,
        "running": true,
        "channel": 0,
        "type": "noteOff",
        "noteNumber": 85,
        "velocity": 0,
        "byte9": true
      },
      {
        "deltaTime": 1,
        "running": true,
        "channel": 0,
        "type": "noteOff",
        "noteNumber": 80,
        "velocity": 0,
        "byte9": true
      },
      {
        "deltaTime": 3,
        "channel": 0,
        "type": "noteOff",
        "noteNumber": 61,
        "velocity": 0,
        "byte9": true
      },
      {
        "deltaTime": 9,
        "running": true,
        "channel": 0,
        "type": "noteOff",
        "noteNumber": 58,
        "velocity": 0,
        "byte9": true
      },
      {
        "deltaTime": 9,
        "channel": 0,
        "type": "noteOn",
        "noteNumber": 89,
        "velocity": 69
      },
      {
        "deltaTime": 0,
        "channel": 0,
        "type": "noteOn",
        "noteNumber": 65,
        "velocity": 75
      },
      {
        "deltaTime": 1,
        "channel": 0,
        "type": "noteOn",
        "noteNumber": 77,
        "velocity": 57
      },
      {
        "deltaTime": 0,
        "running": true,
        "channel": 0,
        "type": "noteOn",
        "noteNumber": 84,
        "velocity": 58
      },
      {
        "deltaTime": 0,
        "channel": 0,
        "type": "noteOn",
        "noteNumber": 60,
        "velocity": 65
      },
      {
        "deltaTime": 0,
        "running": true,
        "channel": 0,
        "type": "noteOn",
        "noteNumber": 54,
        "velocity": 59
      },
      {
        "deltaTime": 119,
        "channel": 0,
        "type": "noteOff",
        "noteNumber": 65,
        "velocity": 0,
        "byte9": true
      },
      {
        "deltaTime": 4,
        "running": true,
        "channel": 0,
        "type": "noteOff",
        "noteNumber": 54,
        "velocity": 0,
        "byte9": true
      },
      {
        "deltaTime": 2,
        "channel": 0,
        "type": "noteOff",
        "noteNumber": 89,
        "velocity": 0,
        "byte9": true
      },
      {
        "deltaTime": 0,
        "running": true,
        "channel": 0,
        "type": "noteOff",
        "noteNumber": 84,
        "velocity": 0,
        "byte9": true
      },
      {
        "deltaTime": 13,
        "channel": 0,
        "type": "noteOff",
        "noteNumber": 60,
        "velocity": 0,
        "byte9": true
      },
      {
        "deltaTime": 5,
        "channel": 0,
        "type": "noteOff",
        "noteNumber": 77,
        "velocity": 0,
        "byte9": true
      },
      {
        "deltaTime": 81,
        "running": true,
        "channel": 0,
        "type": "noteOn",
        "noteNumber": 68,
        "velocity": 46
      },
      {
        "deltaTime": 2,
        "channel": 0,
        "type": "noteOn",
        "noteNumber": 64,
        "velocity": 46
      },
      {
        "deltaTime": 0,
        "running": true,
        "channel": 0,
        "type": "noteOn",
        "noteNumber": 63,
        "velocity": 34
      },
      {
        "deltaTime": 0,
        "channel": 0,
        "type": "noteOn",
        "noteNumber": 73,
        "velocity": 49
      },
      {
        "deltaTime": 1,
        "meta": true,
        "type": "text",
        "text": "Instead of holding the melody note (Db), repeat it several times but with a turn"
      },
      {
        "deltaTime": 0,
        "channel": 0,
        "type": "noteOn",
        "noteNumber": 59,
        "velocity": 38
      },
      {
        "deltaTime": 74,
        "channel": 0,
        "type": "noteOff",
        "noteNumber": 68,
        "velocity": 0,
        "byte9": true
      },
      {
        "deltaTime": 1,
        "running": true,
        "channel": 0,
        "type": "noteOn",
        "noteNumber": 75,
        "velocity": 51
      },
      {
        "deltaTime": 1,
        "running": true,
        "channel": 0,
        "type": "noteOff",
        "noteNumber": 73,
        "velocity": 0,
        "byte9": true
      },
      {
        "deltaTime": 6,
        "channel": 0,
        "type": "noteOff",
        "noteNumber": 64,
        "velocity": 0,
        "byte9": true
      },
      {
        "deltaTime": 3,
        "running": true,
        "channel": 0,
        "type": "noteOff",
        "noteNumber": 63,
        "velocity": 0,
        "byte9": true
      },
      {
        "deltaTime": 1,
        "channel": 0,
        "type": "noteOn",
        "noteNumber": 73,
        "velocity": 30
      },
      {
        "deltaTime": 3,
        "running": true,
        "channel": 0,
        "type": "noteOff",
        "noteNumber": 75,
        "velocity": 0,
        "byte9": true
      },
      {
        "deltaTime": 5,
        "running": true,
        "channel": 0,
        "type": "noteOn",
        "noteNumber": 72,
        "velocity": 62
      },
      {
        "deltaTime": 1,
        "running": true,
        "channel": 0,
        "type": "noteOff",
        "noteNumber": 73,
        "velocity": 0,
        "byte9": true
      },
      {
        "deltaTime": 5,
        "running": true,
        "channel": 0,
        "type": "noteOff",
        "noteNumber": 72,
        "velocity": 0,
        "byte9": true
      },
      {
        "deltaTime": 10,
        "running": true,
        "channel": 0,
        "type": "noteOn",
        "noteNumber": 73,
        "velocity": 56
      },
      {
        "deltaTime": 7,
        "running": true,
        "channel": 0,
        "type": "noteOff",
        "noteNumber": 73,
        "velocity": 0,
        "byte9": true
      },
      {
        "deltaTime": 2,
        "channel": 0,
        "type": "controller",
        "controllerType": 86,
        "value": 12
      },
      {
        "deltaTime": 16,
        "channel": 0,
        "type": "noteOff",
        "noteNumber": 59,
        "velocity": 0,
        "byte9": true
      },
      {
        "deltaTime": 5,
        "channel": 0,
        "type": "noteOn",
        "noteNumber": 75,
        "velocity": 62
      },
      {
        "deltaTime": 9,
        "running": true,
        "channel": 0,
        "type": "noteOff",
        "noteNumber": 75,
        "velocity": 0,
        "byte9": true
      },
      {
        "deltaTime": 1,
        "running": true,
        "channel": 0,
        "type": "noteOn",
        "noteNumber": 73,
        "velocity": 32
      },
      {
        "deltaTime": 10,
        "running": true,
        "channel": 0,
        "type": "noteOff",
        "noteNumber": 73,
        "velocity": 0,
        "byte9": true
      },
      {
        "deltaTime": 2,
        "running": true,
        "channel": 0,
        "type": "noteOn",
        "noteNumber": 72,
        "velocity": 54
      },
      {
        "deltaTime": 5,
        "running": true,
        "channel": 0,
        "type": "noteOff",
        "noteNumber": 72,
        "velocity": 0,
        "byte9": true
      },
      {
        "deltaTime": 6,
        "running": true,
        "channel": 0,
        "type": "noteOn",
        "noteNumber": 73,
        "velocity": 53
      },
      {
        "deltaTime": 5,
        "running": true,
        "channel": 0,
        "type": "noteOff",
        "noteNumber": 73,
        "velocity": 0,
        "byte9": true
      },
      {
        "deltaTime": 1,
        "channel": 0,
        "type": "controller",
        "controllerType": 86,
        "value": 37
      },
      {
        "deltaTime": 14,
        "channel": 0,
        "type": "noteOn",
        "noteNumber": 75,
        "velocity": 65
      },
      {
        "deltaTime": 11,
        "running": true,
        "channel": 0,
        "type": "noteOff",
        "noteNumber": 75,
        "velocity": 0,
        "byte9": true
      },
      {
        "deltaTime": 0,
        "running": true,
        "channel": 0,
        "type": "noteOn",
        "noteNumber": 73,
        "velocity": 32
      },
      {
        "deltaTime": 7,
        "running": true,
        "channel": 0,
        "type": "noteOn",
        "noteNumber": 72,
        "velocity": 40
      },
      {
        "deltaTime": 3,
        "running": true,
        "channel": 0,
        "type": "noteOff",
        "noteNumber": 73,
        "velocity": 0,
        "byte9": true
      },
      {
        "deltaTime": 1,
        "running": true,
        "channel": 0,
        "type": "noteOff",
        "noteNumber": 72,
        "velocity": 0,
        "byte9": true
      },
      {
        "deltaTime": 3,
        "running": true,
        "channel": 0,
        "type": "noteOn",
        "noteNumber": 73,
        "velocity": 34
      },
      {
        "deltaTime": 10,
        "running": true,
        "channel": 0,
        "type": "noteOff",
        "noteNumber": 73,
        "velocity": 0,
        "byte9": true
      },
      {
        "deltaTime": 0,
        "running": true,
        "channel": 0,
        "type": "noteOn",
        "noteNumber": 75,
        "velocity": 55
      },
      {
        "deltaTime": 13,
        "channel": 0,
        "type": "noteOn",
        "noteNumber": 63,
        "velocity": 21
      },
      {
        "deltaTime": 1,
        "channel": 0,
        "type": "noteOff",
        "noteNumber": 75,
        "velocity": 0,
        "byte9": true
      },
      {
        "deltaTime": 0,
        "channel": 0,
        "type": "noteOn",
        "noteNumber": 52,
        "velocity": 41
      },
      {
        "deltaTime": 1,
        "running": true,
        "channel": 0,
        "type": "noteOn",
        "noteNumber": 58,
        "velocity": 32
      },
      {
        "deltaTime": 7,
        "channel": 0,
        "type": "noteOn",
        "noteNumber": 73,
        "velocity": 31
      },
      {
        "deltaTime": 74,
        "channel": 0,
        "type": "noteOff",
        "noteNumber": 63,
        "velocity": 0,
        "byte9": true
      },
      {
        "deltaTime": 5,
        "running": true,
        "channel": 0,
        "type": "noteOff",
        "noteNumber": 52,
        "velocity": 0,
        "byte9": true
      },
      {
        "deltaTime": 21,
        "running": true,
        "channel": 0,
        "type": "noteOff",
        "noteNumber": 58,
        "velocity": 0,
        "byte9": true
      },
      {
        "deltaTime": 9,
        "channel": 0,
        "type": "controller",
        "controllerType": 86,
        "value": 6
      },
      {
        "deltaTime": 15,
        "channel": 0,
        "type": "noteOn",
        "noteNumber": 63,
        "velocity": 36
      },
      {
        "deltaTime": 1,
        "running": true,
        "channel": 0,
        "type": "noteOn",
        "noteNumber": 58,
        "velocity": 36
      },
      {
        "deltaTime": 3,
        "running": true,
        "channel": 0,
        "type": "noteOn",
        "noteNumber": 52,
        "velocity": 33
      },
      {
        "deltaTime": 32,
        "running": true,
        "channel": 0,
        "type": "noteOff",
        "noteNumber": 63,
        "velocity": 0,
        "byte9": true
      },
      {
        "deltaTime": 6,
        "running": true,
        "channel": 0,
        "type": "noteOff",
        "noteNumber": 52,
        "velocity": 0,
        "byte9": true
      },
      {
        "deltaTime": 7,
        "running": true,
        "channel": 0,
        "type": "noteOff",
        "noteNumber": 58,
        "velocity": 0,
        "byte9": true
      },
      {
        "deltaTime": 3,
        "channel": 0,
        "type": "noteOff",
        "noteNumber": 73,
        "velocity": 0,
        "byte9": true
      },
      {
        "deltaTime": 37,
        "running": true,
        "channel": 0,
        "type": "noteOn",
        "noteNumber": 75,
        "velocity": 90
      },
      {
        "deltaTime": 16,
        "channel": 0,
        "type": "controller",
        "controllerType": 86,
        "value": 6
      },
      {
        "deltaTime": 2,
        "channel": 0,
        "type": "noteOff",
        "noteNumber": 75,
        "velocity": 0,
        "byte9": true
      },
      {
        "deltaTime": 6,
        "running": true,
        "channel": 0,
        "type": "noteOn",
        "noteNumber": 75,
        "velocity": 83
      },
      {
        "deltaTime": 8,
        "running": true,
        "channel": 0,
        "type": "noteOn",
        "noteNumber": 70,
        "velocity": 73
      },
      {
        "deltaTime": 1,
        "running": true,
        "channel": 0,
        "type": "noteOn",
        "noteNumber": 72,
        "velocity": 71
      },
      {
        "deltaTime": 1,
        "running": true,
        "channel": 0,
        "type": "noteOn",
        "noteNumber": 63,
        "velocity": 67
      },
      {
        "deltaTime": 0,
        "channel": 0,
        "type": "noteOn",
        "noteNumber": 58,
        "velocity": 63
      },
      {
        "deltaTime": 1,
        "running": true,
        "channel": 0,
        "type": "noteOn",
        "noteNumber": 54,
        "velocity": 46
      },
      {
        "deltaTime": 0,
        "running": true,
        "channel": 0,
        "type": "noteOn",
        "noteNumber": 48,
        "velocity": 48
      },
      {
        "deltaTime": 23,
        "channel": 0,
        "type": "noteOff",
        "noteNumber": 75,
        "velocity": 0,
        "byte9": true
      },
      {
        "deltaTime": 19,
        "running": true,
        "channel": 0,
        "type": "noteOff",
        "noteNumber": 72,
        "velocity": 0,
        "byte9": true
      },
      {
        "deltaTime": 2,
        "running": true,
        "channel": 0,
        "type": "noteOn",
        "noteNumber": 75,
        "velocity": 83
      },
      {
        "deltaTime": 1,
        "channel": 0,
        "type": "noteOff",
        "noteNumber": 58,
        "velocity": 0,
        "byte9": true
      },
      {
        "deltaTime": 0,
        "channel": 0,
        "type": "noteOn",
        "noteNumber": 72,
        "velocity": 35
      },
      {
        "deltaTime": 9,
        "running": true,
        "channel": 0,
        "type": "noteOff",
        "noteNumber": 63,
        "velocity": 0,
        "byte9": true
      },
      {
        "deltaTime": 8,
        "running": true,
        "channel": 0,
        "type": "noteOff",
        "noteNumber": 75,
        "velocity": 0,
        "byte9": true
      },
      {
        "deltaTime": 1,
        "running": true,
        "channel": 0,
        "type": "noteOff",
        "noteNumber": 72,
        "velocity": 0,
        "byte9": true
      },
      {
        "deltaTime": 1,
        "running": true,
        "channel": 0,
        "type": "noteOff",
        "noteNumber": 70,
        "velocity": 0,
        "byte9": true
      },
      {
        "deltaTime": 6,
        "running": true,
        "channel": 0,
        "type": "noteOn",
        "noteNumber": 75,
        "velocity": 83
      },
      {
        "deltaTime": 15,
        "running": true,
        "channel": 0,
        "type": "noteOff",
        "noteNumber": 75,
        "velocity": 0,
        "byte9": true
      },
      {
        "deltaTime": 4,
        "running": true,
        "channel": 0,
        "type": "noteOn",
        "noteNumber": 75,
        "velocity": 69
      },
      {
        "deltaTime": 12,
        "channel": 0,
        "type": "controller",
        "controllerType": 86,
        "value": 6
      },
      {
        "deltaTime": 2,
        "channel": 0,
        "type": "noteOff",
        "noteNumber": 75,
        "velocity": 0,
        "byte9": true
      },
      {
        "deltaTime": 4,
        "running": true,
        "channel": 0,
        "type": "noteOn",
        "noteNumber": 63,
        "velocity": 53
      },
      {
        "deltaTime": 0,
        "running": true,
        "channel": 0,
        "type": "noteOn",
        "noteNumber": 75,
        "velocity": 71
      },
      {
        "deltaTime": 1,
        "running": true,
        "channel": 0,
        "type": "noteOn",
        "noteNumber": 70,
        "velocity": 59
      },
      {
        "deltaTime": 1,
        "running": true,
        "channel": 0,
        "type": "noteOn",
        "noteNumber": 72,
        "velocity": 58
      },
      {
        "deltaTime": 15,
        "channel": 0,
        "type": "noteOn",
        "noteNumber": 58,
        "velocity": 45
      },
      {
        "deltaTime": 7,
        "channel": 0,
        "type": "noteOff",
        "noteNumber": 75,
        "velocity": 0,
        "byte9": true
      },
      {
        "deltaTime": 7,
        "running": true,
        "channel": 0,
        "type": "noteOff",
        "noteNumber": 63,
        "velocity": 0,
        "byte9": true
      },
      {
        "deltaTime": 2,
        "running": true,
        "channel": 0,
        "type": "noteOff",
        "noteNumber": 72,
        "velocity": 0,
        "byte9": true
      },
      {
        "deltaTime": 16,
        "channel": 0,
        "type": "noteOff",
        "noteNumber": 70,
        "velocity": 0,
        "byte9": true
      },
      {
        "deltaTime": 3,
        "running": true,
        "channel": 0,
        "type": "noteOn",
        "noteNumber": 75,
        "velocity": 77
      },
      {
        "deltaTime": 7,
        "channel": 0,
        "type": "noteOff",
        "noteNumber": 48,
        "velocity": 0,
        "byte9": true
      },
      {
        "deltaTime": 7,
        "running": true,
        "channel": 0,
        "type": "noteOff",
        "noteNumber": 58,
        "velocity": 0,
        "byte9": true
      },
      {
        "deltaTime": 2,
        "running": true,
        "channel": 0,
        "type": "noteOff",
        "noteNumber": 54,
        "velocity": 0,
        "byte9": true
      },
      {
        "deltaTime": 1,
        "channel": 0,
        "type": "noteOff",
        "noteNumber": 75,
        "velocity": 0,
        "byte9": true
      },
      {
        "deltaTime": 15,
        "running": true,
        "channel": 0,
        "type": "noteOn",
        "noteNumber": 75,
        "velocity": 62
      },
      {
        "deltaTime": 10,
        "running": true,
        "channel": 0,
        "type": "noteOff",
        "noteNumber": 75,
        "velocity": 0,
        "byte9": true
      },
      {
        "deltaTime": 6,
        "running": true,
        "channel": 0,
        "type": "noteOn",
        "noteNumber": 75,
        "velocity": 56
      },
      {
        "deltaTime": 2,
        "running": true,
        "channel": 0,
        "type": "noteOn",
        "noteNumber": 75,
        "velocity": 54
      },
      {
        "deltaTime": 12,
        "running": true,
        "channel": 0,
        "type": "noteOff",
        "noteNumber": 75,
        "velocity": 0,
        "byte9": true
      },
      {
        "deltaTime": 9,
        "channel": 0,
        "type": "noteOn",
        "noteNumber": 63,
        "velocity": 40
      },
      {
        "deltaTime": 0,
        "channel": 0,
        "type": "noteOn",
        "noteNumber": 69,
        "velocity": 53
      },
      {
        "deltaTime": 1,
        "running": true,
        "channel": 0,
        "type": "noteOn",
        "noteNumber": 72,
        "velocity": 52
      },
      {
        "deltaTime": 6,
        "channel": 0,
        "type": "noteOn",
        "noteNumber": 66,
        "velocity": 47
      },
      {
        "deltaTime": 11,
        "running": true,
        "channel": 0,
        "type": "noteOff",
        "noteNumber": 75,
        "velocity": 0,
        "byte9": true
      },
      {
        "deltaTime": 11,
        "channel": 0,
        "type": "noteOff",
        "noteNumber": 69,
        "velocity": 0,
        "byte9": true
      },
      {
        "deltaTime": 4,
        "running": true,
        "channel": 0,
        "type": "noteOff",
        "noteNumber": 72,
        "velocity": 0,
        "byte9": true
      },
      {
        "deltaTime": 7,
        "channel": 0,
        "type": "noteOff",
        "noteNumber": 63,
        "velocity": 0,
        "byte9": true
      },
      {
        "deltaTime": 0,
        "channel": 0,
        "type": "noteOff",
        "noteNumber": 66,
        "velocity": 0,
        "byte9": true
      },
      {
        "deltaTime": 52,
        "running": true,
        "channel": 0,
        "type": "noteOn",
        "noteNumber": 78,
        "velocity": 77
      },
      {
        "deltaTime": 1,
        "running": true,
        "channel": 0,
        "type": "noteOn",
        "noteNumber": 75,
        "velocity": 74
      },
      {
        "deltaTime": 0,
        "running": true,
        "channel": 0,
        "type": "noteOn",
        "noteNumber": 69,
        "velocity": 80
      },
      {
        "deltaTime": 0,
        "channel": 0,
        "type": "noteOn",
        "noteNumber": 66,
        "velocity": 71
      },
      {
        "deltaTime": 4,
        "channel": 0,
        "type": "noteOff",
        "noteNumber": 69,
        "velocity": 0,
        "byte9": true
      },
      {
        "deltaTime": 5,
        "running": true,
        "channel": 0,
        "type": "noteOff",
        "noteNumber": 75,
        "velocity": 0,
        "byte9": true
      },
      {
        "deltaTime": 3,
        "running": true,
        "channel": 0,
        "type": "noteOff",
        "noteNumber": 78,
        "velocity": 0,
        "byte9": true
      },
      {
        "deltaTime": 13,
        "channel": 0,
        "type": "noteOn",
        "noteNumber": 78,
        "velocity": 71
      },
      {
        "deltaTime": 1,
        "running": true,
        "channel": 0,
        "type": "noteOn",
        "noteNumber": 75,
        "velocity": 77
      },
      {
        "deltaTime": 0,
        "running": true,
        "channel": 0,
        "type": "noteOn",
        "noteNumber": 81,
        "velocity": 68
      },
      {
        "deltaTime": 1,
        "running": true,
        "channel": 0,
        "type": "noteOn",
        "noteNumber": 84,
        "velocity": 76
      },
      {
        "deltaTime": 1,
        "channel": 0,
        "type": "noteOn",
        "noteNumber": 69,
        "velocity": 74
      },
      {
        "deltaTime": 10,
        "channel": 0,
        "type": "noteOff",
        "noteNumber": 66,
        "velocity": 0,
        "byte9": true
      },
      {
        "deltaTime": 3,
        "channel": 0,
        "type": "noteOff",
        "noteNumber": 81,
        "velocity": 0,
        "byte9": true
      },
      {
        "deltaTime": 2,
        "running": true,
        "channel": 0,
        "type": "noteOff",
        "noteNumber": 78,
        "velocity": 0,
        "byte9": true
      },
      {
        "deltaTime": 2,
        "running": true,
        "channel": 0,
        "type": "noteOff",
        "noteNumber": 84,
        "velocity": 0,
        "byte9": true
      },
      {
        "deltaTime": 1,
        "running": true,
        "channel": 0,
        "type": "noteOff",
        "noteNumber": 75,
        "velocity": 0,
        "byte9": true
      },
      {
        "deltaTime": 17,
        "channel": 0,
        "type": "noteOff",
        "noteNumber": 69,
        "velocity": 0,
        "byte9": true
      },
      {
        "deltaTime": 16,
        "channel": 0,
        "type": "noteOn",
        "noteNumber": 87,
        "velocity": 87
      },
      {
        "deltaTime": 0,
        "running": true,
        "channel": 0,
        "type": "noteOn",
        "noteNumber": 78,
        "velocity": 73
      },
      {
        "deltaTime": 2,
        "channel": 0,
        "type": "noteOn",
        "noteNumber": 72,
        "velocity": 67
      },
      {
        "deltaTime": 0,
        "channel": 0,
        "type": "noteOn",
        "noteNumber": 81,
        "velocity": 70
      },
      {
        "deltaTime": 12,
        "channel": 0,
        "type": "noteOff",
        "noteNumber": 72,
        "velocity": 0,
        "byte9": true
      },
      {
        "deltaTime": 10,
        "channel": 0,
        "type": "noteOn",
        "noteNumber": 85,
        "velocity": 76
      },
      {
        "deltaTime": 8,
        "running": true,
        "channel": 0,
        "type": "noteOff",
        "noteNumber": 87,
        "velocity": 0,
        "byte9": true
      },
      {
        "deltaTime": 3,
        "running": true,
        "channel": 0,
        "type": "noteOff",
        "noteNumber": 81,
        "velocity": 0,
        "byte9": true
      },
      {
        "deltaTime": 3,
        "running": true,
        "channel": 0,
        "type": "noteOff",
        "noteNumber": 78,
        "velocity": 0,
        "byte9": true
      },
      {
        "deltaTime": 2,
        "running": true,
        "channel": 0,
        "type": "noteOff",
        "noteNumber": 85,
        "velocity": 0,
        "byte9": true
      },
      {
        "deltaTime": 2,
        "running": true,
        "channel": 0,
        "type": "noteOn",
        "noteNumber": 84,
        "velocity": 42
      },
      {
        "deltaTime": 18,
        "running": true,
        "channel": 0,
        "type": "noteOn",
        "noteNumber": 85,
        "velocity": 77
      },
      {
        "deltaTime": 7,
        "running": true,
        "channel": 0,
        "type": "noteOff",
        "noteNumber": 84,
        "velocity": 0,
        "byte9": true
      },
      {
        "deltaTime": 71,
        "channel": 0,
        "type": "noteOff",
        "noteNumber": 85,
        "velocity": 0,
        "byte9": true
      },
      {
        "deltaTime": 15,
        "running": true,
        "channel": 0,
        "type": "noteOn",
        "noteNumber": 73,
        "velocity": 44
      },
      {
        "deltaTime": 1,
        "channel": 0,
        "type": "noteOn",
        "noteNumber": 68,
        "velocity": 51
      },
      {
        "deltaTime": 0,
        "running": true,
        "channel": 0,
        "type": "noteOn",
        "noteNumber": 64,
        "velocity": 66
      },
      {
        "deltaTime": 1,
        "running": true,
        "channel": 0,
        "type": "noteOn",
        "noteNumber": 61,
        "velocity": 39
      },
      {
        "deltaTime": 2,
        "running": true,
        "channel": 0,
        "type": "noteOn",
        "noteNumber": 57,
        "velocity": 40
      },
      {
        "deltaTime": 2,
        "running": true,
        "channel": 0,
        "type": "noteOff",
        "noteNumber": 61,
        "velocity": 0,
        "byte9": true
      },
      {
        "deltaTime": 2,
        "running": true,
        "channel": 0,
        "type": "noteOff",
        "noteNumber": 64,
        "velocity": 0,
        "byte9": true
      },
      {
        "deltaTime": 1,
        "running": true,
        "channel": 0,
        "type": "noteOff",
        "noteNumber": 57,
        "velocity": 0,
        "byte9": true
      },
      {
        "deltaTime": 3,
        "channel": 0,
        "type": "noteOff",
        "noteNumber": 73,
        "velocity": 0,
        "byte9": true
      },
      {
        "deltaTime": 0,
        "channel": 0,
        "type": "noteOff",
        "noteNumber": 68,
        "velocity": 0,
        "byte9": true
      },
      {
        "deltaTime": 22,
        "channel": 0,
        "type": "noteOn",
        "noteNumber": 73,
        "velocity": 42
      },
      {
        "deltaTime": 0,
        "channel": 0,
        "type": "noteOn",
        "noteNumber": 61,
        "velocity": 51
      },
      {
        "deltaTime": 1,
        "running": true,
        "channel": 0,
        "type": "noteOn",
        "noteNumber": 68,
        "velocity": 47
      },
      {
        "deltaTime": 0,
        "running": true,
        "channel": 0,
        "type": "noteOn",
        "noteNumber": 64,
        "velocity": 68
      },
      {
        "deltaTime": 1,
        "running": true,
        "channel": 0,
        "type": "noteOn",
        "noteNumber": 57,
        "velocity": 47
      },
      {
        "deltaTime": 39,
        "channel": 0,
        "type": "noteOff",
        "noteNumber": 73,
        "velocity": 0,
        "byte9": true
      },
      {
        "deltaTime": 9,
        "running": true,
        "channel": 0,
        "type": "noteOn",
        "noteNumber": 73,
        "velocity": 47
      },
      {
        "deltaTime": 6,
        "channel": 0,
        "type": "noteOff",
        "noteNumber": 64,
        "velocity": 0,
        "byte9": true
      },
      {
        "deltaTime": 15,
        "running": true,
        "channel": 0,
        "type": "noteOff",
        "noteNumber": 57,
        "velocity": 0,
        "byte9": true
      },
      {
        "deltaTime": 0,
        "channel": 0,
        "type": "noteOff",
        "noteNumber": 73,
        "velocity": 0,
        "byte9": true
      },
      {
        "deltaTime": 2,
        "channel": 0,
        "type": "noteOff",
        "noteNumber": 61,
        "velocity": 0,
        "byte9": true
      },
      {
        "deltaTime": 0,
        "running": true,
        "channel": 0,
        "type": "noteOff",
        "noteNumber": 68,
        "velocity": 0,
        "byte9": true
      },
      {
        "deltaTime": 7,
        "channel": 0,
        "type": "noteOn",
        "noteNumber": 73,
        "velocity": 39
      },
      {
        "deltaTime": 17,
        "running": true,
        "channel": 0,
        "type": "noteOff",
        "noteNumber": 73,
        "velocity": 0,
        "byte9": true
      },
      {
        "deltaTime": 13,
        "running": true,
        "channel": 0,
        "type": "noteOn",
        "noteNumber": 73,
        "velocity": 36
      },
      {
        "deltaTime": 1,
        "channel": 0,
        "type": "noteOn",
        "noteNumber": 61,
        "velocity": 37
      },
      {
        "deltaTime": 1,
        "running": true,
        "channel": 0,
        "type": "noteOn",
        "noteNumber": 51,
        "velocity": 43
      },
      {
        "deltaTime": 0,
        "channel": 0,
        "type": "noteOn",
        "noteNumber": 64,
        "velocity": 58
      },
      {
        "deltaTime": 1,
        "channel": 0,
        "type": "noteOn",
        "noteNumber": 60,
        "velocity": 44
      },
      {
        "deltaTime": 0,
        "channel": 0,
        "type": "noteOn",
        "noteNumber": 67,
        "velocity": 44
      },
      {
        "deltaTime": 87,
        "channel": 0,
        "type": "noteOff",
        "noteNumber": 64,
        "velocity": 0,
        "byte9": true
      },
      {
        "deltaTime": 1,
        "channel": 0,
        "type": "noteOff",
        "noteNumber": 60,
        "velocity": 0,
        "byte9": true
      },
      {
        "deltaTime": 4,
        "running": true,
        "channel": 0,
        "type": "noteOff",
        "noteNumber": 61,
        "velocity": 0,
        "byte9": true
      },
      {
        "deltaTime": 10,
        "channel": 0,
        "type": "noteOff",
        "noteNumber": 73,
        "velocity": 0,
        "byte9": true
      },
      {
        "deltaTime": 9,
        "running": true,
        "channel": 0,
        "type": "noteOff",
        "noteNumber": 67,
        "velocity": 0,
        "byte9": true
      },
      {
        "deltaTime": 7,
        "channel": 0,
        "type": "noteOn",
        "noteNumber": 61,
        "velocity": 36
      },
      {
        "deltaTime": 2,
        "running": true,
        "channel": 0,
        "type": "noteOn",
        "noteNumber": 64,
        "velocity": 40
      },
      {
        "deltaTime": 5,
        "running": true,
        "channel": 0,
        "type": "noteOn",
        "noteNumber": 58,
        "velocity": 20
      },
      {
        "deltaTime": 21,
        "running": true,
        "channel": 0,
        "type": "noteOff",
        "noteNumber": 58,
        "velocity": 0,
        "byte9": true
      },
      {
        "deltaTime": 8,
        "running": true,
        "channel": 0,
        "type": "noteOff",
        "noteNumber": 51,
        "velocity": 0,
        "byte9": true
      },
      {
        "deltaTime": 9,
        "running": true,
        "channel": 0,
        "type": "noteOff",
        "noteNumber": 64,
        "velocity": 0,
        "byte9": true
      },
      {
        "deltaTime": 17,
        "running": true,
        "channel": 0,
        "type": "noteOff",
        "noteNumber": 61,
        "velocity": 0,
        "byte9": true
      },
      {
        "deltaTime": 59,
        "meta": true,
        "type": "text",
        "text": "On this ascending melody line, an internal voice on each chord moves from the 7th to the 6th"
      },
      {
        "deltaTime": 1,
        "meta": true,
        "type": "text",
        "text": "(Maj7)         (6)            (b7)              (6)                 (b7)                     (b6)           (Maj7)  "
      },
      {
        "deltaTime": 14,
        "channel": 0,
        "type": "noteOn",
        "noteNumber": 67,
        "velocity": 85
      },
      {
        "deltaTime": 0,
        "running": true,
        "channel": 0,
        "type": "noteOn",
        "noteNumber": 72,
        "velocity": 84
      },
      {
        "deltaTime": 0,
        "running": true,
        "channel": 0,
        "type": "noteOn",
        "noteNumber": 60,
        "velocity": 90
      },
      {
        "deltaTime": 1,
        "channel": 0,
        "type": "noteOn",
        "noteNumber": 44,
        "velocity": 74
      },
      {
        "deltaTime": 0,
        "running": true,
        "channel": 0,
        "type": "noteOn",
        "noteNumber": 55,
        "velocity": 82
      },
      {
        "deltaTime": 48,
        "channel": 0,
        "type": "noteOff",
        "noteNumber": 55,
        "velocity": 0,
        "byte9": true
      },
      {
        "deltaTime": 15,
        "running": true,
        "channel": 0,
        "type": "noteOn",
        "noteNumber": 53,
        "velocity": 74
      },
      {
        "deltaTime": 25,
        "channel": 0,
        "type": "noteOff",
        "noteNumber": 72,
        "velocity": 0,
        "byte9": true
      },
      {
        "deltaTime": 0,
        "running": true,
        "channel": 0,
        "type": "noteOff",
        "noteNumber": 60,
        "velocity": 0,
        "byte9": true
      },
      {
        "deltaTime": 3,
        "running": true,
        "channel": 0,
        "type": "noteOff",
        "noteNumber": 67,
        "velocity": 0,
        "byte9": true
      },
      {
        "deltaTime": 7,
        "channel": 0,
        "type": "noteOff",
        "noteNumber": 44,
        "velocity": 0,
        "byte9": true
      },
      {
        "deltaTime": 0,
        "running": true,
        "channel": 0,
        "type": "noteOff",
        "noteNumber": 53,
        "velocity": 0,
        "byte9": true
      },
      {
        "deltaTime": 24,
        "channel": 0,
        "type": "noteOn",
        "noteNumber": 73,
        "velocity": 60
      },
      {
        "deltaTime": 0,
        "channel": 0,
        "type": "noteOn",
        "noteNumber": 46,
        "velocity": 69
      },
      {
        "deltaTime": 1,
        "channel": 0,
        "type": "noteOn",
        "noteNumber": 61,
        "velocity": 79
      },
      {
        "deltaTime": 0,
        "running": true,
        "channel": 0,
        "type": "noteOn",
        "noteNumber": 65,
        "velocity": 87
      },
      {
        "deltaTime": 1,
        "channel": 0,
        "type": "noteOn",
        "noteNumber": 56,
        "velocity": 77
      },
      {
        "deltaTime": 46,
        "channel": 0,
        "type": "noteOff",
        "noteNumber": 56,
        "velocity": 0,
        "byte9": true
      },
      {
        "deltaTime": 9,
        "running": true,
        "channel": 0,
        "type": "noteOn",
        "noteNumber": 55,
        "velocity": 74
      },
      {
        "deltaTime": 4,
        "channel": 0,
        "type": "noteOff",
        "noteNumber": 65,
        "velocity": 0,
        "byte9": true
      },
      {
        "deltaTime": 15,
        "running": true,
        "channel": 0,
        "type": "noteOff",
        "noteNumber": 61,
        "velocity": 0,
        "byte9": true
      },
      {
        "deltaTime": 6,
        "channel": 0,
        "type": "noteOff",
        "noteNumber": 46,
        "velocity": 0,
        "byte9": true
      },
      {
        "deltaTime": 1,
        "running": true,
        "channel": 0,
        "type": "noteOff",
        "noteNumber": 55,
        "velocity": 0,
        "byte9": true
      },
      {
        "deltaTime": 1,
        "channel": 0,
        "type": "noteOff",
        "noteNumber": 73,
        "velocity": 0,
        "byte9": true
      },
      {
        "deltaTime": 32,
        "running": true,
        "channel": 0,
        "type": "noteOn",
        "noteNumber": 75,
        "velocity": 76
      },
      {
        "deltaTime": 1,
        "channel": 0,
        "type": "noteOn",
        "noteNumber": 58,
        "velocity": 77
      },
      {
        "deltaTime": 0,
        "channel": 0,
        "type": "noteOn",
        "noteNumber": 67,
        "velocity": 81
      },
      {
        "deltaTime": 0,
        "channel": 0,
        "type": "noteOn",
        "noteNumber": 48,
        "velocity": 71
      },
      {
        "deltaTime": 0,
        "channel": 0,
        "type": "noteOn",
        "noteNumber": 63,
        "velocity": 73
      },
      {
        "deltaTime": 52,
        "channel": 0,
        "type": "noteOff",
        "noteNumber": 75,
        "velocity": 0,
        "byte9": true
      },
      {
        "deltaTime": 0,
        "channel": 0,
        "type": "noteOff",
        "noteNumber": 58,
        "velocity": 0,
        "byte9": true
      },
      {
        "deltaTime": 0,
        "channel": 0,
        "type": "noteOff",
        "noteNumber": 67,
        "velocity": 0,
        "byte9": true
      },
      {
        "deltaTime": 0,
        "channel": 0,
        "type": "noteOff",
        "noteNumber": 48,
        "velocity": 0,
        "byte9": true
      },
      {
        "deltaTime": 0,
        "channel": 0,
        "type": "noteOff",
        "noteNumber": 63,
        "velocity": 0,
        "byte9": true
      },
      {
        "deltaTime": 13,
        "channel": 0,
        "type": "noteOn",
        "noteNumber": 56,
        "velocity": 50
      },
      {
        "deltaTime": 33,
        "running": true,
        "channel": 0,
        "type": "noteOff",
        "noteNumber": 56,
        "velocity": 0,
        "byte9": true
      },
      {
        "deltaTime": 8,
        "running": true,
        "channel": 0,
        "type": "noteOn",
        "noteNumber": 60,
        "velocity": 76
      },
      {
        "deltaTime": 1,
        "running": true,
        "channel": 0,
        "type": "noteOn",
        "noteNumber": 49,
        "velocity": 59
      },
      {
        "deltaTime": 1,
        "channel": 0,
        "type": "noteOn",
        "noteNumber": 77,
        "velocity": 64
      },
      {
        "deltaTime": 0,
        "running": true,
        "channel": 0,
        "type": "noteOn",
        "noteNumber": 72,
        "velocity": 74
      },
      {
        "deltaTime": 1,
        "running": true,
        "channel": 0,
        "type": "noteOn",
        "noteNumber": 65,
        "velocity": 74
      },
      {
        "deltaTime": 38,
        "channel": 0,
        "type": "noteOff",
        "noteNumber": 60,
        "velocity": 0,
        "byte9": true
      },
      {
        "deltaTime": 23,
        "running": true,
        "channel": 0,
        "type": "noteOn",
        "noteNumber": 58,
        "velocity": 64
      },
      {
        "deltaTime": 5,
        "channel": 0,
        "type": "noteOff",
        "noteNumber": 65,
        "velocity": 0,
        "byte9": true
      },
      {
        "deltaTime": 4,
        "running": true,
        "channel": 0,
        "type": "noteOff",
        "noteNumber": 77,
        "velocity": 0,
        "byte9": true
      },
      {
        "deltaTime": 8,
        "running": true,
        "channel": 0,
        "type": "noteOff",
        "noteNumber": 72,
        "velocity": 0,
        "byte9": true
      },
      {
        "deltaTime": 16,
        "channel": 0,
        "type": "noteOff",
        "noteNumber": 49,
        "velocity": 0,
        "byte9": true
      },
      {
        "deltaTime": 6,
        "running": true,
        "channel": 0,
        "type": "noteOff",
        "noteNumber": 58,
        "velocity": 0,
        "byte9": true
      },
      {
        "deltaTime": 14,
        "channel": 0,
        "type": "noteOn",
        "noteNumber": 79,
        "velocity": 71
      },
      {
        "deltaTime": 1,
        "channel": 0,
        "type": "noteOn",
        "noteNumber": 70,
        "velocity": 78
      },
      {
        "deltaTime": 0,
        "channel": 0,
        "type": "noteOn",
        "noteNumber": 58,
        "velocity": 69
      },
      {
        "deltaTime": 1,
        "meta": true,
        "type": "text",
        "text": "(b7)              (6)                  (b7)              (6)             (Maj7)            (6)    "
      },
      {
        "deltaTime": 0,
        "channel": 0,
        "type": "controller",
        "controllerType": 85,
        "value": 2
      },
      {
        "deltaTime": 0,
        "running": true,
        "channel": 0,
        "type": "controller",
        "controllerType": 86,
        "value": 2
      },
      {
        "deltaTime": 0,
        "channel": 0,
        "type": "noteOn",
        "noteNumber": 75,
        "velocity": 68
      },
      {
        "deltaTime": 0,
        "channel": 0,
        "type": "noteOn",
        "noteNumber": 48,
        "velocity": 63
      },
      {
        "deltaTime": 45,
        "channel": 0,
        "type": "noteOff",
        "noteNumber": 58,
        "velocity": 0,
        "byte9": true
      },
      {
        "deltaTime": 10,
        "running": true,
        "channel": 0,
        "type": "noteOn",
        "noteNumber": 57,
        "velocity": 61
      },
      {
        "deltaTime": 13,
        "channel": 0,
        "type": "noteOff",
        "noteNumber": 79,
        "velocity": 0,
        "byte9": true
      },
      {
        "deltaTime": 4,
        "running": true,
        "channel": 0,
        "type": "noteOff",
        "noteNumber": 70,
        "velocity": 0,
        "byte9": true
      },
      {
        "deltaTime": 3,
        "running": true,
        "channel": 0,
        "type": "noteOff",
        "noteNumber": 75,
        "velocity": 0,
        "byte9": true
      },
      {
        "deltaTime": 13,
        "channel": 0,
        "type": "noteOff",
        "noteNumber": 48,
        "velocity": 0,
        "byte9": true
      },
      {
        "deltaTime": 3,
        "running": true,
        "channel": 0,
        "type": "noteOff",
        "noteNumber": 57,
        "velocity": 0,
        "byte9": true
      },
      {
        "deltaTime": 21,
        "channel": 0,
        "type": "noteOn",
        "noteNumber": 80,
        "velocity": 57
      },
      {
        "deltaTime": 1,
        "channel": 0,
        "type": "noteOn",
        "noteNumber": 56,
        "velocity": 64
      },
      {
        "deltaTime": 1,
        "channel": 0,
        "type": "noteOn",
        "noteNumber": 73,
        "velocity": 49
      },
      {
        "deltaTime": 0,
        "running": true,
        "channel": 0,
        "type": "noteOn",
        "noteNumber": 68,
        "velocity": 60
      },
      {
        "deltaTime": 0,
        "channel": 0,
        "type": "noteOn",
        "noteNumber": 46,
        "velocity": 65
      },
      {
        "deltaTime": 1,
        "channel": 0,
        "type": "noteOn",
        "noteNumber": 77,
        "velocity": 50
      },
      {
        "deltaTime": 43,
        "channel": 0,
        "type": "noteOff",
        "noteNumber": 56,
        "velocity": 0,
        "byte9": true
      },
      {
        "deltaTime": 12,
        "running": true,
        "channel": 0,
        "type": "noteOn",
        "noteNumber": 55,
        "velocity": 76
      },
      {
        "deltaTime": 3,
        "channel": 0,
        "type": "noteOff",
        "noteNumber": 68,
        "velocity": 0,
        "byte9": true
      },
      {
        "deltaTime": 5,
        "running": true,
        "channel": 0,
        "type": "noteOff",
        "noteNumber": 77,
        "velocity": 0,
        "byte9": true
      },
      {
        "deltaTime": 1,
        "running": true,
        "channel": 0,
        "type": "noteOff",
        "noteNumber": 73,
        "velocity": 0,
        "byte9": true
      },
      {
        "deltaTime": 8,
        "running": true,
        "channel": 0,
        "type": "noteOff",
        "noteNumber": 80,
        "velocity": 0,
        "byte9": true
      },
      {
        "deltaTime": 13,
        "channel": 0,
        "type": "noteOff",
        "noteNumber": 46,
        "velocity": 0,
        "byte9": true
      },
      {
        "deltaTime": 9,
        "running": true,
        "channel": 0,
        "type": "noteOff",
        "noteNumber": 55,
        "velocity": 0,
        "byte9": true
      },
      {
        "deltaTime": 20,
        "channel": 0,
        "type": "noteOn",
        "noteNumber": 82,
        "velocity": 85
      },
      {
        "deltaTime": 1,
        "channel": 0,
        "type": "noteOn",
        "noteNumber": 44,
        "velocity": 78
      },
      {
        "deltaTime": 0,
        "channel": 0,
        "type": "noteOn",
        "noteNumber": 75,
        "velocity": 87
      },
      {
        "deltaTime": 1,
        "running": true,
        "channel": 0,
        "type": "noteOn",
        "noteNumber": 70,
        "velocity": 90
      },
      {
        "deltaTime": 0,
        "channel": 0,
        "type": "noteOn",
        "noteNumber": 55,
        "velocity": 82
      },
      {
        "deltaTime": 34,
        "channel": 0,
        "type": "noteOff",
        "noteNumber": 55,
        "velocity": 0,
        "byte9": true
      },
      {
        "deltaTime": 23,
        "running": true,
        "channel": 0,
        "type": "noteOn",
        "noteNumber": 53,
        "velocity": 68
      },
      {
        "deltaTime": 26,
        "running": true,
        "channel": 0,
        "type": "noteOff",
        "noteNumber": 44,
        "velocity": 0,
        "byte9": true
      },
      {
        "deltaTime": 2,
        "channel": 0,
        "type": "noteOff",
        "noteNumber": 75,
        "velocity": 0,
        "byte9": true
      },
      {
        "deltaTime": 0,
        "running": true,
        "channel": 0,
        "type": "noteOff",
        "noteNumber": 70,
        "velocity": 0,
        "byte9": true
      },
      {
        "deltaTime": 14,
        "running": true,
        "channel": 0,
        "type": "noteOff",
        "noteNumber": 82,
        "velocity": 0,
        "byte9": true
      },
      {
        "deltaTime": 11,
        "channel": 0,
        "type": "noteOff",
        "noteNumber": 53,
        "velocity": 0,
        "byte9": true
      },
      {
        "deltaTime": 9,
        "running": true,
        "channel": 0,
        "type": "noteOn",
        "noteNumber": 42,
        "velocity": 88
      },
      {
        "deltaTime": 3,
        "channel": 0,
        "type": "noteOn",
        "noteNumber": 84,
        "velocity": 74
      },
      {
        "deltaTime": 56,
        "channel": 0,
        "type": "noteOn",
        "noteNumber": 53,
        "velocity": 45
      },
      {
        "deltaTime": 1,
        "channel": 0,
        "type": "noteOn",
        "noteNumber": 75,
        "velocity": 51
      },
      {
        "deltaTime": 1,
        "running": true,
        "channel": 0,
        "type": "noteOn",
        "noteNumber": 80,
        "velocity": 44
      },
      {
        "deltaTime": 3,
        "channel": 0,
        "type": "noteOff",
        "noteNumber": 53,
        "velocity": 0,
        "byte9": true
      },
      {
        "deltaTime": 13,
        "running": true,
        "channel": 0,
        "type": "noteOff",
        "noteNumber": 42,
        "velocity": 0,
        "byte9": true
      },
      {
        "deltaTime": 5,
        "channel": 0,
        "type": "noteOff",
        "noteNumber": 84,
        "velocity": 0,
        "byte9": true
      },
      {
        "deltaTime": 10,
        "running": true,
        "channel": 0,
        "type": "noteOff",
        "noteNumber": 80,
        "velocity": 0,
        "byte9": true
      },
      {
        "deltaTime": 3,
        "running": true,
        "channel": 0,
        "type": "noteOff",
        "noteNumber": 75,
        "velocity": 0,
        "byte9": true
      },
      {
        "deltaTime": 29,
        "channel": 0,
        "type": "noteOn",
        "noteNumber": 40,
        "velocity": 74
      },
      {
        "deltaTime": 1,
        "running": true,
        "channel": 0,
        "type": "noteOn",
        "noteNumber": 28,
        "velocity": 71
      },
      {
        "deltaTime": 0,
        "channel": 0,
        "type": "noteOn",
        "noteNumber": 85,
        "velocity": 83
      },
      {
        "deltaTime": 0,
        "running": true,
        "channel": 0,
        "type": "noteOn",
        "noteNumber": 78,
        "velocity": 74
      },
      {
        "deltaTime": 1,
        "channel": 0,
        "type": "noteOn",
        "noteNumber": 74,
        "velocity": 75
      },
      {
        "deltaTime": 0,
        "running": true,
        "channel": 0,
        "type": "noteOn",
        "noteNumber": 81,
        "velocity": 74
      },
      {
        "deltaTime": 18,
        "channel": 0,
        "type": "noteOff",
        "noteNumber": 28,
        "velocity": 0,
        "byte9": true
      },
      {
        "deltaTime": 6,
        "channel": 0,
        "type": "noteOff",
        "noteNumber": 40,
        "velocity": 0,
        "byte9": true
      },
      {
        "deltaTime": 2,
        "channel": 0,
        "type": "noteOff",
        "noteNumber": 85,
        "velocity": 0,
        "byte9": true
      },
      {
        "deltaTime": 0,
        "running": true,
        "channel": 0,
        "type": "noteOff",
        "noteNumber": 81,
        "velocity": 0,
        "byte9": true
      },
      {
        "deltaTime": 4,
        "running": true,
        "channel": 0,
        "type": "noteOff",
        "noteNumber": 78,
        "velocity": 0,
        "byte9": true
      },
      {
        "deltaTime": 3,
        "running": true,
        "channel": 0,
        "type": "noteOff",
        "noteNumber": 74,
        "velocity": 0,
        "byte9": true
      },
      {
        "deltaTime": 33,
        "running": true,
        "channel": 0,
        "type": "noteOn",
        "noteNumber": 73,
        "velocity": 47
      },
      {
        "deltaTime": 1,
        "running": true,
        "channel": 0,
        "type": "noteOn",
        "noteNumber": 66,
        "velocity": 56
      },
      {
        "deltaTime": 1,
        "channel": 0,
        "type": "noteOn",
        "noteNumber": 62,
        "velocity": 54
      },
      {
        "deltaTime": 0,
        "channel": 0,
        "type": "noteOn",
        "noteNumber": 69,
        "velocity": 60
      },
      {
        "deltaTime": 0,
        "channel": 0,
        "type": "noteOn",
        "noteNumber": 56,
        "velocity": 39
      },
      {
        "deltaTime": 13,
        "running": true,
        "channel": 0,
        "type": "noteOff",
        "noteNumber": 62,
        "velocity": 0,
        "byte9": true
      },
      {
        "deltaTime": 10,
        "channel": 0,
        "type": "noteOff",
        "noteNumber": 73,
        "velocity": 0,
        "byte9": true
      },
      {
        "deltaTime": 1,
        "running": true,
        "channel": 0,
        "type": "noteOff",
        "noteNumber": 69,
        "velocity": 0,
        "byte9": true
      },
      {
        "deltaTime": 8,
        "running": true,
        "channel": 0,
        "type": "noteOff",
        "noteNumber": 66,
        "velocity": 0,
        "byte9": true
      },
      {
        "deltaTime": 25,
        "running": true,
        "channel": 0,
        "type": "noteOn",
        "noteNumber": 74,
        "velocity": 70
      },
      {
        "deltaTime": 0,
        "channel": 0,
        "type": "noteOn",
        "noteNumber": 64,
        "velocity": 54
      },
      {
        "deltaTime": 1,
        "channel": 0,
        "type": "noteOn",
        "noteNumber": 66,
        "velocity": 62
      },
      {
        "deltaTime": 0,
        "running": true,
        "channel": 0,
        "type": "noteOn",
        "noteNumber": 69,
        "velocity": 58
      },
      {
        "deltaTime": 29,
        "channel": 0,
        "type": "noteOff",
        "noteNumber": 64,
        "velocity": 0,
        "byte9": true
      },
      {
        "deltaTime": 11,
        "channel": 0,
        "type": "noteOff",
        "noteNumber": 66,
        "velocity": 0,
        "byte9": true
      },
      {
        "deltaTime": 0,
        "running": true,
        "channel": 0,
        "type": "noteOff",
        "noteNumber": 69,
        "velocity": 0,
        "byte9": true
      },
      {
        "deltaTime": 3,
        "running": true,
        "channel": 0,
        "type": "noteOff",
        "noteNumber": 74,
        "velocity": 0,
        "byte9": true
      },
      {
        "deltaTime": 16,
        "channel": 0,
        "type": "noteOn",
        "noteNumber": 64,
        "velocity": 36
      },
      {
        "deltaTime": 0,
        "channel": 0,
        "type": "noteOn",
        "noteNumber": 74,
        "velocity": 62
      },
      {
        "deltaTime": 1,
        "running": true,
        "channel": 0,
        "type": "noteOn",
        "noteNumber": 66,
        "velocity": 44
      },
      {
        "deltaTime": 3,
        "running": true,
        "channel": 0,
        "type": "noteOn",
        "noteNumber": 69,
        "velocity": 27
      },
      {
        "deltaTime": 1,
        "channel": 0,
        "type": "noteOff",
        "noteNumber": 64,
        "velocity": 0,
        "byte9": true
      },
      {
        "deltaTime": 8,
        "channel": 0,
        "type": "noteOff",
        "noteNumber": 69,
        "velocity": 0,
        "byte9": true
      },
      {
        "deltaTime": 7,
        "channel": 0,
        "type": "noteOff",
        "noteNumber": 56,
        "velocity": 0,
        "byte9": true
      },
      {
        "deltaTime": 2,
        "channel": 0,
        "type": "noteOff",
        "noteNumber": 66,
        "velocity": 0,
        "byte9": true
      },
      {
        "deltaTime": 12,
        "running": true,
        "channel": 0,
        "type": "noteOff",
        "noteNumber": 74,
        "velocity": 0,
        "byte9": true
      },
      {
        "deltaTime": 26,
        "running": true,
        "channel": 0,
        "type": "noteOn",
        "noteNumber": 74,
        "velocity": 62
      },
      {
        "deltaTime": 0,
        "running": true,
        "channel": 0,
        "type": "noteOn",
        "noteNumber": 66,
        "velocity": 53
      },
      {
        "deltaTime": 1,
        "channel": 0,
        "type": "noteOn",
        "noteNumber": 62,
        "velocity": 47
      },
      {
        "deltaTime": 2,
        "running": true,
        "channel": 0,
        "type": "noteOn",
        "noteNumber": 56,
        "velocity": 30
      },
      {
        "deltaTime": 0,
        "running": true,
        "channel": 0,
        "type": "noteOn",
        "noteNumber": 52,
        "velocity": 43
      },
      {
        "deltaTime": 1,
        "channel": 0,
        "type": "noteOn",
        "noteNumber": 69,
        "velocity": 36
      },
      {
        "deltaTime": 29,
        "channel": 0,
        "type": "noteOff",
        "noteNumber": 62,
        "velocity": 0,
        "byte9": true
      },
      {
        "deltaTime": 19,
        "channel": 0,
        "type": "noteOff",
        "noteNumber": 66,
        "velocity": 0,
        "byte9": true
      },
      {
        "deltaTime": 5,
        "running": true,
        "channel": 0,
        "type": "noteOff",
        "noteNumber": 69,
        "velocity": 0,
        "byte9": true
      },
      {
        "deltaTime": 45,
        "channel": 0,
        "type": "noteOff",
        "noteNumber": 56,
        "velocity": 0,
        "byte9": true
      },
      {
        "deltaTime": 15,
        "running": true,
        "channel": 0,
        "type": "noteOn",
        "noteNumber": 62,
        "velocity": 34
      },
      {
        "deltaTime": 1,
        "channel": 0,
        "type": "noteOn",
        "noteNumber": 68,
        "velocity": 36
      },
      {
        "deltaTime": 1,
        "channel": 0,
        "type": "controller",
        "controllerType": 85,
        "value": 2
      },
      {
        "deltaTime": 0,
        "running": true,
        "channel": 0,
        "type": "controller",
        "controllerType": 86,
        "value": 2
      },
      {
        "deltaTime": 2,
        "channel": 0,
        "type": "noteOn",
        "noteNumber": 56,
        "velocity": 18
      },
      {
        "deltaTime": 18,
        "running": true,
        "channel": 0,
        "type": "noteOff",
        "noteNumber": 52,
        "velocity": 0,
        "byte9": true
      },
      {
        "deltaTime": 25,
        "running": true,
        "channel": 0,
        "type": "noteOff",
        "noteNumber": 62,
        "velocity": 0,
        "byte9": true
      },
      {
        "deltaTime": 12,
        "running": true,
        "channel": 0,
        "type": "noteOn",
        "noteNumber": 52,
        "velocity": 37
      },
      {
        "deltaTime": 7,
        "channel": 0,
        "type": "noteOff",
        "noteNumber": 74,
        "velocity": 0,
        "byte9": true
      },
      {
        "deltaTime": 0,
        "channel": 0,
        "type": "noteOff",
        "noteNumber": 52,
        "velocity": 0,
        "byte9": true
      },
      {
        "deltaTime": 5,
        "channel": 0,
        "type": "noteOff",
        "noteNumber": 68,
        "velocity": 0,
        "byte9": true
      },
      {
        "deltaTime": 36,
        "channel": 0,
        "type": "noteOff",
        "noteNumber": 56,
        "velocity": 0,
        "byte9": true
      },
      {
        "deltaTime": 8,
        "channel": 0,
        "type": "noteOn",
        "noteNumber": 75,
        "velocity": 87
      },
      {
        "deltaTime": 1,
        "running": true,
        "channel": 0,
        "type": "noteOn",
        "noteNumber": 68,
        "velocity": 95
      },
      {
        "deltaTime": 0,
        "running": true,
        "channel": 0,
        "type": "noteOn",
        "noteNumber": 70,
        "velocity": 83
      },
      {
        "deltaTime": 3,
        "channel": 0,
        "type": "noteOn",
        "noteNumber": 51,
        "velocity": 58
      },
      {
        "deltaTime": 45,
        "channel": 0,
        "type": "noteOff",
        "noteNumber": 75,
        "velocity": 0,
        "byte9": true
      },
      {
        "deltaTime": 16,
        "running": true,
        "channel": 0,
        "type": "noteOn",
        "noteNumber": 75,
        "velocity": 67
      },
      {
        "deltaTime": 40,
        "running": true,
        "channel": 0,
        "type": "noteOff",
        "noteNumber": 70,
        "velocity": 0,
        "byte9": true
      },
      {
        "deltaTime": 2,
        "running": true,
        "channel": 0,
        "type": "noteOff",
        "noteNumber": 68,
        "velocity": 0,
        "byte9": true
      },
      {
        "deltaTime": 7,
        "running": true,
        "channel": 0,
        "type": "noteOff",
        "noteNumber": 75,
        "velocity": 0,
        "byte9": true
      },
      {
        "deltaTime": 10,
        "running": true,
        "channel": 0,
        "type": "noteOn",
        "noteNumber": 75,
        "velocity": 45
      },
      {
        "deltaTime": 4,
        "running": true,
        "channel": 0,
        "type": "noteOn",
        "noteNumber": 67,
        "velocity": 28
      },
      {
        "deltaTime": 1,
        "channel": 0,
        "type": "noteOn",
        "noteNumber": 63,
        "velocity": 25
      },
      {
        "deltaTime": 32,
        "running": true,
        "channel": 0,
        "type": "noteOff",
        "noteNumber": 51,
        "velocity": 0,
        "byte9": true
      },
      {
        "deltaTime": 7,
        "channel": 0,
        "type": "noteOff",
        "noteNumber": 75,
        "velocity": 0,
        "byte9": true
      },
      {
        "deltaTime": 0,
        "running": true,
        "channel": 0,
        "type": "noteOff",
        "noteNumber": 67,
        "velocity": 0,
        "byte9": true
      },
      {
        "deltaTime": 12,
        "channel": 0,
        "type": "noteOff",
        "noteNumber": 63,
        "velocity": 0,
        "byte9": true
      },
      {
        "deltaTime": 7,
        "running": true,
        "channel": 0,
        "type": "noteOn",
        "noteNumber": 51,
        "velocity": 27
      },
      {
        "deltaTime": 1,
        "channel": 0,
        "type": "noteOn",
        "noteNumber": 75,
        "velocity": 42
      },
      {
        "deltaTime": 0,
        "running": true,
        "channel": 0,
        "type": "noteOn",
        "noteNumber": 67,
        "velocity": 42
      },
      {
        "deltaTime": 9,
        "channel": 0,
        "type": "noteOff",
        "noteNumber": 51,
        "velocity": 0,
        "byte9": true
      },
      {
        "deltaTime": 2,
        "channel": 0,
        "type": "noteOff",
        "noteNumber": 67,
        "velocity": 0,
        "byte9": true
      },
      {
        "deltaTime": 10,
        "running": true,
        "channel": 0,
        "type": "noteOff",
        "noteNumber": 75,
        "velocity": 0,
        "byte9": true
      },
      {
        "deltaTime": 35,
        "running": true,
        "channel": 0,
        "type": "noteOn",
        "noteNumber": 75,
        "velocity": 55
      },
      {
        "deltaTime": 2,
        "channel": 0,
        "type": "noteOn",
        "noteNumber": 49,
        "velocity": 32
      },
      {
        "deltaTime": 1,
        "channel": 0,
        "type": "controller",
        "controllerType": 85,
        "value": 4
      },
      {
        "deltaTime": 0,
        "running": true,
        "channel": 0,
        "type": "controller",
        "controllerType": 86,
        "value": 4
      },
      {
        "deltaTime": 0,
        "channel": 0,
        "type": "noteOn",
        "noteNumber": 71,
        "velocity": 44
      },
      {
        "deltaTime": 0,
        "running": true,
        "channel": 0,
        "type": "noteOn",
        "noteNumber": 64,
        "velocity": 45
      },
      {
        "deltaTime": 0,
        "channel": 0,
        "type": "noteOn",
        "noteNumber": 59,
        "velocity": 33
      },
      {
        "deltaTime": 1,
        "channel": 0,
        "type": "noteOn",
        "noteNumber": 68,
        "velocity": 37
      },
      {
        "deltaTime": 45,
        "channel": 0,
        "type": "noteOff",
        "noteNumber": 75,
        "velocity": 0,
        "byte9": true
      },
      {
        "deltaTime": 11,
        "channel": 0,
        "type": "noteOff",
        "noteNumber": 49,
        "velocity": 0,
        "byte9": true
      },
      {
        "deltaTime": 0,
        "channel": 0,
        "type": "noteOn",
        "noteNumber": 75,
        "velocity": 71
      },
      {
        "deltaTime": 9,
        "channel": 0,
        "type": "noteOff",
        "noteNumber": 59,
        "velocity": 0,
        "byte9": true
      },
      {
        "deltaTime": 10,
        "channel": 0,
        "type": "noteOff",
        "noteNumber": 71,
        "velocity": 0,
        "byte9": true
      },
      {
        "deltaTime": 2,
        "running": true,
        "channel": 0,
        "type": "noteOff",
        "noteNumber": 75,
        "velocity": 0,
        "byte9": true
      },
      {
        "deltaTime": 2,
        "running": true,
        "channel": 0,
        "type": "noteOff",
        "noteNumber": 64,
        "velocity": 0,
        "byte9": true
      },
      {
        "deltaTime": 7,
        "running": true,
        "channel": 0,
        "type": "noteOn",
        "noteNumber": 73,
        "velocity": 37
      },
      {
        "deltaTime": 9,
        "running": true,
        "channel": 0,
        "type": "noteOff",
        "noteNumber": 68,
        "velocity": 0,
        "byte9": true
      },
      {
        "deltaTime": 6,
        "running": true,
        "channel": 0,
        "type": "noteOff",
        "noteNumber": 73,
        "velocity": 0,
        "byte9": true
      },
      {
        "deltaTime": 17,
        "running": true,
        "channel": 0,
        "type": "noteOn",
        "noteNumber": 75,
        "velocity": 57
      },
      {
        "deltaTime": 1,
        "channel": 0,
        "type": "controller",
        "controllerType": 85,
        "value": 4
      },
      {
        "deltaTime": 0,
        "running": true,
        "channel": 0,
        "type": "controller",
        "controllerType": 86,
        "value": 4
      },
      {
        "deltaTime": 0,
        "channel": 0,
        "type": "noteOn",
        "noteNumber": 64,
        "velocity": 50
      },
      {
        "deltaTime": 1,
        "running": true,
        "channel": 0,
        "type": "noteOn",
        "noteNumber": 70,
        "velocity": 38
      },
      {
        "deltaTime": 0,
        "running": true,
        "channel": 0,
        "type": "noteOn",
        "noteNumber": 68,
        "velocity": 45
      },
      {
        "deltaTime": 2,
        "channel": 0,
        "type": "noteOn",
        "noteNumber": 63,
        "velocity": 33
      },
      {
        "deltaTime": 50,
        "channel": 0,
        "type": "noteOff",
        "noteNumber": 63,
        "velocity": 0,
        "byte9": true
      },
      {
        "deltaTime": 27,
        "channel": 0,
        "type": "noteOff",
        "noteNumber": 75,
        "velocity": 0,
        "byte9": true
      },
      {
        "deltaTime": 4,
        "running": true,
        "channel": 0,
        "type": "noteOff",
        "noteNumber": 70,
        "velocity": 0,
        "byte9": true
      },
      {
        "deltaTime": 4,
        "running": true,
        "channel": 0,
        "type": "noteOff",
        "noteNumber": 64,
        "velocity": 0,
        "byte9": true
      },
      {
        "deltaTime": 2,
        "running": true,
        "channel": 0,
        "type": "noteOn",
        "noteNumber": 73,
        "velocity": 34
      },
      {
        "deltaTime": 3,
        "running": true,
        "channel": 0,
        "type": "noteOff",
        "noteNumber": 68,
        "velocity": 0,
        "byte9": true
      },
      {
        "deltaTime": 16,
        "running": true,
        "channel": 0,
        "type": "noteOff",
        "noteNumber": 73,
        "velocity": 0,
        "byte9": true
      },
      {
        "deltaTime": 12,
        "running": true,
        "channel": 0,
        "type": "noteOn",
        "noteNumber": 75,
        "velocity": 45
      },
      {
        "deltaTime": 2,
        "running": true,
        "channel": 0,
        "type": "noteOn",
        "noteNumber": 63,
        "velocity": 31
      },
      {
        "deltaTime": 1,
        "running": true,
        "channel": 0,
        "type": "noteOn",
        "noteNumber": 72,
        "velocity": 48
      },
      {
        "deltaTime": 2,
        "running": true,
        "channel": 0,
        "type": "noteOn",
        "noteNumber": 70,
        "velocity": 33
      },
      {
        "deltaTime": 1,
        "channel": 0,
        "type": "noteOn",
        "noteNumber": 48,
        "velocity": 37
      },
      {
        "deltaTime": 1,
        "running": true,
        "channel": 0,
        "type": "noteOn",
        "noteNumber": 58,
        "velocity": 14
      },
      {
        "deltaTime": 82,
        "channel": 0,
        "type": "noteOff",
        "noteNumber": 63,
        "velocity": 0,
        "byte9": true
      },
      {
        "deltaTime": 33,
        "running": true,
        "channel": 0,
        "type": "noteOff",
        "noteNumber": 72,
        "velocity": 0,
        "byte9": true
      },
      {
        "deltaTime": 0,
        "running": true,
        "channel": 0,
        "type": "noteOff",
        "noteNumber": 70,
        "velocity": 0,
        "byte9": true
      },
      {
        "deltaTime": 4,
        "running": true,
        "channel": 0,
        "type": "noteOn",
        "noteNumber": 63,
        "velocity": 38
      },
      {
        "deltaTime": 5,
        "channel": 0,
        "type": "noteOff",
        "noteNumber": 48,
        "velocity": 0,
        "byte9": true
      },
      {
        "deltaTime": 10,
        "channel": 0,
        "type": "noteOff",
        "noteNumber": 75,
        "velocity": 0,
        "byte9": true
      },
      {
        "deltaTime": 0,
        "running": true,
        "channel": 0,
        "type": "noteOff",
        "noteNumber": 63,
        "velocity": 0,
        "byte9": true
      },
      {
        "deltaTime": 2,
        "channel": 0,
        "type": "noteOff",
        "noteNumber": 58,
        "velocity": 0,
        "byte9": true
      },
      {
        "deltaTime": 10,
        "channel": 0,
        "type": "noteOn",
        "noteNumber": 70,
        "velocity": 75
      },
      {
        "deltaTime": 15,
        "running": true,
        "channel": 0,
        "type": "noteOff",
        "noteNumber": 70,
        "velocity": 0,
        "byte9": true
      },
      {
        "deltaTime": 9,
        "running": true,
        "channel": 0,
        "type": "noteOn",
        "noteNumber": 72,
        "velocity": 81
      },
      {
        "deltaTime": 18,
        "running": true,
        "channel": 0,
        "type": "noteOff",
        "noteNumber": 72,
        "velocity": 0,
        "byte9": true
      },
      {
        "deltaTime": 12,
        "running": true,
        "channel": 0,
        "type": "noteOn",
        "noteNumber": 74,
        "velocity": 80
      },
      {
        "deltaTime": 11,
        "running": true,
        "channel": 0,
        "type": "noteOff",
        "noteNumber": 74,
        "velocity": 0,
        "byte9": true
      },
      {
        "deltaTime": 19,
        "running": true,
        "channel": 0,
        "type": "noteOn",
        "noteNumber": 75,
        "velocity": 59
      },
      {
        "deltaTime": 1,
        "running": true,
        "channel": 0,
        "type": "noteOn",
        "noteNumber": 68,
        "velocity": 45
      },
      {
        "deltaTime": 1,
        "channel": 0,
        "type": "controller",
        "controllerType": 85,
        "value": 4
      },
      {
        "deltaTime": 0,
        "running": true,
        "channel": 0,
        "type": "controller",
        "controllerType": 86,
        "value": 4
      },
      {
        "deltaTime": 0,
        "channel": 0,
        "type": "noteOn",
        "noteNumber": 63,
        "velocity": 31
      },
      {
        "deltaTime": 1,
        "running": true,
        "channel": 0,
        "type": "noteOn",
        "noteNumber": 56,
        "velocity": 36
      },
      {
        "deltaTime": 1,
        "running": true,
        "channel": 0,
        "type": "noteOn",
        "noteNumber": 53,
        "velocity": 22
      },
      {
        "deltaTime": 24,
        "channel": 0,
        "type": "noteOff",
        "noteNumber": 68,
        "velocity": 0,
        "byte9": true
      },
      {
        "deltaTime": 6,
        "running": true,
        "channel": 0,
        "type": "noteOff",
        "noteNumber": 75,
        "velocity": 0,
        "byte9": true
      },
      {
        "deltaTime": 3,
        "running": true,
        "channel": 0,
        "type": "noteOn",
        "noteNumber": 65,
        "velocity": 52
      },
      {
        "deltaTime": 0,
        "running": true,
        "channel": 0,
        "type": "noteOn",
        "noteNumber": 72,
        "velocity": 57
      },
      {
        "deltaTime": 1,
        "running": true,
        "channel": 0,
        "type": "noteOn",
        "noteNumber": 68,
        "velocity": 36
      },
      {
        "deltaTime": 1,
        "channel": 0,
        "type": "noteOff",
        "noteNumber": 63,
        "velocity": 0,
        "byte9": true
      },
      {
        "deltaTime": 3,
        "channel": 0,
        "type": "noteOff",
        "noteNumber": 65,
        "velocity": 0,
        "byte9": true
      },
      {
        "deltaTime": 0,
        "channel": 0,
        "type": "noteOn",
        "noteNumber": 60,
        "velocity": 35
      },
      {
        "deltaTime": 3,
        "channel": 0,
        "type": "noteOff",
        "noteNumber": 68,
        "velocity": 0,
        "byte9": true
      },
      {
        "deltaTime": 3,
        "running": true,
        "channel": 0,
        "type": "noteOff",
        "noteNumber": 72,
        "velocity": 0,
        "byte9": true
      },
      {
        "deltaTime": 23,
        "running": true,
        "channel": 0,
        "type": "noteOn",
        "noteNumber": 80,
        "velocity": 64
      },
      {
        "deltaTime": 4,
        "channel": 0,
        "type": "noteOn",
        "noteNumber": 63,
        "velocity": 31
      },
      {
        "deltaTime": 10,
        "running": true,
        "channel": 0,
        "type": "noteOff",
        "noteNumber": 60,
        "velocity": 0,
        "byte9": true
      },
      {
        "deltaTime": 7,
        "channel": 0,
        "type": "noteOff",
        "noteNumber": 80,
        "velocity": 0,
        "byte9": true
      },
      {
        "deltaTime": 19,
        "channel": 0,
        "type": "noteOff",
        "noteNumber": 63,
        "velocity": 0,
        "byte9": true
      },
      {
        "deltaTime": 3,
        "channel": 0,
        "type": "noteOn",
        "noteNumber": 80,
        "velocity": 50
      },
      {
        "deltaTime": 3,
        "running": true,
        "channel": 0,
        "type": "noteOn",
        "noteNumber": 68,
        "velocity": 36
      },
      {
        "deltaTime": 1,
        "channel": 0,
        "type": "noteOn",
        "noteNumber": 60,
        "velocity": 20
      },
      {
        "deltaTime": 30,
        "channel": 0,
        "type": "noteOff",
        "noteNumber": 68,
        "velocity": 0,
        "byte9": true
      },
      {
        "deltaTime": 30,
        "channel": 0,
        "type": "noteOff",
        "noteNumber": 53,
        "velocity": 0,
        "byte9": true
      },
      {
        "deltaTime": 2,
        "running": true,
        "channel": 0,
        "type": "noteOff",
        "noteNumber": 60,
        "velocity": 0,
        "byte9": true
      },
      {
        "deltaTime": 4,
        "channel": 0,
        "type": "noteOff",
        "noteNumber": 80,
        "velocity": 0,
        "byte9": true
      },
      {
        "deltaTime": 6,
        "channel": 0,
        "type": "noteOff",
        "noteNumber": 56,
        "velocity": 0,
        "byte9": true
      },
      {
        "deltaTime": 52,
        "channel": 0,
        "type": "controller",
        "controllerType": 85,
        "value": 6
      },
      {
        "deltaTime": 0,
        "running": true,
        "channel": 0,
        "type": "controller",
        "controllerType": 86,
        "value": 6
      },
      {
        "deltaTime": 37,
        "channel": 0,
        "type": "noteOn",
        "noteNumber": 76,
        "velocity": 72
      },
      {
        "deltaTime": 0,
        "channel": 0,
        "type": "noteOn",
        "noteNumber": 67,
        "velocity": 81
      },
      {
        "deltaTime": 1,
        "channel": 0,
        "type": "noteOn",
        "noteNumber": 84,
        "velocity": 74
      },
      {
        "deltaTime": 0,
        "channel": 0,
        "type": "noteOn",
        "noteNumber": 62,
        "velocity": 63
      },
      {
        "deltaTime": 0,
        "channel": 0,
        "type": "noteOn",
        "noteNumber": 72,
        "velocity": 74
      },
      {
        "deltaTime": 0,
        "running": true,
        "channel": 0,
        "type": "noteOn",
        "noteNumber": 79,
        "velocity": 53
      },
      {
        "deltaTime": 1,
        "channel": 0,
        "type": "noteOn",
        "noteNumber": 56,
        "velocity": 39
      },
      {
        "deltaTime": 7,
        "running": true,
        "channel": 0,
        "type": "noteOff",
        "noteNumber": 56,
        "velocity": 0,
        "byte9": true
      },
      {
        "deltaTime": 9,
        "channel": 0,
        "type": "noteOff",
        "noteNumber": 76,
        "velocity": 0,
        "byte9": true
      },
      {
        "deltaTime": 0,
        "channel": 0,
        "type": "noteOff",
        "noteNumber": 67,
        "velocity": 0,
        "byte9": true
      },
      {
        "deltaTime": 1,
        "channel": 0,
        "type": "noteOff",
        "noteNumber": 84,
        "velocity": 0,
        "byte9": true
      },
      {
        "deltaTime": 0,
        "channel": 0,
        "type": "noteOff",
        "noteNumber": 62,
        "velocity": 0,
        "byte9": true
      },
      {
        "deltaTime": 0,
        "channel": 0,
        "type": "noteOff",
        "noteNumber": 72,
        "velocity": 0,
        "byte9": true
      },
      {
        "deltaTime": 0,
        "running": true,
        "channel": 0,
        "type": "noteOff",
        "noteNumber": 79,
        "velocity": 0,
        "byte9": true
      },
      {
        "deltaTime": 4,
        "channel": 0,
        "type": "controller",
        "controllerType": 85,
        "value": 37
      },
      {
        "deltaTime": 0,
        "running": true,
        "channel": 0,
        "type": "controller",
        "controllerType": 86,
        "value": 37
      },
      {
        "deltaTime": 27,
        "channel": 0,
        "type": "noteOn",
        "noteNumber": 67,
        "velocity": 79
      },
      {
        "deltaTime": 0,
        "channel": 0,
        "type": "noteOn",
        "noteNumber": 76,
        "velocity": 78
      },
      {
        "deltaTime": 0,
        "running": true,
        "channel": 0,
        "type": "noteOn",
        "noteNumber": 84,
        "velocity": 73
      },
      {
        "deltaTime": 1,
        "channel": 0,
        "type": "noteOn",
        "noteNumber": 62,
        "velocity": 60
      },
      {
        "deltaTime": 0,
        "channel": 0,
        "type": "noteOn",
        "noteNumber": 79,
        "velocity": 64
      },
      {
        "deltaTime": 0,
        "channel": 0,
        "type": "noteOn",
        "noteNumber": 56,
        "velocity": 62
      },
      {
        "deltaTime": 0,
        "channel": 0,
        "type": "noteOn",
        "noteNumber": 72,
        "velocity": 78
      },
      {
        "deltaTime": 0,
        "channel": 0,
        "type": "noteOn",
        "noteNumber": 60,
        "velocity": 62
      },
      {
        "deltaTime": 3,
        "channel": 0,
        "type": "noteOff",
        "noteNumber": 72,
        "velocity": 0,
        "byte9": true
      },
      {
        "deltaTime": 1,
        "channel": 0,
        "type": "noteOff",
        "noteNumber": 60,
        "velocity": 0,
        "byte9": true
      },
      {
        "deltaTime": 1,
        "running": true,
        "channel": 0,
        "type": "noteOff",
        "noteNumber": 67,
        "velocity": 0,
        "byte9": true
      },
      {
        "deltaTime": 0,
        "channel": 0,
        "type": "noteOff",
        "noteNumber": 79,
        "velocity": 0,
        "byte9": true
      },
      {
        "deltaTime": 1,
        "running": true,
        "channel": 0,
        "type": "noteOff",
        "noteNumber": 76,
        "velocity": 0,
        "byte9": true
      },
      {
        "deltaTime": 1,
        "running": true,
        "channel": 0,
        "type": "noteOff",
        "noteNumber": 84,
        "velocity": 0,
        "byte9": true
      },
      {
        "deltaTime": 1,
        "channel": 0,
        "type": "noteOff",
        "noteNumber": 62,
        "velocity": 0,
        "byte9": true
      },
      {
        "deltaTime": 4,
        "running": true,
        "channel": 0,
        "type": "noteOff",
        "noteNumber": 56,
        "velocity": 0,
        "byte9": true
      },
      {
        "deltaTime": 27,
        "running": true,
        "channel": 0,
        "type": "noteOn",
        "noteNumber": 62,
        "velocity": 51
      },
      {
        "deltaTime": 1,
        "running": true,
        "channel": 0,
        "type": "noteOn",
        "noteNumber": 67,
        "velocity": 78
      },
      {
        "deltaTime": 0,
        "running": true,
        "channel": 0,
        "type": "noteOn",
        "noteNumber": 56,
        "velocity": 61
      },
      {
        "deltaTime": 1,
        "channel": 0,
        "type": "noteOn",
        "noteNumber": 76,
        "velocity": 80
      },
      {
        "deltaTime": 0,
        "channel": 0,
        "type": "noteOn",
        "noteNumber": 60,
        "velocity": 60
      },
      {
        "deltaTime": 0,
        "channel": 0,
        "type": "noteOn",
        "noteNumber": 79,
        "velocity": 59
      },
      {
        "deltaTime": 0,
        "channel": 0,
        "type": "noteOn",
        "noteNumber": 84,
        "velocity": 62
      },
      {
        "deltaTime": 1,
        "running": true,
        "channel": 0,
        "type": "noteOn",
        "noteNumber": 72,
        "velocity": 79
      },
      {
        "deltaTime": 0,
        "running": true,
        "channel": 0,
        "type": "noteOn",
        "noteNumber": 83,
        "velocity": 54
      },
      {
        "deltaTime": 13,
        "running": true,
        "channel": 0,
        "type": "noteOff",
        "noteNumber": 76,
        "velocity": 0,
        "byte9": true
      },
      {
        "deltaTime": 0,
        "running": true,
        "channel": 0,
        "type": "noteOff",
        "noteNumber": 84,
        "velocity": 0,
        "byte9": true
      },
      {
        "deltaTime": 2,
        "running": true,
        "channel": 0,
        "type": "noteOff",
        "noteNumber": 79,
        "velocity": 0,
        "byte9": true
      },
      {
        "deltaTime": 0,
        "running": true,
        "channel": 0,
        "type": "noteOff",
        "noteNumber": 72,
        "velocity": 0,
        "byte9": true
      },
      {
        "deltaTime": 2,
        "running": true,
        "channel": 0,
        "type": "noteOff",
        "noteNumber": 83,
        "velocity": 0,
        "byte9": true
      },
      {
        "deltaTime": 2,
        "channel": 0,
        "type": "noteOff",
        "noteNumber": 67,
        "velocity": 0,
        "byte9": true
      },
      {
        "deltaTime": 2,
        "running": true,
        "channel": 0,
        "type": "noteOff",
        "noteNumber": 60,
        "velocity": 0,
        "byte9": true
      },
      {
        "deltaTime": 2,
        "running": true,
        "channel": 0,
        "type": "noteOff",
        "noteNumber": 56,
        "velocity": 0,
        "byte9": true
      },
      {
        "deltaTime": 1,
        "running": true,
        "channel": 0,
        "type": "noteOff",
        "noteNumber": 62,
        "velocity": 0,
        "byte9": true
      },
      {
        "deltaTime": 9,
        "running": true,
        "channel": 0,
        "type": "noteOn",
        "noteNumber": 62,
        "velocity": 66
      },
      {
        "deltaTime": 1,
        "channel": 0,
        "type": "noteOn",
        "noteNumber": 85,
        "velocity": 83
      },
      {
        "deltaTime": 0,
        "channel": 0,
        "type": "noteOn",
        "noteNumber": 56,
        "velocity": 60
      },
      {
        "deltaTime": 0,
        "running": true,
        "channel": 0,
        "type": "noteOn",
        "noteNumber": 67,
        "velocity": 71
      },
      {
        "deltaTime": 1,
        "channel": 0,
        "type": "noteOn",
        "noteNumber": 60,
        "velocity": 62
      },
      {
        "deltaTime": 0,
        "channel": 0,
        "type": "noteOn",
        "noteNumber": 73,
        "velocity": 63
      },
      {
        "deltaTime": 34,
        "channel": 0,
        "type": "noteOff",
        "noteNumber": 62,
        "velocity": 0,
        "byte9": true
      },
      {
        "deltaTime": 2,
        "running": true,
        "channel": 0,
        "type": "noteOff",
        "noteNumber": 67,
        "velocity": 0,
        "byte9": true
      },
      {
        "deltaTime": 2,
        "channel": 0,
        "type": "noteOff",
        "noteNumber": 85,
        "velocity": 0,
        "byte9": true
      },
      {
        "deltaTime": 0,
        "channel": 0,
        "type": "noteOff",
        "noteNumber": 60,
        "velocity": 0,
        "byte9": true
      },
      {
        "deltaTime": 0,
        "channel": 0,
        "type": "noteOff",
        "noteNumber": 73,
        "velocity": 0,
        "byte9": true
      },
      {
        "deltaTime": 13,
        "channel": 0,
        "type": "noteOff",
        "noteNumber": 56,
        "velocity": 0,
        "byte9": true
      },
      {
        "deltaTime": 18,
        "channel": 0,
        "type": "noteOn",
        "noteNumber": 84,
        "velocity": 63
      },
      {
        "deltaTime": 2,
        "channel": 0,
        "type": "noteOn",
        "noteNumber": 72,
        "velocity": 52
      },
      {
        "deltaTime": 0,
        "running": true,
        "channel": 0,
        "type": "noteOn",
        "noteNumber": 77,
        "velocity": 53
      },
      {
        "deltaTime": 2,
        "channel": 0,
        "type": "noteOn",
        "noteNumber": 61,
        "velocity": 42
      },
      {
        "deltaTime": 0,
        "running": true,
        "channel": 0,
        "type": "noteOn",
        "noteNumber": 65,
        "velocity": 55
      },
      {
        "deltaTime": 1,
        "running": true,
        "channel": 0,
        "type": "noteOn",
        "noteNumber": 55,
        "velocity": 47
      },
      {
        "deltaTime": 61,
        "channel": 0,
        "type": "noteOff",
        "noteNumber": 65,
        "velocity": 0,
        "byte9": true
      },
      {
        "deltaTime": 2,
        "channel": 0,
        "type": "noteOff",
        "noteNumber": 84,
        "velocity": 0,
        "byte9": true
      },
      {
        "deltaTime": 1,
        "channel": 0,
        "type": "noteOff",
        "noteNumber": 55,
        "velocity": 0,
        "byte9": true
      },
      {
        "deltaTime": 6,
        "channel": 0,
        "type": "noteOff",
        "noteNumber": 77,
        "velocity": 0,
        "byte9": true
      },
      {
        "deltaTime": 2,
        "channel": 0,
        "type": "noteOff",
        "noteNumber": 61,
        "velocity": 0,
        "byte9": true
      },
      {
        "deltaTime": 5,
        "channel": 0,
        "type": "noteOff",
        "noteNumber": 72,
        "velocity": 0,
        "byte9": true
      },
      {
        "deltaTime": 37,
        "running": true,
        "channel": 0,
        "type": "noteOn",
        "noteNumber": 82,
        "velocity": 46
      },
      {
        "deltaTime": 2,
        "running": true,
        "channel": 0,
        "type": "noteOn",
        "noteNumber": 70,
        "velocity": 34
      },
      {
        "deltaTime": 0,
        "running": true,
        "channel": 0,
        "type": "noteOn",
        "noteNumber": 75,
        "velocity": 43
      },
      {
        "deltaTime": 1,
        "channel": 0,
        "type": "noteOn",
        "noteNumber": 64,
        "velocity": 37
      },
      {
        "deltaTime": 0,
        "running": true,
        "channel": 0,
        "type": "noteOn",
        "noteNumber": 61,
        "velocity": 29
      },
      {
        "deltaTime": 1,
        "channel": 0,
        "type": "noteOn",
        "noteNumber": 79,
        "velocity": 35
      },
      {
        "deltaTime": 1,
        "channel": 0,
        "type": "noteOn",
        "noteNumber": 55,
        "velocity": 26
      },
      {
        "deltaTime": 16,
        "channel": 0,
        "type": "noteOff",
        "noteNumber": 79,
        "velocity": 0,
        "byte9": true
      },
      {
        "deltaTime": 6,
        "running": true,
        "channel": 0,
        "type": "noteOff",
        "noteNumber": 82,
        "velocity": 0,
        "byte9": true
      },
      {
        "deltaTime": 0,
        "channel": 0,
        "type": "noteOff",
        "noteNumber": 64,
        "velocity": 0,
        "byte9": true
      },
      {
        "deltaTime": 3,
        "channel": 0,
        "type": "noteOff",
        "noteNumber": 75,
        "velocity": 0,
        "byte9": true
      },
      {
        "deltaTime": 3,
        "running": true,
        "channel": 0,
        "type": "noteOff",
        "noteNumber": 70,
        "velocity": 0,
        "byte9": true
      },
      {
        "deltaTime": 1,
        "channel": 0,
        "type": "noteOff",
        "noteNumber": 61,
        "velocity": 0,
        "byte9": true
      },
      {
        "deltaTime": 5,
        "running": true,
        "channel": 0,
        "type": "noteOff",
        "noteNumber": 55,
        "velocity": 0,
        "byte9": true
      },
      {
        "deltaTime": 85,
        "channel": 0,
        "type": "noteOn",
        "noteNumber": 63,
        "velocity": 36
      },
      {
        "deltaTime": 2,
        "channel": 0,
        "type": "noteOn",
        "noteNumber": 58,
        "velocity": 40
      },
      {
        "deltaTime": 1,
        "channel": 0,
        "type": "controller",
        "controllerType": 85,
        "value": 4
      },
      {
        "deltaTime": 0,
        "running": true,
        "channel": 0,
        "type": "controller",
        "controllerType": 86,
        "value": 4
      },
      {
        "deltaTime": 1,
        "channel": 0,
        "type": "noteOn",
        "noteNumber": 60,
        "velocity": 36
      },
      {
        "deltaTime": 0,
        "channel": 0,
        "type": "noteOn",
        "noteNumber": 51,
        "velocity": 30
      },
      {
        "deltaTime": 1,
        "running": true,
        "channel": 0,
        "type": "noteOn",
        "noteNumber": 44,
        "velocity": 25
      },
      {
        "deltaTime": 45,
        "channel": 0,
        "type": "noteOff",
        "noteNumber": 63,
        "velocity": 0,
        "byte9": true
      },
      {
        "deltaTime": 1,
        "running": true,
        "channel": 0,
        "type": "noteOff",
        "noteNumber": 58,
        "velocity": 0,
        "byte9": true
      },
      {
        "deltaTime": 0,
        "running": true,
        "channel": 0,
        "type": "noteOff",
        "noteNumber": 60,
        "velocity": 0,
        "byte9": true
      },
      {
        "deltaTime": 0,
        "channel": 0,
        "type": "noteOff",
        "noteNumber": 51,
        "velocity": 0,
        "byte9": true
      },
      {
        "deltaTime": 0,
        "running": true,
        "channel": 0,
        "type": "noteOff",
        "noteNumber": 44,
        "velocity": 0,
        "byte9": true
      },
      {
        "deltaTime": 12,
        "running": true,
        "channel": 0,
        "type": "noteOn",
        "noteNumber": 60,
        "velocity": 50
      },
      {
        "deltaTime": 9,
        "running": true,
        "channel": 0,
        "type": "noteOff",
        "noteNumber": 60,
        "velocity": 0,
        "byte9": true
      },
      {
        "deltaTime": 1,
        "channel": 0,
        "type": "noteOn",
        "noteNumber": 70,
        "velocity": 57
      },
      {
        "deltaTime": 0,
        "running": true,
        "channel": 0,
        "type": "noteOn",
        "noteNumber": 67,
        "velocity": 58
      },
      {
        "deltaTime": 1,
        "running": true,
        "channel": 0,
        "type": "noteOn",
        "noteNumber": 72,
        "velocity": 63
      },
      {
        "deltaTime": 9,
        "running": true,
        "channel": 0,
        "type": "noteOff",
        "noteNumber": 72,
        "velocity": 0,
        "byte9": true
      },
      {
        "deltaTime": 6,
        "running": true,
        "channel": 0,
        "type": "noteOff",
        "noteNumber": 70,
        "velocity": 0,
        "byte9": true
      },
      {
        "deltaTime": 0,
        "running": true,
        "channel": 0,
        "type": "noteOff",
        "noteNumber": 67,
        "velocity": 0,
        "byte9": true
      },
      {
        "deltaTime": 4,
        "channel": 0,
        "type": "noteOn",
        "noteNumber": 58,
        "velocity": 50
      },
      {
        "deltaTime": 9,
        "channel": 0,
        "type": "noteOn",
        "noteNumber": 70,
        "velocity": 76
      },
      {
        "deltaTime": 3,
        "channel": 0,
        "type": "noteOff",
        "noteNumber": 58,
        "velocity": 0,
        "byte9": true
      },
      {
        "deltaTime": 3,
        "channel": 0,
        "type": "noteOn",
        "noteNumber": 63,
        "velocity": 70
      },
      {
        "deltaTime": 14,
        "running": true,
        "channel": 0,
        "type": "noteOff",
        "noteNumber": 70,
        "velocity": 0,
        "byte9": true
      },
      {
        "deltaTime": 1,
        "channel": 0,
        "type": "controller",
        "controllerType": 85,
        "value": 4
      },
      {
        "deltaTime": 0,
        "running": true,
        "channel": 0,
        "type": "controller",
        "controllerType": 86,
        "value": 4
      },
      {
        "deltaTime": 1,
        "channel": 0,
        "type": "noteOff",
        "noteNumber": 63,
        "velocity": 0,
        "byte9": true
      },
      {
        "deltaTime": 11,
        "channel": 0,
        "type": "noteOn",
        "noteNumber": 55,
        "velocity": 44
      },
      {
        "deltaTime": 1,
        "channel": 0,
        "type": "noteOn",
        "noteNumber": 67,
        "velocity": 60
      },
      {
        "deltaTime": 2,
        "running": true,
        "channel": 0,
        "type": "noteOn",
        "noteNumber": 63,
        "velocity": 39
      },
      {
        "deltaTime": 1,
        "running": true,
        "channel": 0,
        "type": "noteOn",
        "noteNumber": 60,
        "velocity": 56
      },
      {
        "deltaTime": 3,
        "channel": 0,
        "type": "noteOff",
        "noteNumber": 55,
        "velocity": 0,
        "byte9": true
      },
      {
        "deltaTime": 3,
        "channel": 0,
        "type": "noteOff",
        "noteNumber": 67,
        "velocity": 0,
        "byte9": true
      },
      {
        "deltaTime": 2,
        "running": true,
        "channel": 0,
        "type": "noteOff",
        "noteNumber": 63,
        "velocity": 0,
        "byte9": true
      },
      {
        "deltaTime": 8,
        "running": true,
        "channel": 0,
        "type": "noteOff",
        "noteNumber": 60,
        "velocity": 0,
        "byte9": true
      },
      {
        "deltaTime": 7,
        "channel": 0,
        "type": "noteOn",
        "noteNumber": 55,
        "velocity": 35
      },
      {
        "deltaTime": 4,
        "channel": 0,
        "type": "noteOn",
        "noteNumber": 60,
        "velocity": 44
      },
      {
        "deltaTime": 1,
        "channel": 0,
        "type": "noteOff",
        "noteNumber": 55,
        "velocity": 0,
        "byte9": true
      },
      {
        "deltaTime": 1,
        "channel": 0,
        "type": "noteOn",
        "noteNumber": 67,
        "velocity": 54
      },
      {
        "deltaTime": 12,
        "running": true,
        "channel": 0,
        "type": "noteOff",
        "noteNumber": 67,
        "velocity": 0,
        "byte9": true
      },
      {
        "deltaTime": 5,
        "running": true,
        "channel": 0,
        "type": "noteOff",
        "noteNumber": 60,
        "velocity": 0,
        "byte9": true
      },
      {
        "deltaTime": 5,
        "channel": 0,
        "type": "noteOn",
        "noteNumber": 51,
        "velocity": 34
      },
      {
        "deltaTime": 0,
        "channel": 0,
        "type": "noteOn",
        "noteNumber": 63,
        "velocity": 47
      },
      {
        "deltaTime": 10,
        "running": true,
        "channel": 0,
        "type": "noteOn",
        "noteNumber": 56,
        "velocity": 34
      },
      {
        "deltaTime": 8,
        "channel": 0,
        "type": "noteOff",
        "noteNumber": 51,
        "velocity": 0,
        "byte9": true
      },
      {
        "deltaTime": 13,
        "channel": 0,
        "type": "noteOff",
        "noteNumber": 56,
        "velocity": 0,
        "byte9": true
      },
      {
        "deltaTime": 6,
        "running": true,
        "channel": 0,
        "type": "noteOff",
        "noteNumber": 63,
        "velocity": 0,
        "byte9": true
      },
      {
        "deltaTime": 20,
        "running": true,
        "channel": 0,
        "type": "noteOn",
        "noteNumber": 55,
        "velocity": 47
      },
      {
        "deltaTime": 1,
        "running": true,
        "channel": 0,
        "type": "noteOn",
        "noteNumber": 63,
        "velocity": 25
      },
      {
        "deltaTime": 0,
        "channel": 0,
        "type": "noteOn",
        "noteNumber": 51,
        "velocity": 37
      },
      {
        "deltaTime": 1,
        "channel": 0,
        "type": "noteOn",
        "noteNumber": 60,
        "velocity": 34
      },
      {
        "deltaTime": 0,
        "running": true,
        "channel": 0,
        "type": "noteOn",
        "noteNumber": 58,
        "velocity": 35
      },
      {
        "deltaTime": 34,
        "channel": 0,
        "type": "noteOff",
        "noteNumber": 51,
        "velocity": 0,
        "byte9": true
      },
      {
        "deltaTime": 23,
        "running": true,
        "channel": 0,
        "type": "noteOn",
        "noteNumber": 51,
        "velocity": 46
      },
      {
        "deltaTime": 5,
        "channel": 0,
        "type": "noteOff",
        "noteNumber": 55,
        "velocity": 0,
        "byte9": true
      },
      {
        "deltaTime": 6,
        "running": true,
        "channel": 0,
        "type": "noteOff",
        "noteNumber": 60,
        "velocity": 0,
        "byte9": true
      },
      {
        "deltaTime": 13,
        "running": true,
        "channel": 0,
        "type": "noteOff",
        "noteNumber": 58,
        "velocity": 0,
        "byte9": true
      },
      {
        "deltaTime": 6,
        "channel": 0,
        "type": "noteOff",
        "noteNumber": 51,
        "velocity": 0,
        "byte9": true
      },
      {
        "deltaTime": 23,
        "running": true,
        "channel": 0,
        "type": "noteOn",
        "noteNumber": 58,
        "velocity": 48
      },
      {
        "deltaTime": 3,
        "running": true,
        "channel": 0,
        "type": "noteOn",
        "noteNumber": 55,
        "velocity": 33
      },
      {
        "deltaTime": 0,
        "running": true,
        "channel": 0,
        "type": "noteOn",
        "noteNumber": 51,
        "velocity": 37
      },
      {
        "deltaTime": 3,
        "running": true,
        "channel": 0,
        "type": "noteOff",
        "noteNumber": 55,
        "velocity": 0,
        "byte9": true
      },
      {
        "deltaTime": 3,
        "channel": 0,
        "type": "noteOff",
        "noteNumber": 63,
        "velocity": 0,
        "byte9": true
      },
      {
        "deltaTime": 1,
        "channel": 0,
        "type": "noteOff",
        "noteNumber": 58,
        "velocity": 0,
        "byte9": true
      },
      {
        "deltaTime": 4,
        "running": true,
        "channel": 0,
        "type": "noteOff",
        "noteNumber": 51,
        "velocity": 0,
        "byte9": true
      },
      {
        "deltaTime": 32,
        "channel": 0,
        "type": "noteOn",
        "noteNumber": 75,
        "velocity": 77
      },
      {
        "deltaTime": 0,
        "running": true,
        "channel": 0,
        "type": "noteOn",
        "noteNumber": 70,
        "velocity": 81
      },
      {
        "deltaTime": 1,
        "running": true,
        "channel": 0,
        "type": "noteOn",
        "noteNumber": 72,
        "velocity": 79
      },
      {
        "deltaTime": 0,
        "running": true,
        "channel": 0,
        "type": "noteOn",
        "noteNumber": 67,
        "velocity": 82
      },
      {
        "deltaTime": 0,
        "channel": 0,
        "type": "noteOn",
        "noteNumber": 63,
        "velocity": 62
      },
      {
        "deltaTime": 13,
        "running": true,
        "channel": 0,
        "type": "noteOff",
        "noteNumber": 63,
        "velocity": 0,
        "byte9": true
      },
      {
        "deltaTime": 6,
        "channel": 0,
        "type": "noteOff",
        "noteNumber": 75,
        "velocity": 0,
        "byte9": true
      },
      {
        "deltaTime": 6,
        "running": true,
        "channel": 0,
        "type": "noteOff",
        "noteNumber": 70,
        "velocity": 0,
        "byte9": true
      },
      {
        "deltaTime": 2,
        "running": true,
        "channel": 0,
        "type": "noteOff",
        "noteNumber": 67,
        "velocity": 0,
        "byte9": true
      },
      {
        "deltaTime": 1,
        "running": true,
        "channel": 0,
        "type": "noteOff",
        "noteNumber": 72,
        "velocity": 0,
        "byte9": true
      },
      {
        "deltaTime": 10,
        "running": true,
        "channel": 0,
        "type": "noteOn",
        "noteNumber": 75,
        "velocity": 76
      },
      {
        "deltaTime": 1,
        "channel": 0,
        "type": "noteOn",
        "noteNumber": 63,
        "velocity": 59
      },
      {
        "deltaTime": 2,
        "channel": 0,
        "type": "noteOn",
        "noteNumber": 67,
        "velocity": 61
      },
      {
        "deltaTime": 0,
        "running": true,
        "channel": 0,
        "type": "noteOn",
        "noteNumber": 70,
        "velocity": 38
      },
      {
        "deltaTime": 3,
        "running": true,
        "channel": 0,
        "type": "noteOff",
        "noteNumber": 70,
        "velocity": 0,
        "byte9": true
      },
      {
        "deltaTime": 2,
        "channel": 0,
        "type": "noteOff",
        "noteNumber": 63,
        "velocity": 0,
        "byte9": true
      },
      {
        "deltaTime": 0,
        "channel": 0,
        "type": "noteOff",
        "noteNumber": 67,
        "velocity": 0,
        "byte9": true
      },
      {
        "deltaTime": 1,
        "running": true,
        "channel": 0,
        "type": "noteOff",
        "noteNumber": 75,
        "velocity": 0,
        "byte9": true
      },
      {
        "deltaTime": 27,
        "running": true,
        "channel": 0,
        "type": "noteOn",
        "noteNumber": 72,
        "velocity": 83
      },
      {
        "deltaTime": 1,
        "channel": 0,
        "type": "noteOn",
        "noteNumber": 61,
        "velocity": 73
      },
      {
        "deltaTime": 0,
        "channel": 0,
        "type": "noteOn",
        "noteNumber": 65,
        "velocity": 82
      },
      {
        "deltaTime": 0,
        "running": true,
        "channel": 0,
        "type": "noteOn",
        "noteNumber": 68,
        "velocity": 63
      },
      {
        "deltaTime": 62,
        "channel": 0,
        "type": "noteOn",
        "noteNumber": 51,
        "velocity": 60
      },
      {
        "deltaTime": 28,
        "channel": 0,
        "type": "noteOff",
        "noteNumber": 65,
        "velocity": 0,
        "byte9": true
      },
      {
        "deltaTime": 6,
        "channel": 0,
        "type": "noteOff",
        "noteNumber": 51,
        "velocity": 0,
        "byte9": true
      },
      {
        "deltaTime": 7,
        "channel": 0,
        "type": "noteOff",
        "noteNumber": 68,
        "velocity": 0,
        "byte9": true
      },
      {
        "deltaTime": 1,
        "channel": 0,
        "type": "noteOff",
        "noteNumber": 61,
        "velocity": 0,
        "byte9": true
      },
      {
        "deltaTime": 12,
        "channel": 0,
        "type": "noteOff",
        "noteNumber": 72,
        "velocity": 0,
        "byte9": true
      },
      {
        "deltaTime": 6,
        "channel": 0,
        "type": "noteOn",
        "noteNumber": 61,
        "velocity": 44
      },
      {
        "deltaTime": 1,
        "channel": 0,
        "type": "noteOn",
        "noteNumber": 68,
        "velocity": 34
      },
      {
        "deltaTime": 1,
        "running": true,
        "channel": 0,
        "type": "noteOn",
        "noteNumber": 65,
        "velocity": 55
      },
      {
        "deltaTime": 3,
        "channel": 0,
        "type": "noteOn",
        "noteNumber": 58,
        "velocity": 28
      },
      {
        "deltaTime": 37,
        "running": true,
        "channel": 0,
        "type": "noteOn",
        "noteNumber": 51,
        "velocity": 51
      },
      {
        "deltaTime": 22,
        "running": true,
        "channel": 0,
        "type": "noteOff",
        "noteNumber": 51,
        "velocity": 0,
        "byte9": true
      },
      {
        "deltaTime": 22,
        "running": true,
        "channel": 0,
        "type": "noteOn",
        "noteNumber": 51,
        "velocity": 55
      },
      {
        "deltaTime": 11,
        "channel": 0,
        "type": "noteOff",
        "noteNumber": 65,
        "velocity": 0,
        "byte9": true
      },
      {
        "deltaTime": 1,
        "running": true,
        "channel": 0,
        "type": "noteOff",
        "noteNumber": 68,
        "velocity": 0,
        "byte9": true
      },
      {
        "deltaTime": 3,
        "channel": 0,
        "type": "noteOff",
        "noteNumber": 51,
        "velocity": 0,
        "byte9": true
      },
      {
        "deltaTime": 4,
        "running": true,
        "channel": 0,
        "type": "noteOff",
        "noteNumber": 61,
        "velocity": 0,
        "byte9": true
      },
      {
        "deltaTime": 4,
        "running": true,
        "channel": 0,
        "type": "noteOff",
        "noteNumber": 58,
        "velocity": 0,
        "byte9": true
      },
      {
        "deltaTime": 19,
        "channel": 0,
        "type": "noteOn",
        "noteNumber": 72,
        "velocity": 59
      },
      {
        "deltaTime": 0,
        "running": true,
        "channel": 0,
        "type": "noteOn",
        "noteNumber": 64,
        "velocity": 52
      },
      {
        "deltaTime": 0,
        "channel": 0,
        "type": "noteOn",
        "noteNumber": 51,
        "velocity": 46
      },
      {
        "deltaTime": 1,
        "running": true,
        "channel": 0,
        "type": "noteOn",
        "noteNumber": 61,
        "velocity": 33
      },
      {
        "deltaTime": 0,
        "channel": 0,
        "type": "noteOn",
        "noteNumber": 67,
        "velocity": 36
      },
      {
        "deltaTime": 4,
        "channel": 0,
        "type": "noteOn",
        "noteNumber": 58,
        "velocity": 33
      },
      {
        "deltaTime": 70,
        "channel": 0,
        "type": "noteOff",
        "noteNumber": 61,
        "velocity": 0,
        "byte9": true
      },
      {
        "deltaTime": 1,
        "running": true,
        "channel": 0,
        "type": "noteOff",
        "noteNumber": 51,
        "velocity": 0,
        "byte9": true
      },
      {
        "deltaTime": 6,
        "channel": 0,
        "type": "noteOff",
        "noteNumber": 67,
        "velocity": 0,
        "byte9": true
      },
      {
        "deltaTime": 3,
        "channel": 0,
        "type": "noteOff",
        "noteNumber": 58,
        "velocity": 0,
        "byte9": true
      },
      {
        "deltaTime": 9,
        "channel": 0,
        "type": "noteOff",
        "noteNumber": 64,
        "velocity": 0,
        "byte9": true
      },
      {
        "deltaTime": 14,
        "running": true,
        "channel": 0,
        "type": "noteOff",
        "noteNumber": 72,
        "velocity": 0,
        "byte9": true
      },
      {
        "deltaTime": 9,
        "channel": 0,
        "type": "noteOn",
        "noteNumber": 51,
        "velocity": 25
      },
      {
        "deltaTime": 2,
        "running": true,
        "channel": 0,
        "type": "noteOn",
        "noteNumber": 58,
        "velocity": 18
      },
      {
        "deltaTime": 35,
        "running": true,
        "channel": 0,
        "type": "noteOff",
        "noteNumber": 51,
        "velocity": 0,
        "byte9": true
      },
      {
        "deltaTime": 3,
        "running": true,
        "channel": 0,
        "type": "noteOff",
        "noteNumber": 58,
        "velocity": 0,
        "byte9": true
      },
      {
        "deltaTime": 75,
        "channel": 0,
        "type": "controller",
        "controllerType": 85,
        "value": 8
      },
      {
        "deltaTime": 0,
        "running": true,
        "channel": 0,
        "type": "controller",
        "controllerType": 86,
        "value": 8
      },
      {
        "deltaTime": 1,
        "channel": 0,
        "type": "noteOn",
        "noteNumber": 67,
        "velocity": 31
      },
      {
        "deltaTime": 1,
        "channel": 0,
        "type": "noteOn",
        "noteNumber": 62,
        "velocity": 32
      },
      {
        "deltaTime": 1,
        "running": true,
        "channel": 0,
        "type": "noteOn",
        "noteNumber": 56,
        "velocity": 25
      },
      {
        "deltaTime": 0,
        "meta": true,
        "type": "text",
        "text": "Up the diminished (half step/whole step) scale on E7#9-"
      },
      {
        "deltaTime": 59,
        "channel": 0,
        "type": "noteOff",
        "noteNumber": 67,
        "velocity": 0,
        "byte9": true
      },
      {
        "deltaTime": 20,
        "running": true,
        "channel": 0,
        "type": "noteOn",
        "noteNumber": 68,
        "velocity": 48
      },
      {
        "deltaTime": 10,
        "running": true,
        "channel": 0,
        "type": "noteOn",
        "noteNumber": 70,
        "velocity": 62
      },
      {
        "deltaTime": 1,
        "running": true,
        "channel": 0,
        "type": "noteOff",
        "noteNumber": 68,
        "velocity": 0,
        "byte9": true
      },
      {
        "deltaTime": 6,
        "running": true,
        "channel": 0,
        "type": "noteOff",
        "noteNumber": 70,
        "velocity": 0,
        "byte9": true
      },
      {
        "deltaTime": 2,
        "running": true,
        "channel": 0,
        "type": "noteOn",
        "noteNumber": 71,
        "velocity": 70
      },
      {
        "deltaTime": 9,
        "running": true,
        "channel": 0,
        "type": "noteOff",
        "noteNumber": 71,
        "velocity": 0,
        "byte9": true
      },
      {
        "deltaTime": 3,
        "running": true,
        "channel": 0,
        "type": "noteOn",
        "noteNumber": 73,
        "velocity": 47
      },
      {
        "deltaTime": 7,
        "running": true,
        "channel": 0,
        "type": "noteOff",
        "noteNumber": 73,
        "velocity": 0,
        "byte9": true
      },
      {
        "deltaTime": 4,
        "running": true,
        "channel": 0,
        "type": "noteOn",
        "noteNumber": 74,
        "velocity": 59
      },
      {
        "deltaTime": 5,
        "channel": 0,
        "type": "noteOff",
        "noteNumber": 62,
        "velocity": 0,
        "byte9": true
      },
      {
        "deltaTime": 6,
        "channel": 0,
        "type": "noteOff",
        "noteNumber": 74,
        "velocity": 0,
        "byte9": true
      },
      {
        "deltaTime": 1,
        "running": true,
        "channel": 0,
        "type": "noteOn",
        "noteNumber": 76,
        "velocity": 58
      },
      {
        "deltaTime": 2,
        "channel": 0,
        "type": "noteOff",
        "noteNumber": 56,
        "velocity": 0,
        "byte9": true
      },
      {
        "deltaTime": 6,
        "channel": 0,
        "type": "noteOff",
        "noteNumber": 76,
        "velocity": 0,
        "byte9": true
      },
      {
        "deltaTime": 5,
        "running": true,
        "channel": 0,
        "type": "noteOn",
        "noteNumber": 77,
        "velocity": 26
      },
      {
        "deltaTime": 5,
        "running": true,
        "channel": 0,
        "type": "noteOff",
        "noteNumber": 77,
        "velocity": 0,
        "byte9": true
      },
      {
        "deltaTime": 6,
        "running": true,
        "channel": 0,
        "type": "noteOn",
        "noteNumber": 79,
        "velocity": 62
      },
      {
        "deltaTime": 7,
        "running": true,
        "channel": 0,
        "type": "noteOff",
        "noteNumber": 79,
        "velocity": 0,
        "byte9": true
      },
      {
        "deltaTime": 7,
        "running": true,
        "channel": 0,
        "type": "noteOn",
        "noteNumber": 80,
        "velocity": 63
      },
      {
        "deltaTime": 7,
        "running": true,
        "channel": 0,
        "type": "noteOff",
        "noteNumber": 80,
        "velocity": 0,
        "byte9": true
      },
      {
        "deltaTime": 11,
        "running": true,
        "channel": 0,
        "type": "noteOn",
        "noteNumber": 82,
        "velocity": 53
      },
      {
        "deltaTime": 5,
        "running": true,
        "channel": 0,
        "type": "noteOff",
        "noteNumber": 82,
        "velocity": 0,
        "byte9": true
      },
      {
        "deltaTime": 17,
        "running": true,
        "channel": 0,
        "type": "noteOn",
        "noteNumber": 83,
        "velocity": 60
      },
      {
        "deltaTime": 6,
        "running": true,
        "channel": 0,
        "type": "noteOff",
        "noteNumber": 83,
        "velocity": 0,
        "byte9": true
      },
      {
        "deltaTime": 17,
        "running": true,
        "channel": 0,
        "type": "noteOn",
        "noteNumber": 84,
        "velocity": 68
      },
      {
        "deltaTime": 9,
        "running": true,
        "channel": 0,
        "type": "noteOff",
        "noteNumber": 84,
        "velocity": 0,
        "byte9": true
      },
      {
        "deltaTime": 96,
        "channel": 0,
        "type": "noteOn",
        "noteNumber": 91,
        "velocity": 79
      },
      {
        "deltaTime": 0,
        "running": true,
        "channel": 0,
        "type": "noteOn",
        "noteNumber": 79,
        "velocity": 81
      },
      {
        "deltaTime": 0,
        "channel": 0,
        "type": "noteOn",
        "noteNumber": 56,
        "velocity": 74
      },
      {
        "deltaTime": 0,
        "running": true,
        "channel": 0,
        "type": "noteOn",
        "noteNumber": 67,
        "velocity": 80
      },
      {
        "deltaTime": 0,
        "running": true,
        "channel": 0,
        "type": "noteOn",
        "noteNumber": 62,
        "velocity": 68
      },
      {
        "deltaTime": 4,
        "channel": 0,
        "type": "noteOn",
        "noteNumber": 89,
        "velocity": 33
      },
      {
        "deltaTime": 4,
        "running": true,
        "channel": 0,
        "type": "noteOff",
        "noteNumber": 89,
        "velocity": 0,
        "byte9": true
      },
      {
        "deltaTime": 9,
        "running": true,
        "channel": 0,
        "type": "noteOff",
        "noteNumber": 91,
        "velocity": 0,
        "byte9": true
      },
      {
        "deltaTime": 2,
        "running": true,
        "channel": 0,
        "type": "noteOff",
        "noteNumber": 79,
        "velocity": 0,
        "byte9": true
      },
      {
        "deltaTime": 2,
        "channel": 0,
        "type": "noteOff",
        "noteNumber": 67,
        "velocity": 0,
        "byte9": true
      },
      {
        "deltaTime": 3,
        "running": true,
        "channel": 0,
        "type": "noteOff",
        "noteNumber": 56,
        "velocity": 0,
        "byte9": true
      },
      {
        "deltaTime": 0,
        "running": true,
        "channel": 0,
        "type": "noteOff",
        "noteNumber": 62,
        "velocity": 0,
        "byte9": true
      },
      {
        "deltaTime": 6,
        "channel": 0,
        "type": "noteOn",
        "noteNumber": 92,
        "velocity": 86
      },
      {
        "deltaTime": 0,
        "running": true,
        "channel": 0,
        "type": "noteOn",
        "noteNumber": 80,
        "velocity": 83
      },
      {
        "deltaTime": 0,
        "channel": 0,
        "type": "noteOn",
        "noteNumber": 56,
        "velocity": 52
      },
      {
        "deltaTime": 1,
        "running": true,
        "channel": 0,
        "type": "noteOn",
        "noteNumber": 67,
        "velocity": 71
      },
      {
        "deltaTime": 0,
        "running": true,
        "channel": 0,
        "type": "noteOn",
        "noteNumber": 62,
        "velocity": 82
      },
      {
        "deltaTime": 21,
        "channel": 0,
        "type": "noteOff",
        "noteNumber": 80,
        "velocity": 0,
        "byte9": true
      },
      {
        "deltaTime": 1,
        "running": true,
        "channel": 0,
        "type": "noteOff",
        "noteNumber": 92,
        "velocity": 0,
        "byte9": true
      },
      {
        "deltaTime": 1,
        "channel": 0,
        "type": "noteOff",
        "noteNumber": 67,
        "velocity": 0,
        "byte9": true
      },
      {
        "deltaTime": 1,
        "running": true,
        "channel": 0,
        "type": "noteOff",
        "noteNumber": 56,
        "velocity": 0,
        "byte9": true
      },
      {
        "deltaTime": 5,
        "running": true,
        "channel": 0,
        "type": "noteOff",
        "noteNumber": 62,
        "velocity": 0,
        "byte9": true
      },
      {
        "deltaTime": 6,
        "channel": 0,
        "type": "noteOn",
        "noteNumber": 94,
        "velocity": 86
      },
      {
        "deltaTime": 0,
        "running": true,
        "channel": 0,
        "type": "noteOn",
        "noteNumber": 82,
        "velocity": 83
      },
      {
        "deltaTime": 1,
        "channel": 0,
        "type": "noteOn",
        "noteNumber": 56,
        "velocity": 69
      },
      {
        "deltaTime": 0,
        "running": true,
        "channel": 0,
        "type": "noteOn",
        "noteNumber": 67,
        "velocity": 66
      },
      {
        "deltaTime": 0,
        "running": true,
        "channel": 0,
        "type": "noteOn",
        "noteNumber": 62,
        "velocity": 79
      },
      {
        "deltaTime": 13,
        "channel": 0,
        "type": "noteOff",
        "noteNumber": 94,
        "velocity": 0,
        "byte9": true
      },
      {
        "deltaTime": 2,
        "running": true,
        "channel": 0,
        "type": "noteOff",
        "noteNumber": 82,
        "velocity": 0,
        "byte9": true
      },
      {
        "deltaTime": 1,
        "channel": 0,
        "type": "noteOff",
        "noteNumber": 67,
        "velocity": 0,
        "byte9": true
      },
      {
        "deltaTime": 3,
        "running": true,
        "channel": 0,
        "type": "noteOff",
        "noteNumber": 56,
        "velocity": 0,
        "byte9": true
      },
      {
        "deltaTime": 2,
        "running": true,
        "channel": 0,
        "type": "noteOff",
        "noteNumber": 62,
        "velocity": 0,
        "byte9": true
      },
      {
        "deltaTime": 5,
        "channel": 0,
        "type": "noteOn",
        "noteNumber": 92,
        "velocity": 61
      },
      {
        "deltaTime": 0,
        "channel": 0,
        "type": "noteOn",
        "noteNumber": 67,
        "velocity": 48
      },
      {
        "deltaTime": 0,
        "channel": 0,
        "type": "noteOn",
        "noteNumber": 80,
        "velocity": 53
      },
      {
        "deltaTime": 1,
        "channel": 0,
        "type": "noteOn",
        "noteNumber": 62,
        "velocity": 51
      },
      {
        "deltaTime": 0,
        "running": true,
        "channel": 0,
        "type": "noteOn",
        "noteNumber": 56,
        "velocity": 52
      },
      {
        "deltaTime": 11,
        "channel": 0,
        "type": "noteOff",
        "noteNumber": 80,
        "velocity": 0,
        "byte9": true
      },
      {
        "deltaTime": 1,
        "running": true,
        "channel": 0,
        "type": "noteOff",
        "noteNumber": 92,
        "velocity": 0,
        "byte9": true
      },
      {
        "deltaTime": 0,
        "channel": 0,
        "type": "noteOff",
        "noteNumber": 67,
        "velocity": 0,
        "byte9": true
      },
      {
        "deltaTime": 3,
        "running": true,
        "channel": 0,
        "type": "noteOff",
        "noteNumber": 56,
        "velocity": 0,
        "byte9": true
      },
      {
        "deltaTime": 5,
        "running": true,
        "channel": 0,
        "type": "noteOff",
        "noteNumber": 62,
        "velocity": 0,
        "byte9": true
      },
      {
        "deltaTime": 8,
        "channel": 0,
        "type": "noteOn",
        "noteNumber": 94,
        "velocity": 72
      },
      {
        "deltaTime": 1,
        "channel": 0,
        "type": "noteOn",
        "noteNumber": 56,
        "velocity": 54
      },
      {
        "deltaTime": 0,
        "channel": 0,
        "type": "noteOn",
        "noteNumber": 82,
        "velocity": 64
      },
      {
        "deltaTime": 7,
        "running": true,
        "channel": 0,
        "type": "noteOff",
        "noteNumber": 94,
        "velocity": 0,
        "byte9": true
      },
      {
        "deltaTime": 0,
        "running": true,
        "channel": 0,
        "type": "noteOff",
        "noteNumber": 82,
        "velocity": 0,
        "byte9": true
      },
      {
        "deltaTime": 2,
        "channel": 0,
        "type": "noteOff",
        "noteNumber": 56,
        "velocity": 0,
        "byte9": true
      },
      {
        "deltaTime": 18,
        "channel": 0,
        "type": "noteOn",
        "noteNumber": 63,
        "velocity": 52
      },
      {
        "deltaTime": 0,
        "channel": 0,
        "type": "noteOn",
        "noteNumber": 89,
        "velocity": 64
      },
      {
        "deltaTime": 0,
        "channel": 0,
        "type": "noteOn",
        "noteNumber": 60,
        "velocity": 57
      },
      {
        "deltaTime": 1,
        "channel": 0,
        "type": "noteOn",
        "noteNumber": 77,
        "velocity": 42
      },
      {
        "deltaTime": 0,
        "channel": 0,
        "type": "noteOn",
        "noteNumber": 58,
        "velocity": 37
      },
      {
        "deltaTime": 1,
        "channel": 0,
        "type": "noteOn",
        "noteNumber": 84,
        "velocity": 44
      },
      {
        "deltaTime": 1,
        "channel": 0,
        "type": "noteOn",
        "noteNumber": 53,
        "velocity": 43
      },
      {
        "deltaTime": 14,
        "channel": 0,
        "type": "noteOff",
        "noteNumber": 89,
        "velocity": 0,
        "byte9": true
      },
      {
        "deltaTime": 3,
        "running": true,
        "channel": 0,
        "type": "noteOff",
        "noteNumber": 84,
        "velocity": 0,
        "byte9": true
      },
      {
        "deltaTime": 1,
        "channel": 0,
        "type": "noteOff",
        "noteNumber": 53,
        "velocity": 0,
        "byte9": true
      },
      {
        "deltaTime": 2,
        "running": true,
        "channel": 0,
        "type": "noteOff",
        "noteNumber": 63,
        "velocity": 0,
        "byte9": true
      },
      {
        "deltaTime": 3,
        "channel": 0,
        "type": "noteOff",
        "noteNumber": 77,
        "velocity": 0,
        "byte9": true
      },
      {
        "deltaTime": 0,
        "channel": 0,
        "type": "noteOff",
        "noteNumber": 58,
        "velocity": 0,
        "byte9": true
      },
      {
        "deltaTime": 3,
        "running": true,
        "channel": 0,
        "type": "noteOff",
        "noteNumber": 60,
        "velocity": 0,
        "byte9": true
      },
      {
        "deltaTime": 8,
        "channel": 0,
        "type": "noteOn",
        "noteNumber": 87,
        "velocity": 51
      },
      {
        "deltaTime": 1,
        "channel": 0,
        "type": "noteOn",
        "noteNumber": 63,
        "velocity": 44
      },
      {
        "deltaTime": 1,
        "running": true,
        "channel": 0,
        "type": "noteOn",
        "noteNumber": 60,
        "velocity": 53
      },
      {
        "deltaTime": 1,
        "channel": 0,
        "type": "noteOn",
        "noteNumber": 75,
        "velocity": 38
      },
      {
        "deltaTime": 1,
        "running": true,
        "channel": 0,
        "type": "noteOn",
        "noteNumber": 82,
        "velocity": 47
      },
      {
        "deltaTime": 0,
        "channel": 0,
        "type": "noteOn",
        "noteNumber": 53,
        "velocity": 38
      },
      {
        "deltaTime": 0,
        "running": true,
        "channel": 0,
        "type": "noteOn",
        "noteNumber": 58,
        "velocity": 33
      },
      {
        "deltaTime": 29,
        "channel": 0,
        "type": "noteOff",
        "noteNumber": 82,
        "velocity": 0,
        "byte9": true
      },
      {
        "deltaTime": 1,
        "running": true,
        "channel": 0,
        "type": "noteOff",
        "noteNumber": 87,
        "velocity": 0,
        "byte9": true
      },
      {
        "deltaTime": 0,
        "channel": 0,
        "type": "noteOff",
        "noteNumber": 53,
        "velocity": 0,
        "byte9": true
      },
      {
        "deltaTime": 2,
        "running": true,
        "channel": 0,
        "type": "noteOff",
        "noteNumber": 63,
        "velocity": 0,
        "byte9": true
      },
      {
        "deltaTime": 1,
        "channel": 0,
        "type": "noteOff",
        "noteNumber": 75,
        "velocity": 0,
        "byte9": true
      },
      {
        "deltaTime": 4,
        "channel": 0,
        "type": "noteOff",
        "noteNumber": 60,
        "velocity": 0,
        "byte9": true
      },
      {
        "deltaTime": 5,
        "running": true,
        "channel": 0,
        "type": "noteOff",
        "noteNumber": 58,
        "velocity": 0,
        "byte9": true
      },
      {
        "deltaTime": 22,
        "channel": 0,
        "type": "noteOn",
        "noteNumber": 84,
        "velocity": 48
      },
      {
        "deltaTime": 1,
        "running": true,
        "channel": 0,
        "type": "noteOn",
        "noteNumber": 72,
        "velocity": 52
      },
      {
        "deltaTime": 1,
        "channel": 0,
        "type": "noteOn",
        "noteNumber": 60,
        "velocity": 33
      },
      {
        "deltaTime": 0,
        "channel": 0,
        "type": "noteOn",
        "noteNumber": 79,
        "velocity": 37
      },
      {
        "deltaTime": 1,
        "channel": 0,
        "type": "noteOn",
        "noteNumber": 63,
        "velocity": 37
      },
      {
        "deltaTime": 1,
        "running": true,
        "channel": 0,
        "type": "noteOn",
        "noteNumber": 58,
        "velocity": 34
      },
      {
        "deltaTime": 1,
        "running": true,
        "channel": 0,
        "type": "noteOn",
        "noteNumber": 53,
        "velocity": 34
      },
      {
        "deltaTime": 40,
        "channel": 0,
        "type": "noteOff",
        "noteNumber": 84,
        "velocity": 0,
        "byte9": true
      },
      {
        "deltaTime": 0,
        "running": true,
        "channel": 0,
        "type": "noteOff",
        "noteNumber": 79,
        "velocity": 0,
        "byte9": true
      },
      {
        "deltaTime": 9,
        "channel": 0,
        "type": "noteOff",
        "noteNumber": 63,
        "velocity": 0,
        "byte9": true
      },
      {
        "deltaTime": 2,
        "channel": 0,
        "type": "noteOff",
        "noteNumber": 72,
        "velocity": 0,
        "byte9": true
      },
      {
        "deltaTime": 19,
        "channel": 0,
        "type": "noteOff",
        "noteNumber": 60,
        "velocity": 0,
        "byte9": true
      },
      {
        "deltaTime": 9,
        "running": true,
        "channel": 0,
        "type": "noteOff",
        "noteNumber": 58,
        "velocity": 0,
        "byte9": true
      },
      {
        "deltaTime": 31,
        "channel": 0,
        "type": "noteOn",
        "noteNumber": 70,
        "velocity": 74
      },
      {
        "deltaTime": 0,
        "channel": 0,
        "type": "noteOn",
        "noteNumber": 58,
        "velocity": 77
      },
      {
        "deltaTime": 1,
        "channel": 0,
        "type": "noteOn",
        "noteNumber": 67,
        "velocity": 74
      },
      {
        "deltaTime": 0,
        "running": true,
        "channel": 0,
        "type": "noteOn",
        "noteNumber": 63,
        "velocity": 77
      },
      {
        "deltaTime": 0,
        "running": true,
        "channel": 0,
        "type": "noteOn",
        "noteNumber": 60,
        "velocity": 83
      },
      {
        "deltaTime": 31,
        "channel": 0,
        "type": "noteOff",
        "noteNumber": 60,
        "velocity": 0,
        "byte9": true
      },
      {
        "deltaTime": 1,
        "running": true,
        "channel": 0,
        "type": "noteOff",
        "noteNumber": 67,
        "velocity": 0,
        "byte9": true
      },
      {
        "deltaTime": 2,
        "running": true,
        "channel": 0,
        "type": "noteOff",
        "noteNumber": 70,
        "velocity": 0,
        "byte9": true
      },
      {
        "deltaTime": 0,
        "running": true,
        "channel": 0,
        "type": "noteOff",
        "noteNumber": 63,
        "velocity": 0,
        "byte9": true
      },
      {
        "deltaTime": 2,
        "channel": 0,
        "type": "noteOff",
        "noteNumber": 53,
        "velocity": 0,
        "byte9": true
      },
      {
        "deltaTime": 0,
        "running": true,
        "channel": 0,
        "type": "noteOff",
        "noteNumber": 58,
        "velocity": 0,
        "byte9": true
      },
      {
        "deltaTime": 4,
        "channel": 0,
        "type": "noteOn",
        "noteNumber": 63,
        "velocity": 60
      },
      {
        "deltaTime": 0,
        "channel": 0,
        "type": "noteOn",
        "noteNumber": 56,
        "velocity": 60
      },
      {
        "deltaTime": 0,
        "channel": 0,
        "type": "noteOn",
        "noteNumber": 68,
        "velocity": 72
      },
      {
        "deltaTime": 1,
        "running": true,
        "channel": 0,
        "type": "noteOn",
        "noteNumber": 60,
        "velocity": 73
      },
      {
        "deltaTime": 33,
        "channel": 0,
        "type": "noteOff",
        "noteNumber": 68,
        "velocity": 0,
        "byte9": true
      },
      {
        "deltaTime": 3,
        "running": true,
        "channel": 0,
        "type": "noteOff",
        "noteNumber": 63,
        "velocity": 0,
        "byte9": true
      },
      {
        "deltaTime": 3,
        "running": true,
        "channel": 0,
        "type": "noteOff",
        "noteNumber": 60,
        "velocity": 0,
        "byte9": true
      },
      {
        "deltaTime": 16,
        "channel": 0,
        "type": "noteOff",
        "noteNumber": 56,
        "velocity": 0,
        "byte9": true
      },
      {
        "deltaTime": 22,
        "channel": 0,
        "type": "noteOn",
        "noteNumber": 67,
        "velocity": 65
      },
      {
        "deltaTime": 1,
        "channel": 0,
        "type": "noteOn",
        "noteNumber": 56,
        "velocity": 34
      },
      {
        "deltaTime": 0,
        "running": true,
        "channel": 0,
        "type": "noteOn",
        "noteNumber": 60,
        "velocity": 56
      },
      {
        "deltaTime": 1,
        "running": true,
        "channel": 0,
        "type": "noteOn",
        "noteNumber": 63,
        "velocity": 37
      },
      {
        "deltaTime": 0,
        "channel": 0,
        "type": "noteOn",
        "noteNumber": 55,
        "velocity": 52
      },
      {
        "deltaTime": 61,
        "channel": 0,
        "type": "noteOff",
        "noteNumber": 56,
        "velocity": 0,
        "byte9": true
      },
      {
        "deltaTime": 3,
        "running": true,
        "channel": 0,
        "type": "noteOff",
        "noteNumber": 60,
        "velocity": 0,
        "byte9": true
      },
      {
        "deltaTime": 12,
        "channel": 0,
        "type": "noteOff",
        "noteNumber": 55,
        "velocity": 0,
        "byte9": true
      },
      {
        "deltaTime": 1,
        "channel": 0,
        "type": "noteOff",
        "noteNumber": 63,
        "velocity": 0,
        "byte9": true
      },
      {
        "deltaTime": 6,
        "running": true,
        "channel": 0,
        "type": "noteOff",
        "noteNumber": 67,
        "velocity": 0,
        "byte9": true
      },
      {
        "deltaTime": 20,
        "running": true,
        "channel": 0,
        "type": "noteOn",
        "noteNumber": 67,
        "velocity": 55
      },
      {
        "deltaTime": 13,
        "running": true,
        "channel": 0,
        "type": "noteOff",
        "noteNumber": 67,
        "velocity": 0,
        "byte9": true
      },
      {
        "deltaTime": 11,
        "channel": 0,
        "type": "controller",
        "controllerType": 85,
        "value": 8
      },
      {
        "deltaTime": 0,
        "running": true,
        "channel": 0,
        "type": "controller",
        "controllerType": 86,
        "value": 8
      },
      {
        "deltaTime": 0,
        "channel": 0,
        "type": "noteOn",
        "noteNumber": 67,
        "velocity": 55
      },
      {
        "deltaTime": 0,
        "channel": 0,
        "type": "noteOn",
        "noteNumber": 56,
        "velocity": 30
      },
      {
        "deltaTime": 0,
        "running": true,
        "channel": 0,
        "type": "noteOn",
        "noteNumber": 60,
        "velocity": 51
      },
      {
        "deltaTime": 0,
        "running": true,
        "channel": 0,
        "type": "noteOn",
        "noteNumber": 50,
        "velocity": 47
      },
      {
        "deltaTime": 11,
        "channel": 0,
        "type": "noteOff",
        "noteNumber": 67,
        "velocity": 0,
        "byte9": true
      },
      {
        "deltaTime": 2,
        "meta": true,
        "type": "text",
        "text": "Again, adding an 'ornament', (a turn) to the melody note (G)."
      },
      {
        "deltaTime": 26,
        "running": true,
        "channel": 0,
        "type": "noteOn",
        "noteNumber": 67,
        "velocity": 73
      },
      {
        "deltaTime": 9,
        "running": true,
        "channel": 0,
        "type": "noteOff",
        "noteNumber": 67,
        "velocity": 0,
        "byte9": true
      },
      {
        "deltaTime": 16,
        "running": true,
        "channel": 0,
        "type": "noteOn",
        "noteNumber": 67,
        "velocity": 65
      },
      {
        "deltaTime": 7,
        "channel": 0,
        "type": "noteOff",
        "noteNumber": 50,
        "velocity": 0,
        "byte9": true
      },
      {
        "deltaTime": 2,
        "running": true,
        "channel": 0,
        "type": "noteOff",
        "noteNumber": 60,
        "velocity": 0,
        "byte9": true
      },
      {
        "deltaTime": 4,
        "channel": 0,
        "type": "noteOff",
        "noteNumber": 67,
        "velocity": 0,
        "byte9": true
      },
      {
        "deltaTime": 0,
        "running": true,
        "channel": 0,
        "type": "noteOn",
        "noteNumber": 68,
        "velocity": 53
      },
      {
        "deltaTime": 13,
        "running": true,
        "channel": 0,
        "type": "noteOn",
        "noteNumber": 67,
        "velocity": 31
      },
      {
        "deltaTime": 1,
        "running": true,
        "channel": 0,
        "type": "noteOff",
        "noteNumber": 68,
        "velocity": 0,
        "byte9": true
      },
      {
        "deltaTime": 10,
        "channel": 0,
        "type": "noteOff",
        "noteNumber": 56,
        "velocity": 0,
        "byte9": true
      },
      {
        "deltaTime": 1,
        "channel": 0,
        "type": "noteOff",
        "noteNumber": 67,
        "velocity": 0,
        "byte9": true
      },
      {
        "deltaTime": 0,
        "running": true,
        "channel": 0,
        "type": "noteOn",
        "noteNumber": 65,
        "velocity": 51
      },
      {
        "deltaTime": 11,
        "running": true,
        "channel": 0,
        "type": "noteOff",
        "noteNumber": 65,
        "velocity": 0,
        "byte9": true
      },
      {
        "deltaTime": 6,
        "running": true,
        "channel": 0,
        "type": "noteOn",
        "noteNumber": 67,
        "velocity": 62
      },
      {
        "deltaTime": 1,
        "channel": 0,
        "type": "controller",
        "controllerType": 85,
        "value": 8
      },
      {
        "deltaTime": 0,
        "running": true,
        "channel": 0,
        "type": "controller",
        "controllerType": 86,
        "value": 8
      },
      {
        "deltaTime": 9,
        "channel": 0,
        "type": "noteOff",
        "noteNumber": 67,
        "velocity": 0,
        "byte9": true
      },
      {
        "deltaTime": 29,
        "running": true,
        "channel": 0,
        "type": "noteOn",
        "noteNumber": 67,
        "velocity": 65
      },
      {
        "deltaTime": 7,
        "running": true,
        "channel": 0,
        "type": "noteOff",
        "noteNumber": 67,
        "velocity": 0,
        "byte9": true
      },
      {
        "deltaTime": 14,
        "running": true,
        "channel": 0,
        "type": "noteOn",
        "noteNumber": 67,
        "velocity": 64
      },
      {
        "deltaTime": 3,
        "channel": 0,
        "type": "noteOn",
        "noteNumber": 60,
        "velocity": 29
      },
      {
        "deltaTime": 5,
        "running": true,
        "channel": 0,
        "type": "noteOff",
        "noteNumber": 60,
        "velocity": 0,
        "byte9": true
      },
      {
        "deltaTime": 4,
        "channel": 0,
        "type": "noteOff",
        "noteNumber": 67,
        "velocity": 0,
        "byte9": true
      },
      {
        "deltaTime": 2,
        "running": true,
        "channel": 0,
        "type": "noteOn",
        "noteNumber": 68,
        "velocity": 49
      },
      {
        "deltaTime": 12,
        "running": true,
        "channel": 0,
        "type": "noteOn",
        "noteNumber": 67,
        "velocity": 34
      },
      {
        "deltaTime": 2,
        "running": true,
        "channel": 0,
        "type": "noteOff",
        "noteNumber": 68,
        "velocity": 0,
        "byte9": true
      },
      {
        "deltaTime": 13,
        "running": true,
        "channel": 0,
        "type": "noteOff",
        "noteNumber": 67,
        "velocity": 0,
        "byte9": true
      },
      {
        "deltaTime": 0,
        "running": true,
        "channel": 0,
        "type": "noteOn",
        "noteNumber": 65,
        "velocity": 46
      },
      {
        "deltaTime": 11,
        "channel": 0,
        "type": "noteOff",
        "noteNumber": 65,
        "velocity": 0,
        "byte9": true
      },
      {
        "deltaTime": 3,
        "channel": 0,
        "type": "noteOn",
        "noteNumber": 59,
        "velocity": 32
      },
      {
        "deltaTime": 0,
        "running": true,
        "channel": 0,
        "type": "noteOn",
        "noteNumber": 49,
        "velocity": 34
      },
      {
        "deltaTime": 1,
        "running": true,
        "channel": 0,
        "type": "noteOn",
        "noteNumber": 53,
        "velocity": 34
      },
      {
        "deltaTime": 4,
        "channel": 0,
        "type": "noteOn",
        "noteNumber": 67,
        "velocity": 44
      },
      {
        "deltaTime": 34,
        "channel": 0,
        "type": "noteOff",
        "noteNumber": 59,
        "velocity": 0,
        "byte9": true
      },
      {
        "deltaTime": 10,
        "running": true,
        "channel": 0,
        "type": "noteOff",
        "noteNumber": 53,
        "velocity": 0,
        "byte9": true
      },
      {
        "deltaTime": 10,
        "channel": 0,
        "type": "noteOff",
        "noteNumber": 67,
        "velocity": 0,
        "byte9": true
      },
      {
        "deltaTime": 8,
        "running": true,
        "channel": 0,
        "type": "noteOn",
        "noteNumber": 67,
        "velocity": 66
      },
      {
        "deltaTime": 2,
        "running": true,
        "channel": 0,
        "type": "noteOn",
        "noteNumber": 63,
        "velocity": 43
      },
      {
        "deltaTime": 0,
        "channel": 0,
        "type": "noteOn",
        "noteNumber": 59,
        "velocity": 30
      },
      {
        "deltaTime": 1,
        "running": true,
        "channel": 0,
        "type": "noteOn",
        "noteNumber": 58,
        "velocity": 31
      },
      {
        "deltaTime": 1,
        "running": true,
        "channel": 0,
        "type": "noteOn",
        "noteNumber": 53,
        "velocity": 35
      },
      {
        "deltaTime": 24,
        "running": true,
        "channel": 0,
        "type": "noteOff",
        "noteNumber": 58,
        "velocity": 0,
        "byte9": true
      },
      {
        "deltaTime": 2,
        "running": true,
        "channel": 0,
        "type": "noteOff",
        "noteNumber": 59,
        "velocity": 0,
        "byte9": true
      },
      {
        "deltaTime": 0,
        "running": true,
        "channel": 0,
        "type": "noteOff",
        "noteNumber": 53,
        "velocity": 0,
        "byte9": true
      },
      {
        "deltaTime": 9,
        "channel": 0,
        "type": "noteOff",
        "noteNumber": 63,
        "velocity": 0,
        "byte9": true
      },
      {
        "deltaTime": 5,
        "running": true,
        "channel": 0,
        "type": "noteOff",
        "noteNumber": 67,
        "velocity": 0,
        "byte9": true
      },
      {
        "deltaTime": 13,
        "channel": 0,
        "type": "noteOn",
        "noteNumber": 67,
        "velocity": 25
      },
      {
        "deltaTime": 0,
        "channel": 0,
        "type": "noteOn",
        "noteNumber": 58,
        "velocity": 47
      },
      {
        "deltaTime": 1,
        "running": true,
        "channel": 0,
        "type": "noteOn",
        "noteNumber": 59,
        "velocity": 32
      },
      {
        "deltaTime": 0,
        "running": true,
        "channel": 0,
        "type": "noteOn",
        "noteNumber": 53,
        "velocity": 36
      },
      {
        "deltaTime": 0,
        "channel": 0,
        "type": "noteOn",
        "noteNumber": 63,
        "velocity": 44
      },
      {
        "deltaTime": 64,
        "channel": 0,
        "type": "noteOff",
        "noteNumber": 49,
        "velocity": 0,
        "byte9": true
      },
      {
        "deltaTime": 20,
        "channel": 0,
        "type": "noteOff",
        "noteNumber": 67,
        "velocity": 0,
        "byte9": true
      },
      {
        "deltaTime": 1,
        "channel": 0,
        "type": "noteOff",
        "noteNumber": 59,
        "velocity": 0,
        "byte9": true
      },
      {
        "deltaTime": 2,
        "running": true,
        "channel": 0,
        "type": "noteOff",
        "noteNumber": 58,
        "velocity": 0,
        "byte9": true
      },
      {
        "deltaTime": 7,
        "channel": 0,
        "type": "noteOn",
        "noteNumber": 68,
        "velocity": 56
      },
      {
        "deltaTime": 1,
        "channel": 0,
        "type": "noteOn",
        "noteNumber": 49,
        "velocity": 28
      },
      {
        "deltaTime": 1,
        "running": true,
        "channel": 0,
        "type": "noteOff",
        "noteNumber": 53,
        "velocity": 0,
        "byte9": true
      },
      {
        "deltaTime": 6,
        "channel": 0,
        "type": "noteOff",
        "noteNumber": 63,
        "velocity": 0,
        "byte9": true
      },
      {
        "deltaTime": 3,
        "channel": 0,
        "type": "noteOff",
        "noteNumber": 49,
        "velocity": 0,
        "byte9": true
      },
      {
        "deltaTime": 7,
        "channel": 0,
        "type": "noteOff",
        "noteNumber": 68,
        "velocity": 0,
        "byte9": true
      },
      {
        "deltaTime": 11,
        "channel": 0,
        "type": "noteOn",
        "noteNumber": 58,
        "velocity": 42
      },
      {
        "deltaTime": 1,
        "channel": 0,
        "type": "noteOn",
        "noteNumber": 63,
        "velocity": 42
      },
      {
        "deltaTime": 1,
        "running": true,
        "channel": 0,
        "type": "noteOn",
        "noteNumber": 65,
        "velocity": 49
      },
      {
        "deltaTime": 2,
        "channel": 0,
        "type": "noteOn",
        "noteNumber": 48,
        "velocity": 35
      },
      {
        "deltaTime": 16,
        "channel": 0,
        "type": "noteOff",
        "noteNumber": 65,
        "velocity": 0,
        "byte9": true
      },
      {
        "deltaTime": 16,
        "running": true,
        "channel": 0,
        "type": "noteOff",
        "noteNumber": 63,
        "velocity": 0,
        "byte9": true
      },
      {
        "deltaTime": 0,
        "channel": 0,
        "type": "noteOff",
        "noteNumber": 48,
        "velocity": 0,
        "byte9": true
      },
      {
        "deltaTime": 11,
        "running": true,
        "channel": 0,
        "type": "noteOff",
        "noteNumber": 58,
        "velocity": 0,
        "byte9": true
      },
      {
        "deltaTime": 71,
        "channel": 0,
        "type": "controller",
        "controllerType": 86,
        "value": 6
      },
      {
        "deltaTime": 41,
        "channel": 0,
        "type": "noteOn",
        "noteNumber": 63,
        "velocity": 34
      },
      {
        "deltaTime": 0,
        "running": true,
        "channel": 0,
        "type": "noteOn",
        "noteNumber": 67,
        "velocity": 42
      },
      {
        "deltaTime": 0,
        "running": true,
        "channel": 0,
        "type": "noteOn",
        "noteNumber": 62,
        "velocity": 43
      },
      {
        "deltaTime": 1,
        "running": true,
        "channel": 0,
        "type": "noteOn",
        "noteNumber": 58,
        "velocity": 33
      },
      {
        "deltaTime": 34,
        "channel": 0,
        "type": "noteOff",
        "noteNumber": 62,
        "velocity": 0,
        "byte9": true
      },
      {
        "deltaTime": 2,
        "running": true,
        "channel": 0,
        "type": "noteOff",
        "noteNumber": 67,
        "velocity": 0,
        "byte9": true
      },
      {
        "deltaTime": 7,
        "channel": 0,
        "type": "noteOn",
        "noteNumber": 74,
        "velocity": 82
      },
      {
        "deltaTime": 3,
        "channel": 0,
        "type": "noteOff",
        "noteNumber": 58,
        "velocity": 0,
        "byte9": true
      },
      {
        "deltaTime": 5,
        "channel": 0,
        "type": "noteOff",
        "noteNumber": 74,
        "velocity": 0,
        "byte9": true
      },
      {
        "deltaTime": 9,
        "running": true,
        "channel": 0,
        "type": "noteOn",
        "noteNumber": 75,
        "velocity": 93
      },
      {
        "deltaTime": 1,
        "channel": 0,
        "type": "noteOff",
        "noteNumber": 63,
        "velocity": 0,
        "byte9": true
      },
      {
        "deltaTime": 12,
        "channel": 0,
        "type": "noteOff",
        "noteNumber": 75,
        "velocity": 0,
        "byte9": true
      },
      {
        "deltaTime": 6,
        "channel": 0,
        "type": "noteOn",
        "noteNumber": 67,
        "velocity": 51
      },
      {
        "deltaTime": 1,
        "channel": 0,
        "type": "noteOn",
        "noteNumber": 72,
        "velocity": 85
      },
      {
        "deltaTime": 1,
        "running": true,
        "channel": 0,
        "type": "noteOn",
        "noteNumber": 79,
        "velocity": 74
      },
      {
        "deltaTime": 0,
        "channel": 0,
        "type": "noteOn",
        "noteNumber": 56,
        "velocity": 38
      },
      {
        "deltaTime": 0,
        "running": true,
        "channel": 0,
        "type": "noteOn",
        "noteNumber": 60,
        "velocity": 54
      },
      {
        "deltaTime": 1,
        "running": true,
        "channel": 0,
        "type": "noteOn",
        "noteNumber": 63,
        "velocity": 36
      },
      {
        "deltaTime": 18,
        "channel": 0,
        "type": "noteOff",
        "noteNumber": 79,
        "velocity": 0,
        "byte9": true
      },
      {
        "deltaTime": 6,
        "running": true,
        "channel": 0,
        "type": "noteOn",
        "noteNumber": 77,
        "velocity": 54
      },
      {
        "deltaTime": 7,
        "channel": 0,
        "type": "noteOff",
        "noteNumber": 72,
        "velocity": 0,
        "byte9": true
      },
      {
        "deltaTime": 12,
        "running": true,
        "channel": 0,
        "type": "noteOff",
        "noteNumber": 77,
        "velocity": 0,
        "byte9": true
      },
      {
        "deltaTime": 20,
        "channel": 0,
        "type": "noteOff",
        "noteNumber": 67,
        "velocity": 0,
        "byte9": true
      },
      {
        "deltaTime": 7,
        "running": true,
        "channel": 0,
        "type": "noteOff",
        "noteNumber": 60,
        "velocity": 0,
        "byte9": true
      },
      {
        "deltaTime": 4,
        "running": true,
        "channel": 0,
        "type": "noteOff",
        "noteNumber": 63,
        "velocity": 0,
        "byte9": true
      },
      {
        "deltaTime": 40,
        "running": true,
        "channel": 0,
        "type": "noteOn",
        "noteNumber": 63,
        "velocity": 34
      },
      {
        "deltaTime": 1,
        "running": true,
        "channel": 0,
        "type": "noteOn",
        "noteNumber": 67,
        "velocity": 40
      },
      {
        "deltaTime": 1,
        "channel": 0,
        "type": "controller",
        "controllerType": 86,
        "value": 6
      },
      {
        "deltaTime": 2,
        "channel": 0,
        "type": "noteOn",
        "noteNumber": 60,
        "velocity": 24
      },
      {
        "deltaTime": 23,
        "running": true,
        "channel": 0,
        "type": "noteOff",
        "noteNumber": 67,
        "velocity": 0,
        "byte9": true
      },
      {
        "deltaTime": 8,
        "running": true,
        "channel": 0,
        "type": "noteOff",
        "noteNumber": 60,
        "velocity": 0,
        "byte9": true
      },
      {
        "deltaTime": 3,
        "running": true,
        "channel": 0,
        "type": "noteOff",
        "noteNumber": 63,
        "velocity": 0,
        "byte9": true
      },
      {
        "deltaTime": 2,
        "channel": 0,
        "type": "noteOn",
        "noteNumber": 75,
        "velocity": 61
      },
      {
        "deltaTime": 1,
        "running": true,
        "channel": 0,
        "type": "noteOn",
        "noteNumber": 68,
        "velocity": 63
      },
      {
        "deltaTime": 9,
        "channel": 0,
        "type": "noteOff",
        "noteNumber": 56,
        "velocity": 0,
        "byte9": true
      },
      {
        "deltaTime": 16,
        "channel": 0,
        "type": "noteOff",
        "noteNumber": 68,
        "velocity": 0,
        "byte9": true
      },
      {
        "deltaTime": 1,
        "running": true,
        "channel": 0,
        "type": "noteOff",
        "noteNumber": 75,
        "velocity": 0,
        "byte9": true
      },
      {
        "deltaTime": 6,
        "running": true,
        "channel": 0,
        "type": "noteOn",
        "noteNumber": 72,
        "velocity": 56
      },
      {
        "deltaTime": 12,
        "running": true,
        "channel": 0,
        "type": "noteOff",
        "noteNumber": 72,
        "velocity": 0,
        "byte9": true
      },
      {
        "deltaTime": 11,
        "running": true,
        "channel": 0,
        "type": "noteOn",
        "noteNumber": 68,
        "velocity": 57
      },
      {
        "deltaTime": 7,
        "channel": 0,
        "type": "noteOn",
        "noteNumber": 51,
        "velocity": 21
      },
      {
        "deltaTime": 1,
        "channel": 0,
        "type": "noteOff",
        "noteNumber": 68,
        "velocity": 0,
        "byte9": true
      },
      {
        "deltaTime": 9,
        "running": true,
        "channel": 0,
        "type": "noteOn",
        "noteNumber": 61,
        "velocity": 53
      },
      {
        "deltaTime": 1,
        "running": true,
        "channel": 0,
        "type": "noteOn",
        "noteNumber": 65,
        "velocity": 62
      },
      {
        "deltaTime": 0,
        "running": true,
        "channel": 0,
        "type": "noteOn",
        "noteNumber": 68,
        "velocity": 45
      },
      {
        "deltaTime": 1,
        "channel": 0,
        "type": "noteOn",
        "noteNumber": 58,
        "velocity": 23
      },
      {
        "deltaTime": 2,
        "running": true,
        "channel": 0,
        "type": "noteOn",
        "noteNumber": 54,
        "velocity": 25
      },
      {
        "deltaTime": 1,
        "running": true,
        "channel": 0,
        "type": "noteOn",
        "noteNumber": 56,
        "velocity": 40
      },
      {
        "deltaTime": 52,
        "channel": 0,
        "type": "noteOff",
        "noteNumber": 61,
        "velocity": 0,
        "byte9": true
      },
      {
        "deltaTime": 3,
        "running": true,
        "channel": 0,
        "type": "noteOff",
        "noteNumber": 65,
        "velocity": 0,
        "byte9": true
      },
      {
        "deltaTime": 6,
        "running": true,
        "channel": 0,
        "type": "noteOff",
        "noteNumber": 68,
        "velocity": 0,
        "byte9": true
      },
      {
        "deltaTime": 11,
        "channel": 0,
        "type": "noteOff",
        "noteNumber": 54,
        "velocity": 0,
        "byte9": true
      },
      {
        "deltaTime": 7,
        "running": true,
        "channel": 0,
        "type": "noteOff",
        "noteNumber": 58,
        "velocity": 0,
        "byte9": true
      },
      {
        "deltaTime": 14,
        "running": true,
        "channel": 0,
        "type": "noteOff",
        "noteNumber": 56,
        "velocity": 0,
        "byte9": true
      },
      {
        "deltaTime": 5,
        "channel": 0,
        "type": "noteOn",
        "noteNumber": 87,
        "velocity": 82
      },
      {
        "deltaTime": 5,
        "running": true,
        "channel": 0,
        "type": "noteOn",
        "noteNumber": 75,
        "velocity": 75
      },
      {
        "deltaTime": 14,
        "running": true,
        "channel": 0,
        "type": "noteOff",
        "noteNumber": 87,
        "velocity": 0,
        "byte9": true
      },
      {
        "deltaTime": 4,
        "running": true,
        "channel": 0,
        "type": "noteOff",
        "noteNumber": 75,
        "velocity": 0,
        "byte9": true
      },
      {
        "deltaTime": 11,
        "running": true,
        "channel": 0,
        "type": "noteOn",
        "noteNumber": 87,
        "velocity": 79
      },
      {
        "deltaTime": 2,
        "channel": 0,
        "type": "noteOn",
        "noteNumber": 58,
        "velocity": 37
      },
      {
        "deltaTime": 2,
        "running": true,
        "channel": 0,
        "type": "noteOn",
        "noteNumber": 54,
        "velocity": 25
      },
      {
        "deltaTime": 2,
        "running": true,
        "channel": 0,
        "type": "noteOn",
        "noteNumber": 56,
        "velocity": 25
      },
      {
        "deltaTime": 1,
        "channel": 0,
        "type": "noteOn",
        "noteNumber": 75,
        "velocity": 76
      },
      {
        "deltaTime": 21,
        "channel": 0,
        "type": "noteOff",
        "noteNumber": 87,
        "velocity": 0,
        "byte9": true
      },
      {
        "deltaTime": 5,
        "running": true,
        "channel": 0,
        "type": "noteOff",
        "noteNumber": 75,
        "velocity": 0,
        "byte9": true
      },
      {
        "deltaTime": 15,
        "running": true,
        "channel": 0,
        "type": "noteOn",
        "noteNumber": 87,
        "velocity": 62
      },
      {
        "deltaTime": 1,
        "running": true,
        "channel": 0,
        "type": "noteOn",
        "noteNumber": 75,
        "velocity": 53
      },
      {
        "deltaTime": 12,
        "channel": 0,
        "type": "noteOff",
        "noteNumber": 51,
        "velocity": 0,
        "byte9": true
      },
      {
        "deltaTime": 5,
        "running": true,
        "channel": 0,
        "type": "noteOff",
        "noteNumber": 58,
        "velocity": 0,
        "byte9": true
      },
      {
        "deltaTime": 0,
        "running": true,
        "channel": 0,
        "type": "noteOff",
        "noteNumber": 54,
        "velocity": 0,
        "byte9": true
      },
      {
        "deltaTime": 3,
        "channel": 0,
        "type": "noteOff",
        "noteNumber": 87,
        "velocity": 0,
        "byte9": true
      },
      {
        "deltaTime": 0,
        "running": true,
        "channel": 0,
        "type": "noteOff",
        "noteNumber": 75,
        "velocity": 0,
        "byte9": true
      },
      {
        "deltaTime": 4,
        "channel": 0,
        "type": "noteOff",
        "noteNumber": 56,
        "velocity": 0,
        "byte9": true
      },
      {
        "deltaTime": 17,
        "channel": 0,
        "type": "noteOn",
        "noteNumber": 87,
        "velocity": 61
      },
      {
        "deltaTime": 1,
        "running": true,
        "channel": 0,
        "type": "noteOn",
        "noteNumber": 75,
        "velocity": 48
      },
      {
        "deltaTime": 5,
        "running": true,
        "channel": 0,
        "type": "noteOff",
        "noteNumber": 75,
        "velocity": 0,
        "byte9": true
      },
      {
        "deltaTime": 5,
        "running": true,
        "channel": 0,
        "type": "noteOff",
        "noteNumber": 87,
        "velocity": 0,
        "byte9": true
      },
      {
        "deltaTime": 27,
        "running": true,
        "channel": 0,
        "type": "noteOn",
        "noteNumber": 89,
        "velocity": 57
      },
      {
        "deltaTime": 3,
        "channel": 0,
        "type": "noteOn",
        "noteNumber": 86,
        "velocity": 60
      },
      {
        "deltaTime": 0,
        "channel": 0,
        "type": "noteOn",
        "noteNumber": 54,
        "velocity": 48
      },
      {
        "deltaTime": 1,
        "running": true,
        "channel": 0,
        "type": "noteOn",
        "noteNumber": 65,
        "velocity": 57
      },
      {
        "deltaTime": 1,
        "running": true,
        "channel": 0,
        "type": "noteOn",
        "noteNumber": 60,
        "velocity": 40
      },
      {
        "deltaTime": 1,
        "channel": 0,
        "type": "noteOn",
        "noteNumber": 77,
        "velocity": 66
      },
      {
        "deltaTime": 19,
        "channel": 0,
        "type": "noteOff",
        "noteNumber": 86,
        "velocity": 0,
        "byte9": true
      },
      {
        "deltaTime": 1,
        "running": true,
        "channel": 0,
        "type": "noteOff",
        "noteNumber": 89,
        "velocity": 0,
        "byte9": true
      },
      {
        "deltaTime": 6,
        "running": true,
        "channel": 0,
        "type": "noteOff",
        "noteNumber": 77,
        "velocity": 0,
        "byte9": true
      },
      {
        "deltaTime": 10,
        "channel": 0,
        "type": "noteOff",
        "noteNumber": 65,
        "velocity": 0,
        "byte9": true
      },
      {
        "deltaTime": 5,
        "running": true,
        "channel": 0,
        "type": "noteOff",
        "noteNumber": 54,
        "velocity": 0,
        "byte9": true
      },
      {
        "deltaTime": 1,
        "running": true,
        "channel": 0,
        "type": "noteOff",
        "noteNumber": 60,
        "velocity": 0,
        "byte9": true
      },
      {
        "deltaTime": 101,
        "channel": 0,
        "type": "noteOn",
        "noteNumber": 78,
        "velocity": 65
      },
      {
        "deltaTime": 1,
        "channel": 0,
        "type": "noteOn",
        "noteNumber": 74,
        "velocity": 73
      },
      {
        "deltaTime": 0,
        "running": true,
        "channel": 0,
        "type": "noteOn",
        "noteNumber": 86,
        "velocity": 61
      },
      {
        "deltaTime": 0,
        "running": true,
        "channel": 0,
        "type": "noteOn",
        "noteNumber": 81,
        "velocity": 63
      },
      {
        "deltaTime": 1,
        "channel": 0,
        "type": "noteOn",
        "noteNumber": 54,
        "velocity": 64
      },
      {
        "deltaTime": 0,
        "running": true,
        "channel": 0,
        "type": "noteOn",
        "noteNumber": 60,
        "velocity": 64
      },
      {
        "deltaTime": 0,
        "running": true,
        "channel": 0,
        "type": "noteOn",
        "noteNumber": 65,
        "velocity": 71
      },
      {
        "deltaTime": 8,
        "channel": 0,
        "type": "noteOff",
        "noteNumber": 74,
        "velocity": 0,
        "byte9": true
      },
      {
        "deltaTime": 3,
        "running": true,
        "channel": 0,
        "type": "noteOff",
        "noteNumber": 78,
        "velocity": 0,
        "byte9": true
      },
      {
        "deltaTime": 0,
        "channel": 0,
        "type": "noteOff",
        "noteNumber": 65,
        "velocity": 0,
        "byte9": true
      },
      {
        "deltaTime": 1,
        "channel": 0,
        "type": "noteOff",
        "noteNumber": 81,
        "velocity": 0,
        "byte9": true
      },
      {
        "deltaTime": 3,
        "running": true,
        "channel": 0,
        "type": "noteOff",
        "noteNumber": 86,
        "velocity": 0,
        "byte9": true
      },
      {
        "deltaTime": 0,
        "channel": 0,
        "type": "noteOff",
        "noteNumber": 60,
        "velocity": 0,
        "byte9": true
      },
      {
        "deltaTime": 2,
        "running": true,
        "channel": 0,
        "type": "noteOff",
        "noteNumber": 54,
        "velocity": 0,
        "byte9": true
      },
      {
        "deltaTime": 21,
        "channel": 0,
        "type": "noteOn",
        "noteNumber": 96,
        "velocity": 88
      },
      {
        "deltaTime": 0,
        "channel": 0,
        "type": "noteOn",
        "noteNumber": 54,
        "velocity": 69
      },
      {
        "deltaTime": 0,
        "channel": 0,
        "type": "noteOn",
        "noteNumber": 91,
        "velocity": 77
      },
      {
        "deltaTime": 0,
        "channel": 0,
        "type": "noteOn",
        "noteNumber": 60,
        "velocity": 70
      },
      {
        "deltaTime": 0,
        "channel": 0,
        "type": "noteOn",
        "noteNumber": 84,
        "velocity": 74
      },
      {
        "deltaTime": 1,
        "channel": 0,
        "type": "noteOn",
        "noteNumber": 65,
        "velocity": 71
      },
      {
        "deltaTime": 7,
        "running": true,
        "channel": 0,
        "type": "noteOff",
        "noteNumber": 65,
        "velocity": 0,
        "byte9": true
      },
      {
        "deltaTime": 2,
        "channel": 0,
        "type": "noteOff",
        "noteNumber": 91,
        "velocity": 0,
        "byte9": true
      },
      {
        "deltaTime": 2,
        "channel": 0,
        "type": "noteOff",
        "noteNumber": 96,
        "velocity": 0,
        "byte9": true
      },
      {
        "deltaTime": 2,
        "channel": 0,
        "type": "noteOff",
        "noteNumber": 60,
        "velocity": 0,
        "byte9": true
      },
      {
        "deltaTime": 0,
        "channel": 0,
        "type": "noteOff",
        "noteNumber": 84,
        "velocity": 0,
        "byte9": true
      },
      {
        "deltaTime": 6,
        "channel": 0,
        "type": "noteOff",
        "noteNumber": 54,
        "velocity": 0,
        "byte9": true
      },
      {
        "deltaTime": 19,
        "channel": 0,
        "type": "noteOn",
        "noteNumber": 92,
        "velocity": 60
      },
      {
        "deltaTime": 1,
        "running": true,
        "channel": 0,
        "type": "noteOn",
        "noteNumber": 87,
        "velocity": 71
      },
      {
        "deltaTime": 1,
        "channel": 0,
        "type": "noteOn",
        "noteNumber": 63,
        "velocity": 45
      },
      {
        "deltaTime": 0,
        "channel": 0,
        "type": "noteOn",
        "noteNumber": 80,
        "velocity": 43
      },
      {
        "deltaTime": 0,
        "channel": 0,
        "type": "noteOn",
        "noteNumber": 60,
        "velocity": 57
      },
      {
        "deltaTime": 1,
        "running": true,
        "channel": 0,
        "type": "noteOn",
        "noteNumber": 56,
        "velocity": 45
      },
      {
        "deltaTime": 0,
        "running": true,
        "channel": 0,
        "type": "noteOn",
        "noteNumber": 53,
        "velocity": 43
      },
      {
        "deltaTime": 17,
        "channel": 0,
        "type": "noteOff",
        "noteNumber": 87,
        "velocity": 0,
        "byte9": true
      },
      {
        "deltaTime": 1,
        "running": true,
        "channel": 0,
        "type": "noteOff",
        "noteNumber": 92,
        "velocity": 0,
        "byte9": true
      },
      {
        "deltaTime": 2,
        "channel": 0,
        "type": "noteOff",
        "noteNumber": 53,
        "velocity": 0,
        "byte9": true
      },
      {
        "deltaTime": 3,
        "channel": 0,
        "type": "noteOff",
        "noteNumber": 80,
        "velocity": 0,
        "byte9": true
      },
      {
        "deltaTime": 1,
        "channel": 0,
        "type": "noteOff",
        "noteNumber": 63,
        "velocity": 0,
        "byte9": true
      },
      {
        "deltaTime": 2,
        "running": true,
        "channel": 0,
        "type": "noteOff",
        "noteNumber": 60,
        "velocity": 0,
        "byte9": true
      },
      {
        "deltaTime": 1,
        "running": true,
        "channel": 0,
        "type": "noteOff",
        "noteNumber": 56,
        "velocity": 0,
        "byte9": true
      },
      {
        "deltaTime": 11,
        "channel": 0,
        "type": "noteOn",
        "noteNumber": 89,
        "velocity": 55
      },
      {
        "deltaTime": 1,
        "channel": 0,
        "type": "noteOn",
        "noteNumber": 63,
        "velocity": 48
      },
      {
        "deltaTime": 0,
        "running": true,
        "channel": 0,
        "type": "noteOn",
        "noteNumber": 60,
        "velocity": 37
      },
      {
        "deltaTime": 1,
        "channel": 0,
        "type": "noteOn",
        "noteNumber": 77,
        "velocity": 38
      },
      {
        "deltaTime": 0,
        "running": true,
        "channel": 0,
        "type": "noteOn",
        "noteNumber": 84,
        "velocity": 49
      },
      {
        "deltaTime": 0,
        "channel": 0,
        "type": "noteOn",
        "noteNumber": 53,
        "velocity": 36
      },
      {
        "deltaTime": 2,
        "running": true,
        "channel": 0,
        "type": "noteOn",
        "noteNumber": 56,
        "velocity": 27
      },
      {
        "deltaTime": 18,
        "channel": 0,
        "type": "noteOff",
        "noteNumber": 89,
        "velocity": 0,
        "byte9": true
      },
      {
        "deltaTime": 2,
        "running": true,
        "channel": 0,
        "type": "noteOff",
        "noteNumber": 84,
        "velocity": 0,
        "byte9": true
      },
      {
        "deltaTime": 8,
        "running": true,
        "channel": 0,
        "type": "noteOff",
        "noteNumber": 77,
        "velocity": 0,
        "byte9": true
      },
      {
        "deltaTime": 1,
        "channel": 0,
        "type": "noteOff",
        "noteNumber": 53,
        "velocity": 0,
        "byte9": true
      },
      {
        "deltaTime": 1,
        "running": true,
        "channel": 0,
        "type": "noteOff",
        "noteNumber": 63,
        "velocity": 0,
        "byte9": true
      },
      {
        "deltaTime": 20,
        "running": true,
        "channel": 0,
        "type": "noteOff",
        "noteNumber": 60,
        "velocity": 0,
        "byte9": true
      },
      {
        "deltaTime": 3,
        "running": true,
        "channel": 0,
        "type": "noteOff",
        "noteNumber": 56,
        "velocity": 0,
        "byte9": true
      },
      {
        "deltaTime": 16,
        "channel": 0,
        "type": "noteOn",
        "noteNumber": 84,
        "velocity": 46
      },
      {
        "deltaTime": 0,
        "channel": 0,
        "type": "noteOn",
        "noteNumber": 63,
        "velocity": 34
      },
      {
        "deltaTime": 1,
        "channel": 0,
        "type": "noteOn",
        "noteNumber": 80,
        "velocity": 29
      },
      {
        "deltaTime": 0,
        "channel": 0,
        "type": "noteOn",
        "noteNumber": 56,
        "velocity": 25
      },
      {
        "deltaTime": 1,
        "channel": 0,
        "type": "controller",
        "controllerType": 86,
        "value": 6
      },
      {
        "deltaTime": 0,
        "channel": 0,
        "type": "noteOn",
        "noteNumber": 72,
        "velocity": 30
      },
      {
        "deltaTime": 0,
        "channel": 0,
        "type": "noteOn",
        "noteNumber": 60,
        "velocity": 39
      },
      {
        "deltaTime": 1,
        "channel": 0,
        "type": "noteOn",
        "noteNumber": 77,
        "velocity": 34
      },
      {
        "deltaTime": 42,
        "channel": 0,
        "type": "noteOff",
        "noteNumber": 84,
        "velocity": 0,
        "byte9": true
      },
      {
        "deltaTime": 2,
        "channel": 0,
        "type": "noteOn",
        "noteNumber": 53,
        "velocity": 50
      },
      {
        "deltaTime": 2,
        "channel": 0,
        "type": "noteOff",
        "noteNumber": 77,
        "velocity": 0,
        "byte9": true
      },
      {
        "deltaTime": 1,
        "running": true,
        "channel": 0,
        "type": "noteOff",
        "noteNumber": 80,
        "velocity": 0,
        "byte9": true
      },
      {
        "deltaTime": 5,
        "running": true,
        "channel": 0,
        "type": "noteOff",
        "noteNumber": 72,
        "velocity": 0,
        "byte9": true
      },
      {
        "deltaTime": 28,
        "channel": 0,
        "type": "noteOff",
        "noteNumber": 53,
        "velocity": 0,
        "byte9": true
      },
      {
        "deltaTime": 5,
        "running": true,
        "channel": 0,
        "type": "noteOff",
        "noteNumber": 60,
        "velocity": 0,
        "byte9": true
      },
      {
        "deltaTime": 2,
        "running": true,
        "channel": 0,
        "type": "noteOff",
        "noteNumber": 63,
        "velocity": 0,
        "byte9": true
      },
      {
        "deltaTime": 0,
        "channel": 0,
        "type": "noteOn",
        "noteNumber": 72,
        "velocity": 64
      },
      {
        "deltaTime": 10,
        "running": true,
        "channel": 0,
        "type": "noteOff",
        "noteNumber": 72,
        "velocity": 0,
        "byte9": true
      },
      {
        "deltaTime": 5,
        "channel": 0,
        "type": "noteOff",
        "noteNumber": 56,
        "velocity": 0,
        "byte9": true
      },
      {
        "deltaTime": 1,
        "channel": 0,
        "type": "noteOn",
        "noteNumber": 73,
        "velocity": 55
      },
      {
        "deltaTime": 14,
        "running": true,
        "channel": 0,
        "type": "noteOff",
        "noteNumber": 73,
        "velocity": 0,
        "byte9": true
      },
      {
        "deltaTime": 2,
        "channel": 0,
        "type": "controller",
        "controllerType": 85,
        "value": 6
      },
      {
        "deltaTime": 0,
        "running": true,
        "channel": 0,
        "type": "controller",
        "controllerType": 86,
        "value": 6
      },
      {
        "deltaTime": 4,
        "channel": 0,
        "type": "noteOn",
        "noteNumber": 68,
        "velocity": 53
      },
      {
        "deltaTime": 0,
        "running": true,
        "channel": 0,
        "type": "noteOn",
        "noteNumber": 72,
        "velocity": 55
      },
      {
        "deltaTime": 1,
        "running": true,
        "channel": 0,
        "type": "noteOn",
        "noteNumber": 75,
        "velocity": 61
      },
      {
        "deltaTime": 0,
        "channel": 0,
        "type": "noteOn",
        "noteNumber": 63,
        "velocity": 55
      },
      {
        "deltaTime": 0,
        "channel": 0,
        "type": "noteOn",
        "noteNumber": 64,
        "velocity": 51
      },
      {
        "deltaTime": 19,
        "channel": 0,
        "type": "noteOff",
        "noteNumber": 72,
        "velocity": 0,
        "byte9": true
      },
      {
        "deltaTime": 0,
        "running": true,
        "channel": 0,
        "type": "noteOff",
        "noteNumber": 64,
        "velocity": 0,
        "byte9": true
      },
      {
        "deltaTime": 2,
        "running": true,
        "channel": 0,
        "type": "noteOff",
        "noteNumber": 75,
        "velocity": 0,
        "byte9": true
      },
      {
        "deltaTime": 1,
        "running": true,
        "channel": 0,
        "type": "noteOff",
        "noteNumber": 68,
        "velocity": 0,
        "byte9": true
      },
      {
        "deltaTime": 3,
        "channel": 0,
        "type": "noteOn",
        "noteNumber": 61,
        "velocity": 38
      },
      {
        "deltaTime": 1,
        "running": true,
        "channel": 0,
        "type": "noteOff",
        "noteNumber": 63,
        "velocity": 0,
        "byte9": true
      },
      {
        "deltaTime": 1,
        "channel": 0,
        "type": "noteOn",
        "noteNumber": 73,
        "velocity": 23
      },
      {
        "deltaTime": 10,
        "running": true,
        "channel": 0,
        "type": "noteOff",
        "noteNumber": 73,
        "velocity": 0,
        "byte9": true
      },
      {
        "deltaTime": 9,
        "running": true,
        "channel": 0,
        "type": "noteOn",
        "noteNumber": 64,
        "velocity": 45
      },
      {
        "deltaTime": 0,
        "running": true,
        "channel": 0,
        "type": "noteOn",
        "noteNumber": 68,
        "velocity": 37
      },
      {
        "deltaTime": 0,
        "running": true,
        "channel": 0,
        "type": "noteOn",
        "noteNumber": 75,
        "velocity": 51
      },
      {
        "deltaTime": 1,
        "channel": 0,
        "type": "noteOff",
        "noteNumber": 61,
        "velocity": 0,
        "byte9": true
      },
      {
        "deltaTime": 0,
        "channel": 0,
        "type": "noteOn",
        "noteNumber": 72,
        "velocity": 46
      },
      {
        "deltaTime": 0,
        "channel": 0,
        "type": "noteOn",
        "noteNumber": 63,
        "velocity": 46
      },
      {
        "deltaTime": 58,
        "channel": 0,
        "type": "noteOff",
        "noteNumber": 64,
        "velocity": 0,
        "byte9": true
      },
      {
        "deltaTime": 4,
        "running": true,
        "channel": 0,
        "type": "noteOff",
        "noteNumber": 68,
        "velocity": 0,
        "byte9": true
      },
      {
        "deltaTime": 0,
        "running": true,
        "channel": 0,
        "type": "noteOff",
        "noteNumber": 72,
        "velocity": 0,
        "byte9": true
      },
      {
        "deltaTime": 6,
        "channel": 0,
        "type": "controller",
        "controllerType": 86,
        "value": 4
      },
      {
        "deltaTime": 3,
        "channel": 0,
        "type": "noteOff",
        "noteNumber": 75,
        "velocity": 0,
        "byte9": true
      },
      {
        "deltaTime": 8,
        "running": true,
        "channel": 0,
        "type": "noteOn",
        "noteNumber": 64,
        "velocity": 44
      },
      {
        "deltaTime": 1,
        "running": true,
        "channel": 0,
        "type": "noteOn",
        "noteNumber": 73,
        "velocity": 31
      },
      {
        "deltaTime": 0,
        "running": true,
        "channel": 0,
        "type": "noteOn",
        "noteNumber": 68,
        "velocity": 42
      },
      {
        "deltaTime": 2,
        "channel": 0,
        "type": "noteOff",
        "noteNumber": 63,
        "velocity": 0,
        "byte9": true
      },
      {
        "deltaTime": 0,
        "running": true,
        "channel": 0,
        "type": "noteOn",
        "noteNumber": 61,
        "velocity": 37
      },
      {
        "deltaTime": 52,
        "channel": 0,
        "type": "noteOff",
        "noteNumber": 61,
        "velocity": 0,
        "byte9": true
      },
      {
        "deltaTime": 24,
        "channel": 0,
        "type": "noteOff",
        "noteNumber": 64,
        "velocity": 0,
        "byte9": true
      },
      {
        "deltaTime": 0,
        "running": true,
        "channel": 0,
        "type": "noteOff",
        "noteNumber": 73,
        "velocity": 0,
        "byte9": true
      },
      {
        "deltaTime": 0,
        "running": true,
        "channel": 0,
        "type": "noteOff",
        "noteNumber": 68,
        "velocity": 0,
        "byte9": true
      },
      {
        "deltaTime": 5,
        "running": true,
        "channel": 0,
        "type": "noteOn",
        "noteNumber": 72,
        "velocity": 53
      },
      {
        "deltaTime": 14,
        "running": true,
        "channel": 0,
        "type": "noteOff",
        "noteNumber": 72,
        "velocity": 0,
        "byte9": true
      },
      {
        "deltaTime": 11,
        "channel": 0,
        "type": "controller",
        "controllerType": 86,
        "value": 4
      },
      {
        "deltaTime": 4,
        "channel": 0,
        "type": "noteOn",
        "noteNumber": 63,
        "velocity": 49
      },
      {
        "deltaTime": 0,
        "running": true,
        "channel": 0,
        "type": "noteOn",
        "noteNumber": 75,
        "velocity": 49
      },
      {
        "deltaTime": 1,
        "running": true,
        "channel": 0,
        "type": "noteOn",
        "noteNumber": 72,
        "velocity": 46
      },
      {
        "deltaTime": 1,
        "running": true,
        "channel": 0,
        "type": "noteOn",
        "noteNumber": 70,
        "velocity": 49
      },
      {
        "deltaTime": 1,
        "channel": 0,
        "type": "noteOn",
        "noteNumber": 58,
        "velocity": 27
      },
      {
        "deltaTime": 3,
        "running": true,
        "channel": 0,
        "type": "noteOn",
        "noteNumber": 48,
        "velocity": 30
      },
      {
        "deltaTime": 43,
        "channel": 0,
        "type": "noteOff",
        "noteNumber": 75,
        "velocity": 0,
        "byte9": true
      },
      {
        "deltaTime": 1,
        "running": true,
        "channel": 0,
        "type": "noteOff",
        "noteNumber": 72,
        "velocity": 0,
        "byte9": true
      },
      {
        "deltaTime": 1,
        "running": true,
        "channel": 0,
        "type": "noteOff",
        "noteNumber": 70,
        "velocity": 0,
        "byte9": true
      },
      {
        "deltaTime": 9,
        "running": true,
        "channel": 0,
        "type": "noteOff",
        "noteNumber": 63,
        "velocity": 0,
        "byte9": true
      },
      {
        "deltaTime": 6,
        "channel": 0,
        "type": "noteOff",
        "noteNumber": 58,
        "velocity": 0,
        "byte9": true
      },
      {
        "deltaTime": 7,
        "meta": true,
        "type": "text",
        "text": "On Cm7b5 running up the Locrian (i.e. Db Maj scale)-"
      },
      {
        "deltaTime": 41,
        "channel": 0,
        "type": "noteOn",
        "noteNumber": 54,
        "velocity": 46
      },
      {
        "deltaTime": 12,
        "channel": 0,
        "type": "noteOff",
        "noteNumber": 54,
        "velocity": 0,
        "byte9": true
      },
      {
        "deltaTime": 0,
        "running": true,
        "channel": 0,
        "type": "noteOn",
        "noteNumber": 56,
        "velocity": 30
      },
      {
        "deltaTime": 6,
        "running": true,
        "channel": 0,
        "type": "noteOn",
        "noteNumber": 58,
        "velocity": 58
      },
      {
        "deltaTime": 5,
        "running": true,
        "channel": 0,
        "type": "noteOff",
        "noteNumber": 56,
        "velocity": 0,
        "byte9": true
      },
      {
        "deltaTime": 2,
        "running": true,
        "channel": 0,
        "type": "noteOff",
        "noteNumber": 58,
        "velocity": 0,
        "byte9": true
      },
      {
        "deltaTime": 4,
        "running": true,
        "channel": 0,
        "type": "noteOn",
        "noteNumber": 60,
        "velocity": 58
      },
      {
        "deltaTime": 7,
        "running": true,
        "channel": 0,
        "type": "noteOff",
        "noteNumber": 60,
        "velocity": 0,
        "byte9": true
      },
      {
        "deltaTime": 2,
        "running": true,
        "channel": 0,
        "type": "noteOn",
        "noteNumber": 61,
        "velocity": 50
      },
      {
        "deltaTime": 9,
        "channel": 0,
        "type": "noteOff",
        "noteNumber": 48,
        "velocity": 0,
        "byte9": true
      },
      {
        "deltaTime": 0,
        "channel": 0,
        "type": "noteOff",
        "noteNumber": 61,
        "velocity": 0,
        "byte9": true
      },
      {
        "deltaTime": 4,
        "running": true,
        "channel": 0,
        "type": "noteOn",
        "noteNumber": 63,
        "velocity": 35
      },
      {
        "deltaTime": 4,
        "running": true,
        "channel": 0,
        "type": "noteOff",
        "noteNumber": 63,
        "velocity": 0,
        "byte9": true
      },
      {
        "deltaTime": 7,
        "running": true,
        "channel": 0,
        "type": "noteOn",
        "noteNumber": 65,
        "velocity": 60
      },
      {
        "deltaTime": 6,
        "running": true,
        "channel": 0,
        "type": "noteOff",
        "noteNumber": 65,
        "velocity": 0,
        "byte9": true
      },
      {
        "deltaTime": 4,
        "running": true,
        "channel": 0,
        "type": "noteOn",
        "noteNumber": 66,
        "velocity": 38
      },
      {
        "deltaTime": 11,
        "running": true,
        "channel": 0,
        "type": "noteOff",
        "noteNumber": 66,
        "velocity": 0,
        "byte9": true
      },
      {
        "deltaTime": 1,
        "running": true,
        "channel": 0,
        "type": "noteOn",
        "noteNumber": 68,
        "velocity": 36
      },
      {
        "deltaTime": 6,
        "running": true,
        "channel": 0,
        "type": "noteOff",
        "noteNumber": 68,
        "velocity": 0,
        "byte9": true
      },
      {
        "deltaTime": 4,
        "running": true,
        "channel": 0,
        "type": "noteOn",
        "noteNumber": 70,
        "velocity": 42
      },
      {
        "deltaTime": 4,
        "running": true,
        "channel": 0,
        "type": "noteOff",
        "noteNumber": 70,
        "velocity": 0,
        "byte9": true
      },
      {
        "deltaTime": 8,
        "running": true,
        "channel": 0,
        "type": "noteOn",
        "noteNumber": 72,
        "velocity": 46
      },
      {
        "deltaTime": 4,
        "running": true,
        "channel": 0,
        "type": "noteOff",
        "noteNumber": 72,
        "velocity": 0,
        "byte9": true
      },
      {
        "deltaTime": 5,
        "running": true,
        "channel": 0,
        "type": "noteOn",
        "noteNumber": 73,
        "velocity": 33
      },
      {
        "deltaTime": 7,
        "channel": 0,
        "type": "controller",
        "controllerType": 86,
        "value": 12
      },
      {
        "deltaTime": 2,
        "channel": 0,
        "type": "noteOff",
        "noteNumber": 73,
        "velocity": 0,
        "byte9": true
      },
      {
        "deltaTime": 1,
        "running": true,
        "channel": 0,
        "type": "noteOn",
        "noteNumber": 75,
        "velocity": 68
      },
      {
        "deltaTime": 8,
        "running": true,
        "channel": 0,
        "type": "noteOff",
        "noteNumber": 75,
        "velocity": 0,
        "byte9": true
      },
      {
        "deltaTime": 14,
        "running": true,
        "channel": 0,
        "type": "noteOn",
        "noteNumber": 77,
        "velocity": 57
      },
      {
        "deltaTime": 9,
        "running": true,
        "channel": 0,
        "type": "noteOff",
        "noteNumber": 77,
        "velocity": 0,
        "byte9": true
      },
      {
        "deltaTime": 16,
        "running": true,
        "channel": 0,
        "type": "noteOn",
        "noteNumber": 73,
        "velocity": 57
      },
      {
        "deltaTime": 8,
        "running": true,
        "channel": 0,
        "type": "noteOff",
        "noteNumber": 73,
        "velocity": 0,
        "byte9": true
      },
      {
        "deltaTime": 13,
        "running": true,
        "channel": 0,
        "type": "noteOn",
        "noteNumber": 72,
        "velocity": 68
      },
      {
        "deltaTime": 8,
        "running": true,
        "channel": 0,
        "type": "noteOff",
        "noteNumber": 72,
        "velocity": 0,
        "byte9": true
      },
      {
        "deltaTime": 12,
        "running": true,
        "channel": 0,
        "type": "noteOn",
        "noteNumber": 70,
        "velocity": 58
      },
      {
        "deltaTime": 9,
        "running": true,
        "channel": 0,
        "type": "noteOff",
        "noteNumber": 70,
        "velocity": 0,
        "byte9": true
      },
      {
        "deltaTime": 16,
        "running": true,
        "channel": 0,
        "type": "noteOn",
        "noteNumber": 69,
        "velocity": 65
      },
      {
        "deltaTime": 1,
        "channel": 0,
        "type": "noteOn",
        "noteNumber": 66,
        "velocity": 27
      },
      {
        "deltaTime": 1,
        "running": true,
        "channel": 0,
        "type": "noteOn",
        "noteNumber": 63,
        "velocity": 31
      },
      {
        "deltaTime": 0,
        "running": true,
        "channel": 0,
        "type": "noteOn",
        "noteNumber": 61,
        "velocity": 37
      },
      {
        "deltaTime": 2,
        "channel": 0,
        "type": "controller",
        "controllerType": 85,
        "value": 4
      },
      {
        "deltaTime": 0,
        "running": true,
        "channel": 0,
        "type": "controller",
        "controllerType": 86,
        "value": 4
      },
      {
        "deltaTime": 1,
        "channel": 0,
        "type": "noteOn",
        "noteNumber": 57,
        "velocity": 38
      },
      {
        "deltaTime": 18,
        "channel": 0,
        "type": "noteOff",
        "noteNumber": 69,
        "velocity": 0,
        "byte9": true
      },
      {
        "deltaTime": 5,
        "running": true,
        "channel": 0,
        "type": "noteOn",
        "noteNumber": 72,
        "velocity": 59
      },
      {
        "deltaTime": 19,
        "channel": 0,
        "type": "noteOff",
        "noteNumber": 72,
        "velocity": 0,
        "byte9": true
      },
      {
        "deltaTime": 4,
        "channel": 0,
        "type": "noteOff",
        "noteNumber": 66,
        "velocity": 0,
        "byte9": true
      },
      {
        "deltaTime": 4,
        "channel": 0,
        "type": "noteOn",
        "noteNumber": 70,
        "velocity": 69
      },
      {
        "deltaTime": 1,
        "channel": 0,
        "type": "noteOff",
        "noteNumber": 57,
        "velocity": 0,
        "byte9": true
      },
      {
        "deltaTime": 6,
        "running": true,
        "channel": 0,
        "type": "noteOff",
        "noteNumber": 63,
        "velocity": 0,
        "byte9": true
      },
      {
        "deltaTime": 7,
        "channel": 0,
        "type": "noteOff",
        "noteNumber": 70,
        "velocity": 0,
        "byte9": true
      },
      {
        "deltaTime": 1,
        "channel": 0,
        "type": "noteOff",
        "noteNumber": 61,
        "velocity": 0,
        "byte9": true
      },
      {
        "deltaTime": 13,
        "channel": 0,
        "type": "noteOn",
        "noteNumber": 69,
        "velocity": 62
      },
      {
        "deltaTime": 18,
        "running": true,
        "channel": 0,
        "type": "noteOff",
        "noteNumber": 69,
        "velocity": 0,
        "byte9": true
      },
      {
        "deltaTime": 11,
        "channel": 0,
        "type": "noteOn",
        "noteNumber": 65,
        "velocity": 47
      },
      {
        "deltaTime": 0,
        "channel": 0,
        "type": "noteOn",
        "noteNumber": 70,
        "velocity": 63
      },
      {
        "deltaTime": 0,
        "channel": 0,
        "type": "noteOn",
        "noteNumber": 61,
        "velocity": 29
      },
      {
        "deltaTime": 3,
        "channel": 0,
        "type": "noteOn",
        "noteNumber": 60,
        "velocity": 33
      },
      {
        "deltaTime": 1,
        "running": true,
        "channel": 0,
        "type": "noteOn",
        "noteNumber": 56,
        "velocity": 19
      },
      {
        "deltaTime": 40,
        "channel": 0,
        "type": "noteOff",
        "noteNumber": 65,
        "velocity": 0,
        "byte9": true
      },
      {
        "deltaTime": 4,
        "channel": 0,
        "type": "noteOff",
        "noteNumber": 70,
        "velocity": 0,
        "byte9": true
      },
      {
        "deltaTime": 5,
        "channel": 0,
        "type": "noteOff",
        "noteNumber": 60,
        "velocity": 0,
        "byte9": true
      },
      {
        "deltaTime": 1,
        "running": true,
        "channel": 0,
        "type": "noteOff",
        "noteNumber": 61,
        "velocity": 0,
        "byte9": true
      },
      {
        "deltaTime": 11,
        "running": true,
        "channel": 0,
        "type": "noteOff",
        "noteNumber": 56,
        "velocity": 0,
        "byte9": true
      },
      {
        "deltaTime": 67,
        "channel": 0,
        "type": "controller",
        "controllerType": 85,
        "value": 2
      },
      {
        "deltaTime": 0,
        "running": true,
        "channel": 0,
        "type": "controller",
        "controllerType": 86,
        "value": 2
      },
      {
        "deltaTime": 0,
        "channel": 0,
        "type": "noteOn",
        "noteNumber": 73,
        "velocity": 59
      },
      {
        "deltaTime": 0,
        "channel": 0,
        "type": "noteOn",
        "noteNumber": 61,
        "velocity": 78
      },
      {
        "deltaTime": 0,
        "running": true,
        "channel": 0,
        "type": "noteOn",
        "noteNumber": 57,
        "velocity": 78
      },
      {
        "deltaTime": 1,
        "channel": 0,
        "type": "noteOn",
        "noteNumber": 68,
        "velocity": 71
      },
      {
        "deltaTime": 34,
        "channel": 0,
        "type": "noteOff",
        "noteNumber": 73,
        "velocity": 0,
        "byte9": true
      },
      {
        "deltaTime": 0,
        "running": true,
        "channel": 0,
        "type": "noteOff",
        "noteNumber": 68,
        "velocity": 0,
        "byte9": true
      },
      {
        "deltaTime": 8,
        "channel": 0,
        "type": "noteOff",
        "noteNumber": 61,
        "velocity": 0,
        "byte9": true
      },
      {
        "deltaTime": 6,
        "running": true,
        "channel": 0,
        "type": "noteOn",
        "noteNumber": 58,
        "velocity": 74
      },
      {
        "deltaTime": 1,
        "running": true,
        "channel": 0,
        "type": "noteOff",
        "noteNumber": 57,
        "velocity": 0,
        "byte9": true
      },
      {
        "deltaTime": 1,
        "channel": 0,
        "type": "noteOn",
        "noteNumber": 75,
        "velocity": 75
      },
      {
        "deltaTime": 20,
        "running": true,
        "channel": 0,
        "type": "noteOff",
        "noteNumber": 75,
        "velocity": 0,
        "byte9": true
      },
      {
        "deltaTime": 13,
        "channel": 0,
        "type": "noteOff",
        "noteNumber": 58,
        "velocity": 0,
        "byte9": true
      },
      {
        "deltaTime": 27,
        "running": true,
        "channel": 0,
        "type": "noteOn",
        "noteNumber": 63,
        "velocity": 76
      },
      {
        "deltaTime": 0,
        "channel": 0,
        "type": "noteOn",
        "noteNumber": 70,
        "velocity": 72
      },
      {
        "deltaTime": 0,
        "running": true,
        "channel": 0,
        "type": "noteOn",
        "noteNumber": 75,
        "velocity": 75
      },
      {
        "deltaTime": 0,
        "running": true,
        "channel": 0,
        "type": "noteOn",
        "noteNumber": 67,
        "velocity": 76
      },
      {
        "deltaTime": 1,
        "channel": 0,
        "type": "noteOn",
        "noteNumber": 64,
        "velocity": 74
      },
      {
        "deltaTime": 42,
        "channel": 0,
        "type": "noteOff",
        "noteNumber": 64,
        "velocity": 0,
        "byte9": true
      },
      {
        "deltaTime": 3,
        "running": true,
        "channel": 0,
        "type": "noteOff",
        "noteNumber": 67,
        "velocity": 0,
        "byte9": true
      },
      {
        "deltaTime": 1,
        "running": true,
        "channel": 0,
        "type": "noteOff",
        "noteNumber": 70,
        "velocity": 0,
        "byte9": true
      },
      {
        "deltaTime": 4,
        "running": true,
        "channel": 0,
        "type": "noteOff",
        "noteNumber": 75,
        "velocity": 0,
        "byte9": true
      },
      {
        "deltaTime": 9,
        "channel": 0,
        "type": "noteOn",
        "noteNumber": 61,
        "velocity": 57
      },
      {
        "deltaTime": 0,
        "channel": 0,
        "type": "noteOn",
        "noteNumber": 73,
        "velocity": 51
      },
      {
        "deltaTime": 1,
        "channel": 0,
        "type": "noteOff",
        "noteNumber": 63,
        "velocity": 0,
        "byte9": true
      },
      {
        "deltaTime": 0,
        "channel": 0,
        "type": "noteOn",
        "noteNumber": 64,
        "velocity": 70
      },
      {
        "deltaTime": 13,
        "running": true,
        "channel": 0,
        "type": "noteOff",
        "noteNumber": 64,
        "velocity": 0,
        "byte9": true
      },
      {
        "deltaTime": 13,
        "running": true,
        "channel": 0,
        "type": "noteOff",
        "noteNumber": 73,
        "velocity": 0,
        "byte9": true
      },
      {
        "deltaTime": 1,
        "channel": 0,
        "type": "noteOff",
        "noteNumber": 61,
        "velocity": 0,
        "byte9": true
      },
      {
        "deltaTime": 92,
        "channel": 0,
        "type": "noteOn",
        "noteNumber": 85,
        "velocity": 83
      },
      {
        "deltaTime": 0,
        "running": true,
        "channel": 0,
        "type": "noteOn",
        "noteNumber": 73,
        "velocity": 67
      },
      {
        "deltaTime": 1,
        "running": true,
        "channel": 0,
        "type": "noteOn",
        "noteNumber": 80,
        "velocity": 71
      },
      {
        "deltaTime": 0,
        "channel": 0,
        "type": "noteOn",
        "noteNumber": 66,
        "velocity": 60
      },
      {
        "deltaTime": 0,
        "running": true,
        "channel": 0,
        "type": "noteOn",
        "noteNumber": 61,
        "velocity": 56
      },
      {
        "deltaTime": 1,
        "running": true,
        "channel": 0,
        "type": "noteOn",
        "noteNumber": 55,
        "velocity": 66
      },
      {
        "deltaTime": 7,
        "running": true,
        "channel": 0,
        "type": "noteOff",
        "noteNumber": 66,
        "velocity": 0,
        "byte9": true
      },
      {
        "deltaTime": 3,
        "running": true,
        "channel": 0,
        "type": "noteOff",
        "noteNumber": 55,
        "velocity": 0,
        "byte9": true
      },
      {
        "deltaTime": 3,
        "running": true,
        "channel": 0,
        "type": "noteOff",
        "noteNumber": 61,
        "velocity": 0,
        "byte9": true
      },
      {
        "deltaTime": 18,
        "channel": 0,
        "type": "noteOff",
        "noteNumber": 80,
        "velocity": 0,
        "byte9": true
      },
      {
        "deltaTime": 1,
        "running": true,
        "channel": 0,
        "type": "noteOff",
        "noteNumber": 73,
        "velocity": 0,
        "byte9": true
      },
      {
        "deltaTime": 1,
        "running": true,
        "channel": 0,
        "type": "noteOff",
        "noteNumber": 85,
        "velocity": 0,
        "byte9": true
      },
      {
        "deltaTime": 23,
        "channel": 0,
        "type": "noteOn",
        "noteNumber": 84,
        "velocity": 57
      },
      {
        "deltaTime": 0,
        "running": true,
        "channel": 0,
        "type": "noteOn",
        "noteNumber": 72,
        "velocity": 51
      },
      {
        "deltaTime": 0,
        "running": true,
        "channel": 0,
        "type": "noteOn",
        "noteNumber": 79,
        "velocity": 48
      },
      {
        "deltaTime": 1,
        "channel": 0,
        "type": "noteOn",
        "noteNumber": 55,
        "velocity": 58
      },
      {
        "deltaTime": 1,
        "running": true,
        "channel": 0,
        "type": "noteOn",
        "noteNumber": 44,
        "velocity": 39
      },
      {
        "deltaTime": 16,
        "channel": 0,
        "type": "noteOff",
        "noteNumber": 84,
        "velocity": 0,
        "byte9": true
      },
      {
        "deltaTime": 4,
        "running": true,
        "channel": 0,
        "type": "noteOff",
        "noteNumber": 79,
        "velocity": 0,
        "byte9": true
      },
      {
        "deltaTime": 9,
        "channel": 0,
        "type": "noteOff",
        "noteNumber": 44,
        "velocity": 0,
        "byte9": true
      },
      {
        "deltaTime": 6,
        "running": true,
        "channel": 0,
        "type": "noteOff",
        "noteNumber": 55,
        "velocity": 0,
        "byte9": true
      },
      {
        "deltaTime": 2,
        "channel": 0,
        "type": "noteOff",
        "noteNumber": 72,
        "velocity": 0,
        "byte9": true
      },
      {
        "deltaTime": 148,
        "channel": 0,
        "type": "noteOn",
        "noteNumber": 73,
        "velocity": 59
      },
      {
        "deltaTime": 2,
        "running": true,
        "channel": 0,
        "type": "noteOn",
        "noteNumber": 66,
        "velocity": 75
      },
      {
        "deltaTime": 0,
        "running": true,
        "channel": 0,
        "type": "noteOn",
        "noteNumber": 63,
        "velocity": 76
      },
      {
        "deltaTime": 0,
        "running": true,
        "channel": 0,
        "type": "noteOn",
        "noteNumber": 70,
        "velocity": 71
      },
      {
        "deltaTime": 0,
        "channel": 0,
        "type": "noteOn",
        "noteNumber": 51,
        "velocity": 58
      },
      {
        "deltaTime": 1,
        "running": true,
        "channel": 0,
        "type": "noteOn",
        "noteNumber": 61,
        "velocity": 63
      },
      {
        "deltaTime": 0,
        "running": true,
        "channel": 0,
        "type": "noteOn",
        "noteNumber": 58,
        "velocity": 58
      },
      {
        "deltaTime": 0,
        "running": true,
        "channel": 0,
        "type": "noteOn",
        "noteNumber": 54,
        "velocity": 48
      },
      {
        "deltaTime": 20,
        "channel": 0,
        "type": "noteOff",
        "noteNumber": 58,
        "velocity": 0,
        "byte9": true
      },
      {
        "deltaTime": 3,
        "running": true,
        "channel": 0,
        "type": "noteOff",
        "noteNumber": 61,
        "velocity": 0,
        "byte9": true
      },
      {
        "deltaTime": 1,
        "running": true,
        "channel": 0,
        "type": "noteOff",
        "noteNumber": 51,
        "velocity": 0,
        "byte9": true
      },
      {
        "deltaTime": 1,
        "running": true,
        "channel": 0,
        "type": "noteOff",
        "noteNumber": 54,
        "velocity": 0,
        "byte9": true
      },
      {
        "deltaTime": 2,
        "channel": 0,
        "type": "noteOff",
        "noteNumber": 63,
        "velocity": 0,
        "byte9": true
      },
      {
        "deltaTime": 2,
        "running": true,
        "channel": 0,
        "type": "noteOff",
        "noteNumber": 66,
        "velocity": 0,
        "byte9": true
      },
      {
        "deltaTime": 3,
        "running": true,
        "channel": 0,
        "type": "noteOff",
        "noteNumber": 73,
        "velocity": 0,
        "byte9": true
      },
      {
        "deltaTime": 2,
        "running": true,
        "channel": 0,
        "type": "noteOff",
        "noteNumber": 70,
        "velocity": 0,
        "byte9": true
      },
      {
        "deltaTime": 28,
        "running": true,
        "channel": 0,
        "type": "noteOn",
        "noteNumber": 75,
        "velocity": 79
      },
      {
        "deltaTime": 1,
        "running": true,
        "channel": 0,
        "type": "noteOn",
        "noteNumber": 72,
        "velocity": 80
      },
      {
        "deltaTime": 0,
        "running": true,
        "channel": 0,
        "type": "noteOn",
        "noteNumber": 68,
        "velocity": 83
      },
      {
        "deltaTime": 1,
        "channel": 0,
        "type": "noteOn",
        "noteNumber": 60,
        "velocity": 72
      },
      {
        "deltaTime": 0,
        "running": true,
        "channel": 0,
        "type": "noteOn",
        "noteNumber": 53,
        "velocity": 61
      },
      {
        "deltaTime": 1,
        "running": true,
        "channel": 0,
        "type": "noteOn",
        "noteNumber": 49,
        "velocity": 56
      },
      {
        "deltaTime": 0,
        "running": true,
        "channel": 0,
        "type": "noteOn",
        "noteNumber": 56,
        "velocity": 50
      },
      {
        "deltaTime": 1,
        "channel": 0,
        "type": "noteOn",
        "noteNumber": 65,
        "velocity": 73
      },
      {
        "deltaTime": 1,
        "running": true,
        "channel": 0,
        "type": "noteOn",
        "noteNumber": 65,
        "velocity": 17
      },
      {
        "deltaTime": 2,
        "channel": 0,
        "type": "noteOff",
        "noteNumber": 65,
        "velocity": 0,
        "byte9": true
      },
      {
        "deltaTime": 36,
        "channel": 0,
        "type": "noteOff",
        "noteNumber": 75,
        "velocity": 0,
        "byte9": true
      },
      {
        "deltaTime": 17,
        "running": true,
        "channel": 0,
        "type": "noteOn",
        "noteNumber": 75,
        "velocity": 82
      },
      {
        "deltaTime": 6,
        "running": true,
        "channel": 0,
        "type": "noteOff",
        "noteNumber": 65,
        "velocity": 0,
        "byte9": true
      },
      {
        "deltaTime": 11,
        "channel": 0,
        "type": "noteOff",
        "noteNumber": 60,
        "velocity": 0,
        "byte9": true
      },
      {
        "deltaTime": 1,
        "channel": 0,
        "type": "noteOff",
        "noteNumber": 72,
        "velocity": 0,
        "byte9": true
      },
      {
        "deltaTime": 1,
        "running": true,
        "channel": 0,
        "type": "noteOff",
        "noteNumber": 68,
        "velocity": 0,
        "byte9": true
      },
      {
        "deltaTime": 1,
        "channel": 0,
        "type": "noteOff",
        "noteNumber": 56,
        "velocity": 0,
        "byte9": true
      },
      {
        "deltaTime": 3,
        "running": true,
        "channel": 0,
        "type": "noteOff",
        "noteNumber": 53,
        "velocity": 0,
        "byte9": true
      },
      {
        "deltaTime": 2,
        "channel": 0,
        "type": "noteOff",
        "noteNumber": 75,
        "velocity": 0,
        "byte9": true
      },
      {
        "deltaTime": 6,
        "channel": 0,
        "type": "noteOff",
        "noteNumber": 49,
        "velocity": 0,
        "byte9": true
      },
      {
        "deltaTime": 28,
        "channel": 0,
        "type": "controller",
        "controllerType": 85,
        "value": 4
      },
      {
        "deltaTime": 0,
        "running": true,
        "channel": 0,
        "type": "controller",
        "controllerType": 86,
        "value": 4
      },
      {
        "deltaTime": 2,
        "channel": 0,
        "type": "noteOn",
        "noteNumber": 77,
        "velocity": 60
      },
      {
        "deltaTime": 1,
        "channel": 0,
        "type": "noteOn",
        "noteNumber": 48,
        "velocity": 33
      },
      {
        "deltaTime": 0,
        "running": true,
        "channel": 0,
        "type": "noteOn",
        "noteNumber": 58,
        "velocity": 45
      },
      {
        "deltaTime": 1,
        "channel": 0,
        "type": "noteOn",
        "noteNumber": 70,
        "velocity": 69
      },
      {
        "deltaTime": 1,
        "running": true,
        "channel": 0,
        "type": "noteOn",
        "noteNumber": 67,
        "velocity": 67
      },
      {
        "deltaTime": 46,
        "channel": 0,
        "type": "noteOff",
        "noteNumber": 58,
        "velocity": 0,
        "byte9": true
      },
      {
        "deltaTime": 0,
        "channel": 0,
        "type": "noteOff",
        "noteNumber": 67,
        "velocity": 0,
        "byte9": true
      },
      {
        "deltaTime": 2,
        "channel": 0,
        "type": "noteOff",
        "noteNumber": 48,
        "velocity": 0,
        "byte9": true
      },
      {
        "deltaTime": 1,
        "channel": 0,
        "type": "noteOff",
        "noteNumber": 70,
        "velocity": 0,
        "byte9": true
      },
      {
        "deltaTime": 5,
        "running": true,
        "channel": 0,
        "type": "noteOff",
        "noteNumber": 77,
        "velocity": 0,
        "byte9": true
      },
      {
        "deltaTime": 1,
        "channel": 0,
        "type": "noteOn",
        "noteNumber": 55,
        "velocity": 55
      },
      {
        "deltaTime": 9,
        "running": true,
        "channel": 0,
        "type": "noteOff",
        "noteNumber": 55,
        "velocity": 0,
        "byte9": true
      },
      {
        "deltaTime": 20,
        "channel": 0,
        "type": "noteOn",
        "noteNumber": 72,
        "velocity": 66
      },
      {
        "deltaTime": 15,
        "running": true,
        "channel": 0,
        "type": "noteOff",
        "noteNumber": 72,
        "velocity": 0,
        "byte9": true
      },
      {
        "deltaTime": 14,
        "running": true,
        "channel": 0,
        "type": "noteOn",
        "noteNumber": 79,
        "velocity": 84
      },
      {
        "deltaTime": 1,
        "running": true,
        "channel": 0,
        "type": "noteOn",
        "noteNumber": 68,
        "velocity": 87
      },
      {
        "deltaTime": 0,
        "running": true,
        "channel": 0,
        "type": "noteOn",
        "noteNumber": 72,
        "velocity": 88
      },
      {
        "deltaTime": 1,
        "channel": 0,
        "type": "controller",
        "controllerType": 85,
        "value": 3
      },
      {
        "deltaTime": 0,
        "running": true,
        "channel": 0,
        "type": "controller",
        "controllerType": 86,
        "value": 3
      },
      {
        "deltaTime": 0,
        "channel": 0,
        "type": "noteOn",
        "noteNumber": 75,
        "velocity": 69
      },
      {
        "deltaTime": 0,
        "channel": 0,
        "type": "noteOn",
        "noteNumber": 67,
        "velocity": 88
      },
      {
        "deltaTime": 31,
        "channel": 0,
        "type": "noteOn",
        "noteNumber": 66,
        "velocity": 71
      },
      {
        "deltaTime": 2,
        "running": true,
        "channel": 0,
        "type": "noteOff",
        "noteNumber": 67,
        "velocity": 0,
        "byte9": true
      },
      {
        "deltaTime": 1,
        "channel": 0,
        "type": "noteOff",
        "noteNumber": 68,
        "velocity": 0,
        "byte9": true
      },
      {
        "deltaTime": 1,
        "running": true,
        "channel": 0,
        "type": "noteOff",
        "noteNumber": 72,
        "velocity": 0,
        "byte9": true
      },
      {
        "deltaTime": 0,
        "running": true,
        "channel": 0,
        "type": "noteOff",
        "noteNumber": 75,
        "velocity": 0,
        "byte9": true
      },
      {
        "deltaTime": 5,
        "running": true,
        "channel": 0,
        "type": "noteOff",
        "noteNumber": 79,
        "velocity": 0,
        "byte9": true
      },
      {
        "deltaTime": 17,
        "channel": 0,
        "type": "noteOff",
        "noteNumber": 66,
        "velocity": 0,
        "byte9": true
      },
      {
        "deltaTime": 2,
        "channel": 0,
        "type": "noteOn",
        "noteNumber": 68,
        "velocity": 73
      },
      {
        "deltaTime": 0,
        "running": true,
        "channel": 0,
        "type": "noteOn",
        "noteNumber": 72,
        "velocity": 81
      },
      {
        "deltaTime": 1,
        "channel": 0,
        "type": "noteOn",
        "noteNumber": 77,
        "velocity": 66
      },
      {
        "deltaTime": 0,
        "channel": 0,
        "type": "noteOn",
        "noteNumber": 65,
        "velocity": 74
      },
      {
        "deltaTime": 12,
        "running": true,
        "channel": 0,
        "type": "noteOff",
        "noteNumber": 65,
        "velocity": 0,
        "byte9": true
      },
      {
        "deltaTime": 20,
        "channel": 0,
        "type": "noteOn",
        "noteNumber": 75,
        "velocity": 12
      },
      {
        "deltaTime": 3,
        "running": true,
        "channel": 0,
        "type": "noteOff",
        "noteNumber": 72,
        "velocity": 0,
        "byte9": true
      },
      {
        "deltaTime": 2,
        "running": true,
        "channel": 0,
        "type": "noteOff",
        "noteNumber": 77,
        "velocity": 0,
        "byte9": true
      },
      {
        "deltaTime": 2,
        "running": true,
        "channel": 0,
        "type": "noteOff",
        "noteNumber": 75,
        "velocity": 0,
        "byte9": true
      },
      {
        "deltaTime": 1,
        "running": true,
        "channel": 0,
        "type": "noteOff",
        "noteNumber": 68,
        "velocity": 0,
        "byte9": true
      },
      {
        "deltaTime": 18,
        "running": true,
        "channel": 0,
        "type": "noteOn",
        "noteNumber": 80,
        "velocity": 72
      },
      {
        "deltaTime": 0,
        "running": true,
        "channel": 0,
        "type": "noteOn",
        "noteNumber": 70,
        "velocity": 78
      },
      {
        "deltaTime": 1,
        "running": true,
        "channel": 0,
        "type": "noteOn",
        "noteNumber": 77,
        "velocity": 64
      },
      {
        "deltaTime": 0,
        "running": true,
        "channel": 0,
        "type": "noteOn",
        "noteNumber": 73,
        "velocity": 52
      },
      {
        "deltaTime": 0,
        "channel": 0,
        "type": "noteOn",
        "noteNumber": 46,
        "velocity": 56
      },
      {
        "deltaTime": 1,
        "channel": 0,
        "type": "controller",
        "controllerType": 85,
        "value": 2
      },
      {
        "deltaTime": 0,
        "running": true,
        "channel": 0,
        "type": "controller",
        "controllerType": 86,
        "value": 2
      },
      {
        "deltaTime": 0,
        "channel": 0,
        "type": "noteOn",
        "noteNumber": 56,
        "velocity": 64
      },
      {
        "deltaTime": 52,
        "channel": 0,
        "type": "noteOff",
        "noteNumber": 56,
        "velocity": 0,
        "byte9": true
      },
      {
        "deltaTime": 0,
        "running": true,
        "channel": 0,
        "type": "noteOn",
        "noteNumber": 53,
        "velocity": 44
      },
      {
        "deltaTime": 3,
        "running": true,
        "channel": 0,
        "type": "noteOff",
        "noteNumber": 46,
        "velocity": 0,
        "byte9": true
      },
      {
        "deltaTime": 3,
        "running": true,
        "channel": 0,
        "type": "noteOff",
        "noteNumber": 53,
        "velocity": 0,
        "byte9": true
      },
      {
        "deltaTime": 15,
        "channel": 0,
        "type": "noteOff",
        "noteNumber": 70,
        "velocity": 0,
        "byte9": true
      },
      {
        "deltaTime": 2,
        "running": true,
        "channel": 0,
        "type": "noteOff",
        "noteNumber": 77,
        "velocity": 0,
        "byte9": true
      },
      {
        "deltaTime": 3,
        "running": true,
        "channel": 0,
        "type": "noteOff",
        "noteNumber": 73,
        "velocity": 0,
        "byte9": true
      },
      {
        "deltaTime": 1,
        "running": true,
        "channel": 0,
        "type": "noteOff",
        "noteNumber": 80,
        "velocity": 0,
        "byte9": true
      },
      {
        "deltaTime": 31,
        "running": true,
        "channel": 0,
        "type": "noteOn",
        "noteNumber": 82,
        "velocity": 69
      },
      {
        "deltaTime": 0,
        "running": true,
        "channel": 0,
        "type": "noteOn",
        "noteNumber": 73,
        "velocity": 51
      },
      {
        "deltaTime": 1,
        "running": true,
        "channel": 0,
        "type": "noteOn",
        "noteNumber": 78,
        "velocity": 57
      },
      {
        "deltaTime": 0,
        "channel": 0,
        "type": "noteOn",
        "noteNumber": 51,
        "velocity": 31
      },
      {
        "deltaTime": 1,
        "running": true,
        "channel": 0,
        "type": "noteOn",
        "noteNumber": 54,
        "velocity": 46
      },
      {
        "deltaTime": 0,
        "running": true,
        "channel": 0,
        "type": "noteOn",
        "noteNumber": 58,
        "velocity": 40
      },
      {
        "deltaTime": 5,
        "channel": 0,
        "type": "noteOn",
        "noteNumber": 61,
        "velocity": 45
      },
      {
        "deltaTime": 46,
        "channel": 0,
        "type": "noteOff",
        "noteNumber": 82,
        "velocity": 0,
        "byte9": true
      },
      {
        "deltaTime": 10,
        "channel": 0,
        "type": "noteOff",
        "noteNumber": 51,
        "velocity": 0,
        "byte9": true
      },
      {
        "deltaTime": 0,
        "running": true,
        "channel": 0,
        "type": "noteOff",
        "noteNumber": 54,
        "velocity": 0,
        "byte9": true
      },
      {
        "deltaTime": 1,
        "running": true,
        "channel": 0,
        "type": "noteOff",
        "noteNumber": 58,
        "velocity": 0,
        "byte9": true
      },
      {
        "deltaTime": 2,
        "channel": 0,
        "type": "noteOn",
        "noteNumber": 82,
        "velocity": 62
      },
      {
        "deltaTime": 8,
        "running": true,
        "channel": 0,
        "type": "noteOff",
        "noteNumber": 78,
        "velocity": 0,
        "byte9": true
      },
      {
        "deltaTime": 1,
        "channel": 0,
        "type": "noteOff",
        "noteNumber": 61,
        "velocity": 0,
        "byte9": true
      },
      {
        "deltaTime": 1,
        "channel": 0,
        "type": "noteOff",
        "noteNumber": 73,
        "velocity": 0,
        "byte9": true
      },
      {
        "deltaTime": 3,
        "running": true,
        "channel": 0,
        "type": "noteOff",
        "noteNumber": 82,
        "velocity": 0,
        "byte9": true
      },
      {
        "deltaTime": 103,
        "channel": 0,
        "type": "noteOn",
        "noteNumber": 84,
        "velocity": 49
      },
      {
        "deltaTime": 1,
        "running": true,
        "channel": 0,
        "type": "noteOn",
        "noteNumber": 76,
        "velocity": 60
      },
      {
        "deltaTime": 1,
        "running": true,
        "channel": 0,
        "type": "noteOn",
        "noteNumber": 72,
        "velocity": 54
      },
      {
        "deltaTime": 0,
        "channel": 0,
        "type": "noteOn",
        "noteNumber": 65,
        "velocity": 56
      },
      {
        "deltaTime": 0,
        "channel": 0,
        "type": "noteOn",
        "noteNumber": 81,
        "velocity": 49
      },
      {
        "deltaTime": 1,
        "channel": 0,
        "type": "noteOn",
        "noteNumber": 60,
        "velocity": 44
      },
      {
        "deltaTime": 1,
        "running": true,
        "channel": 0,
        "type": "noteOn",
        "noteNumber": 54,
        "velocity": 34
      },
      {
        "deltaTime": 16,
        "channel": 0,
        "type": "noteOff",
        "noteNumber": 81,
        "velocity": 0,
        "byte9": true
      },
      {
        "deltaTime": 1,
        "running": true,
        "channel": 0,
        "type": "noteOff",
        "noteNumber": 84,
        "velocity": 0,
        "byte9": true
      },
      {
        "deltaTime": 1,
        "channel": 0,
        "type": "noteOff",
        "noteNumber": 65,
        "velocity": 0,
        "byte9": true
      },
      {
        "deltaTime": 1,
        "channel": 0,
        "type": "noteOff",
        "noteNumber": 76,
        "velocity": 0,
        "byte9": true
      },
      {
        "deltaTime": 3,
        "channel": 0,
        "type": "noteOff",
        "noteNumber": 60,
        "velocity": 0,
        "byte9": true
      },
      {
        "deltaTime": 3,
        "channel": 0,
        "type": "noteOff",
        "noteNumber": 72,
        "velocity": 0,
        "byte9": true
      },
      {
        "deltaTime": 5,
        "channel": 0,
        "type": "noteOff",
        "noteNumber": 54,
        "velocity": 0,
        "byte9": true
      },
      {
        "deltaTime": 29,
        "channel": 0,
        "type": "noteOn",
        "noteNumber": 68,
        "velocity": 40
      },
      {
        "deltaTime": 0,
        "channel": 0,
        "type": "noteOn",
        "noteNumber": 63,
        "velocity": 46
      },
      {
        "deltaTime": 1,
        "channel": 0,
        "type": "noteOn",
        "noteNumber": 75,
        "velocity": 39
      },
      {
        "deltaTime": 0,
        "running": true,
        "channel": 0,
        "type": "noteOn",
        "noteNumber": 80,
        "velocity": 25
      },
      {
        "deltaTime": 1,
        "channel": 0,
        "type": "noteOn",
        "noteNumber": 77,
        "velocity": 36
      },
      {
        "deltaTime": 2,
        "channel": 0,
        "type": "noteOn",
        "noteNumber": 58,
        "velocity": 37
      },
      {
        "deltaTime": 0,
        "running": true,
        "channel": 0,
        "type": "noteOn",
        "noteNumber": 53,
        "velocity": 35
      },
      {
        "deltaTime": 28,
        "channel": 0,
        "type": "noteOff",
        "noteNumber": 75,
        "velocity": 0,
        "byte9": true
      },
      {
        "deltaTime": 2,
        "running": true,
        "channel": 0,
        "type": "noteOff",
        "noteNumber": 77,
        "velocity": 0,
        "byte9": true
      },
      {
        "deltaTime": 2,
        "running": true,
        "channel": 0,
        "type": "noteOff",
        "noteNumber": 80,
        "velocity": 0,
        "byte9": true
      },
      {
        "deltaTime": 5,
        "running": true,
        "channel": 0,
        "type": "noteOff",
        "noteNumber": 68,
        "velocity": 0,
        "byte9": true
      },
      {
        "deltaTime": 8,
        "channel": 0,
        "type": "noteOff",
        "noteNumber": 63,
        "velocity": 0,
        "byte9": true
      },
      {
        "deltaTime": 5,
        "running": true,
        "channel": 0,
        "type": "noteOff",
        "noteNumber": 58,
        "velocity": 0,
        "byte9": true
      },
      {
        "deltaTime": 2,
        "running": true,
        "channel": 0,
        "type": "noteOff",
        "noteNumber": 53,
        "velocity": 0,
        "byte9": true
      },
      {
        "deltaTime": 11,
        "channel": 0,
        "type": "noteOn",
        "noteNumber": 77,
        "velocity": 35
      },
      {
        "deltaTime": 1,
        "channel": 0,
        "type": "noteOn",
        "noteNumber": 63,
        "velocity": 33
      },
      {
        "deltaTime": 1,
        "running": true,
        "channel": 0,
        "type": "noteOn",
        "noteNumber": 65,
        "velocity": 24
      },
      {
        "deltaTime": 0,
        "channel": 0,
        "type": "noteOn",
        "noteNumber": 72,
        "velocity": 45
      },
      {
        "deltaTime": 2,
        "channel": 0,
        "type": "noteOn",
        "noteNumber": 53,
        "velocity": 30
      },
      {
        "deltaTime": 3,
        "running": true,
        "channel": 0,
        "type": "noteOn",
        "noteNumber": 58,
        "velocity": 23
      },
      {
        "deltaTime": 6,
        "running": true,
        "channel": 0,
        "type": "noteOff",
        "noteNumber": 65,
        "velocity": 0,
        "byte9": true
      },
      {
        "deltaTime": 12,
        "channel": 0,
        "type": "noteOff",
        "noteNumber": 72,
        "velocity": 0,
        "byte9": true
      },
      {
        "deltaTime": 7,
        "channel": 0,
        "type": "noteOff",
        "noteNumber": 53,
        "velocity": 0,
        "byte9": true
      },
      {
        "deltaTime": 5,
        "running": true,
        "channel": 0,
        "type": "noteOff",
        "noteNumber": 63,
        "velocity": 0,
        "byte9": true
      },
      {
        "deltaTime": 1,
        "running": true,
        "channel": 0,
        "type": "noteOff",
        "noteNumber": 58,
        "velocity": 0,
        "byte9": true
      },
      {
        "deltaTime": 9,
        "channel": 0,
        "type": "noteOff",
        "noteNumber": 77,
        "velocity": 0,
        "byte9": true
      },
      {
        "deltaTime": 11,
        "channel": 0,
        "type": "controller",
        "controllerType": 85,
        "value": 2
      },
      {
        "deltaTime": 0,
        "running": true,
        "channel": 0,
        "type": "controller",
        "controllerType": 86,
        "value": 2
      },
      {
        "deltaTime": 46,
        "channel": 0,
        "type": "noteOn",
        "noteNumber": 63,
        "velocity": 35
      },
      {
        "deltaTime": 2,
        "running": true,
        "channel": 0,
        "type": "noteOn",
        "noteNumber": 53,
        "velocity": 29
      },
      {
        "deltaTime": 3,
        "running": true,
        "channel": 0,
        "type": "noteOn",
        "noteNumber": 58,
        "velocity": 27
      },
      {
        "deltaTime": 19,
        "running": true,
        "channel": 0,
        "type": "noteOff",
        "noteNumber": 53,
        "velocity": 0,
        "byte9": true
      },
      {
        "deltaTime": 12,
        "running": true,
        "channel": 0,
        "type": "noteOff",
        "noteNumber": 63,
        "velocity": 0,
        "byte9": true
      },
      {
        "deltaTime": 1,
        "running": true,
        "channel": 0,
        "type": "noteOff",
        "noteNumber": 58,
        "velocity": 0,
        "byte9": true
      },
      {
        "deltaTime": 33,
        "running": true,
        "channel": 0,
        "type": "noteOn",
        "noteNumber": 65,
        "velocity": 42
      },
      {
        "deltaTime": 0,
        "running": true,
        "channel": 0,
        "type": "noteOn",
        "noteNumber": 54,
        "velocity": 31
      },
      {
        "deltaTime": 2,
        "running": true,
        "channel": 0,
        "type": "noteOn",
        "noteNumber": 60,
        "velocity": 47
      },
      {
        "deltaTime": 2,
        "channel": 0,
        "type": "controller",
        "controllerType": 86,
        "value": 8
      },
      {
        "deltaTime": 32,
        "channel": 0,
        "type": "noteOn",
        "noteNumber": 96,
        "velocity": 80
      },
      {
        "deltaTime": 8,
        "running": true,
        "channel": 0,
        "type": "noteOff",
        "noteNumber": 96,
        "velocity": 0,
        "byte9": true
      },
      {
        "deltaTime": 11,
        "running": true,
        "channel": 0,
        "type": "noteOn",
        "noteNumber": 101,
        "velocity": 94
      },
      {
        "deltaTime": 13,
        "running": true,
        "channel": 0,
        "type": "noteOff",
        "noteNumber": 101,
        "velocity": 0,
        "byte9": true
      },
      {
        "deltaTime": 6,
        "running": true,
        "channel": 0,
        "type": "noteOn",
        "noteNumber": 99,
        "velocity": 77
      },
      {
        "deltaTime": 12,
        "running": true,
        "channel": 0,
        "type": "noteOff",
        "noteNumber": 99,
        "velocity": 0,
        "byte9": true
      },
      {
        "deltaTime": 5,
        "running": true,
        "channel": 0,
        "type": "noteOn",
        "noteNumber": 96,
        "velocity": 78
      },
      {
        "deltaTime": 10,
        "running": true,
        "channel": 0,
        "type": "noteOff",
        "noteNumber": 96,
        "velocity": 0,
        "byte9": true
      },
      {
        "deltaTime": 7,
        "running": true,
        "channel": 0,
        "type": "noteOn",
        "noteNumber": 90,
        "velocity": 53
      },
      {
        "deltaTime": 2,
        "channel": 0,
        "type": "noteOff",
        "noteNumber": 65,
        "velocity": 0,
        "byte9": true
      },
      {
        "deltaTime": 2,
        "running": true,
        "channel": 0,
        "type": "noteOff",
        "noteNumber": 60,
        "velocity": 0,
        "byte9": true
      },
      {
        "deltaTime": 7,
        "channel": 0,
        "type": "noteOff",
        "noteNumber": 90,
        "velocity": 0,
        "byte9": true
      },
      {
        "deltaTime": 5,
        "channel": 0,
        "type": "controller",
        "controllerType": 85,
        "value": 4
      },
      {
        "deltaTime": 0,
        "running": true,
        "channel": 0,
        "type": "controller",
        "controllerType": 86,
        "value": 8
      },
      {
        "deltaTime": 2,
        "channel": 0,
        "type": "noteOn",
        "noteNumber": 89,
        "velocity": 54
      },
      {
        "deltaTime": 11,
        "running": true,
        "channel": 0,
        "type": "noteOff",
        "noteNumber": 89,
        "velocity": 0,
        "byte9": true
      },
      {
        "deltaTime": 11,
        "running": true,
        "channel": 0,
        "type": "noteOn",
        "noteNumber": 87,
        "velocity": 53
      },
      {
        "deltaTime": 1,
        "channel": 0,
        "type": "noteOn",
        "noteNumber": 65,
        "velocity": 47
      },
      {
        "deltaTime": 0,
        "running": true,
        "channel": 0,
        "type": "noteOn",
        "noteNumber": 60,
        "velocity": 36
      },
      {
        "deltaTime": 7,
        "channel": 0,
        "type": "noteOff",
        "noteNumber": 87,
        "velocity": 0,
        "byte9": true
      },
      {
        "deltaTime": 31,
        "running": true,
        "channel": 0,
        "type": "noteOn",
        "noteNumber": 89,
        "velocity": 68
      },
      {
        "deltaTime": 11,
        "channel": 0,
        "type": "noteOff",
        "noteNumber": 65,
        "velocity": 0,
        "byte9": true
      },
      {
        "deltaTime": 3,
        "channel": 0,
        "type": "noteOff",
        "noteNumber": 89,
        "velocity": 0,
        "byte9": true
      },
      {
        "deltaTime": 2,
        "channel": 0,
        "type": "noteOff",
        "noteNumber": 60,
        "velocity": 0,
        "byte9": true
      },
      {
        "deltaTime": 11,
        "channel": 0,
        "type": "noteOn",
        "noteNumber": 87,
        "velocity": 77
      },
      {
        "deltaTime": 10,
        "channel": 0,
        "type": "noteOff",
        "noteNumber": 54,
        "velocity": 0,
        "byte9": true
      },
      {
        "deltaTime": 4,
        "channel": 0,
        "type": "noteOff",
        "noteNumber": 87,
        "velocity": 0,
        "byte9": true
      },
      {
        "deltaTime": 6,
        "running": true,
        "channel": 0,
        "type": "noteOn",
        "noteNumber": 85,
        "velocity": 64
      },
      {
        "deltaTime": 10,
        "channel": 0,
        "type": "noteOff",
        "noteNumber": 85,
        "velocity": 0,
        "byte9": true
      },
      {
        "deltaTime": 13,
        "channel": 0,
        "type": "noteOn",
        "noteNumber": 83,
        "velocity": 48
      },
      {
        "deltaTime": 1,
        "channel": 0,
        "type": "noteOn",
        "noteNumber": 63,
        "velocity": 34
      },
      {
        "deltaTime": 3,
        "running": true,
        "channel": 0,
        "type": "noteOn",
        "noteNumber": 56,
        "velocity": 14
      },
      {
        "deltaTime": 0,
        "running": true,
        "channel": 0,
        "type": "noteOn",
        "noteNumber": 59,
        "velocity": 36
      },
      {
        "deltaTime": 3,
        "running": true,
        "channel": 0,
        "type": "noteOn",
        "noteNumber": 53,
        "velocity": 24
      },
      {
        "deltaTime": 13,
        "channel": 0,
        "type": "noteOff",
        "noteNumber": 83,
        "velocity": 0,
        "byte9": true
      },
      {
        "deltaTime": 8,
        "running": true,
        "channel": 0,
        "type": "noteOn",
        "noteNumber": 80,
        "velocity": 50
      },
      {
        "deltaTime": 9,
        "running": true,
        "channel": 0,
        "type": "noteOff",
        "noteNumber": 80,
        "velocity": 0,
        "byte9": true
      },
      {
        "deltaTime": 19,
        "running": true,
        "channel": 0,
        "type": "noteOn",
        "noteNumber": 80,
        "velocity": 50
      },
      {
        "deltaTime": 12,
        "running": true,
        "channel": 0,
        "type": "noteOff",
        "noteNumber": 80,
        "velocity": 0,
        "byte9": true
      },
      {
        "deltaTime": 8,
        "channel": 0,
        "type": "noteOff",
        "noteNumber": 63,
        "velocity": 0,
        "byte9": true
      },
      {
        "deltaTime": 5,
        "running": true,
        "channel": 0,
        "type": "noteOff",
        "noteNumber": 59,
        "velocity": 0,
        "byte9": true
      },
      {
        "deltaTime": 1,
        "channel": 0,
        "type": "noteOn",
        "noteNumber": 80,
        "velocity": 51
      },
      {
        "deltaTime": 11,
        "running": true,
        "channel": 0,
        "type": "noteOff",
        "noteNumber": 80,
        "velocity": 0,
        "byte9": true
      },
      {
        "deltaTime": 14,
        "channel": 0,
        "type": "controller",
        "controllerType": 86,
        "value": 12
      },
      {
        "deltaTime": 1,
        "channel": 0,
        "type": "noteOn",
        "noteNumber": 80,
        "velocity": 53
      },
      {
        "deltaTime": 1,
        "channel": 0,
        "type": "noteOn",
        "noteNumber": 63,
        "velocity": 29
      },
      {
        "deltaTime": 2,
        "running": true,
        "channel": 0,
        "type": "noteOn",
        "noteNumber": 59,
        "velocity": 38
      },
      {
        "deltaTime": 16,
        "channel": 0,
        "type": "noteOff",
        "noteNumber": 80,
        "velocity": 0,
        "byte9": true
      },
      {
        "deltaTime": 4,
        "running": true,
        "channel": 0,
        "type": "noteOn",
        "noteNumber": 82,
        "velocity": 50
      },
      {
        "deltaTime": 12,
        "running": true,
        "channel": 0,
        "type": "noteOn",
        "noteNumber": 80,
        "velocity": 45
      },
      {
        "deltaTime": 3,
        "running": true,
        "channel": 0,
        "type": "noteOff",
        "noteNumber": 82,
        "velocity": 0,
        "byte9": true
      },
      {
        "deltaTime": 13,
        "running": true,
        "channel": 0,
        "type": "noteOff",
        "noteNumber": 80,
        "velocity": 0,
        "byte9": true
      },
      {
        "deltaTime": 0,
        "running": true,
        "channel": 0,
        "type": "noteOn",
        "noteNumber": 79,
        "velocity": 38
      },
      {
        "deltaTime": 7,
        "running": true,
        "channel": 0,
        "type": "noteOff",
        "noteNumber": 79,
        "velocity": 0,
        "byte9": true
      },
      {
        "deltaTime": 12,
        "channel": 0,
        "type": "noteOff",
        "noteNumber": 59,
        "velocity": 0,
        "byte9": true
      },
      {
        "deltaTime": 0,
        "channel": 0,
        "type": "noteOn",
        "noteNumber": 80,
        "velocity": 67
      },
      {
        "deltaTime": 10,
        "running": true,
        "channel": 0,
        "type": "noteOff",
        "noteNumber": 80,
        "velocity": 0,
        "byte9": true
      },
      {
        "deltaTime": 1,
        "channel": 0,
        "type": "noteOff",
        "noteNumber": 53,
        "velocity": 0,
        "byte9": true
      },
      {
        "deltaTime": 3,
        "channel": 0,
        "type": "noteOn",
        "noteNumber": 82,
        "velocity": 49
      },
      {
        "deltaTime": 9,
        "channel": 0,
        "type": "noteOff",
        "noteNumber": 63,
        "velocity": 0,
        "byte9": true
      },
      {
        "deltaTime": 2,
        "running": true,
        "channel": 0,
        "type": "noteOff",
        "noteNumber": 56,
        "velocity": 0,
        "byte9": true
      },
      {
        "deltaTime": 0,
        "channel": 0,
        "type": "noteOn",
        "noteNumber": 80,
        "velocity": 35
      },
      {
        "deltaTime": 5,
        "running": true,
        "channel": 0,
        "type": "noteOff",
        "noteNumber": 82,
        "velocity": 0,
        "byte9": true
      },
      {
        "deltaTime": 10,
        "running": true,
        "channel": 0,
        "type": "noteOff",
        "noteNumber": 80,
        "velocity": 0,
        "byte9": true
      },
      {
        "deltaTime": 1,
        "running": true,
        "channel": 0,
        "type": "noteOn",
        "noteNumber": 79,
        "velocity": 37
      },
      {
        "deltaTime": 8,
        "channel": 0,
        "type": "noteOff",
        "noteNumber": 79,
        "velocity": 0,
        "byte9": true
      },
      {
        "deltaTime": 1,
        "channel": 0,
        "type": "noteOn",
        "noteNumber": 63,
        "velocity": 29
      },
      {
        "deltaTime": 3,
        "running": true,
        "channel": 0,
        "type": "noteOn",
        "noteNumber": 58,
        "velocity": 37
      },
      {
        "deltaTime": 0,
        "running": true,
        "channel": 0,
        "type": "noteOn",
        "noteNumber": 52,
        "velocity": 44
      },
      {
        "deltaTime": 4,
        "channel": 0,
        "type": "noteOn",
        "noteNumber": 80,
        "velocity": 53
      },
      {
        "deltaTime": 22,
        "running": true,
        "channel": 0,
        "type": "noteOff",
        "noteNumber": 80,
        "velocity": 0,
        "byte9": true
      },
      {
        "deltaTime": 5,
        "running": true,
        "channel": 0,
        "type": "noteOn",
        "noteNumber": 79,
        "velocity": 43
      },
      {
        "deltaTime": 28,
        "channel": 0,
        "type": "noteOff",
        "noteNumber": 79,
        "velocity": 0,
        "byte9": true
      },
      {
        "deltaTime": 1,
        "running": true,
        "channel": 0,
        "type": "noteOn",
        "noteNumber": 76,
        "velocity": 47
      },
      {
        "deltaTime": 8,
        "channel": 0,
        "type": "noteOff",
        "noteNumber": 63,
        "velocity": 0,
        "byte9": true
      },
      {
        "deltaTime": 1,
        "running": true,
        "channel": 0,
        "type": "noteOff",
        "noteNumber": 58,
        "velocity": 0,
        "byte9": true
      },
      {
        "deltaTime": 8,
        "channel": 0,
        "type": "noteOff",
        "noteNumber": 76,
        "velocity": 0,
        "byte9": true
      },
      {
        "deltaTime": 7,
        "running": true,
        "channel": 0,
        "type": "noteOn",
        "noteNumber": 73,
        "velocity": 54
      },
      {
        "deltaTime": 20,
        "running": true,
        "channel": 0,
        "type": "noteOff",
        "noteNumber": 73,
        "velocity": 0,
        "byte9": true
      },
      {
        "deltaTime": 5,
        "channel": 0,
        "type": "noteOn",
        "noteNumber": 63,
        "velocity": 25
      },
      {
        "deltaTime": 1,
        "running": true,
        "channel": 0,
        "type": "noteOn",
        "noteNumber": 58,
        "velocity": 30
      },
      {
        "deltaTime": 2,
        "channel": 0,
        "type": "noteOn",
        "noteNumber": 72,
        "velocity": 48
      },
      {
        "deltaTime": 13,
        "running": true,
        "channel": 0,
        "type": "noteOff",
        "noteNumber": 72,
        "velocity": 0,
        "byte9": true
      },
      {
        "deltaTime": 12,
        "running": true,
        "channel": 0,
        "type": "noteOn",
        "noteNumber": 70,
        "velocity": 67
      },
      {
        "deltaTime": 18,
        "channel": 0,
        "type": "noteOff",
        "noteNumber": 63,
        "velocity": 0,
        "byte9": true
      },
      {
        "deltaTime": 0,
        "channel": 0,
        "type": "noteOff",
        "noteNumber": 70,
        "velocity": 0,
        "byte9": true
      },
      {
        "deltaTime": 8,
        "running": true,
        "channel": 0,
        "type": "noteOn",
        "noteNumber": 68,
        "velocity": 70
      },
      {
        "deltaTime": 17,
        "channel": 0,
        "type": "noteOff",
        "noteNumber": 68,
        "velocity": 0,
        "byte9": true
      },
      {
        "deltaTime": 7,
        "channel": 0,
        "type": "noteOff",
        "noteNumber": 52,
        "velocity": 0,
        "byte9": true
      },
      {
        "deltaTime": 3,
        "running": true,
        "channel": 0,
        "type": "noteOff",
        "noteNumber": 58,
        "velocity": 0,
        "byte9": true
      },
      {
        "deltaTime": 1,
        "channel": 0,
        "type": "noteOn",
        "noteNumber": 67,
        "velocity": 43
      },
      {
        "deltaTime": 19,
        "running": true,
        "channel": 0,
        "type": "noteOff",
        "noteNumber": 67,
        "velocity": 0,
        "byte9": true
      },
      {
        "deltaTime": 14,
        "channel": 0,
        "type": "noteOn",
        "noteNumber": 60,
        "velocity": 30
      },
      {
        "deltaTime": 1,
        "running": true,
        "channel": 0,
        "type": "noteOn",
        "noteNumber": 56,
        "velocity": 25
      },
      {
        "deltaTime": 0,
        "running": true,
        "channel": 0,
        "type": "noteOn",
        "noteNumber": 53,
        "velocity": 36
      },
      {
        "deltaTime": 3,
        "channel": 0,
        "type": "noteOn",
        "noteNumber": 68,
        "velocity": 45
      },
      {
        "deltaTime": 29,
        "channel": 0,
        "type": "noteOff",
        "noteNumber": 53,
        "velocity": 0,
        "byte9": true
      },
      {
        "deltaTime": 6,
        "channel": 0,
        "type": "noteOff",
        "noteNumber": 68,
        "velocity": 0,
        "byte9": true
      },
      {
        "deltaTime": 2,
        "channel": 0,
        "type": "noteOff",
        "noteNumber": 60,
        "velocity": 0,
        "byte9": true
      },
      {
        "deltaTime": 5,
        "running": true,
        "channel": 0,
        "type": "noteOff",
        "noteNumber": 56,
        "velocity": 0,
        "byte9": true
      },
      {
        "deltaTime": 28,
        "channel": 0,
        "type": "noteOn",
        "noteNumber": 67,
        "velocity": 99
      },
      {
        "deltaTime": 57,
        "channel": 0,
        "type": "noteOn",
        "noteNumber": 72,
        "velocity": 92
      },
      {
        "deltaTime": 0,
        "running": true,
        "channel": 0,
        "type": "noteOn",
        "noteNumber": 68,
        "velocity": 95
      },
      {
        "deltaTime": 34,
        "running": true,
        "channel": 0,
        "type": "noteOff",
        "noteNumber": 67,
        "velocity": 0,
        "byte9": true
      },
      {
        "deltaTime": 19,
        "running": true,
        "channel": 0,
        "type": "noteOff",
        "noteNumber": 68,
        "velocity": 0,
        "byte9": true
      },
      {
        "deltaTime": 3,
        "running": true,
        "channel": 0,
        "type": "noteOff",
        "noteNumber": 72,
        "velocity": 0,
        "byte9": true
      },
      {
        "deltaTime": 5,
        "running": true,
        "channel": 0,
        "type": "noteOn",
        "noteNumber": 68,
        "velocity": 83
      },
      {
        "deltaTime": 0,
        "running": true,
        "channel": 0,
        "type": "noteOn",
        "noteNumber": 74,
        "velocity": 82
      },
      {
        "deltaTime": 1,
        "channel": 0,
        "type": "noteOn",
        "noteNumber": 65,
        "velocity": 95
      },
      {
        "deltaTime": 2,
        "channel": 0,
        "type": "noteOn",
        "noteNumber": 72,
        "velocity": 50
      },
      {
        "deltaTime": 3,
        "running": true,
        "channel": 0,
        "type": "noteOff",
        "noteNumber": 72,
        "velocity": 0,
        "byte9": true
      },
      {
        "deltaTime": 28,
        "channel": 0,
        "type": "noteOff",
        "noteNumber": 74,
        "velocity": 0,
        "byte9": true
      },
      {
        "deltaTime": 9,
        "running": true,
        "channel": 0,
        "type": "noteOff",
        "noteNumber": 68,
        "velocity": 0,
        "byte9": true
      },
      {
        "deltaTime": 11,
        "channel": 0,
        "type": "noteOff",
        "noteNumber": 65,
        "velocity": 0,
        "byte9": true
      },
      {
        "deltaTime": 2,
        "channel": 0,
        "type": "noteOn",
        "noteNumber": 76,
        "velocity": 75
      },
      {
        "deltaTime": 1,
        "running": true,
        "channel": 0,
        "type": "noteOn",
        "noteNumber": 72,
        "velocity": 74
      },
      {
        "deltaTime": 0,
        "channel": 0,
        "type": "noteOn",
        "noteNumber": 64,
        "velocity": 90
      },
      {
        "deltaTime": 1,
        "channel": 0,
        "type": "noteOn",
        "noteNumber": 68,
        "velocity": 80
      },
      {
        "deltaTime": 0,
        "running": true,
        "channel": 0,
        "type": "noteOn",
        "noteNumber": 65,
        "velocity": 87
      },
      {
        "deltaTime": 47,
        "channel": 0,
        "type": "noteOff",
        "noteNumber": 64,
        "velocity": 0,
        "byte9": true
      },
      {
        "deltaTime": 10,
        "running": true,
        "channel": 0,
        "type": "noteOn",
        "noteNumber": 64,
        "velocity": 89
      },
      {
        "deltaTime": 17,
        "channel": 0,
        "type": "noteOff",
        "noteNumber": 72,
        "velocity": 0,
        "byte9": true
      },
      {
        "deltaTime": 1,
        "running": true,
        "channel": 0,
        "type": "noteOff",
        "noteNumber": 76,
        "velocity": 0,
        "byte9": true
      },
      {
        "deltaTime": 3,
        "running": true,
        "channel": 0,
        "type": "noteOff",
        "noteNumber": 68,
        "velocity": 0,
        "byte9": true
      },
      {
        "deltaTime": 4,
        "running": true,
        "channel": 0,
        "type": "noteOff",
        "noteNumber": 65,
        "velocity": 0,
        "byte9": true
      },
      {
        "deltaTime": 35,
        "running": true,
        "channel": 0,
        "type": "noteOn",
        "noteNumber": 77,
        "velocity": 74
      },
      {
        "deltaTime": 0,
        "channel": 0,
        "type": "noteOn",
        "noteNumber": 63,
        "velocity": 86
      },
      {
        "deltaTime": 1,
        "channel": 0,
        "type": "noteOn",
        "noteNumber": 68,
        "velocity": 85
      },
      {
        "deltaTime": 0,
        "running": true,
        "channel": 0,
        "type": "noteOn",
        "noteNumber": 72,
        "velocity": 88
      },
      {
        "deltaTime": 6,
        "channel": 0,
        "type": "noteOff",
        "noteNumber": 64,
        "velocity": 0,
        "byte9": true
      },
      {
        "deltaTime": 43,
        "channel": 0,
        "type": "noteOff",
        "noteNumber": 63,
        "velocity": 0,
        "byte9": true
      },
      {
        "deltaTime": 12,
        "running": true,
        "channel": 0,
        "type": "noteOn",
        "noteNumber": 63,
        "velocity": 71
      },
      {
        "deltaTime": 5,
        "channel": 0,
        "type": "noteOff",
        "noteNumber": 77,
        "velocity": 0,
        "byte9": true
      },
      {
        "deltaTime": 1,
        "running": true,
        "channel": 0,
        "type": "noteOff",
        "noteNumber": 68,
        "velocity": 0,
        "byte9": true
      },
      {
        "deltaTime": 4,
        "channel": 0,
        "type": "noteOff",
        "noteNumber": 63,
        "velocity": 0,
        "byte9": true
      },
      {
        "deltaTime": 3,
        "channel": 0,
        "type": "noteOff",
        "noteNumber": 72,
        "velocity": 0,
        "byte9": true
      },
      {
        "deltaTime": 45,
        "running": true,
        "channel": 0,
        "type": "noteOn",
        "noteNumber": 79,
        "velocity": 73
      },
      {
        "deltaTime": 2,
        "running": true,
        "channel": 0,
        "type": "noteOn",
        "noteNumber": 72,
        "velocity": 83
      },
      {
        "deltaTime": 1,
        "channel": 0,
        "type": "noteOn",
        "noteNumber": 68,
        "velocity": 72
      },
      {
        "deltaTime": 1,
        "channel": 0,
        "type": "noteOn",
        "noteNumber": 60,
        "velocity": 72
      },
      {
        "deltaTime": 0,
        "running": true,
        "channel": 0,
        "type": "noteOn",
        "noteNumber": 50,
        "velocity": 62
      },
      {
        "deltaTime": 1,
        "channel": 0,
        "type": "controller",
        "controllerType": 85,
        "value": 2
      },
      {
        "deltaTime": 0,
        "running": true,
        "channel": 0,
        "type": "controller",
        "controllerType": 86,
        "value": 2
      },
      {
        "deltaTime": 0,
        "channel": 0,
        "type": "noteOn",
        "noteNumber": 75,
        "velocity": 35
      },
      {
        "deltaTime": 59,
        "channel": 0,
        "type": "noteOn",
        "noteNumber": 56,
        "velocity": 53
      },
      {
        "deltaTime": 1,
        "channel": 0,
        "type": "noteOff",
        "noteNumber": 72,
        "velocity": 0,
        "byte9": true
      },
      {
        "deltaTime": 6,
        "channel": 0,
        "type": "noteOff",
        "noteNumber": 60,
        "velocity": 0,
        "byte9": true
      },
      {
        "deltaTime": 11,
        "channel": 0,
        "type": "noteOff",
        "noteNumber": 68,
        "velocity": 0,
        "byte9": true
      },
      {
        "deltaTime": 7,
        "running": true,
        "channel": 0,
        "type": "noteOff",
        "noteNumber": 75,
        "velocity": 0,
        "byte9": true
      },
      {
        "deltaTime": 31,
        "running": true,
        "channel": 0,
        "type": "noteOn",
        "noteNumber": 68,
        "velocity": 38
      },
      {
        "deltaTime": 1,
        "channel": 0,
        "type": "noteOn",
        "noteNumber": 60,
        "velocity": 39
      },
      {
        "deltaTime": 0,
        "channel": 0,
        "type": "noteOn",
        "noteNumber": 72,
        "velocity": 53
      },
      {
        "deltaTime": 4,
        "channel": 0,
        "type": "controller",
        "controllerType": 85,
        "value": 2
      },
      {
        "deltaTime": 0,
        "running": true,
        "channel": 0,
        "type": "controller",
        "controllerType": 86,
        "value": 2
      },
      {
        "deltaTime": 2,
        "channel": 0,
        "type": "noteOff",
        "noteNumber": 79,
        "velocity": 0,
        "byte9": true
      },
      {
        "deltaTime": 22,
        "channel": 0,
        "type": "noteOff",
        "noteNumber": 50,
        "velocity": 0,
        "byte9": true
      },
      {
        "deltaTime": 1,
        "channel": 0,
        "type": "noteOff",
        "noteNumber": 72,
        "velocity": 0,
        "byte9": true
      },
      {
        "deltaTime": 23,
        "running": true,
        "channel": 0,
        "type": "noteOff",
        "noteNumber": 68,
        "velocity": 0,
        "byte9": true
      },
      {
        "deltaTime": 7,
        "channel": 0,
        "type": "noteOff",
        "noteNumber": 60,
        "velocity": 0,
        "byte9": true
      },
      {
        "deltaTime": 0,
        "running": true,
        "channel": 0,
        "type": "noteOn",
        "noteNumber": 50,
        "velocity": 38
      },
      {
        "deltaTime": 2,
        "channel": 0,
        "type": "noteOn",
        "noteNumber": 80,
        "velocity": 63
      },
      {
        "deltaTime": 9,
        "channel": 0,
        "type": "noteOff",
        "noteNumber": 50,
        "velocity": 0,
        "byte9": true
      },
      {
        "deltaTime": 4,
        "channel": 0,
        "type": "noteOff",
        "noteNumber": 80,
        "velocity": 0,
        "byte9": true
      },
      {
        "deltaTime": 25,
        "channel": 0,
        "type": "noteOff",
        "noteNumber": 56,
        "velocity": 0,
        "byte9": true
      },
      {
        "deltaTime": 20,
        "channel": 0,
        "type": "noteOn",
        "noteNumber": 82,
        "velocity": 61
      },
      {
        "deltaTime": 2,
        "running": true,
        "channel": 0,
        "type": "noteOn",
        "noteNumber": 75,
        "velocity": 60
      },
      {
        "deltaTime": 1,
        "running": true,
        "channel": 0,
        "type": "noteOn",
        "noteNumber": 71,
        "velocity": 55
      },
      {
        "deltaTime": 1,
        "channel": 0,
        "type": "noteOn",
        "noteNumber": 49,
        "velocity": 38
      },
      {
        "deltaTime": 0,
        "running": true,
        "channel": 0,
        "type": "noteOn",
        "noteNumber": 59,
        "velocity": 36
      },
      {
        "deltaTime": 56,
        "channel": 0,
        "type": "noteOff",
        "noteNumber": 59,
        "velocity": 0,
        "byte9": true
      },
      {
        "deltaTime": 4,
        "channel": 0,
        "type": "noteOff",
        "noteNumber": 71,
        "velocity": 0,
        "byte9": true
      },
      {
        "deltaTime": 7,
        "channel": 0,
        "type": "noteOff",
        "noteNumber": 49,
        "velocity": 0,
        "byte9": true
      },
      {
        "deltaTime": 1,
        "channel": 0,
        "type": "noteOff",
        "noteNumber": 75,
        "velocity": 0,
        "byte9": true
      },
      {
        "deltaTime": 4,
        "running": true,
        "channel": 0,
        "type": "noteOff",
        "noteNumber": 82,
        "velocity": 0,
        "byte9": true
      },
      {
        "deltaTime": 45,
        "running": true,
        "channel": 0,
        "type": "noteOn",
        "noteNumber": 75,
        "velocity": 56
      },
      {
        "deltaTime": 1,
        "running": true,
        "channel": 0,
        "type": "noteOn",
        "noteNumber": 84,
        "velocity": 55
      },
      {
        "deltaTime": 0,
        "running": true,
        "channel": 0,
        "type": "noteOn",
        "noteNumber": 80,
        "velocity": 40
      },
      {
        "deltaTime": 2,
        "channel": 0,
        "type": "noteOn",
        "noteNumber": 56,
        "velocity": 32
      },
      {
        "deltaTime": 1,
        "running": true,
        "channel": 0,
        "type": "noteOn",
        "noteNumber": 48,
        "velocity": 38
      },
      {
        "deltaTime": 24,
        "channel": 0,
        "type": "noteOff",
        "noteNumber": 84,
        "velocity": 0,
        "byte9": true
      },
      {
        "deltaTime": 12,
        "running": true,
        "channel": 0,
        "type": "noteOff",
        "noteNumber": 80,
        "velocity": 0,
        "byte9": true
      },
      {
        "deltaTime": 1,
        "running": true,
        "channel": 0,
        "type": "noteOff",
        "noteNumber": 75,
        "velocity": 0,
        "byte9": true
      },
      {
        "deltaTime": 16,
        "channel": 0,
        "type": "noteOff",
        "noteNumber": 48,
        "velocity": 0,
        "byte9": true
      },
      {
        "deltaTime": 17,
        "running": true,
        "channel": 0,
        "type": "noteOff",
        "noteNumber": 56,
        "velocity": 0,
        "byte9": true
      },
      {
        "deltaTime": 52,
        "channel": 0,
        "type": "noteOn",
        "noteNumber": 74,
        "velocity": 44
      },
      {
        "deltaTime": 1,
        "running": true,
        "channel": 0,
        "type": "noteOn",
        "noteNumber": 62,
        "velocity": 37
      },
      {
        "deltaTime": 1,
        "running": true,
        "channel": 0,
        "type": "noteOn",
        "noteNumber": 66,
        "velocity": 37
      },
      {
        "deltaTime": 2,
        "channel": 0,
        "type": "noteOn",
        "noteNumber": 57,
        "velocity": 33
      },
      {
        "deltaTime": 1,
        "running": true,
        "channel": 0,
        "type": "noteOn",
        "noteNumber": 47,
        "velocity": 40
      },
      {
        "deltaTime": 40,
        "channel": 0,
        "type": "noteOff",
        "noteNumber": 62,
        "velocity": 0,
        "byte9": true
      },
      {
        "deltaTime": 8,
        "running": true,
        "channel": 0,
        "type": "noteOff",
        "noteNumber": 74,
        "velocity": 0,
        "byte9": true
      },
      {
        "deltaTime": 8,
        "running": true,
        "channel": 0,
        "type": "noteOff",
        "noteNumber": 66,
        "velocity": 0,
        "byte9": true
      },
      {
        "deltaTime": 5,
        "channel": 0,
        "type": "noteOff",
        "noteNumber": 57,
        "velocity": 0,
        "byte9": true
      },
      {
        "deltaTime": 40,
        "meta": true,
        "type": "text",
        "text": "B dorian (A maj scale) on Bm7-"
      },
      {
        "deltaTime": 12,
        "channel": 0,
        "type": "controller",
        "controllerType": 86,
        "value": 12
      },
      {
        "deltaTime": 1,
        "channel": 0,
        "type": "noteOn",
        "noteNumber": 57,
        "velocity": 27
      },
      {
        "deltaTime": 14,
        "channel": 0,
        "type": "noteOn",
        "noteNumber": 62,
        "velocity": 50
      },
      {
        "deltaTime": 11,
        "running": true,
        "channel": 0,
        "type": "noteOff",
        "noteNumber": 62,
        "velocity": 0,
        "byte9": true
      },
      {
        "deltaTime": 1,
        "running": true,
        "channel": 0,
        "type": "noteOn",
        "noteNumber": 64,
        "velocity": 58
      },
      {
        "deltaTime": 10,
        "channel": 0,
        "type": "noteOff",
        "noteNumber": 47,
        "velocity": 0,
        "byte9": true
      },
      {
        "deltaTime": 2,
        "channel": 0,
        "type": "noteOff",
        "noteNumber": 64,
        "velocity": 0,
        "byte9": true
      },
      {
        "deltaTime": 0,
        "running": true,
        "channel": 0,
        "type": "noteOn",
        "noteNumber": 66,
        "velocity": 53
      },
      {
        "deltaTime": 8,
        "channel": 0,
        "type": "noteOff",
        "noteNumber": 57,
        "velocity": 0,
        "byte9": true
      },
      {
        "deltaTime": 3,
        "channel": 0,
        "type": "noteOff",
        "noteNumber": 66,
        "velocity": 0,
        "byte9": true
      },
      {
        "deltaTime": 2,
        "running": true,
        "channel": 0,
        "type": "noteOn",
        "noteNumber": 68,
        "velocity": 56
      },
      {
        "deltaTime": 6,
        "running": true,
        "channel": 0,
        "type": "noteOff",
        "noteNumber": 68,
        "velocity": 0,
        "byte9": true
      },
      {
        "deltaTime": 7,
        "running": true,
        "channel": 0,
        "type": "noteOn",
        "noteNumber": 69,
        "velocity": 62
      },
      {
        "deltaTime": 4,
        "running": true,
        "channel": 0,
        "type": "noteOff",
        "noteNumber": 69,
        "velocity": 0,
        "byte9": true
      },
      {
        "deltaTime": 9,
        "running": true,
        "channel": 0,
        "type": "noteOn",
        "noteNumber": 71,
        "velocity": 60
      },
      {
        "deltaTime": 7,
        "running": true,
        "channel": 0,
        "type": "noteOff",
        "noteNumber": 71,
        "velocity": 0,
        "byte9": true
      },
      {
        "deltaTime": 9,
        "running": true,
        "channel": 0,
        "type": "noteOn",
        "noteNumber": 73,
        "velocity": 43
      },
      {
        "deltaTime": 7,
        "running": true,
        "channel": 0,
        "type": "noteOff",
        "noteNumber": 73,
        "velocity": 0,
        "byte9": true
      },
      {
        "deltaTime": 0,
        "running": true,
        "channel": 0,
        "type": "noteOn",
        "noteNumber": 74,
        "velocity": 62
      },
      {
        "deltaTime": 10,
        "running": true,
        "channel": 0,
        "type": "noteOff",
        "noteNumber": 74,
        "velocity": 0,
        "byte9": true
      },
      {
        "deltaTime": 2,
        "running": true,
        "channel": 0,
        "type": "noteOn",
        "noteNumber": 75,
        "velocity": 62
      },
      {
        "deltaTime": 11,
        "running": true,
        "channel": 0,
        "type": "noteOff",
        "noteNumber": 75,
        "velocity": 0,
        "byte9": true
      },
      {
        "deltaTime": 7,
        "channel": 0,
        "type": "noteOn",
        "noteNumber": 62,
        "velocity": 26
      },
      {
        "deltaTime": 1,
        "running": true,
        "channel": 0,
        "type": "noteOn",
        "noteNumber": 67,
        "velocity": 34
      },
      {
        "deltaTime": 1,
        "running": true,
        "channel": 0,
        "type": "noteOn",
        "noteNumber": 56,
        "velocity": 25
      },
      {
        "deltaTime": 7,
        "channel": 0,
        "type": "noteOn",
        "noteNumber": 76,
        "velocity": 40
      },
      {
        "deltaTime": 22,
        "running": true,
        "channel": 0,
        "type": "noteOff",
        "noteNumber": 76,
        "velocity": 0,
        "byte9": true
      },
      {
        "deltaTime": 3,
        "channel": 0,
        "type": "noteOff",
        "noteNumber": 67,
        "velocity": 0,
        "byte9": true
      },
      {
        "deltaTime": 4,
        "running": true,
        "channel": 0,
        "type": "noteOff",
        "noteNumber": 62,
        "velocity": 0,
        "byte9": true
      },
      {
        "deltaTime": 6,
        "running": true,
        "channel": 0,
        "type": "noteOff",
        "noteNumber": 56,
        "velocity": 0,
        "byte9": true
      },
      {
        "deltaTime": 65,
        "channel": 0,
        "type": "controller",
        "controllerType": 86,
        "value": 12
      },
      {
        "deltaTime": 8,
        "channel": 0,
        "type": "noteOn",
        "noteNumber": 67,
        "velocity": 31
      },
      {
        "deltaTime": 1,
        "running": true,
        "channel": 0,
        "type": "noteOn",
        "noteNumber": 62,
        "velocity": 34
      },
      {
        "deltaTime": 2,
        "running": true,
        "channel": 0,
        "type": "noteOn",
        "noteNumber": 56,
        "velocity": 21
      },
      {
        "deltaTime": 8,
        "running": true,
        "channel": 0,
        "type": "noteOff",
        "noteNumber": 67,
        "velocity": 0,
        "byte9": true
      },
      {
        "deltaTime": 2,
        "running": true,
        "channel": 0,
        "type": "noteOff",
        "noteNumber": 62,
        "velocity": 0,
        "byte9": true
      },
      {
        "deltaTime": 8,
        "running": true,
        "channel": 0,
        "type": "noteOff",
        "noteNumber": 56,
        "velocity": 0,
        "byte9": true
      },
      {
        "deltaTime": 14,
        "channel": 0,
        "type": "noteOn",
        "noteNumber": 84,
        "velocity": 58
      },
      {
        "deltaTime": 8,
        "running": true,
        "channel": 0,
        "type": "noteOff",
        "noteNumber": 84,
        "velocity": 0,
        "byte9": true
      },
      {
        "deltaTime": 0,
        "running": true,
        "channel": 0,
        "type": "noteOn",
        "noteNumber": 85,
        "velocity": 71
      },
      {
        "deltaTime": 10,
        "running": true,
        "channel": 0,
        "type": "noteOn",
        "noteNumber": 84,
        "velocity": 54
      },
      {
        "deltaTime": 3,
        "running": true,
        "channel": 0,
        "type": "noteOff",
        "noteNumber": 85,
        "velocity": 0,
        "byte9": true
      },
      {
        "deltaTime": 10,
        "running": true,
        "channel": 0,
        "type": "noteOff",
        "noteNumber": 84,
        "velocity": 0,
        "byte9": true
      },
      {
        "deltaTime": 3,
        "running": true,
        "channel": 0,
        "type": "noteOn",
        "noteNumber": 82,
        "velocity": 34
      },
      {
        "deltaTime": 4,
        "running": true,
        "channel": 0,
        "type": "noteOff",
        "noteNumber": 82,
        "velocity": 0,
        "byte9": true
      },
      {
        "deltaTime": 15,
        "running": true,
        "channel": 0,
        "type": "noteOn",
        "noteNumber": 84,
        "velocity": 68
      },
      {
        "deltaTime": 9,
        "running": true,
        "channel": 0,
        "type": "noteOff",
        "noteNumber": 84,
        "velocity": 0,
        "byte9": true
      },
      {
        "deltaTime": 5,
        "running": true,
        "channel": 0,
        "type": "noteOn",
        "noteNumber": 85,
        "velocity": 77
      },
      {
        "deltaTime": 9,
        "running": true,
        "channel": 0,
        "type": "noteOff",
        "noteNumber": 85,
        "velocity": 0,
        "byte9": true
      },
      {
        "deltaTime": 1,
        "channel": 0,
        "type": "controller",
        "controllerType": 85,
        "value": 6
      },
      {
        "deltaTime": 0,
        "running": true,
        "channel": 0,
        "type": "controller",
        "controllerType": 86,
        "value": 6
      },
      {
        "deltaTime": 9,
        "channel": 0,
        "type": "noteOn",
        "noteNumber": 87,
        "velocity": 63
      },
      {
        "deltaTime": 5,
        "running": true,
        "channel": 0,
        "type": "noteOff",
        "noteNumber": 87,
        "velocity": 0,
        "byte9": true
      },
      {
        "deltaTime": 48,
        "running": true,
        "channel": 0,
        "type": "noteOn",
        "noteNumber": 68,
        "velocity": 71
      },
      {
        "deltaTime": 1,
        "running": true,
        "channel": 0,
        "type": "noteOn",
        "noteNumber": 75,
        "velocity": 64
      },
      {
        "deltaTime": 0,
        "running": true,
        "channel": 0,
        "type": "noteOn",
        "noteNumber": 72,
        "velocity": 73
      },
      {
        "deltaTime": 2,
        "channel": 0,
        "type": "noteOn",
        "noteNumber": 65,
        "velocity": 59
      },
      {
        "deltaTime": 0,
        "running": true,
        "channel": 0,
        "type": "noteOn",
        "noteNumber": 63,
        "velocity": 43
      },
      {
        "deltaTime": 0,
        "running": true,
        "channel": 0,
        "type": "noteOn",
        "noteNumber": 61,
        "velocity": 47
      },
      {
        "deltaTime": 10,
        "running": true,
        "channel": 0,
        "type": "noteOff",
        "noteNumber": 61,
        "velocity": 0,
        "byte9": true
      },
      {
        "deltaTime": 1,
        "channel": 0,
        "type": "noteOff",
        "noteNumber": 68,
        "velocity": 0,
        "byte9": true
      },
      {
        "deltaTime": 1,
        "running": true,
        "channel": 0,
        "type": "noteOff",
        "noteNumber": 75,
        "velocity": 0,
        "byte9": true
      },
      {
        "deltaTime": 0,
        "running": true,
        "channel": 0,
        "type": "noteOff",
        "noteNumber": 72,
        "velocity": 0,
        "byte9": true
      },
      {
        "deltaTime": 0,
        "channel": 0,
        "type": "noteOff",
        "noteNumber": 65,
        "velocity": 0,
        "byte9": true
      },
      {
        "deltaTime": 0,
        "running": true,
        "channel": 0,
        "type": "noteOff",
        "noteNumber": 63,
        "velocity": 0,
        "byte9": true
      },
      {
        "deltaTime": 3,
        "channel": 0,
        "type": "controller",
        "controllerType": 85,
        "value": 37
      },
      {
        "deltaTime": 0,
        "running": true,
        "channel": 0,
        "type": "controller",
        "controllerType": 86,
        "value": 37
      },
      {
        "deltaTime": 16,
        "channel": 0,
        "type": "noteOn",
        "noteNumber": 75,
        "velocity": 82
      },
      {
        "deltaTime": 0,
        "running": true,
        "channel": 0,
        "type": "noteOn",
        "noteNumber": 68,
        "velocity": 78
      },
      {
        "deltaTime": 1,
        "running": true,
        "channel": 0,
        "type": "noteOn",
        "noteNumber": 72,
        "velocity": 68
      },
      {
        "deltaTime": 1,
        "channel": 0,
        "type": "noteOn",
        "noteNumber": 61,
        "velocity": 56
      },
      {
        "deltaTime": 0,
        "running": true,
        "channel": 0,
        "type": "noteOn",
        "noteNumber": 65,
        "velocity": 70
      },
      {
        "deltaTime": 1,
        "running": true,
        "channel": 0,
        "type": "noteOn",
        "noteNumber": 63,
        "velocity": 49
      },
      {
        "deltaTime": 1,
        "channel": 0,
        "type": "noteOff",
        "noteNumber": 68,
        "velocity": 0,
        "byte9": true
      },
      {
        "deltaTime": 1,
        "running": true,
        "channel": 0,
        "type": "noteOff",
        "noteNumber": 72,
        "velocity": 0,
        "byte9": true
      },
      {
        "deltaTime": 1,
        "channel": 0,
        "type": "noteOff",
        "noteNumber": 65,
        "velocity": 0,
        "byte9": true
      },
      {
        "deltaTime": 1,
        "channel": 0,
        "type": "noteOff",
        "noteNumber": 75,
        "velocity": 0,
        "byte9": true
      },
      {
        "deltaTime": 1,
        "channel": 0,
        "type": "noteOff",
        "noteNumber": 63,
        "velocity": 0,
        "byte9": true
      },
      {
        "deltaTime": 1,
        "running": true,
        "channel": 0,
        "type": "noteOff",
        "noteNumber": 61,
        "velocity": 0,
        "byte9": true
      },
      {
        "deltaTime": 15,
        "channel": 0,
        "type": "controller",
        "controllerType": 85,
        "value": 6
      },
      {
        "deltaTime": 0,
        "running": true,
        "channel": 0,
        "type": "controller",
        "controllerType": 86,
        "value": 6
      },
      {
        "deltaTime": 10,
        "channel": 0,
        "type": "noteOn",
        "noteNumber": 61,
        "velocity": 64
      },
      {
        "deltaTime": 0,
        "channel": 0,
        "type": "noteOn",
        "noteNumber": 75,
        "velocity": 75
      },
      {
        "deltaTime": 1,
        "running": true,
        "channel": 0,
        "type": "noteOn",
        "noteNumber": 68,
        "velocity": 71
      },
      {
        "deltaTime": 0,
        "running": true,
        "channel": 0,
        "type": "noteOn",
        "noteNumber": 72,
        "velocity": 75
      },
      {
        "deltaTime": 0,
        "channel": 0,
        "type": "noteOn",
        "noteNumber": 63,
        "velocity": 53
      },
      {
        "deltaTime": 1,
        "running": true,
        "channel": 0,
        "type": "noteOn",
        "noteNumber": 65,
        "velocity": 66
      },
      {
        "deltaTime": 3,
        "running": true,
        "channel": 0,
        "type": "noteOff",
        "noteNumber": 65,
        "velocity": 0,
        "byte9": true
      },
      {
        "deltaTime": 3,
        "running": true,
        "channel": 0,
        "type": "noteOff",
        "noteNumber": 61,
        "velocity": 0,
        "byte9": true
      },
      {
        "deltaTime": 0,
        "channel": 0,
        "type": "noteOff",
        "noteNumber": 75,
        "velocity": 0,
        "byte9": true
      },
      {
        "deltaTime": 0,
        "running": true,
        "channel": 0,
        "type": "noteOff",
        "noteNumber": 68,
        "velocity": 0,
        "byte9": true
      },
      {
        "deltaTime": 0,
        "running": true,
        "channel": 0,
        "type": "noteOff",
        "noteNumber": 72,
        "velocity": 0,
        "byte9": true
      },
      {
        "deltaTime": 0,
        "channel": 0,
        "type": "noteOff",
        "noteNumber": 63,
        "velocity": 0,
        "byte9": true
      },
      {
        "deltaTime": 2,
        "channel": 0,
        "type": "controller",
        "controllerType": 85,
        "value": 37
      },
      {
        "deltaTime": 0,
        "running": true,
        "channel": 0,
        "type": "controller",
        "controllerType": 86,
        "value": 37
      },
      {
        "deltaTime": 24,
        "channel": 0,
        "type": "noteOn",
        "noteNumber": 68,
        "velocity": 71
      },
      {
        "deltaTime": 0,
        "running": true,
        "channel": 0,
        "type": "noteOn",
        "noteNumber": 75,
        "velocity": 60
      },
      {
        "deltaTime": 0,
        "running": true,
        "channel": 0,
        "type": "noteOn",
        "noteNumber": 72,
        "velocity": 71
      },
      {
        "deltaTime": 1,
        "channel": 0,
        "type": "noteOn",
        "noteNumber": 65,
        "velocity": 64
      },
      {
        "deltaTime": 0,
        "running": true,
        "channel": 0,
        "type": "noteOn",
        "noteNumber": 61,
        "velocity": 50
      },
      {
        "deltaTime": 0,
        "running": true,
        "channel": 0,
        "type": "noteOn",
        "noteNumber": 63,
        "velocity": 45
      },
      {
        "deltaTime": 7,
        "running": true,
        "channel": 0,
        "type": "noteOff",
        "noteNumber": 63,
        "velocity": 0,
        "byte9": true
      },
      {
        "deltaTime": 8,
        "channel": 0,
        "type": "controller",
        "controllerType": 85,
        "value": 37
      },
      {
        "deltaTime": 0,
        "running": true,
        "channel": 0,
        "type": "controller",
        "controllerType": 86,
        "value": 37
      },
      {
        "deltaTime": 13,
        "channel": 0,
        "type": "noteOff",
        "noteNumber": 68,
        "velocity": 0,
        "byte9": true
      },
      {
        "deltaTime": 0,
        "running": true,
        "channel": 0,
        "type": "noteOff",
        "noteNumber": 75,
        "velocity": 0,
        "byte9": true
      },
      {
        "deltaTime": 0,
        "running": true,
        "channel": 0,
        "type": "noteOff",
        "noteNumber": 72,
        "velocity": 0,
        "byte9": true
      },
      {
        "deltaTime": 0,
        "channel": 0,
        "type": "noteOff",
        "noteNumber": 65,
        "velocity": 0,
        "byte9": true
      },
      {
        "deltaTime": 0,
        "running": true,
        "channel": 0,
        "type": "noteOff",
        "noteNumber": 61,
        "velocity": 0,
        "byte9": true
      },
      {
        "deltaTime": 5,
        "channel": 0,
        "type": "noteOn",
        "noteNumber": 68,
        "velocity": 64
      },
      {
        "deltaTime": 1,
        "running": true,
        "channel": 0,
        "type": "noteOn",
        "noteNumber": 72,
        "velocity": 66
      },
      {
        "deltaTime": 0,
        "running": true,
        "channel": 0,
        "type": "noteOn",
        "noteNumber": 75,
        "velocity": 51
      },
      {
        "deltaTime": 0,
        "channel": 0,
        "type": "noteOn",
        "noteNumber": 63,
        "velocity": 52
      },
      {
        "deltaTime": 1,
        "running": true,
        "channel": 0,
        "type": "noteOn",
        "noteNumber": 65,
        "velocity": 50
      },
      {
        "deltaTime": 0,
        "running": true,
        "channel": 0,
        "type": "noteOn",
        "noteNumber": 61,
        "velocity": 42
      },
      {
        "deltaTime": 2,
        "channel": 0,
        "type": "noteOff",
        "noteNumber": 72,
        "velocity": 0,
        "byte9": true
      },
      {
        "deltaTime": 1,
        "running": true,
        "channel": 0,
        "type": "noteOff",
        "noteNumber": 68,
        "velocity": 0,
        "byte9": true
      },
      {
        "deltaTime": 0,
        "running": true,
        "channel": 0,
        "type": "noteOff",
        "noteNumber": 75,
        "velocity": 0,
        "byte9": true
      },
      {
        "deltaTime": 1,
        "channel": 0,
        "type": "noteOff",
        "noteNumber": 61,
        "velocity": 0,
        "byte9": true
      },
      {
        "deltaTime": 3,
        "running": true,
        "channel": 0,
        "type": "noteOff",
        "noteNumber": 63,
        "velocity": 0,
        "byte9": true
      },
      {
        "deltaTime": 16,
        "running": true,
        "channel": 0,
        "type": "noteOff",
        "noteNumber": 65,
        "velocity": 0,
        "byte9": true
      },
      {
        "deltaTime": 8,
        "channel": 0,
        "type": "noteOn",
        "noteNumber": 68,
        "velocity": 67
      },
      {
        "deltaTime": 1,
        "running": true,
        "channel": 0,
        "type": "noteOn",
        "noteNumber": 72,
        "velocity": 49
      },
      {
        "deltaTime": 1,
        "channel": 0,
        "type": "noteOn",
        "noteNumber": 61,
        "velocity": 52
      },
      {
        "deltaTime": 0,
        "channel": 0,
        "type": "noteOn",
        "noteNumber": 75,
        "velocity": 34
      },
      {
        "deltaTime": 3,
        "running": true,
        "channel": 0,
        "type": "noteOff",
        "noteNumber": 72,
        "velocity": 0,
        "byte9": true
      },
      {
        "deltaTime": 1,
        "running": true,
        "channel": 0,
        "type": "noteOff",
        "noteNumber": 75,
        "velocity": 0,
        "byte9": true
      },
      {
        "deltaTime": 1,
        "running": true,
        "channel": 0,
        "type": "noteOff",
        "noteNumber": 68,
        "velocity": 0,
        "byte9": true
      },
      {
        "deltaTime": 2,
        "channel": 0,
        "type": "noteOff",
        "noteNumber": 61,
        "velocity": 0,
        "byte9": true
      },
      {
        "deltaTime": 0,
        "channel": 0,
        "type": "controller",
        "controllerType": 85,
        "value": 6
      },
      {
        "deltaTime": 0,
        "running": true,
        "channel": 0,
        "type": "controller",
        "controllerType": 86,
        "value": 6
      },
      {
        "deltaTime": 21,
        "channel": 0,
        "type": "noteOn",
        "noteNumber": 67,
        "velocity": 50
      },
      {
        "deltaTime": 0,
        "channel": 0,
        "type": "noteOn",
        "noteNumber": 61,
        "velocity": 29
      },
      {
        "deltaTime": 0,
        "channel": 0,
        "type": "noteOn",
        "noteNumber": 75,
        "velocity": 45
      },
      {
        "deltaTime": 0,
        "channel": 0,
        "type": "noteOn",
        "noteNumber": 55,
        "velocity": 35
      },
      {
        "deltaTime": 1,
        "channel": 0,
        "type": "noteOn",
        "noteNumber": 64,
        "velocity": 36
      },
      {
        "deltaTime": 0,
        "running": true,
        "channel": 0,
        "type": "noteOn",
        "noteNumber": 71,
        "velocity": 41
      },
      {
        "deltaTime": 7,
        "running": true,
        "channel": 0,
        "type": "noteOff",
        "noteNumber": 67,
        "velocity": 0,
        "byte9": true
      },
      {
        "deltaTime": 2,
        "running": true,
        "channel": 0,
        "type": "noteOff",
        "noteNumber": 64,
        "velocity": 0,
        "byte9": true
      },
      {
        "deltaTime": 0,
        "running": true,
        "channel": 0,
        "type": "noteOff",
        "noteNumber": 71,
        "velocity": 0,
        "byte9": true
      },
      {
        "deltaTime": 2,
        "running": true,
        "channel": 0,
        "type": "noteOff",
        "noteNumber": 75,
        "velocity": 0,
        "byte9": true
      },
      {
        "deltaTime": 1,
        "channel": 0,
        "type": "noteOff",
        "noteNumber": 55,
        "velocity": 0,
        "byte9": true
      },
      {
        "deltaTime": 1,
        "running": true,
        "channel": 0,
        "type": "noteOff",
        "noteNumber": 61,
        "velocity": 0,
        "byte9": true
      },
      {
        "deltaTime": 22,
        "channel": 0,
        "type": "noteOn",
        "noteNumber": 75,
        "velocity": 43
      },
      {
        "deltaTime": 0,
        "running": true,
        "channel": 0,
        "type": "noteOn",
        "noteNumber": 71,
        "velocity": 36
      },
      {
        "deltaTime": 0,
        "channel": 0,
        "type": "noteOn",
        "noteNumber": 61,
        "velocity": 32
      },
      {
        "deltaTime": 1,
        "channel": 0,
        "type": "noteOn",
        "noteNumber": 67,
        "velocity": 36
      },
      {
        "deltaTime": 0,
        "running": true,
        "channel": 0,
        "type": "noteOn",
        "noteNumber": 64,
        "velocity": 36
      },
      {
        "deltaTime": 0,
        "channel": 0,
        "type": "noteOn",
        "noteNumber": 55,
        "velocity": 37
      },
      {
        "deltaTime": 38,
        "running": true,
        "channel": 0,
        "type": "noteOff",
        "noteNumber": 61,
        "velocity": 0,
        "byte9": true
      },
      {
        "deltaTime": 1,
        "channel": 0,
        "type": "noteOff",
        "noteNumber": 64,
        "velocity": 0,
        "byte9": true
      },
      {
        "deltaTime": 10,
        "running": true,
        "channel": 0,
        "type": "noteOff",
        "noteNumber": 67,
        "velocity": 0,
        "byte9": true
      },
      {
        "deltaTime": 1,
        "running": true,
        "channel": 0,
        "type": "noteOff",
        "noteNumber": 71,
        "velocity": 0,
        "byte9": true
      },
      {
        "deltaTime": 4,
        "running": true,
        "channel": 0,
        "type": "noteOff",
        "noteNumber": 75,
        "velocity": 0,
        "byte9": true
      },
      {
        "deltaTime": 19,
        "running": true,
        "channel": 0,
        "type": "noteOn",
        "noteNumber": 75,
        "velocity": 37
      },
      {
        "deltaTime": 0,
        "running": true,
        "channel": 0,
        "type": "noteOn",
        "noteNumber": 64,
        "velocity": 35
      },
      {
        "deltaTime": 2,
        "channel": 0,
        "type": "noteOn",
        "noteNumber": 61,
        "velocity": 28
      },
      {
        "deltaTime": 0,
        "channel": 0,
        "type": "noteOn",
        "noteNumber": 67,
        "velocity": 37
      },
      {
        "deltaTime": 0,
        "running": true,
        "channel": 0,
        "type": "noteOn",
        "noteNumber": 71,
        "velocity": 32
      },
      {
        "deltaTime": 8,
        "running": true,
        "channel": 0,
        "type": "noteOff",
        "noteNumber": 64,
        "velocity": 0,
        "byte9": true
      },
      {
        "deltaTime": 5,
        "channel": 0,
        "type": "noteOff",
        "noteNumber": 61,
        "velocity": 0,
        "byte9": true
      },
      {
        "deltaTime": 7,
        "running": true,
        "channel": 0,
        "type": "noteOff",
        "noteNumber": 55,
        "velocity": 0,
        "byte9": true
      },
      {
        "deltaTime": 0,
        "channel": 0,
        "type": "noteOff",
        "noteNumber": 71,
        "velocity": 0,
        "byte9": true
      },
      {
        "deltaTime": 1,
        "running": true,
        "channel": 0,
        "type": "noteOff",
        "noteNumber": 75,
        "velocity": 0,
        "byte9": true
      },
      {
        "deltaTime": 6,
        "running": true,
        "channel": 0,
        "type": "noteOff",
        "noteNumber": 67,
        "velocity": 0,
        "byte9": true
      },
      {
        "deltaTime": 80,
        "meta": true,
        "type": "text",
        "text": "Tremolo with RH on E7#9 chord while Left Hand plays melodic phrase."
      },
      {
        "deltaTime": 0,
        "channel": 0,
        "type": "controller",
        "controllerType": 86,
        "value": 12
      },
      {
        "deltaTime": 2,
        "channel": 0,
        "type": "noteOn",
        "noteNumber": 67,
        "velocity": 91
      },
      {
        "deltaTime": 2,
        "running": true,
        "channel": 0,
        "type": "noteOn",
        "noteNumber": 60,
        "velocity": 91
      },
      {
        "deltaTime": 0,
        "running": true,
        "channel": 0,
        "type": "noteOn",
        "noteNumber": 62,
        "velocity": 76
      },
      {
        "deltaTime": 1,
        "running": true,
        "channel": 0,
        "type": "noteOn",
        "noteNumber": 56,
        "velocity": 86
      },
      {
        "deltaTime": 14,
        "channel": 0,
        "type": "noteOff",
        "noteNumber": 56,
        "velocity": 0,
        "byte9": true
      },
      {
        "deltaTime": 7,
        "running": true,
        "channel": 0,
        "type": "noteOn",
        "noteNumber": 56,
        "velocity": 31
      },
      {
        "deltaTime": 2,
        "running": true,
        "channel": 0,
        "type": "noteOff",
        "noteNumber": 60,
        "velocity": 0,
        "byte9": true
      },
      {
        "deltaTime": 1,
        "running": true,
        "channel": 0,
        "type": "noteOff",
        "noteNumber": 67,
        "velocity": 0,
        "byte9": true
      },
      {
        "deltaTime": 2,
        "channel": 0,
        "type": "noteOff",
        "noteNumber": 62,
        "velocity": 0,
        "byte9": true
      },
      {
        "deltaTime": 7,
        "running": true,
        "channel": 0,
        "type": "noteOff",
        "noteNumber": 56,
        "velocity": 0,
        "byte9": true
      },
      {
        "deltaTime": 1,
        "running": true,
        "channel": 0,
        "type": "noteOn",
        "noteNumber": 60,
        "velocity": 61
      },
      {
        "deltaTime": 1,
        "running": true,
        "channel": 0,
        "type": "noteOn",
        "noteNumber": 67,
        "velocity": 30
      },
      {
        "deltaTime": 1,
        "running": true,
        "channel": 0,
        "type": "noteOn",
        "noteNumber": 62,
        "velocity": 40
      },
      {
        "deltaTime": 7,
        "running": true,
        "channel": 0,
        "type": "noteOn",
        "noteNumber": 56,
        "velocity": 46
      },
      {
        "deltaTime": 1,
        "running": true,
        "channel": 0,
        "type": "noteOff",
        "noteNumber": 67,
        "velocity": 0,
        "byte9": true
      },
      {
        "deltaTime": 2,
        "running": true,
        "channel": 0,
        "type": "noteOff",
        "noteNumber": 60,
        "velocity": 0,
        "byte9": true
      },
      {
        "deltaTime": 2,
        "running": true,
        "channel": 0,
        "type": "noteOff",
        "noteNumber": 62,
        "velocity": 0,
        "byte9": true
      },
      {
        "deltaTime": 7,
        "running": true,
        "channel": 0,
        "type": "noteOff",
        "noteNumber": 56,
        "velocity": 0,
        "byte9": true
      },
      {
        "deltaTime": 1,
        "running": true,
        "channel": 0,
        "type": "noteOn",
        "noteNumber": 60,
        "velocity": 64
      },
      {
        "deltaTime": 1,
        "running": true,
        "channel": 0,
        "type": "noteOn",
        "noteNumber": 62,
        "velocity": 27
      },
      {
        "deltaTime": 10,
        "running": true,
        "channel": 0,
        "type": "noteOn",
        "noteNumber": 56,
        "velocity": 39
      },
      {
        "deltaTime": 1,
        "running": true,
        "channel": 0,
        "type": "noteOff",
        "noteNumber": 60,
        "velocity": 0,
        "byte9": true
      },
      {
        "deltaTime": 1,
        "running": true,
        "channel": 0,
        "type": "noteOff",
        "noteNumber": 62,
        "velocity": 0,
        "byte9": true
      },
      {
        "deltaTime": 9,
        "running": true,
        "channel": 0,
        "type": "noteOff",
        "noteNumber": 56,
        "velocity": 0,
        "byte9": true
      },
      {
        "deltaTime": 0,
        "running": true,
        "channel": 0,
        "type": "noteOn",
        "noteNumber": 60,
        "velocity": 50
      },
      {
        "deltaTime": 2,
        "running": true,
        "channel": 0,
        "type": "noteOn",
        "noteNumber": 67,
        "velocity": 27
      },
      {
        "deltaTime": 0,
        "running": true,
        "channel": 0,
        "type": "noteOn",
        "noteNumber": 62,
        "velocity": 41
      },
      {
        "deltaTime": 9,
        "channel": 0,
        "type": "noteOn",
        "noteNumber": 56,
        "velocity": 55
      },
      {
        "deltaTime": 1,
        "channel": 0,
        "type": "noteOff",
        "noteNumber": 67,
        "velocity": 0,
        "byte9": true
      },
      {
        "deltaTime": 1,
        "running": true,
        "channel": 0,
        "type": "noteOff",
        "noteNumber": 60,
        "velocity": 0,
        "byte9": true
      },
      {
        "deltaTime": 1,
        "running": true,
        "channel": 0,
        "type": "noteOff",
        "noteNumber": 62,
        "velocity": 0,
        "byte9": true
      },
      {
        "deltaTime": 8,
        "running": true,
        "channel": 0,
        "type": "noteOn",
        "noteNumber": 60,
        "velocity": 66
      },
      {
        "deltaTime": 1,
        "channel": 0,
        "type": "noteOff",
        "noteNumber": 56,
        "velocity": 0,
        "byte9": true
      },
      {
        "deltaTime": 0,
        "channel": 0,
        "type": "noteOn",
        "noteNumber": 55,
        "velocity": 105
      },
      {
        "deltaTime": 1,
        "running": true,
        "channel": 0,
        "type": "noteOn",
        "noteNumber": 67,
        "velocity": 38
      },
      {
        "deltaTime": 1,
        "running": true,
        "channel": 0,
        "type": "noteOn",
        "noteNumber": 62,
        "velocity": 53
      },
      {
        "deltaTime": 8,
        "running": true,
        "channel": 0,
        "type": "noteOn",
        "noteNumber": 56,
        "velocity": 63
      },
      {
        "deltaTime": 1,
        "running": true,
        "channel": 0,
        "type": "noteOff",
        "noteNumber": 67,
        "velocity": 0,
        "byte9": true
      },
      {
        "deltaTime": 2,
        "running": true,
        "channel": 0,
        "type": "noteOff",
        "noteNumber": 60,
        "velocity": 0,
        "byte9": true
      },
      {
        "deltaTime": 0,
        "running": true,
        "channel": 0,
        "type": "noteOff",
        "noteNumber": 62,
        "velocity": 0,
        "byte9": true
      },
      {
        "deltaTime": 1,
        "channel": 0,
        "type": "controller",
        "controllerType": 86,
        "value": 12
      },
      {
        "deltaTime": 7,
        "channel": 0,
        "type": "noteOff",
        "noteNumber": 56,
        "velocity": 0,
        "byte9": true
      },
      {
        "deltaTime": 2,
        "running": true,
        "channel": 0,
        "type": "noteOn",
        "noteNumber": 60,
        "velocity": 64
      },
      {
        "deltaTime": 0,
        "running": true,
        "channel": 0,
        "type": "noteOn",
        "noteNumber": 62,
        "velocity": 51
      },
      {
        "deltaTime": 0,
        "running": true,
        "channel": 0,
        "type": "noteOn",
        "noteNumber": 67,
        "velocity": 29
      },
      {
        "deltaTime": 5,
        "running": true,
        "channel": 0,
        "type": "noteOff",
        "noteNumber": 67,
        "velocity": 0,
        "byte9": true
      },
      {
        "deltaTime": 3,
        "running": true,
        "channel": 0,
        "type": "noteOn",
        "noteNumber": 56,
        "velocity": 60
      },
      {
        "deltaTime": 2,
        "running": true,
        "channel": 0,
        "type": "noteOff",
        "noteNumber": 62,
        "velocity": 0,
        "byte9": true
      },
      {
        "deltaTime": 1,
        "running": true,
        "channel": 0,
        "type": "noteOff",
        "noteNumber": 60,
        "velocity": 0,
        "byte9": true
      },
      {
        "deltaTime": 8,
        "running": true,
        "channel": 0,
        "type": "noteOff",
        "noteNumber": 56,
        "velocity": 0,
        "byte9": true
      },
      {
        "deltaTime": 1,
        "running": true,
        "channel": 0,
        "type": "noteOn",
        "noteNumber": 62,
        "velocity": 40
      },
      {
        "deltaTime": 1,
        "running": true,
        "channel": 0,
        "type": "noteOn",
        "noteNumber": 67,
        "velocity": 28
      },
      {
        "deltaTime": 0,
        "running": true,
        "channel": 0,
        "type": "noteOn",
        "noteNumber": 60,
        "velocity": 60
      },
      {
        "deltaTime": 8,
        "running": true,
        "channel": 0,
        "type": "noteOff",
        "noteNumber": 67,
        "velocity": 0,
        "byte9": true
      },
      {
        "deltaTime": 1,
        "running": true,
        "channel": 0,
        "type": "noteOn",
        "noteNumber": 56,
        "velocity": 57
      },
      {
        "deltaTime": 1,
        "running": true,
        "channel": 0,
        "type": "noteOff",
        "noteNumber": 62,
        "velocity": 0,
        "byte9": true
      },
      {
        "deltaTime": 3,
        "running": true,
        "channel": 0,
        "type": "noteOff",
        "noteNumber": 60,
        "velocity": 0,
        "byte9": true
      },
      {
        "deltaTime": 6,
        "running": true,
        "channel": 0,
        "type": "noteOn",
        "noteNumber": 67,
        "velocity": 34
      },
      {
        "deltaTime": 1,
        "running": true,
        "channel": 0,
        "type": "noteOff",
        "noteNumber": 56,
        "velocity": 0,
        "byte9": true
      },
      {
        "deltaTime": 1,
        "running": true,
        "channel": 0,
        "type": "noteOn",
        "noteNumber": 62,
        "velocity": 51
      },
      {
        "deltaTime": 0,
        "running": true,
        "channel": 0,
        "type": "noteOn",
        "noteNumber": 60,
        "velocity": 56
      },
      {
        "deltaTime": 4,
        "running": true,
        "channel": 0,
        "type": "noteOff",
        "noteNumber": 55,
        "velocity": 0,
        "byte9": true
      },
      {
        "deltaTime": 1,
        "channel": 0,
        "type": "noteOn",
        "noteNumber": 52,
        "velocity": 91
      },
      {
        "deltaTime": 2,
        "channel": 0,
        "type": "noteOff",
        "noteNumber": 67,
        "velocity": 0,
        "byte9": true
      },
      {
        "deltaTime": 2,
        "running": true,
        "channel": 0,
        "type": "noteOn",
        "noteNumber": 56,
        "velocity": 56
      },
      {
        "deltaTime": 3,
        "channel": 0,
        "type": "noteOff",
        "noteNumber": 62,
        "velocity": 0,
        "byte9": true
      },
      {
        "deltaTime": 0,
        "running": true,
        "channel": 0,
        "type": "noteOff",
        "noteNumber": 60,
        "velocity": 0,
        "byte9": true
      },
      {
        "deltaTime": 8,
        "running": true,
        "channel": 0,
        "type": "noteOff",
        "noteNumber": 56,
        "velocity": 0,
        "byte9": true
      },
      {
        "deltaTime": 1,
        "running": true,
        "channel": 0,
        "type": "noteOn",
        "noteNumber": 60,
        "velocity": 54
      },
      {
        "deltaTime": 1,
        "running": true,
        "channel": 0,
        "type": "noteOn",
        "noteNumber": 62,
        "velocity": 48
      },
      {
        "deltaTime": 7,
        "running": true,
        "channel": 0,
        "type": "noteOff",
        "noteNumber": 62,
        "velocity": 0,
        "byte9": true
      },
      {
        "deltaTime": 0,
        "running": true,
        "channel": 0,
        "type": "noteOn",
        "noteNumber": 56,
        "velocity": 51
      },
      {
        "deltaTime": 4,
        "running": true,
        "channel": 0,
        "type": "noteOff",
        "noteNumber": 60,
        "velocity": 0,
        "byte9": true
      },
      {
        "deltaTime": 6,
        "channel": 0,
        "type": "noteOn",
        "noteNumber": 67,
        "velocity": 20
      },
      {
        "deltaTime": 1,
        "running": true,
        "channel": 0,
        "type": "noteOff",
        "noteNumber": 56,
        "velocity": 0,
        "byte9": true
      },
      {
        "deltaTime": 3,
        "running": true,
        "channel": 0,
        "type": "noteOn",
        "noteNumber": 60,
        "velocity": 46
      },
      {
        "deltaTime": 0,
        "running": true,
        "channel": 0,
        "type": "noteOn",
        "noteNumber": 62,
        "velocity": 36
      },
      {
        "deltaTime": 1,
        "running": true,
        "channel": 0,
        "type": "noteOff",
        "noteNumber": 67,
        "velocity": 0,
        "byte9": true
      },
      {
        "deltaTime": 5,
        "running": true,
        "channel": 0,
        "type": "noteOn",
        "noteNumber": 56,
        "velocity": 51
      },
      {
        "deltaTime": 1,
        "running": true,
        "channel": 0,
        "type": "noteOff",
        "noteNumber": 62,
        "velocity": 0,
        "byte9": true
      },
      {
        "deltaTime": 3,
        "running": true,
        "channel": 0,
        "type": "noteOff",
        "noteNumber": 60,
        "velocity": 0,
        "byte9": true
      },
      {
        "deltaTime": 8,
        "running": true,
        "channel": 0,
        "type": "noteOff",
        "noteNumber": 56,
        "velocity": 0,
        "byte9": true
      },
      {
        "deltaTime": 4,
        "running": true,
        "channel": 0,
        "type": "noteOn",
        "noteNumber": 62,
        "velocity": 31
      },
      {
        "deltaTime": 0,
        "running": true,
        "channel": 0,
        "type": "noteOn",
        "noteNumber": 60,
        "velocity": 42
      },
      {
        "deltaTime": 4,
        "channel": 0,
        "type": "controller",
        "controllerType": 86,
        "value": 12
      },
      {
        "deltaTime": 1,
        "channel": 0,
        "type": "noteOff",
        "noteNumber": 62,
        "velocity": 0,
        "byte9": true
      },
      {
        "deltaTime": 1,
        "running": true,
        "channel": 0,
        "type": "noteOn",
        "noteNumber": 56,
        "velocity": 51
      },
      {
        "deltaTime": 3,
        "running": true,
        "channel": 0,
        "type": "noteOff",
        "noteNumber": 60,
        "velocity": 0,
        "byte9": true
      },
      {
        "deltaTime": 9,
        "running": true,
        "channel": 0,
        "type": "noteOff",
        "noteNumber": 56,
        "velocity": 0,
        "byte9": true
      },
      {
        "deltaTime": 1,
        "running": true,
        "channel": 0,
        "type": "noteOn",
        "noteNumber": 60,
        "velocity": 50
      },
      {
        "deltaTime": 1,
        "running": true,
        "channel": 0,
        "type": "noteOn",
        "noteNumber": 67,
        "velocity": 24
      },
      {
        "deltaTime": 6,
        "running": true,
        "channel": 0,
        "type": "noteOff",
        "noteNumber": 67,
        "velocity": 0,
        "byte9": true
      },
      {
        "deltaTime": 4,
        "running": true,
        "channel": 0,
        "type": "noteOn",
        "noteNumber": 56,
        "velocity": 46
      },
      {
        "deltaTime": 1,
        "running": true,
        "channel": 0,
        "type": "noteOff",
        "noteNumber": 60,
        "velocity": 0,
        "byte9": true
      },
      {
        "deltaTime": 11,
        "running": true,
        "channel": 0,
        "type": "noteOff",
        "noteNumber": 56,
        "velocity": 0,
        "byte9": true
      },
      {
        "deltaTime": 0,
        "running": true,
        "channel": 0,
        "type": "noteOn",
        "noteNumber": 60,
        "velocity": 44
      },
      {
        "deltaTime": 2,
        "running": true,
        "channel": 0,
        "type": "noteOn",
        "noteNumber": 62,
        "velocity": 19
      },
      {
        "deltaTime": 6,
        "running": true,
        "channel": 0,
        "type": "noteOff",
        "noteNumber": 62,
        "velocity": 0,
        "byte9": true
      },
      {
        "deltaTime": 2,
        "running": true,
        "channel": 0,
        "type": "noteOn",
        "noteNumber": 56,
        "velocity": 46
      },
      {
        "deltaTime": 1,
        "running": true,
        "channel": 0,
        "type": "noteOff",
        "noteNumber": 60,
        "velocity": 0,
        "byte9": true
      },
      {
        "deltaTime": 9,
        "running": true,
        "channel": 0,
        "type": "noteOff",
        "noteNumber": 56,
        "velocity": 0,
        "byte9": true
      },
      {
        "deltaTime": 2,
        "running": true,
        "channel": 0,
        "type": "noteOn",
        "noteNumber": 60,
        "velocity": 49
      },
      {
        "deltaTime": 1,
        "running": true,
        "channel": 0,
        "type": "noteOn",
        "noteNumber": 62,
        "velocity": 22
      },
      {
        "deltaTime": 8,
        "running": true,
        "channel": 0,
        "type": "noteOff",
        "noteNumber": 62,
        "velocity": 0,
        "byte9": true
      },
      {
        "deltaTime": 0,
        "running": true,
        "channel": 0,
        "type": "noteOn",
        "noteNumber": 56,
        "velocity": 48
      },
      {
        "deltaTime": 2,
        "running": true,
        "channel": 0,
        "type": "noteOff",
        "noteNumber": 60,
        "velocity": 0,
        "byte9": true
      },
      {
        "deltaTime": 9,
        "channel": 0,
        "type": "noteOff",
        "noteNumber": 56,
        "velocity": 0,
        "byte9": true
      },
      {
        "deltaTime": 1,
        "running": true,
        "channel": 0,
        "type": "noteOn",
        "noteNumber": 67,
        "velocity": 25
      },
      {
        "deltaTime": 1,
        "running": true,
        "channel": 0,
        "type": "noteOn",
        "noteNumber": 60,
        "velocity": 50
      },
      {
        "deltaTime": 0,
        "running": true,
        "channel": 0,
        "type": "noteOn",
        "noteNumber": 62,
        "velocity": 33
      },
      {
        "deltaTime": 4,
        "running": true,
        "channel": 0,
        "type": "noteOff",
        "noteNumber": 67,
        "velocity": 0,
        "byte9": true
      },
      {
        "deltaTime": 3,
        "running": true,
        "channel": 0,
        "type": "noteOn",
        "noteNumber": 56,
        "velocity": 51
      },
      {
        "deltaTime": 1,
        "running": true,
        "channel": 0,
        "type": "noteOff",
        "noteNumber": 62,
        "velocity": 0,
        "byte9": true
      },
      {
        "deltaTime": 2,
        "running": true,
        "channel": 0,
        "type": "noteOff",
        "noteNumber": 60,
        "velocity": 0,
        "byte9": true
      },
      {
        "deltaTime": 8,
        "running": true,
        "channel": 0,
        "type": "noteOff",
        "noteNumber": 56,
        "velocity": 0,
        "byte9": true
      },
      {
        "deltaTime": 1,
        "running": true,
        "channel": 0,
        "type": "noteOn",
        "noteNumber": 67,
        "velocity": 31
      },
      {
        "deltaTime": 1,
        "running": true,
        "channel": 0,
        "type": "noteOn",
        "noteNumber": 60,
        "velocity": 40
      },
      {
        "deltaTime": 1,
        "running": true,
        "channel": 0,
        "type": "noteOn",
        "noteNumber": 62,
        "velocity": 28
      },
      {
        "deltaTime": 3,
        "running": true,
        "channel": 0,
        "type": "noteOff",
        "noteNumber": 67,
        "velocity": 0,
        "byte9": true
      },
      {
        "deltaTime": 4,
        "running": true,
        "channel": 0,
        "type": "noteOn",
        "noteNumber": 56,
        "velocity": 46
      },
      {
        "deltaTime": 3,
        "channel": 0,
        "type": "noteOn",
        "noteNumber": 55,
        "velocity": 72
      },
      {
        "deltaTime": 2,
        "running": true,
        "channel": 0,
        "type": "noteOff",
        "noteNumber": 52,
        "velocity": 0,
        "byte9": true
      },
      {
        "deltaTime": 3,
        "channel": 0,
        "type": "noteOn",
        "noteNumber": 67,
        "velocity": 25
      },
      {
        "deltaTime": 16,
        "channel": 0,
        "type": "noteOff",
        "noteNumber": 60,
        "velocity": 0,
        "byte9": true
      },
      {
        "deltaTime": 1,
        "running": true,
        "channel": 0,
        "type": "noteOff",
        "noteNumber": 62,
        "velocity": 0,
        "byte9": true
      },
      {
        "deltaTime": 5,
        "channel": 0,
        "type": "noteOff",
        "noteNumber": 56,
        "velocity": 0,
        "byte9": true
      },
      {
        "deltaTime": 17,
        "running": true,
        "channel": 0,
        "type": "noteOff",
        "noteNumber": 67,
        "velocity": 0,
        "byte9": true
      },
      {
        "deltaTime": 3,
        "running": true,
        "channel": 0,
        "type": "noteOn",
        "noteNumber": 56,
        "velocity": 23
      },
      {
        "deltaTime": 10,
        "running": true,
        "channel": 0,
        "type": "noteOff",
        "noteNumber": 56,
        "velocity": 0,
        "byte9": true
      },
      {
        "deltaTime": 1,
        "running": true,
        "channel": 0,
        "type": "noteOn",
        "noteNumber": 67,
        "velocity": 14
      },
      {
        "deltaTime": 9,
        "running": true,
        "channel": 0,
        "type": "noteOff",
        "noteNumber": 67,
        "velocity": 0,
        "byte9": true
      },
      {
        "deltaTime": 1,
        "running": true,
        "channel": 0,
        "type": "noteOn",
        "noteNumber": 56,
        "velocity": 48
      },
      {
        "deltaTime": 5,
        "channel": 0,
        "type": "noteOff",
        "noteNumber": 55,
        "velocity": 0,
        "byte9": true
      },
      {
        "deltaTime": 14,
        "channel": 0,
        "type": "noteOn",
        "noteNumber": 68,
        "velocity": 60
      },
      {
        "deltaTime": 17,
        "running": true,
        "channel": 0,
        "type": "noteOff",
        "noteNumber": 56,
        "velocity": 0,
        "byte9": true
      },
      {
        "deltaTime": 4,
        "running": true,
        "channel": 0,
        "type": "noteOff",
        "noteNumber": 68,
        "velocity": 0,
        "byte9": true
      },
      {
        "deltaTime": 17,
        "channel": 0,
        "type": "noteOn",
        "noteNumber": 55,
        "velocity": 48
      },
      {
        "deltaTime": 2,
        "channel": 0,
        "type": "controller",
        "controllerType": 86,
        "value": 12
      },
      {
        "deltaTime": 0,
        "channel": 0,
        "type": "noteOn",
        "noteNumber": 65,
        "velocity": 49
      },
      {
        "deltaTime": 1,
        "running": true,
        "channel": 0,
        "type": "noteOn",
        "noteNumber": 60,
        "velocity": 34
      },
      {
        "deltaTime": 1,
        "channel": 0,
        "type": "noteOn",
        "noteNumber": 44,
        "velocity": 37
      },
      {
        "deltaTime": 22,
        "channel": 0,
        "type": "noteOff",
        "noteNumber": 55,
        "velocity": 0,
        "byte9": true
      },
      {
        "deltaTime": 7,
        "running": true,
        "channel": 0,
        "type": "noteOff",
        "noteNumber": 44,
        "velocity": 0,
        "byte9": true
      },
      {
        "deltaTime": 1,
        "channel": 0,
        "type": "noteOff",
        "noteNumber": 60,
        "velocity": 0,
        "byte9": true
      },
      {
        "deltaTime": 2,
        "meta": true,
        "type": "text",
        "text": "Alternating pair of 4ths (2nd and 5th together then Maj7th and 3rd) on AbMaj7"
      },
      {
        "deltaTime": 3,
        "running": true,
        "channel": 0,
        "type": "noteOff",
        "noteNumber": 65,
        "velocity": 0,
        "byte9": true
      },
      {
        "deltaTime": 3,
        "meta": true,
        "type": "text",
        "text": "Eb pentatonic scale on AbMaj7"
      },
      {
        "deltaTime": 22,
        "running": true,
        "channel": 0,
        "type": "noteOn",
        "noteNumber": 58,
        "velocity": 35
      },
      {
        "deltaTime": 13,
        "running": true,
        "channel": 0,
        "type": "noteOn",
        "noteNumber": 60,
        "velocity": 44
      },
      {
        "deltaTime": 7,
        "running": true,
        "channel": 0,
        "type": "noteOff",
        "noteNumber": 60,
        "velocity": 0,
        "byte9": true
      },
      {
        "deltaTime": 4,
        "running": true,
        "channel": 0,
        "type": "noteOn",
        "noteNumber": 63,
        "velocity": 49
      },
      {
        "deltaTime": 5,
        "running": true,
        "channel": 0,
        "type": "noteOff",
        "noteNumber": 63,
        "velocity": 0,
        "byte9": true
      },
      {
        "deltaTime": 9,
        "running": true,
        "channel": 0,
        "type": "noteOn",
        "noteNumber": 65,
        "velocity": 68
      },
      {
        "deltaTime": 1,
        "channel": 0,
        "type": "noteOn",
        "noteNumber": 60,
        "velocity": 22
      },
      {
        "deltaTime": 9,
        "channel": 0,
        "type": "noteOff",
        "noteNumber": 65,
        "velocity": 0,
        "byte9": true
      },
      {
        "deltaTime": 0,
        "running": true,
        "channel": 0,
        "type": "noteOn",
        "noteNumber": 67,
        "velocity": 54
      },
      {
        "deltaTime": 10,
        "running": true,
        "channel": 0,
        "type": "noteOff",
        "noteNumber": 67,
        "velocity": 0,
        "byte9": true
      },
      {
        "deltaTime": 2,
        "running": true,
        "channel": 0,
        "type": "noteOn",
        "noteNumber": 70,
        "velocity": 64
      },
      {
        "deltaTime": 2,
        "channel": 0,
        "type": "noteOn",
        "noteNumber": 63,
        "velocity": 9
      },
      {
        "deltaTime": 3,
        "channel": 0,
        "type": "noteOff",
        "noteNumber": 70,
        "velocity": 0,
        "byte9": true
      },
      {
        "deltaTime": 6,
        "running": true,
        "channel": 0,
        "type": "noteOn",
        "noteNumber": 72,
        "velocity": 69
      },
      {
        "deltaTime": 7,
        "channel": 0,
        "type": "noteOff",
        "noteNumber": 72,
        "velocity": 0,
        "byte9": true
      },
      {
        "deltaTime": 4,
        "running": true,
        "channel": 0,
        "type": "noteOn",
        "noteNumber": 75,
        "velocity": 53
      },
      {
        "deltaTime": 3,
        "running": true,
        "channel": 0,
        "type": "noteOff",
        "noteNumber": 75,
        "velocity": 0,
        "byte9": true
      },
      {
        "deltaTime": 8,
        "channel": 0,
        "type": "noteOff",
        "noteNumber": 63,
        "velocity": 0,
        "byte9": true
      },
      {
        "deltaTime": 0,
        "channel": 0,
        "type": "noteOn",
        "noteNumber": 77,
        "velocity": 51
      },
      {
        "deltaTime": 10,
        "running": true,
        "channel": 0,
        "type": "noteOff",
        "noteNumber": 77,
        "velocity": 0,
        "byte9": true
      },
      {
        "deltaTime": 0,
        "running": true,
        "channel": 0,
        "type": "noteOn",
        "noteNumber": 79,
        "velocity": 38
      },
      {
        "deltaTime": 5,
        "running": true,
        "channel": 0,
        "type": "noteOff",
        "noteNumber": 79,
        "velocity": 0,
        "byte9": true
      },
      {
        "deltaTime": 6,
        "running": true,
        "channel": 0,
        "type": "noteOn",
        "noteNumber": 82,
        "velocity": 57
      },
      {
        "deltaTime": 7,
        "running": true,
        "channel": 0,
        "type": "noteOff",
        "noteNumber": 82,
        "velocity": 0,
        "byte9": true
      },
      {
        "deltaTime": 4,
        "running": true,
        "channel": 0,
        "type": "noteOff",
        "noteNumber": 58,
        "velocity": 0,
        "byte9": true
      },
      {
        "deltaTime": 3,
        "running": true,
        "channel": 0,
        "type": "noteOn",
        "noteNumber": 84,
        "velocity": 54
      },
      {
        "deltaTime": 6,
        "channel": 0,
        "type": "noteOff",
        "noteNumber": 60,
        "velocity": 0,
        "byte9": true
      },
      {
        "deltaTime": 0,
        "channel": 0,
        "type": "noteOff",
        "noteNumber": 84,
        "velocity": 0,
        "byte9": true
      },
      {
        "deltaTime": 4,
        "running": true,
        "channel": 0,
        "type": "noteOn",
        "noteNumber": 87,
        "velocity": 46
      },
      {
        "deltaTime": 4,
        "running": true,
        "channel": 0,
        "type": "noteOff",
        "noteNumber": 87,
        "velocity": 0,
        "byte9": true
      },
      {
        "deltaTime": 22,
        "running": true,
        "channel": 0,
        "type": "noteOn",
        "noteNumber": 91,
        "velocity": 65
      },
      {
        "deltaTime": 9,
        "running": true,
        "channel": 0,
        "type": "noteOff",
        "noteNumber": 91,
        "velocity": 0,
        "byte9": true
      },
      {
        "deltaTime": 5,
        "channel": 0,
        "type": "controller",
        "controllerType": 85,
        "value": 6
      },
      {
        "deltaTime": 0,
        "running": true,
        "channel": 0,
        "type": "controller",
        "controllerType": 86,
        "value": 6
      },
      {
        "deltaTime": 42,
        "channel": 0,
        "type": "noteOn",
        "noteNumber": 63,
        "velocity": 30
      },
      {
        "deltaTime": 4,
        "channel": 0,
        "type": "noteOn",
        "noteNumber": 60,
        "velocity": 34
      },
      {
        "deltaTime": 2,
        "running": true,
        "channel": 0,
        "type": "noteOn",
        "noteNumber": 58,
        "velocity": 17
      },
      {
        "deltaTime": 25,
        "channel": 0,
        "type": "noteOn",
        "noteNumber": 75,
        "velocity": 59
      },
      {
        "deltaTime": 1,
        "running": true,
        "channel": 0,
        "type": "noteOn",
        "noteNumber": 70,
        "velocity": 65
      },
      {
        "deltaTime": 12,
        "channel": 0,
        "type": "noteOff",
        "noteNumber": 63,
        "velocity": 0,
        "byte9": true
      },
      {
        "deltaTime": 6,
        "channel": 0,
        "type": "noteOff",
        "noteNumber": 75,
        "velocity": 0,
        "byte9": true
      },
      {
        "deltaTime": 0,
        "running": true,
        "channel": 0,
        "type": "noteOff",
        "noteNumber": 70,
        "velocity": 0,
        "byte9": true
      },
      {
        "deltaTime": 2,
        "running": true,
        "channel": 0,
        "type": "noteOn",
        "noteNumber": 67,
        "velocity": 46
      },
      {
        "deltaTime": 0,
        "running": true,
        "channel": 0,
        "type": "noteOn",
        "noteNumber": 72,
        "velocity": 50
      },
      {
        "deltaTime": 8,
        "channel": 0,
        "type": "noteOff",
        "noteNumber": 60,
        "velocity": 0,
        "byte9": true
      },
      {
        "deltaTime": 3,
        "channel": 0,
        "type": "noteOff",
        "noteNumber": 67,
        "velocity": 0,
        "byte9": true
      },
      {
        "deltaTime": 4,
        "running": true,
        "channel": 0,
        "type": "noteOff",
        "noteNumber": 72,
        "velocity": 0,
        "byte9": true
      },
      {
        "deltaTime": 7,
        "channel": 0,
        "type": "noteOn",
        "noteNumber": 75,
        "velocity": 57
      },
      {
        "deltaTime": 1,
        "running": true,
        "channel": 0,
        "type": "noteOn",
        "noteNumber": 70,
        "velocity": 61
      },
      {
        "deltaTime": 1,
        "channel": 0,
        "type": "noteOn",
        "noteNumber": 63,
        "velocity": 33
      },
      {
        "deltaTime": 1,
        "running": true,
        "channel": 0,
        "type": "noteOn",
        "noteNumber": 60,
        "velocity": 36
      },
      {
        "deltaTime": 13,
        "channel": 0,
        "type": "noteOff",
        "noteNumber": 75,
        "velocity": 0,
        "byte9": true
      },
      {
        "deltaTime": 3,
        "running": true,
        "channel": 0,
        "type": "noteOff",
        "noteNumber": 70,
        "velocity": 0,
        "byte9": true
      },
      {
        "deltaTime": 2,
        "running": true,
        "channel": 0,
        "type": "noteOn",
        "noteNumber": 67,
        "velocity": 46
      },
      {
        "deltaTime": 3,
        "channel": 0,
        "type": "noteOff",
        "noteNumber": 60,
        "velocity": 0,
        "byte9": true
      },
      {
        "deltaTime": 0,
        "channel": 0,
        "type": "noteOn",
        "noteNumber": 72,
        "velocity": 51
      },
      {
        "deltaTime": 3,
        "channel": 0,
        "type": "noteOff",
        "noteNumber": 63,
        "velocity": 0,
        "byte9": true
      },
      {
        "deltaTime": 6,
        "channel": 0,
        "type": "noteOff",
        "noteNumber": 67,
        "velocity": 0,
        "byte9": true
      },
      {
        "deltaTime": 4,
        "running": true,
        "channel": 0,
        "type": "noteOff",
        "noteNumber": 72,
        "velocity": 0,
        "byte9": true
      },
      {
        "deltaTime": 6,
        "running": true,
        "channel": 0,
        "type": "noteOn",
        "noteNumber": 70,
        "velocity": 64
      },
      {
        "deltaTime": 1,
        "running": true,
        "channel": 0,
        "type": "noteOn",
        "noteNumber": 75,
        "velocity": 67
      },
      {
        "deltaTime": 3,
        "channel": 0,
        "type": "noteOn",
        "noteNumber": 63,
        "velocity": 32
      },
      {
        "deltaTime": 1,
        "running": true,
        "channel": 0,
        "type": "noteOn",
        "noteNumber": 60,
        "velocity": 34
      },
      {
        "deltaTime": 10,
        "channel": 0,
        "type": "noteOff",
        "noteNumber": 75,
        "velocity": 0,
        "byte9": true
      },
      {
        "deltaTime": 4,
        "running": true,
        "channel": 0,
        "type": "noteOff",
        "noteNumber": 70,
        "velocity": 0,
        "byte9": true
      },
      {
        "deltaTime": 1,
        "channel": 0,
        "type": "noteOff",
        "noteNumber": 63,
        "velocity": 0,
        "byte9": true
      },
      {
        "deltaTime": 1,
        "running": true,
        "channel": 0,
        "type": "noteOff",
        "noteNumber": 58,
        "velocity": 0,
        "byte9": true
      },
      {
        "deltaTime": 1,
        "channel": 0,
        "type": "noteOn",
        "noteNumber": 67,
        "velocity": 54
      },
      {
        "deltaTime": 0,
        "running": true,
        "channel": 0,
        "type": "noteOn",
        "noteNumber": 72,
        "velocity": 61
      },
      {
        "deltaTime": 2,
        "channel": 0,
        "type": "noteOff",
        "noteNumber": 60,
        "velocity": 0,
        "byte9": true
      },
      {
        "deltaTime": 10,
        "channel": 0,
        "type": "noteOff",
        "noteNumber": 67,
        "velocity": 0,
        "byte9": true
      },
      {
        "deltaTime": 2,
        "running": true,
        "channel": 0,
        "type": "noteOff",
        "noteNumber": 72,
        "velocity": 0,
        "byte9": true
      },
      {
        "deltaTime": 7,
        "channel": 0,
        "type": "noteOn",
        "noteNumber": 70,
        "velocity": 69
      },
      {
        "deltaTime": 0,
        "channel": 0,
        "type": "noteOn",
        "noteNumber": 63,
        "velocity": 35
      },
      {
        "deltaTime": 0,
        "channel": 0,
        "type": "noteOn",
        "noteNumber": 75,
        "velocity": 71
      },
      {
        "deltaTime": 3,
        "channel": 0,
        "type": "noteOn",
        "noteNumber": 58,
        "velocity": 36
      },
      {
        "deltaTime": 2,
        "running": true,
        "channel": 0,
        "type": "noteOff",
        "noteNumber": 63,
        "velocity": 0,
        "byte9": true
      },
      {
        "deltaTime": 6,
        "channel": 0,
        "type": "noteOff",
        "noteNumber": 58,
        "velocity": 0,
        "byte9": true
      },
      {
        "deltaTime": 4,
        "channel": 0,
        "type": "noteOff",
        "noteNumber": 75,
        "velocity": 0,
        "byte9": true
      },
      {
        "deltaTime": 2,
        "running": true,
        "channel": 0,
        "type": "noteOff",
        "noteNumber": 70,
        "velocity": 0,
        "byte9": true
      },
      {
        "deltaTime": 3,
        "running": true,
        "channel": 0,
        "type": "noteOn",
        "noteNumber": 67,
        "velocity": 54
      },
      {
        "deltaTime": 1,
        "running": true,
        "channel": 0,
        "type": "noteOn",
        "noteNumber": 72,
        "velocity": 56
      },
      {
        "deltaTime": 6,
        "running": true,
        "channel": 0,
        "type": "noteOff",
        "noteNumber": 67,
        "velocity": 0,
        "byte9": true
      },
      {
        "deltaTime": 2,
        "running": true,
        "channel": 0,
        "type": "noteOff",
        "noteNumber": 72,
        "velocity": 0,
        "byte9": true
      },
      {
        "deltaTime": 9,
        "channel": 0,
        "type": "controller",
        "controllerType": 85,
        "value": 12
      },
      {
        "deltaTime": 0,
        "running": true,
        "channel": 0,
        "type": "controller",
        "controllerType": 86,
        "value": 12
      },
      {
        "deltaTime": 0,
        "meta": true,
        "type": "text",
        "text": "Same idea on Dm7b5 (alternating 7th and 11th with 4th and 10th)-"
      },
      {
        "deltaTime": 4,
        "channel": 0,
        "type": "noteOn",
        "noteNumber": 72,
        "velocity": 65
      },
      {
        "deltaTime": 0,
        "channel": 0,
        "type": "noteOn",
        "noteNumber": 56,
        "velocity": 39
      },
      {
        "deltaTime": 0,
        "running": true,
        "channel": 0,
        "type": "noteOn",
        "noteNumber": 50,
        "velocity": 43
      },
      {
        "deltaTime": 0,
        "channel": 0,
        "type": "noteOn",
        "noteNumber": 79,
        "velocity": 68
      },
      {
        "deltaTime": 0,
        "channel": 0,
        "type": "noteOn",
        "noteNumber": 60,
        "velocity": 48
      },
      {
        "deltaTime": 16,
        "channel": 0,
        "type": "noteOff",
        "noteNumber": 72,
        "velocity": 0,
        "byte9": true
      },
      {
        "deltaTime": 0,
        "running": true,
        "channel": 0,
        "type": "noteOff",
        "noteNumber": 79,
        "velocity": 0,
        "byte9": true
      },
      {
        "deltaTime": 3,
        "running": true,
        "channel": 0,
        "type": "noteOn",
        "noteNumber": 67,
        "velocity": 64
      },
      {
        "deltaTime": 3,
        "channel": 0,
        "type": "noteOn",
        "noteNumber": 77,
        "velocity": 38
      },
      {
        "deltaTime": 9,
        "running": true,
        "channel": 0,
        "type": "noteOff",
        "noteNumber": 67,
        "velocity": 0,
        "byte9": true
      },
      {
        "deltaTime": 2,
        "channel": 0,
        "type": "noteOff",
        "noteNumber": 60,
        "velocity": 0,
        "byte9": true
      },
      {
        "deltaTime": 3,
        "channel": 0,
        "type": "noteOff",
        "noteNumber": 77,
        "velocity": 0,
        "byte9": true
      },
      {
        "deltaTime": 7,
        "channel": 0,
        "type": "noteOn",
        "noteNumber": 79,
        "velocity": 68
      },
      {
        "deltaTime": 1,
        "running": true,
        "channel": 0,
        "type": "noteOn",
        "noteNumber": 72,
        "velocity": 69
      },
      {
        "deltaTime": 1,
        "channel": 0,
        "type": "noteOn",
        "noteNumber": 60,
        "velocity": 35
      },
      {
        "deltaTime": 9,
        "channel": 0,
        "type": "noteOff",
        "noteNumber": 79,
        "velocity": 0,
        "byte9": true
      },
      {
        "deltaTime": 2,
        "running": true,
        "channel": 0,
        "type": "noteOff",
        "noteNumber": 72,
        "velocity": 0,
        "byte9": true
      },
      {
        "deltaTime": 5,
        "channel": 0,
        "type": "noteOn",
        "noteNumber": 67,
        "velocity": 38
      },
      {
        "deltaTime": 0,
        "running": true,
        "channel": 0,
        "type": "noteOn",
        "noteNumber": 77,
        "velocity": 30
      },
      {
        "deltaTime": 2,
        "channel": 0,
        "type": "noteOff",
        "noteNumber": 60,
        "velocity": 0,
        "byte9": true
      },
      {
        "deltaTime": 5,
        "running": true,
        "channel": 0,
        "type": "noteOff",
        "noteNumber": 56,
        "velocity": 0,
        "byte9": true
      },
      {
        "deltaTime": 6,
        "channel": 0,
        "type": "noteOff",
        "noteNumber": 67,
        "velocity": 0,
        "byte9": true
      },
      {
        "deltaTime": 4,
        "running": true,
        "channel": 0,
        "type": "noteOff",
        "noteNumber": 77,
        "velocity": 0,
        "byte9": true
      },
      {
        "deltaTime": 8,
        "running": true,
        "channel": 0,
        "type": "noteOn",
        "noteNumber": 79,
        "velocity": 67
      },
      {
        "deltaTime": 0,
        "running": true,
        "channel": 0,
        "type": "noteOn",
        "noteNumber": 72,
        "velocity": 68
      },
      {
        "deltaTime": 2,
        "channel": 0,
        "type": "noteOn",
        "noteNumber": 60,
        "velocity": 36
      },
      {
        "deltaTime": 1,
        "channel": 0,
        "type": "noteOn",
        "noteNumber": 67,
        "velocity": 42
      },
      {
        "deltaTime": 3,
        "channel": 0,
        "type": "noteOn",
        "noteNumber": 56,
        "velocity": 19
      },
      {
        "deltaTime": 6,
        "channel": 0,
        "type": "noteOff",
        "noteNumber": 72,
        "velocity": 0,
        "byte9": true
      },
      {
        "deltaTime": 0,
        "running": true,
        "channel": 0,
        "type": "noteOff",
        "noteNumber": 67,
        "velocity": 0,
        "byte9": true
      },
      {
        "deltaTime": 0,
        "running": true,
        "channel": 0,
        "type": "noteOn",
        "noteNumber": 77,
        "velocity": 38
      },
      {
        "deltaTime": 1,
        "running": true,
        "channel": 0,
        "type": "noteOff",
        "noteNumber": 79,
        "velocity": 0,
        "byte9": true
      },
      {
        "deltaTime": 7,
        "channel": 0,
        "type": "noteOff",
        "noteNumber": 60,
        "velocity": 0,
        "byte9": true
      },
      {
        "deltaTime": 4,
        "running": true,
        "channel": 0,
        "type": "noteOff",
        "noteNumber": 56,
        "velocity": 0,
        "byte9": true
      },
      {
        "deltaTime": 0,
        "channel": 0,
        "type": "noteOff",
        "noteNumber": 77,
        "velocity": 0,
        "byte9": true
      },
      {
        "deltaTime": 9,
        "channel": 0,
        "type": "noteOn",
        "noteNumber": 72,
        "velocity": 47
      },
      {
        "deltaTime": 5,
        "channel": 0,
        "type": "noteOn",
        "noteNumber": 56,
        "velocity": 28
      },
      {
        "deltaTime": 0,
        "running": true,
        "channel": 0,
        "type": "noteOn",
        "noteNumber": 67,
        "velocity": 44
      },
      {
        "deltaTime": 0,
        "channel": 0,
        "type": "noteOn",
        "noteNumber": 79,
        "velocity": 58
      },
      {
        "deltaTime": 1,
        "channel": 0,
        "type": "noteOn",
        "noteNumber": 60,
        "velocity": 31
      },
      {
        "deltaTime": 8,
        "channel": 0,
        "type": "noteOff",
        "noteNumber": 72,
        "velocity": 0,
        "byte9": true
      },
      {
        "deltaTime": 4,
        "channel": 0,
        "type": "noteOff",
        "noteNumber": 67,
        "velocity": 0,
        "byte9": true
      },
      {
        "deltaTime": 2,
        "channel": 0,
        "type": "noteOff",
        "noteNumber": 79,
        "velocity": 0,
        "byte9": true
      },
      {
        "deltaTime": 1,
        "channel": 0,
        "type": "noteOff",
        "noteNumber": 50,
        "velocity": 0,
        "byte9": true
      },
      {
        "deltaTime": 8,
        "channel": 0,
        "type": "noteOn",
        "noteNumber": 77,
        "velocity": 55
      },
      {
        "deltaTime": 15,
        "running": true,
        "channel": 0,
        "type": "noteOff",
        "noteNumber": 77,
        "velocity": 0,
        "byte9": true
      },
      {
        "deltaTime": 9,
        "running": true,
        "channel": 0,
        "type": "noteOn",
        "noteNumber": 79,
        "velocity": 73
      },
      {
        "deltaTime": 2,
        "channel": 0,
        "type": "noteOff",
        "noteNumber": 60,
        "velocity": 0,
        "byte9": true
      },
      {
        "deltaTime": 0,
        "running": true,
        "channel": 0,
        "type": "noteOn",
        "noteNumber": 50,
        "velocity": 31
      },
      {
        "deltaTime": 0,
        "channel": 0,
        "type": "noteOn",
        "noteNumber": 75,
        "velocity": 60
      },
      {
        "deltaTime": 1,
        "running": true,
        "channel": 0,
        "type": "noteOn",
        "noteNumber": 70,
        "velocity": 39
      },
      {
        "deltaTime": 4,
        "channel": 0,
        "type": "noteOff",
        "noteNumber": 50,
        "velocity": 0,
        "byte9": true
      },
      {
        "deltaTime": 4,
        "channel": 0,
        "type": "noteOff",
        "noteNumber": 75,
        "velocity": 0,
        "byte9": true
      },
      {
        "deltaTime": 6,
        "running": true,
        "channel": 0,
        "type": "noteOff",
        "noteNumber": 79,
        "velocity": 0,
        "byte9": true
      },
      {
        "deltaTime": 0,
        "running": true,
        "channel": 0,
        "type": "noteOff",
        "noteNumber": 70,
        "velocity": 0,
        "byte9": true
      },
      {
        "deltaTime": 5,
        "running": true,
        "channel": 0,
        "type": "noteOn",
        "noteNumber": 77,
        "velocity": 46
      },
      {
        "deltaTime": 1,
        "channel": 0,
        "type": "noteOff",
        "noteNumber": 56,
        "velocity": 0,
        "byte9": true
      },
      {
        "deltaTime": 14,
        "channel": 0,
        "type": "noteOff",
        "noteNumber": 77,
        "velocity": 0,
        "byte9": true
      },
      {
        "deltaTime": 5,
        "channel": 0,
        "type": "noteOn",
        "noteNumber": 79,
        "velocity": 73
      },
      {
        "deltaTime": 1,
        "running": true,
        "channel": 0,
        "type": "noteOn",
        "noteNumber": 70,
        "velocity": 74
      },
      {
        "deltaTime": 1,
        "channel": 0,
        "type": "noteOn",
        "noteNumber": 59,
        "velocity": 48
      },
      {
        "deltaTime": 1,
        "channel": 0,
        "type": "noteOn",
        "noteNumber": 75,
        "velocity": 42
      },
      {
        "deltaTime": 0,
        "channel": 0,
        "type": "noteOn",
        "noteNumber": 49,
        "velocity": 37
      },
      {
        "deltaTime": 0,
        "running": true,
        "channel": 0,
        "type": "noteOn",
        "noteNumber": 53,
        "velocity": 46
      },
      {
        "deltaTime": 3,
        "channel": 0,
        "type": "noteOff",
        "noteNumber": 75,
        "velocity": 0,
        "byte9": true
      },
      {
        "deltaTime": 12,
        "channel": 0,
        "type": "noteOff",
        "noteNumber": 53,
        "velocity": 0,
        "byte9": true
      },
      {
        "deltaTime": 2,
        "channel": 0,
        "type": "noteOff",
        "noteNumber": 70,
        "velocity": 0,
        "byte9": true
      },
      {
        "deltaTime": 0,
        "channel": 0,
        "type": "noteOff",
        "noteNumber": 49,
        "velocity": 0,
        "byte9": true
      },
      {
        "deltaTime": 2,
        "channel": 0,
        "type": "controller",
        "controllerType": 85,
        "value": 4
      },
      {
        "deltaTime": 0,
        "running": true,
        "channel": 0,
        "type": "controller",
        "controllerType": 86,
        "value": 12
      },
      {
        "deltaTime": 1,
        "meta": true,
        "type": "text",
        "text": "On Db9#11 alternate 9th and  13th with 7th and #11th)-"
      },
      {
        "deltaTime": 0,
        "channel": 0,
        "type": "noteOn",
        "noteNumber": 75,
        "velocity": 69
      },
      {
        "deltaTime": 1,
        "running": true,
        "channel": 0,
        "type": "noteOff",
        "noteNumber": 79,
        "velocity": 0,
        "byte9": true
      },
      {
        "deltaTime": 2,
        "channel": 0,
        "type": "noteOff",
        "noteNumber": 59,
        "velocity": 0,
        "byte9": true
      },
      {
        "deltaTime": 8,
        "channel": 0,
        "type": "noteOff",
        "noteNumber": 75,
        "velocity": 0,
        "byte9": true
      },
      {
        "deltaTime": 13,
        "running": true,
        "channel": 0,
        "type": "noteOn",
        "noteNumber": 82,
        "velocity": 82
      },
      {
        "deltaTime": 0,
        "running": true,
        "channel": 0,
        "type": "noteOn",
        "noteNumber": 75,
        "velocity": 82
      },
      {
        "deltaTime": 1,
        "channel": 0,
        "type": "noteOn",
        "noteNumber": 53,
        "velocity": 45
      },
      {
        "deltaTime": 0,
        "running": true,
        "channel": 0,
        "type": "noteOn",
        "noteNumber": 63,
        "velocity": 46
      },
      {
        "deltaTime": 1,
        "running": true,
        "channel": 0,
        "type": "noteOn",
        "noteNumber": 59,
        "velocity": 57
      },
      {
        "deltaTime": 15,
        "channel": 0,
        "type": "noteOff",
        "noteNumber": 75,
        "velocity": 0,
        "byte9": true
      },
      {
        "deltaTime": 3,
        "running": true,
        "channel": 0,
        "type": "noteOff",
        "noteNumber": 82,
        "velocity": 0,
        "byte9": true
      },
      {
        "deltaTime": 2,
        "channel": 0,
        "type": "noteOn",
        "noteNumber": 79,
        "velocity": 41
      },
      {
        "deltaTime": 1,
        "running": true,
        "channel": 0,
        "type": "noteOn",
        "noteNumber": 71,
        "velocity": 40
      },
      {
        "deltaTime": 12,
        "running": true,
        "channel": 0,
        "type": "noteOff",
        "noteNumber": 71,
        "velocity": 0,
        "byte9": true
      },
      {
        "deltaTime": 3,
        "running": true,
        "channel": 0,
        "type": "noteOff",
        "noteNumber": 79,
        "velocity": 0,
        "byte9": true
      },
      {
        "deltaTime": 3,
        "channel": 0,
        "type": "noteOff",
        "noteNumber": 63,
        "velocity": 0,
        "byte9": true
      },
      {
        "deltaTime": 3,
        "channel": 0,
        "type": "noteOn",
        "noteNumber": 82,
        "velocity": 48
      },
      {
        "deltaTime": 1,
        "running": true,
        "channel": 0,
        "type": "noteOn",
        "noteNumber": 75,
        "velocity": 60
      },
      {
        "deltaTime": 13,
        "running": true,
        "channel": 0,
        "type": "noteOff",
        "noteNumber": 75,
        "velocity": 0,
        "byte9": true
      },
      {
        "deltaTime": 2,
        "channel": 0,
        "type": "noteOff",
        "noteNumber": 82,
        "velocity": 0,
        "byte9": true
      },
      {
        "deltaTime": 6,
        "running": true,
        "channel": 0,
        "type": "noteOn",
        "noteNumber": 79,
        "velocity": 35
      },
      {
        "deltaTime": 1,
        "running": true,
        "channel": 0,
        "type": "noteOn",
        "noteNumber": 71,
        "velocity": 24
      },
      {
        "deltaTime": 2,
        "channel": 0,
        "type": "noteOff",
        "noteNumber": 59,
        "velocity": 0,
        "byte9": true
      },
      {
        "deltaTime": 6,
        "channel": 0,
        "type": "noteOff",
        "noteNumber": 71,
        "velocity": 0,
        "byte9": true
      },
      {
        "deltaTime": 4,
        "running": true,
        "channel": 0,
        "type": "noteOff",
        "noteNumber": 79,
        "velocity": 0,
        "byte9": true
      },
      {
        "deltaTime": 6,
        "running": true,
        "channel": 0,
        "type": "noteOn",
        "noteNumber": 82,
        "velocity": 59
      },
      {
        "deltaTime": 1,
        "running": true,
        "channel": 0,
        "type": "noteOn",
        "noteNumber": 75,
        "velocity": 59
      },
      {
        "deltaTime": 1,
        "channel": 0,
        "type": "noteOn",
        "noteNumber": 59,
        "velocity": 22
      },
      {
        "deltaTime": 1,
        "running": true,
        "channel": 0,
        "type": "noteOn",
        "noteNumber": 63,
        "velocity": 33
      },
      {
        "deltaTime": 1,
        "channel": 0,
        "type": "noteOn",
        "noteNumber": 71,
        "velocity": 32
      },
      {
        "deltaTime": 6,
        "channel": 0,
        "type": "controller",
        "controllerType": 85,
        "value": 12
      },
      {
        "deltaTime": 0,
        "running": true,
        "channel": 0,
        "type": "controller",
        "controllerType": 86,
        "value": 12
      },
      {
        "deltaTime": 11,
        "channel": 0,
        "type": "noteOff",
        "noteNumber": 82,
        "velocity": 0,
        "byte9": true
      },
      {
        "deltaTime": 2,
        "channel": 0,
        "type": "noteOff",
        "noteNumber": 53,
        "velocity": 0,
        "byte9": true
      },
      {
        "deltaTime": 1,
        "channel": 0,
        "type": "noteOff",
        "noteNumber": 75,
        "velocity": 0,
        "byte9": true
      },
      {
        "deltaTime": 5,
        "channel": 0,
        "type": "noteOff",
        "noteNumber": 59,
        "velocity": 0,
        "byte9": true
      },
      {
        "deltaTime": 0,
        "channel": 0,
        "type": "noteOff",
        "noteNumber": 71,
        "velocity": 0,
        "byte9": true
      },
      {
        "deltaTime": 4,
        "channel": 0,
        "type": "noteOff",
        "noteNumber": 63,
        "velocity": 0,
        "byte9": true
      },
      {
        "deltaTime": 34,
        "channel": 0,
        "type": "noteOn",
        "noteNumber": 79,
        "velocity": 65
      },
      {
        "deltaTime": 1,
        "running": true,
        "channel": 0,
        "type": "noteOn",
        "noteNumber": 75,
        "velocity": 73
      },
      {
        "deltaTime": 0,
        "running": true,
        "channel": 0,
        "type": "noteOn",
        "noteNumber": 67,
        "velocity": 65
      },
      {
        "deltaTime": 2,
        "channel": 0,
        "type": "noteOn",
        "noteNumber": 63,
        "velocity": 50
      },
      {
        "deltaTime": 2,
        "running": true,
        "channel": 0,
        "type": "noteOn",
        "noteNumber": 59,
        "velocity": 55
      },
      {
        "deltaTime": 0,
        "running": true,
        "channel": 0,
        "type": "noteOn",
        "noteNumber": 53,
        "velocity": 36
      },
      {
        "deltaTime": 13,
        "channel": 0,
        "type": "noteOff",
        "noteNumber": 67,
        "velocity": 0,
        "byte9": true
      },
      {
        "deltaTime": 0,
        "channel": 0,
        "type": "noteOff",
        "noteNumber": 63,
        "velocity": 0,
        "byte9": true
      },
      {
        "deltaTime": 0,
        "running": true,
        "channel": 0,
        "type": "noteOff",
        "noteNumber": 53,
        "velocity": 0,
        "byte9": true
      },
      {
        "deltaTime": 1,
        "channel": 0,
        "type": "noteOff",
        "noteNumber": 79,
        "velocity": 0,
        "byte9": true
      },
      {
        "deltaTime": 3,
        "running": true,
        "channel": 0,
        "type": "noteOff",
        "noteNumber": 75,
        "velocity": 0,
        "byte9": true
      },
      {
        "deltaTime": 1,
        "channel": 0,
        "type": "noteOff",
        "noteNumber": 59,
        "velocity": 0,
        "byte9": true
      },
      {
        "deltaTime": 6,
        "channel": 0,
        "type": "noteOn",
        "noteNumber": 75,
        "velocity": 71
      },
      {
        "deltaTime": 0,
        "running": true,
        "channel": 0,
        "type": "noteOn",
        "noteNumber": 79,
        "velocity": 38
      },
      {
        "deltaTime": 1,
        "running": true,
        "channel": 0,
        "type": "noteOn",
        "noteNumber": 67,
        "velocity": 60
      },
      {
        "deltaTime": 1,
        "channel": 0,
        "type": "noteOn",
        "noteNumber": 63,
        "velocity": 46
      },
      {
        "deltaTime": 1,
        "running": true,
        "channel": 0,
        "type": "noteOn",
        "noteNumber": 59,
        "velocity": 55
      },
      {
        "deltaTime": 1,
        "channel": 0,
        "type": "noteOn",
        "noteNumber": 77,
        "velocity": 28
      },
      {
        "deltaTime": 1,
        "channel": 0,
        "type": "noteOn",
        "noteNumber": 53,
        "velocity": 34
      },
      {
        "deltaTime": 2,
        "running": true,
        "channel": 0,
        "type": "noteOff",
        "noteNumber": 59,
        "velocity": 0,
        "byte9": true
      },
      {
        "deltaTime": 1,
        "channel": 0,
        "type": "noteOff",
        "noteNumber": 79,
        "velocity": 0,
        "byte9": true
      },
      {
        "deltaTime": 0,
        "running": true,
        "channel": 0,
        "type": "noteOff",
        "noteNumber": 67,
        "velocity": 0,
        "byte9": true
      },
      {
        "deltaTime": 2,
        "channel": 0,
        "type": "noteOff",
        "noteNumber": 63,
        "velocity": 0,
        "byte9": true
      },
      {
        "deltaTime": 0,
        "channel": 0,
        "type": "noteOff",
        "noteNumber": 77,
        "velocity": 0,
        "byte9": true
      },
      {
        "deltaTime": 2,
        "channel": 0,
        "type": "noteOff",
        "noteNumber": 53,
        "velocity": 0,
        "byte9": true
      },
      {
        "deltaTime": 4,
        "channel": 0,
        "type": "noteOff",
        "noteNumber": 75,
        "velocity": 0,
        "byte9": true
      },
      {
        "deltaTime": 8,
        "running": true,
        "channel": 0,
        "type": "noteOn",
        "noteNumber": 80,
        "velocity": 59
      },
      {
        "deltaTime": 1,
        "running": true,
        "channel": 0,
        "type": "noteOn",
        "noteNumber": 70,
        "velocity": 53
      },
      {
        "deltaTime": 5,
        "running": true,
        "channel": 0,
        "type": "noteOff",
        "noteNumber": 70,
        "velocity": 0,
        "byte9": true
      },
      {
        "deltaTime": 1,
        "running": true,
        "channel": 0,
        "type": "noteOff",
        "noteNumber": 80,
        "velocity": 0,
        "byte9": true
      },
      {
        "deltaTime": 16,
        "running": true,
        "channel": 0,
        "type": "noteOn",
        "noteNumber": 77,
        "velocity": 62
      },
      {
        "deltaTime": 0,
        "channel": 0,
        "type": "noteOn",
        "noteNumber": 58,
        "velocity": 47
      },
      {
        "deltaTime": 0,
        "channel": 0,
        "type": "noteOn",
        "noteNumber": 65,
        "velocity": 66
      },
      {
        "deltaTime": 1,
        "channel": 0,
        "type": "noteOn",
        "noteNumber": 48,
        "velocity": 43
      },
      {
        "deltaTime": 38,
        "channel": 0,
        "type": "noteOff",
        "noteNumber": 58,
        "velocity": 0,
        "byte9": true
      },
      {
        "deltaTime": 6,
        "running": true,
        "channel": 0,
        "type": "noteOff",
        "noteNumber": 48,
        "velocity": 0,
        "byte9": true
      },
      {
        "deltaTime": 17,
        "channel": 0,
        "type": "noteOff",
        "noteNumber": 65,
        "velocity": 0,
        "byte9": true
      },
      {
        "deltaTime": 38,
        "running": true,
        "channel": 0,
        "type": "noteOn",
        "noteNumber": 70,
        "velocity": 48
      },
      {
        "deltaTime": 1,
        "running": true,
        "channel": 0,
        "type": "noteOn",
        "noteNumber": 65,
        "velocity": 51
      },
      {
        "deltaTime": 1,
        "channel": 0,
        "type": "noteOn",
        "noteNumber": 58,
        "velocity": 36
      },
      {
        "deltaTime": 1,
        "running": true,
        "channel": 0,
        "type": "noteOn",
        "noteNumber": 60,
        "velocity": 28
      },
      {
        "deltaTime": 41,
        "channel": 0,
        "type": "noteOff",
        "noteNumber": 70,
        "velocity": 0,
        "byte9": true
      },
      {
        "deltaTime": 2,
        "running": true,
        "channel": 0,
        "type": "noteOff",
        "noteNumber": 65,
        "velocity": 0,
        "byte9": true
      },
      {
        "deltaTime": 7,
        "channel": 0,
        "type": "noteOff",
        "noteNumber": 60,
        "velocity": 0,
        "byte9": true
      },
      {
        "deltaTime": 11,
        "running": true,
        "channel": 0,
        "type": "noteOff",
        "noteNumber": 58,
        "velocity": 0,
        "byte9": true
      },
      {
        "deltaTime": 8,
        "channel": 0,
        "type": "noteOff",
        "noteNumber": 77,
        "velocity": 0,
        "byte9": true
      },
      {
        "deltaTime": 45,
        "running": true,
        "channel": 0,
        "type": "noteOn",
        "noteNumber": 67,
        "velocity": 71
      },
      {
        "deltaTime": 1,
        "running": true,
        "channel": 0,
        "type": "noteOn",
        "noteNumber": 56,
        "velocity": 61
      },
      {
        "deltaTime": 1,
        "running": true,
        "channel": 0,
        "type": "noteOn",
        "noteNumber": 60,
        "velocity": 71
      },
      {
        "deltaTime": 0,
        "channel": 0,
        "type": "noteOn",
        "noteNumber": 55,
        "velocity": 65
      },
      {
        "deltaTime": 1,
        "channel": 0,
        "type": "noteOn",
        "noteNumber": 63,
        "velocity": 44
      },
      {
        "deltaTime": 7,
        "channel": 0,
        "type": "controller",
        "controllerType": 85,
        "value": 6
      },
      {
        "deltaTime": 0,
        "running": true,
        "channel": 0,
        "type": "controller",
        "controllerType": 86,
        "value": 6
      },
      {
        "deltaTime": 5,
        "channel": 0,
        "type": "noteOff",
        "noteNumber": 67,
        "velocity": 0,
        "byte9": true
      },
      {
        "deltaTime": 0,
        "running": true,
        "channel": 0,
        "type": "noteOff",
        "noteNumber": 60,
        "velocity": 0,
        "byte9": true
      },
      {
        "deltaTime": 2,
        "running": true,
        "channel": 0,
        "type": "noteOff",
        "noteNumber": 56,
        "velocity": 0,
        "byte9": true
      },
      {
        "deltaTime": 2,
        "running": true,
        "channel": 0,
        "type": "noteOff",
        "noteNumber": 63,
        "velocity": 0,
        "byte9": true
      },
      {
        "deltaTime": 7,
        "channel": 0,
        "type": "noteOff",
        "noteNumber": 55,
        "velocity": 0,
        "byte9": true
      },
      {
        "deltaTime": 8,
        "running": true,
        "channel": 0,
        "type": "noteOn",
        "noteNumber": 54,
        "velocity": 35
      },
      {
        "deltaTime": 16,
        "running": true,
        "channel": 0,
        "type": "noteOff",
        "noteNumber": 54,
        "velocity": 0,
        "byte9": true
      },
      {
        "deltaTime": 9,
        "channel": 0,
        "type": "noteOn",
        "noteNumber": 56,
        "velocity": 30
      },
      {
        "deltaTime": 1,
        "running": true,
        "channel": 0,
        "type": "noteOn",
        "noteNumber": 60,
        "velocity": 54
      },
      {
        "deltaTime": 0,
        "channel": 0,
        "type": "noteOn",
        "noteNumber": 53,
        "velocity": 37
      },
      {
        "deltaTime": 0,
        "channel": 0,
        "type": "noteOn",
        "noteNumber": 65,
        "velocity": 48
      },
      {
        "deltaTime": 1,
        "running": true,
        "channel": 0,
        "type": "noteOn",
        "noteNumber": 63,
        "velocity": 33
      },
      {
        "deltaTime": 23,
        "channel": 0,
        "type": "noteOff",
        "noteNumber": 65,
        "velocity": 0,
        "byte9": true
      },
      {
        "deltaTime": 1,
        "running": true,
        "channel": 0,
        "type": "noteOff",
        "noteNumber": 60,
        "velocity": 0,
        "byte9": true
      },
      {
        "deltaTime": 0,
        "running": true,
        "channel": 0,
        "type": "noteOff",
        "noteNumber": 63,
        "velocity": 0,
        "byte9": true
      },
      {
        "deltaTime": 4,
        "channel": 0,
        "type": "noteOff",
        "noteNumber": 53,
        "velocity": 0,
        "byte9": true
      },
      {
        "deltaTime": 3,
        "channel": 0,
        "type": "noteOff",
        "noteNumber": 56,
        "velocity": 0,
        "byte9": true
      },
      {
        "deltaTime": 29,
        "channel": 0,
        "type": "noteOn",
        "noteNumber": 53,
        "velocity": 27
      },
      {
        "deltaTime": 4,
        "channel": 0,
        "type": "noteOn",
        "noteNumber": 48,
        "velocity": 16
      },
      {
        "deltaTime": 2,
        "channel": 0,
        "type": "noteOn",
        "noteNumber": 56,
        "velocity": 37
      },
      {
        "deltaTime": 0,
        "running": true,
        "channel": 0,
        "type": "noteOn",
        "noteNumber": 60,
        "velocity": 50
      },
      {
        "deltaTime": 14,
        "channel": 0,
        "type": "noteOff",
        "noteNumber": 53,
        "velocity": 0,
        "byte9": true
      },
      {
        "deltaTime": 15,
        "channel": 0,
        "type": "noteOff",
        "noteNumber": 60,
        "velocity": 0,
        "byte9": true
      },
      {
        "deltaTime": 5,
        "running": true,
        "channel": 0,
        "type": "noteOff",
        "noteNumber": 56,
        "velocity": 0,
        "byte9": true
      },
      {
        "deltaTime": 17,
        "channel": 0,
        "type": "noteOff",
        "noteNumber": 48,
        "velocity": 0,
        "byte9": true
      },
      {
        "deltaTime": 74,
        "running": true,
        "channel": 0,
        "type": "noteOn",
        "noteNumber": 61,
        "velocity": 29
      },
      {
        "deltaTime": 1,
        "channel": 0,
        "type": "noteOn",
        "noteNumber": 87,
        "velocity": 60
      },
      {
        "deltaTime": 1,
        "channel": 0,
        "type": "noteOn",
        "noteNumber": 51,
        "velocity": 31
      },
      {
        "deltaTime": 1,
        "running": true,
        "channel": 0,
        "type": "noteOn",
        "noteNumber": 58,
        "velocity": 35
      },
      {
        "deltaTime": 0,
        "channel": 0,
        "type": "noteOn",
        "noteNumber": 75,
        "velocity": 29
      },
      {
        "deltaTime": 0,
        "channel": 0,
        "type": "noteOn",
        "noteNumber": 54,
        "velocity": 34
      },
      {
        "deltaTime": 38,
        "channel": 0,
        "type": "noteOff",
        "noteNumber": 87,
        "velocity": 0,
        "byte9": true
      },
      {
        "deltaTime": 3,
        "running": true,
        "channel": 0,
        "type": "noteOff",
        "noteNumber": 75,
        "velocity": 0,
        "byte9": true
      },
      {
        "deltaTime": 5,
        "channel": 0,
        "type": "noteOff",
        "noteNumber": 58,
        "velocity": 0,
        "byte9": true
      },
      {
        "deltaTime": 1,
        "running": true,
        "channel": 0,
        "type": "noteOff",
        "noteNumber": 51,
        "velocity": 0,
        "byte9": true
      },
      {
        "deltaTime": 0,
        "running": true,
        "channel": 0,
        "type": "noteOff",
        "noteNumber": 54,
        "velocity": 0,
        "byte9": true
      },
      {
        "deltaTime": 4,
        "running": true,
        "channel": 0,
        "type": "noteOff",
        "noteNumber": 61,
        "velocity": 0,
        "byte9": true
      },
      {
        "deltaTime": 7,
        "channel": 0,
        "type": "noteOn",
        "noteNumber": 87,
        "velocity": 67
      },
      {
        "deltaTime": 17,
        "running": true,
        "channel": 0,
        "type": "noteOff",
        "noteNumber": 87,
        "velocity": 0,
        "byte9": true
      },
      {
        "deltaTime": 43,
        "channel": 0,
        "type": "noteOn",
        "noteNumber": 65,
        "velocity": 81
      },
      {
        "deltaTime": 1,
        "running": true,
        "channel": 0,
        "type": "noteOn",
        "noteNumber": 58,
        "velocity": 62
      },
      {
        "deltaTime": 0,
        "running": true,
        "channel": 0,
        "type": "noteOn",
        "noteNumber": 61,
        "velocity": 53
      },
      {
        "deltaTime": 0,
        "running": true,
        "channel": 0,
        "type": "noteOn",
        "noteNumber": 54,
        "velocity": 61
      },
      {
        "deltaTime": 0,
        "channel": 0,
        "type": "noteOn",
        "noteNumber": 87,
        "velocity": 82
      },
      {
        "deltaTime": 2,
        "channel": 0,
        "type": "noteOn",
        "noteNumber": 82,
        "velocity": 78
      },
      {
        "deltaTime": 0,
        "running": true,
        "channel": 0,
        "type": "noteOn",
        "noteNumber": 75,
        "velocity": 74
      },
      {
        "deltaTime": 25,
        "channel": 0,
        "type": "noteOff",
        "noteNumber": 54,
        "velocity": 0,
        "byte9": true
      },
      {
        "deltaTime": 0,
        "channel": 0,
        "type": "noteOff",
        "noteNumber": 75,
        "velocity": 0,
        "byte9": true
      },
      {
        "deltaTime": 2,
        "channel": 0,
        "type": "noteOff",
        "noteNumber": 65,
        "velocity": 0,
        "byte9": true
      },
      {
        "deltaTime": 0,
        "channel": 0,
        "type": "noteOff",
        "noteNumber": 82,
        "velocity": 0,
        "byte9": true
      },
      {
        "deltaTime": 2,
        "running": true,
        "channel": 0,
        "type": "noteOff",
        "noteNumber": 87,
        "velocity": 0,
        "byte9": true
      },
      {
        "deltaTime": 1,
        "channel": 0,
        "type": "noteOff",
        "noteNumber": 58,
        "velocity": 0,
        "byte9": true
      },
      {
        "deltaTime": 0,
        "running": true,
        "channel": 0,
        "type": "noteOff",
        "noteNumber": 61,
        "velocity": 0,
        "byte9": true
      },
      {
        "deltaTime": 10,
        "running": true,
        "channel": 0,
        "type": "noteOn",
        "noteNumber": 58,
        "velocity": 71
      },
      {
        "deltaTime": 0,
        "running": true,
        "channel": 0,
        "type": "noteOn",
        "noteNumber": 65,
        "velocity": 83
      },
      {
        "deltaTime": 1,
        "running": true,
        "channel": 0,
        "type": "noteOn",
        "noteNumber": 54,
        "velocity": 73
      },
      {
        "deltaTime": 0,
        "running": true,
        "channel": 0,
        "type": "noteOn",
        "noteNumber": 61,
        "velocity": 59
      },
      {
        "deltaTime": 1,
        "channel": 0,
        "type": "noteOn",
        "noteNumber": 82,
        "velocity": 80
      },
      {
        "deltaTime": 0,
        "running": true,
        "channel": 0,
        "type": "noteOn",
        "noteNumber": 89,
        "velocity": 74
      },
      {
        "deltaTime": 1,
        "running": true,
        "channel": 0,
        "type": "noteOn",
        "noteNumber": 77,
        "velocity": 69
      },
      {
        "deltaTime": 1,
        "running": true,
        "channel": 0,
        "type": "noteOn",
        "noteNumber": 88,
        "velocity": 50
      },
      {
        "deltaTime": 4,
        "channel": 0,
        "type": "noteOff",
        "noteNumber": 88,
        "velocity": 0,
        "byte9": true
      },
      {
        "deltaTime": 8,
        "running": true,
        "channel": 0,
        "type": "noteOff",
        "noteNumber": 89,
        "velocity": 0,
        "byte9": true
      },
      {
        "deltaTime": 4,
        "running": true,
        "channel": 0,
        "type": "noteOff",
        "noteNumber": 77,
        "velocity": 0,
        "byte9": true
      },
      {
        "deltaTime": 2,
        "channel": 0,
        "type": "noteOff",
        "noteNumber": 54,
        "velocity": 0,
        "byte9": true
      },
      {
        "deltaTime": 0,
        "channel": 0,
        "type": "noteOff",
        "noteNumber": 82,
        "velocity": 0,
        "byte9": true
      },
      {
        "deltaTime": 1,
        "channel": 0,
        "type": "noteOff",
        "noteNumber": 65,
        "velocity": 0,
        "byte9": true
      },
      {
        "deltaTime": 1,
        "running": true,
        "channel": 0,
        "type": "noteOff",
        "noteNumber": 58,
        "velocity": 0,
        "byte9": true
      },
      {
        "deltaTime": 2,
        "running": true,
        "channel": 0,
        "type": "noteOff",
        "noteNumber": 61,
        "velocity": 0,
        "byte9": true
      },
      {
        "deltaTime": 12,
        "channel": 0,
        "type": "noteOn",
        "noteNumber": 87,
        "velocity": 69
      },
      {
        "deltaTime": 1,
        "running": true,
        "channel": 0,
        "type": "noteOn",
        "noteNumber": 75,
        "velocity": 69
      },
      {
        "deltaTime": 0,
        "channel": 0,
        "type": "noteOn",
        "noteNumber": 65,
        "velocity": 75
      },
      {
        "deltaTime": 0,
        "running": true,
        "channel": 0,
        "type": "noteOn",
        "noteNumber": 61,
        "velocity": 53
      },
      {
        "deltaTime": 1,
        "running": true,
        "channel": 0,
        "type": "noteOn",
        "noteNumber": 58,
        "velocity": 64
      },
      {
        "deltaTime": 1,
        "channel": 0,
        "type": "noteOn",
        "noteNumber": 82,
        "velocity": 53
      },
      {
        "deltaTime": 0,
        "channel": 0,
        "type": "noteOn",
        "noteNumber": 54,
        "velocity": 47
      },
      {
        "deltaTime": 3,
        "channel": 0,
        "type": "noteOff",
        "noteNumber": 82,
        "velocity": 0,
        "byte9": true
      },
      {
        "deltaTime": 2,
        "running": true,
        "channel": 0,
        "type": "noteOff",
        "noteNumber": 75,
        "velocity": 0,
        "byte9": true
      },
      {
        "deltaTime": 3,
        "running": true,
        "channel": 0,
        "type": "noteOff",
        "noteNumber": 87,
        "velocity": 0,
        "byte9": true
      },
      {
        "deltaTime": 1,
        "channel": 0,
        "type": "noteOff",
        "noteNumber": 65,
        "velocity": 0,
        "byte9": true
      },
      {
        "deltaTime": 2,
        "running": true,
        "channel": 0,
        "type": "noteOff",
        "noteNumber": 54,
        "velocity": 0,
        "byte9": true
      },
      {
        "deltaTime": 5,
        "running": true,
        "channel": 0,
        "type": "noteOff",
        "noteNumber": 61,
        "velocity": 0,
        "byte9": true
      },
      {
        "deltaTime": 8,
        "running": true,
        "channel": 0,
        "type": "noteOff",
        "noteNumber": 58,
        "velocity": 0,
        "byte9": true
      },
      {
        "deltaTime": 12,
        "running": true,
        "channel": 0,
        "type": "noteOn",
        "noteNumber": 65,
        "velocity": 72
      },
      {
        "deltaTime": 0,
        "channel": 0,
        "type": "noteOn",
        "noteNumber": 89,
        "velocity": 75
      },
      {
        "deltaTime": 1,
        "channel": 0,
        "type": "noteOn",
        "noteNumber": 60,
        "velocity": 65
      },
      {
        "deltaTime": 0,
        "channel": 0,
        "type": "noteOn",
        "noteNumber": 82,
        "velocity": 64
      },
      {
        "deltaTime": 0,
        "channel": 0,
        "type": "noteOn",
        "noteNumber": 54,
        "velocity": 64
      },
      {
        "deltaTime": 0,
        "channel": 0,
        "type": "noteOn",
        "noteNumber": 77,
        "velocity": 60
      },
      {
        "deltaTime": 1,
        "channel": 0,
        "type": "noteOn",
        "noteNumber": 86,
        "velocity": 53
      },
      {
        "deltaTime": 73,
        "channel": 0,
        "type": "noteOff",
        "noteNumber": 65,
        "velocity": 0,
        "byte9": true
      },
      {
        "deltaTime": 0,
        "channel": 0,
        "type": "noteOff",
        "noteNumber": 89,
        "velocity": 0,
        "byte9": true
      },
      {
        "deltaTime": 3,
        "running": true,
        "channel": 0,
        "type": "noteOff",
        "noteNumber": 86,
        "velocity": 0,
        "byte9": true
      },
      {
        "deltaTime": 2,
        "channel": 0,
        "type": "noteOff",
        "noteNumber": 60,
        "velocity": 0,
        "byte9": true
      },
      {
        "deltaTime": 2,
        "channel": 0,
        "type": "noteOff",
        "noteNumber": 77,
        "velocity": 0,
        "byte9": true
      },
      {
        "deltaTime": 2,
        "channel": 0,
        "type": "noteOff",
        "noteNumber": 54,
        "velocity": 0,
        "byte9": true
      },
      {
        "deltaTime": 10,
        "channel": 0,
        "type": "noteOff",
        "noteNumber": 82,
        "velocity": 0,
        "byte9": true
      },
      {
        "deltaTime": 27,
        "running": true,
        "channel": 0,
        "type": "noteOn",
        "noteNumber": 87,
        "velocity": 56
      },
      {
        "deltaTime": 0,
        "channel": 0,
        "type": "noteOn",
        "noteNumber": 64,
        "velocity": 46
      },
      {
        "deltaTime": 1,
        "running": true,
        "channel": 0,
        "type": "noteOn",
        "noteNumber": 60,
        "velocity": 42
      },
      {
        "deltaTime": 0,
        "running": true,
        "channel": 0,
        "type": "noteOn",
        "noteNumber": 54,
        "velocity": 43
      },
      {
        "deltaTime": 0,
        "channel": 0,
        "type": "noteOn",
        "noteNumber": 82,
        "velocity": 47
      },
      {
        "deltaTime": 1,
        "running": true,
        "channel": 0,
        "type": "noteOn",
        "noteNumber": 75,
        "velocity": 31
      },
      {
        "deltaTime": 33,
        "channel": 0,
        "type": "noteOff",
        "noteNumber": 87,
        "velocity": 0,
        "byte9": true
      },
      {
        "deltaTime": 3,
        "running": true,
        "channel": 0,
        "type": "noteOff",
        "noteNumber": 82,
        "velocity": 0,
        "byte9": true
      },
      {
        "deltaTime": 5,
        "channel": 0,
        "type": "noteOff",
        "noteNumber": 64,
        "velocity": 0,
        "byte9": true
      },
      {
        "deltaTime": 0,
        "channel": 0,
        "type": "noteOff",
        "noteNumber": 75,
        "velocity": 0,
        "byte9": true
      },
      {
        "deltaTime": 9,
        "channel": 0,
        "type": "noteOff",
        "noteNumber": 60,
        "velocity": 0,
        "byte9": true
      },
      {
        "deltaTime": 11,
        "running": true,
        "channel": 0,
        "type": "noteOff",
        "noteNumber": 54,
        "velocity": 0,
        "byte9": true
      },
      {
        "deltaTime": 53,
        "running": true,
        "channel": 0,
        "type": "noteOn",
        "noteNumber": 59,
        "velocity": 46
      },
      {
        "deltaTime": 1,
        "channel": 0,
        "type": "noteOn",
        "noteNumber": 64,
        "velocity": 54
      },
      {
        "deltaTime": 3,
        "channel": 0,
        "type": "noteOn",
        "noteNumber": 49,
        "velocity": 35
      },
      {
        "deltaTime": 69,
        "channel": 0,
        "type": "noteOff",
        "noteNumber": 59,
        "velocity": 0,
        "byte9": true
      },
      {
        "deltaTime": 5,
        "channel": 0,
        "type": "noteOff",
        "noteNumber": 64,
        "velocity": 0,
        "byte9": true
      },
      {
        "deltaTime": 23,
        "channel": 0,
        "type": "noteOff",
        "noteNumber": 49,
        "velocity": 0,
        "byte9": true
      },
      {
        "deltaTime": 9,
        "channel": 0,
        "type": "noteOn",
        "noteNumber": 75,
        "velocity": 80
      },
      {
        "deltaTime": 15,
        "running": true,
        "channel": 0,
        "type": "noteOff",
        "noteNumber": 75,
        "velocity": 0,
        "byte9": true
      },
      {
        "deltaTime": 29,
        "running": true,
        "channel": 0,
        "type": "noteOn",
        "noteNumber": 75,
        "velocity": 82
      },
      {
        "deltaTime": 1,
        "running": true,
        "channel": 0,
        "type": "noteOn",
        "noteNumber": 64,
        "velocity": 79
      },
      {
        "deltaTime": 1,
        "running": true,
        "channel": 0,
        "type": "noteOn",
        "noteNumber": 68,
        "velocity": 50
      },
      {
        "deltaTime": 1,
        "running": true,
        "channel": 0,
        "type": "noteOn",
        "noteNumber": 71,
        "velocity": 46
      },
      {
        "deltaTime": 23,
        "running": true,
        "channel": 0,
        "type": "noteOff",
        "noteNumber": 64,
        "velocity": 0,
        "byte9": true
      },
      {
        "deltaTime": 0,
        "running": true,
        "channel": 0,
        "type": "noteOff",
        "noteNumber": 71,
        "velocity": 0,
        "byte9": true
      },
      {
        "deltaTime": 4,
        "running": true,
        "channel": 0,
        "type": "noteOff",
        "noteNumber": 75,
        "velocity": 0,
        "byte9": true
      },
      {
        "deltaTime": 1,
        "running": true,
        "channel": 0,
        "type": "noteOff",
        "noteNumber": 68,
        "velocity": 0,
        "byte9": true
      },
      {
        "deltaTime": 5,
        "running": true,
        "channel": 0,
        "type": "noteOn",
        "noteNumber": 73,
        "velocity": 59
      },
      {
        "deltaTime": 4,
        "running": true,
        "channel": 0,
        "type": "noteOn",
        "noteNumber": 68,
        "velocity": 30
      },
      {
        "deltaTime": 5,
        "running": true,
        "channel": 0,
        "type": "noteOff",
        "noteNumber": 68,
        "velocity": 0,
        "byte9": true
      },
      {
        "deltaTime": 19,
        "running": true,
        "channel": 0,
        "type": "noteOff",
        "noteNumber": 73,
        "velocity": 0,
        "byte9": true
      },
      {
        "deltaTime": 16,
        "running": true,
        "channel": 0,
        "type": "noteOn",
        "noteNumber": 75,
        "velocity": 76
      },
      {
        "deltaTime": 1,
        "running": true,
        "channel": 0,
        "type": "noteOn",
        "noteNumber": 68,
        "velocity": 64
      },
      {
        "deltaTime": 0,
        "running": true,
        "channel": 0,
        "type": "noteOn",
        "noteNumber": 70,
        "velocity": 64
      },
      {
        "deltaTime": 0,
        "running": true,
        "channel": 0,
        "type": "noteOn",
        "noteNumber": 64,
        "velocity": 73
      },
      {
        "deltaTime": 1,
        "channel": 0,
        "type": "noteOn",
        "noteNumber": 63,
        "velocity": 69
      },
      {
        "deltaTime": 34,
        "channel": 0,
        "type": "noteOff",
        "noteNumber": 75,
        "velocity": 0,
        "byte9": true
      },
      {
        "deltaTime": 1,
        "running": true,
        "channel": 0,
        "type": "noteOff",
        "noteNumber": 64,
        "velocity": 0,
        "byte9": true
      },
      {
        "deltaTime": 1,
        "channel": 0,
        "type": "noteOff",
        "noteNumber": 63,
        "velocity": 0,
        "byte9": true
      },
      {
        "deltaTime": 2,
        "channel": 0,
        "type": "noteOff",
        "noteNumber": 68,
        "velocity": 0,
        "byte9": true
      },
      {
        "deltaTime": 1,
        "running": true,
        "channel": 0,
        "type": "noteOff",
        "noteNumber": 70,
        "velocity": 0,
        "byte9": true
      },
      {
        "deltaTime": 5,
        "running": true,
        "channel": 0,
        "type": "noteOn",
        "noteNumber": 75,
        "velocity": 70
      },
      {
        "deltaTime": 0,
        "running": true,
        "channel": 0,
        "type": "noteOn",
        "noteNumber": 68,
        "velocity": 64
      },
      {
        "deltaTime": 1,
        "channel": 0,
        "type": "noteOn",
        "noteNumber": 63,
        "velocity": 63
      },
      {
        "deltaTime": 0,
        "channel": 0,
        "type": "noteOn",
        "noteNumber": 64,
        "velocity": 68
      },
      {
        "deltaTime": 0,
        "running": true,
        "channel": 0,
        "type": "noteOn",
        "noteNumber": 70,
        "velocity": 74
      },
      {
        "deltaTime": 27,
        "running": true,
        "channel": 0,
        "type": "noteOff",
        "noteNumber": 64,
        "velocity": 0,
        "byte9": true
      },
      {
        "deltaTime": 4,
        "running": true,
        "channel": 0,
        "type": "noteOff",
        "noteNumber": 75,
        "velocity": 0,
        "byte9": true
      },
      {
        "deltaTime": 0,
        "running": true,
        "channel": 0,
        "type": "noteOff",
        "noteNumber": 68,
        "velocity": 0,
        "byte9": true
      },
      {
        "deltaTime": 0,
        "running": true,
        "channel": 0,
        "type": "noteOff",
        "noteNumber": 70,
        "velocity": 0,
        "byte9": true
      },
      {
        "deltaTime": 5,
        "channel": 0,
        "type": "noteOn",
        "noteNumber": 61,
        "velocity": 77
      },
      {
        "deltaTime": 0,
        "channel": 0,
        "type": "noteOn",
        "noteNumber": 73,
        "velocity": 54
      },
      {
        "deltaTime": 1,
        "channel": 0,
        "type": "noteOff",
        "noteNumber": 63,
        "velocity": 0,
        "byte9": true
      },
      {
        "deltaTime": 0,
        "channel": 0,
        "type": "noteOn",
        "noteNumber": 64,
        "velocity": 71
      },
      {
        "deltaTime": 0,
        "running": true,
        "channel": 0,
        "type": "noteOn",
        "noteNumber": 68,
        "velocity": 56
      },
      {
        "deltaTime": 1,
        "running": true,
        "channel": 0,
        "type": "noteOn",
        "noteNumber": 70,
        "velocity": 60
      },
      {
        "deltaTime": 13,
        "running": true,
        "channel": 0,
        "type": "noteOff",
        "noteNumber": 70,
        "velocity": 0,
        "byte9": true
      },
      {
        "deltaTime": 2,
        "running": true,
        "channel": 0,
        "type": "noteOff",
        "noteNumber": 64,
        "velocity": 0,
        "byte9": true
      },
      {
        "deltaTime": 3,
        "running": true,
        "channel": 0,
        "type": "noteOff",
        "noteNumber": 68,
        "velocity": 0,
        "byte9": true
      },
      {
        "deltaTime": 5,
        "running": true,
        "channel": 0,
        "type": "noteOff",
        "noteNumber": 73,
        "velocity": 0,
        "byte9": true
      },
      {
        "deltaTime": 11,
        "channel": 0,
        "type": "noteOn",
        "noteNumber": 75,
        "velocity": 79
      },
      {
        "deltaTime": 0,
        "running": true,
        "channel": 0,
        "type": "noteOn",
        "noteNumber": 68,
        "velocity": 81
      },
      {
        "deltaTime": 0,
        "running": true,
        "channel": 0,
        "type": "noteOn",
        "noteNumber": 70,
        "velocity": 80
      },
      {
        "deltaTime": 0,
        "channel": 0,
        "type": "noteOn",
        "noteNumber": 63,
        "velocity": 79
      },
      {
        "deltaTime": 1,
        "channel": 0,
        "type": "noteOn",
        "noteNumber": 64,
        "velocity": 87
      },
      {
        "deltaTime": 7,
        "channel": 0,
        "type": "noteOff",
        "noteNumber": 61,
        "velocity": 0,
        "byte9": true
      },
      {
        "deltaTime": 3,
        "channel": 0,
        "type": "noteOff",
        "noteNumber": 64,
        "velocity": 0,
        "byte9": true
      },
      {
        "deltaTime": 8,
        "channel": 0,
        "type": "noteOff",
        "noteNumber": 68,
        "velocity": 0,
        "byte9": true
      },
      {
        "deltaTime": 4,
        "running": true,
        "channel": 0,
        "type": "noteOff",
        "noteNumber": 75,
        "velocity": 0,
        "byte9": true
      },
      {
        "deltaTime": 0,
        "running": true,
        "channel": 0,
        "type": "noteOff",
        "noteNumber": 70,
        "velocity": 0,
        "byte9": true
      },
      {
        "deltaTime": 1,
        "channel": 0,
        "type": "noteOff",
        "noteNumber": 63,
        "velocity": 0,
        "byte9": true
      },
      {
        "deltaTime": 9,
        "running": true,
        "channel": 0,
        "type": "noteOn",
        "noteNumber": 64,
        "velocity": 82
      },
      {
        "deltaTime": 1,
        "channel": 0,
        "type": "noteOn",
        "noteNumber": 76,
        "velocity": 74
      },
      {
        "deltaTime": 13,
        "channel": 0,
        "type": "noteOff",
        "noteNumber": 64,
        "velocity": 0,
        "byte9": true
      },
      {
        "deltaTime": 0,
        "channel": 0,
        "type": "noteOff",
        "noteNumber": 76,
        "velocity": 0,
        "byte9": true
      },
      {
        "deltaTime": 13,
        "channel": 0,
        "type": "noteOn",
        "noteNumber": 63,
        "velocity": 67
      },
      {
        "deltaTime": 1,
        "channel": 0,
        "type": "noteOn",
        "noteNumber": 75,
        "velocity": 78
      },
      {
        "deltaTime": 3,
        "running": true,
        "channel": 0,
        "type": "noteOn",
        "noteNumber": 68,
        "velocity": 35
      },
      {
        "deltaTime": 0,
        "running": true,
        "channel": 0,
        "type": "noteOn",
        "noteNumber": 64,
        "velocity": 38
      },
      {
        "deltaTime": 7,
        "channel": 0,
        "type": "noteOff",
        "noteNumber": 63,
        "velocity": 0,
        "byte9": true
      },
      {
        "deltaTime": 2,
        "channel": 0,
        "type": "noteOff",
        "noteNumber": 64,
        "velocity": 0,
        "byte9": true
      },
      {
        "deltaTime": 5,
        "running": true,
        "channel": 0,
        "type": "noteOff",
        "noteNumber": 75,
        "velocity": 0,
        "byte9": true
      },
      {
        "deltaTime": 4,
        "running": true,
        "channel": 0,
        "type": "noteOff",
        "noteNumber": 68,
        "velocity": 0,
        "byte9": true
      },
      {
        "deltaTime": 7,
        "running": true,
        "channel": 0,
        "type": "noteOn",
        "noteNumber": 73,
        "velocity": 34
      },
      {
        "deltaTime": 12,
        "running": true,
        "channel": 0,
        "type": "noteOff",
        "noteNumber": 73,
        "velocity": 0,
        "byte9": true
      },
      {
        "deltaTime": 17,
        "running": true,
        "channel": 0,
        "type": "noteOn",
        "noteNumber": 66,
        "velocity": 46
      },
      {
        "deltaTime": 0,
        "running": true,
        "channel": 0,
        "type": "noteOn",
        "noteNumber": 72,
        "velocity": 54
      },
      {
        "deltaTime": 1,
        "running": true,
        "channel": 0,
        "type": "noteOn",
        "noteNumber": 75,
        "velocity": 55
      },
      {
        "deltaTime": 0,
        "channel": 0,
        "type": "noteOn",
        "noteNumber": 58,
        "velocity": 46
      },
      {
        "deltaTime": 0,
        "channel": 0,
        "type": "noteOn",
        "noteNumber": 70,
        "velocity": 44
      },
      {
        "deltaTime": 2,
        "channel": 0,
        "type": "noteOn",
        "noteNumber": 48,
        "velocity": 44
      },
      {
        "deltaTime": 50,
        "channel": 0,
        "type": "noteOff",
        "noteNumber": 58,
        "velocity": 0,
        "byte9": true
      },
      {
        "deltaTime": 26,
        "channel": 0,
        "type": "noteOff",
        "noteNumber": 72,
        "velocity": 0,
        "byte9": true
      },
      {
        "deltaTime": 14,
        "running": true,
        "channel": 0,
        "type": "noteOff",
        "noteNumber": 70,
        "velocity": 0,
        "byte9": true
      },
      {
        "deltaTime": 1,
        "running": true,
        "channel": 0,
        "type": "noteOff",
        "noteNumber": 66,
        "velocity": 0,
        "byte9": true
      },
      {
        "deltaTime": 35,
        "channel": 0,
        "type": "controller",
        "controllerType": 86,
        "value": 4
      },
      {
        "deltaTime": 3,
        "channel": 0,
        "type": "noteOn",
        "noteNumber": 66,
        "velocity": 27
      },
      {
        "deltaTime": 2,
        "running": true,
        "channel": 0,
        "type": "noteOn",
        "noteNumber": 58,
        "velocity": 31
      },
      {
        "deltaTime": 2,
        "channel": 0,
        "type": "noteOff",
        "noteNumber": 75,
        "velocity": 0,
        "byte9": true
      },
      {
        "deltaTime": 24,
        "channel": 0,
        "type": "noteOff",
        "noteNumber": 66,
        "velocity": 0,
        "byte9": true
      },
      {
        "deltaTime": 4,
        "running": true,
        "channel": 0,
        "type": "noteOff",
        "noteNumber": 48,
        "velocity": 0,
        "byte9": true
      },
      {
        "deltaTime": 2,
        "channel": 0,
        "type": "noteOn",
        "noteNumber": 70,
        "velocity": 68
      },
      {
        "deltaTime": 10,
        "channel": 0,
        "type": "noteOff",
        "noteNumber": 58,
        "velocity": 0,
        "byte9": true
      },
      {
        "deltaTime": 14,
        "channel": 0,
        "type": "noteOff",
        "noteNumber": 70,
        "velocity": 0,
        "byte9": true
      },
      {
        "deltaTime": 5,
        "running": true,
        "channel": 0,
        "type": "noteOn",
        "noteNumber": 72,
        "velocity": 57
      },
      {
        "deltaTime": 17,
        "running": true,
        "channel": 0,
        "type": "noteOff",
        "noteNumber": 72,
        "velocity": 0,
        "byte9": true
      },
      {
        "deltaTime": 11,
        "running": true,
        "channel": 0,
        "type": "noteOn",
        "noteNumber": 75,
        "velocity": 63
      },
      {
        "deltaTime": 13,
        "running": true,
        "channel": 0,
        "type": "noteOff",
        "noteNumber": 75,
        "velocity": 0,
        "byte9": true
      },
      {
        "deltaTime": 17,
        "channel": 0,
        "type": "noteOn",
        "noteNumber": 75,
        "velocity": 57
      },
      {
        "deltaTime": 1,
        "channel": 0,
        "type": "noteOn",
        "noteNumber": 63,
        "velocity": 38
      },
      {
        "deltaTime": 1,
        "channel": 0,
        "type": "noteOn",
        "noteNumber": 66,
        "velocity": 32
      },
      {
        "deltaTime": 0,
        "running": true,
        "channel": 0,
        "type": "noteOn",
        "noteNumber": 69,
        "velocity": 46
      },
      {
        "deltaTime": 2,
        "running": true,
        "channel": 0,
        "type": "noteOn",
        "noteNumber": 72,
        "velocity": 32
      },
      {
        "deltaTime": 3,
        "running": true,
        "channel": 0,
        "type": "noteOff",
        "noteNumber": 69,
        "velocity": 0,
        "byte9": true
      },
      {
        "deltaTime": 2,
        "running": true,
        "channel": 0,
        "type": "noteOff",
        "noteNumber": 72,
        "velocity": 0,
        "byte9": true
      },
      {
        "deltaTime": 1,
        "running": true,
        "channel": 0,
        "type": "noteOff",
        "noteNumber": 66,
        "velocity": 0,
        "byte9": true
      },
      {
        "deltaTime": 2,
        "channel": 0,
        "type": "noteOff",
        "noteNumber": 63,
        "velocity": 0,
        "byte9": true
      },
      {
        "deltaTime": 2,
        "channel": 0,
        "type": "noteOff",
        "noteNumber": 75,
        "velocity": 0,
        "byte9": true
      },
      {
        "deltaTime": 26,
        "running": true,
        "channel": 0,
        "type": "noteOn",
        "noteNumber": 80,
        "velocity": 82
      },
      {
        "deltaTime": 0,
        "running": true,
        "channel": 0,
        "type": "noteOn",
        "noteNumber": 72,
        "velocity": 83
      },
      {
        "deltaTime": 1,
        "running": true,
        "channel": 0,
        "type": "noteOn",
        "noteNumber": 75,
        "velocity": 76
      },
      {
        "deltaTime": 0,
        "running": true,
        "channel": 0,
        "type": "noteOn",
        "noteNumber": 69,
        "velocity": 77
      },
      {
        "deltaTime": 1,
        "channel": 0,
        "type": "noteOn",
        "noteNumber": 68,
        "velocity": 75
      },
      {
        "deltaTime": 30,
        "channel": 0,
        "type": "noteOff",
        "noteNumber": 72,
        "velocity": 0,
        "byte9": true
      },
      {
        "deltaTime": 0,
        "running": true,
        "channel": 0,
        "type": "noteOff",
        "noteNumber": 75,
        "velocity": 0,
        "byte9": true
      },
      {
        "deltaTime": 1,
        "running": true,
        "channel": 0,
        "type": "noteOff",
        "noteNumber": 69,
        "velocity": 0,
        "byte9": true
      },
      {
        "deltaTime": 2,
        "running": true,
        "channel": 0,
        "type": "noteOff",
        "noteNumber": 80,
        "velocity": 0,
        "byte9": true
      },
      {
        "deltaTime": 4,
        "channel": 0,
        "type": "noteOff",
        "noteNumber": 68,
        "velocity": 0,
        "byte9": true
      },
      {
        "deltaTime": 1,
        "channel": 0,
        "type": "noteOn",
        "noteNumber": 75,
        "velocity": 52
      },
      {
        "deltaTime": 0,
        "running": true,
        "channel": 0,
        "type": "noteOn",
        "noteNumber": 78,
        "velocity": 56
      },
      {
        "deltaTime": 0,
        "channel": 0,
        "type": "noteOn",
        "noteNumber": 66,
        "velocity": 65
      },
      {
        "deltaTime": 1,
        "channel": 0,
        "type": "noteOn",
        "noteNumber": 69,
        "velocity": 63
      },
      {
        "deltaTime": 0,
        "running": true,
        "channel": 0,
        "type": "noteOn",
        "noteNumber": 72,
        "velocity": 55
      },
      {
        "deltaTime": 10,
        "running": true,
        "channel": 0,
        "type": "noteOff",
        "noteNumber": 72,
        "velocity": 0,
        "byte9": true
      },
      {
        "deltaTime": 2,
        "channel": 0,
        "type": "noteOff",
        "noteNumber": 75,
        "velocity": 0,
        "byte9": true
      },
      {
        "deltaTime": 1,
        "running": true,
        "channel": 0,
        "type": "noteOff",
        "noteNumber": 78,
        "velocity": 0,
        "byte9": true
      },
      {
        "deltaTime": 4,
        "running": true,
        "channel": 0,
        "type": "noteOff",
        "noteNumber": 69,
        "velocity": 0,
        "byte9": true
      },
      {
        "deltaTime": 18,
        "channel": 0,
        "type": "noteOff",
        "noteNumber": 66,
        "velocity": 0,
        "byte9": true
      },
      {
        "deltaTime": 4,
        "channel": 0,
        "type": "noteOn",
        "noteNumber": 77,
        "velocity": 54
      },
      {
        "deltaTime": 1,
        "channel": 0,
        "type": "noteOn",
        "noteNumber": 66,
        "velocity": 38
      },
      {
        "deltaTime": 0,
        "running": true,
        "channel": 0,
        "type": "noteOn",
        "noteNumber": 69,
        "velocity": 55
      },
      {
        "deltaTime": 0,
        "channel": 0,
        "type": "noteOn",
        "noteNumber": 65,
        "velocity": 62
      },
      {
        "deltaTime": 3,
        "channel": 0,
        "type": "noteOn",
        "noteNumber": 72,
        "velocity": 19
      },
      {
        "deltaTime": 21,
        "channel": 0,
        "type": "noteOff",
        "noteNumber": 72,
        "velocity": 0,
        "byte9": true
      },
      {
        "deltaTime": 2,
        "running": true,
        "channel": 0,
        "type": "noteOff",
        "noteNumber": 69,
        "velocity": 0,
        "byte9": true
      },
      {
        "deltaTime": 1,
        "running": true,
        "channel": 0,
        "type": "noteOff",
        "noteNumber": 77,
        "velocity": 0,
        "byte9": true
      },
      {
        "deltaTime": 2,
        "running": true,
        "channel": 0,
        "type": "noteOff",
        "noteNumber": 66,
        "velocity": 0,
        "byte9": true
      },
      {
        "deltaTime": 9,
        "running": true,
        "channel": 0,
        "type": "noteOn",
        "noteNumber": 66,
        "velocity": 48
      },
      {
        "deltaTime": 1,
        "channel": 0,
        "type": "noteOff",
        "noteNumber": 65,
        "velocity": 0,
        "byte9": true
      },
      {
        "deltaTime": 0,
        "channel": 0,
        "type": "noteOn",
        "noteNumber": 75,
        "velocity": 52
      },
      {
        "deltaTime": 1,
        "channel": 0,
        "type": "noteOn",
        "noteNumber": 63,
        "velocity": 39
      },
      {
        "deltaTime": 3,
        "channel": 0,
        "type": "noteOn",
        "noteNumber": 72,
        "velocity": 44
      },
      {
        "deltaTime": 1,
        "running": true,
        "channel": 0,
        "type": "noteOn",
        "noteNumber": 69,
        "velocity": 30
      },
      {
        "deltaTime": 6,
        "running": true,
        "channel": 0,
        "type": "noteOff",
        "noteNumber": 69,
        "velocity": 0,
        "byte9": true
      },
      {
        "deltaTime": 18,
        "running": true,
        "channel": 0,
        "type": "noteOff",
        "noteNumber": 66,
        "velocity": 0,
        "byte9": true
      },
      {
        "deltaTime": 0,
        "running": true,
        "channel": 0,
        "type": "noteOff",
        "noteNumber": 75,
        "velocity": 0,
        "byte9": true
      },
      {
        "deltaTime": 0,
        "channel": 0,
        "type": "noteOff",
        "noteNumber": 63,
        "velocity": 0,
        "byte9": true
      },
      {
        "deltaTime": 1,
        "channel": 0,
        "type": "noteOff",
        "noteNumber": 72,
        "velocity": 0,
        "byte9": true
      },
      {
        "deltaTime": 6,
        "channel": 0,
        "type": "noteOn",
        "noteNumber": 61,
        "velocity": 50
      },
      {
        "deltaTime": 1,
        "channel": 0,
        "type": "noteOn",
        "noteNumber": 73,
        "velocity": 37
      },
      {
        "deltaTime": 0,
        "running": true,
        "channel": 0,
        "type": "noteOn",
        "noteNumber": 66,
        "velocity": 37
      },
      {
        "deltaTime": 8,
        "running": true,
        "channel": 0,
        "type": "noteOff",
        "noteNumber": 66,
        "velocity": 0,
        "byte9": true
      },
      {
        "deltaTime": 20,
        "running": true,
        "channel": 0,
        "type": "noteOff",
        "noteNumber": 73,
        "velocity": 0,
        "byte9": true
      },
      {
        "deltaTime": 3,
        "channel": 0,
        "type": "noteOff",
        "noteNumber": 61,
        "velocity": 0,
        "byte9": true
      },
      {
        "deltaTime": 8,
        "channel": 0,
        "type": "noteOn",
        "noteNumber": 46,
        "velocity": 59
      },
      {
        "deltaTime": 33,
        "channel": 0,
        "type": "noteOff",
        "noteNumber": 46,
        "velocity": 0,
        "byte9": true
      },
      {
        "deltaTime": 9,
        "channel": 0,
        "type": "noteOn",
        "noteNumber": 73,
        "velocity": 50
      },
      {
        "deltaTime": 0,
        "running": true,
        "channel": 0,
        "type": "noteOn",
        "noteNumber": 61,
        "velocity": 63
      },
      {
        "deltaTime": 1,
        "running": true,
        "channel": 0,
        "type": "noteOn",
        "noteNumber": 65,
        "velocity": 70
      },
      {
        "deltaTime": 1,
        "running": true,
        "channel": 0,
        "type": "noteOn",
        "noteNumber": 68,
        "velocity": 48
      },
      {
        "deltaTime": 1,
        "channel": 0,
        "type": "noteOn",
        "noteNumber": 60,
        "velocity": 57
      },
      {
        "deltaTime": 26,
        "channel": 0,
        "type": "noteOff",
        "noteNumber": 65,
        "velocity": 0,
        "byte9": true
      },
      {
        "deltaTime": 1,
        "running": true,
        "channel": 0,
        "type": "noteOff",
        "noteNumber": 73,
        "velocity": 0,
        "byte9": true
      },
      {
        "deltaTime": 0,
        "running": true,
        "channel": 0,
        "type": "noteOff",
        "noteNumber": 61,
        "velocity": 0,
        "byte9": true
      },
      {
        "deltaTime": 0,
        "running": true,
        "channel": 0,
        "type": "noteOff",
        "noteNumber": 68,
        "velocity": 0,
        "byte9": true
      },
      {
        "deltaTime": 4,
        "running": true,
        "channel": 0,
        "type": "noteOn",
        "noteNumber": 70,
        "velocity": 62
      },
      {
        "deltaTime": 3,
        "channel": 0,
        "type": "noteOff",
        "noteNumber": 60,
        "velocity": 0,
        "byte9": true
      },
      {
        "deltaTime": 0,
        "running": true,
        "channel": 0,
        "type": "noteOn",
        "noteNumber": 58,
        "velocity": 74
      },
      {
        "deltaTime": 11,
        "channel": 0,
        "type": "noteOff",
        "noteNumber": 70,
        "velocity": 0,
        "byte9": true
      },
      {
        "deltaTime": 26,
        "channel": 0,
        "type": "noteOff",
        "noteNumber": 58,
        "velocity": 0,
        "byte9": true
      },
      {
        "deltaTime": 0,
        "channel": 0,
        "type": "noteOn",
        "noteNumber": 75,
        "velocity": 85
      },
      {
        "deltaTime": 0,
        "running": true,
        "channel": 0,
        "type": "noteOn",
        "noteNumber": 67,
        "velocity": 91
      },
      {
        "deltaTime": 0,
        "running": true,
        "channel": 0,
        "type": "noteOn",
        "noteNumber": 70,
        "velocity": 80
      },
      {
        "deltaTime": 1,
        "running": true,
        "channel": 0,
        "type": "noteOn",
        "noteNumber": 64,
        "velocity": 89
      },
      {
        "deltaTime": 0,
        "channel": 0,
        "type": "noteOn",
        "noteNumber": 63,
        "velocity": 83
      },
      {
        "deltaTime": 34,
        "channel": 0,
        "type": "noteOff",
        "noteNumber": 75,
        "velocity": 0,
        "byte9": true
      },
      {
        "deltaTime": 1,
        "running": true,
        "channel": 0,
        "type": "noteOff",
        "noteNumber": 64,
        "velocity": 0,
        "byte9": true
      },
      {
        "deltaTime": 1,
        "running": true,
        "channel": 0,
        "type": "noteOff",
        "noteNumber": 70,
        "velocity": 0,
        "byte9": true
      },
      {
        "deltaTime": 2,
        "running": true,
        "channel": 0,
        "type": "noteOff",
        "noteNumber": 67,
        "velocity": 0,
        "byte9": true
      },
      {
        "deltaTime": 2,
        "channel": 0,
        "type": "noteOff",
        "noteNumber": 63,
        "velocity": 0,
        "byte9": true
      },
      {
        "deltaTime": 2,
        "channel": 0,
        "type": "noteOn",
        "noteNumber": 73,
        "velocity": 51
      },
      {
        "deltaTime": 1,
        "running": true,
        "channel": 0,
        "type": "noteOn",
        "noteNumber": 64,
        "velocity": 70
      },
      {
        "deltaTime": 0,
        "running": true,
        "channel": 0,
        "type": "noteOn",
        "noteNumber": 70,
        "velocity": 64
      },
      {
        "deltaTime": 0,
        "channel": 0,
        "type": "noteOn",
        "noteNumber": 61,
        "velocity": 57
      },
      {
        "deltaTime": 2,
        "channel": 0,
        "type": "noteOn",
        "noteNumber": 67,
        "velocity": 22
      },
      {
        "deltaTime": 4,
        "running": true,
        "channel": 0,
        "type": "noteOff",
        "noteNumber": 67,
        "velocity": 0,
        "byte9": true
      },
      {
        "deltaTime": 2,
        "running": true,
        "channel": 0,
        "type": "noteOff",
        "noteNumber": 70,
        "velocity": 0,
        "byte9": true
      },
      {
        "deltaTime": 4,
        "channel": 0,
        "type": "noteOff",
        "noteNumber": 73,
        "velocity": 0,
        "byte9": true
      },
      {
        "deltaTime": 1,
        "running": true,
        "channel": 0,
        "type": "noteOff",
        "noteNumber": 64,
        "velocity": 0,
        "byte9": true
      },
      {
        "deltaTime": 20,
        "channel": 0,
        "type": "noteOff",
        "noteNumber": 61,
        "velocity": 0,
        "byte9": true
      },
      {
        "deltaTime": 5,
        "channel": 0,
        "type": "noteOn",
        "noteNumber": 64,
        "velocity": 67
      },
      {
        "deltaTime": 0,
        "running": true,
        "channel": 0,
        "type": "noteOn",
        "noteNumber": 72,
        "velocity": 58
      },
      {
        "deltaTime": 1,
        "running": true,
        "channel": 0,
        "type": "noteOn",
        "noteNumber": 61,
        "velocity": 49
      },
      {
        "deltaTime": 0,
        "channel": 0,
        "type": "noteOn",
        "noteNumber": 60,
        "velocity": 64
      },
      {
        "deltaTime": 20,
        "channel": 0,
        "type": "noteOff",
        "noteNumber": 60,
        "velocity": 0,
        "byte9": true
      },
      {
        "deltaTime": 5,
        "channel": 0,
        "type": "noteOff",
        "noteNumber": 64,
        "velocity": 0,
        "byte9": true
      },
      {
        "deltaTime": 0,
        "running": true,
        "channel": 0,
        "type": "noteOff",
        "noteNumber": 72,
        "velocity": 0,
        "byte9": true
      },
      {
        "deltaTime": 0,
        "running": true,
        "channel": 0,
        "type": "noteOff",
        "noteNumber": 61,
        "velocity": 0,
        "byte9": true
      },
      {
        "deltaTime": 15,
        "running": true,
        "channel": 0,
        "type": "noteOn",
        "noteNumber": 70,
        "velocity": 56
      },
      {
        "deltaTime": 0,
        "running": true,
        "channel": 0,
        "type": "noteOn",
        "noteNumber": 61,
        "velocity": 52
      },
      {
        "deltaTime": 1,
        "channel": 0,
        "type": "noteOn",
        "noteNumber": 64,
        "velocity": 60
      },
      {
        "deltaTime": 1,
        "channel": 0,
        "type": "noteOn",
        "noteNumber": 58,
        "velocity": 49
      },
      {
        "deltaTime": 2,
        "channel": 0,
        "type": "noteOn",
        "noteNumber": 67,
        "velocity": 26
      },
      {
        "deltaTime": 27,
        "channel": 0,
        "type": "noteOff",
        "noteNumber": 67,
        "velocity": 0,
        "byte9": true
      },
      {
        "deltaTime": 6,
        "running": true,
        "channel": 0,
        "type": "noteOff",
        "noteNumber": 61,
        "velocity": 0,
        "byte9": true
      },
      {
        "deltaTime": 1,
        "running": true,
        "channel": 0,
        "type": "noteOff",
        "noteNumber": 64,
        "velocity": 0,
        "byte9": true
      },
      {
        "deltaTime": 8,
        "running": true,
        "channel": 0,
        "type": "noteOn",
        "noteNumber": 61,
        "velocity": 37
      },
      {
        "deltaTime": 1,
        "running": true,
        "channel": 0,
        "type": "noteOn",
        "noteNumber": 67,
        "velocity": 35
      },
      {
        "deltaTime": 0,
        "running": true,
        "channel": 0,
        "type": "noteOn",
        "noteNumber": 64,
        "velocity": 58
      },
      {
        "deltaTime": 13,
        "channel": 0,
        "type": "noteOff",
        "noteNumber": 58,
        "velocity": 0,
        "byte9": true
      },
      {
        "deltaTime": 8,
        "channel": 0,
        "type": "noteOff",
        "noteNumber": 70,
        "velocity": 0,
        "byte9": true
      },
      {
        "deltaTime": 2,
        "running": true,
        "channel": 0,
        "type": "noteOff",
        "noteNumber": 67,
        "velocity": 0,
        "byte9": true
      },
      {
        "deltaTime": 2,
        "running": true,
        "channel": 0,
        "type": "noteOff",
        "noteNumber": 64,
        "velocity": 0,
        "byte9": true
      },
      {
        "deltaTime": 7,
        "running": true,
        "channel": 0,
        "type": "noteOff",
        "noteNumber": 61,
        "velocity": 0,
        "byte9": true
      },
      {
        "deltaTime": 39,
        "running": true,
        "channel": 0,
        "type": "noteOn",
        "noteNumber": 64,
        "velocity": 58
      },
      {
        "deltaTime": 0,
        "running": true,
        "channel": 0,
        "type": "noteOn",
        "noteNumber": 55,
        "velocity": 56
      },
      {
        "deltaTime": 0,
        "running": true,
        "channel": 0,
        "type": "noteOn",
        "noteNumber": 61,
        "velocity": 35
      },
      {
        "deltaTime": 1,
        "running": true,
        "channel": 0,
        "type": "noteOn",
        "noteNumber": 59,
        "velocity": 56
      },
      {
        "deltaTime": 2,
        "channel": 0,
        "type": "noteOn",
        "noteNumber": 51,
        "velocity": 38
      },
      {
        "deltaTime": 33,
        "channel": 0,
        "type": "noteOff",
        "noteNumber": 51,
        "velocity": 0,
        "byte9": true
      },
      {
        "deltaTime": 19,
        "channel": 0,
        "type": "noteOff",
        "noteNumber": 55,
        "velocity": 0,
        "byte9": true
      },
      {
        "deltaTime": 4,
        "running": true,
        "channel": 0,
        "type": "noteOff",
        "noteNumber": 59,
        "velocity": 0,
        "byte9": true
      },
      {
        "deltaTime": 4,
        "channel": 0,
        "type": "noteOn",
        "noteNumber": 51,
        "velocity": 53
      },
      {
        "deltaTime": 5,
        "channel": 0,
        "type": "noteOff",
        "noteNumber": 61,
        "velocity": 0,
        "byte9": true
      },
      {
        "deltaTime": 1,
        "running": true,
        "channel": 0,
        "type": "noteOff",
        "noteNumber": 64,
        "velocity": 0,
        "byte9": true
      },
      {
        "deltaTime": 11,
        "channel": 0,
        "type": "noteOff",
        "noteNumber": 51,
        "velocity": 0,
        "byte9": true
      },
      {
        "deltaTime": 43,
        "meta": true,
        "type": "text",
        "text": " the 7th to the 6th with a chromatic passing tone"
      },
      {
        "deltaTime": 0,
        "meta": true,
        "type": "text",
        "text": "Again on each chord, play a moving internal voice  usually descending from"
      },
      {
        "deltaTime": 0,
        "channel": 0,
        "type": "noteOn",
        "noteNumber": 72,
        "velocity": 60
      },
      {
        "deltaTime": 0,
        "running": true,
        "channel": 0,
        "type": "noteOn",
        "noteNumber": 67,
        "velocity": 65
      },
      {
        "deltaTime": 1,
        "running": true,
        "channel": 0,
        "type": "noteOn",
        "noteNumber": 60,
        "velocity": 47
      },
      {
        "deltaTime": 0,
        "channel": 0,
        "type": "noteOn",
        "noteNumber": 55,
        "velocity": 59
      },
      {
        "deltaTime": 1,
        "running": true,
        "channel": 0,
        "type": "noteOn",
        "noteNumber": 44,
        "velocity": 37
      },
      {
        "deltaTime": 27,
        "channel": 0,
        "type": "noteOff",
        "noteNumber": 55,
        "velocity": 0,
        "byte9": true
      },
      {
        "deltaTime": 10,
        "running": true,
        "channel": 0,
        "type": "noteOn",
        "noteNumber": 54,
        "velocity": 73
      },
      {
        "deltaTime": 10,
        "channel": 0,
        "type": "noteOff",
        "noteNumber": 67,
        "velocity": 0,
        "byte9": true
      },
      {
        "deltaTime": 10,
        "running": true,
        "channel": 0,
        "type": "noteOff",
        "noteNumber": 60,
        "velocity": 0,
        "byte9": true
      },
      {
        "deltaTime": 1,
        "channel": 0,
        "type": "noteOff",
        "noteNumber": 54,
        "velocity": 0,
        "byte9": true
      },
      {
        "deltaTime": 11,
        "channel": 0,
        "type": "noteOn",
        "noteNumber": 60,
        "velocity": 47
      },
      {
        "deltaTime": 1,
        "channel": 0,
        "type": "noteOn",
        "noteNumber": 53,
        "velocity": 58
      },
      {
        "deltaTime": 0,
        "channel": 0,
        "type": "noteOn",
        "noteNumber": 65,
        "velocity": 71
      },
      {
        "deltaTime": 23,
        "channel": 0,
        "type": "noteOff",
        "noteNumber": 60,
        "velocity": 0,
        "byte9": true
      },
      {
        "deltaTime": 1,
        "running": true,
        "channel": 0,
        "type": "noteOff",
        "noteNumber": 72,
        "velocity": 0,
        "byte9": true
      },
      {
        "deltaTime": 4,
        "channel": 0,
        "type": "noteOff",
        "noteNumber": 44,
        "velocity": 0,
        "byte9": true
      },
      {
        "deltaTime": 2,
        "running": true,
        "channel": 0,
        "type": "noteOff",
        "noteNumber": 53,
        "velocity": 0,
        "byte9": true
      },
      {
        "deltaTime": 1,
        "channel": 0,
        "type": "noteOff",
        "noteNumber": 65,
        "velocity": 0,
        "byte9": true
      },
      {
        "deltaTime": 18,
        "running": true,
        "channel": 0,
        "type": "noteOn",
        "noteNumber": 73,
        "velocity": 62
      },
      {
        "deltaTime": 1,
        "channel": 0,
        "type": "noteOn",
        "noteNumber": 57,
        "velocity": 66
      },
      {
        "deltaTime": 0,
        "running": true,
        "channel": 0,
        "type": "noteOn",
        "noteNumber": 46,
        "velocity": 57
      },
      {
        "deltaTime": 0,
        "channel": 0,
        "type": "noteOn",
        "noteNumber": 61,
        "velocity": 73
      },
      {
        "deltaTime": 0,
        "running": true,
        "channel": 0,
        "type": "noteOn",
        "noteNumber": 65,
        "velocity": 85
      },
      {
        "deltaTime": 26,
        "channel": 0,
        "type": "noteOff",
        "noteNumber": 57,
        "velocity": 0,
        "byte9": true
      },
      {
        "deltaTime": 9,
        "running": true,
        "channel": 0,
        "type": "noteOn",
        "noteNumber": 56,
        "velocity": 72
      },
      {
        "deltaTime": 21,
        "running": true,
        "channel": 0,
        "type": "noteOff",
        "noteNumber": 56,
        "velocity": 0,
        "byte9": true
      },
      {
        "deltaTime": 11,
        "running": true,
        "channel": 0,
        "type": "noteOn",
        "noteNumber": 55,
        "velocity": 77
      },
      {
        "deltaTime": 5,
        "channel": 0,
        "type": "noteOff",
        "noteNumber": 65,
        "velocity": 0,
        "byte9": true
      },
      {
        "deltaTime": 13,
        "running": true,
        "channel": 0,
        "type": "noteOff",
        "noteNumber": 61,
        "velocity": 0,
        "byte9": true
      },
      {
        "deltaTime": 4,
        "channel": 0,
        "type": "noteOff",
        "noteNumber": 46,
        "velocity": 0,
        "byte9": true
      },
      {
        "deltaTime": 3,
        "running": true,
        "channel": 0,
        "type": "noteOff",
        "noteNumber": 55,
        "velocity": 0,
        "byte9": true
      },
      {
        "deltaTime": 1,
        "channel": 0,
        "type": "noteOff",
        "noteNumber": 73,
        "velocity": 0,
        "byte9": true
      },
      {
        "deltaTime": 27,
        "running": true,
        "channel": 0,
        "type": "noteOn",
        "noteNumber": 75,
        "velocity": 83
      },
      {
        "deltaTime": 0,
        "channel": 0,
        "type": "noteOn",
        "noteNumber": 58,
        "velocity": 87
      },
      {
        "deltaTime": 1,
        "channel": 0,
        "type": "noteOn",
        "noteNumber": 63,
        "velocity": 79
      },
      {
        "deltaTime": 0,
        "channel": 0,
        "type": "noteOn",
        "noteNumber": 48,
        "velocity": 68
      },
      {
        "deltaTime": 0,
        "channel": 0,
        "type": "noteOn",
        "noteNumber": 67,
        "velocity": 83
      },
      {
        "deltaTime": 32,
        "channel": 0,
        "type": "noteOff",
        "noteNumber": 58,
        "velocity": 0,
        "byte9": true
      },
      {
        "deltaTime": 10,
        "running": true,
        "channel": 0,
        "type": "noteOn",
        "noteNumber": 57,
        "velocity": 71
      },
      {
        "deltaTime": 42,
        "channel": 0,
        "type": "noteOff",
        "noteNumber": 67,
        "velocity": 0,
        "byte9": true
      },
      {
        "deltaTime": 0,
        "channel": 0,
        "type": "noteOff",
        "noteNumber": 57,
        "velocity": 0,
        "byte9": true
      },
      {
        "deltaTime": 2,
        "running": true,
        "channel": 0,
        "type": "noteOn",
        "noteNumber": 56,
        "velocity": 42
      },
      {
        "deltaTime": 3,
        "channel": 0,
        "type": "noteOff",
        "noteNumber": 63,
        "velocity": 0,
        "byte9": true
      },
      {
        "deltaTime": 6,
        "running": true,
        "channel": 0,
        "type": "noteOff",
        "noteNumber": 75,
        "velocity": 0,
        "byte9": true
      },
      {
        "deltaTime": 0,
        "channel": 0,
        "type": "noteOff",
        "noteNumber": 48,
        "velocity": 0,
        "byte9": true
      },
      {
        "deltaTime": 29,
        "running": true,
        "channel": 0,
        "type": "noteOn",
        "noteNumber": 60,
        "velocity": 68
      },
      {
        "deltaTime": 1,
        "channel": 0,
        "type": "noteOn",
        "noteNumber": 77,
        "velocity": 51
      },
      {
        "deltaTime": 0,
        "running": true,
        "channel": 0,
        "type": "noteOn",
        "noteNumber": 65,
        "velocity": 54
      },
      {
        "deltaTime": 0,
        "channel": 0,
        "type": "noteOn",
        "noteNumber": 49,
        "velocity": 42
      },
      {
        "deltaTime": 1,
        "channel": 0,
        "type": "noteOn",
        "noteNumber": 72,
        "velocity": 61
      },
      {
        "deltaTime": 8,
        "channel": 0,
        "type": "noteOff",
        "noteNumber": 56,
        "velocity": 0,
        "byte9": true
      },
      {
        "deltaTime": 22,
        "channel": 0,
        "type": "noteOff",
        "noteNumber": 60,
        "velocity": 0,
        "byte9": true
      },
      {
        "deltaTime": 12,
        "running": true,
        "channel": 0,
        "type": "noteOn",
        "noteNumber": 59,
        "velocity": 49
      },
      {
        "deltaTime": 21,
        "running": true,
        "channel": 0,
        "type": "noteOff",
        "noteNumber": 59,
        "velocity": 0,
        "byte9": true
      },
      {
        "deltaTime": 16,
        "channel": 0,
        "type": "noteOff",
        "noteNumber": 77,
        "velocity": 0,
        "byte9": true
      },
      {
        "deltaTime": 3,
        "channel": 0,
        "type": "noteOn",
        "noteNumber": 58,
        "velocity": 50
      },
      {
        "deltaTime": 2,
        "channel": 0,
        "type": "noteOff",
        "noteNumber": 72,
        "velocity": 0,
        "byte9": true
      },
      {
        "deltaTime": 4,
        "running": true,
        "channel": 0,
        "type": "noteOff",
        "noteNumber": 65,
        "velocity": 0,
        "byte9": true
      },
      {
        "deltaTime": 16,
        "channel": 0,
        "type": "noteOff",
        "noteNumber": 58,
        "velocity": 0,
        "byte9": true
      },
      {
        "deltaTime": 6,
        "running": true,
        "channel": 0,
        "type": "noteOff",
        "noteNumber": 49,
        "velocity": 0,
        "byte9": true
      },
      {
        "deltaTime": 10,
        "channel": 0,
        "type": "noteOn",
        "noteNumber": 48,
        "velocity": 69
      },
      {
        "deltaTime": 40,
        "channel": 0,
        "type": "noteOn",
        "noteNumber": 75,
        "velocity": 57
      },
      {
        "deltaTime": 1,
        "running": true,
        "channel": 0,
        "type": "noteOn",
        "noteNumber": 67,
        "velocity": 51
      },
      {
        "deltaTime": 0,
        "channel": 0,
        "type": "noteOn",
        "noteNumber": 58,
        "velocity": 54
      },
      {
        "deltaTime": 34,
        "running": true,
        "channel": 0,
        "type": "noteOff",
        "noteNumber": 48,
        "velocity": 0,
        "byte9": true
      },
      {
        "deltaTime": 2,
        "running": true,
        "channel": 0,
        "type": "noteOff",
        "noteNumber": 58,
        "velocity": 0,
        "byte9": true
      },
      {
        "deltaTime": 4,
        "channel": 0,
        "type": "noteOff",
        "noteNumber": 67,
        "velocity": 0,
        "byte9": true
      },
      {
        "deltaTime": 6,
        "running": true,
        "channel": 0,
        "type": "noteOff",
        "noteNumber": 75,
        "velocity": 0,
        "byte9": true
      },
      {
        "deltaTime": 24,
        "running": true,
        "channel": 0,
        "type": "noteOn",
        "noteNumber": 80,
        "velocity": 61
      },
      {
        "deltaTime": 0,
        "running": true,
        "channel": 0,
        "type": "noteOn",
        "noteNumber": 68,
        "velocity": 74
      },
      {
        "deltaTime": 1,
        "channel": 0,
        "type": "noteOn",
        "noteNumber": 56,
        "velocity": 64
      },
      {
        "deltaTime": 0,
        "channel": 0,
        "type": "noteOn",
        "noteNumber": 75,
        "velocity": 73
      },
      {
        "deltaTime": 3,
        "channel": 0,
        "type": "noteOn",
        "noteNumber": 46,
        "velocity": 45
      },
      {
        "deltaTime": 4,
        "running": true,
        "channel": 0,
        "type": "noteOff",
        "noteNumber": 46,
        "velocity": 0,
        "byte9": true
      },
      {
        "deltaTime": 35,
        "channel": 0,
        "type": "noteOn",
        "noteNumber": 46,
        "velocity": 55
      },
      {
        "deltaTime": 17,
        "channel": 0,
        "type": "noteOff",
        "noteNumber": 68,
        "velocity": 0,
        "byte9": true
      },
      {
        "deltaTime": 9,
        "running": true,
        "channel": 0,
        "type": "noteOff",
        "noteNumber": 80,
        "velocity": 0,
        "byte9": true
      },
      {
        "deltaTime": 1,
        "channel": 0,
        "type": "noteOff",
        "noteNumber": 46,
        "velocity": 0,
        "byte9": true
      },
      {
        "deltaTime": 3,
        "running": true,
        "channel": 0,
        "type": "noteOff",
        "noteNumber": 56,
        "velocity": 0,
        "byte9": true
      },
      {
        "deltaTime": 1,
        "channel": 0,
        "type": "noteOff",
        "noteNumber": 75,
        "velocity": 0,
        "byte9": true
      },
      {
        "deltaTime": 40,
        "channel": 0,
        "type": "noteOn",
        "noteNumber": 82,
        "velocity": 61
      },
      {
        "deltaTime": 1,
        "running": true,
        "channel": 0,
        "type": "noteOn",
        "noteNumber": 70,
        "velocity": 56
      },
      {
        "deltaTime": 0,
        "running": true,
        "channel": 0,
        "type": "noteOn",
        "noteNumber": 75,
        "velocity": 60
      },
      {
        "deltaTime": 0,
        "running": true,
        "channel": 0,
        "type": "noteOn",
        "noteNumber": 79,
        "velocity": 45
      },
      {
        "deltaTime": 0,
        "channel": 0,
        "type": "noteOn",
        "noteNumber": 55,
        "velocity": 66
      },
      {
        "deltaTime": 0,
        "running": true,
        "channel": 0,
        "type": "noteOn",
        "noteNumber": 44,
        "velocity": 51
      },
      {
        "deltaTime": 45,
        "channel": 0,
        "type": "noteOff",
        "noteNumber": 55,
        "velocity": 0,
        "byte9": true
      },
      {
        "deltaTime": 1,
        "running": true,
        "channel": 0,
        "type": "noteOn",
        "noteNumber": 51,
        "velocity": 64
      },
      {
        "deltaTime": 9,
        "channel": 0,
        "type": "noteOff",
        "noteNumber": 79,
        "velocity": 0,
        "byte9": true
      },
      {
        "deltaTime": 1,
        "running": true,
        "channel": 0,
        "type": "noteOff",
        "noteNumber": 70,
        "velocity": 0,
        "byte9": true
      },
      {
        "deltaTime": 0,
        "channel": 0,
        "type": "noteOff",
        "noteNumber": 51,
        "velocity": 0,
        "byte9": true
      },
      {
        "deltaTime": 1,
        "running": true,
        "channel": 0,
        "type": "noteOff",
        "noteNumber": 44,
        "velocity": 0,
        "byte9": true
      },
      {
        "deltaTime": 7,
        "channel": 0,
        "type": "noteOff",
        "noteNumber": 75,
        "velocity": 0,
        "byte9": true
      },
      {
        "deltaTime": 5,
        "running": true,
        "channel": 0,
        "type": "noteOff",
        "noteNumber": 82,
        "velocity": 0,
        "byte9": true
      },
      {
        "deltaTime": 41,
        "channel": 0,
        "type": "noteOn",
        "noteNumber": 42,
        "velocity": 83
      },
      {
        "deltaTime": 0,
        "channel": 0,
        "type": "noteOn",
        "noteNumber": 80,
        "velocity": 78
      },
      {
        "deltaTime": 1,
        "running": true,
        "channel": 0,
        "type": "noteOn",
        "noteNumber": 77,
        "velocity": 88
      },
      {
        "deltaTime": 0,
        "running": true,
        "channel": 0,
        "type": "noteOn",
        "noteNumber": 84,
        "velocity": 87
      },
      {
        "deltaTime": 0,
        "running": true,
        "channel": 0,
        "type": "noteOn",
        "noteNumber": 72,
        "velocity": 90
      },
      {
        "deltaTime": 1,
        "channel": 0,
        "type": "noteOn",
        "noteNumber": 30,
        "velocity": 74
      },
      {
        "deltaTime": 68,
        "channel": 0,
        "type": "noteOff",
        "noteNumber": 30,
        "velocity": 0,
        "byte9": true
      },
      {
        "deltaTime": 1,
        "running": true,
        "channel": 0,
        "type": "noteOff",
        "noteNumber": 42,
        "velocity": 0,
        "byte9": true
      },
      {
        "deltaTime": 0,
        "channel": 0,
        "type": "noteOff",
        "noteNumber": 72,
        "velocity": 0,
        "byte9": true
      },
      {
        "deltaTime": 3,
        "running": true,
        "channel": 0,
        "type": "noteOff",
        "noteNumber": 77,
        "velocity": 0,
        "byte9": true
      },
      {
        "deltaTime": 1,
        "running": true,
        "channel": 0,
        "type": "noteOff",
        "noteNumber": 84,
        "velocity": 0,
        "byte9": true
      },
      {
        "deltaTime": 1,
        "running": true,
        "channel": 0,
        "type": "noteOff",
        "noteNumber": 80,
        "velocity": 0,
        "byte9": true
      },
      {
        "deltaTime": 45,
        "channel": 0,
        "type": "noteOn",
        "noteNumber": 40,
        "velocity": 96
      },
      {
        "deltaTime": 0,
        "running": true,
        "channel": 0,
        "type": "noteOn",
        "noteNumber": 28,
        "velocity": 94
      },
      {
        "deltaTime": 1,
        "channel": 0,
        "type": "noteOn",
        "noteNumber": 78,
        "velocity": 77
      },
      {
        "deltaTime": 1,
        "running": true,
        "channel": 0,
        "type": "noteOn",
        "noteNumber": 86,
        "velocity": 80
      },
      {
        "deltaTime": 1,
        "running": true,
        "channel": 0,
        "type": "noteOn",
        "noteNumber": 74,
        "velocity": 80
      },
      {
        "deltaTime": 1,
        "channel": 0,
        "type": "noteOn",
        "noteNumber": 81,
        "velocity": 60
      },
      {
        "deltaTime": 19,
        "channel": 0,
        "type": "noteOff",
        "noteNumber": 28,
        "velocity": 0,
        "byte9": true
      },
      {
        "deltaTime": 4,
        "running": true,
        "channel": 0,
        "type": "noteOff",
        "noteNumber": 40,
        "velocity": 0,
        "byte9": true
      },
      {
        "deltaTime": 1,
        "channel": 0,
        "type": "noteOff",
        "noteNumber": 86,
        "velocity": 0,
        "byte9": true
      },
      {
        "deltaTime": 0,
        "running": true,
        "channel": 0,
        "type": "noteOff",
        "noteNumber": 81,
        "velocity": 0,
        "byte9": true
      },
      {
        "deltaTime": 4,
        "running": true,
        "channel": 0,
        "type": "noteOff",
        "noteNumber": 78,
        "velocity": 0,
        "byte9": true
      },
      {
        "deltaTime": 1,
        "running": true,
        "channel": 0,
        "type": "noteOff",
        "noteNumber": 74,
        "velocity": 0,
        "byte9": true
      },
      {
        "deltaTime": 32,
        "running": true,
        "channel": 0,
        "type": "noteOn",
        "noteNumber": 66,
        "velocity": 84
      },
      {
        "deltaTime": 1,
        "running": true,
        "channel": 0,
        "type": "noteOn",
        "noteNumber": 74,
        "velocity": 79
      },
      {
        "deltaTime": 0,
        "channel": 0,
        "type": "noteOn",
        "noteNumber": 62,
        "velocity": 95
      },
      {
        "deltaTime": 0,
        "channel": 0,
        "type": "noteOn",
        "noteNumber": 69,
        "velocity": 89
      },
      {
        "deltaTime": 1,
        "channel": 0,
        "type": "noteOn",
        "noteNumber": 52,
        "velocity": 82
      },
      {
        "deltaTime": 0,
        "channel": 0,
        "type": "noteOn",
        "noteNumber": 72,
        "velocity": 72
      },
      {
        "deltaTime": 24,
        "running": true,
        "channel": 0,
        "type": "noteOff",
        "noteNumber": 72,
        "velocity": 0,
        "byte9": true
      },
      {
        "deltaTime": 29,
        "running": true,
        "channel": 0,
        "type": "noteOff",
        "noteNumber": 66,
        "velocity": 0,
        "byte9": true
      },
      {
        "deltaTime": 0,
        "running": true,
        "channel": 0,
        "type": "noteOff",
        "noteNumber": 74,
        "velocity": 0,
        "byte9": true
      },
      {
        "deltaTime": 0,
        "channel": 0,
        "type": "noteOff",
        "noteNumber": 62,
        "velocity": 0,
        "byte9": true
      },
      {
        "deltaTime": 0,
        "channel": 0,
        "type": "noteOff",
        "noteNumber": 69,
        "velocity": 0,
        "byte9": true
      },
      {
        "deltaTime": 1,
        "channel": 0,
        "type": "noteOff",
        "noteNumber": 52,
        "velocity": 0,
        "byte9": true
      },
      {
        "deltaTime": 4,
        "channel": 0,
        "type": "noteOn",
        "noteNumber": 74,
        "velocity": 95
      },
      {
        "deltaTime": 0,
        "running": true,
        "channel": 0,
        "type": "noteOn",
        "noteNumber": 66,
        "velocity": 95
      },
      {
        "deltaTime": 1,
        "running": true,
        "channel": 0,
        "type": "noteOn",
        "noteNumber": 64,
        "velocity": 87
      },
      {
        "deltaTime": 0,
        "running": true,
        "channel": 0,
        "type": "noteOn",
        "noteNumber": 69,
        "velocity": 92
      },
      {
        "deltaTime": 0,
        "channel": 0,
        "type": "noteOn",
        "noteNumber": 59,
        "velocity": 75
      },
      {
        "deltaTime": 8,
        "running": true,
        "channel": 0,
        "type": "noteOn",
        "noteNumber": 52,
        "velocity": 50
      },
      {
        "deltaTime": 0,
        "channel": 0,
        "type": "controller",
        "controllerType": 85,
        "value": 2
      },
      {
        "deltaTime": 0,
        "running": true,
        "channel": 0,
        "type": "controller",
        "controllerType": 86,
        "value": 2
      },
      {
        "deltaTime": 36,
        "channel": 0,
        "type": "noteOff",
        "noteNumber": 66,
        "velocity": 0,
        "byte9": true
      },
      {
        "deltaTime": 1,
        "running": true,
        "channel": 0,
        "type": "noteOff",
        "noteNumber": 74,
        "velocity": 0,
        "byte9": true
      },
      {
        "deltaTime": 2,
        "running": true,
        "channel": 0,
        "type": "noteOff",
        "noteNumber": 64,
        "velocity": 0,
        "byte9": true
      },
      {
        "deltaTime": 0,
        "running": true,
        "channel": 0,
        "type": "noteOff",
        "noteNumber": 69,
        "velocity": 0,
        "byte9": true
      },
      {
        "deltaTime": 1,
        "channel": 0,
        "type": "noteOff",
        "noteNumber": 52,
        "velocity": 0,
        "byte9": true
      },
      {
        "deltaTime": 4,
        "running": true,
        "channel": 0,
        "type": "noteOff",
        "noteNumber": 59,
        "velocity": 0,
        "byte9": true
      },
      {
        "deltaTime": 6,
        "channel": 0,
        "type": "noteOn",
        "noteNumber": 74,
        "velocity": 83
      },
      {
        "deltaTime": 0,
        "channel": 0,
        "type": "noteOn",
        "noteNumber": 59,
        "velocity": 55
      },
      {
        "deltaTime": 0,
        "channel": 0,
        "type": "noteOn",
        "noteNumber": 66,
        "velocity": 86
      },
      {
        "deltaTime": 0,
        "running": true,
        "channel": 0,
        "type": "noteOn",
        "noteNumber": 69,
        "velocity": 75
      },
      {
        "deltaTime": 1,
        "channel": 0,
        "type": "noteOn",
        "noteNumber": 52,
        "velocity": 74
      },
      {
        "deltaTime": 24,
        "channel": 0,
        "type": "noteOff",
        "noteNumber": 69,
        "velocity": 0,
        "byte9": true
      },
      {
        "deltaTime": 1,
        "running": true,
        "channel": 0,
        "type": "noteOff",
        "noteNumber": 66,
        "velocity": 0,
        "byte9": true
      },
      {
        "deltaTime": 1,
        "channel": 0,
        "type": "noteOff",
        "noteNumber": 52,
        "velocity": 0,
        "byte9": true
      },
      {
        "deltaTime": 16,
        "channel": 0,
        "type": "noteOff",
        "noteNumber": 74,
        "velocity": 0,
        "byte9": true
      },
      {
        "deltaTime": 2,
        "channel": 0,
        "type": "noteOff",
        "noteNumber": 59,
        "velocity": 0,
        "byte9": true
      },
      {
        "deltaTime": 12,
        "channel": 0,
        "type": "noteOn",
        "noteNumber": 74,
        "velocity": 83
      },
      {
        "deltaTime": 1,
        "running": true,
        "channel": 0,
        "type": "noteOn",
        "noteNumber": 68,
        "velocity": 92
      },
      {
        "deltaTime": 0,
        "running": true,
        "channel": 0,
        "type": "noteOn",
        "noteNumber": 71,
        "velocity": 85
      },
      {
        "deltaTime": 1,
        "running": true,
        "channel": 0,
        "type": "noteOn",
        "noteNumber": 64,
        "velocity": 92
      },
      {
        "deltaTime": 0,
        "channel": 0,
        "type": "noteOn",
        "noteNumber": 62,
        "velocity": 82
      },
      {
        "deltaTime": 0,
        "running": true,
        "channel": 0,
        "type": "noteOn",
        "noteNumber": 56,
        "velocity": 68
      },
      {
        "deltaTime": 1,
        "running": true,
        "channel": 0,
        "type": "noteOn",
        "noteNumber": 52,
        "velocity": 74
      },
      {
        "deltaTime": 55,
        "channel": 0,
        "type": "noteOff",
        "noteNumber": 74,
        "velocity": 0,
        "byte9": true
      },
      {
        "deltaTime": 1,
        "running": true,
        "channel": 0,
        "type": "noteOff",
        "noteNumber": 68,
        "velocity": 0,
        "byte9": true
      },
      {
        "deltaTime": 0,
        "running": true,
        "channel": 0,
        "type": "noteOff",
        "noteNumber": 71,
        "velocity": 0,
        "byte9": true
      },
      {
        "deltaTime": 0,
        "running": true,
        "channel": 0,
        "type": "noteOff",
        "noteNumber": 64,
        "velocity": 0,
        "byte9": true
      },
      {
        "deltaTime": 0,
        "channel": 0,
        "type": "noteOff",
        "noteNumber": 62,
        "velocity": 0,
        "byte9": true
      },
      {
        "deltaTime": 0,
        "running": true,
        "channel": 0,
        "type": "noteOff",
        "noteNumber": 56,
        "velocity": 0,
        "byte9": true
      },
      {
        "deltaTime": 0,
        "running": true,
        "channel": 0,
        "type": "noteOff",
        "noteNumber": 52,
        "velocity": 0,
        "byte9": true
      },
      {
        "deltaTime": 5,
        "channel": 0,
        "type": "noteOn",
        "noteNumber": 68,
        "velocity": 71
      },
      {
        "deltaTime": 0,
        "channel": 0,
        "type": "noteOn",
        "noteNumber": 62,
        "velocity": 64
      },
      {
        "deltaTime": 0,
        "channel": 0,
        "type": "noteOn",
        "noteNumber": 74,
        "velocity": 64
      },
      {
        "deltaTime": 1,
        "channel": 0,
        "type": "noteOn",
        "noteNumber": 56,
        "velocity": 45
      },
      {
        "deltaTime": 0,
        "channel": 0,
        "type": "noteOn",
        "noteNumber": 64,
        "velocity": 71
      },
      {
        "deltaTime": 0,
        "running": true,
        "channel": 0,
        "type": "noteOn",
        "noteNumber": 71,
        "velocity": 77
      },
      {
        "deltaTime": 8,
        "channel": 0,
        "type": "noteOn",
        "noteNumber": 52,
        "velocity": 50
      },
      {
        "deltaTime": 42,
        "running": true,
        "channel": 0,
        "type": "noteOff",
        "noteNumber": 52,
        "velocity": 0,
        "byte9": true
      },
      {
        "deltaTime": 4,
        "channel": 0,
        "type": "noteOff",
        "noteNumber": 68,
        "velocity": 0,
        "byte9": true
      },
      {
        "deltaTime": 0,
        "channel": 0,
        "type": "noteOff",
        "noteNumber": 62,
        "velocity": 0,
        "byte9": true
      },
      {
        "deltaTime": 0,
        "channel": 0,
        "type": "noteOff",
        "noteNumber": 74,
        "velocity": 0,
        "byte9": true
      },
      {
        "deltaTime": 0,
        "channel": 0,
        "type": "noteOff",
        "noteNumber": 56,
        "velocity": 0,
        "byte9": true
      },
      {
        "deltaTime": 0,
        "channel": 0,
        "type": "noteOff",
        "noteNumber": 64,
        "velocity": 0,
        "byte9": true
      },
      {
        "deltaTime": 0,
        "running": true,
        "channel": 0,
        "type": "noteOff",
        "noteNumber": 71,
        "velocity": 0,
        "byte9": true
      },
      {
        "deltaTime": 7,
        "running": true,
        "channel": 0,
        "type": "noteOn",
        "noteNumber": 68,
        "velocity": 60
      },
      {
        "deltaTime": 1,
        "running": true,
        "channel": 0,
        "type": "noteOn",
        "noteNumber": 74,
        "velocity": 48
      },
      {
        "deltaTime": 0,
        "channel": 0,
        "type": "noteOn",
        "noteNumber": 62,
        "velocity": 60
      },
      {
        "deltaTime": 1,
        "channel": 0,
        "type": "noteOn",
        "noteNumber": 71,
        "velocity": 51
      },
      {
        "deltaTime": 0,
        "running": true,
        "channel": 0,
        "type": "noteOn",
        "noteNumber": 64,
        "velocity": 62
      },
      {
        "deltaTime": 1,
        "channel": 0,
        "type": "noteOn",
        "noteNumber": 56,
        "velocity": 37
      },
      {
        "deltaTime": 4,
        "running": true,
        "channel": 0,
        "type": "noteOn",
        "noteNumber": 52,
        "velocity": 50
      },
      {
        "deltaTime": 0,
        "channel": 0,
        "type": "controller",
        "controllerType": 85,
        "value": 2
      },
      {
        "deltaTime": 0,
        "running": true,
        "channel": 0,
        "type": "controller",
        "controllerType": 86,
        "value": 2
      },
      {
        "deltaTime": 28,
        "channel": 0,
        "type": "noteOff",
        "noteNumber": 62,
        "velocity": 0,
        "byte9": true
      },
      {
        "deltaTime": 2,
        "channel": 0,
        "type": "noteOff",
        "noteNumber": 64,
        "velocity": 0,
        "byte9": true
      },
      {
        "deltaTime": 4,
        "running": true,
        "channel": 0,
        "type": "noteOff",
        "noteNumber": 68,
        "velocity": 0,
        "byte9": true
      },
      {
        "deltaTime": 1,
        "running": true,
        "channel": 0,
        "type": "noteOff",
        "noteNumber": 71,
        "velocity": 0,
        "byte9": true
      },
      {
        "deltaTime": 2,
        "running": true,
        "channel": 0,
        "type": "noteOff",
        "noteNumber": 74,
        "velocity": 0,
        "byte9": true
      },
      {
        "deltaTime": 5,
        "channel": 0,
        "type": "noteOff",
        "noteNumber": 56,
        "velocity": 0,
        "byte9": true
      },
      {
        "deltaTime": 4,
        "running": true,
        "channel": 0,
        "type": "noteOff",
        "noteNumber": 52,
        "velocity": 0,
        "byte9": true
      },
      {
        "deltaTime": 11,
        "running": true,
        "channel": 0,
        "type": "noteOn",
        "noteNumber": 62,
        "velocity": 34
      },
      {
        "deltaTime": 0,
        "channel": 0,
        "type": "noteOn",
        "noteNumber": 68,
        "velocity": 39
      },
      {
        "deltaTime": 0,
        "running": true,
        "channel": 0,
        "type": "noteOn",
        "noteNumber": 74,
        "velocity": 35
      },
      {
        "deltaTime": 1,
        "running": true,
        "channel": 0,
        "type": "noteOn",
        "noteNumber": 64,
        "velocity": 43
      },
      {
        "deltaTime": 1,
        "channel": 0,
        "type": "noteOn",
        "noteNumber": 56,
        "velocity": 18
      },
      {
        "deltaTime": 1,
        "running": true,
        "channel": 0,
        "type": "noteOn",
        "noteNumber": 52,
        "velocity": 33
      },
      {
        "deltaTime": 0,
        "channel": 0,
        "type": "noteOn",
        "noteNumber": 71,
        "velocity": 30
      },
      {
        "deltaTime": 5,
        "channel": 0,
        "type": "noteOff",
        "noteNumber": 52,
        "velocity": 0,
        "byte9": true
      },
      {
        "deltaTime": 1,
        "running": true,
        "channel": 0,
        "type": "noteOff",
        "noteNumber": 62,
        "velocity": 0,
        "byte9": true
      },
      {
        "deltaTime": 7,
        "channel": 0,
        "type": "noteOff",
        "noteNumber": 64,
        "velocity": 0,
        "byte9": true
      },
      {
        "deltaTime": 4,
        "running": true,
        "channel": 0,
        "type": "noteOff",
        "noteNumber": 74,
        "velocity": 0,
        "byte9": true
      },
      {
        "deltaTime": 1,
        "running": true,
        "channel": 0,
        "type": "noteOff",
        "noteNumber": 68,
        "velocity": 0,
        "byte9": true
      },
      {
        "deltaTime": 3,
        "running": true,
        "channel": 0,
        "type": "noteOff",
        "noteNumber": 71,
        "velocity": 0,
        "byte9": true
      },
      {
        "deltaTime": 8,
        "channel": 0,
        "type": "noteOff",
        "noteNumber": 56,
        "velocity": 0,
        "byte9": true
      },
      {
        "deltaTime": 29,
        "channel": 0,
        "type": "noteOn",
        "noteNumber": 75,
        "velocity": 62
      },
      {
        "deltaTime": 1,
        "channel": 0,
        "type": "noteOn",
        "noteNumber": 68,
        "velocity": 43
      },
      {
        "deltaTime": 0,
        "running": true,
        "channel": 0,
        "type": "noteOn",
        "noteNumber": 70,
        "velocity": 57
      },
      {
        "deltaTime": 1,
        "meta": true,
        "type": "text",
        "text": "Tremolo on Eb 13 sus"
      },
      {
        "deltaTime": 0,
        "channel": 0,
        "type": "controller",
        "controllerType": 86,
        "value": 12
      },
      {
        "deltaTime": 0,
        "channel": 0,
        "type": "noteOn",
        "noteNumber": 61,
        "velocity": 37
      },
      {
        "deltaTime": 1,
        "running": true,
        "channel": 0,
        "type": "noteOn",
        "noteNumber": 51,
        "velocity": 42
      },
      {
        "deltaTime": 1,
        "running": true,
        "channel": 0,
        "type": "noteOn",
        "noteNumber": 58,
        "velocity": 35
      },
      {
        "deltaTime": 6,
        "channel": 0,
        "type": "noteOff",
        "noteNumber": 68,
        "velocity": 0,
        "byte9": true
      },
      {
        "deltaTime": 11,
        "running": true,
        "channel": 0,
        "type": "noteOff",
        "noteNumber": 75,
        "velocity": 0,
        "byte9": true
      },
      {
        "deltaTime": 1,
        "channel": 0,
        "type": "noteOff",
        "noteNumber": 70,
        "velocity": 0,
        "byte9": true
      },
      {
        "deltaTime": 3,
        "channel": 0,
        "type": "noteOff",
        "noteNumber": 61,
        "velocity": 0,
        "byte9": true
      },
      {
        "deltaTime": 0,
        "channel": 0,
        "type": "noteOn",
        "noteNumber": 68,
        "velocity": 19
      },
      {
        "deltaTime": 9,
        "running": true,
        "channel": 0,
        "type": "noteOff",
        "noteNumber": 68,
        "velocity": 0,
        "byte9": true
      },
      {
        "deltaTime": 1,
        "running": true,
        "channel": 0,
        "type": "noteOn",
        "noteNumber": 75,
        "velocity": 25
      },
      {
        "deltaTime": 2,
        "running": true,
        "channel": 0,
        "type": "noteOn",
        "noteNumber": 70,
        "velocity": 34
      },
      {
        "deltaTime": 8,
        "running": true,
        "channel": 0,
        "type": "noteOff",
        "noteNumber": 75,
        "velocity": 0,
        "byte9": true
      },
      {
        "deltaTime": 1,
        "running": true,
        "channel": 0,
        "type": "noteOff",
        "noteNumber": 70,
        "velocity": 0,
        "byte9": true
      },
      {
        "deltaTime": 0,
        "running": true,
        "channel": 0,
        "type": "noteOn",
        "noteNumber": 68,
        "velocity": 34
      },
      {
        "deltaTime": 1,
        "channel": 0,
        "type": "noteOff",
        "noteNumber": 51,
        "velocity": 0,
        "byte9": true
      },
      {
        "deltaTime": 5,
        "running": true,
        "channel": 0,
        "type": "noteOff",
        "noteNumber": 58,
        "velocity": 0,
        "byte9": true
      },
      {
        "deltaTime": 5,
        "channel": 0,
        "type": "noteOff",
        "noteNumber": 68,
        "velocity": 0,
        "byte9": true
      },
      {
        "deltaTime": 0,
        "running": true,
        "channel": 0,
        "type": "noteOn",
        "noteNumber": 75,
        "velocity": 25
      },
      {
        "deltaTime": 2,
        "running": true,
        "channel": 0,
        "type": "noteOn",
        "noteNumber": 70,
        "velocity": 39
      },
      {
        "deltaTime": 8,
        "running": true,
        "channel": 0,
        "type": "noteOn",
        "noteNumber": 68,
        "velocity": 34
      },
      {
        "deltaTime": 1,
        "running": true,
        "channel": 0,
        "type": "noteOff",
        "noteNumber": 75,
        "velocity": 0,
        "byte9": true
      },
      {
        "deltaTime": 0,
        "running": true,
        "channel": 0,
        "type": "noteOff",
        "noteNumber": 70,
        "velocity": 0,
        "byte9": true
      },
      {
        "deltaTime": 11,
        "running": true,
        "channel": 0,
        "type": "noteOff",
        "noteNumber": 68,
        "velocity": 0,
        "byte9": true
      },
      {
        "deltaTime": 1,
        "running": true,
        "channel": 0,
        "type": "noteOn",
        "noteNumber": 70,
        "velocity": 46
      },
      {
        "deltaTime": 0,
        "running": true,
        "channel": 0,
        "type": "noteOn",
        "noteNumber": 75,
        "velocity": 25
      },
      {
        "deltaTime": 9,
        "running": true,
        "channel": 0,
        "type": "noteOn",
        "noteNumber": 68,
        "velocity": 44
      },
      {
        "deltaTime": 1,
        "running": true,
        "channel": 0,
        "type": "noteOff",
        "noteNumber": 70,
        "velocity": 0,
        "byte9": true
      },
      {
        "deltaTime": 0,
        "running": true,
        "channel": 0,
        "type": "noteOff",
        "noteNumber": 75,
        "velocity": 0,
        "byte9": true
      },
      {
        "deltaTime": 9,
        "running": true,
        "channel": 0,
        "type": "noteOff",
        "noteNumber": 68,
        "velocity": 0,
        "byte9": true
      },
      {
        "deltaTime": 1,
        "running": true,
        "channel": 0,
        "type": "noteOn",
        "noteNumber": 75,
        "velocity": 37
      },
      {
        "deltaTime": 0,
        "running": true,
        "channel": 0,
        "type": "noteOn",
        "noteNumber": 70,
        "velocity": 47
      },
      {
        "deltaTime": 9,
        "running": true,
        "channel": 0,
        "type": "noteOn",
        "noteNumber": 68,
        "velocity": 45
      },
      {
        "deltaTime": 1,
        "running": true,
        "channel": 0,
        "type": "noteOff",
        "noteNumber": 70,
        "velocity": 0,
        "byte9": true
      },
      {
        "deltaTime": 2,
        "running": true,
        "channel": 0,
        "type": "noteOff",
        "noteNumber": 75,
        "velocity": 0,
        "byte9": true
      },
      {
        "deltaTime": 7,
        "running": true,
        "channel": 0,
        "type": "noteOff",
        "noteNumber": 68,
        "velocity": 0,
        "byte9": true
      },
      {
        "deltaTime": 0,
        "running": true,
        "channel": 0,
        "type": "noteOn",
        "noteNumber": 75,
        "velocity": 25
      },
      {
        "deltaTime": 1,
        "running": true,
        "channel": 0,
        "type": "noteOn",
        "noteNumber": 70,
        "velocity": 52
      },
      {
        "deltaTime": 1,
        "channel": 0,
        "type": "noteOn",
        "noteNumber": 63,
        "velocity": 84
      },
      {
        "deltaTime": 1,
        "channel": 0,
        "type": "controller",
        "controllerType": 86,
        "value": 12
      },
      {
        "deltaTime": 8,
        "channel": 0,
        "type": "noteOff",
        "noteNumber": 75,
        "velocity": 0,
        "byte9": true
      },
      {
        "deltaTime": 0,
        "running": true,
        "channel": 0,
        "type": "noteOff",
        "noteNumber": 70,
        "velocity": 0,
        "byte9": true
      },
      {
        "deltaTime": 0,
        "running": true,
        "channel": 0,
        "type": "noteOn",
        "noteNumber": 68,
        "velocity": 52
      },
      {
        "deltaTime": 10,
        "running": true,
        "channel": 0,
        "type": "noteOff",
        "noteNumber": 68,
        "velocity": 0,
        "byte9": true
      },
      {
        "deltaTime": 1,
        "running": true,
        "channel": 0,
        "type": "noteOn",
        "noteNumber": 75,
        "velocity": 32
      },
      {
        "deltaTime": 1,
        "running": true,
        "channel": 0,
        "type": "noteOn",
        "noteNumber": 70,
        "velocity": 55
      },
      {
        "deltaTime": 8,
        "running": true,
        "channel": 0,
        "type": "noteOff",
        "noteNumber": 75,
        "velocity": 0,
        "byte9": true
      },
      {
        "deltaTime": 0,
        "running": true,
        "channel": 0,
        "type": "noteOn",
        "noteNumber": 68,
        "velocity": 47
      },
      {
        "deltaTime": 1,
        "running": true,
        "channel": 0,
        "type": "noteOff",
        "noteNumber": 70,
        "velocity": 0,
        "byte9": true
      },
      {
        "deltaTime": 8,
        "running": true,
        "channel": 0,
        "type": "noteOff",
        "noteNumber": 68,
        "velocity": 0,
        "byte9": true
      },
      {
        "deltaTime": 2,
        "running": true,
        "channel": 0,
        "type": "noteOn",
        "noteNumber": 75,
        "velocity": 33
      },
      {
        "deltaTime": 1,
        "running": true,
        "channel": 0,
        "type": "noteOn",
        "noteNumber": 70,
        "velocity": 48
      },
      {
        "deltaTime": 9,
        "running": true,
        "channel": 0,
        "type": "noteOff",
        "noteNumber": 70,
        "velocity": 0,
        "byte9": true
      },
      {
        "deltaTime": 1,
        "running": true,
        "channel": 0,
        "type": "noteOff",
        "noteNumber": 75,
        "velocity": 0,
        "byte9": true
      },
      {
        "deltaTime": 0,
        "running": true,
        "channel": 0,
        "type": "noteOn",
        "noteNumber": 68,
        "velocity": 48
      },
      {
        "deltaTime": 7,
        "running": true,
        "channel": 0,
        "type": "noteOff",
        "noteNumber": 68,
        "velocity": 0,
        "byte9": true
      },
      {
        "deltaTime": 3,
        "running": true,
        "channel": 0,
        "type": "noteOn",
        "noteNumber": 75,
        "velocity": 35
      },
      {
        "deltaTime": 1,
        "running": true,
        "channel": 0,
        "type": "noteOn",
        "noteNumber": 70,
        "velocity": 48
      },
      {
        "deltaTime": 9,
        "channel": 0,
        "type": "noteOff",
        "noteNumber": 63,
        "velocity": 0,
        "byte9": true
      },
      {
        "deltaTime": 0,
        "channel": 0,
        "type": "noteOff",
        "noteNumber": 75,
        "velocity": 0,
        "byte9": true
      },
      {
        "deltaTime": 2,
        "running": true,
        "channel": 0,
        "type": "noteOn",
        "noteNumber": 68,
        "velocity": 45
      },
      {
        "deltaTime": 2,
        "running": true,
        "channel": 0,
        "type": "noteOff",
        "noteNumber": 70,
        "velocity": 0,
        "byte9": true
      },
      {
        "deltaTime": 10,
        "running": true,
        "channel": 0,
        "type": "noteOn",
        "noteNumber": 75,
        "velocity": 25
      },
      {
        "deltaTime": 7,
        "running": true,
        "channel": 0,
        "type": "noteOff",
        "noteNumber": 75,
        "velocity": 0,
        "byte9": true
      },
      {
        "deltaTime": 2,
        "running": true,
        "channel": 0,
        "type": "noteOff",
        "noteNumber": 68,
        "velocity": 0,
        "byte9": true
      },
      {
        "deltaTime": 8,
        "running": true,
        "channel": 0,
        "type": "noteOn",
        "noteNumber": 70,
        "velocity": 2
      },
      {
        "deltaTime": 0,
        "running": true,
        "channel": 0,
        "type": "noteOn",
        "noteNumber": 75,
        "velocity": 35
      },
      {
        "deltaTime": 15,
        "running": true,
        "channel": 0,
        "type": "noteOff",
        "noteNumber": 70,
        "velocity": 0,
        "byte9": true
      },
      {
        "deltaTime": 0,
        "running": true,
        "channel": 0,
        "type": "noteOff",
        "noteNumber": 75,
        "velocity": 0,
        "byte9": true
      },
      {
        "deltaTime": 8,
        "channel": 0,
        "type": "noteOn",
        "noteNumber": 68,
        "velocity": 44
      },
      {
        "deltaTime": 1,
        "running": true,
        "channel": 0,
        "type": "noteOn",
        "noteNumber": 59,
        "velocity": 44
      },
      {
        "deltaTime": 0,
        "running": true,
        "channel": 0,
        "type": "noteOn",
        "noteNumber": 63,
        "velocity": 37
      },
      {
        "deltaTime": 2,
        "channel": 0,
        "type": "noteOn",
        "noteNumber": 75,
        "velocity": 38
      },
      {
        "deltaTime": 0,
        "channel": 0,
        "type": "noteOn",
        "noteNumber": 64,
        "velocity": 53
      },
      {
        "deltaTime": 58,
        "channel": 0,
        "type": "noteOff",
        "noteNumber": 64,
        "velocity": 0,
        "byte9": true
      },
      {
        "deltaTime": 2,
        "running": true,
        "channel": 0,
        "type": "noteOff",
        "noteNumber": 59,
        "velocity": 0,
        "byte9": true
      },
      {
        "deltaTime": 4,
        "running": true,
        "channel": 0,
        "type": "noteOff",
        "noteNumber": 68,
        "velocity": 0,
        "byte9": true
      },
      {
        "deltaTime": 4,
        "running": true,
        "channel": 0,
        "type": "noteOff",
        "noteNumber": 63,
        "velocity": 0,
        "byte9": true
      },
      {
        "deltaTime": 45,
        "channel": 0,
        "type": "controller",
        "controllerType": 86,
        "value": 12
      },
      {
        "deltaTime": 0,
        "channel": 0,
        "type": "noteOn",
        "noteNumber": 68,
        "velocity": 47
      },
      {
        "deltaTime": 3,
        "running": true,
        "channel": 0,
        "type": "noteOn",
        "noteNumber": 63,
        "velocity": 28
      },
      {
        "deltaTime": 0,
        "running": true,
        "channel": 0,
        "type": "noteOn",
        "noteNumber": 58,
        "velocity": 32
      },
      {
        "deltaTime": 2,
        "channel": 0,
        "type": "noteOn",
        "noteNumber": 64,
        "velocity": 40
      },
      {
        "deltaTime": 4,
        "channel": 0,
        "type": "noteOff",
        "noteNumber": 75,
        "velocity": 0,
        "byte9": true
      },
      {
        "deltaTime": 48,
        "channel": 0,
        "type": "noteOff",
        "noteNumber": 64,
        "velocity": 0,
        "byte9": true
      },
      {
        "deltaTime": 5,
        "running": true,
        "channel": 0,
        "type": "noteOff",
        "noteNumber": 68,
        "velocity": 0,
        "byte9": true
      },
      {
        "deltaTime": 5,
        "running": true,
        "channel": 0,
        "type": "noteOff",
        "noteNumber": 63,
        "velocity": 0,
        "byte9": true
      },
      {
        "deltaTime": 0,
        "running": true,
        "channel": 0,
        "type": "noteOff",
        "noteNumber": 58,
        "velocity": 0,
        "byte9": true
      },
      {
        "deltaTime": 25,
        "channel": 0,
        "type": "noteOn",
        "noteNumber": 84,
        "velocity": 60
      },
      {
        "deltaTime": 10,
        "running": true,
        "channel": 0,
        "type": "noteOn",
        "noteNumber": 85,
        "velocity": 71
      },
      {
        "deltaTime": 8,
        "running": true,
        "channel": 0,
        "type": "noteOff",
        "noteNumber": 84,
        "velocity": 0,
        "byte9": true
      },
      {
        "deltaTime": 2,
        "running": true,
        "channel": 0,
        "type": "noteOff",
        "noteNumber": 85,
        "velocity": 0,
        "byte9": true
      },
      {
        "deltaTime": 2,
        "running": true,
        "channel": 0,
        "type": "noteOn",
        "noteNumber": 86,
        "velocity": 39
      },
      {
        "deltaTime": 10,
        "channel": 0,
        "type": "noteOff",
        "noteNumber": 86,
        "velocity": 0,
        "byte9": true
      },
      {
        "deltaTime": 4,
        "channel": 0,
        "type": "noteOn",
        "noteNumber": 67,
        "velocity": 34
      },
      {
        "deltaTime": 0,
        "running": true,
        "channel": 0,
        "type": "noteOn",
        "noteNumber": 63,
        "velocity": 31
      },
      {
        "deltaTime": 2,
        "running": true,
        "channel": 0,
        "type": "noteOn",
        "noteNumber": 62,
        "velocity": 24
      },
      {
        "deltaTime": 1,
        "running": true,
        "channel": 0,
        "type": "noteOn",
        "noteNumber": 58,
        "velocity": 29
      },
      {
        "deltaTime": 4,
        "channel": 0,
        "type": "noteOn",
        "noteNumber": 87,
        "velocity": 67
      },
      {
        "deltaTime": 9,
        "running": true,
        "channel": 0,
        "type": "noteOff",
        "noteNumber": 87,
        "velocity": 0,
        "byte9": true
      },
      {
        "deltaTime": 23,
        "running": true,
        "channel": 0,
        "type": "noteOn",
        "noteNumber": 87,
        "velocity": 46
      },
      {
        "deltaTime": 5,
        "running": true,
        "channel": 0,
        "type": "noteOff",
        "noteNumber": 87,
        "velocity": 0,
        "byte9": true
      },
      {
        "deltaTime": 21,
        "running": true,
        "channel": 0,
        "type": "noteOn",
        "noteNumber": 87,
        "velocity": 57
      },
      {
        "deltaTime": 7,
        "running": true,
        "channel": 0,
        "type": "noteOff",
        "noteNumber": 87,
        "velocity": 0,
        "byte9": true
      },
      {
        "deltaTime": 20,
        "running": true,
        "channel": 0,
        "type": "noteOn",
        "noteNumber": 87,
        "velocity": 60
      },
      {
        "deltaTime": 7,
        "running": true,
        "channel": 0,
        "type": "noteOff",
        "noteNumber": 87,
        "velocity": 0,
        "byte9": true
      },
      {
        "deltaTime": 13,
        "channel": 0,
        "type": "controller",
        "controllerType": 86,
        "value": 4
      },
      {
        "deltaTime": 8,
        "channel": 0,
        "type": "noteOn",
        "noteNumber": 87,
        "velocity": 61
      },
      {
        "deltaTime": 13,
        "running": true,
        "channel": 0,
        "type": "noteOff",
        "noteNumber": 87,
        "velocity": 0,
        "byte9": true
      },
      {
        "deltaTime": 9,
        "running": true,
        "channel": 0,
        "type": "noteOn",
        "noteNumber": 89,
        "velocity": 63
      },
      {
        "deltaTime": 9,
        "running": true,
        "channel": 0,
        "type": "noteOff",
        "noteNumber": 89,
        "velocity": 0,
        "byte9": true
      },
      {
        "deltaTime": 17,
        "running": true,
        "channel": 0,
        "type": "noteOn",
        "noteNumber": 87,
        "velocity": 60
      },
      {
        "deltaTime": 9,
        "channel": 0,
        "type": "noteOff",
        "noteNumber": 62,
        "velocity": 0,
        "byte9": true
      },
      {
        "deltaTime": 8,
        "channel": 0,
        "type": "noteOff",
        "noteNumber": 67,
        "velocity": 0,
        "byte9": true
      },
      {
        "deltaTime": 4,
        "running": true,
        "channel": 0,
        "type": "noteOff",
        "noteNumber": 58,
        "velocity": 0,
        "byte9": true
      },
      {
        "deltaTime": 1,
        "running": true,
        "channel": 0,
        "type": "noteOff",
        "noteNumber": 63,
        "velocity": 0,
        "byte9": true
      },
      {
        "deltaTime": 38,
        "channel": 0,
        "type": "noteOff",
        "noteNumber": 87,
        "velocity": 0,
        "byte9": true
      },
      {
        "deltaTime": 0,
        "running": true,
        "channel": 0,
        "type": "noteOn",
        "noteNumber": 80,
        "velocity": 43
      },
      {
        "deltaTime": 3,
        "channel": 0,
        "type": "noteOn",
        "noteNumber": 63,
        "velocity": 27
      },
      {
        "deltaTime": 1,
        "running": true,
        "channel": 0,
        "type": "noteOn",
        "noteNumber": 60,
        "velocity": 34
      },
      {
        "deltaTime": 0,
        "running": true,
        "channel": 0,
        "type": "noteOn",
        "noteNumber": 67,
        "velocity": 18
      },
      {
        "deltaTime": 1,
        "running": true,
        "channel": 0,
        "type": "noteOn",
        "noteNumber": 56,
        "velocity": 28
      },
      {
        "deltaTime": 55,
        "channel": 0,
        "type": "noteOff",
        "noteNumber": 67,
        "velocity": 0,
        "byte9": true
      },
      {
        "deltaTime": 4,
        "running": true,
        "channel": 0,
        "type": "noteOff",
        "noteNumber": 60,
        "velocity": 0,
        "byte9": true
      },
      {
        "deltaTime": 7,
        "running": true,
        "channel": 0,
        "type": "noteOff",
        "noteNumber": 63,
        "velocity": 0,
        "byte9": true
      },
      {
        "deltaTime": 56,
        "running": true,
        "channel": 0,
        "type": "noteOn",
        "noteNumber": 67,
        "velocity": 27
      },
      {
        "deltaTime": 0,
        "running": true,
        "channel": 0,
        "type": "noteOn",
        "noteNumber": 63,
        "velocity": 31
      },
      {
        "deltaTime": 0,
        "running": true,
        "channel": 0,
        "type": "noteOn",
        "noteNumber": 60,
        "velocity": 40
      },
      {
        "deltaTime": 41,
        "channel": 0,
        "type": "noteOff",
        "noteNumber": 80,
        "velocity": 0,
        "byte9": true
      },
      {
        "deltaTime": 32,
        "channel": 0,
        "type": "noteOff",
        "noteNumber": 67,
        "velocity": 0,
        "byte9": true
      },
      {
        "deltaTime": 8,
        "channel": 0,
        "type": "noteOn",
        "noteNumber": 80,
        "velocity": 45
      },
      {
        "deltaTime": 2,
        "channel": 0,
        "type": "noteOff",
        "noteNumber": 63,
        "velocity": 0,
        "byte9": true
      },
      {
        "deltaTime": 1,
        "running": true,
        "channel": 0,
        "type": "noteOff",
        "noteNumber": 56,
        "velocity": 0,
        "byte9": true
      },
      {
        "deltaTime": 2,
        "running": true,
        "channel": 0,
        "type": "noteOff",
        "noteNumber": 60,
        "velocity": 0,
        "byte9": true
      },
      {
        "deltaTime": 4,
        "channel": 0,
        "type": "noteOff",
        "noteNumber": 80,
        "velocity": 0,
        "byte9": true
      },
      {
        "deltaTime": 24,
        "channel": 0,
        "type": "noteOn",
        "noteNumber": 84,
        "velocity": 101
      },
      {
        "deltaTime": 0,
        "channel": 0,
        "type": "noteOn",
        "noteNumber": 62,
        "velocity": 70
      },
      {
        "deltaTime": 1,
        "running": true,
        "channel": 0,
        "type": "noteOn",
        "noteNumber": 56,
        "velocity": 69
      },
      {
        "deltaTime": 0,
        "running": true,
        "channel": 0,
        "type": "noteOn",
        "noteNumber": 67,
        "velocity": 75
      },
      {
        "deltaTime": 9,
        "channel": 0,
        "type": "noteOff",
        "noteNumber": 84,
        "velocity": 0,
        "byte9": true
      },
      {
        "deltaTime": 1,
        "channel": 0,
        "type": "noteOff",
        "noteNumber": 67,
        "velocity": 0,
        "byte9": true
      },
      {
        "deltaTime": 2,
        "running": true,
        "channel": 0,
        "type": "noteOff",
        "noteNumber": 62,
        "velocity": 0,
        "byte9": true
      },
      {
        "deltaTime": 5,
        "running": true,
        "channel": 0,
        "type": "noteOff",
        "noteNumber": 56,
        "velocity": 0,
        "byte9": true
      },
      {
        "deltaTime": 21,
        "channel": 0,
        "type": "noteOn",
        "noteNumber": 84,
        "velocity": 113
      },
      {
        "deltaTime": 1,
        "channel": 0,
        "type": "noteOn",
        "noteNumber": 56,
        "velocity": 77
      },
      {
        "deltaTime": 0,
        "running": true,
        "channel": 0,
        "type": "noteOn",
        "noteNumber": 67,
        "velocity": 85
      },
      {
        "deltaTime": 0,
        "running": true,
        "channel": 0,
        "type": "noteOn",
        "noteNumber": 62,
        "velocity": 80
      },
      {
        "deltaTime": 6,
        "channel": 0,
        "type": "noteOff",
        "noteNumber": 84,
        "velocity": 0,
        "byte9": true
      },
      {
        "deltaTime": 0,
        "channel": 0,
        "type": "noteOff",
        "noteNumber": 67,
        "velocity": 0,
        "byte9": true
      },
      {
        "deltaTime": 2,
        "running": true,
        "channel": 0,
        "type": "noteOff",
        "noteNumber": 62,
        "velocity": 0,
        "byte9": true
      },
      {
        "deltaTime": 0,
        "meta": true,
        "type": "text",
        "text": "Play these voicings With RH except bottom note played with L Hand doubles top note-"
      },
      {
        "deltaTime": 6,
        "running": true,
        "channel": 0,
        "type": "noteOff",
        "noteNumber": 56,
        "velocity": 0,
        "byte9": true
      },
      {
        "deltaTime": 17,
        "channel": 0,
        "type": "noteOn",
        "noteNumber": 84,
        "velocity": 108
      },
      {
        "deltaTime": 2,
        "channel": 0,
        "type": "noteOn",
        "noteNumber": 67,
        "velocity": 87
      },
      {
        "deltaTime": 0,
        "running": true,
        "channel": 0,
        "type": "noteOn",
        "noteNumber": 56,
        "velocity": 76
      },
      {
        "deltaTime": 0,
        "running": true,
        "channel": 0,
        "type": "noteOn",
        "noteNumber": 62,
        "velocity": 70
      },
      {
        "deltaTime": 4,
        "channel": 0,
        "type": "noteOff",
        "noteNumber": 84,
        "velocity": 0,
        "byte9": true
      },
      {
        "deltaTime": 2,
        "channel": 0,
        "type": "noteOff",
        "noteNumber": 67,
        "velocity": 0,
        "byte9": true
      },
      {
        "deltaTime": 0,
        "running": true,
        "channel": 0,
        "type": "noteOff",
        "noteNumber": 62,
        "velocity": 0,
        "byte9": true
      },
      {
        "deltaTime": 3,
        "running": true,
        "channel": 0,
        "type": "noteOff",
        "noteNumber": 56,
        "velocity": 0,
        "byte9": true
      },
      {
        "deltaTime": 20,
        "channel": 0,
        "type": "noteOn",
        "noteNumber": 84,
        "velocity": 95
      },
      {
        "deltaTime": 1,
        "channel": 0,
        "type": "noteOn",
        "noteNumber": 56,
        "velocity": 64
      },
      {
        "deltaTime": 0,
        "running": true,
        "channel": 0,
        "type": "noteOn",
        "noteNumber": 67,
        "velocity": 68
      },
      {
        "deltaTime": 0,
        "running": true,
        "channel": 0,
        "type": "noteOn",
        "noteNumber": 62,
        "velocity": 58
      },
      {
        "deltaTime": 6,
        "running": true,
        "channel": 0,
        "type": "noteOff",
        "noteNumber": 67,
        "velocity": 0,
        "byte9": true
      },
      {
        "deltaTime": 1,
        "channel": 0,
        "type": "noteOff",
        "noteNumber": 84,
        "velocity": 0,
        "byte9": true
      },
      {
        "deltaTime": 1,
        "channel": 0,
        "type": "noteOff",
        "noteNumber": 62,
        "velocity": 0,
        "byte9": true
      },
      {
        "deltaTime": 1,
        "running": true,
        "channel": 0,
        "type": "noteOff",
        "noteNumber": 56,
        "velocity": 0,
        "byte9": true
      },
      {
        "deltaTime": 20,
        "channel": 0,
        "type": "noteOn",
        "noteNumber": 84,
        "velocity": 72
      },
      {
        "deltaTime": 1,
        "channel": 0,
        "type": "noteOn",
        "noteNumber": 62,
        "velocity": 56
      },
      {
        "deltaTime": 1,
        "running": true,
        "channel": 0,
        "type": "noteOn",
        "noteNumber": 67,
        "velocity": 67
      },
      {
        "deltaTime": 0,
        "running": true,
        "channel": 0,
        "type": "noteOn",
        "noteNumber": 56,
        "velocity": 57
      },
      {
        "deltaTime": 32,
        "channel": 0,
        "type": "noteOff",
        "noteNumber": 84,
        "velocity": 0,
        "byte9": true
      },
      {
        "deltaTime": 15,
        "channel": 0,
        "type": "noteOff",
        "noteNumber": 62,
        "velocity": 0,
        "byte9": true
      },
      {
        "deltaTime": 0,
        "running": true,
        "channel": 0,
        "type": "noteOff",
        "noteNumber": 67,
        "velocity": 0,
        "byte9": true
      },
      {
        "deltaTime": 8,
        "running": true,
        "channel": 0,
        "type": "noteOff",
        "noteNumber": 56,
        "velocity": 0,
        "byte9": true
      },
      {
        "deltaTime": 50,
        "channel": 0,
        "type": "noteOn",
        "noteNumber": 79,
        "velocity": 83
      },
      {
        "deltaTime": 1,
        "running": true,
        "channel": 0,
        "type": "noteOn",
        "noteNumber": 71,
        "velocity": 91
      },
      {
        "deltaTime": 0,
        "running": true,
        "channel": 0,
        "type": "noteOn",
        "noteNumber": 68,
        "velocity": 98
      },
      {
        "deltaTime": 0,
        "running": true,
        "channel": 0,
        "type": "noteOn",
        "noteNumber": 74,
        "velocity": 77
      },
      {
        "deltaTime": 1,
        "channel": 0,
        "type": "noteOn",
        "noteNumber": 67,
        "velocity": 101
      },
      {
        "deltaTime": 1,
        "running": true,
        "channel": 0,
        "type": "noteOn",
        "noteNumber": 65,
        "velocity": 89
      },
      {
        "deltaTime": 4,
        "running": true,
        "channel": 0,
        "type": "noteOff",
        "noteNumber": 65,
        "velocity": 0,
        "byte9": true
      },
      {
        "deltaTime": 21,
        "channel": 0,
        "type": "noteOff",
        "noteNumber": 68,
        "velocity": 0,
        "byte9": true
      },
      {
        "deltaTime": 2,
        "running": true,
        "channel": 0,
        "type": "noteOff",
        "noteNumber": 79,
        "velocity": 0,
        "byte9": true
      },
      {
        "deltaTime": 1,
        "running": true,
        "channel": 0,
        "type": "noteOff",
        "noteNumber": 71,
        "velocity": 0,
        "byte9": true
      },
      {
        "deltaTime": 0,
        "channel": 0,
        "type": "noteOff",
        "noteNumber": 67,
        "velocity": 0,
        "byte9": true
      },
      {
        "deltaTime": 3,
        "channel": 0,
        "type": "noteOff",
        "noteNumber": 74,
        "velocity": 0,
        "byte9": true
      },
      {
        "deltaTime": 5,
        "channel": 0,
        "type": "noteOn",
        "noteNumber": 79,
        "velocity": 67
      },
      {
        "deltaTime": 0,
        "running": true,
        "channel": 0,
        "type": "noteOn",
        "noteNumber": 71,
        "velocity": 80
      },
      {
        "deltaTime": 0,
        "running": true,
        "channel": 0,
        "type": "noteOn",
        "noteNumber": 68,
        "velocity": 94
      },
      {
        "deltaTime": 1,
        "channel": 0,
        "type": "noteOn",
        "noteNumber": 67,
        "velocity": 77
      },
      {
        "deltaTime": 0,
        "channel": 0,
        "type": "noteOn",
        "noteNumber": 74,
        "velocity": 83
      },
      {
        "deltaTime": 17,
        "running": true,
        "channel": 0,
        "type": "noteOff",
        "noteNumber": 68,
        "velocity": 0,
        "byte9": true
      },
      {
        "deltaTime": 4,
        "channel": 0,
        "type": "noteOff",
        "noteNumber": 67,
        "velocity": 0,
        "byte9": true
      },
      {
        "deltaTime": 1,
        "channel": 0,
        "type": "noteOff",
        "noteNumber": 79,
        "velocity": 0,
        "byte9": true
      },
      {
        "deltaTime": 2,
        "running": true,
        "channel": 0,
        "type": "noteOff",
        "noteNumber": 71,
        "velocity": 0,
        "byte9": true
      },
      {
        "deltaTime": 2,
        "running": true,
        "channel": 0,
        "type": "noteOff",
        "noteNumber": 74,
        "velocity": 0,
        "byte9": true
      },
      {
        "deltaTime": 4,
        "running": true,
        "channel": 0,
        "type": "noteOn",
        "noteNumber": 79,
        "velocity": 68
      },
      {
        "deltaTime": 1,
        "running": true,
        "channel": 0,
        "type": "noteOn",
        "noteNumber": 71,
        "velocity": 83
      },
      {
        "deltaTime": 0,
        "channel": 0,
        "type": "noteOn",
        "noteNumber": 67,
        "velocity": 72
      },
      {
        "deltaTime": 1,
        "channel": 0,
        "type": "noteOn",
        "noteNumber": 68,
        "velocity": 90
      },
      {
        "deltaTime": 0,
        "running": true,
        "channel": 0,
        "type": "noteOn",
        "noteNumber": 74,
        "velocity": 74
      },
      {
        "deltaTime": 16,
        "channel": 0,
        "type": "noteOff",
        "noteNumber": 68,
        "velocity": 0,
        "byte9": true
      },
      {
        "deltaTime": 2,
        "channel": 0,
        "type": "noteOff",
        "noteNumber": 67,
        "velocity": 0,
        "byte9": true
      },
      {
        "deltaTime": 2,
        "channel": 0,
        "type": "noteOff",
        "noteNumber": 79,
        "velocity": 0,
        "byte9": true
      },
      {
        "deltaTime": 0,
        "running": true,
        "channel": 0,
        "type": "noteOff",
        "noteNumber": 71,
        "velocity": 0,
        "byte9": true
      },
      {
        "deltaTime": 1,
        "running": true,
        "channel": 0,
        "type": "noteOff",
        "noteNumber": 74,
        "velocity": 0,
        "byte9": true
      },
      {
        "deltaTime": 7,
        "channel": 0,
        "type": "noteOn",
        "noteNumber": 79,
        "velocity": 67
      },
      {
        "deltaTime": 0,
        "channel": 0,
        "type": "noteOn",
        "noteNumber": 67,
        "velocity": 69
      },
      {
        "deltaTime": 1,
        "channel": 0,
        "type": "noteOn",
        "noteNumber": 68,
        "velocity": 85
      },
      {
        "deltaTime": 1,
        "running": true,
        "channel": 0,
        "type": "noteOn",
        "noteNumber": 71,
        "velocity": 68
      },
      {
        "deltaTime": 1,
        "running": true,
        "channel": 0,
        "type": "noteOn",
        "noteNumber": 74,
        "velocity": 54
      },
      {
        "deltaTime": 13,
        "channel": 0,
        "type": "noteOff",
        "noteNumber": 68,
        "velocity": 0,
        "byte9": true
      },
      {
        "deltaTime": 2,
        "channel": 0,
        "type": "noteOff",
        "noteNumber": 67,
        "velocity": 0,
        "byte9": true
      },
      {
        "deltaTime": 1,
        "channel": 0,
        "type": "noteOff",
        "noteNumber": 71,
        "velocity": 0,
        "byte9": true
      },
      {
        "deltaTime": 1,
        "running": true,
        "channel": 0,
        "type": "noteOff",
        "noteNumber": 79,
        "velocity": 0,
        "byte9": true
      },
      {
        "deltaTime": 3,
        "running": true,
        "channel": 0,
        "type": "noteOff",
        "noteNumber": 74,
        "velocity": 0,
        "byte9": true
      },
      {
        "deltaTime": 7,
        "channel": 0,
        "type": "noteOn",
        "noteNumber": 79,
        "velocity": 56
      },
      {
        "deltaTime": 1,
        "running": true,
        "channel": 0,
        "type": "noteOn",
        "noteNumber": 68,
        "velocity": 85
      },
      {
        "deltaTime": 0,
        "running": true,
        "channel": 0,
        "type": "noteOn",
        "noteNumber": 71,
        "velocity": 71
      },
      {
        "deltaTime": 0,
        "channel": 0,
        "type": "noteOn",
        "noteNumber": 67,
        "velocity": 71
      },
      {
        "deltaTime": 1,
        "channel": 0,
        "type": "noteOn",
        "noteNumber": 74,
        "velocity": 58
      },
      {
        "deltaTime": 11,
        "channel": 0,
        "type": "noteOff",
        "noteNumber": 68,
        "velocity": 0,
        "byte9": true
      },
      {
        "deltaTime": 1,
        "running": true,
        "channel": 0,
        "type": "noteOff",
        "noteNumber": 71,
        "velocity": 0,
        "byte9": true
      },
      {
        "deltaTime": 1,
        "running": true,
        "channel": 0,
        "type": "noteOff",
        "noteNumber": 79,
        "velocity": 0,
        "byte9": true
      },
      {
        "deltaTime": 0,
        "running": true,
        "channel": 0,
        "type": "noteOff",
        "noteNumber": 74,
        "velocity": 0,
        "byte9": true
      },
      {
        "deltaTime": 1,
        "channel": 0,
        "type": "noteOff",
        "noteNumber": 67,
        "velocity": 0,
        "byte9": true
      },
      {
        "deltaTime": 36,
        "channel": 0,
        "type": "noteOn",
        "noteNumber": 80,
        "velocity": 76
      },
      {
        "deltaTime": 1,
        "running": true,
        "channel": 0,
        "type": "noteOn",
        "noteNumber": 71,
        "velocity": 72
      },
      {
        "deltaTime": 1,
        "running": true,
        "channel": 0,
        "type": "noteOn",
        "noteNumber": 74,
        "velocity": 56
      },
      {
        "deltaTime": 0,
        "channel": 0,
        "type": "noteOn",
        "noteNumber": 68,
        "velocity": 83
      },
      {
        "deltaTime": 9,
        "channel": 0,
        "type": "noteOff",
        "noteNumber": 68,
        "velocity": 0,
        "byte9": true
      },
      {
        "deltaTime": 5,
        "channel": 0,
        "type": "noteOff",
        "noteNumber": 80,
        "velocity": 0,
        "byte9": true
      },
      {
        "deltaTime": 0,
        "running": true,
        "channel": 0,
        "type": "noteOff",
        "noteNumber": 71,
        "velocity": 0,
        "byte9": true
      },
      {
        "deltaTime": 0,
        "running": true,
        "channel": 0,
        "type": "noteOff",
        "noteNumber": 74,
        "velocity": 0,
        "byte9": true
      },
      {
        "deltaTime": 9,
        "running": true,
        "channel": 0,
        "type": "noteOn",
        "noteNumber": 79,
        "velocity": 75
      },
      {
        "deltaTime": 2,
        "channel": 0,
        "type": "noteOn",
        "noteNumber": 67,
        "velocity": 68
      },
      {
        "deltaTime": 0,
        "channel": 0,
        "type": "noteOn",
        "noteNumber": 71,
        "velocity": 58
      },
      {
        "deltaTime": 3,
        "running": true,
        "channel": 0,
        "type": "noteOn",
        "noteNumber": 74,
        "velocity": 39
      },
      {
        "deltaTime": 7,
        "channel": 0,
        "type": "noteOff",
        "noteNumber": 79,
        "velocity": 0,
        "byte9": true
      },
      {
        "deltaTime": 3,
        "running": true,
        "channel": 0,
        "type": "noteOff",
        "noteNumber": 71,
        "velocity": 0,
        "byte9": true
      },
      {
        "deltaTime": 2,
        "channel": 0,
        "type": "noteOff",
        "noteNumber": 67,
        "velocity": 0,
        "byte9": true
      },
      {
        "deltaTime": 4,
        "channel": 0,
        "type": "noteOff",
        "noteNumber": 74,
        "velocity": 0,
        "byte9": true
      },
      {
        "deltaTime": 3,
        "running": true,
        "channel": 0,
        "type": "noteOn",
        "noteNumber": 78,
        "velocity": 56
      },
      {
        "deltaTime": 1,
        "running": true,
        "channel": 0,
        "type": "noteOn",
        "noteNumber": 71,
        "velocity": 62
      },
      {
        "deltaTime": 0,
        "channel": 0,
        "type": "noteOn",
        "noteNumber": 66,
        "velocity": 60
      },
      {
        "deltaTime": 1,
        "channel": 0,
        "type": "noteOn",
        "noteNumber": 68,
        "velocity": 64
      },
      {
        "deltaTime": 12,
        "channel": 0,
        "type": "noteOff",
        "noteNumber": 71,
        "velocity": 0,
        "byte9": true
      },
      {
        "deltaTime": 1,
        "running": true,
        "channel": 0,
        "type": "noteOff",
        "noteNumber": 78,
        "velocity": 0,
        "byte9": true
      },
      {
        "deltaTime": 2,
        "running": true,
        "channel": 0,
        "type": "noteOff",
        "noteNumber": 68,
        "velocity": 0,
        "byte9": true
      },
      {
        "deltaTime": 5,
        "channel": 0,
        "type": "noteOff",
        "noteNumber": 66,
        "velocity": 0,
        "byte9": true
      },
      {
        "deltaTime": 1,
        "channel": 0,
        "type": "noteOn",
        "noteNumber": 77,
        "velocity": 59
      },
      {
        "deltaTime": 1,
        "running": true,
        "channel": 0,
        "type": "noteOn",
        "noteNumber": 68,
        "velocity": 51
      },
      {
        "deltaTime": 2,
        "channel": 0,
        "type": "noteOn",
        "noteNumber": 71,
        "velocity": 44
      },
      {
        "deltaTime": 0,
        "channel": 0,
        "type": "noteOn",
        "noteNumber": 65,
        "velocity": 61
      },
      {
        "deltaTime": 8,
        "channel": 0,
        "type": "noteOff",
        "noteNumber": 71,
        "velocity": 0,
        "byte9": true
      },
      {
        "deltaTime": 6,
        "running": true,
        "channel": 0,
        "type": "noteOff",
        "noteNumber": 77,
        "velocity": 0,
        "byte9": true
      },
      {
        "deltaTime": 1,
        "running": true,
        "channel": 0,
        "type": "noteOff",
        "noteNumber": 68,
        "velocity": 0,
        "byte9": true
      },
      {
        "deltaTime": 2,
        "channel": 0,
        "type": "noteOff",
        "noteNumber": 65,
        "velocity": 0,
        "byte9": true
      },
      {
        "deltaTime": 4,
        "channel": 0,
        "type": "noteOn",
        "noteNumber": 75,
        "velocity": 68
      },
      {
        "deltaTime": 1,
        "running": true,
        "channel": 0,
        "type": "noteOn",
        "noteNumber": 67,
        "velocity": 66
      },
      {
        "deltaTime": 1,
        "running": true,
        "channel": 0,
        "type": "noteOn",
        "noteNumber": 70,
        "velocity": 61
      },
      {
        "deltaTime": 0,
        "channel": 0,
        "type": "noteOn",
        "noteNumber": 63,
        "velocity": 51
      },
      {
        "deltaTime": 13,
        "channel": 0,
        "type": "noteOff",
        "noteNumber": 67,
        "velocity": 0,
        "byte9": true
      },
      {
        "deltaTime": 0,
        "running": true,
        "channel": 0,
        "type": "noteOff",
        "noteNumber": 70,
        "velocity": 0,
        "byte9": true
      },
      {
        "deltaTime": 5,
        "channel": 0,
        "type": "noteOff",
        "noteNumber": 63,
        "velocity": 0,
        "byte9": true
      },
      {
        "deltaTime": 1,
        "channel": 0,
        "type": "noteOff",
        "noteNumber": 75,
        "velocity": 0,
        "byte9": true
      },
      {
        "deltaTime": 50,
        "running": true,
        "channel": 0,
        "type": "noteOn",
        "noteNumber": 67,
        "velocity": 64
      },
      {
        "deltaTime": 1,
        "channel": 0,
        "type": "noteOn",
        "noteNumber": 63,
        "velocity": 59
      },
      {
        "deltaTime": 0,
        "channel": 0,
        "type": "noteOn",
        "noteNumber": 70,
        "velocity": 48
      },
      {
        "deltaTime": 1,
        "running": true,
        "channel": 0,
        "type": "noteOn",
        "noteNumber": 75,
        "velocity": 46
      },
      {
        "deltaTime": 0,
        "running": true,
        "channel": 0,
        "type": "noteOn",
        "noteNumber": 72,
        "velocity": 41
      },
      {
        "deltaTime": 6,
        "running": true,
        "channel": 0,
        "type": "noteOff",
        "noteNumber": 67,
        "velocity": 0,
        "byte9": true
      },
      {
        "deltaTime": 4,
        "running": true,
        "channel": 0,
        "type": "noteOff",
        "noteNumber": 70,
        "velocity": 0,
        "byte9": true
      },
      {
        "deltaTime": 0,
        "running": true,
        "channel": 0,
        "type": "noteOff",
        "noteNumber": 75,
        "velocity": 0,
        "byte9": true
      },
      {
        "deltaTime": 0,
        "running": true,
        "channel": 0,
        "type": "noteOff",
        "noteNumber": 72,
        "velocity": 0,
        "byte9": true
      },
      {
        "deltaTime": 7,
        "channel": 0,
        "type": "noteOff",
        "noteNumber": 63,
        "velocity": 0,
        "byte9": true
      },
      {
        "deltaTime": 15,
        "channel": 0,
        "type": "noteOn",
        "noteNumber": 75,
        "velocity": 55
      },
      {
        "deltaTime": 0,
        "running": true,
        "channel": 0,
        "type": "noteOn",
        "noteNumber": 70,
        "velocity": 57
      },
      {
        "deltaTime": 2,
        "channel": 0,
        "type": "noteOn",
        "noteNumber": 63,
        "velocity": 46
      },
      {
        "deltaTime": 0,
        "channel": 0,
        "type": "noteOn",
        "noteNumber": 67,
        "velocity": 45
      },
      {
        "deltaTime": 0,
        "running": true,
        "channel": 0,
        "type": "noteOn",
        "noteNumber": 72,
        "velocity": 51
      },
      {
        "deltaTime": 10,
        "channel": 0,
        "type": "noteOff",
        "noteNumber": 72,
        "velocity": 0,
        "byte9": true
      },
      {
        "deltaTime": 9,
        "running": true,
        "channel": 0,
        "type": "noteOff",
        "noteNumber": 67,
        "velocity": 0,
        "byte9": true
      },
      {
        "deltaTime": 3,
        "running": true,
        "channel": 0,
        "type": "noteOff",
        "noteNumber": 75,
        "velocity": 0,
        "byte9": true
      },
      {
        "deltaTime": 2,
        "running": true,
        "channel": 0,
        "type": "noteOff",
        "noteNumber": 70,
        "velocity": 0,
        "byte9": true
      },
      {
        "deltaTime": 5,
        "channel": 0,
        "type": "noteOff",
        "noteNumber": 63,
        "velocity": 0,
        "byte9": true
      },
      {
        "deltaTime": 4,
        "channel": 0,
        "type": "noteOn",
        "noteNumber": 70,
        "velocity": 49
      },
      {
        "deltaTime": 0,
        "running": true,
        "channel": 0,
        "type": "noteOn",
        "noteNumber": 75,
        "velocity": 64
      },
      {
        "deltaTime": 1,
        "running": true,
        "channel": 0,
        "type": "noteOn",
        "noteNumber": 67,
        "velocity": 41
      },
      {
        "deltaTime": 13,
        "running": true,
        "channel": 0,
        "type": "noteOff",
        "noteNumber": 75,
        "velocity": 0,
        "byte9": true
      },
      {
        "deltaTime": 3,
        "running": true,
        "channel": 0,
        "type": "noteOff",
        "noteNumber": 70,
        "velocity": 0,
        "byte9": true
      },
      {
        "deltaTime": 2,
        "running": true,
        "channel": 0,
        "type": "noteOff",
        "noteNumber": 67,
        "velocity": 0,
        "byte9": true
      },
      {
        "deltaTime": 108,
        "running": true,
        "channel": 0,
        "type": "noteOn",
        "noteNumber": 61,
        "velocity": 82
      },
      {
        "deltaTime": 1,
        "channel": 0,
        "type": "noteOn",
        "noteNumber": 60,
        "velocity": 76
      },
      {
        "deltaTime": 0,
        "channel": 0,
        "type": "noteOn",
        "noteNumber": 72,
        "velocity": 83
      },
      {
        "deltaTime": 0,
        "running": true,
        "channel": 0,
        "type": "noteOn",
        "noteNumber": 65,
        "velocity": 77
      },
      {
        "deltaTime": 1,
        "running": true,
        "channel": 0,
        "type": "noteOn",
        "noteNumber": 68,
        "velocity": 62
      },
      {
        "deltaTime": 4,
        "channel": 0,
        "type": "noteOff",
        "noteNumber": 61,
        "velocity": 0,
        "byte9": true
      },
      {
        "deltaTime": 0,
        "channel": 0,
        "type": "noteOff",
        "noteNumber": 60,
        "velocity": 0,
        "byte9": true
      },
      {
        "deltaTime": 3,
        "channel": 0,
        "type": "noteOff",
        "noteNumber": 65,
        "velocity": 0,
        "byte9": true
      },
      {
        "deltaTime": 1,
        "running": true,
        "channel": 0,
        "type": "noteOff",
        "noteNumber": 72,
        "velocity": 0,
        "byte9": true
      },
      {
        "deltaTime": 0,
        "running": true,
        "channel": 0,
        "type": "noteOff",
        "noteNumber": 68,
        "velocity": 0,
        "byte9": true
      },
      {
        "deltaTime": 53,
        "channel": 0,
        "type": "noteOn",
        "noteNumber": 61,
        "velocity": 61
      },
      {
        "deltaTime": 0,
        "running": true,
        "channel": 0,
        "type": "noteOn",
        "noteNumber": 70,
        "velocity": 56
      },
      {
        "deltaTime": 1,
        "channel": 0,
        "type": "noteOn",
        "noteNumber": 51,
        "velocity": 46
      },
      {
        "deltaTime": 0,
        "channel": 0,
        "type": "noteOn",
        "noteNumber": 65,
        "velocity": 68
      },
      {
        "deltaTime": 0,
        "channel": 0,
        "type": "noteOn",
        "noteNumber": 58,
        "velocity": 48
      },
      {
        "deltaTime": 0,
        "channel": 0,
        "type": "noteOn",
        "noteNumber": 68,
        "velocity": 51
      },
      {
        "deltaTime": 35,
        "channel": 0,
        "type": "noteOff",
        "noteNumber": 58,
        "velocity": 0,
        "byte9": true
      },
      {
        "deltaTime": 3,
        "channel": 0,
        "type": "noteOff",
        "noteNumber": 68,
        "velocity": 0,
        "byte9": true
      },
      {
        "deltaTime": 2,
        "running": true,
        "channel": 0,
        "type": "noteOff",
        "noteNumber": 65,
        "velocity": 0,
        "byte9": true
      },
      {
        "deltaTime": 3,
        "running": true,
        "channel": 0,
        "type": "noteOff",
        "noteNumber": 61,
        "velocity": 0,
        "byte9": true
      },
      {
        "deltaTime": 0,
        "channel": 0,
        "type": "noteOff",
        "noteNumber": 51,
        "velocity": 0,
        "byte9": true
      },
      {
        "deltaTime": 8,
        "channel": 0,
        "type": "noteOff",
        "noteNumber": 70,
        "velocity": 0,
        "byte9": true
      },
      {
        "deltaTime": 8,
        "running": true,
        "channel": 0,
        "type": "noteOn",
        "noteNumber": 68,
        "velocity": 67
      },
      {
        "deltaTime": 0,
        "running": true,
        "channel": 0,
        "type": "noteOn",
        "noteNumber": 61,
        "velocity": 62
      },
      {
        "deltaTime": 1,
        "running": true,
        "channel": 0,
        "type": "noteOn",
        "noteNumber": 65,
        "velocity": 65
      },
      {
        "deltaTime": 6,
        "channel": 0,
        "type": "noteOn",
        "noteNumber": 51,
        "velocity": 57
      },
      {
        "deltaTime": 0,
        "running": true,
        "channel": 0,
        "type": "noteOn",
        "noteNumber": 56,
        "velocity": 36
      },
      {
        "deltaTime": 23,
        "channel": 0,
        "type": "noteOff",
        "noteNumber": 65,
        "velocity": 0,
        "byte9": true
      },
      {
        "deltaTime": 2,
        "running": true,
        "channel": 0,
        "type": "noteOff",
        "noteNumber": 61,
        "velocity": 0,
        "byte9": true
      },
      {
        "deltaTime": 11,
        "running": true,
        "channel": 0,
        "type": "noteOff",
        "noteNumber": 68,
        "velocity": 0,
        "byte9": true
      },
      {
        "deltaTime": 2,
        "channel": 0,
        "type": "noteOff",
        "noteNumber": 56,
        "velocity": 0,
        "byte9": true
      },
      {
        "deltaTime": 3,
        "running": true,
        "channel": 0,
        "type": "noteOff",
        "noteNumber": 51,
        "velocity": 0,
        "byte9": true
      },
      {
        "deltaTime": 16,
        "channel": 0,
        "type": "noteOn",
        "noteNumber": 67,
        "velocity": 48
      },
      {
        "deltaTime": 0,
        "running": true,
        "channel": 0,
        "type": "noteOn",
        "noteNumber": 60,
        "velocity": 41
      },
      {
        "deltaTime": 0,
        "running": true,
        "channel": 0,
        "type": "noteOn",
        "noteNumber": 56,
        "velocity": 37
      },
      {
        "deltaTime": 0,
        "running": true,
        "channel": 0,
        "type": "noteOn",
        "noteNumber": 65,
        "velocity": 53
      },
      {
        "deltaTime": 3,
        "channel": 0,
        "type": "noteOn",
        "noteNumber": 50,
        "velocity": 29
      },
      {
        "deltaTime": 16,
        "channel": 0,
        "type": "noteOff",
        "noteNumber": 60,
        "velocity": 0,
        "byte9": true
      },
      {
        "deltaTime": 7,
        "running": true,
        "channel": 0,
        "type": "noteOff",
        "noteNumber": 65,
        "velocity": 0,
        "byte9": true
      },
      {
        "deltaTime": 1,
        "running": true,
        "channel": 0,
        "type": "noteOff",
        "noteNumber": 67,
        "velocity": 0,
        "byte9": true
      },
      {
        "deltaTime": 27,
        "running": true,
        "channel": 0,
        "type": "noteOn",
        "noteNumber": 72,
        "velocity": 78
      },
      {
        "deltaTime": 29,
        "running": true,
        "channel": 0,
        "type": "noteOff",
        "noteNumber": 72,
        "velocity": 0,
        "byte9": true
      },
      {
        "deltaTime": 3,
        "channel": 0,
        "type": "noteOff",
        "noteNumber": 50,
        "velocity": 0,
        "byte9": true
      },
      {
        "deltaTime": 10,
        "channel": 0,
        "type": "noteOff",
        "noteNumber": 56,
        "velocity": 0,
        "byte9": true
      },
      {
        "deltaTime": 20,
        "channel": 0,
        "type": "noteOn",
        "noteNumber": 60,
        "velocity": 56
      },
      {
        "deltaTime": 0,
        "running": true,
        "channel": 0,
        "type": "noteOn",
        "noteNumber": 56,
        "velocity": 27
      },
      {
        "deltaTime": 2,
        "running": true,
        "channel": 0,
        "type": "noteOn",
        "noteNumber": 50,
        "velocity": 38
      },
      {
        "deltaTime": 62,
        "channel": 0,
        "type": "noteOff",
        "noteNumber": 60,
        "velocity": 0,
        "byte9": true
      },
      {
        "deltaTime": 2,
        "running": true,
        "channel": 0,
        "type": "noteOff",
        "noteNumber": 50,
        "velocity": 0,
        "byte9": true
      },
      {
        "deltaTime": 8,
        "running": true,
        "channel": 0,
        "type": "noteOff",
        "noteNumber": 56,
        "velocity": 0,
        "byte9": true
      },
      {
        "deltaTime": 41,
        "channel": 0,
        "type": "noteOn",
        "noteNumber": 75,
        "velocity": 79
      },
      {
        "deltaTime": 1,
        "channel": 0,
        "type": "controller",
        "controllerType": 85,
        "value": 2
      },
      {
        "deltaTime": 0,
        "running": true,
        "channel": 0,
        "type": "controller",
        "controllerType": 86,
        "value": 2
      },
      {
        "deltaTime": 0,
        "channel": 0,
        "type": "noteOn",
        "noteNumber": 68,
        "velocity": 82
      },
      {
        "deltaTime": 0,
        "running": true,
        "channel": 0,
        "type": "noteOn",
        "noteNumber": 71,
        "velocity": 80
      },
      {
        "deltaTime": 0,
        "channel": 0,
        "type": "noteOn",
        "noteNumber": 63,
        "velocity": 84
      },
      {
        "deltaTime": 0,
        "channel": 0,
        "type": "noteOn",
        "noteNumber": 64,
        "velocity": 92
      },
      {
        "deltaTime": 1,
        "running": true,
        "channel": 0,
        "type": "noteOn",
        "noteNumber": 73,
        "velocity": 37
      },
      {
        "deltaTime": 14,
        "channel": 0,
        "type": "noteOff",
        "noteNumber": 73,
        "velocity": 0,
        "byte9": true
      },
      {
        "deltaTime": 37,
        "channel": 0,
        "type": "noteOff",
        "noteNumber": 75,
        "velocity": 0,
        "byte9": true
      },
      {
        "deltaTime": 0,
        "running": true,
        "channel": 0,
        "type": "noteOff",
        "noteNumber": 64,
        "velocity": 0,
        "byte9": true
      },
      {
        "deltaTime": 4,
        "running": true,
        "channel": 0,
        "type": "noteOff",
        "noteNumber": 71,
        "velocity": 0,
        "byte9": true
      },
      {
        "deltaTime": 1,
        "running": true,
        "channel": 0,
        "type": "noteOff",
        "noteNumber": 68,
        "velocity": 0,
        "byte9": true
      },
      {
        "deltaTime": 3,
        "channel": 0,
        "type": "noteOn",
        "noteNumber": 61,
        "velocity": 64
      },
      {
        "deltaTime": 0,
        "channel": 0,
        "type": "noteOn",
        "noteNumber": 73,
        "velocity": 59
      },
      {
        "deltaTime": 1,
        "channel": 0,
        "type": "noteOff",
        "noteNumber": 63,
        "velocity": 0,
        "byte9": true
      },
      {
        "deltaTime": 0,
        "channel": 0,
        "type": "noteOn",
        "noteNumber": 68,
        "velocity": 52
      },
      {
        "deltaTime": 0,
        "running": true,
        "channel": 0,
        "type": "noteOn",
        "noteNumber": 64,
        "velocity": 80
      },
      {
        "deltaTime": 3,
        "running": true,
        "channel": 0,
        "type": "noteOn",
        "noteNumber": 71,
        "velocity": 33
      },
      {
        "deltaTime": 4,
        "channel": 0,
        "type": "noteOff",
        "noteNumber": 61,
        "velocity": 0,
        "byte9": true
      },
      {
        "deltaTime": 0,
        "channel": 0,
        "type": "noteOff",
        "noteNumber": 71,
        "velocity": 0,
        "byte9": true
      },
      {
        "deltaTime": 16,
        "running": true,
        "channel": 0,
        "type": "noteOff",
        "noteNumber": 68,
        "velocity": 0,
        "byte9": true
      },
      {
        "deltaTime": 17,
        "running": true,
        "channel": 0,
        "type": "noteOff",
        "noteNumber": 64,
        "velocity": 0,
        "byte9": true
      },
      {
        "deltaTime": 19,
        "channel": 0,
        "type": "controller",
        "controllerType": 85,
        "value": 2
      },
      {
        "deltaTime": 0,
        "running": true,
        "channel": 0,
        "type": "controller",
        "controllerType": 86,
        "value": 2
      },
      {
        "deltaTime": 1,
        "channel": 0,
        "type": "noteOn",
        "noteNumber": 68,
        "velocity": 64
      },
      {
        "deltaTime": 1,
        "running": true,
        "channel": 0,
        "type": "noteOn",
        "noteNumber": 59,
        "velocity": 52
      },
      {
        "deltaTime": 1,
        "channel": 0,
        "type": "noteOn",
        "noteNumber": 64,
        "velocity": 64
      },
      {
        "deltaTime": 1,
        "channel": 0,
        "type": "noteOn",
        "noteNumber": 49,
        "velocity": 33
      },
      {
        "deltaTime": 20,
        "channel": 0,
        "type": "noteOff",
        "noteNumber": 73,
        "velocity": 0,
        "byte9": true
      },
      {
        "deltaTime": 3,
        "running": true,
        "channel": 0,
        "type": "noteOff",
        "noteNumber": 68,
        "velocity": 0,
        "byte9": true
      },
      {
        "deltaTime": 4,
        "running": true,
        "channel": 0,
        "type": "noteOff",
        "noteNumber": 64,
        "velocity": 0,
        "byte9": true
      },
      {
        "deltaTime": 7,
        "channel": 0,
        "type": "noteOff",
        "noteNumber": 49,
        "velocity": 0,
        "byte9": true
      },
      {
        "deltaTime": 2,
        "channel": 0,
        "type": "noteOff",
        "noteNumber": 59,
        "velocity": 0,
        "byte9": true
      },
      {
        "deltaTime": 17,
        "running": true,
        "channel": 0,
        "type": "noteOn",
        "noteNumber": 61,
        "velocity": 54
      },
      {
        "deltaTime": 0,
        "running": true,
        "channel": 0,
        "type": "noteOn",
        "noteNumber": 64,
        "velocity": 68
      },
      {
        "deltaTime": 3,
        "channel": 0,
        "type": "noteOn",
        "noteNumber": 49,
        "velocity": 46
      },
      {
        "deltaTime": 1,
        "channel": 0,
        "type": "noteOn",
        "noteNumber": 59,
        "velocity": 40
      },
      {
        "deltaTime": 19,
        "running": true,
        "channel": 0,
        "type": "noteOff",
        "noteNumber": 59,
        "velocity": 0,
        "byte9": true
      },
      {
        "deltaTime": 12,
        "running": true,
        "channel": 0,
        "type": "noteOff",
        "noteNumber": 64,
        "velocity": 0,
        "byte9": true
      },
      {
        "deltaTime": 2,
        "running": true,
        "channel": 0,
        "type": "noteOff",
        "noteNumber": 61,
        "velocity": 0,
        "byte9": true
      },
      {
        "deltaTime": 7,
        "channel": 0,
        "type": "noteOff",
        "noteNumber": 49,
        "velocity": 0,
        "byte9": true
      },
      {
        "deltaTime": 19,
        "channel": 0,
        "type": "noteOn",
        "noteNumber": 63,
        "velocity": 53
      },
      {
        "deltaTime": 0,
        "channel": 0,
        "type": "noteOn",
        "noteNumber": 58,
        "velocity": 50
      },
      {
        "deltaTime": 1,
        "channel": 0,
        "type": "noteOn",
        "noteNumber": 60,
        "velocity": 49
      },
      {
        "deltaTime": 1,
        "channel": 0,
        "type": "noteOn",
        "noteNumber": 48,
        "velocity": 46
      },
      {
        "deltaTime": 62,
        "channel": 0,
        "type": "noteOn",
        "noteNumber": 55,
        "velocity": 51
      },
      {
        "deltaTime": 24,
        "running": true,
        "channel": 0,
        "type": "noteOff",
        "noteNumber": 58,
        "velocity": 0,
        "byte9": true
      },
      {
        "deltaTime": 7,
        "channel": 0,
        "type": "noteOff",
        "noteNumber": 60,
        "velocity": 0,
        "byte9": true
      },
      {
        "deltaTime": 5,
        "running": true,
        "channel": 0,
        "type": "noteOff",
        "noteNumber": 63,
        "velocity": 0,
        "byte9": true
      },
      {
        "deltaTime": 20,
        "channel": 0,
        "type": "controller",
        "controllerType": 86,
        "value": 12
      },
      {
        "deltaTime": 1,
        "channel": 0,
        "type": "noteOn",
        "noteNumber": 63,
        "velocity": 47
      },
      {
        "deltaTime": 2,
        "running": true,
        "channel": 0,
        "type": "noteOn",
        "noteNumber": 60,
        "velocity": 49
      },
      {
        "deltaTime": 1,
        "running": true,
        "channel": 0,
        "type": "noteOn",
        "noteNumber": 58,
        "velocity": 39
      },
      {
        "deltaTime": 3,
        "running": true,
        "channel": 0,
        "type": "noteOff",
        "noteNumber": 60,
        "velocity": 0,
        "byte9": true
      },
      {
        "deltaTime": 7,
        "running": true,
        "channel": 0,
        "type": "noteOff",
        "noteNumber": 63,
        "velocity": 0,
        "byte9": true
      },
      {
        "deltaTime": 18,
        "channel": 0,
        "type": "noteOn",
        "noteNumber": 67,
        "velocity": 92
      },
      {
        "deltaTime": 13,
        "channel": 0,
        "type": "noteOff",
        "noteNumber": 48,
        "velocity": 0,
        "byte9": true
      },
      {
        "deltaTime": 3,
        "running": true,
        "channel": 0,
        "type": "noteOff",
        "noteNumber": 55,
        "velocity": 0,
        "byte9": true
      },
      {
        "deltaTime": 0,
        "channel": 0,
        "type": "noteOff",
        "noteNumber": 67,
        "velocity": 0,
        "byte9": true
      },
      {
        "deltaTime": 5,
        "running": true,
        "channel": 0,
        "type": "noteOn",
        "noteNumber": 68,
        "velocity": 90
      },
      {
        "deltaTime": 5,
        "channel": 0,
        "type": "noteOff",
        "noteNumber": 58,
        "velocity": 0,
        "byte9": true
      },
      {
        "deltaTime": 10,
        "channel": 0,
        "type": "noteOff",
        "noteNumber": 68,
        "velocity": 0,
        "byte9": true
      },
      {
        "deltaTime": 4,
        "running": true,
        "channel": 0,
        "type": "noteOn",
        "noteNumber": 70,
        "velocity": 84
      },
      {
        "deltaTime": 13,
        "running": true,
        "channel": 0,
        "type": "noteOff",
        "noteNumber": 70,
        "velocity": 0,
        "byte9": true
      },
      {
        "deltaTime": 7,
        "running": true,
        "channel": 0,
        "type": "noteOn",
        "noteNumber": 72,
        "velocity": 90
      },
      {
        "deltaTime": 12,
        "running": true,
        "channel": 0,
        "type": "noteOff",
        "noteNumber": 72,
        "velocity": 0,
        "byte9": true
      },
      {
        "deltaTime": 7,
        "running": true,
        "channel": 0,
        "type": "noteOn",
        "noteNumber": 75,
        "velocity": 87
      },
      {
        "deltaTime": 13,
        "channel": 0,
        "type": "noteOff",
        "noteNumber": 75,
        "velocity": 0,
        "byte9": true
      },
      {
        "deltaTime": 4,
        "channel": 0,
        "type": "noteOn",
        "noteNumber": 63,
        "velocity": 31
      },
      {
        "deltaTime": 2,
        "running": true,
        "channel": 0,
        "type": "noteOn",
        "noteNumber": 60,
        "velocity": 38
      },
      {
        "deltaTime": 2,
        "running": true,
        "channel": 0,
        "type": "noteOn",
        "noteNumber": 56,
        "velocity": 34
      },
      {
        "deltaTime": 1,
        "channel": 0,
        "type": "noteOn",
        "noteNumber": 79,
        "velocity": 83
      },
      {
        "deltaTime": 0,
        "channel": 0,
        "type": "noteOn",
        "noteNumber": 53,
        "velocity": 29
      },
      {
        "deltaTime": 20,
        "channel": 0,
        "type": "noteOff",
        "noteNumber": 79,
        "velocity": 0,
        "byte9": true
      },
      {
        "deltaTime": 8,
        "running": true,
        "channel": 0,
        "type": "noteOn",
        "noteNumber": 79,
        "velocity": 63
      },
      {
        "deltaTime": 25,
        "channel": 0,
        "type": "noteOff",
        "noteNumber": 63,
        "velocity": 0,
        "byte9": true
      },
      {
        "deltaTime": 1,
        "channel": 0,
        "type": "noteOff",
        "noteNumber": 79,
        "velocity": 0,
        "byte9": true
      },
      {
        "deltaTime": 2,
        "running": true,
        "channel": 0,
        "type": "noteOn",
        "noteNumber": 77,
        "velocity": 50
      },
      {
        "deltaTime": 17,
        "channel": 0,
        "type": "noteOff",
        "noteNumber": 60,
        "velocity": 0,
        "byte9": true
      },
      {
        "deltaTime": 24,
        "running": true,
        "channel": 0,
        "type": "noteOn",
        "noteNumber": 63,
        "velocity": 32
      },
      {
        "deltaTime": 1,
        "channel": 0,
        "type": "noteOn",
        "noteNumber": 72,
        "velocity": 47
      },
      {
        "deltaTime": 0,
        "running": true,
        "channel": 0,
        "type": "noteOn",
        "noteNumber": 68,
        "velocity": 33
      },
      {
        "deltaTime": 1,
        "channel": 0,
        "type": "noteOn",
        "noteNumber": 60,
        "velocity": 18
      },
      {
        "deltaTime": 10,
        "running": true,
        "channel": 0,
        "type": "noteOff",
        "noteNumber": 53,
        "velocity": 0,
        "byte9": true
      },
      {
        "deltaTime": 36,
        "channel": 0,
        "type": "noteOff",
        "noteNumber": 77,
        "velocity": 0,
        "byte9": true
      },
      {
        "deltaTime": 8,
        "channel": 0,
        "type": "noteOff",
        "noteNumber": 63,
        "velocity": 0,
        "byte9": true
      },
      {
        "deltaTime": 1,
        "channel": 0,
        "type": "noteOff",
        "noteNumber": 72,
        "velocity": 0,
        "byte9": true
      },
      {
        "deltaTime": 12,
        "running": true,
        "channel": 0,
        "type": "noteOff",
        "noteNumber": 68,
        "velocity": 0,
        "byte9": true
      },
      {
        "deltaTime": 3,
        "channel": 0,
        "type": "noteOff",
        "noteNumber": 60,
        "velocity": 0,
        "byte9": true
      },
      {
        "deltaTime": 18,
        "running": true,
        "channel": 0,
        "type": "noteOff",
        "noteNumber": 56,
        "velocity": 0,
        "byte9": true
      },
      {
        "deltaTime": 39,
        "channel": 0,
        "type": "noteOn",
        "noteNumber": 62,
        "velocity": 36
      },
      {
        "deltaTime": 1,
        "channel": 0,
        "type": "noteOn",
        "noteNumber": 65,
        "velocity": 49
      },
      {
        "deltaTime": 0,
        "running": true,
        "channel": 0,
        "type": "noteOn",
        "noteNumber": 72,
        "velocity": 44
      },
      {
        "deltaTime": 1,
        "channel": 0,
        "type": "noteOn",
        "noteNumber": 46,
        "velocity": 37
      },
      {
        "deltaTime": 1,
        "running": true,
        "channel": 0,
        "type": "noteOn",
        "noteNumber": 56,
        "velocity": 25
      },
      {
        "deltaTime": 35,
        "channel": 0,
        "type": "noteOff",
        "noteNumber": 62,
        "velocity": 0,
        "byte9": true
      },
      {
        "deltaTime": 1,
        "running": true,
        "channel": 0,
        "type": "noteOff",
        "noteNumber": 65,
        "velocity": 0,
        "byte9": true
      },
      {
        "deltaTime": 0,
        "running": true,
        "channel": 0,
        "type": "noteOff",
        "noteNumber": 72,
        "velocity": 0,
        "byte9": true
      },
      {
        "deltaTime": 3,
        "channel": 0,
        "type": "noteOff",
        "noteNumber": 46,
        "velocity": 0,
        "byte9": true
      },
      {
        "deltaTime": 7,
        "running": true,
        "channel": 0,
        "type": "noteOff",
        "noteNumber": 56,
        "velocity": 0,
        "byte9": true
      },
      {
        "deltaTime": 14,
        "channel": 0,
        "type": "noteOn",
        "noteNumber": 72,
        "velocity": 79
      },
      {
        "deltaTime": 0,
        "running": true,
        "channel": 0,
        "type": "noteOn",
        "noteNumber": 65,
        "velocity": 80
      },
      {
        "deltaTime": 0,
        "running": true,
        "channel": 0,
        "type": "noteOn",
        "noteNumber": 62,
        "velocity": 78
      },
      {
        "deltaTime": 1,
        "channel": 0,
        "type": "noteOn",
        "noteNumber": 56,
        "velocity": 55
      },
      {
        "deltaTime": 0,
        "running": true,
        "channel": 0,
        "type": "noteOn",
        "noteNumber": 46,
        "velocity": 62
      },
      {
        "deltaTime": 37,
        "channel": 0,
        "type": "noteOff",
        "noteNumber": 62,
        "velocity": 0,
        "byte9": true
      },
      {
        "deltaTime": 1,
        "running": true,
        "channel": 0,
        "type": "noteOff",
        "noteNumber": 65,
        "velocity": 0,
        "byte9": true
      },
      {
        "deltaTime": 1,
        "channel": 0,
        "type": "noteOff",
        "noteNumber": 46,
        "velocity": 0,
        "byte9": true
      },
      {
        "deltaTime": 1,
        "channel": 0,
        "type": "noteOff",
        "noteNumber": 72,
        "velocity": 0,
        "byte9": true
      },
      {
        "deltaTime": 1,
        "channel": 0,
        "type": "noteOff",
        "noteNumber": 56,
        "velocity": 0,
        "byte9": true
      },
      {
        "deltaTime": 19,
        "running": true,
        "channel": 0,
        "type": "noteOn",
        "noteNumber": 56,
        "velocity": 48
      },
      {
        "deltaTime": 0,
        "channel": 0,
        "type": "noteOn",
        "noteNumber": 72,
        "velocity": 53
      },
      {
        "deltaTime": 1,
        "channel": 0,
        "type": "noteOn",
        "noteNumber": 46,
        "velocity": 42
      },
      {
        "deltaTime": 0,
        "channel": 0,
        "type": "noteOn",
        "noteNumber": 65,
        "velocity": 67
      },
      {
        "deltaTime": 1,
        "running": true,
        "channel": 0,
        "type": "noteOn",
        "noteNumber": 62,
        "velocity": 54
      },
      {
        "deltaTime": 24,
        "channel": 0,
        "type": "noteOff",
        "noteNumber": 46,
        "velocity": 0,
        "byte9": true
      },
      {
        "deltaTime": 7,
        "channel": 0,
        "type": "noteOff",
        "noteNumber": 62,
        "velocity": 0,
        "byte9": true
      },
      {
        "deltaTime": 1,
        "channel": 0,
        "type": "noteOff",
        "noteNumber": 56,
        "velocity": 0,
        "byte9": true
      },
      {
        "deltaTime": 0,
        "channel": 0,
        "type": "noteOff",
        "noteNumber": 65,
        "velocity": 0,
        "byte9": true
      },
      {
        "deltaTime": 2,
        "running": true,
        "channel": 0,
        "type": "noteOff",
        "noteNumber": 72,
        "velocity": 0,
        "byte9": true
      },
      {
        "deltaTime": 23,
        "channel": 0,
        "type": "noteOn",
        "noteNumber": 56,
        "velocity": 37
      },
      {
        "deltaTime": 0,
        "running": true,
        "channel": 0,
        "type": "noteOn",
        "noteNumber": 46,
        "velocity": 49
      },
      {
        "deltaTime": 1,
        "channel": 0,
        "type": "noteOn",
        "noteNumber": 72,
        "velocity": 40
      },
      {
        "deltaTime": 0,
        "running": true,
        "channel": 0,
        "type": "noteOn",
        "noteNumber": 65,
        "velocity": 62
      },
      {
        "deltaTime": 1,
        "running": true,
        "channel": 0,
        "type": "noteOn",
        "noteNumber": 62,
        "velocity": 48
      },
      {
        "deltaTime": 3,
        "channel": 0,
        "type": "noteOff",
        "noteNumber": 56,
        "velocity": 0,
        "byte9": true
      },
      {
        "deltaTime": 7,
        "running": true,
        "channel": 0,
        "type": "noteOff",
        "noteNumber": 46,
        "velocity": 0,
        "byte9": true
      },
      {
        "deltaTime": 9,
        "channel": 0,
        "type": "noteOff",
        "noteNumber": 62,
        "velocity": 0,
        "byte9": true
      },
      {
        "deltaTime": 2,
        "running": true,
        "channel": 0,
        "type": "noteOff",
        "noteNumber": 72,
        "velocity": 0,
        "byte9": true
      },
      {
        "deltaTime": 0,
        "running": true,
        "channel": 0,
        "type": "noteOff",
        "noteNumber": 65,
        "velocity": 0,
        "byte9": true
      },
      {
        "deltaTime": 40,
        "running": true,
        "channel": 0,
        "type": "noteOn",
        "noteNumber": 72,
        "velocity": 90
      },
      {
        "deltaTime": 1,
        "running": true,
        "channel": 0,
        "type": "noteOn",
        "noteNumber": 65,
        "velocity": 89
      },
      {
        "deltaTime": 0,
        "channel": 0,
        "type": "noteOn",
        "noteNumber": 68,
        "velocity": 68
      },
      {
        "deltaTime": 0,
        "channel": 0,
        "type": "noteOn",
        "noteNumber": 39,
        "velocity": 76
      },
      {
        "deltaTime": 0,
        "channel": 0,
        "type": "noteOn",
        "noteNumber": 61,
        "velocity": 77
      },
      {
        "deltaTime": 1,
        "channel": 0,
        "type": "noteOn",
        "noteNumber": 27,
        "velocity": 77
      },
      {
        "deltaTime": 70,
        "channel": 0,
        "type": "noteOff",
        "noteNumber": 27,
        "velocity": 0,
        "byte9": true
      },
      {
        "deltaTime": 4,
        "channel": 0,
        "type": "noteOff",
        "noteNumber": 65,
        "velocity": 0,
        "byte9": true
      },
      {
        "deltaTime": 2,
        "running": true,
        "channel": 0,
        "type": "noteOff",
        "noteNumber": 68,
        "velocity": 0,
        "byte9": true
      },
      {
        "deltaTime": 1,
        "running": true,
        "channel": 0,
        "type": "noteOff",
        "noteNumber": 72,
        "velocity": 0,
        "byte9": true
      },
      {
        "deltaTime": 0,
        "channel": 0,
        "type": "noteOff",
        "noteNumber": 39,
        "velocity": 0,
        "byte9": true
      },
      {
        "deltaTime": 3,
        "channel": 0,
        "type": "noteOff",
        "noteNumber": 61,
        "velocity": 0,
        "byte9": true
      },
      {
        "deltaTime": 34,
        "running": true,
        "channel": 0,
        "type": "noteOn",
        "noteNumber": 61,
        "velocity": 59
      },
      {
        "deltaTime": 0,
        "running": true,
        "channel": 0,
        "type": "noteOn",
        "noteNumber": 70,
        "velocity": 59
      },
      {
        "deltaTime": 2,
        "channel": 0,
        "type": "noteOn",
        "noteNumber": 27,
        "velocity": 55
      },
      {
        "deltaTime": 0,
        "running": true,
        "channel": 0,
        "type": "noteOn",
        "noteNumber": 39,
        "velocity": 55
      },
      {
        "deltaTime": 0,
        "channel": 0,
        "type": "noteOn",
        "noteNumber": 65,
        "velocity": 54
      },
      {
        "deltaTime": 39,
        "channel": 0,
        "type": "noteOff",
        "noteNumber": 27,
        "velocity": 0,
        "byte9": true
      },
      {
        "deltaTime": 7,
        "running": true,
        "channel": 0,
        "type": "noteOff",
        "noteNumber": 39,
        "velocity": 0,
        "byte9": true
      },
      {
        "deltaTime": 6,
        "channel": 0,
        "type": "noteOff",
        "noteNumber": 70,
        "velocity": 0,
        "byte9": true
      },
      {
        "deltaTime": 0,
        "running": true,
        "channel": 0,
        "type": "noteOff",
        "noteNumber": 65,
        "velocity": 0,
        "byte9": true
      },
      {
        "deltaTime": 13,
        "running": true,
        "channel": 0,
        "type": "noteOff",
        "noteNumber": 61,
        "velocity": 0,
        "byte9": true
      },
      {
        "deltaTime": 52,
        "meta": true,
        "type": "text",
        "text": "the others. (The intervals between notes stay exactly the same)"
      },
      {
        "deltaTime": 14,
        "channel": 0,
        "type": "noteOn",
        "noteNumber": 67,
        "velocity": 88
      },
      {
        "deltaTime": 0,
        "channel": 0,
        "type": "noteOn",
        "noteNumber": 55,
        "velocity": 101
      },
      {
        "deltaTime": 0,
        "running": true,
        "channel": 0,
        "type": "noteOn",
        "noteNumber": 59,
        "velocity": 89
      },
      {
        "deltaTime": 1,
        "running": true,
        "channel": 0,
        "type": "noteOn",
        "noteNumber": 56,
        "velocity": 92
      },
      {
        "deltaTime": 0,
        "channel": 0,
        "type": "noteOn",
        "noteNumber": 62,
        "velocity": 79
      },
      {
        "deltaTime": 51,
        "channel": 0,
        "type": "noteOff",
        "noteNumber": 67,
        "velocity": 0,
        "byte9": true
      },
      {
        "deltaTime": 5,
        "channel": 0,
        "type": "noteOff",
        "noteNumber": 55,
        "velocity": 0,
        "byte9": true
      },
      {
        "deltaTime": 4,
        "channel": 0,
        "type": "noteOff",
        "noteNumber": 62,
        "velocity": 0,
        "byte9": true
      },
      {
        "deltaTime": 1,
        "channel": 0,
        "type": "noteOff",
        "noteNumber": 59,
        "velocity": 0,
        "byte9": true
      },
      {
        "deltaTime": 7,
        "running": true,
        "channel": 0,
        "type": "noteOff",
        "noteNumber": 56,
        "velocity": 0,
        "byte9": true
      },
      {
        "deltaTime": 14,
        "meta": true,
        "type": "text",
        "text": "On this Abdim (Maj7) block chords up Diminished scale. Each voicing parallel with "
      },
      {
        "deltaTime": 28,
        "channel": 0,
        "type": "noteOn",
        "noteNumber": 62,
        "velocity": 60
      },
      {
        "deltaTime": 2,
        "running": true,
        "channel": 0,
        "type": "noteOn",
        "noteNumber": 56,
        "velocity": 48
      },
      {
        "deltaTime": 1,
        "running": true,
        "channel": 0,
        "type": "noteOn",
        "noteNumber": 53,
        "velocity": 49
      },
      {
        "deltaTime": 0,
        "running": true,
        "channel": 0,
        "type": "noteOn",
        "noteNumber": 59,
        "velocity": 47
      },
      {
        "deltaTime": 1,
        "channel": 0,
        "type": "noteOn",
        "noteNumber": 52,
        "velocity": 61
      },
      {
        "deltaTime": 5,
        "channel": 0,
        "type": "noteOff",
        "noteNumber": 62,
        "velocity": 0,
        "byte9": true
      },
      {
        "deltaTime": 5,
        "running": true,
        "channel": 0,
        "type": "noteOff",
        "noteNumber": 59,
        "velocity": 0,
        "byte9": true
      },
      {
        "deltaTime": 3,
        "running": true,
        "channel": 0,
        "type": "noteOff",
        "noteNumber": 53,
        "velocity": 0,
        "byte9": true
      },
      {
        "deltaTime": 9,
        "running": true,
        "channel": 0,
        "type": "noteOff",
        "noteNumber": 56,
        "velocity": 0,
        "byte9": true
      },
      {
        "deltaTime": 8,
        "running": true,
        "channel": 0,
        "type": "noteOn",
        "noteNumber": 64,
        "velocity": 73
      },
      {
        "deltaTime": 0,
        "running": true,
        "channel": 0,
        "type": "noteOn",
        "noteNumber": 54,
        "velocity": 76
      },
      {
        "deltaTime": 2,
        "channel": 0,
        "type": "noteOff",
        "noteNumber": 52,
        "velocity": 0,
        "byte9": true
      },
      {
        "deltaTime": 0,
        "channel": 0,
        "type": "noteOn",
        "noteNumber": 57,
        "velocity": 73
      },
      {
        "deltaTime": 0,
        "running": true,
        "channel": 0,
        "type": "noteOn",
        "noteNumber": 60,
        "velocity": 64
      },
      {
        "deltaTime": 0,
        "channel": 0,
        "type": "noteOn",
        "noteNumber": 53,
        "velocity": 64
      },
      {
        "deltaTime": 7,
        "channel": 0,
        "type": "noteOff",
        "noteNumber": 57,
        "velocity": 0,
        "byte9": true
      },
      {
        "deltaTime": 2,
        "channel": 0,
        "type": "noteOff",
        "noteNumber": 60,
        "velocity": 0,
        "byte9": true
      },
      {
        "deltaTime": 2,
        "running": true,
        "channel": 0,
        "type": "noteOff",
        "noteNumber": 64,
        "velocity": 0,
        "byte9": true
      },
      {
        "deltaTime": 2,
        "running": true,
        "channel": 0,
        "type": "noteOff",
        "noteNumber": 54,
        "velocity": 0,
        "byte9": true
      },
      {
        "deltaTime": 7,
        "channel": 0,
        "type": "noteOff",
        "noteNumber": 53,
        "velocity": 0,
        "byte9": true
      },
      {
        "deltaTime": 7,
        "channel": 0,
        "type": "noteOn",
        "noteNumber": 67,
        "velocity": 27
      },
      {
        "deltaTime": 4,
        "channel": 0,
        "type": "noteOn",
        "noteNumber": 56,
        "velocity": 77
      },
      {
        "deltaTime": 0,
        "running": true,
        "channel": 0,
        "type": "noteOn",
        "noteNumber": 59,
        "velocity": 78
      },
      {
        "deltaTime": 1,
        "channel": 0,
        "type": "noteOn",
        "noteNumber": 55,
        "velocity": 81
      },
      {
        "deltaTime": 0,
        "channel": 0,
        "type": "noteOn",
        "noteNumber": 62,
        "velocity": 64
      },
      {
        "deltaTime": 17,
        "channel": 0,
        "type": "noteOff",
        "noteNumber": 59,
        "velocity": 0,
        "byte9": true
      },
      {
        "deltaTime": 0,
        "running": true,
        "channel": 0,
        "type": "noteOff",
        "noteNumber": 62,
        "velocity": 0,
        "byte9": true
      },
      {
        "deltaTime": 4,
        "running": true,
        "channel": 0,
        "type": "noteOff",
        "noteNumber": 67,
        "velocity": 0,
        "byte9": true
      },
      {
        "deltaTime": 3,
        "running": true,
        "channel": 0,
        "type": "noteOff",
        "noteNumber": 56,
        "velocity": 0,
        "byte9": true
      },
      {
        "deltaTime": 14,
        "channel": 0,
        "type": "noteOn",
        "noteNumber": 56,
        "velocity": 81
      },
      {
        "deltaTime": 0,
        "channel": 0,
        "type": "noteOn",
        "noteNumber": 61,
        "velocity": 62
      },
      {
        "deltaTime": 0,
        "running": true,
        "channel": 0,
        "type": "noteOn",
        "noteNumber": 68,
        "velocity": 72
      },
      {
        "deltaTime": 1,
        "running": true,
        "channel": 0,
        "type": "noteOn",
        "noteNumber": 57,
        "velocity": 53
      },
      {
        "deltaTime": 1,
        "running": true,
        "channel": 0,
        "type": "noteOn",
        "noteNumber": 64,
        "velocity": 59
      },
      {
        "deltaTime": 1,
        "channel": 0,
        "type": "noteOff",
        "noteNumber": 55,
        "velocity": 0,
        "byte9": true
      },
      {
        "deltaTime": 9,
        "channel": 0,
        "type": "noteOff",
        "noteNumber": 64,
        "velocity": 0,
        "byte9": true
      },
      {
        "deltaTime": 3,
        "channel": 0,
        "type": "noteOff",
        "noteNumber": 61,
        "velocity": 0,
        "byte9": true
      },
      {
        "deltaTime": 2,
        "running": true,
        "channel": 0,
        "type": "noteOff",
        "noteNumber": 68,
        "velocity": 0,
        "byte9": true
      },
      {
        "deltaTime": 0,
        "running": true,
        "channel": 0,
        "type": "noteOff",
        "noteNumber": 57,
        "velocity": 0,
        "byte9": true
      },
      {
        "deltaTime": 17,
        "channel": 0,
        "type": "noteOn",
        "noteNumber": 59,
        "velocity": 36
      },
      {
        "deltaTime": 0,
        "running": true,
        "channel": 0,
        "type": "noteOn",
        "noteNumber": 62,
        "velocity": 61
      },
      {
        "deltaTime": 1,
        "running": true,
        "channel": 0,
        "type": "noteOn",
        "noteNumber": 65,
        "velocity": 64
      },
      {
        "deltaTime": 0,
        "running": true,
        "channel": 0,
        "type": "noteOn",
        "noteNumber": 70,
        "velocity": 67
      },
      {
        "deltaTime": 0,
        "channel": 0,
        "type": "noteOn",
        "noteNumber": 58,
        "velocity": 80
      },
      {
        "deltaTime": 6,
        "running": true,
        "channel": 0,
        "type": "noteOff",
        "noteNumber": 56,
        "velocity": 0,
        "byte9": true
      },
      {
        "deltaTime": 4,
        "channel": 0,
        "type": "noteOff",
        "noteNumber": 62,
        "velocity": 0,
        "byte9": true
      },
      {
        "deltaTime": 2,
        "running": true,
        "channel": 0,
        "type": "noteOff",
        "noteNumber": 65,
        "velocity": 0,
        "byte9": true
      },
      {
        "deltaTime": 2,
        "channel": 0,
        "type": "noteOff",
        "noteNumber": 59,
        "velocity": 0,
        "byte9": true
      },
      {
        "deltaTime": 9,
        "running": true,
        "channel": 0,
        "type": "noteOff",
        "noteNumber": 70,
        "velocity": 0,
        "byte9": true
      },
      {
        "deltaTime": 58,
        "running": true,
        "channel": 0,
        "type": "noteOn",
        "noteNumber": 62,
        "velocity": 64
      },
      {
        "deltaTime": 1,
        "running": true,
        "channel": 0,
        "type": "noteOn",
        "noteNumber": 71,
        "velocity": 53
      },
      {
        "deltaTime": 2,
        "channel": 0,
        "type": "noteOn",
        "noteNumber": 59,
        "velocity": 52
      },
      {
        "deltaTime": 0,
        "channel": 0,
        "type": "noteOn",
        "noteNumber": 68,
        "velocity": 42
      },
      {
        "deltaTime": 0,
        "running": true,
        "channel": 0,
        "type": "noteOn",
        "noteNumber": 65,
        "velocity": 57
      },
      {
        "deltaTime": 4,
        "channel": 0,
        "type": "noteOff",
        "noteNumber": 58,
        "velocity": 0,
        "byte9": true
      },
      {
        "deltaTime": 3,
        "channel": 0,
        "type": "noteOff",
        "noteNumber": 71,
        "velocity": 0,
        "byte9": true
      },
      {
        "deltaTime": 3,
        "channel": 0,
        "type": "controller",
        "controllerType": 85,
        "value": 6
      },
      {
        "deltaTime": 0,
        "running": true,
        "channel": 0,
        "type": "controller",
        "controllerType": 86,
        "value": 6
      },
      {
        "deltaTime": 3,
        "channel": 0,
        "type": "noteOff",
        "noteNumber": 68,
        "velocity": 0,
        "byte9": true
      },
      {
        "deltaTime": 6,
        "running": true,
        "channel": 0,
        "type": "noteOff",
        "noteNumber": 62,
        "velocity": 0,
        "byte9": true
      },
      {
        "deltaTime": 4,
        "running": true,
        "channel": 0,
        "type": "noteOn",
        "noteNumber": 73,
        "velocity": 49
      },
      {
        "deltaTime": 2,
        "channel": 0,
        "type": "noteOn",
        "noteNumber": 61,
        "velocity": 55
      },
      {
        "deltaTime": 2,
        "channel": 0,
        "type": "noteOff",
        "noteNumber": 65,
        "velocity": 0,
        "byte9": true
      },
      {
        "deltaTime": 4,
        "channel": 0,
        "type": "noteOff",
        "noteNumber": 59,
        "velocity": 0,
        "byte9": true
      },
      {
        "deltaTime": 4,
        "channel": 0,
        "type": "noteOff",
        "noteNumber": 73,
        "velocity": 0,
        "byte9": true
      },
      {
        "deltaTime": 12,
        "channel": 0,
        "type": "noteOn",
        "noteNumber": 74,
        "velocity": 63
      },
      {
        "deltaTime": 2,
        "running": true,
        "channel": 0,
        "type": "noteOn",
        "noteNumber": 64,
        "velocity": 44
      },
      {
        "deltaTime": 0,
        "running": true,
        "channel": 0,
        "type": "noteOn",
        "noteNumber": 65,
        "velocity": 49
      },
      {
        "deltaTime": 0,
        "channel": 0,
        "type": "noteOn",
        "noteNumber": 62,
        "velocity": 58
      },
      {
        "deltaTime": 5,
        "running": true,
        "channel": 0,
        "type": "noteOff",
        "noteNumber": 61,
        "velocity": 0,
        "byte9": true
      },
      {
        "deltaTime": 2,
        "channel": 0,
        "type": "noteOff",
        "noteNumber": 64,
        "velocity": 0,
        "byte9": true
      },
      {
        "deltaTime": 1,
        "running": true,
        "channel": 0,
        "type": "noteOff",
        "noteNumber": 74,
        "velocity": 0,
        "byte9": true
      },
      {
        "deltaTime": 1,
        "running": true,
        "channel": 0,
        "type": "noteOff",
        "noteNumber": 65,
        "velocity": 0,
        "byte9": true
      },
      {
        "deltaTime": 14,
        "channel": 0,
        "type": "noteOff",
        "noteNumber": 62,
        "velocity": 0,
        "byte9": true
      },
      {
        "deltaTime": 6,
        "running": true,
        "channel": 0,
        "type": "noteOn",
        "noteNumber": 64,
        "velocity": 64
      },
      {
        "deltaTime": 0,
        "channel": 0,
        "type": "noteOn",
        "noteNumber": 76,
        "velocity": 60
      },
      {
        "deltaTime": 2,
        "channel": 0,
        "type": "noteOn",
        "noteNumber": 66,
        "velocity": 38
      },
      {
        "deltaTime": 1,
        "running": true,
        "channel": 0,
        "type": "noteOn",
        "noteNumber": 69,
        "velocity": 58
      },
      {
        "deltaTime": 8,
        "running": true,
        "channel": 0,
        "type": "noteOff",
        "noteNumber": 69,
        "velocity": 0,
        "byte9": true
      },
      {
        "deltaTime": 2,
        "running": true,
        "channel": 0,
        "type": "noteOff",
        "noteNumber": 76,
        "velocity": 0,
        "byte9": true
      },
      {
        "deltaTime": 6,
        "channel": 0,
        "type": "noteOff",
        "noteNumber": 66,
        "velocity": 0,
        "byte9": true
      },
      {
        "deltaTime": 1,
        "channel": 0,
        "type": "noteOff",
        "noteNumber": 64,
        "velocity": 0,
        "byte9": true
      },
      {
        "deltaTime": 14,
        "channel": 0,
        "type": "noteOn",
        "noteNumber": 69,
        "velocity": 64
      },
      {
        "deltaTime": 0,
        "running": true,
        "channel": 0,
        "type": "noteOn",
        "noteNumber": 77,
        "velocity": 54
      },
      {
        "deltaTime": 1,
        "running": true,
        "channel": 0,
        "type": "noteOn",
        "noteNumber": 66,
        "velocity": 59
      },
      {
        "deltaTime": 0,
        "running": true,
        "channel": 0,
        "type": "noteOn",
        "noteNumber": 72,
        "velocity": 58
      },
      {
        "deltaTime": 1,
        "channel": 0,
        "type": "noteOn",
        "noteNumber": 65,
        "velocity": 68
      },
      {
        "deltaTime": 6,
        "channel": 0,
        "type": "noteOff",
        "noteNumber": 69,
        "velocity": 0,
        "byte9": true
      },
      {
        "deltaTime": 2,
        "running": true,
        "channel": 0,
        "type": "noteOff",
        "noteNumber": 72,
        "velocity": 0,
        "byte9": true
      },
      {
        "deltaTime": 2,
        "running": true,
        "channel": 0,
        "type": "noteOff",
        "noteNumber": 77,
        "velocity": 0,
        "byte9": true
      },
      {
        "deltaTime": 1,
        "running": true,
        "channel": 0,
        "type": "noteOff",
        "noteNumber": 66,
        "velocity": 0,
        "byte9": true
      },
      {
        "deltaTime": 3,
        "channel": 0,
        "type": "noteOff",
        "noteNumber": 65,
        "velocity": 0,
        "byte9": true
      },
      {
        "deltaTime": 18,
        "channel": 0,
        "type": "noteOn",
        "noteNumber": 68,
        "velocity": 64
      },
      {
        "deltaTime": 1,
        "running": true,
        "channel": 0,
        "type": "noteOn",
        "noteNumber": 71,
        "velocity": 62
      },
      {
        "deltaTime": 0,
        "running": true,
        "channel": 0,
        "type": "noteOn",
        "noteNumber": 79,
        "velocity": 54
      },
      {
        "deltaTime": 0,
        "channel": 0,
        "type": "noteOn",
        "noteNumber": 67,
        "velocity": 66
      },
      {
        "deltaTime": 1,
        "channel": 0,
        "type": "noteOn",
        "noteNumber": 74,
        "velocity": 54
      },
      {
        "deltaTime": 8,
        "running": true,
        "channel": 0,
        "type": "noteOff",
        "noteNumber": 71,
        "velocity": 0,
        "byte9": true
      },
      {
        "deltaTime": 2,
        "running": true,
        "channel": 0,
        "type": "noteOff",
        "noteNumber": 68,
        "velocity": 0,
        "byte9": true
      },
      {
        "deltaTime": 0,
        "running": true,
        "channel": 0,
        "type": "noteOff",
        "noteNumber": 74,
        "velocity": 0,
        "byte9": true
      },
      {
        "deltaTime": 2,
        "running": true,
        "channel": 0,
        "type": "noteOff",
        "noteNumber": 79,
        "velocity": 0,
        "byte9": true
      },
      {
        "deltaTime": 7,
        "channel": 0,
        "type": "noteOff",
        "noteNumber": 67,
        "velocity": 0,
        "byte9": true
      },
      {
        "deltaTime": 13,
        "channel": 0,
        "type": "noteOn",
        "noteNumber": 80,
        "velocity": 56
      },
      {
        "deltaTime": 1,
        "running": true,
        "channel": 0,
        "type": "noteOn",
        "noteNumber": 73,
        "velocity": 25
      },
      {
        "deltaTime": 1,
        "channel": 0,
        "type": "noteOn",
        "noteNumber": 68,
        "velocity": 51
      },
      {
        "deltaTime": 1,
        "channel": 0,
        "type": "noteOn",
        "noteNumber": 69,
        "velocity": 35
      },
      {
        "deltaTime": 7,
        "channel": 0,
        "type": "noteOff",
        "noteNumber": 73,
        "velocity": 0,
        "byte9": true
      },
      {
        "deltaTime": 0,
        "running": true,
        "channel": 0,
        "type": "noteOff",
        "noteNumber": 69,
        "velocity": 0,
        "byte9": true
      },
      {
        "deltaTime": 5,
        "running": true,
        "channel": 0,
        "type": "noteOff",
        "noteNumber": 80,
        "velocity": 0,
        "byte9": true
      },
      {
        "deltaTime": 17,
        "channel": 0,
        "type": "noteOff",
        "noteNumber": 68,
        "velocity": 0,
        "byte9": true
      },
      {
        "deltaTime": 3,
        "channel": 0,
        "type": "noteOn",
        "noteNumber": 70,
        "velocity": 63
      },
      {
        "deltaTime": 0,
        "channel": 0,
        "type": "noteOn",
        "noteNumber": 74,
        "velocity": 49
      },
      {
        "deltaTime": 0,
        "running": true,
        "channel": 0,
        "type": "noteOn",
        "noteNumber": 82,
        "velocity": 56
      },
      {
        "deltaTime": 1,
        "running": true,
        "channel": 0,
        "type": "noteOn",
        "noteNumber": 71,
        "velocity": 25
      },
      {
        "deltaTime": 2,
        "running": true,
        "channel": 0,
        "type": "noteOn",
        "noteNumber": 77,
        "velocity": 34
      },
      {
        "deltaTime": 11,
        "channel": 0,
        "type": "noteOff",
        "noteNumber": 70,
        "velocity": 0,
        "byte9": true
      },
      {
        "deltaTime": 1,
        "channel": 0,
        "type": "noteOff",
        "noteNumber": 74,
        "velocity": 0,
        "byte9": true
      },
      {
        "deltaTime": 0,
        "running": true,
        "channel": 0,
        "type": "noteOff",
        "noteNumber": 77,
        "velocity": 0,
        "byte9": true
      },
      {
        "deltaTime": 3,
        "running": true,
        "channel": 0,
        "type": "noteOff",
        "noteNumber": 82,
        "velocity": 0,
        "byte9": true
      },
      {
        "deltaTime": 5,
        "running": true,
        "channel": 0,
        "type": "noteOff",
        "noteNumber": 71,
        "velocity": 0,
        "byte9": true
      },
      {
        "deltaTime": 17,
        "channel": 0,
        "type": "noteOn",
        "noteNumber": 79,
        "velocity": 60
      },
      {
        "deltaTime": 1,
        "running": true,
        "channel": 0,
        "type": "noteOn",
        "noteNumber": 68,
        "velocity": 10
      },
      {
        "deltaTime": 0,
        "running": true,
        "channel": 0,
        "type": "noteOn",
        "noteNumber": 71,
        "velocity": 57
      },
      {
        "deltaTime": 0,
        "running": true,
        "channel": 0,
        "type": "noteOn",
        "noteNumber": 74,
        "velocity": 57
      },
      {
        "deltaTime": 0,
        "channel": 0,
        "type": "noteOn",
        "noteNumber": 67,
        "velocity": 57
      },
      {
        "deltaTime": 13,
        "channel": 0,
        "type": "noteOff",
        "noteNumber": 79,
        "velocity": 0,
        "byte9": true
      },
      {
        "deltaTime": 4,
        "running": true,
        "channel": 0,
        "type": "noteOff",
        "noteNumber": 68,
        "velocity": 0,
        "byte9": true
      },
      {
        "deltaTime": 1,
        "running": true,
        "channel": 0,
        "type": "noteOff",
        "noteNumber": 71,
        "velocity": 0,
        "byte9": true
      },
      {
        "deltaTime": 3,
        "running": true,
        "channel": 0,
        "type": "noteOff",
        "noteNumber": 74,
        "velocity": 0,
        "byte9": true
      },
      {
        "deltaTime": 0,
        "channel": 0,
        "type": "noteOff",
        "noteNumber": 67,
        "velocity": 0,
        "byte9": true
      },
      {
        "deltaTime": 15,
        "channel": 0,
        "type": "noteOn",
        "noteNumber": 68,
        "velocity": 60
      },
      {
        "deltaTime": 1,
        "running": true,
        "channel": 0,
        "type": "noteOn",
        "noteNumber": 77,
        "velocity": 49
      },
      {
        "deltaTime": 0,
        "running": true,
        "channel": 0,
        "type": "noteOn",
        "noteNumber": 71,
        "velocity": 48
      },
      {
        "deltaTime": 1,
        "channel": 0,
        "type": "noteOn",
        "noteNumber": 65,
        "velocity": 44
      },
      {
        "deltaTime": 6,
        "channel": 0,
        "type": "noteOff",
        "noteNumber": 71,
        "velocity": 0,
        "byte9": true
      },
      {
        "deltaTime": 3,
        "running": true,
        "channel": 0,
        "type": "noteOff",
        "noteNumber": 77,
        "velocity": 0,
        "byte9": true
      },
      {
        "deltaTime": 5,
        "running": true,
        "channel": 0,
        "type": "noteOff",
        "noteNumber": 68,
        "velocity": 0,
        "byte9": true
      },
      {
        "deltaTime": 4,
        "channel": 0,
        "type": "noteOff",
        "noteNumber": 65,
        "velocity": 0,
        "byte9": true
      },
      {
        "deltaTime": 19,
        "channel": 0,
        "type": "noteOn",
        "noteNumber": 76,
        "velocity": 45
      },
      {
        "deltaTime": 0,
        "channel": 0,
        "type": "noteOn",
        "noteNumber": 64,
        "velocity": 45
      },
      {
        "deltaTime": 1,
        "channel": 0,
        "type": "noteOn",
        "noteNumber": 68,
        "velocity": 48
      },
      {
        "deltaTime": 1,
        "running": true,
        "channel": 0,
        "type": "noteOn",
        "noteNumber": 71,
        "velocity": 45
      },
      {
        "deltaTime": 0,
        "running": true,
        "channel": 0,
        "type": "noteOn",
        "noteNumber": 65,
        "velocity": 44
      },
      {
        "deltaTime": 11,
        "channel": 0,
        "type": "noteOff",
        "noteNumber": 76,
        "velocity": 0,
        "byte9": true
      },
      {
        "deltaTime": 7,
        "running": true,
        "channel": 0,
        "type": "noteOff",
        "noteNumber": 68,
        "velocity": 0,
        "byte9": true
      },
      {
        "deltaTime": 1,
        "running": true,
        "channel": 0,
        "type": "noteOff",
        "noteNumber": 71,
        "velocity": 0,
        "byte9": true
      },
      {
        "deltaTime": 2,
        "running": true,
        "channel": 0,
        "type": "noteOff",
        "noteNumber": 65,
        "velocity": 0,
        "byte9": true
      },
      {
        "deltaTime": 6,
        "channel": 0,
        "type": "noteOff",
        "noteNumber": 64,
        "velocity": 0,
        "byte9": true
      },
      {
        "deltaTime": 10,
        "meta": true,
        "type": "text",
        "text": "Basically an Eb pentatonic scale over Ab Maj7 chord-"
      },
      {
        "deltaTime": 0,
        "channel": 0,
        "type": "noteOn",
        "noteNumber": 74,
        "velocity": 40
      },
      {
        "deltaTime": 2,
        "running": true,
        "channel": 0,
        "type": "noteOn",
        "noteNumber": 65,
        "velocity": 44
      },
      {
        "deltaTime": 0,
        "channel": 0,
        "type": "noteOn",
        "noteNumber": 62,
        "velocity": 40
      },
      {
        "deltaTime": 1,
        "channel": 0,
        "type": "noteOn",
        "noteNumber": 68,
        "velocity": 30
      },
      {
        "deltaTime": 4,
        "channel": 0,
        "type": "noteOff",
        "noteNumber": 62,
        "velocity": 0,
        "byte9": true
      },
      {
        "deltaTime": 5,
        "channel": 0,
        "type": "noteOff",
        "noteNumber": 74,
        "velocity": 0,
        "byte9": true
      },
      {
        "deltaTime": 0,
        "running": true,
        "channel": 0,
        "type": "noteOff",
        "noteNumber": 65,
        "velocity": 0,
        "byte9": true
      },
      {
        "deltaTime": 1,
        "running": true,
        "channel": 0,
        "type": "noteOff",
        "noteNumber": 68,
        "velocity": 0,
        "byte9": true
      },
      {
        "deltaTime": 37,
        "running": true,
        "channel": 0,
        "type": "noteOn",
        "noteNumber": 75,
        "velocity": 42
      },
      {
        "deltaTime": 0,
        "running": true,
        "channel": 0,
        "type": "noteOn",
        "noteNumber": 67,
        "velocity": 38
      },
      {
        "deltaTime": 1,
        "running": true,
        "channel": 0,
        "type": "noteOn",
        "noteNumber": 70,
        "velocity": 42
      },
      {
        "deltaTime": 2,
        "channel": 0,
        "type": "noteOn",
        "noteNumber": 44,
        "velocity": 39
      },
      {
        "deltaTime": 2,
        "channel": 0,
        "type": "noteOn",
        "noteNumber": 72,
        "velocity": 40
      },
      {
        "deltaTime": 15,
        "channel": 0,
        "type": "noteOff",
        "noteNumber": 44,
        "velocity": 0,
        "byte9": true
      },
      {
        "deltaTime": 18,
        "channel": 0,
        "type": "noteOff",
        "noteNumber": 72,
        "velocity": 0,
        "byte9": true
      },
      {
        "deltaTime": 3,
        "running": true,
        "channel": 0,
        "type": "noteOff",
        "noteNumber": 75,
        "velocity": 0,
        "byte9": true
      },
      {
        "deltaTime": 1,
        "running": true,
        "channel": 0,
        "type": "noteOff",
        "noteNumber": 70,
        "velocity": 0,
        "byte9": true
      },
      {
        "deltaTime": 2,
        "running": true,
        "channel": 0,
        "type": "noteOff",
        "noteNumber": 67,
        "velocity": 0,
        "byte9": true
      },
      {
        "deltaTime": 3,
        "channel": 0,
        "type": "noteOn",
        "noteNumber": 58,
        "velocity": 34
      },
      {
        "deltaTime": 24,
        "channel": 0,
        "type": "noteOn",
        "noteNumber": 60,
        "velocity": 58
      },
      {
        "deltaTime": 10,
        "running": true,
        "channel": 0,
        "type": "noteOff",
        "noteNumber": 60,
        "velocity": 0,
        "byte9": true
      },
      {
        "deltaTime": 22,
        "running": true,
        "channel": 0,
        "type": "noteOn",
        "noteNumber": 65,
        "velocity": 51
      },
      {
        "deltaTime": 14,
        "running": true,
        "channel": 0,
        "type": "noteOff",
        "noteNumber": 65,
        "velocity": 0,
        "byte9": true
      },
      {
        "deltaTime": 3,
        "running": true,
        "channel": 0,
        "type": "noteOn",
        "noteNumber": 67,
        "velocity": 68
      },
      {
        "deltaTime": 9,
        "running": true,
        "channel": 0,
        "type": "noteOff",
        "noteNumber": 67,
        "velocity": 0,
        "byte9": true
      },
      {
        "deltaTime": 4,
        "running": true,
        "channel": 0,
        "type": "noteOn",
        "noteNumber": 70,
        "velocity": 57
      },
      {
        "deltaTime": 7,
        "running": true,
        "channel": 0,
        "type": "noteOff",
        "noteNumber": 70,
        "velocity": 0,
        "byte9": true
      },
      {
        "deltaTime": 4,
        "running": true,
        "channel": 0,
        "type": "noteOn",
        "noteNumber": 72,
        "velocity": 68
      },
      {
        "deltaTime": 4,
        "channel": 0,
        "type": "noteOn",
        "noteNumber": 60,
        "velocity": 28
      },
      {
        "deltaTime": 5,
        "running": true,
        "channel": 0,
        "type": "noteOff",
        "noteNumber": 60,
        "velocity": 0,
        "byte9": true
      },
      {
        "deltaTime": 1,
        "channel": 0,
        "type": "noteOff",
        "noteNumber": 72,
        "velocity": 0,
        "byte9": true
      },
      {
        "deltaTime": 3,
        "running": true,
        "channel": 0,
        "type": "noteOn",
        "noteNumber": 75,
        "velocity": 67
      },
      {
        "deltaTime": 1,
        "channel": 0,
        "type": "noteOff",
        "noteNumber": 58,
        "velocity": 0,
        "byte9": true
      },
      {
        "deltaTime": 6,
        "channel": 0,
        "type": "noteOff",
        "noteNumber": 75,
        "velocity": 0,
        "byte9": true
      },
      {
        "deltaTime": 6,
        "running": true,
        "channel": 0,
        "type": "noteOn",
        "noteNumber": 77,
        "velocity": 56
      },
      {
        "deltaTime": 12,
        "running": true,
        "channel": 0,
        "type": "noteOn",
        "noteNumber": 79,
        "velocity": 50
      },
      {
        "deltaTime": 1,
        "running": true,
        "channel": 0,
        "type": "noteOff",
        "noteNumber": 77,
        "velocity": 0,
        "byte9": true
      },
      {
        "deltaTime": 8,
        "meta": true,
        "type": "text",
        "text": "Basically an Eb pentatonic scale over Ab Maj7 chord-"
      },
      {
        "deltaTime": 1,
        "running": true,
        "channel": 0,
        "type": "noteOff",
        "noteNumber": 79,
        "velocity": 0,
        "byte9": true
      },
      {
        "deltaTime": 3,
        "running": true,
        "channel": 0,
        "type": "noteOn",
        "noteNumber": 82,
        "velocity": 53
      },
      {
        "deltaTime": 6,
        "running": true,
        "channel": 0,
        "type": "noteOff",
        "noteNumber": 82,
        "velocity": 0,
        "byte9": true
      },
      {
        "deltaTime": 8,
        "running": true,
        "channel": 0,
        "type": "noteOn",
        "noteNumber": 84,
        "velocity": 54
      },
      {
        "deltaTime": 7,
        "running": true,
        "channel": 0,
        "type": "noteOff",
        "noteNumber": 84,
        "velocity": 0,
        "byte9": true
      },
      {
        "deltaTime": 6,
        "running": true,
        "channel": 0,
        "type": "noteOn",
        "noteNumber": 87,
        "velocity": 57
      },
      {
        "deltaTime": 5,
        "running": true,
        "channel": 0,
        "type": "noteOff",
        "noteNumber": 87,
        "velocity": 0,
        "byte9": true
      },
      {
        "deltaTime": 9,
        "running": true,
        "channel": 0,
        "type": "noteOn",
        "noteNumber": 89,
        "velocity": 62
      },
      {
        "deltaTime": 12,
        "running": true,
        "channel": 0,
        "type": "noteOff",
        "noteNumber": 89,
        "velocity": 0,
        "byte9": true
      },
      {
        "deltaTime": 1,
        "running": true,
        "channel": 0,
        "type": "noteOn",
        "noteNumber": 91,
        "velocity": 51
      },
      {
        "deltaTime": 8,
        "running": true,
        "channel": 0,
        "type": "noteOff",
        "noteNumber": 91,
        "velocity": 0,
        "byte9": true
      },
      {
        "deltaTime": 6,
        "running": true,
        "channel": 0,
        "type": "noteOn",
        "noteNumber": 94,
        "velocity": 46
      },
      {
        "deltaTime": 7,
        "running": true,
        "channel": 0,
        "type": "noteOff",
        "noteNumber": 94,
        "velocity": 0,
        "byte9": true
      },
      {
        "deltaTime": 10,
        "running": true,
        "channel": 0,
        "type": "noteOn",
        "noteNumber": 96,
        "velocity": 28
      },
      {
        "deltaTime": 5,
        "running": true,
        "channel": 0,
        "type": "noteOff",
        "noteNumber": 96,
        "velocity": 0,
        "byte9": true
      },
      {
        "deltaTime": 7,
        "running": true,
        "channel": 0,
        "type": "noteOn",
        "noteNumber": 99,
        "velocity": 57
      },
      {
        "deltaTime": 8,
        "running": true,
        "channel": 0,
        "type": "noteOff",
        "noteNumber": 99,
        "velocity": 0,
        "byte9": true
      },
      {
        "deltaTime": 9,
        "running": true,
        "channel": 0,
        "type": "noteOn",
        "noteNumber": 101,
        "velocity": 65
      },
      {
        "deltaTime": 1,
        "channel": 0,
        "type": "controller",
        "controllerType": 85,
        "value": 8
      },
      {
        "deltaTime": 0,
        "running": true,
        "channel": 0,
        "type": "controller",
        "controllerType": 86,
        "value": 8
      },
      {
        "deltaTime": 9,
        "channel": 0,
        "type": "noteOff",
        "noteNumber": 101,
        "velocity": 0,
        "byte9": true
      },
      {
        "deltaTime": 6,
        "running": true,
        "channel": 0,
        "type": "noteOn",
        "noteNumber": 103,
        "velocity": 49
      },
      {
        "deltaTime": 11,
        "running": true,
        "channel": 0,
        "type": "noteOff",
        "noteNumber": 103,
        "velocity": 0,
        "byte9": true
      },
      {
        "deltaTime": 5,
        "channel": 0,
        "type": "noteOn",
        "noteNumber": 51,
        "velocity": 31
      },
      {
        "deltaTime": 0,
        "channel": 0,
        "type": "noteOn",
        "noteNumber": 106,
        "velocity": 59
      },
      {
        "deltaTime": 5,
        "channel": 0,
        "type": "noteOn",
        "noteNumber": 44,
        "velocity": 46
      },
      {
        "deltaTime": 10,
        "channel": 0,
        "type": "noteOff",
        "noteNumber": 106,
        "velocity": 0,
        "byte9": true
      },
      {
        "deltaTime": 5,
        "running": true,
        "channel": 0,
        "type": "noteOn",
        "noteNumber": 108,
        "velocity": 80
      },
      {
        "deltaTime": 26,
        "channel": 0,
        "type": "noteOff",
        "noteNumber": 51,
        "velocity": 0,
        "byte9": true
      },
      {
        "deltaTime": 9,
        "running": true,
        "channel": 0,
        "type": "noteOff",
        "noteNumber": 44,
        "velocity": 0,
        "byte9": true
      },
      {
        "deltaTime": 9,
        "channel": 0,
        "type": "noteOff",
        "noteNumber": 108,
        "velocity": 0,
        "byte9": true
      },
      {
        "deltaTime": 95,
        "channel": 0,
        "type": "noteOn",
        "noteNumber": 20,
        "velocity": 34
      },
      {
        "deltaTime": 178,
        "running": true,
        "channel": 0,
        "type": "noteOff",
        "noteNumber": 20,
        "velocity": 0,
        "byte9": true
      },
      { "deltaTime": 127, "meta": true, "type": "endOfTrack" }
    ]
  ]
}
