{
  "header": { "format": 1, "numTracks": 1, "ticksPerBeat": 120 },
  "tracks": [
    [
      {
        "deltaTime": 0,
        "meta": true,
        "type": "keySignature",
        "key": -1,
        "scale": 0
      },
      {
        "deltaTime": 0,
        "meta": true,
        "type": "trackName",
        "text": "The Shining Sea"
      },
      {
        "deltaTime": 0,
        "meta": true,
        "type": "setTempo",
        "microsecondsPerBeat": 895522
      },
      {
        "deltaTime": 0,
        "meta": true,
        "type": "timeSignature",
        "numerator": 4,
        "denominator": 4,
        "metronome": 24,
        "thirtyseconds": 8
      },
      {
        "deltaTime": 0,
        "channel": 0,
        "type": "controller",
        "controllerType": 86,
        "value": 4
      },
      {
        "deltaTime": 0,
        "running": true,
        "channel": 0,
        "type": "controller",
        "controllerType": 85,
        "value": 4
      },
      {
        "deltaTime": 0,
        "running": true,
        "channel": 0,
        "type": "controller",
        "controllerType": 64,
        "value": 0
      },
      {
        "deltaTime": 0,
        "running": true,
        "channel": 0,
        "type": "controller",
        "controllerType": 86,
        "value": 4
      },
      {
        "deltaTime": 0,
        "running": true,
        "channel": 0,
        "type": "controller",
        "controllerType": 85,
        "value": 4
      },
      {
        "deltaTime": 0,
        "running": true,
        "channel": 0,
        "type": "controller",
        "controllerType": 64,
        "value": 0
      },
      {
        "deltaTime": 0,
        "running": true,
        "channel": 0,
        "type": "controller",
        "controllerType": 86,
        "value": 4
      },
      {
        "deltaTime": 0,
        "running": true,
        "channel": 0,
        "type": "controller",
        "controllerType": 85,
        "value": 4
      },
      {
        "deltaTime": 0,
        "running": true,
        "channel": 0,
        "type": "controller",
        "controllerType": 64,
        "value": 0
      },
      {
        "deltaTime": 0,
        "running": true,
        "channel": 0,
        "type": "controller",
        "controllerType": 86,
        "value": 4
      },
      {
        "deltaTime": 0,
        "running": true,
        "channel": 0,
        "type": "controller",
        "controllerType": 85,
        "value": 4
      },
      {
        "deltaTime": 0,
        "running": true,
        "channel": 0,
        "type": "controller",
        "controllerType": 64,
        "value": 0
      },
      {
        "deltaTime": 0,
        "running": true,
        "channel": 0,
        "type": "controller",
        "controllerType": 86,
        "value": 4
      },
      {
        "deltaTime": 0,
        "running": true,
        "channel": 0,
        "type": "controller",
        "controllerType": 85,
        "value": 4
      },
      {
        "deltaTime": 0,
        "running": true,
        "channel": 0,
        "type": "controller",
        "controllerType": 64,
        "value": 85
      },
      {
        "deltaTime": 0,
        "running": true,
        "channel": 0,
        "type": "controller",
        "controllerType": 64,
        "value": 85
      },
      {
        "deltaTime": 1440,
        "channel": 0,
        "type": "controller",
        "controllerType": 88,
        "value": 34
      },
      {
        "deltaTime": 12,
        "channel": 0,
        "type": "noteOn",
        "noteNumber": 57,
        "velocity": 56
      },
      {
        "deltaTime": 67,
        "channel": 0,
        "type": "noteOn",
        "noteNumber": 72,
        "velocity": 55
      },
      {
        "deltaTime": 3,
        "meta": true,
        "type": "text",
        "text": "Two bars introduction"
      },
      {
        "deltaTime": 58,
        "running": true,
        "channel": 0,
        "type": "noteOn",
        "noteNumber": 81,
        "velocity": 71
      },
      {
        "deltaTime": 22,
        "running": true,
        "channel": 0,
        "type": "noteOff",
        "noteNumber": 81,
        "velocity": 0,
        "byte9": true
      },
      {
        "deltaTime": 1,
        "running": true,
        "channel": 0,
        "type": "noteOff",
        "noteNumber": 72,
        "velocity": 0,
        "byte9": true
      },
      {
        "deltaTime": 39,
        "running": true,
        "channel": 0,
        "type": "noteOn",
        "noteNumber": 84,
        "velocity": 92
      },
      {
        "deltaTime": 4,
        "channel": 0,
        "type": "noteOn",
        "noteNumber": 64,
        "velocity": 51
      },
      {
        "deltaTime": 9,
        "channel": 0,
        "type": "noteOff",
        "noteNumber": 84,
        "velocity": 0,
        "byte9": true
      },
      {
        "deltaTime": 8,
        "channel": 0,
        "type": "noteOff",
        "noteNumber": 64,
        "velocity": 0,
        "byte9": true
      },
      {
        "deltaTime": 43,
        "running": true,
        "channel": 0,
        "type": "noteOn",
        "noteNumber": 64,
        "velocity": 54
      },
      {
        "deltaTime": 1,
        "channel": 0,
        "type": "noteOn",
        "noteNumber": 81,
        "velocity": 78
      },
      {
        "deltaTime": 2,
        "running": true,
        "channel": 0,
        "type": "noteOn",
        "noteNumber": 72,
        "velocity": 68
      },
      {
        "deltaTime": 6,
        "channel": 0,
        "type": "noteOff",
        "noteNumber": 64,
        "velocity": 0,
        "byte9": true
      },
      {
        "deltaTime": 15,
        "running": true,
        "channel": 0,
        "type": "noteOff",
        "noteNumber": 57,
        "velocity": 0,
        "byte9": true
      },
      {
        "deltaTime": 3,
        "channel": 0,
        "type": "noteOff",
        "noteNumber": 81,
        "velocity": 0,
        "byte9": true
      },
      {
        "deltaTime": 8,
        "running": true,
        "channel": 0,
        "type": "noteOff",
        "noteNumber": 72,
        "velocity": 0,
        "byte9": true
      },
      {
        "deltaTime": 24,
        "channel": 0,
        "type": "noteOn",
        "noteNumber": 57,
        "velocity": 64
      },
      {
        "deltaTime": 60,
        "channel": 0,
        "type": "noteOn",
        "noteNumber": 67,
        "velocity": 69
      },
      {
        "deltaTime": 4,
        "channel": 0,
        "type": "noteOff",
        "noteNumber": 57,
        "velocity": 0,
        "byte9": true
      },
      {
        "deltaTime": 43,
        "channel": 0,
        "type": "noteOff",
        "noteNumber": 67,
        "velocity": 0,
        "byte9": true
      },
      {
        "deltaTime": 10,
        "running": true,
        "channel": 0,
        "type": "noteOn",
        "noteNumber": 72,
        "velocity": 73
      },
      {
        "deltaTime": 46,
        "running": true,
        "channel": 0,
        "type": "noteOff",
        "noteNumber": 72,
        "velocity": 0,
        "byte9": true
      },
      {
        "deltaTime": 13,
        "channel": 0,
        "type": "noteOn",
        "noteNumber": 58,
        "velocity": 63
      },
      {
        "deltaTime": 2,
        "channel": 0,
        "type": "noteOn",
        "noteNumber": 70,
        "velocity": 62
      },
      {
        "deltaTime": 1,
        "running": true,
        "channel": 0,
        "type": "noteOn",
        "noteNumber": 65,
        "velocity": 50
      },
      {
        "deltaTime": 0,
        "channel": 0,
        "type": "noteOn",
        "noteNumber": 48,
        "velocity": 52
      },
      {
        "deltaTime": 1,
        "channel": 0,
        "type": "noteOn",
        "noteNumber": 62,
        "velocity": 37
      },
      {
        "deltaTime": 3,
        "channel": 0,
        "type": "controller",
        "controllerType": 64,
        "value": 0
      },
      {
        "deltaTime": 54,
        "running": true,
        "channel": 0,
        "type": "controller",
        "controllerType": 64,
        "value": 85
      },
      {
        "deltaTime": 0,
        "channel": 0,
        "type": "noteOn",
        "noteNumber": 55,
        "velocity": 49
      },
      {
        "deltaTime": 2,
        "running": true,
        "channel": 0,
        "type": "noteOff",
        "noteNumber": 58,
        "velocity": 0,
        "byte9": true
      },
      {
        "deltaTime": 6,
        "channel": 0,
        "type": "noteOff",
        "noteNumber": 62,
        "velocity": 0,
        "byte9": true
      },
      {
        "deltaTime": 10,
        "running": true,
        "channel": 0,
        "type": "noteOff",
        "noteNumber": 65,
        "velocity": 0,
        "byte9": true
      },
      {
        "deltaTime": 34,
        "running": true,
        "channel": 0,
        "type": "noteOn",
        "noteNumber": 62,
        "velocity": 57
      },
      {
        "deltaTime": 11,
        "running": true,
        "channel": 0,
        "type": "noteOff",
        "noteNumber": 62,
        "velocity": 0,
        "byte9": true
      },
      {
        "deltaTime": 9,
        "running": true,
        "channel": 0,
        "type": "noteOff",
        "noteNumber": 70,
        "velocity": 0,
        "byte9": true
      },
      {
        "deltaTime": 33,
        "channel": 0,
        "type": "noteOff",
        "noteNumber": 55,
        "velocity": 0,
        "byte9": true
      },
      {
        "deltaTime": 59,
        "running": true,
        "channel": 0,
        "type": "noteOn",
        "noteNumber": 60,
        "velocity": 61
      },
      {
        "deltaTime": 1,
        "channel": 0,
        "type": "noteOn",
        "noteNumber": 72,
        "velocity": 56
      },
      {
        "deltaTime": 3,
        "running": true,
        "channel": 0,
        "type": "noteOn",
        "noteNumber": 84,
        "velocity": 55
      },
      {
        "deltaTime": 91,
        "channel": 0,
        "type": "noteOff",
        "noteNumber": 60,
        "velocity": 0,
        "byte9": true
      },
      {
        "deltaTime": 2,
        "channel": 0,
        "type": "noteOff",
        "noteNumber": 72,
        "velocity": 0,
        "byte9": true
      },
      {
        "deltaTime": 12,
        "running": true,
        "channel": 0,
        "type": "noteOff",
        "noteNumber": 84,
        "velocity": 0,
        "byte9": true
      },
      {
        "deltaTime": 13,
        "running": true,
        "channel": 0,
        "type": "noteOn",
        "noteNumber": 84,
        "velocity": 50
      },
      {
        "deltaTime": 4,
        "running": true,
        "channel": 0,
        "type": "noteOn",
        "noteNumber": 72,
        "velocity": 54
      },
      {
        "deltaTime": 0,
        "channel": 0,
        "type": "noteOn",
        "noteNumber": 60,
        "velocity": 47
      },
      {
        "deltaTime": 22,
        "running": true,
        "channel": 0,
        "type": "noteOff",
        "noteNumber": 48,
        "velocity": 0,
        "byte9": true
      },
      {
        "deltaTime": 9,
        "channel": 0,
        "type": "noteOff",
        "noteNumber": 84,
        "velocity": 0,
        "byte9": true
      },
      {
        "deltaTime": 4,
        "running": true,
        "channel": 0,
        "type": "noteOff",
        "noteNumber": 72,
        "velocity": 0,
        "byte9": true
      },
      {
        "deltaTime": 5,
        "channel": 0,
        "type": "noteOff",
        "noteNumber": 60,
        "velocity": 0,
        "byte9": true
      },
      {
        "deltaTime": 64,
        "channel": 0,
        "type": "controller",
        "controllerType": 64,
        "value": 85
      },
      {
        "deltaTime": 0,
        "running": true,
        "channel": 0,
        "type": "controller",
        "controllerType": 64,
        "value": 85
      },
      {
        "deltaTime": 4,
        "running": true,
        "channel": 0,
        "type": "controller",
        "controllerType": 88,
        "value": 35
      },
      {
        "deltaTime": 4,
        "channel": 0,
        "type": "noteOn",
        "noteNumber": 60,
        "velocity": 56
      },
      {
        "deltaTime": 0,
        "running": true,
        "channel": 0,
        "type": "noteOn",
        "noteNumber": 55,
        "velocity": 56
      },
      {
        "deltaTime": 1,
        "channel": 0,
        "type": "noteOn",
        "noteNumber": 48,
        "velocity": 52
      },
      {
        "deltaTime": 2,
        "channel": 0,
        "type": "noteOn",
        "noteNumber": 57,
        "velocity": 56
      },
      {
        "deltaTime": 1,
        "channel": 0,
        "type": "noteOn",
        "noteNumber": 41,
        "velocity": 57
      },
      {
        "deltaTime": 0,
        "channel": 0,
        "type": "noteOn",
        "noteNumber": 41,
        "velocity": 60
      },
      {
        "deltaTime": 1,
        "channel": 0,
        "type": "noteOn",
        "noteNumber": 55,
        "velocity": 55
      },
      {
        "deltaTime": 0,
        "running": true,
        "channel": 0,
        "type": "noteOn",
        "noteNumber": 60,
        "velocity": 54
      },
      {
        "deltaTime": 4,
        "running": true,
        "channel": 0,
        "type": "noteOn",
        "noteNumber": 57,
        "velocity": 40
      },
      {
        "deltaTime": 3,
        "channel": 0,
        "type": "controller",
        "controllerType": 64,
        "value": 0
      },
      {
        "deltaTime": 1,
        "running": true,
        "channel": 0,
        "type": "controller",
        "controllerType": 64,
        "value": 0
      },
      {
        "deltaTime": 2,
        "running": true,
        "channel": 0,
        "type": "controller",
        "controllerType": 64,
        "value": 0
      },
      { "deltaTime": 16, "meta": true, "type": "text", "text": "Vocal begins" },
      {
        "deltaTime": 20,
        "running": true,
        "channel": 0,
        "type": "controller",
        "controllerType": 64,
        "value": 85
      },
      {
        "deltaTime": 2,
        "channel": 0,
        "type": "noteOff",
        "noteNumber": 55,
        "velocity": 0,
        "byte9": true
      },
      {
        "deltaTime": 5,
        "channel": 0,
        "type": "noteOff",
        "noteNumber": 55,
        "velocity": 0,
        "byte9": true
      },
      {
        "deltaTime": 2,
        "channel": 0,
        "type": "noteOff",
        "noteNumber": 57,
        "velocity": 0,
        "byte9": true
      },
      {
        "deltaTime": 5,
        "running": true,
        "channel": 0,
        "type": "noteOff",
        "noteNumber": 60,
        "velocity": 0,
        "byte9": true
      },
      {
        "deltaTime": 2,
        "channel": 0,
        "type": "noteOff",
        "noteNumber": 48,
        "velocity": 0,
        "byte9": true
      },
      {
        "deltaTime": 0,
        "channel": 0,
        "type": "noteOff",
        "noteNumber": 57,
        "velocity": 0,
        "byte9": true
      },
      {
        "deltaTime": 3,
        "channel": 0,
        "type": "noteOn",
        "noteNumber": 48,
        "velocity": 58
      },
      {
        "deltaTime": 2,
        "channel": 0,
        "type": "noteOff",
        "noteNumber": 60,
        "velocity": 0,
        "byte9": true
      },
      {
        "deltaTime": 49,
        "channel": 0,
        "type": "noteOn",
        "noteNumber": 55,
        "velocity": 60
      },
      {
        "deltaTime": 18,
        "running": true,
        "channel": 0,
        "type": "noteOff",
        "noteNumber": 48,
        "velocity": 0,
        "byte9": true
      },
      {
        "deltaTime": 42,
        "running": true,
        "channel": 0,
        "type": "noteOff",
        "noteNumber": 55,
        "velocity": 0,
        "byte9": true
      },
      {
        "deltaTime": 3,
        "running": true,
        "channel": 0,
        "type": "noteOn",
        "noteNumber": 48,
        "velocity": 59
      },
      {
        "deltaTime": 53,
        "channel": 0,
        "type": "noteOn",
        "noteNumber": 72,
        "velocity": 104
      },
      {
        "deltaTime": 3,
        "channel": 0,
        "type": "controller",
        "controllerType": 64,
        "value": 0
      },
      {
        "deltaTime": 0,
        "channel": 0,
        "type": "noteOn",
        "noteNumber": 57,
        "velocity": 72
      },
      {
        "deltaTime": 0,
        "channel": 0,
        "type": "noteOn",
        "noteNumber": 67,
        "velocity": 91
      },
      {
        "deltaTime": 0,
        "running": true,
        "channel": 0,
        "type": "noteOn",
        "noteNumber": 62,
        "velocity": 90
      },
      {
        "deltaTime": 25,
        "channel": 0,
        "type": "noteOff",
        "noteNumber": 48,
        "velocity": 0,
        "byte9": true
      },
      {
        "deltaTime": 23,
        "channel": 0,
        "type": "controller",
        "controllerType": 64,
        "value": 85
      },
      {
        "deltaTime": 15,
        "channel": 0,
        "type": "noteOn",
        "noteNumber": 48,
        "velocity": 67
      },
      {
        "deltaTime": 6,
        "channel": 0,
        "type": "noteOff",
        "noteNumber": 67,
        "velocity": 0,
        "byte9": true
      },
      {
        "deltaTime": 3,
        "running": true,
        "channel": 0,
        "type": "noteOff",
        "noteNumber": 72,
        "velocity": 0,
        "byte9": true
      },
      {
        "deltaTime": 15,
        "running": true,
        "channel": 0,
        "type": "noteOff",
        "noteNumber": 62,
        "velocity": 0,
        "byte9": true
      },
      {
        "deltaTime": 49,
        "channel": 0,
        "type": "noteOff",
        "noteNumber": 48,
        "velocity": 0,
        "byte9": true
      },
      {
        "deltaTime": 1,
        "channel": 0,
        "type": "noteOff",
        "noteNumber": 41,
        "velocity": 0,
        "byte9": true
      },
      {
        "deltaTime": 36,
        "channel": 0,
        "type": "noteOff",
        "noteNumber": 57,
        "velocity": 0,
        "byte9": true
      },
      {
        "deltaTime": 11,
        "running": true,
        "channel": 0,
        "type": "noteOn",
        "noteNumber": 48,
        "velocity": 63
      },
      {
        "deltaTime": 1,
        "running": true,
        "channel": 0,
        "type": "noteOff",
        "noteNumber": 41,
        "velocity": 0,
        "byte9": true
      },
      {
        "deltaTime": 0,
        "channel": 0,
        "type": "noteOn",
        "noteNumber": 60,
        "velocity": 58
      },
      {
        "deltaTime": 1,
        "running": true,
        "channel": 0,
        "type": "noteOn",
        "noteNumber": 69,
        "velocity": 64
      },
      {
        "deltaTime": 1,
        "running": true,
        "channel": 0,
        "type": "noteOn",
        "noteNumber": 64,
        "velocity": 56
      },
      {
        "deltaTime": 8,
        "running": true,
        "channel": 0,
        "type": "noteOff",
        "noteNumber": 64,
        "velocity": 0,
        "byte9": true
      },
      {
        "deltaTime": 3,
        "channel": 0,
        "type": "noteOff",
        "noteNumber": 48,
        "velocity": 0,
        "byte9": true
      },
      {
        "deltaTime": 3,
        "channel": 0,
        "type": "noteOff",
        "noteNumber": 60,
        "velocity": 0,
        "byte9": true
      },
      {
        "deltaTime": 4,
        "running": true,
        "channel": 0,
        "type": "noteOff",
        "noteNumber": 69,
        "velocity": 0,
        "byte9": true
      },
      {
        "deltaTime": 41,
        "running": true,
        "channel": 0,
        "type": "noteOn",
        "noteNumber": 58,
        "velocity": 68
      },
      {
        "deltaTime": 1,
        "running": true,
        "channel": 0,
        "type": "noteOn",
        "noteNumber": 67,
        "velocity": 56
      },
      {
        "deltaTime": 1,
        "channel": 0,
        "type": "noteOn",
        "noteNumber": 48,
        "velocity": 59
      },
      {
        "deltaTime": 3,
        "channel": 0,
        "type": "controller",
        "controllerType": 64,
        "value": 0
      },
      {
        "deltaTime": 0,
        "channel": 0,
        "type": "noteOn",
        "noteNumber": 62,
        "velocity": 61
      },
      {
        "deltaTime": 48,
        "channel": 0,
        "type": "controller",
        "controllerType": 64,
        "value": 85
      },
      {
        "deltaTime": 5,
        "channel": 0,
        "type": "noteOff",
        "noteNumber": 67,
        "velocity": 0,
        "byte9": true
      },
      {
        "deltaTime": 2,
        "running": true,
        "channel": 0,
        "type": "noteOff",
        "noteNumber": 62,
        "velocity": 0,
        "byte9": true
      },
      {
        "deltaTime": 2,
        "channel": 0,
        "type": "noteOff",
        "noteNumber": 48,
        "velocity": 0,
        "byte9": true
      },
      {
        "deltaTime": 0,
        "running": true,
        "channel": 0,
        "type": "noteOn",
        "noteNumber": 36,
        "velocity": 64
      },
      {
        "deltaTime": 6,
        "channel": 0,
        "type": "noteOff",
        "noteNumber": 58,
        "velocity": 0,
        "byte9": true
      },
      {
        "deltaTime": 3,
        "channel": 0,
        "type": "noteOff",
        "noteNumber": 36,
        "velocity": 0,
        "byte9": true
      },
      {
        "deltaTime": 49,
        "channel": 0,
        "type": "noteOn",
        "noteNumber": 55,
        "velocity": 58
      },
      {
        "deltaTime": 2,
        "running": true,
        "channel": 0,
        "type": "noteOn",
        "noteNumber": 58,
        "velocity": 46
      },
      {
        "deltaTime": 0,
        "running": true,
        "channel": 0,
        "type": "noteOn",
        "noteNumber": 65,
        "velocity": 54
      },
      {
        "deltaTime": 0,
        "running": true,
        "channel": 0,
        "type": "noteOn",
        "noteNumber": 62,
        "velocity": 52
      },
      {
        "deltaTime": 58,
        "channel": 0,
        "type": "noteOn",
        "noteNumber": 50,
        "velocity": 105
      },
      {
        "deltaTime": 9,
        "channel": 0,
        "type": "controller",
        "controllerType": 64,
        "value": 0
      },
      {
        "deltaTime": 21,
        "running": true,
        "channel": 0,
        "type": "controller",
        "controllerType": 64,
        "value": 85
      },
      {
        "deltaTime": 17,
        "channel": 0,
        "type": "noteOff",
        "noteNumber": 50,
        "velocity": 0,
        "byte9": true
      },
      {
        "deltaTime": 14,
        "running": true,
        "channel": 0,
        "type": "noteOn",
        "noteNumber": 50,
        "velocity": 75
      },
      {
        "deltaTime": 6,
        "channel": 0,
        "type": "controller",
        "controllerType": 64,
        "value": 0
      },
      {
        "deltaTime": 53,
        "channel": 0,
        "type": "noteOn",
        "noteNumber": 48,
        "velocity": 81
      },
      {
        "deltaTime": 6,
        "channel": 0,
        "type": "noteOff",
        "noteNumber": 55,
        "velocity": 0,
        "byte9": true
      },
      {
        "deltaTime": 4,
        "channel": 0,
        "type": "noteOff",
        "noteNumber": 50,
        "velocity": 0,
        "byte9": true
      },
      {
        "deltaTime": 7,
        "channel": 0,
        "type": "noteOff",
        "noteNumber": 58,
        "velocity": 0,
        "byte9": true
      },
      {
        "deltaTime": 2,
        "running": true,
        "channel": 0,
        "type": "noteOff",
        "noteNumber": 62,
        "velocity": 0,
        "byte9": true
      },
      {
        "deltaTime": 12,
        "running": true,
        "channel": 0,
        "type": "noteOff",
        "noteNumber": 65,
        "velocity": 0,
        "byte9": true
      },
      {
        "deltaTime": 1,
        "channel": 0,
        "type": "controller",
        "controllerType": 64,
        "value": 85
      },
      {
        "deltaTime": 20,
        "running": true,
        "channel": 0,
        "type": "controller",
        "controllerType": 64,
        "value": 0
      },
      {
        "deltaTime": 6,
        "channel": 0,
        "type": "noteOn",
        "noteNumber": 55,
        "velocity": 54
      },
      {
        "deltaTime": 1,
        "channel": 0,
        "type": "noteOn",
        "noteNumber": 50,
        "velocity": 62
      },
      {
        "deltaTime": 2,
        "running": true,
        "channel": 0,
        "type": "noteOff",
        "noteNumber": 48,
        "velocity": 0,
        "byte9": true
      },
      {
        "deltaTime": 0,
        "channel": 0,
        "type": "noteOn",
        "noteNumber": 58,
        "velocity": 53
      },
      {
        "deltaTime": 0,
        "running": true,
        "channel": 0,
        "type": "noteOn",
        "noteNumber": 62,
        "velocity": 51
      },
      {
        "deltaTime": 0,
        "running": true,
        "channel": 0,
        "type": "noteOn",
        "noteNumber": 65,
        "velocity": 38
      },
      {
        "deltaTime": 51,
        "channel": 0,
        "type": "noteOff",
        "noteNumber": 50,
        "velocity": 0,
        "byte9": true
      },
      {
        "deltaTime": 0,
        "channel": 0,
        "type": "noteOff",
        "noteNumber": 62,
        "velocity": 0,
        "byte9": true
      },
      {
        "deltaTime": 0,
        "channel": 0,
        "type": "controller",
        "controllerType": 64,
        "value": 85
      },
      {
        "deltaTime": 2,
        "channel": 0,
        "type": "noteOff",
        "noteNumber": 65,
        "velocity": 0,
        "byte9": true
      },
      {
        "deltaTime": 2,
        "channel": 0,
        "type": "noteOn",
        "noteNumber": 48,
        "velocity": 71
      },
      {
        "deltaTime": 15,
        "channel": 0,
        "type": "noteOff",
        "noteNumber": 58,
        "velocity": 0,
        "byte9": true
      },
      {
        "deltaTime": 3,
        "running": true,
        "channel": 0,
        "type": "noteOff",
        "noteNumber": 55,
        "velocity": 0,
        "byte9": true
      },
      {
        "deltaTime": 38,
        "channel": 0,
        "type": "controller",
        "controllerType": 64,
        "value": 0
      },
      {
        "deltaTime": 1,
        "channel": 0,
        "type": "noteOn",
        "noteNumber": 55,
        "velocity": 51
      },
      {
        "deltaTime": 4,
        "running": true,
        "channel": 0,
        "type": "noteOn",
        "noteNumber": 64,
        "velocity": 38
      },
      {
        "deltaTime": 0,
        "running": true,
        "channel": 0,
        "type": "noteOn",
        "noteNumber": 60,
        "velocity": 33
      },
      {
        "deltaTime": 1,
        "running": true,
        "channel": 0,
        "type": "noteOn",
        "noteNumber": 57,
        "velocity": 56
      },
      {
        "deltaTime": 1,
        "channel": 0,
        "type": "noteOff",
        "noteNumber": 48,
        "velocity": 0,
        "byte9": true
      },
      {
        "deltaTime": 0,
        "running": true,
        "channel": 0,
        "type": "noteOn",
        "noteNumber": 41,
        "velocity": 58
      },
      {
        "deltaTime": 17,
        "channel": 0,
        "type": "noteOff",
        "noteNumber": 55,
        "velocity": 0,
        "byte9": true
      },
      {
        "deltaTime": 4,
        "running": true,
        "channel": 0,
        "type": "noteOff",
        "noteNumber": 57,
        "velocity": 0,
        "byte9": true
      },
      {
        "deltaTime": 2,
        "running": true,
        "channel": 0,
        "type": "noteOff",
        "noteNumber": 60,
        "velocity": 0,
        "byte9": true
      },
      {
        "deltaTime": 3,
        "running": true,
        "channel": 0,
        "type": "noteOff",
        "noteNumber": 64,
        "velocity": 0,
        "byte9": true
      },
      {
        "deltaTime": 4,
        "channel": 0,
        "type": "controller",
        "controllerType": 64,
        "value": 85
      },
      {
        "deltaTime": 26,
        "channel": 0,
        "type": "noteOff",
        "noteNumber": 41,
        "velocity": 0,
        "byte9": true
      },
      {
        "deltaTime": 1,
        "running": true,
        "channel": 0,
        "type": "noteOn",
        "noteNumber": 48,
        "velocity": 63
      },
      {
        "deltaTime": 11,
        "running": true,
        "channel": 0,
        "type": "noteOff",
        "noteNumber": 48,
        "velocity": 0,
        "byte9": true
      },
      {
        "deltaTime": 36,
        "meta": true,
        "type": "text",
        "text": "Side-slip the chord  - up and back"
      },
      {
        "deltaTime": 11,
        "channel": 0,
        "type": "noteOn",
        "noteNumber": 62,
        "velocity": 62
      },
      {
        "deltaTime": 1,
        "running": true,
        "channel": 0,
        "type": "noteOn",
        "noteNumber": 72,
        "velocity": 65
      },
      {
        "deltaTime": 0,
        "channel": 0,
        "type": "noteOn",
        "noteNumber": 57,
        "velocity": 61
      },
      {
        "deltaTime": 1,
        "channel": 0,
        "type": "noteOn",
        "noteNumber": 67,
        "velocity": 68
      },
      {
        "deltaTime": 6,
        "running": true,
        "channel": 0,
        "type": "noteOff",
        "noteNumber": 62,
        "velocity": 0,
        "byte9": true
      },
      {
        "deltaTime": 0,
        "channel": 0,
        "type": "controller",
        "controllerType": 64,
        "value": 0
      },
      {
        "deltaTime": 1,
        "channel": 0,
        "type": "noteOff",
        "noteNumber": 67,
        "velocity": 0,
        "byte9": true
      },
      {
        "deltaTime": 2,
        "running": true,
        "channel": 0,
        "type": "noteOff",
        "noteNumber": 72,
        "velocity": 0,
        "byte9": true
      },
      {
        "deltaTime": 9,
        "channel": 0,
        "type": "noteOff",
        "noteNumber": 57,
        "velocity": 0,
        "byte9": true
      },
      {
        "deltaTime": 42,
        "channel": 0,
        "type": "noteOn",
        "noteNumber": 74,
        "velocity": 68
      },
      {
        "deltaTime": 2,
        "running": true,
        "channel": 0,
        "type": "noteOn",
        "noteNumber": 64,
        "velocity": 48
      },
      {
        "deltaTime": 0,
        "channel": 0,
        "type": "noteOn",
        "noteNumber": 58,
        "velocity": 51
      },
      {
        "deltaTime": 2,
        "channel": 0,
        "type": "noteOn",
        "noteNumber": 68,
        "velocity": 58
      },
      {
        "deltaTime": 22,
        "running": true,
        "channel": 0,
        "type": "noteOff",
        "noteNumber": 74,
        "velocity": 0,
        "byte9": true
      },
      {
        "deltaTime": 7,
        "channel": 0,
        "type": "controller",
        "controllerType": 64,
        "value": 85
      },
      {
        "deltaTime": 3,
        "channel": 0,
        "type": "noteOff",
        "noteNumber": 64,
        "velocity": 0,
        "byte9": true
      },
      {
        "deltaTime": 1,
        "running": true,
        "channel": 0,
        "type": "noteOff",
        "noteNumber": 68,
        "velocity": 0,
        "byte9": true
      },
      {
        "deltaTime": 14,
        "channel": 0,
        "type": "noteOff",
        "noteNumber": 58,
        "velocity": 0,
        "byte9": true
      },
      {
        "deltaTime": 1,
        "channel": 0,
        "type": "controller",
        "controllerType": 64,
        "value": 0
      },
      {
        "deltaTime": 7,
        "channel": 0,
        "type": "noteOn",
        "noteNumber": 62,
        "velocity": 56
      },
      {
        "deltaTime": 1,
        "channel": 0,
        "type": "noteOn",
        "noteNumber": 57,
        "velocity": 52
      },
      {
        "deltaTime": 0,
        "channel": 0,
        "type": "noteOn",
        "noteNumber": 72,
        "velocity": 59
      },
      {
        "deltaTime": 4,
        "running": true,
        "channel": 0,
        "type": "noteOn",
        "noteNumber": 67,
        "velocity": 49
      },
      {
        "deltaTime": 10,
        "channel": 0,
        "type": "controller",
        "controllerType": 64,
        "value": 85
      },
      {
        "deltaTime": 35,
        "channel": 0,
        "type": "noteOff",
        "noteNumber": 57,
        "velocity": 0,
        "byte9": true
      },
      {
        "deltaTime": 12,
        "running": true,
        "channel": 0,
        "type": "noteOn",
        "noteNumber": 57,
        "velocity": 60
      },
      {
        "deltaTime": 4,
        "channel": 0,
        "type": "noteOff",
        "noteNumber": 62,
        "velocity": 0,
        "byte9": true
      },
      {
        "deltaTime": 31,
        "running": true,
        "channel": 0,
        "type": "noteOff",
        "noteNumber": 67,
        "velocity": 0,
        "byte9": true
      },
      {
        "deltaTime": 25,
        "running": true,
        "channel": 0,
        "type": "noteOff",
        "noteNumber": 72,
        "velocity": 0,
        "byte9": true
      },
      {
        "deltaTime": 0,
        "running": true,
        "channel": 0,
        "type": "noteOn",
        "noteNumber": 62,
        "velocity": 50
      },
      {
        "deltaTime": 11,
        "running": true,
        "channel": 0,
        "type": "noteOff",
        "noteNumber": 62,
        "velocity": 0,
        "byte9": true
      },
      {
        "deltaTime": 22,
        "channel": 0,
        "type": "noteOff",
        "noteNumber": 57,
        "velocity": 0,
        "byte9": true
      },
      {
        "deltaTime": 86,
        "running": true,
        "channel": 0,
        "type": "noteOn",
        "noteNumber": 48,
        "velocity": 59
      },
      {
        "deltaTime": 11,
        "channel": 0,
        "type": "controller",
        "controllerType": 64,
        "value": 0
      },
      {
        "deltaTime": 31,
        "running": true,
        "channel": 0,
        "type": "controller",
        "controllerType": 64,
        "value": 85
      },
      {
        "deltaTime": 19,
        "channel": 0,
        "type": "noteOn",
        "noteNumber": 58,
        "velocity": 58
      },
      {
        "deltaTime": 31,
        "running": true,
        "channel": 0,
        "type": "noteOff",
        "noteNumber": 58,
        "velocity": 0,
        "byte9": true
      },
      {
        "deltaTime": 28,
        "running": true,
        "channel": 0,
        "type": "noteOn",
        "noteNumber": 58,
        "velocity": 61
      },
      {
        "deltaTime": 27,
        "running": true,
        "channel": 0,
        "type": "noteOff",
        "noteNumber": 58,
        "velocity": 0,
        "byte9": true
      },
      {
        "deltaTime": 1,
        "channel": 0,
        "type": "noteOff",
        "noteNumber": 48,
        "velocity": 0,
        "byte9": true
      },
      {
        "deltaTime": 30,
        "running": true,
        "channel": 0,
        "type": "noteOn",
        "noteNumber": 48,
        "velocity": 74
      },
      {
        "deltaTime": 22,
        "running": true,
        "channel": 0,
        "type": "noteOff",
        "noteNumber": 48,
        "velocity": 0,
        "byte9": true
      },
      {
        "deltaTime": 41,
        "running": true,
        "channel": 0,
        "type": "noteOn",
        "noteNumber": 48,
        "velocity": 84
      },
      {
        "deltaTime": 8,
        "channel": 0,
        "type": "controller",
        "controllerType": 64,
        "value": 0
      },
      {
        "deltaTime": 29,
        "running": true,
        "channel": 0,
        "type": "controller",
        "controllerType": 64,
        "value": 85
      },
      {
        "deltaTime": 28,
        "channel": 0,
        "type": "noteOn",
        "noteNumber": 58,
        "velocity": 49
      },
      {
        "deltaTime": 43,
        "running": true,
        "channel": 0,
        "type": "noteOff",
        "noteNumber": 58,
        "velocity": 0,
        "byte9": true
      },
      {
        "deltaTime": 2,
        "channel": 0,
        "type": "noteOff",
        "noteNumber": 48,
        "velocity": 0,
        "byte9": true
      },
      {
        "deltaTime": 14,
        "channel": 0,
        "type": "noteOn",
        "noteNumber": 64,
        "velocity": 56
      },
      {
        "deltaTime": 19,
        "running": true,
        "channel": 0,
        "type": "noteOff",
        "noteNumber": 64,
        "velocity": 0,
        "byte9": true
      },
      {
        "deltaTime": 35,
        "running": true,
        "channel": 0,
        "type": "noteOn",
        "noteNumber": 69,
        "velocity": 70
      },
      {
        "deltaTime": 21,
        "running": true,
        "channel": 0,
        "type": "noteOff",
        "noteNumber": 69,
        "velocity": 0,
        "byte9": true
      },
      {
        "deltaTime": 29,
        "meta": true,
        "type": "text",
        "text": "Abrupt unprepared key change - down a minor third to D Major"
      },
      {
        "deltaTime": 9,
        "running": true,
        "channel": 0,
        "type": "noteOn",
        "noteNumber": 66,
        "velocity": 52
      },
      {
        "deltaTime": 2,
        "running": true,
        "channel": 0,
        "type": "noteOn",
        "noteNumber": 57,
        "velocity": 52
      },
      {
        "deltaTime": 0,
        "running": true,
        "channel": 0,
        "type": "noteOn",
        "noteNumber": 61,
        "velocity": 53
      },
      {
        "deltaTime": 2,
        "channel": 0,
        "type": "controller",
        "controllerType": 64,
        "value": 0
      },
      {
        "deltaTime": 0,
        "channel": 0,
        "type": "noteOn",
        "noteNumber": 64,
        "velocity": 52
      },
      {
        "deltaTime": 0,
        "channel": 0,
        "type": "noteOn",
        "noteNumber": 38,
        "velocity": 47
      },
      {
        "deltaTime": 32,
        "channel": 0,
        "type": "controller",
        "controllerType": 64,
        "value": 85
      },
      {
        "deltaTime": 7,
        "channel": 0,
        "type": "noteOff",
        "noteNumber": 57,
        "velocity": 0,
        "byte9": true
      },
      {
        "deltaTime": 7,
        "running": true,
        "channel": 0,
        "type": "noteOff",
        "noteNumber": 61,
        "velocity": 0,
        "byte9": true
      },
      {
        "deltaTime": 2,
        "channel": 0,
        "type": "noteOff",
        "noteNumber": 38,
        "velocity": 0,
        "byte9": true
      },
      {
        "deltaTime": 2,
        "channel": 0,
        "type": "noteOff",
        "noteNumber": 64,
        "velocity": 0,
        "byte9": true
      },
      {
        "deltaTime": 2,
        "running": true,
        "channel": 0,
        "type": "noteOff",
        "noteNumber": 66,
        "velocity": 0,
        "byte9": true
      },
      {
        "deltaTime": 9,
        "channel": 0,
        "type": "noteOn",
        "noteNumber": 45,
        "velocity": 73
      },
      {
        "deltaTime": 54,
        "running": true,
        "channel": 0,
        "type": "noteOn",
        "noteNumber": 54,
        "velocity": 77
      },
      {
        "deltaTime": 1,
        "channel": 0,
        "type": "noteOn",
        "noteNumber": 78,
        "velocity": 96
      },
      {
        "deltaTime": 0,
        "running": true,
        "channel": 0,
        "type": "noteOn",
        "noteNumber": 73,
        "velocity": 88
      },
      {
        "deltaTime": 0,
        "running": true,
        "channel": 0,
        "type": "noteOn",
        "noteNumber": 76,
        "velocity": 88
      },
      {
        "deltaTime": 1,
        "channel": 0,
        "type": "noteOff",
        "noteNumber": 45,
        "velocity": 0,
        "byte9": true
      },
      {
        "deltaTime": 0,
        "channel": 0,
        "type": "noteOn",
        "noteNumber": 69,
        "velocity": 91
      },
      {
        "deltaTime": 13,
        "channel": 0,
        "type": "noteOff",
        "noteNumber": 54,
        "velocity": 0,
        "byte9": true
      },
      {
        "deltaTime": 39,
        "channel": 0,
        "type": "noteOff",
        "noteNumber": 78,
        "velocity": 0,
        "byte9": true
      },
      {
        "deltaTime": 0,
        "running": true,
        "channel": 0,
        "type": "noteOff",
        "noteNumber": 76,
        "velocity": 0,
        "byte9": true
      },
      {
        "deltaTime": 8,
        "running": true,
        "channel": 0,
        "type": "noteOn",
        "noteNumber": 79,
        "velocity": 105
      },
      {
        "deltaTime": 6,
        "running": true,
        "channel": 0,
        "type": "noteOff",
        "noteNumber": 69,
        "velocity": 0,
        "byte9": true
      },
      {
        "deltaTime": 4,
        "running": true,
        "channel": 0,
        "type": "noteOff",
        "noteNumber": 73,
        "velocity": 0,
        "byte9": true
      },
      {
        "deltaTime": 37,
        "running": true,
        "channel": 0,
        "type": "noteOff",
        "noteNumber": 79,
        "velocity": 0,
        "byte9": true
      },
      {
        "deltaTime": 10,
        "running": true,
        "channel": 0,
        "type": "noteOn",
        "noteNumber": 78,
        "velocity": 75
      },
      {
        "deltaTime": 1,
        "channel": 0,
        "type": "noteOn",
        "noteNumber": 59,
        "velocity": 40
      },
      {
        "deltaTime": 0,
        "running": true,
        "channel": 0,
        "type": "noteOn",
        "noteNumber": 61,
        "velocity": 48
      },
      {
        "deltaTime": 2,
        "channel": 0,
        "type": "noteOn",
        "noteNumber": 69,
        "velocity": 53
      },
      {
        "deltaTime": 0,
        "channel": 0,
        "type": "noteOn",
        "noteNumber": 64,
        "velocity": 53
      },
      {
        "deltaTime": 3,
        "channel": 0,
        "type": "noteOn",
        "noteNumber": 73,
        "velocity": 58
      },
      {
        "deltaTime": 3,
        "channel": 0,
        "type": "controller",
        "controllerType": 64,
        "value": 0
      },
      {
        "deltaTime": 28,
        "running": true,
        "channel": 0,
        "type": "controller",
        "controllerType": 64,
        "value": 85
      },
      {
        "deltaTime": 26,
        "channel": 0,
        "type": "noteOn",
        "noteNumber": 54,
        "velocity": 68
      },
      {
        "deltaTime": 3,
        "channel": 0,
        "type": "noteOff",
        "noteNumber": 73,
        "velocity": 0,
        "byte9": true
      },
      {
        "deltaTime": 24,
        "running": true,
        "channel": 0,
        "type": "noteOff",
        "noteNumber": 69,
        "velocity": 0,
        "byte9": true
      },
      {
        "deltaTime": 28,
        "channel": 0,
        "type": "controller",
        "controllerType": 85,
        "value": 16
      },
      {
        "deltaTime": 10,
        "channel": 0,
        "type": "noteOff",
        "noteNumber": 59,
        "velocity": 0,
        "byte9": true
      },
      {
        "deltaTime": 7,
        "channel": 0,
        "type": "noteOff",
        "noteNumber": 78,
        "velocity": 0,
        "byte9": true
      },
      {
        "deltaTime": 3,
        "channel": 0,
        "type": "noteOff",
        "noteNumber": 54,
        "velocity": 0,
        "byte9": true
      },
      {
        "deltaTime": 2,
        "running": true,
        "channel": 0,
        "type": "noteOff",
        "noteNumber": 64,
        "velocity": 0,
        "byte9": true
      },
      {
        "deltaTime": 1,
        "running": true,
        "channel": 0,
        "type": "noteOff",
        "noteNumber": 61,
        "velocity": 0,
        "byte9": true
      },
      {
        "deltaTime": 45,
        "running": true,
        "channel": 0,
        "type": "noteOn",
        "noteNumber": 62,
        "velocity": 35
      },
      {
        "deltaTime": 13,
        "running": true,
        "channel": 0,
        "type": "noteOff",
        "noteNumber": 62,
        "velocity": 0,
        "byte9": true
      },
      {
        "deltaTime": 24,
        "running": true,
        "channel": 0,
        "type": "noteOn",
        "noteNumber": 55,
        "velocity": 43
      },
      {
        "deltaTime": 7,
        "running": true,
        "channel": 0,
        "type": "noteOn",
        "noteNumber": 56,
        "velocity": 64
      },
      {
        "deltaTime": 5,
        "running": true,
        "channel": 0,
        "type": "noteOff",
        "noteNumber": 55,
        "velocity": 0,
        "byte9": true
      },
      {
        "deltaTime": 3,
        "channel": 0,
        "type": "controller",
        "controllerType": 85,
        "value": 4
      },
      {
        "deltaTime": 0,
        "channel": 0,
        "type": "noteOn",
        "noteNumber": 57,
        "velocity": 66
      },
      {
        "deltaTime": 7,
        "channel": 0,
        "type": "noteOn",
        "noteNumber": 69,
        "velocity": 76
      },
      {
        "deltaTime": 0,
        "running": true,
        "channel": 0,
        "type": "noteOn",
        "noteNumber": 59,
        "velocity": 74
      },
      {
        "deltaTime": 1,
        "running": true,
        "channel": 0,
        "type": "noteOn",
        "noteNumber": 62,
        "velocity": 68
      },
      {
        "deltaTime": 5,
        "channel": 0,
        "type": "noteOff",
        "noteNumber": 57,
        "velocity": 0,
        "byte9": true
      },
      {
        "deltaTime": 0,
        "channel": 0,
        "type": "noteOn",
        "noteNumber": 66,
        "velocity": 43
      },
      {
        "deltaTime": 6,
        "running": true,
        "channel": 0,
        "type": "noteOff",
        "noteNumber": 66,
        "velocity": 0,
        "byte9": true
      },
      {
        "deltaTime": 0,
        "channel": 0,
        "type": "controller",
        "controllerType": 64,
        "value": 0
      },
      {
        "deltaTime": 2,
        "channel": 0,
        "type": "noteOff",
        "noteNumber": 69,
        "velocity": 0,
        "byte9": true
      },
      {
        "deltaTime": 0,
        "running": true,
        "channel": 0,
        "type": "noteOff",
        "noteNumber": 59,
        "velocity": 0,
        "byte9": true
      },
      {
        "deltaTime": 1,
        "running": true,
        "channel": 0,
        "type": "noteOff",
        "noteNumber": 62,
        "velocity": 0,
        "byte9": true
      },
      {
        "deltaTime": 2,
        "channel": 0,
        "type": "noteOff",
        "noteNumber": 56,
        "velocity": 0,
        "byte9": true
      },
      {
        "deltaTime": 16,
        "running": true,
        "channel": 0,
        "type": "noteOn",
        "noteNumber": 56,
        "velocity": 56
      },
      {
        "deltaTime": 20,
        "running": true,
        "channel": 0,
        "type": "noteOff",
        "noteNumber": 56,
        "velocity": 0,
        "byte9": true
      },
      {
        "deltaTime": 4,
        "channel": 0,
        "type": "noteOn",
        "noteNumber": 59,
        "velocity": 62
      },
      {
        "deltaTime": 1,
        "running": true,
        "channel": 0,
        "type": "noteOn",
        "noteNumber": 67,
        "velocity": 64
      },
      {
        "deltaTime": 2,
        "channel": 0,
        "type": "noteOn",
        "noteNumber": 55,
        "velocity": 57
      },
      {
        "deltaTime": 1,
        "channel": 0,
        "type": "noteOn",
        "noteNumber": 62,
        "velocity": 57
      },
      {
        "deltaTime": 19,
        "channel": 0,
        "type": "controller",
        "controllerType": 64,
        "value": 85
      },
      {
        "deltaTime": 19,
        "channel": 0,
        "type": "noteOff",
        "noteNumber": 62,
        "velocity": 0,
        "byte9": true
      },
      {
        "deltaTime": 5,
        "running": true,
        "channel": 0,
        "type": "noteOff",
        "noteNumber": 59,
        "velocity": 0,
        "byte9": true
      },
      {
        "deltaTime": 16,
        "running": true,
        "channel": 0,
        "type": "noteOn",
        "noteNumber": 59,
        "velocity": 66
      },
      {
        "deltaTime": 0,
        "channel": 0,
        "type": "noteOn",
        "noteNumber": 52,
        "velocity": 57
      },
      {
        "deltaTime": 1,
        "channel": 0,
        "type": "noteOn",
        "noteNumber": 62,
        "velocity": 52
      },
      {
        "deltaTime": 43,
        "running": true,
        "channel": 0,
        "type": "noteOff",
        "noteNumber": 59,
        "velocity": 0,
        "byte9": true
      },
      {
        "deltaTime": 2,
        "channel": 0,
        "type": "noteOff",
        "noteNumber": 55,
        "velocity": 0,
        "byte9": true
      },
      {
        "deltaTime": 15,
        "channel": 0,
        "type": "noteOn",
        "noteNumber": 59,
        "velocity": 54
      },
      {
        "deltaTime": 3,
        "running": true,
        "channel": 0,
        "type": "noteOff",
        "noteNumber": 62,
        "velocity": 0,
        "byte9": true
      },
      {
        "deltaTime": 4,
        "running": true,
        "channel": 0,
        "type": "noteOff",
        "noteNumber": 67,
        "velocity": 0,
        "byte9": true
      },
      {
        "deltaTime": 9,
        "running": true,
        "channel": 0,
        "type": "noteOff",
        "noteNumber": 59,
        "velocity": 0,
        "byte9": true
      },
      {
        "deltaTime": 36,
        "channel": 0,
        "type": "controller",
        "controllerType": 85,
        "value": 3
      },
      {
        "deltaTime": 0,
        "running": true,
        "channel": 0,
        "type": "controller",
        "controllerType": 86,
        "value": 3
      },
      {
        "deltaTime": 1,
        "channel": 0,
        "type": "noteOff",
        "noteNumber": 52,
        "velocity": 0,
        "byte9": true
      },
      {
        "deltaTime": 12,
        "running": true,
        "channel": 0,
        "type": "noteOn",
        "noteNumber": 45,
        "velocity": 71
      },
      {
        "deltaTime": 8,
        "channel": 0,
        "type": "controller",
        "controllerType": 64,
        "value": 0
      },
      {
        "deltaTime": 25,
        "channel": 0,
        "type": "noteOff",
        "noteNumber": 45,
        "velocity": 0,
        "byte9": true
      },
      {
        "deltaTime": 6,
        "channel": 0,
        "type": "noteOn",
        "noteNumber": 66,
        "velocity": 80
      },
      {
        "deltaTime": 0,
        "running": true,
        "channel": 0,
        "type": "noteOn",
        "noteNumber": 55,
        "velocity": 73
      },
      {
        "deltaTime": 2,
        "channel": 0,
        "type": "noteOn",
        "noteNumber": 54,
        "velocity": 71
      },
      {
        "deltaTime": 1,
        "channel": 0,
        "type": "noteOn",
        "noteNumber": 59,
        "velocity": 72
      },
      {
        "deltaTime": 0,
        "running": true,
        "channel": 0,
        "type": "noteOn",
        "noteNumber": 61,
        "velocity": 56
      },
      {
        "deltaTime": 8,
        "channel": 0,
        "type": "noteOff",
        "noteNumber": 54,
        "velocity": 0,
        "byte9": true
      },
      {
        "deltaTime": 0,
        "channel": 0,
        "type": "noteOff",
        "noteNumber": 61,
        "velocity": 0,
        "byte9": true
      },
      {
        "deltaTime": 3,
        "running": true,
        "channel": 0,
        "type": "noteOff",
        "noteNumber": 55,
        "velocity": 0,
        "byte9": true
      },
      {
        "deltaTime": 0,
        "running": true,
        "channel": 0,
        "type": "noteOff",
        "noteNumber": 59,
        "velocity": 0,
        "byte9": true
      },
      {
        "deltaTime": 1,
        "running": true,
        "channel": 0,
        "type": "noteOff",
        "noteNumber": 66,
        "velocity": 0,
        "byte9": true
      },
      {
        "deltaTime": 28,
        "channel": 0,
        "type": "noteOn",
        "noteNumber": 53,
        "velocity": 74
      },
      {
        "deltaTime": 0,
        "channel": 0,
        "type": "noteOn",
        "noteNumber": 65,
        "velocity": 75
      },
      {
        "deltaTime": 0,
        "running": true,
        "channel": 0,
        "type": "noteOn",
        "noteNumber": 55,
        "velocity": 64
      },
      {
        "deltaTime": 0,
        "running": true,
        "channel": 0,
        "type": "noteOn",
        "noteNumber": 59,
        "velocity": 66
      },
      {
        "deltaTime": 3,
        "running": true,
        "channel": 0,
        "type": "noteOn",
        "noteNumber": 61,
        "velocity": 47
      },
      {
        "deltaTime": 9,
        "running": true,
        "channel": 0,
        "type": "noteOff",
        "noteNumber": 65,
        "velocity": 0,
        "byte9": true
      },
      {
        "deltaTime": 0,
        "running": true,
        "channel": 0,
        "type": "noteOff",
        "noteNumber": 61,
        "velocity": 0,
        "byte9": true
      },
      {
        "deltaTime": 0,
        "channel": 0,
        "type": "controller",
        "controllerType": 64,
        "value": 85
      },
      {
        "deltaTime": 2,
        "channel": 0,
        "type": "noteOff",
        "noteNumber": 55,
        "velocity": 0,
        "byte9": true
      },
      {
        "deltaTime": 1,
        "running": true,
        "channel": 0,
        "type": "noteOff",
        "noteNumber": 59,
        "velocity": 0,
        "byte9": true
      },
      {
        "deltaTime": 1,
        "channel": 0,
        "type": "noteOff",
        "noteNumber": 53,
        "velocity": 0,
        "byte9": true
      },
      {
        "deltaTime": 14,
        "channel": 0,
        "type": "controller",
        "controllerType": 64,
        "value": 0
      },
      {
        "deltaTime": 8,
        "channel": 0,
        "type": "noteOn",
        "noteNumber": 55,
        "velocity": 58
      },
      {
        "deltaTime": 2,
        "running": true,
        "channel": 0,
        "type": "noteOn",
        "noteNumber": 59,
        "velocity": 64
      },
      {
        "deltaTime": 0,
        "running": true,
        "channel": 0,
        "type": "noteOn",
        "noteNumber": 64,
        "velocity": 56
      },
      {
        "deltaTime": 3,
        "running": true,
        "channel": 0,
        "type": "noteOn",
        "noteNumber": 61,
        "velocity": 55
      },
      {
        "deltaTime": 2,
        "channel": 0,
        "type": "noteOn",
        "noteNumber": 52,
        "velocity": 58
      },
      {
        "deltaTime": 24,
        "channel": 0,
        "type": "controller",
        "controllerType": 64,
        "value": 85
      },
      {
        "deltaTime": 26,
        "channel": 0,
        "type": "noteOn",
        "noteNumber": 45,
        "velocity": 53
      },
      {
        "deltaTime": 15,
        "channel": 0,
        "type": "noteOff",
        "noteNumber": 55,
        "velocity": 0,
        "byte9": true
      },
      {
        "deltaTime": 0,
        "running": true,
        "channel": 0,
        "type": "noteOff",
        "noteNumber": 59,
        "velocity": 0,
        "byte9": true
      },
      {
        "deltaTime": 1,
        "channel": 0,
        "type": "noteOff",
        "noteNumber": 52,
        "velocity": 0,
        "byte9": true
      },
      {
        "deltaTime": 1,
        "channel": 0,
        "type": "noteOff",
        "noteNumber": 61,
        "velocity": 0,
        "byte9": true
      },
      {
        "deltaTime": 1,
        "channel": 0,
        "type": "noteOff",
        "noteNumber": 45,
        "velocity": 0,
        "byte9": true
      },
      {
        "deltaTime": 16,
        "channel": 0,
        "type": "noteOff",
        "noteNumber": 64,
        "velocity": 0,
        "byte9": true
      },
      {
        "deltaTime": 28,
        "channel": 0,
        "type": "noteOn",
        "noteNumber": 38,
        "velocity": 76
      },
      {
        "deltaTime": 1,
        "channel": 0,
        "type": "noteOn",
        "noteNumber": 54,
        "velocity": 38
      },
      {
        "deltaTime": 4,
        "channel": 0,
        "type": "controller",
        "controllerType": 64,
        "value": 0
      },
      {
        "deltaTime": 1,
        "channel": 0,
        "type": "noteOff",
        "noteNumber": 54,
        "velocity": 0,
        "byte9": true
      },
      {
        "deltaTime": 30,
        "channel": 0,
        "type": "controller",
        "controllerType": 64,
        "value": 85
      },
      {
        "deltaTime": 18,
        "channel": 0,
        "type": "noteOff",
        "noteNumber": 38,
        "velocity": 0,
        "byte9": true
      },
      {
        "deltaTime": 6,
        "running": true,
        "channel": 0,
        "type": "noteOn",
        "noteNumber": 45,
        "velocity": 84
      },
      {
        "deltaTime": 61,
        "running": true,
        "channel": 0,
        "type": "noteOn",
        "noteNumber": 54,
        "velocity": 70
      },
      {
        "deltaTime": 0,
        "channel": 0,
        "type": "noteOn",
        "noteNumber": 64,
        "velocity": 79
      },
      {
        "deltaTime": 2,
        "running": true,
        "channel": 0,
        "type": "noteOn",
        "noteNumber": 61,
        "velocity": 74
      },
      {
        "deltaTime": 3,
        "channel": 0,
        "type": "controller",
        "controllerType": 64,
        "value": 0
      },
      {
        "deltaTime": 18,
        "running": true,
        "channel": 0,
        "type": "controller",
        "controllerType": 64,
        "value": 85
      },
      {
        "deltaTime": 33,
        "channel": 0,
        "type": "noteOn",
        "noteNumber": 66,
        "velocity": 93
      },
      {
        "deltaTime": 35,
        "running": true,
        "channel": 0,
        "type": "noteOff",
        "noteNumber": 66,
        "velocity": 0,
        "byte9": true
      },
      {
        "deltaTime": 6,
        "channel": 0,
        "type": "noteOff",
        "noteNumber": 54,
        "velocity": 0,
        "byte9": true
      },
      {
        "deltaTime": 0,
        "channel": 0,
        "type": "noteOff",
        "noteNumber": 61,
        "velocity": 0,
        "byte9": true
      },
      {
        "deltaTime": 5,
        "running": true,
        "channel": 0,
        "type": "noteOff",
        "noteNumber": 64,
        "velocity": 0,
        "byte9": true
      },
      {
        "deltaTime": 13,
        "channel": 0,
        "type": "noteOn",
        "noteNumber": 54,
        "velocity": 76
      },
      {
        "deltaTime": 0,
        "channel": 0,
        "type": "noteOn",
        "noteNumber": 61,
        "velocity": 85
      },
      {
        "deltaTime": 2,
        "running": true,
        "channel": 0,
        "type": "noteOn",
        "noteNumber": 66,
        "velocity": 86
      },
      {
        "deltaTime": 0,
        "running": true,
        "channel": 0,
        "type": "noteOn",
        "noteNumber": 64,
        "velocity": 72
      },
      {
        "deltaTime": 5,
        "channel": 0,
        "type": "controller",
        "controllerType": 64,
        "value": 0
      },
      {
        "deltaTime": 12,
        "running": true,
        "channel": 0,
        "type": "controller",
        "controllerType": 64,
        "value": 85
      },
      {
        "deltaTime": 38,
        "channel": 0,
        "type": "noteOff",
        "noteNumber": 66,
        "velocity": 0,
        "byte9": true
      },
      {
        "deltaTime": 12,
        "running": true,
        "channel": 0,
        "type": "noteOn",
        "noteNumber": 69,
        "velocity": 99
      },
      {
        "deltaTime": 0,
        "running": true,
        "channel": 0,
        "type": "noteOn",
        "noteNumber": 66,
        "velocity": 50
      },
      {
        "deltaTime": 2,
        "channel": 0,
        "type": "noteOff",
        "noteNumber": 54,
        "velocity": 0,
        "byte9": true
      },
      {
        "deltaTime": 36,
        "channel": 0,
        "type": "noteOff",
        "noteNumber": 69,
        "velocity": 0,
        "byte9": true
      },
      {
        "deltaTime": 5,
        "channel": 0,
        "type": "controller",
        "controllerType": 86,
        "value": 8
      },
      {
        "deltaTime": 1,
        "channel": 0,
        "type": "noteOn",
        "noteNumber": 61,
        "velocity": 38
      },
      {
        "deltaTime": 0,
        "running": true,
        "channel": 0,
        "type": "noteOn",
        "noteNumber": 69,
        "velocity": 95
      },
      {
        "deltaTime": 1,
        "channel": 0,
        "type": "noteOff",
        "noteNumber": 66,
        "velocity": 0,
        "byte9": true
      },
      {
        "deltaTime": 4,
        "running": true,
        "channel": 0,
        "type": "noteOff",
        "noteNumber": 61,
        "velocity": 0,
        "byte9": true
      },
      {
        "deltaTime": 2,
        "running": true,
        "channel": 0,
        "type": "noteOff",
        "noteNumber": 64,
        "velocity": 0,
        "byte9": true
      },
      {
        "deltaTime": 3,
        "channel": 0,
        "type": "noteOn",
        "noteNumber": 54,
        "velocity": 69
      },
      {
        "deltaTime": 3,
        "running": true,
        "channel": 0,
        "type": "noteOff",
        "noteNumber": 45,
        "velocity": 0,
        "byte9": true
      },
      {
        "deltaTime": 0,
        "channel": 0,
        "type": "noteOff",
        "noteNumber": 61,
        "velocity": 0,
        "byte9": true
      },
      {
        "deltaTime": 1,
        "running": true,
        "channel": 0,
        "type": "noteOff",
        "noteNumber": 69,
        "velocity": 0,
        "byte9": true
      },
      {
        "deltaTime": 27,
        "channel": 0,
        "type": "noteOff",
        "noteNumber": 54,
        "velocity": 0,
        "byte9": true
      },
      {
        "deltaTime": 19,
        "channel": 0,
        "type": "noteOn",
        "noteNumber": 62,
        "velocity": 87
      },
      {
        "deltaTime": 21,
        "channel": 0,
        "type": "noteOn",
        "noteNumber": 61,
        "velocity": 65
      },
      {
        "deltaTime": 11,
        "channel": 0,
        "type": "noteOn",
        "noteNumber": 60,
        "velocity": 58
      },
      {
        "deltaTime": 2,
        "channel": 0,
        "type": "noteOff",
        "noteNumber": 61,
        "velocity": 0,
        "byte9": true
      },
      {
        "deltaTime": 1,
        "channel": 0,
        "type": "noteOff",
        "noteNumber": 62,
        "velocity": 0,
        "byte9": true
      },
      {
        "deltaTime": 11,
        "running": true,
        "channel": 0,
        "type": "noteOff",
        "noteNumber": 60,
        "velocity": 0,
        "byte9": true
      },
      {
        "deltaTime": 2,
        "running": true,
        "channel": 0,
        "type": "noteOn",
        "noteNumber": 59,
        "velocity": 72
      },
      {
        "deltaTime": 14,
        "running": true,
        "channel": 0,
        "type": "noteOff",
        "noteNumber": 59,
        "velocity": 0,
        "byte9": true
      },
      {
        "deltaTime": 8,
        "channel": 0,
        "type": "noteOn",
        "noteNumber": 43,
        "velocity": 56
      },
      {
        "deltaTime": 0,
        "channel": 0,
        "type": "noteOn",
        "noteNumber": 58,
        "velocity": 100
      },
      {
        "deltaTime": 1,
        "channel": 0,
        "type": "noteOn",
        "noteNumber": 53,
        "velocity": 59
      },
      {
        "deltaTime": 16,
        "channel": 0,
        "type": "controller",
        "controllerType": 64,
        "value": 0
      },
      {
        "deltaTime": 31,
        "meta": true,
        "type": "text",
        "text": "Modulating back to F Major"
      },
      {
        "deltaTime": 18,
        "channel": 0,
        "type": "noteOff",
        "noteNumber": 53,
        "velocity": 0,
        "byte9": true
      },
      {
        "deltaTime": 2,
        "channel": 0,
        "type": "controller",
        "controllerType": 64,
        "value": 85
      },
      {
        "deltaTime": 8,
        "channel": 0,
        "type": "noteOn",
        "noteNumber": 50,
        "velocity": 60
      },
      {
        "deltaTime": 33,
        "channel": 0,
        "type": "controller",
        "controllerType": 85,
        "value": 4
      },
      {
        "deltaTime": 0,
        "running": true,
        "channel": 0,
        "type": "controller",
        "controllerType": 86,
        "value": 4
      },
      {
        "deltaTime": 4,
        "channel": 0,
        "type": "noteOff",
        "noteNumber": 58,
        "velocity": 0,
        "byte9": true
      },
      {
        "deltaTime": 1,
        "channel": 0,
        "type": "noteOn",
        "noteNumber": 55,
        "velocity": 68
      },
      {
        "deltaTime": 17,
        "running": true,
        "channel": 0,
        "type": "noteOff",
        "noteNumber": 55,
        "velocity": 0,
        "byte9": true
      },
      {
        "deltaTime": 18,
        "running": true,
        "channel": 0,
        "type": "noteOn",
        "noteNumber": 58,
        "velocity": 84
      },
      {
        "deltaTime": 7,
        "running": true,
        "channel": 0,
        "type": "noteOff",
        "noteNumber": 43,
        "velocity": 0,
        "byte9": true
      },
      {
        "deltaTime": 0,
        "running": true,
        "channel": 0,
        "type": "noteOff",
        "noteNumber": 58,
        "velocity": 0,
        "byte9": true
      },
      {
        "deltaTime": 11,
        "running": true,
        "channel": 0,
        "type": "noteOff",
        "noteNumber": 50,
        "velocity": 0,
        "byte9": true
      },
      {
        "deltaTime": 8,
        "channel": 0,
        "type": "noteOn",
        "noteNumber": 62,
        "velocity": 66
      },
      {
        "deltaTime": 13,
        "running": true,
        "channel": 0,
        "type": "noteOff",
        "noteNumber": 62,
        "velocity": 0,
        "byte9": true
      },
      {
        "deltaTime": 22,
        "running": true,
        "channel": 0,
        "type": "noteOn",
        "noteNumber": 65,
        "velocity": 76
      },
      {
        "deltaTime": 13,
        "running": true,
        "channel": 0,
        "type": "noteOff",
        "noteNumber": 65,
        "velocity": 0,
        "byte9": true
      },
      {
        "deltaTime": 14,
        "running": true,
        "channel": 0,
        "type": "noteOn",
        "noteNumber": 72,
        "velocity": 73
      },
      {
        "deltaTime": 3,
        "channel": 0,
        "type": "controller",
        "controllerType": 64,
        "value": 0
      },
      {
        "deltaTime": 2,
        "channel": 0,
        "type": "noteOn",
        "noteNumber": 58,
        "velocity": 68
      },
      {
        "deltaTime": 0,
        "channel": 0,
        "type": "noteOn",
        "noteNumber": 65,
        "velocity": 63
      },
      {
        "deltaTime": 1,
        "running": true,
        "channel": 0,
        "type": "noteOn",
        "noteNumber": 62,
        "velocity": 66
      },
      {
        "deltaTime": 1,
        "channel": 0,
        "type": "noteOn",
        "noteNumber": 48,
        "velocity": 49
      },
      {
        "deltaTime": 5,
        "channel": 0,
        "type": "noteOff",
        "noteNumber": 72,
        "velocity": 0,
        "byte9": true
      },
      {
        "deltaTime": 1,
        "running": true,
        "channel": 0,
        "type": "noteOff",
        "noteNumber": 65,
        "velocity": 0,
        "byte9": true
      },
      {
        "deltaTime": 1,
        "running": true,
        "channel": 0,
        "type": "noteOff",
        "noteNumber": 62,
        "velocity": 0,
        "byte9": true
      },
      {
        "deltaTime": 2,
        "channel": 0,
        "type": "noteOff",
        "noteNumber": 58,
        "velocity": 0,
        "byte9": true
      },
      {
        "deltaTime": 3,
        "running": true,
        "channel": 0,
        "type": "noteOff",
        "noteNumber": 48,
        "velocity": 0,
        "byte9": true
      },
      {
        "deltaTime": 39,
        "channel": 0,
        "type": "noteOn",
        "noteNumber": 72,
        "velocity": 72
      },
      {
        "deltaTime": 2,
        "running": true,
        "channel": 0,
        "type": "noteOn",
        "noteNumber": 62,
        "velocity": 49
      },
      {
        "deltaTime": 0,
        "channel": 0,
        "type": "noteOn",
        "noteNumber": 58,
        "velocity": 54
      },
      {
        "deltaTime": 1,
        "channel": 0,
        "type": "noteOn",
        "noteNumber": 65,
        "velocity": 58
      },
      {
        "deltaTime": 0,
        "channel": 0,
        "type": "noteOn",
        "noteNumber": 48,
        "velocity": 53
      },
      {
        "deltaTime": 13,
        "channel": 0,
        "type": "controller",
        "controllerType": 64,
        "value": 85
      },
      {
        "deltaTime": 10,
        "channel": 0,
        "type": "noteOff",
        "noteNumber": 58,
        "velocity": 0,
        "byte9": true
      },
      {
        "deltaTime": 5,
        "channel": 0,
        "type": "noteOff",
        "noteNumber": 62,
        "velocity": 0,
        "byte9": true
      },
      {
        "deltaTime": 1,
        "running": true,
        "channel": 0,
        "type": "noteOff",
        "noteNumber": 65,
        "velocity": 0,
        "byte9": true
      },
      {
        "deltaTime": 18,
        "channel": 0,
        "type": "controller",
        "controllerType": 64,
        "value": 0
      },
      {
        "deltaTime": 1,
        "channel": 0,
        "type": "noteOff",
        "noteNumber": 72,
        "velocity": 0,
        "byte9": true
      },
      {
        "deltaTime": 5,
        "running": true,
        "channel": 0,
        "type": "noteOn",
        "noteNumber": 62,
        "velocity": 55
      },
      {
        "deltaTime": 2,
        "running": true,
        "channel": 0,
        "type": "noteOn",
        "noteNumber": 68,
        "velocity": 57
      },
      {
        "deltaTime": 0,
        "channel": 0,
        "type": "noteOn",
        "noteNumber": 58,
        "velocity": 59
      },
      {
        "deltaTime": 13,
        "channel": 0,
        "type": "controller",
        "controllerType": 64,
        "value": 85
      },
      {
        "deltaTime": 8,
        "channel": 0,
        "type": "noteOff",
        "noteNumber": 62,
        "velocity": 0,
        "byte9": true
      },
      {
        "deltaTime": 0,
        "channel": 0,
        "type": "noteOff",
        "noteNumber": 58,
        "velocity": 0,
        "byte9": true
      },
      {
        "deltaTime": 2,
        "channel": 0,
        "type": "noteOff",
        "noteNumber": 68,
        "velocity": 0,
        "byte9": true
      },
      {
        "deltaTime": 36,
        "running": true,
        "channel": 0,
        "type": "noteOn",
        "noteNumber": 63,
        "velocity": 65
      },
      {
        "deltaTime": 2,
        "running": true,
        "channel": 0,
        "type": "noteOn",
        "noteNumber": 68,
        "velocity": 59
      },
      {
        "deltaTime": 0,
        "channel": 0,
        "type": "noteOn",
        "noteNumber": 58,
        "velocity": 63
      },
      {
        "deltaTime": 1,
        "channel": 0,
        "type": "noteOn",
        "noteNumber": 70,
        "velocity": 37
      },
      {
        "deltaTime": 0,
        "running": true,
        "channel": 0,
        "type": "noteOn",
        "noteNumber": 73,
        "velocity": 45
      },
      {
        "deltaTime": 1,
        "channel": 0,
        "type": "controller",
        "controllerType": 64,
        "value": 0
      },
      {
        "deltaTime": 9,
        "running": true,
        "channel": 0,
        "type": "controller",
        "controllerType": 64,
        "value": 85
      },
      {
        "deltaTime": 2,
        "running": true,
        "channel": 0,
        "type": "controller",
        "controllerType": 64,
        "value": 0
      },
      {
        "deltaTime": 8,
        "running": true,
        "channel": 0,
        "type": "controller",
        "controllerType": 64,
        "value": 85
      },
      {
        "deltaTime": 8,
        "channel": 0,
        "type": "noteOff",
        "noteNumber": 70,
        "velocity": 0,
        "byte9": true
      },
      {
        "deltaTime": 6,
        "running": true,
        "channel": 0,
        "type": "noteOff",
        "noteNumber": 73,
        "velocity": 0,
        "byte9": true
      },
      {
        "deltaTime": 2,
        "channel": 0,
        "type": "noteOff",
        "noteNumber": 58,
        "velocity": 0,
        "byte9": true
      },
      {
        "deltaTime": 2,
        "channel": 0,
        "type": "noteOff",
        "noteNumber": 68,
        "velocity": 0,
        "byte9": true
      },
      {
        "deltaTime": 2,
        "channel": 0,
        "type": "noteOff",
        "noteNumber": 48,
        "velocity": 0,
        "byte9": true
      },
      {
        "deltaTime": 2,
        "channel": 0,
        "type": "noteOff",
        "noteNumber": 63,
        "velocity": 0,
        "byte9": true
      },
      {
        "deltaTime": 11,
        "channel": 0,
        "type": "controller",
        "controllerType": 64,
        "value": 0
      },
      {
        "deltaTime": 6,
        "channel": 0,
        "type": "noteOn",
        "noteNumber": 57,
        "velocity": 59
      },
      {
        "deltaTime": 0,
        "channel": 0,
        "type": "noteOn",
        "noteNumber": 62,
        "velocity": 55
      },
      {
        "deltaTime": 1,
        "running": true,
        "channel": 0,
        "type": "noteOn",
        "noteNumber": 67,
        "velocity": 61
      },
      {
        "deltaTime": 0,
        "running": true,
        "channel": 0,
        "type": "noteOn",
        "noteNumber": 72,
        "velocity": 55
      },
      {
        "deltaTime": 17,
        "channel": 0,
        "type": "controller",
        "controllerType": 64,
        "value": 85
      },
      {
        "deltaTime": 22,
        "channel": 0,
        "type": "noteOff",
        "noteNumber": 57,
        "velocity": 0,
        "byte9": true
      },
      {
        "deltaTime": 14,
        "channel": 0,
        "type": "noteOff",
        "noteNumber": 67,
        "velocity": 0,
        "byte9": true
      },
      {
        "deltaTime": 0,
        "running": true,
        "channel": 0,
        "type": "noteOff",
        "noteNumber": 72,
        "velocity": 0,
        "byte9": true
      },
      {
        "deltaTime": 9,
        "running": true,
        "channel": 0,
        "type": "noteOff",
        "noteNumber": 62,
        "velocity": 0,
        "byte9": true
      },
      {
        "deltaTime": 2,
        "channel": 0,
        "type": "noteOn",
        "noteNumber": 41,
        "velocity": 57
      },
      {
        "deltaTime": 57,
        "channel": 0,
        "type": "noteOn",
        "noteNumber": 53,
        "velocity": 67
      },
      {
        "deltaTime": 1,
        "running": true,
        "channel": 0,
        "type": "noteOn",
        "noteNumber": 62,
        "velocity": 46
      },
      {
        "deltaTime": 1,
        "running": true,
        "channel": 0,
        "type": "noteOn",
        "noteNumber": 57,
        "velocity": 57
      },
      {
        "deltaTime": 1,
        "channel": 0,
        "type": "noteOn",
        "noteNumber": 50,
        "velocity": 56
      },
      {
        "deltaTime": 1,
        "channel": 0,
        "type": "controller",
        "controllerType": 64,
        "value": 0
      },
      {
        "deltaTime": 2,
        "channel": 0,
        "type": "noteOn",
        "noteNumber": 60,
        "velocity": 44
      },
      {
        "deltaTime": 13,
        "running": true,
        "channel": 0,
        "type": "noteOff",
        "noteNumber": 62,
        "velocity": 0,
        "byte9": true
      },
      {
        "deltaTime": 0,
        "running": true,
        "channel": 0,
        "type": "noteOff",
        "noteNumber": 57,
        "velocity": 0,
        "byte9": true
      },
      {
        "deltaTime": 0,
        "running": true,
        "channel": 0,
        "type": "noteOff",
        "noteNumber": 60,
        "velocity": 0,
        "byte9": true
      },
      {
        "deltaTime": 1,
        "running": true,
        "channel": 0,
        "type": "noteOff",
        "noteNumber": 53,
        "velocity": 0,
        "byte9": true
      },
      {
        "deltaTime": 13,
        "channel": 0,
        "type": "noteOff",
        "noteNumber": 50,
        "velocity": 0,
        "byte9": true
      },
      {
        "deltaTime": 3,
        "running": true,
        "channel": 0,
        "type": "noteOn",
        "noteNumber": 48,
        "velocity": 62
      },
      {
        "deltaTime": 21,
        "running": true,
        "channel": 0,
        "type": "noteOff",
        "noteNumber": 48,
        "velocity": 0,
        "byte9": true
      },
      {
        "deltaTime": 2,
        "channel": 0,
        "type": "noteOn",
        "noteNumber": 53,
        "velocity": 59
      },
      {
        "deltaTime": 2,
        "running": true,
        "channel": 0,
        "type": "noteOn",
        "noteNumber": 57,
        "velocity": 55
      },
      {
        "deltaTime": 1,
        "running": true,
        "channel": 0,
        "type": "noteOn",
        "noteNumber": 60,
        "velocity": 49
      },
      {
        "deltaTime": 0,
        "running": true,
        "channel": 0,
        "type": "noteOn",
        "noteNumber": 62,
        "velocity": 43
      },
      {
        "deltaTime": 2,
        "channel": 0,
        "type": "noteOn",
        "noteNumber": 50,
        "velocity": 61
      },
      {
        "deltaTime": 57,
        "running": true,
        "channel": 0,
        "type": "noteOff",
        "noteNumber": 50,
        "velocity": 0,
        "byte9": true
      },
      {
        "deltaTime": 2,
        "running": true,
        "channel": 0,
        "type": "noteOn",
        "noteNumber": 48,
        "velocity": 65
      },
      {
        "deltaTime": 23,
        "channel": 0,
        "type": "noteOff",
        "noteNumber": 57,
        "velocity": 0,
        "byte9": true
      },
      {
        "deltaTime": 2,
        "running": true,
        "channel": 0,
        "type": "noteOff",
        "noteNumber": 60,
        "velocity": 0,
        "byte9": true
      },
      {
        "deltaTime": 1,
        "running": true,
        "channel": 0,
        "type": "noteOff",
        "noteNumber": 53,
        "velocity": 0,
        "byte9": true
      },
      {
        "deltaTime": 30,
        "running": true,
        "channel": 0,
        "type": "noteOn",
        "noteNumber": 60,
        "velocity": 52
      },
      {
        "deltaTime": 0,
        "running": true,
        "channel": 0,
        "type": "noteOn",
        "noteNumber": 53,
        "velocity": 52
      },
      {
        "deltaTime": 2,
        "channel": 0,
        "type": "noteOff",
        "noteNumber": 48,
        "velocity": 0,
        "byte9": true
      },
      {
        "deltaTime": 1,
        "running": true,
        "channel": 0,
        "type": "noteOn",
        "noteNumber": 50,
        "velocity": 58
      },
      {
        "deltaTime": 1,
        "channel": 0,
        "type": "noteOn",
        "noteNumber": 57,
        "velocity": 48
      },
      {
        "deltaTime": 54,
        "channel": 0,
        "type": "noteOff",
        "noteNumber": 50,
        "velocity": 0,
        "byte9": true
      },
      {
        "deltaTime": 2,
        "running": true,
        "channel": 0,
        "type": "noteOn",
        "noteNumber": 48,
        "velocity": 69
      },
      {
        "deltaTime": 16,
        "channel": 0,
        "type": "controller",
        "controllerType": 64,
        "value": 85
      },
      {
        "deltaTime": 30,
        "channel": 0,
        "type": "noteOff",
        "noteNumber": 41,
        "velocity": 0,
        "byte9": true
      },
      {
        "deltaTime": 25,
        "channel": 0,
        "type": "noteOff",
        "noteNumber": 57,
        "velocity": 0,
        "byte9": true
      },
      {
        "deltaTime": 9,
        "running": true,
        "channel": 0,
        "type": "noteOff",
        "noteNumber": 60,
        "velocity": 0,
        "byte9": true
      },
      {
        "deltaTime": 2,
        "running": true,
        "channel": 0,
        "type": "noteOff",
        "noteNumber": 62,
        "velocity": 0,
        "byte9": true
      },
      {
        "deltaTime": 2,
        "running": true,
        "channel": 0,
        "type": "noteOff",
        "noteNumber": 53,
        "velocity": 0,
        "byte9": true
      },
      {
        "deltaTime": 30,
        "channel": 0,
        "type": "controller",
        "controllerType": 85,
        "value": 4
      },
      {
        "deltaTime": 11,
        "channel": 0,
        "type": "noteOn",
        "noteNumber": 53,
        "velocity": 61
      },
      {
        "deltaTime": 3,
        "running": true,
        "channel": 0,
        "type": "noteOn",
        "noteNumber": 62,
        "velocity": 47
      },
      {
        "deltaTime": 0,
        "running": true,
        "channel": 0,
        "type": "noteOn",
        "noteNumber": 58,
        "velocity": 51
      },
      {
        "deltaTime": 4,
        "channel": 0,
        "type": "controller",
        "controllerType": 64,
        "value": 0
      },
      {
        "deltaTime": 4,
        "channel": 0,
        "type": "noteOff",
        "noteNumber": 48,
        "velocity": 0,
        "byte9": true
      },
      {
        "deltaTime": 48,
        "running": true,
        "channel": 0,
        "type": "noteOn",
        "noteNumber": 48,
        "velocity": 80
      },
      {
        "deltaTime": 15,
        "running": true,
        "channel": 0,
        "type": "noteOff",
        "noteNumber": 48,
        "velocity": 0,
        "byte9": true
      },
      {
        "deltaTime": 18,
        "running": true,
        "channel": 0,
        "type": "noteOn",
        "noteNumber": 48,
        "velocity": 62
      },
      {
        "deltaTime": 5,
        "channel": 0,
        "type": "controller",
        "controllerType": 64,
        "value": 85
      },
      {
        "deltaTime": 5,
        "channel": 0,
        "type": "noteOff",
        "noteNumber": 53,
        "velocity": 0,
        "byte9": true
      },
      {
        "deltaTime": 0,
        "running": true,
        "channel": 0,
        "type": "noteOff",
        "noteNumber": 62,
        "velocity": 0,
        "byte9": true
      },
      {
        "deltaTime": 0,
        "running": true,
        "channel": 0,
        "type": "noteOff",
        "noteNumber": 58,
        "velocity": 0,
        "byte9": true
      },
      {
        "deltaTime": 15,
        "running": true,
        "channel": 0,
        "type": "noteOn",
        "noteNumber": 53,
        "velocity": 66
      },
      {
        "deltaTime": 2,
        "channel": 0,
        "type": "noteOff",
        "noteNumber": 48,
        "velocity": 0,
        "byte9": true
      },
      {
        "deltaTime": 0,
        "channel": 0,
        "type": "controller",
        "controllerType": 64,
        "value": 0
      },
      {
        "deltaTime": 0,
        "channel": 0,
        "type": "noteOn",
        "noteNumber": 58,
        "velocity": 65
      },
      {
        "deltaTime": 1,
        "channel": 0,
        "type": "noteOn",
        "noteNumber": 50,
        "velocity": 78
      },
      {
        "deltaTime": 0,
        "channel": 0,
        "type": "noteOn",
        "noteNumber": 62,
        "velocity": 53
      },
      {
        "deltaTime": 60,
        "channel": 0,
        "type": "noteOn",
        "noteNumber": 48,
        "velocity": 73
      },
      {
        "deltaTime": 3,
        "running": true,
        "channel": 0,
        "type": "noteOff",
        "noteNumber": 50,
        "velocity": 0,
        "byte9": true
      },
      {
        "deltaTime": 37,
        "channel": 0,
        "type": "noteOff",
        "noteNumber": 58,
        "velocity": 0,
        "byte9": true
      },
      {
        "deltaTime": 2,
        "running": true,
        "channel": 0,
        "type": "noteOff",
        "noteNumber": 53,
        "velocity": 0,
        "byte9": true
      },
      {
        "deltaTime": 7,
        "running": true,
        "channel": 0,
        "type": "noteOff",
        "noteNumber": 62,
        "velocity": 0,
        "byte9": true
      },
      {
        "deltaTime": 8,
        "running": true,
        "channel": 0,
        "type": "noteOn",
        "noteNumber": 58,
        "velocity": 48
      },
      {
        "deltaTime": 1,
        "channel": 0,
        "type": "noteOff",
        "noteNumber": 48,
        "velocity": 0,
        "byte9": true
      },
      {
        "deltaTime": 0,
        "channel": 0,
        "type": "noteOn",
        "noteNumber": 53,
        "velocity": 52
      },
      {
        "deltaTime": 1,
        "running": true,
        "channel": 0,
        "type": "noteOn",
        "noteNumber": 62,
        "velocity": 43
      },
      {
        "deltaTime": 2,
        "channel": 0,
        "type": "noteOn",
        "noteNumber": 50,
        "velocity": 66
      },
      {
        "deltaTime": 43,
        "running": true,
        "channel": 0,
        "type": "noteOff",
        "noteNumber": 50,
        "velocity": 0,
        "byte9": true
      },
      {
        "deltaTime": 8,
        "running": true,
        "channel": 0,
        "type": "noteOn",
        "noteNumber": 48,
        "velocity": 83
      },
      {
        "deltaTime": 18,
        "channel": 0,
        "type": "noteOff",
        "noteNumber": 58,
        "velocity": 0,
        "byte9": true
      },
      {
        "deltaTime": 10,
        "running": true,
        "channel": 0,
        "type": "noteOff",
        "noteNumber": 53,
        "velocity": 0,
        "byte9": true
      },
      {
        "deltaTime": 2,
        "running": true,
        "channel": 0,
        "type": "noteOff",
        "noteNumber": 62,
        "velocity": 0,
        "byte9": true
      },
      {
        "deltaTime": 31,
        "running": true,
        "channel": 0,
        "type": "noteOn",
        "noteNumber": 53,
        "velocity": 50
      },
      {
        "deltaTime": 1,
        "running": true,
        "channel": 0,
        "type": "noteOn",
        "noteNumber": 58,
        "velocity": 53
      },
      {
        "deltaTime": 0,
        "running": true,
        "channel": 0,
        "type": "noteOn",
        "noteNumber": 62,
        "velocity": 43
      },
      {
        "deltaTime": 1,
        "channel": 0,
        "type": "noteOn",
        "noteNumber": 50,
        "velocity": 65
      },
      {
        "deltaTime": 1,
        "running": true,
        "channel": 0,
        "type": "noteOff",
        "noteNumber": 48,
        "velocity": 0,
        "byte9": true
      },
      {
        "deltaTime": 57,
        "running": true,
        "channel": 0,
        "type": "noteOff",
        "noteNumber": 50,
        "velocity": 0,
        "byte9": true
      },
      {
        "deltaTime": 1,
        "running": true,
        "channel": 0,
        "type": "noteOn",
        "noteNumber": 48,
        "velocity": 75
      },
      {
        "deltaTime": 2,
        "channel": 0,
        "type": "noteOff",
        "noteNumber": 53,
        "velocity": 0,
        "byte9": true
      },
      {
        "deltaTime": 5,
        "channel": 0,
        "type": "controller",
        "controllerType": 64,
        "value": 85
      },
      {
        "deltaTime": 14,
        "channel": 0,
        "type": "noteOff",
        "noteNumber": 58,
        "velocity": 0,
        "byte9": true
      },
      {
        "deltaTime": 9,
        "running": true,
        "channel": 0,
        "type": "noteOff",
        "noteNumber": 62,
        "velocity": 0,
        "byte9": true
      },
      {
        "deltaTime": 24,
        "channel": 0,
        "type": "controller",
        "controllerType": 64,
        "value": 0
      },
      {
        "deltaTime": 6,
        "channel": 0,
        "type": "noteOn",
        "noteNumber": 55,
        "velocity": 56
      },
      {
        "deltaTime": 1,
        "running": true,
        "channel": 0,
        "type": "noteOn",
        "noteNumber": 64,
        "velocity": 46
      },
      {
        "deltaTime": 1,
        "channel": 0,
        "type": "noteOff",
        "noteNumber": 48,
        "velocity": 0,
        "byte9": true
      },
      {
        "deltaTime": 0,
        "channel": 0,
        "type": "noteOn",
        "noteNumber": 57,
        "velocity": 55
      },
      {
        "deltaTime": 1,
        "running": true,
        "channel": 0,
        "type": "noteOn",
        "noteNumber": 60,
        "velocity": 46
      },
      {
        "deltaTime": 0,
        "channel": 0,
        "type": "noteOn",
        "noteNumber": 41,
        "velocity": 68
      },
      {
        "deltaTime": 14,
        "channel": 0,
        "type": "noteOff",
        "noteNumber": 55,
        "velocity": 0,
        "byte9": true
      },
      {
        "deltaTime": 9,
        "running": true,
        "channel": 0,
        "type": "noteOff",
        "noteNumber": 57,
        "velocity": 0,
        "byte9": true
      },
      {
        "deltaTime": 3,
        "channel": 0,
        "type": "controller",
        "controllerType": 64,
        "value": 85
      },
      {
        "deltaTime": 1,
        "channel": 0,
        "type": "noteOff",
        "noteNumber": 60,
        "velocity": 0,
        "byte9": true
      },
      {
        "deltaTime": 15,
        "running": true,
        "channel": 0,
        "type": "noteOff",
        "noteNumber": 64,
        "velocity": 0,
        "byte9": true
      },
      {
        "deltaTime": 18,
        "channel": 0,
        "type": "noteOn",
        "noteNumber": 48,
        "velocity": 77
      },
      {
        "deltaTime": 6,
        "running": true,
        "channel": 0,
        "type": "noteOff",
        "noteNumber": 41,
        "velocity": 0,
        "byte9": true
      },
      {
        "deltaTime": 17,
        "running": true,
        "channel": 0,
        "type": "noteOff",
        "noteNumber": 48,
        "velocity": 0,
        "byte9": true
      },
      {
        "deltaTime": 29,
        "channel": 0,
        "type": "controller",
        "controllerType": 86,
        "value": 4
      },
      {
        "deltaTime": 5,
        "channel": 0,
        "type": "noteOn",
        "noteNumber": 58,
        "velocity": 93
      },
      {
        "deltaTime": 0,
        "channel": 0,
        "type": "noteOn",
        "noteNumber": 68,
        "velocity": 90
      },
      {
        "deltaTime": 0,
        "running": true,
        "channel": 0,
        "type": "noteOn",
        "noteNumber": 74,
        "velocity": 88
      },
      {
        "deltaTime": 0,
        "running": true,
        "channel": 0,
        "type": "noteOn",
        "noteNumber": 64,
        "velocity": 79
      },
      {
        "deltaTime": 4,
        "channel": 0,
        "type": "controller",
        "controllerType": 64,
        "value": 0
      },
      {
        "deltaTime": 7,
        "channel": 0,
        "type": "noteOff",
        "noteNumber": 68,
        "velocity": 0,
        "byte9": true
      },
      {
        "deltaTime": 1,
        "running": true,
        "channel": 0,
        "type": "noteOff",
        "noteNumber": 64,
        "velocity": 0,
        "byte9": true
      },
      {
        "deltaTime": 5,
        "running": true,
        "channel": 0,
        "type": "noteOn",
        "noteNumber": 69,
        "velocity": 61
      },
      {
        "deltaTime": 15,
        "running": true,
        "channel": 0,
        "type": "noteOff",
        "noteNumber": 74,
        "velocity": 0,
        "byte9": true
      },
      {
        "deltaTime": 1,
        "running": true,
        "channel": 0,
        "type": "noteOff",
        "noteNumber": 69,
        "velocity": 0,
        "byte9": true
      },
      {
        "deltaTime": 19,
        "channel": 0,
        "type": "noteOff",
        "noteNumber": 58,
        "velocity": 0,
        "byte9": true
      },
      {
        "deltaTime": 10,
        "channel": 0,
        "type": "noteOn",
        "noteNumber": 72,
        "velocity": 88
      },
      {
        "deltaTime": 1,
        "running": true,
        "channel": 0,
        "type": "noteOn",
        "noteNumber": 62,
        "velocity": 79
      },
      {
        "deltaTime": 1,
        "running": true,
        "channel": 0,
        "type": "noteOn",
        "noteNumber": 67,
        "velocity": 79
      },
      {
        "deltaTime": 1,
        "channel": 0,
        "type": "noteOn",
        "noteNumber": 57,
        "velocity": 74
      },
      {
        "deltaTime": 49,
        "channel": 0,
        "type": "controller",
        "controllerType": 64,
        "value": 85
      },
      {
        "deltaTime": 21,
        "channel": 0,
        "type": "noteOff",
        "noteNumber": 72,
        "velocity": 0,
        "byte9": true
      },
      {
        "deltaTime": 0,
        "running": true,
        "channel": 0,
        "type": "noteOff",
        "noteNumber": 67,
        "velocity": 0,
        "byte9": true
      },
      {
        "deltaTime": 14,
        "running": true,
        "channel": 0,
        "type": "noteOff",
        "noteNumber": 62,
        "velocity": 0,
        "byte9": true
      },
      {
        "deltaTime": 32,
        "channel": 0,
        "type": "noteOff",
        "noteNumber": 57,
        "velocity": 0,
        "byte9": true
      },
      {
        "deltaTime": 3,
        "channel": 0,
        "type": "noteOn",
        "noteNumber": 69,
        "velocity": 72
      },
      {
        "deltaTime": 0,
        "running": true,
        "channel": 0,
        "type": "noteOn",
        "noteNumber": 60,
        "velocity": 57
      },
      {
        "deltaTime": 1,
        "channel": 0,
        "type": "noteOn",
        "noteNumber": 53,
        "velocity": 58
      },
      {
        "deltaTime": 0,
        "channel": 0,
        "type": "noteOn",
        "noteNumber": 64,
        "velocity": 61
      },
      {
        "deltaTime": 22,
        "channel": 0,
        "type": "noteOff",
        "noteNumber": 53,
        "velocity": 0,
        "byte9": true
      },
      {
        "deltaTime": 7,
        "channel": 0,
        "type": "noteOff",
        "noteNumber": 64,
        "velocity": 0,
        "byte9": true
      },
      {
        "deltaTime": 2,
        "running": true,
        "channel": 0,
        "type": "noteOff",
        "noteNumber": 69,
        "velocity": 0,
        "byte9": true
      },
      {
        "deltaTime": 8,
        "running": true,
        "channel": 0,
        "type": "noteOff",
        "noteNumber": 60,
        "velocity": 0,
        "byte9": true
      },
      {
        "deltaTime": 80,
        "channel": 0,
        "type": "noteOn",
        "noteNumber": 55,
        "velocity": 64
      },
      {
        "deltaTime": 1,
        "channel": 0,
        "type": "noteOn",
        "noteNumber": 60,
        "velocity": 61
      },
      {
        "deltaTime": 2,
        "running": true,
        "channel": 0,
        "type": "noteOn",
        "noteNumber": 57,
        "velocity": 52
      },
      {
        "deltaTime": 10,
        "running": true,
        "channel": 0,
        "type": "noteOff",
        "noteNumber": 57,
        "velocity": 0,
        "byte9": true
      },
      {
        "deltaTime": 2,
        "channel": 0,
        "type": "noteOff",
        "noteNumber": 55,
        "velocity": 0,
        "byte9": true
      },
      {
        "deltaTime": 15,
        "channel": 0,
        "type": "noteOff",
        "noteNumber": 60,
        "velocity": 0,
        "byte9": true
      },
      {
        "deltaTime": 30,
        "running": true,
        "channel": 0,
        "type": "noteOn",
        "noteNumber": 53,
        "velocity": 58
      },
      {
        "deltaTime": 0,
        "running": true,
        "channel": 0,
        "type": "noteOn",
        "noteNumber": 62,
        "velocity": 59
      },
      {
        "deltaTime": 1,
        "running": true,
        "channel": 0,
        "type": "noteOn",
        "noteNumber": 58,
        "velocity": 58
      },
      {
        "deltaTime": 4,
        "channel": 0,
        "type": "controller",
        "controllerType": 64,
        "value": 0
      },
      {
        "deltaTime": 0,
        "channel": 0,
        "type": "noteOn",
        "noteNumber": 48,
        "velocity": 58
      },
      {
        "deltaTime": 32,
        "running": true,
        "channel": 0,
        "type": "noteOff",
        "noteNumber": 48,
        "velocity": 0,
        "byte9": true
      },
      {
        "deltaTime": 21,
        "running": true,
        "channel": 0,
        "type": "noteOn",
        "noteNumber": 48,
        "velocity": 80
      },
      {
        "deltaTime": 11,
        "channel": 0,
        "type": "noteOff",
        "noteNumber": 53,
        "velocity": 0,
        "byte9": true
      },
      {
        "deltaTime": 0,
        "channel": 0,
        "type": "controller",
        "controllerType": 64,
        "value": 85
      },
      {
        "deltaTime": 6,
        "channel": 0,
        "type": "noteOff",
        "noteNumber": 62,
        "velocity": 0,
        "byte9": true
      },
      {
        "deltaTime": 1,
        "running": true,
        "channel": 0,
        "type": "noteOff",
        "noteNumber": 58,
        "velocity": 0,
        "byte9": true
      },
      {
        "deltaTime": 24,
        "channel": 0,
        "type": "noteOff",
        "noteNumber": 48,
        "velocity": 0,
        "byte9": true
      },
      {
        "deltaTime": 11,
        "running": true,
        "channel": 0,
        "type": "noteOn",
        "noteNumber": 50,
        "velocity": 67
      },
      {
        "deltaTime": 54,
        "running": true,
        "channel": 0,
        "type": "noteOff",
        "noteNumber": 50,
        "velocity": 0,
        "byte9": true
      },
      {
        "deltaTime": 13,
        "running": true,
        "channel": 0,
        "type": "noteOn",
        "noteNumber": 48,
        "velocity": 72
      },
      {
        "deltaTime": 0,
        "channel": 0,
        "type": "controller",
        "controllerType": 64,
        "value": 0
      },
      {
        "deltaTime": 20,
        "channel": 0,
        "type": "noteOff",
        "noteNumber": 48,
        "velocity": 0,
        "byte9": true
      },
      {
        "deltaTime": 2,
        "channel": 0,
        "type": "controller",
        "controllerType": 64,
        "value": 85
      },
      {
        "deltaTime": 40,
        "channel": 0,
        "type": "noteOn",
        "noteNumber": 62,
        "velocity": 52
      },
      {
        "deltaTime": 0,
        "running": true,
        "channel": 0,
        "type": "noteOn",
        "noteNumber": 53,
        "velocity": 55
      },
      {
        "deltaTime": 0,
        "channel": 0,
        "type": "controller",
        "controllerType": 64,
        "value": 0
      },
      {
        "deltaTime": 1,
        "channel": 0,
        "type": "noteOn",
        "noteNumber": 58,
        "velocity": 61
      },
      {
        "deltaTime": 0,
        "channel": 0,
        "type": "noteOn",
        "noteNumber": 48,
        "velocity": 62
      },
      {
        "deltaTime": 27,
        "running": true,
        "channel": 0,
        "type": "noteOff",
        "noteNumber": 48,
        "velocity": 0,
        "byte9": true
      },
      {
        "deltaTime": 3,
        "channel": 0,
        "type": "controller",
        "controllerType": 64,
        "value": 85
      },
      {
        "deltaTime": 21,
        "channel": 0,
        "type": "noteOff",
        "noteNumber": 53,
        "velocity": 0,
        "byte9": true
      },
      {
        "deltaTime": 8,
        "running": true,
        "channel": 0,
        "type": "noteOff",
        "noteNumber": 62,
        "velocity": 0,
        "byte9": true
      },
      {
        "deltaTime": 1,
        "channel": 0,
        "type": "noteOn",
        "noteNumber": 48,
        "velocity": 73
      },
      {
        "deltaTime": 4,
        "channel": 0,
        "type": "noteOff",
        "noteNumber": 58,
        "velocity": 0,
        "byte9": true
      },
      {
        "deltaTime": 62,
        "running": true,
        "channel": 0,
        "type": "noteOn",
        "noteNumber": 64,
        "velocity": 61
      },
      {
        "deltaTime": 90,
        "running": true,
        "channel": 0,
        "type": "noteOff",
        "noteNumber": 64,
        "velocity": 0,
        "byte9": true
      },
      {
        "deltaTime": 26,
        "channel": 0,
        "type": "noteOff",
        "noteNumber": 48,
        "velocity": 0,
        "byte9": true
      },
      {
        "deltaTime": 7,
        "running": true,
        "channel": 0,
        "type": "noteOn",
        "noteNumber": 38,
        "velocity": 70
      },
      {
        "deltaTime": 4,
        "channel": 0,
        "type": "controller",
        "controllerType": 64,
        "value": 0
      },
      {
        "deltaTime": 0,
        "channel": 0,
        "type": "noteOn",
        "noteNumber": 66,
        "velocity": 52
      },
      {
        "deltaTime": 33,
        "channel": 0,
        "type": "noteOff",
        "noteNumber": 38,
        "velocity": 0,
        "byte9": true
      },
      {
        "deltaTime": 3,
        "channel": 0,
        "type": "controller",
        "controllerType": 64,
        "value": 85
      },
      {
        "deltaTime": 13,
        "channel": 0,
        "type": "noteOn",
        "noteNumber": 45,
        "velocity": 66
      },
      {
        "deltaTime": 6,
        "channel": 0,
        "type": "noteOff",
        "noteNumber": 66,
        "velocity": 0,
        "byte9": true
      },
      {
        "deltaTime": 48,
        "channel": 0,
        "type": "noteOff",
        "noteNumber": 45,
        "velocity": 0,
        "byte9": true
      },
      {
        "deltaTime": 0,
        "running": true,
        "channel": 0,
        "type": "noteOn",
        "noteNumber": 54,
        "velocity": 56
      },
      {
        "deltaTime": 0,
        "channel": 0,
        "type": "noteOn",
        "noteNumber": 69,
        "velocity": 70
      },
      {
        "deltaTime": 2,
        "running": true,
        "channel": 0,
        "type": "noteOn",
        "noteNumber": 66,
        "velocity": 65
      },
      {
        "deltaTime": 4,
        "running": true,
        "channel": 0,
        "type": "noteOff",
        "noteNumber": 66,
        "velocity": 0,
        "byte9": true
      },
      {
        "deltaTime": 6,
        "running": true,
        "channel": 0,
        "type": "noteOff",
        "noteNumber": 69,
        "velocity": 0,
        "byte9": true
      },
      {
        "deltaTime": 5,
        "channel": 0,
        "type": "noteOff",
        "noteNumber": 54,
        "velocity": 0,
        "byte9": true
      },
      {
        "deltaTime": 44,
        "channel": 0,
        "type": "noteOn",
        "noteNumber": 81,
        "velocity": 97
      },
      {
        "deltaTime": 0,
        "running": true,
        "channel": 0,
        "type": "noteOn",
        "noteNumber": 76,
        "velocity": 105
      },
      {
        "deltaTime": 2,
        "running": true,
        "channel": 0,
        "type": "noteOn",
        "noteNumber": 79,
        "velocity": 69
      },
      {
        "deltaTime": 4,
        "running": true,
        "channel": 0,
        "type": "noteOff",
        "noteNumber": 79,
        "velocity": 0,
        "byte9": true
      },
      {
        "deltaTime": 31,
        "running": true,
        "channel": 0,
        "type": "noteOff",
        "noteNumber": 76,
        "velocity": 0,
        "byte9": true
      },
      {
        "deltaTime": 3,
        "running": true,
        "channel": 0,
        "type": "noteOff",
        "noteNumber": 81,
        "velocity": 0,
        "byte9": true
      },
      {
        "deltaTime": 19,
        "channel": 0,
        "type": "noteOn",
        "noteNumber": 54,
        "velocity": 56
      },
      {
        "deltaTime": 0,
        "running": true,
        "channel": 0,
        "type": "noteOn",
        "noteNumber": 64,
        "velocity": 54
      },
      {
        "deltaTime": 0,
        "running": true,
        "channel": 0,
        "type": "noteOn",
        "noteNumber": 61,
        "velocity": 56
      },
      {
        "deltaTime": 1,
        "channel": 0,
        "type": "noteOn",
        "noteNumber": 78,
        "velocity": 86
      },
      {
        "deltaTime": 3,
        "channel": 0,
        "type": "noteOn",
        "noteNumber": 59,
        "velocity": 64
      },
      {
        "deltaTime": 5,
        "channel": 0,
        "type": "controller",
        "controllerType": 64,
        "value": 0
      },
      {
        "deltaTime": 27,
        "running": true,
        "channel": 0,
        "type": "controller",
        "controllerType": 64,
        "value": 85
      },
      {
        "deltaTime": 25,
        "channel": 0,
        "type": "noteOn",
        "noteNumber": 69,
        "velocity": 51
      },
      {
        "deltaTime": 10,
        "channel": 0,
        "type": "noteOff",
        "noteNumber": 64,
        "velocity": 0,
        "byte9": true
      },
      {
        "deltaTime": 8,
        "running": true,
        "channel": 0,
        "type": "noteOff",
        "noteNumber": 61,
        "velocity": 0,
        "byte9": true
      },
      {
        "deltaTime": 1,
        "running": true,
        "channel": 0,
        "type": "noteOff",
        "noteNumber": 59,
        "velocity": 0,
        "byte9": true
      },
      {
        "deltaTime": 17,
        "channel": 0,
        "type": "noteOff",
        "noteNumber": 69,
        "velocity": 0,
        "byte9": true
      },
      {
        "deltaTime": 13,
        "running": true,
        "channel": 0,
        "type": "noteOff",
        "noteNumber": 78,
        "velocity": 0,
        "byte9": true
      },
      {
        "deltaTime": 8,
        "channel": 0,
        "type": "noteOn",
        "noteNumber": 64,
        "velocity": 57
      },
      {
        "deltaTime": 1,
        "running": true,
        "channel": 0,
        "type": "noteOn",
        "noteNumber": 61,
        "velocity": 44
      },
      {
        "deltaTime": 2,
        "channel": 0,
        "type": "noteOn",
        "noteNumber": 69,
        "velocity": 56
      },
      {
        "deltaTime": 0,
        "channel": 0,
        "type": "noteOn",
        "noteNumber": 59,
        "velocity": 47
      },
      {
        "deltaTime": 54,
        "channel": 0,
        "type": "noteOff",
        "noteNumber": 69,
        "velocity": 0,
        "byte9": true
      },
      {
        "deltaTime": 7,
        "channel": 0,
        "type": "noteOff",
        "noteNumber": 54,
        "velocity": 0,
        "byte9": true
      },
      {
        "deltaTime": 1,
        "running": true,
        "channel": 0,
        "type": "noteOff",
        "noteNumber": 59,
        "velocity": 0,
        "byte9": true
      },
      {
        "deltaTime": 0,
        "channel": 0,
        "type": "noteOn",
        "noteNumber": 73,
        "velocity": 84
      },
      {
        "deltaTime": 4,
        "channel": 0,
        "type": "noteOff",
        "noteNumber": 64,
        "velocity": 0,
        "byte9": true
      },
      {
        "deltaTime": 0,
        "running": true,
        "channel": 0,
        "type": "noteOff",
        "noteNumber": 61,
        "velocity": 0,
        "byte9": true
      },
      {
        "deltaTime": 27,
        "channel": 0,
        "type": "noteOff",
        "noteNumber": 73,
        "velocity": 0,
        "byte9": true
      },
      {
        "deltaTime": 24,
        "channel": 0,
        "type": "noteOn",
        "noteNumber": 66,
        "velocity": 73
      },
      {
        "deltaTime": 2,
        "running": true,
        "channel": 0,
        "type": "noteOn",
        "noteNumber": 55,
        "velocity": 54
      },
      {
        "deltaTime": 3,
        "channel": 0,
        "type": "noteOn",
        "noteNumber": 74,
        "velocity": 88
      },
      {
        "deltaTime": 0,
        "channel": 0,
        "type": "noteOn",
        "noteNumber": 62,
        "velocity": 50
      },
      {
        "deltaTime": 1,
        "running": true,
        "channel": 0,
        "type": "noteOn",
        "noteNumber": 59,
        "velocity": 53
      },
      {
        "deltaTime": 5,
        "channel": 0,
        "type": "controller",
        "controllerType": 64,
        "value": 0
      },
      {
        "deltaTime": 32,
        "running": true,
        "channel": 0,
        "type": "controller",
        "controllerType": 64,
        "value": 85
      },
      {
        "deltaTime": 23,
        "channel": 0,
        "type": "noteOn",
        "noteNumber": 76,
        "velocity": 93
      },
      {
        "deltaTime": 19,
        "running": true,
        "channel": 0,
        "type": "noteOff",
        "noteNumber": 74,
        "velocity": 0,
        "byte9": true
      },
      {
        "deltaTime": 6,
        "channel": 0,
        "type": "noteOff",
        "noteNumber": 62,
        "velocity": 0,
        "byte9": true
      },
      {
        "deltaTime": 6,
        "running": true,
        "channel": 0,
        "type": "noteOff",
        "noteNumber": 66,
        "velocity": 0,
        "byte9": true
      },
      {
        "deltaTime": 19,
        "channel": 0,
        "type": "noteOff",
        "noteNumber": 76,
        "velocity": 0,
        "byte9": true
      },
      {
        "deltaTime": 8,
        "channel": 0,
        "type": "noteOn",
        "noteNumber": 62,
        "velocity": 25
      },
      {
        "deltaTime": 1,
        "running": true,
        "channel": 0,
        "type": "noteOn",
        "noteNumber": 66,
        "velocity": 71
      },
      {
        "deltaTime": 1,
        "channel": 0,
        "type": "noteOn",
        "noteNumber": 78,
        "velocity": 80
      },
      {
        "deltaTime": 15,
        "channel": 0,
        "type": "noteOff",
        "noteNumber": 55,
        "velocity": 0,
        "byte9": true
      },
      {
        "deltaTime": 35,
        "channel": 0,
        "type": "noteOff",
        "noteNumber": 78,
        "velocity": 0,
        "byte9": true
      },
      {
        "deltaTime": 6,
        "running": true,
        "channel": 0,
        "type": "noteOn",
        "noteNumber": 67,
        "velocity": 80
      },
      {
        "deltaTime": 1,
        "running": true,
        "channel": 0,
        "type": "noteOn",
        "noteNumber": 79,
        "velocity": 80
      },
      {
        "deltaTime": 10,
        "channel": 0,
        "type": "noteOn",
        "noteNumber": 55,
        "velocity": 20
      },
      {
        "deltaTime": 2,
        "running": true,
        "channel": 0,
        "type": "noteOff",
        "noteNumber": 62,
        "velocity": 0,
        "byte9": true
      },
      {
        "deltaTime": 7,
        "running": true,
        "channel": 0,
        "type": "noteOff",
        "noteNumber": 55,
        "velocity": 0,
        "byte9": true
      },
      {
        "deltaTime": 9,
        "running": true,
        "channel": 0,
        "type": "noteOff",
        "noteNumber": 59,
        "velocity": 0,
        "byte9": true
      },
      {
        "deltaTime": 6,
        "channel": 0,
        "type": "noteOff",
        "noteNumber": 79,
        "velocity": 0,
        "byte9": true
      },
      {
        "deltaTime": 1,
        "channel": 0,
        "type": "noteOff",
        "noteNumber": 66,
        "velocity": 0,
        "byte9": true
      },
      {
        "deltaTime": 20,
        "channel": 0,
        "type": "noteOff",
        "noteNumber": 67,
        "velocity": 0,
        "byte9": true
      },
      {
        "deltaTime": 64,
        "channel": 0,
        "type": "noteOn",
        "noteNumber": 66,
        "velocity": 70
      },
      {
        "deltaTime": 1,
        "running": true,
        "channel": 0,
        "type": "noteOn",
        "noteNumber": 55,
        "velocity": 61
      },
      {
        "deltaTime": 0,
        "running": true,
        "channel": 0,
        "type": "noteOn",
        "noteNumber": 61,
        "velocity": 65
      },
      {
        "deltaTime": 3,
        "channel": 0,
        "type": "controller",
        "controllerType": 64,
        "value": 0
      },
      {
        "deltaTime": 50,
        "running": true,
        "channel": 0,
        "type": "controller",
        "controllerType": 64,
        "value": 85
      },
      {
        "deltaTime": 11,
        "channel": 0,
        "type": "noteOn",
        "noteNumber": 79,
        "velocity": 61
      },
      {
        "deltaTime": 1,
        "running": true,
        "channel": 0,
        "type": "noteOn",
        "noteNumber": 67,
        "velocity": 56
      },
      {
        "deltaTime": 2,
        "channel": 0,
        "type": "noteOff",
        "noteNumber": 66,
        "velocity": 0,
        "byte9": true
      },
      {
        "deltaTime": 8,
        "running": true,
        "channel": 0,
        "type": "noteOff",
        "noteNumber": 55,
        "velocity": 0,
        "byte9": true
      },
      {
        "deltaTime": 10,
        "channel": 0,
        "type": "noteOff",
        "noteNumber": 79,
        "velocity": 0,
        "byte9": true
      },
      {
        "deltaTime": 2,
        "channel": 0,
        "type": "noteOff",
        "noteNumber": 61,
        "velocity": 0,
        "byte9": true
      },
      {
        "deltaTime": 10,
        "channel": 0,
        "type": "noteOff",
        "noteNumber": 67,
        "velocity": 0,
        "byte9": true
      },
      {
        "deltaTime": 27,
        "channel": 0,
        "type": "noteOn",
        "noteNumber": 55,
        "velocity": 53
      },
      {
        "deltaTime": 0,
        "running": true,
        "channel": 0,
        "type": "noteOn",
        "noteNumber": 61,
        "velocity": 44
      },
      {
        "deltaTime": 8,
        "running": true,
        "channel": 0,
        "type": "noteOff",
        "noteNumber": 61,
        "velocity": 0,
        "byte9": true
      },
      {
        "deltaTime": 4,
        "running": true,
        "channel": 0,
        "type": "noteOff",
        "noteNumber": 55,
        "velocity": 0,
        "byte9": true
      },
      {
        "deltaTime": 48,
        "channel": 0,
        "type": "noteOn",
        "noteNumber": 66,
        "velocity": 61
      },
      {
        "deltaTime": 0,
        "running": true,
        "channel": 0,
        "type": "noteOn",
        "noteNumber": 69,
        "velocity": 67
      },
      {
        "deltaTime": 0,
        "running": true,
        "channel": 0,
        "type": "noteOn",
        "noteNumber": 64,
        "velocity": 51
      },
      {
        "deltaTime": 3,
        "channel": 0,
        "type": "noteOn",
        "noteNumber": 50,
        "velocity": 57
      },
      {
        "deltaTime": 2,
        "channel": 0,
        "type": "controller",
        "controllerType": 64,
        "value": 0
      },
      {
        "deltaTime": 39,
        "running": true,
        "channel": 0,
        "type": "controller",
        "controllerType": 64,
        "value": 85
      },
      {
        "deltaTime": 14,
        "channel": 0,
        "type": "noteOn",
        "noteNumber": 57,
        "velocity": 71
      },
      {
        "deltaTime": 20,
        "channel": 0,
        "type": "noteOff",
        "noteNumber": 64,
        "velocity": 0,
        "byte9": true
      },
      {
        "deltaTime": 30,
        "running": true,
        "channel": 0,
        "type": "noteOff",
        "noteNumber": 66,
        "velocity": 0,
        "byte9": true
      },
      {
        "deltaTime": 7,
        "running": true,
        "channel": 0,
        "type": "noteOn",
        "noteNumber": 64,
        "velocity": 65
      },
      {
        "deltaTime": 3,
        "running": true,
        "channel": 0,
        "type": "noteOff",
        "noteNumber": 69,
        "velocity": 0,
        "byte9": true
      },
      {
        "deltaTime": 54,
        "running": true,
        "channel": 0,
        "type": "noteOff",
        "noteNumber": 64,
        "velocity": 0,
        "byte9": true
      },
      {
        "deltaTime": 1,
        "running": true,
        "channel": 0,
        "type": "noteOn",
        "noteNumber": 69,
        "velocity": 88
      },
      {
        "deltaTime": 7,
        "channel": 0,
        "type": "noteOff",
        "noteNumber": 57,
        "velocity": 0,
        "byte9": true
      },
      {
        "deltaTime": 30,
        "channel": 0,
        "type": "noteOff",
        "noteNumber": 69,
        "velocity": 0,
        "byte9": true
      },
      {
        "deltaTime": 22,
        "running": true,
        "channel": 0,
        "type": "noteOn",
        "noteNumber": 69,
        "velocity": 88
      },
      {
        "deltaTime": 1,
        "running": true,
        "channel": 0,
        "type": "noteOn",
        "noteNumber": 64,
        "velocity": 83
      },
      {
        "deltaTime": 1,
        "running": true,
        "channel": 0,
        "type": "noteOn",
        "noteNumber": 61,
        "velocity": 58
      },
      {
        "deltaTime": 4,
        "channel": 0,
        "type": "controller",
        "controllerType": 64,
        "value": 0
      },
      {
        "deltaTime": 1,
        "channel": 0,
        "type": "noteOn",
        "noteNumber": 57,
        "velocity": 55
      },
      {
        "deltaTime": 8,
        "running": true,
        "channel": 0,
        "type": "noteOff",
        "noteNumber": 50,
        "velocity": 0,
        "byte9": true
      },
      {
        "deltaTime": 49,
        "channel": 0,
        "type": "noteOff",
        "noteNumber": 61,
        "velocity": 0,
        "byte9": true
      },
      {
        "deltaTime": 2,
        "channel": 0,
        "type": "noteOn",
        "noteNumber": 50,
        "velocity": 84
      },
      {
        "deltaTime": 9,
        "channel": 0,
        "type": "controller",
        "controllerType": 64,
        "value": 85
      },
      {
        "deltaTime": 49,
        "channel": 0,
        "type": "noteOn",
        "noteNumber": 61,
        "velocity": 80
      },
      {
        "deltaTime": 19,
        "running": true,
        "channel": 0,
        "type": "noteOff",
        "noteNumber": 50,
        "velocity": 0,
        "byte9": true
      },
      {
        "deltaTime": 14,
        "running": true,
        "channel": 0,
        "type": "noteOff",
        "noteNumber": 61,
        "velocity": 0,
        "byte9": true
      },
      {
        "deltaTime": 2,
        "channel": 0,
        "type": "noteOff",
        "noteNumber": 64,
        "velocity": 0,
        "byte9": true
      },
      {
        "deltaTime": 12,
        "running": true,
        "channel": 0,
        "type": "noteOff",
        "noteNumber": 69,
        "velocity": 0,
        "byte9": true
      },
      {
        "deltaTime": 4,
        "channel": 0,
        "type": "noteOff",
        "noteNumber": 57,
        "velocity": 0,
        "byte9": true
      },
      {
        "deltaTime": 8,
        "running": true,
        "channel": 0,
        "type": "noteOn",
        "noteNumber": 50,
        "velocity": 70
      },
      {
        "deltaTime": 10,
        "running": true,
        "channel": 0,
        "type": "noteOff",
        "noteNumber": 50,
        "velocity": 0,
        "byte9": true
      },
      {
        "deltaTime": 50,
        "channel": 0,
        "type": "noteOn",
        "noteNumber": 69,
        "velocity": 92
      },
      {
        "deltaTime": 0,
        "running": true,
        "channel": 0,
        "type": "noteOn",
        "noteNumber": 66,
        "velocity": 92
      },
      {
        "deltaTime": 3,
        "channel": 0,
        "type": "noteOn",
        "noteNumber": 54,
        "velocity": 78
      },
      {
        "deltaTime": 0,
        "running": true,
        "channel": 0,
        "type": "noteOn",
        "noteNumber": 64,
        "velocity": 79
      },
      {
        "deltaTime": 1,
        "running": true,
        "channel": 0,
        "type": "noteOn",
        "noteNumber": 60,
        "velocity": 60
      },
      {
        "deltaTime": 3,
        "channel": 0,
        "type": "controller",
        "controllerType": 64,
        "value": 0
      },
      {
        "deltaTime": 16,
        "meta": true,
        "type": "text",
        "text": "Preparing for E minor to begin the bridge"
      },
      {
        "deltaTime": 16,
        "meta": true,
        "type": "text",
        "text": "Diatonic thirds in  G Major (E minor)"
      },
      {
        "deltaTime": 0,
        "running": true,
        "channel": 0,
        "type": "controller",
        "controllerType": 64,
        "value": 85
      },
      {
        "deltaTime": 11,
        "channel": 0,
        "type": "noteOff",
        "noteNumber": 66,
        "velocity": 0,
        "byte9": true
      },
      {
        "deltaTime": 7,
        "running": true,
        "channel": 0,
        "type": "noteOff",
        "noteNumber": 69,
        "velocity": 0,
        "byte9": true
      },
      {
        "deltaTime": 3,
        "running": true,
        "channel": 0,
        "type": "noteOn",
        "noteNumber": 71,
        "velocity": 90
      },
      {
        "deltaTime": 0,
        "running": true,
        "channel": 0,
        "type": "noteOn",
        "noteNumber": 67,
        "velocity": 87
      },
      {
        "deltaTime": 22,
        "channel": 0,
        "type": "noteOff",
        "noteNumber": 64,
        "velocity": 0,
        "byte9": true
      },
      {
        "deltaTime": 10,
        "running": true,
        "channel": 0,
        "type": "noteOff",
        "noteNumber": 60,
        "velocity": 0,
        "byte9": true
      },
      {
        "deltaTime": 15,
        "channel": 0,
        "type": "noteOff",
        "noteNumber": 71,
        "velocity": 0,
        "byte9": true
      },
      {
        "deltaTime": 0,
        "running": true,
        "channel": 0,
        "type": "noteOff",
        "noteNumber": 67,
        "velocity": 0,
        "byte9": true
      },
      {
        "deltaTime": 10,
        "channel": 0,
        "type": "noteOn",
        "noteNumber": 64,
        "velocity": 77
      },
      {
        "deltaTime": 0,
        "channel": 0,
        "type": "noteOn",
        "noteNumber": 69,
        "velocity": 94
      },
      {
        "deltaTime": 0,
        "running": true,
        "channel": 0,
        "type": "noteOn",
        "noteNumber": 72,
        "velocity": 91
      },
      {
        "deltaTime": 2,
        "channel": 0,
        "type": "controller",
        "controllerType": 64,
        "value": 0
      },
      {
        "deltaTime": 1,
        "channel": 0,
        "type": "noteOn",
        "noteNumber": 60,
        "velocity": 58
      },
      {
        "deltaTime": 24,
        "channel": 0,
        "type": "controller",
        "controllerType": 64,
        "value": 85
      },
      {
        "deltaTime": 2,
        "channel": 0,
        "type": "noteOff",
        "noteNumber": 54,
        "velocity": 0,
        "byte9": true
      },
      {
        "deltaTime": 18,
        "channel": 0,
        "type": "noteOff",
        "noteNumber": 72,
        "velocity": 0,
        "byte9": true
      },
      {
        "deltaTime": 8,
        "channel": 0,
        "type": "noteOff",
        "noteNumber": 64,
        "velocity": 0,
        "byte9": true
      },
      {
        "deltaTime": 0,
        "channel": 0,
        "type": "noteOff",
        "noteNumber": 69,
        "velocity": 0,
        "byte9": true
      },
      {
        "deltaTime": 4,
        "running": true,
        "channel": 0,
        "type": "noteOn",
        "noteNumber": 74,
        "velocity": 91
      },
      {
        "deltaTime": 1,
        "channel": 0,
        "type": "noteOn",
        "noteNumber": 54,
        "velocity": 64
      },
      {
        "deltaTime": 0,
        "channel": 0,
        "type": "noteOn",
        "noteNumber": 71,
        "velocity": 88
      },
      {
        "deltaTime": 3,
        "channel": 0,
        "type": "noteOff",
        "noteNumber": 60,
        "velocity": 0,
        "byte9": true
      },
      {
        "deltaTime": 6,
        "running": true,
        "channel": 0,
        "type": "noteOff",
        "noteNumber": 54,
        "velocity": 0,
        "byte9": true
      },
      {
        "deltaTime": 23,
        "channel": 0,
        "type": "noteOff",
        "noteNumber": 71,
        "velocity": 0,
        "byte9": true
      },
      {
        "deltaTime": 8,
        "running": true,
        "channel": 0,
        "type": "noteOff",
        "noteNumber": 74,
        "velocity": 0,
        "byte9": true
      },
      {
        "deltaTime": 21,
        "running": true,
        "channel": 0,
        "type": "noteOn",
        "noteNumber": 74,
        "velocity": 68
      },
      {
        "deltaTime": 1,
        "running": true,
        "channel": 0,
        "type": "noteOn",
        "noteNumber": 71,
        "velocity": 74
      },
      {
        "deltaTime": 0,
        "channel": 0,
        "type": "noteOn",
        "noteNumber": 57,
        "velocity": 57
      },
      {
        "deltaTime": 2,
        "running": true,
        "channel": 0,
        "type": "noteOn",
        "noteNumber": 47,
        "velocity": 56
      },
      {
        "deltaTime": 2,
        "channel": 0,
        "type": "controller",
        "controllerType": 64,
        "value": 0
      },
      {
        "deltaTime": 34,
        "running": true,
        "channel": 0,
        "type": "controller",
        "controllerType": 64,
        "value": 85
      },
      {
        "deltaTime": 15,
        "channel": 0,
        "type": "noteOff",
        "noteNumber": 71,
        "velocity": 0,
        "byte9": true
      },
      {
        "deltaTime": 8,
        "running": true,
        "channel": 0,
        "type": "noteOn",
        "noteNumber": 72,
        "velocity": 60
      },
      {
        "deltaTime": 0,
        "channel": 0,
        "type": "noteOn",
        "noteNumber": 54,
        "velocity": 53
      },
      {
        "deltaTime": 3,
        "channel": 0,
        "type": "noteOn",
        "noteNumber": 69,
        "velocity": 56
      },
      {
        "deltaTime": 1,
        "channel": 0,
        "type": "noteOff",
        "noteNumber": 57,
        "velocity": 0,
        "byte9": true
      },
      {
        "deltaTime": 17,
        "channel": 0,
        "type": "noteOff",
        "noteNumber": 72,
        "velocity": 0,
        "byte9": true
      },
      {
        "deltaTime": 1,
        "running": true,
        "channel": 0,
        "type": "noteOff",
        "noteNumber": 74,
        "velocity": 0,
        "byte9": true
      },
      {
        "deltaTime": 0,
        "running": true,
        "channel": 0,
        "type": "noteOff",
        "noteNumber": 69,
        "velocity": 0,
        "byte9": true
      },
      {
        "deltaTime": 32,
        "channel": 0,
        "type": "controller",
        "controllerType": 86,
        "value": 4
      },
      {
        "deltaTime": 8,
        "channel": 0,
        "type": "noteOn",
        "noteNumber": 57,
        "velocity": 62
      },
      {
        "deltaTime": 0,
        "channel": 0,
        "type": "noteOn",
        "noteNumber": 71,
        "velocity": 67
      },
      {
        "deltaTime": 1,
        "running": true,
        "channel": 0,
        "type": "noteOn",
        "noteNumber": 67,
        "velocity": 63
      },
      {
        "deltaTime": 6,
        "channel": 0,
        "type": "controller",
        "controllerType": 64,
        "value": 0
      },
      {
        "deltaTime": 18,
        "channel": 0,
        "type": "noteOff",
        "noteNumber": 47,
        "velocity": 0,
        "byte9": true
      },
      {
        "deltaTime": 11,
        "channel": 0,
        "type": "controller",
        "controllerType": 64,
        "value": 85
      },
      {
        "deltaTime": 15,
        "channel": 0,
        "type": "noteOn",
        "noteNumber": 47,
        "velocity": 58
      },
      {
        "deltaTime": 3,
        "running": true,
        "channel": 0,
        "type": "noteOff",
        "noteNumber": 57,
        "velocity": 0,
        "byte9": true
      },
      {
        "deltaTime": 2,
        "running": true,
        "channel": 0,
        "type": "noteOff",
        "noteNumber": 54,
        "velocity": 0,
        "byte9": true
      },
      {
        "deltaTime": 10,
        "running": true,
        "channel": 0,
        "type": "noteOff",
        "noteNumber": 47,
        "velocity": 0,
        "byte9": true
      },
      {
        "deltaTime": 10,
        "channel": 0,
        "type": "noteOff",
        "noteNumber": 67,
        "velocity": 0,
        "byte9": true
      },
      {
        "deltaTime": 2,
        "running": true,
        "channel": 0,
        "type": "noteOff",
        "noteNumber": 71,
        "velocity": 0,
        "byte9": true
      },
      {
        "deltaTime": 9,
        "running": true,
        "channel": 0,
        "type": "noteOn",
        "noteNumber": 66,
        "velocity": 72
      },
      {
        "deltaTime": 0,
        "running": true,
        "channel": 0,
        "type": "noteOn",
        "noteNumber": 69,
        "velocity": 72
      },
      {
        "deltaTime": 14,
        "running": true,
        "channel": 0,
        "type": "noteOff",
        "noteNumber": 66,
        "velocity": 0,
        "byte9": true
      },
      {
        "deltaTime": 2,
        "running": true,
        "channel": 0,
        "type": "noteOff",
        "noteNumber": 69,
        "velocity": 0,
        "byte9": true
      },
      {
        "deltaTime": 17,
        "running": true,
        "channel": 0,
        "type": "noteOn",
        "noteNumber": 69,
        "velocity": 56
      },
      {
        "deltaTime": 1,
        "running": true,
        "channel": 0,
        "type": "noteOn",
        "noteNumber": 66,
        "velocity": 61
      },
      {
        "deltaTime": 0,
        "running": true,
        "channel": 0,
        "type": "noteOn",
        "noteNumber": 62,
        "velocity": 61
      },
      {
        "deltaTime": 3,
        "channel": 0,
        "type": "controller",
        "controllerType": 64,
        "value": 0
      },
      {
        "deltaTime": 0,
        "channel": 0,
        "type": "noteOn",
        "noteNumber": 40,
        "velocity": 63
      },
      {
        "deltaTime": 28,
        "channel": 0,
        "type": "controller",
        "controllerType": 64,
        "value": 85
      },
      {
        "deltaTime": 16,
        "channel": 0,
        "type": "noteOff",
        "noteNumber": 66,
        "velocity": 0,
        "byte9": true
      },
      {
        "deltaTime": 0,
        "channel": 0,
        "type": "noteOff",
        "noteNumber": 40,
        "velocity": 0,
        "byte9": true
      },
      {
        "deltaTime": 1,
        "channel": 0,
        "type": "noteOff",
        "noteNumber": 69,
        "velocity": 0,
        "byte9": true
      },
      {
        "deltaTime": 6,
        "channel": 0,
        "type": "noteOn",
        "noteNumber": 47,
        "velocity": 78
      },
      {
        "deltaTime": 1,
        "channel": 0,
        "type": "noteOff",
        "noteNumber": 62,
        "velocity": 0,
        "byte9": true
      },
      {
        "deltaTime": 56,
        "channel": 0,
        "type": "controller",
        "controllerType": 85,
        "value": 3
      },
      {
        "deltaTime": 0,
        "running": true,
        "channel": 0,
        "type": "controller",
        "controllerType": 86,
        "value": 3
      },
      {
        "deltaTime": 2,
        "channel": 0,
        "type": "noteOff",
        "noteNumber": 47,
        "velocity": 0,
        "byte9": true
      },
      {
        "deltaTime": 1,
        "channel": 0,
        "type": "noteOn",
        "noteNumber": 66,
        "velocity": 95
      },
      {
        "deltaTime": 0,
        "channel": 0,
        "type": "noteOn",
        "noteNumber": 54,
        "velocity": 88
      },
      {
        "deltaTime": 1,
        "channel": 0,
        "type": "noteOn",
        "noteNumber": 59,
        "velocity": 90
      },
      {
        "deltaTime": 0,
        "running": true,
        "channel": 0,
        "type": "noteOn",
        "noteNumber": 55,
        "velocity": 87
      },
      {
        "deltaTime": 2,
        "channel": 0,
        "type": "controller",
        "controllerType": 64,
        "value": 0
      },
      {
        "deltaTime": 0,
        "channel": 0,
        "type": "noteOn",
        "noteNumber": 62,
        "velocity": 74
      },
      {
        "deltaTime": 10,
        "channel": 0,
        "type": "controller",
        "controllerType": 64,
        "value": 85
      },
      {
        "deltaTime": 13,
        "channel": 0,
        "type": "noteOff",
        "noteNumber": 55,
        "velocity": 0,
        "byte9": true
      },
      {
        "deltaTime": 4,
        "channel": 0,
        "type": "noteOff",
        "noteNumber": 54,
        "velocity": 0,
        "byte9": true
      },
      {
        "deltaTime": 2,
        "channel": 0,
        "type": "noteOff",
        "noteNumber": 66,
        "velocity": 0,
        "byte9": true
      },
      {
        "deltaTime": 2,
        "running": true,
        "channel": 0,
        "type": "noteOff",
        "noteNumber": 59,
        "velocity": 0,
        "byte9": true
      },
      {
        "deltaTime": 2,
        "running": true,
        "channel": 0,
        "type": "noteOff",
        "noteNumber": 62,
        "velocity": 0,
        "byte9": true
      },
      {
        "deltaTime": 3,
        "running": true,
        "channel": 0,
        "type": "noteOn",
        "noteNumber": 59,
        "velocity": 61
      },
      {
        "deltaTime": 2,
        "running": true,
        "channel": 0,
        "type": "noteOn",
        "noteNumber": 67,
        "velocity": 90
      },
      {
        "deltaTime": 2,
        "channel": 0,
        "type": "noteOn",
        "noteNumber": 55,
        "velocity": 89
      },
      {
        "deltaTime": 2,
        "channel": 0,
        "type": "noteOn",
        "noteNumber": 62,
        "velocity": 52
      },
      {
        "deltaTime": 5,
        "channel": 0,
        "type": "controller",
        "controllerType": 64,
        "value": 0
      },
      {
        "deltaTime": 9,
        "channel": 0,
        "type": "noteOff",
        "noteNumber": 67,
        "velocity": 0,
        "byte9": true
      },
      {
        "deltaTime": 5,
        "running": true,
        "channel": 0,
        "type": "noteOff",
        "noteNumber": 59,
        "velocity": 0,
        "byte9": true
      },
      {
        "deltaTime": 0,
        "running": true,
        "channel": 0,
        "type": "noteOff",
        "noteNumber": 62,
        "velocity": 0,
        "byte9": true
      },
      {
        "deltaTime": 9,
        "channel": 0,
        "type": "noteOff",
        "noteNumber": 55,
        "velocity": 0,
        "byte9": true
      },
      {
        "deltaTime": 6,
        "channel": 0,
        "type": "noteOn",
        "noteNumber": 66,
        "velocity": 91
      },
      {
        "deltaTime": 2,
        "channel": 0,
        "type": "controller",
        "controllerType": 64,
        "value": 85
      },
      {
        "deltaTime": 1,
        "channel": 0,
        "type": "noteOn",
        "noteNumber": 55,
        "velocity": 65
      },
      {
        "deltaTime": 0,
        "channel": 0,
        "type": "noteOn",
        "noteNumber": 54,
        "velocity": 71
      },
      {
        "deltaTime": 0,
        "channel": 0,
        "type": "noteOn",
        "noteNumber": 59,
        "velocity": 72
      },
      {
        "deltaTime": 4,
        "running": true,
        "channel": 0,
        "type": "noteOn",
        "noteNumber": 62,
        "velocity": 56
      },
      {
        "deltaTime": 15,
        "running": true,
        "channel": 0,
        "type": "noteOff",
        "noteNumber": 55,
        "velocity": 0,
        "byte9": true
      },
      {
        "deltaTime": 1,
        "running": true,
        "channel": 0,
        "type": "noteOff",
        "noteNumber": 62,
        "velocity": 0,
        "byte9": true
      },
      {
        "deltaTime": 1,
        "running": true,
        "channel": 0,
        "type": "noteOff",
        "noteNumber": 66,
        "velocity": 0,
        "byte9": true
      },
      {
        "deltaTime": 4,
        "running": true,
        "channel": 0,
        "type": "noteOff",
        "noteNumber": 59,
        "velocity": 0,
        "byte9": true
      },
      {
        "deltaTime": 2,
        "channel": 0,
        "type": "noteOff",
        "noteNumber": 54,
        "velocity": 0,
        "byte9": true
      },
      {
        "deltaTime": 6,
        "channel": 0,
        "type": "noteOn",
        "noteNumber": 62,
        "velocity": 64
      },
      {
        "deltaTime": 0,
        "running": true,
        "channel": 0,
        "type": "noteOn",
        "noteNumber": 55,
        "velocity": 62
      },
      {
        "deltaTime": 2,
        "running": true,
        "channel": 0,
        "type": "noteOn",
        "noteNumber": 59,
        "velocity": 75
      },
      {
        "deltaTime": 1,
        "channel": 0,
        "type": "noteOn",
        "noteNumber": 52,
        "velocity": 67
      },
      {
        "deltaTime": 3,
        "channel": 0,
        "type": "controller",
        "controllerType": 64,
        "value": 0
      },
      {
        "deltaTime": 23,
        "running": true,
        "channel": 0,
        "type": "controller",
        "controllerType": 64,
        "value": 85
      },
      {
        "deltaTime": 23,
        "channel": 0,
        "type": "noteOff",
        "noteNumber": 52,
        "velocity": 0,
        "byte9": true
      },
      {
        "deltaTime": 15,
        "running": true,
        "channel": 0,
        "type": "noteOn",
        "noteNumber": 52,
        "velocity": 90
      },
      {
        "deltaTime": 25,
        "channel": 0,
        "type": "noteOff",
        "noteNumber": 62,
        "velocity": 0,
        "byte9": true
      },
      {
        "deltaTime": 0,
        "running": true,
        "channel": 0,
        "type": "noteOff",
        "noteNumber": 59,
        "velocity": 0,
        "byte9": true
      },
      {
        "deltaTime": 4,
        "running": true,
        "channel": 0,
        "type": "noteOff",
        "noteNumber": 55,
        "velocity": 0,
        "byte9": true
      },
      {
        "deltaTime": 27,
        "running": true,
        "channel": 0,
        "type": "noteOn",
        "noteNumber": 55,
        "velocity": 57
      },
      {
        "deltaTime": 1,
        "running": true,
        "channel": 0,
        "type": "noteOn",
        "noteNumber": 62,
        "velocity": 60
      },
      {
        "deltaTime": 1,
        "running": true,
        "channel": 0,
        "type": "noteOn",
        "noteNumber": 59,
        "velocity": 63
      },
      {
        "deltaTime": 1,
        "channel": 0,
        "type": "controller",
        "controllerType": 64,
        "value": 0
      },
      {
        "deltaTime": 22,
        "running": true,
        "channel": 0,
        "type": "controller",
        "controllerType": 64,
        "value": 85
      },
      {
        "deltaTime": 37,
        "channel": 0,
        "type": "noteOn",
        "noteNumber": 46,
        "velocity": 81
      },
      {
        "deltaTime": 5,
        "running": true,
        "channel": 0,
        "type": "noteOff",
        "noteNumber": 52,
        "velocity": 0,
        "byte9": true
      },
      {
        "deltaTime": 17,
        "channel": 0,
        "type": "noteOff",
        "noteNumber": 59,
        "velocity": 0,
        "byte9": true
      },
      {
        "deltaTime": 6,
        "running": true,
        "channel": 0,
        "type": "noteOff",
        "noteNumber": 55,
        "velocity": 0,
        "byte9": true
      },
      {
        "deltaTime": 0,
        "running": true,
        "channel": 0,
        "type": "noteOff",
        "noteNumber": 62,
        "velocity": 0,
        "byte9": true
      },
      {
        "deltaTime": 24,
        "channel": 0,
        "type": "noteOff",
        "noteNumber": 46,
        "velocity": 0,
        "byte9": true
      },
      {
        "deltaTime": 9,
        "running": true,
        "channel": 0,
        "type": "noteOn",
        "noteNumber": 45,
        "velocity": 81
      },
      {
        "deltaTime": 5,
        "channel": 0,
        "type": "controller",
        "controllerType": 64,
        "value": 0
      },
      {
        "deltaTime": 12,
        "meta": true,
        "type": "text",
        "text": "The 'A' half/whole dim.scale"
      },
      {
        "deltaTime": 24,
        "running": true,
        "channel": 0,
        "type": "controller",
        "controllerType": 64,
        "value": 85
      },
      {
        "deltaTime": 20,
        "channel": 0,
        "type": "noteOn",
        "noteNumber": 52,
        "velocity": 70
      },
      {
        "deltaTime": 48,
        "running": true,
        "channel": 0,
        "type": "noteOff",
        "noteNumber": 52,
        "velocity": 0,
        "byte9": true
      },
      {
        "deltaTime": 9,
        "running": true,
        "channel": 0,
        "type": "noteOn",
        "noteNumber": 55,
        "velocity": 63
      },
      {
        "deltaTime": 9,
        "channel": 0,
        "type": "controller",
        "controllerType": 64,
        "value": 0
      },
      {
        "deltaTime": 16,
        "channel": 0,
        "type": "noteOn",
        "noteNumber": 57,
        "velocity": 56
      },
      {
        "deltaTime": 6,
        "channel": 0,
        "type": "controller",
        "controllerType": 64,
        "value": 85
      },
      {
        "deltaTime": 6,
        "channel": 0,
        "type": "noteOff",
        "noteNumber": 57,
        "velocity": 0,
        "byte9": true
      },
      {
        "deltaTime": 3,
        "running": true,
        "channel": 0,
        "type": "noteOn",
        "noteNumber": 58,
        "velocity": 62
      },
      {
        "deltaTime": 16,
        "running": true,
        "channel": 0,
        "type": "noteOff",
        "noteNumber": 58,
        "velocity": 0,
        "byte9": true
      },
      {
        "deltaTime": 4,
        "running": true,
        "channel": 0,
        "type": "noteOn",
        "noteNumber": 60,
        "velocity": 53
      },
      {
        "deltaTime": 3,
        "channel": 0,
        "type": "noteOff",
        "noteNumber": 45,
        "velocity": 0,
        "byte9": true
      },
      {
        "deltaTime": 11,
        "channel": 0,
        "type": "noteOff",
        "noteNumber": 60,
        "velocity": 0,
        "byte9": true
      },
      {
        "deltaTime": 0,
        "running": true,
        "channel": 0,
        "type": "noteOn",
        "noteNumber": 61,
        "velocity": 68
      },
      {
        "deltaTime": 5,
        "channel": 0,
        "type": "noteOff",
        "noteNumber": 55,
        "velocity": 0,
        "byte9": true
      },
      {
        "deltaTime": 11,
        "channel": 0,
        "type": "noteOn",
        "noteNumber": 63,
        "velocity": 73
      },
      {
        "deltaTime": 2,
        "running": true,
        "channel": 0,
        "type": "noteOff",
        "noteNumber": 61,
        "velocity": 0,
        "byte9": true
      },
      {
        "deltaTime": 7,
        "running": true,
        "channel": 0,
        "type": "noteOff",
        "noteNumber": 63,
        "velocity": 0,
        "byte9": true
      },
      {
        "deltaTime": 4,
        "running": true,
        "channel": 0,
        "type": "noteOn",
        "noteNumber": 64,
        "velocity": 75
      },
      {
        "deltaTime": 18,
        "running": true,
        "channel": 0,
        "type": "noteOn",
        "noteNumber": 66,
        "velocity": 88
      },
      {
        "deltaTime": 2,
        "running": true,
        "channel": 0,
        "type": "noteOff",
        "noteNumber": 64,
        "velocity": 0,
        "byte9": true
      },
      {
        "deltaTime": 0,
        "channel": 0,
        "type": "noteOn",
        "noteNumber": 55,
        "velocity": 48
      },
      {
        "deltaTime": 2,
        "running": true,
        "channel": 0,
        "type": "noteOn",
        "noteNumber": 61,
        "velocity": 70
      },
      {
        "deltaTime": 2,
        "channel": 0,
        "type": "controller",
        "controllerType": 64,
        "value": 0
      },
      {
        "deltaTime": 6,
        "channel": 0,
        "type": "noteOff",
        "noteNumber": 66,
        "velocity": 0,
        "byte9": true
      },
      {
        "deltaTime": 6,
        "running": true,
        "channel": 0,
        "type": "noteOn",
        "noteNumber": 67,
        "velocity": 79
      },
      {
        "deltaTime": 14,
        "running": true,
        "channel": 0,
        "type": "noteOff",
        "noteNumber": 67,
        "velocity": 0,
        "byte9": true
      },
      {
        "deltaTime": 9,
        "running": true,
        "channel": 0,
        "type": "noteOn",
        "noteNumber": 69,
        "velocity": 59
      },
      {
        "deltaTime": 6,
        "channel": 0,
        "type": "noteOff",
        "noteNumber": 61,
        "velocity": 0,
        "byte9": true
      },
      {
        "deltaTime": 2,
        "channel": 0,
        "type": "noteOff",
        "noteNumber": 69,
        "velocity": 0,
        "byte9": true
      },
      {
        "deltaTime": 4,
        "running": true,
        "channel": 0,
        "type": "noteOn",
        "noteNumber": 70,
        "velocity": 64
      },
      {
        "deltaTime": 5,
        "running": true,
        "channel": 0,
        "type": "noteOff",
        "noteNumber": 70,
        "velocity": 0,
        "byte9": true
      },
      {
        "deltaTime": 11,
        "running": true,
        "channel": 0,
        "type": "noteOn",
        "noteNumber": 72,
        "velocity": 71
      },
      {
        "deltaTime": 8,
        "running": true,
        "channel": 0,
        "type": "noteOff",
        "noteNumber": 72,
        "velocity": 0,
        "byte9": true
      },
      {
        "deltaTime": 3,
        "running": true,
        "channel": 0,
        "type": "noteOn",
        "noteNumber": 73,
        "velocity": 65
      },
      {
        "deltaTime": 14,
        "running": true,
        "channel": 0,
        "type": "noteOff",
        "noteNumber": 73,
        "velocity": 0,
        "byte9": true
      },
      {
        "deltaTime": 3,
        "running": true,
        "channel": 0,
        "type": "noteOn",
        "noteNumber": 75,
        "velocity": 66
      },
      {
        "deltaTime": 11,
        "running": true,
        "channel": 0,
        "type": "noteOff",
        "noteNumber": 75,
        "velocity": 0,
        "byte9": true
      },
      {
        "deltaTime": 6,
        "running": true,
        "channel": 0,
        "type": "noteOn",
        "noteNumber": 76,
        "velocity": 87
      },
      {
        "deltaTime": 11,
        "channel": 0,
        "type": "noteOn",
        "noteNumber": 64,
        "velocity": 55
      },
      {
        "deltaTime": 1,
        "running": true,
        "channel": 0,
        "type": "noteOn",
        "noteNumber": 61,
        "velocity": 62
      },
      {
        "deltaTime": 7,
        "channel": 0,
        "type": "noteOn",
        "noteNumber": 78,
        "velocity": 95
      },
      {
        "deltaTime": 2,
        "running": true,
        "channel": 0,
        "type": "noteOff",
        "noteNumber": 76,
        "velocity": 0,
        "byte9": true
      },
      {
        "deltaTime": 18,
        "running": true,
        "channel": 0,
        "type": "noteOn",
        "noteNumber": 79,
        "velocity": 95
      },
      {
        "deltaTime": 4,
        "running": true,
        "channel": 0,
        "type": "noteOff",
        "noteNumber": 78,
        "velocity": 0,
        "byte9": true
      },
      {
        "deltaTime": 6,
        "channel": 0,
        "type": "controller",
        "controllerType": 64,
        "value": 85
      },
      {
        "deltaTime": 5,
        "channel": 0,
        "type": "noteOn",
        "noteNumber": 81,
        "velocity": 91
      },
      {
        "deltaTime": 3,
        "running": true,
        "channel": 0,
        "type": "noteOff",
        "noteNumber": 79,
        "velocity": 0,
        "byte9": true
      },
      {
        "deltaTime": 14,
        "running": true,
        "channel": 0,
        "type": "noteOff",
        "noteNumber": 81,
        "velocity": 0,
        "byte9": true
      },
      {
        "deltaTime": 1,
        "running": true,
        "channel": 0,
        "type": "noteOn",
        "noteNumber": 82,
        "velocity": 95
      },
      {
        "deltaTime": 2,
        "channel": 0,
        "type": "noteOff",
        "noteNumber": 55,
        "velocity": 0,
        "byte9": true
      },
      {
        "deltaTime": 12,
        "channel": 0,
        "type": "noteOff",
        "noteNumber": 82,
        "velocity": 0,
        "byte9": true
      },
      {
        "deltaTime": 5,
        "running": true,
        "channel": 0,
        "type": "noteOn",
        "noteNumber": 83,
        "velocity": 67
      },
      {
        "deltaTime": 5,
        "channel": 0,
        "type": "noteOff",
        "noteNumber": 64,
        "velocity": 0,
        "byte9": true
      },
      {
        "deltaTime": 5,
        "channel": 0,
        "type": "noteOff",
        "noteNumber": 83,
        "velocity": 0,
        "byte9": true
      },
      {
        "deltaTime": 3,
        "channel": 0,
        "type": "noteOff",
        "noteNumber": 61,
        "velocity": 0,
        "byte9": true
      },
      {
        "deltaTime": 7,
        "channel": 0,
        "type": "noteOn",
        "noteNumber": 84,
        "velocity": 67
      },
      {
        "deltaTime": 15,
        "running": true,
        "channel": 0,
        "type": "noteOff",
        "noteNumber": 84,
        "velocity": 0,
        "byte9": true
      },
      {
        "deltaTime": 7,
        "channel": 0,
        "type": "noteOn",
        "noteNumber": 61,
        "velocity": 53
      },
      {
        "deltaTime": 1,
        "channel": 0,
        "type": "noteOn",
        "noteNumber": 85,
        "velocity": 78
      },
      {
        "deltaTime": 0,
        "channel": 0,
        "type": "noteOn",
        "noteNumber": 64,
        "velocity": 63
      },
      {
        "deltaTime": 2,
        "channel": 0,
        "type": "noteOn",
        "noteNumber": 73,
        "velocity": 67
      },
      {
        "deltaTime": 1,
        "channel": 0,
        "type": "noteOn",
        "noteNumber": 54,
        "velocity": 40
      },
      {
        "deltaTime": 3,
        "channel": 0,
        "type": "controller",
        "controllerType": 64,
        "value": 0
      },
      {
        "deltaTime": 1,
        "channel": 0,
        "type": "noteOn",
        "noteNumber": 59,
        "velocity": 53
      },
      {
        "deltaTime": 5,
        "meta": true,
        "type": "text",
        "text": "The target is C# on the downbeat of this bar"
      },
      {
        "deltaTime": 27,
        "channel": 0,
        "type": "controller",
        "controllerType": 64,
        "value": 85
      },
      {
        "deltaTime": 34,
        "channel": 0,
        "type": "noteOff",
        "noteNumber": 64,
        "velocity": 0,
        "byte9": true
      },
      {
        "deltaTime": 1,
        "running": true,
        "channel": 0,
        "type": "noteOff",
        "noteNumber": 61,
        "velocity": 0,
        "byte9": true
      },
      {
        "deltaTime": 0,
        "running": true,
        "channel": 0,
        "type": "noteOff",
        "noteNumber": 59,
        "velocity": 0,
        "byte9": true
      },
      {
        "deltaTime": 11,
        "channel": 0,
        "type": "noteOff",
        "noteNumber": 73,
        "velocity": 0,
        "byte9": true
      },
      {
        "deltaTime": 2,
        "running": true,
        "channel": 0,
        "type": "noteOff",
        "noteNumber": 85,
        "velocity": 0,
        "byte9": true
      },
      {
        "deltaTime": 32,
        "channel": 0,
        "type": "noteOn",
        "noteNumber": 61,
        "velocity": 49
      },
      {
        "deltaTime": 1,
        "running": true,
        "channel": 0,
        "type": "noteOn",
        "noteNumber": 64,
        "velocity": 56
      },
      {
        "deltaTime": 0,
        "channel": 0,
        "type": "noteOn",
        "noteNumber": 85,
        "velocity": 65
      },
      {
        "deltaTime": 2,
        "running": true,
        "channel": 0,
        "type": "noteOn",
        "noteNumber": 73,
        "velocity": 54
      },
      {
        "deltaTime": 1,
        "channel": 0,
        "type": "noteOn",
        "noteNumber": 59,
        "velocity": 47
      },
      {
        "deltaTime": 4,
        "channel": 0,
        "type": "noteOff",
        "noteNumber": 85,
        "velocity": 0,
        "byte9": true
      },
      {
        "deltaTime": 6,
        "running": true,
        "channel": 0,
        "type": "noteOff",
        "noteNumber": 73,
        "velocity": 0,
        "byte9": true
      },
      {
        "deltaTime": 26,
        "channel": 0,
        "type": "noteOff",
        "noteNumber": 64,
        "velocity": 0,
        "byte9": true
      },
      {
        "deltaTime": 6,
        "running": true,
        "channel": 0,
        "type": "noteOff",
        "noteNumber": 61,
        "velocity": 0,
        "byte9": true
      },
      {
        "deltaTime": 4,
        "running": true,
        "channel": 0,
        "type": "noteOff",
        "noteNumber": 59,
        "velocity": 0,
        "byte9": true
      },
      {
        "deltaTime": 13,
        "channel": 0,
        "type": "noteOn",
        "noteNumber": 69,
        "velocity": 71
      },
      {
        "deltaTime": 0,
        "running": true,
        "channel": 0,
        "type": "noteOn",
        "noteNumber": 81,
        "velocity": 68
      },
      {
        "deltaTime": 2,
        "channel": 0,
        "type": "noteOn",
        "noteNumber": 64,
        "velocity": 64
      },
      {
        "deltaTime": 1,
        "running": true,
        "channel": 0,
        "type": "noteOn",
        "noteNumber": 61,
        "velocity": 45
      },
      {
        "deltaTime": 5,
        "running": true,
        "channel": 0,
        "type": "noteOn",
        "noteNumber": 59,
        "velocity": 42
      },
      {
        "deltaTime": 15,
        "running": true,
        "channel": 0,
        "type": "noteOff",
        "noteNumber": 59,
        "velocity": 0,
        "byte9": true
      },
      {
        "deltaTime": 8,
        "running": true,
        "channel": 0,
        "type": "noteOff",
        "noteNumber": 54,
        "velocity": 0,
        "byte9": true
      },
      {
        "deltaTime": 0,
        "channel": 0,
        "type": "noteOff",
        "noteNumber": 81,
        "velocity": 0,
        "byte9": true
      },
      {
        "deltaTime": 3,
        "channel": 0,
        "type": "noteOff",
        "noteNumber": 64,
        "velocity": 0,
        "byte9": true
      },
      {
        "deltaTime": 1,
        "channel": 0,
        "type": "noteOff",
        "noteNumber": 69,
        "velocity": 0,
        "byte9": true
      },
      {
        "deltaTime": 2,
        "channel": 0,
        "type": "noteOff",
        "noteNumber": 61,
        "velocity": 0,
        "byte9": true
      },
      {
        "deltaTime": 20,
        "channel": 0,
        "type": "controller",
        "controllerType": 64,
        "value": 0
      },
      {
        "deltaTime": 2,
        "channel": 0,
        "type": "noteOn",
        "noteNumber": 64,
        "velocity": 64
      },
      {
        "deltaTime": 0,
        "channel": 0,
        "type": "noteOn",
        "noteNumber": 69,
        "velocity": 70
      },
      {
        "deltaTime": 0,
        "running": true,
        "channel": 0,
        "type": "noteOn",
        "noteNumber": 81,
        "velocity": 70
      },
      {
        "deltaTime": 2,
        "channel": 0,
        "type": "noteOn",
        "noteNumber": 61,
        "velocity": 49
      },
      {
        "deltaTime": 4,
        "running": true,
        "channel": 0,
        "type": "noteOn",
        "noteNumber": 59,
        "velocity": 49
      },
      {
        "deltaTime": 13,
        "channel": 0,
        "type": "controller",
        "controllerType": 64,
        "value": 85
      },
      {
        "deltaTime": 29,
        "channel": 0,
        "type": "noteOff",
        "noteNumber": 81,
        "velocity": 0,
        "byte9": true
      },
      {
        "deltaTime": 7,
        "running": true,
        "channel": 0,
        "type": "noteOff",
        "noteNumber": 69,
        "velocity": 0,
        "byte9": true
      },
      {
        "deltaTime": 2,
        "channel": 0,
        "type": "noteOff",
        "noteNumber": 64,
        "velocity": 0,
        "byte9": true
      },
      {
        "deltaTime": 1,
        "running": true,
        "channel": 0,
        "type": "noteOn",
        "noteNumber": 54,
        "velocity": 74
      },
      {
        "deltaTime": 7,
        "running": true,
        "channel": 0,
        "type": "noteOff",
        "noteNumber": 59,
        "velocity": 0,
        "byte9": true
      },
      {
        "deltaTime": 7,
        "running": true,
        "channel": 0,
        "type": "noteOff",
        "noteNumber": 61,
        "velocity": 0,
        "byte9": true
      },
      {
        "deltaTime": 8,
        "running": true,
        "channel": 0,
        "type": "noteOff",
        "noteNumber": 54,
        "velocity": 0,
        "byte9": true
      },
      {
        "deltaTime": 32,
        "channel": 0,
        "type": "noteOn",
        "noteNumber": 62,
        "velocity": 58
      },
      {
        "deltaTime": 25,
        "running": true,
        "channel": 0,
        "type": "noteOff",
        "noteNumber": 62,
        "velocity": 0,
        "byte9": true
      },
      {
        "deltaTime": 34,
        "running": true,
        "channel": 0,
        "type": "noteOn",
        "noteNumber": 66,
        "velocity": 93
      },
      {
        "deltaTime": 30,
        "running": true,
        "channel": 0,
        "type": "noteOff",
        "noteNumber": 66,
        "velocity": 0,
        "byte9": true
      },
      {
        "deltaTime": 29,
        "running": true,
        "channel": 0,
        "type": "noteOn",
        "noteNumber": 66,
        "velocity": 73
      },
      {
        "deltaTime": 2,
        "running": true,
        "channel": 0,
        "type": "noteOn",
        "noteNumber": 62,
        "velocity": 63
      },
      {
        "deltaTime": 0,
        "channel": 0,
        "type": "noteOn",
        "noteNumber": 47,
        "velocity": 62
      },
      {
        "deltaTime": 2,
        "running": true,
        "channel": 0,
        "type": "noteOn",
        "noteNumber": 57,
        "velocity": 57
      },
      {
        "deltaTime": 1,
        "channel": 0,
        "type": "controller",
        "controllerType": 64,
        "value": 0
      },
      {
        "deltaTime": 37,
        "running": true,
        "channel": 0,
        "type": "controller",
        "controllerType": 64,
        "value": 85
      },
      {
        "deltaTime": 13,
        "channel": 0,
        "type": "noteOff",
        "noteNumber": 66,
        "velocity": 0,
        "byte9": true
      },
      {
        "deltaTime": 4,
        "channel": 0,
        "type": "controller",
        "controllerType": 64,
        "value": 0
      },
      {
        "deltaTime": 2,
        "channel": 0,
        "type": "noteOn",
        "noteNumber": 67,
        "velocity": 90
      },
      {
        "deltaTime": 0,
        "channel": 0,
        "type": "noteOn",
        "noteNumber": 54,
        "velocity": 60
      },
      {
        "deltaTime": 22,
        "channel": 0,
        "type": "controller",
        "controllerType": 64,
        "value": 85
      },
      {
        "deltaTime": 23,
        "channel": 0,
        "type": "noteOff",
        "noteNumber": 67,
        "velocity": 0,
        "byte9": true
      },
      {
        "deltaTime": 12,
        "channel": 0,
        "type": "controller",
        "controllerType": 64,
        "value": 0
      },
      {
        "deltaTime": 4,
        "channel": 0,
        "type": "noteOn",
        "noteNumber": 66,
        "velocity": 93
      },
      {
        "deltaTime": 1,
        "channel": 0,
        "type": "noteOff",
        "noteNumber": 47,
        "velocity": 0,
        "byte9": true
      },
      {
        "deltaTime": 18,
        "channel": 0,
        "type": "controller",
        "controllerType": 64,
        "value": 85
      },
      {
        "deltaTime": 30,
        "channel": 0,
        "type": "noteOff",
        "noteNumber": 66,
        "velocity": 0,
        "byte9": true
      },
      {
        "deltaTime": 9,
        "channel": 0,
        "type": "noteOn",
        "noteNumber": 47,
        "velocity": 61
      },
      {
        "deltaTime": 0,
        "channel": 0,
        "type": "noteOn",
        "noteNumber": 67,
        "velocity": 85
      },
      {
        "deltaTime": 10,
        "channel": 0,
        "type": "noteOff",
        "noteNumber": 47,
        "velocity": 0,
        "byte9": true
      },
      {
        "deltaTime": 29,
        "channel": 0,
        "type": "noteOff",
        "noteNumber": 67,
        "velocity": 0,
        "byte9": true
      },
      {
        "deltaTime": 20,
        "running": true,
        "channel": 0,
        "type": "noteOff",
        "noteNumber": 62,
        "velocity": 0,
        "byte9": true
      },
      {
        "deltaTime": 3,
        "running": true,
        "channel": 0,
        "type": "noteOn",
        "noteNumber": 66,
        "velocity": 68
      },
      {
        "deltaTime": 0,
        "channel": 0,
        "type": "noteOn",
        "noteNumber": 45,
        "velocity": 65
      },
      {
        "deltaTime": 4,
        "channel": 0,
        "type": "controller",
        "controllerType": 64,
        "value": 0
      },
      {
        "deltaTime": 6,
        "channel": 0,
        "type": "noteOff",
        "noteNumber": 54,
        "velocity": 0,
        "byte9": true
      },
      {
        "deltaTime": 10,
        "running": true,
        "channel": 0,
        "type": "noteOff",
        "noteNumber": 57,
        "velocity": 0,
        "byte9": true
      },
      {
        "deltaTime": 40,
        "running": true,
        "channel": 0,
        "type": "noteOn",
        "noteNumber": 54,
        "velocity": 75
      },
      {
        "deltaTime": 14,
        "channel": 0,
        "type": "controller",
        "controllerType": 64,
        "value": 85
      },
      {
        "deltaTime": 46,
        "channel": 0,
        "type": "noteOn",
        "noteNumber": 62,
        "velocity": 69
      },
      {
        "deltaTime": 0,
        "channel": 0,
        "type": "noteOn",
        "noteNumber": 57,
        "velocity": 68
      },
      {
        "deltaTime": 5,
        "running": true,
        "channel": 0,
        "type": "noteOff",
        "noteNumber": 54,
        "velocity": 0,
        "byte9": true
      },
      {
        "deltaTime": 1,
        "running": true,
        "channel": 0,
        "type": "noteOff",
        "noteNumber": 45,
        "velocity": 0,
        "byte9": true
      },
      {
        "deltaTime": 28,
        "channel": 0,
        "type": "noteOff",
        "noteNumber": 66,
        "velocity": 0,
        "byte9": true
      },
      {
        "deltaTime": 6,
        "running": true,
        "channel": 0,
        "type": "noteOff",
        "noteNumber": 62,
        "velocity": 0,
        "byte9": true
      },
      {
        "deltaTime": 15,
        "channel": 0,
        "type": "noteOff",
        "noteNumber": 57,
        "velocity": 0,
        "byte9": true
      },
      {
        "deltaTime": 4,
        "running": true,
        "channel": 0,
        "type": "noteOn",
        "noteNumber": 45,
        "velocity": 60
      },
      {
        "deltaTime": 20,
        "running": true,
        "channel": 0,
        "type": "noteOff",
        "noteNumber": 45,
        "velocity": 0,
        "byte9": true
      },
      {
        "deltaTime": 37,
        "channel": 0,
        "type": "controller",
        "controllerType": 85,
        "value": 4
      },
      {
        "deltaTime": 0,
        "running": true,
        "channel": 0,
        "type": "controller",
        "controllerType": 86,
        "value": 4
      },
      {
        "deltaTime": 11,
        "channel": 0,
        "type": "noteOn",
        "noteNumber": 54,
        "velocity": 62
      },
      {
        "deltaTime": 1,
        "channel": 0,
        "type": "noteOn",
        "noteNumber": 58,
        "velocity": 61
      },
      {
        "deltaTime": 1,
        "running": true,
        "channel": 0,
        "type": "noteOn",
        "noteNumber": 62,
        "velocity": 58
      },
      {
        "deltaTime": 0,
        "running": true,
        "channel": 0,
        "type": "noteOn",
        "noteNumber": 59,
        "velocity": 67
      },
      {
        "deltaTime": 1,
        "channel": 0,
        "type": "noteOn",
        "noteNumber": 44,
        "velocity": 49
      },
      {
        "deltaTime": 2,
        "channel": 0,
        "type": "controller",
        "controllerType": 64,
        "value": 0
      },
      {
        "deltaTime": 2,
        "channel": 0,
        "type": "noteOff",
        "noteNumber": 54,
        "velocity": 0,
        "byte9": true
      },
      {
        "deltaTime": 1,
        "channel": 0,
        "type": "noteOff",
        "noteNumber": 58,
        "velocity": 0,
        "byte9": true
      },
      {
        "deltaTime": 1,
        "running": true,
        "channel": 0,
        "type": "noteOff",
        "noteNumber": 59,
        "velocity": 0,
        "byte9": true
      },
      {
        "deltaTime": 5,
        "running": true,
        "channel": 0,
        "type": "noteOff",
        "noteNumber": 62,
        "velocity": 0,
        "byte9": true
      },
      {
        "deltaTime": 0,
        "channel": 0,
        "type": "noteOff",
        "noteNumber": 44,
        "velocity": 0,
        "byte9": true
      },
      {
        "deltaTime": 9,
        "meta": true,
        "type": "text",
        "text": "Preparing for new key - Gb major"
      },
      {
        "deltaTime": 32,
        "running": true,
        "channel": 0,
        "type": "noteOn",
        "noteNumber": 54,
        "velocity": 65
      },
      {
        "deltaTime": 1,
        "channel": 0,
        "type": "noteOn",
        "noteNumber": 58,
        "velocity": 70
      },
      {
        "deltaTime": 1,
        "running": true,
        "channel": 0,
        "type": "noteOn",
        "noteNumber": 59,
        "velocity": 69
      },
      {
        "deltaTime": 1,
        "running": true,
        "channel": 0,
        "type": "noteOn",
        "noteNumber": 62,
        "velocity": 51
      },
      {
        "deltaTime": 0,
        "channel": 0,
        "type": "noteOn",
        "noteNumber": 44,
        "velocity": 66
      },
      {
        "deltaTime": 4,
        "running": true,
        "channel": 0,
        "type": "noteOff",
        "noteNumber": 54,
        "velocity": 0,
        "byte9": true
      },
      {
        "deltaTime": 5,
        "channel": 0,
        "type": "noteOff",
        "noteNumber": 58,
        "velocity": 0,
        "byte9": true
      },
      {
        "deltaTime": 0,
        "channel": 0,
        "type": "noteOff",
        "noteNumber": 44,
        "velocity": 0,
        "byte9": true
      },
      {
        "deltaTime": 1,
        "channel": 0,
        "type": "noteOff",
        "noteNumber": 59,
        "velocity": 0,
        "byte9": true
      },
      {
        "deltaTime": 1,
        "running": true,
        "channel": 0,
        "type": "noteOff",
        "noteNumber": 62,
        "velocity": 0,
        "byte9": true
      },
      {
        "deltaTime": 40,
        "channel": 0,
        "type": "controller",
        "controllerType": 85,
        "value": 6
      },
      {
        "deltaTime": 0,
        "running": true,
        "channel": 0,
        "type": "controller",
        "controllerType": 86,
        "value": 6
      },
      {
        "deltaTime": 7,
        "channel": 0,
        "type": "noteOn",
        "noteNumber": 54,
        "velocity": 56
      },
      {
        "deltaTime": 1,
        "running": true,
        "channel": 0,
        "type": "noteOn",
        "noteNumber": 44,
        "velocity": 65
      },
      {
        "deltaTime": 0,
        "channel": 0,
        "type": "noteOn",
        "noteNumber": 58,
        "velocity": 60
      },
      {
        "deltaTime": 0,
        "running": true,
        "channel": 0,
        "type": "noteOn",
        "noteNumber": 62,
        "velocity": 57
      },
      {
        "deltaTime": 1,
        "running": true,
        "channel": 0,
        "type": "noteOn",
        "noteNumber": 59,
        "velocity": 64
      },
      {
        "deltaTime": 15,
        "channel": 0,
        "type": "controller",
        "controllerType": 64,
        "value": 85
      },
      {
        "deltaTime": 65,
        "channel": 0,
        "type": "noteOff",
        "noteNumber": 54,
        "velocity": 0,
        "byte9": true
      },
      {
        "deltaTime": 0,
        "channel": 0,
        "type": "noteOff",
        "noteNumber": 58,
        "velocity": 0,
        "byte9": true
      },
      {
        "deltaTime": 1,
        "channel": 0,
        "type": "noteOff",
        "noteNumber": 44,
        "velocity": 0,
        "byte9": true
      },
      {
        "deltaTime": 1,
        "channel": 0,
        "type": "noteOff",
        "noteNumber": 59,
        "velocity": 0,
        "byte9": true
      },
      {
        "deltaTime": 1,
        "running": true,
        "channel": 0,
        "type": "noteOff",
        "noteNumber": 62,
        "velocity": 0,
        "byte9": true
      },
      {
        "deltaTime": 15,
        "channel": 0,
        "type": "noteOn",
        "noteNumber": 44,
        "velocity": 70
      },
      {
        "deltaTime": 1,
        "channel": 0,
        "type": "noteOn",
        "noteNumber": 58,
        "velocity": 70
      },
      {
        "deltaTime": 1,
        "running": true,
        "channel": 0,
        "type": "noteOn",
        "noteNumber": 59,
        "velocity": 63
      },
      {
        "deltaTime": 0,
        "running": true,
        "channel": 0,
        "type": "noteOn",
        "noteNumber": 62,
        "velocity": 57
      },
      {
        "deltaTime": 7,
        "channel": 0,
        "type": "noteOff",
        "noteNumber": 44,
        "velocity": 0,
        "byte9": true
      },
      {
        "deltaTime": 0,
        "channel": 0,
        "type": "noteOff",
        "noteNumber": 59,
        "velocity": 0,
        "byte9": true
      },
      {
        "deltaTime": 1,
        "running": true,
        "channel": 0,
        "type": "noteOff",
        "noteNumber": 58,
        "velocity": 0,
        "byte9": true
      },
      {
        "deltaTime": 3,
        "running": true,
        "channel": 0,
        "type": "noteOff",
        "noteNumber": 62,
        "velocity": 0,
        "byte9": true
      },
      {
        "deltaTime": 18,
        "channel": 0,
        "type": "controller",
        "controllerType": 64,
        "value": 0
      },
      {
        "deltaTime": 0,
        "channel": 0,
        "type": "noteOn",
        "noteNumber": 54,
        "velocity": 78
      },
      {
        "deltaTime": 1,
        "running": true,
        "channel": 0,
        "type": "noteOn",
        "noteNumber": 62,
        "velocity": 58
      },
      {
        "deltaTime": 1,
        "channel": 0,
        "type": "noteOn",
        "noteNumber": 44,
        "velocity": 60
      },
      {
        "deltaTime": 0,
        "channel": 0,
        "type": "noteOn",
        "noteNumber": 58,
        "velocity": 50
      },
      {
        "deltaTime": 1,
        "running": true,
        "channel": 0,
        "type": "noteOn",
        "noteNumber": 59,
        "velocity": 46
      },
      {
        "deltaTime": 19,
        "channel": 0,
        "type": "noteOff",
        "noteNumber": 44,
        "velocity": 0,
        "byte9": true
      },
      {
        "deltaTime": 1,
        "channel": 0,
        "type": "noteOff",
        "noteNumber": 58,
        "velocity": 0,
        "byte9": true
      },
      {
        "deltaTime": 1,
        "running": true,
        "channel": 0,
        "type": "noteOff",
        "noteNumber": 54,
        "velocity": 0,
        "byte9": true
      },
      {
        "deltaTime": 2,
        "running": true,
        "channel": 0,
        "type": "noteOff",
        "noteNumber": 62,
        "velocity": 0,
        "byte9": true
      },
      {
        "deltaTime": 0,
        "running": true,
        "channel": 0,
        "type": "noteOff",
        "noteNumber": 59,
        "velocity": 0,
        "byte9": true
      },
      {
        "deltaTime": 11,
        "channel": 0,
        "type": "controller",
        "controllerType": 64,
        "value": 85
      },
      {
        "deltaTime": 8,
        "running": true,
        "channel": 0,
        "type": "controller",
        "controllerType": 64,
        "value": 0
      },
      {
        "deltaTime": 10,
        "channel": 0,
        "type": "noteOn",
        "noteNumber": 54,
        "velocity": 69
      },
      {
        "deltaTime": 3,
        "running": true,
        "channel": 0,
        "type": "noteOn",
        "noteNumber": 62,
        "velocity": 60
      },
      {
        "deltaTime": 0,
        "channel": 0,
        "type": "noteOn",
        "noteNumber": 44,
        "velocity": 68
      },
      {
        "deltaTime": 0,
        "channel": 0,
        "type": "noteOn",
        "noteNumber": 58,
        "velocity": 60
      },
      {
        "deltaTime": 2,
        "running": true,
        "channel": 0,
        "type": "noteOn",
        "noteNumber": 59,
        "velocity": 58
      },
      {
        "deltaTime": 12,
        "channel": 0,
        "type": "controller",
        "controllerType": 64,
        "value": 85
      },
      {
        "deltaTime": 28,
        "channel": 0,
        "type": "noteOff",
        "noteNumber": 58,
        "velocity": 0,
        "byte9": true
      },
      {
        "deltaTime": 6,
        "running": true,
        "channel": 0,
        "type": "noteOff",
        "noteNumber": 62,
        "velocity": 0,
        "byte9": true
      },
      {
        "deltaTime": 3,
        "running": true,
        "channel": 0,
        "type": "noteOff",
        "noteNumber": 59,
        "velocity": 0,
        "byte9": true
      },
      {
        "deltaTime": 7,
        "channel": 0,
        "type": "controller",
        "controllerType": 64,
        "value": 0
      },
      {
        "deltaTime": 0,
        "channel": 0,
        "type": "noteOn",
        "noteNumber": 59,
        "velocity": 51
      },
      {
        "deltaTime": 1,
        "running": true,
        "channel": 0,
        "type": "noteOn",
        "noteNumber": 58,
        "velocity": 64
      },
      {
        "deltaTime": 17,
        "channel": 0,
        "type": "controller",
        "controllerType": 64,
        "value": 85
      },
      {
        "deltaTime": 3,
        "channel": 0,
        "type": "noteOff",
        "noteNumber": 44,
        "velocity": 0,
        "byte9": true
      },
      {
        "deltaTime": 18,
        "channel": 0,
        "type": "noteOff",
        "noteNumber": 54,
        "velocity": 0,
        "byte9": true
      },
      {
        "deltaTime": 8,
        "running": true,
        "channel": 0,
        "type": "noteOff",
        "noteNumber": 58,
        "velocity": 0,
        "byte9": true
      },
      {
        "deltaTime": 6,
        "running": true,
        "channel": 0,
        "type": "noteOn",
        "noteNumber": 54,
        "velocity": 70
      },
      {
        "deltaTime": 2,
        "channel": 0,
        "type": "controller",
        "controllerType": 64,
        "value": 0
      },
      {
        "deltaTime": 2,
        "channel": 0,
        "type": "noteOn",
        "noteNumber": 62,
        "velocity": 62
      },
      {
        "deltaTime": 0,
        "channel": 0,
        "type": "noteOn",
        "noteNumber": 44,
        "velocity": 70
      },
      {
        "deltaTime": 18,
        "channel": 0,
        "type": "controller",
        "controllerType": 64,
        "value": 85
      },
      {
        "deltaTime": 2,
        "channel": 0,
        "type": "noteOff",
        "noteNumber": 44,
        "velocity": 0,
        "byte9": true
      },
      {
        "deltaTime": 2,
        "channel": 0,
        "type": "noteOff",
        "noteNumber": 62,
        "velocity": 0,
        "byte9": true
      },
      {
        "deltaTime": 22,
        "running": true,
        "channel": 0,
        "type": "noteOff",
        "noteNumber": 54,
        "velocity": 0,
        "byte9": true
      },
      {
        "deltaTime": 9,
        "running": true,
        "channel": 0,
        "type": "noteOff",
        "noteNumber": 59,
        "velocity": 0,
        "byte9": true
      },
      {
        "deltaTime": 3,
        "running": true,
        "channel": 0,
        "type": "noteOn",
        "noteNumber": 54,
        "velocity": 78
      },
      {
        "deltaTime": 2,
        "running": true,
        "channel": 0,
        "type": "noteOn",
        "noteNumber": 61,
        "velocity": 77
      },
      {
        "deltaTime": 1,
        "running": true,
        "channel": 0,
        "type": "noteOn",
        "noteNumber": 59,
        "velocity": 34
      },
      {
        "deltaTime": 2,
        "channel": 0,
        "type": "noteOn",
        "noteNumber": 37,
        "velocity": 71
      },
      {
        "deltaTime": 5,
        "channel": 0,
        "type": "controller",
        "controllerType": 64,
        "value": 0
      },
      {
        "deltaTime": 27,
        "channel": 0,
        "type": "noteOff",
        "noteNumber": 37,
        "velocity": 0,
        "byte9": true
      },
      {
        "deltaTime": 21,
        "running": true,
        "channel": 0,
        "type": "noteOn",
        "noteNumber": 37,
        "velocity": 79
      },
      {
        "deltaTime": 16,
        "channel": 0,
        "type": "controller",
        "controllerType": 64,
        "value": 85
      },
      {
        "deltaTime": 19,
        "channel": 0,
        "type": "noteOff",
        "noteNumber": 54,
        "velocity": 0,
        "byte9": true
      },
      {
        "deltaTime": 9,
        "running": true,
        "channel": 0,
        "type": "noteOff",
        "noteNumber": 61,
        "velocity": 0,
        "byte9": true
      },
      {
        "deltaTime": 3,
        "running": true,
        "channel": 0,
        "type": "noteOff",
        "noteNumber": 59,
        "velocity": 0,
        "byte9": true
      },
      {
        "deltaTime": 9,
        "running": true,
        "channel": 0,
        "type": "noteOn",
        "noteNumber": 61,
        "velocity": 69
      },
      {
        "deltaTime": 1,
        "running": true,
        "channel": 0,
        "type": "noteOn",
        "noteNumber": 53,
        "velocity": 73
      },
      {
        "deltaTime": 2,
        "running": true,
        "channel": 0,
        "type": "noteOn",
        "noteNumber": 59,
        "velocity": 76
      },
      {
        "deltaTime": 4,
        "channel": 0,
        "type": "controller",
        "controllerType": 64,
        "value": 0
      },
      {
        "deltaTime": 55,
        "channel": 0,
        "type": "noteOn",
        "noteNumber": 44,
        "velocity": 74
      },
      {
        "deltaTime": 5,
        "channel": 0,
        "type": "controller",
        "controllerType": 64,
        "value": 85
      },
      {
        "deltaTime": 22,
        "channel": 0,
        "type": "noteOff",
        "noteNumber": 53,
        "velocity": 0,
        "byte9": true
      },
      {
        "deltaTime": 6,
        "channel": 0,
        "type": "noteOff",
        "noteNumber": 37,
        "velocity": 0,
        "byte9": true
      },
      {
        "deltaTime": 0,
        "channel": 0,
        "type": "noteOff",
        "noteNumber": 61,
        "velocity": 0,
        "byte9": true
      },
      {
        "deltaTime": 4,
        "running": true,
        "channel": 0,
        "type": "noteOff",
        "noteNumber": 59,
        "velocity": 0,
        "byte9": true
      },
      {
        "deltaTime": 19,
        "channel": 0,
        "type": "noteOff",
        "noteNumber": 44,
        "velocity": 0,
        "byte9": true
      },
      {
        "deltaTime": 7,
        "channel": 0,
        "type": "noteOn",
        "noteNumber": 61,
        "velocity": 66
      },
      {
        "deltaTime": 1,
        "channel": 0,
        "type": "noteOn",
        "noteNumber": 44,
        "velocity": 48
      },
      {
        "deltaTime": 1,
        "channel": 0,
        "type": "noteOn",
        "noteNumber": 59,
        "velocity": 65
      },
      {
        "deltaTime": 1,
        "running": true,
        "channel": 0,
        "type": "noteOn",
        "noteNumber": 53,
        "velocity": 55
      },
      {
        "deltaTime": 34,
        "running": true,
        "channel": 0,
        "type": "noteOff",
        "noteNumber": 53,
        "velocity": 0,
        "byte9": true
      },
      {
        "deltaTime": 26,
        "channel": 0,
        "type": "noteOn",
        "noteNumber": 53,
        "velocity": 91
      },
      {
        "deltaTime": 21,
        "channel": 0,
        "type": "noteOff",
        "noteNumber": 61,
        "velocity": 0,
        "byte9": true
      },
      {
        "deltaTime": 13,
        "running": true,
        "channel": 0,
        "type": "noteOff",
        "noteNumber": 59,
        "velocity": 0,
        "byte9": true
      },
      {
        "deltaTime": 21,
        "channel": 0,
        "type": "controller",
        "controllerType": 64,
        "value": 0
      },
      {
        "deltaTime": 3,
        "channel": 0,
        "type": "noteOn",
        "noteNumber": 61,
        "velocity": 56
      },
      {
        "deltaTime": 0,
        "running": true,
        "channel": 0,
        "type": "noteOn",
        "noteNumber": 59,
        "velocity": 65
      },
      {
        "deltaTime": 3,
        "channel": 0,
        "type": "controller",
        "controllerType": 64,
        "value": 85
      },
      {
        "deltaTime": 5,
        "channel": 0,
        "type": "noteOff",
        "noteNumber": 44,
        "velocity": 0,
        "byte9": true
      },
      {
        "deltaTime": 31,
        "channel": 0,
        "type": "noteOff",
        "noteNumber": 59,
        "velocity": 0,
        "byte9": true
      },
      {
        "deltaTime": 16,
        "channel": 0,
        "type": "noteOff",
        "noteNumber": 53,
        "velocity": 0,
        "byte9": true
      },
      {
        "deltaTime": 2,
        "running": true,
        "channel": 0,
        "type": "noteOn",
        "noteNumber": 44,
        "velocity": 55
      },
      {
        "deltaTime": 7,
        "channel": 0,
        "type": "noteOff",
        "noteNumber": 61,
        "velocity": 0,
        "byte9": true
      },
      {
        "deltaTime": 2,
        "channel": 0,
        "type": "noteOff",
        "noteNumber": 44,
        "velocity": 0,
        "byte9": true
      },
      {
        "deltaTime": 49,
        "running": true,
        "channel": 0,
        "type": "noteOn",
        "noteNumber": 51,
        "velocity": 65
      },
      {
        "deltaTime": 2,
        "channel": 0,
        "type": "noteOn",
        "noteNumber": 61,
        "velocity": 62
      },
      {
        "deltaTime": 2,
        "running": true,
        "channel": 0,
        "type": "noteOn",
        "noteNumber": 56,
        "velocity": 62
      },
      {
        "deltaTime": 2,
        "channel": 0,
        "type": "controller",
        "controllerType": 64,
        "value": 0
      },
      {
        "deltaTime": 0,
        "channel": 0,
        "type": "noteOn",
        "noteNumber": 58,
        "velocity": 46
      },
      {
        "deltaTime": 1,
        "channel": 0,
        "type": "noteOn",
        "noteNumber": 42,
        "velocity": 63
      },
      {
        "deltaTime": 8,
        "running": true,
        "channel": 0,
        "type": "noteOff",
        "noteNumber": 51,
        "velocity": 0,
        "byte9": true
      },
      {
        "deltaTime": 10,
        "channel": 0,
        "type": "noteOff",
        "noteNumber": 58,
        "velocity": 0,
        "byte9": true
      },
      {
        "deltaTime": 8,
        "channel": 0,
        "type": "controller",
        "controllerType": 64,
        "value": 85
      },
      {
        "deltaTime": 3,
        "channel": 0,
        "type": "noteOff",
        "noteNumber": 56,
        "velocity": 0,
        "byte9": true
      },
      {
        "deltaTime": 0,
        "meta": true,
        "type": "text",
        "text": "Gb pentatonic (i.e. any black note)"
      },
      {
        "deltaTime": 6,
        "running": true,
        "channel": 0,
        "type": "noteOff",
        "noteNumber": 61,
        "velocity": 0,
        "byte9": true
      },
      {
        "deltaTime": 23,
        "channel": 0,
        "type": "noteOn",
        "noteNumber": 51,
        "velocity": 75
      },
      {
        "deltaTime": 3,
        "meta": true,
        "type": "text",
        "text": "Hit just about any of the "
      },
      {
        "deltaTime": 1,
        "running": true,
        "channel": 0,
        "type": "noteOff",
        "noteNumber": 42,
        "velocity": 0,
        "byte9": true
      },
      {
        "deltaTime": 3,
        "running": true,
        "channel": 0,
        "type": "noteOff",
        "noteNumber": 51,
        "velocity": 0,
        "byte9": true
      },
      {
        "deltaTime": 53,
        "channel": 0,
        "type": "noteOn",
        "noteNumber": 73,
        "velocity": 92
      },
      {
        "deltaTime": 1,
        "running": true,
        "channel": 0,
        "type": "noteOn",
        "noteNumber": 68,
        "velocity": 95
      },
      {
        "deltaTime": 0,
        "running": true,
        "channel": 0,
        "type": "noteOn",
        "noteNumber": 63,
        "velocity": 93
      },
      {
        "deltaTime": 0,
        "channel": 0,
        "type": "noteOn",
        "noteNumber": 58,
        "velocity": 84
      },
      {
        "deltaTime": 4,
        "channel": 0,
        "type": "controller",
        "controllerType": 64,
        "value": 0
      },
      {
        "deltaTime": 10,
        "running": true,
        "channel": 0,
        "type": "controller",
        "controllerType": 64,
        "value": 85
      },
      {
        "deltaTime": 20,
        "channel": 0,
        "type": "noteOff",
        "noteNumber": 73,
        "velocity": 0,
        "byte9": true
      },
      {
        "deltaTime": 2,
        "running": true,
        "channel": 0,
        "type": "noteOff",
        "noteNumber": 68,
        "velocity": 0,
        "byte9": true
      },
      {
        "deltaTime": 1,
        "running": true,
        "channel": 0,
        "type": "noteOff",
        "noteNumber": 63,
        "velocity": 0,
        "byte9": true
      },
      {
        "deltaTime": 18,
        "channel": 0,
        "type": "noteOff",
        "noteNumber": 58,
        "velocity": 0,
        "byte9": true
      },
      {
        "deltaTime": 5,
        "channel": 0,
        "type": "noteOn",
        "noteNumber": 61,
        "velocity": 70
      },
      {
        "deltaTime": 0,
        "running": true,
        "channel": 0,
        "type": "noteOn",
        "noteNumber": 70,
        "velocity": 76
      },
      {
        "deltaTime": 2,
        "channel": 0,
        "type": "noteOn",
        "noteNumber": 56,
        "velocity": 65
      },
      {
        "deltaTime": 2,
        "channel": 0,
        "type": "noteOn",
        "noteNumber": 66,
        "velocity": 62
      },
      {
        "deltaTime": 3,
        "channel": 0,
        "type": "controller",
        "controllerType": 64,
        "value": 0
      },
      {
        "deltaTime": 15,
        "running": true,
        "channel": 0,
        "type": "controller",
        "controllerType": 64,
        "value": 85
      },
      {
        "deltaTime": 1,
        "channel": 0,
        "type": "noteOff",
        "noteNumber": 61,
        "velocity": 0,
        "byte9": true
      },
      {
        "deltaTime": 2,
        "running": true,
        "channel": 0,
        "type": "noteOff",
        "noteNumber": 66,
        "velocity": 0,
        "byte9": true
      },
      {
        "deltaTime": 6,
        "running": true,
        "channel": 0,
        "type": "noteOff",
        "noteNumber": 70,
        "velocity": 0,
        "byte9": true
      },
      {
        "deltaTime": 25,
        "running": true,
        "channel": 0,
        "type": "noteOn",
        "noteNumber": 73,
        "velocity": 70
      },
      {
        "deltaTime": 1,
        "running": true,
        "channel": 0,
        "type": "noteOn",
        "noteNumber": 63,
        "velocity": 66
      },
      {
        "deltaTime": 2,
        "running": true,
        "channel": 0,
        "type": "noteOn",
        "noteNumber": 68,
        "velocity": 71
      },
      {
        "deltaTime": 0,
        "channel": 0,
        "type": "noteOn",
        "noteNumber": 58,
        "velocity": 60
      },
      {
        "deltaTime": 2,
        "running": true,
        "channel": 0,
        "type": "noteOff",
        "noteNumber": 56,
        "velocity": 0,
        "byte9": true
      },
      {
        "deltaTime": 4,
        "channel": 0,
        "type": "controller",
        "controllerType": 64,
        "value": 0
      },
      {
        "deltaTime": 17,
        "channel": 0,
        "type": "noteOff",
        "noteNumber": 73,
        "velocity": 0,
        "byte9": true
      },
      {
        "deltaTime": 0,
        "channel": 0,
        "type": "controller",
        "controllerType": 64,
        "value": 85
      },
      {
        "deltaTime": 1,
        "channel": 0,
        "type": "noteOff",
        "noteNumber": 68,
        "velocity": 0,
        "byte9": true
      },
      {
        "deltaTime": 5,
        "running": true,
        "channel": 0,
        "type": "noteOff",
        "noteNumber": 63,
        "velocity": 0,
        "byte9": true
      },
      {
        "deltaTime": 25,
        "channel": 0,
        "type": "noteOff",
        "noteNumber": 58,
        "velocity": 0,
        "byte9": true
      },
      {
        "deltaTime": 2,
        "channel": 0,
        "type": "noteOn",
        "noteNumber": 61,
        "velocity": 66
      },
      {
        "deltaTime": 2,
        "running": true,
        "channel": 0,
        "type": "noteOn",
        "noteNumber": 70,
        "velocity": 66
      },
      {
        "deltaTime": 1,
        "channel": 0,
        "type": "noteOn",
        "noteNumber": 56,
        "velocity": 57
      },
      {
        "deltaTime": 2,
        "channel": 0,
        "type": "controller",
        "controllerType": 64,
        "value": 0
      },
      {
        "deltaTime": 0,
        "channel": 0,
        "type": "noteOn",
        "noteNumber": 66,
        "velocity": 67
      },
      {
        "deltaTime": 14,
        "channel": 0,
        "type": "controller",
        "controllerType": 64,
        "value": 85
      },
      {
        "deltaTime": 5,
        "channel": 0,
        "type": "noteOff",
        "noteNumber": 66,
        "velocity": 0,
        "byte9": true
      },
      {
        "deltaTime": 1,
        "running": true,
        "channel": 0,
        "type": "noteOff",
        "noteNumber": 70,
        "velocity": 0,
        "byte9": true
      },
      {
        "deltaTime": 2,
        "running": true,
        "channel": 0,
        "type": "noteOff",
        "noteNumber": 61,
        "velocity": 0,
        "byte9": true
      },
      {
        "deltaTime": 32,
        "running": true,
        "channel": 0,
        "type": "noteOn",
        "noteNumber": 68,
        "velocity": 59
      },
      {
        "deltaTime": 3,
        "channel": 0,
        "type": "noteOn",
        "noteNumber": 58,
        "velocity": 56
      },
      {
        "deltaTime": 0,
        "running": true,
        "channel": 0,
        "type": "noteOn",
        "noteNumber": 54,
        "velocity": 59
      },
      {
        "deltaTime": 1,
        "channel": 0,
        "type": "controller",
        "controllerType": 64,
        "value": 0
      },
      {
        "deltaTime": 0,
        "channel": 0,
        "type": "noteOn",
        "noteNumber": 63,
        "velocity": 60
      },
      {
        "deltaTime": 4,
        "channel": 0,
        "type": "noteOff",
        "noteNumber": 56,
        "velocity": 0,
        "byte9": true
      },
      {
        "deltaTime": 14,
        "running": true,
        "channel": 0,
        "type": "noteOff",
        "noteNumber": 58,
        "velocity": 0,
        "byte9": true
      },
      {
        "deltaTime": 4,
        "running": true,
        "channel": 0,
        "type": "noteOff",
        "noteNumber": 54,
        "velocity": 0,
        "byte9": true
      },
      {
        "deltaTime": 0,
        "channel": 0,
        "type": "controller",
        "controllerType": 64,
        "value": 85
      },
      {
        "deltaTime": 3,
        "channel": 0,
        "type": "noteOff",
        "noteNumber": 68,
        "velocity": 0,
        "byte9": true
      },
      {
        "deltaTime": 0,
        "running": true,
        "channel": 0,
        "type": "noteOff",
        "noteNumber": 63,
        "velocity": 0,
        "byte9": true
      },
      {
        "deltaTime": 33,
        "channel": 0,
        "type": "noteOn",
        "noteNumber": 44,
        "velocity": 75
      },
      {
        "deltaTime": 4,
        "channel": 0,
        "type": "controller",
        "controllerType": 64,
        "value": 0
      },
      {
        "deltaTime": 8,
        "running": true,
        "channel": 0,
        "type": "controller",
        "controllerType": 64,
        "value": 85
      },
      {
        "deltaTime": 35,
        "channel": 0,
        "type": "noteOff",
        "noteNumber": 44,
        "velocity": 0,
        "byte9": true
      },
      {
        "deltaTime": 14,
        "channel": 0,
        "type": "controller",
        "controllerType": 64,
        "value": 0
      },
      {
        "deltaTime": 1,
        "channel": 0,
        "type": "noteOn",
        "noteNumber": 58,
        "velocity": 71
      },
      {
        "deltaTime": 1,
        "running": true,
        "channel": 0,
        "type": "noteOn",
        "noteNumber": 69,
        "velocity": 63
      },
      {
        "deltaTime": 1,
        "channel": 0,
        "type": "noteOn",
        "noteNumber": 43,
        "velocity": 60
      },
      {
        "deltaTime": 0,
        "channel": 0,
        "type": "noteOn",
        "noteNumber": 62,
        "velocity": 60
      },
      {
        "deltaTime": 0,
        "channel": 0,
        "type": "noteOn",
        "noteNumber": 53,
        "velocity": 61
      },
      {
        "deltaTime": 3,
        "channel": 0,
        "type": "noteOn",
        "noteNumber": 65,
        "velocity": 52
      },
      {
        "deltaTime": 6,
        "running": true,
        "channel": 0,
        "type": "noteOff",
        "noteNumber": 58,
        "velocity": 0,
        "byte9": true
      },
      {
        "deltaTime": 3,
        "running": true,
        "channel": 0,
        "type": "noteOff",
        "noteNumber": 62,
        "velocity": 0,
        "byte9": true
      },
      {
        "deltaTime": 0,
        "running": true,
        "channel": 0,
        "type": "noteOff",
        "noteNumber": 65,
        "velocity": 0,
        "byte9": true
      },
      {
        "deltaTime": 4,
        "channel": 0,
        "type": "noteOff",
        "noteNumber": 43,
        "velocity": 0,
        "byte9": true
      },
      {
        "deltaTime": 0,
        "channel": 0,
        "type": "controller",
        "controllerType": 64,
        "value": 85
      },
      {
        "deltaTime": 2,
        "channel": 0,
        "type": "noteOff",
        "noteNumber": 69,
        "velocity": 0,
        "byte9": true
      },
      {
        "deltaTime": 5,
        "channel": 0,
        "type": "noteOff",
        "noteNumber": 53,
        "velocity": 0,
        "byte9": true
      },
      {
        "deltaTime": 34,
        "channel": 0,
        "type": "noteOn",
        "noteNumber": 81,
        "velocity": 76
      },
      {
        "deltaTime": 0,
        "running": true,
        "channel": 0,
        "type": "noteOn",
        "noteNumber": 69,
        "velocity": 77
      },
      {
        "deltaTime": 1,
        "channel": 0,
        "type": "noteOn",
        "noteNumber": 55,
        "velocity": 55
      },
      {
        "deltaTime": 9,
        "channel": 0,
        "type": "noteOff",
        "noteNumber": 69,
        "velocity": 0,
        "byte9": true
      },
      {
        "deltaTime": 7,
        "channel": 0,
        "type": "noteOff",
        "noteNumber": 55,
        "velocity": 0,
        "byte9": true
      },
      {
        "deltaTime": 1,
        "channel": 0,
        "type": "noteOff",
        "noteNumber": 81,
        "velocity": 0,
        "byte9": true
      },
      {
        "deltaTime": 42,
        "channel": 0,
        "type": "noteOn",
        "noteNumber": 62,
        "velocity": 48
      },
      {
        "deltaTime": 3,
        "channel": 0,
        "type": "noteOn",
        "noteNumber": 86,
        "velocity": 55
      },
      {
        "deltaTime": 0,
        "running": true,
        "channel": 0,
        "type": "noteOn",
        "noteNumber": 74,
        "velocity": 47
      },
      {
        "deltaTime": 2,
        "channel": 0,
        "type": "noteOff",
        "noteNumber": 62,
        "velocity": 0,
        "byte9": true
      },
      {
        "deltaTime": 3,
        "channel": 0,
        "type": "noteOff",
        "noteNumber": 74,
        "velocity": 0,
        "byte9": true
      },
      {
        "deltaTime": 5,
        "running": true,
        "channel": 0,
        "type": "noteOff",
        "noteNumber": 86,
        "velocity": 0,
        "byte9": true
      },
      {
        "deltaTime": 49,
        "running": true,
        "channel": 0,
        "type": "noteOn",
        "noteNumber": 89,
        "velocity": 66
      },
      {
        "deltaTime": 0,
        "running": true,
        "channel": 0,
        "type": "noteOn",
        "noteNumber": 77,
        "velocity": 69
      },
      {
        "deltaTime": 13,
        "running": true,
        "channel": 0,
        "type": "noteOff",
        "noteNumber": 77,
        "velocity": 0,
        "byte9": true
      },
      {
        "deltaTime": 7,
        "running": true,
        "channel": 0,
        "type": "noteOff",
        "noteNumber": 89,
        "velocity": 0,
        "byte9": true
      },
      {
        "deltaTime": 41,
        "channel": 0,
        "type": "controller",
        "controllerType": 64,
        "value": 0
      },
      {
        "deltaTime": 0,
        "channel": 0,
        "type": "noteOn",
        "noteNumber": 36,
        "velocity": 65
      },
      {
        "deltaTime": 3,
        "running": true,
        "channel": 0,
        "type": "noteOn",
        "noteNumber": 52,
        "velocity": 49
      },
      {
        "deltaTime": 7,
        "channel": 0,
        "type": "controller",
        "controllerType": 64,
        "value": 85
      },
      {
        "deltaTime": 2,
        "channel": 0,
        "type": "noteOff",
        "noteNumber": 36,
        "velocity": 0,
        "byte9": true
      },
      {
        "deltaTime": 12,
        "running": true,
        "channel": 0,
        "type": "noteOff",
        "noteNumber": 52,
        "velocity": 0,
        "byte9": true
      },
      {
        "deltaTime": 34,
        "running": true,
        "channel": 0,
        "type": "noteOn",
        "noteNumber": 58,
        "velocity": 71
      },
      {
        "deltaTime": 16,
        "running": true,
        "channel": 0,
        "type": "noteOff",
        "noteNumber": 58,
        "velocity": 0,
        "byte9": true
      },
      {
        "deltaTime": 42,
        "channel": 0,
        "type": "noteOn",
        "noteNumber": 81,
        "velocity": 78
      },
      {
        "deltaTime": 1,
        "running": true,
        "channel": 0,
        "type": "noteOn",
        "noteNumber": 73,
        "velocity": 61
      },
      {
        "deltaTime": 0,
        "running": true,
        "channel": 0,
        "type": "noteOn",
        "noteNumber": 70,
        "velocity": 62
      },
      {
        "deltaTime": 2,
        "channel": 0,
        "type": "noteOn",
        "noteNumber": 64,
        "velocity": 74
      },
      {
        "deltaTime": 2,
        "channel": 0,
        "type": "controller",
        "controllerType": 64,
        "value": 0
      },
      {
        "deltaTime": 0,
        "channel": 0,
        "type": "noteOn",
        "noteNumber": 76,
        "velocity": 42
      },
      {
        "deltaTime": 2,
        "running": true,
        "channel": 0,
        "type": "noteOff",
        "noteNumber": 70,
        "velocity": 0,
        "byte9": true
      },
      {
        "deltaTime": 2,
        "running": true,
        "channel": 0,
        "type": "noteOff",
        "noteNumber": 73,
        "velocity": 0,
        "byte9": true
      },
      {
        "deltaTime": 5,
        "channel": 0,
        "type": "noteOff",
        "noteNumber": 64,
        "velocity": 0,
        "byte9": true
      },
      {
        "deltaTime": 2,
        "channel": 0,
        "type": "noteOff",
        "noteNumber": 81,
        "velocity": 0,
        "byte9": true
      },
      {
        "deltaTime": 0,
        "running": true,
        "channel": 0,
        "type": "noteOff",
        "noteNumber": 76,
        "velocity": 0,
        "byte9": true
      },
      {
        "deltaTime": 26,
        "running": true,
        "channel": 0,
        "type": "noteOn",
        "noteNumber": 70,
        "velocity": 79
      },
      {
        "deltaTime": 1,
        "channel": 0,
        "type": "controller",
        "controllerType": 64,
        "value": 85
      },
      {
        "deltaTime": 1,
        "channel": 0,
        "type": "noteOn",
        "noteNumber": 81,
        "velocity": 52
      },
      {
        "deltaTime": 0,
        "channel": 0,
        "type": "noteOn",
        "noteNumber": 64,
        "velocity": 77
      },
      {
        "deltaTime": 2,
        "channel": 0,
        "type": "noteOn",
        "noteNumber": 76,
        "velocity": 68
      },
      {
        "deltaTime": 0,
        "channel": 0,
        "type": "noteOn",
        "noteNumber": 73,
        "velocity": 52
      },
      {
        "deltaTime": 4,
        "channel": 0,
        "type": "noteOff",
        "noteNumber": 81,
        "velocity": 0,
        "byte9": true
      },
      {
        "deltaTime": 4,
        "channel": 0,
        "type": "noteOff",
        "noteNumber": 73,
        "velocity": 0,
        "byte9": true
      },
      {
        "deltaTime": 3,
        "channel": 0,
        "type": "noteOff",
        "noteNumber": 76,
        "velocity": 0,
        "byte9": true
      },
      {
        "deltaTime": 1,
        "running": true,
        "channel": 0,
        "type": "noteOff",
        "noteNumber": 70,
        "velocity": 0,
        "byte9": true
      },
      {
        "deltaTime": 8,
        "channel": 0,
        "type": "noteOff",
        "noteNumber": 64,
        "velocity": 0,
        "byte9": true
      },
      {
        "deltaTime": 18,
        "channel": 0,
        "type": "noteOn",
        "noteNumber": 79,
        "velocity": 74
      },
      {
        "deltaTime": 1,
        "running": true,
        "channel": 0,
        "type": "noteOn",
        "noteNumber": 73,
        "velocity": 66
      },
      {
        "deltaTime": 0,
        "channel": 0,
        "type": "noteOn",
        "noteNumber": 58,
        "velocity": 72
      },
      {
        "deltaTime": 0,
        "channel": 0,
        "type": "noteOn",
        "noteNumber": 69,
        "velocity": 64
      },
      {
        "deltaTime": 10,
        "running": true,
        "channel": 0,
        "type": "noteOff",
        "noteNumber": 79,
        "velocity": 0,
        "byte9": true
      },
      {
        "deltaTime": 4,
        "running": true,
        "channel": 0,
        "type": "noteOff",
        "noteNumber": 69,
        "velocity": 0,
        "byte9": true
      },
      {
        "deltaTime": 7,
        "running": true,
        "channel": 0,
        "type": "noteOff",
        "noteNumber": 73,
        "velocity": 0,
        "byte9": true
      },
      {
        "deltaTime": 10,
        "channel": 0,
        "type": "controller",
        "controllerType": 85,
        "value": 4
      },
      {
        "deltaTime": 0,
        "running": true,
        "channel": 0,
        "type": "controller",
        "controllerType": 86,
        "value": 4
      },
      {
        "deltaTime": 2,
        "channel": 0,
        "type": "noteOff",
        "noteNumber": 58,
        "velocity": 0,
        "byte9": true
      },
      {
        "deltaTime": 8,
        "channel": 0,
        "type": "controller",
        "controllerType": 64,
        "value": 0
      },
      {
        "deltaTime": 1,
        "channel": 0,
        "type": "noteOn",
        "noteNumber": 72,
        "velocity": 58
      },
      {
        "deltaTime": 1,
        "running": true,
        "channel": 0,
        "type": "noteOn",
        "noteNumber": 77,
        "velocity": 69
      },
      {
        "deltaTime": 0,
        "running": true,
        "channel": 0,
        "type": "noteOn",
        "noteNumber": 67,
        "velocity": 64
      },
      {
        "deltaTime": 3,
        "channel": 0,
        "type": "noteOn",
        "noteNumber": 57,
        "velocity": 70
      },
      {
        "deltaTime": 17,
        "channel": 0,
        "type": "controller",
        "controllerType": 64,
        "value": 85
      },
      {
        "deltaTime": 16,
        "channel": 0,
        "type": "noteOff",
        "noteNumber": 57,
        "velocity": 0,
        "byte9": true
      },
      {
        "deltaTime": 3,
        "channel": 0,
        "type": "noteOff",
        "noteNumber": 77,
        "velocity": 0,
        "byte9": true
      },
      {
        "deltaTime": 2,
        "running": true,
        "channel": 0,
        "type": "noteOff",
        "noteNumber": 72,
        "velocity": 0,
        "byte9": true
      },
      {
        "deltaTime": 6,
        "running": true,
        "channel": 0,
        "type": "noteOff",
        "noteNumber": 67,
        "velocity": 0,
        "byte9": true
      },
      {
        "deltaTime": 40,
        "channel": 0,
        "type": "noteOn",
        "noteNumber": 48,
        "velocity": 75
      },
      {
        "deltaTime": 21,
        "channel": 0,
        "type": "controller",
        "controllerType": 85,
        "value": 4
      },
      {
        "deltaTime": 0,
        "running": true,
        "channel": 0,
        "type": "controller",
        "controllerType": 86,
        "value": 4
      },
      {
        "deltaTime": 1,
        "channel": 0,
        "type": "noteOff",
        "noteNumber": 48,
        "velocity": 0,
        "byte9": true
      },
      {
        "deltaTime": 8,
        "channel": 0,
        "type": "noteOn",
        "noteNumber": 53,
        "velocity": 50
      },
      {
        "deltaTime": 0,
        "running": true,
        "channel": 0,
        "type": "noteOn",
        "noteNumber": 60,
        "velocity": 53
      },
      {
        "deltaTime": 1,
        "running": true,
        "channel": 0,
        "type": "noteOn",
        "noteNumber": 57,
        "velocity": 59
      },
      {
        "deltaTime": 2,
        "channel": 0,
        "type": "noteOn",
        "noteNumber": 50,
        "velocity": 65
      },
      {
        "deltaTime": 6,
        "channel": 0,
        "type": "controller",
        "controllerType": 64,
        "value": 0
      },
      {
        "deltaTime": 8,
        "channel": 0,
        "type": "noteOff",
        "noteNumber": 53,
        "velocity": 0,
        "byte9": true
      },
      {
        "deltaTime": 0,
        "running": true,
        "channel": 0,
        "type": "noteOff",
        "noteNumber": 57,
        "velocity": 0,
        "byte9": true
      },
      {
        "deltaTime": 1,
        "running": true,
        "channel": 0,
        "type": "noteOff",
        "noteNumber": 60,
        "velocity": 0,
        "byte9": true
      },
      {
        "deltaTime": 1,
        "channel": 0,
        "type": "noteOff",
        "noteNumber": 50,
        "velocity": 0,
        "byte9": true
      },
      {
        "deltaTime": 15,
        "channel": 0,
        "type": "noteOn",
        "noteNumber": 53,
        "velocity": 62
      },
      {
        "deltaTime": 2,
        "running": true,
        "channel": 0,
        "type": "noteOn",
        "noteNumber": 57,
        "velocity": 64
      },
      {
        "deltaTime": 1,
        "running": true,
        "channel": 0,
        "type": "noteOn",
        "noteNumber": 50,
        "velocity": 65
      },
      {
        "deltaTime": 0,
        "running": true,
        "channel": 0,
        "type": "noteOn",
        "noteNumber": 60,
        "velocity": 46
      },
      {
        "deltaTime": 9,
        "running": true,
        "channel": 0,
        "type": "noteOff",
        "noteNumber": 53,
        "velocity": 0,
        "byte9": true
      },
      {
        "deltaTime": 4,
        "running": true,
        "channel": 0,
        "type": "noteOff",
        "noteNumber": 57,
        "velocity": 0,
        "byte9": true
      },
      {
        "deltaTime": 4,
        "running": true,
        "channel": 0,
        "type": "noteOff",
        "noteNumber": 50,
        "velocity": 0,
        "byte9": true
      },
      {
        "deltaTime": 1,
        "running": true,
        "channel": 0,
        "type": "noteOff",
        "noteNumber": 60,
        "velocity": 0,
        "byte9": true
      },
      {
        "deltaTime": 1,
        "channel": 0,
        "type": "noteOn",
        "noteNumber": 48,
        "velocity": 51
      },
      {
        "deltaTime": 59,
        "channel": 0,
        "type": "noteOn",
        "noteNumber": 53,
        "velocity": 53
      },
      {
        "deltaTime": 1,
        "running": true,
        "channel": 0,
        "type": "noteOn",
        "noteNumber": 60,
        "velocity": 49
      },
      {
        "deltaTime": 1,
        "channel": 0,
        "type": "noteOff",
        "noteNumber": 48,
        "velocity": 0,
        "byte9": true
      },
      {
        "deltaTime": 0,
        "channel": 0,
        "type": "noteOn",
        "noteNumber": 57,
        "velocity": 61
      },
      {
        "deltaTime": 1,
        "channel": 0,
        "type": "noteOn",
        "noteNumber": 50,
        "velocity": 57
      },
      {
        "deltaTime": 59,
        "running": true,
        "channel": 0,
        "type": "noteOn",
        "noteNumber": 48,
        "velocity": 74
      },
      {
        "deltaTime": 1,
        "running": true,
        "channel": 0,
        "type": "noteOff",
        "noteNumber": 50,
        "velocity": 0,
        "byte9": true
      },
      {
        "deltaTime": 11,
        "channel": 0,
        "type": "controller",
        "controllerType": 64,
        "value": 85
      },
      {
        "deltaTime": 8,
        "channel": 0,
        "type": "noteOff",
        "noteNumber": 53,
        "velocity": 0,
        "byte9": true
      },
      {
        "deltaTime": 0,
        "running": true,
        "channel": 0,
        "type": "noteOff",
        "noteNumber": 57,
        "velocity": 0,
        "byte9": true
      },
      {
        "deltaTime": 4,
        "running": true,
        "channel": 0,
        "type": "noteOff",
        "noteNumber": 60,
        "velocity": 0,
        "byte9": true
      },
      {
        "deltaTime": 15,
        "channel": 0,
        "type": "controller",
        "controllerType": 64,
        "value": 0
      },
      {
        "deltaTime": 17,
        "channel": 0,
        "type": "noteOn",
        "noteNumber": 60,
        "velocity": 46
      },
      {
        "deltaTime": 1,
        "running": true,
        "channel": 0,
        "type": "noteOn",
        "noteNumber": 53,
        "velocity": 53
      },
      {
        "deltaTime": 0,
        "channel": 0,
        "type": "controller",
        "controllerType": 64,
        "value": 85
      },
      {
        "deltaTime": 2,
        "channel": 0,
        "type": "noteOn",
        "noteNumber": 57,
        "velocity": 58
      },
      {
        "deltaTime": 24,
        "channel": 0,
        "type": "noteOff",
        "noteNumber": 48,
        "velocity": 0,
        "byte9": true
      },
      {
        "deltaTime": 14,
        "channel": 0,
        "type": "noteOff",
        "noteNumber": 53,
        "velocity": 0,
        "byte9": true
      },
      {
        "deltaTime": 15,
        "running": true,
        "channel": 0,
        "type": "noteOff",
        "noteNumber": 57,
        "velocity": 0,
        "byte9": true
      },
      {
        "deltaTime": 3,
        "running": true,
        "channel": 0,
        "type": "noteOff",
        "noteNumber": 60,
        "velocity": 0,
        "byte9": true
      },
      {
        "deltaTime": 3,
        "channel": 0,
        "type": "noteOn",
        "noteNumber": 48,
        "velocity": 68
      },
      {
        "deltaTime": 10,
        "running": true,
        "channel": 0,
        "type": "noteOff",
        "noteNumber": 48,
        "velocity": 0,
        "byte9": true
      },
      {
        "deltaTime": 54,
        "channel": 0,
        "type": "noteOn",
        "noteNumber": 57,
        "velocity": 59
      },
      {
        "deltaTime": 0,
        "running": true,
        "channel": 0,
        "type": "noteOn",
        "noteNumber": 58,
        "velocity": 63
      },
      {
        "deltaTime": 0,
        "running": true,
        "channel": 0,
        "type": "noteOn",
        "noteNumber": 62,
        "velocity": 63
      },
      {
        "deltaTime": 1,
        "channel": 0,
        "type": "controller",
        "controllerType": 64,
        "value": 0
      },
      {
        "deltaTime": 0,
        "channel": 0,
        "type": "noteOn",
        "noteNumber": 48,
        "velocity": 70
      },
      {
        "deltaTime": 29,
        "channel": 0,
        "type": "controller",
        "controllerType": 64,
        "value": 85
      },
      {
        "deltaTime": 20,
        "channel": 0,
        "type": "noteOff",
        "noteNumber": 57,
        "velocity": 0,
        "byte9": true
      },
      {
        "deltaTime": 3,
        "running": true,
        "channel": 0,
        "type": "noteOff",
        "noteNumber": 62,
        "velocity": 0,
        "byte9": true
      },
      {
        "deltaTime": 4,
        "running": true,
        "channel": 0,
        "type": "noteOn",
        "noteNumber": 65,
        "velocity": 87
      },
      {
        "deltaTime": 16,
        "running": true,
        "channel": 0,
        "type": "noteOff",
        "noteNumber": 65,
        "velocity": 0,
        "byte9": true
      },
      {
        "deltaTime": 30,
        "running": true,
        "channel": 0,
        "type": "noteOff",
        "noteNumber": 58,
        "velocity": 0,
        "byte9": true
      },
      {
        "deltaTime": 14,
        "running": true,
        "channel": 0,
        "type": "noteOn",
        "noteNumber": 69,
        "velocity": 90
      },
      {
        "deltaTime": 0,
        "channel": 0,
        "type": "noteOn",
        "noteNumber": 58,
        "velocity": 62
      },
      {
        "deltaTime": 1,
        "channel": 0,
        "type": "noteOn",
        "noteNumber": 62,
        "velocity": 83
      },
      {
        "deltaTime": 1,
        "running": true,
        "channel": 0,
        "type": "noteOn",
        "noteNumber": 65,
        "velocity": 88
      },
      {
        "deltaTime": 25,
        "channel": 0,
        "type": "noteOff",
        "noteNumber": 48,
        "velocity": 0,
        "byte9": true
      },
      {
        "deltaTime": 30,
        "channel": 0,
        "type": "noteOn",
        "noteNumber": 72,
        "velocity": 97
      },
      {
        "deltaTime": 1,
        "channel": 0,
        "type": "noteOn",
        "noteNumber": 48,
        "velocity": 82
      },
      {
        "deltaTime": 4,
        "running": true,
        "channel": 0,
        "type": "noteOff",
        "noteNumber": 58,
        "velocity": 0,
        "byte9": true
      },
      {
        "deltaTime": 0,
        "channel": 0,
        "type": "noteOff",
        "noteNumber": 62,
        "velocity": 0,
        "byte9": true
      },
      {
        "deltaTime": 3,
        "running": true,
        "channel": 0,
        "type": "noteOff",
        "noteNumber": 65,
        "velocity": 0,
        "byte9": true
      },
      {
        "deltaTime": 1,
        "running": true,
        "channel": 0,
        "type": "noteOff",
        "noteNumber": 69,
        "velocity": 0,
        "byte9": true
      },
      {
        "deltaTime": 10,
        "running": true,
        "channel": 0,
        "type": "noteOff",
        "noteNumber": 72,
        "velocity": 0,
        "byte9": true
      },
      {
        "deltaTime": 36,
        "channel": 0,
        "type": "controller",
        "controllerType": 64,
        "value": 0
      },
      {
        "deltaTime": 4,
        "channel": 0,
        "type": "noteOn",
        "noteNumber": 74,
        "velocity": 88
      },
      {
        "deltaTime": 2,
        "running": true,
        "channel": 0,
        "type": "noteOn",
        "noteNumber": 70,
        "velocity": 80
      },
      {
        "deltaTime": 1,
        "running": true,
        "channel": 0,
        "type": "noteOn",
        "noteNumber": 67,
        "velocity": 76
      },
      {
        "deltaTime": 0,
        "channel": 0,
        "type": "noteOn",
        "noteNumber": 58,
        "velocity": 73
      },
      {
        "deltaTime": 1,
        "channel": 0,
        "type": "noteOn",
        "noteNumber": 65,
        "velocity": 85
      },
      {
        "deltaTime": 13,
        "channel": 0,
        "type": "controller",
        "controllerType": 64,
        "value": 85
      },
      {
        "deltaTime": 7,
        "channel": 0,
        "type": "noteOff",
        "noteNumber": 67,
        "velocity": 0,
        "byte9": true
      },
      {
        "deltaTime": 3,
        "running": true,
        "channel": 0,
        "type": "noteOff",
        "noteNumber": 74,
        "velocity": 0,
        "byte9": true
      },
      {
        "deltaTime": 1,
        "running": true,
        "channel": 0,
        "type": "noteOff",
        "noteNumber": 70,
        "velocity": 0,
        "byte9": true
      },
      {
        "deltaTime": 19,
        "running": true,
        "channel": 0,
        "type": "noteOff",
        "noteNumber": 65,
        "velocity": 0,
        "byte9": true
      },
      {
        "deltaTime": 3,
        "channel": 0,
        "type": "noteOff",
        "noteNumber": 58,
        "velocity": 0,
        "byte9": true
      },
      {
        "deltaTime": 14,
        "running": true,
        "channel": 0,
        "type": "noteOn",
        "noteNumber": 58,
        "velocity": 66
      },
      {
        "deltaTime": 0,
        "channel": 0,
        "type": "noteOn",
        "noteNumber": 77,
        "velocity": 97
      },
      {
        "deltaTime": 2,
        "running": true,
        "channel": 0,
        "type": "noteOn",
        "noteNumber": 67,
        "velocity": 94
      },
      {
        "deltaTime": 0,
        "running": true,
        "channel": 0,
        "type": "noteOn",
        "noteNumber": 70,
        "velocity": 87
      },
      {
        "deltaTime": 10,
        "channel": 0,
        "type": "noteOff",
        "noteNumber": 48,
        "velocity": 0,
        "byte9": true
      },
      {
        "deltaTime": 29,
        "channel": 0,
        "type": "noteOff",
        "noteNumber": 70,
        "velocity": 0,
        "byte9": true
      },
      {
        "deltaTime": 1,
        "running": true,
        "channel": 0,
        "type": "noteOff",
        "noteNumber": 77,
        "velocity": 0,
        "byte9": true
      },
      {
        "deltaTime": 2,
        "channel": 0,
        "type": "noteOff",
        "noteNumber": 58,
        "velocity": 0,
        "byte9": true
      },
      {
        "deltaTime": 3,
        "channel": 0,
        "type": "noteOff",
        "noteNumber": 67,
        "velocity": 0,
        "byte9": true
      },
      {
        "deltaTime": 13,
        "running": true,
        "channel": 0,
        "type": "noteOn",
        "noteNumber": 77,
        "velocity": 92
      },
      {
        "deltaTime": 0,
        "channel": 0,
        "type": "noteOn",
        "noteNumber": 58,
        "velocity": 75
      },
      {
        "deltaTime": 2,
        "channel": 0,
        "type": "noteOn",
        "noteNumber": 70,
        "velocity": 93
      },
      {
        "deltaTime": 0,
        "channel": 0,
        "type": "controller",
        "controllerType": 64,
        "value": 0
      },
      {
        "deltaTime": 0,
        "channel": 0,
        "type": "noteOn",
        "noteNumber": 67,
        "velocity": 69
      },
      {
        "deltaTime": 1,
        "channel": 0,
        "type": "noteOn",
        "noteNumber": 48,
        "velocity": 68
      },
      {
        "deltaTime": 9,
        "running": true,
        "channel": 0,
        "type": "noteOff",
        "noteNumber": 58,
        "velocity": 0,
        "byte9": true
      },
      {
        "deltaTime": 4,
        "channel": 0,
        "type": "controller",
        "controllerType": 64,
        "value": 85
      },
      {
        "deltaTime": 1,
        "channel": 0,
        "type": "noteOff",
        "noteNumber": 48,
        "velocity": 0,
        "byte9": true
      },
      {
        "deltaTime": 9,
        "channel": 0,
        "type": "noteOff",
        "noteNumber": 77,
        "velocity": 0,
        "byte9": true
      },
      {
        "deltaTime": 10,
        "running": true,
        "channel": 0,
        "type": "noteOff",
        "noteNumber": 70,
        "velocity": 0,
        "byte9": true
      },
      {
        "deltaTime": 10,
        "running": true,
        "channel": 0,
        "type": "noteOff",
        "noteNumber": 67,
        "velocity": 0,
        "byte9": true
      },
      {
        "deltaTime": 16,
        "running": true,
        "channel": 0,
        "type": "noteOn",
        "noteNumber": 76,
        "velocity": 87
      },
      {
        "deltaTime": 18,
        "running": true,
        "channel": 0,
        "type": "noteOff",
        "noteNumber": 76,
        "velocity": 0,
        "byte9": true
      },
      {
        "deltaTime": 37,
        "channel": 0,
        "type": "noteOn",
        "noteNumber": 41,
        "velocity": 64
      },
      {
        "deltaTime": 3,
        "channel": 0,
        "type": "noteOn",
        "noteNumber": 64,
        "velocity": 51
      },
      {
        "deltaTime": 0,
        "running": true,
        "channel": 0,
        "type": "noteOn",
        "noteNumber": 69,
        "velocity": 43
      },
      {
        "deltaTime": 1,
        "running": true,
        "channel": 0,
        "type": "noteOn",
        "noteNumber": 72,
        "velocity": 58
      },
      {
        "deltaTime": 1,
        "channel": 0,
        "type": "noteOn",
        "noteNumber": 57,
        "velocity": 53
      },
      {
        "deltaTime": 3,
        "channel": 0,
        "type": "controller",
        "controllerType": 64,
        "value": 0
      },
      {
        "deltaTime": 30,
        "running": true,
        "channel": 0,
        "type": "controller",
        "controllerType": 64,
        "value": 85
      },
      {
        "deltaTime": 15,
        "channel": 0,
        "type": "noteOff",
        "noteNumber": 57,
        "velocity": 0,
        "byte9": true
      },
      {
        "deltaTime": 1,
        "channel": 0,
        "type": "noteOff",
        "noteNumber": 72,
        "velocity": 0,
        "byte9": true
      },
      {
        "deltaTime": 2,
        "running": true,
        "channel": 0,
        "type": "noteOff",
        "noteNumber": 69,
        "velocity": 0,
        "byte9": true
      },
      {
        "deltaTime": 4,
        "running": true,
        "channel": 0,
        "type": "noteOff",
        "noteNumber": 64,
        "velocity": 0,
        "byte9": true
      },
      {
        "deltaTime": 5,
        "channel": 0,
        "type": "noteOn",
        "noteNumber": 48,
        "velocity": 61
      },
      {
        "deltaTime": 56,
        "channel": 0,
        "type": "noteOn",
        "noteNumber": 55,
        "velocity": 55
      },
      {
        "deltaTime": 1,
        "channel": 0,
        "type": "noteOff",
        "noteNumber": 48,
        "velocity": 0,
        "byte9": true
      },
      {
        "deltaTime": 1,
        "channel": 0,
        "type": "noteOn",
        "noteNumber": 60,
        "velocity": 52
      },
      {
        "deltaTime": 0,
        "running": true,
        "channel": 0,
        "type": "noteOn",
        "noteNumber": 57,
        "velocity": 57
      },
      {
        "deltaTime": 2,
        "channel": 0,
        "type": "noteOn",
        "noteNumber": 50,
        "velocity": 58
      },
      {
        "deltaTime": 10,
        "channel": 0,
        "type": "controller",
        "controllerType": 64,
        "value": 0
      },
      {
        "deltaTime": 50,
        "channel": 0,
        "type": "noteOn",
        "noteNumber": 48,
        "velocity": 63
      },
      {
        "deltaTime": 9,
        "channel": 0,
        "type": "noteOff",
        "noteNumber": 55,
        "velocity": 0,
        "byte9": true
      },
      {
        "deltaTime": 5,
        "running": true,
        "channel": 0,
        "type": "noteOff",
        "noteNumber": 57,
        "velocity": 0,
        "byte9": true
      },
      {
        "deltaTime": 4,
        "channel": 0,
        "type": "noteOff",
        "noteNumber": 50,
        "velocity": 0,
        "byte9": true
      },
      {
        "deltaTime": 1,
        "channel": 0,
        "type": "noteOff",
        "noteNumber": 60,
        "velocity": 0,
        "byte9": true
      },
      {
        "deltaTime": 13,
        "channel": 0,
        "type": "controller",
        "controllerType": 64,
        "value": 85
      },
      {
        "deltaTime": 15,
        "running": true,
        "channel": 0,
        "type": "controller",
        "controllerType": 64,
        "value": 0
      },
      {
        "deltaTime": 7,
        "channel": 0,
        "type": "noteOn",
        "noteNumber": 55,
        "velocity": 53
      },
      {
        "deltaTime": 2,
        "running": true,
        "channel": 0,
        "type": "noteOn",
        "noteNumber": 60,
        "velocity": 48
      },
      {
        "deltaTime": 1,
        "running": true,
        "channel": 0,
        "type": "noteOn",
        "noteNumber": 57,
        "velocity": 54
      },
      {
        "deltaTime": 1,
        "channel": 0,
        "type": "noteOn",
        "noteNumber": 50,
        "velocity": 57
      },
      {
        "deltaTime": 10,
        "channel": 0,
        "type": "noteOff",
        "noteNumber": 57,
        "velocity": 0,
        "byte9": true
      },
      {
        "deltaTime": 1,
        "running": true,
        "channel": 0,
        "type": "noteOff",
        "noteNumber": 55,
        "velocity": 0,
        "byte9": true
      },
      {
        "deltaTime": 3,
        "running": true,
        "channel": 0,
        "type": "noteOff",
        "noteNumber": 60,
        "velocity": 0,
        "byte9": true
      },
      {
        "deltaTime": 0,
        "channel": 0,
        "type": "noteOff",
        "noteNumber": 50,
        "velocity": 0,
        "byte9": true
      },
      {
        "deltaTime": 19,
        "channel": 0,
        "type": "controller",
        "controllerType": 64,
        "value": 85
      },
      {
        "deltaTime": 16,
        "running": true,
        "channel": 0,
        "type": "controller",
        "controllerType": 64,
        "value": 0
      },
      {
        "deltaTime": 7,
        "channel": 0,
        "type": "noteOn",
        "noteNumber": 55,
        "velocity": 59
      },
      {
        "deltaTime": 2,
        "running": true,
        "channel": 0,
        "type": "noteOn",
        "noteNumber": 60,
        "velocity": 52
      },
      {
        "deltaTime": 1,
        "channel": 0,
        "type": "noteOff",
        "noteNumber": 48,
        "velocity": 0,
        "byte9": true
      },
      {
        "deltaTime": 1,
        "channel": 0,
        "type": "noteOn",
        "noteNumber": 57,
        "velocity": 57
      },
      {
        "deltaTime": 0,
        "channel": 0,
        "type": "noteOn",
        "noteNumber": 50,
        "velocity": 61
      },
      {
        "deltaTime": 54,
        "running": true,
        "channel": 0,
        "type": "noteOff",
        "noteNumber": 50,
        "velocity": 0,
        "byte9": true
      },
      {
        "deltaTime": 5,
        "running": true,
        "channel": 0,
        "type": "noteOn",
        "noteNumber": 48,
        "velocity": 73
      },
      {
        "deltaTime": 3,
        "channel": 0,
        "type": "controller",
        "controllerType": 64,
        "value": 85
      },
      {
        "deltaTime": 15,
        "channel": 0,
        "type": "noteOff",
        "noteNumber": 55,
        "velocity": 0,
        "byte9": true
      },
      {
        "deltaTime": 0,
        "running": true,
        "channel": 0,
        "type": "noteOff",
        "noteNumber": 57,
        "velocity": 0,
        "byte9": true
      },
      {
        "deltaTime": 2,
        "running": true,
        "channel": 0,
        "type": "noteOff",
        "noteNumber": 60,
        "velocity": 0,
        "byte9": true
      },
      {
        "deltaTime": 41,
        "running": true,
        "channel": 0,
        "type": "noteOn",
        "noteNumber": 55,
        "velocity": 72
      },
      {
        "deltaTime": 0,
        "running": true,
        "channel": 0,
        "type": "noteOn",
        "noteNumber": 60,
        "velocity": 65
      },
      {
        "deltaTime": 2,
        "running": true,
        "channel": 0,
        "type": "noteOn",
        "noteNumber": 57,
        "velocity": 65
      },
      {
        "deltaTime": 14,
        "channel": 0,
        "type": "noteOff",
        "noteNumber": 48,
        "velocity": 0,
        "byte9": true
      },
      {
        "deltaTime": 5,
        "channel": 0,
        "type": "noteOff",
        "noteNumber": 57,
        "velocity": 0,
        "byte9": true
      },
      {
        "deltaTime": 9,
        "running": true,
        "channel": 0,
        "type": "noteOff",
        "noteNumber": 55,
        "velocity": 0,
        "byte9": true
      },
      {
        "deltaTime": 22,
        "running": true,
        "channel": 0,
        "type": "noteOff",
        "noteNumber": 60,
        "velocity": 0,
        "byte9": true
      },
      {
        "deltaTime": 1,
        "channel": 0,
        "type": "noteOff",
        "noteNumber": 41,
        "velocity": 0,
        "byte9": true
      },
      {
        "deltaTime": 10,
        "channel": 0,
        "type": "noteOn",
        "noteNumber": 58,
        "velocity": 89
      },
      {
        "deltaTime": 0,
        "running": true,
        "channel": 0,
        "type": "noteOn",
        "noteNumber": 62,
        "velocity": 76
      },
      {
        "deltaTime": 1,
        "running": true,
        "channel": 0,
        "type": "noteOn",
        "noteNumber": 53,
        "velocity": 86
      },
      {
        "deltaTime": 7,
        "channel": 0,
        "type": "controller",
        "controllerType": 64,
        "value": 0
      },
      {
        "deltaTime": 0,
        "channel": 0,
        "type": "noteOn",
        "noteNumber": 48,
        "velocity": 48
      },
      {
        "deltaTime": 41,
        "running": true,
        "channel": 0,
        "type": "noteOff",
        "noteNumber": 48,
        "velocity": 0,
        "byte9": true
      },
      {
        "deltaTime": 10,
        "running": true,
        "channel": 0,
        "type": "noteOn",
        "noteNumber": 48,
        "velocity": 94
      },
      {
        "deltaTime": 13,
        "channel": 0,
        "type": "controller",
        "controllerType": 64,
        "value": 85
      },
      {
        "deltaTime": 18,
        "channel": 0,
        "type": "noteOff",
        "noteNumber": 53,
        "velocity": 0,
        "byte9": true
      },
      {
        "deltaTime": 3,
        "running": true,
        "channel": 0,
        "type": "noteOff",
        "noteNumber": 58,
        "velocity": 0,
        "byte9": true
      },
      {
        "deltaTime": 23,
        "running": true,
        "channel": 0,
        "type": "noteOn",
        "noteNumber": 58,
        "velocity": 60
      },
      {
        "deltaTime": 3,
        "running": true,
        "channel": 0,
        "type": "noteOn",
        "noteNumber": 53,
        "velocity": 58
      },
      {
        "deltaTime": 46,
        "channel": 0,
        "type": "noteOff",
        "noteNumber": 48,
        "velocity": 0,
        "byte9": true
      },
      {
        "deltaTime": 16,
        "running": true,
        "channel": 0,
        "type": "noteOn",
        "noteNumber": 48,
        "velocity": 92
      },
      {
        "deltaTime": 13,
        "channel": 0,
        "type": "noteOff",
        "noteNumber": 53,
        "velocity": 0,
        "byte9": true
      },
      {
        "deltaTime": 12,
        "running": true,
        "channel": 0,
        "type": "noteOff",
        "noteNumber": 58,
        "velocity": 0,
        "byte9": true
      },
      {
        "deltaTime": 3,
        "running": true,
        "channel": 0,
        "type": "noteOff",
        "noteNumber": 62,
        "velocity": 0,
        "byte9": true
      },
      {
        "deltaTime": 19,
        "channel": 0,
        "type": "noteOff",
        "noteNumber": 48,
        "velocity": 0,
        "byte9": true
      },
      {
        "deltaTime": 11,
        "channel": 0,
        "type": "noteOn",
        "noteNumber": 58,
        "velocity": 84
      },
      {
        "deltaTime": 0,
        "running": true,
        "channel": 0,
        "type": "noteOn",
        "noteNumber": 53,
        "velocity": 73
      },
      {
        "deltaTime": 1,
        "channel": 0,
        "type": "noteOn",
        "noteNumber": 48,
        "velocity": 68
      },
      {
        "deltaTime": 1,
        "channel": 0,
        "type": "noteOn",
        "noteNumber": 62,
        "velocity": 72
      },
      {
        "deltaTime": 7,
        "channel": 0,
        "type": "controller",
        "controllerType": 64,
        "value": 0
      },
      {
        "deltaTime": 25,
        "running": true,
        "channel": 0,
        "type": "controller",
        "controllerType": 64,
        "value": 85
      },
      {
        "deltaTime": 12,
        "channel": 0,
        "type": "noteOff",
        "noteNumber": 48,
        "velocity": 0,
        "byte9": true
      },
      {
        "deltaTime": 9,
        "channel": 0,
        "type": "noteOff",
        "noteNumber": 53,
        "velocity": 0,
        "byte9": true
      },
      {
        "deltaTime": 1,
        "channel": 0,
        "type": "noteOn",
        "noteNumber": 48,
        "velocity": 94
      },
      {
        "deltaTime": 8,
        "channel": 0,
        "type": "noteOn",
        "noteNumber": 53,
        "velocity": 13
      },
      {
        "deltaTime": 17,
        "channel": 0,
        "type": "noteOff",
        "noteNumber": 48,
        "velocity": 0,
        "byte9": true
      },
      {
        "deltaTime": 35,
        "running": true,
        "channel": 0,
        "type": "noteOn",
        "noteNumber": 46,
        "velocity": 107
      },
      {
        "deltaTime": 10,
        "channel": 0,
        "type": "controller",
        "controllerType": 64,
        "value": 0
      },
      {
        "deltaTime": 14,
        "channel": 0,
        "type": "noteOff",
        "noteNumber": 53,
        "velocity": 0,
        "byte9": true
      },
      {
        "deltaTime": 6,
        "channel": 0,
        "type": "controller",
        "controllerType": 64,
        "value": 85
      },
      {
        "deltaTime": 15,
        "channel": 0,
        "type": "noteOff",
        "noteNumber": 58,
        "velocity": 0,
        "byte9": true
      },
      {
        "deltaTime": 13,
        "running": true,
        "channel": 0,
        "type": "noteOff",
        "noteNumber": 62,
        "velocity": 0,
        "byte9": true
      },
      {
        "deltaTime": 4,
        "channel": 0,
        "type": "noteOn",
        "noteNumber": 34,
        "velocity": 90
      },
      {
        "deltaTime": 27,
        "running": true,
        "channel": 0,
        "type": "noteOff",
        "noteNumber": 46,
        "velocity": 0,
        "byte9": true
      },
      {
        "deltaTime": 2,
        "running": true,
        "channel": 0,
        "type": "noteOff",
        "noteNumber": 34,
        "velocity": 0,
        "byte9": true
      },
      {
        "deltaTime": 17,
        "channel": 0,
        "type": "controller",
        "controllerType": 64,
        "value": 0
      },
      {
        "deltaTime": 10,
        "channel": 0,
        "type": "noteOn",
        "noteNumber": 33,
        "velocity": 94
      },
      {
        "deltaTime": 1,
        "running": true,
        "channel": 0,
        "type": "noteOn",
        "noteNumber": 45,
        "velocity": 96
      },
      {
        "deltaTime": 10,
        "running": true,
        "channel": 0,
        "type": "noteOff",
        "noteNumber": 33,
        "velocity": 0,
        "byte9": true
      },
      {
        "deltaTime": 0,
        "channel": 0,
        "type": "controller",
        "controllerType": 64,
        "value": 85
      },
      {
        "deltaTime": 5,
        "channel": 0,
        "type": "noteOff",
        "noteNumber": 45,
        "velocity": 0,
        "byte9": true
      },
      {
        "deltaTime": 56,
        "running": true,
        "channel": 0,
        "type": "noteOn",
        "noteNumber": 64,
        "velocity": 72
      },
      {
        "deltaTime": 0,
        "running": true,
        "channel": 0,
        "type": "noteOn",
        "noteNumber": 61,
        "velocity": 66
      },
      {
        "deltaTime": 0,
        "channel": 0,
        "type": "noteOn",
        "noteNumber": 81,
        "velocity": 91
      },
      {
        "deltaTime": 1,
        "running": true,
        "channel": 0,
        "type": "noteOn",
        "noteNumber": 69,
        "velocity": 88
      },
      {
        "deltaTime": 1,
        "channel": 0,
        "type": "noteOn",
        "noteNumber": 59,
        "velocity": 78
      },
      {
        "deltaTime": 2,
        "running": true,
        "channel": 0,
        "type": "noteOn",
        "noteNumber": 55,
        "velocity": 56
      },
      {
        "deltaTime": 27,
        "channel": 0,
        "type": "noteOff",
        "noteNumber": 69,
        "velocity": 0,
        "byte9": true
      },
      {
        "deltaTime": 5,
        "running": true,
        "channel": 0,
        "type": "noteOff",
        "noteNumber": 81,
        "velocity": 0,
        "byte9": true
      },
      {
        "deltaTime": 0,
        "channel": 0,
        "type": "noteOff",
        "noteNumber": 59,
        "velocity": 0,
        "byte9": true
      },
      {
        "deltaTime": 3,
        "running": true,
        "channel": 0,
        "type": "noteOff",
        "noteNumber": 61,
        "velocity": 0,
        "byte9": true
      },
      {
        "deltaTime": 1,
        "running": true,
        "channel": 0,
        "type": "noteOff",
        "noteNumber": 64,
        "velocity": 0,
        "byte9": true
      },
      {
        "deltaTime": 0,
        "running": true,
        "channel": 0,
        "type": "noteOff",
        "noteNumber": 55,
        "velocity": 0,
        "byte9": true
      },
      {
        "deltaTime": 18,
        "channel": 0,
        "type": "noteOn",
        "noteNumber": 73,
        "velocity": 82
      },
      {
        "deltaTime": 2,
        "channel": 0,
        "type": "noteOn",
        "noteNumber": 55,
        "velocity": 70
      },
      {
        "deltaTime": 0,
        "channel": 0,
        "type": "noteOn",
        "noteNumber": 85,
        "velocity": 86
      },
      {
        "deltaTime": 0,
        "channel": 0,
        "type": "noteOn",
        "noteNumber": 64,
        "velocity": 79
      },
      {
        "deltaTime": 2,
        "running": true,
        "channel": 0,
        "type": "noteOn",
        "noteNumber": 61,
        "velocity": 70
      },
      {
        "deltaTime": 0,
        "running": true,
        "channel": 0,
        "type": "noteOn",
        "noteNumber": 59,
        "velocity": 82
      },
      {
        "deltaTime": 16,
        "channel": 0,
        "type": "noteOff",
        "noteNumber": 73,
        "velocity": 0,
        "byte9": true
      },
      {
        "deltaTime": 3,
        "running": true,
        "channel": 0,
        "type": "noteOff",
        "noteNumber": 85,
        "velocity": 0,
        "byte9": true
      },
      {
        "deltaTime": 8,
        "channel": 0,
        "type": "noteOff",
        "noteNumber": 64,
        "velocity": 0,
        "byte9": true
      },
      {
        "deltaTime": 2,
        "running": true,
        "channel": 0,
        "type": "noteOff",
        "noteNumber": 61,
        "velocity": 0,
        "byte9": true
      },
      {
        "deltaTime": 0,
        "running": true,
        "channel": 0,
        "type": "noteOff",
        "noteNumber": 59,
        "velocity": 0,
        "byte9": true
      },
      {
        "deltaTime": 3,
        "running": true,
        "channel": 0,
        "type": "noteOff",
        "noteNumber": 55,
        "velocity": 0,
        "byte9": true
      },
      {
        "deltaTime": 18,
        "channel": 0,
        "type": "noteOn",
        "noteNumber": 76,
        "velocity": 74
      },
      {
        "deltaTime": 2,
        "running": true,
        "channel": 0,
        "type": "noteOn",
        "noteNumber": 88,
        "velocity": 65
      },
      {
        "deltaTime": 1,
        "channel": 0,
        "type": "noteOn",
        "noteNumber": 55,
        "velocity": 52
      },
      {
        "deltaTime": 0,
        "running": true,
        "channel": 0,
        "type": "noteOn",
        "noteNumber": 59,
        "velocity": 69
      },
      {
        "deltaTime": 0,
        "running": true,
        "channel": 0,
        "type": "noteOn",
        "noteNumber": 64,
        "velocity": 70
      },
      {
        "deltaTime": 1,
        "running": true,
        "channel": 0,
        "type": "noteOn",
        "noteNumber": 61,
        "velocity": 69
      },
      {
        "deltaTime": 7,
        "channel": 0,
        "type": "noteOff",
        "noteNumber": 76,
        "velocity": 0,
        "byte9": true
      },
      {
        "deltaTime": 4,
        "channel": 0,
        "type": "noteOff",
        "noteNumber": 55,
        "velocity": 0,
        "byte9": true
      },
      {
        "deltaTime": 0,
        "running": true,
        "channel": 0,
        "type": "noteOff",
        "noteNumber": 64,
        "velocity": 0,
        "byte9": true
      },
      {
        "deltaTime": 1,
        "running": true,
        "channel": 0,
        "type": "noteOff",
        "noteNumber": 59,
        "velocity": 0,
        "byte9": true
      },
      {
        "deltaTime": 2,
        "running": true,
        "channel": 0,
        "type": "noteOff",
        "noteNumber": 61,
        "velocity": 0,
        "byte9": true
      },
      {
        "deltaTime": 1,
        "channel": 0,
        "type": "noteOff",
        "noteNumber": 88,
        "velocity": 0,
        "byte9": true
      },
      {
        "deltaTime": 47,
        "channel": 0,
        "type": "noteOn",
        "noteNumber": 66,
        "velocity": 93
      },
      {
        "deltaTime": 0,
        "running": true,
        "channel": 0,
        "type": "noteOn",
        "noteNumber": 55,
        "velocity": 78
      },
      {
        "deltaTime": 1,
        "running": true,
        "channel": 0,
        "type": "noteOn",
        "noteNumber": 61,
        "velocity": 72
      },
      {
        "deltaTime": 3,
        "channel": 0,
        "type": "controller",
        "controllerType": 64,
        "value": 0
      },
      {
        "deltaTime": 0,
        "channel": 0,
        "type": "noteOn",
        "noteNumber": 95,
        "velocity": 66
      },
      {
        "deltaTime": 2,
        "running": true,
        "channel": 0,
        "type": "noteOn",
        "noteNumber": 83,
        "velocity": 45
      },
      {
        "deltaTime": 1,
        "running": true,
        "channel": 0,
        "type": "noteOff",
        "noteNumber": 95,
        "velocity": 0,
        "byte9": true
      },
      {
        "deltaTime": 4,
        "running": true,
        "channel": 0,
        "type": "noteOff",
        "noteNumber": 83,
        "velocity": 0,
        "byte9": true
      },
      {
        "deltaTime": 7,
        "channel": 0,
        "type": "noteOff",
        "noteNumber": 66,
        "velocity": 0,
        "byte9": true
      },
      {
        "deltaTime": 7,
        "running": true,
        "channel": 0,
        "type": "noteOff",
        "noteNumber": 61,
        "velocity": 0,
        "byte9": true
      },
      {
        "deltaTime": 4,
        "running": true,
        "channel": 0,
        "type": "noteOff",
        "noteNumber": 55,
        "velocity": 0,
        "byte9": true
      },
      {
        "deltaTime": 3,
        "channel": 0,
        "type": "controller",
        "controllerType": 64,
        "value": 85
      },
      {
        "deltaTime": 12,
        "running": true,
        "channel": 0,
        "type": "controller",
        "controllerType": 64,
        "value": 0
      },
      {
        "deltaTime": 13,
        "channel": 0,
        "type": "noteOn",
        "noteNumber": 66,
        "velocity": 94
      },
      {
        "deltaTime": 1,
        "running": true,
        "channel": 0,
        "type": "noteOn",
        "noteNumber": 55,
        "velocity": 74
      },
      {
        "deltaTime": 1,
        "channel": 0,
        "type": "noteOn",
        "noteNumber": 94,
        "velocity": 91
      },
      {
        "deltaTime": 1,
        "running": true,
        "channel": 0,
        "type": "noteOn",
        "noteNumber": 82,
        "velocity": 77
      },
      {
        "deltaTime": 1,
        "channel": 0,
        "type": "noteOn",
        "noteNumber": 61,
        "velocity": 68
      },
      {
        "deltaTime": 0,
        "channel": 0,
        "type": "noteOn",
        "noteNumber": 88,
        "velocity": 74
      },
      {
        "deltaTime": 2,
        "channel": 0,
        "type": "controller",
        "controllerType": 64,
        "value": 85
      },
      {
        "deltaTime": 34,
        "channel": 0,
        "type": "noteOff",
        "noteNumber": 66,
        "velocity": 0,
        "byte9": true
      },
      {
        "deltaTime": 1,
        "running": true,
        "channel": 0,
        "type": "noteOff",
        "noteNumber": 55,
        "velocity": 0,
        "byte9": true
      },
      {
        "deltaTime": 3,
        "running": true,
        "channel": 0,
        "type": "noteOff",
        "noteNumber": 61,
        "velocity": 0,
        "byte9": true
      },
      {
        "deltaTime": 1,
        "channel": 0,
        "type": "noteOff",
        "noteNumber": 88,
        "velocity": 0,
        "byte9": true
      },
      {
        "deltaTime": 5,
        "running": true,
        "channel": 0,
        "type": "noteOff",
        "noteNumber": 94,
        "velocity": 0,
        "byte9": true
      },
      {
        "deltaTime": 1,
        "running": true,
        "channel": 0,
        "type": "noteOff",
        "noteNumber": 82,
        "velocity": 0,
        "byte9": true
      },
      {
        "deltaTime": 15,
        "channel": 0,
        "type": "noteOn",
        "noteNumber": 55,
        "velocity": 74
      },
      {
        "deltaTime": 0,
        "running": true,
        "channel": 0,
        "type": "noteOn",
        "noteNumber": 65,
        "velocity": 87
      },
      {
        "deltaTime": 0,
        "running": true,
        "channel": 0,
        "type": "noteOn",
        "noteNumber": 61,
        "velocity": 69
      },
      {
        "deltaTime": 2,
        "channel": 0,
        "type": "noteOn",
        "noteNumber": 81,
        "velocity": 83
      },
      {
        "deltaTime": 0,
        "running": true,
        "channel": 0,
        "type": "noteOn",
        "noteNumber": 93,
        "velocity": 93
      },
      {
        "deltaTime": 26,
        "channel": 0,
        "type": "noteOff",
        "noteNumber": 65,
        "velocity": 0,
        "byte9": true
      },
      {
        "deltaTime": 2,
        "running": true,
        "channel": 0,
        "type": "noteOff",
        "noteNumber": 55,
        "velocity": 0,
        "byte9": true
      },
      {
        "deltaTime": 2,
        "channel": 0,
        "type": "noteOff",
        "noteNumber": 81,
        "velocity": 0,
        "byte9": true
      },
      {
        "deltaTime": 1,
        "running": true,
        "channel": 0,
        "type": "noteOff",
        "noteNumber": 93,
        "velocity": 0,
        "byte9": true
      },
      {
        "deltaTime": 1,
        "channel": 0,
        "type": "noteOff",
        "noteNumber": 61,
        "velocity": 0,
        "byte9": true
      },
      {
        "deltaTime": 22,
        "running": true,
        "channel": 0,
        "type": "noteOn",
        "noteNumber": 61,
        "velocity": 74
      },
      {
        "deltaTime": 2,
        "running": true,
        "channel": 0,
        "type": "noteOn",
        "noteNumber": 55,
        "velocity": 54
      },
      {
        "deltaTime": 1,
        "channel": 0,
        "type": "noteOn",
        "noteNumber": 93,
        "velocity": 88
      },
      {
        "deltaTime": 3,
        "running": true,
        "channel": 0,
        "type": "noteOn",
        "noteNumber": 81,
        "velocity": 62
      },
      {
        "deltaTime": 5,
        "channel": 0,
        "type": "noteOff",
        "noteNumber": 55,
        "velocity": 0,
        "byte9": true
      },
      {
        "deltaTime": 7,
        "running": true,
        "channel": 0,
        "type": "noteOff",
        "noteNumber": 61,
        "velocity": 0,
        "byte9": true
      },
      {
        "deltaTime": 4,
        "channel": 0,
        "type": "noteOff",
        "noteNumber": 81,
        "velocity": 0,
        "byte9": true
      },
      {
        "deltaTime": 10,
        "running": true,
        "channel": 0,
        "type": "noteOff",
        "noteNumber": 93,
        "velocity": 0,
        "byte9": true
      },
      {
        "deltaTime": 26,
        "channel": 0,
        "type": "controller",
        "controllerType": 64,
        "value": 0
      },
      {
        "deltaTime": 2,
        "channel": 0,
        "type": "noteOn",
        "noteNumber": 93,
        "velocity": 80
      },
      {
        "deltaTime": 1,
        "channel": 0,
        "type": "noteOn",
        "noteNumber": 64,
        "velocity": 74
      },
      {
        "deltaTime": 0,
        "running": true,
        "channel": 0,
        "type": "noteOn",
        "noteNumber": 54,
        "velocity": 73
      },
      {
        "deltaTime": 1,
        "channel": 0,
        "type": "noteOn",
        "noteNumber": 87,
        "velocity": 61
      },
      {
        "deltaTime": 0,
        "running": true,
        "channel": 0,
        "type": "noteOn",
        "noteNumber": 81,
        "velocity": 59
      },
      {
        "deltaTime": 1,
        "channel": 0,
        "type": "noteOn",
        "noteNumber": 60,
        "velocity": 52
      },
      {
        "deltaTime": 12,
        "running": true,
        "channel": 0,
        "type": "noteOff",
        "noteNumber": 64,
        "velocity": 0,
        "byte9": true
      },
      {
        "deltaTime": 2,
        "running": true,
        "channel": 0,
        "type": "noteOff",
        "noteNumber": 60,
        "velocity": 0,
        "byte9": true
      },
      {
        "deltaTime": 2,
        "channel": 0,
        "type": "controller",
        "controllerType": 64,
        "value": 85
      },
      {
        "deltaTime": 5,
        "channel": 0,
        "type": "noteOff",
        "noteNumber": 54,
        "velocity": 0,
        "byte9": true
      },
      {
        "deltaTime": 18,
        "channel": 0,
        "type": "noteOff",
        "noteNumber": 93,
        "velocity": 0,
        "byte9": true
      },
      {
        "deltaTime": 1,
        "running": true,
        "channel": 0,
        "type": "noteOff",
        "noteNumber": 87,
        "velocity": 0,
        "byte9": true
      },
      {
        "deltaTime": 6,
        "running": true,
        "channel": 0,
        "type": "noteOff",
        "noteNumber": 81,
        "velocity": 0,
        "byte9": true
      },
      {
        "deltaTime": 20,
        "channel": 0,
        "type": "noteOn",
        "noteNumber": 38,
        "velocity": 68
      },
      {
        "deltaTime": 27,
        "running": true,
        "channel": 0,
        "type": "noteOff",
        "noteNumber": 38,
        "velocity": 0,
        "byte9": true
      },
      {
        "deltaTime": 26,
        "channel": 0,
        "type": "noteOn",
        "noteNumber": 63,
        "velocity": 81
      },
      {
        "deltaTime": 0,
        "running": true,
        "channel": 0,
        "type": "noteOn",
        "noteNumber": 54,
        "velocity": 76
      },
      {
        "deltaTime": 1,
        "channel": 0,
        "type": "noteOn",
        "noteNumber": 51,
        "velocity": 79
      },
      {
        "deltaTime": 1,
        "channel": 0,
        "type": "noteOn",
        "noteNumber": 57,
        "velocity": 70
      },
      {
        "deltaTime": 4,
        "running": true,
        "channel": 0,
        "type": "noteOn",
        "noteNumber": 60,
        "velocity": 45
      },
      {
        "deltaTime": 4,
        "channel": 0,
        "type": "controller",
        "controllerType": 64,
        "value": 0
      },
      {
        "deltaTime": 1,
        "channel": 0,
        "type": "noteOff",
        "noteNumber": 54,
        "velocity": 0,
        "byte9": true
      },
      {
        "deltaTime": 6,
        "running": true,
        "channel": 0,
        "type": "noteOff",
        "noteNumber": 63,
        "velocity": 0,
        "byte9": true
      },
      {
        "deltaTime": 0,
        "channel": 0,
        "type": "noteOff",
        "noteNumber": 51,
        "velocity": 0,
        "byte9": true
      },
      {
        "deltaTime": 0,
        "channel": 0,
        "type": "noteOff",
        "noteNumber": 57,
        "velocity": 0,
        "byte9": true
      },
      {
        "deltaTime": 0,
        "running": true,
        "channel": 0,
        "type": "noteOff",
        "noteNumber": 60,
        "velocity": 0,
        "byte9": true
      },
      {
        "deltaTime": 14,
        "running": true,
        "channel": 0,
        "type": "noteOn",
        "noteNumber": 63,
        "velocity": 53
      },
      {
        "deltaTime": 2,
        "running": true,
        "channel": 0,
        "type": "noteOn",
        "noteNumber": 54,
        "velocity": 63
      },
      {
        "deltaTime": 3,
        "running": true,
        "channel": 0,
        "type": "noteOn",
        "noteNumber": 57,
        "velocity": 52
      },
      {
        "deltaTime": 0,
        "running": true,
        "channel": 0,
        "type": "noteOn",
        "noteNumber": 51,
        "velocity": 49
      },
      {
        "deltaTime": 3,
        "running": true,
        "channel": 0,
        "type": "noteOn",
        "noteNumber": 60,
        "velocity": 42
      },
      {
        "deltaTime": 8,
        "running": true,
        "channel": 0,
        "type": "noteOff",
        "noteNumber": 63,
        "velocity": 0,
        "byte9": true
      },
      {
        "deltaTime": 0,
        "running": true,
        "channel": 0,
        "type": "noteOff",
        "noteNumber": 54,
        "velocity": 0,
        "byte9": true
      },
      {
        "deltaTime": 3,
        "running": true,
        "channel": 0,
        "type": "noteOff",
        "noteNumber": 60,
        "velocity": 0,
        "byte9": true
      },
      {
        "deltaTime": 3,
        "running": true,
        "channel": 0,
        "type": "noteOff",
        "noteNumber": 57,
        "velocity": 0,
        "byte9": true
      },
      {
        "deltaTime": 0,
        "running": true,
        "channel": 0,
        "type": "noteOff",
        "noteNumber": 51,
        "velocity": 0,
        "byte9": true
      },
      {
        "deltaTime": 2,
        "channel": 0,
        "type": "controller",
        "controllerType": 64,
        "value": 85
      },
      {
        "deltaTime": 3,
        "running": true,
        "channel": 0,
        "type": "controller",
        "controllerType": 64,
        "value": 0
      },
      {
        "deltaTime": 2,
        "channel": 0,
        "type": "noteOn",
        "noteNumber": 54,
        "velocity": 38
      },
      {
        "deltaTime": 1,
        "running": true,
        "channel": 0,
        "type": "noteOn",
        "noteNumber": 62,
        "velocity": 61
      },
      {
        "deltaTime": 2,
        "running": true,
        "channel": 0,
        "type": "noteOn",
        "noteNumber": 57,
        "velocity": 50
      },
      {
        "deltaTime": 1,
        "channel": 0,
        "type": "noteOn",
        "noteNumber": 50,
        "velocity": 77
      },
      {
        "deltaTime": 26,
        "channel": 0,
        "type": "controller",
        "controllerType": 64,
        "value": 85
      },
      {
        "deltaTime": 2,
        "channel": 0,
        "type": "noteOff",
        "noteNumber": 57,
        "velocity": 0,
        "byte9": true
      },
      {
        "deltaTime": 8,
        "running": true,
        "channel": 0,
        "type": "noteOff",
        "noteNumber": 54,
        "velocity": 0,
        "byte9": true
      },
      {
        "deltaTime": 14,
        "running": true,
        "channel": 0,
        "type": "noteOff",
        "noteNumber": 62,
        "velocity": 0,
        "byte9": true
      },
      {
        "deltaTime": 0,
        "running": true,
        "channel": 0,
        "type": "noteOn",
        "noteNumber": 54,
        "velocity": 61
      },
      {
        "deltaTime": 1,
        "channel": 0,
        "type": "noteOff",
        "noteNumber": 50,
        "velocity": 0,
        "byte9": true
      },
      {
        "deltaTime": 2,
        "channel": 0,
        "type": "noteOn",
        "noteNumber": 61,
        "velocity": 67
      },
      {
        "deltaTime": 1,
        "channel": 0,
        "type": "noteOn",
        "noteNumber": 49,
        "velocity": 61
      },
      {
        "deltaTime": 2,
        "channel": 0,
        "type": "noteOn",
        "noteNumber": 57,
        "velocity": 50
      },
      {
        "deltaTime": 2,
        "channel": 0,
        "type": "controller",
        "controllerType": 64,
        "value": 0
      },
      {
        "deltaTime": 21,
        "running": true,
        "channel": 0,
        "type": "controller",
        "controllerType": 64,
        "value": 85
      },
      {
        "deltaTime": 25,
        "channel": 0,
        "type": "noteOff",
        "noteNumber": 61,
        "velocity": 0,
        "byte9": true
      },
      {
        "deltaTime": 7,
        "running": true,
        "channel": 0,
        "type": "noteOn",
        "noteNumber": 62,
        "velocity": 72
      },
      {
        "deltaTime": 1,
        "channel": 0,
        "type": "controller",
        "controllerType": 64,
        "value": 0
      },
      {
        "deltaTime": 1,
        "channel": 0,
        "type": "noteOff",
        "noteNumber": 49,
        "velocity": 0,
        "byte9": true
      },
      {
        "deltaTime": 1,
        "running": true,
        "channel": 0,
        "type": "noteOn",
        "noteNumber": 50,
        "velocity": 65
      },
      {
        "deltaTime": 18,
        "channel": 0,
        "type": "controller",
        "controllerType": 64,
        "value": 85
      },
      {
        "deltaTime": 26,
        "channel": 0,
        "type": "noteOff",
        "noteNumber": 57,
        "velocity": 0,
        "byte9": true
      },
      {
        "deltaTime": 1,
        "channel": 0,
        "type": "noteOff",
        "noteNumber": 50,
        "velocity": 0,
        "byte9": true
      },
      {
        "deltaTime": 2,
        "channel": 0,
        "type": "noteOff",
        "noteNumber": 54,
        "velocity": 0,
        "byte9": true
      },
      {
        "deltaTime": 10,
        "running": true,
        "channel": 0,
        "type": "noteOn",
        "noteNumber": 57,
        "velocity": 56
      },
      {
        "deltaTime": 4,
        "channel": 0,
        "type": "noteOn",
        "noteNumber": 50,
        "velocity": 45
      },
      {
        "deltaTime": 1,
        "channel": 0,
        "type": "noteOn",
        "noteNumber": 54,
        "velocity": 16
      },
      {
        "deltaTime": 23,
        "running": true,
        "channel": 0,
        "type": "noteOff",
        "noteNumber": 54,
        "velocity": 0,
        "byte9": true
      },
      {
        "deltaTime": 2,
        "channel": 0,
        "type": "noteOff",
        "noteNumber": 50,
        "velocity": 0,
        "byte9": true
      },
      {
        "deltaTime": 28,
        "channel": 0,
        "type": "noteOff",
        "noteNumber": 62,
        "velocity": 0,
        "byte9": true
      },
      {
        "deltaTime": 0,
        "channel": 0,
        "type": "noteOn",
        "noteNumber": 54,
        "velocity": 39
      },
      {
        "deltaTime": 1,
        "running": true,
        "channel": 0,
        "type": "noteOn",
        "noteNumber": 50,
        "velocity": 58
      },
      {
        "deltaTime": 6,
        "running": true,
        "channel": 0,
        "type": "noteOff",
        "noteNumber": 54,
        "velocity": 0,
        "byte9": true
      },
      {
        "deltaTime": 5,
        "channel": 0,
        "type": "noteOff",
        "noteNumber": 57,
        "velocity": 0,
        "byte9": true
      },
      {
        "deltaTime": 36,
        "channel": 0,
        "type": "noteOff",
        "noteNumber": 50,
        "velocity": 0,
        "byte9": true
      },
      {
        "deltaTime": 13,
        "channel": 0,
        "type": "noteOn",
        "noteNumber": 53,
        "velocity": 64
      },
      {
        "deltaTime": 3,
        "running": true,
        "channel": 0,
        "type": "noteOn",
        "noteNumber": 58,
        "velocity": 60
      },
      {
        "deltaTime": 1,
        "channel": 0,
        "type": "noteOn",
        "noteNumber": 43,
        "velocity": 65
      },
      {
        "deltaTime": 0,
        "channel": 0,
        "type": "noteOn",
        "noteNumber": 62,
        "velocity": 42
      },
      {
        "deltaTime": 4,
        "channel": 0,
        "type": "controller",
        "controllerType": 64,
        "value": 0
      },
      {
        "deltaTime": 35,
        "running": true,
        "channel": 0,
        "type": "controller",
        "controllerType": 64,
        "value": 85
      },
      {
        "deltaTime": 14,
        "channel": 0,
        "type": "noteOff",
        "noteNumber": 53,
        "velocity": 0,
        "byte9": true
      },
      {
        "deltaTime": 4,
        "channel": 0,
        "type": "noteOn",
        "noteNumber": 50,
        "velocity": 72
      },
      {
        "deltaTime": 12,
        "channel": 0,
        "type": "noteOff",
        "noteNumber": 58,
        "velocity": 0,
        "byte9": true
      },
      {
        "deltaTime": 39,
        "running": true,
        "channel": 0,
        "type": "noteOff",
        "noteNumber": 62,
        "velocity": 0,
        "byte9": true
      },
      {
        "deltaTime": 6,
        "channel": 0,
        "type": "noteOff",
        "noteNumber": 43,
        "velocity": 0,
        "byte9": true
      },
      {
        "deltaTime": 1,
        "running": true,
        "channel": 0,
        "type": "noteOn",
        "noteNumber": 53,
        "velocity": 58
      },
      {
        "deltaTime": 9,
        "running": true,
        "channel": 0,
        "type": "noteOff",
        "noteNumber": 50,
        "velocity": 0,
        "byte9": true
      },
      {
        "deltaTime": 38,
        "running": true,
        "channel": 0,
        "type": "noteOff",
        "noteNumber": 53,
        "velocity": 0,
        "byte9": true
      },
      {
        "deltaTime": 8,
        "channel": 0,
        "type": "noteOn",
        "noteNumber": 62,
        "velocity": 73
      },
      {
        "deltaTime": 13,
        "running": true,
        "channel": 0,
        "type": "noteOff",
        "noteNumber": 62,
        "velocity": 0,
        "byte9": true
      },
      {
        "deltaTime": 47,
        "running": true,
        "channel": 0,
        "type": "noteOn",
        "noteNumber": 67,
        "velocity": 91
      },
      {
        "deltaTime": 1,
        "running": true,
        "channel": 0,
        "type": "noteOn",
        "noteNumber": 63,
        "velocity": 85
      },
      {
        "deltaTime": 0,
        "running": true,
        "channel": 0,
        "type": "noteOn",
        "noteNumber": 59,
        "velocity": 96
      },
      {
        "deltaTime": 1,
        "channel": 0,
        "type": "noteOn",
        "noteNumber": 37,
        "velocity": 95
      },
      {
        "deltaTime": 3,
        "channel": 0,
        "type": "controller",
        "controllerType": 64,
        "value": 0
      },
      {
        "deltaTime": 51,
        "running": true,
        "channel": 0,
        "type": "controller",
        "controllerType": 64,
        "value": 85
      },
      {
        "deltaTime": 8,
        "channel": 0,
        "type": "noteOn",
        "noteNumber": 44,
        "velocity": 93
      },
      {
        "deltaTime": 1,
        "running": true,
        "channel": 0,
        "type": "noteOff",
        "noteNumber": 37,
        "velocity": 0,
        "byte9": true
      },
      {
        "deltaTime": 29,
        "channel": 0,
        "type": "noteOff",
        "noteNumber": 63,
        "velocity": 0,
        "byte9": true
      },
      {
        "deltaTime": 10,
        "running": true,
        "channel": 0,
        "type": "noteOff",
        "noteNumber": 59,
        "velocity": 0,
        "byte9": true
      },
      {
        "deltaTime": 16,
        "channel": 0,
        "type": "noteOn",
        "noteNumber": 53,
        "velocity": 87
      },
      {
        "deltaTime": 25,
        "running": true,
        "channel": 0,
        "type": "noteOff",
        "noteNumber": 53,
        "velocity": 0,
        "byte9": true
      },
      {
        "deltaTime": 7,
        "running": true,
        "channel": 0,
        "type": "noteOff",
        "noteNumber": 44,
        "velocity": 0,
        "byte9": true
      },
      {
        "deltaTime": 4,
        "channel": 0,
        "type": "noteOff",
        "noteNumber": 67,
        "velocity": 0,
        "byte9": true
      },
      {
        "deltaTime": 24,
        "running": true,
        "channel": 0,
        "type": "noteOn",
        "noteNumber": 67,
        "velocity": 74
      },
      {
        "deltaTime": 1,
        "running": true,
        "channel": 0,
        "type": "noteOn",
        "noteNumber": 59,
        "velocity": 68
      },
      {
        "deltaTime": 0,
        "running": true,
        "channel": 0,
        "type": "noteOn",
        "noteNumber": 63,
        "velocity": 81
      },
      {
        "deltaTime": 18,
        "running": true,
        "channel": 0,
        "type": "noteOff",
        "noteNumber": 59,
        "velocity": 0,
        "byte9": true
      },
      {
        "deltaTime": 19,
        "running": true,
        "channel": 0,
        "type": "noteOff",
        "noteNumber": 63,
        "velocity": 0,
        "byte9": true
      },
      {
        "deltaTime": 3,
        "running": true,
        "channel": 0,
        "type": "noteOff",
        "noteNumber": 67,
        "velocity": 0,
        "byte9": true
      },
      {
        "deltaTime": 23,
        "running": true,
        "channel": 0,
        "type": "noteOn",
        "noteNumber": 58,
        "velocity": 81
      },
      {
        "deltaTime": 0,
        "running": true,
        "channel": 0,
        "type": "noteOn",
        "noteNumber": 62,
        "velocity": 81
      },
      {
        "deltaTime": 1,
        "running": true,
        "channel": 0,
        "type": "noteOn",
        "noteNumber": 65,
        "velocity": 83
      },
      {
        "deltaTime": 2,
        "channel": 0,
        "type": "noteOn",
        "noteNumber": 36,
        "velocity": 84
      },
      {
        "deltaTime": 1,
        "running": true,
        "channel": 0,
        "type": "noteOn",
        "noteNumber": 48,
        "velocity": 75
      },
      {
        "deltaTime": 2,
        "channel": 0,
        "type": "controller",
        "controllerType": 64,
        "value": 0
      },
      {
        "deltaTime": 37,
        "running": true,
        "channel": 0,
        "type": "controller",
        "controllerType": 64,
        "value": 85
      },
      {
        "deltaTime": 23,
        "channel": 0,
        "type": "noteOn",
        "noteNumber": 43,
        "velocity": 73
      },
      {
        "deltaTime": 3,
        "running": true,
        "channel": 0,
        "type": "noteOff",
        "noteNumber": 48,
        "velocity": 0,
        "byte9": true
      },
      {
        "deltaTime": 16,
        "channel": 0,
        "type": "noteOff",
        "noteNumber": 58,
        "velocity": 0,
        "byte9": true
      },
      {
        "deltaTime": 2,
        "running": true,
        "channel": 0,
        "type": "noteOff",
        "noteNumber": 62,
        "velocity": 0,
        "byte9": true
      },
      {
        "deltaTime": 37,
        "running": true,
        "channel": 0,
        "type": "noteOn",
        "noteNumber": 58,
        "velocity": 70
      },
      {
        "deltaTime": 2,
        "running": true,
        "channel": 0,
        "type": "noteOn",
        "noteNumber": 62,
        "velocity": 60
      },
      {
        "deltaTime": 2,
        "channel": 0,
        "type": "noteOn",
        "noteNumber": 48,
        "velocity": 59
      },
      {
        "deltaTime": 7,
        "running": true,
        "channel": 0,
        "type": "noteOff",
        "noteNumber": 43,
        "velocity": 0,
        "byte9": true
      },
      {
        "deltaTime": 32,
        "running": true,
        "channel": 0,
        "type": "noteOff",
        "noteNumber": 36,
        "velocity": 0,
        "byte9": true
      },
      {
        "deltaTime": 17,
        "running": true,
        "channel": 0,
        "type": "noteOn",
        "noteNumber": 36,
        "velocity": 65
      },
      {
        "deltaTime": 2,
        "channel": 0,
        "type": "noteOff",
        "noteNumber": 65,
        "velocity": 0,
        "byte9": true
      },
      {
        "deltaTime": 11,
        "running": true,
        "channel": 0,
        "type": "noteOff",
        "noteNumber": 62,
        "velocity": 0,
        "byte9": true
      },
      {
        "deltaTime": 0,
        "channel": 0,
        "type": "noteOff",
        "noteNumber": 48,
        "velocity": 0,
        "byte9": true
      },
      {
        "deltaTime": 5,
        "channel": 0,
        "type": "noteOff",
        "noteNumber": 58,
        "velocity": 0,
        "byte9": true
      },
      {
        "deltaTime": 10,
        "channel": 0,
        "type": "noteOff",
        "noteNumber": 36,
        "velocity": 0,
        "byte9": true
      },
      {
        "deltaTime": 33,
        "running": true,
        "channel": 0,
        "type": "noteOn",
        "noteNumber": 48,
        "velocity": 60
      },
      {
        "deltaTime": 1,
        "channel": 0,
        "type": "noteOn",
        "noteNumber": 64,
        "velocity": 58
      },
      {
        "deltaTime": 1,
        "channel": 0,
        "type": "controller",
        "controllerType": 64,
        "value": 0
      },
      {
        "deltaTime": 0,
        "channel": 0,
        "type": "noteOn",
        "noteNumber": 58,
        "velocity": 46
      },
      {
        "deltaTime": 0,
        "channel": 0,
        "type": "noteOn",
        "noteNumber": 36,
        "velocity": 74
      },
      {
        "deltaTime": 49,
        "channel": 0,
        "type": "controller",
        "controllerType": 64,
        "value": 85
      },
      {
        "deltaTime": 24,
        "channel": 0,
        "type": "noteOff",
        "noteNumber": 48,
        "velocity": 0,
        "byte9": true
      },
      {
        "deltaTime": 29,
        "channel": 0,
        "type": "noteOff",
        "noteNumber": 58,
        "velocity": 0,
        "byte9": true
      },
      {
        "deltaTime": 20,
        "channel": 0,
        "type": "noteOff",
        "noteNumber": 36,
        "velocity": 0,
        "byte9": true
      },
      {
        "deltaTime": 7,
        "channel": 0,
        "type": "noteOff",
        "noteNumber": 64,
        "velocity": 0,
        "byte9": true
      },
      {
        "deltaTime": 47,
        "channel": 0,
        "type": "noteOn",
        "noteNumber": 48,
        "velocity": 48
      },
      {
        "deltaTime": 11,
        "running": true,
        "channel": 0,
        "type": "noteOff",
        "noteNumber": 48,
        "velocity": 0,
        "byte9": true
      },
      {
        "deltaTime": 49,
        "running": true,
        "channel": 0,
        "type": "noteOn",
        "noteNumber": 41,
        "velocity": 60
      },
      {
        "deltaTime": 16,
        "channel": 0,
        "type": "controller",
        "controllerType": 64,
        "value": 0
      },
      {
        "deltaTime": 44,
        "channel": 0,
        "type": "noteOn",
        "noteNumber": 48,
        "velocity": 48
      },
      {
        "deltaTime": 37,
        "channel": 0,
        "type": "controller",
        "controllerType": 64,
        "value": 85
      },
      {
        "deltaTime": 17,
        "channel": 0,
        "type": "noteOff",
        "noteNumber": 48,
        "velocity": 0,
        "byte9": true
      },
      {
        "deltaTime": 0,
        "channel": 0,
        "type": "noteOn",
        "noteNumber": 53,
        "velocity": 61
      },
      {
        "deltaTime": 1,
        "running": true,
        "channel": 0,
        "type": "noteOn",
        "noteNumber": 62,
        "velocity": 51
      },
      {
        "deltaTime": 1,
        "channel": 0,
        "type": "controller",
        "controllerType": 64,
        "value": 0
      },
      {
        "deltaTime": 0,
        "channel": 0,
        "type": "noteOn",
        "noteNumber": 60,
        "velocity": 49
      },
      {
        "deltaTime": 1,
        "running": true,
        "channel": 0,
        "type": "noteOn",
        "noteNumber": 57,
        "velocity": 56
      },
      {
        "deltaTime": 1,
        "channel": 0,
        "type": "noteOn",
        "noteNumber": 50,
        "velocity": 49
      },
      {
        "deltaTime": 56,
        "running": true,
        "channel": 0,
        "type": "noteOff",
        "noteNumber": 50,
        "velocity": 0,
        "byte9": true
      },
      {
        "deltaTime": 3,
        "running": true,
        "channel": 0,
        "type": "noteOn",
        "noteNumber": 48,
        "velocity": 48
      },
      {
        "deltaTime": 2,
        "channel": 0,
        "type": "noteOff",
        "noteNumber": 53,
        "velocity": 0,
        "byte9": true
      },
      {
        "deltaTime": 1,
        "running": true,
        "channel": 0,
        "type": "noteOff",
        "noteNumber": 57,
        "velocity": 0,
        "byte9": true
      },
      {
        "deltaTime": 2,
        "running": true,
        "channel": 0,
        "type": "noteOff",
        "noteNumber": 62,
        "velocity": 0,
        "byte9": true
      },
      {
        "deltaTime": 1,
        "running": true,
        "channel": 0,
        "type": "noteOff",
        "noteNumber": 60,
        "velocity": 0,
        "byte9": true
      },
      {
        "deltaTime": 51,
        "running": true,
        "channel": 0,
        "type": "noteOn",
        "noteNumber": 53,
        "velocity": 43
      },
      {
        "deltaTime": 0,
        "running": true,
        "channel": 0,
        "type": "noteOn",
        "noteNumber": 62,
        "velocity": 35
      },
      {
        "deltaTime": 2,
        "running": true,
        "channel": 0,
        "type": "noteOn",
        "noteNumber": 60,
        "velocity": 38
      },
      {
        "deltaTime": 0,
        "running": true,
        "channel": 0,
        "type": "noteOn",
        "noteNumber": 57,
        "velocity": 50
      },
      {
        "deltaTime": 1,
        "channel": 0,
        "type": "noteOff",
        "noteNumber": 48,
        "velocity": 0,
        "byte9": true
      },
      {
        "deltaTime": 1,
        "running": true,
        "channel": 0,
        "type": "noteOn",
        "noteNumber": 50,
        "velocity": 55
      },
      {
        "deltaTime": 14,
        "running": true,
        "channel": 0,
        "type": "noteOff",
        "noteNumber": 50,
        "velocity": 0,
        "byte9": true
      },
      {
        "deltaTime": 1,
        "channel": 0,
        "type": "noteOff",
        "noteNumber": 60,
        "velocity": 0,
        "byte9": true
      },
      {
        "deltaTime": 0,
        "running": true,
        "channel": 0,
        "type": "noteOff",
        "noteNumber": 57,
        "velocity": 0,
        "byte9": true
      },
      {
        "deltaTime": 3,
        "running": true,
        "channel": 0,
        "type": "noteOff",
        "noteNumber": 62,
        "velocity": 0,
        "byte9": true
      },
      {
        "deltaTime": 1,
        "running": true,
        "channel": 0,
        "type": "noteOff",
        "noteNumber": 53,
        "velocity": 0,
        "byte9": true
      },
      {
        "deltaTime": 37,
        "running": true,
        "channel": 0,
        "type": "noteOn",
        "noteNumber": 53,
        "velocity": 55
      },
      {
        "deltaTime": 2,
        "running": true,
        "channel": 0,
        "type": "noteOn",
        "noteNumber": 62,
        "velocity": 48
      },
      {
        "deltaTime": 1,
        "running": true,
        "channel": 0,
        "type": "noteOn",
        "noteNumber": 57,
        "velocity": 58
      },
      {
        "deltaTime": 0,
        "running": true,
        "channel": 0,
        "type": "noteOn",
        "noteNumber": 60,
        "velocity": 50
      },
      {
        "deltaTime": 1,
        "channel": 0,
        "type": "noteOn",
        "noteNumber": 50,
        "velocity": 51
      },
      {
        "deltaTime": 43,
        "channel": 0,
        "type": "controller",
        "controllerType": 64,
        "value": 85
      },
      {
        "deltaTime": 73,
        "channel": 0,
        "type": "noteOff",
        "noteNumber": 50,
        "velocity": 0,
        "byte9": true
      },
      {
        "deltaTime": 4,
        "running": true,
        "channel": 0,
        "type": "noteOn",
        "noteNumber": 48,
        "velocity": 54
      },
      {
        "deltaTime": 1,
        "channel": 0,
        "type": "noteOff",
        "noteNumber": 57,
        "velocity": 0,
        "byte9": true
      },
      {
        "deltaTime": 4,
        "running": true,
        "channel": 0,
        "type": "noteOff",
        "noteNumber": 62,
        "velocity": 0,
        "byte9": true
      },
      {
        "deltaTime": 6,
        "running": true,
        "channel": 0,
        "type": "noteOff",
        "noteNumber": 53,
        "velocity": 0,
        "byte9": true
      },
      {
        "deltaTime": 10,
        "running": true,
        "channel": 0,
        "type": "noteOff",
        "noteNumber": 60,
        "velocity": 0,
        "byte9": true
      },
      {
        "deltaTime": 34,
        "channel": 0,
        "type": "noteOff",
        "noteNumber": 48,
        "velocity": 0,
        "byte9": true
      },
      {
        "deltaTime": 1,
        "channel": 0,
        "type": "noteOn",
        "noteNumber": 53,
        "velocity": 56
      },
      {
        "deltaTime": 0,
        "running": true,
        "channel": 0,
        "type": "noteOn",
        "noteNumber": 62,
        "velocity": 54
      },
      {
        "deltaTime": 2,
        "running": true,
        "channel": 0,
        "type": "noteOn",
        "noteNumber": 58,
        "velocity": 58
      },
      {
        "deltaTime": 2,
        "channel": 0,
        "type": "noteOn",
        "noteNumber": 50,
        "velocity": 47
      },
      {
        "deltaTime": 3,
        "channel": 0,
        "type": "controller",
        "controllerType": 64,
        "value": 0
      },
      {
        "deltaTime": 40,
        "channel": 0,
        "type": "noteOff",
        "noteNumber": 50,
        "velocity": 0,
        "byte9": true
      },
      {
        "deltaTime": 0,
        "channel": 0,
        "type": "controller",
        "controllerType": 64,
        "value": 85
      },
      {
        "deltaTime": 12,
        "running": true,
        "channel": 0,
        "type": "controller",
        "controllerType": 64,
        "value": 0
      },
      {
        "deltaTime": 6,
        "channel": 0,
        "type": "noteOn",
        "noteNumber": 50,
        "velocity": 73
      },
      {
        "deltaTime": 21,
        "channel": 0,
        "type": "noteOff",
        "noteNumber": 58,
        "velocity": 0,
        "byte9": true
      },
      {
        "deltaTime": 1,
        "channel": 0,
        "type": "controller",
        "controllerType": 64,
        "value": 85
      },
      {
        "deltaTime": 1,
        "channel": 0,
        "type": "noteOff",
        "noteNumber": 53,
        "velocity": 0,
        "byte9": true
      },
      {
        "deltaTime": 3,
        "running": true,
        "channel": 0,
        "type": "noteOff",
        "noteNumber": 62,
        "velocity": 0,
        "byte9": true
      },
      {
        "deltaTime": 31,
        "running": true,
        "channel": 0,
        "type": "noteOn",
        "noteNumber": 53,
        "velocity": 58
      },
      {
        "deltaTime": 1,
        "running": true,
        "channel": 0,
        "type": "noteOn",
        "noteNumber": 58,
        "velocity": 66
      },
      {
        "deltaTime": 1,
        "running": true,
        "channel": 0,
        "type": "noteOn",
        "noteNumber": 62,
        "velocity": 51
      },
      {
        "deltaTime": 3,
        "channel": 0,
        "type": "controller",
        "controllerType": 64,
        "value": 0
      },
      {
        "deltaTime": 5,
        "channel": 0,
        "type": "noteOff",
        "noteNumber": 41,
        "velocity": 0,
        "byte9": true
      },
      {
        "deltaTime": 50,
        "running": true,
        "channel": 0,
        "type": "noteOn",
        "noteNumber": 48,
        "velocity": 82
      },
      {
        "deltaTime": 7,
        "running": true,
        "channel": 0,
        "type": "noteOff",
        "noteNumber": 50,
        "velocity": 0,
        "byte9": true
      },
      {
        "deltaTime": 21,
        "channel": 0,
        "type": "noteOff",
        "noteNumber": 53,
        "velocity": 0,
        "byte9": true
      },
      {
        "deltaTime": 0,
        "running": true,
        "channel": 0,
        "type": "noteOff",
        "noteNumber": 58,
        "velocity": 0,
        "byte9": true
      },
      {
        "deltaTime": 1,
        "running": true,
        "channel": 0,
        "type": "noteOff",
        "noteNumber": 62,
        "velocity": 0,
        "byte9": true
      },
      {
        "deltaTime": 2,
        "channel": 0,
        "type": "controller",
        "controllerType": 64,
        "value": 85
      },
      {
        "deltaTime": 26,
        "channel": 0,
        "type": "noteOn",
        "noteNumber": 62,
        "velocity": 71
      },
      {
        "deltaTime": 1,
        "running": true,
        "channel": 0,
        "type": "noteOn",
        "noteNumber": 58,
        "velocity": 75
      },
      {
        "deltaTime": 0,
        "running": true,
        "channel": 0,
        "type": "noteOn",
        "noteNumber": 53,
        "velocity": 67
      },
      {
        "deltaTime": 2,
        "channel": 0,
        "type": "controller",
        "controllerType": 64,
        "value": 0
      },
      {
        "deltaTime": 0,
        "channel": 0,
        "type": "noteOn",
        "noteNumber": 50,
        "velocity": 69
      },
      {
        "deltaTime": 4,
        "running": true,
        "channel": 0,
        "type": "noteOff",
        "noteNumber": 48,
        "velocity": 0,
        "byte9": true
      },
      {
        "deltaTime": 47,
        "running": true,
        "channel": 0,
        "type": "noteOff",
        "noteNumber": 50,
        "velocity": 0,
        "byte9": true
      },
      {
        "deltaTime": 10,
        "running": true,
        "channel": 0,
        "type": "noteOn",
        "noteNumber": 50,
        "velocity": 76
      },
      {
        "deltaTime": 15,
        "channel": 0,
        "type": "controller",
        "controllerType": 64,
        "value": 85
      },
      {
        "deltaTime": 6,
        "channel": 0,
        "type": "noteOff",
        "noteNumber": 53,
        "velocity": 0,
        "byte9": true
      },
      {
        "deltaTime": 2,
        "running": true,
        "channel": 0,
        "type": "noteOff",
        "noteNumber": 58,
        "velocity": 0,
        "byte9": true
      },
      {
        "deltaTime": 7,
        "running": true,
        "channel": 0,
        "type": "noteOff",
        "noteNumber": 62,
        "velocity": 0,
        "byte9": true
      },
      {
        "deltaTime": 20,
        "channel": 0,
        "type": "controller",
        "controllerType": 64,
        "value": 0
      },
      {
        "deltaTime": 7,
        "channel": 0,
        "type": "noteOn",
        "noteNumber": 53,
        "velocity": 60
      },
      {
        "deltaTime": 1,
        "running": true,
        "channel": 0,
        "type": "noteOn",
        "noteNumber": 58,
        "velocity": 67
      },
      {
        "deltaTime": 1,
        "running": true,
        "channel": 0,
        "type": "noteOn",
        "noteNumber": 62,
        "velocity": 53
      },
      {
        "deltaTime": 34,
        "channel": 0,
        "type": "controller",
        "controllerType": 64,
        "value": 85
      },
      {
        "deltaTime": 19,
        "running": true,
        "channel": 0,
        "type": "controller",
        "controllerType": 64,
        "value": 0
      },
      {
        "deltaTime": 9,
        "channel": 0,
        "type": "noteOn",
        "noteNumber": 48,
        "velocity": 68
      },
      {
        "deltaTime": 2,
        "running": true,
        "channel": 0,
        "type": "noteOff",
        "noteNumber": 50,
        "velocity": 0,
        "byte9": true
      },
      {
        "deltaTime": 6,
        "channel": 0,
        "type": "noteOff",
        "noteNumber": 53,
        "velocity": 0,
        "byte9": true
      },
      {
        "deltaTime": 16,
        "channel": 0,
        "type": "controller",
        "controllerType": 64,
        "value": 85
      },
      {
        "deltaTime": 10,
        "channel": 0,
        "type": "noteOff",
        "noteNumber": 62,
        "velocity": 0,
        "byte9": true
      },
      {
        "deltaTime": 3,
        "running": true,
        "channel": 0,
        "type": "noteOff",
        "noteNumber": 58,
        "velocity": 0,
        "byte9": true
      },
      {
        "deltaTime": 24,
        "running": true,
        "channel": 0,
        "type": "noteOn",
        "noteNumber": 53,
        "velocity": 62
      },
      {
        "deltaTime": 1,
        "running": true,
        "channel": 0,
        "type": "noteOn",
        "noteNumber": 62,
        "velocity": 13
      },
      {
        "deltaTime": 1,
        "running": true,
        "channel": 0,
        "type": "noteOn",
        "noteNumber": 60,
        "velocity": 52
      },
      {
        "deltaTime": 0,
        "running": true,
        "channel": 0,
        "type": "noteOn",
        "noteNumber": 57,
        "velocity": 54
      },
      {
        "deltaTime": 1,
        "channel": 0,
        "type": "noteOff",
        "noteNumber": 48,
        "velocity": 0,
        "byte9": true
      },
      {
        "deltaTime": 0,
        "running": true,
        "channel": 0,
        "type": "noteOn",
        "noteNumber": 41,
        "velocity": 59
      },
      {
        "deltaTime": 2,
        "channel": 0,
        "type": "controller",
        "controllerType": 64,
        "value": 0
      },
      {
        "deltaTime": 56,
        "channel": 0,
        "type": "noteOn",
        "noteNumber": 48,
        "velocity": 66
      },
      {
        "deltaTime": 33,
        "channel": 0,
        "type": "noteOff",
        "noteNumber": 53,
        "velocity": 0,
        "byte9": true
      },
      {
        "deltaTime": 1,
        "running": true,
        "channel": 0,
        "type": "noteOff",
        "noteNumber": 57,
        "velocity": 0,
        "byte9": true
      },
      {
        "deltaTime": 1,
        "running": true,
        "channel": 0,
        "type": "noteOff",
        "noteNumber": 62,
        "velocity": 0,
        "byte9": true
      },
      {
        "deltaTime": 1,
        "running": true,
        "channel": 0,
        "type": "noteOff",
        "noteNumber": 60,
        "velocity": 0,
        "byte9": true
      },
      {
        "deltaTime": 17,
        "running": true,
        "channel": 0,
        "type": "noteOn",
        "noteNumber": 53,
        "velocity": 61
      },
      {
        "deltaTime": 2,
        "running": true,
        "channel": 0,
        "type": "noteOn",
        "noteNumber": 62,
        "velocity": 23
      },
      {
        "deltaTime": 0,
        "running": true,
        "channel": 0,
        "type": "noteOn",
        "noteNumber": 60,
        "velocity": 47
      },
      {
        "deltaTime": 0,
        "running": true,
        "channel": 0,
        "type": "noteOn",
        "noteNumber": 57,
        "velocity": 58
      },
      {
        "deltaTime": 2,
        "channel": 0,
        "type": "noteOn",
        "noteNumber": 50,
        "velocity": 61
      },
      {
        "deltaTime": 1,
        "running": true,
        "channel": 0,
        "type": "noteOff",
        "noteNumber": 48,
        "velocity": 0,
        "byte9": true
      },
      {
        "deltaTime": 59,
        "running": true,
        "channel": 0,
        "type": "noteOn",
        "noteNumber": 48,
        "velocity": 60
      },
      {
        "deltaTime": 1,
        "running": true,
        "channel": 0,
        "type": "noteOff",
        "noteNumber": 50,
        "velocity": 0,
        "byte9": true
      },
      {
        "deltaTime": 12,
        "channel": 0,
        "type": "noteOff",
        "noteNumber": 53,
        "velocity": 0,
        "byte9": true
      },
      {
        "deltaTime": 2,
        "running": true,
        "channel": 0,
        "type": "noteOff",
        "noteNumber": 57,
        "velocity": 0,
        "byte9": true
      },
      {
        "deltaTime": 3,
        "running": true,
        "channel": 0,
        "type": "noteOff",
        "noteNumber": 60,
        "velocity": 0,
        "byte9": true
      },
      {
        "deltaTime": 7,
        "running": true,
        "channel": 0,
        "type": "noteOff",
        "noteNumber": 62,
        "velocity": 0,
        "byte9": true
      },
      {
        "deltaTime": 34,
        "running": true,
        "channel": 0,
        "type": "noteOn",
        "noteNumber": 53,
        "velocity": 51
      },
      {
        "deltaTime": 2,
        "running": true,
        "channel": 0,
        "type": "noteOn",
        "noteNumber": 62,
        "velocity": 35
      },
      {
        "deltaTime": 0,
        "running": true,
        "channel": 0,
        "type": "noteOn",
        "noteNumber": 60,
        "velocity": 45
      },
      {
        "deltaTime": 0,
        "channel": 0,
        "type": "noteOn",
        "noteNumber": 50,
        "velocity": 54
      },
      {
        "deltaTime": 1,
        "channel": 0,
        "type": "noteOn",
        "noteNumber": 57,
        "velocity": 59
      },
      {
        "deltaTime": 3,
        "channel": 0,
        "type": "noteOff",
        "noteNumber": 48,
        "velocity": 0,
        "byte9": true
      },
      {
        "deltaTime": 12,
        "channel": 0,
        "type": "noteOff",
        "noteNumber": 57,
        "velocity": 0,
        "byte9": true
      },
      {
        "deltaTime": 3,
        "running": true,
        "channel": 0,
        "type": "noteOff",
        "noteNumber": 60,
        "velocity": 0,
        "byte9": true
      },
      {
        "deltaTime": 2,
        "channel": 0,
        "type": "noteOff",
        "noteNumber": 50,
        "velocity": 0,
        "byte9": true
      },
      {
        "deltaTime": 1,
        "channel": 0,
        "type": "noteOff",
        "noteNumber": 53,
        "velocity": 0,
        "byte9": true
      },
      {
        "deltaTime": 3,
        "running": true,
        "channel": 0,
        "type": "noteOff",
        "noteNumber": 62,
        "velocity": 0,
        "byte9": true
      },
      {
        "deltaTime": 33,
        "running": true,
        "channel": 0,
        "type": "noteOn",
        "noteNumber": 53,
        "velocity": 62
      },
      {
        "deltaTime": 1,
        "channel": 0,
        "type": "noteOn",
        "noteNumber": 50,
        "velocity": 58
      },
      {
        "deltaTime": 1,
        "channel": 0,
        "type": "noteOn",
        "noteNumber": 62,
        "velocity": 50
      },
      {
        "deltaTime": 0,
        "running": true,
        "channel": 0,
        "type": "noteOn",
        "noteNumber": 60,
        "velocity": 53
      },
      {
        "deltaTime": 1,
        "running": true,
        "channel": 0,
        "type": "noteOn",
        "noteNumber": 57,
        "velocity": 57
      },
      {
        "deltaTime": 15,
        "running": true,
        "channel": 0,
        "type": "noteOff",
        "noteNumber": 57,
        "velocity": 0,
        "byte9": true
      },
      {
        "deltaTime": 1,
        "channel": 0,
        "type": "noteOff",
        "noteNumber": 50,
        "velocity": 0,
        "byte9": true
      },
      {
        "deltaTime": 2,
        "channel": 0,
        "type": "noteOff",
        "noteNumber": 53,
        "velocity": 0,
        "byte9": true
      },
      {
        "deltaTime": 1,
        "running": true,
        "channel": 0,
        "type": "noteOff",
        "noteNumber": 60,
        "velocity": 0,
        "byte9": true
      },
      {
        "deltaTime": 3,
        "running": true,
        "channel": 0,
        "type": "noteOff",
        "noteNumber": 62,
        "velocity": 0,
        "byte9": true
      },
      {
        "deltaTime": 5,
        "channel": 0,
        "type": "controller",
        "controllerType": 64,
        "value": 85
      },
      {
        "deltaTime": 17,
        "running": true,
        "channel": 0,
        "type": "controller",
        "controllerType": 64,
        "value": 0
      },
      {
        "deltaTime": 13,
        "channel": 0,
        "type": "noteOn",
        "noteNumber": 53,
        "velocity": 58
      },
      {
        "deltaTime": 1,
        "channel": 0,
        "type": "noteOn",
        "noteNumber": 50,
        "velocity": 53
      },
      {
        "deltaTime": 1,
        "channel": 0,
        "type": "noteOn",
        "noteNumber": 57,
        "velocity": 60
      },
      {
        "deltaTime": 0,
        "running": true,
        "channel": 0,
        "type": "noteOn",
        "noteNumber": 60,
        "velocity": 52
      },
      {
        "deltaTime": 0,
        "running": true,
        "channel": 0,
        "type": "noteOn",
        "noteNumber": 62,
        "velocity": 52
      },
      {
        "deltaTime": 19,
        "channel": 0,
        "type": "controller",
        "controllerType": 64,
        "value": 85
      },
      {
        "deltaTime": 4,
        "channel": 0,
        "type": "noteOff",
        "noteNumber": 60,
        "velocity": 0,
        "byte9": true
      },
      {
        "deltaTime": 28,
        "running": true,
        "channel": 0,
        "type": "noteOff",
        "noteNumber": 53,
        "velocity": 0,
        "byte9": true
      },
      {
        "deltaTime": 4,
        "running": true,
        "channel": 0,
        "type": "noteOff",
        "noteNumber": 62,
        "velocity": 0,
        "byte9": true
      },
      {
        "deltaTime": 5,
        "running": true,
        "channel": 0,
        "type": "noteOn",
        "noteNumber": 53,
        "velocity": 7
      },
      {
        "deltaTime": 0,
        "running": true,
        "channel": 0,
        "type": "noteOn",
        "noteNumber": 60,
        "velocity": 61
      },
      {
        "deltaTime": 12,
        "running": true,
        "channel": 0,
        "type": "noteOff",
        "noteNumber": 57,
        "velocity": 0,
        "byte9": true
      },
      {
        "deltaTime": 8,
        "channel": 0,
        "type": "noteOff",
        "noteNumber": 50,
        "velocity": 0,
        "byte9": true
      },
      {
        "deltaTime": 2,
        "channel": 0,
        "type": "noteOff",
        "noteNumber": 53,
        "velocity": 0,
        "byte9": true
      },
      {
        "deltaTime": 24,
        "running": true,
        "channel": 0,
        "type": "noteOff",
        "noteNumber": 60,
        "velocity": 0,
        "byte9": true
      },
      {
        "deltaTime": 15,
        "running": true,
        "channel": 0,
        "type": "noteOn",
        "noteNumber": 53,
        "velocity": 72
      },
      {
        "deltaTime": 2,
        "channel": 0,
        "type": "noteOff",
        "noteNumber": 41,
        "velocity": 0,
        "byte9": true
      },
      {
        "deltaTime": 0,
        "channel": 0,
        "type": "noteOn",
        "noteNumber": 62,
        "velocity": 64
      },
      {
        "deltaTime": 0,
        "running": true,
        "channel": 0,
        "type": "noteOn",
        "noteNumber": 58,
        "velocity": 65
      },
      {
        "deltaTime": 2,
        "channel": 0,
        "type": "noteOn",
        "noteNumber": 48,
        "velocity": 73
      },
      {
        "deltaTime": 6,
        "channel": 0,
        "type": "controller",
        "controllerType": 64,
        "value": 0
      },
      {
        "deltaTime": 32,
        "channel": 0,
        "type": "noteOff",
        "noteNumber": 53,
        "velocity": 0,
        "byte9": true
      },
      {
        "deltaTime": 0,
        "running": true,
        "channel": 0,
        "type": "noteOff",
        "noteNumber": 58,
        "velocity": 0,
        "byte9": true
      },
      {
        "deltaTime": 1,
        "running": true,
        "channel": 0,
        "type": "noteOff",
        "noteNumber": 62,
        "velocity": 0,
        "byte9": true
      },
      {
        "deltaTime": 4,
        "channel": 0,
        "type": "controller",
        "controllerType": 64,
        "value": 85
      },
      {
        "deltaTime": 8,
        "running": true,
        "channel": 0,
        "type": "controller",
        "controllerType": 64,
        "value": 0
      },
      {
        "deltaTime": 8,
        "channel": 0,
        "type": "noteOn",
        "noteNumber": 53,
        "velocity": 74
      },
      {
        "deltaTime": 2,
        "running": true,
        "channel": 0,
        "type": "noteOn",
        "noteNumber": 62,
        "velocity": 70
      },
      {
        "deltaTime": 0,
        "running": true,
        "channel": 0,
        "type": "noteOn",
        "noteNumber": 58,
        "velocity": 75
      },
      {
        "deltaTime": 15,
        "channel": 0,
        "type": "controller",
        "controllerType": 64,
        "value": 85
      },
      {
        "deltaTime": 20,
        "channel": 0,
        "type": "noteOff",
        "noteNumber": 58,
        "velocity": 0,
        "byte9": true
      },
      {
        "deltaTime": 1,
        "running": true,
        "channel": 0,
        "type": "noteOff",
        "noteNumber": 62,
        "velocity": 0,
        "byte9": true
      },
      {
        "deltaTime": 2,
        "running": true,
        "channel": 0,
        "type": "noteOff",
        "noteNumber": 53,
        "velocity": 0,
        "byte9": true
      },
      {
        "deltaTime": 21,
        "running": true,
        "channel": 0,
        "type": "noteOn",
        "noteNumber": 53,
        "velocity": 79
      },
      {
        "deltaTime": 0,
        "running": true,
        "channel": 0,
        "type": "noteOn",
        "noteNumber": 58,
        "velocity": 74
      },
      {
        "deltaTime": 1,
        "running": true,
        "channel": 0,
        "type": "noteOn",
        "noteNumber": 62,
        "velocity": 72
      },
      {
        "deltaTime": 45,
        "running": true,
        "channel": 0,
        "type": "noteOff",
        "noteNumber": 58,
        "velocity": 0,
        "byte9": true
      },
      {
        "deltaTime": 1,
        "running": true,
        "channel": 0,
        "type": "noteOff",
        "noteNumber": 53,
        "velocity": 0,
        "byte9": true
      },
      {
        "deltaTime": 4,
        "running": true,
        "channel": 0,
        "type": "noteOff",
        "noteNumber": 62,
        "velocity": 0,
        "byte9": true
      },
      {
        "deltaTime": 11,
        "running": true,
        "channel": 0,
        "type": "noteOn",
        "noteNumber": 60,
        "velocity": 61
      },
      {
        "deltaTime": 22,
        "running": true,
        "channel": 0,
        "type": "noteOff",
        "noteNumber": 60,
        "velocity": 0,
        "byte9": true
      },
      {
        "deltaTime": 44,
        "running": true,
        "channel": 0,
        "type": "noteOn",
        "noteNumber": 62,
        "velocity": 64
      },
      {
        "deltaTime": 0,
        "running": true,
        "channel": 0,
        "type": "noteOn",
        "noteNumber": 55,
        "velocity": 56
      },
      {
        "deltaTime": 0,
        "channel": 0,
        "type": "noteOn",
        "noteNumber": 36,
        "velocity": 66
      },
      {
        "deltaTime": 2,
        "channel": 0,
        "type": "noteOn",
        "noteNumber": 58,
        "velocity": 58
      },
      {
        "deltaTime": 3,
        "channel": 0,
        "type": "controller",
        "controllerType": 64,
        "value": 0
      },
      {
        "deltaTime": 21,
        "channel": 0,
        "type": "noteOff",
        "noteNumber": 58,
        "velocity": 0,
        "byte9": true
      },
      {
        "deltaTime": 5,
        "running": true,
        "channel": 0,
        "type": "noteOff",
        "noteNumber": 62,
        "velocity": 0,
        "byte9": true
      },
      {
        "deltaTime": 11,
        "channel": 0,
        "type": "controller",
        "controllerType": 64,
        "value": 85
      },
      {
        "deltaTime": 1,
        "channel": 0,
        "type": "noteOff",
        "noteNumber": 55,
        "velocity": 0,
        "byte9": true
      },
      {
        "deltaTime": 19,
        "running": true,
        "channel": 0,
        "type": "noteOn",
        "noteNumber": 55,
        "velocity": 21
      },
      {
        "deltaTime": 1,
        "running": true,
        "channel": 0,
        "type": "noteOn",
        "noteNumber": 62,
        "velocity": 71
      },
      {
        "deltaTime": 3,
        "running": true,
        "channel": 0,
        "type": "noteOn",
        "noteNumber": 58,
        "velocity": 53
      },
      {
        "deltaTime": 9,
        "running": true,
        "channel": 0,
        "type": "noteOff",
        "noteNumber": 58,
        "velocity": 0,
        "byte9": true
      },
      {
        "deltaTime": 2,
        "channel": 0,
        "type": "noteOff",
        "noteNumber": 48,
        "velocity": 0,
        "byte9": true
      },
      {
        "deltaTime": 10,
        "channel": 0,
        "type": "noteOff",
        "noteNumber": 55,
        "velocity": 0,
        "byte9": true
      },
      {
        "deltaTime": 5,
        "running": true,
        "channel": 0,
        "type": "noteOff",
        "noteNumber": 62,
        "velocity": 0,
        "byte9": true
      },
      {
        "deltaTime": 34,
        "running": true,
        "channel": 0,
        "type": "noteOn",
        "noteNumber": 55,
        "velocity": 53
      },
      {
        "deltaTime": 0,
        "channel": 0,
        "type": "noteOn",
        "noteNumber": 48,
        "velocity": 58
      },
      {
        "deltaTime": 1,
        "channel": 0,
        "type": "noteOn",
        "noteNumber": 62,
        "velocity": 57
      },
      {
        "deltaTime": 1,
        "channel": 0,
        "type": "controller",
        "controllerType": 64,
        "value": 0
      },
      {
        "deltaTime": 0,
        "channel": 0,
        "type": "noteOn",
        "noteNumber": 58,
        "velocity": 51
      },
      {
        "deltaTime": 24,
        "channel": 0,
        "type": "noteOff",
        "noteNumber": 36,
        "velocity": 0,
        "byte9": true
      },
      {
        "deltaTime": 0,
        "channel": 0,
        "type": "controller",
        "controllerType": 64,
        "value": 85
      },
      {
        "deltaTime": 26,
        "channel": 0,
        "type": "noteOff",
        "noteNumber": 58,
        "velocity": 0,
        "byte9": true
      },
      {
        "deltaTime": 5,
        "running": true,
        "channel": 0,
        "type": "noteOff",
        "noteNumber": 55,
        "velocity": 0,
        "byte9": true
      },
      {
        "deltaTime": 6,
        "running": true,
        "channel": 0,
        "type": "noteOff",
        "noteNumber": 62,
        "velocity": 0,
        "byte9": true
      },
      {
        "deltaTime": 0,
        "running": true,
        "channel": 0,
        "type": "noteOn",
        "noteNumber": 60,
        "velocity": 59
      },
      {
        "deltaTime": 3,
        "channel": 0,
        "type": "noteOff",
        "noteNumber": 48,
        "velocity": 0,
        "byte9": true
      },
      {
        "deltaTime": 13,
        "channel": 0,
        "type": "noteOff",
        "noteNumber": 60,
        "velocity": 0,
        "byte9": true
      },
      {
        "deltaTime": 17,
        "channel": 0,
        "type": "controller",
        "controllerType": 88,
        "value": 34
      },
      {
        "deltaTime": 41,
        "channel": 0,
        "type": "noteOn",
        "noteNumber": 57,
        "velocity": 57
      },
      {
        "deltaTime": 2,
        "running": true,
        "channel": 0,
        "type": "noteOn",
        "noteNumber": 66,
        "velocity": 53
      },
      {
        "deltaTime": 2,
        "running": true,
        "channel": 0,
        "type": "noteOn",
        "noteNumber": 64,
        "velocity": 57
      },
      {
        "deltaTime": 0,
        "running": true,
        "channel": 0,
        "type": "noteOn",
        "noteNumber": 61,
        "velocity": 54
      },
      {
        "deltaTime": 4,
        "channel": 0,
        "type": "noteOn",
        "noteNumber": 38,
        "velocity": 56
      },
      {
        "deltaTime": 3,
        "channel": 0,
        "type": "controller",
        "controllerType": 64,
        "value": 0
      },
      {
        "deltaTime": 45,
        "running": true,
        "channel": 0,
        "type": "controller",
        "controllerType": 64,
        "value": 85
      },
      {
        "deltaTime": 9,
        "channel": 0,
        "type": "noteOff",
        "noteNumber": 38,
        "velocity": 0,
        "byte9": true
      },
      {
        "deltaTime": 8,
        "running": true,
        "channel": 0,
        "type": "noteOn",
        "noteNumber": 45,
        "velocity": 58
      },
      {
        "deltaTime": 22,
        "channel": 0,
        "type": "noteOff",
        "noteNumber": 57,
        "velocity": 0,
        "byte9": true
      },
      {
        "deltaTime": 25,
        "channel": 0,
        "type": "noteOff",
        "noteNumber": 45,
        "velocity": 0,
        "byte9": true
      },
      {
        "deltaTime": 8,
        "running": true,
        "channel": 0,
        "type": "noteOn",
        "noteNumber": 54,
        "velocity": 55
      },
      {
        "deltaTime": 5,
        "channel": 0,
        "type": "noteOff",
        "noteNumber": 61,
        "velocity": 0,
        "byte9": true
      },
      {
        "deltaTime": 16,
        "channel": 0,
        "type": "noteOff",
        "noteNumber": 54,
        "velocity": 0,
        "byte9": true
      },
      {
        "deltaTime": 6,
        "channel": 0,
        "type": "noteOff",
        "noteNumber": 64,
        "velocity": 0,
        "byte9": true
      },
      {
        "deltaTime": 26,
        "channel": 0,
        "type": "noteOn",
        "noteNumber": 57,
        "velocity": 55
      },
      {
        "deltaTime": 7,
        "channel": 0,
        "type": "noteOff",
        "noteNumber": 66,
        "velocity": 0,
        "byte9": true
      },
      {
        "deltaTime": 26,
        "running": true,
        "channel": 0,
        "type": "noteOn",
        "noteNumber": 59,
        "velocity": 60
      },
      {
        "deltaTime": 24,
        "running": true,
        "channel": 0,
        "type": "noteOff",
        "noteNumber": 59,
        "velocity": 0,
        "byte9": true
      },
      {
        "deltaTime": 8,
        "running": true,
        "channel": 0,
        "type": "noteOn",
        "noteNumber": 61,
        "velocity": 67
      },
      {
        "deltaTime": 15,
        "running": true,
        "channel": 0,
        "type": "noteOff",
        "noteNumber": 61,
        "velocity": 0,
        "byte9": true
      },
      {
        "deltaTime": 19,
        "running": true,
        "channel": 0,
        "type": "noteOn",
        "noteNumber": 64,
        "velocity": 59
      },
      {
        "deltaTime": 10,
        "meta": true,
        "type": "text",
        "text": "A simple D Maj9 arpeggio."
      },
      {
        "deltaTime": 15,
        "running": true,
        "channel": 0,
        "type": "noteOff",
        "noteNumber": 64,
        "velocity": 0,
        "byte9": true
      },
      {
        "deltaTime": 6,
        "running": true,
        "channel": 0,
        "type": "noteOn",
        "noteNumber": 66,
        "velocity": 62
      },
      {
        "deltaTime": 12,
        "running": true,
        "channel": 0,
        "type": "noteOff",
        "noteNumber": 66,
        "velocity": 0,
        "byte9": true
      },
      {
        "deltaTime": 19,
        "running": true,
        "channel": 0,
        "type": "noteOn",
        "noteNumber": 71,
        "velocity": 63
      },
      {
        "deltaTime": 26,
        "running": true,
        "channel": 0,
        "type": "noteOff",
        "noteNumber": 71,
        "velocity": 0,
        "byte9": true
      },
      {
        "deltaTime": 6,
        "running": true,
        "channel": 0,
        "type": "noteOn",
        "noteNumber": 73,
        "velocity": 60
      },
      {
        "deltaTime": 14,
        "running": true,
        "channel": 0,
        "type": "noteOff",
        "noteNumber": 73,
        "velocity": 0,
        "byte9": true
      },
      {
        "deltaTime": 19,
        "running": true,
        "channel": 0,
        "type": "noteOn",
        "noteNumber": 76,
        "velocity": 54
      },
      {
        "deltaTime": 29,
        "running": true,
        "channel": 0,
        "type": "noteOff",
        "noteNumber": 76,
        "velocity": 0,
        "byte9": true
      },
      {
        "deltaTime": 6,
        "running": true,
        "channel": 0,
        "type": "noteOn",
        "noteNumber": 78,
        "velocity": 58
      },
      {
        "deltaTime": 8,
        "running": true,
        "channel": 0,
        "type": "noteOff",
        "noteNumber": 78,
        "velocity": 0,
        "byte9": true
      },
      {
        "deltaTime": 29,
        "running": true,
        "channel": 0,
        "type": "noteOn",
        "noteNumber": 83,
        "velocity": 46
      },
      {
        "deltaTime": 32,
        "running": true,
        "channel": 0,
        "type": "noteOff",
        "noteNumber": 83,
        "velocity": 0,
        "byte9": true
      },
      {
        "deltaTime": 5,
        "running": true,
        "channel": 0,
        "type": "noteOn",
        "noteNumber": 85,
        "velocity": 46
      },
      {
        "deltaTime": 9,
        "running": true,
        "channel": 0,
        "type": "noteOff",
        "noteNumber": 85,
        "velocity": 0,
        "byte9": true
      },
      {
        "deltaTime": 31,
        "running": true,
        "channel": 0,
        "type": "noteOn",
        "noteNumber": 88,
        "velocity": 55
      },
      {
        "deltaTime": 38,
        "running": true,
        "channel": 0,
        "type": "noteOn",
        "noteNumber": 93,
        "velocity": 61
      },
      {
        "deltaTime": 47,
        "running": true,
        "channel": 0,
        "type": "noteOn",
        "noteNumber": 97,
        "velocity": 61
      },
      {
        "deltaTime": 27,
        "running": true,
        "channel": 0,
        "type": "noteOff",
        "noteNumber": 88,
        "velocity": 0,
        "byte9": true
      },
      {
        "deltaTime": 8,
        "running": true,
        "channel": 0,
        "type": "noteOff",
        "noteNumber": 97,
        "velocity": 0,
        "byte9": true
      },
      {
        "deltaTime": 8,
        "running": true,
        "channel": 0,
        "type": "noteOn",
        "noteNumber": 100,
        "velocity": 71
      },
      {
        "deltaTime": 49,
        "running": true,
        "channel": 0,
        "type": "noteOff",
        "noteNumber": 100,
        "velocity": 0,
        "byte9": true
      },
      {
        "deltaTime": 2,
        "running": true,
        "channel": 0,
        "type": "noteOn",
        "noteNumber": 97,
        "velocity": 71
      },
      {
        "deltaTime": 35,
        "channel": 0,
        "type": "controller",
        "controllerType": 64,
        "value": 0
      },
      {
        "deltaTime": 105,
        "channel": 0,
        "type": "noteOff",
        "noteNumber": 57,
        "velocity": 0,
        "byte9": true
      },
      {
        "deltaTime": 3,
        "channel": 0,
        "type": "noteOff",
        "noteNumber": 97,
        "velocity": 0,
        "byte9": true
      },
      {
        "deltaTime": 1,
        "running": true,
        "channel": 0,
        "type": "noteOff",
        "noteNumber": 93,
        "velocity": 0,
        "byte9": true
      },
      {
        "deltaTime": 219,
        "channel": 0,
        "type": "controller",
        "controllerType": 64,
        "value": 0
      },
      { "deltaTime": 0, "meta": true, "type": "endOfTrack" }
    ]
  ]
}
